%
M48
M72
T01C0.0126
T02C0.0354
T03C0.0394
T04C0.0591
T05C0.1260
%
T01
X3300Y1725
X4087Y1725
X4874Y1725
X5662Y1725
X6449Y1725
X7237Y1725
X8024Y1725
X8811Y1725
X9599Y1725
X10386Y1725
X11174Y1725
X11961Y1725
X12748Y1725
X13536Y1725
X14323Y1725
X15111Y1725
X15898Y1725
X16685Y1725
X17473Y1725
X18260Y1725
X19048Y1725
X19835Y1725
X20622Y1725
X21410Y1725
X22197Y1725
X22985Y1725
X23772Y1725
X24559Y1725
X25347Y1725
X26134Y1725
X26922Y1725
X27709Y1725
X28496Y1725
X29284Y1725
X30071Y1725
X30859Y1725
X31646Y1725
X32433Y1725
X33221Y1725
X34008Y1725
X34796Y1725
X35583Y1725
X36370Y1725
X37158Y1725
X37945Y1725
X38733Y1725
X39520Y1725
X40307Y1725
X41095Y1725
X41882Y1725
X42670Y1725
X43457Y1725
X44244Y1725
X45032Y1725
X45819Y1725
X46607Y1725
X48969Y1725
X50150Y2512
X50544Y2512
X50544Y2906
X50150Y2906
X53693Y2906
X54087Y2906
X54087Y2512
X53693Y2512
X56056Y2906
X56056Y15504
X54481Y15504
X54481Y15209
X53496Y15209
X53496Y15504
X53496Y15800
X54481Y15800
X54481Y16095
X54185Y16095
X53792Y16095
X53496Y16095
X53201Y16095
X52906Y16095
X52611Y16095
X52611Y15800
X52611Y15504
X52611Y15209
X52611Y14914
X52611Y14619
X52611Y14323
X52611Y14028
X51823Y13634
X50741Y13339
X51823Y12748
X51331Y12355
X53300Y12355
X53300Y12059
X54284Y11666
X54284Y11370
X54284Y10780
X53103Y10780
X52512Y10780
X52020Y10485
X51331Y10780
X49953Y10681
X49166Y10091
X49166Y9894
X48181Y10189
X46804Y10189
X45819Y9205
X45032Y8418
X44244Y7630
X42276Y8024
X41095Y7237
X39520Y7237
X37945Y7237
X36370Y7237
X34796Y7237
X33221Y7237
X31646Y7237
X30071Y7237
X28496Y7237
X26922Y7237
X25347Y7237
X23772Y7237
X22197Y7237
X21016Y6449
X20819Y5859
X19835Y5859
X22197Y5662
X23772Y5662
X25347Y5662
X26922Y5662
X28496Y5662
X30071Y5662
X31646Y5662
X33221Y5662
X34796Y5662
X36370Y5662
X37945Y5662
X42178Y5760
X42670Y6056
X44244Y5662
X47000Y6252
X47197Y6252
X47985Y6056
X48181Y6056
X50052Y6056
X50248Y6056
X50248Y5859
X50052Y5859
X52119Y7040
X52611Y6941
X52611Y7827
X53300Y8024
X51922Y8122
X50347Y8122
X50347Y7926
X49756Y7827
X49559Y7827
X49264Y7827
X49067Y7827
X49855Y8615
X50544Y8811
X50544Y9008
X52020Y8910
X53103Y9402
X55268Y9205
X56843Y9205
X58615Y8811
X58615Y8024
X58418Y7237
X58418Y6449
X58418Y5662
X58418Y4874
X58418Y4087
X57237Y4087
X56056Y4087
X53103Y4087
X53103Y3890
X47000Y4087
X46607Y4087
X46213Y4087
X44244Y4087
X42670Y4087
X38142Y3004
X37945Y4087
X36370Y4087
X34796Y4087
X33221Y4087
X31646Y4087
X30071Y4087
X28496Y4087
X26922Y4087
X25347Y4087
X23772Y4087
X22197Y4087
X20819Y3890
X19835Y3890
X18851Y4185
X19343Y3201
X18359Y3201
X17276Y3201
X15898Y3300
X15898Y3693
X15898Y4087
X15504Y4087
X13536Y4087
X13142Y4087
X13142Y3693
X13142Y3300
X10878Y3595
X10681Y3595
X10681Y3792
X10878Y3792
X10878Y3792
X9599Y2906
X8024Y2906
X6449Y2906
X4874Y2906
X3300Y2906
X56056Y16685
X55268Y16685
X54481Y16685
X53693Y16685
X52906Y16685
X52119Y16685
X51331Y16685
X50544Y16685
X49756Y16685
X48969Y16685
X48181Y16685
X47394Y16685
X46607Y16685
X45819Y16685
X45032Y16685
X44244Y16685
X43457Y16685
X42670Y16685
X41882Y16685
X41095Y16685
X40307Y16685
X39520Y16685
X38733Y16685
X37945Y16685
X37158Y16685
X36370Y16685
X35583Y16685
X34796Y16685
X34008Y16685
X33615Y16292
X33615Y15504
X34796Y15111
X33615Y14717
X33615Y13930
X33221Y13536
X32827Y13142
X32040Y13142
X31252Y13142
X30465Y13142
X29678Y13142
X28890Y13142
X28103Y13142
X27119Y12355
X28496Y11961
X30071Y11961
X33221Y11961
X34796Y11961
X36370Y11961
X37945Y11961
X39520Y11961
X41095Y11961
X42670Y11961
X42670Y10386
X41095Y10386
X39520Y10386
X37945Y10386
X36370Y10386
X34796Y10386
X33221Y10386
X31646Y10386
X30071Y10386
X28496Y10386
X26626Y10189
X26430Y10189
X26331Y10681
X26331Y10878
X24953Y10878
X24953Y10681
X23772Y10386
X22197Y10386
X19048Y10386
X17473Y10386
X15898Y10386
X14323Y10386
X12748Y10386
X11174Y10386
X8910Y9304
X8713Y9304
X8319Y9304
X8122Y9304
X8024Y8811
X6449Y8811
X4874Y8811
X3300Y8811
X937Y8811
X937Y8024
X937Y7237
X3300Y7237
X4874Y7237
X6449Y7237
X8024Y7237
X9008Y7827
X10189Y7827
X11370Y7827
X11961Y7237
X13536Y7237
X13930Y7237
X13930Y6843
X13536Y6843
X12945Y6843
X16095Y7040
X15898Y8811
X14323Y8811
X12748Y8811
X11174Y8811
X9599Y8811
X7532Y10386
X6252Y10386
X4678Y10386
X937Y10386
X937Y9599
X937Y11174
X937Y11961
X3300Y11961
X937Y12748
X937Y13536
X937Y14323
X2119Y14323
X3300Y14323
X4284Y14520
X4284Y14914
X4284Y15307
X3300Y15504
X4284Y15701
X4678Y15701
X5071Y15701
X4874Y16685
X5662Y16685
X6449Y16685
X7237Y16685
X8024Y16685
X8811Y16685
X9599Y16685
X10386Y16685
X11174Y16685
X11961Y16685
X12355Y16292
X12355Y15504
X12355Y14717
X12355Y13930
X12748Y13536
X13142Y13142
X13930Y13142
X14717Y13142
X15504Y13142
X16292Y13142
X17079Y13142
X17867Y13142
X18654Y13142
X19441Y13142
X21410Y13142
X22197Y13142
X22985Y13142
X23772Y13142
X24559Y13142
X23772Y11961
X22197Y11961
X21607Y11370
X20918Y11370
X19048Y11961
X17473Y11961
X15898Y11961
X14323Y11961
X12748Y11961
X8221Y12945
X6843Y13536
X6843Y13930
X8221Y15701
X8418Y15701
X4087Y16685
X3300Y16685
X17473Y8811
X19048Y8811
X22197Y8811
X23772Y8811
X28496Y8811
X30071Y8811
X31646Y8811
X33221Y8811
X34796Y8811
X36370Y8811
X37945Y8811
X39520Y8811
X41095Y8811
X42670Y8811
X43457Y6843
X53595Y8615
X53792Y8615
X58615Y9599
X58418Y10386
X58418Y11174
X58418Y11961
X58418Y12748
X58418Y13536
X58418Y14323
X57237Y14323
X56056Y14323
X54481Y14323
X54481Y14619
X53496Y14619
X53496Y14323
X53496Y14028
X54481Y14028
X55268Y13634
X55268Y13437
X55268Y13142
X55268Y12945
X53398Y13241
X49756Y14225
X48870Y14225
X47788Y13831
X47394Y13536
X45819Y13536
X44244Y13536
X42670Y13536
X41095Y13536
X39520Y13536
X37945Y13536
X36370Y13536
X34796Y13536
X36370Y15111
X37945Y15111
X39520Y15111
X41095Y15111
X42670Y15111
X44244Y15111
X45819Y15111
X47394Y15111
X48969Y15111
X49756Y14815
X49756Y15406
X49756Y15603
X53496Y14914
X54481Y14914
X49166Y13142
X49166Y12945
X49264Y12650
X48181Y12552
X21410Y4874
X20426Y2512
X8024Y4087
X6449Y4087
X4874Y4087
X3300Y4087
X2119Y4087
X937Y4087
X937Y4874
X937Y5662
X937Y6449
X4874Y5662
X6449Y5662
X8024Y5662
X55268Y1725
X56056Y1725
T02
X52985Y2807
X51252Y2807
T03
X57630Y7205
X57630Y8205
X57630Y9205
X57630Y10205
X57630Y11205
T04
X47788Y1567
X47788Y4323
T05
X1725Y2512
X1725Y15898
X57630Y15898
X57630Y2512
M30
