G75*
G70*
%OFA0B0*%
%FSLAX24Y24*%
%IPPOS*%
%LPD*%
%AMOC8*
5,1,8,0,0,1.08239X$1,22.5*
%
%ADD10C,0.0000*%
%ADD11R,0.0433X0.0394*%
%ADD12R,0.0394X0.0433*%
%ADD13R,0.0315X0.0315*%
%ADD14R,0.0787X0.0984*%
%ADD15R,0.0787X0.1299*%
%ADD16R,0.0197X0.1220*%
%ADD17R,0.0472X0.0217*%
%ADD18R,0.1181X0.1181*%
%ADD19R,0.0236X0.0866*%
%ADD20R,0.0394X0.0551*%
%ADD21R,0.0630X0.0710*%
%ADD22C,0.0787*%
%ADD23R,0.0906X0.0984*%
%ADD24R,0.2165X0.0728*%
%ADD25R,0.0630X0.1063*%
%ADD26R,0.0787X0.0630*%
%ADD27R,0.0709X0.0433*%
%ADD28R,0.0118X0.0472*%
%ADD29R,0.0472X0.0118*%
%ADD30C,0.0660*%
%ADD31R,0.0236X0.0472*%
%ADD32R,0.0472X0.0236*%
%ADD33R,0.1102X0.0591*%
%ADD34R,0.0787X0.0945*%
%ADD35R,0.0217X0.0472*%
%ADD36R,0.0394X0.0709*%
%ADD37R,0.0860X0.0420*%
%ADD38R,0.0400X0.1300*%
%ADD39R,0.1024X0.1417*%
%ADD40C,0.0100*%
%ADD41C,0.0246*%
%ADD42C,0.0120*%
%ADD43C,0.0160*%
%ADD44C,0.0500*%
%ADD45C,0.0240*%
%ADD46C,0.0320*%
D10*
X001725Y000937D02*
X057630Y000937D01*
X057000Y002512D02*
X057002Y002562D01*
X057008Y002612D01*
X057018Y002661D01*
X057032Y002709D01*
X057049Y002756D01*
X057070Y002801D01*
X057095Y002845D01*
X057123Y002886D01*
X057155Y002925D01*
X057189Y002962D01*
X057226Y002996D01*
X057266Y003026D01*
X057308Y003053D01*
X057352Y003077D01*
X057398Y003098D01*
X057445Y003114D01*
X057493Y003127D01*
X057543Y003136D01*
X057592Y003141D01*
X057643Y003142D01*
X057693Y003139D01*
X057742Y003132D01*
X057791Y003121D01*
X057839Y003106D01*
X057885Y003088D01*
X057930Y003066D01*
X057973Y003040D01*
X058014Y003011D01*
X058053Y002979D01*
X058089Y002944D01*
X058121Y002906D01*
X058151Y002866D01*
X058178Y002823D01*
X058201Y002779D01*
X058220Y002733D01*
X058236Y002685D01*
X058248Y002636D01*
X058256Y002587D01*
X058260Y002537D01*
X058260Y002487D01*
X058256Y002437D01*
X058248Y002388D01*
X058236Y002339D01*
X058220Y002291D01*
X058201Y002245D01*
X058178Y002201D01*
X058151Y002158D01*
X058121Y002118D01*
X058089Y002080D01*
X058053Y002045D01*
X058014Y002013D01*
X057973Y001984D01*
X057930Y001958D01*
X057885Y001936D01*
X057839Y001918D01*
X057791Y001903D01*
X057742Y001892D01*
X057693Y001885D01*
X057643Y001882D01*
X057592Y001883D01*
X057543Y001888D01*
X057493Y001897D01*
X057445Y001910D01*
X057398Y001926D01*
X057352Y001947D01*
X057308Y001971D01*
X057266Y001998D01*
X057226Y002028D01*
X057189Y002062D01*
X057155Y002099D01*
X057123Y002138D01*
X057095Y002179D01*
X057070Y002223D01*
X057049Y002268D01*
X057032Y002315D01*
X057018Y002363D01*
X057008Y002412D01*
X057002Y002462D01*
X057000Y002512D01*
X057630Y000937D02*
X057707Y000939D01*
X057784Y000945D01*
X057861Y000954D01*
X057937Y000967D01*
X058013Y000984D01*
X058087Y001005D01*
X058161Y001029D01*
X058233Y001057D01*
X058303Y001088D01*
X058372Y001123D01*
X058440Y001161D01*
X058505Y001202D01*
X058568Y001247D01*
X058629Y001295D01*
X058688Y001345D01*
X058744Y001398D01*
X058797Y001454D01*
X058847Y001513D01*
X058895Y001574D01*
X058940Y001637D01*
X058981Y001702D01*
X059019Y001770D01*
X059054Y001839D01*
X059085Y001909D01*
X059113Y001981D01*
X059137Y002055D01*
X059158Y002129D01*
X059175Y002205D01*
X059188Y002281D01*
X059197Y002358D01*
X059203Y002435D01*
X059205Y002512D01*
X059205Y015898D01*
X057000Y015898D02*
X057002Y015948D01*
X057008Y015998D01*
X057018Y016047D01*
X057032Y016095D01*
X057049Y016142D01*
X057070Y016187D01*
X057095Y016231D01*
X057123Y016272D01*
X057155Y016311D01*
X057189Y016348D01*
X057226Y016382D01*
X057266Y016412D01*
X057308Y016439D01*
X057352Y016463D01*
X057398Y016484D01*
X057445Y016500D01*
X057493Y016513D01*
X057543Y016522D01*
X057592Y016527D01*
X057643Y016528D01*
X057693Y016525D01*
X057742Y016518D01*
X057791Y016507D01*
X057839Y016492D01*
X057885Y016474D01*
X057930Y016452D01*
X057973Y016426D01*
X058014Y016397D01*
X058053Y016365D01*
X058089Y016330D01*
X058121Y016292D01*
X058151Y016252D01*
X058178Y016209D01*
X058201Y016165D01*
X058220Y016119D01*
X058236Y016071D01*
X058248Y016022D01*
X058256Y015973D01*
X058260Y015923D01*
X058260Y015873D01*
X058256Y015823D01*
X058248Y015774D01*
X058236Y015725D01*
X058220Y015677D01*
X058201Y015631D01*
X058178Y015587D01*
X058151Y015544D01*
X058121Y015504D01*
X058089Y015466D01*
X058053Y015431D01*
X058014Y015399D01*
X057973Y015370D01*
X057930Y015344D01*
X057885Y015322D01*
X057839Y015304D01*
X057791Y015289D01*
X057742Y015278D01*
X057693Y015271D01*
X057643Y015268D01*
X057592Y015269D01*
X057543Y015274D01*
X057493Y015283D01*
X057445Y015296D01*
X057398Y015312D01*
X057352Y015333D01*
X057308Y015357D01*
X057266Y015384D01*
X057226Y015414D01*
X057189Y015448D01*
X057155Y015485D01*
X057123Y015524D01*
X057095Y015565D01*
X057070Y015609D01*
X057049Y015654D01*
X057032Y015701D01*
X057018Y015749D01*
X057008Y015798D01*
X057002Y015848D01*
X057000Y015898D01*
X057630Y017473D02*
X057707Y017471D01*
X057784Y017465D01*
X057861Y017456D01*
X057937Y017443D01*
X058013Y017426D01*
X058087Y017405D01*
X058161Y017381D01*
X058233Y017353D01*
X058303Y017322D01*
X058372Y017287D01*
X058440Y017249D01*
X058505Y017208D01*
X058568Y017163D01*
X058629Y017115D01*
X058688Y017065D01*
X058744Y017012D01*
X058797Y016956D01*
X058847Y016897D01*
X058895Y016836D01*
X058940Y016773D01*
X058981Y016708D01*
X059019Y016640D01*
X059054Y016571D01*
X059085Y016501D01*
X059113Y016429D01*
X059137Y016355D01*
X059158Y016281D01*
X059175Y016205D01*
X059188Y016129D01*
X059197Y016052D01*
X059203Y015975D01*
X059205Y015898D01*
X057630Y017473D02*
X001725Y017473D01*
X001095Y015898D02*
X001097Y015948D01*
X001103Y015998D01*
X001113Y016047D01*
X001127Y016095D01*
X001144Y016142D01*
X001165Y016187D01*
X001190Y016231D01*
X001218Y016272D01*
X001250Y016311D01*
X001284Y016348D01*
X001321Y016382D01*
X001361Y016412D01*
X001403Y016439D01*
X001447Y016463D01*
X001493Y016484D01*
X001540Y016500D01*
X001588Y016513D01*
X001638Y016522D01*
X001687Y016527D01*
X001738Y016528D01*
X001788Y016525D01*
X001837Y016518D01*
X001886Y016507D01*
X001934Y016492D01*
X001980Y016474D01*
X002025Y016452D01*
X002068Y016426D01*
X002109Y016397D01*
X002148Y016365D01*
X002184Y016330D01*
X002216Y016292D01*
X002246Y016252D01*
X002273Y016209D01*
X002296Y016165D01*
X002315Y016119D01*
X002331Y016071D01*
X002343Y016022D01*
X002351Y015973D01*
X002355Y015923D01*
X002355Y015873D01*
X002351Y015823D01*
X002343Y015774D01*
X002331Y015725D01*
X002315Y015677D01*
X002296Y015631D01*
X002273Y015587D01*
X002246Y015544D01*
X002216Y015504D01*
X002184Y015466D01*
X002148Y015431D01*
X002109Y015399D01*
X002068Y015370D01*
X002025Y015344D01*
X001980Y015322D01*
X001934Y015304D01*
X001886Y015289D01*
X001837Y015278D01*
X001788Y015271D01*
X001738Y015268D01*
X001687Y015269D01*
X001638Y015274D01*
X001588Y015283D01*
X001540Y015296D01*
X001493Y015312D01*
X001447Y015333D01*
X001403Y015357D01*
X001361Y015384D01*
X001321Y015414D01*
X001284Y015448D01*
X001250Y015485D01*
X001218Y015524D01*
X001190Y015565D01*
X001165Y015609D01*
X001144Y015654D01*
X001127Y015701D01*
X001113Y015749D01*
X001103Y015798D01*
X001097Y015848D01*
X001095Y015898D01*
X000150Y015898D02*
X000152Y015975D01*
X000158Y016052D01*
X000167Y016129D01*
X000180Y016205D01*
X000197Y016281D01*
X000218Y016355D01*
X000242Y016429D01*
X000270Y016501D01*
X000301Y016571D01*
X000336Y016640D01*
X000374Y016708D01*
X000415Y016773D01*
X000460Y016836D01*
X000508Y016897D01*
X000558Y016956D01*
X000611Y017012D01*
X000667Y017065D01*
X000726Y017115D01*
X000787Y017163D01*
X000850Y017208D01*
X000915Y017249D01*
X000983Y017287D01*
X001052Y017322D01*
X001122Y017353D01*
X001194Y017381D01*
X001268Y017405D01*
X001342Y017426D01*
X001418Y017443D01*
X001494Y017456D01*
X001571Y017465D01*
X001648Y017471D01*
X001725Y017473D01*
X000150Y015898D02*
X000150Y002512D01*
X001095Y002512D02*
X001097Y002562D01*
X001103Y002612D01*
X001113Y002661D01*
X001127Y002709D01*
X001144Y002756D01*
X001165Y002801D01*
X001190Y002845D01*
X001218Y002886D01*
X001250Y002925D01*
X001284Y002962D01*
X001321Y002996D01*
X001361Y003026D01*
X001403Y003053D01*
X001447Y003077D01*
X001493Y003098D01*
X001540Y003114D01*
X001588Y003127D01*
X001638Y003136D01*
X001687Y003141D01*
X001738Y003142D01*
X001788Y003139D01*
X001837Y003132D01*
X001886Y003121D01*
X001934Y003106D01*
X001980Y003088D01*
X002025Y003066D01*
X002068Y003040D01*
X002109Y003011D01*
X002148Y002979D01*
X002184Y002944D01*
X002216Y002906D01*
X002246Y002866D01*
X002273Y002823D01*
X002296Y002779D01*
X002315Y002733D01*
X002331Y002685D01*
X002343Y002636D01*
X002351Y002587D01*
X002355Y002537D01*
X002355Y002487D01*
X002351Y002437D01*
X002343Y002388D01*
X002331Y002339D01*
X002315Y002291D01*
X002296Y002245D01*
X002273Y002201D01*
X002246Y002158D01*
X002216Y002118D01*
X002184Y002080D01*
X002148Y002045D01*
X002109Y002013D01*
X002068Y001984D01*
X002025Y001958D01*
X001980Y001936D01*
X001934Y001918D01*
X001886Y001903D01*
X001837Y001892D01*
X001788Y001885D01*
X001738Y001882D01*
X001687Y001883D01*
X001638Y001888D01*
X001588Y001897D01*
X001540Y001910D01*
X001493Y001926D01*
X001447Y001947D01*
X001403Y001971D01*
X001361Y001998D01*
X001321Y002028D01*
X001284Y002062D01*
X001250Y002099D01*
X001218Y002138D01*
X001190Y002179D01*
X001165Y002223D01*
X001144Y002268D01*
X001127Y002315D01*
X001113Y002363D01*
X001103Y002412D01*
X001097Y002462D01*
X001095Y002512D01*
X000150Y002512D02*
X000152Y002435D01*
X000158Y002358D01*
X000167Y002281D01*
X000180Y002205D01*
X000197Y002129D01*
X000218Y002055D01*
X000242Y001981D01*
X000270Y001909D01*
X000301Y001839D01*
X000336Y001770D01*
X000374Y001702D01*
X000415Y001637D01*
X000460Y001574D01*
X000508Y001513D01*
X000558Y001454D01*
X000611Y001398D01*
X000667Y001345D01*
X000726Y001295D01*
X000787Y001247D01*
X000850Y001202D01*
X000915Y001161D01*
X000983Y001123D01*
X001052Y001088D01*
X001122Y001057D01*
X001194Y001029D01*
X001268Y001005D01*
X001342Y000984D01*
X001418Y000967D01*
X001494Y000954D01*
X001571Y000945D01*
X001648Y000939D01*
X001725Y000937D01*
X047493Y001567D02*
X047495Y001601D01*
X047501Y001635D01*
X047511Y001668D01*
X047524Y001699D01*
X047542Y001729D01*
X047562Y001757D01*
X047586Y001782D01*
X047612Y001804D01*
X047640Y001822D01*
X047671Y001838D01*
X047703Y001850D01*
X047737Y001858D01*
X047771Y001862D01*
X047805Y001862D01*
X047839Y001858D01*
X047873Y001850D01*
X047905Y001838D01*
X047935Y001822D01*
X047964Y001804D01*
X047990Y001782D01*
X048014Y001757D01*
X048034Y001729D01*
X048052Y001699D01*
X048065Y001668D01*
X048075Y001635D01*
X048081Y001601D01*
X048083Y001567D01*
X048081Y001533D01*
X048075Y001499D01*
X048065Y001466D01*
X048052Y001435D01*
X048034Y001405D01*
X048014Y001377D01*
X047990Y001352D01*
X047964Y001330D01*
X047936Y001312D01*
X047905Y001296D01*
X047873Y001284D01*
X047839Y001276D01*
X047805Y001272D01*
X047771Y001272D01*
X047737Y001276D01*
X047703Y001284D01*
X047671Y001296D01*
X047640Y001312D01*
X047612Y001330D01*
X047586Y001352D01*
X047562Y001377D01*
X047542Y001405D01*
X047524Y001435D01*
X047511Y001466D01*
X047501Y001499D01*
X047495Y001533D01*
X047493Y001567D01*
X051075Y002807D02*
X051077Y002833D01*
X051083Y002859D01*
X051093Y002884D01*
X051106Y002907D01*
X051122Y002927D01*
X051142Y002945D01*
X051164Y002960D01*
X051187Y002972D01*
X051213Y002980D01*
X051239Y002984D01*
X051265Y002984D01*
X051291Y002980D01*
X051317Y002972D01*
X051341Y002960D01*
X051362Y002945D01*
X051382Y002927D01*
X051398Y002907D01*
X051411Y002884D01*
X051421Y002859D01*
X051427Y002833D01*
X051429Y002807D01*
X051427Y002781D01*
X051421Y002755D01*
X051411Y002730D01*
X051398Y002707D01*
X051382Y002687D01*
X051362Y002669D01*
X051340Y002654D01*
X051317Y002642D01*
X051291Y002634D01*
X051265Y002630D01*
X051239Y002630D01*
X051213Y002634D01*
X051187Y002642D01*
X051163Y002654D01*
X051142Y002669D01*
X051122Y002687D01*
X051106Y002707D01*
X051093Y002730D01*
X051083Y002755D01*
X051077Y002781D01*
X051075Y002807D01*
X052808Y002807D02*
X052810Y002833D01*
X052816Y002859D01*
X052826Y002884D01*
X052839Y002907D01*
X052855Y002927D01*
X052875Y002945D01*
X052897Y002960D01*
X052920Y002972D01*
X052946Y002980D01*
X052972Y002984D01*
X052998Y002984D01*
X053024Y002980D01*
X053050Y002972D01*
X053074Y002960D01*
X053095Y002945D01*
X053115Y002927D01*
X053131Y002907D01*
X053144Y002884D01*
X053154Y002859D01*
X053160Y002833D01*
X053162Y002807D01*
X053160Y002781D01*
X053154Y002755D01*
X053144Y002730D01*
X053131Y002707D01*
X053115Y002687D01*
X053095Y002669D01*
X053073Y002654D01*
X053050Y002642D01*
X053024Y002634D01*
X052998Y002630D01*
X052972Y002630D01*
X052946Y002634D01*
X052920Y002642D01*
X052896Y002654D01*
X052875Y002669D01*
X052855Y002687D01*
X052839Y002707D01*
X052826Y002730D01*
X052816Y002755D01*
X052810Y002781D01*
X052808Y002807D01*
X047493Y004323D02*
X047495Y004357D01*
X047501Y004391D01*
X047511Y004424D01*
X047524Y004455D01*
X047542Y004485D01*
X047562Y004513D01*
X047586Y004538D01*
X047612Y004560D01*
X047640Y004578D01*
X047671Y004594D01*
X047703Y004606D01*
X047737Y004614D01*
X047771Y004618D01*
X047805Y004618D01*
X047839Y004614D01*
X047873Y004606D01*
X047905Y004594D01*
X047935Y004578D01*
X047964Y004560D01*
X047990Y004538D01*
X048014Y004513D01*
X048034Y004485D01*
X048052Y004455D01*
X048065Y004424D01*
X048075Y004391D01*
X048081Y004357D01*
X048083Y004323D01*
X048081Y004289D01*
X048075Y004255D01*
X048065Y004222D01*
X048052Y004191D01*
X048034Y004161D01*
X048014Y004133D01*
X047990Y004108D01*
X047964Y004086D01*
X047936Y004068D01*
X047905Y004052D01*
X047873Y004040D01*
X047839Y004032D01*
X047805Y004028D01*
X047771Y004028D01*
X047737Y004032D01*
X047703Y004040D01*
X047671Y004052D01*
X047640Y004068D01*
X047612Y004086D01*
X047586Y004108D01*
X047562Y004133D01*
X047542Y004161D01*
X047524Y004191D01*
X047511Y004222D01*
X047501Y004255D01*
X047495Y004289D01*
X047493Y004323D01*
D11*
X052414Y005229D03*
X053004Y005229D03*
X053595Y005229D03*
X053595Y005898D03*
X053004Y005898D03*
X052414Y005898D03*
X051666Y006449D03*
X050996Y006449D03*
X050996Y007040D03*
X051666Y007040D03*
X051666Y008910D03*
X050996Y008910D03*
X050288Y009993D03*
X049619Y009993D03*
X054284Y009737D03*
X054284Y009067D03*
X054146Y013044D03*
X054815Y013044D03*
X054815Y013536D03*
X054146Y013536D03*
X050288Y013044D03*
X049619Y013044D03*
X050209Y015504D03*
X050878Y015504D03*
X051489Y015504D03*
X052158Y015504D03*
X026528Y013280D03*
X026528Y012611D03*
X026528Y012000D03*
X026528Y011331D03*
X007729Y014579D03*
X007729Y015248D03*
D12*
X008319Y015248D03*
X007138Y015248D03*
X007138Y014579D03*
X008319Y014579D03*
X008221Y010426D03*
X008811Y010426D03*
X008811Y009756D03*
X008221Y009756D03*
X014382Y007040D03*
X015052Y007040D03*
X026528Y009067D03*
X026528Y009737D03*
X047158Y008811D03*
X047827Y008811D03*
X047827Y008221D03*
X047158Y008221D03*
X047099Y007374D03*
X047099Y006705D03*
X049067Y006705D03*
X049658Y006705D03*
X049658Y007374D03*
X049067Y007374D03*
X050996Y005859D03*
X051666Y005859D03*
X051666Y005268D03*
X050996Y005268D03*
X053693Y009067D03*
X053693Y009737D03*
X054737Y011666D03*
X055406Y011666D03*
X055406Y012256D03*
X054737Y012256D03*
X053989Y014874D03*
X053004Y014874D03*
X053004Y015544D03*
X053989Y015544D03*
D13*
X056056Y012256D03*
X056646Y012256D03*
X056646Y011666D03*
X056056Y011666D03*
X027119Y011961D03*
X027119Y011370D03*
D14*
X050367Y001626D03*
X053870Y001626D03*
D15*
X053870Y003949D03*
X050367Y003949D03*
D16*
X051489Y003989D03*
X051804Y003989D03*
X052119Y003989D03*
X052433Y003989D03*
X052748Y003989D03*
D17*
X051843Y007650D03*
X050819Y007650D03*
X050819Y008024D03*
X050819Y008398D03*
X051843Y008398D03*
D18*
X009717Y006252D03*
X003575Y006252D03*
D19*
X004715Y011528D03*
X005215Y011528D03*
X005715Y011528D03*
X006215Y011528D03*
X007274Y011528D03*
X007774Y011528D03*
X008274Y011528D03*
X008774Y011528D03*
X008774Y013575D03*
X008274Y013575D03*
X007774Y013575D03*
X007274Y013575D03*
X006215Y013575D03*
X005715Y013575D03*
X005215Y013575D03*
X004715Y013575D03*
D20*
X009796Y012000D03*
X010170Y011134D03*
X009422Y011134D03*
D21*
X006025Y014914D03*
X004905Y014914D03*
D22*
X005465Y010386D03*
X003300Y010386D03*
X009796Y010091D03*
X009993Y003693D03*
D23*
X011115Y005465D03*
X012807Y005465D03*
D24*
X014520Y005485D03*
X014520Y003477D03*
D25*
X012512Y003693D03*
X011410Y003693D03*
D26*
X016095Y005504D03*
X016095Y006607D03*
D27*
X054343Y007178D03*
X056784Y007178D03*
X056784Y005721D03*
X054343Y005721D03*
D28*
X053201Y009894D03*
X053004Y009894D03*
X052807Y009894D03*
X052611Y009894D03*
X052414Y009894D03*
X052217Y009894D03*
X052020Y009894D03*
X051823Y009894D03*
X051626Y009894D03*
X051430Y009894D03*
X051233Y009894D03*
X051036Y009894D03*
X051036Y013241D03*
X051233Y013241D03*
X051430Y013241D03*
X051626Y013241D03*
X051823Y013241D03*
X052020Y013241D03*
X052217Y013241D03*
X052414Y013241D03*
X052611Y013241D03*
X052807Y013241D03*
X053004Y013241D03*
X053201Y013241D03*
D29*
X053792Y012650D03*
X053792Y012453D03*
X053792Y012256D03*
X053792Y012059D03*
X053792Y011863D03*
X053792Y011666D03*
X053792Y011469D03*
X053792Y011272D03*
X053792Y011075D03*
X053792Y010878D03*
X053792Y010681D03*
X053792Y010485D03*
X050445Y010485D03*
X050445Y010681D03*
X050445Y010878D03*
X050445Y011075D03*
X050445Y011272D03*
X050445Y011469D03*
X050445Y011666D03*
X050445Y011863D03*
X050445Y012059D03*
X050445Y012256D03*
X050445Y012453D03*
X050445Y012650D03*
D30*
X057630Y011205D03*
X057630Y010205D03*
X057630Y009205D03*
X057630Y008205D03*
X057630Y007205D03*
D31*
X053083Y007433D03*
X052709Y007433D03*
X052335Y007433D03*
X052335Y006528D03*
X052709Y006528D03*
X053083Y006528D03*
D32*
X049382Y008241D03*
X049382Y008615D03*
X048477Y008615D03*
X048477Y008241D03*
X048477Y008989D03*
X049382Y008989D03*
D33*
X049126Y005347D03*
X046449Y004953D03*
X046449Y003378D03*
X046449Y002197D03*
D34*
X050445Y014520D03*
X052020Y014520D03*
D35*
X048457Y007552D03*
X047709Y007552D03*
X047709Y006528D03*
X048083Y006528D03*
X048457Y006528D03*
D36*
X053004Y014225D03*
X053989Y014225D03*
D37*
X025642Y013142D03*
X025642Y012552D03*
X025642Y011961D03*
X025642Y011370D03*
X025642Y010780D03*
X025642Y010189D03*
X025642Y009599D03*
X025642Y009008D03*
X020327Y009008D03*
X020327Y009599D03*
X020327Y010189D03*
X020327Y010780D03*
X020327Y011370D03*
X020327Y011961D03*
X020327Y012552D03*
X020327Y013142D03*
D38*
X019835Y004890D03*
X018835Y004890D03*
X020835Y004890D03*
X020835Y002890D03*
X019835Y002890D03*
X018835Y002890D03*
X038520Y002890D03*
X039520Y002890D03*
X040520Y002890D03*
X040520Y004890D03*
X039520Y004890D03*
X038520Y004890D03*
D39*
X043713Y011961D03*
X032178Y011961D03*
D40*
X032228Y011969D02*
X043091Y011969D01*
X043091Y011871D02*
X032839Y011871D01*
X032839Y011911D02*
X032839Y011233D01*
X032829Y011194D01*
X032809Y011160D01*
X032781Y011132D01*
X032747Y011113D01*
X032709Y011102D01*
X032228Y011102D01*
X032228Y011911D01*
X032228Y012011D01*
X032839Y012011D01*
X032839Y012689D01*
X032829Y012728D01*
X032809Y012762D01*
X032781Y012790D01*
X032747Y012809D01*
X032709Y012820D01*
X032228Y012820D01*
X032228Y012011D01*
X032128Y012011D01*
X032128Y012820D01*
X031646Y012820D01*
X031608Y012809D01*
X031574Y012790D01*
X031546Y012762D01*
X031526Y012728D01*
X031516Y012689D01*
X031516Y012011D01*
X032128Y012011D01*
X032128Y011911D01*
X032228Y011911D01*
X032839Y011911D01*
X032839Y011772D02*
X043091Y011772D01*
X043091Y011674D02*
X032839Y011674D01*
X032839Y011575D02*
X043091Y011575D01*
X043091Y011477D02*
X032839Y011477D01*
X032839Y011378D02*
X043091Y011378D01*
X043091Y011280D02*
X032839Y011280D01*
X032822Y011181D02*
X043117Y011181D01*
X043091Y011207D02*
X043156Y011142D01*
X044270Y011142D01*
X044335Y011207D01*
X044335Y012715D01*
X044270Y012780D01*
X043883Y012780D01*
X043883Y013328D01*
X044216Y013661D01*
X047628Y013661D01*
X047691Y013598D01*
X047884Y013598D01*
X048021Y013735D01*
X048021Y013928D01*
X047884Y014064D01*
X047691Y014064D01*
X047628Y014001D01*
X044076Y014001D01*
X043643Y013568D01*
X043543Y013468D01*
X043543Y012780D01*
X043156Y012780D01*
X043091Y012715D01*
X043091Y011207D01*
X044309Y011181D02*
X044715Y011181D01*
X044616Y011083D02*
X028066Y011083D01*
X028066Y011181D02*
X031533Y011181D01*
X031526Y011194D02*
X031546Y011160D01*
X031574Y011132D01*
X031608Y011113D01*
X031646Y011102D01*
X032128Y011102D01*
X032128Y011911D01*
X031516Y011911D01*
X031516Y011233D01*
X031526Y011194D01*
X031516Y011280D02*
X028066Y011280D01*
X028066Y011378D02*
X031516Y011378D01*
X031516Y011477D02*
X028066Y011477D01*
X028066Y011575D02*
X031516Y011575D01*
X031516Y011674D02*
X028066Y011674D01*
X028066Y011772D02*
X031516Y011772D01*
X031516Y011871D02*
X028066Y011871D01*
X028066Y011969D02*
X032128Y011969D01*
X032128Y011871D02*
X032228Y011871D01*
X032228Y011772D02*
X032128Y011772D01*
X032128Y011674D02*
X032228Y011674D01*
X032228Y011575D02*
X032128Y011575D01*
X032128Y011477D02*
X032228Y011477D01*
X032228Y011378D02*
X032128Y011378D01*
X032128Y011280D02*
X032228Y011280D01*
X032228Y011181D02*
X032128Y011181D01*
X032128Y012068D02*
X032228Y012068D01*
X032228Y012166D02*
X032128Y012166D01*
X032128Y012265D02*
X032228Y012265D01*
X032228Y012363D02*
X032128Y012363D01*
X032128Y012462D02*
X032228Y012462D01*
X032228Y012560D02*
X032128Y012560D01*
X032128Y012659D02*
X032228Y012659D01*
X032228Y012757D02*
X032128Y012757D01*
X031543Y012757D02*
X027631Y012757D01*
X027730Y012659D02*
X031516Y012659D01*
X031516Y012560D02*
X027828Y012560D01*
X027927Y012462D02*
X031516Y012462D01*
X031516Y012363D02*
X028025Y012363D01*
X028066Y012323D02*
X027972Y012416D01*
X027180Y013208D01*
X027180Y013208D01*
X027086Y013302D01*
X026854Y013302D01*
X026854Y013522D01*
X026841Y013536D01*
X032827Y013536D01*
X033221Y013930D01*
X033221Y016685D01*
X033858Y017323D01*
X057630Y017323D01*
X057816Y017311D01*
X058176Y017214D01*
X058429Y017068D01*
X058801Y016696D01*
X058947Y016443D01*
X059043Y016084D01*
X059055Y015898D01*
X059055Y002512D01*
X059043Y002326D01*
X058947Y001967D01*
X058947Y001967D01*
X058801Y001714D01*
X058429Y001342D01*
X058176Y001196D01*
X057816Y001100D01*
X057630Y001087D01*
X054407Y001087D01*
X054414Y001115D01*
X054414Y001576D01*
X053920Y001576D01*
X053920Y001676D01*
X053820Y001676D01*
X053820Y001576D01*
X053327Y001576D01*
X053327Y001115D01*
X053334Y001087D01*
X050903Y001087D01*
X050910Y001115D01*
X050910Y001576D01*
X050417Y001576D01*
X050417Y001676D01*
X050910Y001676D01*
X050910Y002138D01*
X050900Y002176D01*
X050880Y002211D01*
X050852Y002239D01*
X050818Y002258D01*
X050780Y002269D01*
X050417Y002269D01*
X050417Y001676D01*
X050317Y001676D01*
X050317Y001576D01*
X049823Y001576D01*
X049823Y001115D01*
X049830Y001087D01*
X019638Y001087D01*
X019638Y002090D01*
X019785Y002090D01*
X019785Y002840D01*
X019885Y002840D01*
X019885Y002090D01*
X020055Y002090D01*
X020093Y002100D01*
X020127Y002120D01*
X020155Y002148D01*
X020175Y002182D01*
X020185Y002220D01*
X020185Y002840D01*
X019885Y002840D01*
X019885Y002940D01*
X020185Y002940D01*
X020185Y003560D01*
X020175Y003598D01*
X020155Y003632D01*
X020127Y003660D01*
X020093Y003680D01*
X020055Y003690D01*
X019885Y003690D01*
X019885Y002940D01*
X019785Y002940D01*
X019785Y003690D01*
X019638Y003690D01*
X019638Y004090D01*
X019785Y004090D01*
X019785Y004840D01*
X019885Y004840D01*
X019885Y004090D01*
X020055Y004090D01*
X020093Y004100D01*
X020127Y004120D01*
X020155Y004148D01*
X020175Y004182D01*
X020185Y004220D01*
X020185Y004840D01*
X019885Y004840D01*
X019885Y004940D01*
X020185Y004940D01*
X020185Y005560D01*
X020175Y005598D01*
X020155Y005632D01*
X020127Y005660D01*
X020093Y005680D01*
X020055Y005690D01*
X019885Y005690D01*
X019885Y004940D01*
X019785Y004940D01*
X019785Y005690D01*
X019638Y005690D01*
X019638Y006449D01*
X019441Y006646D01*
X016599Y006646D01*
X016599Y006967D01*
X016534Y007032D01*
X016328Y007032D01*
X016328Y007136D01*
X016191Y007273D01*
X015998Y007273D01*
X015925Y007200D01*
X015358Y007200D01*
X015358Y007302D01*
X015294Y007366D01*
X014809Y007366D01*
X014745Y007302D01*
X014745Y006778D01*
X014809Y006713D01*
X015294Y006713D01*
X015358Y006778D01*
X015358Y006880D01*
X015591Y006880D01*
X015591Y006646D01*
X011567Y006646D01*
X010780Y007433D01*
X008811Y007433D01*
X008418Y007040D01*
X008418Y005071D01*
X009205Y004284D01*
X010998Y004284D01*
X010985Y004270D01*
X010985Y004053D01*
X010345Y004053D01*
X010278Y004120D01*
X010093Y004197D01*
X009892Y004197D01*
X009707Y004120D01*
X009566Y003979D01*
X009489Y003793D01*
X009489Y003593D01*
X009566Y003408D01*
X009707Y003266D01*
X009892Y003190D01*
X010093Y003190D01*
X010278Y003266D01*
X010345Y003333D01*
X010985Y003333D01*
X010985Y003116D01*
X011049Y003052D01*
X011770Y003052D01*
X011835Y003116D01*
X011835Y004270D01*
X011821Y004284D01*
X012058Y004284D01*
X012057Y004283D01*
X012047Y004245D01*
X012047Y003743D01*
X012462Y003743D01*
X012462Y003643D01*
X012562Y003643D01*
X012562Y003012D01*
X012847Y003012D01*
X012885Y003022D01*
X012919Y003042D01*
X012947Y003070D01*
X012967Y003104D01*
X012977Y003142D01*
X012977Y003643D01*
X012562Y003643D01*
X012562Y003743D01*
X012977Y003743D01*
X012977Y004245D01*
X012967Y004283D01*
X012966Y004284D01*
X017276Y004284D01*
X018063Y003496D01*
X018063Y001087D01*
X001725Y001087D01*
X001539Y001100D01*
X001180Y001196D01*
X000927Y001342D01*
X000554Y001714D01*
X000408Y001967D01*
X000312Y002326D01*
X000300Y002512D01*
X000300Y015898D01*
X000312Y016084D01*
X000408Y016443D01*
X000554Y016696D01*
X000927Y017068D01*
X001180Y017214D01*
X001539Y017311D01*
X001725Y017323D01*
X012111Y017323D01*
X012748Y016685D01*
X012748Y013930D01*
X013142Y013536D01*
X026215Y013536D01*
X026201Y013522D01*
X026201Y013302D01*
X026182Y013302D01*
X026182Y013398D01*
X026118Y013462D01*
X025167Y013462D01*
X025102Y013398D01*
X025102Y012887D01*
X025142Y012847D01*
X025102Y012807D01*
X025102Y012296D01*
X025142Y012256D01*
X025102Y012217D01*
X025102Y011705D01*
X025142Y011666D01*
X025102Y011626D01*
X025102Y011115D01*
X025114Y011103D01*
X025092Y011082D01*
X025072Y011048D01*
X025062Y011010D01*
X025062Y010830D01*
X025592Y010830D01*
X025592Y010730D01*
X025062Y010730D01*
X025062Y010550D01*
X025072Y010512D01*
X025092Y010478D01*
X025114Y010456D01*
X025102Y010445D01*
X025102Y009934D01*
X025142Y009894D01*
X025102Y009854D01*
X025102Y009343D01*
X025142Y009304D01*
X025102Y009264D01*
X025102Y008753D01*
X025167Y008688D01*
X026118Y008688D01*
X026182Y008753D01*
X026182Y008838D01*
X026221Y008838D01*
X026221Y008805D01*
X026286Y008741D01*
X026770Y008741D01*
X026835Y008805D01*
X026835Y008897D01*
X027150Y008897D01*
X027249Y008997D01*
X027779Y009527D01*
X028199Y009527D01*
X027249Y008578D01*
X023445Y008578D01*
X021668Y010354D01*
X021668Y011137D01*
X021703Y011137D01*
X021840Y011274D01*
X021840Y011467D01*
X021703Y011603D01*
X021510Y011603D01*
X021471Y011565D01*
X021471Y012224D01*
X021078Y012618D01*
X020984Y012712D01*
X020867Y012712D01*
X020867Y012807D01*
X020827Y012847D01*
X020867Y012887D01*
X020867Y013398D01*
X020803Y013462D01*
X019852Y013462D01*
X019787Y013398D01*
X019787Y012887D01*
X019827Y012847D01*
X019787Y012807D01*
X019787Y012296D01*
X019827Y012256D01*
X019787Y012217D01*
X019787Y011705D01*
X019827Y011666D01*
X019787Y011626D01*
X019787Y011115D01*
X019827Y011075D01*
X019787Y011035D01*
X019787Y010524D01*
X019827Y010485D01*
X019787Y010445D01*
X019787Y009934D01*
X019827Y009894D01*
X019787Y009854D01*
X019787Y009343D01*
X019827Y009304D01*
X019787Y009264D01*
X019787Y008753D01*
X019852Y008688D01*
X020803Y008688D01*
X020867Y008753D01*
X020867Y009264D01*
X020827Y009304D01*
X020867Y009343D01*
X020867Y009854D01*
X020827Y009894D01*
X020867Y009934D01*
X020867Y010445D01*
X020827Y010485D01*
X020867Y010524D01*
X020867Y011035D01*
X020827Y011075D01*
X020867Y011115D01*
X020867Y011137D01*
X021014Y011137D01*
X021151Y011274D01*
X021151Y011467D01*
X021014Y011603D01*
X020867Y011603D01*
X020867Y011626D01*
X020827Y011666D01*
X020867Y011705D01*
X020867Y012217D01*
X020827Y012256D01*
X020867Y012296D01*
X020867Y012376D01*
X021151Y012092D01*
X021151Y010123D01*
X021245Y010029D01*
X023214Y008061D01*
X027480Y008061D01*
X027574Y008155D01*
X028563Y009144D01*
X043858Y009144D01*
X040832Y006117D01*
X038765Y006117D01*
X038671Y006023D01*
X038454Y005806D01*
X038360Y005712D01*
X038360Y005650D01*
X038275Y005650D01*
X038210Y005586D01*
X038210Y004195D01*
X038275Y004130D01*
X038766Y004130D01*
X038830Y004195D01*
X038830Y005586D01*
X038766Y005650D01*
X038750Y005650D01*
X038897Y005797D01*
X039429Y005797D01*
X039360Y005728D01*
X039360Y005650D01*
X039275Y005650D01*
X039210Y005586D01*
X039210Y004195D01*
X039275Y004130D01*
X039632Y004130D01*
X039454Y003952D01*
X039360Y003858D01*
X039360Y003650D01*
X039275Y003650D01*
X039210Y003586D01*
X039210Y002195D01*
X039275Y002130D01*
X039766Y002130D01*
X039830Y002195D01*
X039830Y003586D01*
X039766Y003650D01*
X039680Y003650D01*
X039680Y003725D01*
X039783Y003829D01*
X040964Y003829D01*
X041058Y003922D01*
X041156Y004021D01*
X041156Y005103D01*
X042018Y005965D01*
X042018Y005930D01*
X041945Y005857D01*
X041945Y005664D01*
X042081Y005527D01*
X042274Y005527D01*
X042411Y005664D01*
X042411Y005857D01*
X042338Y005930D01*
X042338Y005989D01*
X046771Y010423D01*
X049134Y010423D01*
X049227Y010517D01*
X050099Y011389D01*
X050099Y010843D01*
X050089Y010833D01*
X050069Y010798D01*
X050059Y010760D01*
X050059Y010682D01*
X050445Y010682D01*
X050445Y010681D01*
X050059Y010681D01*
X050059Y010603D01*
X050069Y010565D01*
X050089Y010530D01*
X050099Y010520D01*
X050099Y010380D01*
X050163Y010316D01*
X050275Y010316D01*
X050275Y010299D01*
X050026Y010299D01*
X049974Y010248D01*
X049955Y010281D01*
X049927Y010309D01*
X049893Y010329D01*
X049855Y010339D01*
X049667Y010339D01*
X049667Y010041D01*
X049570Y010041D01*
X049570Y009944D01*
X049667Y009944D01*
X049667Y009646D01*
X049855Y009646D01*
X049893Y009656D01*
X049927Y009676D01*
X049955Y009704D01*
X050007Y009704D01*
X050026Y009686D02*
X049974Y009737D01*
X049955Y009704D01*
X050026Y009686D02*
X050550Y009686D01*
X050614Y009750D01*
X050614Y010079D01*
X050615Y010080D01*
X050615Y010315D01*
X050769Y010315D01*
X050866Y010217D01*
X050887Y010196D01*
X050867Y010176D01*
X050867Y009660D01*
X050182Y009660D01*
X049701Y009179D01*
X049664Y009217D01*
X049100Y009217D01*
X049036Y009152D01*
X049036Y008835D01*
X049026Y008825D01*
X049006Y008791D01*
X048996Y008752D01*
X048996Y008631D01*
X048942Y008685D01*
X048842Y008785D01*
X048817Y008785D01*
X048800Y008802D01*
X048823Y008825D01*
X048823Y009152D01*
X048759Y009217D01*
X048195Y009217D01*
X048131Y009152D01*
X048131Y009149D01*
X048096Y009149D01*
X048077Y009130D01*
X048070Y009138D01*
X047585Y009138D01*
X047520Y009074D01*
X047520Y008549D01*
X047553Y008516D01*
X047520Y008483D01*
X047520Y007959D01*
X047581Y007898D01*
X047555Y007898D01*
X047491Y007833D01*
X047491Y007602D01*
X047453Y007564D01*
X047406Y007564D01*
X047406Y007637D01*
X047341Y007701D01*
X046856Y007701D01*
X046792Y007637D01*
X046792Y007564D01*
X046666Y007564D01*
X046528Y007427D01*
X046471Y007370D01*
X046471Y007564D01*
X046859Y007951D01*
X046915Y007894D01*
X047400Y007894D01*
X047465Y007959D01*
X047465Y008483D01*
X047432Y008516D01*
X047465Y008549D01*
X047465Y009074D01*
X047400Y009138D01*
X046915Y009138D01*
X046851Y009074D01*
X046851Y008971D01*
X046836Y008971D01*
X046742Y008878D01*
X046644Y008779D01*
X046644Y008484D01*
X045955Y007795D01*
X045955Y006122D01*
X045364Y005531D01*
X045364Y002348D01*
X045581Y002131D01*
X045674Y002037D01*
X045788Y002037D01*
X045788Y001856D01*
X045852Y001792D01*
X047046Y001792D01*
X047110Y001856D01*
X047110Y002538D01*
X047046Y002603D01*
X045852Y002603D01*
X045788Y002538D01*
X045788Y002376D01*
X045684Y002480D01*
X045684Y004390D01*
X045753Y004321D01*
X047165Y004321D01*
X047264Y004419D01*
X047357Y004513D01*
X047357Y005005D01*
X047539Y005187D01*
X048465Y005187D01*
X048465Y005006D01*
X048530Y004942D01*
X049723Y004942D01*
X049788Y005006D01*
X049788Y005688D01*
X049723Y005752D01*
X048530Y005752D01*
X048465Y005688D01*
X048465Y005507D01*
X047407Y005507D01*
X047313Y005413D01*
X047110Y005211D01*
X047110Y005294D01*
X047046Y005358D01*
X046797Y005358D01*
X046797Y006382D01*
X046810Y006369D01*
X046844Y006349D01*
X046882Y006339D01*
X047050Y006339D01*
X047050Y006657D01*
X047147Y006657D01*
X047147Y006754D01*
X047446Y006754D01*
X047446Y006941D01*
X047435Y006980D01*
X047416Y007014D01*
X047388Y007042D01*
X047354Y007061D01*
X047406Y007112D01*
X047406Y007184D01*
X047611Y007184D01*
X047632Y007205D01*
X047863Y007205D01*
X047927Y007270D01*
X047927Y007431D01*
X048239Y007742D01*
X048239Y007270D01*
X048267Y007242D01*
X048267Y007131D01*
X047808Y007131D01*
X047696Y007020D01*
X047519Y006843D01*
X047519Y006838D01*
X047491Y006810D01*
X047491Y006246D01*
X047555Y006182D01*
X047863Y006182D01*
X047868Y006187D01*
X047883Y006172D01*
X047917Y006152D01*
X047955Y006142D01*
X048079Y006142D01*
X048079Y006524D01*
X048087Y006524D01*
X048087Y006142D01*
X048211Y006142D01*
X048249Y006152D01*
X048283Y006172D01*
X048298Y006187D01*
X048303Y006182D01*
X048476Y006182D01*
X048595Y006062D01*
X049638Y006062D01*
X049737Y006161D01*
X049848Y006272D01*
X049848Y006379D01*
X049900Y006379D01*
X049965Y006443D01*
X049965Y006515D01*
X050406Y006515D01*
X050465Y006456D01*
X050662Y006259D01*
X050670Y006259D01*
X050670Y006207D01*
X050723Y006154D01*
X050690Y006121D01*
X050690Y006080D01*
X050622Y006147D01*
X050524Y006147D01*
X050438Y006233D01*
X050327Y006344D01*
X049973Y006344D01*
X049874Y006246D01*
X049763Y006134D01*
X049763Y005780D01*
X049862Y005682D01*
X049973Y005570D01*
X050327Y005570D01*
X050438Y005682D01*
X050494Y005738D01*
X050563Y005669D01*
X050690Y005669D01*
X050690Y005597D01*
X050723Y005563D01*
X050690Y005530D01*
X050690Y005006D01*
X050754Y004942D01*
X051239Y004942D01*
X051299Y005001D01*
X051299Y004663D01*
X051280Y004644D01*
X051280Y003333D01*
X051345Y003268D01*
X051633Y003268D01*
X051646Y003282D01*
X051660Y003268D01*
X051948Y003268D01*
X051961Y003282D01*
X051975Y003268D01*
X052262Y003268D01*
X052276Y003282D01*
X052289Y003268D01*
X052548Y003268D01*
X052558Y003258D01*
X052592Y003239D01*
X052630Y003228D01*
X052748Y003228D01*
X052748Y003989D01*
X052748Y003989D01*
X052997Y003989D01*
X052997Y004619D01*
X052987Y004657D01*
X052967Y004691D01*
X052943Y004714D01*
X052972Y004714D01*
X053071Y004813D01*
X053164Y004907D01*
X053164Y004922D01*
X053266Y004922D01*
X053300Y004955D01*
X053333Y004922D01*
X053857Y004922D01*
X053921Y004986D01*
X053921Y005370D01*
X053931Y005365D01*
X053969Y005354D01*
X054293Y005354D01*
X054293Y005671D01*
X054393Y005671D01*
X054393Y005771D01*
X054293Y005771D01*
X054293Y006087D01*
X053969Y006087D01*
X053931Y006077D01*
X053921Y006072D01*
X053921Y006140D01*
X053857Y006205D01*
X053755Y006205D01*
X053755Y006712D01*
X053361Y007106D01*
X053311Y007156D01*
X053311Y007715D01*
X053247Y007780D01*
X053243Y007780D01*
X053243Y007815D01*
X052771Y008287D01*
X052771Y008425D01*
X052943Y008253D01*
X053036Y008159D01*
X054547Y008159D01*
X054842Y008455D01*
X054936Y008548D01*
X054936Y009434D01*
X055039Y009537D01*
X057072Y009537D01*
X057227Y009382D01*
X057190Y009293D01*
X057190Y009118D01*
X057257Y008956D01*
X057381Y008832D01*
X057543Y008765D01*
X057718Y008765D01*
X057880Y008832D01*
X057952Y008905D01*
X057952Y008768D01*
X057797Y008612D01*
X057718Y008645D01*
X057543Y008645D01*
X057381Y008578D01*
X057257Y008454D01*
X057190Y008293D01*
X057190Y008118D01*
X057257Y007956D01*
X057381Y007832D01*
X057543Y007765D01*
X057718Y007765D01*
X057880Y007832D01*
X058031Y007832D01*
X057978Y007931D02*
X058130Y007931D01*
X058159Y007960D02*
X057807Y007608D01*
X057718Y007645D01*
X057543Y007645D01*
X057381Y007578D01*
X057257Y007454D01*
X057248Y007432D01*
X057248Y007440D01*
X057184Y007504D01*
X056384Y007504D01*
X056320Y007440D01*
X056320Y007338D01*
X054807Y007338D01*
X054807Y007440D01*
X054743Y007504D01*
X053943Y007504D01*
X053879Y007440D01*
X053879Y006915D01*
X053943Y006851D01*
X054743Y006851D01*
X054807Y006915D01*
X054807Y007018D01*
X056320Y007018D01*
X056320Y006915D01*
X056384Y006851D01*
X057184Y006851D01*
X057248Y006915D01*
X057248Y006978D01*
X057257Y006956D01*
X057381Y006832D01*
X057543Y006765D01*
X057718Y006765D01*
X057880Y006832D01*
X058003Y006956D01*
X058070Y007118D01*
X058070Y007293D01*
X058033Y007382D01*
X058479Y007828D01*
X058479Y009567D01*
X058386Y009660D01*
X058282Y009764D01*
X058282Y010452D01*
X058189Y010546D01*
X057916Y010819D01*
X057943Y010839D01*
X057996Y010892D01*
X058041Y010954D01*
X058075Y011021D01*
X058098Y011093D01*
X058109Y011157D01*
X057679Y011157D01*
X057679Y011254D01*
X057582Y011254D01*
X057582Y011683D01*
X057518Y011673D01*
X057446Y011650D01*
X057379Y011616D01*
X057318Y011571D01*
X057264Y011518D01*
X057220Y011457D01*
X057185Y011389D01*
X057162Y011318D01*
X057152Y011254D01*
X057582Y011254D01*
X057582Y011157D01*
X057152Y011157D01*
X057162Y011093D01*
X057185Y011021D01*
X057220Y010954D01*
X057264Y010892D01*
X057318Y010839D01*
X057345Y010819D01*
X057273Y010748D01*
X056973Y010448D01*
X054744Y010448D01*
X054513Y010679D01*
X054517Y010683D01*
X054517Y010876D01*
X054380Y011013D01*
X054187Y011013D01*
X054138Y010964D01*
X054138Y011701D01*
X054148Y011711D01*
X054168Y011746D01*
X054178Y011784D01*
X054178Y011863D01*
X054178Y011899D01*
X054218Y011899D01*
X054430Y011687D01*
X054430Y011404D01*
X054494Y011339D01*
X054979Y011339D01*
X055043Y011404D01*
X055043Y011928D01*
X055010Y011961D01*
X055043Y011994D01*
X055043Y012480D01*
X055099Y012480D01*
X055099Y011994D01*
X055132Y011961D01*
X055099Y011928D01*
X055099Y011404D01*
X055163Y011339D01*
X055648Y011339D01*
X055713Y011404D01*
X055713Y011506D01*
X055788Y011506D01*
X055788Y011463D01*
X055852Y011398D01*
X056259Y011398D01*
X056323Y011463D01*
X056323Y011869D01*
X056259Y011933D01*
X055852Y011933D01*
X055788Y011869D01*
X055788Y011826D01*
X055713Y011826D01*
X055713Y011928D01*
X055680Y011961D01*
X055713Y011994D01*
X055713Y012096D01*
X055788Y012096D01*
X055788Y012053D01*
X055852Y011989D01*
X056259Y011989D01*
X056323Y012053D01*
X056323Y012459D01*
X056302Y012480D01*
X056379Y012480D01*
X056389Y012470D01*
X056379Y012459D01*
X056379Y012053D01*
X056443Y011989D01*
X056476Y011989D01*
X056476Y011933D01*
X056443Y011933D01*
X056379Y011869D01*
X056379Y011463D01*
X056443Y011398D01*
X056849Y011398D01*
X056914Y011463D01*
X056914Y011869D01*
X056849Y011933D01*
X056816Y011933D01*
X056816Y011989D01*
X056849Y011989D01*
X056914Y012053D01*
X056914Y012459D01*
X056849Y012524D01*
X056816Y012524D01*
X056619Y012720D01*
X056520Y012820D01*
X055180Y012820D01*
X055182Y012827D01*
X055182Y012995D01*
X054864Y012995D01*
X054864Y013092D01*
X055182Y013092D01*
X055182Y013260D01*
X055174Y013290D01*
X055182Y013319D01*
X055182Y013487D01*
X054864Y013487D01*
X054864Y013092D01*
X054767Y013092D01*
X054767Y013189D01*
X054767Y013487D01*
X054864Y013487D01*
X054864Y013584D01*
X055182Y013584D01*
X055182Y013752D01*
X055172Y013791D01*
X055152Y013825D01*
X055124Y013853D01*
X055090Y013872D01*
X055052Y013883D01*
X054864Y013883D01*
X054864Y013584D01*
X054767Y013584D01*
X054767Y013883D01*
X054579Y013883D01*
X054541Y013872D01*
X054507Y013853D01*
X054479Y013825D01*
X054459Y013791D01*
X054408Y013843D01*
X054295Y013843D01*
X054295Y015137D01*
X054244Y015188D01*
X054278Y015207D01*
X054305Y015235D01*
X054325Y015269D01*
X054335Y015307D01*
X054335Y015495D01*
X054037Y015495D01*
X054037Y015592D01*
X054335Y015592D01*
X054335Y015780D01*
X054325Y015818D01*
X054305Y015852D01*
X054278Y015880D01*
X054243Y015900D01*
X054205Y015910D01*
X054037Y015910D01*
X054037Y015592D01*
X053940Y015592D01*
X053940Y015495D01*
X053642Y015495D01*
X053642Y015307D01*
X053652Y015269D01*
X053672Y015235D01*
X053700Y015207D01*
X053733Y015188D01*
X053682Y015137D01*
X053682Y013947D01*
X053627Y013893D01*
X053311Y013893D01*
X053311Y015137D01*
X053260Y015188D01*
X053293Y015207D01*
X053321Y015235D01*
X053341Y015269D01*
X053351Y015307D01*
X053351Y015495D01*
X053053Y015495D01*
X053053Y015592D01*
X053351Y015592D01*
X053351Y015780D01*
X053341Y015818D01*
X053321Y015852D01*
X053293Y015880D01*
X053259Y015900D01*
X053221Y015910D01*
X053053Y015910D01*
X053053Y015592D01*
X052956Y015592D01*
X052956Y015495D01*
X052657Y015495D01*
X052657Y015307D01*
X052668Y015269D01*
X052687Y015235D01*
X052715Y015207D01*
X052749Y015188D01*
X052697Y015137D01*
X052697Y013947D01*
X052574Y013824D01*
X052574Y013897D01*
X052496Y013975D01*
X052524Y014002D01*
X052524Y015038D01*
X052459Y015103D01*
X051959Y015103D01*
X051898Y015164D01*
X051922Y015157D01*
X052109Y015157D01*
X052109Y015456D01*
X052206Y015456D01*
X052206Y015157D01*
X052394Y015157D01*
X052432Y015168D01*
X052467Y015187D01*
X052494Y015215D01*
X052514Y015250D01*
X052524Y015288D01*
X052524Y015456D01*
X052206Y015456D01*
X052206Y015553D01*
X052109Y015553D01*
X052109Y015851D01*
X051922Y015851D01*
X051883Y015841D01*
X051849Y015821D01*
X051821Y015793D01*
X051802Y015760D01*
X051751Y015811D01*
X051839Y015811D01*
X051751Y015811D02*
X051226Y015811D01*
X051141Y015811D01*
X051140Y015811D02*
X050616Y015811D01*
X050528Y015811D01*
X050518Y015821D02*
X050483Y015841D01*
X050445Y015851D01*
X050257Y015851D01*
X050257Y015553D01*
X050161Y015553D01*
X050161Y015851D01*
X049973Y015851D01*
X049935Y015841D01*
X049900Y015821D01*
X049872Y015793D01*
X049853Y015759D01*
X049843Y015721D01*
X049843Y015553D01*
X050161Y015553D01*
X050161Y015456D01*
X050257Y015456D01*
X050257Y015157D01*
X050445Y015157D01*
X050483Y015168D01*
X050518Y015187D01*
X050546Y015215D01*
X050565Y015249D01*
X050609Y015205D01*
X050506Y015103D01*
X050006Y015103D01*
X049942Y015038D01*
X049942Y014002D01*
X050006Y013938D01*
X050801Y013938D01*
X050945Y013794D01*
X048903Y013794D01*
X048607Y013499D01*
X048514Y013405D01*
X048514Y012618D01*
X048214Y012318D01*
X045851Y012318D01*
X043588Y010054D01*
X028071Y010054D01*
X028066Y010059D01*
X028066Y012323D01*
X028066Y012265D02*
X031516Y012265D01*
X031516Y012166D02*
X028066Y012166D01*
X028066Y012068D02*
X031516Y012068D01*
X032839Y012068D02*
X043091Y012068D01*
X043091Y012166D02*
X032839Y012166D01*
X032839Y012265D02*
X043091Y012265D01*
X043091Y012363D02*
X032839Y012363D01*
X032839Y012462D02*
X043091Y012462D01*
X043091Y012560D02*
X032839Y012560D01*
X032839Y012659D02*
X043091Y012659D01*
X043133Y012757D02*
X032812Y012757D01*
X032837Y013545D02*
X043620Y013545D01*
X043543Y013447D02*
X026854Y013447D01*
X026854Y013348D02*
X043543Y013348D01*
X043543Y013250D02*
X027139Y013250D01*
X027237Y013151D02*
X043543Y013151D01*
X043543Y013053D02*
X027336Y013053D01*
X027434Y012954D02*
X043543Y012954D01*
X043543Y012856D02*
X027533Y012856D01*
X027256Y012611D02*
X027709Y012158D01*
X027709Y009697D01*
X027549Y009778D02*
X027539Y009768D01*
X027539Y009768D01*
X027009Y009237D01*
X026835Y009237D01*
X026835Y009329D01*
X026783Y009381D01*
X026817Y009400D01*
X026845Y009428D01*
X026865Y009462D01*
X026875Y009500D01*
X026875Y009688D01*
X026576Y009688D01*
X026576Y009785D01*
X026480Y009785D01*
X026480Y010103D01*
X026311Y010103D01*
X026273Y010093D01*
X026239Y010073D01*
X026211Y010045D01*
X026191Y010011D01*
X026182Y009977D01*
X026182Y010445D01*
X026171Y010456D01*
X026192Y010478D01*
X026212Y010512D01*
X026222Y010550D01*
X026222Y010730D01*
X025692Y010730D01*
X025692Y010830D01*
X026222Y010830D01*
X026222Y011010D01*
X026212Y011048D01*
X026192Y011082D01*
X026171Y011103D01*
X026182Y011115D01*
X026182Y011626D01*
X026142Y011666D01*
X026182Y011705D01*
X026182Y012081D01*
X026201Y012061D01*
X026201Y011758D01*
X026266Y011694D01*
X026790Y011694D01*
X026829Y011732D01*
X026841Y011711D01*
X026869Y011684D01*
X026903Y011664D01*
X026941Y011654D01*
X027090Y011654D01*
X027090Y011932D01*
X027147Y011932D01*
X027147Y011654D01*
X027296Y011654D01*
X027334Y011664D01*
X027368Y011684D01*
X027396Y011711D01*
X027416Y011746D01*
X027426Y011784D01*
X027426Y011932D01*
X027147Y011932D01*
X027147Y011990D01*
X027090Y011990D01*
X027090Y012269D01*
X026941Y012269D01*
X026903Y012258D01*
X026869Y012239D01*
X026854Y012224D01*
X026854Y012243D01*
X026792Y012306D01*
X026854Y012368D01*
X026854Y012451D01*
X027190Y012451D01*
X027549Y012092D01*
X027549Y009778D01*
X027549Y009802D02*
X026875Y009802D01*
X026875Y009785D02*
X026875Y009973D01*
X026865Y010011D01*
X026845Y010045D01*
X026817Y010073D01*
X026783Y010093D01*
X026745Y010103D01*
X026576Y010103D01*
X026576Y009785D01*
X026875Y009785D01*
X026875Y009901D02*
X027549Y009901D01*
X027549Y009999D02*
X026868Y009999D01*
X026764Y010098D02*
X027549Y010098D01*
X027549Y010196D02*
X026182Y010196D01*
X026182Y010098D02*
X026292Y010098D01*
X026188Y009999D02*
X026182Y009999D01*
X026480Y009999D02*
X026576Y009999D01*
X026576Y009901D02*
X026480Y009901D01*
X026480Y009802D02*
X026576Y009802D01*
X026576Y009704D02*
X027475Y009704D01*
X027377Y009605D02*
X026875Y009605D01*
X026875Y009507D02*
X027278Y009507D01*
X027180Y009408D02*
X026825Y009408D01*
X026835Y009310D02*
X027081Y009310D01*
X027365Y009113D02*
X027784Y009113D01*
X027686Y009014D02*
X027267Y009014D01*
X027168Y008916D02*
X027587Y008916D01*
X027489Y008817D02*
X026835Y008817D01*
X027390Y008719D02*
X026148Y008719D01*
X026182Y008817D02*
X026221Y008817D01*
X027292Y008620D02*
X023402Y008620D01*
X023303Y008719D02*
X025136Y008719D01*
X025102Y008817D02*
X023205Y008817D01*
X023106Y008916D02*
X025102Y008916D01*
X025102Y009014D02*
X023008Y009014D01*
X022909Y009113D02*
X025102Y009113D01*
X025102Y009211D02*
X022811Y009211D01*
X022712Y009310D02*
X025135Y009310D01*
X025102Y009408D02*
X022614Y009408D01*
X022515Y009507D02*
X025102Y009507D01*
X025102Y009605D02*
X022417Y009605D01*
X022318Y009704D02*
X025102Y009704D01*
X025102Y009802D02*
X022220Y009802D01*
X022121Y009901D02*
X025135Y009901D01*
X025102Y009999D02*
X022023Y009999D01*
X021924Y010098D02*
X025102Y010098D01*
X025102Y010196D02*
X021826Y010196D01*
X021727Y010295D02*
X025102Y010295D01*
X025102Y010393D02*
X021668Y010393D01*
X021668Y010492D02*
X025084Y010492D01*
X025062Y010590D02*
X021668Y010590D01*
X021668Y010689D02*
X025062Y010689D01*
X025062Y010886D02*
X021668Y010886D01*
X021668Y010984D02*
X025062Y010984D01*
X025093Y011083D02*
X021668Y011083D01*
X021747Y011181D02*
X025102Y011181D01*
X025102Y011280D02*
X021840Y011280D01*
X021840Y011378D02*
X025102Y011378D01*
X025102Y011477D02*
X021830Y011477D01*
X021731Y011575D02*
X025102Y011575D01*
X025134Y011674D02*
X021471Y011674D01*
X021471Y011772D02*
X025102Y011772D01*
X025102Y011871D02*
X021471Y011871D01*
X021471Y011969D02*
X025102Y011969D01*
X025102Y012068D02*
X021471Y012068D01*
X021471Y012166D02*
X025102Y012166D01*
X025133Y012265D02*
X021431Y012265D01*
X021332Y012363D02*
X025102Y012363D01*
X025102Y012462D02*
X021234Y012462D01*
X021135Y012560D02*
X025102Y012560D01*
X025102Y012659D02*
X021037Y012659D01*
X021078Y012618D02*
X021078Y012618D01*
X020918Y012552D02*
X021311Y012158D01*
X021311Y010189D01*
X023280Y008221D01*
X027414Y008221D01*
X028496Y009304D01*
X043949Y009304D01*
X046213Y011567D01*
X048575Y011567D01*
X049658Y012650D01*
X050445Y012650D01*
X050445Y012453D02*
X049756Y012453D01*
X048674Y011370D01*
X046311Y011370D01*
X040898Y005957D01*
X038831Y005957D01*
X038520Y005646D01*
X038520Y004890D01*
X038210Y004877D02*
X020885Y004877D01*
X020885Y004840D02*
X020885Y004940D01*
X021185Y004940D01*
X021185Y005560D01*
X021175Y005598D01*
X021155Y005632D01*
X021127Y005660D01*
X021093Y005680D01*
X021055Y005690D01*
X020885Y005690D01*
X020885Y004940D01*
X020785Y004940D01*
X020785Y005690D01*
X020616Y005690D01*
X020616Y006623D01*
X020783Y006456D01*
X020783Y006353D01*
X020920Y006216D01*
X021113Y006216D01*
X021249Y006353D01*
X021249Y006546D01*
X021113Y006682D01*
X021009Y006682D01*
X019606Y008086D01*
X012519Y008086D01*
X012121Y008484D01*
X012121Y011338D01*
X012027Y011432D01*
X011530Y011929D01*
X011437Y012023D01*
X010551Y012023D01*
X010448Y012126D01*
X010448Y012421D01*
X010354Y012515D01*
X010157Y012712D01*
X009764Y012712D01*
X009567Y012908D01*
X009075Y012908D01*
X008944Y013039D01*
X009002Y013097D01*
X009002Y014054D01*
X008938Y014118D01*
X008610Y014118D01*
X008546Y014054D01*
X008546Y013097D01*
X008610Y013032D01*
X008614Y013032D01*
X008614Y012916D01*
X008708Y012823D01*
X008848Y012682D01*
X008942Y012588D01*
X009434Y012588D01*
X009478Y012545D01*
X008339Y012545D01*
X008228Y012433D01*
X008084Y012290D01*
X008084Y012045D01*
X008046Y012007D01*
X008046Y011049D01*
X008084Y011011D01*
X008084Y010752D01*
X007978Y010752D01*
X007914Y010688D01*
X007914Y010163D01*
X007965Y010112D01*
X007932Y010093D01*
X007904Y010065D01*
X007884Y010031D01*
X007874Y009993D01*
X007874Y009805D01*
X008172Y009805D01*
X008172Y009708D01*
X007874Y009708D01*
X007874Y009520D01*
X007884Y009482D01*
X007904Y009448D01*
X007932Y009420D01*
X007966Y009400D01*
X008004Y009390D01*
X008172Y009390D01*
X008172Y009708D01*
X008269Y009708D01*
X008269Y009390D01*
X008437Y009390D01*
X008476Y009400D01*
X008510Y009420D01*
X008516Y009426D01*
X008522Y009420D01*
X008557Y009400D01*
X008595Y009390D01*
X008763Y009390D01*
X008763Y009708D01*
X008269Y009708D01*
X008269Y009805D01*
X008465Y009805D01*
X008763Y009805D01*
X008763Y009708D01*
X008860Y009708D01*
X008860Y009805D01*
X009158Y009805D01*
X009158Y009993D01*
X009148Y010031D01*
X009128Y010065D01*
X009100Y010093D01*
X009067Y010112D01*
X009118Y010163D01*
X009118Y010688D01*
X009054Y010752D01*
X008964Y010752D01*
X008964Y011011D01*
X009002Y011049D01*
X009002Y011377D01*
X009115Y011377D01*
X009115Y010813D01*
X009179Y010749D01*
X009232Y010749D01*
X009232Y010386D01*
X009331Y010286D01*
X009292Y010191D01*
X009292Y009991D01*
X009369Y009806D01*
X009510Y009664D01*
X009695Y009587D01*
X009896Y009587D01*
X010081Y009664D01*
X010223Y009806D01*
X010299Y009991D01*
X010299Y010191D01*
X010223Y010376D01*
X010081Y010518D01*
X009896Y010595D01*
X009695Y010595D01*
X009612Y010560D01*
X009612Y010749D01*
X009664Y010749D01*
X009729Y010813D01*
X009729Y011377D01*
X009863Y011377D01*
X009863Y010813D01*
X009927Y010749D01*
X010412Y010749D01*
X010477Y010813D01*
X010477Y011377D01*
X011193Y011377D01*
X011476Y011095D01*
X011476Y008241D01*
X011587Y008129D01*
X012276Y007440D01*
X019264Y007440D01*
X020236Y006469D01*
X020236Y002652D01*
X020193Y002609D01*
X020193Y002416D01*
X020329Y002279D01*
X020522Y002279D01*
X020525Y002282D01*
X020525Y002195D01*
X020589Y002130D01*
X021081Y002130D01*
X021145Y002195D01*
X021145Y003586D01*
X021081Y003650D01*
X020616Y003650D01*
X020616Y004090D01*
X020785Y004090D01*
X020785Y004840D01*
X020885Y004840D01*
X020885Y004090D01*
X021055Y004090D01*
X021093Y004100D01*
X021127Y004120D01*
X021155Y004148D01*
X021175Y004182D01*
X021185Y004220D01*
X021185Y004840D01*
X020885Y004840D01*
X020885Y004779D02*
X020785Y004779D01*
X020785Y004680D02*
X020885Y004680D01*
X020885Y004582D02*
X020785Y004582D01*
X020785Y004483D02*
X020885Y004483D01*
X020885Y004385D02*
X020785Y004385D01*
X020785Y004286D02*
X020885Y004286D01*
X020885Y004188D02*
X020785Y004188D01*
X020616Y004089D02*
X039591Y004089D01*
X039493Y003991D02*
X020616Y003991D01*
X020616Y003892D02*
X039394Y003892D01*
X039360Y003794D02*
X020616Y003794D01*
X020616Y003695D02*
X039360Y003695D01*
X039221Y003597D02*
X038819Y003597D01*
X038830Y003586D02*
X038766Y003650D01*
X038275Y003650D01*
X038210Y003586D01*
X038210Y003237D01*
X038046Y003237D01*
X037909Y003101D01*
X037909Y002908D01*
X038046Y002771D01*
X038149Y002771D01*
X038190Y002730D01*
X038210Y002730D01*
X038210Y002195D01*
X038275Y002130D01*
X038766Y002130D01*
X038830Y002195D01*
X038830Y003586D01*
X038830Y003498D02*
X039210Y003498D01*
X039210Y003400D02*
X038830Y003400D01*
X038830Y003301D02*
X039210Y003301D01*
X039210Y003203D02*
X038830Y003203D01*
X038830Y003104D02*
X039210Y003104D01*
X039210Y003006D02*
X038830Y003006D01*
X038830Y002907D02*
X039210Y002907D01*
X039210Y002809D02*
X038830Y002809D01*
X038830Y002710D02*
X039210Y002710D01*
X039210Y002612D02*
X038830Y002612D01*
X038830Y002513D02*
X039210Y002513D01*
X039210Y002415D02*
X038830Y002415D01*
X038830Y002316D02*
X039210Y002316D01*
X039210Y002218D02*
X038830Y002218D01*
X038210Y002218D02*
X021145Y002218D01*
X021145Y002316D02*
X038210Y002316D01*
X038210Y002415D02*
X021145Y002415D01*
X021145Y002513D02*
X038210Y002513D01*
X038210Y002612D02*
X021145Y002612D01*
X021145Y002710D02*
X038210Y002710D01*
X038256Y002890D02*
X038142Y003004D01*
X038256Y002890D02*
X038520Y002890D01*
X038008Y002809D02*
X021145Y002809D01*
X021145Y002907D02*
X037910Y002907D01*
X037909Y003006D02*
X021145Y003006D01*
X021145Y003104D02*
X037913Y003104D01*
X038011Y003203D02*
X021145Y003203D01*
X021145Y003301D02*
X038210Y003301D01*
X038210Y003400D02*
X021145Y003400D01*
X021145Y003498D02*
X038210Y003498D01*
X038221Y003597D02*
X021134Y003597D01*
X020236Y003597D02*
X020175Y003597D01*
X020185Y003498D02*
X020236Y003498D01*
X020236Y003400D02*
X020185Y003400D01*
X020185Y003301D02*
X020236Y003301D01*
X020236Y003203D02*
X020185Y003203D01*
X020185Y003104D02*
X020236Y003104D01*
X020236Y003006D02*
X020185Y003006D01*
X020236Y002907D02*
X019885Y002907D01*
X019885Y002809D02*
X019785Y002809D01*
X019785Y002710D02*
X019885Y002710D01*
X019885Y002612D02*
X019785Y002612D01*
X019785Y002513D02*
X019885Y002513D01*
X019885Y002415D02*
X019785Y002415D01*
X019785Y002316D02*
X019885Y002316D01*
X019885Y002218D02*
X019785Y002218D01*
X019785Y002119D02*
X019885Y002119D01*
X020126Y002119D02*
X040229Y002119D01*
X040228Y002120D02*
X040262Y002100D01*
X040300Y002090D01*
X040470Y002090D01*
X040470Y002840D01*
X040570Y002840D01*
X040570Y002090D01*
X040740Y002090D01*
X040778Y002100D01*
X040812Y002120D01*
X040840Y002148D01*
X040860Y002182D01*
X040870Y002220D01*
X040870Y002840D01*
X040570Y002840D01*
X040570Y002940D01*
X040870Y002940D01*
X040870Y003560D01*
X040860Y003598D01*
X040840Y003632D01*
X040812Y003660D01*
X040778Y003680D01*
X040740Y003690D01*
X040570Y003690D01*
X040570Y002940D01*
X040470Y002940D01*
X040470Y002840D01*
X040170Y002840D01*
X040170Y002220D01*
X040180Y002182D01*
X040200Y002148D01*
X040228Y002120D01*
X040171Y002218D02*
X039830Y002218D01*
X039830Y002316D02*
X040170Y002316D01*
X040170Y002415D02*
X039830Y002415D01*
X039830Y002513D02*
X040170Y002513D01*
X040170Y002612D02*
X039830Y002612D01*
X039830Y002710D02*
X040170Y002710D01*
X040170Y002809D02*
X039830Y002809D01*
X039830Y002907D02*
X040470Y002907D01*
X040470Y002940D02*
X040170Y002940D01*
X040170Y003560D01*
X040180Y003598D01*
X040200Y003632D01*
X040228Y003660D01*
X040262Y003680D01*
X040300Y003690D01*
X040470Y003690D01*
X040470Y002940D01*
X040470Y003006D02*
X040570Y003006D01*
X040570Y003104D02*
X040470Y003104D01*
X040470Y003203D02*
X040570Y003203D01*
X040570Y003301D02*
X040470Y003301D01*
X040470Y003400D02*
X040570Y003400D01*
X040570Y003498D02*
X040470Y003498D01*
X040470Y003597D02*
X040570Y003597D01*
X040860Y003597D02*
X045364Y003597D01*
X045364Y003695D02*
X039680Y003695D01*
X039749Y003794D02*
X045364Y003794D01*
X045364Y003892D02*
X041028Y003892D01*
X041127Y003991D02*
X045364Y003991D01*
X045364Y004089D02*
X041156Y004089D01*
X041156Y004188D02*
X045364Y004188D01*
X045364Y004286D02*
X041156Y004286D01*
X041156Y004385D02*
X045364Y004385D01*
X045364Y004483D02*
X041156Y004483D01*
X041156Y004582D02*
X045364Y004582D01*
X045364Y004680D02*
X041156Y004680D01*
X041156Y004779D02*
X045364Y004779D01*
X045364Y004877D02*
X041156Y004877D01*
X041156Y004976D02*
X045364Y004976D01*
X045364Y005074D02*
X041156Y005074D01*
X041226Y005173D02*
X045364Y005173D01*
X045364Y005271D02*
X041324Y005271D01*
X041423Y005370D02*
X045364Y005370D01*
X045364Y005468D02*
X041521Y005468D01*
X041620Y005567D02*
X042041Y005567D01*
X041945Y005665D02*
X041718Y005665D01*
X041817Y005764D02*
X041945Y005764D01*
X041950Y005862D02*
X041915Y005862D01*
X042014Y005961D02*
X042018Y005961D01*
X042178Y006056D02*
X042178Y005760D01*
X042411Y005764D02*
X045597Y005764D01*
X045695Y005862D02*
X042405Y005862D01*
X042338Y005961D02*
X045794Y005961D01*
X045892Y006059D02*
X042408Y006059D01*
X042506Y006158D02*
X045955Y006158D01*
X045955Y006256D02*
X042605Y006256D01*
X042703Y006355D02*
X045955Y006355D01*
X045955Y006453D02*
X042802Y006453D01*
X042900Y006552D02*
X045955Y006552D01*
X045955Y006650D02*
X042999Y006650D01*
X043097Y006749D02*
X045955Y006749D01*
X045955Y006847D02*
X043196Y006847D01*
X043294Y006946D02*
X045955Y006946D01*
X045955Y007044D02*
X043393Y007044D01*
X043491Y007143D02*
X045955Y007143D01*
X045955Y007241D02*
X043590Y007241D01*
X043688Y007340D02*
X045955Y007340D01*
X045955Y007438D02*
X043787Y007438D01*
X043885Y007537D02*
X045955Y007537D01*
X045955Y007635D02*
X043984Y007635D01*
X044082Y007734D02*
X045955Y007734D01*
X045992Y007832D02*
X044181Y007832D01*
X044279Y007931D02*
X046090Y007931D01*
X046189Y008029D02*
X044378Y008029D01*
X044476Y008128D02*
X046287Y008128D01*
X046386Y008226D02*
X044575Y008226D01*
X044673Y008325D02*
X046484Y008325D01*
X046583Y008423D02*
X044772Y008423D01*
X044870Y008522D02*
X046644Y008522D01*
X046644Y008620D02*
X044969Y008620D01*
X045067Y008719D02*
X046644Y008719D01*
X046682Y008817D02*
X045166Y008817D01*
X045264Y008916D02*
X046780Y008916D01*
X046851Y009014D02*
X045363Y009014D01*
X045461Y009113D02*
X046890Y009113D01*
X046902Y008811D02*
X047158Y008811D01*
X046902Y008811D02*
X046804Y008713D01*
X046804Y008418D01*
X046115Y007729D01*
X046115Y006056D01*
X045524Y005465D01*
X045524Y002414D01*
X045741Y002197D01*
X046449Y002197D01*
X047110Y002218D02*
X049860Y002218D01*
X049853Y002211D02*
X049881Y002239D01*
X049915Y002258D01*
X049953Y002269D01*
X050317Y002269D01*
X050317Y001676D01*
X049823Y001676D01*
X049823Y002138D01*
X049833Y002176D01*
X049853Y002211D01*
X049823Y002119D02*
X047110Y002119D01*
X047110Y002021D02*
X049823Y002021D01*
X049823Y001922D02*
X048062Y001922D01*
X048040Y001945D02*
X047876Y002013D01*
X047699Y002013D01*
X047536Y001945D01*
X047410Y001820D01*
X047343Y001656D01*
X047343Y001479D01*
X047410Y001315D01*
X047536Y001190D01*
X047699Y001122D01*
X047876Y001122D01*
X048040Y001190D01*
X048165Y001315D01*
X048233Y001479D01*
X048233Y001656D01*
X048165Y001820D01*
X048040Y001945D01*
X048161Y001824D02*
X049823Y001824D01*
X049823Y001725D02*
X048204Y001725D01*
X048233Y001627D02*
X050317Y001627D01*
X050317Y001725D02*
X050417Y001725D01*
X050417Y001627D02*
X053820Y001627D01*
X053820Y001676D02*
X053327Y001676D01*
X053327Y002138D01*
X053337Y002176D01*
X053357Y002211D01*
X053385Y002239D01*
X053419Y002258D01*
X053457Y002269D01*
X053820Y002269D01*
X053820Y001676D01*
X053820Y001725D02*
X053920Y001725D01*
X053920Y001676D02*
X053920Y002269D01*
X054284Y002269D01*
X054322Y002258D01*
X054356Y002239D01*
X054384Y002211D01*
X054404Y002176D01*
X054414Y002138D01*
X054414Y001676D01*
X053920Y001676D01*
X053920Y001627D02*
X058714Y001627D01*
X058807Y001725D02*
X054414Y001725D01*
X054414Y001824D02*
X057254Y001824D01*
X057189Y001851D02*
X057475Y001732D01*
X057785Y001732D01*
X058072Y001851D01*
X058291Y002070D01*
X058410Y002357D01*
X058410Y002667D01*
X058291Y002954D01*
X058072Y003173D01*
X057785Y003292D01*
X057475Y003292D01*
X057189Y003173D01*
X056969Y002954D01*
X056850Y002667D01*
X056850Y002357D01*
X056969Y002070D01*
X057189Y001851D01*
X057117Y001922D02*
X054414Y001922D01*
X054414Y002021D02*
X057019Y002021D01*
X056949Y002119D02*
X054414Y002119D01*
X054377Y002218D02*
X056908Y002218D01*
X056867Y002316D02*
X047110Y002316D01*
X047110Y002415D02*
X056850Y002415D01*
X056850Y002513D02*
X053130Y002513D01*
X053170Y002530D02*
X053262Y002622D01*
X053312Y002742D01*
X053312Y002873D01*
X053262Y002993D01*
X053170Y003085D01*
X053050Y003135D01*
X052920Y003135D01*
X052799Y003085D01*
X052707Y002993D01*
X052657Y002873D01*
X052657Y002742D01*
X052707Y002622D01*
X052799Y002530D01*
X052920Y002480D01*
X053050Y002480D01*
X053170Y002530D01*
X053252Y002612D02*
X056850Y002612D01*
X056868Y002710D02*
X053299Y002710D01*
X053312Y002809D02*
X056909Y002809D01*
X056950Y002907D02*
X053297Y002907D01*
X053249Y003006D02*
X057021Y003006D01*
X057120Y003104D02*
X053123Y003104D01*
X052967Y003286D02*
X052987Y003320D01*
X052997Y003359D01*
X052997Y003989D01*
X052748Y003989D01*
X052748Y003989D01*
X052748Y003228D01*
X052867Y003228D01*
X052905Y003239D01*
X052939Y003258D01*
X052967Y003286D01*
X052976Y003301D02*
X053327Y003301D01*
X053327Y003280D02*
X053337Y003242D01*
X053357Y003208D01*
X053385Y003180D01*
X053419Y003160D01*
X053457Y003150D01*
X053820Y003150D01*
X053820Y003899D01*
X053327Y003899D01*
X053327Y003280D01*
X053361Y003203D02*
X050876Y003203D01*
X050880Y003208D02*
X050900Y003242D01*
X050910Y003280D01*
X050910Y003899D01*
X050417Y003899D01*
X050417Y003999D01*
X050910Y003999D01*
X050910Y004619D01*
X050900Y004657D01*
X050880Y004691D01*
X050852Y004719D01*
X050818Y004739D01*
X050780Y004749D01*
X050417Y004749D01*
X050417Y003999D01*
X050317Y003999D01*
X050317Y004749D01*
X049953Y004749D01*
X049915Y004739D01*
X049881Y004719D01*
X049853Y004691D01*
X049833Y004657D01*
X049823Y004619D01*
X049823Y003999D01*
X050317Y003999D01*
X050317Y003899D01*
X050417Y003899D01*
X050417Y003150D01*
X050780Y003150D01*
X050818Y003160D01*
X050852Y003180D01*
X050880Y003208D01*
X050910Y003301D02*
X051312Y003301D01*
X051280Y003400D02*
X050910Y003400D01*
X050910Y003498D02*
X051280Y003498D01*
X051280Y003597D02*
X050910Y003597D01*
X050910Y003695D02*
X051280Y003695D01*
X051280Y003794D02*
X050910Y003794D01*
X050910Y003892D02*
X051280Y003892D01*
X051280Y003991D02*
X050417Y003991D01*
X050417Y004089D02*
X050317Y004089D01*
X050317Y003991D02*
X048085Y003991D01*
X048040Y003946D02*
X048165Y004071D01*
X048233Y004235D01*
X048233Y004412D01*
X048165Y004575D01*
X048040Y004701D01*
X047876Y004769D01*
X047699Y004769D01*
X047536Y004701D01*
X047410Y004575D01*
X047343Y004412D01*
X047343Y004235D01*
X047410Y004071D01*
X047536Y003946D01*
X047699Y003878D01*
X047876Y003878D01*
X048040Y003946D01*
X047911Y003892D02*
X049823Y003892D01*
X049823Y003899D02*
X049823Y003280D01*
X049833Y003242D01*
X049853Y003208D01*
X049881Y003180D01*
X049915Y003160D01*
X049953Y003150D01*
X050317Y003150D01*
X050317Y003899D01*
X049823Y003899D01*
X049823Y003794D02*
X047092Y003794D01*
X047058Y003813D01*
X047020Y003824D01*
X046499Y003824D01*
X046499Y003428D01*
X047150Y003428D01*
X047150Y003693D01*
X047140Y003732D01*
X047120Y003766D01*
X047092Y003794D01*
X047150Y003695D02*
X049823Y003695D01*
X049823Y003597D02*
X047150Y003597D01*
X047150Y003498D02*
X049823Y003498D01*
X049823Y003400D02*
X046499Y003400D01*
X046499Y003428D02*
X046499Y003328D01*
X046499Y002933D01*
X047020Y002933D01*
X047058Y002943D01*
X047092Y002963D01*
X047120Y002991D01*
X047140Y003025D01*
X047150Y003063D01*
X047150Y003328D01*
X046499Y003328D01*
X046399Y003328D01*
X046399Y002933D01*
X045878Y002933D01*
X045840Y002943D01*
X045806Y002963D01*
X045778Y002991D01*
X045758Y003025D01*
X045748Y003063D01*
X045748Y003328D01*
X046399Y003328D01*
X046399Y003428D01*
X045748Y003428D01*
X045748Y003693D01*
X045758Y003732D01*
X045778Y003766D01*
X045806Y003794D01*
X045840Y003813D01*
X045878Y003824D01*
X046399Y003824D01*
X046399Y003428D01*
X046499Y003428D01*
X046499Y003498D02*
X046399Y003498D01*
X046399Y003400D02*
X045684Y003400D01*
X045684Y003498D02*
X045748Y003498D01*
X045748Y003597D02*
X045684Y003597D01*
X045684Y003695D02*
X045749Y003695D01*
X045806Y003794D02*
X045684Y003794D01*
X045684Y003892D02*
X047664Y003892D01*
X047490Y003991D02*
X045684Y003991D01*
X045684Y004089D02*
X047403Y004089D01*
X047362Y004188D02*
X045684Y004188D01*
X045684Y004286D02*
X047343Y004286D01*
X047343Y004385D02*
X047229Y004385D01*
X047264Y004419D02*
X047264Y004419D01*
X047328Y004483D02*
X047372Y004483D01*
X047357Y004582D02*
X047417Y004582D01*
X047357Y004680D02*
X047515Y004680D01*
X047357Y004779D02*
X051299Y004779D01*
X051299Y004877D02*
X047357Y004877D01*
X047357Y004976D02*
X048495Y004976D01*
X048465Y005074D02*
X047427Y005074D01*
X047525Y005173D02*
X048465Y005173D01*
X049126Y005347D02*
X047473Y005347D01*
X047197Y005071D01*
X047197Y004579D01*
X047099Y004481D01*
X045819Y004481D01*
X045721Y004579D01*
X045721Y005367D01*
X046311Y005957D01*
X046311Y007630D01*
X046902Y008221D01*
X047158Y008221D01*
X047465Y008226D02*
X047520Y008226D01*
X047520Y008128D02*
X047465Y008128D01*
X047465Y008029D02*
X047520Y008029D01*
X047548Y007931D02*
X047437Y007931D01*
X047491Y007832D02*
X046740Y007832D01*
X046641Y007734D02*
X047491Y007734D01*
X047491Y007635D02*
X047406Y007635D01*
X047935Y007438D02*
X048239Y007438D01*
X048239Y007340D02*
X047927Y007340D01*
X047899Y007241D02*
X048267Y007241D01*
X048267Y007143D02*
X047406Y007143D01*
X047383Y007044D02*
X047721Y007044D01*
X047622Y006946D02*
X047444Y006946D01*
X047446Y006847D02*
X047524Y006847D01*
X047491Y006749D02*
X047147Y006749D01*
X047147Y006657D02*
X047446Y006657D01*
X047446Y006469D01*
X047435Y006431D01*
X047416Y006396D01*
X047388Y006369D01*
X047354Y006349D01*
X047315Y006339D01*
X047147Y006339D01*
X047147Y006657D01*
X047147Y006650D02*
X047050Y006650D01*
X047050Y006552D02*
X047147Y006552D01*
X047147Y006453D02*
X047050Y006453D01*
X047050Y006355D02*
X047147Y006355D01*
X047364Y006355D02*
X047491Y006355D01*
X047491Y006453D02*
X047442Y006453D01*
X047446Y006552D02*
X047491Y006552D01*
X047491Y006650D02*
X047446Y006650D01*
X046833Y006355D02*
X046797Y006355D01*
X046797Y006256D02*
X047491Y006256D01*
X047907Y006158D02*
X046797Y006158D01*
X046797Y006059D02*
X049763Y006059D01*
X049763Y005961D02*
X046797Y005961D01*
X046797Y005862D02*
X049763Y005862D01*
X049779Y005764D02*
X046797Y005764D01*
X046797Y005665D02*
X048465Y005665D01*
X048465Y005567D02*
X046797Y005567D01*
X046797Y005468D02*
X047368Y005468D01*
X047270Y005370D02*
X046797Y005370D01*
X047110Y005271D02*
X047171Y005271D01*
X048060Y004680D02*
X049847Y004680D01*
X049823Y004582D02*
X048159Y004582D01*
X048203Y004483D02*
X049823Y004483D01*
X049823Y004385D02*
X048233Y004385D01*
X048233Y004286D02*
X049823Y004286D01*
X049823Y004188D02*
X048214Y004188D01*
X048173Y004089D02*
X049823Y004089D01*
X050317Y004188D02*
X050417Y004188D01*
X050417Y004286D02*
X050317Y004286D01*
X050317Y004385D02*
X050417Y004385D01*
X050417Y004483D02*
X050317Y004483D01*
X050317Y004582D02*
X050417Y004582D01*
X050417Y004680D02*
X050317Y004680D01*
X050886Y004680D02*
X051299Y004680D01*
X051280Y004582D02*
X050910Y004582D01*
X050910Y004483D02*
X051280Y004483D01*
X051280Y004385D02*
X050910Y004385D01*
X050910Y004286D02*
X051280Y004286D01*
X051280Y004188D02*
X050910Y004188D01*
X050910Y004089D02*
X051280Y004089D01*
X051804Y003989D02*
X051804Y004559D01*
X052414Y005170D01*
X052414Y005229D01*
X052087Y005271D02*
X051973Y005271D01*
X051973Y005173D02*
X052087Y005173D01*
X052087Y005074D02*
X051973Y005074D01*
X051973Y005006D02*
X051973Y005530D01*
X051939Y005563D01*
X051973Y005597D01*
X051973Y006121D01*
X051966Y006127D01*
X051974Y006132D01*
X052002Y006160D01*
X052022Y006194D01*
X052032Y006233D01*
X052032Y006401D01*
X051714Y006401D01*
X051714Y006498D01*
X051617Y006498D01*
X051617Y006796D01*
X051617Y006991D01*
X051714Y006991D01*
X051714Y006498D01*
X052032Y006498D01*
X052032Y006666D01*
X052022Y006704D01*
X052002Y006738D01*
X051996Y006744D01*
X052002Y006751D01*
X052022Y006785D01*
X052032Y006823D01*
X052032Y006991D01*
X051714Y006991D01*
X051714Y007088D01*
X052032Y007088D01*
X052032Y007256D01*
X052022Y007295D01*
X052002Y007329D01*
X051974Y007357D01*
X051940Y007376D01*
X051902Y007387D01*
X051714Y007387D01*
X051714Y007088D01*
X051617Y007088D01*
X051617Y007387D01*
X051455Y007387D01*
X051528Y007460D01*
X051533Y007460D01*
X051561Y007432D01*
X052107Y007432D01*
X052107Y007152D01*
X052171Y007087D01*
X052499Y007087D01*
X052522Y007111D01*
X052545Y007087D01*
X052632Y007087D01*
X052746Y006973D01*
X052805Y006914D01*
X052718Y006914D01*
X052718Y006537D01*
X052700Y006537D01*
X052700Y006914D01*
X052571Y006914D01*
X052533Y006904D01*
X052499Y006884D01*
X052489Y006874D01*
X052171Y006874D01*
X052107Y006810D01*
X052107Y006246D01*
X052150Y006203D01*
X052087Y006140D01*
X052087Y005656D01*
X052152Y005591D01*
X052676Y005591D01*
X052709Y005624D01*
X052742Y005591D01*
X053006Y005591D01*
X053062Y005536D01*
X052742Y005536D01*
X052709Y005502D01*
X052676Y005536D01*
X052152Y005536D01*
X052087Y005471D01*
X052087Y005069D01*
X051727Y004709D01*
X051679Y004709D01*
X051679Y004942D01*
X051908Y004942D01*
X051973Y005006D01*
X051994Y004976D02*
X051942Y004976D01*
X051895Y004877D02*
X051679Y004877D01*
X051679Y004779D02*
X051797Y004779D01*
X052119Y004579D02*
X052414Y004874D01*
X052906Y004874D01*
X053004Y004973D01*
X053004Y005229D01*
X053004Y005819D02*
X053595Y005229D01*
X053921Y005271D02*
X059055Y005271D01*
X059055Y005173D02*
X053921Y005173D01*
X053921Y005074D02*
X059055Y005074D01*
X059055Y004976D02*
X053911Y004976D01*
X053135Y004877D02*
X059055Y004877D01*
X059055Y004779D02*
X053037Y004779D01*
X052973Y004680D02*
X053351Y004680D01*
X053357Y004691D02*
X053337Y004657D01*
X053327Y004619D01*
X053327Y003999D01*
X053820Y003999D01*
X053820Y003899D01*
X053920Y003899D01*
X053920Y003150D01*
X054284Y003150D01*
X054322Y003160D01*
X054356Y003180D01*
X054384Y003208D01*
X054404Y003242D01*
X054414Y003280D01*
X054414Y003899D01*
X053920Y003899D01*
X053920Y003999D01*
X053820Y003999D01*
X053820Y004749D01*
X053457Y004749D01*
X053419Y004739D01*
X053385Y004719D01*
X053357Y004691D01*
X053327Y004582D02*
X052997Y004582D01*
X052997Y004483D02*
X053327Y004483D01*
X053327Y004385D02*
X052997Y004385D01*
X052997Y004286D02*
X053327Y004286D01*
X053327Y004188D02*
X052997Y004188D01*
X052997Y004089D02*
X053327Y004089D01*
X053327Y003892D02*
X052997Y003892D01*
X052997Y003794D02*
X053327Y003794D01*
X053327Y003695D02*
X052997Y003695D01*
X052997Y003597D02*
X053327Y003597D01*
X053327Y003498D02*
X052997Y003498D01*
X052997Y003400D02*
X053327Y003400D01*
X053820Y003400D02*
X053920Y003400D01*
X053920Y003498D02*
X053820Y003498D01*
X053820Y003597D02*
X053920Y003597D01*
X053920Y003695D02*
X053820Y003695D01*
X053820Y003794D02*
X053920Y003794D01*
X053920Y003892D02*
X053820Y003892D01*
X053820Y003991D02*
X052997Y003991D01*
X052748Y003892D02*
X052748Y003892D01*
X052748Y003794D02*
X052748Y003794D01*
X052748Y003695D02*
X052748Y003695D01*
X052748Y003597D02*
X052748Y003597D01*
X052748Y003498D02*
X052748Y003498D01*
X052748Y003400D02*
X052748Y003400D01*
X052748Y003301D02*
X052748Y003301D01*
X052847Y003104D02*
X051390Y003104D01*
X051438Y003085D02*
X051317Y003135D01*
X051187Y003135D01*
X051067Y003085D01*
X050975Y002993D01*
X050925Y002873D01*
X050925Y002742D01*
X050975Y002622D01*
X051067Y002530D01*
X051187Y002480D01*
X051317Y002480D01*
X051438Y002530D01*
X051530Y002622D01*
X051580Y002742D01*
X051580Y002873D01*
X051530Y002993D01*
X051438Y003085D01*
X051517Y003006D02*
X052720Y003006D01*
X052672Y002907D02*
X051565Y002907D01*
X051580Y002809D02*
X052657Y002809D01*
X052671Y002710D02*
X051566Y002710D01*
X051519Y002612D02*
X052718Y002612D01*
X052840Y002513D02*
X051397Y002513D01*
X051107Y002513D02*
X047110Y002513D01*
X045788Y002513D02*
X045684Y002513D01*
X045684Y002612D02*
X050985Y002612D01*
X050938Y002710D02*
X045684Y002710D01*
X045684Y002809D02*
X050925Y002809D01*
X050940Y002907D02*
X045684Y002907D01*
X045684Y003006D02*
X045769Y003006D01*
X045748Y003104D02*
X045684Y003104D01*
X045684Y003203D02*
X045748Y003203D01*
X045748Y003301D02*
X045684Y003301D01*
X045364Y003301D02*
X040870Y003301D01*
X040870Y003203D02*
X045364Y003203D01*
X045364Y003104D02*
X040870Y003104D01*
X040870Y003006D02*
X045364Y003006D01*
X045364Y002907D02*
X040570Y002907D01*
X040570Y002809D02*
X040470Y002809D01*
X040470Y002710D02*
X040570Y002710D01*
X040570Y002612D02*
X040470Y002612D01*
X040470Y002513D02*
X040570Y002513D01*
X040570Y002415D02*
X040470Y002415D01*
X040470Y002316D02*
X040570Y002316D01*
X040570Y002218D02*
X040470Y002218D01*
X040470Y002119D02*
X040570Y002119D01*
X040811Y002119D02*
X045592Y002119D01*
X045494Y002218D02*
X040869Y002218D01*
X040870Y002316D02*
X045395Y002316D01*
X045364Y002415D02*
X040870Y002415D01*
X040870Y002513D02*
X045364Y002513D01*
X045364Y002612D02*
X040870Y002612D01*
X040870Y002710D02*
X045364Y002710D01*
X045364Y002809D02*
X040870Y002809D01*
X040170Y003006D02*
X039830Y003006D01*
X039830Y003104D02*
X040170Y003104D01*
X040170Y003203D02*
X039830Y003203D01*
X039830Y003301D02*
X040170Y003301D01*
X040170Y003400D02*
X039830Y003400D01*
X039830Y003498D02*
X040170Y003498D01*
X040180Y003597D02*
X039819Y003597D01*
X039520Y003792D02*
X039520Y002890D01*
X040870Y003400D02*
X045364Y003400D01*
X045364Y003498D02*
X040870Y003498D01*
X039717Y003989D02*
X039520Y003792D01*
X039717Y003989D02*
X040898Y003989D01*
X040996Y004087D01*
X040996Y005170D01*
X046607Y010780D01*
X048969Y010780D01*
X050052Y011863D01*
X050445Y011863D01*
X050445Y012059D02*
X049953Y012059D01*
X048870Y010977D01*
X046508Y010977D01*
X040520Y004989D01*
X040520Y004890D01*
X039520Y004890D02*
X039520Y005662D01*
X039619Y005760D01*
X040996Y005760D01*
X046410Y011174D01*
X048772Y011174D01*
X049855Y012256D01*
X050445Y012256D01*
X051009Y012265D02*
X052474Y012265D01*
X052376Y012363D02*
X051009Y012363D01*
X051009Y012462D02*
X052277Y012462D01*
X052179Y012560D02*
X051009Y012560D01*
X051009Y012659D02*
X052080Y012659D01*
X051982Y012757D02*
X051679Y012757D01*
X051698Y012776D02*
X051776Y012854D01*
X051823Y012854D01*
X051823Y013241D01*
X051823Y013627D01*
X051744Y013627D01*
X051706Y013617D01*
X051672Y013597D01*
X051662Y013587D01*
X051393Y013587D01*
X051393Y013602D01*
X051294Y013701D01*
X051225Y013770D01*
X051954Y013770D01*
X052057Y013666D01*
X052057Y013587D01*
X051984Y013587D01*
X051974Y013597D01*
X051940Y013617D01*
X051902Y013627D01*
X051823Y013627D01*
X051823Y013241D01*
X051823Y013241D01*
X051823Y013241D01*
X051823Y012854D01*
X051885Y012854D01*
X052647Y012092D01*
X052647Y011796D01*
X053041Y011403D01*
X053041Y011013D01*
X053006Y011013D01*
X052870Y010876D01*
X052870Y010683D01*
X053006Y010547D01*
X053199Y010547D01*
X053228Y010576D01*
X053228Y010555D01*
X053131Y010458D01*
X052253Y010458D01*
X052253Y010581D01*
X052117Y010718D01*
X051924Y010718D01*
X051787Y010581D01*
X051787Y010458D01*
X051106Y010458D01*
X051009Y010555D01*
X051009Y012677D01*
X051598Y012677D01*
X051698Y012776D01*
X051823Y012856D02*
X051823Y012856D01*
X051823Y012954D02*
X051823Y012954D01*
X051823Y013053D02*
X051823Y013053D01*
X051823Y013151D02*
X051823Y013151D01*
X051823Y013250D02*
X051823Y013250D01*
X051823Y013348D02*
X051823Y013348D01*
X051823Y013447D02*
X051823Y013447D01*
X051823Y013545D02*
X051823Y013545D01*
X051981Y013742D02*
X051252Y013742D01*
X051351Y013644D02*
X052057Y013644D01*
X052217Y013733D02*
X052020Y013930D01*
X051036Y013930D01*
X050642Y014323D01*
X050642Y014422D01*
X050445Y014520D01*
X050544Y014914D01*
X050878Y015248D01*
X050878Y015504D01*
X050594Y015220D02*
X050548Y015220D01*
X050525Y015121D02*
X033221Y015121D01*
X033221Y015023D02*
X049942Y015023D01*
X049942Y014924D02*
X033221Y014924D01*
X033221Y014826D02*
X049942Y014826D01*
X049942Y014727D02*
X033221Y014727D01*
X033221Y014629D02*
X049942Y014629D01*
X049942Y014530D02*
X033221Y014530D01*
X033221Y014432D02*
X049942Y014432D01*
X049942Y014333D02*
X033221Y014333D01*
X033221Y014235D02*
X049942Y014235D01*
X049942Y014136D02*
X033221Y014136D01*
X033221Y014038D02*
X047665Y014038D01*
X047910Y014038D02*
X049942Y014038D01*
X050004Y013939D02*
X048009Y013939D01*
X048021Y013841D02*
X050898Y013841D01*
X051134Y013634D02*
X048969Y013634D01*
X048674Y013339D01*
X048674Y012552D01*
X048280Y012158D01*
X045918Y012158D01*
X043654Y009894D01*
X028004Y009894D01*
X027906Y009993D01*
X027906Y012256D01*
X027020Y013142D01*
X026567Y013142D01*
X026528Y013280D01*
X026489Y013142D01*
X025642Y013142D01*
X025102Y013151D02*
X020867Y013151D01*
X020867Y013053D02*
X025102Y013053D01*
X025102Y012954D02*
X020867Y012954D01*
X020837Y012856D02*
X025133Y012856D01*
X025102Y012757D02*
X020867Y012757D01*
X020918Y012552D02*
X020327Y012552D01*
X019787Y012560D02*
X010308Y012560D01*
X010407Y012462D02*
X019787Y012462D01*
X019787Y012363D02*
X010448Y012363D01*
X010448Y012265D02*
X019818Y012265D01*
X019787Y012166D02*
X010448Y012166D01*
X010506Y012068D02*
X019787Y012068D01*
X019787Y011969D02*
X011490Y011969D01*
X011530Y011929D02*
X011530Y011929D01*
X011588Y011871D02*
X019787Y011871D01*
X019787Y011772D02*
X011687Y011772D01*
X011785Y011674D02*
X019819Y011674D01*
X019787Y011575D02*
X011884Y011575D01*
X011982Y011477D02*
X019787Y011477D01*
X019787Y011378D02*
X012081Y011378D01*
X012027Y011432D02*
X012027Y011432D01*
X011961Y011272D02*
X011961Y008418D01*
X012453Y007926D01*
X019540Y007926D01*
X021016Y006449D01*
X020783Y006453D02*
X020616Y006453D01*
X020616Y006355D02*
X020783Y006355D01*
X020879Y006256D02*
X020616Y006256D01*
X020616Y006158D02*
X040873Y006158D01*
X040971Y006256D02*
X021153Y006256D01*
X021249Y006355D02*
X041070Y006355D01*
X041168Y006453D02*
X021249Y006453D01*
X021243Y006552D02*
X041267Y006552D01*
X041365Y006650D02*
X021144Y006650D01*
X020943Y006749D02*
X041464Y006749D01*
X041562Y006847D02*
X020844Y006847D01*
X020746Y006946D02*
X041661Y006946D01*
X041759Y007044D02*
X020647Y007044D01*
X020549Y007143D02*
X041858Y007143D01*
X041956Y007241D02*
X020450Y007241D01*
X020352Y007340D02*
X042055Y007340D01*
X042153Y007438D02*
X020253Y007438D01*
X020155Y007537D02*
X042252Y007537D01*
X042350Y007635D02*
X020056Y007635D01*
X019958Y007734D02*
X042449Y007734D01*
X042547Y007832D02*
X019859Y007832D01*
X019761Y007931D02*
X042646Y007931D01*
X042744Y008029D02*
X019662Y008029D01*
X019266Y007438D02*
X000300Y007438D01*
X000300Y007340D02*
X008718Y007340D01*
X008619Y007241D02*
X000300Y007241D01*
X000300Y007143D02*
X008521Y007143D01*
X008422Y007044D02*
X000300Y007044D01*
X000300Y006946D02*
X002876Y006946D01*
X002865Y006935D02*
X002845Y006901D01*
X002835Y006863D01*
X002835Y006302D01*
X003525Y006302D01*
X003525Y006202D01*
X003625Y006202D01*
X003625Y005512D01*
X004185Y005512D01*
X004224Y005522D01*
X004258Y005542D01*
X004286Y005570D01*
X004306Y005604D01*
X004316Y005642D01*
X004316Y006202D01*
X003625Y006202D01*
X003625Y006302D01*
X004316Y006302D01*
X004316Y006863D01*
X004306Y006901D01*
X004286Y006935D01*
X004258Y006963D01*
X004224Y006983D01*
X004185Y006993D01*
X003625Y006993D01*
X003625Y006302D01*
X003525Y006302D01*
X003525Y006993D01*
X002965Y006993D01*
X002927Y006983D01*
X002893Y006963D01*
X002865Y006935D01*
X002835Y006847D02*
X000300Y006847D01*
X000300Y006749D02*
X002835Y006749D01*
X002835Y006650D02*
X000300Y006650D01*
X000300Y006552D02*
X002835Y006552D01*
X002835Y006453D02*
X000300Y006453D01*
X000300Y006355D02*
X002835Y006355D01*
X002835Y006202D02*
X002835Y005642D01*
X002845Y005604D01*
X002865Y005570D01*
X002893Y005542D01*
X002927Y005522D01*
X002965Y005512D01*
X003525Y005512D01*
X003525Y006202D01*
X002835Y006202D01*
X002835Y006158D02*
X000300Y006158D01*
X000300Y006256D02*
X003525Y006256D01*
X003525Y006158D02*
X003625Y006158D01*
X003625Y006256D02*
X008418Y006256D01*
X008418Y006158D02*
X004316Y006158D01*
X004316Y006059D02*
X008418Y006059D01*
X008418Y005961D02*
X004316Y005961D01*
X004316Y005862D02*
X008418Y005862D01*
X008418Y005764D02*
X004316Y005764D01*
X004316Y005665D02*
X008418Y005665D01*
X008418Y005567D02*
X004283Y005567D01*
X003625Y005567D02*
X003525Y005567D01*
X003525Y005665D02*
X003625Y005665D01*
X003625Y005764D02*
X003525Y005764D01*
X003525Y005862D02*
X003625Y005862D01*
X003625Y005961D02*
X003525Y005961D01*
X003525Y006059D02*
X003625Y006059D01*
X003625Y006355D02*
X003525Y006355D01*
X003525Y006453D02*
X003625Y006453D01*
X003625Y006552D02*
X003525Y006552D01*
X003525Y006650D02*
X003625Y006650D01*
X003625Y006749D02*
X003525Y006749D01*
X003525Y006847D02*
X003625Y006847D01*
X003625Y006946D02*
X003525Y006946D01*
X004275Y006946D02*
X008418Y006946D01*
X008418Y006847D02*
X004316Y006847D01*
X004316Y006749D02*
X008418Y006749D01*
X008418Y006650D02*
X004316Y006650D01*
X004316Y006552D02*
X008418Y006552D01*
X008418Y006453D02*
X004316Y006453D01*
X004316Y006355D02*
X008418Y006355D01*
X011070Y007143D02*
X014035Y007143D01*
X014035Y007088D02*
X014334Y007088D01*
X014334Y006991D01*
X014431Y006991D01*
X014431Y007088D01*
X014729Y007088D01*
X014729Y007276D01*
X014719Y007314D01*
X014699Y007348D01*
X014671Y007376D01*
X014637Y007396D01*
X014599Y007406D01*
X014431Y007406D01*
X014431Y007088D01*
X014334Y007088D01*
X014334Y007406D01*
X014166Y007406D01*
X014128Y007396D01*
X014093Y007376D01*
X014065Y007348D01*
X014046Y007314D01*
X014035Y007276D01*
X014035Y007088D01*
X014035Y006991D02*
X014035Y006803D01*
X014046Y006765D01*
X014065Y006731D01*
X014093Y006703D01*
X014128Y006683D01*
X014166Y006673D01*
X014334Y006673D01*
X014334Y006991D01*
X014035Y006991D01*
X014035Y006946D02*
X011267Y006946D01*
X011169Y007044D02*
X014334Y007044D01*
X014431Y007044D02*
X014745Y007044D01*
X014729Y006991D02*
X014431Y006991D01*
X014431Y006673D01*
X014599Y006673D01*
X014637Y006683D01*
X014671Y006703D01*
X014699Y006731D01*
X014719Y006765D01*
X014729Y006803D01*
X014729Y006991D01*
X014729Y006946D02*
X014745Y006946D01*
X014745Y006847D02*
X014729Y006847D01*
X014709Y006749D02*
X014773Y006749D01*
X014431Y006749D02*
X014334Y006749D01*
X014334Y006847D02*
X014431Y006847D01*
X014431Y006946D02*
X014334Y006946D01*
X014334Y007143D02*
X014431Y007143D01*
X014431Y007241D02*
X014334Y007241D01*
X014334Y007340D02*
X014431Y007340D01*
X014704Y007340D02*
X014783Y007340D01*
X014745Y007241D02*
X014729Y007241D01*
X014729Y007143D02*
X014745Y007143D01*
X015052Y007040D02*
X016095Y007040D01*
X016095Y006607D01*
X016599Y006650D02*
X020054Y006650D01*
X020153Y006552D02*
X019535Y006552D01*
X019634Y006453D02*
X020236Y006453D01*
X020236Y006355D02*
X019638Y006355D01*
X019638Y006256D02*
X020236Y006256D01*
X020236Y006158D02*
X019638Y006158D01*
X019638Y006059D02*
X020236Y006059D01*
X020236Y005961D02*
X019638Y005961D01*
X019638Y005862D02*
X020236Y005862D01*
X020236Y005764D02*
X019638Y005764D01*
X019785Y005665D02*
X019885Y005665D01*
X019885Y005567D02*
X019785Y005567D01*
X019785Y005468D02*
X019885Y005468D01*
X019885Y005370D02*
X019785Y005370D01*
X019785Y005271D02*
X019885Y005271D01*
X019885Y005173D02*
X019785Y005173D01*
X019785Y005074D02*
X019885Y005074D01*
X019885Y004976D02*
X019785Y004976D01*
X019885Y004877D02*
X020236Y004877D01*
X020236Y004779D02*
X020185Y004779D01*
X020185Y004680D02*
X020236Y004680D01*
X020236Y004582D02*
X020185Y004582D01*
X020185Y004483D02*
X020236Y004483D01*
X020236Y004385D02*
X020185Y004385D01*
X020185Y004286D02*
X020236Y004286D01*
X020236Y004188D02*
X020176Y004188D01*
X020236Y004089D02*
X019638Y004089D01*
X019638Y003991D02*
X020236Y003991D01*
X020236Y003892D02*
X019638Y003892D01*
X019638Y003794D02*
X020236Y003794D01*
X020236Y003695D02*
X019638Y003695D01*
X019785Y003597D02*
X019885Y003597D01*
X019885Y003498D02*
X019785Y003498D01*
X019785Y003400D02*
X019885Y003400D01*
X019885Y003301D02*
X019785Y003301D01*
X019785Y003203D02*
X019885Y003203D01*
X019885Y003104D02*
X019785Y003104D01*
X019785Y003006D02*
X019885Y003006D01*
X020185Y002809D02*
X020236Y002809D01*
X020236Y002710D02*
X020185Y002710D01*
X020185Y002612D02*
X020196Y002612D01*
X020185Y002513D02*
X020193Y002513D01*
X020185Y002415D02*
X020193Y002415D01*
X020185Y002316D02*
X020292Y002316D01*
X020184Y002218D02*
X020525Y002218D01*
X019638Y002021D02*
X045788Y002021D01*
X045788Y001922D02*
X019638Y001922D01*
X019638Y001824D02*
X045821Y001824D01*
X047078Y001824D02*
X047415Y001824D01*
X047371Y001725D02*
X019638Y001725D01*
X019638Y001627D02*
X047343Y001627D01*
X047343Y001528D02*
X019638Y001528D01*
X019638Y001430D02*
X047363Y001430D01*
X047404Y001331D02*
X019638Y001331D01*
X019638Y001233D02*
X047493Y001233D01*
X047669Y001134D02*
X019638Y001134D01*
X018063Y001134D02*
X001409Y001134D01*
X001115Y001233D02*
X018063Y001233D01*
X018063Y001331D02*
X000945Y001331D01*
X000839Y001430D02*
X018063Y001430D01*
X018063Y001528D02*
X000740Y001528D01*
X000642Y001627D02*
X018063Y001627D01*
X018063Y001725D02*
X000548Y001725D01*
X000491Y001824D02*
X001348Y001824D01*
X001283Y001851D02*
X001570Y001732D01*
X001880Y001732D01*
X002167Y001851D01*
X002386Y002070D01*
X002505Y002357D01*
X002505Y002667D01*
X002386Y002954D01*
X002167Y003173D01*
X001880Y003292D01*
X001570Y003292D01*
X001283Y003173D01*
X001064Y002954D01*
X000945Y002667D01*
X000945Y002357D01*
X001064Y002070D01*
X001283Y001851D01*
X001212Y001922D02*
X000434Y001922D01*
X000394Y002021D02*
X001113Y002021D01*
X001043Y002119D02*
X000368Y002119D01*
X000341Y002218D02*
X001003Y002218D01*
X000962Y002316D02*
X000315Y002316D01*
X000306Y002415D02*
X000945Y002415D01*
X000945Y002513D02*
X000300Y002513D01*
X000300Y002612D02*
X000945Y002612D01*
X000963Y002710D02*
X000300Y002710D01*
X000300Y002809D02*
X001004Y002809D01*
X001044Y002907D02*
X000300Y002907D01*
X000300Y003006D02*
X001116Y003006D01*
X001214Y003104D02*
X000300Y003104D01*
X000300Y003203D02*
X001354Y003203D01*
X002095Y003203D02*
X009860Y003203D01*
X009672Y003301D02*
X000300Y003301D01*
X000300Y003400D02*
X009574Y003400D01*
X009528Y003498D02*
X000300Y003498D01*
X000300Y003597D02*
X009489Y003597D01*
X009489Y003695D02*
X000300Y003695D01*
X000300Y003794D02*
X009489Y003794D01*
X009530Y003892D02*
X000300Y003892D01*
X000300Y003991D02*
X009578Y003991D01*
X009676Y004089D02*
X000300Y004089D01*
X000300Y004188D02*
X009870Y004188D01*
X010115Y004188D02*
X010985Y004188D01*
X010985Y004089D02*
X010309Y004089D01*
X009203Y004286D02*
X000300Y004286D01*
X000300Y004385D02*
X009104Y004385D01*
X009006Y004483D02*
X000300Y004483D01*
X000300Y004582D02*
X008907Y004582D01*
X008809Y004680D02*
X000300Y004680D01*
X000300Y004779D02*
X008710Y004779D01*
X008612Y004877D02*
X000300Y004877D01*
X000300Y004976D02*
X008513Y004976D01*
X008418Y005074D02*
X000300Y005074D01*
X000300Y005173D02*
X008418Y005173D01*
X008418Y005271D02*
X000300Y005271D01*
X000300Y005370D02*
X008418Y005370D01*
X008418Y005468D02*
X000300Y005468D01*
X000300Y005567D02*
X002867Y005567D01*
X002835Y005665D02*
X000300Y005665D01*
X000300Y005764D02*
X002835Y005764D01*
X002835Y005862D02*
X000300Y005862D01*
X000300Y005961D02*
X002835Y005961D01*
X002835Y006059D02*
X000300Y006059D01*
X000300Y007537D02*
X012179Y007537D01*
X012081Y007635D02*
X000300Y007635D01*
X000300Y007734D02*
X011982Y007734D01*
X011884Y007832D02*
X000300Y007832D01*
X000300Y007931D02*
X011785Y007931D01*
X011687Y008029D02*
X000300Y008029D01*
X000300Y008128D02*
X011588Y008128D01*
X011490Y008226D02*
X000300Y008226D01*
X000300Y008325D02*
X011476Y008325D01*
X011476Y008423D02*
X000300Y008423D01*
X000300Y008522D02*
X011476Y008522D01*
X011476Y008620D02*
X000300Y008620D01*
X000300Y008719D02*
X011476Y008719D01*
X011476Y008817D02*
X000300Y008817D01*
X000300Y008916D02*
X011476Y008916D01*
X011476Y009014D02*
X000300Y009014D01*
X000300Y009113D02*
X011476Y009113D01*
X011476Y009211D02*
X000300Y009211D01*
X000300Y009310D02*
X011476Y009310D01*
X011476Y009408D02*
X009081Y009408D01*
X009066Y009400D02*
X009100Y009420D01*
X009128Y009448D01*
X009148Y009482D01*
X009158Y009520D01*
X009158Y009708D01*
X008860Y009708D01*
X008860Y009390D01*
X009028Y009390D01*
X009066Y009400D01*
X009155Y009507D02*
X011476Y009507D01*
X011476Y009605D02*
X009940Y009605D01*
X010121Y009704D02*
X011476Y009704D01*
X011476Y009802D02*
X010219Y009802D01*
X010262Y009901D02*
X011476Y009901D01*
X011476Y009999D02*
X010299Y009999D01*
X010299Y010098D02*
X011476Y010098D01*
X011476Y010196D02*
X010297Y010196D01*
X010256Y010295D02*
X011476Y010295D01*
X011476Y010393D02*
X010206Y010393D01*
X010107Y010492D02*
X011476Y010492D01*
X011476Y010590D02*
X009906Y010590D01*
X009889Y010787D02*
X009703Y010787D01*
X009729Y010886D02*
X009863Y010886D01*
X009863Y010984D02*
X009729Y010984D01*
X009729Y011083D02*
X009863Y011083D01*
X009863Y011181D02*
X009729Y011181D01*
X009729Y011280D02*
X009863Y011280D01*
X010477Y011280D02*
X011291Y011280D01*
X011389Y011181D02*
X010477Y011181D01*
X010477Y011083D02*
X011476Y011083D01*
X011476Y010984D02*
X010477Y010984D01*
X010477Y010886D02*
X011476Y010886D01*
X011476Y010787D02*
X010451Y010787D01*
X009685Y010590D02*
X009612Y010590D01*
X009612Y010689D02*
X011476Y010689D01*
X012121Y010689D02*
X019787Y010689D01*
X019787Y010787D02*
X012121Y010787D01*
X012121Y010886D02*
X019787Y010886D01*
X019787Y010984D02*
X012121Y010984D01*
X012121Y011083D02*
X019819Y011083D01*
X019787Y011181D02*
X012121Y011181D01*
X012121Y011280D02*
X019787Y011280D01*
X020327Y011370D02*
X020918Y011370D01*
X021151Y011378D02*
X021151Y011378D01*
X021151Y011280D02*
X021151Y011280D01*
X021151Y011181D02*
X021058Y011181D01*
X021151Y011083D02*
X020835Y011083D01*
X020867Y010984D02*
X021151Y010984D01*
X021151Y010886D02*
X020867Y010886D01*
X020867Y010787D02*
X021151Y010787D01*
X021151Y010689D02*
X020867Y010689D01*
X020867Y010590D02*
X021151Y010590D01*
X021151Y010492D02*
X020835Y010492D01*
X020867Y010393D02*
X021151Y010393D01*
X021151Y010295D02*
X020867Y010295D01*
X020867Y010196D02*
X021151Y010196D01*
X021177Y010098D02*
X020867Y010098D01*
X020867Y009999D02*
X021275Y009999D01*
X021374Y009901D02*
X020834Y009901D01*
X020867Y009802D02*
X021472Y009802D01*
X021571Y009704D02*
X020867Y009704D01*
X020867Y009605D02*
X021669Y009605D01*
X021768Y009507D02*
X020867Y009507D01*
X020867Y009408D02*
X021866Y009408D01*
X021965Y009310D02*
X020834Y009310D01*
X020867Y009211D02*
X022063Y009211D01*
X022162Y009113D02*
X020867Y009113D01*
X020867Y009014D02*
X022260Y009014D01*
X022359Y008916D02*
X020867Y008916D01*
X020867Y008817D02*
X022457Y008817D01*
X022556Y008719D02*
X020833Y008719D01*
X019821Y008719D02*
X012121Y008719D01*
X012121Y008817D02*
X019787Y008817D01*
X019787Y008916D02*
X012121Y008916D01*
X012121Y009014D02*
X019787Y009014D01*
X019787Y009113D02*
X012121Y009113D01*
X012121Y009211D02*
X019787Y009211D01*
X019820Y009310D02*
X012121Y009310D01*
X012121Y009408D02*
X019787Y009408D01*
X019787Y009507D02*
X012121Y009507D01*
X012121Y009605D02*
X019787Y009605D01*
X019787Y009704D02*
X012121Y009704D01*
X012121Y009802D02*
X019787Y009802D01*
X019820Y009901D02*
X012121Y009901D01*
X012121Y009999D02*
X019787Y009999D01*
X019787Y010098D02*
X012121Y010098D01*
X012121Y010196D02*
X019787Y010196D01*
X019787Y010295D02*
X012121Y010295D01*
X012121Y010393D02*
X019787Y010393D01*
X019820Y010492D02*
X012121Y010492D01*
X012121Y010590D02*
X019787Y010590D01*
X021508Y010288D02*
X021508Y011272D01*
X021607Y011370D01*
X021482Y011575D02*
X021471Y011575D01*
X021151Y011575D02*
X021042Y011575D01*
X021141Y011477D02*
X021151Y011477D01*
X021151Y011674D02*
X020836Y011674D01*
X020867Y011772D02*
X021151Y011772D01*
X021151Y011871D02*
X020867Y011871D01*
X020867Y011969D02*
X021151Y011969D01*
X021151Y012068D02*
X020867Y012068D01*
X020867Y012166D02*
X021077Y012166D01*
X020978Y012265D02*
X020836Y012265D01*
X020867Y012363D02*
X020880Y012363D01*
X019787Y012659D02*
X010210Y012659D01*
X010091Y012552D02*
X010288Y012355D01*
X010288Y012059D01*
X010485Y011863D01*
X011370Y011863D01*
X011961Y011272D01*
X009232Y010689D02*
X009117Y010689D01*
X009118Y010590D02*
X009232Y010590D01*
X009232Y010492D02*
X009118Y010492D01*
X009118Y010393D02*
X009232Y010393D01*
X009323Y010295D02*
X009118Y010295D01*
X009118Y010196D02*
X009294Y010196D01*
X009292Y010098D02*
X009092Y010098D01*
X009156Y009999D02*
X009292Y009999D01*
X009329Y009901D02*
X009158Y009901D01*
X009158Y009704D02*
X009470Y009704D01*
X009372Y009802D02*
X008860Y009802D01*
X008763Y009802D02*
X008269Y009802D01*
X008172Y009802D02*
X000300Y009802D01*
X000300Y009704D02*
X007874Y009704D01*
X007874Y009605D02*
X000300Y009605D01*
X000300Y009507D02*
X007878Y009507D01*
X007952Y009408D02*
X000300Y009408D01*
X000300Y009901D02*
X003054Y009901D01*
X003091Y009882D02*
X003172Y009856D01*
X003250Y009844D01*
X003250Y010336D01*
X003350Y010336D01*
X003350Y010436D01*
X003842Y010436D01*
X003830Y010514D01*
X003803Y010595D01*
X003765Y010671D01*
X003714Y010740D01*
X003654Y010801D01*
X003585Y010851D01*
X003508Y010890D01*
X003427Y010917D01*
X003350Y010929D01*
X003350Y010436D01*
X003250Y010436D01*
X003250Y010929D01*
X003172Y010917D01*
X003091Y010890D01*
X003015Y010851D01*
X002945Y010801D01*
X002885Y010740D01*
X002835Y010671D01*
X002796Y010595D01*
X002769Y010514D01*
X002757Y010436D01*
X003250Y010436D01*
X003250Y010336D01*
X002757Y010336D01*
X002769Y010259D01*
X002796Y010178D01*
X002835Y010101D01*
X002885Y010032D01*
X002945Y009972D01*
X003015Y009921D01*
X003091Y009882D01*
X003250Y009901D02*
X003350Y009901D01*
X003350Y009844D02*
X003427Y009856D01*
X003508Y009882D01*
X003585Y009921D01*
X003654Y009972D01*
X003714Y010032D01*
X003765Y010101D01*
X003803Y010178D01*
X003830Y010259D01*
X003842Y010336D01*
X003350Y010336D01*
X003350Y009844D01*
X003350Y009999D02*
X003250Y009999D01*
X003250Y010098D02*
X003350Y010098D01*
X003350Y010196D02*
X003250Y010196D01*
X003250Y010295D02*
X003350Y010295D01*
X003350Y010393D02*
X004961Y010393D01*
X004961Y010486D02*
X004961Y010286D01*
X005038Y010101D01*
X005180Y009959D01*
X005365Y009883D01*
X005565Y009883D01*
X005750Y009959D01*
X005892Y010101D01*
X005969Y010286D01*
X005969Y010486D01*
X005892Y010672D01*
X005750Y010813D01*
X005735Y010820D01*
X005735Y010985D01*
X005879Y010985D01*
X005943Y011049D01*
X005943Y011298D01*
X005987Y011298D01*
X005987Y011049D01*
X006051Y010985D01*
X006379Y010985D01*
X006443Y011049D01*
X006443Y011431D01*
X006445Y011433D01*
X006445Y011623D01*
X006443Y011625D01*
X006443Y012007D01*
X006379Y012071D01*
X006051Y012071D01*
X005987Y012007D01*
X005987Y011758D01*
X005943Y011758D01*
X005943Y012007D01*
X005879Y012071D01*
X005551Y012071D01*
X005487Y012007D01*
X005487Y011758D01*
X005443Y011758D01*
X005443Y012007D01*
X005379Y012071D01*
X005051Y012071D01*
X004987Y012007D01*
X004987Y011758D01*
X004943Y011758D01*
X004943Y012007D01*
X004879Y012071D01*
X004551Y012071D01*
X004487Y012007D01*
X004487Y011625D01*
X004485Y011623D01*
X004485Y011433D01*
X004487Y011431D01*
X004487Y011049D01*
X004551Y010985D01*
X004879Y010985D01*
X004943Y011049D01*
X004943Y011298D01*
X004987Y011298D01*
X004987Y011049D01*
X005051Y010985D01*
X005195Y010985D01*
X005195Y010820D01*
X005180Y010813D01*
X005038Y010672D01*
X004961Y010486D01*
X004964Y010492D02*
X003833Y010492D01*
X003805Y010590D02*
X005004Y010590D01*
X005055Y010689D02*
X003752Y010689D01*
X003667Y010787D02*
X005154Y010787D01*
X005195Y010886D02*
X003516Y010886D01*
X003350Y010886D02*
X003250Y010886D01*
X003250Y010787D02*
X003350Y010787D01*
X003350Y010689D02*
X003250Y010689D01*
X003250Y010590D02*
X003350Y010590D01*
X003350Y010492D02*
X003250Y010492D01*
X003250Y010393D02*
X000300Y010393D01*
X000300Y010295D02*
X002764Y010295D01*
X002790Y010196D02*
X000300Y010196D01*
X000300Y010098D02*
X002837Y010098D01*
X002917Y009999D02*
X000300Y009999D01*
X000300Y010492D02*
X002766Y010492D01*
X002794Y010590D02*
X000300Y010590D01*
X000300Y010689D02*
X002847Y010689D01*
X002932Y010787D02*
X000300Y010787D01*
X000300Y010886D02*
X003083Y010886D01*
X004487Y011083D02*
X000300Y011083D01*
X000300Y011181D02*
X004487Y011181D01*
X004487Y011280D02*
X000300Y011280D01*
X000300Y011378D02*
X004487Y011378D01*
X004485Y011477D02*
X000300Y011477D01*
X000300Y011575D02*
X004485Y011575D01*
X004487Y011674D02*
X000300Y011674D01*
X000300Y011772D02*
X004487Y011772D01*
X004487Y011871D02*
X000300Y011871D01*
X000300Y011969D02*
X004487Y011969D01*
X004548Y012068D02*
X000300Y012068D01*
X000300Y012166D02*
X004991Y012166D01*
X004993Y012165D02*
X006371Y012165D01*
X006653Y011882D01*
X006653Y010898D01*
X006961Y010590D01*
X007709Y010590D01*
X007820Y010701D01*
X007820Y010701D01*
X007853Y010734D01*
X007964Y010845D01*
X007964Y011011D01*
X008002Y011049D01*
X008002Y012007D01*
X007938Y012071D01*
X007610Y012071D01*
X007546Y012007D01*
X007546Y011049D01*
X007584Y011011D01*
X007584Y011002D01*
X007552Y010970D01*
X007118Y010970D01*
X007033Y011055D01*
X007033Y012040D01*
X006922Y012151D01*
X006528Y012545D01*
X005150Y012545D01*
X004905Y012790D01*
X004905Y013058D01*
X004943Y013097D01*
X004943Y014054D01*
X004879Y014118D01*
X004551Y014118D01*
X004487Y014054D01*
X004487Y013097D01*
X004525Y013058D01*
X004525Y012632D01*
X004881Y012276D01*
X004993Y012165D01*
X005048Y012068D02*
X004882Y012068D01*
X004943Y011969D02*
X004987Y011969D01*
X004987Y011871D02*
X004943Y011871D01*
X004943Y011772D02*
X004987Y011772D01*
X005443Y011772D02*
X005487Y011772D01*
X005487Y011871D02*
X005443Y011871D01*
X005443Y011969D02*
X005487Y011969D01*
X005548Y012068D02*
X005382Y012068D01*
X005882Y012068D02*
X006048Y012068D01*
X005987Y011969D02*
X005943Y011969D01*
X005943Y011871D02*
X005987Y011871D01*
X005987Y011772D02*
X005943Y011772D01*
X006443Y011772D02*
X006653Y011772D01*
X006653Y011674D02*
X006443Y011674D01*
X006445Y011575D02*
X006653Y011575D01*
X006653Y011477D02*
X006445Y011477D01*
X006443Y011378D02*
X006653Y011378D01*
X006653Y011280D02*
X006443Y011280D01*
X006443Y011181D02*
X006653Y011181D01*
X006653Y011083D02*
X006443Y011083D01*
X006653Y010984D02*
X005735Y010984D01*
X005735Y010886D02*
X006665Y010886D01*
X006764Y010787D02*
X005776Y010787D01*
X005875Y010689D02*
X006862Y010689D01*
X006961Y010590D02*
X005926Y010590D01*
X005966Y010492D02*
X007914Y010492D01*
X007914Y010590D02*
X007710Y010590D01*
X007808Y010689D02*
X007915Y010689D01*
X007853Y010734D02*
X007853Y010734D01*
X007907Y010787D02*
X008084Y010787D01*
X008084Y010886D02*
X007964Y010886D01*
X007964Y010984D02*
X008084Y010984D01*
X008046Y011083D02*
X008002Y011083D01*
X008002Y011181D02*
X008046Y011181D01*
X008046Y011280D02*
X008002Y011280D01*
X008002Y011378D02*
X008046Y011378D01*
X008046Y011477D02*
X008002Y011477D01*
X008002Y011575D02*
X008046Y011575D01*
X008046Y011674D02*
X008002Y011674D01*
X008002Y011772D02*
X008046Y011772D01*
X008046Y011871D02*
X008002Y011871D01*
X008002Y011969D02*
X008046Y011969D01*
X008084Y012068D02*
X007941Y012068D01*
X008084Y012166D02*
X007434Y012166D01*
X007434Y012071D02*
X007434Y012580D01*
X006445Y013570D01*
X006445Y013670D01*
X006443Y013672D01*
X006443Y014054D01*
X006379Y014118D01*
X006227Y014118D01*
X006227Y014449D01*
X006385Y014449D01*
X006450Y014513D01*
X006450Y015314D01*
X006385Y015379D01*
X005664Y015379D01*
X005600Y015314D01*
X005600Y014513D01*
X005664Y014449D01*
X005687Y014449D01*
X005687Y014118D01*
X005551Y014118D01*
X005487Y014054D01*
X005487Y013805D01*
X005443Y013805D01*
X005443Y014054D01*
X005379Y014118D01*
X005051Y014118D01*
X004987Y014054D01*
X004987Y013672D01*
X004985Y013670D01*
X004985Y013480D01*
X004987Y013478D01*
X004987Y013097D01*
X005051Y013032D01*
X005379Y013032D01*
X005443Y013097D01*
X005443Y013345D01*
X005487Y013345D01*
X005487Y013097D01*
X005551Y013032D01*
X005879Y013032D01*
X005943Y013097D01*
X005943Y013320D01*
X005987Y013320D01*
X005987Y013097D01*
X006051Y013032D01*
X006379Y013032D01*
X006443Y013097D01*
X006443Y013119D01*
X007114Y012448D01*
X007114Y012071D01*
X007110Y012071D01*
X007046Y012007D01*
X007046Y011049D01*
X007110Y010985D01*
X007438Y010985D01*
X007502Y011049D01*
X007502Y012007D01*
X007438Y012071D01*
X007434Y012071D01*
X007441Y012068D02*
X007607Y012068D01*
X007546Y011969D02*
X007502Y011969D01*
X007502Y011871D02*
X007546Y011871D01*
X007546Y011772D02*
X007502Y011772D01*
X007502Y011674D02*
X007546Y011674D01*
X007546Y011575D02*
X007502Y011575D01*
X007502Y011477D02*
X007546Y011477D01*
X007546Y011378D02*
X007502Y011378D01*
X007502Y011280D02*
X007546Y011280D01*
X007546Y011181D02*
X007502Y011181D01*
X007502Y011083D02*
X007546Y011083D01*
X007566Y010984D02*
X007104Y010984D01*
X007046Y011083D02*
X007033Y011083D01*
X007033Y011181D02*
X007046Y011181D01*
X007033Y011280D02*
X007046Y011280D01*
X007033Y011378D02*
X007046Y011378D01*
X007033Y011477D02*
X007046Y011477D01*
X007033Y011575D02*
X007046Y011575D01*
X007033Y011674D02*
X007046Y011674D01*
X007033Y011772D02*
X007046Y011772D01*
X007033Y011871D02*
X007046Y011871D01*
X007033Y011969D02*
X007046Y011969D01*
X007005Y012068D02*
X007107Y012068D01*
X007114Y012166D02*
X006906Y012166D01*
X006808Y012265D02*
X007114Y012265D01*
X007114Y012363D02*
X006709Y012363D01*
X006611Y012462D02*
X007100Y012462D01*
X007001Y012560D02*
X005134Y012560D01*
X005036Y012659D02*
X006903Y012659D01*
X006804Y012757D02*
X004937Y012757D01*
X004905Y012856D02*
X006706Y012856D01*
X006607Y012954D02*
X004905Y012954D01*
X004905Y013053D02*
X005030Y013053D01*
X004987Y013151D02*
X004943Y013151D01*
X004943Y013250D02*
X004987Y013250D01*
X004987Y013348D02*
X004943Y013348D01*
X004943Y013447D02*
X004987Y013447D01*
X004985Y013545D02*
X004943Y013545D01*
X004943Y013644D02*
X004985Y013644D01*
X004987Y013742D02*
X004943Y013742D01*
X004943Y013841D02*
X004987Y013841D01*
X004987Y013939D02*
X004943Y013939D01*
X004943Y014038D02*
X004987Y014038D01*
X005443Y014038D02*
X005487Y014038D01*
X005487Y013939D02*
X005443Y013939D01*
X005443Y013841D02*
X005487Y013841D01*
X006215Y013575D02*
X006215Y013573D01*
X007274Y012514D01*
X007274Y011528D01*
X006653Y011871D02*
X006443Y011871D01*
X006443Y011969D02*
X006566Y011969D01*
X006467Y012068D02*
X006382Y012068D01*
X007434Y012265D02*
X008084Y012265D01*
X008158Y012363D02*
X007434Y012363D01*
X007434Y012462D02*
X008256Y012462D01*
X008871Y012659D02*
X007356Y012659D01*
X007434Y012560D02*
X009462Y012560D01*
X009500Y012748D02*
X009008Y012748D01*
X008774Y012983D01*
X008774Y013575D01*
X008546Y013545D02*
X008502Y013545D01*
X008502Y013447D02*
X008546Y013447D01*
X008546Y013348D02*
X008502Y013348D01*
X008502Y013250D02*
X008546Y013250D01*
X008546Y013151D02*
X008502Y013151D01*
X008502Y013097D02*
X008502Y014054D01*
X008438Y014118D01*
X008110Y014118D01*
X008046Y014054D01*
X008046Y013100D01*
X007988Y013042D01*
X007988Y012849D01*
X008124Y012712D01*
X008317Y012712D01*
X008454Y012849D01*
X008454Y013042D01*
X008451Y013045D01*
X008502Y013097D01*
X008458Y013053D02*
X008590Y013053D01*
X008614Y012954D02*
X008454Y012954D01*
X008454Y012856D02*
X008674Y012856D01*
X008773Y012757D02*
X008363Y012757D01*
X008221Y012945D02*
X008274Y012998D01*
X008274Y013575D01*
X008046Y013545D02*
X008002Y013545D01*
X008002Y013447D02*
X008046Y013447D01*
X008046Y013348D02*
X008002Y013348D01*
X008002Y013250D02*
X008046Y013250D01*
X008046Y013151D02*
X008002Y013151D01*
X008002Y013097D02*
X008002Y014054D01*
X007938Y014118D01*
X007934Y014118D01*
X007934Y014272D01*
X007991Y014272D01*
X008024Y014305D01*
X008077Y014253D01*
X008562Y014253D01*
X008626Y014317D01*
X008626Y014841D01*
X008575Y014893D01*
X008608Y014912D01*
X008636Y014940D01*
X008656Y014974D01*
X008666Y015012D01*
X008666Y015200D01*
X008368Y015200D01*
X008368Y015297D01*
X008666Y015297D01*
X008666Y015485D01*
X008656Y015523D01*
X008636Y015557D01*
X008608Y015585D01*
X008574Y015605D01*
X008536Y015615D01*
X008368Y015615D01*
X008368Y015297D01*
X008271Y015297D01*
X008271Y015615D01*
X008103Y015615D01*
X008065Y015605D01*
X008030Y015585D01*
X008002Y015557D01*
X007998Y015549D01*
X007991Y015555D01*
X007467Y015555D01*
X007433Y015522D01*
X007381Y015575D01*
X006896Y015575D01*
X006831Y015511D01*
X006831Y014986D01*
X006883Y014935D01*
X006849Y014916D01*
X006821Y014888D01*
X006802Y014854D01*
X006791Y014815D01*
X006791Y014628D01*
X007090Y014628D01*
X007090Y014531D01*
X007187Y014531D01*
X007187Y014213D01*
X007355Y014213D01*
X007393Y014223D01*
X007427Y014243D01*
X007455Y014270D01*
X007460Y014279D01*
X007467Y014272D01*
X007614Y014272D01*
X007614Y014118D01*
X007610Y014118D01*
X007546Y014054D01*
X007546Y013097D01*
X007610Y013032D01*
X007938Y013032D01*
X008002Y013097D01*
X007999Y013053D02*
X007958Y013053D01*
X007988Y012954D02*
X007060Y012954D01*
X007098Y013002D02*
X007136Y012992D01*
X007265Y012992D01*
X007265Y013566D01*
X007283Y013566D01*
X007283Y012992D01*
X007412Y012992D01*
X007450Y013002D01*
X007484Y013022D01*
X007512Y013050D01*
X007532Y013084D01*
X007542Y013122D01*
X007542Y013566D01*
X007283Y013566D01*
X007283Y013584D01*
X007542Y013584D01*
X007542Y014028D01*
X007532Y014066D01*
X007512Y014100D01*
X007484Y014128D01*
X007450Y014148D01*
X007412Y014158D01*
X007283Y014158D01*
X007283Y013584D01*
X007265Y013584D01*
X007265Y013566D01*
X007006Y013566D01*
X007006Y013122D01*
X007016Y013084D01*
X007036Y013050D01*
X007064Y013022D01*
X007098Y013002D01*
X007034Y013053D02*
X006962Y013053D01*
X007006Y013151D02*
X006863Y013151D01*
X006765Y013250D02*
X007006Y013250D01*
X007006Y013348D02*
X006666Y013348D01*
X006568Y013447D02*
X007006Y013447D01*
X007006Y013545D02*
X006469Y013545D01*
X006445Y013644D02*
X007006Y013644D01*
X007006Y013584D02*
X007265Y013584D01*
X007265Y014158D01*
X007136Y014158D01*
X007098Y014148D01*
X007064Y014128D01*
X007036Y014100D01*
X007016Y014066D01*
X007006Y014028D01*
X007006Y013584D01*
X007006Y013742D02*
X006443Y013742D01*
X006443Y013841D02*
X007006Y013841D01*
X007006Y013939D02*
X006443Y013939D01*
X006443Y014038D02*
X007009Y014038D01*
X007078Y014136D02*
X006227Y014136D01*
X006227Y014235D02*
X006862Y014235D01*
X006849Y014243D02*
X006883Y014223D01*
X006922Y014213D01*
X007090Y014213D01*
X007090Y014531D01*
X006791Y014531D01*
X006791Y014343D01*
X006802Y014305D01*
X006821Y014270D01*
X006849Y014243D01*
X006794Y014333D02*
X006227Y014333D01*
X006227Y014432D02*
X006791Y014432D01*
X006791Y014530D02*
X006450Y014530D01*
X006450Y014629D02*
X006791Y014629D01*
X006791Y014727D02*
X006450Y014727D01*
X006450Y014826D02*
X006794Y014826D01*
X006864Y014924D02*
X006450Y014924D01*
X006450Y015023D02*
X006831Y015023D01*
X006831Y015121D02*
X006450Y015121D01*
X006450Y015220D02*
X006831Y015220D01*
X006831Y015318D02*
X006446Y015318D01*
X006831Y015417D02*
X005246Y015417D01*
X005240Y015419D02*
X004955Y015419D01*
X004955Y014964D01*
X004855Y014964D01*
X004855Y015419D01*
X004570Y015419D01*
X004532Y015408D01*
X004498Y015389D01*
X004470Y015361D01*
X004450Y015327D01*
X004440Y015288D01*
X004440Y014964D01*
X004855Y014964D01*
X004855Y014864D01*
X004440Y014864D01*
X004440Y014539D01*
X004450Y014501D01*
X004470Y014467D01*
X004498Y014439D01*
X004532Y014419D01*
X004570Y014409D01*
X004855Y014409D01*
X004855Y014864D01*
X004955Y014864D01*
X004955Y014964D01*
X005370Y014964D01*
X005370Y015288D01*
X005360Y015327D01*
X005340Y015361D01*
X005312Y015389D01*
X005278Y015408D01*
X005240Y015419D01*
X005362Y015318D02*
X005604Y015318D01*
X005600Y015220D02*
X005370Y015220D01*
X005370Y015121D02*
X005600Y015121D01*
X005600Y015023D02*
X005370Y015023D01*
X005370Y014864D02*
X004955Y014864D01*
X004955Y014409D01*
X005240Y014409D01*
X005278Y014419D01*
X005312Y014439D01*
X005340Y014467D01*
X005360Y014501D01*
X005370Y014539D01*
X005370Y014864D01*
X005370Y014826D02*
X005600Y014826D01*
X005600Y014924D02*
X004955Y014924D01*
X004955Y014826D02*
X004855Y014826D01*
X004855Y014924D02*
X000300Y014924D01*
X000300Y014826D02*
X004440Y014826D01*
X004440Y014727D02*
X000300Y014727D01*
X000300Y014629D02*
X004440Y014629D01*
X004442Y014530D02*
X000300Y014530D01*
X000300Y014432D02*
X004510Y014432D01*
X004855Y014432D02*
X004955Y014432D01*
X004955Y014530D02*
X004855Y014530D01*
X004855Y014629D02*
X004955Y014629D01*
X004955Y014727D02*
X004855Y014727D01*
X005370Y014727D02*
X005600Y014727D01*
X005600Y014629D02*
X005370Y014629D01*
X005368Y014530D02*
X005600Y014530D01*
X005687Y014432D02*
X005300Y014432D01*
X005687Y014333D02*
X000300Y014333D01*
X000300Y014235D02*
X005687Y014235D01*
X005687Y014136D02*
X000300Y014136D01*
X000300Y014038D02*
X004487Y014038D01*
X004487Y013939D02*
X000300Y013939D01*
X000300Y013841D02*
X004487Y013841D01*
X004487Y013742D02*
X000300Y013742D01*
X000300Y013644D02*
X004487Y013644D01*
X004487Y013545D02*
X000300Y013545D01*
X000300Y013447D02*
X004487Y013447D01*
X004487Y013348D02*
X000300Y013348D01*
X000300Y013250D02*
X004487Y013250D01*
X004487Y013151D02*
X000300Y013151D01*
X000300Y013053D02*
X004525Y013053D01*
X004525Y012954D02*
X000300Y012954D01*
X000300Y012856D02*
X004525Y012856D01*
X004525Y012757D02*
X000300Y012757D01*
X000300Y012659D02*
X004525Y012659D01*
X004597Y012560D02*
X000300Y012560D01*
X000300Y012462D02*
X004695Y012462D01*
X004794Y012363D02*
X000300Y012363D01*
X000300Y012265D02*
X004892Y012265D01*
X007159Y012856D02*
X007988Y012856D01*
X008079Y012757D02*
X007257Y012757D01*
X007265Y013053D02*
X007283Y013053D01*
X007283Y013151D02*
X007265Y013151D01*
X007265Y013250D02*
X007283Y013250D01*
X007283Y013348D02*
X007265Y013348D01*
X007265Y013447D02*
X007283Y013447D01*
X007283Y013545D02*
X007265Y013545D01*
X007265Y013644D02*
X007283Y013644D01*
X007283Y013742D02*
X007265Y013742D01*
X007265Y013841D02*
X007283Y013841D01*
X007283Y013939D02*
X007265Y013939D01*
X007265Y014038D02*
X007283Y014038D01*
X007283Y014136D02*
X007265Y014136D01*
X007187Y014235D02*
X007090Y014235D01*
X007090Y014333D02*
X007187Y014333D01*
X007187Y014432D02*
X007090Y014432D01*
X007090Y014530D02*
X007187Y014530D01*
X007729Y014520D02*
X007729Y014579D01*
X008319Y014579D01*
X008626Y014530D02*
X012748Y014530D01*
X012748Y014432D02*
X008626Y014432D01*
X008626Y014333D02*
X012748Y014333D01*
X012748Y014235D02*
X007934Y014235D01*
X007934Y014136D02*
X012748Y014136D01*
X012748Y014038D02*
X009002Y014038D01*
X009002Y013939D02*
X012748Y013939D01*
X012837Y013841D02*
X009002Y013841D01*
X009002Y013742D02*
X012936Y013742D01*
X013034Y013644D02*
X009002Y013644D01*
X009002Y013545D02*
X013133Y013545D01*
X010091Y012552D02*
X009697Y012552D01*
X009500Y012748D01*
X009619Y012856D02*
X019818Y012856D01*
X019787Y012954D02*
X009029Y012954D01*
X008958Y013053D02*
X019787Y013053D01*
X019787Y013151D02*
X009002Y013151D01*
X009002Y013250D02*
X019787Y013250D01*
X019787Y013348D02*
X009002Y013348D01*
X009002Y013447D02*
X019836Y013447D01*
X020818Y013447D02*
X025151Y013447D01*
X025102Y013348D02*
X020867Y013348D01*
X020867Y013250D02*
X025102Y013250D01*
X026133Y013447D02*
X026201Y013447D01*
X026201Y013348D02*
X026182Y013348D01*
X026528Y012611D02*
X027256Y012611D01*
X027277Y012363D02*
X026850Y012363D01*
X026832Y012265D02*
X026928Y012265D01*
X027090Y012265D02*
X027147Y012265D01*
X027147Y012269D02*
X027147Y011990D01*
X027426Y011990D01*
X027426Y012138D01*
X027416Y012176D01*
X027396Y012211D01*
X027368Y012239D01*
X027334Y012258D01*
X027296Y012269D01*
X027147Y012269D01*
X027147Y012166D02*
X027090Y012166D01*
X027090Y012068D02*
X027147Y012068D01*
X027147Y011969D02*
X027549Y011969D01*
X027549Y011871D02*
X027426Y011871D01*
X027423Y011772D02*
X027549Y011772D01*
X027549Y011674D02*
X027351Y011674D01*
X027322Y011638D02*
X026915Y011638D01*
X026853Y011575D01*
X026790Y011638D01*
X026266Y011638D01*
X026201Y011574D01*
X026201Y011089D01*
X026266Y011024D01*
X026790Y011024D01*
X026854Y011089D01*
X026854Y011164D01*
X026915Y011103D01*
X027322Y011103D01*
X027386Y011167D01*
X027386Y011574D01*
X027322Y011638D01*
X027384Y011575D02*
X027549Y011575D01*
X027549Y011477D02*
X027386Y011477D01*
X027386Y011378D02*
X027549Y011378D01*
X027549Y011280D02*
X027386Y011280D01*
X027386Y011181D02*
X027549Y011181D01*
X027549Y011083D02*
X026849Y011083D01*
X026222Y010984D02*
X027549Y010984D01*
X027549Y010886D02*
X026222Y010886D01*
X026222Y010689D02*
X027549Y010689D01*
X027549Y010787D02*
X025692Y010787D01*
X025592Y010787D02*
X021668Y010787D01*
X021508Y010288D02*
X023378Y008418D01*
X027315Y008418D01*
X028398Y009500D01*
X043851Y009500D01*
X046115Y011764D01*
X048477Y011764D01*
X049264Y012552D01*
X049264Y012650D01*
X049141Y012856D02*
X049040Y012856D01*
X049040Y012954D02*
X049252Y012954D01*
X049252Y012995D02*
X049252Y012883D01*
X049168Y012883D01*
X049040Y012756D01*
X049040Y013170D01*
X049138Y013267D01*
X049254Y013267D01*
X049252Y013260D01*
X049252Y013092D01*
X049570Y013092D01*
X049570Y012995D01*
X049252Y012995D01*
X049252Y013151D02*
X049040Y013151D01*
X049040Y013053D02*
X049570Y013053D01*
X049252Y013250D02*
X049120Y013250D01*
X048654Y013545D02*
X044101Y013545D01*
X044002Y013447D02*
X048555Y013447D01*
X048514Y013348D02*
X043904Y013348D01*
X043883Y013250D02*
X048514Y013250D01*
X048514Y013151D02*
X043883Y013151D01*
X043883Y013053D02*
X048514Y013053D01*
X048514Y012954D02*
X043883Y012954D01*
X043883Y012856D02*
X048514Y012856D01*
X048514Y012757D02*
X044293Y012757D01*
X044335Y012659D02*
X048514Y012659D01*
X048456Y012560D02*
X044335Y012560D01*
X044335Y012462D02*
X048358Y012462D01*
X048259Y012363D02*
X044335Y012363D01*
X044335Y012265D02*
X045798Y012265D01*
X045700Y012166D02*
X044335Y012166D01*
X044335Y012068D02*
X045601Y012068D01*
X045503Y011969D02*
X044335Y011969D01*
X044335Y011871D02*
X045404Y011871D01*
X045306Y011772D02*
X044335Y011772D01*
X044335Y011674D02*
X045207Y011674D01*
X045109Y011575D02*
X044335Y011575D01*
X044335Y011477D02*
X045010Y011477D01*
X044912Y011378D02*
X044335Y011378D01*
X044335Y011280D02*
X044813Y011280D01*
X044518Y010984D02*
X028066Y010984D01*
X028066Y010886D02*
X044419Y010886D01*
X044321Y010787D02*
X028066Y010787D01*
X028066Y010689D02*
X044222Y010689D01*
X044124Y010590D02*
X028066Y010590D01*
X028066Y010492D02*
X044025Y010492D01*
X043927Y010393D02*
X028066Y010393D01*
X028066Y010295D02*
X043828Y010295D01*
X043730Y010196D02*
X028066Y010196D01*
X028066Y010098D02*
X043631Y010098D01*
X045757Y009408D02*
X049930Y009408D01*
X049832Y009310D02*
X045658Y009310D01*
X045560Y009211D02*
X048190Y009211D01*
X048162Y008989D02*
X048477Y008989D01*
X048162Y008989D02*
X047985Y008811D01*
X047827Y008811D01*
X047520Y008817D02*
X047465Y008817D01*
X047465Y008719D02*
X047520Y008719D01*
X047520Y008620D02*
X047465Y008620D01*
X047437Y008522D02*
X047548Y008522D01*
X047520Y008423D02*
X047465Y008423D01*
X047465Y008325D02*
X047520Y008325D01*
X047827Y008221D02*
X047847Y008241D01*
X048477Y008241D01*
X049040Y008072D02*
X049100Y008012D01*
X049664Y008012D01*
X049729Y008077D01*
X049729Y008081D01*
X050039Y008081D01*
X050133Y008174D01*
X050310Y008351D01*
X050310Y009040D01*
X050413Y009144D01*
X050635Y009144D01*
X050630Y009126D01*
X050630Y008958D01*
X050948Y008958D01*
X050948Y008861D01*
X050630Y008861D01*
X050630Y008693D01*
X050640Y008655D01*
X050660Y008621D01*
X050664Y008616D01*
X050537Y008616D01*
X050473Y008552D01*
X050473Y008244D01*
X050478Y008239D01*
X050463Y008224D01*
X050443Y008190D01*
X050433Y008152D01*
X050433Y008028D01*
X050815Y008028D01*
X050815Y008020D01*
X050433Y008020D01*
X050433Y007896D01*
X050443Y007858D01*
X050463Y007824D01*
X050478Y007809D01*
X050473Y007804D01*
X050473Y007631D01*
X050354Y007512D01*
X050354Y006895D01*
X049965Y006895D01*
X049965Y006967D01*
X049913Y007019D01*
X049947Y007038D01*
X049975Y007066D01*
X049995Y007100D01*
X050005Y007138D01*
X050005Y007326D01*
X049706Y007326D01*
X049706Y007423D01*
X049609Y007423D01*
X049609Y007326D01*
X049116Y007326D01*
X049116Y007423D01*
X049414Y007423D01*
X049609Y007423D01*
X049609Y007741D01*
X049441Y007741D01*
X049403Y007731D01*
X049369Y007711D01*
X049363Y007705D01*
X049356Y007711D01*
X049322Y007731D01*
X049284Y007741D01*
X049116Y007741D01*
X049116Y007423D01*
X049019Y007423D01*
X049019Y007741D01*
X048851Y007741D01*
X048813Y007731D01*
X048778Y007711D01*
X048750Y007683D01*
X048731Y007649D01*
X048720Y007611D01*
X048720Y007423D01*
X049019Y007423D01*
X049019Y007326D01*
X048720Y007326D01*
X048720Y007163D01*
X048647Y007237D01*
X048647Y007242D01*
X048675Y007270D01*
X048675Y007756D01*
X048842Y007756D01*
X048941Y007854D01*
X049040Y007954D01*
X049040Y008072D01*
X049040Y008029D02*
X049084Y008029D01*
X049018Y007931D02*
X050433Y007931D01*
X050433Y008029D02*
X049681Y008029D01*
X049973Y008241D02*
X049382Y008241D01*
X049735Y008401D02*
X049739Y008404D01*
X049758Y008439D01*
X049769Y008477D01*
X049769Y008606D01*
X049391Y008606D01*
X049391Y008624D01*
X049769Y008624D01*
X049769Y008752D01*
X049758Y008791D01*
X049739Y008825D01*
X049735Y008829D01*
X049803Y008829D01*
X049897Y008922D01*
X049990Y009016D01*
X049990Y008484D01*
X049907Y008401D01*
X049735Y008401D01*
X049750Y008423D02*
X049929Y008423D01*
X049990Y008522D02*
X049769Y008522D01*
X049769Y008719D02*
X049990Y008719D01*
X049990Y008817D02*
X049743Y008817D01*
X049737Y008989D02*
X049382Y008989D01*
X049036Y009014D02*
X048823Y009014D01*
X048823Y008916D02*
X049036Y008916D01*
X049022Y008817D02*
X048816Y008817D01*
X048908Y008719D02*
X048996Y008719D01*
X049391Y008620D02*
X049990Y008620D01*
X050150Y008418D02*
X049973Y008241D01*
X050086Y008128D02*
X050433Y008128D01*
X050465Y008226D02*
X050185Y008226D01*
X050283Y008325D02*
X050473Y008325D01*
X050473Y008423D02*
X050310Y008423D01*
X050310Y008522D02*
X050473Y008522D01*
X050310Y008620D02*
X050660Y008620D01*
X050630Y008719D02*
X050310Y008719D01*
X050310Y008817D02*
X050630Y008817D01*
X050630Y009014D02*
X050310Y009014D01*
X050310Y008916D02*
X050948Y008916D01*
X050630Y009113D02*
X050383Y009113D01*
X050347Y009304D02*
X050150Y009107D01*
X050150Y008418D01*
X049990Y008916D02*
X049890Y008916D01*
X049989Y009014D02*
X049990Y009014D01*
X049737Y008989D02*
X050248Y009500D01*
X051922Y009500D01*
X052020Y009599D01*
X052020Y009894D01*
X052217Y009894D02*
X052217Y009402D01*
X052119Y009304D01*
X050347Y009304D01*
X050029Y009507D02*
X045855Y009507D01*
X045954Y009605D02*
X050127Y009605D01*
X050568Y009704D02*
X050867Y009704D01*
X050867Y009802D02*
X050614Y009802D01*
X050614Y009901D02*
X050867Y009901D01*
X050867Y009999D02*
X050614Y009999D01*
X050615Y010098D02*
X050867Y010098D01*
X050887Y010196D02*
X050615Y010196D01*
X050615Y010295D02*
X050788Y010295D01*
X051072Y010492D02*
X051787Y010492D01*
X051796Y010590D02*
X051009Y010590D01*
X051009Y010689D02*
X051895Y010689D01*
X052145Y010689D02*
X052870Y010689D01*
X052870Y010787D02*
X051009Y010787D01*
X051009Y010886D02*
X052879Y010886D01*
X052978Y010984D02*
X051009Y010984D01*
X051009Y011083D02*
X053041Y011083D01*
X053041Y011181D02*
X051009Y011181D01*
X051009Y011280D02*
X053041Y011280D01*
X053041Y011378D02*
X051009Y011378D01*
X051009Y011477D02*
X052967Y011477D01*
X052868Y011575D02*
X051009Y011575D01*
X051009Y011674D02*
X052770Y011674D01*
X052671Y011772D02*
X051009Y011772D01*
X051009Y011871D02*
X052647Y011871D01*
X052647Y011969D02*
X051009Y011969D01*
X051009Y012068D02*
X052647Y012068D01*
X052573Y012166D02*
X051009Y012166D01*
X050445Y011666D02*
X050150Y011666D01*
X049067Y010583D01*
X046705Y010583D01*
X042178Y006056D01*
X042411Y005665D02*
X045498Y005665D01*
X045400Y005567D02*
X042314Y005567D01*
X039396Y005764D02*
X038864Y005764D01*
X038766Y005665D02*
X039360Y005665D01*
X039210Y005567D02*
X038830Y005567D01*
X038830Y005468D02*
X039210Y005468D01*
X039210Y005370D02*
X038830Y005370D01*
X038830Y005271D02*
X039210Y005271D01*
X039210Y005173D02*
X038830Y005173D01*
X038830Y005074D02*
X039210Y005074D01*
X039210Y004976D02*
X038830Y004976D01*
X038830Y004877D02*
X039210Y004877D01*
X039210Y004779D02*
X038830Y004779D01*
X038830Y004680D02*
X039210Y004680D01*
X039210Y004582D02*
X038830Y004582D01*
X038830Y004483D02*
X039210Y004483D01*
X039210Y004385D02*
X038830Y004385D01*
X038830Y004286D02*
X039210Y004286D01*
X039217Y004188D02*
X038823Y004188D01*
X038217Y004188D02*
X021176Y004188D01*
X021185Y004286D02*
X038210Y004286D01*
X038210Y004385D02*
X021185Y004385D01*
X021185Y004483D02*
X038210Y004483D01*
X038210Y004582D02*
X021185Y004582D01*
X021185Y004680D02*
X038210Y004680D01*
X038210Y004779D02*
X021185Y004779D01*
X021185Y004976D02*
X038210Y004976D01*
X038210Y005074D02*
X021185Y005074D01*
X021185Y005173D02*
X038210Y005173D01*
X038210Y005271D02*
X021185Y005271D01*
X021185Y005370D02*
X038210Y005370D01*
X038210Y005468D02*
X021185Y005468D01*
X021183Y005567D02*
X038210Y005567D01*
X038360Y005665D02*
X021118Y005665D01*
X020885Y005665D02*
X020785Y005665D01*
X020785Y005567D02*
X020885Y005567D01*
X020885Y005468D02*
X020785Y005468D01*
X020785Y005370D02*
X020885Y005370D01*
X020885Y005271D02*
X020785Y005271D01*
X020785Y005173D02*
X020885Y005173D01*
X020885Y005074D02*
X020785Y005074D01*
X020785Y004976D02*
X020885Y004976D01*
X020236Y004976D02*
X020185Y004976D01*
X020185Y005074D02*
X020236Y005074D01*
X020236Y005173D02*
X020185Y005173D01*
X020185Y005271D02*
X020236Y005271D01*
X020236Y005370D02*
X020185Y005370D01*
X020185Y005468D02*
X020236Y005468D01*
X020236Y005567D02*
X020183Y005567D01*
X020236Y005665D02*
X020118Y005665D01*
X020616Y005764D02*
X038412Y005764D01*
X038510Y005862D02*
X020616Y005862D01*
X020616Y005961D02*
X038609Y005961D01*
X038671Y006023D02*
X038671Y006023D01*
X038707Y006059D02*
X020616Y006059D01*
X020616Y006552D02*
X020687Y006552D01*
X019956Y006749D02*
X016599Y006749D01*
X016599Y006847D02*
X019857Y006847D01*
X019759Y006946D02*
X016599Y006946D01*
X016328Y007044D02*
X019660Y007044D01*
X019562Y007143D02*
X016321Y007143D01*
X016223Y007241D02*
X019463Y007241D01*
X019365Y007340D02*
X015320Y007340D01*
X015358Y007241D02*
X015967Y007241D01*
X015591Y006847D02*
X015358Y006847D01*
X015330Y006749D02*
X015591Y006749D01*
X015591Y006650D02*
X011563Y006650D01*
X011464Y006749D02*
X014055Y006749D01*
X014035Y006847D02*
X011366Y006847D01*
X010972Y007241D02*
X014035Y007241D01*
X014061Y007340D02*
X010873Y007340D01*
X012379Y008226D02*
X023048Y008226D01*
X023147Y008128D02*
X012477Y008128D01*
X012280Y008325D02*
X022950Y008325D01*
X022851Y008423D02*
X012182Y008423D01*
X012121Y008522D02*
X022753Y008522D01*
X022654Y008620D02*
X012121Y008620D01*
X009652Y009605D02*
X009158Y009605D01*
X008860Y009605D02*
X008763Y009605D01*
X008763Y009507D02*
X008860Y009507D01*
X008860Y009408D02*
X008763Y009408D01*
X008542Y009408D02*
X008490Y009408D01*
X008269Y009408D02*
X008172Y009408D01*
X008172Y009507D02*
X008269Y009507D01*
X008269Y009605D02*
X008172Y009605D01*
X008172Y009704D02*
X008269Y009704D01*
X007874Y009901D02*
X005610Y009901D01*
X005791Y009999D02*
X007876Y009999D01*
X007941Y010098D02*
X005889Y010098D01*
X005932Y010196D02*
X007914Y010196D01*
X007914Y010295D02*
X005969Y010295D01*
X005969Y010393D02*
X007914Y010393D01*
X008763Y009704D02*
X008860Y009704D01*
X008964Y010787D02*
X009140Y010787D01*
X009115Y010886D02*
X008964Y010886D01*
X008964Y010984D02*
X009115Y010984D01*
X009115Y011083D02*
X009002Y011083D01*
X009002Y011181D02*
X009115Y011181D01*
X009115Y011280D02*
X009002Y011280D01*
X005987Y011280D02*
X005943Y011280D01*
X005943Y011181D02*
X005987Y011181D01*
X005987Y011083D02*
X005943Y011083D01*
X005195Y010984D02*
X000300Y010984D01*
X003545Y009901D02*
X005320Y009901D01*
X005139Y009999D02*
X003682Y009999D01*
X003762Y010098D02*
X005041Y010098D01*
X004998Y010196D02*
X003810Y010196D01*
X003836Y010295D02*
X004961Y010295D01*
X004943Y011083D02*
X004987Y011083D01*
X004987Y011181D02*
X004943Y011181D01*
X004943Y011280D02*
X004987Y011280D01*
X009718Y012757D02*
X019787Y012757D01*
X025642Y012552D02*
X025937Y012552D01*
X026489Y012000D01*
X026528Y012000D01*
X026201Y011969D02*
X026182Y011969D01*
X026182Y011871D02*
X026201Y011871D01*
X026201Y011772D02*
X026182Y011772D01*
X026151Y011674D02*
X026886Y011674D01*
X026853Y011575D02*
X026853Y011575D01*
X027090Y011674D02*
X027147Y011674D01*
X027147Y011772D02*
X027090Y011772D01*
X027090Y011871D02*
X027147Y011871D01*
X027426Y012068D02*
X027549Y012068D01*
X027474Y012166D02*
X027418Y012166D01*
X027376Y012265D02*
X027309Y012265D01*
X027972Y012416D02*
X027972Y012416D01*
X026195Y012068D02*
X026182Y012068D01*
X026182Y011575D02*
X026203Y011575D01*
X026201Y011477D02*
X026182Y011477D01*
X026182Y011378D02*
X026201Y011378D01*
X026201Y011280D02*
X026182Y011280D01*
X026182Y011181D02*
X026201Y011181D01*
X026191Y011083D02*
X026207Y011083D01*
X026528Y011331D02*
X027079Y011331D01*
X027119Y011370D01*
X027549Y010590D02*
X026222Y010590D01*
X026200Y010492D02*
X027549Y010492D01*
X027549Y010393D02*
X026182Y010393D01*
X026182Y010295D02*
X027549Y010295D01*
X026576Y010098D02*
X026480Y010098D01*
X027661Y009408D02*
X028080Y009408D01*
X027981Y009310D02*
X027562Y009310D01*
X027464Y009211D02*
X027883Y009211D01*
X027759Y009507D02*
X028178Y009507D01*
X028532Y009113D02*
X043828Y009113D01*
X043729Y009014D02*
X028434Y009014D01*
X028335Y008916D02*
X043631Y008916D01*
X043532Y008817D02*
X028237Y008817D01*
X028138Y008719D02*
X043434Y008719D01*
X043335Y008620D02*
X028040Y008620D01*
X027941Y008522D02*
X043237Y008522D01*
X043138Y008423D02*
X027843Y008423D01*
X027744Y008325D02*
X043040Y008325D01*
X042941Y008226D02*
X027646Y008226D01*
X027547Y008128D02*
X042843Y008128D01*
X046471Y007537D02*
X046638Y007537D01*
X046543Y007635D02*
X046792Y007635D01*
X046540Y007438D02*
X046471Y007438D01*
X048033Y007537D02*
X048239Y007537D01*
X048239Y007635D02*
X048132Y007635D01*
X048230Y007734D02*
X048239Y007734D01*
X048675Y007734D02*
X048825Y007734D01*
X048919Y007832D02*
X050458Y007832D01*
X050473Y007734D02*
X049901Y007734D01*
X049913Y007731D02*
X049874Y007741D01*
X049706Y007741D01*
X049706Y007423D01*
X050005Y007423D01*
X050005Y007611D01*
X049995Y007649D01*
X049975Y007683D01*
X049947Y007711D01*
X049913Y007731D01*
X049998Y007635D02*
X050473Y007635D01*
X050378Y007537D02*
X050005Y007537D01*
X050005Y007438D02*
X050354Y007438D01*
X050354Y007340D02*
X049706Y007340D01*
X049609Y007340D02*
X049116Y007340D01*
X049019Y007340D02*
X048675Y007340D01*
X048675Y007438D02*
X048720Y007438D01*
X048720Y007537D02*
X048675Y007537D01*
X048675Y007635D02*
X048727Y007635D01*
X049019Y007635D02*
X049116Y007635D01*
X049116Y007537D02*
X049019Y007537D01*
X049019Y007438D02*
X049116Y007438D01*
X049116Y007734D02*
X049019Y007734D01*
X049310Y007734D02*
X049415Y007734D01*
X049609Y007734D02*
X049706Y007734D01*
X049706Y007635D02*
X049609Y007635D01*
X049609Y007537D02*
X049706Y007537D01*
X049706Y007438D02*
X049609Y007438D01*
X050005Y007241D02*
X050354Y007241D01*
X050354Y007143D02*
X050005Y007143D01*
X049953Y007044D02*
X050354Y007044D01*
X050354Y006946D02*
X049965Y006946D01*
X048720Y007241D02*
X048647Y007241D01*
X046879Y007931D02*
X046838Y007931D01*
X047465Y008916D02*
X047520Y008916D01*
X047520Y009014D02*
X047465Y009014D01*
X047425Y009113D02*
X047560Y009113D01*
X048764Y009211D02*
X049095Y009211D01*
X049036Y009113D02*
X048823Y009113D01*
X049669Y009211D02*
X049733Y009211D01*
X049570Y009646D02*
X049570Y009944D01*
X049252Y009944D01*
X049252Y009776D01*
X049262Y009738D01*
X049282Y009704D01*
X046052Y009704D01*
X046151Y009802D02*
X049252Y009802D01*
X049252Y009901D02*
X046249Y009901D01*
X046348Y009999D02*
X049570Y009999D01*
X049570Y010041D02*
X049252Y010041D01*
X049252Y010209D01*
X049262Y010247D01*
X049282Y010281D01*
X049310Y010309D01*
X049344Y010329D01*
X049382Y010339D01*
X049570Y010339D01*
X049570Y010041D01*
X049570Y010098D02*
X049667Y010098D01*
X049667Y010196D02*
X049570Y010196D01*
X049570Y010295D02*
X049667Y010295D01*
X049942Y010295D02*
X050021Y010295D01*
X050099Y010393D02*
X046742Y010393D01*
X046643Y010295D02*
X049295Y010295D01*
X049252Y010196D02*
X046545Y010196D01*
X046446Y010098D02*
X049252Y010098D01*
X049570Y009901D02*
X049667Y009901D01*
X049667Y009802D02*
X049570Y009802D01*
X049570Y009704D02*
X049667Y009704D01*
X049570Y009646D02*
X049382Y009646D01*
X049344Y009656D01*
X049310Y009676D01*
X049282Y009704D01*
X049202Y010492D02*
X050099Y010492D01*
X050062Y010590D02*
X049301Y010590D01*
X049399Y010689D02*
X050059Y010689D01*
X050066Y010787D02*
X049498Y010787D01*
X049596Y010886D02*
X050099Y010886D01*
X050099Y010984D02*
X049695Y010984D01*
X049793Y011083D02*
X050099Y011083D01*
X050099Y011181D02*
X049892Y011181D01*
X049990Y011280D02*
X050099Y011280D01*
X050089Y011378D02*
X050099Y011378D01*
X052244Y010590D02*
X052963Y010590D01*
X053165Y010492D02*
X052253Y010492D01*
X053103Y010780D02*
X053201Y010878D01*
X053201Y011469D01*
X052807Y011863D01*
X052807Y012158D01*
X052020Y012945D01*
X052020Y013241D01*
X052217Y013241D02*
X052217Y013733D01*
X052414Y013831D02*
X052020Y014225D01*
X052020Y014520D01*
X052119Y014717D01*
X051489Y015347D01*
X051489Y015504D01*
X052109Y015417D02*
X052206Y015417D01*
X052206Y015515D02*
X052956Y015515D01*
X052956Y015592D02*
X052657Y015592D01*
X052657Y015780D01*
X052668Y015818D01*
X052687Y015852D01*
X052715Y015880D01*
X052750Y015900D01*
X052788Y015910D01*
X052956Y015910D01*
X052956Y015592D01*
X052956Y015614D02*
X053053Y015614D01*
X053053Y015712D02*
X052956Y015712D01*
X052956Y015811D02*
X053053Y015811D01*
X053053Y015909D02*
X052956Y015909D01*
X052785Y015909D02*
X033221Y015909D01*
X033221Y015811D02*
X049890Y015811D01*
X049843Y015712D02*
X033221Y015712D01*
X033221Y015614D02*
X049843Y015614D01*
X049843Y015456D02*
X049843Y015288D01*
X049853Y015250D01*
X049872Y015215D01*
X049900Y015187D01*
X049935Y015168D01*
X049973Y015157D01*
X050161Y015157D01*
X050161Y015456D01*
X049843Y015456D01*
X049843Y015417D02*
X033221Y015417D01*
X033221Y015515D02*
X050161Y015515D01*
X050161Y015417D02*
X050257Y015417D01*
X050257Y015318D02*
X050161Y015318D01*
X050161Y015220D02*
X050257Y015220D01*
X049870Y015220D02*
X033221Y015220D01*
X033221Y015318D02*
X049843Y015318D01*
X050161Y015614D02*
X050257Y015614D01*
X050257Y015712D02*
X050161Y015712D01*
X050161Y015811D02*
X050257Y015811D01*
X050518Y015821D02*
X050546Y015793D01*
X050565Y015760D01*
X050616Y015811D01*
X051140Y015811D02*
X051183Y015768D01*
X051226Y015811D01*
X052109Y015811D02*
X052206Y015811D01*
X052206Y015851D02*
X052206Y015553D01*
X052524Y015553D01*
X052524Y015721D01*
X052514Y015759D01*
X052494Y015793D01*
X052467Y015821D01*
X052432Y015841D01*
X052394Y015851D01*
X052206Y015851D01*
X052206Y015712D02*
X052109Y015712D01*
X052109Y015614D02*
X052206Y015614D01*
X052524Y015614D02*
X052657Y015614D01*
X052657Y015712D02*
X052524Y015712D01*
X052477Y015811D02*
X052666Y015811D01*
X053053Y015515D02*
X053940Y015515D01*
X053940Y015592D02*
X053642Y015592D01*
X053642Y015780D01*
X053652Y015818D01*
X053672Y015852D01*
X053700Y015880D01*
X053734Y015900D01*
X053772Y015910D01*
X053940Y015910D01*
X053940Y015592D01*
X053940Y015614D02*
X054037Y015614D01*
X054037Y015712D02*
X053940Y015712D01*
X053940Y015811D02*
X054037Y015811D01*
X054037Y015909D02*
X053940Y015909D01*
X053769Y015909D02*
X053224Y015909D01*
X053343Y015811D02*
X053650Y015811D01*
X053642Y015712D02*
X053351Y015712D01*
X053351Y015614D02*
X053642Y015614D01*
X053642Y015417D02*
X053351Y015417D01*
X053351Y015318D02*
X053642Y015318D01*
X053687Y015220D02*
X053306Y015220D01*
X053311Y015121D02*
X053682Y015121D01*
X053682Y015023D02*
X053311Y015023D01*
X053311Y014924D02*
X053682Y014924D01*
X053682Y014826D02*
X053311Y014826D01*
X053311Y014727D02*
X053682Y014727D01*
X053682Y014629D02*
X053311Y014629D01*
X053311Y014530D02*
X053682Y014530D01*
X053682Y014432D02*
X053311Y014432D01*
X053311Y014333D02*
X053682Y014333D01*
X053682Y014235D02*
X053311Y014235D01*
X053311Y014136D02*
X053682Y014136D01*
X053682Y014038D02*
X053311Y014038D01*
X053311Y013939D02*
X053674Y013939D01*
X053693Y013733D02*
X053989Y014028D01*
X053989Y014225D01*
X053989Y014874D01*
X054295Y014826D02*
X059055Y014826D01*
X059055Y014924D02*
X054295Y014924D01*
X054295Y015023D02*
X059055Y015023D01*
X059055Y015121D02*
X057793Y015121D01*
X057785Y015118D02*
X058072Y015237D01*
X058291Y015456D01*
X058410Y015743D01*
X058410Y016053D01*
X058291Y016340D01*
X058072Y016559D01*
X057785Y016678D01*
X057475Y016678D01*
X057189Y016559D01*
X056969Y016340D01*
X056850Y016053D01*
X056850Y015743D01*
X056969Y015456D01*
X057189Y015237D01*
X057475Y015118D01*
X057785Y015118D01*
X058031Y015220D02*
X059055Y015220D01*
X059055Y015318D02*
X058154Y015318D01*
X058252Y015417D02*
X059055Y015417D01*
X059055Y015515D02*
X058316Y015515D01*
X058357Y015614D02*
X059055Y015614D01*
X059055Y015712D02*
X058398Y015712D01*
X058410Y015811D02*
X059055Y015811D01*
X059054Y015909D02*
X058410Y015909D01*
X058410Y016008D02*
X059048Y016008D01*
X059037Y016106D02*
X058388Y016106D01*
X058347Y016205D02*
X059011Y016205D01*
X058984Y016303D02*
X058307Y016303D01*
X058229Y016402D02*
X058958Y016402D01*
X058914Y016500D02*
X058131Y016500D01*
X057976Y016599D02*
X058857Y016599D01*
X058799Y016697D02*
X033233Y016697D01*
X033221Y016599D02*
X057284Y016599D01*
X057130Y016500D02*
X033221Y016500D01*
X033221Y016402D02*
X057031Y016402D01*
X056954Y016303D02*
X033221Y016303D01*
X033221Y016205D02*
X056913Y016205D01*
X056872Y016106D02*
X033221Y016106D01*
X033221Y016008D02*
X056850Y016008D01*
X056850Y015909D02*
X054208Y015909D01*
X054327Y015811D02*
X056850Y015811D01*
X056863Y015712D02*
X054335Y015712D01*
X054335Y015614D02*
X056904Y015614D01*
X056945Y015515D02*
X054037Y015515D01*
X054335Y015417D02*
X057008Y015417D01*
X057107Y015318D02*
X054335Y015318D01*
X054290Y015220D02*
X057229Y015220D01*
X057467Y015121D02*
X054295Y015121D01*
X054295Y014727D02*
X059055Y014727D01*
X059055Y014629D02*
X054295Y014629D01*
X054295Y014530D02*
X059055Y014530D01*
X059055Y014432D02*
X054295Y014432D01*
X054295Y014333D02*
X059055Y014333D01*
X059055Y014235D02*
X054295Y014235D01*
X054295Y014136D02*
X059055Y014136D01*
X059055Y014038D02*
X054295Y014038D01*
X054295Y013939D02*
X059055Y013939D01*
X059055Y013841D02*
X055136Y013841D01*
X055182Y013742D02*
X059055Y013742D01*
X059055Y013644D02*
X055182Y013644D01*
X055182Y013447D02*
X059055Y013447D01*
X059055Y013545D02*
X054864Y013545D01*
X054864Y013447D02*
X054767Y013447D01*
X054767Y013348D02*
X054864Y013348D01*
X054864Y013250D02*
X054767Y013250D01*
X054767Y013151D02*
X054864Y013151D01*
X054864Y013053D02*
X059055Y013053D01*
X059055Y013151D02*
X055182Y013151D01*
X055182Y013250D02*
X059055Y013250D01*
X059055Y013348D02*
X055182Y013348D01*
X055182Y012954D02*
X059055Y012954D01*
X059055Y012856D02*
X055182Y012856D01*
X055099Y012462D02*
X055043Y012462D01*
X055043Y012363D02*
X055099Y012363D01*
X055099Y012265D02*
X055043Y012265D01*
X055043Y012166D02*
X055099Y012166D01*
X055099Y012068D02*
X055043Y012068D01*
X055019Y011969D02*
X055124Y011969D01*
X055099Y011871D02*
X055043Y011871D01*
X055043Y011772D02*
X055099Y011772D01*
X055099Y011674D02*
X055043Y011674D01*
X055043Y011575D02*
X055099Y011575D01*
X055099Y011477D02*
X055043Y011477D01*
X055018Y011378D02*
X055124Y011378D01*
X055688Y011378D02*
X057182Y011378D01*
X057156Y011280D02*
X054138Y011280D01*
X054138Y011378D02*
X054455Y011378D01*
X054430Y011477D02*
X054138Y011477D01*
X054138Y011575D02*
X054430Y011575D01*
X054430Y011674D02*
X054138Y011674D01*
X054175Y011772D02*
X054345Y011772D01*
X054246Y011871D02*
X054178Y011871D01*
X054178Y011863D02*
X053792Y011863D01*
X053792Y011863D01*
X054178Y011863D01*
X054284Y012059D02*
X053792Y012059D01*
X053792Y011863D02*
X053406Y011863D01*
X053406Y011941D01*
X053416Y011980D01*
X053435Y012014D01*
X053446Y012024D01*
X053446Y012292D01*
X053435Y012302D01*
X053416Y012336D01*
X053406Y012374D01*
X053406Y012453D01*
X053792Y012453D01*
X053792Y012453D01*
X054178Y012453D01*
X054178Y012416D01*
X054430Y012416D01*
X054430Y012480D01*
X054178Y012480D01*
X054178Y012453D01*
X053792Y012453D01*
X053792Y012453D01*
X053406Y012453D01*
X053406Y012480D01*
X053272Y012480D01*
X053174Y012383D01*
X053174Y012031D01*
X053406Y011800D01*
X053406Y011863D01*
X053792Y011863D01*
X053792Y011863D01*
X053406Y011871D02*
X053335Y011871D01*
X053413Y011969D02*
X053236Y011969D01*
X053174Y012068D02*
X053446Y012068D01*
X053446Y012166D02*
X053174Y012166D01*
X053174Y012265D02*
X053446Y012265D01*
X053408Y012363D02*
X053174Y012363D01*
X053254Y012462D02*
X053406Y012462D01*
X053792Y012256D02*
X054737Y012256D01*
X054430Y012462D02*
X054178Y012462D01*
X054284Y012059D02*
X054678Y011666D01*
X054737Y011666D01*
X055406Y011666D02*
X056056Y011666D01*
X056323Y011674D02*
X056379Y011674D01*
X056379Y011772D02*
X056323Y011772D01*
X056321Y011871D02*
X056381Y011871D01*
X056476Y011969D02*
X055688Y011969D01*
X055713Y011871D02*
X055790Y011871D01*
X055788Y012068D02*
X055713Y012068D01*
X055406Y012256D02*
X056056Y012256D01*
X056323Y012265D02*
X056379Y012265D01*
X056379Y012363D02*
X056323Y012363D01*
X056320Y012462D02*
X056381Y012462D01*
X056379Y012166D02*
X056323Y012166D01*
X056323Y012068D02*
X056379Y012068D01*
X056816Y011969D02*
X059055Y011969D01*
X059055Y011871D02*
X056911Y011871D01*
X056914Y011772D02*
X059055Y011772D01*
X059055Y011674D02*
X057739Y011674D01*
X057743Y011673D02*
X057679Y011683D01*
X057679Y011254D01*
X058109Y011254D01*
X058098Y011318D01*
X058075Y011389D01*
X058041Y011457D01*
X057996Y011518D01*
X057943Y011571D01*
X057882Y011616D01*
X057815Y011650D01*
X057743Y011673D01*
X057679Y011674D02*
X057582Y011674D01*
X057522Y011674D02*
X056914Y011674D01*
X056914Y011575D02*
X057323Y011575D01*
X057234Y011477D02*
X056914Y011477D01*
X056379Y011477D02*
X056323Y011477D01*
X056323Y011575D02*
X056379Y011575D01*
X055788Y011477D02*
X055713Y011477D01*
X054138Y011181D02*
X057582Y011181D01*
X057679Y011181D02*
X059055Y011181D01*
X059055Y011083D02*
X058095Y011083D01*
X058057Y010984D02*
X059055Y010984D01*
X059055Y010886D02*
X057990Y010886D01*
X057948Y010787D02*
X059055Y010787D01*
X059055Y010689D02*
X058046Y010689D01*
X058145Y010590D02*
X059055Y010590D01*
X059055Y010492D02*
X058243Y010492D01*
X058282Y010393D02*
X059055Y010393D01*
X059055Y010295D02*
X058282Y010295D01*
X058282Y010196D02*
X059055Y010196D01*
X059055Y010098D02*
X058282Y010098D01*
X058282Y009999D02*
X059055Y009999D01*
X059055Y009901D02*
X058282Y009901D01*
X058282Y009802D02*
X059055Y009802D01*
X059055Y009704D02*
X058342Y009704D01*
X058441Y009605D02*
X059055Y009605D01*
X059055Y009507D02*
X058479Y009507D01*
X058479Y009408D02*
X059055Y009408D01*
X059055Y009310D02*
X058479Y009310D01*
X058479Y009211D02*
X059055Y009211D01*
X059055Y009113D02*
X058479Y009113D01*
X058479Y009014D02*
X059055Y009014D01*
X059055Y008916D02*
X058479Y008916D01*
X058479Y008817D02*
X059055Y008817D01*
X059055Y008719D02*
X058479Y008719D01*
X058479Y008620D02*
X059055Y008620D01*
X059055Y008522D02*
X058479Y008522D01*
X058479Y008423D02*
X059055Y008423D01*
X059055Y008325D02*
X058479Y008325D01*
X058479Y008226D02*
X059055Y008226D01*
X059055Y008128D02*
X058479Y008128D01*
X058479Y008029D02*
X059055Y008029D01*
X059055Y007931D02*
X058479Y007931D01*
X058479Y007832D02*
X059055Y007832D01*
X059055Y007734D02*
X058385Y007734D01*
X058287Y007635D02*
X059055Y007635D01*
X059055Y007537D02*
X058188Y007537D01*
X058090Y007438D02*
X059055Y007438D01*
X059055Y007340D02*
X058051Y007340D01*
X058070Y007241D02*
X059055Y007241D01*
X059055Y007143D02*
X058070Y007143D01*
X058040Y007044D02*
X059055Y007044D01*
X059055Y006946D02*
X057993Y006946D01*
X057895Y006847D02*
X059055Y006847D01*
X059055Y006749D02*
X053718Y006749D01*
X053755Y006650D02*
X059055Y006650D01*
X059055Y006552D02*
X053755Y006552D01*
X053755Y006453D02*
X059055Y006453D01*
X059055Y006355D02*
X053755Y006355D01*
X053755Y006256D02*
X059055Y006256D01*
X059055Y006158D02*
X053904Y006158D01*
X054293Y006059D02*
X054393Y006059D01*
X054393Y006087D02*
X054393Y005771D01*
X054847Y005771D01*
X054847Y005957D01*
X054837Y005995D01*
X054817Y006030D01*
X054789Y006057D01*
X054755Y006077D01*
X054717Y006087D01*
X054393Y006087D01*
X054393Y005961D02*
X054293Y005961D01*
X054293Y005862D02*
X054393Y005862D01*
X054393Y005764D02*
X056734Y005764D01*
X056734Y005771D02*
X056734Y005671D01*
X056280Y005671D01*
X056280Y005485D01*
X056290Y005446D01*
X056309Y005412D01*
X056337Y005384D01*
X056372Y005365D01*
X056410Y005354D01*
X056734Y005354D01*
X056734Y005671D01*
X056834Y005671D01*
X056834Y005771D01*
X056734Y005771D01*
X056734Y006087D01*
X056410Y006087D01*
X056372Y006077D01*
X056337Y006057D01*
X056309Y006030D01*
X056290Y005995D01*
X056280Y005957D01*
X056280Y005771D01*
X056734Y005771D01*
X056734Y005862D02*
X056834Y005862D01*
X056834Y005771D02*
X056834Y006087D01*
X057158Y006087D01*
X057196Y006077D01*
X057230Y006057D01*
X057258Y006030D01*
X057278Y005995D01*
X057288Y005957D01*
X057288Y005771D01*
X056834Y005771D01*
X056834Y005764D02*
X059055Y005764D01*
X059055Y005862D02*
X057288Y005862D01*
X057287Y005961D02*
X059055Y005961D01*
X059055Y006059D02*
X057227Y006059D01*
X056834Y006059D02*
X056734Y006059D01*
X056734Y005961D02*
X056834Y005961D01*
X056834Y005671D02*
X057288Y005671D01*
X057288Y005485D01*
X057278Y005446D01*
X057258Y005412D01*
X057230Y005384D01*
X057196Y005365D01*
X057158Y005354D01*
X056834Y005354D01*
X056834Y005671D01*
X056834Y005665D02*
X056734Y005665D01*
X056734Y005567D02*
X056834Y005567D01*
X056834Y005468D02*
X056734Y005468D01*
X056734Y005370D02*
X056834Y005370D01*
X057205Y005370D02*
X059055Y005370D01*
X059055Y005468D02*
X057284Y005468D01*
X057288Y005567D02*
X059055Y005567D01*
X059055Y005665D02*
X057288Y005665D01*
X056362Y005370D02*
X054764Y005370D01*
X054755Y005365D02*
X054789Y005384D01*
X054817Y005412D01*
X054837Y005446D01*
X054847Y005485D01*
X054847Y005671D01*
X054393Y005671D01*
X054393Y005354D01*
X054717Y005354D01*
X054755Y005365D01*
X054843Y005468D02*
X056284Y005468D01*
X056280Y005567D02*
X054847Y005567D01*
X054847Y005665D02*
X056280Y005665D01*
X056280Y005862D02*
X054847Y005862D01*
X054846Y005961D02*
X056281Y005961D01*
X056341Y006059D02*
X054786Y006059D01*
X054393Y005665D02*
X054293Y005665D01*
X054293Y005567D02*
X054393Y005567D01*
X054393Y005468D02*
X054293Y005468D01*
X054293Y005370D02*
X054393Y005370D01*
X053030Y005567D02*
X051943Y005567D01*
X051973Y005665D02*
X052087Y005665D01*
X052087Y005764D02*
X051973Y005764D01*
X051973Y005862D02*
X052087Y005862D01*
X052087Y005961D02*
X051973Y005961D01*
X051973Y006059D02*
X052087Y006059D01*
X052105Y006158D02*
X052000Y006158D01*
X052032Y006256D02*
X052107Y006256D01*
X052107Y006355D02*
X052032Y006355D01*
X052107Y006453D02*
X051714Y006453D01*
X051714Y006552D02*
X051617Y006552D01*
X051617Y006650D02*
X051714Y006650D01*
X051714Y006749D02*
X051617Y006749D01*
X051617Y006847D02*
X051714Y006847D01*
X051714Y006946D02*
X051617Y006946D01*
X051714Y007044D02*
X052675Y007044D01*
X052746Y006973D02*
X052746Y006973D01*
X052773Y006946D02*
X052032Y006946D01*
X052032Y006847D02*
X052145Y006847D01*
X052107Y006749D02*
X052000Y006749D01*
X052032Y006650D02*
X052107Y006650D01*
X052107Y006552D02*
X052032Y006552D01*
X052335Y006528D02*
X052335Y005977D01*
X052414Y005898D01*
X053004Y005898D02*
X053004Y005819D01*
X053004Y005898D02*
X053083Y005977D01*
X053083Y006528D01*
X052718Y006552D02*
X052700Y006552D01*
X052700Y006650D02*
X052718Y006650D01*
X052718Y006749D02*
X052700Y006749D01*
X052700Y006847D02*
X052718Y006847D01*
X052906Y007040D02*
X052709Y007237D01*
X052709Y007433D01*
X052335Y007433D02*
X052335Y008142D01*
X052414Y008221D01*
X052414Y009894D01*
X052611Y009894D02*
X052611Y008221D01*
X053083Y007748D01*
X053083Y007433D01*
X053311Y007438D02*
X053879Y007438D01*
X053879Y007340D02*
X053311Y007340D01*
X053311Y007241D02*
X053879Y007241D01*
X053879Y007143D02*
X053324Y007143D01*
X053423Y007044D02*
X053879Y007044D01*
X053879Y006946D02*
X053521Y006946D01*
X053620Y006847D02*
X057366Y006847D01*
X057267Y006946D02*
X057248Y006946D01*
X057603Y007178D02*
X056784Y007178D01*
X054343Y007178D01*
X054807Y007340D02*
X056320Y007340D01*
X056320Y007438D02*
X054807Y007438D01*
X054807Y006946D02*
X056320Y006946D01*
X057248Y007438D02*
X057251Y007438D01*
X057340Y007537D02*
X053311Y007537D01*
X053311Y007635D02*
X057519Y007635D01*
X057741Y007635D02*
X057834Y007635D01*
X057933Y007734D02*
X053293Y007734D01*
X053225Y007832D02*
X057381Y007832D01*
X057282Y007931D02*
X053127Y007931D01*
X053028Y008029D02*
X057227Y008029D01*
X057190Y008128D02*
X052930Y008128D01*
X052969Y008226D02*
X052831Y008226D01*
X052871Y008325D02*
X052771Y008325D01*
X052771Y008423D02*
X052772Y008423D01*
X052807Y008615D02*
X053103Y008319D01*
X054481Y008319D01*
X054776Y008615D01*
X054776Y009500D01*
X054973Y009697D01*
X057138Y009697D01*
X057630Y009205D01*
X057190Y009211D02*
X054936Y009211D01*
X054936Y009113D02*
X057192Y009113D01*
X057233Y009014D02*
X054936Y009014D01*
X054936Y008916D02*
X057297Y008916D01*
X057417Y008817D02*
X054936Y008817D01*
X054936Y008719D02*
X057904Y008719D01*
X057952Y008817D02*
X057844Y008817D01*
X057805Y008620D02*
X057777Y008620D01*
X057483Y008620D02*
X054936Y008620D01*
X054910Y008522D02*
X057325Y008522D01*
X057244Y008423D02*
X054811Y008423D01*
X054713Y008325D02*
X057204Y008325D01*
X057190Y008226D02*
X054614Y008226D01*
X054414Y008479D02*
X053169Y008479D01*
X052967Y008681D01*
X052967Y009508D01*
X053004Y009508D01*
X053004Y009894D01*
X053004Y009894D01*
X053004Y009508D01*
X053083Y009508D01*
X053121Y009518D01*
X053155Y009538D01*
X053166Y009548D01*
X053306Y009548D01*
X053370Y009612D01*
X053370Y009724D01*
X053386Y009724D01*
X053386Y009475D01*
X053438Y009423D01*
X053404Y009404D01*
X053376Y009376D01*
X053357Y009342D01*
X053346Y009304D01*
X053346Y009116D01*
X053645Y009116D01*
X053645Y009019D01*
X053742Y009019D01*
X053742Y008701D01*
X053910Y008701D01*
X053948Y008711D01*
X053982Y008731D01*
X054010Y008759D01*
X054015Y008767D01*
X054022Y008760D01*
X054546Y008760D01*
X054610Y008825D01*
X054610Y009310D01*
X054616Y009310D01*
X054610Y009310D02*
X054546Y009374D01*
X054257Y009374D01*
X054201Y009430D01*
X054546Y009430D01*
X054610Y009494D01*
X054610Y009567D01*
X054616Y009567D01*
X054616Y009434D01*
X054616Y008681D01*
X054414Y008479D01*
X054457Y008522D02*
X053126Y008522D01*
X053028Y008620D02*
X054556Y008620D01*
X054616Y008719D02*
X053962Y008719D01*
X053742Y008719D02*
X053645Y008719D01*
X053645Y008701D02*
X053645Y009019D01*
X053346Y009019D01*
X053346Y008831D01*
X053357Y008793D01*
X053376Y008759D01*
X053404Y008731D01*
X053439Y008711D01*
X053477Y008701D01*
X053645Y008701D01*
X053645Y008817D02*
X053742Y008817D01*
X053742Y008916D02*
X053645Y008916D01*
X053645Y009014D02*
X053742Y009014D01*
X053645Y009113D02*
X052967Y009113D01*
X052967Y009211D02*
X053346Y009211D01*
X053348Y009310D02*
X052967Y009310D01*
X052967Y009408D02*
X053412Y009408D01*
X053386Y009507D02*
X052967Y009507D01*
X053004Y009605D02*
X053004Y009605D01*
X053004Y009704D02*
X053004Y009704D01*
X053004Y009802D02*
X053004Y009802D01*
X052807Y009894D02*
X052807Y008615D01*
X052967Y008719D02*
X053425Y008719D01*
X053350Y008817D02*
X052967Y008817D01*
X052967Y008916D02*
X053346Y008916D01*
X053346Y009014D02*
X052967Y009014D01*
X054223Y009408D02*
X054616Y009408D01*
X054610Y009507D02*
X054616Y009507D01*
X054610Y009211D02*
X054616Y009211D01*
X054610Y009113D02*
X054616Y009113D01*
X054610Y009014D02*
X054616Y009014D01*
X054610Y008916D02*
X054616Y008916D01*
X054603Y008817D02*
X054616Y008817D01*
X054936Y009310D02*
X057197Y009310D01*
X057201Y009408D02*
X054936Y009408D01*
X055009Y009507D02*
X057102Y009507D01*
X058122Y009697D02*
X058319Y009500D01*
X058319Y007894D01*
X057630Y007205D01*
X057603Y007178D01*
X057880Y007832D02*
X058003Y007956D01*
X058070Y008118D01*
X058070Y008293D01*
X058037Y008372D01*
X058159Y008494D01*
X058159Y007960D01*
X058159Y008029D02*
X058034Y008029D01*
X058070Y008128D02*
X058159Y008128D01*
X058159Y008226D02*
X058070Y008226D01*
X058057Y008325D02*
X058159Y008325D01*
X058159Y008423D02*
X058089Y008423D01*
X058122Y009697D02*
X058122Y010386D01*
X057827Y010681D01*
X057433Y010681D01*
X057040Y010288D01*
X054678Y010288D01*
X054284Y010681D01*
X054284Y010780D01*
X054517Y010787D02*
X057313Y010787D01*
X057271Y010886D02*
X054507Y010886D01*
X054409Y010984D02*
X057204Y010984D01*
X057165Y011083D02*
X054138Y011083D01*
X054138Y010984D02*
X054159Y010984D01*
X054517Y010689D02*
X057215Y010689D01*
X057116Y010590D02*
X054601Y010590D01*
X054700Y010492D02*
X057018Y010492D01*
X057532Y010091D02*
X057630Y010189D01*
X057630Y010205D01*
X057532Y010091D02*
X054579Y010091D01*
X054185Y010485D01*
X053792Y010485D01*
X053386Y009704D02*
X053370Y009704D01*
X053363Y009605D02*
X053386Y009605D01*
X052943Y008253D02*
X052943Y008253D01*
X051554Y007438D02*
X051506Y007438D01*
X051617Y007340D02*
X051714Y007340D01*
X051714Y007241D02*
X051617Y007241D01*
X051617Y007143D02*
X051714Y007143D01*
X052032Y007143D02*
X052116Y007143D01*
X052107Y007241D02*
X052032Y007241D01*
X051991Y007340D02*
X052107Y007340D01*
X052906Y007040D02*
X053201Y007040D01*
X053595Y006646D01*
X053595Y005898D01*
X052087Y005468D02*
X051973Y005468D01*
X051973Y005370D02*
X052087Y005370D01*
X051299Y004976D02*
X051273Y004976D01*
X050720Y004976D02*
X049757Y004976D01*
X049788Y005074D02*
X050690Y005074D01*
X050690Y005173D02*
X049788Y005173D01*
X049788Y005271D02*
X050690Y005271D01*
X050690Y005370D02*
X049788Y005370D01*
X049788Y005468D02*
X050690Y005468D01*
X050719Y005567D02*
X049788Y005567D01*
X049788Y005665D02*
X049878Y005665D01*
X050422Y005665D02*
X050690Y005665D01*
X050438Y005682D02*
X050438Y005682D01*
X050513Y006158D02*
X050719Y006158D01*
X050670Y006256D02*
X050415Y006256D01*
X050566Y006355D02*
X049848Y006355D01*
X049832Y006256D02*
X049885Y006256D01*
X049874Y006246D02*
X049874Y006246D01*
X049787Y006158D02*
X049734Y006158D01*
X049965Y006453D02*
X050468Y006453D01*
X048499Y006158D02*
X048260Y006158D01*
X048087Y006158D02*
X048079Y006158D01*
X048079Y006256D02*
X048087Y006256D01*
X048079Y006355D02*
X048087Y006355D01*
X048079Y006453D02*
X048087Y006453D01*
X053820Y004680D02*
X053920Y004680D01*
X053920Y004749D02*
X053920Y003999D01*
X054414Y003999D01*
X054414Y004619D01*
X054404Y004657D01*
X054384Y004691D01*
X054356Y004719D01*
X054322Y004739D01*
X054284Y004749D01*
X053920Y004749D01*
X053920Y004582D02*
X053820Y004582D01*
X053820Y004483D02*
X053920Y004483D01*
X053920Y004385D02*
X053820Y004385D01*
X053820Y004286D02*
X053920Y004286D01*
X053920Y004188D02*
X053820Y004188D01*
X053820Y004089D02*
X053920Y004089D01*
X053920Y003991D02*
X059055Y003991D01*
X059055Y004089D02*
X054414Y004089D01*
X054414Y004188D02*
X059055Y004188D01*
X059055Y004286D02*
X054414Y004286D01*
X054414Y004385D02*
X059055Y004385D01*
X059055Y004483D02*
X054414Y004483D01*
X054414Y004582D02*
X059055Y004582D01*
X059055Y004680D02*
X054390Y004680D01*
X054414Y003892D02*
X059055Y003892D01*
X059055Y003794D02*
X054414Y003794D01*
X054414Y003695D02*
X059055Y003695D01*
X059055Y003597D02*
X054414Y003597D01*
X054414Y003498D02*
X059055Y003498D01*
X059055Y003400D02*
X054414Y003400D01*
X054414Y003301D02*
X059055Y003301D01*
X059055Y003203D02*
X058001Y003203D01*
X058141Y003104D02*
X059055Y003104D01*
X059055Y003006D02*
X058240Y003006D01*
X058311Y002907D02*
X059055Y002907D01*
X059055Y002809D02*
X058352Y002809D01*
X058392Y002710D02*
X059055Y002710D01*
X059055Y002612D02*
X058410Y002612D01*
X058410Y002513D02*
X059055Y002513D01*
X059049Y002415D02*
X058410Y002415D01*
X058393Y002316D02*
X059040Y002316D01*
X059014Y002218D02*
X058353Y002218D01*
X058312Y002119D02*
X058988Y002119D01*
X058961Y002021D02*
X058242Y002021D01*
X058143Y001922D02*
X058921Y001922D01*
X058864Y001824D02*
X058007Y001824D01*
X058517Y001430D02*
X054414Y001430D01*
X054414Y001528D02*
X058615Y001528D01*
X058410Y001331D02*
X054414Y001331D01*
X054414Y001233D02*
X058240Y001233D01*
X057946Y001134D02*
X054414Y001134D01*
X053327Y001134D02*
X050910Y001134D01*
X050910Y001233D02*
X053327Y001233D01*
X053327Y001331D02*
X050910Y001331D01*
X050910Y001430D02*
X053327Y001430D01*
X053327Y001528D02*
X050910Y001528D01*
X050910Y001725D02*
X053327Y001725D01*
X053327Y001824D02*
X050910Y001824D01*
X050910Y001922D02*
X053327Y001922D01*
X053327Y002021D02*
X050910Y002021D01*
X050910Y002119D02*
X053327Y002119D01*
X053364Y002218D02*
X050873Y002218D01*
X050417Y002218D02*
X050317Y002218D01*
X050317Y002119D02*
X050417Y002119D01*
X050417Y002021D02*
X050317Y002021D01*
X050317Y001922D02*
X050417Y001922D01*
X050417Y001824D02*
X050317Y001824D01*
X049823Y001528D02*
X048233Y001528D01*
X048213Y001430D02*
X049823Y001430D01*
X049823Y001331D02*
X048172Y001331D01*
X048083Y001233D02*
X049823Y001233D01*
X049823Y001134D02*
X047906Y001134D01*
X047513Y001922D02*
X047110Y001922D01*
X045788Y002415D02*
X045749Y002415D01*
X046399Y003006D02*
X046499Y003006D01*
X046499Y003104D02*
X046399Y003104D01*
X046399Y003203D02*
X046499Y003203D01*
X046499Y003301D02*
X046399Y003301D01*
X047150Y003301D02*
X049823Y003301D01*
X049857Y003203D02*
X047150Y003203D01*
X047150Y003104D02*
X051114Y003104D01*
X050988Y003006D02*
X047129Y003006D01*
X046499Y003597D02*
X046399Y003597D01*
X046399Y003695D02*
X046499Y003695D01*
X046499Y003794D02*
X046399Y003794D01*
X045689Y004385D02*
X045684Y004385D01*
X050317Y003892D02*
X050417Y003892D01*
X050417Y003794D02*
X050317Y003794D01*
X050317Y003695D02*
X050417Y003695D01*
X050417Y003597D02*
X050317Y003597D01*
X050317Y003498D02*
X050417Y003498D01*
X050417Y003400D02*
X050317Y003400D01*
X050317Y003301D02*
X050417Y003301D01*
X050417Y003203D02*
X050317Y003203D01*
X052119Y003989D02*
X052119Y004579D01*
X053820Y003301D02*
X053920Y003301D01*
X053920Y003203D02*
X053820Y003203D01*
X054380Y003203D02*
X057260Y003203D01*
X053920Y002218D02*
X053820Y002218D01*
X053820Y002119D02*
X053920Y002119D01*
X053920Y002021D02*
X053820Y002021D01*
X053820Y001922D02*
X053920Y001922D01*
X053920Y001824D02*
X053820Y001824D01*
X057582Y011280D02*
X057679Y011280D01*
X057679Y011378D02*
X057582Y011378D01*
X057582Y011477D02*
X057679Y011477D01*
X057679Y011575D02*
X057582Y011575D01*
X057937Y011575D02*
X059055Y011575D01*
X059055Y011477D02*
X058026Y011477D01*
X058079Y011378D02*
X059055Y011378D01*
X059055Y011280D02*
X058104Y011280D01*
X059055Y012068D02*
X056914Y012068D01*
X056914Y012166D02*
X059055Y012166D01*
X059055Y012265D02*
X056914Y012265D01*
X056914Y012363D02*
X059055Y012363D01*
X059055Y012462D02*
X056911Y012462D01*
X056779Y012560D02*
X059055Y012560D01*
X059055Y012659D02*
X056681Y012659D01*
X056582Y012757D02*
X059055Y012757D01*
X054864Y013644D02*
X054767Y013644D01*
X054767Y013742D02*
X054864Y013742D01*
X054864Y013841D02*
X054767Y013841D01*
X054495Y013841D02*
X054410Y013841D01*
X053693Y013733D02*
X053004Y013733D01*
X052807Y013536D01*
X052807Y013241D01*
X052611Y013241D02*
X052611Y013634D01*
X053004Y014028D01*
X053004Y014225D01*
X053004Y014874D01*
X052697Y014826D02*
X052524Y014826D01*
X052524Y014924D02*
X052697Y014924D01*
X052697Y015023D02*
X052524Y015023D01*
X052497Y015220D02*
X052703Y015220D01*
X052697Y015121D02*
X051940Y015121D01*
X052109Y015220D02*
X052206Y015220D01*
X052206Y015318D02*
X052109Y015318D01*
X052524Y015318D02*
X052657Y015318D01*
X052657Y015417D02*
X052524Y015417D01*
X052524Y014727D02*
X052697Y014727D01*
X052697Y014629D02*
X052524Y014629D01*
X052524Y014530D02*
X052697Y014530D01*
X052697Y014432D02*
X052524Y014432D01*
X052524Y014333D02*
X052697Y014333D01*
X052697Y014235D02*
X052524Y014235D01*
X052524Y014136D02*
X052697Y014136D01*
X052697Y014038D02*
X052524Y014038D01*
X052532Y013939D02*
X052690Y013939D01*
X052591Y013841D02*
X052574Y013841D01*
X052414Y013831D02*
X052414Y013241D01*
X053201Y013241D02*
X053398Y013241D01*
X051233Y013241D02*
X051233Y013536D01*
X051134Y013634D01*
X051036Y013241D02*
X050839Y013241D01*
X050741Y013339D01*
X049042Y012757D02*
X049040Y012757D01*
X048752Y013644D02*
X047930Y013644D01*
X048021Y013742D02*
X048851Y013742D01*
X047645Y013644D02*
X044199Y013644D01*
X043915Y013841D02*
X033132Y013841D01*
X033221Y013939D02*
X044014Y013939D01*
X043817Y013742D02*
X033034Y013742D01*
X032935Y013644D02*
X043718Y013644D01*
X033430Y016894D02*
X058602Y016894D01*
X058701Y016796D02*
X033331Y016796D01*
X033528Y016993D02*
X058504Y016993D01*
X058388Y017091D02*
X033627Y017091D01*
X033725Y017190D02*
X058218Y017190D01*
X057899Y017288D02*
X033824Y017288D01*
X012748Y016599D02*
X002071Y016599D01*
X002167Y016559D02*
X001880Y016678D01*
X001570Y016678D01*
X001283Y016559D01*
X001064Y016340D01*
X000945Y016053D01*
X000945Y015743D01*
X001064Y015456D01*
X001283Y015237D01*
X001570Y015118D01*
X001880Y015118D01*
X002167Y015237D01*
X002386Y015456D01*
X002505Y015743D01*
X002505Y016053D01*
X002386Y016340D01*
X002167Y016559D01*
X002225Y016500D02*
X012748Y016500D01*
X012748Y016402D02*
X002324Y016402D01*
X002401Y016303D02*
X012748Y016303D01*
X012748Y016205D02*
X002442Y016205D01*
X002483Y016106D02*
X012748Y016106D01*
X012748Y016008D02*
X002505Y016008D01*
X002505Y015909D02*
X012748Y015909D01*
X012748Y015811D02*
X002505Y015811D01*
X002492Y015712D02*
X012748Y015712D01*
X012748Y015614D02*
X008540Y015614D01*
X008658Y015515D02*
X012748Y015515D01*
X012748Y015417D02*
X008666Y015417D01*
X008666Y015318D02*
X012748Y015318D01*
X012748Y015220D02*
X008368Y015220D01*
X008368Y015318D02*
X008271Y015318D01*
X008271Y015417D02*
X008368Y015417D01*
X008368Y015515D02*
X008271Y015515D01*
X008271Y015614D02*
X008368Y015614D01*
X008099Y015614D02*
X002451Y015614D01*
X002411Y015515D02*
X006836Y015515D01*
X008666Y015121D02*
X012748Y015121D01*
X012748Y015023D02*
X008666Y015023D01*
X008621Y014924D02*
X012748Y014924D01*
X012748Y014826D02*
X008626Y014826D01*
X008626Y014727D02*
X012748Y014727D01*
X012748Y014629D02*
X008626Y014629D01*
X007774Y014467D02*
X007729Y014520D01*
X007774Y014467D02*
X007774Y013575D01*
X007546Y013545D02*
X007542Y013545D01*
X007542Y013447D02*
X007546Y013447D01*
X007542Y013348D02*
X007546Y013348D01*
X007542Y013250D02*
X007546Y013250D01*
X007542Y013151D02*
X007546Y013151D01*
X007514Y013053D02*
X007590Y013053D01*
X006509Y013053D02*
X006399Y013053D01*
X006030Y013053D02*
X005899Y013053D01*
X005943Y013151D02*
X005987Y013151D01*
X005987Y013250D02*
X005943Y013250D01*
X005487Y013250D02*
X005443Y013250D01*
X005443Y013151D02*
X005487Y013151D01*
X005530Y013053D02*
X005399Y013053D01*
X007542Y013644D02*
X007546Y013644D01*
X007542Y013742D02*
X007546Y013742D01*
X007542Y013841D02*
X007546Y013841D01*
X007542Y013939D02*
X007546Y013939D01*
X007539Y014038D02*
X007546Y014038D01*
X007614Y014136D02*
X007470Y014136D01*
X007414Y014235D02*
X007614Y014235D01*
X008002Y014038D02*
X008046Y014038D01*
X008046Y013939D02*
X008002Y013939D01*
X008002Y013841D02*
X008046Y013841D01*
X008046Y013742D02*
X008002Y013742D01*
X008002Y013644D02*
X008046Y013644D01*
X008502Y013644D02*
X008546Y013644D01*
X008546Y013742D02*
X008502Y013742D01*
X008502Y013841D02*
X008546Y013841D01*
X008546Y013939D02*
X008502Y013939D01*
X008502Y014038D02*
X008546Y014038D01*
X004955Y015023D02*
X004855Y015023D01*
X004855Y015121D02*
X004955Y015121D01*
X004955Y015220D02*
X004855Y015220D01*
X004855Y015318D02*
X004955Y015318D01*
X004955Y015417D02*
X004855Y015417D01*
X004564Y015417D02*
X002347Y015417D01*
X002248Y015318D02*
X004448Y015318D01*
X004440Y015220D02*
X002126Y015220D01*
X001888Y015121D02*
X004440Y015121D01*
X004440Y015023D02*
X000300Y015023D01*
X000300Y015121D02*
X001562Y015121D01*
X001324Y015220D02*
X000300Y015220D01*
X000300Y015318D02*
X001201Y015318D01*
X001103Y015417D02*
X000300Y015417D01*
X000300Y015515D02*
X001039Y015515D01*
X000998Y015614D02*
X000300Y015614D01*
X000300Y015712D02*
X000957Y015712D01*
X000945Y015811D02*
X000300Y015811D01*
X000301Y015909D02*
X000945Y015909D01*
X000945Y016008D02*
X000307Y016008D01*
X000318Y016106D02*
X000967Y016106D01*
X001008Y016205D02*
X000345Y016205D01*
X000371Y016303D02*
X001049Y016303D01*
X001126Y016402D02*
X000397Y016402D01*
X000441Y016500D02*
X001224Y016500D01*
X001379Y016599D02*
X000498Y016599D01*
X000556Y016697D02*
X012736Y016697D01*
X012638Y016796D02*
X000654Y016796D01*
X000753Y016894D02*
X012539Y016894D01*
X012441Y016993D02*
X000851Y016993D01*
X000967Y017091D02*
X012342Y017091D01*
X012244Y017190D02*
X001137Y017190D01*
X001456Y017288D02*
X012145Y017288D01*
X014953Y005504D02*
X014914Y005465D01*
X014953Y005504D02*
X016095Y005504D01*
X019785Y004779D02*
X019885Y004779D01*
X019885Y004680D02*
X019785Y004680D01*
X019785Y004582D02*
X019885Y004582D01*
X019885Y004483D02*
X019785Y004483D01*
X019785Y004385D02*
X019885Y004385D01*
X019885Y004286D02*
X019785Y004286D01*
X019785Y004188D02*
X019885Y004188D01*
X017963Y003597D02*
X015753Y003597D01*
X015753Y003527D02*
X015753Y003861D01*
X015743Y003899D01*
X015723Y003933D01*
X015695Y003961D01*
X015661Y003981D01*
X015623Y003991D01*
X017569Y003991D01*
X017470Y004089D02*
X012977Y004089D01*
X012977Y003991D02*
X013418Y003991D01*
X013380Y003981D01*
X013345Y003961D01*
X013317Y003933D01*
X013298Y003899D01*
X013287Y003861D01*
X013287Y003527D01*
X014470Y003527D01*
X014470Y003991D01*
X013418Y003991D01*
X013296Y003892D02*
X012977Y003892D01*
X012977Y003794D02*
X013287Y003794D01*
X013287Y003695D02*
X012562Y003695D01*
X012562Y003597D02*
X012462Y003597D01*
X012462Y003643D02*
X012462Y003012D01*
X012177Y003012D01*
X012139Y003022D01*
X012105Y003042D01*
X012077Y003070D01*
X012057Y003104D01*
X012047Y003142D01*
X012047Y003643D01*
X012462Y003643D01*
X012462Y003695D02*
X011835Y003695D01*
X011835Y003597D02*
X012047Y003597D01*
X012047Y003498D02*
X011835Y003498D01*
X011835Y003400D02*
X012047Y003400D01*
X012047Y003301D02*
X011835Y003301D01*
X011835Y003203D02*
X012047Y003203D01*
X012057Y003104D02*
X011823Y003104D01*
X012462Y003104D02*
X012562Y003104D01*
X012562Y003203D02*
X012462Y003203D01*
X012462Y003301D02*
X012562Y003301D01*
X012562Y003400D02*
X012462Y003400D01*
X012462Y003498D02*
X012562Y003498D01*
X012977Y003498D02*
X014470Y003498D01*
X014470Y003527D02*
X014470Y003427D01*
X013287Y003427D01*
X013287Y003093D01*
X013298Y003055D01*
X013317Y003020D01*
X013345Y002993D01*
X013380Y002973D01*
X013418Y002963D01*
X014470Y002963D01*
X014470Y003427D01*
X014570Y003427D01*
X014570Y003527D01*
X014470Y003527D01*
X014470Y003597D02*
X014570Y003597D01*
X014570Y003527D02*
X014570Y003991D01*
X015623Y003991D01*
X015744Y003892D02*
X017667Y003892D01*
X017766Y003794D02*
X015753Y003794D01*
X015753Y003695D02*
X017864Y003695D01*
X018061Y003498D02*
X014570Y003498D01*
X014570Y003527D02*
X015753Y003527D01*
X015753Y003427D02*
X015753Y003093D01*
X015743Y003055D01*
X015723Y003020D01*
X015695Y002993D01*
X015661Y002973D01*
X015623Y002963D01*
X014570Y002963D01*
X014570Y003427D01*
X015753Y003427D01*
X015753Y003400D02*
X018063Y003400D01*
X018063Y003301D02*
X015753Y003301D01*
X015753Y003203D02*
X018063Y003203D01*
X018063Y003104D02*
X015753Y003104D01*
X015708Y003006D02*
X018063Y003006D01*
X018063Y002907D02*
X002405Y002907D01*
X002446Y002809D02*
X018063Y002809D01*
X018063Y002710D02*
X002487Y002710D01*
X002505Y002612D02*
X018063Y002612D01*
X018063Y002513D02*
X002505Y002513D01*
X002505Y002415D02*
X018063Y002415D01*
X018063Y002316D02*
X002488Y002316D01*
X002447Y002218D02*
X018063Y002218D01*
X018063Y002119D02*
X002406Y002119D01*
X002336Y002021D02*
X018063Y002021D01*
X018063Y001922D02*
X002238Y001922D01*
X002101Y001824D02*
X018063Y001824D01*
X014570Y003006D02*
X014470Y003006D01*
X014470Y003104D02*
X014570Y003104D01*
X014570Y003203D02*
X014470Y003203D01*
X014470Y003301D02*
X014570Y003301D01*
X014570Y003400D02*
X014470Y003400D01*
X014470Y003695D02*
X014570Y003695D01*
X014570Y003794D02*
X014470Y003794D01*
X014470Y003892D02*
X014570Y003892D01*
X014570Y003991D02*
X014470Y003991D01*
X013287Y003597D02*
X012977Y003597D01*
X012977Y003400D02*
X013287Y003400D01*
X013287Y003301D02*
X012977Y003301D01*
X012977Y003203D02*
X013287Y003203D01*
X013287Y003104D02*
X012967Y003104D01*
X013332Y003006D02*
X002334Y003006D01*
X002236Y003104D02*
X010997Y003104D01*
X010985Y003203D02*
X010125Y003203D01*
X010313Y003301D02*
X010985Y003301D01*
X011835Y003794D02*
X012047Y003794D01*
X012047Y003892D02*
X011835Y003892D01*
X011835Y003991D02*
X012047Y003991D01*
X012047Y004089D02*
X011835Y004089D01*
X011835Y004188D02*
X012047Y004188D01*
X012977Y004188D02*
X017372Y004188D01*
D41*
X018851Y004185D03*
X019835Y003890D03*
X020819Y003890D03*
X022197Y004087D03*
X023772Y004087D03*
X025347Y004087D03*
X026922Y004087D03*
X028496Y004087D03*
X030071Y004087D03*
X031646Y004087D03*
X033221Y004087D03*
X034796Y004087D03*
X036370Y004087D03*
X037945Y004087D03*
X038142Y003004D03*
X042670Y004087D03*
X044244Y004087D03*
X046213Y004087D03*
X046607Y004087D03*
X047000Y004087D03*
X050150Y002906D03*
X050544Y002906D03*
X050544Y002512D03*
X050150Y002512D03*
X048969Y001725D03*
X046607Y001725D03*
X045819Y001725D03*
X045032Y001725D03*
X044244Y001725D03*
X043457Y001725D03*
X042670Y001725D03*
X041882Y001725D03*
X041095Y001725D03*
X040307Y001725D03*
X039520Y001725D03*
X038733Y001725D03*
X037945Y001725D03*
X037158Y001725D03*
X036370Y001725D03*
X035583Y001725D03*
X034796Y001725D03*
X034008Y001725D03*
X033221Y001725D03*
X032433Y001725D03*
X031646Y001725D03*
X030859Y001725D03*
X030071Y001725D03*
X029284Y001725D03*
X028496Y001725D03*
X027709Y001725D03*
X026922Y001725D03*
X026134Y001725D03*
X025347Y001725D03*
X024559Y001725D03*
X023772Y001725D03*
X022985Y001725D03*
X022197Y001725D03*
X021410Y001725D03*
X020622Y001725D03*
X019835Y001725D03*
X019048Y001725D03*
X018260Y001725D03*
X017473Y001725D03*
X016685Y001725D03*
X015898Y001725D03*
X015111Y001725D03*
X014323Y001725D03*
X013536Y001725D03*
X012748Y001725D03*
X011961Y001725D03*
X011174Y001725D03*
X010386Y001725D03*
X009599Y001725D03*
X008811Y001725D03*
X008024Y001725D03*
X007237Y001725D03*
X006449Y001725D03*
X005662Y001725D03*
X004874Y001725D03*
X004087Y001725D03*
X003300Y001725D03*
X003300Y002906D03*
X004874Y002906D03*
X006449Y002906D03*
X008024Y002906D03*
X009599Y002906D03*
X010681Y003595D03*
X010681Y003792D03*
X010878Y003792D03*
X010878Y003792D03*
X010878Y003595D03*
X013142Y003693D03*
X013142Y003300D03*
X015898Y003300D03*
X015898Y003693D03*
X015898Y004087D03*
X015504Y004087D03*
X013536Y004087D03*
X013142Y004087D03*
X017276Y003201D03*
X018359Y003201D03*
X019343Y003201D03*
X020426Y002512D03*
X021410Y004874D03*
X022197Y005662D03*
X020819Y005859D03*
X019835Y005859D03*
X021016Y006449D03*
X022197Y007237D03*
X023772Y007237D03*
X025347Y007237D03*
X026922Y007237D03*
X028496Y007237D03*
X030071Y007237D03*
X031646Y007237D03*
X033221Y007237D03*
X034796Y007237D03*
X036370Y007237D03*
X037945Y007237D03*
X039520Y007237D03*
X041095Y007237D03*
X042276Y008024D03*
X044244Y007630D03*
X045032Y008418D03*
X042670Y008811D03*
X041095Y008811D03*
X039520Y008811D03*
X037945Y008811D03*
X036370Y008811D03*
X034796Y008811D03*
X033221Y008811D03*
X031646Y008811D03*
X030071Y008811D03*
X028496Y008811D03*
X026626Y010189D03*
X026430Y010189D03*
X026331Y010681D03*
X026331Y010878D03*
X024953Y010878D03*
X024953Y010681D03*
X023772Y010386D03*
X022197Y010386D03*
X019048Y010386D03*
X017473Y010386D03*
X015898Y010386D03*
X014323Y010386D03*
X012748Y010386D03*
X011174Y010386D03*
X008910Y009304D03*
X008713Y009304D03*
X008319Y009304D03*
X008122Y009304D03*
X008024Y008811D03*
X006449Y008811D03*
X004874Y008811D03*
X003300Y008811D03*
X000937Y008811D03*
X000937Y008024D03*
X000937Y007237D03*
X003300Y007237D03*
X004874Y007237D03*
X006449Y007237D03*
X008024Y007237D03*
X009008Y007827D03*
X010189Y007827D03*
X011370Y007827D03*
X011961Y007237D03*
X013536Y007237D03*
X013930Y007237D03*
X013930Y006843D03*
X013536Y006843D03*
X012945Y006843D03*
X016095Y007040D03*
X015898Y008811D03*
X014323Y008811D03*
X012748Y008811D03*
X011174Y008811D03*
X009599Y008811D03*
X007532Y010386D03*
X006252Y010386D03*
X004678Y010386D03*
X000937Y010386D03*
X000937Y009599D03*
X000937Y011174D03*
X000937Y011961D03*
X003300Y011961D03*
X000937Y012748D03*
X000937Y013536D03*
X000937Y014323D03*
X002119Y014323D03*
X003300Y014323D03*
X004284Y014520D03*
X004284Y014914D03*
X004284Y015307D03*
X003300Y015504D03*
X004284Y015701D03*
X004678Y015701D03*
X005071Y015701D03*
X004874Y016685D03*
X005662Y016685D03*
X006449Y016685D03*
X007237Y016685D03*
X008024Y016685D03*
X008811Y016685D03*
X009599Y016685D03*
X010386Y016685D03*
X011174Y016685D03*
X011961Y016685D03*
X012355Y016292D03*
X012355Y015504D03*
X012355Y014717D03*
X012355Y013930D03*
X012748Y013536D03*
X013142Y013142D03*
X013930Y013142D03*
X014717Y013142D03*
X015504Y013142D03*
X016292Y013142D03*
X017079Y013142D03*
X017867Y013142D03*
X018654Y013142D03*
X019441Y013142D03*
X021410Y013142D03*
X022197Y013142D03*
X022985Y013142D03*
X023772Y013142D03*
X024559Y013142D03*
X027119Y012355D03*
X028496Y011961D03*
X030071Y011961D03*
X033221Y011961D03*
X034796Y011961D03*
X036370Y011961D03*
X037945Y011961D03*
X039520Y011961D03*
X041095Y011961D03*
X042670Y011961D03*
X042670Y010386D03*
X041095Y010386D03*
X039520Y010386D03*
X037945Y010386D03*
X036370Y010386D03*
X034796Y010386D03*
X033221Y010386D03*
X031646Y010386D03*
X030071Y010386D03*
X028496Y010386D03*
X023772Y008811D03*
X022197Y008811D03*
X019048Y008811D03*
X017473Y008811D03*
X020918Y011370D03*
X021607Y011370D03*
X022197Y011961D03*
X023772Y011961D03*
X028103Y013142D03*
X028890Y013142D03*
X029678Y013142D03*
X030465Y013142D03*
X031252Y013142D03*
X032040Y013142D03*
X032827Y013142D03*
X033221Y013536D03*
X033615Y013930D03*
X034796Y013536D03*
X036370Y013536D03*
X037945Y013536D03*
X039520Y013536D03*
X041095Y013536D03*
X042670Y013536D03*
X044244Y013536D03*
X045819Y013536D03*
X047394Y013536D03*
X047788Y013831D03*
X048870Y014225D03*
X049756Y014225D03*
X049756Y014815D03*
X048969Y015111D03*
X049756Y015406D03*
X049756Y015603D03*
X047394Y015111D03*
X045819Y015111D03*
X044244Y015111D03*
X042670Y015111D03*
X041095Y015111D03*
X039520Y015111D03*
X037945Y015111D03*
X036370Y015111D03*
X034796Y015111D03*
X033615Y015504D03*
X033615Y014717D03*
X033615Y016292D03*
X034008Y016685D03*
X034796Y016685D03*
X035583Y016685D03*
X036370Y016685D03*
X037158Y016685D03*
X037945Y016685D03*
X038733Y016685D03*
X039520Y016685D03*
X040307Y016685D03*
X041095Y016685D03*
X041882Y016685D03*
X042670Y016685D03*
X043457Y016685D03*
X044244Y016685D03*
X045032Y016685D03*
X045819Y016685D03*
X046607Y016685D03*
X047394Y016685D03*
X048181Y016685D03*
X048969Y016685D03*
X049756Y016685D03*
X050544Y016685D03*
X051331Y016685D03*
X052119Y016685D03*
X052906Y016685D03*
X053693Y016685D03*
X054481Y016685D03*
X055268Y016685D03*
X056056Y016685D03*
X054481Y016095D03*
X054185Y016095D03*
X053792Y016095D03*
X053496Y016095D03*
X053201Y016095D03*
X052906Y016095D03*
X052611Y016095D03*
X052611Y015800D03*
X052611Y015504D03*
X052611Y015209D03*
X052611Y014914D03*
X052611Y014619D03*
X052611Y014323D03*
X052611Y014028D03*
X051823Y013634D03*
X050741Y013339D03*
X051823Y012748D03*
X051331Y012355D03*
X053300Y012355D03*
X053300Y012059D03*
X054284Y011666D03*
X054284Y011370D03*
X054284Y010780D03*
X053103Y010780D03*
X052512Y010780D03*
X052020Y010485D03*
X051331Y010780D03*
X049953Y010681D03*
X049166Y010091D03*
X049166Y009894D03*
X048181Y010189D03*
X046804Y010189D03*
X045819Y009205D03*
X049855Y008615D03*
X050347Y008122D03*
X050347Y007926D03*
X049756Y007827D03*
X049559Y007827D03*
X049264Y007827D03*
X049067Y007827D03*
X051922Y008122D03*
X052611Y007827D03*
X053300Y008024D03*
X053595Y008615D03*
X053792Y008615D03*
X052020Y008910D03*
X050544Y009008D03*
X050544Y008811D03*
X053103Y009402D03*
X055268Y009205D03*
X056843Y009205D03*
X058615Y008811D03*
X058615Y008024D03*
X058418Y007237D03*
X058418Y006449D03*
X058418Y005662D03*
X058418Y004874D03*
X058418Y004087D03*
X057237Y004087D03*
X056056Y004087D03*
X053103Y004087D03*
X053103Y003890D03*
X053693Y002906D03*
X054087Y002906D03*
X054087Y002512D03*
X053693Y002512D03*
X056056Y002906D03*
X056056Y001725D03*
X055268Y001725D03*
X044244Y005662D03*
X042670Y006056D03*
X042178Y005760D03*
X043457Y006843D03*
X047000Y006252D03*
X047197Y006252D03*
X047985Y006056D03*
X048181Y006056D03*
X050052Y006056D03*
X050248Y006056D03*
X050248Y005859D03*
X050052Y005859D03*
X052119Y007040D03*
X052611Y006941D03*
X058615Y009599D03*
X058418Y010386D03*
X058418Y011174D03*
X058418Y011961D03*
X058418Y012748D03*
X058418Y013536D03*
X058418Y014323D03*
X057237Y014323D03*
X056056Y014323D03*
X054481Y014323D03*
X054481Y014619D03*
X053496Y014619D03*
X053496Y014323D03*
X053496Y014028D03*
X054481Y014028D03*
X055268Y013634D03*
X055268Y013437D03*
X055268Y013142D03*
X055268Y012945D03*
X053398Y013241D03*
X049264Y012650D03*
X048181Y012552D03*
X049166Y012945D03*
X049166Y013142D03*
X053496Y014914D03*
X054481Y014914D03*
X054481Y015209D03*
X054481Y015504D03*
X053496Y015504D03*
X053496Y015209D03*
X053496Y015800D03*
X054481Y015800D03*
X056056Y015504D03*
X037945Y005662D03*
X036370Y005662D03*
X034796Y005662D03*
X033221Y005662D03*
X031646Y005662D03*
X030071Y005662D03*
X028496Y005662D03*
X026922Y005662D03*
X025347Y005662D03*
X023772Y005662D03*
X008024Y005662D03*
X006449Y005662D03*
X004874Y005662D03*
X000937Y005662D03*
X000937Y006449D03*
X000937Y004874D03*
X000937Y004087D03*
X002119Y004087D03*
X003300Y004087D03*
X004874Y004087D03*
X006449Y004087D03*
X008024Y004087D03*
X012748Y011961D03*
X014323Y011961D03*
X015898Y011961D03*
X017473Y011961D03*
X019048Y011961D03*
X008221Y012945D03*
X006843Y013536D03*
X006843Y013930D03*
X008221Y015701D03*
X008418Y015701D03*
X004087Y016685D03*
X003300Y016685D03*
D42*
X007138Y015248D02*
X007729Y015248D01*
X027079Y009067D02*
X027709Y009697D01*
X043752Y009697D01*
X046016Y011961D01*
X048378Y011961D01*
X048870Y012453D01*
X048870Y013241D01*
X049067Y013437D01*
X050150Y013437D01*
X050288Y013300D01*
X050288Y013044D01*
X050642Y013044D01*
X050839Y012847D01*
X050839Y010485D01*
X051036Y010288D01*
X052020Y010288D01*
X052020Y010485D01*
X052020Y010288D02*
X053201Y010288D01*
X053398Y010485D01*
X053398Y011567D01*
X053004Y011961D01*
X053004Y012453D01*
X053201Y012650D01*
X053792Y012650D01*
X054087Y012650D01*
X054146Y012709D01*
X054146Y013044D01*
X054146Y013536D02*
X053693Y013536D01*
X053398Y013241D01*
X051626Y013241D02*
X051626Y012945D01*
X051528Y012847D01*
X050839Y012847D01*
X047788Y013831D02*
X044146Y013831D01*
X043713Y013398D01*
X043713Y011961D01*
X050288Y009993D02*
X050445Y010150D01*
X050445Y010485D01*
X050839Y010485D01*
X053201Y010288D02*
X053201Y009894D01*
X053536Y009894D01*
X053693Y009737D01*
X053693Y009697D01*
X054284Y009107D01*
X054284Y009067D01*
X054284Y009737D02*
X054619Y009737D01*
X054776Y009894D01*
X057237Y009894D01*
X057433Y009697D01*
X057827Y009697D01*
X058122Y009402D01*
X058122Y008697D01*
X057630Y008205D01*
X048870Y008024D02*
X048772Y007926D01*
X048181Y007926D01*
X047808Y007552D01*
X047709Y007552D01*
X048870Y008024D02*
X048870Y008516D01*
X048772Y008615D01*
X048477Y008615D01*
X056646Y011666D02*
X056646Y012256D01*
X056646Y012453D01*
X056449Y012650D01*
X054087Y012650D01*
X027079Y009067D02*
X026528Y009067D01*
X026272Y009008D01*
X025642Y009008D01*
X019475Y003496D02*
X019475Y002930D01*
X019638Y002930D01*
X019638Y002850D01*
X019475Y002850D01*
X019475Y002219D01*
X019486Y002178D01*
X019507Y002142D01*
X019537Y002112D01*
X019573Y002091D01*
X019614Y002080D01*
X019638Y002080D01*
X019638Y001097D01*
X018063Y001097D01*
X018063Y003496D01*
X018475Y003496D01*
X018475Y002930D01*
X018795Y002930D01*
X018795Y002850D01*
X018875Y002850D01*
X018875Y002080D01*
X019056Y002080D01*
X019097Y002091D01*
X019133Y002112D01*
X019163Y002142D01*
X019184Y002178D01*
X019195Y002219D01*
X019195Y002850D01*
X018875Y002850D01*
X018875Y002930D01*
X019195Y002930D01*
X019195Y003496D01*
X019475Y003496D01*
X019475Y003426D02*
X019195Y003426D01*
X019195Y003307D02*
X019475Y003307D01*
X019475Y003189D02*
X019195Y003189D01*
X019195Y003070D02*
X019475Y003070D01*
X019475Y002952D02*
X019195Y002952D01*
X019195Y002833D02*
X019475Y002833D01*
X019475Y002715D02*
X019195Y002715D01*
X019195Y002596D02*
X019475Y002596D01*
X019475Y002478D02*
X019195Y002478D01*
X019195Y002359D02*
X019475Y002359D01*
X019475Y002241D02*
X019195Y002241D01*
X019144Y002122D02*
X019527Y002122D01*
X019638Y002004D02*
X018063Y002004D01*
X018063Y002122D02*
X018527Y002122D01*
X018537Y002112D02*
X018507Y002142D01*
X018486Y002178D01*
X018475Y002219D01*
X018475Y002850D01*
X018795Y002850D01*
X018795Y002080D01*
X018614Y002080D01*
X018573Y002091D01*
X018537Y002112D01*
X018475Y002241D02*
X018063Y002241D01*
X018063Y002359D02*
X018475Y002359D01*
X018475Y002478D02*
X018063Y002478D01*
X018063Y002596D02*
X018475Y002596D01*
X018475Y002715D02*
X018063Y002715D01*
X018063Y002833D02*
X018475Y002833D01*
X018475Y002952D02*
X018063Y002952D01*
X018063Y003070D02*
X018475Y003070D01*
X018475Y003189D02*
X018063Y003189D01*
X018063Y003307D02*
X018475Y003307D01*
X018475Y003426D02*
X018063Y003426D01*
X018795Y002833D02*
X018875Y002833D01*
X018875Y002715D02*
X018795Y002715D01*
X018795Y002596D02*
X018875Y002596D01*
X018875Y002478D02*
X018795Y002478D01*
X018795Y002359D02*
X018875Y002359D01*
X018875Y002241D02*
X018795Y002241D01*
X018795Y002122D02*
X018875Y002122D01*
X019638Y001885D02*
X018063Y001885D01*
X018063Y001767D02*
X019638Y001767D01*
X019638Y001648D02*
X018063Y001648D01*
X018063Y001530D02*
X019638Y001530D01*
X019638Y001411D02*
X018063Y001411D01*
X018063Y001293D02*
X019638Y001293D01*
X019638Y001174D02*
X018063Y001174D01*
D43*
X020426Y002512D02*
X020426Y002906D01*
X020819Y002906D01*
X020835Y002890D01*
X020426Y002906D02*
X020426Y006548D01*
X019343Y007630D01*
X012355Y007630D01*
X011666Y008319D01*
X011666Y011174D01*
X011272Y011567D01*
X010189Y011567D01*
X010170Y011548D01*
X010170Y011134D01*
X010189Y011567D02*
X008811Y011567D01*
X008774Y011530D01*
X008774Y011528D01*
X008774Y010721D01*
X008811Y010426D01*
X008221Y010426D02*
X008274Y010721D01*
X008274Y011528D01*
X008274Y012211D01*
X008418Y012355D01*
X009441Y012355D01*
X009796Y012000D01*
X007774Y011528D02*
X007774Y010924D01*
X007630Y010780D01*
X007040Y010780D01*
X006843Y010977D01*
X006843Y011961D01*
X006449Y012355D01*
X005071Y012355D01*
X004715Y012711D01*
X004715Y013575D01*
X005215Y011528D02*
X005268Y011475D01*
X005465Y011475D01*
X009422Y011134D02*
X009422Y010465D01*
X009796Y010091D01*
X009717Y006252D02*
X010504Y005465D01*
X011115Y005465D01*
X012807Y005465D02*
X014894Y005465D01*
X014520Y005485D01*
X016075Y005485D02*
X016075Y005288D01*
X016469Y004894D01*
X018831Y004894D01*
X018835Y004890D01*
X018851Y004874D01*
X016095Y005504D02*
X016075Y005485D01*
X011410Y003693D02*
X010780Y003693D01*
X010681Y003595D01*
X046449Y004953D02*
X046607Y005052D01*
X046607Y005071D01*
X046508Y004973D01*
X046607Y005071D02*
X046607Y007237D01*
X046744Y007374D01*
X047099Y007374D01*
X047532Y007374D01*
X047709Y007552D01*
X048457Y007552D02*
X048457Y007158D01*
X048910Y006705D01*
X049067Y006705D01*
X049658Y006705D02*
X050485Y006705D01*
X050544Y006646D01*
X050544Y007433D01*
X050760Y007650D01*
X050819Y007650D01*
X051056Y007650D01*
X051233Y007827D01*
X051233Y008221D01*
X051056Y008398D01*
X050819Y008398D01*
X051666Y008575D02*
X051843Y008398D01*
X051922Y008319D01*
X051922Y008122D01*
X051666Y008575D02*
X051666Y008910D01*
X052020Y008910D01*
X052611Y007827D02*
X052709Y007729D01*
X052709Y007433D01*
X051843Y007650D02*
X051449Y007650D01*
X050996Y007197D01*
X050996Y007040D01*
X050544Y006646D02*
X050741Y006449D01*
X050996Y006449D01*
X050996Y005859D01*
X051036Y005859D02*
X050642Y005859D01*
X050544Y005957D01*
X050248Y005957D01*
X050347Y006009D02*
X049953Y006009D01*
X049953Y006056D02*
X050052Y006154D01*
X050248Y006154D01*
X050347Y006056D01*
X050347Y005859D01*
X050248Y005760D01*
X050052Y005760D01*
X049953Y005859D01*
X049953Y006056D01*
X049961Y005851D02*
X050339Y005851D01*
X049658Y006351D02*
X049559Y006252D01*
X048674Y006252D01*
X048457Y006469D01*
X048457Y006528D01*
X048457Y006764D01*
X048280Y006941D01*
X047886Y006941D01*
X047709Y006764D01*
X047709Y006528D01*
X049658Y006351D02*
X049658Y006705D01*
X049658Y006744D01*
X049756Y006843D01*
X051036Y005268D02*
X051626Y005859D01*
X051666Y005859D01*
X051666Y005268D02*
X051489Y005091D01*
X051489Y003989D01*
X051036Y005268D02*
X050996Y005268D01*
D44*
X011410Y003693D02*
X009993Y003693D01*
D45*
X006215Y011528D02*
X005715Y011528D01*
X005215Y011528D01*
X005229Y011528D01*
X005268Y011567D01*
X005215Y011528D02*
X004715Y011528D01*
X005215Y013575D02*
X005715Y013575D01*
X005943Y013575D01*
X005957Y013590D01*
X005715Y013575D02*
X006215Y013575D01*
D46*
X005957Y013590D02*
X005957Y014914D01*
X006025Y014914D01*
X005465Y011475D02*
X005465Y010386D01*
M02*
