G75*
G70*
%OFA0B0*%
%FSLAX24Y24*%
%IPPOS*%
%LPD*%
%AMOC8*
5,1,8,0,0,1.08239X$1,22.5*
%
%ADD10C,0.0000*%
%ADD11C,0.0030*%
%ADD12R,0.0118X0.0059*%
%ADD13R,0.0118X0.0118*%
%ADD14C,0.0060*%
%ADD15R,0.0050X0.0010*%
%ADD16R,0.0040X0.0010*%
%ADD17R,0.0130X0.0010*%
%ADD18R,0.0070X0.0010*%
%ADD19R,0.0180X0.0010*%
%ADD20R,0.0080X0.0010*%
%ADD21R,0.0210X0.0010*%
%ADD22R,0.0090X0.0010*%
%ADD23R,0.0060X0.0010*%
%ADD24R,0.0010X0.0010*%
%ADD25R,0.0030X0.0010*%
%ADD26R,0.0020X0.0010*%
%ADD27R,0.0220X0.0010*%
%ADD28R,0.0100X0.0010*%
%ADD29R,0.0110X0.0010*%
%ADD30R,0.0120X0.0010*%
%ADD31R,0.0140X0.0010*%
%ADD32R,0.0150X0.0010*%
%ADD33R,0.0200X0.0010*%
%ADD34R,0.0170X0.0010*%
%ADD35R,0.0190X0.0010*%
%ADD36R,0.0160X0.0010*%
%ADD37C,0.0040*%
%ADD38C,0.0080*%
%ADD39R,0.0197X0.0984*%
%ADD40C,0.0050*%
%ADD41R,0.0059X0.0118*%
D10*
X001725Y000937D02*
X037945Y000937D01*
X037315Y002512D02*
X037317Y002562D01*
X037323Y002612D01*
X037333Y002661D01*
X037347Y002709D01*
X037364Y002756D01*
X037385Y002801D01*
X037410Y002845D01*
X037438Y002886D01*
X037470Y002925D01*
X037504Y002962D01*
X037541Y002996D01*
X037581Y003026D01*
X037623Y003053D01*
X037667Y003077D01*
X037713Y003098D01*
X037760Y003114D01*
X037808Y003127D01*
X037858Y003136D01*
X037907Y003141D01*
X037958Y003142D01*
X038008Y003139D01*
X038057Y003132D01*
X038106Y003121D01*
X038154Y003106D01*
X038200Y003088D01*
X038245Y003066D01*
X038288Y003040D01*
X038329Y003011D01*
X038368Y002979D01*
X038404Y002944D01*
X038436Y002906D01*
X038466Y002866D01*
X038493Y002823D01*
X038516Y002779D01*
X038535Y002733D01*
X038551Y002685D01*
X038563Y002636D01*
X038571Y002587D01*
X038575Y002537D01*
X038575Y002487D01*
X038571Y002437D01*
X038563Y002388D01*
X038551Y002339D01*
X038535Y002291D01*
X038516Y002245D01*
X038493Y002201D01*
X038466Y002158D01*
X038436Y002118D01*
X038404Y002080D01*
X038368Y002045D01*
X038329Y002013D01*
X038288Y001984D01*
X038245Y001958D01*
X038200Y001936D01*
X038154Y001918D01*
X038106Y001903D01*
X038057Y001892D01*
X038008Y001885D01*
X037958Y001882D01*
X037907Y001883D01*
X037858Y001888D01*
X037808Y001897D01*
X037760Y001910D01*
X037713Y001926D01*
X037667Y001947D01*
X037623Y001971D01*
X037581Y001998D01*
X037541Y002028D01*
X037504Y002062D01*
X037470Y002099D01*
X037438Y002138D01*
X037410Y002179D01*
X037385Y002223D01*
X037364Y002268D01*
X037347Y002315D01*
X037333Y002363D01*
X037323Y002412D01*
X037317Y002462D01*
X037315Y002512D01*
X037945Y000937D02*
X038022Y000939D01*
X038099Y000945D01*
X038176Y000954D01*
X038252Y000967D01*
X038328Y000984D01*
X038402Y001005D01*
X038476Y001029D01*
X038548Y001057D01*
X038618Y001088D01*
X038687Y001123D01*
X038755Y001161D01*
X038820Y001202D01*
X038883Y001247D01*
X038944Y001295D01*
X039003Y001345D01*
X039059Y001398D01*
X039112Y001454D01*
X039162Y001513D01*
X039210Y001574D01*
X039255Y001637D01*
X039296Y001702D01*
X039334Y001770D01*
X039369Y001839D01*
X039400Y001909D01*
X039428Y001981D01*
X039452Y002055D01*
X039473Y002129D01*
X039490Y002205D01*
X039503Y002281D01*
X039512Y002358D01*
X039518Y002435D01*
X039520Y002512D01*
X039520Y015898D01*
X037315Y015898D02*
X037317Y015948D01*
X037323Y015998D01*
X037333Y016047D01*
X037347Y016095D01*
X037364Y016142D01*
X037385Y016187D01*
X037410Y016231D01*
X037438Y016272D01*
X037470Y016311D01*
X037504Y016348D01*
X037541Y016382D01*
X037581Y016412D01*
X037623Y016439D01*
X037667Y016463D01*
X037713Y016484D01*
X037760Y016500D01*
X037808Y016513D01*
X037858Y016522D01*
X037907Y016527D01*
X037958Y016528D01*
X038008Y016525D01*
X038057Y016518D01*
X038106Y016507D01*
X038154Y016492D01*
X038200Y016474D01*
X038245Y016452D01*
X038288Y016426D01*
X038329Y016397D01*
X038368Y016365D01*
X038404Y016330D01*
X038436Y016292D01*
X038466Y016252D01*
X038493Y016209D01*
X038516Y016165D01*
X038535Y016119D01*
X038551Y016071D01*
X038563Y016022D01*
X038571Y015973D01*
X038575Y015923D01*
X038575Y015873D01*
X038571Y015823D01*
X038563Y015774D01*
X038551Y015725D01*
X038535Y015677D01*
X038516Y015631D01*
X038493Y015587D01*
X038466Y015544D01*
X038436Y015504D01*
X038404Y015466D01*
X038368Y015431D01*
X038329Y015399D01*
X038288Y015370D01*
X038245Y015344D01*
X038200Y015322D01*
X038154Y015304D01*
X038106Y015289D01*
X038057Y015278D01*
X038008Y015271D01*
X037958Y015268D01*
X037907Y015269D01*
X037858Y015274D01*
X037808Y015283D01*
X037760Y015296D01*
X037713Y015312D01*
X037667Y015333D01*
X037623Y015357D01*
X037581Y015384D01*
X037541Y015414D01*
X037504Y015448D01*
X037470Y015485D01*
X037438Y015524D01*
X037410Y015565D01*
X037385Y015609D01*
X037364Y015654D01*
X037347Y015701D01*
X037333Y015749D01*
X037323Y015798D01*
X037317Y015848D01*
X037315Y015898D01*
X037945Y017473D02*
X038022Y017471D01*
X038099Y017465D01*
X038176Y017456D01*
X038252Y017443D01*
X038328Y017426D01*
X038402Y017405D01*
X038476Y017381D01*
X038548Y017353D01*
X038618Y017322D01*
X038687Y017287D01*
X038755Y017249D01*
X038820Y017208D01*
X038883Y017163D01*
X038944Y017115D01*
X039003Y017065D01*
X039059Y017012D01*
X039112Y016956D01*
X039162Y016897D01*
X039210Y016836D01*
X039255Y016773D01*
X039296Y016708D01*
X039334Y016640D01*
X039369Y016571D01*
X039400Y016501D01*
X039428Y016429D01*
X039452Y016355D01*
X039473Y016281D01*
X039490Y016205D01*
X039503Y016129D01*
X039512Y016052D01*
X039518Y015975D01*
X039520Y015898D01*
X037945Y017473D02*
X001725Y017473D01*
X001095Y015898D02*
X001097Y015948D01*
X001103Y015998D01*
X001113Y016047D01*
X001127Y016095D01*
X001144Y016142D01*
X001165Y016187D01*
X001190Y016231D01*
X001218Y016272D01*
X001250Y016311D01*
X001284Y016348D01*
X001321Y016382D01*
X001361Y016412D01*
X001403Y016439D01*
X001447Y016463D01*
X001493Y016484D01*
X001540Y016500D01*
X001588Y016513D01*
X001638Y016522D01*
X001687Y016527D01*
X001738Y016528D01*
X001788Y016525D01*
X001837Y016518D01*
X001886Y016507D01*
X001934Y016492D01*
X001980Y016474D01*
X002025Y016452D01*
X002068Y016426D01*
X002109Y016397D01*
X002148Y016365D01*
X002184Y016330D01*
X002216Y016292D01*
X002246Y016252D01*
X002273Y016209D01*
X002296Y016165D01*
X002315Y016119D01*
X002331Y016071D01*
X002343Y016022D01*
X002351Y015973D01*
X002355Y015923D01*
X002355Y015873D01*
X002351Y015823D01*
X002343Y015774D01*
X002331Y015725D01*
X002315Y015677D01*
X002296Y015631D01*
X002273Y015587D01*
X002246Y015544D01*
X002216Y015504D01*
X002184Y015466D01*
X002148Y015431D01*
X002109Y015399D01*
X002068Y015370D01*
X002025Y015344D01*
X001980Y015322D01*
X001934Y015304D01*
X001886Y015289D01*
X001837Y015278D01*
X001788Y015271D01*
X001738Y015268D01*
X001687Y015269D01*
X001638Y015274D01*
X001588Y015283D01*
X001540Y015296D01*
X001493Y015312D01*
X001447Y015333D01*
X001403Y015357D01*
X001361Y015384D01*
X001321Y015414D01*
X001284Y015448D01*
X001250Y015485D01*
X001218Y015524D01*
X001190Y015565D01*
X001165Y015609D01*
X001144Y015654D01*
X001127Y015701D01*
X001113Y015749D01*
X001103Y015798D01*
X001097Y015848D01*
X001095Y015898D01*
X000150Y015898D02*
X000152Y015975D01*
X000158Y016052D01*
X000167Y016129D01*
X000180Y016205D01*
X000197Y016281D01*
X000218Y016355D01*
X000242Y016429D01*
X000270Y016501D01*
X000301Y016571D01*
X000336Y016640D01*
X000374Y016708D01*
X000415Y016773D01*
X000460Y016836D01*
X000508Y016897D01*
X000558Y016956D01*
X000611Y017012D01*
X000667Y017065D01*
X000726Y017115D01*
X000787Y017163D01*
X000850Y017208D01*
X000915Y017249D01*
X000983Y017287D01*
X001052Y017322D01*
X001122Y017353D01*
X001194Y017381D01*
X001268Y017405D01*
X001342Y017426D01*
X001418Y017443D01*
X001494Y017456D01*
X001571Y017465D01*
X001648Y017471D01*
X001725Y017473D01*
X000150Y015898D02*
X000150Y002512D01*
X001095Y002512D02*
X001097Y002562D01*
X001103Y002612D01*
X001113Y002661D01*
X001127Y002709D01*
X001144Y002756D01*
X001165Y002801D01*
X001190Y002845D01*
X001218Y002886D01*
X001250Y002925D01*
X001284Y002962D01*
X001321Y002996D01*
X001361Y003026D01*
X001403Y003053D01*
X001447Y003077D01*
X001493Y003098D01*
X001540Y003114D01*
X001588Y003127D01*
X001638Y003136D01*
X001687Y003141D01*
X001738Y003142D01*
X001788Y003139D01*
X001837Y003132D01*
X001886Y003121D01*
X001934Y003106D01*
X001980Y003088D01*
X002025Y003066D01*
X002068Y003040D01*
X002109Y003011D01*
X002148Y002979D01*
X002184Y002944D01*
X002216Y002906D01*
X002246Y002866D01*
X002273Y002823D01*
X002296Y002779D01*
X002315Y002733D01*
X002331Y002685D01*
X002343Y002636D01*
X002351Y002587D01*
X002355Y002537D01*
X002355Y002487D01*
X002351Y002437D01*
X002343Y002388D01*
X002331Y002339D01*
X002315Y002291D01*
X002296Y002245D01*
X002273Y002201D01*
X002246Y002158D01*
X002216Y002118D01*
X002184Y002080D01*
X002148Y002045D01*
X002109Y002013D01*
X002068Y001984D01*
X002025Y001958D01*
X001980Y001936D01*
X001934Y001918D01*
X001886Y001903D01*
X001837Y001892D01*
X001788Y001885D01*
X001738Y001882D01*
X001687Y001883D01*
X001638Y001888D01*
X001588Y001897D01*
X001540Y001910D01*
X001493Y001926D01*
X001447Y001947D01*
X001403Y001971D01*
X001361Y001998D01*
X001321Y002028D01*
X001284Y002062D01*
X001250Y002099D01*
X001218Y002138D01*
X001190Y002179D01*
X001165Y002223D01*
X001144Y002268D01*
X001127Y002315D01*
X001113Y002363D01*
X001103Y002412D01*
X001097Y002462D01*
X001095Y002512D01*
X000150Y002512D02*
X000152Y002435D01*
X000158Y002358D01*
X000167Y002281D01*
X000180Y002205D01*
X000197Y002129D01*
X000218Y002055D01*
X000242Y001981D01*
X000270Y001909D01*
X000301Y001839D01*
X000336Y001770D01*
X000374Y001702D01*
X000415Y001637D01*
X000460Y001574D01*
X000508Y001513D01*
X000558Y001454D01*
X000611Y001398D01*
X000667Y001345D01*
X000726Y001295D01*
X000787Y001247D01*
X000850Y001202D01*
X000915Y001161D01*
X000983Y001123D01*
X001052Y001088D01*
X001122Y001057D01*
X001194Y001029D01*
X001268Y001005D01*
X001342Y000984D01*
X001418Y000967D01*
X001494Y000954D01*
X001571Y000945D01*
X001648Y000939D01*
X001725Y000937D01*
X023782Y010593D02*
X023784Y010620D01*
X023790Y010647D01*
X023799Y010673D01*
X023812Y010697D01*
X023828Y010720D01*
X023847Y010739D01*
X023869Y010756D01*
X023893Y010770D01*
X023918Y010780D01*
X023945Y010787D01*
X023972Y010790D01*
X024000Y010789D01*
X024027Y010784D01*
X024053Y010776D01*
X024077Y010764D01*
X024100Y010748D01*
X024121Y010730D01*
X024138Y010709D01*
X024153Y010685D01*
X024164Y010660D01*
X024172Y010634D01*
X024176Y010607D01*
X024176Y010579D01*
X024172Y010552D01*
X024164Y010526D01*
X024153Y010501D01*
X024138Y010477D01*
X024121Y010456D01*
X024100Y010438D01*
X024078Y010422D01*
X024053Y010410D01*
X024027Y010402D01*
X024000Y010397D01*
X023972Y010396D01*
X023945Y010399D01*
X023918Y010406D01*
X023893Y010416D01*
X023869Y010430D01*
X023847Y010447D01*
X023828Y010466D01*
X023812Y010489D01*
X023799Y010513D01*
X023790Y010539D01*
X023784Y010566D01*
X023782Y010593D01*
X025811Y012681D02*
X025813Y012712D01*
X025819Y012743D01*
X025828Y012773D01*
X025841Y012802D01*
X025858Y012829D01*
X025878Y012853D01*
X025900Y012875D01*
X025926Y012894D01*
X025953Y012910D01*
X025982Y012922D01*
X026012Y012931D01*
X026043Y012936D01*
X026075Y012937D01*
X026106Y012934D01*
X026137Y012927D01*
X026167Y012917D01*
X026195Y012903D01*
X026221Y012885D01*
X026245Y012865D01*
X026266Y012841D01*
X026285Y012816D01*
X026300Y012788D01*
X026311Y012759D01*
X026319Y012728D01*
X026323Y012697D01*
X026323Y012665D01*
X026319Y012634D01*
X026311Y012603D01*
X026300Y012574D01*
X026285Y012546D01*
X026266Y012521D01*
X026245Y012497D01*
X026221Y012477D01*
X026195Y012459D01*
X026167Y012445D01*
X026137Y012435D01*
X026106Y012428D01*
X026075Y012425D01*
X026043Y012426D01*
X026012Y012431D01*
X025982Y012440D01*
X025953Y012452D01*
X025926Y012468D01*
X025900Y012487D01*
X025878Y012509D01*
X025858Y012533D01*
X025841Y012560D01*
X025828Y012589D01*
X025819Y012619D01*
X025813Y012650D01*
X025811Y012681D01*
X027808Y004323D02*
X027810Y004357D01*
X027816Y004391D01*
X027826Y004424D01*
X027839Y004455D01*
X027857Y004485D01*
X027877Y004513D01*
X027901Y004538D01*
X027927Y004560D01*
X027955Y004578D01*
X027986Y004594D01*
X028018Y004606D01*
X028052Y004614D01*
X028086Y004618D01*
X028120Y004618D01*
X028154Y004614D01*
X028188Y004606D01*
X028220Y004594D01*
X028250Y004578D01*
X028279Y004560D01*
X028305Y004538D01*
X028329Y004513D01*
X028349Y004485D01*
X028367Y004455D01*
X028380Y004424D01*
X028390Y004391D01*
X028396Y004357D01*
X028398Y004323D01*
X028396Y004289D01*
X028390Y004255D01*
X028380Y004222D01*
X028367Y004191D01*
X028349Y004161D01*
X028329Y004133D01*
X028305Y004108D01*
X028279Y004086D01*
X028251Y004068D01*
X028220Y004052D01*
X028188Y004040D01*
X028154Y004032D01*
X028120Y004028D01*
X028086Y004028D01*
X028052Y004032D01*
X028018Y004040D01*
X027986Y004052D01*
X027955Y004068D01*
X027927Y004086D01*
X027901Y004108D01*
X027877Y004133D01*
X027857Y004161D01*
X027839Y004191D01*
X027826Y004222D01*
X027816Y004255D01*
X027810Y004289D01*
X027808Y004323D01*
X031390Y002807D02*
X031392Y002833D01*
X031398Y002859D01*
X031408Y002884D01*
X031421Y002907D01*
X031437Y002927D01*
X031457Y002945D01*
X031479Y002960D01*
X031502Y002972D01*
X031528Y002980D01*
X031554Y002984D01*
X031580Y002984D01*
X031606Y002980D01*
X031632Y002972D01*
X031656Y002960D01*
X031677Y002945D01*
X031697Y002927D01*
X031713Y002907D01*
X031726Y002884D01*
X031736Y002859D01*
X031742Y002833D01*
X031744Y002807D01*
X031742Y002781D01*
X031736Y002755D01*
X031726Y002730D01*
X031713Y002707D01*
X031697Y002687D01*
X031677Y002669D01*
X031655Y002654D01*
X031632Y002642D01*
X031606Y002634D01*
X031580Y002630D01*
X031554Y002630D01*
X031528Y002634D01*
X031502Y002642D01*
X031478Y002654D01*
X031457Y002669D01*
X031437Y002687D01*
X031421Y002707D01*
X031408Y002730D01*
X031398Y002755D01*
X031392Y002781D01*
X031390Y002807D01*
X033123Y002807D02*
X033125Y002833D01*
X033131Y002859D01*
X033141Y002884D01*
X033154Y002907D01*
X033170Y002927D01*
X033190Y002945D01*
X033212Y002960D01*
X033235Y002972D01*
X033261Y002980D01*
X033287Y002984D01*
X033313Y002984D01*
X033339Y002980D01*
X033365Y002972D01*
X033389Y002960D01*
X033410Y002945D01*
X033430Y002927D01*
X033446Y002907D01*
X033459Y002884D01*
X033469Y002859D01*
X033475Y002833D01*
X033477Y002807D01*
X033475Y002781D01*
X033469Y002755D01*
X033459Y002730D01*
X033446Y002707D01*
X033430Y002687D01*
X033410Y002669D01*
X033388Y002654D01*
X033365Y002642D01*
X033339Y002634D01*
X033313Y002630D01*
X033287Y002630D01*
X033261Y002634D01*
X033235Y002642D01*
X033211Y002654D01*
X033190Y002669D01*
X033170Y002687D01*
X033154Y002707D01*
X033141Y002730D01*
X033131Y002755D01*
X033125Y002781D01*
X033123Y002807D01*
X027808Y001567D02*
X027810Y001601D01*
X027816Y001635D01*
X027826Y001668D01*
X027839Y001699D01*
X027857Y001729D01*
X027877Y001757D01*
X027901Y001782D01*
X027927Y001804D01*
X027955Y001822D01*
X027986Y001838D01*
X028018Y001850D01*
X028052Y001858D01*
X028086Y001862D01*
X028120Y001862D01*
X028154Y001858D01*
X028188Y001850D01*
X028220Y001838D01*
X028250Y001822D01*
X028279Y001804D01*
X028305Y001782D01*
X028329Y001757D01*
X028349Y001729D01*
X028367Y001699D01*
X028380Y001668D01*
X028390Y001635D01*
X028396Y001601D01*
X028398Y001567D01*
X028396Y001533D01*
X028390Y001499D01*
X028380Y001466D01*
X028367Y001435D01*
X028349Y001405D01*
X028329Y001377D01*
X028305Y001352D01*
X028279Y001330D01*
X028251Y001312D01*
X028220Y001296D01*
X028188Y001284D01*
X028154Y001276D01*
X028120Y001272D01*
X028086Y001272D01*
X028052Y001276D01*
X028018Y001284D01*
X027986Y001296D01*
X027955Y001312D01*
X027927Y001330D01*
X027901Y001352D01*
X027877Y001377D01*
X027857Y001405D01*
X027839Y001435D01*
X027826Y001466D01*
X027816Y001499D01*
X027810Y001533D01*
X027808Y001567D01*
D11*
X034339Y004738D02*
X034339Y004883D01*
X034387Y004931D01*
X034484Y004931D01*
X034532Y004883D01*
X034532Y004738D01*
X034532Y004835D02*
X034629Y004931D01*
X034629Y005032D02*
X034436Y005226D01*
X034387Y005226D01*
X034339Y005178D01*
X034339Y005081D01*
X034387Y005032D01*
X034629Y005032D02*
X034629Y005226D01*
X034733Y005129D02*
X035023Y005129D01*
X035023Y005032D02*
X035023Y005226D01*
X035126Y005226D02*
X035175Y005129D01*
X035271Y005032D01*
X035271Y005178D01*
X035320Y005226D01*
X035368Y005226D01*
X035416Y005178D01*
X035416Y005081D01*
X035368Y005032D01*
X035271Y005032D01*
X035271Y004931D02*
X035320Y004883D01*
X035320Y004738D01*
X035416Y004738D02*
X035126Y004738D01*
X035126Y004883D01*
X035175Y004931D01*
X035271Y004931D01*
X035320Y004835D02*
X035416Y004931D01*
X035023Y004931D02*
X034926Y004835D01*
X034926Y004883D02*
X034926Y004738D01*
X035023Y004738D02*
X034733Y004738D01*
X034733Y004883D01*
X034781Y004931D01*
X034878Y004931D01*
X034926Y004883D01*
X034829Y005032D02*
X034733Y005129D01*
X034629Y004738D02*
X034339Y004738D01*
X030871Y005160D02*
X030677Y005160D01*
X030774Y005160D02*
X030774Y005450D01*
X030677Y005353D01*
X030576Y005450D02*
X030383Y005450D01*
X030383Y005160D01*
X030383Y005305D02*
X030480Y005305D01*
X030528Y005751D02*
X030383Y005751D01*
X030383Y006041D01*
X030528Y006041D01*
X030576Y005992D01*
X030576Y005944D01*
X030528Y005896D01*
X030383Y005896D01*
X030528Y005896D02*
X030576Y005847D01*
X030576Y005799D01*
X030528Y005751D01*
X030677Y005751D02*
X030871Y005751D01*
X030774Y005751D02*
X030774Y006041D01*
X030677Y005944D01*
X030282Y006041D02*
X030088Y006041D01*
X030088Y005751D01*
X029987Y005830D02*
X030036Y005878D01*
X030036Y005975D01*
X029987Y006023D01*
X029987Y006124D02*
X030036Y006173D01*
X030036Y006269D01*
X029987Y006318D01*
X029939Y006318D01*
X029891Y006269D01*
X029891Y006221D01*
X029891Y006269D02*
X029842Y006318D01*
X029794Y006318D01*
X029745Y006269D01*
X029745Y006173D01*
X029794Y006124D01*
X029794Y006023D02*
X029745Y005975D01*
X029745Y005878D01*
X029794Y005830D01*
X029987Y005830D01*
X030088Y005896D02*
X030185Y005896D01*
X030431Y006341D02*
X030528Y006341D01*
X030576Y006389D01*
X030677Y006389D02*
X030726Y006341D01*
X030823Y006341D01*
X030871Y006389D01*
X030871Y006486D01*
X030823Y006535D01*
X030774Y006535D01*
X030677Y006486D01*
X030677Y006631D01*
X030871Y006631D01*
X030576Y006583D02*
X030528Y006631D01*
X030431Y006631D01*
X030383Y006583D01*
X030383Y006389D01*
X030431Y006341D01*
X029544Y006269D02*
X029544Y006173D01*
X029495Y006124D01*
X029447Y006124D01*
X029398Y006173D01*
X029398Y006269D01*
X029447Y006318D01*
X029495Y006318D01*
X029544Y006269D01*
X029398Y006269D02*
X029350Y006318D01*
X029302Y006318D01*
X029253Y006269D01*
X029253Y006173D01*
X029302Y006124D01*
X029350Y006124D01*
X029398Y006173D01*
X029302Y006023D02*
X029253Y005975D01*
X029253Y005878D01*
X029302Y005830D01*
X029495Y005830D01*
X029544Y005878D01*
X029544Y005975D01*
X029495Y006023D01*
X028741Y005933D02*
X028693Y005981D01*
X028548Y005981D01*
X028548Y005885D01*
X028596Y005836D01*
X028693Y005836D01*
X028741Y005885D01*
X028741Y005933D01*
X028645Y006078D02*
X028548Y005981D01*
X028645Y006078D02*
X028741Y006127D01*
X028447Y006078D02*
X028398Y006127D01*
X028302Y006127D01*
X028253Y006078D01*
X028253Y005885D01*
X028302Y005836D01*
X028398Y005836D01*
X028447Y005885D01*
X028153Y005836D02*
X028057Y005836D01*
X028105Y005836D02*
X028105Y006127D01*
X028057Y006127D02*
X028153Y006127D01*
X027050Y006656D02*
X027050Y006753D01*
X027002Y006801D01*
X027050Y006903D02*
X027050Y007096D01*
X027050Y006999D02*
X026760Y006999D01*
X026857Y006903D01*
X026808Y006801D02*
X026760Y006753D01*
X026760Y006656D01*
X026808Y006608D01*
X027002Y006608D01*
X027050Y006656D01*
X027002Y007197D02*
X026808Y007197D01*
X026760Y007246D01*
X026760Y007342D01*
X026808Y007391D01*
X027002Y007197D01*
X027050Y007246D01*
X027050Y007342D01*
X027002Y007391D01*
X026808Y007391D01*
X026791Y008060D02*
X026694Y008156D01*
X026742Y008156D02*
X026597Y008156D01*
X026597Y008060D02*
X026597Y008350D01*
X026742Y008350D01*
X026791Y008301D01*
X026791Y008205D01*
X026742Y008156D01*
X026892Y008108D02*
X026940Y008060D01*
X027037Y008060D01*
X027085Y008108D01*
X027085Y008156D01*
X027037Y008205D01*
X026989Y008205D01*
X027037Y008205D02*
X027085Y008253D01*
X027085Y008301D01*
X027037Y008350D01*
X026940Y008350D01*
X026892Y008301D01*
X026791Y008650D02*
X026694Y008747D01*
X026742Y008747D02*
X026597Y008747D01*
X026597Y008650D02*
X026597Y008940D01*
X026742Y008940D01*
X026791Y008892D01*
X026791Y008795D01*
X026742Y008747D01*
X026892Y008795D02*
X027085Y008795D01*
X027037Y008650D02*
X027037Y008940D01*
X026892Y008795D01*
X028871Y009300D02*
X028967Y009300D01*
X028919Y009300D02*
X028919Y009590D01*
X028871Y009590D02*
X028967Y009590D01*
X029067Y009542D02*
X029067Y009348D01*
X029116Y009300D01*
X029212Y009300D01*
X029261Y009348D01*
X029362Y009445D02*
X029507Y009590D01*
X029507Y009300D01*
X029555Y009445D02*
X029362Y009445D01*
X029261Y009542D02*
X029212Y009590D01*
X029116Y009590D01*
X029067Y009542D01*
X029748Y009581D02*
X029748Y009387D01*
X029796Y009339D01*
X029893Y009339D01*
X029941Y009387D01*
X030042Y009339D02*
X030236Y009533D01*
X030236Y009581D01*
X030187Y009629D01*
X030091Y009629D01*
X030042Y009581D01*
X029941Y009581D02*
X029893Y009629D01*
X029796Y009629D01*
X029748Y009581D01*
X030042Y009339D02*
X030236Y009339D01*
X030337Y009387D02*
X030385Y009339D01*
X030482Y009339D01*
X030530Y009387D01*
X030530Y009581D01*
X030337Y009387D01*
X030337Y009581D01*
X030385Y009629D01*
X030482Y009629D01*
X030530Y009581D01*
X030528Y009092D02*
X030431Y009092D01*
X030383Y009044D01*
X030383Y008850D01*
X030431Y008802D01*
X030528Y008802D01*
X030576Y008850D01*
X030677Y008850D02*
X030726Y008802D01*
X030823Y008802D01*
X030871Y008850D01*
X030871Y008898D01*
X030823Y008947D01*
X030677Y008947D01*
X030677Y008850D01*
X030677Y008947D02*
X030774Y009044D01*
X030871Y009092D01*
X030576Y009044D02*
X030528Y009092D01*
X030552Y008428D02*
X030503Y008428D01*
X030455Y008380D01*
X030455Y008283D01*
X030503Y008235D01*
X030503Y008134D02*
X030455Y008085D01*
X030455Y007989D01*
X030503Y007940D01*
X030697Y007940D01*
X030745Y007989D01*
X030745Y008085D01*
X030697Y008134D01*
X030745Y008235D02*
X030552Y008428D01*
X030745Y008428D02*
X030745Y008235D01*
X030745Y007840D02*
X030745Y007744D01*
X030745Y007792D02*
X030455Y007792D01*
X030455Y007744D02*
X030455Y007840D01*
X030431Y007222D02*
X030383Y007173D01*
X030383Y006980D01*
X030431Y006932D01*
X030528Y006932D01*
X030576Y006980D01*
X030677Y006980D02*
X030677Y006932D01*
X030677Y006980D02*
X030871Y007173D01*
X030871Y007222D01*
X030677Y007222D01*
X030576Y007173D02*
X030528Y007222D01*
X030431Y007222D01*
X032709Y007823D02*
X032806Y007823D01*
X032758Y007823D02*
X032758Y008114D01*
X032806Y008114D02*
X032709Y008114D01*
X032906Y008065D02*
X032906Y007872D01*
X032954Y007823D01*
X033051Y007823D01*
X033099Y007872D01*
X033200Y007872D02*
X033249Y007823D01*
X033346Y007823D01*
X033394Y007872D01*
X033394Y007920D01*
X033346Y007969D01*
X033297Y007969D01*
X033346Y007969D02*
X033394Y008017D01*
X033394Y008065D01*
X033346Y008114D01*
X033249Y008114D01*
X033200Y008065D01*
X033099Y008065D02*
X033051Y008114D01*
X032954Y008114D01*
X032906Y008065D01*
X033879Y008043D02*
X033928Y007995D01*
X033879Y008043D02*
X033879Y008140D01*
X033928Y008188D01*
X033976Y008188D01*
X034170Y007995D01*
X034170Y008188D01*
X034170Y008290D02*
X034170Y008483D01*
X034170Y008386D02*
X033879Y008386D01*
X033976Y008290D01*
X034470Y008290D02*
X034470Y008483D01*
X034567Y008435D02*
X034615Y008483D01*
X034712Y008483D01*
X034760Y008435D01*
X034760Y008338D01*
X034712Y008290D01*
X034615Y008290D02*
X034567Y008386D01*
X034567Y008435D01*
X034615Y008290D02*
X034470Y008290D01*
X034518Y008188D02*
X034470Y008140D01*
X034470Y007995D01*
X034760Y007995D01*
X034663Y007995D02*
X034663Y008140D01*
X034615Y008188D01*
X034518Y008188D01*
X034663Y008092D02*
X034760Y008188D01*
X034170Y007845D02*
X034121Y007894D01*
X034170Y007845D02*
X034170Y007749D01*
X034121Y007700D01*
X033928Y007700D01*
X033879Y007749D01*
X033879Y007845D01*
X033928Y007894D01*
X032678Y009254D02*
X032485Y009254D01*
X032581Y009254D02*
X032581Y009545D01*
X032485Y009448D01*
X032383Y009496D02*
X032335Y009545D01*
X032238Y009545D01*
X032190Y009496D01*
X032190Y009303D01*
X032238Y009254D01*
X032335Y009254D01*
X032383Y009303D01*
X032090Y009254D02*
X031993Y009254D01*
X032042Y009254D02*
X032042Y009545D01*
X032090Y009545D02*
X031993Y009545D01*
X035008Y010696D02*
X035008Y010987D01*
X035153Y010987D01*
X035201Y010938D01*
X035201Y010842D01*
X035153Y010793D01*
X035008Y010793D01*
X035104Y010793D02*
X035201Y010696D01*
X035302Y010696D02*
X035496Y010696D01*
X035399Y010696D02*
X035399Y010987D01*
X035302Y010890D01*
X035302Y011090D02*
X035496Y011090D01*
X035399Y011090D02*
X035399Y011380D01*
X035302Y011284D01*
X035201Y011332D02*
X035201Y011235D01*
X035153Y011187D01*
X035008Y011187D01*
X035104Y011187D02*
X035201Y011090D01*
X035008Y011090D02*
X035008Y011380D01*
X035153Y011380D01*
X035201Y011332D01*
X035597Y011332D02*
X035645Y011380D01*
X035742Y011380D01*
X035790Y011332D01*
X035790Y011284D01*
X035742Y011235D01*
X035790Y011187D01*
X035790Y011139D01*
X035742Y011090D01*
X035645Y011090D01*
X035597Y011139D01*
X035694Y011235D02*
X035742Y011235D01*
X035742Y010987D02*
X035645Y010987D01*
X035597Y010938D01*
X035742Y010987D02*
X035790Y010938D01*
X035790Y010890D01*
X035597Y010696D01*
X035790Y010696D01*
X036090Y010696D02*
X036284Y010696D01*
X036385Y010696D02*
X036578Y010696D01*
X036680Y010696D02*
X036825Y010696D01*
X036873Y010745D01*
X036873Y010938D01*
X036825Y010987D01*
X036680Y010987D01*
X036680Y010696D01*
X036482Y010842D02*
X036385Y010842D01*
X036385Y010987D02*
X036385Y010696D01*
X036090Y010696D02*
X036090Y010987D01*
X036090Y011090D02*
X036284Y011090D01*
X036385Y011090D02*
X036578Y011090D01*
X036680Y011090D02*
X036825Y011090D01*
X036873Y011139D01*
X036873Y011332D01*
X036825Y011380D01*
X036680Y011380D01*
X036680Y011090D01*
X036578Y010987D02*
X036385Y010987D01*
X036385Y011090D02*
X036385Y011380D01*
X036578Y011380D01*
X036482Y011235D02*
X036385Y011235D01*
X036090Y011380D02*
X036090Y011090D01*
X036974Y011090D02*
X037168Y011284D01*
X037168Y011332D01*
X037119Y011380D01*
X037023Y011380D01*
X036974Y011332D01*
X036974Y011090D02*
X037168Y011090D01*
X037071Y010987D02*
X037071Y010696D01*
X036974Y010696D02*
X037168Y010696D01*
X036974Y010890D02*
X037071Y010987D01*
X036279Y012915D02*
X036328Y012963D01*
X036328Y013157D01*
X036279Y013205D01*
X036183Y013205D01*
X036134Y013157D01*
X036134Y013108D01*
X036183Y013060D01*
X036328Y013060D01*
X036279Y012915D02*
X036183Y012915D01*
X036134Y012963D01*
X036033Y012915D02*
X035840Y012915D01*
X035936Y012915D02*
X035936Y013205D01*
X035840Y013108D01*
X035738Y013157D02*
X035690Y013205D01*
X035593Y013205D01*
X035545Y013157D01*
X035545Y012963D01*
X035593Y012915D01*
X035690Y012915D01*
X035738Y012963D01*
X035690Y013407D02*
X035738Y013455D01*
X035690Y013407D02*
X035593Y013407D01*
X035545Y013455D01*
X035545Y013649D01*
X035593Y013697D01*
X035690Y013697D01*
X035738Y013649D01*
X035840Y013601D02*
X035936Y013697D01*
X035936Y013407D01*
X035840Y013407D02*
X036033Y013407D01*
X036134Y013407D02*
X036328Y013407D01*
X036231Y013407D02*
X036231Y013697D01*
X036134Y013601D01*
X035102Y014141D02*
X034908Y014141D01*
X035102Y014335D01*
X035102Y014383D01*
X035054Y014432D01*
X034957Y014432D01*
X034908Y014383D01*
X034807Y014383D02*
X034807Y014432D01*
X034807Y014383D02*
X034711Y014287D01*
X034711Y014141D01*
X034711Y014287D02*
X034614Y014383D01*
X034614Y014432D01*
X034715Y014689D02*
X034909Y014689D01*
X034957Y014737D01*
X034957Y014834D01*
X034909Y014882D01*
X034957Y014983D02*
X034957Y015177D01*
X034957Y015080D02*
X034667Y015080D01*
X034763Y014983D01*
X034715Y014882D02*
X034667Y014834D01*
X034667Y014737D01*
X034715Y014689D01*
X033973Y014737D02*
X033973Y014834D01*
X033924Y014882D01*
X033973Y014983D02*
X033973Y015177D01*
X033973Y015080D02*
X033682Y015080D01*
X033779Y014983D01*
X033731Y014882D02*
X033682Y014834D01*
X033682Y014737D01*
X033731Y014689D01*
X033924Y014689D01*
X033973Y014737D01*
X033924Y015278D02*
X033973Y015326D01*
X033973Y015423D01*
X033924Y015471D01*
X033876Y015471D01*
X033828Y015423D01*
X033828Y015375D01*
X033828Y015423D02*
X033779Y015471D01*
X033731Y015471D01*
X033682Y015423D01*
X033682Y015326D01*
X033731Y015278D01*
X034667Y015423D02*
X034812Y015278D01*
X034812Y015471D01*
X034957Y015423D02*
X034667Y015423D01*
X032346Y015913D02*
X032153Y015913D01*
X032346Y016107D01*
X032346Y016155D01*
X032298Y016203D01*
X032201Y016203D01*
X032153Y016155D01*
X032051Y016155D02*
X032003Y016203D01*
X031906Y016203D01*
X031858Y016155D01*
X031858Y015961D01*
X031906Y015913D01*
X032003Y015913D01*
X032051Y015961D01*
X031067Y015913D02*
X030873Y015913D01*
X030970Y015913D02*
X030970Y016203D01*
X030873Y016107D01*
X030772Y016155D02*
X030724Y016203D01*
X030627Y016203D01*
X030578Y016155D01*
X030578Y015961D01*
X030627Y015913D01*
X030724Y015913D01*
X030772Y015961D01*
X030690Y013787D02*
X030690Y013738D01*
X030594Y013642D01*
X030594Y013497D01*
X030594Y013642D02*
X030497Y013738D01*
X030497Y013787D01*
X030792Y013690D02*
X030888Y013787D01*
X030888Y013497D01*
X030792Y013497D02*
X030985Y013497D01*
X030285Y012681D02*
X030334Y012632D01*
X030334Y012584D01*
X030285Y012535D01*
X030188Y012535D01*
X030140Y012584D01*
X030140Y012632D01*
X030188Y012681D01*
X030285Y012681D01*
X030285Y012535D02*
X030334Y012487D01*
X030334Y012439D01*
X030285Y012390D01*
X030188Y012390D01*
X030140Y012439D01*
X030140Y012487D01*
X030188Y012535D01*
X030039Y012390D02*
X029845Y012390D01*
X029942Y012390D02*
X029942Y012681D01*
X029845Y012584D01*
X029744Y012632D02*
X029696Y012681D01*
X029599Y012681D01*
X029551Y012632D01*
X029551Y012439D01*
X029599Y012390D01*
X029696Y012390D01*
X029744Y012439D01*
X023210Y014299D02*
X023073Y014162D01*
X023141Y014231D02*
X022936Y014436D01*
X022936Y014299D01*
X022796Y014296D02*
X022659Y014159D01*
X022728Y014228D02*
X022933Y014022D01*
X022793Y013882D02*
X022656Y014019D01*
X022519Y014019D01*
X022519Y013882D01*
X022656Y013746D01*
X022550Y013708D02*
X022550Y013640D01*
X022448Y013537D01*
X022242Y013742D01*
X022345Y013845D01*
X022413Y013845D01*
X022448Y013811D01*
X022448Y013742D01*
X022345Y013640D01*
X022448Y013742D02*
X022516Y013742D01*
X022550Y013708D01*
X022553Y013848D02*
X022690Y013985D01*
X020095Y013061D02*
X020095Y012964D01*
X020046Y012916D01*
X019998Y012916D01*
X019950Y012964D01*
X019950Y013061D01*
X019998Y013109D01*
X020046Y013109D01*
X020095Y013061D01*
X019950Y013061D02*
X019901Y013109D01*
X019853Y013109D01*
X019805Y013061D01*
X019805Y012964D01*
X019853Y012916D01*
X019901Y012916D01*
X019950Y012964D01*
X019950Y012814D02*
X019998Y012766D01*
X019998Y012621D01*
X019998Y012718D02*
X020095Y012814D01*
X019950Y012814D02*
X019853Y012814D01*
X019805Y012766D01*
X019805Y012621D01*
X020095Y012621D01*
X020096Y011042D02*
X020145Y011042D01*
X020193Y010994D01*
X020193Y010897D01*
X020145Y010849D01*
X020145Y010748D02*
X019951Y010748D01*
X019903Y010699D01*
X019903Y010554D01*
X020193Y010554D01*
X020193Y010699D01*
X020145Y010748D01*
X019951Y010849D02*
X019903Y010897D01*
X019903Y010994D01*
X019951Y011042D01*
X020000Y011042D01*
X020048Y010994D01*
X020096Y011042D01*
X020048Y010994D02*
X020048Y010945D01*
X019603Y010750D02*
X019554Y010750D01*
X019361Y010944D01*
X019312Y010944D01*
X019312Y010750D01*
X019361Y010649D02*
X019458Y010649D01*
X019506Y010601D01*
X019506Y010456D01*
X019506Y010552D02*
X019603Y010649D01*
X019603Y010456D02*
X019312Y010456D01*
X019312Y010601D01*
X019361Y010649D01*
X019903Y010453D02*
X019903Y010259D01*
X020193Y010259D01*
X020193Y010453D01*
X020048Y010356D02*
X020048Y010259D01*
X020193Y010158D02*
X020193Y009965D01*
X019903Y009965D01*
X019901Y009664D02*
X019853Y009664D01*
X019805Y009616D01*
X019805Y009519D01*
X019853Y009471D01*
X019853Y009370D02*
X019805Y009321D01*
X019805Y009224D01*
X019853Y009176D01*
X019853Y009075D02*
X019805Y009027D01*
X019805Y008930D01*
X019853Y008881D01*
X020046Y008881D01*
X020095Y008930D01*
X020095Y009027D01*
X020046Y009075D01*
X020095Y009176D02*
X019901Y009370D01*
X019853Y009370D01*
X020095Y009370D02*
X020095Y009176D01*
X020095Y009471D02*
X019901Y009664D01*
X020095Y009664D02*
X020095Y009471D01*
X014335Y007075D02*
X014335Y006882D01*
X014287Y006833D01*
X014190Y006833D01*
X014142Y006882D01*
X014335Y007075D01*
X014287Y007123D01*
X014190Y007123D01*
X014142Y007075D01*
X014142Y006882D01*
X014041Y006833D02*
X013847Y006833D01*
X014041Y007027D01*
X014041Y007075D01*
X013992Y007123D01*
X013896Y007123D01*
X013847Y007075D01*
X013746Y007075D02*
X013746Y006978D01*
X013698Y006930D01*
X013553Y006930D01*
X013649Y006930D02*
X013746Y006833D01*
X013553Y006833D02*
X013553Y007123D01*
X013698Y007123D01*
X013746Y007075D01*
X012169Y006509D02*
X012169Y006461D01*
X012121Y006412D01*
X012169Y006364D01*
X012169Y006316D01*
X012121Y006267D01*
X012024Y006267D01*
X011975Y006316D01*
X011874Y006316D02*
X011874Y006509D01*
X011826Y006558D01*
X011681Y006558D01*
X011681Y006267D01*
X011826Y006267D01*
X011874Y006316D01*
X011975Y006509D02*
X012024Y006558D01*
X012121Y006558D01*
X012169Y006509D01*
X012121Y006412D02*
X012072Y006412D01*
X011974Y004589D02*
X011974Y004299D01*
X012070Y004299D02*
X011877Y004299D01*
X011776Y004347D02*
X011727Y004299D01*
X011631Y004299D01*
X011582Y004347D01*
X011582Y004541D01*
X011631Y004589D01*
X011727Y004589D01*
X011776Y004541D01*
X011877Y004492D02*
X011974Y004589D01*
X012172Y004589D02*
X012365Y004589D01*
X012365Y004541D01*
X012172Y004347D01*
X012172Y004299D01*
X015716Y004248D02*
X015716Y004152D01*
X015764Y004103D01*
X015958Y004103D01*
X016006Y004152D01*
X016006Y004248D01*
X015958Y004297D01*
X015861Y004398D02*
X015716Y004543D01*
X016006Y004543D01*
X015861Y004591D02*
X015861Y004398D01*
X015764Y004297D02*
X015716Y004248D01*
X016602Y005580D02*
X016602Y005725D01*
X016650Y005774D01*
X016747Y005774D01*
X016795Y005725D01*
X016795Y005580D01*
X016795Y005677D02*
X016892Y005774D01*
X016892Y005875D02*
X016892Y006068D01*
X016892Y005972D02*
X016602Y005972D01*
X016699Y005875D01*
X016699Y006170D02*
X016650Y006170D01*
X016602Y006218D01*
X016602Y006315D01*
X016650Y006363D01*
X016844Y006363D01*
X016892Y006315D01*
X016892Y006218D01*
X016844Y006170D01*
X016747Y006218D02*
X016747Y006363D01*
X016747Y006218D02*
X016699Y006170D01*
X016602Y005580D02*
X016892Y005580D01*
X019489Y006051D02*
X019538Y006003D01*
X019586Y006003D01*
X019634Y006051D01*
X019634Y006293D01*
X019586Y006293D02*
X019683Y006293D01*
X019784Y006293D02*
X019929Y006293D01*
X019977Y006245D01*
X019977Y006148D01*
X019929Y006100D01*
X019784Y006100D01*
X019784Y006003D02*
X019784Y006293D01*
X020079Y006197D02*
X020175Y006293D01*
X020175Y006003D01*
X020079Y006003D02*
X020272Y006003D01*
X013647Y008137D02*
X013647Y008428D01*
X013550Y008428D02*
X013744Y008428D01*
X013449Y008379D02*
X013449Y008331D01*
X013401Y008283D01*
X013256Y008283D01*
X013401Y008283D02*
X013449Y008234D01*
X013449Y008186D01*
X013401Y008137D01*
X013256Y008137D01*
X013256Y008428D01*
X013401Y008428D01*
X013449Y008379D01*
X007837Y009664D02*
X007837Y009761D01*
X007789Y009809D01*
X007837Y009910D02*
X007837Y010104D01*
X007837Y010007D02*
X007547Y010007D01*
X007643Y009910D01*
X007595Y009809D02*
X007547Y009761D01*
X007547Y009664D01*
X007595Y009616D01*
X007789Y009616D01*
X007837Y009664D01*
X007443Y009664D02*
X007443Y009761D01*
X007395Y009809D01*
X007443Y009910D02*
X007443Y010104D01*
X007443Y010007D02*
X007153Y010007D01*
X007250Y009910D01*
X007201Y009809D02*
X007153Y009761D01*
X007153Y009664D01*
X007201Y009616D01*
X007395Y009616D01*
X007443Y009664D01*
X007395Y010205D02*
X007443Y010253D01*
X007443Y010350D01*
X007395Y010398D01*
X007346Y010398D01*
X007298Y010350D01*
X007298Y010205D01*
X007395Y010205D01*
X007298Y010205D02*
X007201Y010302D01*
X007153Y010398D01*
X007547Y010398D02*
X007547Y010205D01*
X007692Y010205D01*
X007643Y010302D01*
X007643Y010350D01*
X007692Y010398D01*
X007789Y010398D01*
X007837Y010350D01*
X007837Y010253D01*
X007789Y010205D01*
X003970Y008165D02*
X003765Y008370D01*
X003765Y008233D01*
X003625Y008230D02*
X003488Y008093D01*
X003556Y008162D02*
X003762Y007956D01*
X003902Y008096D02*
X004038Y008233D01*
X004077Y012271D02*
X004077Y012368D01*
X004077Y012320D02*
X004367Y012320D01*
X004367Y012368D02*
X004367Y012271D01*
X004319Y012468D02*
X004367Y012516D01*
X004367Y012613D01*
X004319Y012661D01*
X004319Y012762D02*
X004367Y012762D01*
X004319Y012762D02*
X004125Y012956D01*
X004077Y012956D01*
X004077Y012762D01*
X004125Y012661D02*
X004077Y012613D01*
X004077Y012516D01*
X004125Y012468D01*
X004319Y012468D01*
X006636Y012514D02*
X006636Y012418D01*
X006684Y012369D01*
X006878Y012369D01*
X006926Y012418D01*
X006926Y012514D01*
X006878Y012563D01*
X006878Y012664D02*
X006926Y012712D01*
X006926Y012809D01*
X006878Y012857D01*
X006781Y012857D01*
X006733Y012809D01*
X006733Y012761D01*
X006781Y012664D01*
X006636Y012664D01*
X006636Y012857D01*
X006684Y012563D02*
X006636Y012514D01*
X006636Y012270D02*
X006636Y012173D01*
X006636Y012221D02*
X006926Y012221D01*
X006926Y012173D02*
X006926Y012270D01*
X009687Y012370D02*
X009687Y012515D01*
X009736Y012563D01*
X009929Y012563D01*
X009978Y012515D01*
X009978Y012370D01*
X009687Y012370D01*
X009736Y012664D02*
X009687Y012713D01*
X009687Y012809D01*
X009736Y012858D01*
X009784Y012858D01*
X009978Y012664D01*
X009978Y012858D01*
X005869Y015469D02*
X005821Y015421D01*
X005724Y015421D01*
X005676Y015469D01*
X005574Y015421D02*
X005381Y015421D01*
X005574Y015614D01*
X005574Y015663D01*
X005526Y015711D01*
X005429Y015711D01*
X005381Y015663D01*
X005280Y015663D02*
X005280Y015566D01*
X005231Y015518D01*
X005086Y015518D01*
X005183Y015518D02*
X005280Y015421D01*
X005086Y015421D02*
X005086Y015711D01*
X005231Y015711D01*
X005280Y015663D01*
X005676Y015663D02*
X005724Y015711D01*
X005821Y015711D01*
X005869Y015663D01*
X005869Y015614D01*
X005821Y015566D01*
X005869Y015518D01*
X005869Y015469D01*
X005821Y015566D02*
X005772Y015566D01*
X007030Y015765D02*
X007078Y015716D01*
X007272Y015716D01*
X007320Y015765D01*
X007320Y015861D01*
X007272Y015910D01*
X007272Y016011D02*
X007320Y016059D01*
X007320Y016156D01*
X007272Y016204D01*
X007078Y016204D01*
X007030Y016156D01*
X007030Y016059D01*
X007078Y016011D01*
X007127Y016011D01*
X007175Y016059D01*
X007175Y016204D01*
X007078Y015910D02*
X007030Y015861D01*
X007030Y015765D01*
X007620Y015716D02*
X007620Y015861D01*
X007669Y015910D01*
X007765Y015910D01*
X007814Y015861D01*
X007814Y015716D01*
X007911Y015716D02*
X007620Y015716D01*
X007814Y015813D02*
X007911Y015910D01*
X007911Y016011D02*
X007911Y016204D01*
X007911Y016108D02*
X007620Y016108D01*
X007717Y016011D01*
X008211Y016108D02*
X008501Y016108D01*
X008501Y016204D02*
X008501Y016011D01*
X008453Y015910D02*
X008501Y015861D01*
X008501Y015765D01*
X008453Y015716D01*
X008259Y015716D01*
X008211Y015765D01*
X008211Y015861D01*
X008259Y015910D01*
X008308Y016011D02*
X008211Y016108D01*
X008259Y016305D02*
X008211Y016354D01*
X008211Y016451D01*
X008259Y016499D01*
X008308Y016499D01*
X008501Y016305D01*
X008501Y016499D01*
X007911Y016451D02*
X007911Y016354D01*
X007862Y016305D01*
X007814Y016305D01*
X007765Y016354D01*
X007765Y016451D01*
X007814Y016499D01*
X007862Y016499D01*
X007911Y016451D01*
X007765Y016451D02*
X007717Y016499D01*
X007669Y016499D01*
X007620Y016451D01*
X007620Y016354D01*
X007669Y016305D01*
X007717Y016305D01*
X007765Y016354D01*
D12*
X036607Y012404D03*
X036607Y012109D03*
X036607Y011813D03*
X036607Y011518D03*
D13*
X036607Y011666D03*
X036607Y012256D03*
X020032Y011725D03*
D14*
X028909Y009205D02*
X028909Y008024D01*
X029596Y008024D01*
X029596Y009205D01*
X028909Y009205D01*
X031327Y008584D02*
X031327Y008547D01*
X031327Y008584D02*
X031965Y008584D01*
X031965Y008547D01*
X031965Y008230D02*
X031965Y007818D01*
X031965Y007501D02*
X031965Y007464D01*
X031327Y007464D01*
X031327Y007501D01*
X031327Y007818D02*
X031327Y007856D01*
X031327Y008192D02*
X031327Y008230D01*
X029708Y007990D02*
X029710Y008003D01*
X029715Y008015D01*
X029724Y008025D01*
X029735Y008032D01*
X029747Y008036D01*
X029761Y008036D01*
X029773Y008032D01*
X029784Y008025D01*
X029793Y008015D01*
X029798Y008003D01*
X029800Y007990D01*
X029798Y007977D01*
X029793Y007965D01*
X029784Y007955D01*
X029773Y007948D01*
X029761Y007944D01*
X029747Y007944D01*
X029735Y007948D01*
X029724Y007955D01*
X029715Y007965D01*
X029710Y007977D01*
X029708Y007990D01*
X028958Y007359D02*
X028921Y007359D01*
X028958Y007359D02*
X028958Y006721D01*
X028921Y006721D01*
X028604Y006721D02*
X028566Y006721D01*
X028230Y006721D02*
X028192Y006721D01*
X027875Y006721D02*
X027838Y006721D01*
X027838Y007359D01*
X027875Y007359D01*
X028192Y007359D02*
X028604Y007359D01*
X032433Y007317D02*
X032433Y006629D01*
X033615Y006629D01*
X033615Y007317D01*
X032433Y007317D01*
X032353Y006471D02*
X032355Y006484D01*
X032360Y006496D01*
X032369Y006506D01*
X032380Y006513D01*
X032392Y006517D01*
X032406Y006517D01*
X032418Y006513D01*
X032429Y006506D01*
X032438Y006496D01*
X032443Y006484D01*
X032445Y006471D01*
X032443Y006458D01*
X032438Y006446D01*
X032429Y006436D01*
X032418Y006429D01*
X032406Y006425D01*
X032392Y006425D01*
X032380Y006429D01*
X032369Y006436D01*
X032360Y006446D01*
X032355Y006458D01*
X032353Y006471D01*
X038510Y008815D02*
X038553Y008772D01*
X038597Y008772D01*
X038640Y008815D01*
X038640Y008902D01*
X038683Y008946D01*
X038727Y008946D01*
X038770Y008902D01*
X038770Y008815D01*
X038727Y008772D01*
X038510Y008815D02*
X038510Y008902D01*
X038553Y008946D01*
X038510Y009067D02*
X038770Y009067D01*
X038683Y009153D01*
X038770Y009240D01*
X038510Y009240D01*
X038510Y009361D02*
X038510Y009491D01*
X038553Y009535D01*
X038727Y009535D01*
X038770Y009491D01*
X038770Y009361D01*
X038510Y009361D01*
X022339Y004928D02*
X022339Y004428D01*
X022089Y004178D01*
X022339Y003928D01*
X022339Y003428D01*
X022089Y003178D01*
X021589Y003178D01*
X021339Y003428D01*
X021089Y003178D01*
X020589Y003178D01*
X020339Y003428D01*
X020089Y003178D01*
X019589Y003178D01*
X019339Y003428D01*
X019089Y003178D01*
X018589Y003178D01*
X018339Y003428D01*
X018089Y003178D01*
X017589Y003178D01*
X017339Y003428D01*
X017339Y003928D01*
X017589Y004178D01*
X018089Y004178D01*
X018339Y003928D01*
X018589Y004178D01*
X018339Y004428D01*
X018089Y004178D01*
X018339Y003928D02*
X018339Y003428D01*
X019339Y003428D02*
X019339Y003928D01*
X019589Y004178D01*
X020089Y004178D01*
X020339Y003928D01*
X020589Y004178D01*
X020339Y004428D01*
X020089Y004178D01*
X020339Y003928D02*
X020339Y003428D01*
X021339Y003428D02*
X021339Y003928D01*
X021589Y004178D01*
X021339Y004428D01*
X021089Y004178D01*
X021339Y003928D01*
X021589Y004178D02*
X022089Y004178D01*
X021339Y004428D02*
X021339Y004928D01*
X021589Y005178D01*
X022089Y005178D01*
X022339Y004928D01*
X021339Y004928D02*
X021089Y005178D01*
X020589Y005178D01*
X020339Y004928D01*
X020089Y005178D01*
X019589Y005178D01*
X019339Y004928D01*
X019089Y005178D01*
X018589Y005178D01*
X018339Y004928D01*
X018339Y004428D01*
X018589Y004178D02*
X019089Y004178D01*
X019339Y003928D01*
X019589Y004178D02*
X019339Y004428D01*
X019089Y004178D01*
X019339Y004428D02*
X019339Y004928D01*
X018339Y004928D02*
X018089Y005178D01*
X017589Y005178D01*
X017339Y004928D01*
X017339Y004428D01*
X017589Y004178D01*
X020339Y004428D02*
X020339Y004928D01*
X020589Y004178D02*
X021089Y004178D01*
X005530Y002538D02*
X005530Y002278D01*
X005230Y002228D01*
X005184Y002224D02*
X004746Y002224D01*
X004800Y002278D02*
X004600Y002078D01*
X004800Y001678D01*
X004900Y001728D01*
X005100Y001578D01*
X005250Y001728D01*
X005100Y001928D01*
X005200Y002278D01*
X005500Y002278D01*
X005500Y002528D01*
X005200Y002578D01*
X005100Y002828D01*
X005250Y003128D01*
X005100Y003228D01*
X004850Y003078D01*
X004550Y003178D01*
X004550Y003478D01*
X004300Y003478D01*
X004250Y003228D01*
X004300Y003228D01*
X004000Y003078D01*
X003700Y003228D01*
X003550Y003078D01*
X003750Y002878D01*
X003650Y002578D01*
X003350Y002528D01*
X003350Y002278D01*
X003350Y002328D01*
X003650Y002228D01*
X003750Y001978D01*
X003600Y001728D01*
X003750Y001578D01*
X003950Y001728D01*
X004050Y001678D01*
X004200Y002078D01*
X004100Y002178D01*
X004000Y002478D01*
X004150Y002728D01*
X004100Y002728D01*
X004400Y002828D01*
X004650Y002778D01*
X004800Y002528D01*
X004800Y002278D01*
X004800Y002283D02*
X005500Y002283D01*
X005500Y002341D02*
X004800Y002341D01*
X004800Y002400D02*
X005500Y002400D01*
X005500Y002458D02*
X004800Y002458D01*
X004800Y002517D02*
X005500Y002517D01*
X005530Y002538D02*
X005230Y002598D01*
X005215Y002575D02*
X004771Y002575D01*
X004736Y002634D02*
X005177Y002634D01*
X005154Y002692D02*
X004701Y002692D01*
X004666Y002751D02*
X005130Y002751D01*
X005107Y002809D02*
X004492Y002809D01*
X004344Y002809D02*
X003727Y002809D01*
X003710Y002848D02*
X003530Y003108D01*
X003720Y003288D01*
X003980Y003108D01*
X003952Y003102D02*
X003574Y003102D01*
X003584Y003043D02*
X005207Y003043D01*
X005178Y002985D02*
X003643Y002985D01*
X003701Y002926D02*
X005149Y002926D01*
X005120Y002868D02*
X003746Y002868D01*
X003707Y002751D02*
X004168Y002751D01*
X004128Y002692D02*
X003688Y002692D01*
X003668Y002634D02*
X004093Y002634D01*
X004058Y002575D02*
X003634Y002575D01*
X003600Y002598D02*
X003300Y002538D01*
X003300Y002278D01*
X003600Y002228D01*
X003651Y002224D02*
X004084Y002224D01*
X004065Y002283D02*
X003485Y002283D01*
X003350Y002341D02*
X004045Y002341D01*
X004026Y002400D02*
X003350Y002400D01*
X003350Y002458D02*
X004006Y002458D01*
X004023Y002517D02*
X003350Y002517D01*
X003674Y002166D02*
X004112Y002166D01*
X004170Y002107D02*
X003698Y002107D01*
X003721Y002049D02*
X004189Y002049D01*
X004167Y001990D02*
X003745Y001990D01*
X003700Y001958D02*
X003540Y001718D01*
X003720Y001528D01*
X003960Y001698D01*
X004060Y001638D01*
X004260Y002088D01*
X004145Y001932D02*
X003722Y001932D01*
X003687Y001873D02*
X004123Y001873D01*
X004101Y001815D02*
X003652Y001815D01*
X003617Y001756D02*
X004079Y001756D01*
X004057Y001698D02*
X004010Y001698D01*
X003910Y001698D02*
X003630Y001698D01*
X003688Y001639D02*
X003832Y001639D01*
X003754Y001581D02*
X003747Y001581D01*
X004673Y001932D02*
X005101Y001932D01*
X005130Y001958D02*
X005300Y001718D01*
X005110Y001528D01*
X004870Y001698D01*
X004770Y001638D01*
X004580Y002088D01*
X004614Y002049D02*
X005134Y002049D01*
X005151Y002107D02*
X004629Y002107D01*
X004688Y002166D02*
X005168Y002166D01*
X005117Y001990D02*
X004643Y001990D01*
X004702Y001873D02*
X005141Y001873D01*
X005184Y001815D02*
X004731Y001815D01*
X004760Y001756D02*
X005228Y001756D01*
X005220Y001698D02*
X004940Y001698D01*
X005018Y001639D02*
X005161Y001639D01*
X005103Y001581D02*
X005096Y001581D01*
X004840Y001698D02*
X004790Y001698D01*
X005130Y001958D02*
X005153Y001999D01*
X005174Y002042D01*
X005192Y002087D01*
X005207Y002132D01*
X005220Y002178D01*
X005230Y002225D01*
X005228Y002598D02*
X005213Y002650D01*
X005194Y002701D01*
X005172Y002751D01*
X005147Y002799D01*
X005118Y002846D01*
X005120Y002848D02*
X005300Y003108D01*
X005110Y003288D01*
X004850Y003108D01*
X004890Y003102D02*
X005237Y003102D01*
X005201Y003160D02*
X004987Y003160D01*
X005085Y003219D02*
X005113Y003219D01*
X004778Y003102D02*
X004048Y003102D01*
X004165Y003160D02*
X004602Y003160D01*
X004600Y003208D02*
X004550Y003528D01*
X004280Y003528D01*
X004230Y003208D01*
X004282Y003219D02*
X004550Y003219D01*
X004550Y003277D02*
X004259Y003277D01*
X004271Y003336D02*
X004550Y003336D01*
X004550Y003394D02*
X004283Y003394D01*
X004295Y003453D02*
X004550Y003453D01*
X003835Y003160D02*
X003632Y003160D01*
X003691Y003219D02*
X003718Y003219D01*
X004260Y002098D02*
X004227Y002116D01*
X004197Y002137D01*
X004168Y002161D01*
X004142Y002188D01*
X004120Y002217D01*
X004100Y002249D01*
X004083Y002282D01*
X004070Y002317D01*
X004061Y002353D01*
X004055Y002390D01*
X004053Y002427D01*
X004055Y002464D01*
X004060Y002501D01*
X004070Y002537D01*
X004082Y002572D01*
X004099Y002606D01*
X004118Y002637D01*
X004141Y002667D01*
X004167Y002694D01*
X004195Y002718D01*
X004226Y002739D01*
X004258Y002757D01*
X004292Y002772D01*
X004328Y002783D01*
X004364Y002791D01*
X004401Y002795D01*
X004439Y002795D01*
X004476Y002791D01*
X004512Y002783D01*
X004548Y002772D01*
X004582Y002757D01*
X004614Y002739D01*
X004645Y002718D01*
X004673Y002694D01*
X004699Y002667D01*
X004722Y002637D01*
X004741Y002606D01*
X004758Y002572D01*
X004770Y002537D01*
X004780Y002501D01*
X004785Y002464D01*
X004787Y002427D01*
X004785Y002390D01*
X004779Y002353D01*
X004770Y002317D01*
X004757Y002282D01*
X004740Y002249D01*
X004720Y002217D01*
X004698Y002188D01*
X004672Y002161D01*
X004643Y002137D01*
X004613Y002116D01*
X004580Y002098D01*
X003703Y001961D02*
X003675Y002011D01*
X003651Y002063D01*
X003630Y002116D01*
X003613Y002171D01*
X003600Y002227D01*
X003983Y003111D02*
X004028Y003136D01*
X004075Y003159D01*
X004123Y003178D01*
X004172Y003195D01*
X004222Y003208D01*
X003710Y002843D02*
X003683Y002796D01*
X003659Y002749D01*
X003638Y002700D01*
X003620Y002649D01*
X003606Y002598D01*
X004605Y003210D02*
X004657Y003196D01*
X004708Y003179D01*
X004758Y003159D01*
X004807Y003136D01*
X004854Y003109D01*
X009236Y011507D02*
X009236Y011827D01*
X009456Y011827D01*
X010136Y011827D02*
X010356Y011827D01*
X010356Y011507D01*
D15*
X010979Y002667D03*
X010979Y002627D03*
X010979Y002547D03*
X010979Y002537D03*
X010979Y002527D03*
X010979Y002517D03*
X010979Y002507D03*
X010979Y002497D03*
X010979Y002487D03*
X010979Y002477D03*
X010979Y002467D03*
X010979Y002457D03*
X010979Y002447D03*
X010979Y002437D03*
X010979Y002427D03*
X010979Y002417D03*
X010979Y002407D03*
X010979Y002397D03*
X010979Y002387D03*
X010979Y002377D03*
X010979Y002367D03*
X010979Y002357D03*
X010979Y002347D03*
X010979Y002337D03*
X010979Y002327D03*
X010979Y002317D03*
X010979Y002307D03*
X010979Y002297D03*
X010979Y002287D03*
X010979Y002277D03*
X010979Y002267D03*
X010979Y002257D03*
X010979Y002247D03*
X010979Y002237D03*
X010979Y002227D03*
X010979Y002217D03*
X010969Y002197D03*
X011119Y002297D03*
X011109Y002317D03*
X011109Y002327D03*
X011109Y002337D03*
X011139Y002377D03*
X011229Y002287D03*
X011299Y002327D03*
X011299Y002337D03*
X011299Y002347D03*
X011299Y002357D03*
X011299Y002367D03*
X011299Y002377D03*
X011299Y002387D03*
X011299Y002427D03*
X011299Y002437D03*
X011299Y002447D03*
X011299Y002457D03*
X011289Y002497D03*
X011279Y002507D03*
X011129Y002507D03*
X011439Y002487D03*
X011439Y002477D03*
X011439Y002467D03*
X011439Y002457D03*
X011439Y002447D03*
X011439Y002437D03*
X011439Y002427D03*
X011439Y002417D03*
X011439Y002407D03*
X011439Y002397D03*
X011439Y002387D03*
X011439Y002377D03*
X011439Y002367D03*
X011439Y002357D03*
X011439Y002347D03*
X011439Y002337D03*
X011439Y002327D03*
X011439Y002317D03*
X011439Y002307D03*
X011439Y002297D03*
X011439Y002287D03*
X011439Y002277D03*
X011439Y002267D03*
X011439Y002257D03*
X011629Y002257D03*
X011629Y002267D03*
X011629Y002277D03*
X011629Y002287D03*
X011629Y002297D03*
X011629Y002307D03*
X011629Y002317D03*
X011629Y002327D03*
X011629Y002337D03*
X011629Y002347D03*
X011629Y002357D03*
X011629Y002367D03*
X011629Y002377D03*
X011629Y002387D03*
X011629Y002397D03*
X011629Y002407D03*
X011629Y002417D03*
X011629Y002427D03*
X011629Y002437D03*
X011629Y002447D03*
X011629Y002457D03*
X011629Y002467D03*
X011629Y002477D03*
X011619Y002497D03*
X011619Y002507D03*
X011789Y002567D03*
X011799Y002577D03*
X011809Y002587D03*
X011899Y002587D03*
X011899Y002597D03*
X011899Y002607D03*
X011899Y002577D03*
X011899Y002567D03*
X011899Y002557D03*
X011899Y002547D03*
X011899Y002537D03*
X011899Y002527D03*
X011899Y002517D03*
X011899Y002507D03*
X011899Y002497D03*
X011899Y002487D03*
X011899Y002477D03*
X011899Y002467D03*
X011899Y002457D03*
X011899Y002447D03*
X011899Y002437D03*
X011899Y002427D03*
X011899Y002417D03*
X011899Y002407D03*
X011899Y002397D03*
X011899Y002387D03*
X011899Y002377D03*
X011899Y002367D03*
X011899Y002357D03*
X011899Y002347D03*
X011899Y002337D03*
X011899Y002327D03*
X011899Y002317D03*
X011899Y002307D03*
X011899Y002297D03*
X012109Y002447D03*
X012099Y002467D03*
X012099Y002477D03*
X012119Y002517D03*
X012239Y002367D03*
X012249Y002357D03*
X012249Y002347D03*
X012239Y002307D03*
X012229Y002297D03*
X011899Y002667D03*
X010619Y002477D03*
X010619Y002467D03*
X010619Y002457D03*
X010619Y002447D03*
X010619Y002437D03*
X010619Y002427D03*
X010619Y002417D03*
X010619Y002407D03*
X010619Y002397D03*
X010619Y002387D03*
X010619Y002377D03*
X010619Y002367D03*
X010619Y002357D03*
X010619Y002347D03*
X010619Y002337D03*
X010619Y002327D03*
X010619Y002317D03*
X010619Y002307D03*
X010619Y002297D03*
X010619Y002287D03*
X010619Y002277D03*
X010619Y002267D03*
X010619Y002257D03*
X010439Y002257D03*
X010439Y002267D03*
X010439Y002277D03*
X010439Y002287D03*
X010439Y002297D03*
X010439Y002307D03*
X010439Y002317D03*
X010439Y002327D03*
X010439Y002337D03*
X010439Y002347D03*
X010439Y002357D03*
X010439Y002367D03*
X010439Y002377D03*
X010439Y002387D03*
X010439Y002397D03*
X010439Y002407D03*
X010439Y002417D03*
X010439Y002427D03*
X010439Y002437D03*
X010439Y002447D03*
X010439Y002457D03*
X010439Y002467D03*
X010439Y002477D03*
X010269Y002477D03*
X010269Y002487D03*
X010269Y002467D03*
X010269Y002457D03*
X010269Y002447D03*
X010269Y002437D03*
X010269Y002427D03*
X010269Y002417D03*
X010269Y002407D03*
X010269Y002397D03*
X010269Y002387D03*
X010269Y002377D03*
X010269Y002367D03*
X010269Y002357D03*
X010269Y002347D03*
X010269Y002337D03*
X010269Y002327D03*
X010269Y002317D03*
X010269Y002307D03*
X010269Y002297D03*
X010269Y002287D03*
X010269Y002277D03*
X010269Y002267D03*
X010269Y002257D03*
X010119Y002327D03*
X010109Y002317D03*
X010099Y002307D03*
X010129Y002347D03*
X010129Y002357D03*
X010139Y002397D03*
X010139Y002407D03*
X010139Y002417D03*
X010129Y002457D03*
X010129Y002467D03*
X010119Y002487D03*
X010109Y002497D03*
X010099Y002507D03*
X009939Y002507D03*
X009929Y002497D03*
X009919Y002487D03*
X009909Y002467D03*
X009909Y002457D03*
X009899Y002417D03*
X009899Y002407D03*
X009899Y002397D03*
X009909Y002357D03*
X009909Y002347D03*
X009919Y002327D03*
X009929Y002317D03*
X009939Y002307D03*
X009799Y002297D03*
X009639Y002327D03*
X009629Y002347D03*
X009619Y002397D03*
X009619Y002407D03*
X009619Y002417D03*
X009629Y002467D03*
X009639Y002487D03*
X009649Y002497D03*
X009799Y002517D03*
X009509Y002307D03*
X009509Y002267D03*
X009389Y002337D03*
X009379Y002317D03*
X009369Y002307D03*
X009399Y002367D03*
X009399Y002377D03*
X009399Y002387D03*
X009399Y002397D03*
X009399Y002407D03*
X009399Y002417D03*
X009399Y002427D03*
X009399Y002437D03*
X009399Y002447D03*
X009399Y002457D03*
X009389Y002477D03*
X009389Y002487D03*
X009379Y002497D03*
X009189Y002487D03*
X009189Y002477D03*
X009189Y002467D03*
X009189Y002457D03*
X009189Y002447D03*
X009189Y002437D03*
X009189Y002427D03*
X009189Y002417D03*
X009189Y002407D03*
X009189Y002397D03*
X009189Y002387D03*
X009189Y002377D03*
X009189Y002367D03*
X009189Y002357D03*
X009189Y002347D03*
X009189Y002337D03*
X009189Y002327D03*
X009189Y002317D03*
X009049Y002327D03*
X009049Y002337D03*
X009049Y002347D03*
X009049Y002357D03*
X009049Y002367D03*
X009049Y002377D03*
X009049Y002387D03*
X009049Y002397D03*
X009049Y002407D03*
X009049Y002417D03*
X009049Y002427D03*
X009049Y002437D03*
X009049Y002447D03*
X009049Y002457D03*
X009049Y002467D03*
X009049Y002477D03*
X009049Y002487D03*
X009049Y002497D03*
X009049Y002507D03*
X009049Y002517D03*
X009049Y002527D03*
X009049Y002537D03*
X009049Y002547D03*
X009189Y002547D03*
X009189Y002557D03*
X009189Y002567D03*
X009189Y002577D03*
X009189Y002587D03*
X009189Y002597D03*
X009189Y002607D03*
X009189Y002617D03*
X009189Y002627D03*
X009189Y002637D03*
X009189Y002647D03*
X009189Y002657D03*
X009189Y002667D03*
X009189Y002677D03*
X009189Y002687D03*
X009189Y002537D03*
X009189Y002527D03*
X009189Y002517D03*
X008849Y002517D03*
X008849Y002527D03*
X008849Y002537D03*
X008849Y002547D03*
X008849Y002507D03*
X008849Y002497D03*
X008849Y002487D03*
X008849Y002477D03*
X008849Y002467D03*
X008849Y002457D03*
X008849Y002447D03*
X008849Y002437D03*
X008849Y002427D03*
X008849Y002417D03*
X008849Y002407D03*
X008849Y002397D03*
X008849Y002387D03*
X008849Y002377D03*
X008849Y002367D03*
X008849Y002357D03*
X008849Y002347D03*
X008849Y002337D03*
X008859Y002317D03*
X008859Y002307D03*
X008709Y002307D03*
X008709Y002317D03*
X008709Y002327D03*
X008709Y002337D03*
X008709Y002347D03*
X008709Y002357D03*
X008709Y002367D03*
X008709Y002377D03*
X008709Y002387D03*
X008709Y002397D03*
X008709Y002407D03*
X008709Y002417D03*
X008709Y002427D03*
X008709Y002437D03*
X008709Y002447D03*
X008709Y002457D03*
X008709Y002467D03*
X008709Y002477D03*
X008699Y002497D03*
X008699Y002507D03*
X008519Y002517D03*
X008519Y002527D03*
X008519Y002537D03*
X008519Y002547D03*
X008519Y002557D03*
X008519Y002567D03*
X008519Y002577D03*
X008519Y002587D03*
X008519Y002597D03*
X008519Y002607D03*
X008519Y002617D03*
X008519Y002627D03*
X008519Y002637D03*
X008519Y002647D03*
X008519Y002657D03*
X008519Y002667D03*
X008519Y002677D03*
X008519Y002687D03*
X008519Y002487D03*
X008519Y002477D03*
X008519Y002467D03*
X008519Y002457D03*
X008519Y002447D03*
X008519Y002437D03*
X008519Y002427D03*
X008519Y002417D03*
X008519Y002407D03*
X008519Y002397D03*
X008519Y002387D03*
X008519Y002377D03*
X008519Y002367D03*
X008519Y002357D03*
X008519Y002347D03*
X008519Y002337D03*
X008519Y002327D03*
X008519Y002317D03*
X008519Y002307D03*
X008519Y002297D03*
X008519Y002287D03*
X008519Y002277D03*
X008519Y002267D03*
X008519Y002257D03*
X008709Y002257D03*
X008709Y002267D03*
X008709Y002277D03*
X008709Y002287D03*
X008709Y002297D03*
X008319Y002297D03*
X008309Y002327D03*
X008309Y002337D03*
X008309Y002347D03*
X008309Y002357D03*
X008309Y002367D03*
X008309Y002377D03*
X008309Y002387D03*
X008309Y002397D03*
X008309Y002407D03*
X008309Y002417D03*
X008309Y002427D03*
X008309Y002437D03*
X008309Y002447D03*
X008309Y002457D03*
X008309Y002467D03*
X008309Y002477D03*
X008309Y002487D03*
X008309Y002497D03*
X008309Y002507D03*
X008139Y002507D03*
X008139Y002517D03*
X008139Y002527D03*
X008139Y002537D03*
X008139Y002547D03*
X008139Y002497D03*
X008139Y002487D03*
X008139Y002477D03*
X008139Y002467D03*
X008139Y002457D03*
X008139Y002447D03*
X008139Y002437D03*
X008139Y002427D03*
X008139Y002417D03*
X008139Y002407D03*
X008139Y002397D03*
X008139Y002387D03*
X008139Y002377D03*
X008139Y002367D03*
X008139Y002357D03*
X008139Y002347D03*
X008139Y002337D03*
X008139Y002327D03*
X008139Y002317D03*
X008139Y002307D03*
X008139Y002297D03*
X008139Y002287D03*
X008139Y002277D03*
X008139Y002267D03*
X008139Y002257D03*
X008029Y002257D03*
X008029Y002247D03*
X008019Y002267D03*
X007999Y002197D03*
X007909Y002157D03*
X007809Y002207D03*
X007829Y002327D03*
X007819Y002457D03*
X007819Y002467D03*
X007839Y002517D03*
X007989Y002507D03*
X008139Y002627D03*
X008139Y002667D03*
X007319Y002527D03*
X007319Y002487D03*
X007319Y002307D03*
X007319Y002267D03*
X007179Y002307D03*
X007169Y002297D03*
X007189Y002347D03*
X007189Y002357D03*
X007179Y002367D03*
X007049Y002447D03*
X007039Y002467D03*
X007039Y002477D03*
X007059Y002517D03*
X006929Y002477D03*
X006929Y002467D03*
X006919Y002497D03*
X006909Y002507D03*
X006939Y002427D03*
X006939Y002417D03*
X006939Y002407D03*
X006939Y002397D03*
X006929Y002357D03*
X006929Y002347D03*
X006919Y002327D03*
X006909Y002317D03*
X006729Y002317D03*
X006729Y002327D03*
X006729Y002337D03*
X006729Y002347D03*
X006729Y002357D03*
X006729Y002367D03*
X006729Y002377D03*
X006729Y002387D03*
X006729Y002397D03*
X006729Y002407D03*
X006729Y002417D03*
X006729Y002427D03*
X006729Y002437D03*
X006729Y002447D03*
X006729Y002457D03*
X006729Y002467D03*
X006729Y002477D03*
X006729Y002487D03*
X006519Y002487D03*
X006519Y002497D03*
X006519Y002507D03*
X006519Y002477D03*
X006519Y002467D03*
X006519Y002457D03*
X006519Y002447D03*
X006519Y002437D03*
X006519Y002427D03*
X006519Y002417D03*
X006519Y002407D03*
X006519Y002397D03*
X006519Y002387D03*
X006519Y002377D03*
X006519Y002367D03*
X006519Y002357D03*
X006519Y002347D03*
X006519Y002337D03*
X006519Y002327D03*
X006529Y002297D03*
X006729Y002287D03*
X006729Y002277D03*
X006729Y002267D03*
X006729Y002257D03*
X006729Y002247D03*
X006729Y002237D03*
X006729Y002227D03*
X006729Y002217D03*
X006729Y002207D03*
X006729Y002197D03*
X006729Y002187D03*
X006729Y002177D03*
X006729Y002167D03*
X006729Y002157D03*
X006299Y002297D03*
X006289Y002327D03*
X006289Y002337D03*
X006289Y002347D03*
X006289Y002357D03*
X006289Y002367D03*
X006289Y002377D03*
X006289Y002387D03*
X006289Y002397D03*
X006289Y002407D03*
X006289Y002417D03*
X006289Y002427D03*
X006289Y002437D03*
X006289Y002447D03*
X006289Y002457D03*
X006289Y002467D03*
X006289Y002477D03*
X006289Y002487D03*
X006289Y002497D03*
X006289Y002507D03*
X006139Y002477D03*
X006139Y002467D03*
X006139Y002457D03*
X006139Y002447D03*
X006139Y002437D03*
X006139Y002427D03*
X006139Y002417D03*
X006139Y002407D03*
X006139Y002397D03*
X006139Y002387D03*
X006139Y002377D03*
X006139Y002367D03*
X006139Y002357D03*
X006139Y002347D03*
X006139Y002337D03*
X006139Y002327D03*
X006139Y002317D03*
X006139Y002307D03*
X006139Y002297D03*
X006139Y002287D03*
X006139Y002277D03*
X006139Y002267D03*
X006139Y002257D03*
X005949Y002257D03*
X005949Y002267D03*
X005949Y002277D03*
X005949Y002287D03*
X005949Y002297D03*
X005949Y002307D03*
X005949Y002317D03*
X005949Y002327D03*
X005949Y002337D03*
X005949Y002347D03*
X005949Y002357D03*
X005949Y002367D03*
X005949Y002377D03*
X005949Y002387D03*
X005949Y002397D03*
X005949Y002407D03*
X005949Y002417D03*
X005949Y002427D03*
X005949Y002437D03*
X005949Y002447D03*
X005949Y002457D03*
X005949Y002467D03*
X005949Y002477D03*
X005949Y002487D03*
X005949Y002517D03*
X005949Y002527D03*
X005949Y002537D03*
X005949Y002547D03*
X005949Y002557D03*
X005949Y002567D03*
X005949Y002577D03*
X005949Y002587D03*
X005949Y002597D03*
X005949Y002607D03*
X005949Y002617D03*
X005949Y002627D03*
X005949Y002637D03*
X005949Y002647D03*
X005949Y002657D03*
X005949Y002667D03*
X005949Y002677D03*
X005949Y002687D03*
X006129Y002507D03*
X006129Y002497D03*
X010609Y002497D03*
X010609Y002507D03*
D16*
X010614Y002487D03*
X010484Y002517D03*
X010424Y002507D03*
X010424Y002497D03*
X010414Y002517D03*
X010264Y002517D03*
X010264Y002527D03*
X010264Y002537D03*
X010264Y002547D03*
X010124Y002477D03*
X010134Y002447D03*
X010134Y002437D03*
X010134Y002427D03*
X010134Y002387D03*
X010134Y002377D03*
X010134Y002367D03*
X010124Y002337D03*
X009914Y002337D03*
X009904Y002367D03*
X009904Y002377D03*
X009904Y002387D03*
X009904Y002427D03*
X009904Y002437D03*
X009904Y002447D03*
X009914Y002477D03*
X009734Y002557D03*
X009634Y002477D03*
X009624Y002457D03*
X009624Y002447D03*
X009624Y002437D03*
X009624Y002427D03*
X009624Y002387D03*
X009624Y002377D03*
X009624Y002367D03*
X009624Y002357D03*
X009634Y002337D03*
X009644Y002317D03*
X009504Y002317D03*
X009394Y002347D03*
X009394Y002357D03*
X009384Y002327D03*
X009394Y002467D03*
X009184Y002287D03*
X009184Y002277D03*
X009184Y002267D03*
X009054Y002267D03*
X009054Y002277D03*
X009054Y002287D03*
X009054Y002297D03*
X008994Y002297D03*
X008854Y002327D03*
X008704Y002487D03*
X008314Y002547D03*
X008314Y002557D03*
X008314Y002567D03*
X008314Y002577D03*
X008314Y002587D03*
X008314Y002597D03*
X008314Y002607D03*
X008314Y002617D03*
X008314Y002317D03*
X008314Y002307D03*
X008024Y002237D03*
X008024Y002227D03*
X008024Y002217D03*
X008014Y002207D03*
X007974Y002407D03*
X007984Y002417D03*
X007994Y002427D03*
X007994Y002437D03*
X008004Y002457D03*
X008004Y002467D03*
X007994Y002487D03*
X007994Y002497D03*
X007834Y002507D03*
X007824Y002497D03*
X007824Y002487D03*
X007824Y002477D03*
X007824Y002447D03*
X007824Y002437D03*
X007824Y002427D03*
X007834Y002417D03*
X007844Y002407D03*
X007824Y002337D03*
X007814Y002267D03*
X007804Y002247D03*
X007804Y002237D03*
X007804Y002227D03*
X007804Y002217D03*
X007614Y002267D03*
X007634Y002317D03*
X007654Y002367D03*
X007674Y002417D03*
X007694Y002467D03*
X007704Y002497D03*
X007714Y002517D03*
X007724Y002547D03*
X007734Y002567D03*
X007744Y002597D03*
X007764Y002647D03*
X007584Y002647D03*
X007564Y002597D03*
X007554Y002567D03*
X007544Y002547D03*
X007534Y002517D03*
X007524Y002497D03*
X007514Y002467D03*
X007494Y002417D03*
X007474Y002367D03*
X007454Y002317D03*
X007434Y002267D03*
X007184Y002317D03*
X007184Y002327D03*
X007184Y002337D03*
X007034Y002297D03*
X006924Y002337D03*
X006934Y002367D03*
X006934Y002377D03*
X006934Y002387D03*
X006934Y002437D03*
X006934Y002447D03*
X006934Y002457D03*
X006924Y002487D03*
X007044Y002487D03*
X007044Y002497D03*
X007044Y002507D03*
X007044Y002457D03*
X006724Y002517D03*
X006724Y002527D03*
X006724Y002537D03*
X006724Y002547D03*
X006524Y002547D03*
X006524Y002557D03*
X006524Y002567D03*
X006524Y002577D03*
X006524Y002587D03*
X006524Y002597D03*
X006524Y002607D03*
X006524Y002617D03*
X006294Y002617D03*
X006294Y002607D03*
X006294Y002597D03*
X006294Y002587D03*
X006294Y002577D03*
X006294Y002567D03*
X006294Y002557D03*
X006294Y002547D03*
X006134Y002487D03*
X006294Y002317D03*
X006294Y002307D03*
X006524Y002307D03*
X006524Y002317D03*
X010724Y002267D03*
X010744Y002317D03*
X010764Y002367D03*
X010784Y002417D03*
X010804Y002467D03*
X010814Y002497D03*
X010824Y002517D03*
X010834Y002547D03*
X010844Y002567D03*
X010854Y002597D03*
X010874Y002647D03*
X011294Y002487D03*
X011294Y002477D03*
X011294Y002467D03*
X011434Y002517D03*
X011434Y002527D03*
X011434Y002537D03*
X011434Y002547D03*
X011624Y002487D03*
X011904Y002677D03*
X012104Y002507D03*
X012104Y002497D03*
X012104Y002487D03*
X012104Y002457D03*
X012094Y002297D03*
X012244Y002317D03*
X012244Y002327D03*
X012244Y002337D03*
X011304Y002297D03*
X011304Y002287D03*
X011304Y002277D03*
X011304Y002267D03*
X011114Y002307D03*
X011114Y002347D03*
X011114Y002357D03*
X011124Y002367D03*
X010974Y002207D03*
X010914Y002157D03*
D17*
X011179Y002277D03*
X010369Y002527D03*
X009309Y002537D03*
X009299Y002277D03*
X008929Y002277D03*
X008359Y002287D03*
X007989Y002527D03*
X007909Y002387D03*
X007909Y002167D03*
X007119Y002537D03*
X006849Y002537D03*
X006839Y002277D03*
X006569Y002287D03*
X006339Y002287D03*
X012179Y002537D03*
D18*
X012219Y002387D03*
X011889Y002647D03*
X011449Y002507D03*
X011289Y002417D03*
X011289Y002307D03*
X011139Y002517D03*
X010979Y002647D03*
X010279Y002507D03*
X010929Y002167D03*
X009509Y002287D03*
X008529Y002507D03*
X008139Y002647D03*
X007859Y002527D03*
X007319Y002507D03*
X007159Y002387D03*
X007319Y002287D03*
X006739Y002507D03*
X005959Y002507D03*
X008009Y002277D03*
D19*
X007904Y002177D03*
X008334Y002517D03*
X008334Y002527D03*
X008334Y002537D03*
X009734Y002527D03*
X011234Y002397D03*
X006544Y002517D03*
X006544Y002527D03*
X006544Y002537D03*
X006314Y002537D03*
X006314Y002527D03*
X006314Y002517D03*
D20*
X006744Y002297D03*
X007054Y002287D03*
X009034Y002307D03*
X009204Y002297D03*
X009204Y002507D03*
X010374Y002547D03*
X010934Y002177D03*
X011884Y002637D03*
X012114Y002287D03*
D21*
X007909Y002187D03*
D22*
X007859Y002317D03*
X008359Y002267D03*
X008639Y002547D03*
X009299Y002267D03*
X010939Y002187D03*
X011169Y002387D03*
X011559Y002547D03*
X012139Y002427D03*
X012199Y002397D03*
X012179Y002547D03*
X007139Y002397D03*
X007079Y002427D03*
X007119Y002547D03*
X006849Y002547D03*
X006569Y002267D03*
X006339Y002267D03*
X006069Y002547D03*
D23*
X006114Y002517D03*
X005954Y002497D03*
X006734Y002497D03*
X006904Y002517D03*
X007064Y002437D03*
X007174Y002377D03*
X007154Y002287D03*
X007324Y002297D03*
X007324Y002277D03*
X006904Y002307D03*
X006894Y002297D03*
X006734Y002307D03*
X007324Y002497D03*
X007324Y002517D03*
X007824Y002197D03*
X008144Y002637D03*
X008144Y002657D03*
X008524Y002497D03*
X008684Y002517D03*
X008874Y002297D03*
X009044Y002317D03*
X009194Y002307D03*
X009354Y002297D03*
X009504Y002297D03*
X009504Y002277D03*
X009654Y002307D03*
X009664Y002297D03*
X009654Y002507D03*
X009664Y002517D03*
X009944Y002517D03*
X010094Y002517D03*
X010274Y002497D03*
X010444Y002487D03*
X010594Y002517D03*
X010984Y002637D03*
X010984Y002657D03*
X011274Y002517D03*
X011444Y002497D03*
X011604Y002517D03*
X011824Y002597D03*
X011834Y002607D03*
X011894Y002657D03*
X012124Y002437D03*
X012234Y002377D03*
X012214Y002287D03*
X011294Y002317D03*
X011134Y002287D03*
X010094Y002297D03*
X009944Y002297D03*
X009374Y002507D03*
X009364Y002517D03*
X009194Y002497D03*
D24*
X009809Y002317D03*
X009509Y002257D03*
X010699Y002227D03*
X010979Y002617D03*
X010899Y002687D03*
X011789Y002547D03*
X012249Y002507D03*
X008139Y002617D03*
X007909Y002557D03*
X007789Y002687D03*
X007609Y002687D03*
X007319Y002477D03*
X007189Y002507D03*
X007319Y002257D03*
X007409Y002227D03*
X007589Y002227D03*
D25*
X007599Y002237D03*
X007609Y002247D03*
X007609Y002257D03*
X007619Y002277D03*
X007619Y002287D03*
X007629Y002297D03*
X007629Y002307D03*
X007639Y002327D03*
X007639Y002337D03*
X007649Y002347D03*
X007649Y002357D03*
X007659Y002377D03*
X007659Y002387D03*
X007669Y002397D03*
X007669Y002407D03*
X007679Y002427D03*
X007679Y002437D03*
X007689Y002447D03*
X007689Y002457D03*
X007699Y002477D03*
X007699Y002487D03*
X007709Y002507D03*
X007719Y002527D03*
X007719Y002537D03*
X007729Y002557D03*
X007739Y002577D03*
X007739Y002587D03*
X007749Y002607D03*
X007749Y002617D03*
X007759Y002627D03*
X007759Y002637D03*
X007769Y002657D03*
X007769Y002667D03*
X007779Y002677D03*
X007599Y002677D03*
X007589Y002667D03*
X007589Y002657D03*
X007579Y002637D03*
X007579Y002627D03*
X007569Y002617D03*
X007569Y002607D03*
X007559Y002587D03*
X007559Y002577D03*
X007549Y002557D03*
X007539Y002537D03*
X007539Y002527D03*
X007529Y002507D03*
X007519Y002487D03*
X007519Y002477D03*
X007509Y002457D03*
X007509Y002447D03*
X007499Y002437D03*
X007499Y002427D03*
X007489Y002407D03*
X007489Y002397D03*
X007479Y002387D03*
X007479Y002377D03*
X007469Y002357D03*
X007469Y002347D03*
X007459Y002337D03*
X007459Y002327D03*
X007449Y002307D03*
X007449Y002297D03*
X007439Y002287D03*
X007439Y002277D03*
X007429Y002257D03*
X007429Y002247D03*
X007419Y002237D03*
X007319Y002317D03*
X007319Y002537D03*
X007179Y002517D03*
X007119Y002557D03*
X006849Y002557D03*
X006779Y002517D03*
X006529Y002627D03*
X006529Y002637D03*
X006529Y002647D03*
X006299Y002647D03*
X006299Y002637D03*
X006299Y002627D03*
X006069Y002557D03*
X005999Y002517D03*
X006339Y002257D03*
X006569Y002257D03*
X007809Y002257D03*
X007829Y002277D03*
X007829Y002347D03*
X007829Y002357D03*
X007839Y002367D03*
X007999Y002447D03*
X007999Y002477D03*
X008139Y002677D03*
X008319Y002647D03*
X008319Y002637D03*
X008319Y002627D03*
X008569Y002517D03*
X008639Y002557D03*
X008919Y002257D03*
X009059Y002257D03*
X009179Y002257D03*
X009299Y002257D03*
X009729Y002257D03*
X009809Y002307D03*
X010019Y002257D03*
X010709Y002237D03*
X010719Y002247D03*
X010719Y002257D03*
X010729Y002277D03*
X010729Y002287D03*
X010739Y002297D03*
X010739Y002307D03*
X010749Y002327D03*
X010749Y002337D03*
X010759Y002347D03*
X010759Y002357D03*
X010769Y002377D03*
X010769Y002387D03*
X010779Y002397D03*
X010779Y002407D03*
X010789Y002427D03*
X010789Y002437D03*
X010799Y002447D03*
X010799Y002457D03*
X010809Y002477D03*
X010809Y002487D03*
X010819Y002507D03*
X010829Y002527D03*
X010829Y002537D03*
X010839Y002557D03*
X010849Y002577D03*
X010849Y002587D03*
X010859Y002607D03*
X010859Y002617D03*
X010869Y002627D03*
X010869Y002637D03*
X010879Y002657D03*
X010879Y002667D03*
X010889Y002677D03*
X010979Y002677D03*
X011219Y002557D03*
X011249Y002297D03*
X011309Y002257D03*
X011169Y002257D03*
X011489Y002517D03*
X011559Y002557D03*
X011789Y002557D03*
X012179Y002557D03*
X012239Y002517D03*
X010549Y002557D03*
X010469Y002507D03*
X010309Y002517D03*
X010019Y002557D03*
X009239Y002517D03*
X008359Y002257D03*
D26*
X008404Y002297D03*
X009314Y002557D03*
X009804Y002507D03*
X010374Y002557D03*
X010464Y002497D03*
X010964Y002557D03*
X011124Y002497D03*
X012094Y002307D03*
X012164Y002257D03*
X007104Y002257D03*
X007034Y002307D03*
X006834Y002257D03*
X006614Y002297D03*
X006384Y002297D03*
D27*
X007944Y002537D03*
X011894Y002287D03*
X011894Y002277D03*
X011894Y002267D03*
X011894Y002257D03*
D28*
X012164Y002267D03*
X012164Y002417D03*
X011874Y002627D03*
X011174Y002267D03*
X010544Y002547D03*
X010374Y002537D03*
X009314Y002547D03*
X008924Y002267D03*
X008004Y002517D03*
X007894Y002377D03*
X007104Y002417D03*
X007104Y002267D03*
X006834Y002267D03*
D29*
X007119Y002407D03*
X007909Y002547D03*
X009729Y002547D03*
X010019Y002547D03*
X010019Y002267D03*
X009729Y002267D03*
X011209Y002547D03*
X011869Y002617D03*
X012179Y002407D03*
D30*
X011554Y002537D03*
X010544Y002537D03*
X008634Y002537D03*
X008364Y002277D03*
X006574Y002277D03*
X006344Y002277D03*
X006064Y002537D03*
D31*
X006064Y002527D03*
X007104Y002277D03*
X008634Y002527D03*
X009734Y002537D03*
X010544Y002527D03*
X011254Y002407D03*
X011554Y002527D03*
X012164Y002277D03*
D32*
X011209Y002537D03*
X010019Y002537D03*
X010019Y002277D03*
X009729Y002277D03*
X009299Y002287D03*
X008929Y002287D03*
X009309Y002527D03*
X007909Y002397D03*
X006849Y002527D03*
X006839Y002287D03*
D33*
X007934Y002287D03*
D34*
X009729Y002287D03*
X011209Y002527D03*
D35*
X010019Y002527D03*
X010019Y002287D03*
X007929Y002297D03*
X007909Y002307D03*
D36*
X007124Y002527D03*
X012184Y002527D03*
D37*
X030778Y003012D02*
X030839Y003012D01*
X030855Y003014D01*
X030870Y003018D01*
X030885Y003026D01*
X030897Y003036D01*
X030907Y003048D01*
X030915Y003063D01*
X030919Y003078D01*
X030921Y003094D01*
X030921Y002184D01*
X031268Y002092D02*
X031350Y002092D01*
X031452Y001152D01*
X031657Y001152D01*
X031759Y002092D01*
X031841Y002092D01*
X031739Y001009D01*
X031735Y000990D01*
X031729Y000971D01*
X031719Y000954D01*
X031707Y000938D01*
X031692Y000925D01*
X031675Y000914D01*
X031657Y000907D01*
X031432Y000907D02*
X031414Y000914D01*
X031397Y000925D01*
X031382Y000938D01*
X031370Y000954D01*
X031360Y000971D01*
X031354Y000990D01*
X031350Y001009D01*
X031268Y002092D01*
X032025Y002603D02*
X031943Y001009D01*
X031945Y000993D01*
X031949Y000978D01*
X031957Y000963D01*
X031967Y000951D01*
X031979Y000941D01*
X031994Y000933D01*
X032009Y000929D01*
X032025Y000927D01*
X032025Y000927D01*
X032041Y000929D01*
X032056Y000933D01*
X032071Y000941D01*
X032083Y000951D01*
X032093Y000963D01*
X032101Y000978D01*
X032105Y000993D01*
X032107Y001009D01*
X032106Y001009D02*
X032188Y002358D01*
X032679Y002358D01*
X032760Y001009D01*
X032762Y000993D01*
X032766Y000978D01*
X032774Y000963D01*
X032784Y000951D01*
X032796Y000941D01*
X032811Y000933D01*
X032826Y000929D01*
X032842Y000927D01*
X032858Y000929D01*
X032873Y000933D01*
X032888Y000941D01*
X032900Y000951D01*
X032910Y000963D01*
X032918Y000978D01*
X032922Y000993D01*
X032924Y001009D01*
X032842Y002603D01*
X032843Y002603D02*
X032840Y002621D01*
X032833Y002638D01*
X032824Y002653D01*
X032811Y002666D01*
X032796Y002675D01*
X032779Y002682D01*
X032761Y002685D01*
X032760Y002685D02*
X032106Y002685D01*
X032088Y002682D01*
X032071Y002675D01*
X032056Y002666D01*
X032043Y002653D01*
X032034Y002638D01*
X032027Y002621D01*
X032024Y002603D01*
X031739Y003032D02*
X033128Y003032D01*
X033128Y003033D02*
X033148Y003035D01*
X033167Y003041D01*
X033185Y003050D01*
X033200Y003063D01*
X033213Y003078D01*
X033222Y003096D01*
X033228Y003115D01*
X033230Y003135D01*
X033231Y003134D02*
X033229Y003150D01*
X033225Y003165D01*
X033217Y003180D01*
X033207Y003192D01*
X033195Y003202D01*
X033180Y003210D01*
X033165Y003214D01*
X033149Y003216D01*
X031718Y003216D01*
X031702Y003214D01*
X031687Y003210D01*
X031672Y003202D01*
X031660Y003192D01*
X031650Y003180D01*
X031642Y003165D01*
X031638Y003150D01*
X031636Y003134D01*
X031636Y003134D01*
X031637Y003134D02*
X031639Y003114D01*
X031645Y003095D01*
X031654Y003077D01*
X031667Y003062D01*
X031682Y003049D01*
X031700Y003040D01*
X031719Y003034D01*
X031739Y003032D01*
X031636Y003421D02*
X031636Y004156D01*
X031636Y004177D02*
X031248Y004177D01*
X031248Y004156D02*
X031248Y004013D01*
X033231Y004156D02*
X033231Y003421D01*
X033946Y003094D02*
X033946Y002184D01*
X033598Y002092D02*
X033517Y002092D01*
X033414Y001152D01*
X033210Y001152D01*
X033108Y002092D01*
X033026Y002092D01*
X033128Y001009D01*
X033132Y000990D01*
X033138Y000971D01*
X033148Y000954D01*
X033160Y000938D01*
X033175Y000925D01*
X033192Y000914D01*
X033210Y000907D01*
X033435Y000907D02*
X033453Y000914D01*
X033470Y000925D01*
X033485Y000938D01*
X033497Y000954D01*
X033507Y000971D01*
X033513Y000990D01*
X033517Y001009D01*
X033598Y002092D01*
X033434Y000907D02*
X033397Y000898D01*
X033360Y000892D01*
X033322Y000890D01*
X033284Y000892D01*
X033247Y000898D01*
X033210Y000907D01*
X033946Y001069D02*
X033946Y000477D01*
X033946Y000477D01*
X030921Y000477D01*
X030921Y001069D01*
X031432Y000907D02*
X031469Y000898D01*
X031506Y000892D01*
X031544Y000890D01*
X031582Y000892D01*
X031619Y000898D01*
X031656Y000907D01*
X034028Y003012D02*
X034089Y003012D01*
X034028Y003012D02*
X034012Y003014D01*
X033997Y003018D01*
X033982Y003026D01*
X033970Y003036D01*
X033960Y003048D01*
X033952Y003063D01*
X033948Y003078D01*
X033946Y003094D01*
X033619Y004013D02*
X033619Y004156D01*
X033619Y004177D02*
X033231Y004177D01*
D38*
X009480Y003693D02*
X009482Y003738D01*
X009488Y003782D01*
X009497Y003826D01*
X009511Y003868D01*
X009528Y003910D01*
X009549Y003949D01*
X009573Y003987D01*
X009600Y004023D01*
X009630Y004056D01*
X009663Y004086D01*
X009699Y004113D01*
X009736Y004137D01*
X009776Y004158D01*
X009818Y004175D01*
X009860Y004189D01*
X009904Y004198D01*
X009948Y004204D01*
X009993Y004206D01*
X010038Y004204D01*
X010082Y004198D01*
X010126Y004189D01*
X010168Y004175D01*
X010210Y004158D01*
X010249Y004137D01*
X010287Y004113D01*
X010323Y004086D01*
X010356Y004056D01*
X010386Y004023D01*
X010413Y003987D01*
X010437Y003949D01*
X010458Y003910D01*
X010475Y003868D01*
X010489Y003826D01*
X010498Y003782D01*
X010504Y003738D01*
X010506Y003693D01*
X010504Y003648D01*
X010498Y003604D01*
X010489Y003560D01*
X010475Y003518D01*
X010458Y003476D01*
X010437Y003437D01*
X010413Y003399D01*
X010386Y003363D01*
X010356Y003330D01*
X010323Y003300D01*
X010287Y003273D01*
X010250Y003249D01*
X010210Y003228D01*
X010168Y003211D01*
X010126Y003197D01*
X010082Y003188D01*
X010038Y003182D01*
X009993Y003180D01*
X009948Y003182D01*
X009904Y003188D01*
X009860Y003197D01*
X009818Y003211D01*
X009776Y003228D01*
X009736Y003249D01*
X009699Y003273D01*
X009663Y003300D01*
X009630Y003330D01*
X009600Y003363D01*
X009573Y003399D01*
X009549Y003436D01*
X009528Y003476D01*
X009511Y003518D01*
X009497Y003560D01*
X009488Y003604D01*
X009482Y003648D01*
X009480Y003693D01*
X009283Y010091D02*
X009285Y010136D01*
X009291Y010180D01*
X009300Y010224D01*
X009314Y010266D01*
X009331Y010308D01*
X009352Y010347D01*
X009376Y010385D01*
X009403Y010421D01*
X009433Y010454D01*
X009466Y010484D01*
X009502Y010511D01*
X009539Y010535D01*
X009579Y010556D01*
X009621Y010573D01*
X009663Y010587D01*
X009707Y010596D01*
X009751Y010602D01*
X009796Y010604D01*
X009841Y010602D01*
X009885Y010596D01*
X009929Y010587D01*
X009971Y010573D01*
X010013Y010556D01*
X010052Y010535D01*
X010090Y010511D01*
X010126Y010484D01*
X010159Y010454D01*
X010189Y010421D01*
X010216Y010385D01*
X010240Y010347D01*
X010261Y010308D01*
X010278Y010266D01*
X010292Y010224D01*
X010301Y010180D01*
X010307Y010136D01*
X010309Y010091D01*
X010307Y010046D01*
X010301Y010002D01*
X010292Y009958D01*
X010278Y009916D01*
X010261Y009874D01*
X010240Y009835D01*
X010216Y009797D01*
X010189Y009761D01*
X010159Y009728D01*
X010126Y009698D01*
X010090Y009671D01*
X010053Y009647D01*
X010013Y009626D01*
X009971Y009609D01*
X009929Y009595D01*
X009885Y009586D01*
X009841Y009580D01*
X009796Y009578D01*
X009751Y009580D01*
X009707Y009586D01*
X009663Y009595D01*
X009621Y009609D01*
X009579Y009626D01*
X009539Y009647D01*
X009502Y009671D01*
X009466Y009698D01*
X009433Y009728D01*
X009403Y009761D01*
X009376Y009797D01*
X009352Y009834D01*
X009331Y009874D01*
X009314Y009916D01*
X009300Y009958D01*
X009291Y010002D01*
X009285Y010046D01*
X009283Y010091D01*
X004952Y010386D02*
X004954Y010431D01*
X004960Y010475D01*
X004969Y010519D01*
X004983Y010561D01*
X005000Y010603D01*
X005021Y010642D01*
X005045Y010680D01*
X005072Y010716D01*
X005102Y010749D01*
X005135Y010779D01*
X005171Y010806D01*
X005208Y010830D01*
X005248Y010851D01*
X005290Y010868D01*
X005332Y010882D01*
X005376Y010891D01*
X005420Y010897D01*
X005465Y010899D01*
X005510Y010897D01*
X005554Y010891D01*
X005598Y010882D01*
X005640Y010868D01*
X005682Y010851D01*
X005721Y010830D01*
X005759Y010806D01*
X005795Y010779D01*
X005828Y010749D01*
X005858Y010716D01*
X005885Y010680D01*
X005909Y010642D01*
X005930Y010603D01*
X005947Y010561D01*
X005961Y010519D01*
X005970Y010475D01*
X005976Y010431D01*
X005978Y010386D01*
X005976Y010341D01*
X005970Y010297D01*
X005961Y010253D01*
X005947Y010211D01*
X005930Y010169D01*
X005909Y010130D01*
X005885Y010092D01*
X005858Y010056D01*
X005828Y010023D01*
X005795Y009993D01*
X005759Y009966D01*
X005722Y009942D01*
X005682Y009921D01*
X005640Y009904D01*
X005598Y009890D01*
X005554Y009881D01*
X005510Y009875D01*
X005465Y009873D01*
X005420Y009875D01*
X005376Y009881D01*
X005332Y009890D01*
X005290Y009904D01*
X005248Y009921D01*
X005208Y009942D01*
X005171Y009966D01*
X005135Y009993D01*
X005102Y010023D01*
X005072Y010056D01*
X005045Y010092D01*
X005021Y010129D01*
X005000Y010169D01*
X004983Y010211D01*
X004969Y010253D01*
X004960Y010297D01*
X004954Y010341D01*
X004952Y010386D01*
X002787Y010386D02*
X002789Y010431D01*
X002795Y010475D01*
X002804Y010519D01*
X002818Y010561D01*
X002835Y010603D01*
X002856Y010642D01*
X002880Y010680D01*
X002907Y010716D01*
X002937Y010749D01*
X002970Y010779D01*
X003006Y010806D01*
X003043Y010830D01*
X003083Y010851D01*
X003125Y010868D01*
X003167Y010882D01*
X003211Y010891D01*
X003255Y010897D01*
X003300Y010899D01*
X003345Y010897D01*
X003389Y010891D01*
X003433Y010882D01*
X003475Y010868D01*
X003517Y010851D01*
X003556Y010830D01*
X003594Y010806D01*
X003630Y010779D01*
X003663Y010749D01*
X003693Y010716D01*
X003720Y010680D01*
X003744Y010642D01*
X003765Y010603D01*
X003782Y010561D01*
X003796Y010519D01*
X003805Y010475D01*
X003811Y010431D01*
X003813Y010386D01*
X003811Y010341D01*
X003805Y010297D01*
X003796Y010253D01*
X003782Y010211D01*
X003765Y010169D01*
X003744Y010130D01*
X003720Y010092D01*
X003693Y010056D01*
X003663Y010023D01*
X003630Y009993D01*
X003594Y009966D01*
X003557Y009942D01*
X003517Y009921D01*
X003475Y009904D01*
X003433Y009890D01*
X003389Y009881D01*
X003345Y009875D01*
X003300Y009873D01*
X003255Y009875D01*
X003211Y009881D01*
X003167Y009890D01*
X003125Y009904D01*
X003083Y009921D01*
X003043Y009942D01*
X003006Y009966D01*
X002970Y009993D01*
X002937Y010023D01*
X002907Y010056D01*
X002880Y010092D01*
X002856Y010129D01*
X002835Y010169D01*
X002818Y010211D01*
X002804Y010253D01*
X002795Y010297D01*
X002789Y010341D01*
X002787Y010386D01*
X004520Y013103D02*
X006410Y013103D01*
X007079Y013103D02*
X008969Y013103D01*
D39*
X012217Y005465D03*
D40*
X013241Y008615D02*
X018556Y008615D01*
X018556Y008713D01*
X013241Y008713D02*
X013241Y008615D01*
X013241Y013437D02*
X013241Y015898D01*
X018556Y015898D01*
X018556Y013437D01*
X030603Y013890D02*
X032493Y013890D01*
X033811Y012945D02*
X031056Y012945D01*
X031056Y010189D01*
X033811Y010189D01*
X033811Y012859D01*
X033811Y012863D02*
X033811Y012945D01*
X033466Y012725D02*
X033468Y012747D01*
X033474Y012768D01*
X033483Y012787D01*
X033496Y012805D01*
X033512Y012820D01*
X033530Y012832D01*
X033550Y012840D01*
X033571Y012845D01*
X033592Y012846D01*
X033614Y012843D01*
X033635Y012836D01*
X033654Y012826D01*
X033671Y012812D01*
X033685Y012796D01*
X033696Y012777D01*
X033704Y012757D01*
X033708Y012736D01*
X033708Y012714D01*
X033704Y012693D01*
X033696Y012673D01*
X033685Y012654D01*
X033671Y012638D01*
X033654Y012624D01*
X033635Y012614D01*
X033614Y012607D01*
X033592Y012604D01*
X033571Y012605D01*
X033550Y012610D01*
X033530Y012618D01*
X033512Y012630D01*
X033496Y012645D01*
X033483Y012663D01*
X033474Y012682D01*
X033468Y012703D01*
X033466Y012725D01*
X032493Y015150D02*
X030603Y015150D01*
X035288Y007473D02*
X035091Y007276D01*
X035288Y007473D02*
X036469Y007473D01*
X036666Y007276D01*
X036902Y006882D02*
X036902Y006016D01*
X036666Y005622D02*
X036469Y005426D01*
X035288Y005426D01*
X035091Y005622D01*
X034855Y006016D02*
X034855Y006882D01*
X029284Y005701D02*
X026922Y005701D01*
X026922Y005268D01*
X026922Y004638D02*
X026922Y003693D01*
X026922Y003024D02*
X026922Y002512D01*
X026922Y001882D02*
X026922Y000937D01*
X029284Y000937D01*
X029284Y005032D01*
D41*
X020180Y011725D03*
X019884Y011725D03*
M02*
