G75*
G70*
%OFA0B0*%
%FSLAX24Y24*%
%IPPOS*%
%LPD*%
%AMOC8*
5,1,8,0,0,1.08239X$1,22.5*
%
%ADD10C,0.0000*%
%ADD11R,0.0003X0.0003*%
%ADD12R,0.0008X0.0003*%
%ADD13R,0.0005X0.0003*%
%ADD14R,0.0015X0.0003*%
%ADD15R,0.0020X0.0003*%
%ADD16R,0.0010X0.0003*%
%ADD17R,0.0018X0.0003*%
%ADD18R,0.0067X0.0003*%
%ADD19R,0.0013X0.0003*%
%ADD20R,0.0045X0.0003*%
%ADD21R,0.0077X0.0003*%
%ADD22R,0.0030X0.0003*%
%ADD23R,0.0032X0.0003*%
%ADD24R,0.0022X0.0003*%
%ADD25R,0.0127X0.0003*%
%ADD26R,0.0140X0.0003*%
%ADD27R,0.0025X0.0003*%
%ADD28R,0.0043X0.0003*%
%ADD29R,0.0053X0.0003*%
%ADD30R,0.0088X0.0003*%
%ADD31R,0.0035X0.0003*%
%ADD32R,0.0055X0.0003*%
%ADD33R,0.0040X0.0003*%
%ADD34R,0.0080X0.0003*%
%ADD35R,0.0065X0.0003*%
%ADD36R,0.0090X0.0003*%
%ADD37R,0.0143X0.0003*%
%ADD38R,0.0248X0.0003*%
%ADD39R,0.0293X0.0003*%
%ADD40R,0.0257X0.0003*%
%ADD41R,0.0037X0.0003*%
%ADD42R,0.0262X0.0003*%
%ADD43R,0.0027X0.0003*%
%ADD44R,0.0280X0.0003*%
%ADD45R,0.0070X0.0003*%
%ADD46R,0.0440X0.0003*%
%ADD47R,0.0315X0.0003*%
%ADD48R,0.0085X0.0003*%
%ADD49R,0.0330X0.0003*%
%ADD50R,0.0323X0.0003*%
%ADD51R,0.0107X0.0003*%
%ADD52R,0.0057X0.0003*%
%ADD53R,0.0490X0.0003*%
%ADD54R,0.0360X0.0003*%
%ADD55R,0.0512X0.0003*%
%ADD56R,0.0390X0.0003*%
%ADD57R,0.0565X0.0003*%
%ADD58R,0.0325X0.0003*%
%ADD59R,0.0168X0.0003*%
%ADD60R,0.0307X0.0003*%
%ADD61R,0.0152X0.0003*%
%ADD62R,0.0272X0.0003*%
%ADD63R,0.0132X0.0003*%
%ADD64R,0.0147X0.0003*%
%ADD65R,0.0243X0.0003*%
%ADD66R,0.0125X0.0003*%
%ADD67R,0.0240X0.0003*%
%ADD68R,0.0130X0.0003*%
%ADD69R,0.0225X0.0003*%
%ADD70R,0.0083X0.0003*%
%ADD71R,0.0222X0.0003*%
%ADD72R,0.0217X0.0003*%
%ADD73R,0.0120X0.0003*%
%ADD74R,0.0215X0.0003*%
%ADD75R,0.0118X0.0003*%
%ADD76R,0.0205X0.0003*%
%ADD77R,0.0103X0.0003*%
%ADD78R,0.0210X0.0003*%
%ADD79R,0.0097X0.0003*%
%ADD80R,0.0198X0.0003*%
%ADD81R,0.0100X0.0003*%
%ADD82R,0.0190X0.0003*%
%ADD83R,0.0187X0.0003*%
%ADD84R,0.0192X0.0003*%
%ADD85R,0.0170X0.0003*%
%ADD86R,0.0173X0.0003*%
%ADD87R,0.0182X0.0003*%
%ADD88R,0.0180X0.0003*%
%ADD89R,0.0047X0.0003*%
%ADD90R,0.0165X0.0003*%
%ADD91R,0.0163X0.0003*%
%ADD92R,0.0160X0.0003*%
%ADD93R,0.0158X0.0003*%
%ADD94R,0.0155X0.0003*%
%ADD95R,0.0092X0.0003*%
%ADD96R,0.0150X0.0003*%
%ADD97R,0.0105X0.0003*%
%ADD98R,0.0115X0.0003*%
%ADD99R,0.0145X0.0003*%
%ADD100R,0.0138X0.0003*%
%ADD101R,0.0135X0.0003*%
%ADD102R,0.0075X0.0003*%
%ADD103R,0.0063X0.0003*%
%ADD104R,0.0060X0.0003*%
%ADD105R,0.0050X0.0003*%
%ADD106R,0.0123X0.0003*%
%ADD107R,0.0112X0.0003*%
%ADD108R,0.0110X0.0003*%
%ADD109R,0.0073X0.0003*%
%ADD110R,0.0095X0.0003*%
%ADD111R,0.0185X0.0003*%
%ADD112R,0.0208X0.0003*%
%ADD113R,0.0235X0.0003*%
%ADD114R,0.0260X0.0003*%
%ADD115R,0.0267X0.0003*%
%ADD116R,0.0283X0.0003*%
%ADD117R,0.0295X0.0003*%
%ADD118R,0.0302X0.0003*%
%ADD119R,0.0320X0.0003*%
%ADD120R,0.0333X0.0003*%
%ADD121R,0.0338X0.0003*%
%ADD122R,0.0343X0.0003*%
%ADD123R,0.0350X0.0003*%
%ADD124R,0.0355X0.0003*%
%ADD125R,0.0365X0.0003*%
%ADD126R,0.0370X0.0003*%
%ADD127R,0.0375X0.0003*%
%ADD128R,0.0380X0.0003*%
%ADD129R,0.0382X0.0003*%
%ADD130R,0.0393X0.0003*%
%ADD131R,0.0398X0.0003*%
%ADD132R,0.0403X0.0003*%
%ADD133R,0.0405X0.0003*%
%ADD134R,0.0415X0.0003*%
%ADD135R,0.0177X0.0003*%
%ADD136R,0.0175X0.0003*%
%ADD137R,0.0195X0.0003*%
%ADD138R,0.0200X0.0003*%
%ADD139R,0.0203X0.0003*%
%ADD140R,0.0213X0.0003*%
%ADD141R,0.0220X0.0003*%
%ADD142R,0.0227X0.0003*%
%ADD143R,0.0230X0.0003*%
%ADD144R,0.0232X0.0003*%
%ADD145R,0.0238X0.0003*%
%ADD146R,0.0245X0.0003*%
%ADD147R,0.0250X0.0003*%
%ADD148R,0.0253X0.0003*%
%ADD149R,0.0255X0.0003*%
%ADD150R,0.0305X0.0003*%
%ADD151R,0.0318X0.0003*%
%ADD152R,0.0328X0.0003*%
%ADD153R,0.0335X0.0003*%
%ADD154R,0.0340X0.0003*%
%ADD155R,0.0352X0.0003*%
%ADD156R,0.0387X0.0003*%
%ADD157R,0.0410X0.0003*%
%ADD158R,0.0413X0.0003*%
%ADD159R,0.0430X0.0003*%
%ADD160R,0.0432X0.0003*%
%ADD161R,0.0428X0.0003*%
%ADD162R,0.0420X0.0003*%
%ADD163R,0.0435X0.0003*%
%ADD164R,0.0425X0.0003*%
%ADD165R,0.0423X0.0003*%
%ADD166R,0.0418X0.0003*%
%ADD167R,0.0372X0.0003*%
%ADD168R,0.0362X0.0003*%
%ADD169R,0.0348X0.0003*%
%ADD170R,0.0345X0.0003*%
%ADD171R,0.0310X0.0003*%
%ADD172R,0.0300X0.0003*%
%ADD173R,0.0297X0.0003*%
%ADD174R,0.0285X0.0003*%
%ADD175R,0.0278X0.0003*%
%ADD176R,0.0265X0.0003*%
%ADD177R,0.0050X0.0010*%
%ADD178R,0.0040X0.0010*%
%ADD179R,0.0130X0.0010*%
%ADD180R,0.0070X0.0010*%
%ADD181R,0.0180X0.0010*%
%ADD182R,0.0080X0.0010*%
%ADD183R,0.0210X0.0010*%
%ADD184R,0.0090X0.0010*%
%ADD185R,0.0060X0.0010*%
%ADD186R,0.0010X0.0010*%
%ADD187R,0.0030X0.0010*%
%ADD188R,0.0020X0.0010*%
%ADD189R,0.0220X0.0010*%
%ADD190R,0.0100X0.0010*%
%ADD191R,0.0110X0.0010*%
%ADD192R,0.0120X0.0010*%
%ADD193R,0.0140X0.0010*%
%ADD194R,0.0150X0.0010*%
%ADD195R,0.0200X0.0010*%
%ADD196R,0.0170X0.0010*%
%ADD197R,0.0190X0.0010*%
%ADD198R,0.0160X0.0010*%
%ADD199C,0.0060*%
D10*
X001725Y000937D02*
X037945Y000937D01*
X037315Y002512D02*
X037317Y002562D01*
X037323Y002612D01*
X037333Y002661D01*
X037347Y002709D01*
X037364Y002756D01*
X037385Y002801D01*
X037410Y002845D01*
X037438Y002886D01*
X037470Y002925D01*
X037504Y002962D01*
X037541Y002996D01*
X037581Y003026D01*
X037623Y003053D01*
X037667Y003077D01*
X037713Y003098D01*
X037760Y003114D01*
X037808Y003127D01*
X037858Y003136D01*
X037907Y003141D01*
X037958Y003142D01*
X038008Y003139D01*
X038057Y003132D01*
X038106Y003121D01*
X038154Y003106D01*
X038200Y003088D01*
X038245Y003066D01*
X038288Y003040D01*
X038329Y003011D01*
X038368Y002979D01*
X038404Y002944D01*
X038436Y002906D01*
X038466Y002866D01*
X038493Y002823D01*
X038516Y002779D01*
X038535Y002733D01*
X038551Y002685D01*
X038563Y002636D01*
X038571Y002587D01*
X038575Y002537D01*
X038575Y002487D01*
X038571Y002437D01*
X038563Y002388D01*
X038551Y002339D01*
X038535Y002291D01*
X038516Y002245D01*
X038493Y002201D01*
X038466Y002158D01*
X038436Y002118D01*
X038404Y002080D01*
X038368Y002045D01*
X038329Y002013D01*
X038288Y001984D01*
X038245Y001958D01*
X038200Y001936D01*
X038154Y001918D01*
X038106Y001903D01*
X038057Y001892D01*
X038008Y001885D01*
X037958Y001882D01*
X037907Y001883D01*
X037858Y001888D01*
X037808Y001897D01*
X037760Y001910D01*
X037713Y001926D01*
X037667Y001947D01*
X037623Y001971D01*
X037581Y001998D01*
X037541Y002028D01*
X037504Y002062D01*
X037470Y002099D01*
X037438Y002138D01*
X037410Y002179D01*
X037385Y002223D01*
X037364Y002268D01*
X037347Y002315D01*
X037333Y002363D01*
X037323Y002412D01*
X037317Y002462D01*
X037315Y002512D01*
X037945Y000937D02*
X038022Y000939D01*
X038099Y000945D01*
X038176Y000954D01*
X038252Y000967D01*
X038328Y000984D01*
X038402Y001005D01*
X038476Y001029D01*
X038548Y001057D01*
X038618Y001088D01*
X038687Y001123D01*
X038755Y001161D01*
X038820Y001202D01*
X038883Y001247D01*
X038944Y001295D01*
X039003Y001345D01*
X039059Y001398D01*
X039112Y001454D01*
X039162Y001513D01*
X039210Y001574D01*
X039255Y001637D01*
X039296Y001702D01*
X039334Y001770D01*
X039369Y001839D01*
X039400Y001909D01*
X039428Y001981D01*
X039452Y002055D01*
X039473Y002129D01*
X039490Y002205D01*
X039503Y002281D01*
X039512Y002358D01*
X039518Y002435D01*
X039520Y002512D01*
X039520Y015898D01*
X037315Y015898D02*
X037317Y015948D01*
X037323Y015998D01*
X037333Y016047D01*
X037347Y016095D01*
X037364Y016142D01*
X037385Y016187D01*
X037410Y016231D01*
X037438Y016272D01*
X037470Y016311D01*
X037504Y016348D01*
X037541Y016382D01*
X037581Y016412D01*
X037623Y016439D01*
X037667Y016463D01*
X037713Y016484D01*
X037760Y016500D01*
X037808Y016513D01*
X037858Y016522D01*
X037907Y016527D01*
X037958Y016528D01*
X038008Y016525D01*
X038057Y016518D01*
X038106Y016507D01*
X038154Y016492D01*
X038200Y016474D01*
X038245Y016452D01*
X038288Y016426D01*
X038329Y016397D01*
X038368Y016365D01*
X038404Y016330D01*
X038436Y016292D01*
X038466Y016252D01*
X038493Y016209D01*
X038516Y016165D01*
X038535Y016119D01*
X038551Y016071D01*
X038563Y016022D01*
X038571Y015973D01*
X038575Y015923D01*
X038575Y015873D01*
X038571Y015823D01*
X038563Y015774D01*
X038551Y015725D01*
X038535Y015677D01*
X038516Y015631D01*
X038493Y015587D01*
X038466Y015544D01*
X038436Y015504D01*
X038404Y015466D01*
X038368Y015431D01*
X038329Y015399D01*
X038288Y015370D01*
X038245Y015344D01*
X038200Y015322D01*
X038154Y015304D01*
X038106Y015289D01*
X038057Y015278D01*
X038008Y015271D01*
X037958Y015268D01*
X037907Y015269D01*
X037858Y015274D01*
X037808Y015283D01*
X037760Y015296D01*
X037713Y015312D01*
X037667Y015333D01*
X037623Y015357D01*
X037581Y015384D01*
X037541Y015414D01*
X037504Y015448D01*
X037470Y015485D01*
X037438Y015524D01*
X037410Y015565D01*
X037385Y015609D01*
X037364Y015654D01*
X037347Y015701D01*
X037333Y015749D01*
X037323Y015798D01*
X037317Y015848D01*
X037315Y015898D01*
X037945Y017473D02*
X038022Y017471D01*
X038099Y017465D01*
X038176Y017456D01*
X038252Y017443D01*
X038328Y017426D01*
X038402Y017405D01*
X038476Y017381D01*
X038548Y017353D01*
X038618Y017322D01*
X038687Y017287D01*
X038755Y017249D01*
X038820Y017208D01*
X038883Y017163D01*
X038944Y017115D01*
X039003Y017065D01*
X039059Y017012D01*
X039112Y016956D01*
X039162Y016897D01*
X039210Y016836D01*
X039255Y016773D01*
X039296Y016708D01*
X039334Y016640D01*
X039369Y016571D01*
X039400Y016501D01*
X039428Y016429D01*
X039452Y016355D01*
X039473Y016281D01*
X039490Y016205D01*
X039503Y016129D01*
X039512Y016052D01*
X039518Y015975D01*
X039520Y015898D01*
X037945Y017473D02*
X001725Y017473D01*
X001095Y015898D02*
X001097Y015948D01*
X001103Y015998D01*
X001113Y016047D01*
X001127Y016095D01*
X001144Y016142D01*
X001165Y016187D01*
X001190Y016231D01*
X001218Y016272D01*
X001250Y016311D01*
X001284Y016348D01*
X001321Y016382D01*
X001361Y016412D01*
X001403Y016439D01*
X001447Y016463D01*
X001493Y016484D01*
X001540Y016500D01*
X001588Y016513D01*
X001638Y016522D01*
X001687Y016527D01*
X001738Y016528D01*
X001788Y016525D01*
X001837Y016518D01*
X001886Y016507D01*
X001934Y016492D01*
X001980Y016474D01*
X002025Y016452D01*
X002068Y016426D01*
X002109Y016397D01*
X002148Y016365D01*
X002184Y016330D01*
X002216Y016292D01*
X002246Y016252D01*
X002273Y016209D01*
X002296Y016165D01*
X002315Y016119D01*
X002331Y016071D01*
X002343Y016022D01*
X002351Y015973D01*
X002355Y015923D01*
X002355Y015873D01*
X002351Y015823D01*
X002343Y015774D01*
X002331Y015725D01*
X002315Y015677D01*
X002296Y015631D01*
X002273Y015587D01*
X002246Y015544D01*
X002216Y015504D01*
X002184Y015466D01*
X002148Y015431D01*
X002109Y015399D01*
X002068Y015370D01*
X002025Y015344D01*
X001980Y015322D01*
X001934Y015304D01*
X001886Y015289D01*
X001837Y015278D01*
X001788Y015271D01*
X001738Y015268D01*
X001687Y015269D01*
X001638Y015274D01*
X001588Y015283D01*
X001540Y015296D01*
X001493Y015312D01*
X001447Y015333D01*
X001403Y015357D01*
X001361Y015384D01*
X001321Y015414D01*
X001284Y015448D01*
X001250Y015485D01*
X001218Y015524D01*
X001190Y015565D01*
X001165Y015609D01*
X001144Y015654D01*
X001127Y015701D01*
X001113Y015749D01*
X001103Y015798D01*
X001097Y015848D01*
X001095Y015898D01*
X000150Y015898D02*
X000152Y015975D01*
X000158Y016052D01*
X000167Y016129D01*
X000180Y016205D01*
X000197Y016281D01*
X000218Y016355D01*
X000242Y016429D01*
X000270Y016501D01*
X000301Y016571D01*
X000336Y016640D01*
X000374Y016708D01*
X000415Y016773D01*
X000460Y016836D01*
X000508Y016897D01*
X000558Y016956D01*
X000611Y017012D01*
X000667Y017065D01*
X000726Y017115D01*
X000787Y017163D01*
X000850Y017208D01*
X000915Y017249D01*
X000983Y017287D01*
X001052Y017322D01*
X001122Y017353D01*
X001194Y017381D01*
X001268Y017405D01*
X001342Y017426D01*
X001418Y017443D01*
X001494Y017456D01*
X001571Y017465D01*
X001648Y017471D01*
X001725Y017473D01*
X000150Y015898D02*
X000150Y002512D01*
X001095Y002512D02*
X001097Y002562D01*
X001103Y002612D01*
X001113Y002661D01*
X001127Y002709D01*
X001144Y002756D01*
X001165Y002801D01*
X001190Y002845D01*
X001218Y002886D01*
X001250Y002925D01*
X001284Y002962D01*
X001321Y002996D01*
X001361Y003026D01*
X001403Y003053D01*
X001447Y003077D01*
X001493Y003098D01*
X001540Y003114D01*
X001588Y003127D01*
X001638Y003136D01*
X001687Y003141D01*
X001738Y003142D01*
X001788Y003139D01*
X001837Y003132D01*
X001886Y003121D01*
X001934Y003106D01*
X001980Y003088D01*
X002025Y003066D01*
X002068Y003040D01*
X002109Y003011D01*
X002148Y002979D01*
X002184Y002944D01*
X002216Y002906D01*
X002246Y002866D01*
X002273Y002823D01*
X002296Y002779D01*
X002315Y002733D01*
X002331Y002685D01*
X002343Y002636D01*
X002351Y002587D01*
X002355Y002537D01*
X002355Y002487D01*
X002351Y002437D01*
X002343Y002388D01*
X002331Y002339D01*
X002315Y002291D01*
X002296Y002245D01*
X002273Y002201D01*
X002246Y002158D01*
X002216Y002118D01*
X002184Y002080D01*
X002148Y002045D01*
X002109Y002013D01*
X002068Y001984D01*
X002025Y001958D01*
X001980Y001936D01*
X001934Y001918D01*
X001886Y001903D01*
X001837Y001892D01*
X001788Y001885D01*
X001738Y001882D01*
X001687Y001883D01*
X001638Y001888D01*
X001588Y001897D01*
X001540Y001910D01*
X001493Y001926D01*
X001447Y001947D01*
X001403Y001971D01*
X001361Y001998D01*
X001321Y002028D01*
X001284Y002062D01*
X001250Y002099D01*
X001218Y002138D01*
X001190Y002179D01*
X001165Y002223D01*
X001144Y002268D01*
X001127Y002315D01*
X001113Y002363D01*
X001103Y002412D01*
X001097Y002462D01*
X001095Y002512D01*
X000150Y002512D02*
X000152Y002435D01*
X000158Y002358D01*
X000167Y002281D01*
X000180Y002205D01*
X000197Y002129D01*
X000218Y002055D01*
X000242Y001981D01*
X000270Y001909D01*
X000301Y001839D01*
X000336Y001770D01*
X000374Y001702D01*
X000415Y001637D01*
X000460Y001574D01*
X000508Y001513D01*
X000558Y001454D01*
X000611Y001398D01*
X000667Y001345D01*
X000726Y001295D01*
X000787Y001247D01*
X000850Y001202D01*
X000915Y001161D01*
X000983Y001123D01*
X001052Y001088D01*
X001122Y001057D01*
X001194Y001029D01*
X001268Y001005D01*
X001342Y000984D01*
X001418Y000967D01*
X001494Y000954D01*
X001571Y000945D01*
X001648Y000939D01*
X001725Y000937D01*
X023782Y010593D02*
X023784Y010620D01*
X023790Y010647D01*
X023799Y010673D01*
X023812Y010697D01*
X023828Y010720D01*
X023847Y010739D01*
X023869Y010756D01*
X023893Y010770D01*
X023918Y010780D01*
X023945Y010787D01*
X023972Y010790D01*
X024000Y010789D01*
X024027Y010784D01*
X024053Y010776D01*
X024077Y010764D01*
X024100Y010748D01*
X024121Y010730D01*
X024138Y010709D01*
X024153Y010685D01*
X024164Y010660D01*
X024172Y010634D01*
X024176Y010607D01*
X024176Y010579D01*
X024172Y010552D01*
X024164Y010526D01*
X024153Y010501D01*
X024138Y010477D01*
X024121Y010456D01*
X024100Y010438D01*
X024078Y010422D01*
X024053Y010410D01*
X024027Y010402D01*
X024000Y010397D01*
X023972Y010396D01*
X023945Y010399D01*
X023918Y010406D01*
X023893Y010416D01*
X023869Y010430D01*
X023847Y010447D01*
X023828Y010466D01*
X023812Y010489D01*
X023799Y010513D01*
X023790Y010539D01*
X023784Y010566D01*
X023782Y010593D01*
X025811Y012681D02*
X025813Y012712D01*
X025819Y012743D01*
X025828Y012773D01*
X025841Y012802D01*
X025858Y012829D01*
X025878Y012853D01*
X025900Y012875D01*
X025926Y012894D01*
X025953Y012910D01*
X025982Y012922D01*
X026012Y012931D01*
X026043Y012936D01*
X026075Y012937D01*
X026106Y012934D01*
X026137Y012927D01*
X026167Y012917D01*
X026195Y012903D01*
X026221Y012885D01*
X026245Y012865D01*
X026266Y012841D01*
X026285Y012816D01*
X026300Y012788D01*
X026311Y012759D01*
X026319Y012728D01*
X026323Y012697D01*
X026323Y012665D01*
X026319Y012634D01*
X026311Y012603D01*
X026300Y012574D01*
X026285Y012546D01*
X026266Y012521D01*
X026245Y012497D01*
X026221Y012477D01*
X026195Y012459D01*
X026167Y012445D01*
X026137Y012435D01*
X026106Y012428D01*
X026075Y012425D01*
X026043Y012426D01*
X026012Y012431D01*
X025982Y012440D01*
X025953Y012452D01*
X025926Y012468D01*
X025900Y012487D01*
X025878Y012509D01*
X025858Y012533D01*
X025841Y012560D01*
X025828Y012589D01*
X025819Y012619D01*
X025813Y012650D01*
X025811Y012681D01*
X027808Y004323D02*
X027810Y004357D01*
X027816Y004391D01*
X027826Y004424D01*
X027839Y004455D01*
X027857Y004485D01*
X027877Y004513D01*
X027901Y004538D01*
X027927Y004560D01*
X027955Y004578D01*
X027986Y004594D01*
X028018Y004606D01*
X028052Y004614D01*
X028086Y004618D01*
X028120Y004618D01*
X028154Y004614D01*
X028188Y004606D01*
X028220Y004594D01*
X028250Y004578D01*
X028279Y004560D01*
X028305Y004538D01*
X028329Y004513D01*
X028349Y004485D01*
X028367Y004455D01*
X028380Y004424D01*
X028390Y004391D01*
X028396Y004357D01*
X028398Y004323D01*
X028396Y004289D01*
X028390Y004255D01*
X028380Y004222D01*
X028367Y004191D01*
X028349Y004161D01*
X028329Y004133D01*
X028305Y004108D01*
X028279Y004086D01*
X028251Y004068D01*
X028220Y004052D01*
X028188Y004040D01*
X028154Y004032D01*
X028120Y004028D01*
X028086Y004028D01*
X028052Y004032D01*
X028018Y004040D01*
X027986Y004052D01*
X027955Y004068D01*
X027927Y004086D01*
X027901Y004108D01*
X027877Y004133D01*
X027857Y004161D01*
X027839Y004191D01*
X027826Y004222D01*
X027816Y004255D01*
X027810Y004289D01*
X027808Y004323D01*
X031390Y002807D02*
X031392Y002833D01*
X031398Y002859D01*
X031408Y002884D01*
X031421Y002907D01*
X031437Y002927D01*
X031457Y002945D01*
X031479Y002960D01*
X031502Y002972D01*
X031528Y002980D01*
X031554Y002984D01*
X031580Y002984D01*
X031606Y002980D01*
X031632Y002972D01*
X031656Y002960D01*
X031677Y002945D01*
X031697Y002927D01*
X031713Y002907D01*
X031726Y002884D01*
X031736Y002859D01*
X031742Y002833D01*
X031744Y002807D01*
X031742Y002781D01*
X031736Y002755D01*
X031726Y002730D01*
X031713Y002707D01*
X031697Y002687D01*
X031677Y002669D01*
X031655Y002654D01*
X031632Y002642D01*
X031606Y002634D01*
X031580Y002630D01*
X031554Y002630D01*
X031528Y002634D01*
X031502Y002642D01*
X031478Y002654D01*
X031457Y002669D01*
X031437Y002687D01*
X031421Y002707D01*
X031408Y002730D01*
X031398Y002755D01*
X031392Y002781D01*
X031390Y002807D01*
X033123Y002807D02*
X033125Y002833D01*
X033131Y002859D01*
X033141Y002884D01*
X033154Y002907D01*
X033170Y002927D01*
X033190Y002945D01*
X033212Y002960D01*
X033235Y002972D01*
X033261Y002980D01*
X033287Y002984D01*
X033313Y002984D01*
X033339Y002980D01*
X033365Y002972D01*
X033389Y002960D01*
X033410Y002945D01*
X033430Y002927D01*
X033446Y002907D01*
X033459Y002884D01*
X033469Y002859D01*
X033475Y002833D01*
X033477Y002807D01*
X033475Y002781D01*
X033469Y002755D01*
X033459Y002730D01*
X033446Y002707D01*
X033430Y002687D01*
X033410Y002669D01*
X033388Y002654D01*
X033365Y002642D01*
X033339Y002634D01*
X033313Y002630D01*
X033287Y002630D01*
X033261Y002634D01*
X033235Y002642D01*
X033211Y002654D01*
X033190Y002669D01*
X033170Y002687D01*
X033154Y002707D01*
X033141Y002730D01*
X033131Y002755D01*
X033125Y002781D01*
X033123Y002807D01*
X027808Y001567D02*
X027810Y001601D01*
X027816Y001635D01*
X027826Y001668D01*
X027839Y001699D01*
X027857Y001729D01*
X027877Y001757D01*
X027901Y001782D01*
X027927Y001804D01*
X027955Y001822D01*
X027986Y001838D01*
X028018Y001850D01*
X028052Y001858D01*
X028086Y001862D01*
X028120Y001862D01*
X028154Y001858D01*
X028188Y001850D01*
X028220Y001838D01*
X028250Y001822D01*
X028279Y001804D01*
X028305Y001782D01*
X028329Y001757D01*
X028349Y001729D01*
X028367Y001699D01*
X028380Y001668D01*
X028390Y001635D01*
X028396Y001601D01*
X028398Y001567D01*
X028396Y001533D01*
X028390Y001499D01*
X028380Y001466D01*
X028367Y001435D01*
X028349Y001405D01*
X028329Y001377D01*
X028305Y001352D01*
X028279Y001330D01*
X028251Y001312D01*
X028220Y001296D01*
X028188Y001284D01*
X028154Y001276D01*
X028120Y001272D01*
X028086Y001272D01*
X028052Y001276D01*
X028018Y001284D01*
X027986Y001296D01*
X027955Y001312D01*
X027927Y001330D01*
X027901Y001352D01*
X027877Y001377D01*
X027857Y001405D01*
X027839Y001435D01*
X027826Y001466D01*
X027816Y001499D01*
X027810Y001533D01*
X027808Y001567D01*
D11*
X021262Y003863D03*
X021237Y003861D03*
X021234Y003863D03*
X021237Y003866D03*
X021224Y003848D03*
X021224Y003846D03*
X021217Y003848D03*
X021212Y003841D03*
X021204Y003836D03*
X021204Y003833D03*
X021182Y003831D03*
X021167Y003828D03*
X021169Y003821D03*
X021164Y003818D03*
X021159Y003816D03*
X021152Y003816D03*
X021147Y003816D03*
X021147Y003821D03*
X021139Y003811D03*
X021134Y003811D03*
X021127Y003808D03*
X021119Y003811D03*
X021114Y003811D03*
X021119Y003801D03*
X021104Y003803D03*
X021102Y003806D03*
X021099Y003803D03*
X021097Y003798D03*
X021092Y003801D03*
X021089Y003803D03*
X021084Y003801D03*
X021074Y003801D03*
X021072Y003803D03*
X021067Y003803D03*
X021067Y003796D03*
X021059Y003801D03*
X021052Y003803D03*
X021052Y003806D03*
X021054Y003808D03*
X021047Y003811D03*
X021042Y003803D03*
X021037Y003801D03*
X021029Y003806D03*
X021024Y003803D03*
X021024Y003811D03*
X021019Y003813D03*
X021017Y003818D03*
X021017Y003821D03*
X021022Y003821D03*
X021022Y003818D03*
X021012Y003816D03*
X021012Y003821D03*
X021002Y003811D03*
X020997Y003813D03*
X020994Y003816D03*
X020987Y003823D03*
X020982Y003821D03*
X020977Y003821D03*
X020974Y003823D03*
X020969Y003821D03*
X020962Y003813D03*
X020964Y003811D03*
X020964Y003808D03*
X020967Y003801D03*
X020957Y003813D03*
X020957Y003816D03*
X020952Y003823D03*
X020952Y003826D03*
X020947Y003821D03*
X020942Y003823D03*
X020939Y003818D03*
X020934Y003811D03*
X020927Y003811D03*
X020924Y003816D03*
X020924Y003823D03*
X020919Y003823D03*
X020912Y003823D03*
X020909Y003826D03*
X020914Y003831D03*
X020907Y003833D03*
X020907Y003836D03*
X020899Y003836D03*
X020894Y003831D03*
X020887Y003831D03*
X020892Y003838D03*
X020907Y003846D03*
X020907Y003848D03*
X020927Y003833D03*
X020932Y003833D03*
X020937Y003831D03*
X020929Y003823D03*
X020914Y003808D03*
X020904Y003813D03*
X020902Y003811D03*
X020899Y003813D03*
X020894Y003813D03*
X020894Y003816D03*
X020899Y003818D03*
X020879Y003826D03*
X020874Y003826D03*
X020869Y003823D03*
X020867Y003821D03*
X020864Y003831D03*
X020872Y003836D03*
X020857Y003843D03*
X020854Y003838D03*
X020849Y003838D03*
X020847Y003836D03*
X020842Y003833D03*
X020844Y003828D03*
X020844Y003826D03*
X020849Y003821D03*
X020842Y003816D03*
X020837Y003831D03*
X020829Y003831D03*
X020829Y003841D03*
X020827Y003848D03*
X020817Y003838D03*
X020819Y003836D03*
X020819Y003831D03*
X020814Y003826D03*
X020812Y003828D03*
X020804Y003831D03*
X020804Y003838D03*
X020809Y003841D03*
X020797Y003831D03*
X020789Y003826D03*
X020787Y003828D03*
X020784Y003833D03*
X020787Y003836D03*
X020782Y003838D03*
X020779Y003843D03*
X020774Y003843D03*
X020774Y003838D03*
X020774Y003836D03*
X020777Y003833D03*
X020779Y003831D03*
X020767Y003833D03*
X020764Y003836D03*
X020754Y003838D03*
X020752Y003841D03*
X020747Y003838D03*
X020734Y003841D03*
X020732Y003846D03*
X020734Y003853D03*
X020734Y003856D03*
X020732Y003858D03*
X020727Y003858D03*
X020729Y003853D03*
X020719Y003856D03*
X020719Y003858D03*
X020714Y003861D03*
X020712Y003863D03*
X020709Y003866D03*
X020707Y003868D03*
X020707Y003871D03*
X020704Y003873D03*
X020702Y003871D03*
X020697Y003871D03*
X020704Y003866D03*
X020717Y003871D03*
X020732Y003866D03*
X020742Y003861D03*
X020742Y003851D03*
X020762Y003848D03*
X020767Y003846D03*
X020787Y003846D03*
X020792Y003841D03*
X020729Y003881D03*
X020709Y003888D03*
X020707Y003891D03*
X020687Y003883D03*
X020687Y003881D03*
X020684Y003886D03*
X020682Y003888D03*
X020679Y003886D03*
X020674Y003886D03*
X020667Y003893D03*
X020664Y003896D03*
X020672Y003898D03*
X020679Y003901D03*
X020674Y003906D03*
X020672Y003908D03*
X020667Y003908D03*
X020662Y003911D03*
X020659Y003913D03*
X020657Y003916D03*
X020657Y003918D03*
X020652Y003918D03*
X020652Y003913D03*
X020654Y003911D03*
X020654Y003908D03*
X020652Y003906D03*
X020649Y003908D03*
X020644Y003908D03*
X020639Y003911D03*
X020639Y003896D03*
X020649Y003891D03*
X020659Y003906D03*
X020662Y003921D03*
X020667Y003921D03*
X020672Y003921D03*
X020667Y003928D03*
X020674Y003931D03*
X020669Y003936D03*
X020657Y003938D03*
X020649Y003928D03*
X020649Y003926D03*
X020649Y003923D03*
X020639Y003931D03*
X020637Y003928D03*
X020632Y003928D03*
X020632Y003933D03*
X020627Y003933D03*
X020622Y003933D03*
X020617Y003926D03*
X020614Y003921D03*
X020612Y003923D03*
X020607Y003923D03*
X020607Y003926D03*
X020607Y003928D03*
X020602Y003921D03*
X020597Y003921D03*
X020597Y003918D03*
X020592Y003916D03*
X020592Y003923D03*
X020592Y003926D03*
X020599Y003933D03*
X020599Y003936D03*
X020589Y003943D03*
X020584Y003941D03*
X020587Y003936D03*
X020582Y003933D03*
X020574Y003936D03*
X020574Y003938D03*
X020569Y003941D03*
X020567Y003943D03*
X020567Y003948D03*
X020562Y003948D03*
X020557Y003948D03*
X020572Y003951D03*
X020574Y003948D03*
X020579Y003951D03*
X020587Y003951D03*
X020594Y003956D03*
X020602Y003958D03*
X020622Y003966D03*
X020629Y003966D03*
X020637Y003956D03*
X020642Y003968D03*
X020652Y003966D03*
X020662Y003956D03*
X020667Y003956D03*
X020677Y003951D03*
X020677Y003948D03*
X020682Y003948D03*
X020694Y003943D03*
X020697Y003941D03*
X020709Y003936D03*
X020687Y003873D03*
X020617Y003906D03*
X020612Y003936D03*
X020572Y003931D03*
X020542Y003963D03*
X020534Y003971D03*
X020522Y003971D03*
X020517Y003971D03*
X020519Y003966D03*
X020522Y003963D03*
X020532Y003958D03*
X020507Y003971D03*
X020502Y003983D03*
X020497Y003983D03*
X020487Y004001D03*
X020482Y003998D03*
X020477Y003998D03*
X020474Y004003D03*
X020472Y004008D03*
X020467Y004008D03*
X020467Y004013D03*
X020462Y004018D03*
X020464Y004021D03*
X020464Y004026D03*
X020469Y004026D03*
X020462Y004041D03*
X020449Y004036D03*
X020447Y004028D03*
X020447Y004026D03*
X020449Y004023D03*
X020437Y004033D03*
X020439Y004043D03*
X020444Y004046D03*
X020444Y004048D03*
X020442Y004051D03*
X020437Y004061D03*
X020432Y004061D03*
X020432Y004058D03*
X020429Y004053D03*
X020429Y004063D03*
X020424Y004063D03*
X020424Y004066D03*
X020419Y004066D03*
X020424Y004073D03*
X020427Y004076D03*
X020429Y004073D03*
X020429Y004071D03*
X020434Y004073D03*
X020437Y004083D03*
X020429Y004086D03*
X020424Y004088D03*
X020424Y004083D03*
X020422Y004081D03*
X020417Y004091D03*
X020412Y004093D03*
X020409Y004101D03*
X020417Y004108D03*
X020414Y004111D03*
X020414Y004113D03*
X020419Y004113D03*
X020424Y004118D03*
X020429Y004118D03*
X020432Y004121D03*
X020432Y004123D03*
X020434Y004118D03*
X020434Y004131D03*
X020429Y004131D03*
X020422Y004138D03*
X020414Y004131D03*
X020409Y004138D03*
X020402Y004141D03*
X020397Y004141D03*
X020394Y004138D03*
X020394Y004136D03*
X020394Y004133D03*
X020394Y004131D03*
X020399Y004133D03*
X020404Y004123D03*
X020404Y004116D03*
X020399Y004111D03*
X020392Y004111D03*
X020392Y004113D03*
X020392Y004116D03*
X020394Y004121D03*
X020384Y004111D03*
X020389Y004103D03*
X020394Y004103D03*
X020397Y004096D03*
X020394Y004091D03*
X020384Y004086D03*
X020374Y004118D03*
X020377Y004123D03*
X020382Y004128D03*
X020387Y004133D03*
X020374Y004133D03*
X020369Y004133D03*
X020367Y004131D03*
X020367Y004128D03*
X020359Y004131D03*
X020357Y004128D03*
X020357Y004141D03*
X020357Y004143D03*
X020352Y004143D03*
X020347Y004146D03*
X020339Y004141D03*
X020337Y004143D03*
X020332Y004153D03*
X020337Y004156D03*
X020339Y004158D03*
X020334Y004161D03*
X020334Y004163D03*
X020334Y004166D03*
X020332Y004173D03*
X020337Y004181D03*
X020337Y004188D03*
X020334Y004198D03*
X020317Y004196D03*
X020307Y004196D03*
X020307Y004198D03*
X020302Y004198D03*
X020304Y004193D03*
X020307Y004191D03*
X020307Y004186D03*
X020304Y004183D03*
X020297Y004183D03*
X020294Y004191D03*
X020294Y004193D03*
X020297Y004196D03*
X020302Y004206D03*
X020307Y004206D03*
X020307Y004216D03*
X020299Y004213D03*
X020294Y004213D03*
X020294Y004211D03*
X020297Y004218D03*
X020297Y004228D03*
X020297Y004231D03*
X020297Y004236D03*
X020292Y004233D03*
X020292Y004231D03*
X020284Y004231D03*
X020284Y004226D03*
X020284Y004221D03*
X020277Y004228D03*
X020274Y004231D03*
X020269Y004226D03*
X020277Y004238D03*
X020279Y004241D03*
X020279Y004243D03*
X020277Y004246D03*
X020274Y004243D03*
X020267Y004243D03*
X020262Y004246D03*
X020267Y004253D03*
X020274Y004256D03*
X020277Y004251D03*
X020284Y004256D03*
X020287Y004251D03*
X020287Y004246D03*
X020299Y004266D03*
X020304Y004266D03*
X020287Y004278D03*
X020282Y004288D03*
X020282Y004291D03*
X020277Y004291D03*
X020272Y004293D03*
X020269Y004296D03*
X020264Y004303D03*
X020262Y004306D03*
X020254Y004303D03*
X020249Y004303D03*
X020247Y004308D03*
X020242Y004303D03*
X020242Y004298D03*
X020237Y004306D03*
X020229Y004303D03*
X020222Y004313D03*
X020227Y004316D03*
X020232Y004318D03*
X020234Y004323D03*
X020224Y004323D03*
X020229Y004333D03*
X020224Y004338D03*
X020232Y004343D03*
X020237Y004341D03*
X020242Y004341D03*
X020247Y004341D03*
X020239Y004336D03*
X020244Y004321D03*
X020249Y004323D03*
X020254Y004323D03*
X020254Y004318D03*
X020262Y004328D03*
X020269Y004336D03*
X020262Y004341D03*
X020254Y004351D03*
X020252Y004358D03*
X020244Y004363D03*
X020244Y004366D03*
X020239Y004366D03*
X020239Y004356D03*
X020227Y004358D03*
X020222Y004358D03*
X020222Y004356D03*
X020224Y004351D03*
X020214Y004346D03*
X020212Y004341D03*
X020209Y004338D03*
X020212Y004336D03*
X020209Y004333D03*
X020202Y004326D03*
X020217Y004311D03*
X020234Y004281D03*
X020247Y004276D03*
X020252Y004283D03*
X020262Y004281D03*
X020262Y004286D03*
X020257Y004293D03*
X020257Y004298D03*
X020252Y004293D03*
X020264Y004276D03*
X020272Y004271D03*
X020254Y004266D03*
X020249Y004261D03*
X020287Y004303D03*
X020297Y004293D03*
X020339Y004238D03*
X020312Y004183D03*
X020314Y004176D03*
X020319Y004178D03*
X020307Y004173D03*
X020329Y004158D03*
X020344Y004168D03*
X020347Y004163D03*
X020352Y004163D03*
X020352Y004161D03*
X020357Y004163D03*
X020357Y004158D03*
X020367Y004156D03*
X020369Y004146D03*
X020369Y004141D03*
X020364Y004141D03*
X020374Y004141D03*
X020374Y004138D03*
X020387Y004156D03*
X020384Y004173D03*
X020409Y004148D03*
X020414Y004148D03*
X020414Y004146D03*
X020414Y004153D03*
X020429Y004101D03*
X020424Y004096D03*
X020437Y004101D03*
X020459Y004106D03*
X020457Y004063D03*
X020452Y004063D03*
X020454Y004058D03*
X020447Y004063D03*
X020492Y004008D03*
X020609Y003981D03*
X020879Y003883D03*
X020894Y003881D03*
X020902Y003878D03*
X020937Y003881D03*
X020949Y003881D03*
X020979Y003816D03*
X020984Y003811D03*
X020987Y003806D03*
X020999Y003801D03*
X021007Y003801D03*
X021007Y003798D03*
X021007Y003796D03*
X021014Y003796D03*
X021014Y003793D03*
X021014Y003791D03*
X021014Y003801D03*
X021014Y003806D03*
X021054Y003791D03*
X021094Y003806D03*
X021104Y003796D03*
X021112Y003836D03*
X020874Y003813D03*
X020862Y003811D03*
X020239Y004378D03*
X020234Y004381D03*
X020229Y004381D03*
X020229Y004391D03*
X020219Y004401D03*
X020217Y004408D03*
X020212Y004383D03*
X020204Y004381D03*
X020207Y004368D03*
X020202Y004366D03*
X020197Y004366D03*
X020204Y004361D03*
X020204Y004353D03*
X020199Y004353D03*
X020194Y004348D03*
X020192Y004351D03*
X020187Y004348D03*
X020177Y004366D03*
X020184Y004371D03*
X020179Y004383D03*
X020179Y004388D03*
X020184Y004388D03*
X020189Y004388D03*
X020189Y004391D03*
X020179Y004393D03*
X020172Y004386D03*
X020169Y004383D03*
X020164Y004383D03*
X020162Y004388D03*
X020159Y004393D03*
X020162Y004396D03*
X020164Y004401D03*
X020162Y004403D03*
X020162Y004406D03*
X020167Y004406D03*
X020169Y004403D03*
X020174Y004403D03*
X020169Y004411D03*
X020157Y004403D03*
X020147Y004403D03*
X020147Y004406D03*
X020144Y004408D03*
X020142Y004406D03*
X020137Y004406D03*
X020132Y004408D03*
X020139Y004418D03*
X020144Y004418D03*
X020144Y004421D03*
X020142Y004423D03*
X020147Y004423D03*
X020144Y004413D03*
X020147Y004411D03*
X020137Y004426D03*
X020129Y004423D03*
X020122Y004433D03*
X020124Y004441D03*
X020122Y004443D03*
X020119Y004448D03*
X020122Y004451D03*
X020119Y004453D03*
X020112Y004453D03*
X020112Y004451D03*
X020112Y004458D03*
X020117Y004466D03*
X020117Y004471D03*
X020112Y004471D03*
X020107Y004471D03*
X020104Y004478D03*
X020109Y004486D03*
X020104Y004488D03*
X020102Y004491D03*
X020099Y004496D03*
X020094Y004501D03*
X020097Y004503D03*
X020097Y004511D03*
X020094Y004513D03*
X020102Y004513D03*
X020102Y004511D03*
X020114Y004513D03*
X020117Y004506D03*
X020109Y004493D03*
X020119Y004481D03*
X020092Y004488D03*
X020089Y004493D03*
X020082Y004498D03*
X020084Y004501D03*
X020082Y004503D03*
X020079Y004506D03*
X020084Y004508D03*
X020087Y004506D03*
X020084Y004516D03*
X020079Y004521D03*
X020077Y004518D03*
X020077Y004516D03*
X020064Y004536D03*
X020064Y004538D03*
X020062Y004543D03*
X020064Y004551D03*
X020062Y004553D03*
X020057Y004553D03*
X020057Y004561D03*
X020062Y004563D03*
X020052Y004566D03*
X020047Y004568D03*
X020047Y004571D03*
X020047Y004578D03*
X020039Y004581D03*
X020039Y004586D03*
X020034Y004586D03*
X020042Y004593D03*
X020024Y004601D03*
X020024Y004603D03*
X020027Y004606D03*
X020027Y004608D03*
X020019Y004631D03*
X020012Y004631D03*
X020012Y004633D03*
X020009Y004636D03*
X020007Y004641D03*
X020002Y004651D03*
X020099Y004626D03*
X020119Y004576D03*
X020102Y004568D03*
X020084Y004541D03*
X020094Y004533D03*
X020099Y004533D03*
X020124Y004538D03*
X020069Y004548D03*
X020049Y004558D03*
X020127Y004451D03*
X020129Y004443D03*
X020134Y004441D03*
X020139Y004441D03*
X020132Y004436D03*
X020157Y004378D03*
X020172Y004378D03*
X020172Y004376D03*
X020169Y004361D03*
X020169Y004358D03*
X020167Y004353D03*
X020209Y004353D03*
X020209Y004351D03*
X020169Y004491D03*
X019574Y005478D03*
X019484Y005468D03*
X019004Y005516D03*
X017897Y005728D03*
X018034Y006031D03*
X018237Y006276D03*
X017667Y006423D03*
X017597Y006441D03*
X017454Y006553D03*
X017282Y006588D03*
X017222Y006596D03*
X017154Y006596D03*
X017319Y006188D03*
X018819Y006131D03*
X018844Y006121D03*
X019094Y006103D03*
X019434Y006198D03*
D12*
X019094Y006101D03*
X019467Y005551D03*
X020959Y005508D03*
X020962Y005501D03*
X020967Y005493D03*
X020967Y005491D03*
X020967Y005488D03*
X020144Y004533D03*
X020104Y004528D03*
X020094Y004541D03*
X020087Y004538D03*
X020082Y004531D03*
X020077Y004538D03*
X020077Y004541D03*
X020069Y004543D03*
X020069Y004546D03*
X020062Y004568D03*
X020054Y004571D03*
X020054Y004573D03*
X020087Y004521D03*
X020087Y004513D03*
X020087Y004511D03*
X020104Y004508D03*
X020109Y004506D03*
X020112Y004478D03*
X020109Y004473D03*
X020117Y004461D03*
X020119Y004458D03*
X020129Y004453D03*
X020154Y004423D03*
X020152Y004408D03*
X020182Y004391D03*
X020189Y004386D03*
X020194Y004383D03*
X020192Y004378D03*
X020192Y004376D03*
X020197Y004371D03*
X020197Y004361D03*
X020207Y004363D03*
X020204Y004383D03*
X020194Y004401D03*
X020224Y004343D03*
X020232Y004338D03*
X020239Y004343D03*
X020244Y004338D03*
X020257Y004338D03*
X020262Y004336D03*
X020259Y004333D03*
X020254Y004328D03*
X020257Y004308D03*
X020269Y004306D03*
X020274Y004303D03*
X020277Y004298D03*
X020277Y004296D03*
X020279Y004293D03*
X020287Y004296D03*
X020289Y004293D03*
X020289Y004291D03*
X020294Y004276D03*
X020302Y004281D03*
X020304Y004278D03*
X020277Y004268D03*
X020274Y004266D03*
X020252Y004296D03*
X020249Y004298D03*
X020269Y004313D03*
X020302Y004233D03*
X020299Y004223D03*
X020319Y004193D03*
X020319Y004191D03*
X020319Y004183D03*
X020327Y004198D03*
X020344Y004188D03*
X020377Y004173D03*
X020379Y004166D03*
X020392Y004171D03*
X020402Y004148D03*
X020402Y004138D03*
X020402Y004136D03*
X020407Y004126D03*
X020422Y004131D03*
X020424Y004136D03*
X020387Y004138D03*
X020384Y004131D03*
X020372Y004143D03*
X020369Y004151D03*
X020359Y004151D03*
X020357Y004146D03*
X020364Y004138D03*
X020437Y004098D03*
X020444Y004096D03*
X020444Y004091D03*
X020452Y004088D03*
X020447Y004083D03*
X020439Y004071D03*
X020429Y004081D03*
X020447Y004056D03*
X020444Y004053D03*
X020469Y004031D03*
X020482Y004003D03*
X020487Y003991D03*
X020529Y003961D03*
X020542Y003958D03*
X020547Y003951D03*
X020574Y003946D03*
X020574Y003943D03*
X020582Y003938D03*
X020584Y003953D03*
X020617Y003941D03*
X020639Y003938D03*
X020639Y003933D03*
X020649Y003933D03*
X020649Y003938D03*
X020654Y003946D03*
X020664Y003938D03*
X020667Y003951D03*
X020649Y003963D03*
X020614Y003986D03*
X020644Y003916D03*
X020674Y003913D03*
X020679Y003921D03*
X020672Y003903D03*
X020682Y003893D03*
X020702Y003876D03*
X020714Y003873D03*
X020729Y003871D03*
X020729Y003863D03*
X020742Y003858D03*
X020754Y003848D03*
X020752Y003843D03*
X020762Y003843D03*
X020759Y003853D03*
X020774Y003858D03*
X020797Y003838D03*
X020802Y003841D03*
X020817Y003851D03*
X020839Y003851D03*
X020862Y003838D03*
X020874Y003833D03*
X020874Y003831D03*
X020874Y003828D03*
X020884Y003838D03*
X020899Y003846D03*
X020907Y003841D03*
X020919Y003841D03*
X020922Y003826D03*
X020904Y003828D03*
X020907Y003853D03*
X020902Y003881D03*
X020944Y003836D03*
X020967Y003823D03*
X020974Y003811D03*
X020987Y003816D03*
X020989Y003818D03*
X020992Y003826D03*
X020982Y003826D03*
X021019Y003816D03*
X021027Y003813D03*
X021024Y003808D03*
X021034Y003803D03*
X021037Y003816D03*
X021022Y003836D03*
X021059Y003803D03*
X021067Y003793D03*
X021079Y003803D03*
X021127Y003803D03*
X021129Y003806D03*
X021127Y003811D03*
X021132Y003816D03*
X021192Y003828D03*
X021192Y003831D03*
X021204Y003831D03*
X020457Y004096D03*
X017882Y005728D03*
D13*
X017865Y005728D03*
X018575Y005583D03*
X018613Y005568D03*
X018970Y005508D03*
X019005Y005518D03*
X018505Y005998D03*
X018153Y006298D03*
X018248Y006386D03*
X018040Y006426D03*
X017993Y006033D03*
X017300Y006098D03*
X017290Y006191D03*
X017273Y006188D03*
X017400Y006566D03*
X017195Y006598D03*
X019465Y006201D03*
X020963Y005498D03*
X020965Y005496D03*
X019995Y004668D03*
X020020Y004616D03*
X020030Y004603D03*
X020035Y004593D03*
X020040Y004583D03*
X020043Y004576D03*
X020045Y004573D03*
X020050Y004576D03*
X020053Y004568D03*
X020053Y004556D03*
X020065Y004558D03*
X020068Y004553D03*
X020068Y004541D03*
X020083Y004528D03*
X020088Y004518D03*
X020108Y004511D03*
X020103Y004493D03*
X020113Y004483D03*
X020110Y004481D03*
X020123Y004473D03*
X020128Y004466D03*
X020125Y004463D03*
X020120Y004446D03*
X020130Y004446D03*
X020133Y004431D03*
X020138Y004428D03*
X020150Y004418D03*
X020158Y004411D03*
X020153Y004406D03*
X020158Y004401D03*
X020160Y004398D03*
X020168Y004396D03*
X020168Y004393D03*
X020170Y004391D03*
X020178Y004396D03*
X020188Y004396D03*
X020195Y004388D03*
X020185Y004383D03*
X020183Y004376D03*
X020183Y004373D03*
X020200Y004378D03*
X020203Y004373D03*
X020205Y004371D03*
X020210Y004366D03*
X020213Y004368D03*
X020213Y004356D03*
X020203Y004356D03*
X020215Y004343D03*
X020225Y004353D03*
X020230Y004341D03*
X020243Y004323D03*
X020248Y004318D03*
X020250Y004321D03*
X020255Y004313D03*
X020255Y004306D03*
X020263Y004298D03*
X020270Y004301D03*
X020263Y004288D03*
X020270Y004283D03*
X020285Y004276D03*
X020293Y004273D03*
X020295Y004278D03*
X020295Y004286D03*
X020290Y004266D03*
X020283Y004266D03*
X020275Y004253D03*
X020268Y004256D03*
X020263Y004251D03*
X020268Y004263D03*
X020248Y004268D03*
X020275Y004236D03*
X020298Y004238D03*
X020300Y004216D03*
X020305Y004211D03*
X020308Y004203D03*
X020318Y004198D03*
X020328Y004191D03*
X020330Y004186D03*
X020330Y004183D03*
X020328Y004181D03*
X020328Y004178D03*
X020328Y004176D03*
X020320Y004176D03*
X020325Y004168D03*
X020335Y004168D03*
X020340Y004166D03*
X020350Y004168D03*
X020350Y004158D03*
X020350Y004153D03*
X020348Y004151D03*
X020348Y004138D03*
X020355Y004136D03*
X020365Y004136D03*
X020375Y004128D03*
X020378Y004146D03*
X020385Y004143D03*
X020400Y004131D03*
X020398Y004126D03*
X020405Y004128D03*
X020415Y004128D03*
X020415Y004136D03*
X020415Y004138D03*
X020420Y004141D03*
X020420Y004146D03*
X020425Y004133D03*
X020438Y004123D03*
X020438Y004121D03*
X020440Y004118D03*
X020453Y004108D03*
X020453Y004091D03*
X020443Y004088D03*
X020435Y004088D03*
X020435Y004086D03*
X020435Y004091D03*
X020433Y004093D03*
X020435Y004096D03*
X020425Y004098D03*
X020420Y004101D03*
X020415Y004106D03*
X020425Y004106D03*
X020425Y004091D03*
X020430Y004083D03*
X020428Y004078D03*
X020415Y004086D03*
X020400Y004106D03*
X020400Y004108D03*
X020393Y004108D03*
X020390Y004118D03*
X020400Y004118D03*
X020410Y004116D03*
X020403Y004163D03*
X020370Y004166D03*
X020343Y004181D03*
X020345Y004186D03*
X020338Y004186D03*
X020338Y004183D03*
X020340Y004196D03*
X020295Y004206D03*
X020288Y004213D03*
X020288Y004216D03*
X020278Y004313D03*
X020270Y004316D03*
X020270Y004323D03*
X020265Y004326D03*
X020260Y004331D03*
X020255Y004341D03*
X020258Y004348D03*
X020243Y004361D03*
X020238Y004363D03*
X020240Y004371D03*
X020230Y004383D03*
X020168Y004408D03*
X020163Y004501D03*
X020133Y004541D03*
X020133Y004556D03*
X020115Y004536D03*
X020095Y004476D03*
X020050Y004598D03*
X020465Y004096D03*
X020470Y004093D03*
X020443Y004066D03*
X020438Y004063D03*
X020438Y004056D03*
X020453Y004053D03*
X020448Y004043D03*
X020453Y004041D03*
X020460Y004031D03*
X020470Y004021D03*
X020473Y004023D03*
X020478Y004018D03*
X020475Y004013D03*
X020488Y003993D03*
X020495Y003993D03*
X020508Y003983D03*
X020513Y003976D03*
X020528Y003971D03*
X020528Y003963D03*
X020535Y003963D03*
X020550Y003943D03*
X020575Y003953D03*
X020583Y003948D03*
X020588Y003956D03*
X020593Y003951D03*
X020595Y003953D03*
X020603Y003956D03*
X020605Y003946D03*
X020603Y003943D03*
X020603Y003941D03*
X020605Y003936D03*
X020605Y003933D03*
X020603Y003931D03*
X020613Y003933D03*
X020618Y003951D03*
X020638Y003941D03*
X020648Y003931D03*
X020643Y003923D03*
X020633Y003918D03*
X020630Y003923D03*
X020645Y003911D03*
X020655Y003923D03*
X020658Y003933D03*
X020663Y003946D03*
X020685Y003943D03*
X020680Y003931D03*
X020665Y003913D03*
X020680Y003896D03*
X020680Y003891D03*
X020693Y003886D03*
X020703Y003886D03*
X020715Y003888D03*
X020713Y003876D03*
X020713Y003868D03*
X020723Y003861D03*
X020725Y003848D03*
X020740Y003848D03*
X020745Y003846D03*
X020753Y003846D03*
X020760Y003846D03*
X020760Y003841D03*
X020750Y003853D03*
X020748Y003861D03*
X020755Y003861D03*
X020740Y003856D03*
X020738Y003866D03*
X020698Y003868D03*
X020693Y003866D03*
X020693Y003873D03*
X020690Y003876D03*
X020780Y003841D03*
X020785Y003843D03*
X020788Y003838D03*
X020795Y003833D03*
X020803Y003833D03*
X020805Y003836D03*
X020810Y003838D03*
X020810Y003831D03*
X020805Y003828D03*
X020823Y003833D03*
X020823Y003838D03*
X020828Y003836D03*
X020833Y003838D03*
X020835Y003841D03*
X020840Y003838D03*
X020840Y003836D03*
X020845Y003831D03*
X020850Y003833D03*
X020853Y003826D03*
X020838Y003828D03*
X020833Y003833D03*
X020825Y003851D03*
X020808Y003858D03*
X020853Y003846D03*
X020875Y003838D03*
X020893Y003826D03*
X020910Y003818D03*
X020925Y003818D03*
X020925Y003821D03*
X020930Y003826D03*
X020930Y003831D03*
X020935Y003836D03*
X020943Y003831D03*
X020940Y003826D03*
X020950Y003831D03*
X020945Y003838D03*
X020963Y003821D03*
X020960Y003818D03*
X020968Y003818D03*
X020980Y003823D03*
X020993Y003821D03*
X021005Y003816D03*
X021008Y003813D03*
X021008Y003811D03*
X021005Y003803D03*
X021013Y003823D03*
X021028Y003818D03*
X021028Y003816D03*
X021033Y003811D03*
X021033Y003808D03*
X021040Y003806D03*
X021040Y003811D03*
X021078Y003806D03*
X021085Y003806D03*
X021095Y003816D03*
X021103Y003808D03*
X021108Y003806D03*
X021115Y003803D03*
X021118Y003808D03*
X021120Y003816D03*
X021140Y003816D03*
X021140Y003813D03*
X021148Y003826D03*
X021153Y003821D03*
X021155Y003826D03*
X021163Y003823D03*
X021170Y003823D03*
X021173Y003828D03*
X021175Y003826D03*
X021180Y003828D03*
X021193Y003833D03*
X021198Y003836D03*
X021215Y003851D03*
X021230Y003848D03*
X021295Y003888D03*
X021100Y003801D03*
X020980Y003806D03*
X020595Y003943D03*
X020585Y003963D03*
D14*
X020590Y003958D03*
X020613Y003958D03*
X020625Y003936D03*
X020668Y003941D03*
X020675Y003946D03*
X020685Y003941D03*
X020695Y003936D03*
X020695Y003891D03*
X020820Y003846D03*
X020840Y003846D03*
X020923Y003843D03*
X020923Y003836D03*
X020973Y003813D03*
X020975Y003808D03*
X021005Y003818D03*
X021060Y003811D03*
X021063Y003806D03*
X021108Y003816D03*
X021133Y003818D03*
X021225Y003858D03*
X021325Y003921D03*
X020545Y003968D03*
X020533Y003966D03*
X020448Y004073D03*
X020448Y004078D03*
X020445Y004093D03*
X020413Y004118D03*
X020420Y004126D03*
X020363Y004153D03*
X020363Y004173D03*
X020310Y004213D03*
X020283Y004301D03*
X020228Y004378D03*
X020215Y004381D03*
X020208Y004401D03*
X020158Y004421D03*
X020100Y004518D03*
X020108Y004523D03*
X020098Y004531D03*
X020078Y004533D03*
X020078Y004558D03*
X020068Y004571D03*
X020038Y004598D03*
X020948Y005438D03*
X020948Y005441D03*
X020945Y005446D03*
X020943Y005448D03*
X020953Y005436D03*
X020928Y005468D03*
X018508Y005996D03*
D15*
X020933Y005461D03*
X020965Y005426D03*
X020970Y005418D03*
X020973Y005416D03*
X020115Y004568D03*
X020125Y004553D03*
X020110Y004538D03*
X020085Y004546D03*
X020148Y004431D03*
X020203Y004411D03*
X020225Y004371D03*
X020225Y004366D03*
X020223Y004363D03*
X020240Y004351D03*
X020285Y004281D03*
X020323Y004203D03*
X020358Y004181D03*
X020373Y004186D03*
X020380Y004181D03*
X020385Y004148D03*
X020418Y004123D03*
X020455Y004101D03*
X020468Y004091D03*
X020468Y004088D03*
X020573Y003956D03*
X020663Y003948D03*
X020680Y003938D03*
X020733Y003873D03*
X020758Y003858D03*
X020800Y003846D03*
X020923Y003853D03*
X020935Y003841D03*
X020928Y003828D03*
X021080Y003811D03*
X021080Y003808D03*
X021130Y003821D03*
X021248Y003863D03*
X021250Y003861D03*
D16*
X021233Y003851D03*
X021173Y003831D03*
X021165Y003826D03*
X021128Y003813D03*
X021063Y003808D03*
X021038Y003818D03*
X021003Y003821D03*
X020968Y003816D03*
X020940Y003833D03*
X020935Y003838D03*
X020923Y003838D03*
X020928Y003848D03*
X020915Y003848D03*
X020908Y003843D03*
X020898Y003833D03*
X020888Y003836D03*
X020885Y003833D03*
X020915Y003821D03*
X020940Y003851D03*
X020820Y003841D03*
X020795Y003836D03*
X020778Y003846D03*
X020775Y003848D03*
X020770Y003841D03*
X020765Y003838D03*
X020765Y003861D03*
X020738Y003868D03*
X020733Y003861D03*
X020718Y003886D03*
X020698Y003938D03*
X020658Y003928D03*
X020628Y003941D03*
X020603Y003951D03*
X020598Y003948D03*
X020563Y003946D03*
X020563Y003938D03*
X020563Y003966D03*
X020530Y003968D03*
X020463Y004023D03*
X020445Y004058D03*
X020445Y004061D03*
X020445Y004086D03*
X020460Y004093D03*
X020435Y004126D03*
X020420Y004116D03*
X020410Y004141D03*
X020388Y004141D03*
X020393Y004173D03*
X020355Y004186D03*
X020355Y004188D03*
X020348Y004173D03*
X020340Y004171D03*
X020325Y004188D03*
X020313Y004188D03*
X020313Y004266D03*
X020305Y004271D03*
X020305Y004276D03*
X020293Y004283D03*
X020295Y004288D03*
X020280Y004283D03*
X020278Y004278D03*
X020275Y004276D03*
X020273Y004288D03*
X020280Y004306D03*
X020270Y004318D03*
X020258Y004316D03*
X020248Y004331D03*
X020250Y004336D03*
X020235Y004346D03*
X020230Y004356D03*
X020223Y004346D03*
X020220Y004341D03*
X020230Y004336D03*
X020248Y004356D03*
X020220Y004383D03*
X020210Y004378D03*
X020203Y004376D03*
X020193Y004373D03*
X020185Y004403D03*
X020178Y004401D03*
X020195Y004438D03*
X020140Y004456D03*
X020128Y004456D03*
X020128Y004461D03*
X020123Y004518D03*
X020110Y004516D03*
X020095Y004516D03*
X020093Y004528D03*
X020105Y004536D03*
X020135Y004538D03*
X020140Y004536D03*
X020065Y004573D03*
X020055Y004578D03*
X020635Y003971D03*
X021328Y003923D03*
X018630Y005568D03*
X019123Y006106D03*
D17*
X019397Y006066D03*
X020932Y005466D03*
X020932Y005463D03*
X020942Y005456D03*
X020942Y005453D03*
X020942Y005451D03*
X020947Y005443D03*
X020959Y005428D03*
X020037Y004601D03*
X020077Y004536D03*
X020182Y004411D03*
X020174Y004398D03*
X020239Y004358D03*
X020252Y004346D03*
X020254Y004343D03*
X020244Y004333D03*
X020274Y004308D03*
X020289Y004271D03*
X020297Y004256D03*
X020299Y004251D03*
X020319Y004251D03*
X020314Y004201D03*
X020334Y004201D03*
X020357Y004166D03*
X020354Y004148D03*
X020394Y004166D03*
X020397Y004161D03*
X020412Y004133D03*
X020417Y004103D03*
X020457Y004048D03*
X020609Y003953D03*
X020622Y003943D03*
X020624Y003938D03*
X020649Y003956D03*
X020662Y003931D03*
X020697Y003888D03*
X020784Y003856D03*
X020842Y003848D03*
X020842Y003843D03*
X020894Y003848D03*
X020999Y003823D03*
X021102Y003811D03*
X021102Y003841D03*
X021179Y003833D03*
X021234Y003853D03*
X021244Y003858D03*
X017294Y006188D03*
X017252Y006591D03*
X017159Y006598D03*
D18*
X019124Y006096D03*
X019399Y006083D03*
X018977Y005521D03*
X020102Y004551D03*
X020552Y003976D03*
X020984Y003838D03*
X021087Y003813D03*
X020549Y007343D03*
D19*
X019394Y006063D03*
X018974Y005511D03*
X020037Y004588D03*
X020104Y004546D03*
X020127Y004536D03*
X020114Y004503D03*
X020119Y004476D03*
X020137Y004448D03*
X020157Y004413D03*
X020182Y004438D03*
X020202Y004386D03*
X020189Y004381D03*
X020197Y004368D03*
X020209Y004358D03*
X020239Y004328D03*
X020264Y004321D03*
X020252Y004301D03*
X020289Y004298D03*
X020282Y004273D03*
X020304Y004273D03*
X020314Y004256D03*
X020312Y004236D03*
X020327Y004196D03*
X020332Y004193D03*
X020339Y004191D03*
X020354Y004183D03*
X020362Y004168D03*
X020357Y004156D03*
X020377Y004156D03*
X020407Y004121D03*
X020422Y004121D03*
X020427Y004128D03*
X020484Y004081D03*
X020454Y004046D03*
X020482Y004008D03*
X020497Y003986D03*
X020549Y003966D03*
X020554Y003958D03*
X020562Y003951D03*
X020569Y003958D03*
X020587Y003946D03*
X020614Y003973D03*
X020619Y003981D03*
X020629Y003973D03*
X020639Y003966D03*
X020642Y003943D03*
X020642Y003936D03*
X020639Y003926D03*
X020652Y003941D03*
X020659Y003936D03*
X020662Y003926D03*
X020679Y003936D03*
X020802Y003856D03*
X020849Y003841D03*
X020857Y003836D03*
X020909Y003838D03*
X020947Y003848D03*
X020964Y003826D03*
X021007Y003826D03*
X021039Y003813D03*
X020912Y003878D03*
X021247Y003866D03*
X021262Y003866D03*
X020317Y004186D03*
X020087Y004523D03*
X020954Y005431D03*
X020954Y005433D03*
X020939Y005458D03*
X020959Y005503D03*
X020959Y005506D03*
D20*
X020983Y005478D03*
X020985Y005476D03*
X020985Y005473D03*
X021013Y005436D03*
X020110Y004558D03*
X020135Y004511D03*
X020170Y004448D03*
X020188Y004413D03*
X020193Y004406D03*
X020303Y004253D03*
X020310Y004241D03*
X020325Y004228D03*
X020733Y003916D03*
X021068Y003816D03*
X018970Y005516D03*
X019468Y006198D03*
X020553Y007348D03*
D21*
X019127Y006088D03*
X018512Y005986D03*
X018014Y006021D03*
X017892Y005736D03*
X018629Y005578D03*
X017292Y006181D03*
X020057Y004633D03*
X020057Y004628D03*
X021062Y003833D03*
X021084Y003818D03*
X021154Y003836D03*
D22*
X021100Y003821D03*
X020875Y003846D03*
X020868Y003848D03*
X020795Y003851D03*
X020675Y003918D03*
X020555Y003953D03*
X020550Y003961D03*
X020475Y004078D03*
X020470Y004083D03*
X020468Y004086D03*
X020395Y004153D03*
X020385Y004168D03*
X020370Y004161D03*
X020353Y004203D03*
X020223Y004361D03*
X020170Y004458D03*
X020083Y004568D03*
D23*
X020072Y004566D03*
X020059Y004581D03*
X020202Y004398D03*
X020217Y004388D03*
X020299Y004268D03*
X020319Y004238D03*
X020362Y004196D03*
X020397Y004151D03*
X020459Y004081D03*
X020702Y003931D03*
X020709Y003881D03*
X020874Y003841D03*
X020877Y003843D03*
X021067Y003821D03*
X021257Y003868D03*
X018967Y005513D03*
X018509Y005993D03*
D24*
X017997Y006031D03*
X019397Y006068D03*
X020967Y005423D03*
X020969Y005421D03*
X020072Y004561D03*
X020087Y004543D03*
X020139Y004473D03*
X020137Y004458D03*
X020147Y004446D03*
X020222Y004386D03*
X020244Y004353D03*
X020247Y004326D03*
X020279Y004286D03*
X020332Y004236D03*
X020374Y004188D03*
X020402Y004156D03*
X020439Y004116D03*
X020442Y004106D03*
X020512Y004051D03*
X020482Y004006D03*
X020632Y003963D03*
X020749Y003871D03*
X020792Y003858D03*
X020817Y003853D03*
X020944Y003843D03*
X021037Y003821D03*
X020547Y007351D03*
D25*
X020547Y007333D03*
X020357Y007171D03*
X020354Y007168D03*
X020349Y007163D03*
X020347Y007161D03*
X020344Y007158D03*
X020339Y007153D03*
X020334Y007148D03*
X020332Y007143D03*
X019552Y006098D03*
X019127Y005891D03*
X019127Y005888D03*
X019127Y005886D03*
X019127Y005883D03*
X019127Y005881D03*
X018812Y006063D03*
X018812Y006066D03*
X018817Y006086D03*
X018817Y006088D03*
X018817Y006091D03*
X018817Y006093D03*
X018817Y006096D03*
X018514Y005953D03*
X018737Y005733D03*
X018737Y005731D03*
X018737Y005728D03*
X018729Y005713D03*
X018729Y005711D03*
X018727Y005706D03*
X019007Y005558D03*
X019014Y005568D03*
X019017Y005571D03*
X019019Y005573D03*
X019242Y005636D03*
X019244Y005631D03*
X019247Y005628D03*
X018027Y005881D03*
X018019Y005866D03*
X018017Y005861D03*
X018017Y005858D03*
X017897Y005743D03*
X017314Y006161D03*
X017089Y005691D03*
X017089Y005688D03*
X017087Y005686D03*
X017087Y005683D03*
X017082Y005633D03*
X020812Y003868D03*
X020837Y003861D03*
X021079Y003826D03*
X021082Y003823D03*
X021354Y004053D03*
X021354Y004056D03*
X021357Y004058D03*
X021357Y004061D03*
X021359Y004066D03*
X021362Y004071D03*
X021364Y004076D03*
X021372Y004091D03*
X021372Y004093D03*
D26*
X021330Y004013D03*
X021330Y004011D03*
X021328Y004006D03*
X021093Y003828D03*
X020758Y003893D03*
X019620Y005571D03*
X019305Y005576D03*
X019298Y005578D03*
X019285Y005591D03*
X018708Y005681D03*
X018423Y005706D03*
X018420Y005701D03*
X018410Y005686D03*
X018408Y005683D03*
X018405Y005681D03*
X018513Y005928D03*
X017998Y005833D03*
X017903Y005748D03*
X017103Y005711D03*
X017098Y005618D03*
X017110Y005598D03*
X018233Y006298D03*
X019128Y005851D03*
X019128Y005848D03*
X019128Y005846D03*
X019128Y005843D03*
X019128Y005841D03*
X019128Y005838D03*
X019128Y005836D03*
X020390Y007206D03*
X020393Y007208D03*
X020543Y007328D03*
D27*
X019128Y006103D03*
X020050Y004591D03*
X020123Y004548D03*
X020125Y004546D03*
X020143Y004518D03*
X020165Y004473D03*
X020145Y004443D03*
X020190Y004436D03*
X020205Y004403D03*
X020263Y004311D03*
X020358Y004201D03*
X020375Y004183D03*
X020398Y004146D03*
X020435Y004108D03*
X020440Y004113D03*
X020605Y003963D03*
X020620Y003956D03*
X020668Y003943D03*
X020760Y003856D03*
X020968Y003831D03*
X021003Y003833D03*
X021008Y003828D03*
D28*
X020972Y003828D03*
X020717Y003883D03*
X020707Y003896D03*
X020629Y003948D03*
X020617Y003968D03*
X020369Y004178D03*
X020324Y004231D03*
X020312Y004246D03*
X020312Y004248D03*
X020182Y004431D03*
X020152Y004438D03*
X020144Y004503D03*
X020142Y004506D03*
X020099Y004581D03*
X021014Y005433D03*
X021002Y005448D03*
X021002Y005451D03*
X021002Y005453D03*
X020982Y005481D03*
X017104Y005573D03*
D29*
X018629Y005573D03*
X020139Y004491D03*
X020147Y004483D03*
X020332Y004218D03*
X020337Y004211D03*
X020367Y004176D03*
X020719Y003918D03*
X021137Y003831D03*
X020989Y005468D03*
D30*
X019862Y005388D03*
X019862Y005386D03*
X019862Y005373D03*
X019864Y005356D03*
X019864Y005353D03*
X019867Y005318D03*
X019867Y005316D03*
X019867Y005313D03*
X019867Y005311D03*
X019874Y005271D03*
X019874Y005268D03*
X019874Y005266D03*
X019874Y005263D03*
X019874Y005261D03*
X019874Y005258D03*
X019874Y005256D03*
X019877Y005233D03*
X019877Y005231D03*
X019877Y005228D03*
X019879Y005226D03*
X019879Y005216D03*
X019879Y005213D03*
X019879Y005211D03*
X019879Y005208D03*
X019879Y005206D03*
X019879Y005203D03*
X019879Y005201D03*
X019889Y005156D03*
X019889Y005153D03*
X019889Y005151D03*
X019892Y005143D03*
X019892Y005141D03*
X019892Y005138D03*
X019894Y005136D03*
X019892Y005128D03*
X019897Y005103D03*
X019899Y005101D03*
X019899Y005098D03*
X019899Y005096D03*
X019904Y005078D03*
X019904Y005076D03*
X019904Y005073D03*
X019904Y005071D03*
X019904Y005068D03*
X019912Y005038D03*
X019917Y005026D03*
X019917Y005016D03*
X019917Y005013D03*
X019919Y005008D03*
X019924Y004986D03*
X019927Y004983D03*
X019927Y004981D03*
X019927Y004978D03*
X019927Y004976D03*
X019929Y004973D03*
X019929Y004971D03*
X019932Y004966D03*
X019932Y004963D03*
X019932Y004961D03*
X019932Y004958D03*
X019932Y004956D03*
X019934Y004951D03*
X019937Y004948D03*
X019937Y004946D03*
X019937Y004943D03*
X019937Y004941D03*
X019937Y004938D03*
X019942Y004931D03*
X019942Y004928D03*
X019944Y004923D03*
X019944Y004921D03*
X019944Y004918D03*
X019944Y004916D03*
X019944Y004913D03*
X019952Y004893D03*
X019952Y004891D03*
X019952Y004888D03*
X019952Y004886D03*
X019959Y004873D03*
X019959Y004871D03*
X019964Y004856D03*
X019964Y004853D03*
X019967Y004846D03*
X019969Y004841D03*
X019972Y004836D03*
X019972Y004833D03*
X019972Y004831D03*
X019972Y004828D03*
X019979Y004816D03*
X019982Y004806D03*
X019982Y004803D03*
X019987Y004788D03*
X019992Y004781D03*
X019994Y004776D03*
X019997Y004768D03*
X019997Y004766D03*
X019997Y004763D03*
X019997Y004761D03*
X020009Y004733D03*
X020012Y004731D03*
X020014Y004723D03*
X020014Y004721D03*
X020024Y004696D03*
X020034Y004673D03*
X020037Y004671D03*
X020039Y004666D03*
X020039Y004663D03*
X020042Y004661D03*
X020044Y004656D03*
X020049Y004646D03*
X020054Y004638D03*
X020519Y004021D03*
X020539Y004008D03*
X020542Y004006D03*
X020889Y003851D03*
X021064Y003838D03*
X021064Y003831D03*
X019859Y005408D03*
X019857Y005413D03*
X019857Y005416D03*
X019857Y005418D03*
X019857Y005421D03*
X019857Y005423D03*
X019857Y005426D03*
X019857Y005428D03*
X019857Y005433D03*
X019857Y005436D03*
X019857Y005441D03*
X019857Y005443D03*
X019857Y005446D03*
X019857Y005463D03*
X019857Y005466D03*
X019857Y005468D03*
X019857Y005471D03*
X019854Y005486D03*
X019854Y005488D03*
X019854Y005498D03*
X019854Y005501D03*
X019854Y005503D03*
X019854Y005506D03*
X019854Y005516D03*
X019854Y005518D03*
X019854Y005521D03*
X019854Y005536D03*
X019852Y005561D03*
X019852Y005563D03*
X019852Y005566D03*
X019854Y005571D03*
X019854Y005573D03*
X019854Y005576D03*
X019852Y005581D03*
X019852Y005583D03*
X019852Y005586D03*
X019852Y005588D03*
X019852Y005591D03*
X019852Y005593D03*
X019852Y005596D03*
X019852Y005598D03*
X019852Y005601D03*
X019852Y005603D03*
X019852Y005606D03*
X019852Y005618D03*
X019852Y005621D03*
X019852Y005623D03*
X019852Y005626D03*
X019852Y005628D03*
X019852Y005631D03*
X019852Y005633D03*
X019852Y005651D03*
X019852Y005653D03*
X019852Y005663D03*
X019852Y005666D03*
X019852Y005668D03*
X019857Y005681D03*
X019857Y005683D03*
X019854Y005686D03*
X019854Y005691D03*
X019854Y005693D03*
X019854Y005696D03*
X019854Y005698D03*
X019854Y005701D03*
X019854Y005703D03*
X019854Y005706D03*
X019854Y005708D03*
X019854Y005713D03*
X019854Y005716D03*
X019854Y005718D03*
X019854Y005721D03*
X019854Y005723D03*
X019854Y005726D03*
X019854Y005728D03*
X019854Y005731D03*
X019857Y005743D03*
X019857Y005746D03*
X019857Y005748D03*
X019857Y005763D03*
X019859Y005771D03*
X019857Y005793D03*
X019857Y005796D03*
X019857Y005798D03*
X019857Y005801D03*
X019857Y005803D03*
X019859Y005828D03*
X019862Y005836D03*
X019862Y005846D03*
X019862Y005858D03*
X019862Y005861D03*
X019862Y005863D03*
X019864Y005876D03*
X019864Y005878D03*
X019864Y005881D03*
X019864Y005883D03*
X019864Y005886D03*
X019867Y005891D03*
X019867Y005893D03*
X019867Y005908D03*
X019867Y005911D03*
X019867Y005913D03*
X019867Y005916D03*
X019867Y005918D03*
X019872Y005961D03*
X019872Y005963D03*
X019874Y005968D03*
X019874Y005971D03*
X019874Y005973D03*
X019874Y005986D03*
X019874Y005988D03*
X019882Y006031D03*
X019882Y006033D03*
X019882Y006036D03*
X019884Y006053D03*
X019884Y006056D03*
X019887Y006071D03*
X019887Y006073D03*
X019887Y006076D03*
X019887Y006078D03*
X019887Y006081D03*
X019889Y006086D03*
X019889Y006088D03*
X019889Y006091D03*
X019889Y006093D03*
X019889Y006096D03*
X019892Y006101D03*
X019892Y006103D03*
X019894Y006118D03*
X019894Y006121D03*
X019894Y006123D03*
X019897Y006136D03*
X019899Y006151D03*
X019902Y006158D03*
X019904Y006171D03*
X019904Y006173D03*
X019907Y006188D03*
X019909Y006211D03*
X019912Y006218D03*
X019912Y006221D03*
X019912Y006223D03*
X019914Y006233D03*
X019917Y006241D03*
X019917Y006243D03*
X019917Y006246D03*
X019922Y006263D03*
X019939Y006338D03*
X019947Y006368D03*
X019949Y006376D03*
X019974Y006458D03*
X019977Y006468D03*
X019977Y006471D03*
X019977Y006473D03*
X019984Y006493D03*
X019462Y006191D03*
X018812Y006116D03*
X018017Y006016D03*
X018017Y006013D03*
D31*
X018803Y006128D03*
X019125Y006101D03*
X017180Y006596D03*
X020090Y004548D03*
X020120Y004533D03*
X020178Y004446D03*
X020188Y004421D03*
X020225Y004373D03*
X020365Y004191D03*
X020368Y004171D03*
X020445Y004103D03*
X020563Y003963D03*
X020630Y003946D03*
X020813Y003843D03*
X020938Y003878D03*
X021000Y003831D03*
D32*
X021133Y003833D03*
X020713Y003921D03*
X020485Y004058D03*
X020483Y004061D03*
X020475Y004071D03*
X020340Y004206D03*
X020290Y004258D03*
X020293Y004261D03*
X020183Y004418D03*
X020173Y004441D03*
X020163Y004453D03*
X020158Y004463D03*
X020145Y004486D03*
X021023Y005421D03*
X019393Y006076D03*
X019118Y006098D03*
X018803Y006126D03*
X017208Y006591D03*
D33*
X018628Y005571D03*
X020093Y004553D03*
X020120Y004543D03*
X020128Y004531D03*
X020130Y004528D03*
X020138Y004516D03*
X020155Y004436D03*
X020193Y004408D03*
X020360Y004193D03*
X020588Y003961D03*
X020608Y003976D03*
X020688Y003916D03*
X020968Y003833D03*
X021003Y005446D03*
X021000Y005456D03*
X020998Y005458D03*
X020995Y005463D03*
X020995Y005466D03*
D34*
X019885Y005168D03*
X019925Y004996D03*
X019925Y004993D03*
X020028Y004688D03*
X020030Y004686D03*
X020040Y004668D03*
X020060Y004618D03*
X020065Y004611D03*
X020070Y004606D03*
X021068Y003836D03*
X018270Y005551D03*
X019405Y006086D03*
X019855Y005648D03*
X019858Y005646D03*
X019858Y005643D03*
X019858Y005641D03*
X018248Y006286D03*
D35*
X018253Y006281D03*
X018803Y006121D03*
X019463Y006196D03*
X017288Y006186D03*
X020080Y004593D03*
X020098Y004563D03*
X020095Y004556D03*
X020473Y004068D03*
X020490Y004053D03*
X020500Y004046D03*
X020703Y003923D03*
X020983Y003836D03*
D36*
X021155Y003838D03*
X021158Y003841D03*
X020583Y003971D03*
X020045Y004653D03*
X020043Y004658D03*
X019995Y004771D03*
X019995Y004773D03*
X019993Y004778D03*
X019980Y004808D03*
X019980Y004811D03*
X019980Y004813D03*
X019970Y004838D03*
X019968Y004843D03*
X019965Y004848D03*
X019965Y004851D03*
X019963Y004858D03*
X019963Y004861D03*
X019960Y004868D03*
X019943Y004926D03*
X019940Y004933D03*
X019918Y005011D03*
X019873Y005273D03*
X019873Y005276D03*
X019873Y005278D03*
X019870Y005286D03*
X019870Y005288D03*
X019870Y005291D03*
X019870Y005296D03*
X019870Y005298D03*
X019870Y005301D03*
X019870Y005303D03*
X019868Y005308D03*
X019868Y005333D03*
X019868Y005336D03*
X019868Y005338D03*
X019865Y005346D03*
X019865Y005348D03*
X019865Y005351D03*
X019860Y005391D03*
X019860Y005393D03*
X019860Y005396D03*
X019860Y005398D03*
X019860Y005401D03*
X019860Y005403D03*
X019860Y005406D03*
X019855Y005431D03*
X019858Y005438D03*
X019858Y005448D03*
X019855Y005473D03*
X019855Y005476D03*
X019855Y005478D03*
X019855Y005481D03*
X019855Y005483D03*
X019855Y005508D03*
X019853Y005523D03*
X019855Y005526D03*
X019855Y005528D03*
X019855Y005531D03*
X019853Y005578D03*
X019853Y005608D03*
X019853Y005611D03*
X019853Y005613D03*
X019853Y005616D03*
X019853Y005656D03*
X019853Y005658D03*
X019853Y005661D03*
X019853Y005688D03*
X019853Y005711D03*
X019855Y005733D03*
X019855Y005736D03*
X019855Y005738D03*
X019855Y005741D03*
X019858Y005766D03*
X019858Y005768D03*
X019858Y005806D03*
X019860Y005838D03*
X019860Y005841D03*
X019863Y005848D03*
X019863Y005851D03*
X019863Y005853D03*
X019863Y005856D03*
X019863Y005866D03*
X019863Y005868D03*
X019868Y005906D03*
X019868Y005921D03*
X019868Y005923D03*
X019870Y005938D03*
X019870Y005941D03*
X019870Y005943D03*
X019873Y005948D03*
X019873Y005951D03*
X019873Y005953D03*
X019873Y005958D03*
X019873Y005976D03*
X019873Y005978D03*
X019875Y005981D03*
X019875Y005983D03*
X019878Y006003D03*
X019878Y006006D03*
X019880Y006013D03*
X019880Y006016D03*
X019880Y006018D03*
X019880Y006021D03*
X019880Y006023D03*
X019880Y006026D03*
X019880Y006028D03*
X019883Y006038D03*
X019883Y006041D03*
X019883Y006043D03*
X019883Y006046D03*
X019883Y006048D03*
X019883Y006051D03*
X019885Y006058D03*
X019885Y006061D03*
X019885Y006063D03*
X019885Y006066D03*
X019885Y006068D03*
X019888Y006083D03*
X019890Y006098D03*
X019893Y006106D03*
X019893Y006108D03*
X019893Y006111D03*
X019893Y006113D03*
X019893Y006116D03*
X019895Y006126D03*
X019895Y006128D03*
X019895Y006131D03*
X019895Y006133D03*
X019898Y006138D03*
X019898Y006141D03*
X019898Y006143D03*
X019898Y006146D03*
X019898Y006148D03*
X019900Y006153D03*
X019900Y006156D03*
X019903Y006161D03*
X019903Y006163D03*
X019903Y006166D03*
X019903Y006168D03*
X019905Y006176D03*
X019905Y006178D03*
X019905Y006181D03*
X019905Y006183D03*
X019905Y006186D03*
X019908Y006191D03*
X019908Y006193D03*
X019908Y006196D03*
X019910Y006201D03*
X019910Y006203D03*
X019910Y006206D03*
X019910Y006208D03*
X019913Y006226D03*
X019913Y006228D03*
X019913Y006231D03*
X019915Y006236D03*
X019915Y006238D03*
X019918Y006248D03*
X019918Y006251D03*
X019918Y006253D03*
X019920Y006258D03*
X019920Y006261D03*
X019923Y006266D03*
X019923Y006268D03*
X019925Y006276D03*
X019925Y006278D03*
X019925Y006281D03*
X019925Y006283D03*
X019925Y006286D03*
X019928Y006288D03*
X019928Y006291D03*
X019930Y006293D03*
X019930Y006296D03*
X019930Y006298D03*
X019933Y006313D03*
X019933Y006316D03*
X019933Y006318D03*
X019935Y006321D03*
X019935Y006323D03*
X019938Y006326D03*
X019938Y006328D03*
X019938Y006331D03*
X019938Y006333D03*
X019938Y006336D03*
X019940Y006341D03*
X019943Y006348D03*
X019945Y006361D03*
X019945Y006363D03*
X019945Y006366D03*
X019948Y006371D03*
X019948Y006373D03*
X019950Y006378D03*
X019953Y006386D03*
X019953Y006388D03*
X019955Y006393D03*
X019960Y006411D03*
X019960Y006413D03*
X019960Y006416D03*
X019960Y006418D03*
X019965Y006428D03*
X019965Y006431D03*
X019965Y006433D03*
X019968Y006438D03*
X019970Y006441D03*
X019970Y006443D03*
X019970Y006446D03*
X019973Y006453D03*
X019973Y006456D03*
X019975Y006461D03*
X019975Y006463D03*
X019975Y006466D03*
X019978Y006476D03*
X019983Y006488D03*
X019983Y006491D03*
X019985Y006496D03*
X019985Y006498D03*
X019985Y006501D03*
X019988Y006506D03*
X020005Y006553D03*
X020005Y006556D03*
X020005Y006558D03*
X020008Y006561D03*
X020008Y006563D03*
X019123Y006086D03*
X018813Y006113D03*
X018513Y005981D03*
X017298Y006178D03*
X020553Y007341D03*
D37*
X020397Y007213D03*
X020394Y007211D03*
X018514Y005926D03*
X018514Y005923D03*
X018404Y005678D03*
X018402Y005676D03*
X018399Y005673D03*
X017999Y005836D03*
X019314Y005568D03*
X021324Y004003D03*
X021019Y003841D03*
X020817Y003873D03*
D38*
X021082Y003843D03*
X019487Y005493D03*
X019484Y006108D03*
X018644Y005661D03*
D39*
X017567Y006493D03*
X017512Y006506D03*
X017472Y006516D03*
X021059Y003846D03*
D40*
X021084Y003848D03*
D41*
X020804Y003848D03*
X020784Y003853D03*
X020642Y003951D03*
X020642Y003958D03*
X020574Y003968D03*
X020479Y004073D03*
X020379Y004163D03*
X020357Y004198D03*
X020339Y004213D03*
X020327Y004233D03*
X020204Y004393D03*
X020179Y004443D03*
X020167Y004456D03*
X020139Y004513D03*
X020137Y004523D03*
X020109Y004566D03*
X020997Y005461D03*
D42*
X018647Y005678D03*
X021164Y003886D03*
X021079Y003851D03*
D43*
X020764Y003851D03*
X020712Y003878D03*
X020547Y003956D03*
X020457Y004098D03*
X020439Y004111D03*
X020404Y004143D03*
X020237Y004348D03*
X020232Y004368D03*
X020227Y004376D03*
X020209Y004391D03*
X020209Y004396D03*
X020114Y004541D03*
X020972Y005483D03*
X020969Y005486D03*
X019397Y006071D03*
X018262Y005546D03*
D44*
X018185Y006331D03*
X017443Y006523D03*
X021075Y003853D03*
D45*
X020865Y003853D03*
X020500Y004041D03*
X020168Y004433D03*
X017893Y005733D03*
X018010Y006026D03*
X018250Y006283D03*
X019125Y006093D03*
X019463Y006193D03*
X017108Y005578D03*
D46*
X021030Y003856D03*
D47*
X021058Y003858D03*
X017678Y006463D03*
D48*
X017228Y006588D03*
X018018Y006018D03*
X018513Y005983D03*
X019405Y006091D03*
X019875Y005993D03*
X019875Y005991D03*
X019878Y005996D03*
X019878Y005998D03*
X019878Y006001D03*
X019873Y005966D03*
X019865Y005903D03*
X019865Y005901D03*
X019865Y005898D03*
X019865Y005896D03*
X019865Y005888D03*
X019860Y005833D03*
X019860Y005831D03*
X019860Y005826D03*
X019860Y005823D03*
X019860Y005821D03*
X019860Y005818D03*
X019860Y005816D03*
X019860Y005813D03*
X019860Y005811D03*
X019860Y005808D03*
X019858Y005791D03*
X019858Y005788D03*
X019858Y005786D03*
X019858Y005783D03*
X019858Y005781D03*
X019858Y005778D03*
X019858Y005776D03*
X019858Y005773D03*
X019858Y005761D03*
X019858Y005758D03*
X019855Y005753D03*
X019855Y005751D03*
X019855Y005678D03*
X019855Y005676D03*
X019855Y005673D03*
X019855Y005638D03*
X019853Y005636D03*
X019853Y005568D03*
X019850Y005558D03*
X019850Y005556D03*
X019853Y005551D03*
X019850Y005546D03*
X019853Y005538D03*
X019853Y005496D03*
X019853Y005493D03*
X019853Y005491D03*
X019855Y005461D03*
X019855Y005458D03*
X019855Y005456D03*
X019858Y005411D03*
X019863Y005383D03*
X019863Y005381D03*
X019863Y005378D03*
X019863Y005376D03*
X019863Y005371D03*
X019863Y005368D03*
X019865Y005358D03*
X019868Y005328D03*
X019868Y005326D03*
X019868Y005323D03*
X019868Y005321D03*
X019873Y005253D03*
X019875Y005243D03*
X019875Y005241D03*
X019875Y005238D03*
X019875Y005236D03*
X019880Y005223D03*
X019880Y005221D03*
X019880Y005218D03*
X019880Y005198D03*
X019883Y005191D03*
X019883Y005188D03*
X019883Y005186D03*
X019883Y005183D03*
X019883Y005181D03*
X019888Y005158D03*
X019890Y005148D03*
X019890Y005146D03*
X019893Y005133D03*
X019893Y005131D03*
X019893Y005126D03*
X019893Y005123D03*
X019895Y005111D03*
X019895Y005108D03*
X019895Y005106D03*
X019900Y005093D03*
X019900Y005091D03*
X019900Y005088D03*
X019903Y005086D03*
X019903Y005083D03*
X019903Y005081D03*
X019905Y005066D03*
X019905Y005063D03*
X019905Y005061D03*
X019905Y005058D03*
X019908Y005056D03*
X019908Y005053D03*
X019908Y005051D03*
X019910Y005043D03*
X019910Y005041D03*
X019913Y005036D03*
X019913Y005033D03*
X019913Y005031D03*
X019913Y005028D03*
X019915Y005023D03*
X019915Y005021D03*
X019915Y005018D03*
X019920Y005006D03*
X019920Y005003D03*
X019920Y005001D03*
X019925Y004988D03*
X019930Y004968D03*
X019933Y004953D03*
X019945Y004911D03*
X019945Y004908D03*
X019948Y004901D03*
X019950Y004896D03*
X019953Y004883D03*
X019955Y004881D03*
X019955Y004878D03*
X019958Y004876D03*
X019973Y004826D03*
X019975Y004823D03*
X019978Y004821D03*
X019978Y004818D03*
X019983Y004801D03*
X019985Y004798D03*
X019985Y004796D03*
X019985Y004793D03*
X019985Y004791D03*
X019990Y004783D03*
X019998Y004758D03*
X020000Y004756D03*
X020003Y004753D03*
X020003Y004751D03*
X020003Y004748D03*
X020003Y004746D03*
X020013Y004728D03*
X020013Y004726D03*
X020015Y004718D03*
X020015Y004716D03*
X020018Y004713D03*
X020018Y004711D03*
X020018Y004708D03*
X020020Y004706D03*
X020020Y004703D03*
X020020Y004701D03*
X020023Y004698D03*
X020025Y004693D03*
X020025Y004691D03*
X020028Y004683D03*
X020030Y004678D03*
X020048Y004651D03*
X020050Y004648D03*
X020053Y004641D03*
X020060Y004623D03*
X020060Y004621D03*
X020500Y004036D03*
X020503Y004033D03*
X020525Y004018D03*
X020855Y003858D03*
X019910Y006213D03*
X019910Y006216D03*
D49*
X021068Y003861D03*
D50*
X021069Y003863D03*
D51*
X020852Y003863D03*
X020547Y003996D03*
X020542Y003998D03*
X021419Y004498D03*
X021414Y004531D03*
X021414Y004533D03*
X021414Y004536D03*
X021409Y004591D03*
X021402Y004626D03*
X021402Y004628D03*
X021402Y004631D03*
X021387Y004703D03*
X021382Y004718D03*
X021372Y004746D03*
X021372Y004748D03*
X021372Y004751D03*
X021362Y004778D03*
X021362Y004786D03*
X021362Y004788D03*
X021362Y004791D03*
X021359Y004793D03*
X021352Y004818D03*
X021349Y004826D03*
X021349Y004828D03*
X021324Y004886D03*
X021292Y004963D03*
X021292Y004966D03*
X021289Y004968D03*
X021282Y004988D03*
X021274Y005008D03*
X021272Y005013D03*
X021257Y005038D03*
X021257Y005041D03*
X021249Y005051D03*
X021249Y005053D03*
X021232Y005088D03*
X021229Y005091D03*
X021184Y005178D03*
X021182Y005181D03*
X021147Y005233D03*
X021144Y005238D03*
X021139Y005246D03*
X021129Y005261D03*
X021127Y005263D03*
X021122Y005268D03*
X019654Y005621D03*
X019657Y005636D03*
X019657Y005638D03*
X019657Y005641D03*
X019657Y005643D03*
X019659Y005646D03*
X019659Y005648D03*
X019659Y005651D03*
X019659Y005653D03*
X019662Y005678D03*
X019662Y005721D03*
X019662Y005723D03*
X019632Y005913D03*
X019632Y005916D03*
X019617Y005963D03*
X019612Y005973D03*
X019612Y005976D03*
X019612Y005978D03*
X019612Y005981D03*
X019609Y005986D03*
X019607Y005988D03*
X019607Y005991D03*
X019604Y005996D03*
X019414Y006103D03*
X019084Y005683D03*
X019084Y005681D03*
X019082Y005676D03*
X019082Y005673D03*
X019077Y005658D03*
X019072Y005648D03*
X019072Y005646D03*
X019072Y005643D03*
X019064Y005631D03*
X019064Y005628D03*
X019062Y005626D03*
X019057Y005618D03*
X019054Y005616D03*
X018567Y005691D03*
X018567Y005693D03*
X018564Y005698D03*
X017307Y006168D03*
X017112Y005588D03*
X017112Y005586D03*
X020149Y006871D03*
X020152Y006876D03*
X020154Y006878D03*
X020154Y006881D03*
X020157Y006883D03*
X020159Y006888D03*
X020162Y006893D03*
X020164Y006896D03*
X020164Y006898D03*
X020167Y006901D03*
X020167Y006903D03*
X020177Y006916D03*
X020177Y006918D03*
X020187Y006931D03*
X020189Y006936D03*
X020192Y006943D03*
X020194Y006946D03*
X020197Y006951D03*
X020199Y006953D03*
X020202Y006958D03*
X020204Y006963D03*
X020207Y006966D03*
X020212Y006973D03*
X020214Y006981D03*
D52*
X020547Y007346D03*
X019394Y006078D03*
X018507Y005991D03*
X018007Y006028D03*
X017107Y005576D03*
X020084Y004598D03*
X020092Y004578D03*
X020087Y004576D03*
X020127Y004521D03*
X020134Y004498D03*
X020139Y004496D03*
X020152Y004471D03*
X020152Y004468D03*
X020337Y004208D03*
X020477Y004066D03*
X020702Y003926D03*
X020767Y003863D03*
X021024Y005416D03*
X021024Y005418D03*
D53*
X020988Y003866D03*
D54*
X021058Y003868D03*
X017808Y006433D03*
X017790Y006438D03*
D55*
X021019Y003871D03*
D56*
X021085Y003873D03*
X018115Y006358D03*
D57*
X021000Y003876D03*
D58*
X021120Y003878D03*
X017705Y006456D03*
D59*
X017494Y005998D03*
X017227Y005821D03*
X017212Y005806D03*
X017207Y005803D03*
X017204Y005801D03*
X017172Y005776D03*
X017167Y005773D03*
X017157Y005766D03*
X017972Y005816D03*
X018364Y005641D03*
X018509Y005841D03*
X018509Y005843D03*
X018509Y005846D03*
X018509Y005848D03*
X018507Y005858D03*
X018507Y005861D03*
X018632Y005603D03*
X019134Y005776D03*
X020539Y007321D03*
X020814Y003878D03*
X021272Y003946D03*
D60*
X021137Y003881D03*
X019479Y005508D03*
X017642Y006473D03*
X017592Y006486D03*
D61*
X017322Y006153D03*
X017509Y006013D03*
X017517Y006018D03*
X017982Y005821D03*
X017984Y005823D03*
X017904Y005753D03*
X018382Y005653D03*
X018634Y005596D03*
X018512Y005898D03*
X018512Y005901D03*
X018512Y005903D03*
X019132Y005806D03*
X019324Y005561D03*
X019614Y005566D03*
X017114Y005728D03*
X020417Y007228D03*
X020419Y007231D03*
X020439Y007246D03*
X021314Y003988D03*
X021307Y003981D03*
X021299Y003976D03*
X021299Y003973D03*
X020809Y003881D03*
D62*
X021157Y003883D03*
X018189Y006328D03*
D63*
X018517Y005948D03*
X018814Y006071D03*
X018814Y006073D03*
X018814Y006076D03*
X018814Y006078D03*
X019127Y005873D03*
X019127Y005871D03*
X019124Y005866D03*
X019124Y005863D03*
X019124Y005861D03*
X018719Y005696D03*
X018719Y005693D03*
X018717Y005691D03*
X019254Y005621D03*
X019257Y005616D03*
X019259Y005613D03*
X019272Y005603D03*
X019274Y005601D03*
X019282Y005593D03*
X019627Y005576D03*
X019547Y006103D03*
X018009Y005848D03*
X017092Y005693D03*
X017084Y005631D03*
X017089Y005626D03*
X017112Y005596D03*
X020364Y007176D03*
X020367Y007181D03*
X020369Y007183D03*
X020374Y007188D03*
X020377Y007191D03*
X021349Y004043D03*
X021344Y004036D03*
X021344Y004033D03*
X021342Y004031D03*
X021342Y004028D03*
X020807Y003883D03*
X020747Y003898D03*
D64*
X020799Y003886D03*
X021309Y003983D03*
X021314Y003991D03*
X021317Y003993D03*
X021317Y003996D03*
X021319Y003998D03*
X017109Y005603D03*
X017109Y005606D03*
X017104Y005611D03*
X017107Y005713D03*
X017107Y005716D03*
X017107Y005718D03*
X017319Y006156D03*
X017522Y006031D03*
X017522Y006028D03*
X017522Y006026D03*
X017519Y006023D03*
X017519Y006021D03*
X017989Y005826D03*
X019129Y005826D03*
X019129Y005823D03*
X019129Y005821D03*
X020407Y007221D03*
X020409Y007223D03*
D65*
X019484Y006118D03*
X019484Y006116D03*
X018644Y005656D03*
X018489Y005726D03*
X021169Y003888D03*
D66*
X021363Y004073D03*
X021365Y004078D03*
X021368Y004083D03*
X021368Y004086D03*
X021370Y004088D03*
X021375Y004098D03*
X021375Y004101D03*
X021375Y004103D03*
X021385Y004126D03*
X021393Y004148D03*
X020785Y003888D03*
X020550Y003988D03*
X019630Y005581D03*
X019633Y005583D03*
X019243Y005633D03*
X019240Y005638D03*
X019238Y005641D03*
X019235Y005643D03*
X019233Y005646D03*
X019220Y005663D03*
X019020Y005576D03*
X019010Y005563D03*
X019010Y005561D03*
X019008Y005556D03*
X018733Y005716D03*
X018735Y005726D03*
X018738Y005736D03*
X018748Y005758D03*
X018723Y005701D03*
X018515Y005956D03*
X018798Y006006D03*
X018798Y006008D03*
X018803Y006028D03*
X018803Y006031D03*
X018803Y006033D03*
X018803Y006036D03*
X018805Y006041D03*
X018805Y006043D03*
X018808Y006046D03*
X018808Y006048D03*
X018808Y006051D03*
X018808Y006053D03*
X018808Y006056D03*
X018808Y006058D03*
X019125Y005921D03*
X019125Y005918D03*
X019125Y005916D03*
X019125Y005913D03*
X019125Y005898D03*
X019125Y005896D03*
X019125Y005893D03*
X019555Y006096D03*
X018280Y005561D03*
X018020Y005868D03*
X018023Y005871D03*
X018023Y005873D03*
X018025Y005876D03*
X018025Y005878D03*
X018028Y005883D03*
X017110Y005593D03*
X017080Y005636D03*
X017080Y005638D03*
X017078Y005653D03*
X017078Y005656D03*
X017078Y005658D03*
X017080Y005673D03*
X017080Y005676D03*
X017085Y005681D03*
X020318Y007126D03*
X020323Y007131D03*
X020328Y007138D03*
X020330Y007141D03*
X020333Y007146D03*
X020338Y007151D03*
X020350Y007166D03*
D67*
X019485Y006121D03*
X018643Y005653D03*
X018490Y005728D03*
X018490Y005731D03*
X021180Y003891D03*
D68*
X021350Y004046D03*
X021353Y004048D03*
X021353Y004051D03*
X021358Y004063D03*
X021360Y004068D03*
X020775Y003891D03*
X019628Y005578D03*
X019485Y005476D03*
X019268Y005606D03*
X019268Y005608D03*
X019263Y005611D03*
X019255Y005618D03*
X019253Y005623D03*
X019250Y005626D03*
X019013Y005566D03*
X018728Y005708D03*
X018725Y005703D03*
X018720Y005698D03*
X018715Y005688D03*
X018630Y005588D03*
X018515Y005951D03*
X018810Y006061D03*
X018813Y006068D03*
X018815Y006081D03*
X018815Y006083D03*
X019128Y005878D03*
X019128Y005876D03*
X019125Y005868D03*
X019550Y006101D03*
X018018Y005863D03*
X018015Y005856D03*
X018013Y005853D03*
X018010Y005851D03*
X017088Y005628D03*
X017250Y006583D03*
X020340Y007156D03*
X020360Y007173D03*
D69*
X019478Y006138D03*
X019145Y005696D03*
X019145Y005693D03*
X018493Y005748D03*
X018205Y006316D03*
X021188Y003893D03*
X021193Y003896D03*
D70*
X020772Y003896D03*
X020722Y003913D03*
X020519Y004023D03*
X020514Y004026D03*
X020509Y004028D03*
X020494Y004043D03*
X020072Y004596D03*
X020057Y004636D03*
X020052Y004643D03*
X020034Y004676D03*
X020032Y004681D03*
X020009Y004736D03*
X020007Y004738D03*
X020007Y004741D03*
X020004Y004743D03*
X019989Y004786D03*
X019949Y004898D03*
X019947Y004903D03*
X019947Y004906D03*
X019927Y004991D03*
X019922Y004998D03*
X019909Y005046D03*
X019909Y005048D03*
X019894Y005113D03*
X019894Y005116D03*
X019894Y005118D03*
X019894Y005121D03*
X019887Y005161D03*
X019887Y005163D03*
X019887Y005166D03*
X019884Y005171D03*
X019884Y005173D03*
X019884Y005176D03*
X019884Y005178D03*
X019882Y005193D03*
X019882Y005196D03*
X019874Y005246D03*
X019874Y005248D03*
X019874Y005251D03*
X019864Y005361D03*
X019864Y005363D03*
X019864Y005366D03*
X019852Y005541D03*
X019852Y005543D03*
X019852Y005548D03*
X019852Y005553D03*
X019854Y005671D03*
X019857Y005756D03*
X019487Y005471D03*
X019404Y006088D03*
X018809Y006118D03*
X017114Y005581D03*
D71*
X018494Y005751D03*
X018494Y005753D03*
X018494Y005756D03*
X018494Y005758D03*
X018642Y005638D03*
X019484Y005488D03*
X019477Y006141D03*
X017372Y006546D03*
X021197Y003898D03*
D72*
X021202Y003901D03*
X018639Y005633D03*
X018317Y005616D03*
X018314Y005611D03*
X019144Y005701D03*
X019477Y006143D03*
X020497Y007273D03*
D73*
X020303Y007106D03*
X020295Y007096D03*
X020293Y007091D03*
X020265Y007056D03*
X020263Y007053D03*
X019560Y006086D03*
X019565Y006078D03*
X019565Y006076D03*
X019570Y006068D03*
X019130Y006046D03*
X019130Y006043D03*
X019130Y006041D03*
X019130Y006038D03*
X019128Y006051D03*
X019128Y006053D03*
X019128Y006056D03*
X019128Y006058D03*
X019130Y006021D03*
X019130Y006003D03*
X019128Y006001D03*
X019128Y005998D03*
X019128Y005996D03*
X019128Y005993D03*
X019128Y005991D03*
X019128Y005988D03*
X019128Y005973D03*
X019128Y005971D03*
X019128Y005968D03*
X019128Y005966D03*
X019125Y005953D03*
X019125Y005951D03*
X019125Y005948D03*
X019125Y005936D03*
X019125Y005933D03*
X019125Y005908D03*
X019125Y005906D03*
X018793Y005976D03*
X018790Y005966D03*
X018788Y005961D03*
X018788Y005958D03*
X018788Y005956D03*
X018788Y005953D03*
X018788Y005951D03*
X018788Y005948D03*
X018788Y005946D03*
X018785Y005941D03*
X018785Y005938D03*
X018783Y005936D03*
X018783Y005933D03*
X018783Y005931D03*
X018783Y005928D03*
X018780Y005916D03*
X018795Y005988D03*
X018795Y005991D03*
X018800Y006018D03*
X018800Y006021D03*
X018815Y006098D03*
X018515Y005961D03*
X018758Y005801D03*
X018758Y005798D03*
X018758Y005796D03*
X018758Y005793D03*
X018753Y005773D03*
X018748Y005766D03*
X018748Y005763D03*
X018745Y005756D03*
X018745Y005753D03*
X018745Y005751D03*
X018743Y005748D03*
X018743Y005746D03*
X018743Y005743D03*
X018743Y005741D03*
X018630Y005586D03*
X019005Y005551D03*
X019035Y005588D03*
X018033Y005896D03*
X018033Y005898D03*
X018033Y005901D03*
X018033Y005913D03*
X018033Y005916D03*
X018033Y005918D03*
X018033Y005921D03*
X018030Y005888D03*
X018028Y005963D03*
X018028Y005966D03*
X018023Y005978D03*
X018023Y005981D03*
X018023Y005983D03*
X017895Y005741D03*
X017313Y006163D03*
X017078Y005666D03*
X017078Y005663D03*
X017080Y005646D03*
X020568Y003978D03*
X020748Y003901D03*
X021378Y004111D03*
X021380Y004116D03*
X021390Y004138D03*
X021390Y004141D03*
X021390Y004143D03*
X021390Y004146D03*
X021393Y004153D03*
X021393Y004156D03*
X021395Y004163D03*
X021398Y004166D03*
X021398Y004168D03*
X021398Y004171D03*
X021398Y004173D03*
X021400Y004178D03*
X021405Y004203D03*
X021408Y004206D03*
X021408Y004208D03*
X021410Y004218D03*
X021413Y004253D03*
X021413Y004256D03*
X021415Y004258D03*
X021415Y004261D03*
X021418Y004263D03*
X021418Y004276D03*
D74*
X021208Y003903D03*
X018320Y005618D03*
X018315Y005613D03*
X018495Y005763D03*
X018495Y005766D03*
X018495Y005768D03*
X019145Y005703D03*
X019478Y006146D03*
X020490Y007268D03*
X020495Y007271D03*
X020503Y007278D03*
X020508Y007281D03*
D75*
X020299Y007101D03*
X020287Y007083D03*
X020279Y007076D03*
X020274Y007068D03*
X020272Y007066D03*
X020269Y007063D03*
X020269Y007061D03*
X020267Y007058D03*
X020262Y007051D03*
X019472Y006186D03*
X019562Y006083D03*
X019567Y006073D03*
X019569Y006071D03*
X019572Y006066D03*
X019574Y006063D03*
X019574Y006061D03*
X019582Y006051D03*
X019129Y006048D03*
X019129Y006036D03*
X019129Y006033D03*
X019129Y006031D03*
X019129Y006028D03*
X019129Y006018D03*
X019129Y006016D03*
X019129Y006013D03*
X019129Y006011D03*
X019129Y006008D03*
X019129Y006006D03*
X019129Y005986D03*
X019129Y005983D03*
X019129Y005981D03*
X019129Y005978D03*
X019129Y005976D03*
X019127Y005963D03*
X019127Y005961D03*
X019127Y005958D03*
X019127Y005956D03*
X019127Y005946D03*
X019127Y005943D03*
X019127Y005941D03*
X019127Y005938D03*
X019129Y006061D03*
X019129Y006063D03*
X019129Y006066D03*
X018782Y005926D03*
X018782Y005923D03*
X018782Y005921D03*
X018782Y005918D03*
X018779Y005913D03*
X018779Y005911D03*
X018779Y005908D03*
X018779Y005906D03*
X018779Y005903D03*
X018777Y005901D03*
X018777Y005898D03*
X018777Y005896D03*
X018777Y005893D03*
X018777Y005891D03*
X018777Y005888D03*
X018777Y005886D03*
X018777Y005883D03*
X018774Y005876D03*
X018772Y005863D03*
X018772Y005861D03*
X018772Y005858D03*
X018769Y005853D03*
X018769Y005851D03*
X018767Y005843D03*
X018767Y005841D03*
X018762Y005823D03*
X018762Y005821D03*
X018762Y005818D03*
X018762Y005816D03*
X018762Y005813D03*
X018759Y005806D03*
X018759Y005803D03*
X018757Y005791D03*
X018757Y005788D03*
X018752Y005778D03*
X018752Y005776D03*
X018514Y005963D03*
X018034Y005933D03*
X018034Y005931D03*
X018034Y005928D03*
X018034Y005926D03*
X018034Y005923D03*
X018034Y005911D03*
X018034Y005908D03*
X018034Y005906D03*
X018034Y005903D03*
X018032Y005893D03*
X018032Y005891D03*
X018032Y005938D03*
X018032Y005941D03*
X018032Y005943D03*
X018032Y005946D03*
X018032Y005948D03*
X018032Y005951D03*
X018029Y005953D03*
X018029Y005956D03*
X018029Y005958D03*
X018029Y005961D03*
X018027Y005968D03*
X018027Y005971D03*
X018024Y005976D03*
X018022Y005986D03*
X018022Y005988D03*
X018022Y005991D03*
X018022Y005993D03*
X018277Y005558D03*
X018994Y005541D03*
X018999Y005543D03*
X019002Y005546D03*
X019002Y005548D03*
X019044Y005598D03*
X019047Y005603D03*
X019209Y005678D03*
X021402Y004648D03*
X021402Y004646D03*
X021402Y004643D03*
X021402Y004641D03*
X021424Y004368D03*
X021424Y004366D03*
X021424Y004363D03*
X021422Y004326D03*
X021417Y004283D03*
X021417Y004281D03*
X021417Y004278D03*
X021417Y004273D03*
X021417Y004271D03*
X021417Y004268D03*
X021417Y004266D03*
X021414Y004251D03*
X021414Y004248D03*
X021414Y004246D03*
X021414Y004243D03*
X021412Y004238D03*
X021412Y004236D03*
X021412Y004233D03*
X021412Y004231D03*
X021409Y004226D03*
X021409Y004223D03*
X021409Y004221D03*
X021409Y004216D03*
X021409Y004213D03*
X021409Y004211D03*
X021404Y004201D03*
X021404Y004198D03*
X021402Y004191D03*
X021402Y004188D03*
X021402Y004186D03*
X021402Y004183D03*
X021402Y004181D03*
X021399Y004176D03*
X021379Y004113D03*
X020739Y003903D03*
D76*
X021210Y003906D03*
X018305Y005598D03*
X018498Y005778D03*
X018498Y005781D03*
X017940Y005801D03*
X017938Y005798D03*
X017398Y006101D03*
X017393Y006106D03*
X017383Y006111D03*
X019143Y005713D03*
X019478Y006151D03*
X020523Y007296D03*
D77*
X020147Y006866D03*
X020144Y006861D03*
X020142Y006853D03*
X020139Y006851D03*
X020137Y006848D03*
X020137Y006846D03*
X020134Y006841D03*
X020132Y006838D03*
X020129Y006833D03*
X020129Y006831D03*
X020127Y006828D03*
X020124Y006823D03*
X020122Y006818D03*
X020109Y006793D03*
X020107Y006791D03*
X020104Y006786D03*
X020069Y006711D03*
X019412Y006098D03*
X019622Y005953D03*
X019622Y005951D03*
X019624Y005943D03*
X019624Y005941D03*
X019624Y005938D03*
X019627Y005931D03*
X019627Y005928D03*
X019629Y005923D03*
X019629Y005921D03*
X019634Y005908D03*
X019634Y005906D03*
X019634Y005903D03*
X019634Y005901D03*
X019637Y005896D03*
X019637Y005893D03*
X019639Y005888D03*
X019639Y005886D03*
X019644Y005863D03*
X019644Y005861D03*
X019644Y005858D03*
X019644Y005856D03*
X019647Y005851D03*
X019647Y005848D03*
X019647Y005846D03*
X019647Y005843D03*
X019647Y005841D03*
X019649Y005833D03*
X019649Y005831D03*
X019652Y005821D03*
X019654Y005796D03*
X019654Y005778D03*
X019654Y005776D03*
X019659Y005773D03*
X019659Y005771D03*
X019659Y005768D03*
X019659Y005766D03*
X019659Y005763D03*
X019659Y005751D03*
X019659Y005748D03*
X019662Y005736D03*
X019662Y005733D03*
X019659Y005716D03*
X019659Y005693D03*
X019659Y005691D03*
X019659Y005688D03*
X019659Y005686D03*
X019659Y005683D03*
X019659Y005681D03*
X019659Y005671D03*
X019659Y005668D03*
X019659Y005666D03*
X019659Y005663D03*
X019659Y005661D03*
X018987Y005531D03*
X018562Y005701D03*
X018562Y005703D03*
X018559Y005713D03*
X018559Y005716D03*
X018559Y005718D03*
X018559Y005721D03*
X018019Y006003D03*
X021032Y005388D03*
X021047Y005368D03*
X021067Y005341D03*
X021082Y005321D03*
X021084Y005316D03*
X021089Y005311D03*
X021089Y005308D03*
X021102Y005293D03*
X021104Y005291D03*
X021107Y005288D03*
X021112Y005281D03*
X021114Y005278D03*
X021117Y005276D03*
X021119Y005271D03*
X021142Y005241D03*
X021149Y005228D03*
X021152Y005226D03*
X021157Y005216D03*
X021174Y005188D03*
X021184Y005173D03*
X021202Y005141D03*
X021204Y005138D03*
X021204Y005136D03*
X021207Y005133D03*
X021219Y005108D03*
X021222Y005103D03*
X021222Y005101D03*
X021227Y005096D03*
X021232Y005083D03*
X021244Y005063D03*
X021247Y005058D03*
X021252Y005046D03*
X021259Y005033D03*
X021259Y005031D03*
X021262Y005028D03*
X021262Y005026D03*
X021264Y005023D03*
X021267Y005018D03*
X021267Y005016D03*
X021284Y004983D03*
X021284Y004981D03*
X021287Y004976D03*
X021287Y004973D03*
X021304Y004931D03*
X021327Y004878D03*
X021352Y004811D03*
X021364Y004773D03*
X021364Y004771D03*
X021364Y004768D03*
X021387Y004686D03*
X021389Y004683D03*
X020737Y003906D03*
X020557Y003986D03*
X020542Y004001D03*
D78*
X021215Y003908D03*
X018310Y005606D03*
X018495Y005771D03*
X018495Y005773D03*
X019143Y005711D03*
X019143Y005708D03*
X019478Y006148D03*
X018213Y006313D03*
X017385Y006108D03*
X017368Y006118D03*
X017365Y006121D03*
X017340Y006553D03*
X020485Y007266D03*
X020513Y007288D03*
X020518Y007291D03*
D79*
X020119Y006813D03*
X020117Y006808D03*
X020114Y006803D03*
X020099Y006771D03*
X020097Y006768D03*
X020089Y006753D03*
X020087Y006748D03*
X020084Y006746D03*
X020084Y006743D03*
X020082Y006738D03*
X020082Y006736D03*
X020079Y006733D03*
X020077Y006728D03*
X020077Y006726D03*
X020077Y006723D03*
X020074Y006721D03*
X020072Y006716D03*
X020072Y006713D03*
X020067Y006701D03*
X020062Y006693D03*
X020062Y006691D03*
X020059Y006686D03*
X020054Y006673D03*
X020052Y006668D03*
X020047Y006656D03*
X020044Y006651D03*
X020042Y006648D03*
X020042Y006646D03*
X020039Y006641D03*
X020032Y006628D03*
X020032Y006626D03*
X020027Y006613D03*
X020027Y006611D03*
X020027Y006608D03*
X019124Y006083D03*
X019652Y005811D03*
X019652Y005808D03*
X019652Y005806D03*
X019654Y005791D03*
X019654Y005788D03*
X019659Y005711D03*
X019659Y005708D03*
X018982Y005528D03*
X018274Y005553D03*
X017892Y005738D03*
X018019Y006008D03*
X021022Y005398D03*
X021022Y005396D03*
X021042Y005376D03*
X021044Y005373D03*
X021059Y005351D03*
X021064Y005343D03*
X021072Y005333D03*
X021077Y005328D03*
X021077Y005326D03*
X021167Y005198D03*
X021167Y005196D03*
X021184Y005168D03*
X021192Y005156D03*
X021199Y005143D03*
X021234Y005078D03*
X020732Y003908D03*
X020522Y004016D03*
D80*
X021219Y003911D03*
X019142Y005721D03*
X019142Y005723D03*
X019142Y005726D03*
X018502Y005791D03*
X018502Y005793D03*
X018502Y005796D03*
X017412Y006096D03*
D81*
X018020Y006006D03*
X018508Y005973D03*
X018635Y005583D03*
X019125Y006078D03*
X019125Y006081D03*
X019628Y005926D03*
X019638Y005883D03*
X019638Y005881D03*
X019638Y005878D03*
X019638Y005876D03*
X019640Y005873D03*
X019640Y005871D03*
X019643Y005868D03*
X019643Y005866D03*
X019648Y005838D03*
X019648Y005836D03*
X019650Y005818D03*
X019650Y005816D03*
X019650Y005813D03*
X019653Y005803D03*
X019653Y005801D03*
X019653Y005798D03*
X019653Y005793D03*
X019655Y005786D03*
X019655Y005783D03*
X019655Y005781D03*
X019658Y005713D03*
X019660Y005706D03*
X019660Y005703D03*
X019660Y005701D03*
X019660Y005698D03*
X019660Y005696D03*
X021013Y005411D03*
X021015Y005408D03*
X021015Y005406D03*
X021018Y005403D03*
X021020Y005401D03*
X021033Y005386D03*
X021035Y005383D03*
X021035Y005381D03*
X021038Y005378D03*
X021045Y005371D03*
X021053Y005358D03*
X021055Y005356D03*
X021058Y005353D03*
X021060Y005348D03*
X021063Y005346D03*
X021070Y005338D03*
X021070Y005336D03*
X021075Y005331D03*
X021078Y005323D03*
X021083Y005318D03*
X021108Y005286D03*
X021158Y005213D03*
X021178Y005183D03*
X021183Y005171D03*
X021223Y005098D03*
X021233Y005081D03*
X021235Y005076D03*
X021238Y005073D03*
X021238Y005071D03*
X021238Y005068D03*
X021240Y005066D03*
X021245Y005061D03*
X021305Y004928D03*
X020718Y003911D03*
X020540Y004003D03*
X020063Y006696D03*
X020065Y006698D03*
X020068Y006703D03*
X020068Y006706D03*
X020068Y006708D03*
X020073Y006718D03*
X020078Y006731D03*
X020083Y006741D03*
X020088Y006751D03*
X020090Y006756D03*
X020093Y006758D03*
X020093Y006761D03*
X020093Y006763D03*
X020095Y006766D03*
X020100Y006773D03*
X020100Y006776D03*
X020103Y006778D03*
X020103Y006781D03*
X020103Y006783D03*
X020105Y006788D03*
X020110Y006796D03*
X020110Y006798D03*
X020113Y006801D03*
X020115Y006806D03*
X020118Y006811D03*
X020120Y006816D03*
X020123Y006821D03*
X020125Y006826D03*
X020130Y006836D03*
X020135Y006843D03*
D82*
X019478Y006158D03*
X019140Y005733D03*
X019483Y005483D03*
X018503Y005811D03*
X018293Y005583D03*
X017933Y005786D03*
X017928Y005781D03*
X017460Y006076D03*
X017455Y006078D03*
X017450Y006081D03*
X018218Y006306D03*
X021225Y003913D03*
D83*
X021227Y003916D03*
X019357Y005551D03*
X019139Y005736D03*
X019139Y005738D03*
X019139Y005741D03*
X018634Y005613D03*
X018504Y005813D03*
X017954Y005808D03*
X017922Y005776D03*
X017429Y005951D03*
X017427Y005948D03*
X017422Y005946D03*
X017439Y006086D03*
X017427Y006091D03*
X017342Y006136D03*
X019477Y006161D03*
X020532Y007308D03*
D84*
X020527Y007306D03*
X019479Y006156D03*
X019142Y005731D03*
X019582Y005551D03*
X018634Y005616D03*
X018502Y005806D03*
X018502Y005808D03*
X018342Y005626D03*
X018339Y005623D03*
X017952Y005806D03*
X017927Y005778D03*
X017444Y006083D03*
X017419Y006093D03*
X021232Y003918D03*
D85*
X021230Y003921D03*
X021268Y003943D03*
X021273Y003948D03*
X019338Y005556D03*
X019135Y005771D03*
X019135Y005773D03*
X018508Y005851D03*
X018508Y005853D03*
X018508Y005856D03*
X018368Y005643D03*
X018363Y005638D03*
X017968Y005813D03*
X017910Y005761D03*
X017485Y005991D03*
X017490Y005996D03*
X017508Y006046D03*
X017505Y006048D03*
X017495Y006053D03*
X017333Y006146D03*
X017240Y005828D03*
X017235Y005826D03*
X017233Y005823D03*
X017220Y005813D03*
X017218Y005811D03*
X017195Y005796D03*
X017193Y005793D03*
X017188Y005791D03*
X017188Y005788D03*
X017183Y005786D03*
X019478Y006168D03*
X020455Y007256D03*
D86*
X020459Y007258D03*
X020537Y007318D03*
X017499Y006051D03*
X017487Y005993D03*
X017482Y005988D03*
X017222Y005816D03*
X017199Y005798D03*
X018287Y005573D03*
X018359Y005636D03*
X019137Y005766D03*
X019137Y005768D03*
X017302Y006566D03*
X021234Y003923D03*
X021264Y003938D03*
X021264Y003941D03*
D87*
X021252Y003933D03*
X021244Y003926D03*
X018292Y005581D03*
X017919Y005768D03*
X017919Y005771D03*
X017464Y005976D03*
X017454Y005966D03*
X017447Y005961D03*
X017442Y005958D03*
X017439Y005956D03*
X017417Y005943D03*
X017402Y005933D03*
X017392Y005928D03*
X017387Y005926D03*
X017364Y005911D03*
X017349Y005901D03*
X017332Y005891D03*
X017329Y005888D03*
X017327Y005886D03*
X017324Y005883D03*
X017304Y005871D03*
X017287Y005861D03*
X017337Y006141D03*
X018504Y005821D03*
X019139Y005746D03*
X019477Y006163D03*
D88*
X019138Y005751D03*
X019138Y005748D03*
X018635Y005608D03*
X018350Y005628D03*
X017918Y005766D03*
X017475Y005983D03*
X017473Y005981D03*
X017463Y005973D03*
X017458Y005971D03*
X017455Y005968D03*
X017405Y005936D03*
X017380Y005921D03*
X017375Y005918D03*
X017370Y005916D03*
X017368Y005913D03*
X017320Y005881D03*
X017310Y005876D03*
X017308Y005873D03*
X017295Y005866D03*
X017293Y005863D03*
X017283Y005858D03*
X017280Y005856D03*
X017473Y006068D03*
X017478Y006066D03*
X018505Y005833D03*
X018505Y005831D03*
X018505Y005828D03*
X018505Y005826D03*
X018505Y005823D03*
X020468Y007263D03*
X020535Y007313D03*
X021258Y003936D03*
X021250Y003931D03*
X021248Y003928D03*
D89*
X020699Y003928D03*
X020687Y003933D03*
X020644Y003953D03*
X020634Y003961D03*
X020594Y003966D03*
X020484Y004063D03*
X020474Y004051D03*
X020384Y004158D03*
X020329Y004223D03*
X020327Y004226D03*
X020309Y004243D03*
X020297Y004263D03*
X020184Y004423D03*
X020109Y004561D03*
X020102Y004571D03*
X021017Y005428D03*
X021017Y005431D03*
X021012Y005438D03*
X021012Y005441D03*
X021009Y005443D03*
X019394Y006073D03*
X018247Y006278D03*
X017884Y005731D03*
D90*
X017908Y005758D03*
X018283Y005571D03*
X018508Y005863D03*
X018508Y005866D03*
X019330Y005558D03*
X019598Y005556D03*
X019478Y006171D03*
X017510Y006043D03*
X017330Y006148D03*
X017225Y005818D03*
X017213Y005808D03*
X017180Y005783D03*
X017175Y005781D03*
X017173Y005778D03*
X017150Y005761D03*
X017148Y005758D03*
X017130Y005743D03*
X017128Y005741D03*
X017295Y006568D03*
X017293Y006571D03*
X017273Y006576D03*
X021275Y003951D03*
X021278Y003953D03*
X021285Y003958D03*
D91*
X021282Y003956D03*
X019602Y005558D03*
X019134Y005778D03*
X019134Y005781D03*
X019134Y005783D03*
X019134Y005786D03*
X019134Y005788D03*
X019134Y005791D03*
X018632Y005601D03*
X018509Y005868D03*
X018509Y005871D03*
X018509Y005873D03*
X017977Y005818D03*
X017497Y006001D03*
X017512Y006041D03*
X017162Y005771D03*
X017159Y005768D03*
X017152Y005763D03*
X017147Y005756D03*
X019479Y006173D03*
X020449Y007251D03*
X020452Y007253D03*
D92*
X017515Y006038D03*
X017500Y006003D03*
X017143Y005753D03*
X017140Y005751D03*
X017138Y005748D03*
X017135Y005746D03*
X017905Y005756D03*
X018280Y005568D03*
X018373Y005646D03*
X018633Y005598D03*
X018510Y005876D03*
X019485Y005478D03*
X021288Y003961D03*
D93*
X021289Y003963D03*
X021292Y003966D03*
X021294Y003968D03*
X019607Y005561D03*
X018512Y005878D03*
X018379Y005651D03*
X018377Y005648D03*
X017517Y006036D03*
X017504Y006008D03*
X018224Y006301D03*
X017277Y006573D03*
X017124Y005738D03*
X017119Y005733D03*
X019479Y006176D03*
X020432Y007241D03*
X020434Y007243D03*
X020444Y007248D03*
X020542Y007323D03*
D94*
X020428Y007238D03*
X020425Y007236D03*
X020423Y007233D03*
X017518Y006033D03*
X017505Y006011D03*
X017503Y006006D03*
X017325Y006151D03*
X017123Y005736D03*
X017118Y005731D03*
X018510Y005881D03*
X018510Y005883D03*
X018510Y005886D03*
X018510Y005888D03*
X018510Y005891D03*
X018513Y005893D03*
X018513Y005896D03*
X019130Y005803D03*
X019133Y005801D03*
X019133Y005798D03*
X019133Y005796D03*
X019133Y005793D03*
X019610Y005563D03*
X021295Y003971D03*
D95*
X020559Y003973D03*
X020527Y004013D03*
X019962Y004863D03*
X019962Y004866D03*
X019939Y004936D03*
X019872Y005281D03*
X019872Y005283D03*
X019872Y005293D03*
X019869Y005306D03*
X019867Y005331D03*
X019867Y005341D03*
X019867Y005343D03*
X019857Y005451D03*
X019857Y005453D03*
X019854Y005511D03*
X019854Y005513D03*
X019854Y005533D03*
X019864Y005871D03*
X019864Y005873D03*
X019869Y005926D03*
X019869Y005928D03*
X019869Y005931D03*
X019869Y005933D03*
X019869Y005936D03*
X019872Y005946D03*
X019872Y005956D03*
X019879Y006008D03*
X019879Y006011D03*
X019909Y006198D03*
X019919Y006256D03*
X019924Y006271D03*
X019924Y006273D03*
X019932Y006301D03*
X019932Y006303D03*
X019932Y006306D03*
X019932Y006308D03*
X019932Y006311D03*
X019942Y006343D03*
X019942Y006346D03*
X019944Y006351D03*
X019944Y006353D03*
X019944Y006356D03*
X019944Y006358D03*
X019952Y006381D03*
X019952Y006383D03*
X019954Y006391D03*
X019957Y006396D03*
X019957Y006398D03*
X019957Y006401D03*
X019957Y006403D03*
X019959Y006406D03*
X019959Y006408D03*
X019962Y006421D03*
X019964Y006423D03*
X019964Y006426D03*
X019967Y006436D03*
X019972Y006448D03*
X019972Y006451D03*
X019979Y006478D03*
X019982Y006483D03*
X019982Y006486D03*
X019987Y006503D03*
X019989Y006508D03*
X019994Y006518D03*
X019994Y006521D03*
X019997Y006523D03*
X019997Y006526D03*
X019997Y006528D03*
X019999Y006531D03*
X019999Y006533D03*
X019999Y006536D03*
X019999Y006538D03*
X019999Y006541D03*
X020002Y006543D03*
X020002Y006546D03*
X020004Y006548D03*
X020004Y006551D03*
X020009Y006566D03*
X020012Y006571D03*
X020014Y006576D03*
X020017Y006583D03*
X020022Y006598D03*
X020022Y006601D03*
X020024Y006603D03*
X020024Y006606D03*
X020029Y006616D03*
X019407Y006093D03*
X018812Y006111D03*
X018512Y005978D03*
X017299Y006176D03*
X017112Y005583D03*
X021009Y005413D03*
X021024Y005391D03*
X021159Y005206D03*
X021187Y005163D03*
X021194Y005151D03*
X021194Y005148D03*
X021194Y005146D03*
D96*
X019130Y005808D03*
X019130Y005811D03*
X019130Y005813D03*
X019130Y005816D03*
X019130Y005818D03*
X018513Y005906D03*
X018513Y005908D03*
X018513Y005911D03*
X018383Y005656D03*
X018280Y005566D03*
X017513Y006016D03*
X017113Y005726D03*
X017113Y005723D03*
X017110Y005721D03*
X017103Y005613D03*
X017108Y005608D03*
X020413Y007226D03*
X020543Y007326D03*
X021310Y003986D03*
X021303Y003978D03*
D97*
X020565Y003983D03*
X020553Y003981D03*
X020553Y003993D03*
X020523Y004011D03*
X021385Y004688D03*
X021385Y004691D03*
X021385Y004696D03*
X021385Y004698D03*
X021385Y004701D03*
X021363Y004776D03*
X021350Y004813D03*
X021350Y004816D03*
X021328Y004876D03*
X021325Y004881D03*
X021325Y004883D03*
X021303Y004933D03*
X021303Y004936D03*
X021303Y004938D03*
X021303Y004941D03*
X021303Y004943D03*
X021300Y004946D03*
X021300Y004948D03*
X021298Y004951D03*
X021295Y004953D03*
X021295Y004956D03*
X021295Y004958D03*
X021293Y004961D03*
X021288Y004971D03*
X021285Y004978D03*
X021283Y004986D03*
X021275Y005003D03*
X021275Y005006D03*
X021265Y005021D03*
X021258Y005036D03*
X021253Y005043D03*
X021250Y005048D03*
X021248Y005056D03*
X021233Y005086D03*
X021228Y005093D03*
X021220Y005106D03*
X021215Y005111D03*
X021215Y005113D03*
X021215Y005116D03*
X021208Y005131D03*
X021185Y005176D03*
X021175Y005186D03*
X021173Y005191D03*
X021155Y005218D03*
X021155Y005221D03*
X021155Y005223D03*
X021148Y005231D03*
X021140Y005243D03*
X021118Y005273D03*
X021110Y005283D03*
X021100Y005296D03*
X021100Y005298D03*
X021085Y005313D03*
X021050Y005361D03*
X021050Y005363D03*
X021050Y005366D03*
X019660Y005673D03*
X019660Y005676D03*
X019660Y005718D03*
X019663Y005726D03*
X019663Y005728D03*
X019663Y005731D03*
X019660Y005738D03*
X019660Y005741D03*
X019660Y005743D03*
X019660Y005746D03*
X019658Y005753D03*
X019658Y005756D03*
X019658Y005758D03*
X019658Y005761D03*
X019650Y005823D03*
X019650Y005826D03*
X019650Y005828D03*
X019645Y005853D03*
X019638Y005891D03*
X019635Y005898D03*
X019633Y005911D03*
X019630Y005918D03*
X019628Y005933D03*
X019625Y005936D03*
X019623Y005946D03*
X019623Y005948D03*
X019620Y005956D03*
X019618Y005958D03*
X019618Y005961D03*
X019615Y005966D03*
X019615Y005968D03*
X019615Y005971D03*
X019610Y005983D03*
X019413Y006101D03*
X019128Y006076D03*
X018815Y006108D03*
X018508Y005971D03*
X018560Y005711D03*
X018560Y005708D03*
X018560Y005706D03*
X018565Y005696D03*
X018988Y005533D03*
X019065Y005633D03*
X019068Y005636D03*
X019068Y005638D03*
X019070Y005641D03*
X019075Y005656D03*
X017305Y006171D03*
X017238Y006586D03*
X020143Y006856D03*
X020143Y006858D03*
X020145Y006863D03*
X020148Y006868D03*
X020150Y006873D03*
X020160Y006891D03*
X020168Y006906D03*
X020170Y006908D03*
X020170Y006911D03*
X020175Y006913D03*
X020188Y006933D03*
X020190Y006938D03*
X020190Y006941D03*
X020195Y006948D03*
X020200Y006956D03*
X020203Y006961D03*
X020208Y006968D03*
X020210Y006971D03*
X020550Y007338D03*
D98*
X020288Y007086D03*
X020285Y007081D03*
X020285Y007078D03*
X020278Y007073D03*
X020278Y007071D03*
X020260Y007048D03*
X020258Y007046D03*
X020258Y007043D03*
X020255Y007041D03*
X020253Y007038D03*
X020253Y007036D03*
X020250Y007033D03*
X020248Y007031D03*
X020245Y007026D03*
X020243Y007023D03*
X020240Y007018D03*
X020238Y007016D03*
X020233Y007008D03*
X019563Y006081D03*
X019578Y006058D03*
X019580Y006056D03*
X019580Y006053D03*
X019583Y006048D03*
X019585Y006046D03*
X019585Y006043D03*
X019590Y006031D03*
X019130Y006068D03*
X019130Y006071D03*
X018815Y006101D03*
X018775Y005881D03*
X018775Y005878D03*
X018773Y005873D03*
X018773Y005871D03*
X018773Y005868D03*
X018773Y005866D03*
X018770Y005856D03*
X018768Y005848D03*
X018768Y005846D03*
X018765Y005838D03*
X018763Y005828D03*
X018763Y005826D03*
X018760Y005811D03*
X018760Y005808D03*
X018755Y005786D03*
X018753Y005783D03*
X018753Y005781D03*
X019040Y005596D03*
X019038Y005591D03*
X019045Y005601D03*
X019048Y005606D03*
X019050Y005608D03*
X019205Y005686D03*
X019208Y005683D03*
X019208Y005681D03*
X019210Y005676D03*
X019213Y005673D03*
X019645Y005598D03*
X019648Y005603D03*
X019648Y005606D03*
X021135Y005256D03*
X021315Y004923D03*
X021315Y004921D03*
X021318Y004913D03*
X021318Y004911D03*
X021333Y004873D03*
X021345Y004836D03*
X021398Y004661D03*
X021400Y004653D03*
X021400Y004651D03*
X021403Y004638D03*
X021410Y004583D03*
X021410Y004581D03*
X021410Y004578D03*
X021413Y004568D03*
X021415Y004548D03*
X021420Y004511D03*
X021420Y004508D03*
X021423Y004483D03*
X021423Y004463D03*
X021423Y004461D03*
X021423Y004458D03*
X021425Y004436D03*
X021425Y004426D03*
X021425Y004413D03*
X021425Y004411D03*
X021425Y004408D03*
X021425Y004406D03*
X021425Y004403D03*
X021425Y004401D03*
X021425Y004398D03*
X021425Y004396D03*
X021425Y004393D03*
X021425Y004391D03*
X021423Y004376D03*
X021423Y004373D03*
X021423Y004371D03*
X021423Y004361D03*
X021423Y004358D03*
X021423Y004333D03*
X021423Y004331D03*
X021423Y004328D03*
X021420Y004323D03*
X021420Y004321D03*
X021420Y004318D03*
X021420Y004316D03*
X021420Y004306D03*
X021420Y004303D03*
X021420Y004301D03*
X021420Y004298D03*
X021413Y004241D03*
X021410Y004228D03*
X021403Y004196D03*
X021403Y004193D03*
X020550Y003991D03*
X017113Y005591D03*
X018033Y005936D03*
X018025Y005973D03*
D99*
X017993Y005831D03*
X017990Y005828D03*
X017903Y005751D03*
X018388Y005661D03*
X018388Y005658D03*
X018390Y005663D03*
X018395Y005666D03*
X018395Y005668D03*
X018395Y005671D03*
X018513Y005913D03*
X018513Y005916D03*
X018513Y005918D03*
X018513Y005921D03*
X019128Y005833D03*
X019128Y005831D03*
X019128Y005828D03*
X019308Y005573D03*
X019310Y005571D03*
X019315Y005566D03*
X019320Y005563D03*
X019618Y005568D03*
X019475Y006178D03*
X020400Y007216D03*
X020403Y007218D03*
X017318Y006158D03*
X017100Y005616D03*
X017108Y005601D03*
X021320Y004001D03*
D100*
X021329Y004008D03*
X021332Y004016D03*
X021337Y004018D03*
X021337Y004021D03*
X021337Y004023D03*
X019297Y005581D03*
X019292Y005586D03*
X019289Y005588D03*
X018712Y005683D03*
X018712Y005686D03*
X018632Y005593D03*
X018422Y005703D03*
X018417Y005696D03*
X018412Y005688D03*
X018279Y005563D03*
X017902Y005746D03*
X018002Y005838D03*
X018007Y005846D03*
X018514Y005931D03*
X018514Y005933D03*
X018234Y006296D03*
X017257Y006578D03*
X017254Y006581D03*
X017099Y005708D03*
X017097Y005706D03*
X017094Y005703D03*
X017094Y005701D03*
X017092Y005623D03*
X017092Y005621D03*
X019127Y005853D03*
X019127Y005856D03*
X019127Y005858D03*
X020387Y007201D03*
X020389Y007203D03*
D101*
X020383Y007198D03*
X020383Y007196D03*
X020380Y007193D03*
X020370Y007186D03*
X020365Y007178D03*
X020545Y007331D03*
X019473Y006181D03*
X018515Y005946D03*
X018515Y005943D03*
X018515Y005941D03*
X018515Y005938D03*
X018515Y005936D03*
X018433Y005721D03*
X018430Y005718D03*
X018430Y005716D03*
X018430Y005713D03*
X018428Y005711D03*
X018425Y005708D03*
X018418Y005698D03*
X018415Y005693D03*
X018413Y005691D03*
X018633Y005591D03*
X019278Y005598D03*
X019280Y005596D03*
X019295Y005583D03*
X019623Y005573D03*
X018005Y005843D03*
X018003Y005841D03*
X017093Y005698D03*
X017093Y005696D03*
X021338Y004026D03*
X021348Y004038D03*
X021348Y004041D03*
D102*
X020513Y004031D03*
X020500Y004038D03*
X020083Y004583D03*
X020080Y004586D03*
X020073Y004603D03*
X020068Y004608D03*
X020063Y004613D03*
X020063Y004616D03*
X020058Y004626D03*
X018980Y005523D03*
X019125Y006091D03*
X018013Y006023D03*
X017293Y006183D03*
D103*
X017199Y006593D03*
X018264Y005548D03*
X020079Y004601D03*
X020174Y004426D03*
X020179Y004416D03*
X020499Y004048D03*
D104*
X020488Y004056D03*
X020173Y004428D03*
X020160Y004451D03*
X020148Y004478D03*
X020140Y004488D03*
X018628Y005576D03*
X018505Y005988D03*
X018803Y006123D03*
X019395Y006081D03*
D105*
X018970Y005518D03*
X020090Y004591D03*
X020098Y004573D03*
X020135Y004508D03*
X020133Y004501D03*
X020143Y004493D03*
X020150Y004481D03*
X020153Y004476D03*
X020158Y004466D03*
X020160Y004461D03*
X020328Y004221D03*
X020335Y004216D03*
X020468Y004076D03*
X021020Y005423D03*
X021018Y005426D03*
X020988Y005471D03*
D106*
X019642Y005593D03*
X019642Y005596D03*
X019639Y005591D03*
X019637Y005588D03*
X019634Y005586D03*
X019232Y005648D03*
X019229Y005651D03*
X019227Y005653D03*
X019227Y005656D03*
X019224Y005658D03*
X019222Y005661D03*
X019219Y005666D03*
X019219Y005668D03*
X019217Y005671D03*
X019032Y005586D03*
X019029Y005583D03*
X019029Y005581D03*
X019024Y005578D03*
X019007Y005553D03*
X018734Y005718D03*
X018734Y005721D03*
X018734Y005723D03*
X018739Y005738D03*
X018747Y005761D03*
X018749Y005768D03*
X018749Y005771D03*
X018787Y005943D03*
X018789Y005963D03*
X018792Y005968D03*
X018792Y005971D03*
X018792Y005973D03*
X018794Y005978D03*
X018794Y005981D03*
X018794Y005983D03*
X018794Y005986D03*
X018797Y005993D03*
X018797Y005996D03*
X018797Y005998D03*
X018797Y006001D03*
X018797Y006003D03*
X018799Y006011D03*
X018799Y006013D03*
X018799Y006016D03*
X018802Y006023D03*
X018802Y006026D03*
X018804Y006038D03*
X018514Y005958D03*
X018029Y005886D03*
X018239Y006293D03*
X019129Y006026D03*
X019129Y006023D03*
X019127Y005931D03*
X019127Y005928D03*
X019127Y005926D03*
X019127Y005923D03*
X019124Y005911D03*
X019127Y005903D03*
X019127Y005901D03*
X019557Y006093D03*
X019559Y006091D03*
X019559Y006088D03*
X019472Y006183D03*
X020292Y007088D03*
X020294Y007093D03*
X020297Y007098D03*
X020302Y007103D03*
X020304Y007108D03*
X020307Y007111D03*
X020307Y007113D03*
X020309Y007116D03*
X020312Y007118D03*
X020314Y007121D03*
X020317Y007123D03*
X020319Y007128D03*
X020324Y007133D03*
X020327Y007136D03*
X017084Y005678D03*
X017079Y005671D03*
X017079Y005668D03*
X017077Y005661D03*
X017079Y005651D03*
X017079Y005648D03*
X017082Y005643D03*
X017082Y005641D03*
X021394Y004161D03*
X021394Y004158D03*
X021394Y004151D03*
X021389Y004136D03*
X021389Y004133D03*
X021389Y004131D03*
X021387Y004128D03*
X021384Y004123D03*
X021384Y004121D03*
X021384Y004118D03*
X021377Y004108D03*
X021377Y004106D03*
X021374Y004096D03*
X021367Y004081D03*
D107*
X021417Y004286D03*
X021417Y004288D03*
X021419Y004296D03*
X021419Y004308D03*
X021419Y004311D03*
X021419Y004313D03*
X021422Y004336D03*
X021422Y004356D03*
X021422Y004378D03*
X021424Y004386D03*
X021424Y004388D03*
X021424Y004416D03*
X021424Y004418D03*
X021424Y004421D03*
X021424Y004423D03*
X021424Y004428D03*
X021424Y004431D03*
X021424Y004433D03*
X021422Y004451D03*
X021422Y004453D03*
X021422Y004456D03*
X021424Y004466D03*
X021424Y004468D03*
X021424Y004471D03*
X021424Y004473D03*
X021422Y004476D03*
X021422Y004478D03*
X021422Y004481D03*
X021422Y004486D03*
X021422Y004488D03*
X021422Y004491D03*
X021422Y004493D03*
X021419Y004513D03*
X021419Y004516D03*
X021419Y004518D03*
X021419Y004521D03*
X021414Y004551D03*
X021414Y004553D03*
X021414Y004556D03*
X021412Y004566D03*
X021412Y004571D03*
X021412Y004573D03*
X021412Y004576D03*
X021412Y004586D03*
X021409Y004593D03*
X021409Y004596D03*
X021409Y004598D03*
X021409Y004601D03*
X021409Y004603D03*
X021407Y004608D03*
X021404Y004611D03*
X021404Y004613D03*
X021404Y004616D03*
X021404Y004618D03*
X021404Y004621D03*
X021402Y004633D03*
X021402Y004636D03*
X021399Y004656D03*
X021399Y004658D03*
X021397Y004663D03*
X021397Y004666D03*
X021394Y004676D03*
X021379Y004728D03*
X021374Y004743D03*
X021372Y004758D03*
X021372Y004761D03*
X021372Y004763D03*
X021372Y004766D03*
X021364Y004783D03*
X021357Y004808D03*
X021347Y004833D03*
X021344Y004838D03*
X021344Y004841D03*
X021344Y004843D03*
X021344Y004846D03*
X021344Y004848D03*
X021339Y004853D03*
X021339Y004856D03*
X021337Y004858D03*
X021334Y004871D03*
X021324Y004891D03*
X021324Y004893D03*
X021322Y004898D03*
X021322Y004901D03*
X021322Y004903D03*
X021322Y004906D03*
X021322Y004908D03*
X021317Y004916D03*
X021317Y004918D03*
X021312Y004926D03*
X021282Y004993D03*
X021282Y004996D03*
X021279Y004998D03*
X021214Y005123D03*
X021214Y005126D03*
X021139Y005248D03*
X021137Y005253D03*
X021097Y005303D03*
X019652Y005616D03*
X019649Y005611D03*
X019649Y005608D03*
X019647Y005601D03*
X019482Y005473D03*
X019079Y005663D03*
X019079Y005666D03*
X019079Y005668D03*
X019072Y005651D03*
X019052Y005613D03*
X019052Y005611D03*
X019039Y005593D03*
X018992Y005538D03*
X018569Y005688D03*
X018764Y005831D03*
X018764Y005833D03*
X018764Y005836D03*
X018512Y005966D03*
X018022Y005996D03*
X018022Y005998D03*
X019129Y006073D03*
X019587Y006041D03*
X019587Y006038D03*
X019587Y006036D03*
X019589Y006033D03*
X019592Y006028D03*
X019592Y006026D03*
X019594Y006023D03*
X019602Y006001D03*
X020224Y006996D03*
X020227Y006998D03*
X020229Y007001D03*
X020232Y007006D03*
X020234Y007011D03*
X020237Y007013D03*
X020242Y007021D03*
X020247Y007028D03*
X020549Y007336D03*
D108*
X020230Y007003D03*
X020223Y006993D03*
X020220Y006991D03*
X020218Y006988D03*
X020218Y006986D03*
X020215Y006983D03*
X020213Y006978D03*
X020213Y006976D03*
X020183Y006928D03*
X020180Y006926D03*
X020178Y006923D03*
X020178Y006921D03*
X020158Y006886D03*
X019470Y006188D03*
X019595Y006021D03*
X019595Y006018D03*
X019598Y006016D03*
X019600Y006013D03*
X019600Y006011D03*
X019600Y006008D03*
X019600Y006006D03*
X019600Y006003D03*
X019603Y005998D03*
X019605Y005993D03*
X019660Y005658D03*
X019660Y005656D03*
X019655Y005633D03*
X019655Y005631D03*
X019655Y005628D03*
X019655Y005626D03*
X019655Y005623D03*
X019653Y005618D03*
X019650Y005613D03*
X019085Y005686D03*
X019083Y005678D03*
X019080Y005671D03*
X019078Y005661D03*
X019073Y005653D03*
X019060Y005623D03*
X019058Y005621D03*
X018990Y005536D03*
X018570Y005681D03*
X018570Y005683D03*
X018570Y005686D03*
X018510Y005968D03*
X018815Y006103D03*
X018815Y006106D03*
X018243Y006291D03*
X018020Y006001D03*
X017308Y006166D03*
X018275Y005556D03*
X021095Y005306D03*
X021098Y005301D03*
X021125Y005266D03*
X021133Y005258D03*
X021138Y005251D03*
X021145Y005236D03*
X021213Y005128D03*
X021215Y005121D03*
X021215Y005118D03*
X021273Y005011D03*
X021278Y005001D03*
X021283Y004991D03*
X021323Y004896D03*
X021325Y004888D03*
X021335Y004868D03*
X021335Y004866D03*
X021335Y004863D03*
X021335Y004861D03*
X021340Y004851D03*
X021348Y004831D03*
X021350Y004823D03*
X021350Y004821D03*
X021358Y004806D03*
X021358Y004803D03*
X021358Y004801D03*
X021358Y004798D03*
X021358Y004796D03*
X021363Y004781D03*
X021373Y004756D03*
X021373Y004753D03*
X021375Y004741D03*
X021375Y004738D03*
X021378Y004736D03*
X021378Y004733D03*
X021378Y004731D03*
X021380Y004726D03*
X021380Y004723D03*
X021380Y004721D03*
X021383Y004716D03*
X021385Y004713D03*
X021385Y004711D03*
X021385Y004708D03*
X021385Y004706D03*
X021388Y004693D03*
X021393Y004681D03*
X021393Y004678D03*
X021395Y004673D03*
X021395Y004671D03*
X021395Y004668D03*
X021403Y004623D03*
X021408Y004606D03*
X021410Y004588D03*
X021413Y004563D03*
X021413Y004561D03*
X021413Y004558D03*
X021415Y004546D03*
X021415Y004543D03*
X021415Y004541D03*
X021415Y004538D03*
X021415Y004528D03*
X021418Y004526D03*
X021418Y004523D03*
X021418Y004506D03*
X021418Y004503D03*
X021418Y004501D03*
X021420Y004496D03*
X021420Y004448D03*
X021420Y004446D03*
X021420Y004443D03*
X021423Y004441D03*
X021423Y004438D03*
X021423Y004383D03*
X021423Y004381D03*
X021420Y004353D03*
X021420Y004351D03*
X021420Y004348D03*
X021420Y004346D03*
X021420Y004343D03*
X021420Y004341D03*
X021420Y004338D03*
X021418Y004293D03*
X021418Y004291D03*
D109*
X020117Y004526D03*
X020082Y004588D03*
X020059Y004631D03*
D110*
X021160Y005203D03*
X021163Y005201D03*
X021158Y005208D03*
X021158Y005211D03*
X021168Y005193D03*
X021185Y005166D03*
X021188Y005161D03*
X021190Y005158D03*
X021193Y005153D03*
X021023Y005393D03*
X019858Y005843D03*
X019408Y006096D03*
X019980Y006481D03*
X019993Y006511D03*
X019993Y006513D03*
X019993Y006516D03*
X020010Y006568D03*
X020013Y006573D03*
X020015Y006578D03*
X020015Y006581D03*
X020018Y006586D03*
X020018Y006588D03*
X020018Y006591D03*
X020020Y006593D03*
X020020Y006596D03*
X020030Y006618D03*
X020030Y006621D03*
X020030Y006623D03*
X020033Y006631D03*
X020035Y006633D03*
X020038Y006636D03*
X020038Y006638D03*
X020040Y006643D03*
X020045Y006653D03*
X020048Y006658D03*
X020048Y006661D03*
X020048Y006663D03*
X020048Y006666D03*
X020053Y006671D03*
X020055Y006676D03*
X020055Y006678D03*
X020058Y006681D03*
X020058Y006683D03*
X020060Y006688D03*
X018510Y005976D03*
X018018Y006011D03*
X018245Y006288D03*
X017300Y006173D03*
X018633Y005581D03*
X018980Y005526D03*
D111*
X019138Y005743D03*
X019485Y005481D03*
X018635Y005611D03*
X017920Y005773D03*
X018503Y005816D03*
X018503Y005818D03*
X017468Y006071D03*
X017463Y006073D03*
X017433Y006088D03*
X017340Y006138D03*
X017448Y005963D03*
X017435Y005953D03*
X017413Y005941D03*
X017410Y005938D03*
X017398Y005931D03*
X017385Y005923D03*
X020533Y007311D03*
D112*
X020519Y007293D03*
X017332Y006558D03*
X017354Y006128D03*
X017394Y006103D03*
X018309Y005603D03*
X018309Y005601D03*
X018497Y005776D03*
X018639Y005628D03*
X018639Y005626D03*
X019484Y005486D03*
D113*
X019485Y005491D03*
X019483Y006126D03*
X018643Y005648D03*
D114*
X018645Y005676D03*
X019483Y005496D03*
D115*
X019482Y005498D03*
D116*
X019482Y005501D03*
X017457Y006521D03*
X017437Y006526D03*
X017414Y006531D03*
D117*
X017518Y006503D03*
X019480Y005503D03*
D118*
X019479Y005506D03*
X017654Y006471D03*
X017614Y006481D03*
D119*
X017683Y006461D03*
X019480Y005511D03*
D120*
X019477Y005513D03*
X017727Y006451D03*
D121*
X017722Y006453D03*
X019477Y005516D03*
D122*
X019477Y005518D03*
X017779Y006441D03*
D123*
X019475Y005521D03*
D124*
X019475Y005523D03*
D125*
X019473Y005526D03*
D126*
X019473Y005528D03*
X018133Y006351D03*
X017815Y006431D03*
D127*
X017843Y006426D03*
X019473Y005531D03*
D128*
X019473Y005533D03*
X018125Y006353D03*
D129*
X019472Y005536D03*
D130*
X019474Y005538D03*
D131*
X019474Y005541D03*
D132*
X019472Y005543D03*
X017887Y006418D03*
D133*
X019470Y005546D03*
D134*
X019470Y005548D03*
X018085Y006368D03*
D135*
X017492Y006056D03*
X017482Y006063D03*
X017469Y005978D03*
X017352Y005903D03*
X017344Y005898D03*
X017339Y005896D03*
X017337Y005893D03*
X017314Y005878D03*
X017302Y005868D03*
X017279Y005853D03*
X017917Y005763D03*
X017962Y005811D03*
X018289Y005578D03*
X018507Y005836D03*
X018507Y005838D03*
X019137Y005761D03*
X019137Y005758D03*
X019137Y005756D03*
X019137Y005753D03*
X019589Y005553D03*
X019474Y006166D03*
X020537Y007316D03*
D136*
X020463Y007261D03*
X018223Y006303D03*
X017485Y006058D03*
X017483Y006061D03*
X017478Y005986D03*
X017360Y005908D03*
X017355Y005906D03*
X017275Y005851D03*
X017270Y005848D03*
X017268Y005846D03*
X017265Y005843D03*
X017258Y005841D03*
X017255Y005838D03*
X017253Y005836D03*
X017248Y005833D03*
X017245Y005831D03*
X017335Y006143D03*
X018288Y005576D03*
X018353Y005631D03*
X018355Y005633D03*
X018635Y005606D03*
X019138Y005763D03*
X019345Y005553D03*
D137*
X019143Y005728D03*
X018635Y005618D03*
X018500Y005798D03*
X018500Y005801D03*
X018500Y005803D03*
X018300Y005591D03*
X018298Y005588D03*
X018295Y005586D03*
X017935Y005788D03*
X017935Y005791D03*
X017930Y005783D03*
X017410Y006098D03*
X018215Y006308D03*
X020525Y007301D03*
X020525Y007303D03*
D138*
X018215Y006311D03*
X017375Y006116D03*
X017348Y006131D03*
X017348Y006133D03*
X017938Y005793D03*
X017945Y005803D03*
X018303Y005593D03*
X018330Y005621D03*
X018500Y005788D03*
X018638Y005621D03*
X019478Y006153D03*
X017323Y006561D03*
X017315Y006563D03*
D139*
X017357Y006126D03*
X017359Y006123D03*
X017379Y006113D03*
X017937Y005796D03*
X018304Y005596D03*
X018499Y005783D03*
X018499Y005786D03*
X018639Y005623D03*
X019142Y005716D03*
X019142Y005718D03*
X020524Y007298D03*
D140*
X020512Y007286D03*
X020509Y007283D03*
X017352Y006551D03*
X017334Y006556D03*
X019144Y005706D03*
X018639Y005631D03*
X018312Y005608D03*
D141*
X018495Y005761D03*
X018640Y005636D03*
X019145Y005698D03*
X017375Y006543D03*
X017360Y006548D03*
X020500Y007276D03*
D142*
X019479Y006136D03*
X019147Y005691D03*
X019147Y005688D03*
X018642Y005641D03*
X018492Y005741D03*
X018492Y005743D03*
X018492Y005746D03*
D143*
X018493Y005738D03*
X018493Y005736D03*
X018643Y005643D03*
X018203Y006318D03*
X019480Y006133D03*
X019480Y006131D03*
D144*
X019482Y006128D03*
X018642Y005646D03*
X018202Y006321D03*
X017382Y006541D03*
D145*
X018492Y005733D03*
X018642Y005651D03*
X019484Y006123D03*
D146*
X019485Y006113D03*
X019485Y006111D03*
X018643Y005658D03*
X018488Y005723D03*
X018200Y006323D03*
X017388Y006538D03*
D147*
X018645Y005663D03*
D148*
X018644Y005666D03*
X018197Y006326D03*
X019487Y006106D03*
D149*
X018645Y005673D03*
X018645Y005671D03*
X018645Y005668D03*
D150*
X018173Y006333D03*
X018170Y006336D03*
X017663Y006468D03*
X017620Y006478D03*
X017580Y006488D03*
D151*
X018164Y006338D03*
D152*
X018159Y006341D03*
D153*
X018155Y006343D03*
D154*
X018150Y006346D03*
X017735Y006448D03*
D155*
X018144Y006348D03*
D156*
X018122Y006356D03*
X017872Y006421D03*
D157*
X018105Y006361D03*
D158*
X018102Y006363D03*
X018092Y006366D03*
X017927Y006411D03*
D159*
X017980Y006398D03*
X018000Y006393D03*
X018023Y006388D03*
X018040Y006383D03*
X018053Y006378D03*
X018075Y006371D03*
D160*
X018072Y006373D03*
D161*
X018057Y006376D03*
X018052Y006381D03*
X017962Y006403D03*
D162*
X017913Y006413D03*
X018028Y006386D03*
D163*
X018008Y006391D03*
X017973Y006401D03*
D164*
X017993Y006396D03*
D165*
X017952Y006406D03*
D166*
X017947Y006408D03*
X017902Y006416D03*
D167*
X017862Y006423D03*
X017827Y006428D03*
D168*
X017794Y006436D03*
D169*
X017759Y006443D03*
D170*
X017748Y006446D03*
D171*
X017695Y006458D03*
X017670Y006466D03*
D172*
X017635Y006476D03*
X017608Y006483D03*
X017523Y006501D03*
D173*
X017554Y006496D03*
X017569Y006491D03*
D174*
X017543Y006498D03*
X017498Y006508D03*
X017490Y006511D03*
X017485Y006513D03*
X017465Y006518D03*
D175*
X017427Y006528D03*
X017404Y006533D03*
D176*
X017398Y006536D03*
D177*
X018277Y003277D03*
X018277Y003267D03*
X018277Y003257D03*
X018277Y003247D03*
X018277Y003237D03*
X018277Y003227D03*
X018277Y003217D03*
X018277Y003207D03*
X018277Y003197D03*
X018277Y003187D03*
X018277Y003177D03*
X018277Y003167D03*
X018277Y003157D03*
X018277Y003147D03*
X018277Y003137D03*
X018277Y003127D03*
X018277Y003117D03*
X018277Y003107D03*
X018277Y003077D03*
X018277Y003067D03*
X018277Y003057D03*
X018277Y003047D03*
X018277Y003037D03*
X018277Y003027D03*
X018277Y003017D03*
X018277Y003007D03*
X018277Y002997D03*
X018277Y002987D03*
X018277Y002977D03*
X018277Y002967D03*
X018277Y002957D03*
X018277Y002947D03*
X018277Y002937D03*
X018277Y002927D03*
X018277Y002917D03*
X018277Y002907D03*
X018417Y002917D03*
X018417Y002927D03*
X018417Y002937D03*
X018417Y002947D03*
X018417Y002957D03*
X018417Y002967D03*
X018417Y002977D03*
X018417Y002987D03*
X018417Y002997D03*
X018417Y003007D03*
X018417Y003017D03*
X018417Y003027D03*
X018417Y003037D03*
X018417Y003047D03*
X018417Y003057D03*
X018417Y003067D03*
X018417Y003077D03*
X018417Y003087D03*
X018417Y003097D03*
X018417Y003107D03*
X018417Y003117D03*
X018417Y003127D03*
X018417Y003137D03*
X018617Y003137D03*
X018617Y003127D03*
X018617Y003117D03*
X018617Y003107D03*
X018617Y003097D03*
X018617Y003087D03*
X018617Y003077D03*
X018617Y003067D03*
X018617Y003057D03*
X018617Y003047D03*
X018617Y003037D03*
X018617Y003027D03*
X018617Y003017D03*
X018617Y003007D03*
X018617Y002997D03*
X018617Y002987D03*
X018617Y002977D03*
X018617Y002967D03*
X018617Y002957D03*
X018617Y002947D03*
X018617Y002937D03*
X018617Y002927D03*
X018607Y002907D03*
X018607Y002897D03*
X018757Y002897D03*
X018757Y002887D03*
X018757Y002877D03*
X018757Y002867D03*
X018757Y002857D03*
X018757Y002847D03*
X018757Y002907D03*
X018757Y002917D03*
X018757Y002927D03*
X018757Y002937D03*
X018757Y002947D03*
X018757Y002957D03*
X018757Y002967D03*
X018757Y002977D03*
X018757Y002987D03*
X018757Y002997D03*
X018757Y003007D03*
X018757Y003017D03*
X018757Y003027D03*
X018757Y003037D03*
X018757Y003047D03*
X018757Y003057D03*
X018757Y003067D03*
X018767Y003087D03*
X018767Y003097D03*
X018947Y003107D03*
X018947Y003117D03*
X018947Y003127D03*
X018947Y003137D03*
X018947Y003147D03*
X018947Y003157D03*
X018947Y003167D03*
X018947Y003177D03*
X018947Y003187D03*
X018947Y003197D03*
X018947Y003207D03*
X018947Y003217D03*
X018947Y003227D03*
X018947Y003237D03*
X018947Y003247D03*
X018947Y003257D03*
X018947Y003267D03*
X018947Y003277D03*
X018947Y003077D03*
X018947Y003067D03*
X018947Y003057D03*
X018947Y003047D03*
X018947Y003037D03*
X018947Y003027D03*
X018947Y003017D03*
X018947Y003007D03*
X018947Y002997D03*
X018947Y002987D03*
X018947Y002977D03*
X018947Y002967D03*
X018947Y002957D03*
X018947Y002947D03*
X018947Y002937D03*
X018947Y002927D03*
X018947Y002917D03*
X018947Y002907D03*
X018947Y002897D03*
X018947Y002887D03*
X018947Y002877D03*
X018947Y002867D03*
X018947Y002857D03*
X018947Y002847D03*
X019147Y002887D03*
X019157Y002917D03*
X019157Y002927D03*
X019157Y002937D03*
X019157Y002947D03*
X019157Y002957D03*
X019157Y002967D03*
X019157Y002977D03*
X019157Y002987D03*
X019157Y002997D03*
X019157Y003007D03*
X019157Y003017D03*
X019157Y003027D03*
X019157Y003037D03*
X019157Y003047D03*
X019157Y003057D03*
X019157Y003067D03*
X019157Y003077D03*
X019157Y003087D03*
X019157Y003097D03*
X019327Y003097D03*
X019327Y003087D03*
X019327Y003077D03*
X019327Y003067D03*
X019327Y003057D03*
X019327Y003047D03*
X019327Y003037D03*
X019327Y003027D03*
X019327Y003017D03*
X019327Y003007D03*
X019327Y002997D03*
X019327Y002987D03*
X019327Y002977D03*
X019327Y002967D03*
X019327Y002957D03*
X019327Y002947D03*
X019327Y002937D03*
X019327Y002927D03*
X019327Y002917D03*
X019327Y002907D03*
X019327Y002897D03*
X019327Y002887D03*
X019327Y002877D03*
X019327Y002867D03*
X019327Y002857D03*
X019327Y002847D03*
X019437Y002847D03*
X019437Y002837D03*
X019447Y002857D03*
X019467Y002787D03*
X019557Y002747D03*
X019657Y002797D03*
X019637Y002917D03*
X019647Y003047D03*
X019647Y003057D03*
X019627Y003107D03*
X019477Y003097D03*
X019327Y003107D03*
X019327Y003117D03*
X019327Y003127D03*
X019327Y003137D03*
X019327Y003217D03*
X019327Y003257D03*
X020147Y003117D03*
X020147Y003077D03*
X020147Y002897D03*
X020147Y002857D03*
X020287Y002897D03*
X020297Y002887D03*
X020277Y002937D03*
X020277Y002947D03*
X020287Y002957D03*
X020417Y003037D03*
X020427Y003057D03*
X020427Y003067D03*
X020407Y003107D03*
X020537Y003067D03*
X020537Y003057D03*
X020547Y003087D03*
X020557Y003097D03*
X020527Y003017D03*
X020527Y003007D03*
X020527Y002997D03*
X020527Y002987D03*
X020537Y002947D03*
X020537Y002937D03*
X020547Y002917D03*
X020557Y002907D03*
X020737Y002907D03*
X020737Y002917D03*
X020737Y002927D03*
X020737Y002937D03*
X020737Y002947D03*
X020737Y002957D03*
X020737Y002967D03*
X020737Y002977D03*
X020737Y002987D03*
X020737Y002997D03*
X020737Y003007D03*
X020737Y003017D03*
X020737Y003027D03*
X020737Y003037D03*
X020737Y003047D03*
X020737Y003057D03*
X020737Y003067D03*
X020737Y003077D03*
X020737Y002877D03*
X020737Y002867D03*
X020737Y002857D03*
X020737Y002847D03*
X020737Y002837D03*
X020737Y002827D03*
X020737Y002817D03*
X020737Y002807D03*
X020737Y002797D03*
X020737Y002787D03*
X020737Y002777D03*
X020737Y002767D03*
X020737Y002757D03*
X020737Y002747D03*
X020937Y002887D03*
X020947Y002917D03*
X020947Y002927D03*
X020947Y002937D03*
X020947Y002947D03*
X020947Y002957D03*
X020947Y002967D03*
X020947Y002977D03*
X020947Y002987D03*
X020947Y002997D03*
X020947Y003007D03*
X020947Y003017D03*
X020947Y003027D03*
X020947Y003037D03*
X020947Y003047D03*
X020947Y003057D03*
X020947Y003067D03*
X020947Y003077D03*
X020947Y003087D03*
X020947Y003097D03*
X021177Y003097D03*
X021177Y003087D03*
X021177Y003077D03*
X021177Y003067D03*
X021177Y003057D03*
X021177Y003047D03*
X021177Y003037D03*
X021177Y003027D03*
X021177Y003017D03*
X021177Y003007D03*
X021177Y002997D03*
X021177Y002987D03*
X021177Y002977D03*
X021177Y002967D03*
X021177Y002957D03*
X021177Y002947D03*
X021177Y002937D03*
X021177Y002927D03*
X021177Y002917D03*
X021167Y002887D03*
X021327Y002887D03*
X021327Y002877D03*
X021327Y002867D03*
X021327Y002857D03*
X021327Y002847D03*
X021327Y002897D03*
X021327Y002907D03*
X021327Y002917D03*
X021327Y002927D03*
X021327Y002937D03*
X021327Y002947D03*
X021327Y002957D03*
X021327Y002967D03*
X021327Y002977D03*
X021327Y002987D03*
X021327Y002997D03*
X021327Y003007D03*
X021327Y003017D03*
X021327Y003027D03*
X021327Y003037D03*
X021327Y003047D03*
X021327Y003057D03*
X021327Y003067D03*
X021337Y003087D03*
X021337Y003097D03*
X021517Y003107D03*
X021517Y003117D03*
X021517Y003127D03*
X021517Y003137D03*
X021517Y003147D03*
X021517Y003157D03*
X021517Y003167D03*
X021517Y003177D03*
X021517Y003187D03*
X021517Y003197D03*
X021517Y003207D03*
X021517Y003217D03*
X021517Y003227D03*
X021517Y003237D03*
X021517Y003247D03*
X021517Y003257D03*
X021517Y003267D03*
X021517Y003277D03*
X021517Y003077D03*
X021517Y003067D03*
X021517Y003057D03*
X021517Y003047D03*
X021517Y003037D03*
X021517Y003027D03*
X021517Y003017D03*
X021517Y003007D03*
X021517Y002997D03*
X021517Y002987D03*
X021517Y002977D03*
X021517Y002967D03*
X021517Y002957D03*
X021517Y002947D03*
X021517Y002937D03*
X021517Y002927D03*
X021517Y002917D03*
X021517Y002907D03*
X021517Y002897D03*
X021517Y002887D03*
X021517Y002877D03*
X021517Y002867D03*
X021517Y002857D03*
X021517Y002847D03*
X018097Y002897D03*
X018087Y002907D03*
X018077Y002927D03*
X018067Y002957D03*
X018067Y002967D03*
X018067Y002977D03*
X018067Y002987D03*
X018067Y002997D03*
X018067Y003007D03*
X018067Y003017D03*
X018067Y003027D03*
X018067Y003037D03*
X018067Y003047D03*
X018077Y003067D03*
X018077Y003077D03*
X018087Y003087D03*
X017957Y002897D03*
X017957Y002857D03*
X017827Y002917D03*
X017837Y002937D03*
X017847Y002987D03*
X017847Y002997D03*
X017847Y003007D03*
X017837Y003057D03*
X017827Y003077D03*
X017817Y003087D03*
X017667Y003107D03*
X017557Y003057D03*
X017557Y003047D03*
X017547Y003077D03*
X017537Y003087D03*
X017527Y003097D03*
X017567Y003007D03*
X017567Y002997D03*
X017567Y002987D03*
X017557Y002947D03*
X017557Y002937D03*
X017547Y002917D03*
X017537Y002907D03*
X017527Y002897D03*
X017667Y002887D03*
X017367Y002897D03*
X017357Y002907D03*
X017347Y002917D03*
X017337Y002937D03*
X017337Y002947D03*
X017327Y002987D03*
X017327Y002997D03*
X017327Y003007D03*
X017337Y003047D03*
X017337Y003057D03*
X017347Y003077D03*
X017357Y003087D03*
X017367Y003097D03*
X017197Y003077D03*
X017197Y003067D03*
X017197Y003057D03*
X017197Y003047D03*
X017197Y003037D03*
X017197Y003027D03*
X017197Y003017D03*
X017197Y003007D03*
X017197Y002997D03*
X017197Y002987D03*
X017197Y002977D03*
X017197Y002967D03*
X017197Y002957D03*
X017197Y002947D03*
X017197Y002937D03*
X017197Y002927D03*
X017197Y002917D03*
X017197Y002907D03*
X017197Y002897D03*
X017197Y002887D03*
X017197Y002877D03*
X017197Y002867D03*
X017197Y002857D03*
X017197Y002847D03*
X017027Y002847D03*
X017027Y002857D03*
X017027Y002867D03*
X017027Y002877D03*
X017027Y002887D03*
X017027Y002897D03*
X017027Y002907D03*
X017027Y002917D03*
X017027Y002927D03*
X017027Y002937D03*
X017027Y002947D03*
X017027Y002957D03*
X017027Y002967D03*
X017027Y002977D03*
X017027Y002987D03*
X017027Y002997D03*
X017027Y003007D03*
X017027Y003017D03*
X017027Y003027D03*
X017027Y003037D03*
X017027Y003047D03*
X017027Y003057D03*
X017027Y003067D03*
X016857Y003087D03*
X016857Y003097D03*
X016847Y003067D03*
X016847Y003057D03*
X016847Y003047D03*
X016847Y003037D03*
X016847Y003027D03*
X016847Y003017D03*
X016847Y003007D03*
X016847Y002997D03*
X016847Y002987D03*
X016847Y002977D03*
X016847Y002967D03*
X016847Y002957D03*
X016847Y002947D03*
X016847Y002937D03*
X016847Y002927D03*
X016847Y002917D03*
X016847Y002907D03*
X016847Y002897D03*
X016847Y002887D03*
X016847Y002877D03*
X016847Y002867D03*
X016847Y002857D03*
X016847Y002847D03*
X016497Y002787D03*
X016487Y002807D03*
X016487Y002817D03*
X016487Y002827D03*
X016487Y002837D03*
X016487Y002847D03*
X016487Y002857D03*
X016487Y002867D03*
X016487Y002877D03*
X016487Y002887D03*
X016487Y002897D03*
X016487Y002907D03*
X016487Y002917D03*
X016487Y002927D03*
X016487Y002937D03*
X016487Y002947D03*
X016487Y002957D03*
X016487Y002967D03*
X016487Y002977D03*
X016487Y002987D03*
X016487Y002997D03*
X016487Y003007D03*
X016487Y003017D03*
X016487Y003027D03*
X016487Y003037D03*
X016487Y003047D03*
X016487Y003057D03*
X016487Y003067D03*
X016487Y003077D03*
X016487Y003087D03*
X016487Y003097D03*
X016487Y003107D03*
X016487Y003117D03*
X016487Y003127D03*
X016487Y003137D03*
X016487Y003217D03*
X016487Y003257D03*
X016337Y003097D03*
X016327Y002967D03*
X016357Y002927D03*
X016357Y002917D03*
X016357Y002907D03*
X016347Y002887D03*
X016237Y002877D03*
X016167Y002917D03*
X016167Y002927D03*
X016167Y002937D03*
X016167Y002947D03*
X016167Y002957D03*
X016167Y002967D03*
X016167Y002977D03*
X016167Y003017D03*
X016167Y003027D03*
X016167Y003037D03*
X016167Y003047D03*
X016177Y003087D03*
X016187Y003097D03*
X016027Y003077D03*
X016027Y003067D03*
X016027Y003057D03*
X016027Y003047D03*
X016027Y003037D03*
X016027Y003027D03*
X016027Y003017D03*
X016027Y003007D03*
X016027Y002997D03*
X016027Y002987D03*
X016027Y002977D03*
X016027Y002967D03*
X016027Y002957D03*
X016027Y002947D03*
X016027Y002937D03*
X016027Y002927D03*
X016027Y002917D03*
X016027Y002907D03*
X016027Y002897D03*
X016027Y002887D03*
X016027Y002877D03*
X016027Y002867D03*
X016027Y002857D03*
X016027Y002847D03*
X015837Y002847D03*
X015837Y002857D03*
X015837Y002867D03*
X015837Y002877D03*
X015837Y002887D03*
X015837Y002897D03*
X015837Y002907D03*
X015837Y002917D03*
X015837Y002927D03*
X015837Y002937D03*
X015837Y002947D03*
X015837Y002957D03*
X015837Y002967D03*
X015837Y002977D03*
X015837Y002987D03*
X015837Y002997D03*
X015837Y003007D03*
X015837Y003017D03*
X015837Y003027D03*
X015837Y003037D03*
X015837Y003047D03*
X015837Y003057D03*
X015837Y003067D03*
X015847Y003087D03*
X015847Y003097D03*
X015677Y003157D03*
X015667Y003167D03*
X015657Y003177D03*
X015567Y003177D03*
X015567Y003167D03*
X015567Y003157D03*
X015567Y003147D03*
X015567Y003137D03*
X015567Y003127D03*
X015567Y003117D03*
X015567Y003107D03*
X015567Y003097D03*
X015567Y003087D03*
X015567Y003077D03*
X015567Y003067D03*
X015567Y003057D03*
X015567Y003047D03*
X015567Y003037D03*
X015567Y003027D03*
X015567Y003017D03*
X015567Y003007D03*
X015567Y002997D03*
X015567Y002987D03*
X015567Y002977D03*
X015567Y002967D03*
X015567Y002957D03*
X015567Y002947D03*
X015567Y002937D03*
X015567Y002927D03*
X015567Y002917D03*
X015567Y002907D03*
X015567Y002897D03*
X015567Y002887D03*
X015357Y003037D03*
X015367Y003057D03*
X015367Y003067D03*
X015347Y003107D03*
X015227Y002957D03*
X015217Y002947D03*
X015217Y002937D03*
X015227Y002897D03*
X015237Y002887D03*
X015567Y003187D03*
X015567Y003197D03*
X015567Y003257D03*
D178*
X015562Y003267D03*
X015362Y003097D03*
X015362Y003087D03*
X015362Y003077D03*
X015362Y003047D03*
X015372Y002887D03*
X015222Y002907D03*
X015222Y002917D03*
X015222Y002927D03*
X015842Y003077D03*
X016032Y003107D03*
X016032Y003117D03*
X016032Y003127D03*
X016032Y003137D03*
X016172Y003077D03*
X016172Y003067D03*
X016172Y003057D03*
X016162Y002887D03*
X016162Y002877D03*
X016162Y002867D03*
X016162Y002857D03*
X016352Y002897D03*
X016352Y002937D03*
X016352Y002947D03*
X016342Y002957D03*
X016492Y002797D03*
X016552Y002747D03*
X016742Y002857D03*
X016722Y002907D03*
X016702Y002957D03*
X016682Y003007D03*
X016662Y003057D03*
X016652Y003087D03*
X016642Y003107D03*
X016632Y003137D03*
X016622Y003157D03*
X016612Y003187D03*
X016592Y003237D03*
X016852Y003077D03*
X016982Y003107D03*
X017042Y003097D03*
X017042Y003087D03*
X017052Y003107D03*
X017202Y003107D03*
X017202Y003117D03*
X017202Y003127D03*
X017202Y003137D03*
X017342Y003067D03*
X017332Y003037D03*
X017332Y003027D03*
X017332Y003017D03*
X017332Y002977D03*
X017332Y002967D03*
X017332Y002957D03*
X017342Y002927D03*
X017552Y002927D03*
X017562Y002957D03*
X017562Y002967D03*
X017562Y002977D03*
X017562Y003017D03*
X017562Y003027D03*
X017562Y003037D03*
X017552Y003067D03*
X017732Y003147D03*
X017832Y003067D03*
X017842Y003047D03*
X017842Y003037D03*
X017842Y003027D03*
X017842Y003017D03*
X017842Y002977D03*
X017842Y002967D03*
X017842Y002957D03*
X017842Y002947D03*
X017832Y002927D03*
X017822Y002907D03*
X017962Y002907D03*
X018072Y002937D03*
X018072Y002947D03*
X018082Y002917D03*
X018072Y003057D03*
X018282Y002877D03*
X018282Y002867D03*
X018282Y002857D03*
X018412Y002857D03*
X018412Y002867D03*
X018412Y002877D03*
X018412Y002887D03*
X018472Y002887D03*
X018612Y002917D03*
X018762Y003077D03*
X019152Y003137D03*
X019152Y003147D03*
X019152Y003157D03*
X019152Y003167D03*
X019152Y003177D03*
X019152Y003187D03*
X019152Y003197D03*
X019152Y003207D03*
X019472Y003087D03*
X019472Y003077D03*
X019462Y003057D03*
X019462Y003047D03*
X019472Y003027D03*
X019472Y003017D03*
X019482Y003007D03*
X019492Y002997D03*
X019622Y002997D03*
X019632Y003007D03*
X019642Y003017D03*
X019642Y003027D03*
X019642Y003037D03*
X019642Y003067D03*
X019642Y003077D03*
X019642Y003087D03*
X019632Y003097D03*
X019732Y003157D03*
X019742Y003137D03*
X019752Y003107D03*
X019762Y003087D03*
X019772Y003057D03*
X019792Y003007D03*
X019812Y002957D03*
X019832Y002907D03*
X019852Y002857D03*
X020012Y002907D03*
X020032Y002857D03*
X019992Y002957D03*
X019972Y003007D03*
X019952Y003057D03*
X019942Y003087D03*
X019932Y003107D03*
X019922Y003137D03*
X019912Y003157D03*
X019902Y003187D03*
X019882Y003237D03*
X019722Y003187D03*
X019702Y003237D03*
X019642Y002927D03*
X019652Y002857D03*
X019662Y002837D03*
X019662Y002827D03*
X019662Y002817D03*
X019662Y002807D03*
X019452Y002797D03*
X019442Y002807D03*
X019442Y002817D03*
X019442Y002827D03*
X019152Y002897D03*
X019152Y002907D03*
X020282Y002907D03*
X020282Y002917D03*
X020282Y002927D03*
X020432Y002887D03*
X020542Y002927D03*
X020532Y002957D03*
X020532Y002967D03*
X020532Y002977D03*
X020532Y003027D03*
X020532Y003037D03*
X020532Y003047D03*
X020542Y003077D03*
X020422Y003077D03*
X020422Y003087D03*
X020422Y003097D03*
X020422Y003047D03*
X020742Y003107D03*
X020742Y003117D03*
X020742Y003127D03*
X020742Y003137D03*
X020942Y003137D03*
X020942Y003147D03*
X020942Y003157D03*
X020942Y003167D03*
X020942Y003177D03*
X020942Y003187D03*
X020942Y003197D03*
X020942Y003207D03*
X021172Y003207D03*
X021172Y003197D03*
X021172Y003187D03*
X021172Y003177D03*
X021172Y003167D03*
X021172Y003157D03*
X021172Y003147D03*
X021172Y003137D03*
X021332Y003077D03*
X021172Y002907D03*
X021172Y002897D03*
X020942Y002897D03*
X020942Y002907D03*
D179*
X020897Y002877D03*
X021127Y002877D03*
X020627Y002867D03*
X020617Y003127D03*
X020347Y003127D03*
X019557Y002977D03*
X019477Y003117D03*
X019107Y002877D03*
X019557Y002757D03*
X018537Y002867D03*
X018167Y002867D03*
X018157Y003127D03*
X017097Y003117D03*
X016287Y002867D03*
X015287Y003127D03*
D180*
X015247Y002977D03*
X015577Y003237D03*
X016017Y003097D03*
X016177Y003007D03*
X016177Y002897D03*
X016327Y003107D03*
X016487Y003237D03*
X017187Y003097D03*
X016537Y002757D03*
X017957Y002877D03*
X018937Y003097D03*
X019327Y003237D03*
X019607Y003117D03*
X019457Y002867D03*
X020147Y002877D03*
X020307Y002977D03*
X020147Y003097D03*
X020727Y003097D03*
X021507Y003097D03*
D181*
X021152Y003107D03*
X021152Y003117D03*
X021152Y003127D03*
X020922Y003127D03*
X020922Y003117D03*
X020922Y003107D03*
X019562Y002767D03*
X019132Y003107D03*
X019132Y003117D03*
X019132Y003127D03*
X017732Y003117D03*
X016232Y002987D03*
D182*
X016532Y002767D03*
X017092Y003137D03*
X018262Y003097D03*
X018262Y002887D03*
X018432Y002897D03*
X020412Y002877D03*
X020722Y002887D03*
X015582Y003227D03*
X015352Y002877D03*
D183*
X019557Y002777D03*
D184*
X019607Y002907D03*
X019107Y002857D03*
X018827Y003137D03*
X018167Y002857D03*
X016527Y002777D03*
X016297Y002977D03*
X015907Y003137D03*
X015327Y003017D03*
X015267Y002987D03*
X015287Y003137D03*
X020327Y002987D03*
X020387Y003017D03*
X020347Y003137D03*
X020617Y003137D03*
X020897Y002857D03*
X021127Y002857D03*
X021397Y003137D03*
D185*
X021352Y003107D03*
X021512Y003087D03*
X020732Y003087D03*
X020562Y003107D03*
X020402Y003027D03*
X020292Y002967D03*
X020312Y002877D03*
X020142Y002867D03*
X020142Y002887D03*
X020142Y003087D03*
X020142Y003107D03*
X020562Y002897D03*
X020572Y002887D03*
X020732Y002897D03*
X019642Y002787D03*
X018942Y003087D03*
X018782Y003107D03*
X018592Y002887D03*
X018422Y002907D03*
X018272Y002897D03*
X018112Y002887D03*
X017962Y002887D03*
X017962Y002867D03*
X017812Y002897D03*
X017802Y002887D03*
X017812Y003097D03*
X017802Y003107D03*
X017522Y003107D03*
X017372Y003107D03*
X017192Y003087D03*
X017022Y003077D03*
X016872Y003107D03*
X016482Y003227D03*
X016482Y003247D03*
X016192Y003107D03*
X016022Y003087D03*
X015862Y003107D03*
X015642Y003187D03*
X015632Y003197D03*
X015572Y003247D03*
X015342Y003027D03*
X015232Y002967D03*
X015252Y002877D03*
X016172Y002907D03*
X016332Y002877D03*
X017372Y002887D03*
X017522Y002887D03*
X018092Y003097D03*
X018102Y003107D03*
X018272Y003087D03*
X019322Y003227D03*
X019322Y003247D03*
D186*
X019327Y003207D03*
X019557Y003147D03*
X019677Y003277D03*
X019857Y003277D03*
X020147Y003067D03*
X020277Y003097D03*
X020147Y002847D03*
X020057Y002817D03*
X019877Y002817D03*
X017957Y002847D03*
X017657Y002907D03*
X016767Y002817D03*
X016487Y003207D03*
X016567Y003277D03*
X015677Y003137D03*
X015217Y003097D03*
D187*
X015227Y003107D03*
X015287Y003147D03*
X015677Y003147D03*
X015907Y003147D03*
X015977Y003107D03*
X016247Y003147D03*
X016217Y002887D03*
X016157Y002847D03*
X016297Y002847D03*
X016687Y002987D03*
X016687Y002997D03*
X016697Y002977D03*
X016697Y002967D03*
X016707Y002947D03*
X016707Y002937D03*
X016717Y002927D03*
X016717Y002917D03*
X016727Y002897D03*
X016727Y002887D03*
X016737Y002877D03*
X016737Y002867D03*
X016747Y002847D03*
X016747Y002837D03*
X016757Y002827D03*
X016677Y003017D03*
X016677Y003027D03*
X016667Y003037D03*
X016667Y003047D03*
X016657Y003067D03*
X016657Y003077D03*
X016647Y003097D03*
X016637Y003117D03*
X016637Y003127D03*
X016627Y003147D03*
X016617Y003167D03*
X016617Y003177D03*
X016607Y003197D03*
X016607Y003207D03*
X016597Y003217D03*
X016597Y003227D03*
X016587Y003247D03*
X016587Y003257D03*
X016577Y003267D03*
X016487Y003267D03*
X016917Y003147D03*
X016997Y003097D03*
X017157Y003107D03*
X017447Y003147D03*
X017447Y002847D03*
X017657Y002897D03*
X017737Y002847D03*
X018167Y002847D03*
X018287Y002847D03*
X018407Y002847D03*
X018547Y002847D03*
X018827Y003147D03*
X018897Y003107D03*
X019147Y003217D03*
X019147Y003227D03*
X019147Y003237D03*
X019327Y003267D03*
X019467Y003067D03*
X019467Y003037D03*
X019627Y002957D03*
X019637Y002947D03*
X019637Y002937D03*
X019637Y002867D03*
X019657Y002847D03*
X019817Y002937D03*
X019817Y002947D03*
X019827Y002927D03*
X019827Y002917D03*
X019837Y002897D03*
X019837Y002887D03*
X019847Y002877D03*
X019847Y002867D03*
X019857Y002847D03*
X019857Y002837D03*
X019867Y002827D03*
X019807Y002967D03*
X019807Y002977D03*
X019797Y002987D03*
X019797Y002997D03*
X019787Y003017D03*
X019787Y003027D03*
X019777Y003037D03*
X019777Y003047D03*
X019767Y003067D03*
X019767Y003077D03*
X019757Y003097D03*
X019747Y003117D03*
X019747Y003127D03*
X019737Y003147D03*
X019727Y003167D03*
X019727Y003177D03*
X019717Y003197D03*
X019717Y003207D03*
X019707Y003217D03*
X019707Y003227D03*
X019697Y003247D03*
X019697Y003257D03*
X019687Y003267D03*
X019867Y003267D03*
X019877Y003257D03*
X019877Y003247D03*
X019887Y003227D03*
X019887Y003217D03*
X019897Y003207D03*
X019897Y003197D03*
X019907Y003177D03*
X019907Y003167D03*
X019917Y003147D03*
X019927Y003127D03*
X019927Y003117D03*
X019937Y003097D03*
X019947Y003077D03*
X019947Y003067D03*
X019957Y003047D03*
X019957Y003037D03*
X019967Y003027D03*
X019967Y003017D03*
X019977Y002997D03*
X019977Y002987D03*
X019987Y002977D03*
X019987Y002967D03*
X019997Y002947D03*
X019997Y002937D03*
X020007Y002927D03*
X020007Y002917D03*
X020017Y002897D03*
X020017Y002887D03*
X020027Y002877D03*
X020027Y002867D03*
X020037Y002847D03*
X020037Y002837D03*
X020047Y002827D03*
X020147Y002907D03*
X020147Y003127D03*
X020287Y003107D03*
X020347Y003147D03*
X020617Y003147D03*
X020687Y003107D03*
X020937Y003217D03*
X020937Y003227D03*
X020937Y003237D03*
X021167Y003237D03*
X021167Y003227D03*
X021167Y003217D03*
X021397Y003147D03*
X021467Y003107D03*
X021127Y002847D03*
X020897Y002847D03*
X019107Y002847D03*
X018227Y003107D03*
D188*
X018152Y003147D03*
X017662Y003097D03*
X017092Y003147D03*
X017002Y003087D03*
X016502Y003147D03*
X016342Y003087D03*
X015372Y002897D03*
X015302Y002847D03*
X019062Y002887D03*
X020362Y002847D03*
X020432Y002897D03*
X020632Y002847D03*
X020852Y002887D03*
X021082Y002887D03*
D189*
X019522Y003127D03*
X015572Y002877D03*
X015572Y002867D03*
X015572Y002857D03*
X015572Y002847D03*
D190*
X015302Y002857D03*
X015302Y003007D03*
X015592Y003217D03*
X016292Y002857D03*
X016922Y003137D03*
X017092Y003127D03*
X018152Y003137D03*
X018542Y002857D03*
X019462Y003107D03*
X019572Y002967D03*
X020362Y003007D03*
X020362Y002857D03*
X020632Y002857D03*
D191*
X020347Y002997D03*
X019557Y003137D03*
X017737Y003137D03*
X017737Y002857D03*
X017447Y002857D03*
X017447Y003137D03*
X016257Y003137D03*
X015597Y003207D03*
X015287Y002997D03*
D192*
X015912Y003127D03*
X016922Y003127D03*
X018832Y003127D03*
X019102Y002867D03*
X020892Y002867D03*
X021122Y002867D03*
X021402Y003127D03*
D193*
X021402Y003117D03*
X020362Y002867D03*
X018832Y003117D03*
X017732Y003127D03*
X016922Y003117D03*
X016212Y002997D03*
X015912Y003117D03*
X015302Y002867D03*
D194*
X016257Y003127D03*
X017447Y003127D03*
X017447Y002867D03*
X017737Y002867D03*
X018167Y002877D03*
X018157Y003117D03*
X018537Y002877D03*
X019557Y002987D03*
X020617Y003117D03*
X020627Y002877D03*
D195*
X019532Y002877D03*
D196*
X017737Y002877D03*
X016257Y003117D03*
D197*
X017447Y003117D03*
X017447Y002877D03*
X019537Y002887D03*
X019557Y002897D03*
D198*
X020342Y003117D03*
X015282Y003117D03*
D199*
X022133Y003129D02*
X022133Y002869D01*
X022433Y002819D01*
X022479Y002809D02*
X022922Y002809D01*
X022980Y002751D02*
X022496Y002751D01*
X022513Y002692D02*
X023039Y002692D01*
X023063Y002669D02*
X022863Y002869D01*
X022863Y003119D01*
X023013Y003369D01*
X023263Y003419D01*
X023563Y003319D01*
X023513Y003319D01*
X023663Y003069D01*
X023563Y002769D01*
X023463Y002669D01*
X023613Y002269D01*
X023713Y002319D01*
X023913Y002169D01*
X024063Y002319D01*
X023913Y002569D01*
X024013Y002819D01*
X024313Y002919D01*
X024313Y002869D01*
X024313Y003119D01*
X024013Y003169D01*
X023913Y003469D01*
X024113Y003669D01*
X023963Y003819D01*
X023663Y003669D01*
X023363Y003819D01*
X023413Y003819D01*
X023363Y004069D01*
X023113Y004069D01*
X023113Y003769D01*
X022813Y003669D01*
X022563Y003819D01*
X022413Y003719D01*
X022563Y003419D01*
X022463Y003169D01*
X022163Y003119D01*
X022163Y002869D01*
X022463Y002869D01*
X022563Y002519D01*
X022413Y002319D01*
X022563Y002169D01*
X022763Y002319D01*
X022863Y002269D01*
X023063Y002669D01*
X023083Y002679D02*
X022893Y002229D01*
X022793Y002289D01*
X022553Y002119D01*
X022363Y002309D01*
X022533Y002549D01*
X022546Y002575D02*
X023016Y002575D01*
X022987Y002517D02*
X022561Y002517D01*
X022518Y002458D02*
X022958Y002458D01*
X022928Y002400D02*
X022474Y002400D01*
X022430Y002341D02*
X022899Y002341D01*
X022870Y002283D02*
X022834Y002283D01*
X022715Y002283D02*
X022448Y002283D01*
X022507Y002224D02*
X022637Y002224D01*
X022530Y002634D02*
X023045Y002634D01*
X023403Y002679D02*
X023603Y002229D01*
X023703Y002289D01*
X023943Y002119D01*
X024123Y002309D01*
X023963Y002549D01*
X023944Y002517D02*
X023519Y002517D01*
X023498Y002575D02*
X023915Y002575D01*
X023939Y002634D02*
X023476Y002634D01*
X023487Y002692D02*
X023962Y002692D01*
X023986Y002751D02*
X023545Y002751D01*
X023576Y002809D02*
X024009Y002809D01*
X024063Y002819D02*
X024363Y002869D01*
X024363Y003129D01*
X024063Y003189D01*
X024061Y003160D02*
X023607Y003160D01*
X023643Y003102D02*
X024313Y003102D01*
X024313Y003043D02*
X023654Y003043D01*
X023635Y002985D02*
X024313Y002985D01*
X024313Y002926D02*
X023615Y002926D01*
X023596Y002868D02*
X024161Y002868D01*
X023996Y003219D02*
X023572Y003219D01*
X023537Y003277D02*
X023976Y003277D01*
X023957Y003336D02*
X023510Y003336D01*
X023335Y003394D02*
X023937Y003394D01*
X023953Y003439D02*
X024133Y003699D01*
X023943Y003879D01*
X023683Y003699D01*
X023699Y003687D02*
X024094Y003687D01*
X024073Y003628D02*
X022458Y003628D01*
X022487Y003570D02*
X024014Y003570D01*
X023956Y003511D02*
X022516Y003511D01*
X022545Y003453D02*
X023918Y003453D01*
X023626Y003687D02*
X022868Y003687D01*
X022813Y003699D02*
X022553Y003879D01*
X022363Y003699D01*
X022543Y003439D01*
X022553Y003394D02*
X023142Y003394D01*
X022993Y003336D02*
X022530Y003336D01*
X022506Y003277D02*
X022958Y003277D01*
X022923Y003219D02*
X022483Y003219D01*
X022433Y003189D02*
X022133Y003129D01*
X022163Y003102D02*
X022863Y003102D01*
X022863Y003043D02*
X022163Y003043D01*
X022163Y002985D02*
X022863Y002985D01*
X022863Y002926D02*
X022163Y002926D01*
X022463Y002868D02*
X022863Y002868D01*
X022888Y003160D02*
X022414Y003160D01*
X022434Y003189D02*
X022449Y003241D01*
X022468Y003292D01*
X022490Y003342D01*
X022515Y003390D01*
X022544Y003437D01*
X022428Y003687D02*
X022782Y003687D01*
X022684Y003745D02*
X022453Y003745D01*
X022541Y003804D02*
X022587Y003804D01*
X023043Y003745D02*
X023509Y003745D01*
X023433Y003799D02*
X023383Y004119D01*
X023113Y004119D01*
X023063Y003799D01*
X023113Y003804D02*
X023392Y003804D01*
X023404Y003862D02*
X023113Y003862D01*
X023113Y003921D02*
X023392Y003921D01*
X023380Y003979D02*
X023113Y003979D01*
X023113Y004038D02*
X023369Y004038D01*
X023816Y003745D02*
X024036Y003745D01*
X023977Y003804D02*
X023933Y003804D01*
X023403Y002689D02*
X023436Y002707D01*
X023466Y002728D01*
X023495Y002752D01*
X023521Y002779D01*
X023543Y002808D01*
X023563Y002840D01*
X023580Y002873D01*
X023593Y002908D01*
X023602Y002944D01*
X023608Y002981D01*
X023610Y003018D01*
X023608Y003055D01*
X023603Y003092D01*
X023593Y003128D01*
X023581Y003163D01*
X023564Y003197D01*
X023545Y003228D01*
X023522Y003258D01*
X023496Y003285D01*
X023468Y003309D01*
X023437Y003330D01*
X023405Y003348D01*
X023371Y003363D01*
X023335Y003374D01*
X023299Y003382D01*
X023262Y003386D01*
X023224Y003386D01*
X023187Y003382D01*
X023151Y003374D01*
X023115Y003363D01*
X023081Y003348D01*
X023049Y003330D01*
X023018Y003309D01*
X022990Y003285D01*
X022964Y003258D01*
X022941Y003228D01*
X022922Y003197D01*
X022905Y003163D01*
X022893Y003128D01*
X022883Y003092D01*
X022878Y003055D01*
X022876Y003018D01*
X022878Y002981D01*
X022884Y002944D01*
X022893Y002908D01*
X022906Y002873D01*
X022923Y002840D01*
X022943Y002808D01*
X022965Y002779D01*
X022991Y002752D01*
X023020Y002728D01*
X023050Y002707D01*
X023083Y002689D01*
X022532Y002548D02*
X022509Y002589D01*
X022488Y002632D01*
X022470Y002677D01*
X022455Y002722D01*
X022442Y002768D01*
X022432Y002815D01*
X022809Y003700D02*
X022856Y003727D01*
X022905Y003750D01*
X022955Y003770D01*
X023006Y003787D01*
X023058Y003801D01*
X023440Y003799D02*
X023490Y003786D01*
X023539Y003769D01*
X023587Y003750D01*
X023634Y003727D01*
X023679Y003702D01*
X023952Y003434D02*
X023979Y003387D01*
X024003Y003340D01*
X024024Y003291D01*
X024042Y003240D01*
X024056Y003189D01*
X024062Y002817D02*
X024049Y002761D01*
X024032Y002706D01*
X024011Y002653D01*
X023987Y002601D01*
X023959Y002551D01*
X023979Y002458D02*
X023541Y002458D01*
X023563Y002400D02*
X024014Y002400D01*
X024049Y002341D02*
X023585Y002341D01*
X023607Y002283D02*
X023641Y002283D01*
X023760Y002283D02*
X024027Y002283D01*
X023969Y002224D02*
X023838Y002224D01*
M02*
