G75*
G70*
%OFA0B0*%
%FSLAX24Y24*%
%IPPOS*%
%LPD*%
%AMOC8*
5,1,8,0,0,1.08239X$1,22.5*
%
%ADD10C,0.0000*%
%ADD11R,0.0433X0.0394*%
%ADD12R,0.1024X0.1476*%
%ADD13R,0.1024X0.1378*%
%ADD14R,0.0394X0.0433*%
%ADD15R,0.0315X0.0315*%
%ADD16R,0.0787X0.0984*%
%ADD17R,0.0787X0.1299*%
%ADD18R,0.0197X0.1220*%
%ADD19R,0.0472X0.0217*%
%ADD20R,0.1181X0.1181*%
%ADD21R,0.0236X0.0866*%
%ADD22R,0.0394X0.0551*%
%ADD23R,0.0630X0.0710*%
%ADD24C,0.0787*%
%ADD25R,0.0906X0.0984*%
%ADD26R,0.2165X0.0728*%
%ADD27R,0.0630X0.1063*%
%ADD28R,0.0787X0.0630*%
%ADD29R,0.0709X0.0433*%
%ADD30R,0.0118X0.0472*%
%ADD31R,0.0472X0.0118*%
%ADD32C,0.0660*%
%ADD33R,0.0236X0.0472*%
%ADD34R,0.0472X0.0236*%
%ADD35R,0.1102X0.0591*%
%ADD36R,0.0787X0.0945*%
%ADD37R,0.0217X0.0472*%
%ADD38R,0.0394X0.0709*%
%ADD39R,0.0400X0.1300*%
%ADD40R,0.0860X0.0420*%
%ADD41C,0.0100*%
%ADD42C,0.0246*%
%ADD43C,0.0120*%
%ADD44C,0.0160*%
%ADD45C,0.0500*%
%ADD46C,0.0240*%
%ADD47C,0.0320*%
D10*
X001725Y000937D02*
X037945Y000937D01*
X037315Y002512D02*
X037317Y002562D01*
X037323Y002612D01*
X037333Y002661D01*
X037347Y002709D01*
X037364Y002756D01*
X037385Y002801D01*
X037410Y002845D01*
X037438Y002886D01*
X037470Y002925D01*
X037504Y002962D01*
X037541Y002996D01*
X037581Y003026D01*
X037623Y003053D01*
X037667Y003077D01*
X037713Y003098D01*
X037760Y003114D01*
X037808Y003127D01*
X037858Y003136D01*
X037907Y003141D01*
X037958Y003142D01*
X038008Y003139D01*
X038057Y003132D01*
X038106Y003121D01*
X038154Y003106D01*
X038200Y003088D01*
X038245Y003066D01*
X038288Y003040D01*
X038329Y003011D01*
X038368Y002979D01*
X038404Y002944D01*
X038436Y002906D01*
X038466Y002866D01*
X038493Y002823D01*
X038516Y002779D01*
X038535Y002733D01*
X038551Y002685D01*
X038563Y002636D01*
X038571Y002587D01*
X038575Y002537D01*
X038575Y002487D01*
X038571Y002437D01*
X038563Y002388D01*
X038551Y002339D01*
X038535Y002291D01*
X038516Y002245D01*
X038493Y002201D01*
X038466Y002158D01*
X038436Y002118D01*
X038404Y002080D01*
X038368Y002045D01*
X038329Y002013D01*
X038288Y001984D01*
X038245Y001958D01*
X038200Y001936D01*
X038154Y001918D01*
X038106Y001903D01*
X038057Y001892D01*
X038008Y001885D01*
X037958Y001882D01*
X037907Y001883D01*
X037858Y001888D01*
X037808Y001897D01*
X037760Y001910D01*
X037713Y001926D01*
X037667Y001947D01*
X037623Y001971D01*
X037581Y001998D01*
X037541Y002028D01*
X037504Y002062D01*
X037470Y002099D01*
X037438Y002138D01*
X037410Y002179D01*
X037385Y002223D01*
X037364Y002268D01*
X037347Y002315D01*
X037333Y002363D01*
X037323Y002412D01*
X037317Y002462D01*
X037315Y002512D01*
X037945Y000937D02*
X038022Y000939D01*
X038099Y000945D01*
X038176Y000954D01*
X038252Y000967D01*
X038328Y000984D01*
X038402Y001005D01*
X038476Y001029D01*
X038548Y001057D01*
X038618Y001088D01*
X038687Y001123D01*
X038755Y001161D01*
X038820Y001202D01*
X038883Y001247D01*
X038944Y001295D01*
X039003Y001345D01*
X039059Y001398D01*
X039112Y001454D01*
X039162Y001513D01*
X039210Y001574D01*
X039255Y001637D01*
X039296Y001702D01*
X039334Y001770D01*
X039369Y001839D01*
X039400Y001909D01*
X039428Y001981D01*
X039452Y002055D01*
X039473Y002129D01*
X039490Y002205D01*
X039503Y002281D01*
X039512Y002358D01*
X039518Y002435D01*
X039520Y002512D01*
X039520Y015898D01*
X037315Y015898D02*
X037317Y015948D01*
X037323Y015998D01*
X037333Y016047D01*
X037347Y016095D01*
X037364Y016142D01*
X037385Y016187D01*
X037410Y016231D01*
X037438Y016272D01*
X037470Y016311D01*
X037504Y016348D01*
X037541Y016382D01*
X037581Y016412D01*
X037623Y016439D01*
X037667Y016463D01*
X037713Y016484D01*
X037760Y016500D01*
X037808Y016513D01*
X037858Y016522D01*
X037907Y016527D01*
X037958Y016528D01*
X038008Y016525D01*
X038057Y016518D01*
X038106Y016507D01*
X038154Y016492D01*
X038200Y016474D01*
X038245Y016452D01*
X038288Y016426D01*
X038329Y016397D01*
X038368Y016365D01*
X038404Y016330D01*
X038436Y016292D01*
X038466Y016252D01*
X038493Y016209D01*
X038516Y016165D01*
X038535Y016119D01*
X038551Y016071D01*
X038563Y016022D01*
X038571Y015973D01*
X038575Y015923D01*
X038575Y015873D01*
X038571Y015823D01*
X038563Y015774D01*
X038551Y015725D01*
X038535Y015677D01*
X038516Y015631D01*
X038493Y015587D01*
X038466Y015544D01*
X038436Y015504D01*
X038404Y015466D01*
X038368Y015431D01*
X038329Y015399D01*
X038288Y015370D01*
X038245Y015344D01*
X038200Y015322D01*
X038154Y015304D01*
X038106Y015289D01*
X038057Y015278D01*
X038008Y015271D01*
X037958Y015268D01*
X037907Y015269D01*
X037858Y015274D01*
X037808Y015283D01*
X037760Y015296D01*
X037713Y015312D01*
X037667Y015333D01*
X037623Y015357D01*
X037581Y015384D01*
X037541Y015414D01*
X037504Y015448D01*
X037470Y015485D01*
X037438Y015524D01*
X037410Y015565D01*
X037385Y015609D01*
X037364Y015654D01*
X037347Y015701D01*
X037333Y015749D01*
X037323Y015798D01*
X037317Y015848D01*
X037315Y015898D01*
X037945Y017473D02*
X038022Y017471D01*
X038099Y017465D01*
X038176Y017456D01*
X038252Y017443D01*
X038328Y017426D01*
X038402Y017405D01*
X038476Y017381D01*
X038548Y017353D01*
X038618Y017322D01*
X038687Y017287D01*
X038755Y017249D01*
X038820Y017208D01*
X038883Y017163D01*
X038944Y017115D01*
X039003Y017065D01*
X039059Y017012D01*
X039112Y016956D01*
X039162Y016897D01*
X039210Y016836D01*
X039255Y016773D01*
X039296Y016708D01*
X039334Y016640D01*
X039369Y016571D01*
X039400Y016501D01*
X039428Y016429D01*
X039452Y016355D01*
X039473Y016281D01*
X039490Y016205D01*
X039503Y016129D01*
X039512Y016052D01*
X039518Y015975D01*
X039520Y015898D01*
X037945Y017473D02*
X001725Y017473D01*
X001095Y015898D02*
X001097Y015948D01*
X001103Y015998D01*
X001113Y016047D01*
X001127Y016095D01*
X001144Y016142D01*
X001165Y016187D01*
X001190Y016231D01*
X001218Y016272D01*
X001250Y016311D01*
X001284Y016348D01*
X001321Y016382D01*
X001361Y016412D01*
X001403Y016439D01*
X001447Y016463D01*
X001493Y016484D01*
X001540Y016500D01*
X001588Y016513D01*
X001638Y016522D01*
X001687Y016527D01*
X001738Y016528D01*
X001788Y016525D01*
X001837Y016518D01*
X001886Y016507D01*
X001934Y016492D01*
X001980Y016474D01*
X002025Y016452D01*
X002068Y016426D01*
X002109Y016397D01*
X002148Y016365D01*
X002184Y016330D01*
X002216Y016292D01*
X002246Y016252D01*
X002273Y016209D01*
X002296Y016165D01*
X002315Y016119D01*
X002331Y016071D01*
X002343Y016022D01*
X002351Y015973D01*
X002355Y015923D01*
X002355Y015873D01*
X002351Y015823D01*
X002343Y015774D01*
X002331Y015725D01*
X002315Y015677D01*
X002296Y015631D01*
X002273Y015587D01*
X002246Y015544D01*
X002216Y015504D01*
X002184Y015466D01*
X002148Y015431D01*
X002109Y015399D01*
X002068Y015370D01*
X002025Y015344D01*
X001980Y015322D01*
X001934Y015304D01*
X001886Y015289D01*
X001837Y015278D01*
X001788Y015271D01*
X001738Y015268D01*
X001687Y015269D01*
X001638Y015274D01*
X001588Y015283D01*
X001540Y015296D01*
X001493Y015312D01*
X001447Y015333D01*
X001403Y015357D01*
X001361Y015384D01*
X001321Y015414D01*
X001284Y015448D01*
X001250Y015485D01*
X001218Y015524D01*
X001190Y015565D01*
X001165Y015609D01*
X001144Y015654D01*
X001127Y015701D01*
X001113Y015749D01*
X001103Y015798D01*
X001097Y015848D01*
X001095Y015898D01*
X000150Y015898D02*
X000152Y015975D01*
X000158Y016052D01*
X000167Y016129D01*
X000180Y016205D01*
X000197Y016281D01*
X000218Y016355D01*
X000242Y016429D01*
X000270Y016501D01*
X000301Y016571D01*
X000336Y016640D01*
X000374Y016708D01*
X000415Y016773D01*
X000460Y016836D01*
X000508Y016897D01*
X000558Y016956D01*
X000611Y017012D01*
X000667Y017065D01*
X000726Y017115D01*
X000787Y017163D01*
X000850Y017208D01*
X000915Y017249D01*
X000983Y017287D01*
X001052Y017322D01*
X001122Y017353D01*
X001194Y017381D01*
X001268Y017405D01*
X001342Y017426D01*
X001418Y017443D01*
X001494Y017456D01*
X001571Y017465D01*
X001648Y017471D01*
X001725Y017473D01*
X000150Y015898D02*
X000150Y002512D01*
X001095Y002512D02*
X001097Y002562D01*
X001103Y002612D01*
X001113Y002661D01*
X001127Y002709D01*
X001144Y002756D01*
X001165Y002801D01*
X001190Y002845D01*
X001218Y002886D01*
X001250Y002925D01*
X001284Y002962D01*
X001321Y002996D01*
X001361Y003026D01*
X001403Y003053D01*
X001447Y003077D01*
X001493Y003098D01*
X001540Y003114D01*
X001588Y003127D01*
X001638Y003136D01*
X001687Y003141D01*
X001738Y003142D01*
X001788Y003139D01*
X001837Y003132D01*
X001886Y003121D01*
X001934Y003106D01*
X001980Y003088D01*
X002025Y003066D01*
X002068Y003040D01*
X002109Y003011D01*
X002148Y002979D01*
X002184Y002944D01*
X002216Y002906D01*
X002246Y002866D01*
X002273Y002823D01*
X002296Y002779D01*
X002315Y002733D01*
X002331Y002685D01*
X002343Y002636D01*
X002351Y002587D01*
X002355Y002537D01*
X002355Y002487D01*
X002351Y002437D01*
X002343Y002388D01*
X002331Y002339D01*
X002315Y002291D01*
X002296Y002245D01*
X002273Y002201D01*
X002246Y002158D01*
X002216Y002118D01*
X002184Y002080D01*
X002148Y002045D01*
X002109Y002013D01*
X002068Y001984D01*
X002025Y001958D01*
X001980Y001936D01*
X001934Y001918D01*
X001886Y001903D01*
X001837Y001892D01*
X001788Y001885D01*
X001738Y001882D01*
X001687Y001883D01*
X001638Y001888D01*
X001588Y001897D01*
X001540Y001910D01*
X001493Y001926D01*
X001447Y001947D01*
X001403Y001971D01*
X001361Y001998D01*
X001321Y002028D01*
X001284Y002062D01*
X001250Y002099D01*
X001218Y002138D01*
X001190Y002179D01*
X001165Y002223D01*
X001144Y002268D01*
X001127Y002315D01*
X001113Y002363D01*
X001103Y002412D01*
X001097Y002462D01*
X001095Y002512D01*
X000150Y002512D02*
X000152Y002435D01*
X000158Y002358D01*
X000167Y002281D01*
X000180Y002205D01*
X000197Y002129D01*
X000218Y002055D01*
X000242Y001981D01*
X000270Y001909D01*
X000301Y001839D01*
X000336Y001770D01*
X000374Y001702D01*
X000415Y001637D01*
X000460Y001574D01*
X000508Y001513D01*
X000558Y001454D01*
X000611Y001398D01*
X000667Y001345D01*
X000726Y001295D01*
X000787Y001247D01*
X000850Y001202D01*
X000915Y001161D01*
X000983Y001123D01*
X001052Y001088D01*
X001122Y001057D01*
X001194Y001029D01*
X001268Y001005D01*
X001342Y000984D01*
X001418Y000967D01*
X001494Y000954D01*
X001571Y000945D01*
X001648Y000939D01*
X001725Y000937D01*
X023782Y010593D02*
X023784Y010620D01*
X023790Y010647D01*
X023799Y010673D01*
X023812Y010697D01*
X023828Y010720D01*
X023847Y010739D01*
X023869Y010756D01*
X023893Y010770D01*
X023918Y010780D01*
X023945Y010787D01*
X023972Y010790D01*
X024000Y010789D01*
X024027Y010784D01*
X024053Y010776D01*
X024077Y010764D01*
X024100Y010748D01*
X024121Y010730D01*
X024138Y010709D01*
X024153Y010685D01*
X024164Y010660D01*
X024172Y010634D01*
X024176Y010607D01*
X024176Y010579D01*
X024172Y010552D01*
X024164Y010526D01*
X024153Y010501D01*
X024138Y010477D01*
X024121Y010456D01*
X024100Y010438D01*
X024078Y010422D01*
X024053Y010410D01*
X024027Y010402D01*
X024000Y010397D01*
X023972Y010396D01*
X023945Y010399D01*
X023918Y010406D01*
X023893Y010416D01*
X023869Y010430D01*
X023847Y010447D01*
X023828Y010466D01*
X023812Y010489D01*
X023799Y010513D01*
X023790Y010539D01*
X023784Y010566D01*
X023782Y010593D01*
X025811Y012681D02*
X025813Y012712D01*
X025819Y012743D01*
X025828Y012773D01*
X025841Y012802D01*
X025858Y012829D01*
X025878Y012853D01*
X025900Y012875D01*
X025926Y012894D01*
X025953Y012910D01*
X025982Y012922D01*
X026012Y012931D01*
X026043Y012936D01*
X026075Y012937D01*
X026106Y012934D01*
X026137Y012927D01*
X026167Y012917D01*
X026195Y012903D01*
X026221Y012885D01*
X026245Y012865D01*
X026266Y012841D01*
X026285Y012816D01*
X026300Y012788D01*
X026311Y012759D01*
X026319Y012728D01*
X026323Y012697D01*
X026323Y012665D01*
X026319Y012634D01*
X026311Y012603D01*
X026300Y012574D01*
X026285Y012546D01*
X026266Y012521D01*
X026245Y012497D01*
X026221Y012477D01*
X026195Y012459D01*
X026167Y012445D01*
X026137Y012435D01*
X026106Y012428D01*
X026075Y012425D01*
X026043Y012426D01*
X026012Y012431D01*
X025982Y012440D01*
X025953Y012452D01*
X025926Y012468D01*
X025900Y012487D01*
X025878Y012509D01*
X025858Y012533D01*
X025841Y012560D01*
X025828Y012589D01*
X025819Y012619D01*
X025813Y012650D01*
X025811Y012681D01*
X027808Y004323D02*
X027810Y004357D01*
X027816Y004391D01*
X027826Y004424D01*
X027839Y004455D01*
X027857Y004485D01*
X027877Y004513D01*
X027901Y004538D01*
X027927Y004560D01*
X027955Y004578D01*
X027986Y004594D01*
X028018Y004606D01*
X028052Y004614D01*
X028086Y004618D01*
X028120Y004618D01*
X028154Y004614D01*
X028188Y004606D01*
X028220Y004594D01*
X028250Y004578D01*
X028279Y004560D01*
X028305Y004538D01*
X028329Y004513D01*
X028349Y004485D01*
X028367Y004455D01*
X028380Y004424D01*
X028390Y004391D01*
X028396Y004357D01*
X028398Y004323D01*
X028396Y004289D01*
X028390Y004255D01*
X028380Y004222D01*
X028367Y004191D01*
X028349Y004161D01*
X028329Y004133D01*
X028305Y004108D01*
X028279Y004086D01*
X028251Y004068D01*
X028220Y004052D01*
X028188Y004040D01*
X028154Y004032D01*
X028120Y004028D01*
X028086Y004028D01*
X028052Y004032D01*
X028018Y004040D01*
X027986Y004052D01*
X027955Y004068D01*
X027927Y004086D01*
X027901Y004108D01*
X027877Y004133D01*
X027857Y004161D01*
X027839Y004191D01*
X027826Y004222D01*
X027816Y004255D01*
X027810Y004289D01*
X027808Y004323D01*
X031390Y002807D02*
X031392Y002833D01*
X031398Y002859D01*
X031408Y002884D01*
X031421Y002907D01*
X031437Y002927D01*
X031457Y002945D01*
X031479Y002960D01*
X031502Y002972D01*
X031528Y002980D01*
X031554Y002984D01*
X031580Y002984D01*
X031606Y002980D01*
X031632Y002972D01*
X031656Y002960D01*
X031677Y002945D01*
X031697Y002927D01*
X031713Y002907D01*
X031726Y002884D01*
X031736Y002859D01*
X031742Y002833D01*
X031744Y002807D01*
X031742Y002781D01*
X031736Y002755D01*
X031726Y002730D01*
X031713Y002707D01*
X031697Y002687D01*
X031677Y002669D01*
X031655Y002654D01*
X031632Y002642D01*
X031606Y002634D01*
X031580Y002630D01*
X031554Y002630D01*
X031528Y002634D01*
X031502Y002642D01*
X031478Y002654D01*
X031457Y002669D01*
X031437Y002687D01*
X031421Y002707D01*
X031408Y002730D01*
X031398Y002755D01*
X031392Y002781D01*
X031390Y002807D01*
X033123Y002807D02*
X033125Y002833D01*
X033131Y002859D01*
X033141Y002884D01*
X033154Y002907D01*
X033170Y002927D01*
X033190Y002945D01*
X033212Y002960D01*
X033235Y002972D01*
X033261Y002980D01*
X033287Y002984D01*
X033313Y002984D01*
X033339Y002980D01*
X033365Y002972D01*
X033389Y002960D01*
X033410Y002945D01*
X033430Y002927D01*
X033446Y002907D01*
X033459Y002884D01*
X033469Y002859D01*
X033475Y002833D01*
X033477Y002807D01*
X033475Y002781D01*
X033469Y002755D01*
X033459Y002730D01*
X033446Y002707D01*
X033430Y002687D01*
X033410Y002669D01*
X033388Y002654D01*
X033365Y002642D01*
X033339Y002634D01*
X033313Y002630D01*
X033287Y002630D01*
X033261Y002634D01*
X033235Y002642D01*
X033211Y002654D01*
X033190Y002669D01*
X033170Y002687D01*
X033154Y002707D01*
X033141Y002730D01*
X033131Y002755D01*
X033125Y002781D01*
X033123Y002807D01*
X027808Y001567D02*
X027810Y001601D01*
X027816Y001635D01*
X027826Y001668D01*
X027839Y001699D01*
X027857Y001729D01*
X027877Y001757D01*
X027901Y001782D01*
X027927Y001804D01*
X027955Y001822D01*
X027986Y001838D01*
X028018Y001850D01*
X028052Y001858D01*
X028086Y001862D01*
X028120Y001862D01*
X028154Y001858D01*
X028188Y001850D01*
X028220Y001838D01*
X028250Y001822D01*
X028279Y001804D01*
X028305Y001782D01*
X028329Y001757D01*
X028349Y001729D01*
X028367Y001699D01*
X028380Y001668D01*
X028390Y001635D01*
X028396Y001601D01*
X028398Y001567D01*
X028396Y001533D01*
X028390Y001499D01*
X028380Y001466D01*
X028367Y001435D01*
X028349Y001405D01*
X028329Y001377D01*
X028305Y001352D01*
X028279Y001330D01*
X028251Y001312D01*
X028220Y001296D01*
X028188Y001284D01*
X028154Y001276D01*
X028120Y001272D01*
X028086Y001272D01*
X028052Y001276D01*
X028018Y001284D01*
X027986Y001296D01*
X027955Y001312D01*
X027927Y001330D01*
X027901Y001352D01*
X027877Y001377D01*
X027857Y001405D01*
X027839Y001435D01*
X027826Y001466D01*
X027816Y001499D01*
X027810Y001533D01*
X027808Y001567D01*
D11*
X032729Y005229D03*
X033319Y005229D03*
X033910Y005229D03*
X033910Y005898D03*
X033319Y005898D03*
X032729Y005898D03*
X031981Y006449D03*
X031311Y006449D03*
X031311Y007040D03*
X031981Y007040D03*
X031981Y008910D03*
X031311Y008910D03*
X030603Y009993D03*
X029933Y009993D03*
X034599Y009737D03*
X034599Y009067D03*
X034461Y013044D03*
X034461Y013536D03*
X035130Y013536D03*
X035130Y013044D03*
X030603Y013044D03*
X029933Y013044D03*
X030524Y015504D03*
X031193Y015504D03*
X031804Y015504D03*
X032473Y015504D03*
X019441Y013280D03*
X019441Y012611D03*
X019441Y012000D03*
X019441Y011331D03*
X007729Y014579D03*
X007729Y015248D03*
D12*
G36*
X023024Y010362D02*
X023748Y009638D01*
X022706Y008596D01*
X021982Y009320D01*
X023024Y010362D01*
G37*
D13*
G36*
X027514Y014852D02*
X028238Y014128D01*
X027264Y013154D01*
X026540Y013878D01*
X027514Y014852D01*
G37*
D14*
X033319Y014874D03*
X034304Y014874D03*
X034304Y015544D03*
X033319Y015544D03*
X035052Y012256D03*
X035721Y012256D03*
X035721Y011666D03*
X035052Y011666D03*
X034008Y009737D03*
X034008Y009067D03*
X029973Y007374D03*
X029382Y007374D03*
X029382Y006705D03*
X029973Y006705D03*
X031311Y005859D03*
X031981Y005859D03*
X031981Y005268D03*
X031311Y005268D03*
X027414Y006705D03*
X027414Y007374D03*
X027473Y008221D03*
X028142Y008221D03*
X028142Y008811D03*
X027473Y008811D03*
X019441Y009067D03*
X019441Y009737D03*
X015347Y006941D03*
X014678Y006941D03*
X008811Y009756D03*
X008221Y009756D03*
X008221Y010426D03*
X008811Y010426D03*
X008319Y014579D03*
X007138Y014579D03*
X007138Y015248D03*
X008319Y015248D03*
D15*
X020032Y011961D03*
X020032Y011370D03*
X036370Y011666D03*
X036961Y011666D03*
X036961Y012256D03*
X036370Y012256D03*
D16*
X034185Y001626D03*
X030681Y001626D03*
D17*
X030681Y003949D03*
X034185Y003949D03*
D18*
X033063Y003989D03*
X032748Y003989D03*
X032433Y003989D03*
X032119Y003989D03*
X031804Y003989D03*
D19*
X032158Y007650D03*
X031134Y007650D03*
X031134Y008024D03*
X031134Y008398D03*
X032158Y008398D03*
D20*
X009717Y006252D03*
X003575Y006252D03*
D21*
X004715Y011528D03*
X005215Y011528D03*
X005715Y011528D03*
X006215Y011528D03*
X007274Y011528D03*
X007774Y011528D03*
X008274Y011528D03*
X008774Y011528D03*
X008774Y013575D03*
X008274Y013575D03*
X007774Y013575D03*
X007274Y013575D03*
X006215Y013575D03*
X005715Y013575D03*
X005215Y013575D03*
X004715Y013575D03*
D22*
X009796Y012000D03*
X010170Y011134D03*
X009422Y011134D03*
D23*
X006025Y014914D03*
X004905Y014914D03*
D24*
X005465Y010386D03*
X003300Y010386D03*
X009796Y010091D03*
X009993Y003693D03*
D25*
X011115Y005465D03*
X012807Y005465D03*
D26*
X014520Y005485D03*
X014520Y003477D03*
D27*
X012512Y003693D03*
X011410Y003693D03*
D28*
X016095Y005504D03*
X016095Y006607D03*
D29*
X034658Y007178D03*
X037099Y007178D03*
X037099Y005721D03*
X034658Y005721D03*
D30*
X033516Y009894D03*
X033319Y009894D03*
X033122Y009894D03*
X032926Y009894D03*
X032729Y009894D03*
X032532Y009894D03*
X032335Y009894D03*
X032138Y009894D03*
X031941Y009894D03*
X031744Y009894D03*
X031548Y009894D03*
X031351Y009894D03*
X031351Y013241D03*
X031548Y013241D03*
X031744Y013241D03*
X031941Y013241D03*
X032138Y013241D03*
X032335Y013241D03*
X032532Y013241D03*
X032729Y013241D03*
X032926Y013241D03*
X033122Y013241D03*
X033319Y013241D03*
X033516Y013241D03*
D31*
X034107Y012650D03*
X034107Y012453D03*
X034107Y012256D03*
X034107Y012059D03*
X034107Y011863D03*
X034107Y011666D03*
X034107Y011469D03*
X034107Y011272D03*
X034107Y011075D03*
X034107Y010878D03*
X034107Y010681D03*
X034107Y010485D03*
X030760Y010485D03*
X030760Y010681D03*
X030760Y010878D03*
X030760Y011075D03*
X030760Y011272D03*
X030760Y011469D03*
X030760Y011666D03*
X030760Y011863D03*
X030760Y012059D03*
X030760Y012256D03*
X030760Y012453D03*
X030760Y012650D03*
D32*
X037945Y011205D03*
X037945Y010205D03*
X037945Y009205D03*
X037945Y008205D03*
X037945Y007205D03*
D33*
X033398Y007433D03*
X033024Y007433D03*
X032650Y007433D03*
X032650Y006528D03*
X033024Y006528D03*
X033398Y006528D03*
D34*
X029697Y008241D03*
X029697Y008615D03*
X028792Y008615D03*
X028792Y008241D03*
X028792Y008989D03*
X029697Y008989D03*
D35*
X029441Y005347D03*
X026764Y004953D03*
X026764Y003378D03*
X026764Y002197D03*
D36*
X030760Y014520D03*
X032335Y014520D03*
D37*
X028772Y007552D03*
X028024Y007552D03*
X028024Y006528D03*
X028398Y006528D03*
X028772Y006528D03*
D38*
X033319Y014225D03*
X034304Y014225D03*
D39*
X021839Y005178D03*
X020839Y005178D03*
X019839Y005178D03*
X018839Y005178D03*
X017839Y005178D03*
X017839Y003178D03*
X018839Y003178D03*
X019839Y003178D03*
X020839Y003178D03*
X021839Y003178D03*
D40*
X018556Y009008D03*
X018556Y009599D03*
X018556Y010189D03*
X018556Y010780D03*
X018556Y011370D03*
X018556Y011961D03*
X018556Y012552D03*
X018556Y013142D03*
X013241Y013142D03*
X013241Y012552D03*
X013241Y011961D03*
X013241Y011370D03*
X013241Y010780D03*
X013241Y010189D03*
X013241Y009599D03*
X013241Y009008D03*
D41*
X013781Y009014D02*
X018016Y009014D01*
X018016Y008916D02*
X013781Y008916D01*
X013781Y008817D02*
X018016Y008817D01*
X018016Y008753D02*
X018080Y008688D01*
X019031Y008688D01*
X019096Y008753D01*
X019096Y008838D01*
X019134Y008838D01*
X019134Y008805D01*
X019199Y008741D01*
X019684Y008741D01*
X019748Y008805D01*
X019748Y008897D01*
X020063Y008897D01*
X020163Y008997D01*
X020792Y009627D01*
X020792Y011462D01*
X020920Y011334D01*
X021113Y011334D01*
X021177Y011399D01*
X021177Y011372D01*
X021313Y011236D01*
X021506Y011236D01*
X021643Y011372D01*
X021643Y011407D01*
X026437Y011407D01*
X021151Y006122D01*
X021151Y005433D01*
X021149Y005430D01*
X021149Y005873D01*
X021085Y005938D01*
X020593Y005938D01*
X020529Y005873D01*
X020529Y004482D01*
X020593Y004418D01*
X021085Y004418D01*
X021149Y004482D01*
X021149Y005018D01*
X021189Y005018D01*
X021282Y005111D01*
X021348Y005177D01*
X021348Y003442D01*
X021529Y003261D01*
X021529Y002482D01*
X021536Y002475D01*
X021181Y002475D01*
X021149Y002507D01*
X021149Y003873D01*
X021085Y003938D01*
X020593Y003938D01*
X020529Y003873D01*
X020529Y002482D01*
X020593Y002418D01*
X020786Y002418D01*
X021048Y002155D01*
X022165Y002155D01*
X022259Y002249D01*
X022357Y002348D01*
X022357Y005566D01*
X022396Y005527D01*
X022589Y005527D01*
X022726Y005664D01*
X022726Y005857D01*
X022653Y005930D01*
X022653Y005989D01*
X027086Y010423D01*
X029449Y010423D01*
X029542Y010517D01*
X030414Y011389D01*
X030414Y010843D01*
X030404Y010833D01*
X030384Y010798D01*
X030374Y010760D01*
X030374Y010682D01*
X030760Y010682D01*
X030760Y010681D01*
X030374Y010681D01*
X030374Y010603D01*
X030384Y010565D01*
X030404Y010530D01*
X030414Y010520D01*
X030414Y010380D01*
X030478Y010316D01*
X030590Y010316D01*
X030590Y010299D01*
X030341Y010299D01*
X030289Y010248D01*
X030270Y010281D01*
X030242Y010309D01*
X030208Y010329D01*
X030170Y010339D01*
X029982Y010339D01*
X029982Y010041D01*
X029885Y010041D01*
X029885Y010339D01*
X029697Y010339D01*
X029659Y010329D01*
X029625Y010309D01*
X029597Y010281D01*
X029577Y010247D01*
X029567Y010209D01*
X029567Y010041D01*
X029885Y010041D01*
X029885Y009944D01*
X029982Y009944D01*
X029982Y009646D01*
X030170Y009646D01*
X030208Y009656D01*
X030242Y009676D01*
X030270Y009704D01*
X030322Y009704D01*
X030341Y009686D02*
X030289Y009737D01*
X030270Y009704D01*
X030341Y009686D02*
X030865Y009686D01*
X030929Y009750D01*
X030929Y010079D01*
X030930Y010080D01*
X030930Y010315D01*
X031084Y010315D01*
X031181Y010217D01*
X031202Y010196D01*
X031182Y010176D01*
X031182Y009660D01*
X030497Y009660D01*
X030016Y009179D01*
X029979Y009217D01*
X029415Y009217D01*
X029351Y009152D01*
X029351Y008835D01*
X029341Y008825D01*
X029321Y008791D01*
X029311Y008752D01*
X029311Y008631D01*
X029257Y008685D01*
X029157Y008785D01*
X029132Y008785D01*
X029115Y008802D01*
X029138Y008825D01*
X029138Y009152D01*
X029074Y009217D01*
X028510Y009217D01*
X028446Y009152D01*
X028446Y009149D01*
X028410Y009149D01*
X028392Y009130D01*
X028385Y009138D01*
X027900Y009138D01*
X027835Y009074D01*
X027835Y008549D01*
X027868Y008516D01*
X027835Y008483D01*
X027835Y007959D01*
X027896Y007898D01*
X027870Y007898D01*
X027806Y007833D01*
X027806Y007602D01*
X027768Y007564D01*
X027721Y007564D01*
X027721Y007637D01*
X027656Y007701D01*
X027171Y007701D01*
X027107Y007637D01*
X027107Y007564D01*
X026981Y007564D01*
X026843Y007427D01*
X026786Y007370D01*
X026786Y007564D01*
X027174Y007951D01*
X027230Y007894D01*
X027715Y007894D01*
X027780Y007959D01*
X027780Y008483D01*
X027747Y008516D01*
X027780Y008549D01*
X027780Y009074D01*
X027715Y009138D01*
X027230Y009138D01*
X027166Y009074D01*
X027166Y008971D01*
X027151Y008971D01*
X027057Y008878D01*
X026959Y008779D01*
X026959Y008484D01*
X026270Y007795D01*
X026270Y006122D01*
X025679Y005531D01*
X025679Y002348D01*
X025896Y002131D01*
X025989Y002037D01*
X026103Y002037D01*
X026103Y001856D01*
X026167Y001792D01*
X027361Y001792D01*
X027425Y001856D01*
X027425Y002538D01*
X027361Y002603D01*
X026167Y002603D01*
X026103Y002538D01*
X026103Y002376D01*
X025999Y002480D01*
X025999Y004390D01*
X026068Y004321D01*
X027480Y004321D01*
X027578Y004419D01*
X027672Y004513D01*
X027672Y005005D01*
X027854Y005187D01*
X028780Y005187D01*
X028780Y005006D01*
X028845Y004942D01*
X030038Y004942D01*
X030103Y005006D01*
X030103Y005688D01*
X030038Y005752D01*
X028845Y005752D01*
X028780Y005688D01*
X028780Y005507D01*
X027722Y005507D01*
X027628Y005413D01*
X027425Y005211D01*
X027425Y005294D01*
X027361Y005358D01*
X027112Y005358D01*
X027112Y006382D01*
X027125Y006369D01*
X027159Y006349D01*
X027197Y006339D01*
X027365Y006339D01*
X027365Y006657D01*
X027462Y006657D01*
X027462Y006754D01*
X027761Y006754D01*
X027761Y006941D01*
X027750Y006980D01*
X027731Y007014D01*
X027703Y007042D01*
X027669Y007061D01*
X027721Y007112D01*
X027721Y007184D01*
X027926Y007184D01*
X027946Y007205D01*
X028178Y007205D01*
X028242Y007270D01*
X028242Y007431D01*
X028554Y007742D01*
X028554Y007270D01*
X028582Y007242D01*
X028582Y007131D01*
X028122Y007131D01*
X028011Y007020D01*
X027834Y006843D01*
X027834Y006838D01*
X027806Y006810D01*
X027806Y006246D01*
X027870Y006182D01*
X028178Y006182D01*
X028183Y006187D01*
X028198Y006172D01*
X028232Y006152D01*
X028270Y006142D01*
X028394Y006142D01*
X028394Y006524D01*
X028402Y006524D01*
X028402Y006142D01*
X028526Y006142D01*
X028564Y006152D01*
X028598Y006172D01*
X028613Y006187D01*
X028618Y006182D01*
X028791Y006182D01*
X028910Y006062D01*
X029953Y006062D01*
X030052Y006161D01*
X030163Y006272D01*
X030163Y006379D01*
X030215Y006379D01*
X030280Y006443D01*
X030280Y006515D01*
X030721Y006515D01*
X030780Y006456D01*
X030977Y006259D01*
X030985Y006259D01*
X030985Y006207D01*
X031038Y006154D01*
X031005Y006121D01*
X031005Y006080D01*
X030937Y006147D01*
X030839Y006147D01*
X030753Y006233D01*
X030642Y006344D01*
X030288Y006344D01*
X030189Y006246D01*
X030078Y006134D01*
X030078Y005780D01*
X030189Y005669D01*
X030189Y005669D01*
X030288Y005570D01*
X030642Y005570D01*
X030741Y005669D01*
X030809Y005738D01*
X030878Y005669D01*
X031005Y005669D01*
X031005Y005597D01*
X031038Y005563D01*
X031005Y005530D01*
X031005Y005006D01*
X031069Y004942D01*
X031554Y004942D01*
X031614Y005001D01*
X031614Y004663D01*
X031595Y004644D01*
X031595Y003333D01*
X031660Y003268D01*
X031948Y003268D01*
X031961Y003282D01*
X031975Y003268D01*
X032262Y003268D01*
X032276Y003282D01*
X032289Y003268D01*
X032577Y003268D01*
X032591Y003282D01*
X032604Y003268D01*
X032863Y003268D01*
X032873Y003258D01*
X032907Y003239D01*
X032945Y003228D01*
X033063Y003228D01*
X033063Y003989D01*
X033312Y003989D01*
X033312Y004619D01*
X033302Y004657D01*
X033282Y004691D01*
X033258Y004714D01*
X033287Y004714D01*
X033386Y004813D01*
X033479Y004907D01*
X033479Y004922D01*
X033581Y004922D01*
X033615Y004955D01*
X033648Y004922D01*
X034172Y004922D01*
X034236Y004986D01*
X034236Y005370D01*
X034246Y005365D01*
X034284Y005354D01*
X034608Y005354D01*
X034608Y005671D01*
X034708Y005671D01*
X034708Y005771D01*
X034608Y005771D01*
X034608Y006087D01*
X034284Y006087D01*
X034246Y006077D01*
X034236Y006072D01*
X034236Y006140D01*
X034172Y006205D01*
X034070Y006205D01*
X034070Y006712D01*
X033676Y007106D01*
X033626Y007156D01*
X033626Y007715D01*
X033562Y007780D01*
X033558Y007780D01*
X033558Y007815D01*
X033086Y008287D01*
X033086Y008425D01*
X033258Y008253D01*
X033351Y008159D01*
X034862Y008159D01*
X035157Y008455D01*
X035251Y008548D01*
X035251Y009434D01*
X035354Y009537D01*
X037387Y009537D01*
X037542Y009382D01*
X037505Y009293D01*
X037505Y009118D01*
X037572Y008956D01*
X037696Y008832D01*
X037858Y008765D01*
X038033Y008765D01*
X038195Y008832D01*
X038267Y008905D01*
X038267Y008768D01*
X038112Y008612D01*
X038033Y008645D01*
X037858Y008645D01*
X037696Y008578D01*
X037572Y008454D01*
X037505Y008293D01*
X037505Y008118D01*
X037572Y007956D01*
X037696Y007832D01*
X037858Y007765D01*
X038033Y007765D01*
X038195Y007832D01*
X038346Y007832D01*
X038293Y007931D02*
X038445Y007931D01*
X038474Y007960D02*
X038122Y007608D01*
X038033Y007645D01*
X037858Y007645D01*
X037696Y007578D01*
X037572Y007454D01*
X037563Y007432D01*
X037563Y007440D01*
X037499Y007504D01*
X036699Y007504D01*
X036634Y007440D01*
X036634Y007338D01*
X035122Y007338D01*
X035122Y007440D01*
X035058Y007504D01*
X034258Y007504D01*
X034194Y007440D01*
X034194Y006915D01*
X034258Y006851D01*
X035058Y006851D01*
X035122Y006915D01*
X035122Y007018D01*
X036634Y007018D01*
X036634Y006915D01*
X036699Y006851D01*
X037499Y006851D01*
X037563Y006915D01*
X037563Y006978D01*
X037572Y006956D01*
X037696Y006832D01*
X037858Y006765D01*
X038033Y006765D01*
X038195Y006832D01*
X038318Y006956D01*
X038385Y007118D01*
X038385Y007293D01*
X038348Y007382D01*
X038794Y007828D01*
X038794Y009567D01*
X038701Y009660D01*
X038597Y009764D01*
X038597Y010452D01*
X038504Y010546D01*
X038231Y010819D01*
X038258Y010839D01*
X038311Y010892D01*
X038356Y010954D01*
X038390Y011021D01*
X038413Y011093D01*
X038424Y011157D01*
X037994Y011157D01*
X037994Y011254D01*
X037897Y011254D01*
X037897Y011683D01*
X037833Y011673D01*
X037761Y011650D01*
X037694Y011616D01*
X037633Y011571D01*
X037579Y011518D01*
X037535Y011457D01*
X037500Y011389D01*
X037477Y011318D01*
X037467Y011254D01*
X037897Y011254D01*
X037897Y011157D01*
X037467Y011157D01*
X037477Y011093D01*
X037500Y011021D01*
X037535Y010954D01*
X037579Y010892D01*
X037633Y010839D01*
X037660Y010819D01*
X037588Y010748D01*
X037288Y010448D01*
X035059Y010448D01*
X034827Y010679D01*
X034832Y010683D01*
X034832Y010876D01*
X034695Y011013D01*
X034502Y011013D01*
X034453Y010964D01*
X034453Y011701D01*
X034463Y011711D01*
X034483Y011746D01*
X034493Y011784D01*
X034493Y011863D01*
X034493Y011899D01*
X034533Y011899D01*
X034745Y011687D01*
X034745Y011404D01*
X034809Y011339D01*
X035294Y011339D01*
X035358Y011404D01*
X035358Y011928D01*
X035325Y011961D01*
X035358Y011994D01*
X035358Y012480D01*
X035414Y012480D01*
X035414Y011994D01*
X035447Y011961D01*
X035414Y011928D01*
X035414Y011404D01*
X035478Y011339D01*
X035963Y011339D01*
X036028Y011404D01*
X036028Y011506D01*
X036103Y011506D01*
X036103Y011463D01*
X036167Y011398D01*
X036574Y011398D01*
X036638Y011463D01*
X036638Y011869D01*
X036574Y011933D01*
X036167Y011933D01*
X036103Y011869D01*
X036103Y011826D01*
X036028Y011826D01*
X036028Y011928D01*
X035995Y011961D01*
X036028Y011994D01*
X036028Y012096D01*
X036103Y012096D01*
X036103Y012053D01*
X036167Y011989D01*
X036574Y011989D01*
X036638Y012053D01*
X036638Y012459D01*
X036617Y012480D01*
X036694Y012480D01*
X036704Y012470D01*
X036694Y012459D01*
X036694Y012053D01*
X036758Y011989D01*
X036791Y011989D01*
X036791Y011933D01*
X036758Y011933D01*
X036694Y011869D01*
X036694Y011463D01*
X036758Y011398D01*
X037164Y011398D01*
X037229Y011463D01*
X037229Y011869D01*
X037164Y011933D01*
X037131Y011933D01*
X037131Y011989D01*
X037164Y011989D01*
X037229Y012053D01*
X037229Y012459D01*
X037164Y012524D01*
X037131Y012524D01*
X036934Y012720D01*
X036835Y012820D01*
X035495Y012820D01*
X035497Y012827D01*
X035497Y012995D01*
X035179Y012995D01*
X035179Y013092D01*
X035497Y013092D01*
X035497Y013260D01*
X035489Y013290D01*
X035497Y013319D01*
X035497Y013487D01*
X035179Y013487D01*
X035179Y013092D01*
X035082Y013092D01*
X035082Y013189D01*
X035082Y013487D01*
X035179Y013487D01*
X035179Y013584D01*
X035497Y013584D01*
X035497Y013752D01*
X035487Y013791D01*
X035467Y013825D01*
X035439Y013853D01*
X035405Y013872D01*
X035367Y013883D01*
X035179Y013883D01*
X035179Y013584D01*
X035082Y013584D01*
X035082Y013883D01*
X034894Y013883D01*
X034856Y013872D01*
X034822Y013853D01*
X034794Y013825D01*
X034774Y013791D01*
X034723Y013843D01*
X034610Y013843D01*
X034610Y015137D01*
X034559Y015188D01*
X034592Y015207D01*
X034620Y015235D01*
X034640Y015269D01*
X034650Y015307D01*
X034650Y015495D01*
X034352Y015495D01*
X034352Y015592D01*
X034650Y015592D01*
X034650Y015780D01*
X034640Y015818D01*
X034620Y015852D01*
X034592Y015880D01*
X034558Y015900D01*
X034520Y015910D01*
X034352Y015910D01*
X034352Y015592D01*
X034255Y015592D01*
X034255Y015495D01*
X033957Y015495D01*
X033957Y015307D01*
X033967Y015269D01*
X033987Y015235D01*
X034015Y015207D01*
X034048Y015188D01*
X033997Y015137D01*
X033997Y013947D01*
X033942Y013893D01*
X033626Y013893D01*
X033626Y015137D01*
X033575Y015188D01*
X033608Y015207D01*
X033636Y015235D01*
X033656Y015269D01*
X033666Y015307D01*
X033666Y015495D01*
X033368Y015495D01*
X033368Y015592D01*
X033666Y015592D01*
X033666Y015780D01*
X033656Y015818D01*
X033636Y015852D01*
X033608Y015880D01*
X033574Y015900D01*
X033536Y015910D01*
X033368Y015910D01*
X033368Y015592D01*
X033271Y015592D01*
X033271Y015495D01*
X032972Y015495D01*
X032972Y015307D01*
X032983Y015269D01*
X033002Y015235D01*
X033030Y015207D01*
X033064Y015188D01*
X033012Y015137D01*
X033012Y013947D01*
X032889Y013824D01*
X032889Y013897D01*
X032811Y013975D01*
X032839Y014002D01*
X032839Y015038D01*
X032774Y015103D01*
X032274Y015103D01*
X032213Y015164D01*
X032237Y015157D01*
X032424Y015157D01*
X032424Y015456D01*
X032521Y015456D01*
X032521Y015157D01*
X032709Y015157D01*
X032747Y015168D01*
X032781Y015187D01*
X032809Y015215D01*
X032829Y015250D01*
X032839Y015288D01*
X032839Y015456D01*
X032521Y015456D01*
X032521Y015553D01*
X032424Y015553D01*
X032424Y015851D01*
X032237Y015851D01*
X032198Y015841D01*
X032164Y015821D01*
X032136Y015793D01*
X032117Y015760D01*
X032066Y015811D01*
X032154Y015811D01*
X032066Y015811D02*
X031541Y015811D01*
X031456Y015811D01*
X031455Y015811D02*
X030931Y015811D01*
X030843Y015811D01*
X030833Y015821D02*
X030798Y015841D01*
X030760Y015851D01*
X030572Y015851D01*
X030572Y015553D01*
X030476Y015553D01*
X030476Y015851D01*
X030288Y015851D01*
X030250Y015841D01*
X030215Y015821D01*
X030187Y015793D01*
X030168Y015759D01*
X030157Y015721D01*
X030157Y015553D01*
X030476Y015553D01*
X030476Y015456D01*
X030572Y015456D01*
X030572Y015157D01*
X030760Y015157D01*
X030798Y015168D01*
X030833Y015187D01*
X030861Y015215D01*
X030880Y015249D01*
X030924Y015205D01*
X030821Y015103D01*
X030321Y015103D01*
X030257Y015038D01*
X030257Y014002D01*
X030321Y013938D01*
X031116Y013938D01*
X031260Y013794D01*
X029218Y013794D01*
X028922Y013499D01*
X028829Y013405D01*
X028829Y012618D01*
X028529Y012318D01*
X026251Y012318D01*
X026297Y012337D01*
X026411Y012451D01*
X026473Y012600D01*
X026473Y012762D01*
X026411Y012911D01*
X026297Y013025D01*
X026147Y013087D01*
X025986Y013087D01*
X025837Y013025D01*
X025723Y012911D01*
X025661Y012762D01*
X025661Y012600D01*
X025723Y012451D01*
X025837Y012337D01*
X025882Y012318D01*
X020984Y012318D01*
X020093Y013208D01*
X020000Y013302D01*
X019768Y013302D01*
X019768Y013522D01*
X019754Y013536D01*
X021804Y013536D01*
X022197Y013930D01*
X022197Y016685D01*
X022835Y017323D01*
X037945Y017323D01*
X038131Y017311D01*
X038491Y017214D01*
X038743Y017068D01*
X039116Y016696D01*
X039262Y016443D01*
X039358Y016084D01*
X039370Y015898D01*
X039370Y002512D01*
X039358Y002326D01*
X039262Y001967D01*
X039262Y001967D01*
X039116Y001714D01*
X038743Y001342D01*
X038491Y001196D01*
X038131Y001100D01*
X037945Y001087D01*
X034722Y001087D01*
X034729Y001115D01*
X034729Y001576D01*
X034235Y001576D01*
X034235Y001676D01*
X034135Y001676D01*
X034135Y001576D01*
X033642Y001576D01*
X033642Y001115D01*
X033649Y001087D01*
X031218Y001087D01*
X031225Y001115D01*
X031225Y001576D01*
X030731Y001576D01*
X030731Y001676D01*
X030631Y001676D01*
X030631Y001576D01*
X030138Y001576D01*
X030138Y001115D01*
X030145Y001087D01*
X018654Y001087D01*
X018654Y002378D01*
X018789Y002378D01*
X018789Y003128D01*
X018889Y003128D01*
X018889Y003228D01*
X018789Y003228D01*
X018789Y003978D01*
X018654Y003978D01*
X018654Y004378D01*
X018789Y004378D01*
X018789Y005128D01*
X018889Y005128D01*
X018889Y005228D01*
X018789Y005228D01*
X018789Y005978D01*
X018654Y005978D01*
X018654Y006449D01*
X018457Y006646D01*
X016599Y006646D01*
X016599Y006967D01*
X016534Y007032D01*
X015699Y007032D01*
X015654Y007077D01*
X015654Y007203D01*
X015589Y007268D01*
X015502Y007268D01*
X015413Y007357D01*
X015369Y007401D01*
X015330Y007440D01*
X018182Y007440D01*
X019251Y006371D01*
X019251Y004008D01*
X019363Y003897D01*
X019529Y003731D01*
X019529Y002869D01*
X019406Y002745D01*
X019345Y002745D01*
X019208Y002609D01*
X019208Y002416D01*
X019345Y002279D01*
X019538Y002279D01*
X019674Y002416D01*
X019674Y002418D01*
X020085Y002418D01*
X020149Y002482D01*
X020149Y003873D01*
X020085Y003938D01*
X019859Y003938D01*
X019631Y004166D01*
X019631Y004378D01*
X019789Y004378D01*
X019789Y005128D01*
X019889Y005128D01*
X019889Y005228D01*
X020189Y005228D01*
X020189Y005847D01*
X020179Y005885D01*
X020159Y005920D01*
X020131Y005948D01*
X020097Y005967D01*
X020059Y005978D01*
X019988Y005978D01*
X020068Y006057D01*
X020068Y006250D01*
X019995Y006323D01*
X019995Y006515D01*
X018425Y008086D01*
X012519Y008086D01*
X011727Y008878D01*
X011727Y011338D01*
X011634Y011432D01*
X011043Y012023D01*
X010551Y012023D01*
X010448Y012126D01*
X010448Y012421D01*
X010354Y012515D01*
X010157Y012712D01*
X009764Y012712D01*
X009567Y012908D01*
X009075Y012908D01*
X008944Y013039D01*
X009002Y013097D01*
X009002Y014054D01*
X008938Y014118D01*
X008610Y014118D01*
X008546Y014054D01*
X008546Y013097D01*
X008610Y013032D01*
X008614Y013032D01*
X008614Y012916D01*
X008708Y012823D01*
X008848Y012682D01*
X008942Y012588D01*
X009434Y012588D01*
X009478Y012545D01*
X008339Y012545D01*
X008228Y012433D01*
X008084Y012290D01*
X008084Y012045D01*
X008046Y012007D01*
X008046Y011049D01*
X008084Y011011D01*
X008084Y010752D01*
X007978Y010752D01*
X007914Y010688D01*
X007914Y010163D01*
X007965Y010112D01*
X007932Y010093D01*
X007904Y010065D01*
X007884Y010031D01*
X007874Y009993D01*
X007874Y009805D01*
X008172Y009805D01*
X008172Y009708D01*
X007874Y009708D01*
X007874Y009520D01*
X007884Y009482D01*
X007904Y009448D01*
X007932Y009420D01*
X007966Y009400D01*
X008004Y009390D01*
X008172Y009390D01*
X008172Y009708D01*
X008269Y009708D01*
X008269Y009390D01*
X008437Y009390D01*
X008476Y009400D01*
X008510Y009420D01*
X008516Y009426D01*
X008522Y009420D01*
X008557Y009400D01*
X008595Y009390D01*
X008763Y009390D01*
X008763Y009708D01*
X008269Y009708D01*
X008269Y009805D01*
X008568Y009805D01*
X008763Y009805D01*
X008763Y009708D01*
X008860Y009708D01*
X008860Y009805D01*
X009158Y009805D01*
X009158Y009993D01*
X009148Y010031D01*
X009128Y010065D01*
X009100Y010093D01*
X009067Y010112D01*
X009118Y010163D01*
X009118Y010688D01*
X009054Y010752D01*
X008964Y010752D01*
X008964Y011011D01*
X009002Y011049D01*
X009002Y011377D01*
X009115Y011377D01*
X009115Y010813D01*
X009179Y010749D01*
X009232Y010749D01*
X009232Y010386D01*
X009331Y010286D01*
X009292Y010191D01*
X009292Y009991D01*
X009369Y009806D01*
X009510Y009664D01*
X009695Y009587D01*
X009896Y009587D01*
X010081Y009664D01*
X010223Y009806D01*
X010299Y009991D01*
X010299Y010191D01*
X010223Y010376D01*
X010081Y010518D01*
X009896Y010595D01*
X009695Y010595D01*
X009612Y010560D01*
X009612Y010749D01*
X009664Y010749D01*
X009729Y010813D01*
X009729Y011377D01*
X009863Y011377D01*
X009863Y010813D01*
X009927Y010749D01*
X010412Y010749D01*
X010477Y010813D01*
X010477Y011049D01*
X010585Y010941D01*
X010688Y010941D01*
X010817Y010812D01*
X010817Y008548D01*
X010910Y008455D01*
X012190Y007175D01*
X014331Y007175D01*
X014331Y006990D01*
X014629Y006990D01*
X014629Y006893D01*
X014331Y006893D01*
X014331Y006705D01*
X014341Y006667D01*
X014353Y006646D01*
X011666Y006646D01*
X010878Y007433D01*
X008811Y007433D01*
X008418Y007040D01*
X008418Y005071D01*
X009205Y004284D01*
X010998Y004284D01*
X010985Y004270D01*
X010985Y004053D01*
X010345Y004053D01*
X010278Y004120D01*
X010093Y004197D01*
X009892Y004197D01*
X009707Y004120D01*
X009566Y003979D01*
X009489Y003793D01*
X009489Y003593D01*
X009566Y003408D01*
X009707Y003266D01*
X009892Y003190D01*
X010093Y003190D01*
X010278Y003266D01*
X010345Y003333D01*
X010985Y003333D01*
X010985Y003116D01*
X011049Y003052D01*
X011770Y003052D01*
X011835Y003116D01*
X011835Y004270D01*
X011821Y004284D01*
X012058Y004284D01*
X012057Y004283D01*
X012047Y004245D01*
X012047Y003743D01*
X012462Y003743D01*
X012462Y003643D01*
X012562Y003643D01*
X012562Y003012D01*
X012847Y003012D01*
X012885Y003022D01*
X012919Y003042D01*
X012947Y003070D01*
X012967Y003104D01*
X012977Y003142D01*
X012977Y003643D01*
X012562Y003643D01*
X012562Y003743D01*
X012977Y003743D01*
X012977Y004245D01*
X012967Y004283D01*
X012966Y004284D01*
X017276Y004284D01*
X017590Y003970D01*
X017581Y003967D01*
X017547Y003948D01*
X017519Y003920D01*
X017499Y003885D01*
X017489Y003847D01*
X017489Y003228D01*
X017789Y003228D01*
X017789Y003128D01*
X017489Y003128D01*
X017489Y002508D01*
X017499Y002470D01*
X017519Y002435D01*
X017547Y002408D01*
X017581Y002388D01*
X017619Y002378D01*
X017789Y002378D01*
X017789Y003128D01*
X017889Y003128D01*
X017889Y002378D01*
X018059Y002378D01*
X018063Y002379D01*
X018063Y001087D01*
X001725Y001087D01*
X001539Y001100D01*
X001180Y001196D01*
X000927Y001342D01*
X000554Y001714D01*
X000408Y001967D01*
X000312Y002326D01*
X000300Y002512D01*
X000300Y015898D01*
X000312Y016084D01*
X000408Y016443D01*
X000554Y016696D01*
X000927Y017068D01*
X001180Y017214D01*
X001539Y017311D01*
X001725Y017323D01*
X008961Y017323D01*
X009599Y016685D01*
X009599Y013930D01*
X009993Y013536D01*
X019128Y013536D01*
X019115Y013522D01*
X019115Y013302D01*
X019096Y013302D01*
X019096Y013398D01*
X019031Y013462D01*
X018080Y013462D01*
X018016Y013398D01*
X018016Y012887D01*
X018055Y012847D01*
X018016Y012807D01*
X018016Y012296D01*
X018055Y012256D01*
X018016Y012217D01*
X018016Y011705D01*
X018055Y011666D01*
X018016Y011626D01*
X018016Y011115D01*
X018027Y011103D01*
X018005Y011082D01*
X017986Y011048D01*
X017976Y011010D01*
X017976Y010830D01*
X018506Y010830D01*
X018506Y010730D01*
X017976Y010730D01*
X017976Y010550D01*
X017986Y010512D01*
X018005Y010478D01*
X018027Y010456D01*
X018016Y010445D01*
X018016Y009934D01*
X018055Y009894D01*
X018016Y009854D01*
X018016Y009343D01*
X018055Y009304D01*
X018016Y009264D01*
X018016Y008753D01*
X018049Y008719D02*
X013747Y008719D01*
X013716Y008688D02*
X013781Y008753D01*
X013781Y009264D01*
X013741Y009304D01*
X013781Y009343D01*
X013781Y009854D01*
X013741Y009894D01*
X013781Y009934D01*
X013781Y010445D01*
X013741Y010485D01*
X013781Y010524D01*
X013781Y011035D01*
X013741Y011075D01*
X013781Y011115D01*
X013781Y011137D01*
X013928Y011137D01*
X014064Y011274D01*
X014064Y011467D01*
X013928Y011603D01*
X013781Y011603D01*
X013781Y011626D01*
X013741Y011666D01*
X013781Y011705D01*
X013781Y012217D01*
X013741Y012256D01*
X013781Y012296D01*
X013781Y012319D01*
X013928Y012319D01*
X014064Y012455D01*
X014064Y012648D01*
X013928Y012785D01*
X013781Y012785D01*
X013781Y012807D01*
X013741Y012847D01*
X013781Y012887D01*
X013781Y013398D01*
X013716Y013462D01*
X012765Y013462D01*
X012701Y013398D01*
X012701Y012887D01*
X012740Y012847D01*
X012701Y012807D01*
X012701Y012296D01*
X012740Y012256D01*
X012701Y012217D01*
X012701Y011705D01*
X012740Y011666D01*
X012701Y011626D01*
X012701Y011115D01*
X012740Y011075D01*
X012701Y011035D01*
X012701Y010524D01*
X012740Y010485D01*
X012701Y010445D01*
X012701Y009934D01*
X012740Y009894D01*
X012701Y009854D01*
X012701Y009343D01*
X012740Y009304D01*
X012701Y009264D01*
X012701Y008753D01*
X012765Y008688D01*
X013716Y008688D01*
X013781Y009113D02*
X018016Y009113D01*
X018016Y009211D02*
X013781Y009211D01*
X013747Y009310D02*
X018049Y009310D01*
X018016Y009408D02*
X013781Y009408D01*
X013781Y009507D02*
X018016Y009507D01*
X018016Y009605D02*
X013781Y009605D01*
X013781Y009704D02*
X018016Y009704D01*
X018016Y009802D02*
X013781Y009802D01*
X013748Y009901D02*
X018048Y009901D01*
X018016Y009999D02*
X013781Y009999D01*
X013781Y010098D02*
X018016Y010098D01*
X018016Y010196D02*
X013781Y010196D01*
X013781Y010295D02*
X018016Y010295D01*
X018016Y010393D02*
X013781Y010393D01*
X013748Y010492D02*
X017997Y010492D01*
X017976Y010590D02*
X013781Y010590D01*
X013781Y010689D02*
X017976Y010689D01*
X017976Y010886D02*
X013781Y010886D01*
X013781Y010984D02*
X017976Y010984D01*
X018006Y011083D02*
X013749Y011083D01*
X013972Y011181D02*
X018016Y011181D01*
X018016Y011280D02*
X014064Y011280D01*
X014064Y011378D02*
X018016Y011378D01*
X018016Y011477D02*
X014054Y011477D01*
X013956Y011575D02*
X018016Y011575D01*
X018047Y011674D02*
X013749Y011674D01*
X013781Y011772D02*
X018016Y011772D01*
X018016Y011871D02*
X013781Y011871D01*
X013781Y011969D02*
X018016Y011969D01*
X018016Y012068D02*
X013781Y012068D01*
X013781Y012166D02*
X018016Y012166D01*
X018047Y012265D02*
X013749Y012265D01*
X013972Y012363D02*
X018016Y012363D01*
X018016Y012462D02*
X014064Y012462D01*
X014064Y012560D02*
X018016Y012560D01*
X018016Y012659D02*
X014053Y012659D01*
X013955Y012757D02*
X018016Y012757D01*
X018046Y012856D02*
X013750Y012856D01*
X013781Y012954D02*
X018016Y012954D01*
X018016Y013053D02*
X013781Y013053D01*
X013781Y013151D02*
X018016Y013151D01*
X018016Y013250D02*
X013781Y013250D01*
X013781Y013348D02*
X018016Y013348D01*
X018065Y013447D02*
X013731Y013447D01*
X012750Y013447D02*
X009002Y013447D01*
X009002Y013545D02*
X009983Y013545D01*
X009884Y013644D02*
X009002Y013644D01*
X009002Y013742D02*
X009786Y013742D01*
X009687Y013841D02*
X009002Y013841D01*
X009002Y013939D02*
X009599Y013939D01*
X009599Y014038D02*
X009002Y014038D01*
X008546Y014038D02*
X008502Y014038D01*
X008502Y014054D02*
X008438Y014118D01*
X008110Y014118D01*
X008046Y014054D01*
X008046Y013100D01*
X007988Y013042D01*
X007988Y012849D01*
X008124Y012712D01*
X008317Y012712D01*
X008454Y012849D01*
X008454Y013042D01*
X008451Y013045D01*
X008502Y013097D01*
X008502Y014054D01*
X008502Y013939D02*
X008546Y013939D01*
X008546Y013841D02*
X008502Y013841D01*
X008502Y013742D02*
X008546Y013742D01*
X008546Y013644D02*
X008502Y013644D01*
X008502Y013545D02*
X008546Y013545D01*
X008546Y013447D02*
X008502Y013447D01*
X008502Y013348D02*
X008546Y013348D01*
X008546Y013250D02*
X008502Y013250D01*
X008502Y013151D02*
X008546Y013151D01*
X008590Y013053D02*
X008458Y013053D01*
X008454Y012954D02*
X008614Y012954D01*
X008674Y012856D02*
X008454Y012856D01*
X008363Y012757D02*
X008773Y012757D01*
X008871Y012659D02*
X007356Y012659D01*
X007434Y012580D02*
X006445Y013570D01*
X006445Y013670D01*
X006443Y013672D01*
X006443Y014054D01*
X006379Y014118D01*
X006227Y014118D01*
X006227Y014449D01*
X006385Y014449D01*
X006450Y014513D01*
X006450Y015314D01*
X006385Y015379D01*
X005664Y015379D01*
X005600Y015314D01*
X005600Y014513D01*
X005664Y014449D01*
X005687Y014449D01*
X005687Y014118D01*
X005551Y014118D01*
X005487Y014054D01*
X005487Y013805D01*
X005443Y013805D01*
X005443Y014054D01*
X005379Y014118D01*
X005051Y014118D01*
X004987Y014054D01*
X004987Y013672D01*
X004985Y013670D01*
X004985Y013480D01*
X004987Y013478D01*
X004987Y013097D01*
X005051Y013032D01*
X005379Y013032D01*
X005443Y013097D01*
X005443Y013345D01*
X005487Y013345D01*
X005487Y013097D01*
X005551Y013032D01*
X005879Y013032D01*
X005943Y013097D01*
X005943Y013320D01*
X005987Y013320D01*
X005987Y013097D01*
X006051Y013032D01*
X006379Y013032D01*
X006443Y013097D01*
X006443Y013119D01*
X007114Y012448D01*
X007114Y012071D01*
X007110Y012071D01*
X007046Y012007D01*
X007046Y011049D01*
X007110Y010985D01*
X007438Y010985D01*
X007502Y011049D01*
X007502Y012007D01*
X007438Y012071D01*
X007434Y012071D01*
X007434Y012580D01*
X007434Y012560D02*
X009462Y012560D01*
X009500Y012748D02*
X009008Y012748D01*
X008774Y012983D01*
X008774Y013575D01*
X009002Y013348D02*
X012701Y013348D01*
X012701Y013250D02*
X009002Y013250D01*
X009002Y013151D02*
X012701Y013151D01*
X012701Y013053D02*
X008958Y013053D01*
X009029Y012954D02*
X012701Y012954D01*
X012731Y012856D02*
X009619Y012856D01*
X009718Y012757D02*
X012701Y012757D01*
X012701Y012659D02*
X010210Y012659D01*
X010308Y012560D02*
X012701Y012560D01*
X012701Y012462D02*
X010407Y012462D01*
X010448Y012363D02*
X012701Y012363D01*
X012732Y012265D02*
X010448Y012265D01*
X010448Y012166D02*
X012701Y012166D01*
X012701Y012068D02*
X010506Y012068D01*
X010485Y011863D02*
X010977Y011863D01*
X011567Y011272D01*
X011567Y008811D01*
X012453Y007926D01*
X018359Y007926D01*
X019835Y006449D01*
X019835Y006154D01*
X020068Y006158D02*
X021188Y006158D01*
X021151Y006059D02*
X020068Y006059D01*
X020108Y005961D02*
X021151Y005961D01*
X021149Y005862D02*
X021151Y005862D01*
X021149Y005764D02*
X021151Y005764D01*
X021149Y005665D02*
X021151Y005665D01*
X021149Y005567D02*
X021151Y005567D01*
X021149Y005468D02*
X021151Y005468D01*
X021311Y005367D02*
X021122Y005178D01*
X020839Y005178D01*
X020529Y005173D02*
X019889Y005173D01*
X019889Y005128D02*
X020189Y005128D01*
X020189Y004508D01*
X020179Y004470D01*
X020159Y004435D01*
X020131Y004408D01*
X020097Y004388D01*
X020059Y004378D01*
X019889Y004378D01*
X019889Y005128D01*
X019889Y005074D02*
X019789Y005074D01*
X019789Y004976D02*
X019889Y004976D01*
X019889Y004877D02*
X019789Y004877D01*
X019789Y004779D02*
X019889Y004779D01*
X019889Y004680D02*
X019789Y004680D01*
X019789Y004582D02*
X019889Y004582D01*
X019889Y004483D02*
X019789Y004483D01*
X019789Y004385D02*
X019889Y004385D01*
X020086Y004385D02*
X021348Y004385D01*
X021348Y004483D02*
X021149Y004483D01*
X021149Y004582D02*
X021348Y004582D01*
X021348Y004680D02*
X021149Y004680D01*
X021149Y004779D02*
X021348Y004779D01*
X021348Y004877D02*
X021149Y004877D01*
X021149Y004976D02*
X021348Y004976D01*
X021348Y005074D02*
X021246Y005074D01*
X021344Y005173D02*
X021348Y005173D01*
X021311Y005367D02*
X021311Y006056D01*
X026626Y011370D01*
X028989Y011370D01*
X030071Y012453D01*
X030760Y012453D01*
X030760Y012256D02*
X030170Y012256D01*
X029087Y011174D01*
X026725Y011174D01*
X021508Y005957D01*
X021508Y003508D01*
X021839Y003178D01*
X021529Y003203D02*
X021149Y003203D01*
X021149Y003301D02*
X021489Y003301D01*
X021390Y003400D02*
X021149Y003400D01*
X021149Y003498D02*
X021348Y003498D01*
X021348Y003597D02*
X021149Y003597D01*
X021149Y003695D02*
X021348Y003695D01*
X021348Y003794D02*
X021149Y003794D01*
X021130Y003892D02*
X021348Y003892D01*
X021348Y003991D02*
X019806Y003991D01*
X019708Y004089D02*
X021348Y004089D01*
X021348Y004188D02*
X019631Y004188D01*
X019631Y004286D02*
X021348Y004286D01*
X020529Y004483D02*
X020182Y004483D01*
X020189Y004582D02*
X020529Y004582D01*
X020529Y004680D02*
X020189Y004680D01*
X020189Y004779D02*
X020529Y004779D01*
X020529Y004877D02*
X020189Y004877D01*
X020189Y004976D02*
X020529Y004976D01*
X020529Y005074D02*
X020189Y005074D01*
X020189Y005271D02*
X020529Y005271D01*
X020529Y005370D02*
X020189Y005370D01*
X020189Y005468D02*
X020529Y005468D01*
X020529Y005567D02*
X020189Y005567D01*
X020189Y005665D02*
X020529Y005665D01*
X020529Y005764D02*
X020189Y005764D01*
X020185Y005862D02*
X020529Y005862D01*
X020062Y006256D02*
X021286Y006256D01*
X021385Y006355D02*
X019995Y006355D01*
X019995Y006453D02*
X021483Y006453D01*
X021582Y006552D02*
X019959Y006552D01*
X019860Y006650D02*
X021680Y006650D01*
X021779Y006749D02*
X019762Y006749D01*
X019663Y006847D02*
X021877Y006847D01*
X021976Y006946D02*
X019565Y006946D01*
X019466Y007044D02*
X022074Y007044D01*
X022173Y007143D02*
X019368Y007143D01*
X019269Y007241D02*
X022271Y007241D01*
X022370Y007340D02*
X019171Y007340D01*
X019072Y007438D02*
X022468Y007438D01*
X022567Y007537D02*
X018974Y007537D01*
X018875Y007635D02*
X022665Y007635D01*
X022764Y007734D02*
X018777Y007734D01*
X018678Y007832D02*
X022862Y007832D01*
X022961Y007931D02*
X018580Y007931D01*
X018481Y008029D02*
X023059Y008029D01*
X023158Y008128D02*
X012477Y008128D01*
X012379Y008226D02*
X023256Y008226D01*
X023355Y008325D02*
X012280Y008325D01*
X012182Y008423D02*
X023453Y008423D01*
X023552Y008522D02*
X022844Y008522D01*
X022797Y008475D02*
X023298Y008976D01*
X022865Y009409D01*
X022273Y008816D01*
X022613Y008475D01*
X022647Y008456D01*
X022685Y008446D01*
X022725Y008446D01*
X022763Y008456D01*
X022797Y008475D01*
X022942Y008620D02*
X023650Y008620D01*
X023749Y008719D02*
X023041Y008719D01*
X023139Y008817D02*
X023847Y008817D01*
X023946Y008916D02*
X023238Y008916D01*
X023260Y009014D02*
X024044Y009014D01*
X024143Y009113D02*
X023435Y009113D01*
X023369Y009047D02*
X023869Y009547D01*
X023889Y009582D01*
X023899Y009620D01*
X023899Y009659D01*
X023889Y009697D01*
X023869Y009732D01*
X023529Y010072D01*
X022936Y009479D01*
X023369Y009047D01*
X023302Y009113D02*
X023161Y009113D01*
X023204Y009211D02*
X023063Y009211D01*
X023105Y009310D02*
X022964Y009310D01*
X023007Y009408D02*
X022866Y009408D01*
X022865Y009409D02*
X022936Y009479D01*
X022865Y009550D01*
X022795Y009479D01*
X022865Y009409D01*
X022865Y009408D02*
X022724Y009408D01*
X022795Y009479D02*
X022202Y008887D01*
X021861Y009227D01*
X021842Y009261D01*
X021831Y009300D01*
X021831Y009339D01*
X021842Y009377D01*
X021861Y009411D01*
X022362Y009912D01*
X022795Y009479D01*
X022822Y009507D02*
X022767Y009507D01*
X022865Y009550D02*
X022433Y009983D01*
X022933Y010483D01*
X022967Y010503D01*
X023006Y010513D01*
X023045Y010513D01*
X023083Y010503D01*
X023117Y010483D01*
X023458Y010143D01*
X022865Y009550D01*
X022908Y009507D02*
X022963Y009507D01*
X022921Y009605D02*
X023062Y009605D01*
X023019Y009704D02*
X023160Y009704D01*
X023118Y009802D02*
X023259Y009802D01*
X023216Y009901D02*
X023357Y009901D01*
X023315Y009999D02*
X023456Y009999D01*
X023413Y010098D02*
X025128Y010098D01*
X025226Y010196D02*
X023404Y010196D01*
X023306Y010295D02*
X023792Y010295D01*
X023782Y010299D02*
X023910Y010246D01*
X024048Y010246D01*
X024175Y010299D01*
X024273Y010396D01*
X024326Y010524D01*
X024326Y010662D01*
X024273Y010789D01*
X024175Y010887D01*
X024048Y010940D01*
X023910Y010940D01*
X023782Y010887D01*
X023685Y010789D01*
X023632Y010662D01*
X023632Y010524D01*
X023685Y010396D01*
X023782Y010299D01*
X023688Y010393D02*
X023207Y010393D01*
X023103Y010492D02*
X023645Y010492D01*
X023632Y010590D02*
X020792Y010590D01*
X020792Y010492D02*
X022948Y010492D01*
X022843Y010393D02*
X020792Y010393D01*
X020792Y010295D02*
X022745Y010295D01*
X022646Y010196D02*
X020792Y010196D01*
X020792Y010098D02*
X022548Y010098D01*
X022449Y009999D02*
X020792Y009999D01*
X020792Y009901D02*
X022351Y009901D01*
X022373Y009901D02*
X022514Y009901D01*
X022472Y009802D02*
X022613Y009802D01*
X022570Y009704D02*
X022711Y009704D01*
X022669Y009605D02*
X022810Y009605D01*
X022252Y009802D02*
X020792Y009802D01*
X020792Y009704D02*
X022154Y009704D01*
X022055Y009605D02*
X020771Y009605D01*
X020673Y009507D02*
X021957Y009507D01*
X021860Y009408D02*
X020574Y009408D01*
X020476Y009310D02*
X021831Y009310D01*
X021877Y009211D02*
X020377Y009211D01*
X020279Y009113D02*
X021976Y009113D01*
X022074Y009014D02*
X020180Y009014D01*
X020082Y008916D02*
X022173Y008916D01*
X022231Y008916D02*
X022372Y008916D01*
X022330Y009014D02*
X022471Y009014D01*
X022428Y009113D02*
X022569Y009113D01*
X022527Y009211D02*
X022668Y009211D01*
X022625Y009310D02*
X022766Y009310D01*
X022274Y008817D02*
X019748Y008817D01*
X019134Y008817D02*
X019096Y008817D01*
X019062Y008719D02*
X022370Y008719D01*
X022468Y008620D02*
X011985Y008620D01*
X012083Y008522D02*
X022567Y008522D01*
X023533Y009211D02*
X024241Y009211D01*
X024340Y009310D02*
X023632Y009310D01*
X023730Y009408D02*
X024438Y009408D01*
X024537Y009507D02*
X023829Y009507D01*
X023895Y009605D02*
X024635Y009605D01*
X024734Y009704D02*
X023885Y009704D01*
X023798Y009802D02*
X024832Y009802D01*
X024931Y009901D02*
X023700Y009901D01*
X023601Y009999D02*
X025029Y009999D01*
X025325Y010295D02*
X024166Y010295D01*
X024270Y010393D02*
X025423Y010393D01*
X025522Y010492D02*
X024312Y010492D01*
X024326Y010590D02*
X025620Y010590D01*
X025719Y010689D02*
X024314Y010689D01*
X024274Y010787D02*
X025817Y010787D01*
X025916Y010886D02*
X024176Y010886D01*
X023781Y010886D02*
X020792Y010886D01*
X020792Y010984D02*
X026014Y010984D01*
X026113Y011083D02*
X020792Y011083D01*
X020792Y011181D02*
X026211Y011181D01*
X026310Y011280D02*
X021550Y011280D01*
X021643Y011378D02*
X026408Y011378D01*
X026823Y010977D02*
X021839Y005993D01*
X021839Y005178D01*
X022357Y005173D02*
X025679Y005173D01*
X025679Y005271D02*
X022357Y005271D01*
X022357Y005370D02*
X025679Y005370D01*
X025679Y005468D02*
X022357Y005468D01*
X022629Y005567D02*
X025715Y005567D01*
X025813Y005665D02*
X022726Y005665D01*
X022726Y005764D02*
X025912Y005764D01*
X026010Y005862D02*
X022720Y005862D01*
X022653Y005961D02*
X026109Y005961D01*
X026207Y006059D02*
X022723Y006059D01*
X022821Y006158D02*
X026270Y006158D01*
X026270Y006256D02*
X022920Y006256D01*
X023018Y006355D02*
X026270Y006355D01*
X026270Y006453D02*
X023117Y006453D01*
X023215Y006552D02*
X026270Y006552D01*
X026270Y006650D02*
X023314Y006650D01*
X023412Y006749D02*
X026270Y006749D01*
X026270Y006847D02*
X023511Y006847D01*
X023609Y006946D02*
X026270Y006946D01*
X026270Y007044D02*
X023708Y007044D01*
X023806Y007143D02*
X026270Y007143D01*
X026270Y007241D02*
X023905Y007241D01*
X024003Y007340D02*
X026270Y007340D01*
X026270Y007438D02*
X024102Y007438D01*
X024200Y007537D02*
X026270Y007537D01*
X026270Y007635D02*
X024299Y007635D01*
X024397Y007734D02*
X026270Y007734D01*
X026307Y007832D02*
X024496Y007832D01*
X024594Y007931D02*
X026405Y007931D01*
X026504Y008029D02*
X024693Y008029D01*
X024791Y008128D02*
X026602Y008128D01*
X026701Y008226D02*
X024890Y008226D01*
X024988Y008325D02*
X026799Y008325D01*
X026898Y008423D02*
X025087Y008423D01*
X025185Y008522D02*
X026959Y008522D01*
X026959Y008620D02*
X025284Y008620D01*
X025382Y008719D02*
X026959Y008719D01*
X026997Y008817D02*
X025481Y008817D01*
X025579Y008916D02*
X027095Y008916D01*
X027166Y009014D02*
X025678Y009014D01*
X025776Y009113D02*
X027205Y009113D01*
X027217Y008811D02*
X027473Y008811D01*
X027217Y008811D02*
X027119Y008713D01*
X027119Y008418D01*
X026430Y007729D01*
X026430Y006056D01*
X025839Y005465D01*
X025839Y002414D01*
X026056Y002197D01*
X026764Y002197D01*
X027425Y002218D02*
X030175Y002218D01*
X030168Y002211D02*
X030148Y002176D01*
X030138Y002138D01*
X030138Y001676D01*
X030631Y001676D01*
X030631Y002269D01*
X030268Y002269D01*
X030230Y002258D01*
X030196Y002239D01*
X030168Y002211D01*
X030138Y002119D02*
X027425Y002119D01*
X027425Y002021D02*
X030138Y002021D01*
X030138Y001922D02*
X028377Y001922D01*
X028355Y001945D02*
X028480Y001820D01*
X028548Y001656D01*
X028548Y001479D01*
X028480Y001315D01*
X028355Y001190D01*
X028191Y001122D01*
X028014Y001122D01*
X027851Y001190D01*
X027725Y001315D01*
X027657Y001479D01*
X027657Y001656D01*
X027725Y001820D01*
X027851Y001945D01*
X028014Y002013D01*
X028191Y002013D01*
X028355Y001945D01*
X028476Y001824D02*
X030138Y001824D01*
X030138Y001725D02*
X028519Y001725D01*
X028548Y001627D02*
X030631Y001627D01*
X030631Y001725D02*
X030731Y001725D01*
X030731Y001676D02*
X030731Y002269D01*
X031095Y002269D01*
X031133Y002258D01*
X031167Y002239D01*
X031195Y002211D01*
X031215Y002176D01*
X031225Y002138D01*
X031225Y001676D01*
X030731Y001676D01*
X030731Y001627D02*
X034135Y001627D01*
X034135Y001676D02*
X033642Y001676D01*
X033642Y002138D01*
X033652Y002176D01*
X033672Y002211D01*
X033700Y002239D01*
X033734Y002258D01*
X033772Y002269D01*
X034135Y002269D01*
X034135Y001676D01*
X034135Y001725D02*
X034235Y001725D01*
X034235Y001676D02*
X034235Y002269D01*
X034599Y002269D01*
X034637Y002258D01*
X034671Y002239D01*
X034699Y002211D01*
X034719Y002176D01*
X034729Y002138D01*
X034729Y001676D01*
X034235Y001676D01*
X034235Y001627D02*
X039028Y001627D01*
X039122Y001725D02*
X034729Y001725D01*
X034729Y001824D02*
X037569Y001824D01*
X037503Y001851D02*
X037790Y001732D01*
X038100Y001732D01*
X038387Y001851D01*
X038606Y002070D01*
X038725Y002357D01*
X038725Y002667D01*
X038606Y002954D01*
X038387Y003173D01*
X038100Y003292D01*
X037790Y003292D01*
X037503Y003173D01*
X037284Y002954D01*
X037165Y002667D01*
X037165Y002357D01*
X037284Y002070D01*
X037503Y001851D01*
X037432Y001922D02*
X034729Y001922D01*
X034729Y002021D02*
X037334Y002021D01*
X037264Y002119D02*
X034729Y002119D01*
X034692Y002218D02*
X037223Y002218D01*
X037182Y002316D02*
X027425Y002316D01*
X027425Y002415D02*
X037165Y002415D01*
X037165Y002513D02*
X033445Y002513D01*
X033485Y002530D02*
X033577Y002622D01*
X033627Y002742D01*
X033627Y002873D01*
X033577Y002993D01*
X033485Y003085D01*
X033365Y003135D01*
X033235Y003135D01*
X033114Y003085D01*
X033022Y002993D01*
X032972Y002873D01*
X032972Y002742D01*
X033022Y002622D01*
X033114Y002530D01*
X033235Y002480D01*
X033365Y002480D01*
X033485Y002530D01*
X033567Y002612D02*
X037165Y002612D01*
X037183Y002710D02*
X033614Y002710D01*
X033627Y002809D02*
X037224Y002809D01*
X037265Y002907D02*
X033612Y002907D01*
X033564Y003006D02*
X037336Y003006D01*
X037435Y003104D02*
X033438Y003104D01*
X033282Y003286D02*
X033302Y003320D01*
X033312Y003359D01*
X033312Y003989D01*
X033063Y003989D01*
X033063Y003989D01*
X033063Y003989D01*
X033063Y003228D01*
X033182Y003228D01*
X033220Y003239D01*
X033254Y003258D01*
X033282Y003286D01*
X033291Y003301D02*
X033642Y003301D01*
X033642Y003280D02*
X033652Y003242D01*
X033672Y003208D01*
X033700Y003180D01*
X033734Y003160D01*
X033772Y003150D01*
X034135Y003150D01*
X034135Y003899D01*
X033642Y003899D01*
X033642Y003280D01*
X033676Y003203D02*
X031191Y003203D01*
X031195Y003208D02*
X031215Y003242D01*
X031225Y003280D01*
X031225Y003899D01*
X030731Y003899D01*
X030731Y003150D01*
X031095Y003150D01*
X031133Y003160D01*
X031167Y003180D01*
X031195Y003208D01*
X031225Y003301D02*
X031626Y003301D01*
X031595Y003400D02*
X031225Y003400D01*
X031225Y003498D02*
X031595Y003498D01*
X031595Y003597D02*
X031225Y003597D01*
X031225Y003695D02*
X031595Y003695D01*
X031595Y003794D02*
X031225Y003794D01*
X031225Y003892D02*
X031595Y003892D01*
X031595Y003991D02*
X030731Y003991D01*
X030731Y003999D02*
X031225Y003999D01*
X031225Y004619D01*
X031215Y004657D01*
X031195Y004691D01*
X031167Y004719D01*
X031133Y004739D01*
X031095Y004749D01*
X030731Y004749D01*
X030731Y003999D01*
X030631Y003999D01*
X030631Y003899D01*
X030138Y003899D01*
X030138Y003280D01*
X030148Y003242D01*
X030168Y003208D01*
X030196Y003180D01*
X030230Y003160D01*
X030268Y003150D01*
X030631Y003150D01*
X030631Y003899D01*
X030731Y003899D01*
X030731Y003999D01*
X030731Y004089D02*
X030631Y004089D01*
X030631Y003999D02*
X030631Y004749D01*
X030268Y004749D01*
X030230Y004739D01*
X030196Y004719D01*
X030168Y004691D01*
X030148Y004657D01*
X030138Y004619D01*
X030138Y003999D01*
X030631Y003999D01*
X030631Y003991D02*
X028400Y003991D01*
X028355Y003946D02*
X028480Y004071D01*
X028548Y004235D01*
X028548Y004412D01*
X028480Y004575D01*
X028355Y004701D01*
X028191Y004769D01*
X028014Y004769D01*
X027851Y004701D01*
X027725Y004575D01*
X027657Y004412D01*
X027657Y004235D01*
X027725Y004071D01*
X027851Y003946D01*
X028014Y003878D01*
X028191Y003878D01*
X028355Y003946D01*
X028226Y003892D02*
X030138Y003892D01*
X030138Y003794D02*
X027407Y003794D01*
X027373Y003813D01*
X027335Y003824D01*
X026814Y003824D01*
X026814Y003428D01*
X027465Y003428D01*
X027465Y003693D01*
X027455Y003732D01*
X027435Y003766D01*
X027407Y003794D01*
X027465Y003695D02*
X030138Y003695D01*
X030138Y003597D02*
X027465Y003597D01*
X027465Y003498D02*
X030138Y003498D01*
X030138Y003400D02*
X026814Y003400D01*
X026814Y003428D02*
X026814Y003328D01*
X026814Y002933D01*
X027335Y002933D01*
X027373Y002943D01*
X027407Y002963D01*
X027435Y002991D01*
X027455Y003025D01*
X027465Y003063D01*
X027465Y003328D01*
X026814Y003328D01*
X026714Y003328D01*
X026714Y002933D01*
X026193Y002933D01*
X026155Y002943D01*
X026121Y002963D01*
X026093Y002991D01*
X026073Y003025D01*
X026063Y003063D01*
X026063Y003328D01*
X026714Y003328D01*
X026714Y003428D01*
X026063Y003428D01*
X026063Y003693D01*
X026073Y003732D01*
X026093Y003766D01*
X026121Y003794D01*
X025999Y003794D01*
X025999Y003892D02*
X027979Y003892D01*
X027805Y003991D02*
X025999Y003991D01*
X025999Y004089D02*
X027718Y004089D01*
X027677Y004188D02*
X025999Y004188D01*
X025999Y004286D02*
X027657Y004286D01*
X027657Y004385D02*
X027544Y004385D01*
X027643Y004483D02*
X027687Y004483D01*
X027672Y004582D02*
X027732Y004582D01*
X027672Y004680D02*
X027830Y004680D01*
X027672Y004779D02*
X031614Y004779D01*
X031614Y004877D02*
X027672Y004877D01*
X027672Y004976D02*
X028810Y004976D01*
X028780Y005074D02*
X027742Y005074D01*
X027840Y005173D02*
X028780Y005173D01*
X028780Y005567D02*
X027112Y005567D01*
X027112Y005665D02*
X028780Y005665D01*
X028814Y006158D02*
X028575Y006158D01*
X028402Y006158D02*
X028394Y006158D01*
X028394Y006256D02*
X028402Y006256D01*
X028394Y006355D02*
X028402Y006355D01*
X028394Y006453D02*
X028402Y006453D01*
X027806Y006453D02*
X027756Y006453D01*
X027761Y006469D02*
X027761Y006657D01*
X027462Y006657D01*
X027462Y006339D01*
X027630Y006339D01*
X027669Y006349D01*
X027703Y006369D01*
X027731Y006396D01*
X027750Y006431D01*
X027761Y006469D01*
X027761Y006552D02*
X027806Y006552D01*
X027806Y006650D02*
X027761Y006650D01*
X027806Y006749D02*
X027462Y006749D01*
X027462Y006650D02*
X027365Y006650D01*
X027365Y006552D02*
X027462Y006552D01*
X027462Y006453D02*
X027365Y006453D01*
X027365Y006355D02*
X027462Y006355D01*
X027679Y006355D02*
X027806Y006355D01*
X027806Y006256D02*
X027112Y006256D01*
X027112Y006158D02*
X028221Y006158D01*
X027683Y005468D02*
X027112Y005468D01*
X027112Y005370D02*
X027585Y005370D01*
X027486Y005271D02*
X027425Y005271D01*
X027512Y005071D02*
X027788Y005347D01*
X029441Y005347D01*
X029382Y005347D01*
X030103Y005370D02*
X031005Y005370D01*
X031005Y005468D02*
X030103Y005468D01*
X030103Y005567D02*
X031034Y005567D01*
X031005Y005665D02*
X030737Y005665D01*
X030193Y005665D02*
X030103Y005665D01*
X030094Y005764D02*
X027112Y005764D01*
X027112Y005862D02*
X030078Y005862D01*
X030078Y005961D02*
X027112Y005961D01*
X027112Y006059D02*
X030078Y006059D01*
X030102Y006158D02*
X030049Y006158D01*
X030147Y006256D02*
X030200Y006256D01*
X030189Y006246D02*
X030189Y006246D01*
X030163Y006355D02*
X030881Y006355D01*
X030783Y006453D02*
X030280Y006453D01*
X030730Y006256D02*
X030985Y006256D01*
X031034Y006158D02*
X030828Y006158D01*
X030780Y006456D02*
X030780Y006456D01*
X030669Y006895D02*
X030280Y006895D01*
X030280Y006967D01*
X030228Y007019D01*
X030262Y007038D01*
X030290Y007066D01*
X030309Y007100D01*
X030320Y007138D01*
X030320Y007326D01*
X030021Y007326D01*
X030021Y007423D01*
X029924Y007423D01*
X029924Y007326D01*
X029431Y007326D01*
X029431Y007423D01*
X029626Y007423D01*
X029924Y007423D01*
X029924Y007741D01*
X029756Y007741D01*
X029718Y007731D01*
X029684Y007711D01*
X029678Y007705D01*
X029671Y007711D01*
X029637Y007731D01*
X029599Y007741D01*
X029431Y007741D01*
X029431Y007423D01*
X029334Y007423D01*
X029334Y007741D01*
X029166Y007741D01*
X029128Y007731D01*
X029093Y007711D01*
X029065Y007683D01*
X029046Y007649D01*
X029035Y007611D01*
X029035Y007423D01*
X029334Y007423D01*
X029334Y007326D01*
X029035Y007326D01*
X029035Y007163D01*
X028962Y007237D01*
X028962Y007242D01*
X028990Y007270D01*
X028990Y007756D01*
X029157Y007756D01*
X029256Y007854D01*
X029355Y007954D01*
X029355Y008072D01*
X029415Y008012D01*
X029979Y008012D01*
X030043Y008077D01*
X030043Y008081D01*
X030354Y008081D01*
X030448Y008174D01*
X030625Y008351D01*
X030625Y009040D01*
X030728Y009144D01*
X030949Y009144D01*
X030945Y009126D01*
X030945Y008958D01*
X031263Y008958D01*
X031263Y008861D01*
X030945Y008861D01*
X030945Y008693D01*
X030955Y008655D01*
X030975Y008621D01*
X030979Y008616D01*
X030852Y008616D01*
X030788Y008552D01*
X030788Y008244D01*
X030793Y008239D01*
X030778Y008224D01*
X030758Y008190D01*
X030748Y008152D01*
X030748Y008028D01*
X031130Y008028D01*
X031130Y008020D01*
X030748Y008020D01*
X030748Y007896D01*
X030758Y007858D01*
X030778Y007824D01*
X030793Y007809D01*
X030788Y007804D01*
X030788Y007631D01*
X030669Y007512D01*
X030669Y006895D01*
X030669Y006946D02*
X030280Y006946D01*
X030268Y007044D02*
X030669Y007044D01*
X030669Y007143D02*
X030320Y007143D01*
X030320Y007241D02*
X030669Y007241D01*
X030669Y007340D02*
X030021Y007340D01*
X030021Y007423D02*
X030320Y007423D01*
X030320Y007611D01*
X030309Y007649D01*
X030290Y007683D01*
X030262Y007711D01*
X030228Y007731D01*
X030189Y007741D01*
X030021Y007741D01*
X030021Y007423D01*
X030021Y007438D02*
X029924Y007438D01*
X029924Y007340D02*
X029431Y007340D01*
X029334Y007340D02*
X028990Y007340D01*
X028990Y007438D02*
X029035Y007438D01*
X029035Y007537D02*
X028990Y007537D01*
X028990Y007635D02*
X029042Y007635D01*
X028990Y007734D02*
X029139Y007734D01*
X029234Y007832D02*
X030773Y007832D01*
X030788Y007734D02*
X030216Y007734D01*
X030313Y007635D02*
X030788Y007635D01*
X030693Y007537D02*
X030320Y007537D01*
X030320Y007438D02*
X030669Y007438D01*
X030021Y007537D02*
X029924Y007537D01*
X029924Y007635D02*
X030021Y007635D01*
X030021Y007734D02*
X029924Y007734D01*
X029730Y007734D02*
X029625Y007734D01*
X029431Y007734D02*
X029334Y007734D01*
X029334Y007635D02*
X029431Y007635D01*
X029431Y007537D02*
X029334Y007537D01*
X029334Y007438D02*
X029431Y007438D01*
X029035Y007241D02*
X028962Y007241D01*
X028582Y007241D02*
X028214Y007241D01*
X028242Y007340D02*
X028554Y007340D01*
X028554Y007438D02*
X028250Y007438D01*
X028348Y007537D02*
X028554Y007537D01*
X028554Y007635D02*
X028447Y007635D01*
X028545Y007734D02*
X028554Y007734D01*
X027806Y007734D02*
X026956Y007734D01*
X026858Y007635D02*
X027107Y007635D01*
X026953Y007537D02*
X026786Y007537D01*
X026786Y007438D02*
X026855Y007438D01*
X026626Y007630D02*
X027217Y008221D01*
X027473Y008221D01*
X027780Y008226D02*
X027835Y008226D01*
X027835Y008128D02*
X027780Y008128D01*
X027780Y008029D02*
X027835Y008029D01*
X027863Y007931D02*
X027752Y007931D01*
X027806Y007832D02*
X027055Y007832D01*
X027153Y007931D02*
X027194Y007931D01*
X027721Y007635D02*
X027806Y007635D01*
X027721Y007143D02*
X028582Y007143D01*
X028036Y007044D02*
X027698Y007044D01*
X027759Y006946D02*
X027937Y006946D01*
X027839Y006847D02*
X027761Y006847D01*
X027148Y006355D02*
X027112Y006355D01*
X026626Y005957D02*
X026626Y007630D01*
X028142Y008221D02*
X028162Y008241D01*
X028792Y008241D01*
X029355Y008029D02*
X029398Y008029D01*
X029333Y007931D02*
X030748Y007931D01*
X030748Y008029D02*
X029996Y008029D01*
X030288Y008241D02*
X029697Y008241D01*
X030050Y008401D02*
X030053Y008404D01*
X030073Y008439D01*
X030083Y008477D01*
X030083Y008606D01*
X029706Y008606D01*
X029706Y008624D01*
X030083Y008624D01*
X030083Y008752D01*
X030073Y008791D01*
X030053Y008825D01*
X030050Y008829D01*
X030118Y008829D01*
X030212Y008922D01*
X030305Y009016D01*
X030305Y008484D01*
X030222Y008401D01*
X030050Y008401D01*
X030065Y008423D02*
X030244Y008423D01*
X030305Y008522D02*
X030083Y008522D01*
X030083Y008719D02*
X030305Y008719D01*
X030305Y008817D02*
X030058Y008817D01*
X030052Y008989D02*
X029697Y008989D01*
X029351Y009014D02*
X029138Y009014D01*
X029138Y008916D02*
X029351Y008916D01*
X029337Y008817D02*
X029130Y008817D01*
X029223Y008719D02*
X029311Y008719D01*
X029706Y008620D02*
X030305Y008620D01*
X030465Y008418D02*
X030288Y008241D01*
X030401Y008128D02*
X030748Y008128D01*
X030780Y008226D02*
X030500Y008226D01*
X030598Y008325D02*
X030788Y008325D01*
X030788Y008423D02*
X030625Y008423D01*
X030625Y008522D02*
X030788Y008522D01*
X030625Y008620D02*
X030975Y008620D01*
X030945Y008719D02*
X030625Y008719D01*
X030625Y008817D02*
X030945Y008817D01*
X030945Y009014D02*
X030625Y009014D01*
X030625Y008916D02*
X031263Y008916D01*
X030945Y009113D02*
X030697Y009113D01*
X030662Y009304D02*
X030465Y009107D01*
X030465Y008418D01*
X030305Y008916D02*
X030205Y008916D01*
X030304Y009014D02*
X030305Y009014D01*
X030052Y008989D02*
X030563Y009500D01*
X032237Y009500D01*
X032335Y009599D01*
X032335Y009894D01*
X032532Y009894D02*
X032532Y009402D01*
X032433Y009304D01*
X030662Y009304D01*
X030344Y009507D02*
X026170Y009507D01*
X026072Y009408D02*
X030245Y009408D01*
X030147Y009310D02*
X025973Y009310D01*
X025875Y009211D02*
X028505Y009211D01*
X028477Y008989D02*
X028792Y008989D01*
X028477Y008989D02*
X028300Y008811D01*
X028142Y008811D01*
X027835Y008817D02*
X027780Y008817D01*
X027780Y008719D02*
X027835Y008719D01*
X027835Y008620D02*
X027780Y008620D01*
X027752Y008522D02*
X027863Y008522D01*
X027835Y008423D02*
X027780Y008423D01*
X027780Y008325D02*
X027835Y008325D01*
X027835Y008916D02*
X027780Y008916D01*
X027780Y009014D02*
X027835Y009014D01*
X027875Y009113D02*
X027740Y009113D01*
X026269Y009605D02*
X030442Y009605D01*
X030883Y009704D02*
X031182Y009704D01*
X031182Y009802D02*
X030929Y009802D01*
X030929Y009901D02*
X031182Y009901D01*
X031182Y009999D02*
X030929Y009999D01*
X030930Y010098D02*
X031182Y010098D01*
X031202Y010196D02*
X030930Y010196D01*
X030930Y010295D02*
X031103Y010295D01*
X031324Y010555D02*
X031324Y012677D01*
X031913Y012677D01*
X032012Y012775D01*
X032091Y012854D01*
X032138Y012854D01*
X032138Y013241D01*
X032138Y013627D01*
X032059Y013627D01*
X032021Y013617D01*
X031987Y013597D01*
X031977Y013587D01*
X031708Y013587D01*
X031708Y013602D01*
X031609Y013701D01*
X031540Y013770D01*
X032269Y013770D01*
X032372Y013666D01*
X032372Y013587D01*
X032299Y013587D01*
X032289Y013597D01*
X032255Y013617D01*
X032217Y013627D01*
X032138Y013627D01*
X032138Y013241D01*
X032138Y013241D01*
X032138Y013241D01*
X032138Y012854D01*
X032200Y012854D01*
X032962Y012092D01*
X032962Y011796D01*
X033356Y011403D01*
X033356Y011013D01*
X033321Y011013D01*
X033185Y010876D01*
X033185Y010683D01*
X033321Y010547D01*
X033514Y010547D01*
X033543Y010576D01*
X033543Y010555D01*
X033446Y010458D01*
X032568Y010458D01*
X032568Y010581D01*
X032432Y010718D01*
X032239Y010718D01*
X032102Y010581D01*
X032102Y010458D01*
X031421Y010458D01*
X031324Y010555D01*
X031324Y010590D02*
X032111Y010590D01*
X032102Y010492D02*
X031387Y010492D01*
X031324Y010689D02*
X032210Y010689D01*
X032460Y010689D02*
X033185Y010689D01*
X033185Y010787D02*
X031324Y010787D01*
X031324Y010886D02*
X033194Y010886D01*
X033293Y010984D02*
X031324Y010984D01*
X031324Y011083D02*
X033356Y011083D01*
X033356Y011181D02*
X031324Y011181D01*
X031324Y011280D02*
X033356Y011280D01*
X033356Y011378D02*
X031324Y011378D01*
X031324Y011477D02*
X033282Y011477D01*
X033183Y011575D02*
X031324Y011575D01*
X031324Y011674D02*
X033085Y011674D01*
X032986Y011772D02*
X031324Y011772D01*
X031324Y011871D02*
X032962Y011871D01*
X032962Y011969D02*
X031324Y011969D01*
X031324Y012068D02*
X032962Y012068D01*
X032888Y012166D02*
X031324Y012166D01*
X031324Y012265D02*
X032789Y012265D01*
X032691Y012363D02*
X031324Y012363D01*
X031324Y012462D02*
X032592Y012462D01*
X032494Y012560D02*
X031324Y012560D01*
X031324Y012659D02*
X032395Y012659D01*
X032297Y012757D02*
X031994Y012757D01*
X032012Y012775D02*
X032012Y012775D01*
X032138Y012856D02*
X032138Y012856D01*
X032138Y012954D02*
X032138Y012954D01*
X032138Y013053D02*
X032138Y013053D01*
X032138Y013151D02*
X032138Y013151D01*
X032138Y013250D02*
X032138Y013250D01*
X032138Y013348D02*
X032138Y013348D01*
X032138Y013447D02*
X032138Y013447D01*
X032138Y013545D02*
X032138Y013545D01*
X032296Y013742D02*
X031567Y013742D01*
X031666Y013644D02*
X032372Y013644D01*
X032532Y013733D02*
X032335Y013930D01*
X031351Y013930D01*
X030957Y014323D01*
X030957Y014422D01*
X030760Y014520D01*
X030859Y014914D01*
X031193Y015248D01*
X031193Y015504D01*
X030909Y015220D02*
X030863Y015220D01*
X030840Y015121D02*
X022197Y015121D01*
X022197Y015023D02*
X030257Y015023D01*
X030257Y014924D02*
X028225Y014924D01*
X028199Y014950D02*
X028006Y014950D01*
X027870Y014813D01*
X027870Y014724D01*
X027834Y014688D01*
X027560Y014962D01*
X027469Y014962D01*
X026430Y013924D01*
X026430Y013832D01*
X027218Y013044D01*
X027309Y013044D01*
X028348Y014083D01*
X028348Y014174D01*
X028074Y014448D01*
X028110Y014484D01*
X028199Y014484D01*
X028336Y014620D01*
X028336Y014813D01*
X028199Y014950D01*
X028323Y014826D02*
X030257Y014826D01*
X030257Y014727D02*
X028336Y014727D01*
X028336Y014629D02*
X030257Y014629D01*
X030257Y014530D02*
X028246Y014530D01*
X028090Y014432D02*
X030257Y014432D01*
X030257Y014333D02*
X028189Y014333D01*
X028287Y014235D02*
X030257Y014235D01*
X030257Y014136D02*
X028348Y014136D01*
X028303Y014038D02*
X030257Y014038D01*
X030319Y013939D02*
X028205Y013939D01*
X028106Y013841D02*
X031213Y013841D01*
X031449Y013634D02*
X029284Y013634D01*
X028989Y013339D01*
X028989Y012552D01*
X028595Y012158D01*
X020918Y012158D01*
X019933Y013142D01*
X019481Y013142D01*
X019441Y013280D01*
X019402Y013142D01*
X018556Y013142D01*
X019046Y013447D02*
X019115Y013447D01*
X019115Y013348D02*
X019096Y013348D01*
X019768Y013348D02*
X026914Y013348D01*
X027012Y013250D02*
X020052Y013250D01*
X020150Y013151D02*
X027111Y013151D01*
X027209Y013053D02*
X026229Y013053D01*
X026367Y012954D02*
X028829Y012954D01*
X028829Y012856D02*
X026434Y012856D01*
X026473Y012757D02*
X028829Y012757D01*
X028829Y012659D02*
X026473Y012659D01*
X026456Y012560D02*
X028771Y012560D01*
X028673Y012462D02*
X026415Y012462D01*
X026323Y012363D02*
X028574Y012363D01*
X028792Y011764D02*
X029579Y012552D01*
X029579Y012650D01*
X029456Y012856D02*
X029355Y012856D01*
X029355Y012954D02*
X029567Y012954D01*
X029567Y012995D02*
X029567Y012883D01*
X029483Y012883D01*
X029355Y012756D01*
X029355Y013170D01*
X029453Y013267D01*
X029569Y013267D01*
X029567Y013260D01*
X029567Y013092D01*
X029885Y013092D01*
X029885Y012995D01*
X029567Y012995D01*
X029567Y013151D02*
X029355Y013151D01*
X029355Y013053D02*
X029885Y013053D01*
X029567Y013250D02*
X029435Y013250D01*
X028969Y013545D02*
X027811Y013545D01*
X027712Y013447D02*
X028870Y013447D01*
X028829Y013348D02*
X027614Y013348D01*
X027515Y013250D02*
X028829Y013250D01*
X028829Y013151D02*
X027417Y013151D01*
X027318Y013053D02*
X028829Y013053D01*
X029355Y012757D02*
X029357Y012757D01*
X029973Y012650D02*
X028890Y011567D01*
X021508Y011567D01*
X021410Y011469D01*
X021269Y011280D02*
X020792Y011280D01*
X020792Y011378D02*
X020876Y011378D01*
X021016Y011567D02*
X021213Y011764D01*
X028792Y011764D01*
X029185Y010977D02*
X026823Y010977D01*
X026922Y010780D02*
X022197Y006056D01*
X022197Y002414D01*
X022099Y002315D01*
X021115Y002315D01*
X020839Y002591D01*
X020839Y003178D01*
X020529Y003203D02*
X020149Y003203D01*
X020149Y003301D02*
X020529Y003301D01*
X020529Y003400D02*
X020149Y003400D01*
X020149Y003498D02*
X020529Y003498D01*
X020529Y003597D02*
X020149Y003597D01*
X020149Y003695D02*
X020529Y003695D01*
X020529Y003794D02*
X020149Y003794D01*
X020130Y003892D02*
X020548Y003892D01*
X019529Y003695D02*
X019189Y003695D01*
X019189Y003597D02*
X019529Y003597D01*
X019529Y003498D02*
X019189Y003498D01*
X019189Y003400D02*
X019529Y003400D01*
X019529Y003301D02*
X019189Y003301D01*
X019189Y003228D02*
X019189Y003847D01*
X019179Y003885D01*
X019159Y003920D01*
X019131Y003948D01*
X019097Y003967D01*
X019059Y003978D01*
X018889Y003978D01*
X018889Y003228D01*
X019189Y003228D01*
X019189Y003128D02*
X018889Y003128D01*
X018889Y002378D01*
X019059Y002378D01*
X019097Y002388D01*
X019131Y002408D01*
X019159Y002435D01*
X019179Y002470D01*
X019189Y002508D01*
X019189Y003128D01*
X019189Y003104D02*
X019529Y003104D01*
X019529Y003006D02*
X019189Y003006D01*
X019189Y002907D02*
X019529Y002907D01*
X019469Y002809D02*
X019189Y002809D01*
X019189Y002710D02*
X019310Y002710D01*
X019212Y002612D02*
X019189Y002612D01*
X019189Y002513D02*
X019208Y002513D01*
X019209Y002415D02*
X019138Y002415D01*
X019308Y002316D02*
X018654Y002316D01*
X018654Y002218D02*
X020986Y002218D01*
X020887Y002316D02*
X019575Y002316D01*
X019674Y002415D02*
X020789Y002415D01*
X020529Y002513D02*
X020149Y002513D01*
X020149Y002612D02*
X020529Y002612D01*
X020529Y002710D02*
X020149Y002710D01*
X020149Y002809D02*
X020529Y002809D01*
X020529Y002907D02*
X020149Y002907D01*
X020149Y003006D02*
X020529Y003006D01*
X020529Y003104D02*
X020149Y003104D01*
X019529Y003203D02*
X018889Y003203D01*
X018889Y003301D02*
X018789Y003301D01*
X018789Y003400D02*
X018889Y003400D01*
X018889Y003498D02*
X018789Y003498D01*
X018789Y003597D02*
X018889Y003597D01*
X018889Y003695D02*
X018789Y003695D01*
X018789Y003794D02*
X018889Y003794D01*
X018889Y003892D02*
X018789Y003892D01*
X018654Y003991D02*
X019269Y003991D01*
X019251Y004089D02*
X018654Y004089D01*
X018654Y004188D02*
X019251Y004188D01*
X019251Y004286D02*
X018654Y004286D01*
X018789Y004385D02*
X018889Y004385D01*
X018889Y004378D02*
X019059Y004378D01*
X019097Y004388D01*
X019131Y004408D01*
X019159Y004435D01*
X019179Y004470D01*
X019189Y004508D01*
X019189Y005128D01*
X018889Y005128D01*
X018889Y004378D01*
X018889Y004483D02*
X018789Y004483D01*
X018789Y004582D02*
X018889Y004582D01*
X018889Y004680D02*
X018789Y004680D01*
X018789Y004779D02*
X018889Y004779D01*
X018889Y004877D02*
X018789Y004877D01*
X018789Y004976D02*
X018889Y004976D01*
X018889Y005074D02*
X018789Y005074D01*
X018889Y005173D02*
X019251Y005173D01*
X019189Y005228D02*
X019189Y005847D01*
X019179Y005885D01*
X019159Y005920D01*
X019131Y005948D01*
X019097Y005967D01*
X019059Y005978D01*
X018889Y005978D01*
X018889Y005228D01*
X019189Y005228D01*
X019189Y005271D02*
X019251Y005271D01*
X019251Y005370D02*
X019189Y005370D01*
X019189Y005468D02*
X019251Y005468D01*
X019251Y005567D02*
X019189Y005567D01*
X019189Y005665D02*
X019251Y005665D01*
X019251Y005764D02*
X019189Y005764D01*
X019185Y005862D02*
X019251Y005862D01*
X019251Y005961D02*
X019108Y005961D01*
X019251Y006059D02*
X018654Y006059D01*
X018654Y006158D02*
X019251Y006158D01*
X019251Y006256D02*
X018654Y006256D01*
X018654Y006355D02*
X019251Y006355D01*
X019168Y006453D02*
X018650Y006453D01*
X018551Y006552D02*
X019070Y006552D01*
X018971Y006650D02*
X016599Y006650D01*
X016599Y006749D02*
X018873Y006749D01*
X018774Y006847D02*
X016599Y006847D01*
X016599Y006946D02*
X018676Y006946D01*
X018577Y007044D02*
X015687Y007044D01*
X015654Y007143D02*
X018479Y007143D01*
X018380Y007241D02*
X015616Y007241D01*
X015430Y007340D02*
X018282Y007340D01*
X018183Y007438D02*
X015332Y007438D01*
X015413Y007357D02*
X015413Y007357D01*
X015347Y007197D02*
X015209Y007335D01*
X012256Y007335D01*
X010977Y008615D01*
X010977Y010878D01*
X010681Y011174D01*
X010541Y010984D02*
X010477Y010984D01*
X010477Y010886D02*
X010743Y010886D01*
X010817Y010787D02*
X010451Y010787D01*
X010817Y010689D02*
X009612Y010689D01*
X009612Y010590D02*
X009685Y010590D01*
X009703Y010787D02*
X009889Y010787D01*
X009863Y010886D02*
X009729Y010886D01*
X009729Y010984D02*
X009863Y010984D01*
X009863Y011083D02*
X009729Y011083D01*
X009729Y011181D02*
X009863Y011181D01*
X009863Y011280D02*
X009729Y011280D01*
X009115Y011280D02*
X009002Y011280D01*
X009002Y011181D02*
X009115Y011181D01*
X009115Y011083D02*
X009002Y011083D01*
X008964Y010984D02*
X009115Y010984D01*
X009115Y010886D02*
X008964Y010886D01*
X008964Y010787D02*
X009140Y010787D01*
X009117Y010689D02*
X009232Y010689D01*
X009232Y010590D02*
X009118Y010590D01*
X009118Y010492D02*
X009232Y010492D01*
X009232Y010393D02*
X009118Y010393D01*
X009118Y010295D02*
X009323Y010295D01*
X009294Y010196D02*
X009118Y010196D01*
X009092Y010098D02*
X009292Y010098D01*
X009292Y009999D02*
X009156Y009999D01*
X009158Y009901D02*
X009329Y009901D01*
X009372Y009802D02*
X008860Y009802D01*
X008860Y009708D02*
X009158Y009708D01*
X009158Y009520D01*
X009148Y009482D01*
X009128Y009448D01*
X009100Y009420D01*
X009066Y009400D01*
X009028Y009390D01*
X008860Y009390D01*
X008860Y009708D01*
X008860Y009704D02*
X008763Y009704D01*
X008763Y009802D02*
X008269Y009802D01*
X008172Y009802D02*
X000300Y009802D01*
X000300Y009704D02*
X007874Y009704D01*
X007874Y009605D02*
X000300Y009605D01*
X000300Y009507D02*
X007878Y009507D01*
X007952Y009408D02*
X000300Y009408D01*
X000300Y009310D02*
X010817Y009310D01*
X010817Y009408D02*
X009081Y009408D01*
X009155Y009507D02*
X010817Y009507D01*
X010817Y009605D02*
X009940Y009605D01*
X010121Y009704D02*
X010817Y009704D01*
X010817Y009802D02*
X010219Y009802D01*
X010262Y009901D02*
X010817Y009901D01*
X010817Y009999D02*
X010299Y009999D01*
X010299Y010098D02*
X010817Y010098D01*
X010817Y010196D02*
X010297Y010196D01*
X010256Y010295D02*
X010817Y010295D01*
X010817Y010393D02*
X010206Y010393D01*
X010107Y010492D02*
X010817Y010492D01*
X010817Y010590D02*
X009906Y010590D01*
X008084Y010787D02*
X007907Y010787D01*
X007964Y010845D02*
X007820Y010701D01*
X007709Y010590D01*
X006961Y010590D01*
X006850Y010701D01*
X006653Y010898D01*
X006653Y011882D01*
X006371Y012165D01*
X004993Y012165D01*
X004881Y012276D01*
X004525Y012632D01*
X004525Y013058D01*
X004487Y013097D01*
X004487Y014054D01*
X004551Y014118D01*
X004879Y014118D01*
X004943Y014054D01*
X004943Y013097D01*
X004905Y013058D01*
X004905Y012790D01*
X005150Y012545D01*
X006528Y012545D01*
X006922Y012151D01*
X007033Y012040D01*
X007033Y011055D01*
X007118Y010970D01*
X007552Y010970D01*
X007584Y011002D01*
X007584Y011011D01*
X007546Y011049D01*
X007546Y012007D01*
X007610Y012071D01*
X007938Y012071D01*
X008002Y012007D01*
X008002Y011049D01*
X007964Y011011D01*
X007964Y010845D01*
X007964Y010886D02*
X008084Y010886D01*
X008084Y010984D02*
X007964Y010984D01*
X008002Y011083D02*
X008046Y011083D01*
X008046Y011181D02*
X008002Y011181D01*
X008002Y011280D02*
X008046Y011280D01*
X008046Y011378D02*
X008002Y011378D01*
X008002Y011477D02*
X008046Y011477D01*
X008046Y011575D02*
X008002Y011575D01*
X008002Y011674D02*
X008046Y011674D01*
X008046Y011772D02*
X008002Y011772D01*
X008002Y011871D02*
X008046Y011871D01*
X008046Y011969D02*
X008002Y011969D01*
X007941Y012068D02*
X008084Y012068D01*
X008084Y012166D02*
X007434Y012166D01*
X007441Y012068D02*
X007607Y012068D01*
X007546Y011969D02*
X007502Y011969D01*
X007502Y011871D02*
X007546Y011871D01*
X007546Y011772D02*
X007502Y011772D01*
X007502Y011674D02*
X007546Y011674D01*
X007546Y011575D02*
X007502Y011575D01*
X007502Y011477D02*
X007546Y011477D01*
X007546Y011378D02*
X007502Y011378D01*
X007502Y011280D02*
X007546Y011280D01*
X007546Y011181D02*
X007502Y011181D01*
X007502Y011083D02*
X007546Y011083D01*
X007566Y010984D02*
X007104Y010984D01*
X007046Y011083D02*
X007033Y011083D01*
X007033Y011181D02*
X007046Y011181D01*
X007033Y011280D02*
X007046Y011280D01*
X007033Y011378D02*
X007046Y011378D01*
X007033Y011477D02*
X007046Y011477D01*
X007033Y011575D02*
X007046Y011575D01*
X007033Y011674D02*
X007046Y011674D01*
X007033Y011772D02*
X007046Y011772D01*
X007033Y011871D02*
X007046Y011871D01*
X007033Y011969D02*
X007046Y011969D01*
X007005Y012068D02*
X007107Y012068D01*
X007114Y012166D02*
X006906Y012166D01*
X006808Y012265D02*
X007114Y012265D01*
X007114Y012363D02*
X006709Y012363D01*
X006611Y012462D02*
X007100Y012462D01*
X007001Y012560D02*
X005134Y012560D01*
X005036Y012659D02*
X006903Y012659D01*
X006804Y012757D02*
X004937Y012757D01*
X004905Y012856D02*
X006706Y012856D01*
X006607Y012954D02*
X004905Y012954D01*
X004905Y013053D02*
X005030Y013053D01*
X004987Y013151D02*
X004943Y013151D01*
X004943Y013250D02*
X004987Y013250D01*
X004987Y013348D02*
X004943Y013348D01*
X004943Y013447D02*
X004987Y013447D01*
X004985Y013545D02*
X004943Y013545D01*
X004943Y013644D02*
X004985Y013644D01*
X004987Y013742D02*
X004943Y013742D01*
X004943Y013841D02*
X004987Y013841D01*
X004987Y013939D02*
X004943Y013939D01*
X004943Y014038D02*
X004987Y014038D01*
X005443Y014038D02*
X005487Y014038D01*
X005487Y013939D02*
X005443Y013939D01*
X005443Y013841D02*
X005487Y013841D01*
X005687Y014136D02*
X000300Y014136D01*
X000300Y014038D02*
X004487Y014038D01*
X004487Y013939D02*
X000300Y013939D01*
X000300Y013841D02*
X004487Y013841D01*
X004487Y013742D02*
X000300Y013742D01*
X000300Y013644D02*
X004487Y013644D01*
X004487Y013545D02*
X000300Y013545D01*
X000300Y013447D02*
X004487Y013447D01*
X004487Y013348D02*
X000300Y013348D01*
X000300Y013250D02*
X004487Y013250D01*
X004487Y013151D02*
X000300Y013151D01*
X000300Y013053D02*
X004525Y013053D01*
X004525Y012954D02*
X000300Y012954D01*
X000300Y012856D02*
X004525Y012856D01*
X004525Y012757D02*
X000300Y012757D01*
X000300Y012659D02*
X004525Y012659D01*
X004597Y012560D02*
X000300Y012560D01*
X000300Y012462D02*
X004695Y012462D01*
X004794Y012363D02*
X000300Y012363D01*
X000300Y012265D02*
X004892Y012265D01*
X004991Y012166D02*
X000300Y012166D01*
X000300Y012068D02*
X004548Y012068D01*
X004551Y012071D02*
X004487Y012007D01*
X004487Y011625D01*
X004485Y011623D01*
X004485Y011433D01*
X004487Y011431D01*
X004487Y011049D01*
X004551Y010985D01*
X004879Y010985D01*
X004943Y011049D01*
X004943Y011298D01*
X004987Y011298D01*
X004987Y011049D01*
X005051Y010985D01*
X005195Y010985D01*
X005195Y010820D01*
X005180Y010813D01*
X005038Y010672D01*
X004961Y010486D01*
X004961Y010286D01*
X005038Y010101D01*
X005180Y009959D01*
X005365Y009883D01*
X005565Y009883D01*
X005750Y009959D01*
X005892Y010101D01*
X005969Y010286D01*
X005969Y010486D01*
X005892Y010672D01*
X005750Y010813D01*
X005735Y010820D01*
X005735Y010985D01*
X005879Y010985D01*
X005943Y011049D01*
X005943Y011298D01*
X005987Y011298D01*
X005987Y011049D01*
X006051Y010985D01*
X006379Y010985D01*
X006443Y011049D01*
X006443Y011431D01*
X006445Y011433D01*
X006445Y011623D01*
X006443Y011625D01*
X006443Y012007D01*
X006379Y012071D01*
X006051Y012071D01*
X005987Y012007D01*
X005987Y011758D01*
X005943Y011758D01*
X005943Y012007D01*
X005879Y012071D01*
X005551Y012071D01*
X005487Y012007D01*
X005487Y011758D01*
X005443Y011758D01*
X005443Y012007D01*
X005379Y012071D01*
X005051Y012071D01*
X004987Y012007D01*
X004987Y011758D01*
X004943Y011758D01*
X004943Y012007D01*
X004879Y012071D01*
X004551Y012071D01*
X004487Y011969D02*
X000300Y011969D01*
X000300Y011871D02*
X004487Y011871D01*
X004487Y011772D02*
X000300Y011772D01*
X000300Y011674D02*
X004487Y011674D01*
X004485Y011575D02*
X000300Y011575D01*
X000300Y011477D02*
X004485Y011477D01*
X004487Y011378D02*
X000300Y011378D01*
X000300Y011280D02*
X004487Y011280D01*
X004487Y011181D02*
X000300Y011181D01*
X000300Y011083D02*
X004487Y011083D01*
X004943Y011083D02*
X004987Y011083D01*
X004987Y011181D02*
X004943Y011181D01*
X004943Y011280D02*
X004987Y011280D01*
X005195Y010984D02*
X000300Y010984D01*
X000300Y010886D02*
X003083Y010886D01*
X003091Y010890D02*
X003015Y010851D01*
X002945Y010801D01*
X002885Y010740D01*
X002835Y010671D01*
X002796Y010595D01*
X002769Y010514D01*
X002757Y010436D01*
X003250Y010436D01*
X003250Y010929D01*
X003172Y010917D01*
X003091Y010890D01*
X003250Y010886D02*
X003350Y010886D01*
X003350Y010929D02*
X003427Y010917D01*
X003508Y010890D01*
X003585Y010851D01*
X003654Y010801D01*
X003714Y010740D01*
X003765Y010671D01*
X003803Y010595D01*
X003830Y010514D01*
X003842Y010436D01*
X003350Y010436D01*
X003350Y010336D01*
X003842Y010336D01*
X003830Y010259D01*
X003803Y010178D01*
X003765Y010101D01*
X003714Y010032D01*
X003654Y009972D01*
X003585Y009921D01*
X003508Y009882D01*
X003427Y009856D01*
X003350Y009844D01*
X003350Y010336D01*
X003250Y010336D01*
X003250Y009844D01*
X003172Y009856D01*
X003091Y009882D01*
X003015Y009921D01*
X002945Y009972D01*
X002885Y010032D01*
X002835Y010101D01*
X002796Y010178D01*
X002769Y010259D01*
X002757Y010336D01*
X003250Y010336D01*
X003250Y010436D01*
X003350Y010436D01*
X003350Y010929D01*
X003350Y010787D02*
X003250Y010787D01*
X003250Y010689D02*
X003350Y010689D01*
X003350Y010590D02*
X003250Y010590D01*
X003250Y010492D02*
X003350Y010492D01*
X003350Y010393D02*
X004961Y010393D01*
X004961Y010295D02*
X003836Y010295D01*
X003810Y010196D02*
X004998Y010196D01*
X005041Y010098D02*
X003762Y010098D01*
X003682Y009999D02*
X005139Y009999D01*
X005320Y009901D02*
X003545Y009901D01*
X003350Y009901D02*
X003250Y009901D01*
X003250Y009999D02*
X003350Y009999D01*
X003350Y010098D02*
X003250Y010098D01*
X003250Y010196D02*
X003350Y010196D01*
X003350Y010295D02*
X003250Y010295D01*
X003250Y010393D02*
X000300Y010393D01*
X000300Y010295D02*
X002764Y010295D01*
X002790Y010196D02*
X000300Y010196D01*
X000300Y010098D02*
X002837Y010098D01*
X002917Y009999D02*
X000300Y009999D01*
X000300Y009901D02*
X003054Y009901D01*
X002766Y010492D02*
X000300Y010492D01*
X000300Y010590D02*
X002794Y010590D01*
X002847Y010689D02*
X000300Y010689D01*
X000300Y010787D02*
X002932Y010787D01*
X003516Y010886D02*
X005195Y010886D01*
X005154Y010787D02*
X003667Y010787D01*
X003752Y010689D02*
X005055Y010689D01*
X005004Y010590D02*
X003805Y010590D01*
X003833Y010492D02*
X004964Y010492D01*
X005776Y010787D02*
X006764Y010787D01*
X006862Y010689D02*
X005875Y010689D01*
X005926Y010590D02*
X006961Y010590D01*
X006665Y010886D02*
X005735Y010886D01*
X005735Y010984D02*
X006653Y010984D01*
X006653Y011083D02*
X006443Y011083D01*
X006443Y011181D02*
X006653Y011181D01*
X006653Y011280D02*
X006443Y011280D01*
X006443Y011378D02*
X006653Y011378D01*
X006653Y011477D02*
X006445Y011477D01*
X006445Y011575D02*
X006653Y011575D01*
X006653Y011674D02*
X006443Y011674D01*
X006443Y011772D02*
X006653Y011772D01*
X006653Y011871D02*
X006443Y011871D01*
X006443Y011969D02*
X006566Y011969D01*
X006467Y012068D02*
X006382Y012068D01*
X006048Y012068D02*
X005882Y012068D01*
X005943Y011969D02*
X005987Y011969D01*
X005987Y011871D02*
X005943Y011871D01*
X005943Y011772D02*
X005987Y011772D01*
X005987Y011280D02*
X005943Y011280D01*
X005943Y011181D02*
X005987Y011181D01*
X005987Y011083D02*
X005943Y011083D01*
X005966Y010492D02*
X007914Y010492D01*
X007914Y010590D02*
X007710Y010590D01*
X007808Y010689D02*
X007915Y010689D01*
X007914Y010393D02*
X005969Y010393D01*
X005969Y010295D02*
X007914Y010295D01*
X007914Y010196D02*
X005932Y010196D01*
X005889Y010098D02*
X007941Y010098D01*
X007876Y009999D02*
X005791Y009999D01*
X005610Y009901D02*
X007874Y009901D01*
X008172Y009704D02*
X008269Y009704D01*
X008269Y009605D02*
X008172Y009605D01*
X008172Y009507D02*
X008269Y009507D01*
X008269Y009408D02*
X008172Y009408D01*
X008490Y009408D02*
X008542Y009408D01*
X008763Y009408D02*
X008860Y009408D01*
X008860Y009507D02*
X008763Y009507D01*
X008763Y009605D02*
X008860Y009605D01*
X009158Y009605D02*
X009652Y009605D01*
X009470Y009704D02*
X009158Y009704D01*
X010817Y009211D02*
X000300Y009211D01*
X000300Y009113D02*
X010817Y009113D01*
X010817Y009014D02*
X000300Y009014D01*
X000300Y008916D02*
X010817Y008916D01*
X010817Y008817D02*
X000300Y008817D01*
X000300Y008719D02*
X010817Y008719D01*
X010817Y008620D02*
X000300Y008620D01*
X000300Y008522D02*
X010843Y008522D01*
X010942Y008423D02*
X000300Y008423D01*
X000300Y008325D02*
X011040Y008325D01*
X011139Y008226D02*
X000300Y008226D01*
X000300Y008128D02*
X011237Y008128D01*
X011336Y008029D02*
X000300Y008029D01*
X000300Y007931D02*
X011434Y007931D01*
X011533Y007832D02*
X000300Y007832D01*
X000300Y007734D02*
X011631Y007734D01*
X011730Y007635D02*
X000300Y007635D01*
X000300Y007537D02*
X011828Y007537D01*
X011927Y007438D02*
X000300Y007438D01*
X000300Y007340D02*
X008718Y007340D01*
X008619Y007241D02*
X000300Y007241D01*
X000300Y007143D02*
X008521Y007143D01*
X008422Y007044D02*
X000300Y007044D01*
X000300Y006946D02*
X002876Y006946D01*
X002865Y006935D02*
X002845Y006901D01*
X002835Y006863D01*
X002835Y006302D01*
X003525Y006302D01*
X003525Y006202D01*
X003625Y006202D01*
X003625Y005512D01*
X004185Y005512D01*
X004224Y005522D01*
X004258Y005542D01*
X004286Y005570D01*
X004306Y005604D01*
X004316Y005642D01*
X004316Y006202D01*
X003625Y006202D01*
X003625Y006302D01*
X004316Y006302D01*
X004316Y006863D01*
X004306Y006901D01*
X004286Y006935D01*
X004258Y006963D01*
X004224Y006983D01*
X004185Y006993D01*
X003625Y006993D01*
X003625Y006302D01*
X003525Y006302D01*
X003525Y006993D01*
X002965Y006993D01*
X002927Y006983D01*
X002893Y006963D01*
X002865Y006935D01*
X002835Y006847D02*
X000300Y006847D01*
X000300Y006749D02*
X002835Y006749D01*
X002835Y006650D02*
X000300Y006650D01*
X000300Y006552D02*
X002835Y006552D01*
X002835Y006453D02*
X000300Y006453D01*
X000300Y006355D02*
X002835Y006355D01*
X002835Y006202D02*
X002835Y005642D01*
X002845Y005604D01*
X002865Y005570D01*
X002893Y005542D01*
X002927Y005522D01*
X002965Y005512D01*
X003525Y005512D01*
X003525Y006202D01*
X002835Y006202D01*
X002835Y006158D02*
X000300Y006158D01*
X000300Y006256D02*
X003525Y006256D01*
X003525Y006158D02*
X003625Y006158D01*
X003625Y006256D02*
X008418Y006256D01*
X008418Y006158D02*
X004316Y006158D01*
X004316Y006059D02*
X008418Y006059D01*
X008418Y005961D02*
X004316Y005961D01*
X004316Y005862D02*
X008418Y005862D01*
X008418Y005764D02*
X004316Y005764D01*
X004316Y005665D02*
X008418Y005665D01*
X008418Y005567D02*
X004283Y005567D01*
X003625Y005567D02*
X003525Y005567D01*
X003525Y005665D02*
X003625Y005665D01*
X003625Y005764D02*
X003525Y005764D01*
X003525Y005862D02*
X003625Y005862D01*
X003625Y005961D02*
X003525Y005961D01*
X003525Y006059D02*
X003625Y006059D01*
X003625Y006355D02*
X003525Y006355D01*
X003525Y006453D02*
X003625Y006453D01*
X003625Y006552D02*
X003525Y006552D01*
X003525Y006650D02*
X003625Y006650D01*
X003625Y006749D02*
X003525Y006749D01*
X003525Y006847D02*
X003625Y006847D01*
X003625Y006946D02*
X003525Y006946D01*
X004275Y006946D02*
X008418Y006946D01*
X008418Y006847D02*
X004316Y006847D01*
X004316Y006749D02*
X008418Y006749D01*
X008418Y006650D02*
X004316Y006650D01*
X004316Y006552D02*
X008418Y006552D01*
X008418Y006453D02*
X004316Y006453D01*
X004316Y006355D02*
X008418Y006355D01*
X008418Y005468D02*
X000300Y005468D01*
X000300Y005370D02*
X008418Y005370D01*
X008418Y005271D02*
X000300Y005271D01*
X000300Y005173D02*
X008418Y005173D01*
X008418Y005074D02*
X000300Y005074D01*
X000300Y004976D02*
X008513Y004976D01*
X008612Y004877D02*
X000300Y004877D01*
X000300Y004779D02*
X008710Y004779D01*
X008809Y004680D02*
X000300Y004680D01*
X000300Y004582D02*
X008907Y004582D01*
X009006Y004483D02*
X000300Y004483D01*
X000300Y004385D02*
X009104Y004385D01*
X009203Y004286D02*
X000300Y004286D01*
X000300Y004188D02*
X009870Y004188D01*
X009676Y004089D02*
X000300Y004089D01*
X000300Y003991D02*
X009578Y003991D01*
X009530Y003892D02*
X000300Y003892D01*
X000300Y003794D02*
X009489Y003794D01*
X009489Y003695D02*
X000300Y003695D01*
X000300Y003597D02*
X009489Y003597D01*
X009528Y003498D02*
X000300Y003498D01*
X000300Y003400D02*
X009574Y003400D01*
X009672Y003301D02*
X000300Y003301D01*
X000300Y003203D02*
X001354Y003203D01*
X001283Y003173D02*
X001064Y002954D01*
X000945Y002667D01*
X000945Y002357D01*
X001064Y002070D01*
X001283Y001851D01*
X001570Y001732D01*
X001880Y001732D01*
X002167Y001851D01*
X002386Y002070D01*
X002505Y002357D01*
X002505Y002667D01*
X002386Y002954D01*
X002167Y003173D01*
X001880Y003292D01*
X001570Y003292D01*
X001283Y003173D01*
X001214Y003104D02*
X000300Y003104D01*
X000300Y003006D02*
X001116Y003006D01*
X001044Y002907D02*
X000300Y002907D01*
X000300Y002809D02*
X001004Y002809D01*
X000963Y002710D02*
X000300Y002710D01*
X000300Y002612D02*
X000945Y002612D01*
X000945Y002513D02*
X000300Y002513D01*
X000306Y002415D02*
X000945Y002415D01*
X000962Y002316D02*
X000315Y002316D01*
X000341Y002218D02*
X001003Y002218D01*
X001043Y002119D02*
X000368Y002119D01*
X000394Y002021D02*
X001113Y002021D01*
X001212Y001922D02*
X000434Y001922D01*
X000491Y001824D02*
X001348Y001824D01*
X000839Y001430D02*
X018063Y001430D01*
X018063Y001528D02*
X000740Y001528D01*
X000642Y001627D02*
X018063Y001627D01*
X018063Y001725D02*
X000548Y001725D01*
X000945Y001331D02*
X018063Y001331D01*
X018063Y001233D02*
X001115Y001233D01*
X001409Y001134D02*
X018063Y001134D01*
X018654Y001134D02*
X027984Y001134D01*
X027807Y001233D02*
X018654Y001233D01*
X018654Y001331D02*
X027719Y001331D01*
X027678Y001430D02*
X018654Y001430D01*
X018654Y001528D02*
X027657Y001528D01*
X027657Y001627D02*
X018654Y001627D01*
X018654Y001725D02*
X027686Y001725D01*
X027730Y001824D02*
X027393Y001824D01*
X027425Y001922D02*
X027828Y001922D01*
X028548Y001528D02*
X030138Y001528D01*
X030138Y001430D02*
X028528Y001430D01*
X028487Y001331D02*
X030138Y001331D01*
X030138Y001233D02*
X028398Y001233D01*
X028221Y001134D02*
X030138Y001134D01*
X031225Y001134D02*
X033642Y001134D01*
X033642Y001233D02*
X031225Y001233D01*
X031225Y001331D02*
X033642Y001331D01*
X033642Y001430D02*
X031225Y001430D01*
X031225Y001528D02*
X033642Y001528D01*
X033642Y001725D02*
X031225Y001725D01*
X031225Y001824D02*
X033642Y001824D01*
X033642Y001922D02*
X031225Y001922D01*
X031225Y002021D02*
X033642Y002021D01*
X033642Y002119D02*
X031225Y002119D01*
X031188Y002218D02*
X033679Y002218D01*
X034135Y002218D02*
X034235Y002218D01*
X034235Y002119D02*
X034135Y002119D01*
X034135Y002021D02*
X034235Y002021D01*
X034235Y001922D02*
X034135Y001922D01*
X034135Y001824D02*
X034235Y001824D01*
X034729Y001528D02*
X038930Y001528D01*
X038831Y001430D02*
X034729Y001430D01*
X034729Y001331D02*
X038725Y001331D01*
X038555Y001233D02*
X034729Y001233D01*
X034729Y001134D02*
X038261Y001134D01*
X038322Y001824D02*
X039179Y001824D01*
X039236Y001922D02*
X038458Y001922D01*
X038557Y002021D02*
X039276Y002021D01*
X039302Y002119D02*
X038627Y002119D01*
X038668Y002218D02*
X039329Y002218D01*
X039355Y002316D02*
X038708Y002316D01*
X038725Y002415D02*
X039364Y002415D01*
X039370Y002513D02*
X038725Y002513D01*
X038725Y002612D02*
X039370Y002612D01*
X039370Y002710D02*
X038707Y002710D01*
X038667Y002809D02*
X039370Y002809D01*
X039370Y002907D02*
X038626Y002907D01*
X038555Y003006D02*
X039370Y003006D01*
X039370Y003104D02*
X038456Y003104D01*
X038316Y003203D02*
X039370Y003203D01*
X039370Y003301D02*
X034729Y003301D01*
X034729Y003280D02*
X034729Y003899D01*
X034235Y003899D01*
X034235Y003150D01*
X034599Y003150D01*
X034637Y003160D01*
X034671Y003180D01*
X034699Y003208D01*
X034719Y003242D01*
X034729Y003280D01*
X034695Y003203D02*
X037575Y003203D01*
X039370Y003400D02*
X034729Y003400D01*
X034729Y003498D02*
X039370Y003498D01*
X039370Y003597D02*
X034729Y003597D01*
X034729Y003695D02*
X039370Y003695D01*
X039370Y003794D02*
X034729Y003794D01*
X034729Y003892D02*
X039370Y003892D01*
X039370Y003991D02*
X034235Y003991D01*
X034235Y003999D02*
X034729Y003999D01*
X034729Y004619D01*
X034719Y004657D01*
X034699Y004691D01*
X034671Y004719D01*
X034637Y004739D01*
X034599Y004749D01*
X034235Y004749D01*
X034235Y003999D01*
X034135Y003999D01*
X034135Y003899D01*
X034235Y003899D01*
X034235Y003999D01*
X034235Y004089D02*
X034135Y004089D01*
X034135Y003999D02*
X034135Y004749D01*
X033772Y004749D01*
X033734Y004739D01*
X033700Y004719D01*
X033672Y004691D01*
X033652Y004657D01*
X033642Y004619D01*
X033642Y003999D01*
X034135Y003999D01*
X034135Y003991D02*
X033312Y003991D01*
X033312Y004089D02*
X033642Y004089D01*
X033642Y004188D02*
X033312Y004188D01*
X033312Y004286D02*
X033642Y004286D01*
X033642Y004385D02*
X033312Y004385D01*
X033312Y004483D02*
X033642Y004483D01*
X033642Y004582D02*
X033312Y004582D01*
X033288Y004680D02*
X033666Y004680D01*
X033450Y004877D02*
X039370Y004877D01*
X039370Y004779D02*
X033352Y004779D01*
X033221Y004874D02*
X033319Y004973D01*
X033319Y005229D01*
X032729Y005229D02*
X032729Y005170D01*
X032119Y004559D01*
X032119Y003989D01*
X032433Y003989D02*
X032433Y004579D01*
X032729Y004874D01*
X033221Y004874D01*
X033910Y005229D02*
X033319Y005819D01*
X033319Y005898D01*
X033398Y005977D01*
X033398Y006528D01*
X033033Y006537D02*
X033015Y006537D01*
X033015Y006914D01*
X032886Y006914D01*
X032848Y006904D01*
X032814Y006884D01*
X032804Y006874D01*
X032486Y006874D01*
X032422Y006810D01*
X032422Y006246D01*
X032465Y006203D01*
X032402Y006140D01*
X032402Y005656D01*
X032467Y005591D01*
X032991Y005591D01*
X033024Y005624D01*
X033057Y005591D01*
X033321Y005591D01*
X033377Y005536D01*
X033057Y005536D01*
X033024Y005502D01*
X032991Y005536D01*
X032467Y005536D01*
X032402Y005471D01*
X032402Y005069D01*
X032042Y004709D01*
X031994Y004709D01*
X031994Y004942D01*
X032223Y004942D01*
X032288Y005006D01*
X032288Y005530D01*
X032254Y005563D01*
X032288Y005597D01*
X032288Y006121D01*
X032281Y006127D01*
X032289Y006132D01*
X032317Y006160D01*
X032337Y006194D01*
X032347Y006233D01*
X032347Y006401D01*
X032029Y006401D01*
X032029Y006498D01*
X031932Y006498D01*
X031932Y006796D01*
X031932Y006991D01*
X032029Y006991D01*
X032029Y006498D01*
X032347Y006498D01*
X032347Y006666D01*
X032337Y006704D01*
X032317Y006738D01*
X032311Y006744D01*
X032317Y006751D01*
X032337Y006785D01*
X032347Y006823D01*
X032347Y006991D01*
X032029Y006991D01*
X032029Y007088D01*
X032347Y007088D01*
X032347Y007256D01*
X032337Y007295D01*
X032317Y007329D01*
X032289Y007357D01*
X032255Y007376D01*
X032217Y007387D01*
X032029Y007387D01*
X032029Y007088D01*
X031932Y007088D01*
X031932Y007387D01*
X031769Y007387D01*
X031843Y007460D01*
X031848Y007460D01*
X031876Y007432D01*
X032422Y007432D01*
X032422Y007152D01*
X032486Y007087D01*
X032814Y007087D01*
X032837Y007111D01*
X032860Y007087D01*
X032947Y007087D01*
X033120Y006914D01*
X033033Y006914D01*
X033033Y006537D01*
X033033Y006552D02*
X033015Y006552D01*
X033015Y006650D02*
X033033Y006650D01*
X033033Y006749D02*
X033015Y006749D01*
X033015Y006847D02*
X033033Y006847D01*
X033088Y006946D02*
X032347Y006946D01*
X032347Y006847D02*
X032460Y006847D01*
X032422Y006749D02*
X032315Y006749D01*
X032347Y006650D02*
X032422Y006650D01*
X032422Y006552D02*
X032347Y006552D01*
X032422Y006453D02*
X032029Y006453D01*
X032029Y006552D02*
X031932Y006552D01*
X031932Y006650D02*
X032029Y006650D01*
X032029Y006749D02*
X031932Y006749D01*
X031932Y006847D02*
X032029Y006847D01*
X032029Y006946D02*
X031932Y006946D01*
X032029Y007044D02*
X032990Y007044D01*
X033024Y007237D02*
X033221Y007040D01*
X033516Y007040D01*
X033910Y006646D01*
X033910Y005898D01*
X034219Y006158D02*
X039370Y006158D01*
X039370Y006256D02*
X034070Y006256D01*
X034070Y006355D02*
X039370Y006355D01*
X039370Y006453D02*
X034070Y006453D01*
X034070Y006552D02*
X039370Y006552D01*
X039370Y006650D02*
X034070Y006650D01*
X034033Y006749D02*
X039370Y006749D01*
X039370Y006847D02*
X038210Y006847D01*
X038308Y006946D02*
X039370Y006946D01*
X039370Y007044D02*
X038355Y007044D01*
X038385Y007143D02*
X039370Y007143D01*
X039370Y007241D02*
X038385Y007241D01*
X038366Y007340D02*
X039370Y007340D01*
X039370Y007438D02*
X038405Y007438D01*
X038503Y007537D02*
X039370Y007537D01*
X039370Y007635D02*
X038602Y007635D01*
X038700Y007734D02*
X039370Y007734D01*
X039370Y007832D02*
X038794Y007832D01*
X038794Y007931D02*
X039370Y007931D01*
X039370Y008029D02*
X038794Y008029D01*
X038794Y008128D02*
X039370Y008128D01*
X039370Y008226D02*
X038794Y008226D01*
X038794Y008325D02*
X039370Y008325D01*
X039370Y008423D02*
X038794Y008423D01*
X038794Y008522D02*
X039370Y008522D01*
X039370Y008620D02*
X038794Y008620D01*
X038794Y008719D02*
X039370Y008719D01*
X039370Y008817D02*
X038794Y008817D01*
X038794Y008916D02*
X039370Y008916D01*
X039370Y009014D02*
X038794Y009014D01*
X038794Y009113D02*
X039370Y009113D01*
X039370Y009211D02*
X038794Y009211D01*
X038794Y009310D02*
X039370Y009310D01*
X039370Y009408D02*
X038794Y009408D01*
X038794Y009507D02*
X039370Y009507D01*
X039370Y009605D02*
X038755Y009605D01*
X038657Y009704D02*
X039370Y009704D01*
X039370Y009802D02*
X038597Y009802D01*
X038597Y009901D02*
X039370Y009901D01*
X039370Y009999D02*
X038597Y009999D01*
X038597Y010098D02*
X039370Y010098D01*
X039370Y010196D02*
X038597Y010196D01*
X038597Y010295D02*
X039370Y010295D01*
X039370Y010393D02*
X038597Y010393D01*
X038558Y010492D02*
X039370Y010492D01*
X039370Y010590D02*
X038459Y010590D01*
X038361Y010689D02*
X039370Y010689D01*
X039370Y010787D02*
X038262Y010787D01*
X038305Y010886D02*
X039370Y010886D01*
X039370Y010984D02*
X038372Y010984D01*
X038410Y011083D02*
X039370Y011083D01*
X039370Y011181D02*
X037994Y011181D01*
X037994Y011254D02*
X038424Y011254D01*
X038413Y011318D01*
X038390Y011389D01*
X038356Y011457D01*
X038311Y011518D01*
X038258Y011571D01*
X038197Y011616D01*
X038130Y011650D01*
X038058Y011673D01*
X037994Y011683D01*
X037994Y011254D01*
X037994Y011280D02*
X037897Y011280D01*
X037897Y011378D02*
X037994Y011378D01*
X037994Y011477D02*
X037897Y011477D01*
X037897Y011575D02*
X037994Y011575D01*
X037994Y011674D02*
X037897Y011674D01*
X037837Y011674D02*
X037229Y011674D01*
X037229Y011772D02*
X039370Y011772D01*
X039370Y011674D02*
X038054Y011674D01*
X038252Y011575D02*
X039370Y011575D01*
X039370Y011477D02*
X038341Y011477D01*
X038394Y011378D02*
X039370Y011378D01*
X039370Y011280D02*
X038419Y011280D01*
X037897Y011181D02*
X034453Y011181D01*
X034453Y011083D02*
X037480Y011083D01*
X037519Y010984D02*
X034724Y010984D01*
X034822Y010886D02*
X037586Y010886D01*
X037628Y010787D02*
X034832Y010787D01*
X034832Y010689D02*
X037530Y010689D01*
X037431Y010590D02*
X034916Y010590D01*
X035015Y010492D02*
X037333Y010492D01*
X037355Y010288D02*
X037748Y010681D01*
X038142Y010681D01*
X038437Y010386D01*
X038437Y009697D01*
X038634Y009500D01*
X038634Y007894D01*
X037945Y007205D01*
X037918Y007178D01*
X037099Y007178D01*
X034658Y007178D01*
X034194Y007143D02*
X033639Y007143D01*
X033626Y007241D02*
X034194Y007241D01*
X034194Y007340D02*
X033626Y007340D01*
X033626Y007438D02*
X034194Y007438D01*
X033626Y007537D02*
X037655Y007537D01*
X037566Y007438D02*
X037563Y007438D01*
X037834Y007635D02*
X033626Y007635D01*
X033607Y007734D02*
X038248Y007734D01*
X038195Y007832D02*
X038318Y007956D01*
X038385Y008118D01*
X038385Y008293D01*
X038352Y008372D01*
X038474Y008494D01*
X038474Y007960D01*
X038474Y008029D02*
X038349Y008029D01*
X038385Y008128D02*
X038474Y008128D01*
X038474Y008226D02*
X038385Y008226D01*
X038372Y008325D02*
X038474Y008325D01*
X038474Y008423D02*
X038404Y008423D01*
X038120Y008620D02*
X038092Y008620D01*
X038219Y008719D02*
X035251Y008719D01*
X035251Y008817D02*
X037731Y008817D01*
X037612Y008916D02*
X035251Y008916D01*
X035251Y009014D02*
X037548Y009014D01*
X037507Y009113D02*
X035251Y009113D01*
X035251Y009211D02*
X037505Y009211D01*
X037512Y009310D02*
X035251Y009310D01*
X035251Y009408D02*
X037516Y009408D01*
X037417Y009507D02*
X035324Y009507D01*
X035288Y009697D02*
X035091Y009500D01*
X035091Y008615D01*
X034796Y008319D01*
X033418Y008319D01*
X033122Y008615D01*
X033122Y009894D01*
X032926Y009894D02*
X032926Y008221D01*
X033398Y007748D01*
X033398Y007433D01*
X033024Y007433D02*
X033024Y007237D01*
X032650Y007433D02*
X032650Y008142D01*
X032729Y008221D01*
X032729Y009894D01*
X033319Y009894D02*
X033319Y009894D01*
X033319Y009508D01*
X033282Y009508D01*
X033282Y008681D01*
X033484Y008479D01*
X034729Y008479D01*
X034931Y008681D01*
X034931Y009434D01*
X034931Y009567D01*
X034925Y009567D01*
X034925Y009494D01*
X034861Y009430D01*
X034516Y009430D01*
X034572Y009374D01*
X034861Y009374D01*
X034925Y009310D01*
X034931Y009310D01*
X034925Y009310D02*
X034925Y008825D01*
X034861Y008760D01*
X034337Y008760D01*
X034330Y008767D01*
X034325Y008759D01*
X034297Y008731D01*
X034263Y008711D01*
X034225Y008701D01*
X034057Y008701D01*
X034057Y009019D01*
X033960Y009019D01*
X033960Y008701D01*
X033792Y008701D01*
X033754Y008711D01*
X033719Y008731D01*
X033691Y008759D01*
X033672Y008793D01*
X033661Y008831D01*
X033661Y009019D01*
X033960Y009019D01*
X033960Y009116D01*
X033661Y009116D01*
X033661Y009304D01*
X033672Y009342D01*
X033691Y009376D01*
X033719Y009404D01*
X033753Y009423D01*
X033701Y009475D01*
X033701Y009724D01*
X033685Y009724D01*
X033685Y009612D01*
X033621Y009548D01*
X033480Y009548D01*
X033470Y009538D01*
X033436Y009518D01*
X033398Y009508D01*
X033319Y009508D01*
X033319Y009894D01*
X033319Y009802D02*
X033319Y009802D01*
X033319Y009704D02*
X033319Y009704D01*
X033319Y009605D02*
X033319Y009605D01*
X033282Y009507D02*
X033701Y009507D01*
X033701Y009605D02*
X033678Y009605D01*
X033685Y009704D02*
X033701Y009704D01*
X033727Y009408D02*
X033282Y009408D01*
X033282Y009310D02*
X033663Y009310D01*
X033661Y009211D02*
X033282Y009211D01*
X033282Y009113D02*
X033960Y009113D01*
X033960Y009014D02*
X034057Y009014D01*
X034057Y008916D02*
X033960Y008916D01*
X033960Y008817D02*
X034057Y008817D01*
X034057Y008719D02*
X033960Y008719D01*
X033740Y008719D02*
X033282Y008719D01*
X033282Y008817D02*
X033665Y008817D01*
X033661Y008916D02*
X033282Y008916D01*
X033282Y009014D02*
X033661Y009014D01*
X034277Y008719D02*
X034931Y008719D01*
X034918Y008817D02*
X034931Y008817D01*
X034925Y008916D02*
X034931Y008916D01*
X034925Y009014D02*
X034931Y009014D01*
X034925Y009113D02*
X034931Y009113D01*
X034925Y009211D02*
X034931Y009211D01*
X034931Y009408D02*
X034538Y009408D01*
X034925Y009507D02*
X034931Y009507D01*
X035288Y009697D02*
X037453Y009697D01*
X037945Y009205D01*
X038159Y008817D02*
X038267Y008817D01*
X037798Y008620D02*
X035251Y008620D01*
X035225Y008522D02*
X037640Y008522D01*
X037559Y008423D02*
X035126Y008423D01*
X035028Y008325D02*
X037519Y008325D01*
X037505Y008226D02*
X034929Y008226D01*
X034772Y008522D02*
X033441Y008522D01*
X033343Y008620D02*
X034871Y008620D01*
X033442Y007931D02*
X037597Y007931D01*
X037542Y008029D02*
X033343Y008029D01*
X033245Y008128D02*
X037505Y008128D01*
X037696Y007832D02*
X033540Y007832D01*
X033284Y008226D02*
X033146Y008226D01*
X033186Y008325D02*
X033086Y008325D01*
X033086Y008423D02*
X033087Y008423D01*
X031869Y007438D02*
X031821Y007438D01*
X031932Y007340D02*
X032029Y007340D01*
X032029Y007241D02*
X031932Y007241D01*
X031932Y007143D02*
X032029Y007143D01*
X032347Y007143D02*
X032431Y007143D01*
X032422Y007241D02*
X032347Y007241D01*
X032306Y007340D02*
X032422Y007340D01*
X032650Y006528D02*
X032650Y005977D01*
X032729Y005898D01*
X032402Y005862D02*
X032288Y005862D01*
X032288Y005764D02*
X032402Y005764D01*
X032402Y005665D02*
X032288Y005665D01*
X032258Y005567D02*
X033345Y005567D01*
X034236Y005271D02*
X039370Y005271D01*
X039370Y005173D02*
X034236Y005173D01*
X034236Y005074D02*
X039370Y005074D01*
X039370Y004976D02*
X034226Y004976D01*
X034235Y004680D02*
X034135Y004680D01*
X034135Y004582D02*
X034235Y004582D01*
X034235Y004483D02*
X034135Y004483D01*
X034135Y004385D02*
X034235Y004385D01*
X034235Y004286D02*
X034135Y004286D01*
X034135Y004188D02*
X034235Y004188D01*
X034235Y003892D02*
X034135Y003892D01*
X034135Y003794D02*
X034235Y003794D01*
X034235Y003695D02*
X034135Y003695D01*
X034135Y003597D02*
X034235Y003597D01*
X034235Y003498D02*
X034135Y003498D01*
X034135Y003400D02*
X034235Y003400D01*
X034235Y003301D02*
X034135Y003301D01*
X034135Y003203D02*
X034235Y003203D01*
X033642Y003400D02*
X033312Y003400D01*
X033312Y003498D02*
X033642Y003498D01*
X033642Y003597D02*
X033312Y003597D01*
X033312Y003695D02*
X033642Y003695D01*
X033642Y003794D02*
X033312Y003794D01*
X033312Y003892D02*
X033642Y003892D01*
X033063Y003892D02*
X033063Y003892D01*
X033063Y003794D02*
X033063Y003794D01*
X033063Y003695D02*
X033063Y003695D01*
X033063Y003597D02*
X033063Y003597D01*
X033063Y003498D02*
X033063Y003498D01*
X033063Y003400D02*
X033063Y003400D01*
X033063Y003301D02*
X033063Y003301D01*
X033162Y003104D02*
X031705Y003104D01*
X031753Y003085D02*
X031632Y003135D01*
X031502Y003135D01*
X031382Y003085D01*
X031290Y002993D01*
X031240Y002873D01*
X031240Y002742D01*
X031290Y002622D01*
X031382Y002530D01*
X031502Y002480D01*
X031632Y002480D01*
X031753Y002530D01*
X031845Y002622D01*
X031894Y002742D01*
X031894Y002873D01*
X031845Y002993D01*
X031753Y003085D01*
X031832Y003006D02*
X033035Y003006D01*
X032987Y002907D02*
X031880Y002907D01*
X031894Y002809D02*
X032972Y002809D01*
X032986Y002710D02*
X031881Y002710D01*
X031834Y002612D02*
X033032Y002612D01*
X033155Y002513D02*
X031712Y002513D01*
X031422Y002513D02*
X027425Y002513D01*
X027444Y003006D02*
X031303Y003006D01*
X031255Y002907D02*
X025999Y002907D01*
X025999Y002809D02*
X031240Y002809D01*
X031253Y002710D02*
X025999Y002710D01*
X025999Y002612D02*
X031300Y002612D01*
X030731Y002218D02*
X030631Y002218D01*
X030631Y002119D02*
X030731Y002119D01*
X030731Y002021D02*
X030631Y002021D01*
X030631Y001922D02*
X030731Y001922D01*
X030731Y001824D02*
X030631Y001824D01*
X031429Y003104D02*
X027465Y003104D01*
X027465Y003203D02*
X030172Y003203D01*
X030138Y003301D02*
X027465Y003301D01*
X026814Y003301D02*
X026714Y003301D01*
X026714Y003203D02*
X026814Y003203D01*
X026814Y003104D02*
X026714Y003104D01*
X026714Y003006D02*
X026814Y003006D01*
X026714Y003400D02*
X025999Y003400D01*
X025999Y003498D02*
X026063Y003498D01*
X026063Y003597D02*
X025999Y003597D01*
X025999Y003695D02*
X026064Y003695D01*
X026121Y003794D02*
X026155Y003813D01*
X026193Y003824D01*
X026714Y003824D01*
X026714Y003428D01*
X026814Y003428D01*
X026814Y003498D02*
X026714Y003498D01*
X026714Y003597D02*
X026814Y003597D01*
X026814Y003695D02*
X026714Y003695D01*
X026714Y003794D02*
X026814Y003794D01*
X026063Y003301D02*
X025999Y003301D01*
X025999Y003203D02*
X026063Y003203D01*
X026063Y003104D02*
X025999Y003104D01*
X025999Y003006D02*
X026084Y003006D01*
X025679Y003006D02*
X022357Y003006D01*
X022357Y003104D02*
X025679Y003104D01*
X025679Y003203D02*
X022357Y003203D01*
X022357Y003301D02*
X025679Y003301D01*
X025679Y003400D02*
X022357Y003400D01*
X022357Y003498D02*
X025679Y003498D01*
X025679Y003597D02*
X022357Y003597D01*
X022357Y003695D02*
X025679Y003695D01*
X025679Y003794D02*
X022357Y003794D01*
X022357Y003892D02*
X025679Y003892D01*
X025679Y003991D02*
X022357Y003991D01*
X022357Y004089D02*
X025679Y004089D01*
X025679Y004188D02*
X022357Y004188D01*
X022357Y004286D02*
X025679Y004286D01*
X025679Y004385D02*
X022357Y004385D01*
X022357Y004483D02*
X025679Y004483D01*
X025679Y004582D02*
X022357Y004582D01*
X022357Y004680D02*
X025679Y004680D01*
X025679Y004779D02*
X022357Y004779D01*
X022357Y004877D02*
X025679Y004877D01*
X025679Y004976D02*
X022357Y004976D01*
X022357Y005074D02*
X025679Y005074D01*
X026036Y005367D02*
X026626Y005957D01*
X026036Y005367D02*
X026036Y004579D01*
X026134Y004481D01*
X027414Y004481D01*
X027512Y004579D01*
X027512Y005071D01*
X028375Y004680D02*
X030162Y004680D01*
X030138Y004582D02*
X028474Y004582D01*
X028518Y004483D02*
X030138Y004483D01*
X030138Y004385D02*
X028548Y004385D01*
X028548Y004286D02*
X030138Y004286D01*
X030138Y004188D02*
X028529Y004188D01*
X028488Y004089D02*
X030138Y004089D01*
X030631Y004188D02*
X030731Y004188D01*
X030731Y004286D02*
X030631Y004286D01*
X030631Y004385D02*
X030731Y004385D01*
X030731Y004483D02*
X030631Y004483D01*
X030631Y004582D02*
X030731Y004582D01*
X030731Y004680D02*
X030631Y004680D01*
X031201Y004680D02*
X031614Y004680D01*
X031595Y004582D02*
X031225Y004582D01*
X031225Y004483D02*
X031595Y004483D01*
X031595Y004385D02*
X031225Y004385D01*
X031225Y004286D02*
X031595Y004286D01*
X031595Y004188D02*
X031225Y004188D01*
X031225Y004089D02*
X031595Y004089D01*
X030731Y003892D02*
X030631Y003892D01*
X030631Y003794D02*
X030731Y003794D01*
X030731Y003695D02*
X030631Y003695D01*
X030631Y003597D02*
X030731Y003597D01*
X030731Y003498D02*
X030631Y003498D01*
X030631Y003400D02*
X030731Y003400D01*
X030731Y003301D02*
X030631Y003301D01*
X030631Y003203D02*
X030731Y003203D01*
X031994Y004779D02*
X032112Y004779D01*
X032210Y004877D02*
X031994Y004877D01*
X032257Y004976D02*
X032309Y004976D01*
X032288Y005074D02*
X032402Y005074D01*
X032402Y005173D02*
X032288Y005173D01*
X032288Y005271D02*
X032402Y005271D01*
X032402Y005370D02*
X032288Y005370D01*
X032288Y005468D02*
X032402Y005468D01*
X032402Y005961D02*
X032288Y005961D01*
X032288Y006059D02*
X032402Y006059D01*
X032420Y006158D02*
X032315Y006158D01*
X032347Y006256D02*
X032422Y006256D01*
X032422Y006355D02*
X032347Y006355D01*
X033738Y007044D02*
X034194Y007044D01*
X034194Y006946D02*
X033836Y006946D01*
X033935Y006847D02*
X037681Y006847D01*
X037582Y006946D02*
X037563Y006946D01*
X036634Y006946D02*
X035122Y006946D01*
X035122Y007340D02*
X036634Y007340D01*
X036634Y007438D02*
X035122Y007438D01*
X038056Y007635D02*
X038149Y007635D01*
X037511Y006077D02*
X037473Y006087D01*
X037149Y006087D01*
X037149Y005771D01*
X037603Y005771D01*
X037603Y005957D01*
X037593Y005995D01*
X037573Y006030D01*
X037545Y006057D01*
X037511Y006077D01*
X037542Y006059D02*
X039370Y006059D01*
X039370Y005961D02*
X037602Y005961D01*
X037603Y005862D02*
X039370Y005862D01*
X039370Y005764D02*
X037149Y005764D01*
X037149Y005771D02*
X037149Y005671D01*
X037603Y005671D01*
X037603Y005485D01*
X037593Y005446D01*
X037573Y005412D01*
X037545Y005384D01*
X037511Y005365D01*
X037473Y005354D01*
X037149Y005354D01*
X037149Y005671D01*
X037049Y005671D01*
X037049Y005354D01*
X036725Y005354D01*
X036687Y005365D01*
X036652Y005384D01*
X036624Y005412D01*
X036605Y005446D01*
X036594Y005485D01*
X036594Y005671D01*
X037049Y005671D01*
X037049Y005771D01*
X037049Y006087D01*
X036725Y006087D01*
X036687Y006077D01*
X036652Y006057D01*
X036624Y006030D01*
X036605Y005995D01*
X036594Y005957D01*
X036594Y005771D01*
X037049Y005771D01*
X037149Y005771D01*
X037149Y005862D02*
X037049Y005862D01*
X037049Y005764D02*
X034708Y005764D01*
X034708Y005771D02*
X035162Y005771D01*
X035162Y005957D01*
X035152Y005995D01*
X035132Y006030D01*
X035104Y006057D01*
X035070Y006077D01*
X035032Y006087D01*
X034708Y006087D01*
X034708Y005771D01*
X034708Y005862D02*
X034608Y005862D01*
X034608Y005961D02*
X034708Y005961D01*
X034708Y006059D02*
X034608Y006059D01*
X035101Y006059D02*
X036656Y006059D01*
X036595Y005961D02*
X035161Y005961D01*
X035162Y005862D02*
X036594Y005862D01*
X036594Y005665D02*
X035162Y005665D01*
X035162Y005671D02*
X034708Y005671D01*
X034708Y005354D01*
X035032Y005354D01*
X035070Y005365D01*
X035104Y005384D01*
X035132Y005412D01*
X035152Y005446D01*
X035162Y005485D01*
X035162Y005671D01*
X035162Y005567D02*
X036594Y005567D01*
X036599Y005468D02*
X035158Y005468D01*
X035079Y005370D02*
X036677Y005370D01*
X037049Y005370D02*
X037149Y005370D01*
X037149Y005468D02*
X037049Y005468D01*
X037049Y005567D02*
X037149Y005567D01*
X037149Y005665D02*
X037049Y005665D01*
X037049Y005961D02*
X037149Y005961D01*
X037149Y006059D02*
X037049Y006059D01*
X037603Y005665D02*
X039370Y005665D01*
X039370Y005567D02*
X037603Y005567D01*
X037599Y005468D02*
X039370Y005468D01*
X039370Y005370D02*
X037520Y005370D01*
X039370Y004680D02*
X034705Y004680D01*
X034729Y004582D02*
X039370Y004582D01*
X039370Y004483D02*
X034729Y004483D01*
X034729Y004385D02*
X039370Y004385D01*
X039370Y004286D02*
X034729Y004286D01*
X034729Y004188D02*
X039370Y004188D01*
X039370Y004089D02*
X034729Y004089D01*
X034708Y005370D02*
X034608Y005370D01*
X034608Y005468D02*
X034708Y005468D01*
X034708Y005567D02*
X034608Y005567D01*
X034608Y005665D02*
X034708Y005665D01*
X031614Y004976D02*
X031588Y004976D01*
X031035Y004976D02*
X030072Y004976D01*
X030103Y005074D02*
X031005Y005074D01*
X031005Y005173D02*
X030103Y005173D01*
X030103Y005271D02*
X031005Y005271D01*
X026004Y004385D02*
X025999Y004385D01*
X025679Y002907D02*
X022357Y002907D01*
X022357Y002809D02*
X025679Y002809D01*
X025679Y002710D02*
X022357Y002710D01*
X022357Y002612D02*
X025679Y002612D01*
X025679Y002513D02*
X022357Y002513D01*
X022357Y002415D02*
X025679Y002415D01*
X025710Y002316D02*
X022326Y002316D01*
X022228Y002218D02*
X025809Y002218D01*
X025907Y002119D02*
X018654Y002119D01*
X018654Y002021D02*
X026103Y002021D01*
X026103Y001922D02*
X018654Y001922D01*
X018654Y001824D02*
X026135Y001824D01*
X026103Y002415D02*
X026064Y002415D01*
X026103Y002513D02*
X025999Y002513D01*
X021529Y002513D02*
X021149Y002513D01*
X021149Y002612D02*
X021529Y002612D01*
X021529Y002710D02*
X021149Y002710D01*
X021149Y002809D02*
X021529Y002809D01*
X021529Y002907D02*
X021149Y002907D01*
X021149Y003006D02*
X021529Y003006D01*
X021529Y003104D02*
X021149Y003104D01*
X019466Y003794D02*
X019189Y003794D01*
X019175Y003892D02*
X019367Y003892D01*
X019251Y004385D02*
X019086Y004385D01*
X019182Y004483D02*
X019251Y004483D01*
X019251Y004582D02*
X019189Y004582D01*
X019189Y004680D02*
X019251Y004680D01*
X019251Y004779D02*
X019189Y004779D01*
X019189Y004877D02*
X019251Y004877D01*
X019251Y004976D02*
X019189Y004976D01*
X019189Y005074D02*
X019251Y005074D01*
X018889Y005271D02*
X018789Y005271D01*
X018789Y005370D02*
X018889Y005370D01*
X018889Y005468D02*
X018789Y005468D01*
X018789Y005567D02*
X018889Y005567D01*
X018889Y005665D02*
X018789Y005665D01*
X018789Y005764D02*
X018889Y005764D01*
X018889Y005862D02*
X018789Y005862D01*
X018789Y005961D02*
X018889Y005961D01*
X016095Y005504D02*
X014953Y005504D01*
X014914Y005465D01*
X015002Y006646D02*
X015014Y006667D01*
X015024Y006705D01*
X015024Y006893D01*
X014726Y006893D01*
X014726Y006990D01*
X015024Y006990D01*
X015024Y007175D01*
X015040Y007175D01*
X015040Y006679D01*
X015073Y006646D01*
X015002Y006646D01*
X015005Y006650D02*
X015069Y006650D01*
X015040Y006749D02*
X015024Y006749D01*
X015024Y006847D02*
X015040Y006847D01*
X015040Y006946D02*
X014726Y006946D01*
X014629Y006946D02*
X011366Y006946D01*
X011464Y006847D02*
X014331Y006847D01*
X014331Y006749D02*
X011563Y006749D01*
X011661Y006650D02*
X014350Y006650D01*
X014331Y007044D02*
X011267Y007044D01*
X011169Y007143D02*
X014331Y007143D01*
X015024Y007143D02*
X015040Y007143D01*
X015040Y007044D02*
X015024Y007044D01*
X015347Y007000D02*
X015347Y007197D01*
X015347Y007000D02*
X015406Y006941D01*
X015347Y006941D02*
X015563Y006941D01*
X015898Y006607D01*
X016095Y006607D01*
X012124Y007241D02*
X011070Y007241D01*
X010972Y007340D02*
X012025Y007340D01*
X011886Y008719D02*
X012734Y008719D01*
X012701Y008817D02*
X011788Y008817D01*
X011727Y008916D02*
X012701Y008916D01*
X012701Y009014D02*
X011727Y009014D01*
X011727Y009113D02*
X012701Y009113D01*
X012701Y009211D02*
X011727Y009211D01*
X011727Y009310D02*
X012734Y009310D01*
X012701Y009408D02*
X011727Y009408D01*
X011727Y009507D02*
X012701Y009507D01*
X012701Y009605D02*
X011727Y009605D01*
X011727Y009704D02*
X012701Y009704D01*
X012701Y009802D02*
X011727Y009802D01*
X011727Y009901D02*
X012733Y009901D01*
X012701Y009999D02*
X011727Y009999D01*
X011727Y010098D02*
X012701Y010098D01*
X012701Y010196D02*
X011727Y010196D01*
X011727Y010295D02*
X012701Y010295D01*
X012701Y010393D02*
X011727Y010393D01*
X011727Y010492D02*
X012733Y010492D01*
X012701Y010590D02*
X011727Y010590D01*
X011727Y010689D02*
X012701Y010689D01*
X012701Y010787D02*
X011727Y010787D01*
X011727Y010886D02*
X012701Y010886D01*
X012701Y010984D02*
X011727Y010984D01*
X011727Y011083D02*
X012733Y011083D01*
X012701Y011181D02*
X011727Y011181D01*
X011727Y011280D02*
X012701Y011280D01*
X012701Y011378D02*
X011687Y011378D01*
X011589Y011477D02*
X012701Y011477D01*
X012701Y011575D02*
X011490Y011575D01*
X011392Y011674D02*
X012732Y011674D01*
X012701Y011772D02*
X011293Y011772D01*
X011195Y011871D02*
X012701Y011871D01*
X012701Y011969D02*
X011096Y011969D01*
X010485Y011863D02*
X010288Y012059D01*
X010288Y012355D01*
X010091Y012552D01*
X009697Y012552D01*
X009500Y012748D01*
X008274Y012998D02*
X008221Y012945D01*
X008274Y012998D02*
X008274Y013575D01*
X008046Y013545D02*
X008002Y013545D01*
X008002Y013447D02*
X008046Y013447D01*
X008046Y013348D02*
X008002Y013348D01*
X008002Y013250D02*
X008046Y013250D01*
X008046Y013151D02*
X008002Y013151D01*
X008002Y013097D02*
X008002Y014054D01*
X007938Y014118D01*
X007934Y014118D01*
X007934Y014272D01*
X007991Y014272D01*
X008024Y014305D01*
X008077Y014253D01*
X008562Y014253D01*
X008626Y014317D01*
X008626Y014841D01*
X008575Y014893D01*
X008608Y014912D01*
X008636Y014940D01*
X008656Y014974D01*
X008666Y015012D01*
X008666Y015200D01*
X008368Y015200D01*
X008368Y015297D01*
X008666Y015297D01*
X008666Y015485D01*
X008656Y015523D01*
X008636Y015557D01*
X008608Y015585D01*
X008574Y015605D01*
X008536Y015615D01*
X008368Y015615D01*
X008368Y015297D01*
X008271Y015297D01*
X008271Y015615D01*
X008103Y015615D01*
X008065Y015605D01*
X008030Y015585D01*
X008002Y015557D01*
X007998Y015549D01*
X007991Y015555D01*
X007467Y015555D01*
X007433Y015522D01*
X007381Y015575D01*
X006896Y015575D01*
X006831Y015511D01*
X006831Y014986D01*
X006883Y014935D01*
X006849Y014916D01*
X006821Y014888D01*
X006802Y014854D01*
X006791Y014815D01*
X006791Y014628D01*
X007090Y014628D01*
X007090Y014531D01*
X007187Y014531D01*
X007187Y014213D01*
X007355Y014213D01*
X007393Y014223D01*
X007427Y014243D01*
X007455Y014270D01*
X007460Y014279D01*
X007467Y014272D01*
X007614Y014272D01*
X007614Y014118D01*
X007610Y014118D01*
X007546Y014054D01*
X007546Y013097D01*
X007610Y013032D01*
X007938Y013032D01*
X008002Y013097D01*
X007999Y013053D02*
X007958Y013053D01*
X007988Y012954D02*
X007060Y012954D01*
X007098Y013002D02*
X007136Y012992D01*
X007265Y012992D01*
X007265Y013566D01*
X007283Y013566D01*
X007283Y012992D01*
X007412Y012992D01*
X007450Y013002D01*
X007484Y013022D01*
X007512Y013050D01*
X007532Y013084D01*
X007542Y013122D01*
X007542Y013566D01*
X007283Y013566D01*
X007283Y013584D01*
X007542Y013584D01*
X007542Y014028D01*
X007532Y014066D01*
X007512Y014100D01*
X007484Y014128D01*
X007450Y014148D01*
X007412Y014158D01*
X007283Y014158D01*
X007283Y013584D01*
X007265Y013584D01*
X007265Y013566D01*
X007006Y013566D01*
X007006Y013122D01*
X007016Y013084D01*
X007036Y013050D01*
X007064Y013022D01*
X007098Y013002D01*
X007034Y013053D02*
X006962Y013053D01*
X007006Y013151D02*
X006863Y013151D01*
X006765Y013250D02*
X007006Y013250D01*
X007006Y013348D02*
X006666Y013348D01*
X006568Y013447D02*
X007006Y013447D01*
X007006Y013545D02*
X006469Y013545D01*
X006445Y013644D02*
X007006Y013644D01*
X007006Y013584D02*
X007265Y013584D01*
X007265Y014158D01*
X007136Y014158D01*
X007098Y014148D01*
X007064Y014128D01*
X007036Y014100D01*
X007016Y014066D01*
X007006Y014028D01*
X007006Y013584D01*
X007006Y013742D02*
X006443Y013742D01*
X006443Y013841D02*
X007006Y013841D01*
X007006Y013939D02*
X006443Y013939D01*
X006443Y014038D02*
X007009Y014038D01*
X007078Y014136D02*
X006227Y014136D01*
X006227Y014235D02*
X006862Y014235D01*
X006849Y014243D02*
X006883Y014223D01*
X006922Y014213D01*
X007090Y014213D01*
X007090Y014531D01*
X006791Y014531D01*
X006791Y014343D01*
X006802Y014305D01*
X006821Y014270D01*
X006849Y014243D01*
X006794Y014333D02*
X006227Y014333D01*
X006227Y014432D02*
X006791Y014432D01*
X006791Y014530D02*
X006450Y014530D01*
X006450Y014629D02*
X006791Y014629D01*
X006791Y014727D02*
X006450Y014727D01*
X006450Y014826D02*
X006794Y014826D01*
X006864Y014924D02*
X006450Y014924D01*
X006450Y015023D02*
X006831Y015023D01*
X006831Y015121D02*
X006450Y015121D01*
X006450Y015220D02*
X006831Y015220D01*
X006831Y015318D02*
X006446Y015318D01*
X006831Y015417D02*
X005246Y015417D01*
X005240Y015419D02*
X004955Y015419D01*
X004955Y014964D01*
X004855Y014964D01*
X004855Y015419D01*
X004570Y015419D01*
X004532Y015408D01*
X004498Y015389D01*
X004470Y015361D01*
X004450Y015327D01*
X004440Y015288D01*
X004440Y014964D01*
X004855Y014964D01*
X004855Y014864D01*
X004440Y014864D01*
X004440Y014539D01*
X004450Y014501D01*
X004470Y014467D01*
X004498Y014439D01*
X004532Y014419D01*
X004570Y014409D01*
X004855Y014409D01*
X004855Y014864D01*
X004955Y014864D01*
X004955Y014964D01*
X005370Y014964D01*
X005370Y015288D01*
X005360Y015327D01*
X005340Y015361D01*
X005312Y015389D01*
X005278Y015408D01*
X005240Y015419D01*
X005362Y015318D02*
X005604Y015318D01*
X005600Y015220D02*
X005370Y015220D01*
X005370Y015121D02*
X005600Y015121D01*
X005600Y015023D02*
X005370Y015023D01*
X005370Y014864D02*
X004955Y014864D01*
X004955Y014409D01*
X005240Y014409D01*
X005278Y014419D01*
X005312Y014439D01*
X005340Y014467D01*
X005360Y014501D01*
X005370Y014539D01*
X005370Y014864D01*
X005370Y014826D02*
X005600Y014826D01*
X005600Y014924D02*
X004955Y014924D01*
X004955Y014826D02*
X004855Y014826D01*
X004855Y014924D02*
X000300Y014924D01*
X000300Y014826D02*
X004440Y014826D01*
X004440Y014727D02*
X000300Y014727D01*
X000300Y014629D02*
X004440Y014629D01*
X004442Y014530D02*
X000300Y014530D01*
X000300Y014432D02*
X004510Y014432D01*
X004855Y014432D02*
X004955Y014432D01*
X004955Y014530D02*
X004855Y014530D01*
X004855Y014629D02*
X004955Y014629D01*
X004955Y014727D02*
X004855Y014727D01*
X005370Y014727D02*
X005600Y014727D01*
X005600Y014629D02*
X005370Y014629D01*
X005368Y014530D02*
X005600Y014530D01*
X005687Y014432D02*
X005300Y014432D01*
X005687Y014333D02*
X000300Y014333D01*
X000300Y014235D02*
X005687Y014235D01*
X006215Y013575D02*
X006215Y013573D01*
X007274Y012514D01*
X007274Y011528D01*
X007434Y012265D02*
X008084Y012265D01*
X008158Y012363D02*
X007434Y012363D01*
X007434Y012462D02*
X008256Y012462D01*
X008079Y012757D02*
X007257Y012757D01*
X007159Y012856D02*
X007988Y012856D01*
X007590Y013053D02*
X007514Y013053D01*
X007542Y013151D02*
X007546Y013151D01*
X007542Y013250D02*
X007546Y013250D01*
X007542Y013348D02*
X007546Y013348D01*
X007542Y013447D02*
X007546Y013447D01*
X007542Y013545D02*
X007546Y013545D01*
X007542Y013644D02*
X007546Y013644D01*
X007542Y013742D02*
X007546Y013742D01*
X007542Y013841D02*
X007546Y013841D01*
X007542Y013939D02*
X007546Y013939D01*
X007539Y014038D02*
X007546Y014038D01*
X007614Y014136D02*
X007470Y014136D01*
X007414Y014235D02*
X007614Y014235D01*
X007934Y014235D02*
X009599Y014235D01*
X009599Y014333D02*
X008626Y014333D01*
X008626Y014432D02*
X009599Y014432D01*
X009599Y014530D02*
X008626Y014530D01*
X008626Y014629D02*
X009599Y014629D01*
X009599Y014727D02*
X008626Y014727D01*
X008626Y014826D02*
X009599Y014826D01*
X009599Y014924D02*
X008621Y014924D01*
X008666Y015023D02*
X009599Y015023D01*
X009599Y015121D02*
X008666Y015121D01*
X008666Y015318D02*
X009599Y015318D01*
X009599Y015220D02*
X008368Y015220D01*
X008368Y015318D02*
X008271Y015318D01*
X008271Y015417D02*
X008368Y015417D01*
X008368Y015515D02*
X008271Y015515D01*
X008271Y015614D02*
X008368Y015614D01*
X008540Y015614D02*
X009599Y015614D01*
X009599Y015712D02*
X002492Y015712D01*
X002505Y015743D02*
X002386Y015456D01*
X002167Y015237D01*
X001880Y015118D01*
X001570Y015118D01*
X001283Y015237D01*
X001064Y015456D01*
X000945Y015743D01*
X000945Y016053D01*
X001064Y016340D01*
X001283Y016559D01*
X001570Y016678D01*
X001880Y016678D01*
X002167Y016559D01*
X002386Y016340D01*
X002505Y016053D01*
X002505Y015743D01*
X002505Y015811D02*
X009599Y015811D01*
X009599Y015909D02*
X002505Y015909D01*
X002505Y016008D02*
X009599Y016008D01*
X009599Y016106D02*
X002483Y016106D01*
X002442Y016205D02*
X009599Y016205D01*
X009599Y016303D02*
X002401Y016303D01*
X002324Y016402D02*
X009599Y016402D01*
X009599Y016500D02*
X002225Y016500D01*
X002071Y016599D02*
X009599Y016599D01*
X009587Y016697D02*
X000556Y016697D01*
X000498Y016599D02*
X001379Y016599D01*
X001224Y016500D02*
X000441Y016500D01*
X000397Y016402D02*
X001126Y016402D01*
X001049Y016303D02*
X000371Y016303D01*
X000345Y016205D02*
X001008Y016205D01*
X000967Y016106D02*
X000318Y016106D01*
X000307Y016008D02*
X000945Y016008D01*
X000945Y015909D02*
X000301Y015909D01*
X000300Y015811D02*
X000945Y015811D01*
X000957Y015712D02*
X000300Y015712D01*
X000300Y015614D02*
X000998Y015614D01*
X001039Y015515D02*
X000300Y015515D01*
X000300Y015417D02*
X001103Y015417D01*
X001201Y015318D02*
X000300Y015318D01*
X000300Y015220D02*
X001324Y015220D01*
X001562Y015121D02*
X000300Y015121D01*
X000300Y015023D02*
X004440Y015023D01*
X004440Y015121D02*
X001888Y015121D01*
X002126Y015220D02*
X004440Y015220D01*
X004448Y015318D02*
X002248Y015318D01*
X002347Y015417D02*
X004564Y015417D01*
X004855Y015417D02*
X004955Y015417D01*
X004955Y015318D02*
X004855Y015318D01*
X004855Y015220D02*
X004955Y015220D01*
X004955Y015121D02*
X004855Y015121D01*
X004855Y015023D02*
X004955Y015023D01*
X006836Y015515D02*
X002411Y015515D01*
X002451Y015614D02*
X008099Y015614D01*
X008658Y015515D02*
X009599Y015515D01*
X009599Y015417D02*
X008666Y015417D01*
X008319Y014579D02*
X007729Y014579D01*
X007729Y014520D01*
X007774Y014467D01*
X007774Y013575D01*
X008002Y013644D02*
X008046Y013644D01*
X008046Y013742D02*
X008002Y013742D01*
X008002Y013841D02*
X008046Y013841D01*
X008046Y013939D02*
X008002Y013939D01*
X008002Y014038D02*
X008046Y014038D01*
X007934Y014136D02*
X009599Y014136D01*
X007283Y014136D02*
X007265Y014136D01*
X007265Y014038D02*
X007283Y014038D01*
X007283Y013939D02*
X007265Y013939D01*
X007265Y013841D02*
X007283Y013841D01*
X007283Y013742D02*
X007265Y013742D01*
X007265Y013644D02*
X007283Y013644D01*
X007283Y013545D02*
X007265Y013545D01*
X007265Y013447D02*
X007283Y013447D01*
X007283Y013348D02*
X007265Y013348D01*
X007265Y013250D02*
X007283Y013250D01*
X007283Y013151D02*
X007265Y013151D01*
X007265Y013053D02*
X007283Y013053D01*
X006509Y013053D02*
X006399Y013053D01*
X006030Y013053D02*
X005899Y013053D01*
X005943Y013151D02*
X005987Y013151D01*
X005987Y013250D02*
X005943Y013250D01*
X005487Y013250D02*
X005443Y013250D01*
X005443Y013151D02*
X005487Y013151D01*
X005530Y013053D02*
X005399Y013053D01*
X005382Y012068D02*
X005548Y012068D01*
X005487Y011969D02*
X005443Y011969D01*
X005443Y011871D02*
X005487Y011871D01*
X005487Y011772D02*
X005443Y011772D01*
X004987Y011772D02*
X004943Y011772D01*
X004943Y011871D02*
X004987Y011871D01*
X004987Y011969D02*
X004943Y011969D01*
X004882Y012068D02*
X005048Y012068D01*
X007090Y014235D02*
X007187Y014235D01*
X007187Y014333D02*
X007090Y014333D01*
X007090Y014432D02*
X007187Y014432D01*
X007187Y014530D02*
X007090Y014530D01*
X009390Y016894D02*
X000753Y016894D01*
X000654Y016796D02*
X009488Y016796D01*
X009291Y016993D02*
X000851Y016993D01*
X000967Y017091D02*
X009193Y017091D01*
X009094Y017190D02*
X001137Y017190D01*
X001456Y017288D02*
X008996Y017288D01*
X013241Y012552D02*
X013831Y012552D01*
X013831Y011370D02*
X013241Y011370D01*
X013781Y010787D02*
X018506Y010787D01*
X018606Y010787D02*
X020452Y010787D01*
X020452Y010689D02*
X019136Y010689D01*
X019136Y010730D02*
X018606Y010730D01*
X018606Y010830D01*
X019136Y010830D01*
X019136Y011010D01*
X019125Y011048D01*
X019106Y011082D01*
X019084Y011103D01*
X019096Y011115D01*
X019096Y011626D01*
X019056Y011666D01*
X019096Y011705D01*
X019096Y012081D01*
X019115Y012061D01*
X019115Y011758D01*
X019179Y011694D01*
X019703Y011694D01*
X019742Y011732D01*
X019754Y011711D01*
X019782Y011684D01*
X019817Y011664D01*
X019855Y011654D01*
X020003Y011654D01*
X020003Y011932D01*
X020061Y011932D01*
X020061Y011990D01*
X020339Y011990D01*
X020339Y012138D01*
X020329Y012176D01*
X020309Y012211D01*
X020281Y012239D01*
X020247Y012258D01*
X020209Y012269D01*
X020061Y012269D01*
X020061Y011990D01*
X020003Y011990D01*
X020003Y012269D01*
X019855Y012269D01*
X019817Y012258D01*
X019782Y012239D01*
X019768Y012224D01*
X019768Y012243D01*
X019705Y012306D01*
X019768Y012368D01*
X019768Y012451D01*
X020103Y012451D01*
X020462Y012092D01*
X020462Y012041D01*
X020452Y012031D01*
X020452Y009768D01*
X019922Y009237D01*
X019748Y009237D01*
X019748Y009329D01*
X019697Y009381D01*
X019730Y009400D01*
X019758Y009428D01*
X019778Y009462D01*
X019788Y009500D01*
X019788Y009688D01*
X019490Y009688D01*
X019490Y009785D01*
X019788Y009785D01*
X019788Y009973D01*
X019778Y010011D01*
X019758Y010045D01*
X019730Y010073D01*
X019696Y010093D01*
X019658Y010103D01*
X019490Y010103D01*
X019490Y009785D01*
X019393Y009785D01*
X019393Y010103D01*
X019225Y010103D01*
X019187Y010093D01*
X019152Y010073D01*
X019124Y010045D01*
X019105Y010011D01*
X019096Y009977D01*
X019096Y010445D01*
X019084Y010456D01*
X019106Y010478D01*
X019125Y010512D01*
X019136Y010550D01*
X019136Y010730D01*
X019136Y010590D02*
X020452Y010590D01*
X020452Y010492D02*
X019114Y010492D01*
X019096Y010393D02*
X020452Y010393D01*
X020452Y010295D02*
X019096Y010295D01*
X019096Y010196D02*
X020452Y010196D01*
X020452Y010098D02*
X019677Y010098D01*
X019781Y009999D02*
X020452Y009999D01*
X020452Y009901D02*
X019788Y009901D01*
X019788Y009802D02*
X020452Y009802D01*
X020389Y009704D02*
X019490Y009704D01*
X019490Y009802D02*
X019393Y009802D01*
X019393Y009901D02*
X019490Y009901D01*
X019490Y009999D02*
X019393Y009999D01*
X019393Y010098D02*
X019490Y010098D01*
X019205Y010098D02*
X019096Y010098D01*
X019096Y009999D02*
X019102Y009999D01*
X019788Y009605D02*
X020290Y009605D01*
X020192Y009507D02*
X019788Y009507D01*
X019739Y009408D02*
X020093Y009408D01*
X019995Y009310D02*
X019748Y009310D01*
X020792Y010689D02*
X023643Y010689D01*
X023684Y010787D02*
X020792Y010787D01*
X020452Y010886D02*
X019136Y010886D01*
X019136Y010984D02*
X020452Y010984D01*
X020452Y011083D02*
X019762Y011083D01*
X019768Y011089D02*
X019768Y011164D01*
X019829Y011103D01*
X020235Y011103D01*
X020299Y011167D01*
X020299Y011574D01*
X020235Y011638D01*
X019829Y011638D01*
X019766Y011575D01*
X019703Y011638D01*
X019179Y011638D01*
X019115Y011574D01*
X019115Y011089D01*
X019179Y011024D01*
X019703Y011024D01*
X019768Y011089D01*
X019121Y011083D02*
X019105Y011083D01*
X019096Y011181D02*
X019115Y011181D01*
X019115Y011280D02*
X019096Y011280D01*
X019096Y011378D02*
X019115Y011378D01*
X019115Y011477D02*
X019096Y011477D01*
X019096Y011575D02*
X019117Y011575D01*
X019064Y011674D02*
X019799Y011674D01*
X019766Y011575D02*
X019766Y011575D01*
X020003Y011674D02*
X020061Y011674D01*
X020061Y011654D02*
X020209Y011654D01*
X020247Y011664D01*
X020281Y011684D01*
X020309Y011711D01*
X020329Y011746D01*
X020339Y011784D01*
X020339Y011932D01*
X020061Y011932D01*
X020061Y011654D01*
X020061Y011772D02*
X020003Y011772D01*
X020003Y011871D02*
X020061Y011871D01*
X020061Y011969D02*
X020452Y011969D01*
X020452Y011871D02*
X020339Y011871D01*
X020336Y011772D02*
X020452Y011772D01*
X020452Y011674D02*
X020265Y011674D01*
X020297Y011575D02*
X020452Y011575D01*
X020452Y011477D02*
X020299Y011477D01*
X020299Y011378D02*
X020452Y011378D01*
X020452Y011280D02*
X020299Y011280D01*
X020299Y011181D02*
X020452Y011181D01*
X020032Y011370D02*
X019993Y011331D01*
X019441Y011331D01*
X019115Y011772D02*
X019096Y011772D01*
X019096Y011871D02*
X019115Y011871D01*
X019115Y011969D02*
X019096Y011969D01*
X019096Y012068D02*
X019108Y012068D01*
X019402Y012000D02*
X019441Y012000D01*
X019402Y012000D02*
X018851Y012552D01*
X018556Y012552D01*
X019441Y012611D02*
X020170Y012611D01*
X020622Y012158D01*
X020622Y011961D01*
X020462Y012068D02*
X020339Y012068D01*
X020332Y012166D02*
X020388Y012166D01*
X020289Y012265D02*
X020222Y012265D01*
X020191Y012363D02*
X019763Y012363D01*
X019746Y012265D02*
X019841Y012265D01*
X020003Y012265D02*
X020061Y012265D01*
X020061Y012166D02*
X020003Y012166D01*
X020003Y012068D02*
X020061Y012068D01*
X020840Y012462D02*
X025718Y012462D01*
X025677Y012560D02*
X020741Y012560D01*
X020643Y012659D02*
X025661Y012659D01*
X025661Y012757D02*
X020544Y012757D01*
X020446Y012856D02*
X025700Y012856D01*
X025766Y012954D02*
X020347Y012954D01*
X020249Y013053D02*
X025904Y013053D01*
X026717Y013545D02*
X021813Y013545D01*
X021912Y013644D02*
X026618Y013644D01*
X026520Y013742D02*
X022010Y013742D01*
X022109Y013841D02*
X026430Y013841D01*
X026446Y013939D02*
X022197Y013939D01*
X022197Y014038D02*
X026544Y014038D01*
X026643Y014136D02*
X022197Y014136D01*
X022197Y014235D02*
X026741Y014235D01*
X026840Y014333D02*
X022197Y014333D01*
X022197Y014432D02*
X026938Y014432D01*
X027037Y014530D02*
X022197Y014530D01*
X022197Y014629D02*
X027135Y014629D01*
X027234Y014727D02*
X022197Y014727D01*
X022197Y014826D02*
X027332Y014826D01*
X027431Y014924D02*
X022197Y014924D01*
X022197Y015220D02*
X030185Y015220D01*
X030187Y015215D02*
X030215Y015187D01*
X030250Y015168D01*
X030288Y015157D01*
X030476Y015157D01*
X030476Y015456D01*
X030157Y015456D01*
X030157Y015288D01*
X030168Y015250D01*
X030187Y015215D01*
X030157Y015318D02*
X022197Y015318D01*
X022197Y015417D02*
X030157Y015417D01*
X030157Y015614D02*
X022197Y015614D01*
X022197Y015712D02*
X030157Y015712D01*
X030205Y015811D02*
X022197Y015811D01*
X022197Y015909D02*
X033100Y015909D01*
X033103Y015910D02*
X033065Y015900D01*
X033030Y015880D01*
X033002Y015852D01*
X032983Y015818D01*
X032972Y015780D01*
X032972Y015592D01*
X033271Y015592D01*
X033271Y015910D01*
X033103Y015910D01*
X032981Y015811D02*
X032792Y015811D01*
X032781Y015821D02*
X032747Y015841D01*
X032709Y015851D01*
X032521Y015851D01*
X032521Y015553D01*
X032839Y015553D01*
X032839Y015721D01*
X032829Y015759D01*
X032809Y015793D01*
X032781Y015821D01*
X032839Y015712D02*
X032972Y015712D01*
X032972Y015614D02*
X032839Y015614D01*
X032839Y015417D02*
X032972Y015417D01*
X032972Y015318D02*
X032839Y015318D01*
X032812Y015220D02*
X033018Y015220D01*
X033012Y015121D02*
X032255Y015121D01*
X032424Y015220D02*
X032521Y015220D01*
X032521Y015318D02*
X032424Y015318D01*
X032424Y015417D02*
X032521Y015417D01*
X032521Y015515D02*
X033271Y015515D01*
X033368Y015515D02*
X034255Y015515D01*
X034255Y015592D02*
X033957Y015592D01*
X033957Y015780D01*
X033967Y015818D01*
X033987Y015852D01*
X034015Y015880D01*
X034049Y015900D01*
X034087Y015910D01*
X034255Y015910D01*
X034255Y015592D01*
X034255Y015614D02*
X034352Y015614D01*
X034352Y015712D02*
X034255Y015712D01*
X034255Y015811D02*
X034352Y015811D01*
X034352Y015909D02*
X034255Y015909D01*
X034084Y015909D02*
X033539Y015909D01*
X033658Y015811D02*
X033965Y015811D01*
X033957Y015712D02*
X033666Y015712D01*
X033666Y015614D02*
X033957Y015614D01*
X033957Y015417D02*
X033666Y015417D01*
X033666Y015318D02*
X033957Y015318D01*
X034002Y015220D02*
X033621Y015220D01*
X033626Y015121D02*
X033997Y015121D01*
X033997Y015023D02*
X033626Y015023D01*
X033626Y014924D02*
X033997Y014924D01*
X033997Y014826D02*
X033626Y014826D01*
X033626Y014727D02*
X033997Y014727D01*
X033997Y014629D02*
X033626Y014629D01*
X033626Y014530D02*
X033997Y014530D01*
X033997Y014432D02*
X033626Y014432D01*
X033626Y014333D02*
X033997Y014333D01*
X033997Y014235D02*
X033626Y014235D01*
X033626Y014136D02*
X033997Y014136D01*
X033997Y014038D02*
X033626Y014038D01*
X033626Y013939D02*
X033989Y013939D01*
X034008Y013733D02*
X034304Y014028D01*
X034304Y014225D01*
X034304Y014874D01*
X034610Y014826D02*
X039370Y014826D01*
X039370Y014924D02*
X034610Y014924D01*
X034610Y015023D02*
X039370Y015023D01*
X039370Y015121D02*
X038108Y015121D01*
X038100Y015118D02*
X038387Y015237D01*
X038606Y015456D01*
X038725Y015743D01*
X038725Y016053D01*
X038606Y016340D01*
X038387Y016559D01*
X038100Y016678D01*
X037790Y016678D01*
X037503Y016559D01*
X037284Y016340D01*
X037165Y016053D01*
X037165Y015743D01*
X037284Y015456D01*
X037503Y015237D01*
X037790Y015118D01*
X038100Y015118D01*
X038346Y015220D02*
X039370Y015220D01*
X039370Y015318D02*
X038469Y015318D01*
X038567Y015417D02*
X039370Y015417D01*
X039370Y015515D02*
X038631Y015515D01*
X038672Y015614D02*
X039370Y015614D01*
X039370Y015712D02*
X038713Y015712D01*
X038725Y015811D02*
X039370Y015811D01*
X039369Y015909D02*
X038725Y015909D01*
X038725Y016008D02*
X039363Y016008D01*
X039352Y016106D02*
X038703Y016106D01*
X038662Y016205D02*
X039325Y016205D01*
X039299Y016303D02*
X038622Y016303D01*
X038544Y016402D02*
X039273Y016402D01*
X039229Y016500D02*
X038446Y016500D01*
X038291Y016599D02*
X039172Y016599D01*
X039114Y016697D02*
X022209Y016697D01*
X022197Y016599D02*
X037599Y016599D01*
X037445Y016500D02*
X022197Y016500D01*
X022197Y016402D02*
X037346Y016402D01*
X037269Y016303D02*
X022197Y016303D01*
X022197Y016205D02*
X037228Y016205D01*
X037187Y016106D02*
X022197Y016106D01*
X022197Y016008D02*
X037165Y016008D01*
X037165Y015909D02*
X034523Y015909D01*
X034642Y015811D02*
X037165Y015811D01*
X037178Y015712D02*
X034650Y015712D01*
X034650Y015614D02*
X037219Y015614D01*
X037260Y015515D02*
X034352Y015515D01*
X034650Y015417D02*
X037323Y015417D01*
X037422Y015318D02*
X034650Y015318D01*
X034605Y015220D02*
X037544Y015220D01*
X037782Y015121D02*
X034610Y015121D01*
X034610Y014727D02*
X039370Y014727D01*
X039370Y014629D02*
X034610Y014629D01*
X034610Y014530D02*
X039370Y014530D01*
X039370Y014432D02*
X034610Y014432D01*
X034610Y014333D02*
X039370Y014333D01*
X039370Y014235D02*
X034610Y014235D01*
X034610Y014136D02*
X039370Y014136D01*
X039370Y014038D02*
X034610Y014038D01*
X034610Y013939D02*
X039370Y013939D01*
X039370Y013841D02*
X035451Y013841D01*
X035497Y013742D02*
X039370Y013742D01*
X039370Y013644D02*
X035497Y013644D01*
X035497Y013447D02*
X039370Y013447D01*
X039370Y013545D02*
X035179Y013545D01*
X035179Y013447D02*
X035082Y013447D01*
X035082Y013348D02*
X035179Y013348D01*
X035179Y013250D02*
X035082Y013250D01*
X035082Y013151D02*
X035179Y013151D01*
X035179Y013053D02*
X039370Y013053D01*
X039370Y013151D02*
X035497Y013151D01*
X035497Y013250D02*
X039370Y013250D01*
X039370Y013348D02*
X035497Y013348D01*
X035497Y012954D02*
X039370Y012954D01*
X039370Y012856D02*
X035497Y012856D01*
X035414Y012462D02*
X035358Y012462D01*
X035358Y012363D02*
X035414Y012363D01*
X035414Y012265D02*
X035358Y012265D01*
X035358Y012166D02*
X035414Y012166D01*
X035414Y012068D02*
X035358Y012068D01*
X035334Y011969D02*
X035439Y011969D01*
X035414Y011871D02*
X035358Y011871D01*
X035358Y011772D02*
X035414Y011772D01*
X035414Y011674D02*
X035358Y011674D01*
X035358Y011575D02*
X035414Y011575D01*
X035414Y011477D02*
X035358Y011477D01*
X035333Y011378D02*
X035439Y011378D01*
X036002Y011378D02*
X037497Y011378D01*
X037471Y011280D02*
X034453Y011280D01*
X034453Y011378D02*
X034770Y011378D01*
X034745Y011477D02*
X034453Y011477D01*
X034453Y011575D02*
X034745Y011575D01*
X034745Y011674D02*
X034453Y011674D01*
X034490Y011772D02*
X034660Y011772D01*
X034561Y011871D02*
X034493Y011871D01*
X034493Y011863D02*
X034107Y011863D01*
X034107Y011863D01*
X034493Y011863D01*
X034599Y012059D02*
X034107Y012059D01*
X034107Y011863D02*
X034107Y011863D01*
X033720Y011863D01*
X033720Y011941D01*
X033731Y011980D01*
X033750Y012014D01*
X033760Y012024D01*
X033760Y012292D01*
X033750Y012302D01*
X033731Y012336D01*
X033720Y012374D01*
X033720Y012453D01*
X034107Y012453D01*
X034107Y012453D01*
X034493Y012453D01*
X034493Y012416D01*
X034745Y012416D01*
X034745Y012480D01*
X034493Y012480D01*
X034493Y012453D01*
X034107Y012453D01*
X034107Y012453D01*
X033720Y012453D01*
X033720Y012480D01*
X033587Y012480D01*
X033489Y012383D01*
X033489Y012031D01*
X033720Y011800D01*
X033720Y011863D01*
X034107Y011863D01*
X033720Y011871D02*
X033650Y011871D01*
X033728Y011969D02*
X033551Y011969D01*
X033489Y012068D02*
X033760Y012068D01*
X033760Y012166D02*
X033489Y012166D01*
X033489Y012265D02*
X033760Y012265D01*
X033723Y012363D02*
X033489Y012363D01*
X033568Y012462D02*
X033720Y012462D01*
X034107Y012256D02*
X035052Y012256D01*
X034745Y012462D02*
X034493Y012462D01*
X034599Y012059D02*
X034993Y011666D01*
X035052Y011666D01*
X035721Y011666D02*
X036370Y011666D01*
X036638Y011674D02*
X036694Y011674D01*
X036694Y011772D02*
X036638Y011772D01*
X036636Y011871D02*
X036696Y011871D01*
X036791Y011969D02*
X036003Y011969D01*
X036028Y011871D02*
X036105Y011871D01*
X036103Y012068D02*
X036028Y012068D01*
X035721Y012256D02*
X036370Y012256D01*
X036638Y012265D02*
X036694Y012265D01*
X036694Y012363D02*
X036638Y012363D01*
X036635Y012462D02*
X036696Y012462D01*
X036694Y012166D02*
X036638Y012166D01*
X036638Y012068D02*
X036694Y012068D01*
X037131Y011969D02*
X039370Y011969D01*
X039370Y011871D02*
X037226Y011871D01*
X037229Y012068D02*
X039370Y012068D01*
X039370Y012166D02*
X037229Y012166D01*
X037229Y012265D02*
X039370Y012265D01*
X039370Y012363D02*
X037229Y012363D01*
X037226Y012462D02*
X039370Y012462D01*
X039370Y012560D02*
X037094Y012560D01*
X036996Y012659D02*
X039370Y012659D01*
X039370Y012757D02*
X036897Y012757D01*
X035179Y013644D02*
X035082Y013644D01*
X035082Y013742D02*
X035179Y013742D01*
X035179Y013841D02*
X035082Y013841D01*
X034810Y013841D02*
X034725Y013841D01*
X034008Y013733D02*
X033319Y013733D01*
X033122Y013536D01*
X033122Y013241D01*
X032926Y013241D02*
X032926Y013634D01*
X033319Y014028D01*
X033319Y014225D01*
X033319Y014874D01*
X033012Y014826D02*
X032839Y014826D01*
X032839Y014924D02*
X033012Y014924D01*
X033012Y015023D02*
X032839Y015023D01*
X032839Y014727D02*
X033012Y014727D01*
X033012Y014629D02*
X032839Y014629D01*
X032839Y014530D02*
X033012Y014530D01*
X033012Y014432D02*
X032839Y014432D01*
X032839Y014333D02*
X033012Y014333D01*
X033012Y014235D02*
X032839Y014235D01*
X032839Y014136D02*
X033012Y014136D01*
X033012Y014038D02*
X032839Y014038D01*
X032847Y013939D02*
X033005Y013939D01*
X032906Y013841D02*
X032889Y013841D01*
X032729Y013831D02*
X032335Y014225D01*
X032335Y014520D01*
X032433Y014717D01*
X031804Y015347D01*
X031804Y015504D01*
X032424Y015614D02*
X032521Y015614D01*
X032521Y015712D02*
X032424Y015712D01*
X032424Y015811D02*
X032521Y015811D01*
X033271Y015811D02*
X033368Y015811D01*
X033368Y015909D02*
X033271Y015909D01*
X033271Y015712D02*
X033368Y015712D01*
X033368Y015614D02*
X033271Y015614D01*
X031541Y015811D02*
X031498Y015768D01*
X031455Y015811D01*
X030931Y015811D02*
X030880Y015760D01*
X030861Y015793D01*
X030833Y015821D01*
X030572Y015811D02*
X030476Y015811D01*
X030476Y015712D02*
X030572Y015712D01*
X030572Y015614D02*
X030476Y015614D01*
X030476Y015515D02*
X022197Y015515D01*
X022308Y016796D02*
X039016Y016796D01*
X038917Y016894D02*
X022406Y016894D01*
X022505Y016993D02*
X038819Y016993D01*
X038703Y017091D02*
X022603Y017091D01*
X022702Y017190D02*
X038533Y017190D01*
X038214Y017288D02*
X022800Y017288D01*
X027598Y014924D02*
X027981Y014924D01*
X027882Y014826D02*
X027696Y014826D01*
X027795Y014727D02*
X027870Y014727D01*
X028008Y013742D02*
X029166Y013742D01*
X029067Y013644D02*
X027909Y013644D01*
X026815Y013447D02*
X019768Y013447D01*
X020938Y012363D02*
X025810Y012363D01*
X029185Y010977D02*
X030268Y012059D01*
X030760Y012059D01*
X030760Y011863D02*
X030367Y011863D01*
X029284Y010780D01*
X026922Y010780D01*
X027020Y010583D02*
X022493Y006056D01*
X022493Y005760D01*
X017569Y003991D02*
X015623Y003991D01*
X014570Y003991D01*
X014570Y003527D01*
X014470Y003527D01*
X014470Y003991D01*
X013418Y003991D01*
X013380Y003981D01*
X013345Y003961D01*
X013317Y003933D01*
X013298Y003899D01*
X013287Y003861D01*
X013287Y003527D01*
X014470Y003527D01*
X014470Y003427D01*
X013287Y003427D01*
X013287Y003093D01*
X013298Y003055D01*
X013317Y003020D01*
X013345Y002993D01*
X013380Y002973D01*
X013418Y002963D01*
X014470Y002963D01*
X014470Y003427D01*
X014570Y003427D01*
X014570Y003527D01*
X015753Y003527D01*
X015753Y003861D01*
X015743Y003899D01*
X015723Y003933D01*
X015695Y003961D01*
X015661Y003981D01*
X015623Y003991D01*
X015744Y003892D02*
X017503Y003892D01*
X017489Y003794D02*
X015753Y003794D01*
X015753Y003695D02*
X017489Y003695D01*
X017489Y003597D02*
X015753Y003597D01*
X015753Y003427D02*
X015753Y003093D01*
X015743Y003055D01*
X015723Y003020D01*
X015695Y002993D01*
X015661Y002973D01*
X015623Y002963D01*
X014570Y002963D01*
X014570Y003427D01*
X015753Y003427D01*
X015753Y003400D02*
X017489Y003400D01*
X017489Y003498D02*
X014570Y003498D01*
X014570Y003400D02*
X014470Y003400D01*
X014470Y003498D02*
X012977Y003498D01*
X012977Y003400D02*
X013287Y003400D01*
X013287Y003301D02*
X012977Y003301D01*
X012977Y003203D02*
X013287Y003203D01*
X013287Y003104D02*
X012967Y003104D01*
X013332Y003006D02*
X002334Y003006D01*
X002405Y002907D02*
X017489Y002907D01*
X017489Y002809D02*
X002446Y002809D01*
X002487Y002710D02*
X017489Y002710D01*
X017489Y002612D02*
X002505Y002612D01*
X002505Y002513D02*
X017489Y002513D01*
X017539Y002415D02*
X002505Y002415D01*
X002488Y002316D02*
X018063Y002316D01*
X018063Y002218D02*
X002447Y002218D01*
X002406Y002119D02*
X018063Y002119D01*
X018063Y002021D02*
X002336Y002021D01*
X002238Y001922D02*
X018063Y001922D01*
X018063Y001824D02*
X002101Y001824D01*
X002236Y003104D02*
X010997Y003104D01*
X010985Y003203D02*
X010125Y003203D01*
X010313Y003301D02*
X010985Y003301D01*
X011835Y003301D02*
X012047Y003301D01*
X012047Y003203D02*
X011835Y003203D01*
X011823Y003104D02*
X012057Y003104D01*
X012077Y003070D01*
X012105Y003042D01*
X012139Y003022D01*
X012177Y003012D01*
X012462Y003012D01*
X012462Y003643D01*
X012047Y003643D01*
X012047Y003142D01*
X012057Y003104D01*
X012462Y003104D02*
X012562Y003104D01*
X012562Y003203D02*
X012462Y003203D01*
X012462Y003301D02*
X012562Y003301D01*
X012562Y003400D02*
X012462Y003400D01*
X012462Y003498D02*
X012562Y003498D01*
X012562Y003597D02*
X012462Y003597D01*
X012462Y003695D02*
X011835Y003695D01*
X011835Y003597D02*
X012047Y003597D01*
X012047Y003498D02*
X011835Y003498D01*
X011835Y003400D02*
X012047Y003400D01*
X012562Y003695D02*
X013287Y003695D01*
X013287Y003597D02*
X012977Y003597D01*
X012977Y003794D02*
X013287Y003794D01*
X013296Y003892D02*
X012977Y003892D01*
X012977Y003991D02*
X013418Y003991D01*
X012977Y004089D02*
X017470Y004089D01*
X017372Y004188D02*
X012977Y004188D01*
X012047Y004188D02*
X011835Y004188D01*
X011835Y004089D02*
X012047Y004089D01*
X012047Y003991D02*
X011835Y003991D01*
X011835Y003892D02*
X012047Y003892D01*
X012047Y003794D02*
X011835Y003794D01*
X010985Y004089D02*
X010309Y004089D01*
X010115Y004188D02*
X010985Y004188D01*
X009860Y003203D02*
X002095Y003203D01*
X002867Y005567D02*
X000300Y005567D01*
X000300Y005665D02*
X002835Y005665D01*
X002835Y005764D02*
X000300Y005764D01*
X000300Y005862D02*
X002835Y005862D01*
X002835Y005961D02*
X000300Y005961D01*
X000300Y006059D02*
X002835Y006059D01*
X014470Y003991D02*
X014570Y003991D01*
X014570Y003892D02*
X014470Y003892D01*
X014470Y003794D02*
X014570Y003794D01*
X014570Y003695D02*
X014470Y003695D01*
X014470Y003597D02*
X014570Y003597D01*
X014570Y003301D02*
X014470Y003301D01*
X014470Y003203D02*
X014570Y003203D01*
X014570Y003104D02*
X014470Y003104D01*
X014470Y003006D02*
X014570Y003006D01*
X015708Y003006D02*
X017489Y003006D01*
X017489Y003104D02*
X015753Y003104D01*
X015753Y003203D02*
X017789Y003203D01*
X017789Y003104D02*
X017889Y003104D01*
X017889Y003006D02*
X017789Y003006D01*
X017789Y002907D02*
X017889Y002907D01*
X017889Y002809D02*
X017789Y002809D01*
X017789Y002710D02*
X017889Y002710D01*
X017889Y002612D02*
X017789Y002612D01*
X017789Y002513D02*
X017889Y002513D01*
X017889Y002415D02*
X017789Y002415D01*
X018789Y002415D02*
X018889Y002415D01*
X018889Y002513D02*
X018789Y002513D01*
X018789Y002612D02*
X018889Y002612D01*
X018889Y002710D02*
X018789Y002710D01*
X018789Y002809D02*
X018889Y002809D01*
X018889Y002907D02*
X018789Y002907D01*
X018789Y003006D02*
X018889Y003006D01*
X018889Y003104D02*
X018789Y003104D01*
X017489Y003301D02*
X015753Y003301D01*
X029079Y009211D02*
X029410Y009211D01*
X029351Y009113D02*
X029138Y009113D01*
X029984Y009211D02*
X030048Y009211D01*
X029885Y009646D02*
X029697Y009646D01*
X029659Y009656D01*
X029625Y009676D01*
X029597Y009704D01*
X026367Y009704D01*
X026466Y009802D02*
X029567Y009802D01*
X029567Y009776D02*
X029577Y009738D01*
X029597Y009704D01*
X029567Y009776D02*
X029567Y009944D01*
X029885Y009944D01*
X029885Y009646D01*
X029885Y009704D02*
X029982Y009704D01*
X029982Y009802D02*
X029885Y009802D01*
X029885Y009901D02*
X029982Y009901D01*
X029885Y009999D02*
X026663Y009999D01*
X026564Y009901D02*
X029567Y009901D01*
X029567Y010098D02*
X026761Y010098D01*
X026860Y010196D02*
X029567Y010196D01*
X029610Y010295D02*
X026958Y010295D01*
X027057Y010393D02*
X030414Y010393D01*
X030414Y010492D02*
X029517Y010492D01*
X029616Y010590D02*
X030377Y010590D01*
X030374Y010689D02*
X029714Y010689D01*
X029813Y010787D02*
X030381Y010787D01*
X030414Y010886D02*
X029911Y010886D01*
X030010Y010984D02*
X030414Y010984D01*
X030414Y011083D02*
X030108Y011083D01*
X030207Y011181D02*
X030414Y011181D01*
X030414Y011280D02*
X030305Y011280D01*
X030404Y011378D02*
X030414Y011378D01*
X030465Y011666D02*
X029382Y010583D01*
X027020Y010583D01*
X029885Y010295D02*
X029982Y010295D01*
X029982Y010196D02*
X029885Y010196D01*
X029885Y010098D02*
X029982Y010098D01*
X030257Y010295D02*
X030336Y010295D01*
X032568Y010492D02*
X033480Y010492D01*
X033278Y010590D02*
X032559Y010590D01*
X033418Y010780D02*
X033516Y010878D01*
X033516Y011469D01*
X033122Y011863D01*
X033122Y012158D01*
X032335Y012945D01*
X032335Y013241D01*
X032532Y013241D02*
X032532Y013733D01*
X032729Y013831D02*
X032729Y013241D01*
X033516Y013241D02*
X033713Y013241D01*
X031548Y013241D02*
X031548Y013536D01*
X031449Y013634D01*
X031351Y013241D02*
X031154Y013241D01*
X031056Y013339D01*
X030760Y012650D02*
X029973Y012650D01*
X030465Y011666D02*
X030760Y011666D01*
X034107Y010485D02*
X034500Y010485D01*
X034894Y010091D01*
X037847Y010091D01*
X037945Y010189D01*
X037945Y010205D01*
X037355Y010288D02*
X034993Y010288D01*
X034599Y010681D01*
X034599Y010780D01*
X034474Y010984D02*
X034453Y010984D01*
X036028Y011477D02*
X036103Y011477D01*
X036638Y011477D02*
X036694Y011477D01*
X036694Y011575D02*
X036638Y011575D01*
X037229Y011575D02*
X037638Y011575D01*
X037549Y011477D02*
X037229Y011477D01*
X030572Y015220D02*
X030476Y015220D01*
X030476Y015318D02*
X030572Y015318D01*
X030572Y015417D02*
X030476Y015417D01*
X021177Y011378D02*
X021157Y011378D01*
D42*
X021016Y011567D03*
X021410Y011469D03*
X021016Y011174D03*
X022197Y011174D03*
X023378Y011174D03*
X024559Y011174D03*
X025741Y011174D03*
X024953Y010386D03*
X024166Y009599D03*
X023378Y008811D03*
X022591Y008024D03*
X021804Y007237D03*
X020622Y007237D03*
X019835Y007237D03*
X019048Y008418D03*
X017473Y008418D03*
X015898Y008418D03*
X014323Y008418D03*
X012748Y008418D03*
X011961Y009205D03*
X010583Y009205D03*
X008910Y009304D03*
X008713Y009304D03*
X008319Y009304D03*
X008122Y009304D03*
X008024Y008811D03*
X006449Y008811D03*
X004874Y008811D03*
X003300Y008811D03*
X000937Y008811D03*
X000937Y008024D03*
X000937Y007237D03*
X000937Y006449D03*
X000937Y005662D03*
X000937Y004874D03*
X000937Y004087D03*
X002119Y004087D03*
X003300Y004087D03*
X004874Y004087D03*
X006449Y004087D03*
X008024Y004087D03*
X010681Y003792D03*
X010681Y003595D03*
X010878Y003595D03*
X010878Y003792D03*
X010878Y003792D03*
X009599Y002906D03*
X008024Y002906D03*
X006449Y002906D03*
X004874Y002906D03*
X003300Y002906D03*
X003300Y001725D03*
X004087Y001725D03*
X004874Y001725D03*
X005662Y001725D03*
X006449Y001725D03*
X007237Y001725D03*
X008024Y001725D03*
X008811Y001725D03*
X009599Y001725D03*
X010386Y001725D03*
X011174Y001725D03*
X011961Y001725D03*
X012748Y001725D03*
X013536Y001725D03*
X014323Y001725D03*
X015111Y001725D03*
X015898Y001725D03*
X016685Y001725D03*
X017473Y001725D03*
X018260Y001725D03*
X019048Y001725D03*
X019835Y001725D03*
X020622Y001725D03*
X021410Y001725D03*
X022197Y001725D03*
X022985Y001725D03*
X023772Y001725D03*
X024559Y001725D03*
X025347Y001725D03*
X026134Y001725D03*
X026922Y001725D03*
X029284Y001725D03*
X030465Y002512D03*
X030859Y002512D03*
X030859Y002906D03*
X030465Y002906D03*
X033418Y003890D03*
X033418Y004087D03*
X034008Y002906D03*
X034402Y002906D03*
X034402Y002512D03*
X034008Y002512D03*
X035583Y001725D03*
X036370Y001725D03*
X036370Y002906D03*
X036370Y004087D03*
X037552Y004087D03*
X038733Y004087D03*
X038733Y004874D03*
X038733Y005662D03*
X038733Y006449D03*
X038733Y007237D03*
X038930Y008024D03*
X038930Y008811D03*
X038930Y009599D03*
X038733Y010386D03*
X038733Y011174D03*
X038733Y011961D03*
X038733Y012748D03*
X038733Y013536D03*
X038733Y014323D03*
X037552Y014323D03*
X036370Y014323D03*
X035583Y013634D03*
X035583Y013437D03*
X035583Y013142D03*
X035583Y012945D03*
X033713Y013241D03*
X032138Y013634D03*
X032926Y014028D03*
X032926Y014323D03*
X032926Y014619D03*
X032926Y014914D03*
X032926Y015209D03*
X032926Y015504D03*
X032926Y015800D03*
X032926Y016095D03*
X033221Y016095D03*
X033516Y016095D03*
X033811Y016095D03*
X034107Y016095D03*
X034500Y016095D03*
X034796Y016095D03*
X034796Y015800D03*
X034796Y015504D03*
X034796Y015209D03*
X034796Y014914D03*
X034796Y014619D03*
X034796Y014323D03*
X034796Y014028D03*
X033811Y014028D03*
X033811Y014323D03*
X033811Y014619D03*
X033811Y014914D03*
X033811Y015209D03*
X033811Y015504D03*
X033811Y015800D03*
X034008Y016685D03*
X033221Y016685D03*
X032433Y016685D03*
X031646Y016685D03*
X030859Y016685D03*
X030071Y016685D03*
X029284Y016685D03*
X028496Y016685D03*
X027709Y016685D03*
X026922Y016685D03*
X026134Y016685D03*
X025347Y016685D03*
X024559Y016685D03*
X023772Y016685D03*
X022985Y016685D03*
X022591Y016292D03*
X022591Y015504D03*
X023772Y015111D03*
X022591Y014717D03*
X022591Y013930D03*
X022197Y013536D03*
X021804Y013142D03*
X021016Y013142D03*
X021016Y012552D03*
X020032Y012355D03*
X022197Y012552D03*
X023378Y012552D03*
X024559Y012552D03*
X023772Y013536D03*
X025347Y013536D03*
X026922Y013142D03*
X026922Y012552D03*
X028496Y012552D03*
X029481Y012945D03*
X029481Y013142D03*
X029579Y012650D03*
X031056Y013339D03*
X032138Y012748D03*
X031646Y012355D03*
X033615Y012355D03*
X033615Y012059D03*
X034599Y011666D03*
X034599Y011370D03*
X034599Y010780D03*
X033418Y010780D03*
X032827Y010780D03*
X032335Y010485D03*
X031646Y010780D03*
X030268Y010681D03*
X029481Y010091D03*
X029481Y009894D03*
X030859Y009008D03*
X030859Y008811D03*
X030170Y008615D03*
X030662Y008122D03*
X030662Y007926D03*
X030071Y007827D03*
X029874Y007827D03*
X029579Y007827D03*
X029382Y007827D03*
X032237Y008122D03*
X032926Y007827D03*
X033615Y008024D03*
X033910Y008615D03*
X034107Y008615D03*
X035583Y009205D03*
X037158Y009205D03*
X033418Y009402D03*
X032335Y008910D03*
X032433Y007040D03*
X032926Y006941D03*
X030563Y006056D03*
X030367Y006056D03*
X030367Y005859D03*
X030563Y005859D03*
X028496Y006056D03*
X028300Y006056D03*
X027512Y006252D03*
X027315Y006252D03*
X024559Y007630D03*
X025347Y008418D03*
X026134Y009205D03*
X027119Y010189D03*
X021410Y010091D03*
X019441Y010386D03*
X019441Y010780D03*
X017867Y010780D03*
X017473Y010780D03*
X017473Y011174D03*
X015898Y011174D03*
X014323Y011174D03*
X013831Y011370D03*
X011961Y010780D03*
X010681Y011174D03*
X010583Y010780D03*
X007532Y010386D03*
X006252Y010386D03*
X004678Y010386D03*
X003300Y011961D03*
X000937Y011961D03*
X000937Y011174D03*
X000937Y010386D03*
X000937Y009599D03*
X003300Y007237D03*
X004874Y007237D03*
X006449Y007237D03*
X008024Y007237D03*
X009008Y007827D03*
X009993Y007827D03*
X010780Y007827D03*
X011272Y007335D03*
X011764Y006843D03*
X012355Y006843D03*
X012945Y006843D03*
X013536Y006843D03*
X014225Y006843D03*
X014225Y007040D03*
X018851Y006154D03*
X019835Y006154D03*
X022493Y005760D03*
X022985Y006056D03*
X023772Y006843D03*
X021311Y008713D03*
X017473Y009599D03*
X017473Y010386D03*
X015898Y009599D03*
X014323Y009599D03*
X013831Y012552D03*
X014323Y012748D03*
X014323Y013142D03*
X015111Y013142D03*
X015898Y013142D03*
X015898Y012748D03*
X016685Y013142D03*
X017473Y013142D03*
X017473Y012748D03*
X012355Y013142D03*
X011567Y013142D03*
X010780Y013142D03*
X009993Y013142D03*
X009599Y013536D03*
X009205Y013930D03*
X009205Y014717D03*
X009205Y015504D03*
X008418Y015701D03*
X008221Y015701D03*
X009205Y016292D03*
X008811Y016685D03*
X008024Y016685D03*
X007237Y016685D03*
X006449Y016685D03*
X005662Y016685D03*
X004874Y016685D03*
X004087Y016685D03*
X003300Y016685D03*
X004284Y015701D03*
X004678Y015701D03*
X005071Y015701D03*
X004284Y015307D03*
X004284Y014914D03*
X004284Y014520D03*
X003300Y014323D03*
X002119Y014323D03*
X000937Y014323D03*
X000937Y013536D03*
X000937Y012748D03*
X003300Y015504D03*
X006843Y013930D03*
X006843Y013536D03*
X008221Y012945D03*
X008024Y005662D03*
X006449Y005662D03*
X004874Y005662D03*
X013142Y004087D03*
X013536Y004087D03*
X013142Y003693D03*
X013142Y003300D03*
X015504Y004087D03*
X015898Y004087D03*
X015898Y003693D03*
X015898Y003300D03*
X017276Y003201D03*
X018359Y003201D03*
X019343Y003201D03*
X019441Y002512D03*
X018851Y004185D03*
X026528Y004087D03*
X026922Y004087D03*
X027315Y004087D03*
X028496Y013536D03*
X029185Y014225D03*
X030071Y014225D03*
X030071Y014815D03*
X030071Y015406D03*
X030071Y015603D03*
X028496Y015111D03*
X028103Y014717D03*
X026922Y015111D03*
X025347Y015111D03*
X034796Y016685D03*
X035583Y016685D03*
X036370Y016685D03*
X036370Y015504D03*
D43*
X034461Y013536D02*
X034008Y013536D01*
X033713Y013241D01*
X034461Y013044D02*
X034461Y012709D01*
X034402Y012650D01*
X034107Y012650D01*
X033516Y012650D01*
X033319Y012453D01*
X033319Y011961D01*
X033713Y011567D01*
X033713Y010485D01*
X033516Y010288D01*
X032335Y010288D01*
X032335Y010485D01*
X032335Y010288D02*
X031351Y010288D01*
X031154Y010485D01*
X031154Y012847D01*
X030957Y013044D01*
X030603Y013044D01*
X030603Y013300D01*
X030465Y013437D01*
X029382Y013437D01*
X029185Y013241D01*
X029185Y012453D01*
X028693Y011961D01*
X020622Y011961D01*
X020622Y009697D01*
X019993Y009067D01*
X019441Y009067D01*
X019185Y009008D01*
X018556Y009008D01*
X028024Y007552D02*
X028122Y007552D01*
X028496Y007926D01*
X029087Y007926D01*
X029185Y008024D01*
X029185Y008516D01*
X029087Y008615D01*
X028792Y008615D01*
X030603Y009993D02*
X030760Y010150D01*
X030760Y010485D01*
X031154Y010485D01*
X033516Y010288D02*
X033516Y009894D01*
X033851Y009894D01*
X034008Y009737D01*
X034008Y009697D01*
X034599Y009107D01*
X034599Y009067D01*
X034599Y009737D02*
X034933Y009737D01*
X035091Y009894D01*
X037552Y009894D01*
X037748Y009697D01*
X038142Y009697D01*
X038437Y009402D01*
X038437Y008697D01*
X037945Y008205D01*
X036961Y011666D02*
X036961Y012256D01*
X036961Y012453D01*
X036764Y012650D01*
X034402Y012650D01*
X031941Y012945D02*
X031843Y012847D01*
X031154Y012847D01*
X031941Y012945D02*
X031941Y013241D01*
X028103Y014717D02*
X027389Y014003D01*
X007729Y015248D02*
X007138Y015248D01*
X018199Y003496D02*
X018479Y003496D01*
X018479Y003218D01*
X018799Y003218D01*
X018799Y003138D01*
X018479Y003138D01*
X018479Y002506D01*
X018490Y002466D01*
X018511Y002429D01*
X018541Y002400D01*
X018577Y002378D01*
X018618Y002368D01*
X018799Y002368D01*
X018799Y003138D01*
X018879Y003138D01*
X018879Y003218D01*
X019199Y003218D01*
X019199Y003496D01*
X019519Y003496D01*
X019519Y002873D01*
X019401Y002755D01*
X019393Y002755D01*
X019304Y002718D01*
X019235Y002650D01*
X019199Y002562D01*
X019199Y003138D01*
X018879Y003138D01*
X018879Y002368D01*
X019060Y002368D01*
X019101Y002378D01*
X019137Y002400D01*
X019167Y002429D01*
X019188Y002466D01*
X019198Y002504D01*
X019198Y002464D01*
X019235Y002375D01*
X019304Y002306D01*
X019393Y002269D01*
X019490Y002269D01*
X019579Y002306D01*
X019638Y002365D01*
X019638Y001097D01*
X018063Y001097D01*
X018063Y002368D01*
X018101Y002378D01*
X018137Y002400D01*
X018167Y002429D01*
X018188Y002466D01*
X018199Y002506D01*
X018199Y003138D01*
X018063Y003138D01*
X018063Y003218D01*
X018199Y003218D01*
X018199Y003496D01*
X018199Y003426D02*
X018479Y003426D01*
X018479Y003307D02*
X018199Y003307D01*
X018063Y003189D02*
X018799Y003189D01*
X018879Y003189D02*
X019519Y003189D01*
X019519Y003307D02*
X019199Y003307D01*
X019199Y003426D02*
X019519Y003426D01*
X019519Y003070D02*
X019199Y003070D01*
X019199Y002952D02*
X019519Y002952D01*
X019480Y002833D02*
X019199Y002833D01*
X019199Y002715D02*
X019300Y002715D01*
X019213Y002596D02*
X019199Y002596D01*
X019191Y002478D02*
X019198Y002478D01*
X019250Y002359D02*
X018063Y002359D01*
X018063Y002241D02*
X019638Y002241D01*
X019632Y002359D02*
X019638Y002359D01*
X019638Y002122D02*
X018063Y002122D01*
X018063Y002004D02*
X019638Y002004D01*
X019638Y001885D02*
X018063Y001885D01*
X018063Y001767D02*
X019638Y001767D01*
X019638Y001648D02*
X018063Y001648D01*
X018063Y001530D02*
X019638Y001530D01*
X019638Y001411D02*
X018063Y001411D01*
X018063Y001293D02*
X019638Y001293D01*
X019638Y001174D02*
X018063Y001174D01*
X018191Y002478D02*
X018487Y002478D01*
X018479Y002596D02*
X018199Y002596D01*
X018199Y002715D02*
X018479Y002715D01*
X018479Y002833D02*
X018199Y002833D01*
X018199Y002952D02*
X018479Y002952D01*
X018479Y003070D02*
X018199Y003070D01*
X018799Y003070D02*
X018879Y003070D01*
X018879Y002952D02*
X018799Y002952D01*
X018799Y002833D02*
X018879Y002833D01*
X018879Y002715D02*
X018799Y002715D01*
X018799Y002596D02*
X018879Y002596D01*
X018879Y002478D02*
X018799Y002478D01*
D44*
X019441Y002512D02*
X019835Y002906D01*
X019835Y003178D01*
X019839Y003178D01*
X019839Y003689D01*
X019441Y004087D01*
X019441Y006449D01*
X018260Y007630D01*
X012355Y007630D01*
X011272Y008713D01*
X011272Y011174D01*
X010878Y011567D01*
X010189Y011567D01*
X010170Y011548D01*
X010170Y011134D01*
X010189Y011567D02*
X008811Y011567D01*
X008774Y011530D01*
X008774Y011528D01*
X008774Y010721D01*
X008811Y010426D01*
X009422Y010465D02*
X009796Y010091D01*
X009422Y010465D02*
X009422Y011134D01*
X008274Y011528D02*
X008274Y010721D01*
X008221Y010426D01*
X007774Y010924D02*
X007630Y010780D01*
X007040Y010780D01*
X006843Y010977D01*
X006843Y011961D01*
X006449Y012355D01*
X005071Y012355D01*
X004715Y012711D01*
X004715Y013575D01*
X008274Y012211D02*
X008418Y012355D01*
X009441Y012355D01*
X009796Y012000D01*
X008274Y012211D02*
X008274Y011528D01*
X007774Y011528D02*
X007774Y010924D01*
X005465Y011475D02*
X005268Y011475D01*
X005215Y011528D01*
X009717Y006252D02*
X010504Y005465D01*
X011115Y005465D01*
X012807Y005465D02*
X014894Y005465D01*
X014520Y005485D01*
X016075Y005485D02*
X016075Y005288D01*
X016469Y004894D01*
X017839Y004894D01*
X017839Y005178D01*
X016095Y005504D02*
X016075Y005485D01*
X011410Y003693D02*
X010780Y003693D01*
X010681Y003595D01*
X026764Y004953D02*
X026922Y005052D01*
X026922Y005071D01*
X026823Y004973D01*
X026922Y005071D02*
X026922Y007237D01*
X027059Y007374D01*
X027414Y007374D01*
X027847Y007374D01*
X028024Y007552D01*
X028772Y007552D02*
X028772Y007158D01*
X029225Y006705D01*
X029382Y006705D01*
X029973Y006705D02*
X030800Y006705D01*
X030859Y006646D01*
X030859Y007433D01*
X031075Y007650D01*
X031134Y007650D01*
X031370Y007650D01*
X031548Y007827D01*
X031548Y008221D01*
X031370Y008398D01*
X031134Y008398D01*
X031981Y008575D02*
X032158Y008398D01*
X032237Y008319D01*
X032237Y008122D01*
X031981Y008575D02*
X031981Y008910D01*
X032335Y008910D01*
X032926Y007827D02*
X033024Y007729D01*
X033024Y007433D01*
X032158Y007650D02*
X031764Y007650D01*
X031311Y007197D01*
X031311Y007040D01*
X030859Y006646D02*
X031056Y006449D01*
X031311Y006449D01*
X031311Y005859D01*
X031351Y005859D02*
X030957Y005859D01*
X030859Y005957D01*
X030563Y005957D01*
X030662Y006009D02*
X030268Y006009D01*
X030268Y006056D02*
X030367Y006154D01*
X030563Y006154D01*
X030662Y006056D01*
X030662Y005859D01*
X030563Y005760D01*
X030367Y005760D01*
X030268Y005859D01*
X030268Y006056D01*
X030276Y005851D02*
X030654Y005851D01*
X029973Y006351D02*
X029874Y006252D01*
X028989Y006252D01*
X028772Y006469D01*
X028772Y006528D01*
X028772Y006764D01*
X028595Y006941D01*
X028201Y006941D01*
X028024Y006764D01*
X028024Y006528D01*
X029973Y006351D02*
X029973Y006705D01*
X029973Y006744D01*
X030071Y006843D01*
X031351Y005268D02*
X031941Y005859D01*
X031981Y005859D01*
X031981Y005268D02*
X031804Y005091D01*
X031804Y003989D01*
X031351Y005268D02*
X031311Y005268D01*
D45*
X011410Y003693D02*
X009993Y003693D01*
D46*
X006215Y011528D02*
X005715Y011528D01*
X005215Y011528D01*
X005229Y011528D01*
X005268Y011567D01*
X005215Y011528D02*
X004715Y011528D01*
X005215Y013575D02*
X005715Y013575D01*
X005943Y013575D01*
X005957Y013590D01*
X005715Y013575D02*
X006215Y013575D01*
D47*
X005957Y013590D02*
X005957Y014914D01*
X006025Y014914D01*
X005465Y011475D02*
X005465Y010386D01*
M02*
