G75*
G70*
%OFA0B0*%
%FSLAX24Y24*%
%IPPOS*%
%LPD*%
%AMOC8*
5,1,8,0,0,1.08239X$1,22.5*
%
%ADD10C,0.0000*%
%ADD11C,0.0660*%
%ADD12C,0.0100*%
%ADD13C,0.0246*%
%ADD14C,0.0500*%
%ADD15C,0.0160*%
%ADD16C,0.0120*%
D10*
X001725Y000937D02*
X037945Y000937D01*
X037315Y002512D02*
X037317Y002562D01*
X037323Y002612D01*
X037333Y002661D01*
X037347Y002709D01*
X037364Y002756D01*
X037385Y002801D01*
X037410Y002845D01*
X037438Y002886D01*
X037470Y002925D01*
X037504Y002962D01*
X037541Y002996D01*
X037581Y003026D01*
X037623Y003053D01*
X037667Y003077D01*
X037713Y003098D01*
X037760Y003114D01*
X037808Y003127D01*
X037858Y003136D01*
X037907Y003141D01*
X037958Y003142D01*
X038008Y003139D01*
X038057Y003132D01*
X038106Y003121D01*
X038154Y003106D01*
X038200Y003088D01*
X038245Y003066D01*
X038288Y003040D01*
X038329Y003011D01*
X038368Y002979D01*
X038404Y002944D01*
X038436Y002906D01*
X038466Y002866D01*
X038493Y002823D01*
X038516Y002779D01*
X038535Y002733D01*
X038551Y002685D01*
X038563Y002636D01*
X038571Y002587D01*
X038575Y002537D01*
X038575Y002487D01*
X038571Y002437D01*
X038563Y002388D01*
X038551Y002339D01*
X038535Y002291D01*
X038516Y002245D01*
X038493Y002201D01*
X038466Y002158D01*
X038436Y002118D01*
X038404Y002080D01*
X038368Y002045D01*
X038329Y002013D01*
X038288Y001984D01*
X038245Y001958D01*
X038200Y001936D01*
X038154Y001918D01*
X038106Y001903D01*
X038057Y001892D01*
X038008Y001885D01*
X037958Y001882D01*
X037907Y001883D01*
X037858Y001888D01*
X037808Y001897D01*
X037760Y001910D01*
X037713Y001926D01*
X037667Y001947D01*
X037623Y001971D01*
X037581Y001998D01*
X037541Y002028D01*
X037504Y002062D01*
X037470Y002099D01*
X037438Y002138D01*
X037410Y002179D01*
X037385Y002223D01*
X037364Y002268D01*
X037347Y002315D01*
X037333Y002363D01*
X037323Y002412D01*
X037317Y002462D01*
X037315Y002512D01*
X037945Y000937D02*
X038022Y000939D01*
X038099Y000945D01*
X038176Y000954D01*
X038252Y000967D01*
X038328Y000984D01*
X038402Y001005D01*
X038476Y001029D01*
X038548Y001057D01*
X038618Y001088D01*
X038687Y001123D01*
X038755Y001161D01*
X038820Y001202D01*
X038883Y001247D01*
X038944Y001295D01*
X039003Y001345D01*
X039059Y001398D01*
X039112Y001454D01*
X039162Y001513D01*
X039210Y001574D01*
X039255Y001637D01*
X039296Y001702D01*
X039334Y001770D01*
X039369Y001839D01*
X039400Y001909D01*
X039428Y001981D01*
X039452Y002055D01*
X039473Y002129D01*
X039490Y002205D01*
X039503Y002281D01*
X039512Y002358D01*
X039518Y002435D01*
X039520Y002512D01*
X039520Y015898D01*
X037315Y015898D02*
X037317Y015948D01*
X037323Y015998D01*
X037333Y016047D01*
X037347Y016095D01*
X037364Y016142D01*
X037385Y016187D01*
X037410Y016231D01*
X037438Y016272D01*
X037470Y016311D01*
X037504Y016348D01*
X037541Y016382D01*
X037581Y016412D01*
X037623Y016439D01*
X037667Y016463D01*
X037713Y016484D01*
X037760Y016500D01*
X037808Y016513D01*
X037858Y016522D01*
X037907Y016527D01*
X037958Y016528D01*
X038008Y016525D01*
X038057Y016518D01*
X038106Y016507D01*
X038154Y016492D01*
X038200Y016474D01*
X038245Y016452D01*
X038288Y016426D01*
X038329Y016397D01*
X038368Y016365D01*
X038404Y016330D01*
X038436Y016292D01*
X038466Y016252D01*
X038493Y016209D01*
X038516Y016165D01*
X038535Y016119D01*
X038551Y016071D01*
X038563Y016022D01*
X038571Y015973D01*
X038575Y015923D01*
X038575Y015873D01*
X038571Y015823D01*
X038563Y015774D01*
X038551Y015725D01*
X038535Y015677D01*
X038516Y015631D01*
X038493Y015587D01*
X038466Y015544D01*
X038436Y015504D01*
X038404Y015466D01*
X038368Y015431D01*
X038329Y015399D01*
X038288Y015370D01*
X038245Y015344D01*
X038200Y015322D01*
X038154Y015304D01*
X038106Y015289D01*
X038057Y015278D01*
X038008Y015271D01*
X037958Y015268D01*
X037907Y015269D01*
X037858Y015274D01*
X037808Y015283D01*
X037760Y015296D01*
X037713Y015312D01*
X037667Y015333D01*
X037623Y015357D01*
X037581Y015384D01*
X037541Y015414D01*
X037504Y015448D01*
X037470Y015485D01*
X037438Y015524D01*
X037410Y015565D01*
X037385Y015609D01*
X037364Y015654D01*
X037347Y015701D01*
X037333Y015749D01*
X037323Y015798D01*
X037317Y015848D01*
X037315Y015898D01*
X037945Y017473D02*
X038022Y017471D01*
X038099Y017465D01*
X038176Y017456D01*
X038252Y017443D01*
X038328Y017426D01*
X038402Y017405D01*
X038476Y017381D01*
X038548Y017353D01*
X038618Y017322D01*
X038687Y017287D01*
X038755Y017249D01*
X038820Y017208D01*
X038883Y017163D01*
X038944Y017115D01*
X039003Y017065D01*
X039059Y017012D01*
X039112Y016956D01*
X039162Y016897D01*
X039210Y016836D01*
X039255Y016773D01*
X039296Y016708D01*
X039334Y016640D01*
X039369Y016571D01*
X039400Y016501D01*
X039428Y016429D01*
X039452Y016355D01*
X039473Y016281D01*
X039490Y016205D01*
X039503Y016129D01*
X039512Y016052D01*
X039518Y015975D01*
X039520Y015898D01*
X037945Y017473D02*
X001725Y017473D01*
X001095Y015898D02*
X001097Y015948D01*
X001103Y015998D01*
X001113Y016047D01*
X001127Y016095D01*
X001144Y016142D01*
X001165Y016187D01*
X001190Y016231D01*
X001218Y016272D01*
X001250Y016311D01*
X001284Y016348D01*
X001321Y016382D01*
X001361Y016412D01*
X001403Y016439D01*
X001447Y016463D01*
X001493Y016484D01*
X001540Y016500D01*
X001588Y016513D01*
X001638Y016522D01*
X001687Y016527D01*
X001738Y016528D01*
X001788Y016525D01*
X001837Y016518D01*
X001886Y016507D01*
X001934Y016492D01*
X001980Y016474D01*
X002025Y016452D01*
X002068Y016426D01*
X002109Y016397D01*
X002148Y016365D01*
X002184Y016330D01*
X002216Y016292D01*
X002246Y016252D01*
X002273Y016209D01*
X002296Y016165D01*
X002315Y016119D01*
X002331Y016071D01*
X002343Y016022D01*
X002351Y015973D01*
X002355Y015923D01*
X002355Y015873D01*
X002351Y015823D01*
X002343Y015774D01*
X002331Y015725D01*
X002315Y015677D01*
X002296Y015631D01*
X002273Y015587D01*
X002246Y015544D01*
X002216Y015504D01*
X002184Y015466D01*
X002148Y015431D01*
X002109Y015399D01*
X002068Y015370D01*
X002025Y015344D01*
X001980Y015322D01*
X001934Y015304D01*
X001886Y015289D01*
X001837Y015278D01*
X001788Y015271D01*
X001738Y015268D01*
X001687Y015269D01*
X001638Y015274D01*
X001588Y015283D01*
X001540Y015296D01*
X001493Y015312D01*
X001447Y015333D01*
X001403Y015357D01*
X001361Y015384D01*
X001321Y015414D01*
X001284Y015448D01*
X001250Y015485D01*
X001218Y015524D01*
X001190Y015565D01*
X001165Y015609D01*
X001144Y015654D01*
X001127Y015701D01*
X001113Y015749D01*
X001103Y015798D01*
X001097Y015848D01*
X001095Y015898D01*
X000150Y015898D02*
X000152Y015975D01*
X000158Y016052D01*
X000167Y016129D01*
X000180Y016205D01*
X000197Y016281D01*
X000218Y016355D01*
X000242Y016429D01*
X000270Y016501D01*
X000301Y016571D01*
X000336Y016640D01*
X000374Y016708D01*
X000415Y016773D01*
X000460Y016836D01*
X000508Y016897D01*
X000558Y016956D01*
X000611Y017012D01*
X000667Y017065D01*
X000726Y017115D01*
X000787Y017163D01*
X000850Y017208D01*
X000915Y017249D01*
X000983Y017287D01*
X001052Y017322D01*
X001122Y017353D01*
X001194Y017381D01*
X001268Y017405D01*
X001342Y017426D01*
X001418Y017443D01*
X001494Y017456D01*
X001571Y017465D01*
X001648Y017471D01*
X001725Y017473D01*
X000150Y015898D02*
X000150Y002512D01*
X001095Y002512D02*
X001097Y002562D01*
X001103Y002612D01*
X001113Y002661D01*
X001127Y002709D01*
X001144Y002756D01*
X001165Y002801D01*
X001190Y002845D01*
X001218Y002886D01*
X001250Y002925D01*
X001284Y002962D01*
X001321Y002996D01*
X001361Y003026D01*
X001403Y003053D01*
X001447Y003077D01*
X001493Y003098D01*
X001540Y003114D01*
X001588Y003127D01*
X001638Y003136D01*
X001687Y003141D01*
X001738Y003142D01*
X001788Y003139D01*
X001837Y003132D01*
X001886Y003121D01*
X001934Y003106D01*
X001980Y003088D01*
X002025Y003066D01*
X002068Y003040D01*
X002109Y003011D01*
X002148Y002979D01*
X002184Y002944D01*
X002216Y002906D01*
X002246Y002866D01*
X002273Y002823D01*
X002296Y002779D01*
X002315Y002733D01*
X002331Y002685D01*
X002343Y002636D01*
X002351Y002587D01*
X002355Y002537D01*
X002355Y002487D01*
X002351Y002437D01*
X002343Y002388D01*
X002331Y002339D01*
X002315Y002291D01*
X002296Y002245D01*
X002273Y002201D01*
X002246Y002158D01*
X002216Y002118D01*
X002184Y002080D01*
X002148Y002045D01*
X002109Y002013D01*
X002068Y001984D01*
X002025Y001958D01*
X001980Y001936D01*
X001934Y001918D01*
X001886Y001903D01*
X001837Y001892D01*
X001788Y001885D01*
X001738Y001882D01*
X001687Y001883D01*
X001638Y001888D01*
X001588Y001897D01*
X001540Y001910D01*
X001493Y001926D01*
X001447Y001947D01*
X001403Y001971D01*
X001361Y001998D01*
X001321Y002028D01*
X001284Y002062D01*
X001250Y002099D01*
X001218Y002138D01*
X001190Y002179D01*
X001165Y002223D01*
X001144Y002268D01*
X001127Y002315D01*
X001113Y002363D01*
X001103Y002412D01*
X001097Y002462D01*
X001095Y002512D01*
X000150Y002512D02*
X000152Y002435D01*
X000158Y002358D01*
X000167Y002281D01*
X000180Y002205D01*
X000197Y002129D01*
X000218Y002055D01*
X000242Y001981D01*
X000270Y001909D01*
X000301Y001839D01*
X000336Y001770D01*
X000374Y001702D01*
X000415Y001637D01*
X000460Y001574D01*
X000508Y001513D01*
X000558Y001454D01*
X000611Y001398D01*
X000667Y001345D01*
X000726Y001295D01*
X000787Y001247D01*
X000850Y001202D01*
X000915Y001161D01*
X000983Y001123D01*
X001052Y001088D01*
X001122Y001057D01*
X001194Y001029D01*
X001268Y001005D01*
X001342Y000984D01*
X001418Y000967D01*
X001494Y000954D01*
X001571Y000945D01*
X001648Y000939D01*
X001725Y000937D01*
X023782Y010593D02*
X023784Y010620D01*
X023790Y010647D01*
X023799Y010673D01*
X023812Y010697D01*
X023828Y010720D01*
X023847Y010739D01*
X023869Y010756D01*
X023893Y010770D01*
X023918Y010780D01*
X023945Y010787D01*
X023972Y010790D01*
X024000Y010789D01*
X024027Y010784D01*
X024053Y010776D01*
X024077Y010764D01*
X024100Y010748D01*
X024121Y010730D01*
X024138Y010709D01*
X024153Y010685D01*
X024164Y010660D01*
X024172Y010634D01*
X024176Y010607D01*
X024176Y010579D01*
X024172Y010552D01*
X024164Y010526D01*
X024153Y010501D01*
X024138Y010477D01*
X024121Y010456D01*
X024100Y010438D01*
X024078Y010422D01*
X024053Y010410D01*
X024027Y010402D01*
X024000Y010397D01*
X023972Y010396D01*
X023945Y010399D01*
X023918Y010406D01*
X023893Y010416D01*
X023869Y010430D01*
X023847Y010447D01*
X023828Y010466D01*
X023812Y010489D01*
X023799Y010513D01*
X023790Y010539D01*
X023784Y010566D01*
X023782Y010593D01*
X025811Y012681D02*
X025813Y012712D01*
X025819Y012743D01*
X025828Y012773D01*
X025841Y012802D01*
X025858Y012829D01*
X025878Y012853D01*
X025900Y012875D01*
X025926Y012894D01*
X025953Y012910D01*
X025982Y012922D01*
X026012Y012931D01*
X026043Y012936D01*
X026075Y012937D01*
X026106Y012934D01*
X026137Y012927D01*
X026167Y012917D01*
X026195Y012903D01*
X026221Y012885D01*
X026245Y012865D01*
X026266Y012841D01*
X026285Y012816D01*
X026300Y012788D01*
X026311Y012759D01*
X026319Y012728D01*
X026323Y012697D01*
X026323Y012665D01*
X026319Y012634D01*
X026311Y012603D01*
X026300Y012574D01*
X026285Y012546D01*
X026266Y012521D01*
X026245Y012497D01*
X026221Y012477D01*
X026195Y012459D01*
X026167Y012445D01*
X026137Y012435D01*
X026106Y012428D01*
X026075Y012425D01*
X026043Y012426D01*
X026012Y012431D01*
X025982Y012440D01*
X025953Y012452D01*
X025926Y012468D01*
X025900Y012487D01*
X025878Y012509D01*
X025858Y012533D01*
X025841Y012560D01*
X025828Y012589D01*
X025819Y012619D01*
X025813Y012650D01*
X025811Y012681D01*
X027808Y004323D02*
X027810Y004357D01*
X027816Y004391D01*
X027826Y004424D01*
X027839Y004455D01*
X027857Y004485D01*
X027877Y004513D01*
X027901Y004538D01*
X027927Y004560D01*
X027955Y004578D01*
X027986Y004594D01*
X028018Y004606D01*
X028052Y004614D01*
X028086Y004618D01*
X028120Y004618D01*
X028154Y004614D01*
X028188Y004606D01*
X028220Y004594D01*
X028250Y004578D01*
X028279Y004560D01*
X028305Y004538D01*
X028329Y004513D01*
X028349Y004485D01*
X028367Y004455D01*
X028380Y004424D01*
X028390Y004391D01*
X028396Y004357D01*
X028398Y004323D01*
X028396Y004289D01*
X028390Y004255D01*
X028380Y004222D01*
X028367Y004191D01*
X028349Y004161D01*
X028329Y004133D01*
X028305Y004108D01*
X028279Y004086D01*
X028251Y004068D01*
X028220Y004052D01*
X028188Y004040D01*
X028154Y004032D01*
X028120Y004028D01*
X028086Y004028D01*
X028052Y004032D01*
X028018Y004040D01*
X027986Y004052D01*
X027955Y004068D01*
X027927Y004086D01*
X027901Y004108D01*
X027877Y004133D01*
X027857Y004161D01*
X027839Y004191D01*
X027826Y004222D01*
X027816Y004255D01*
X027810Y004289D01*
X027808Y004323D01*
X031390Y002807D02*
X031392Y002833D01*
X031398Y002859D01*
X031408Y002884D01*
X031421Y002907D01*
X031437Y002927D01*
X031457Y002945D01*
X031479Y002960D01*
X031502Y002972D01*
X031528Y002980D01*
X031554Y002984D01*
X031580Y002984D01*
X031606Y002980D01*
X031632Y002972D01*
X031656Y002960D01*
X031677Y002945D01*
X031697Y002927D01*
X031713Y002907D01*
X031726Y002884D01*
X031736Y002859D01*
X031742Y002833D01*
X031744Y002807D01*
X031742Y002781D01*
X031736Y002755D01*
X031726Y002730D01*
X031713Y002707D01*
X031697Y002687D01*
X031677Y002669D01*
X031655Y002654D01*
X031632Y002642D01*
X031606Y002634D01*
X031580Y002630D01*
X031554Y002630D01*
X031528Y002634D01*
X031502Y002642D01*
X031478Y002654D01*
X031457Y002669D01*
X031437Y002687D01*
X031421Y002707D01*
X031408Y002730D01*
X031398Y002755D01*
X031392Y002781D01*
X031390Y002807D01*
X033123Y002807D02*
X033125Y002833D01*
X033131Y002859D01*
X033141Y002884D01*
X033154Y002907D01*
X033170Y002927D01*
X033190Y002945D01*
X033212Y002960D01*
X033235Y002972D01*
X033261Y002980D01*
X033287Y002984D01*
X033313Y002984D01*
X033339Y002980D01*
X033365Y002972D01*
X033389Y002960D01*
X033410Y002945D01*
X033430Y002927D01*
X033446Y002907D01*
X033459Y002884D01*
X033469Y002859D01*
X033475Y002833D01*
X033477Y002807D01*
X033475Y002781D01*
X033469Y002755D01*
X033459Y002730D01*
X033446Y002707D01*
X033430Y002687D01*
X033410Y002669D01*
X033388Y002654D01*
X033365Y002642D01*
X033339Y002634D01*
X033313Y002630D01*
X033287Y002630D01*
X033261Y002634D01*
X033235Y002642D01*
X033211Y002654D01*
X033190Y002669D01*
X033170Y002687D01*
X033154Y002707D01*
X033141Y002730D01*
X033131Y002755D01*
X033125Y002781D01*
X033123Y002807D01*
X027808Y001567D02*
X027810Y001601D01*
X027816Y001635D01*
X027826Y001668D01*
X027839Y001699D01*
X027857Y001729D01*
X027877Y001757D01*
X027901Y001782D01*
X027927Y001804D01*
X027955Y001822D01*
X027986Y001838D01*
X028018Y001850D01*
X028052Y001858D01*
X028086Y001862D01*
X028120Y001862D01*
X028154Y001858D01*
X028188Y001850D01*
X028220Y001838D01*
X028250Y001822D01*
X028279Y001804D01*
X028305Y001782D01*
X028329Y001757D01*
X028349Y001729D01*
X028367Y001699D01*
X028380Y001668D01*
X028390Y001635D01*
X028396Y001601D01*
X028398Y001567D01*
X028396Y001533D01*
X028390Y001499D01*
X028380Y001466D01*
X028367Y001435D01*
X028349Y001405D01*
X028329Y001377D01*
X028305Y001352D01*
X028279Y001330D01*
X028251Y001312D01*
X028220Y001296D01*
X028188Y001284D01*
X028154Y001276D01*
X028120Y001272D01*
X028086Y001272D01*
X028052Y001276D01*
X028018Y001284D01*
X027986Y001296D01*
X027955Y001312D01*
X027927Y001330D01*
X027901Y001352D01*
X027877Y001377D01*
X027857Y001405D01*
X027839Y001435D01*
X027826Y001466D01*
X027816Y001499D01*
X027810Y001533D01*
X027808Y001567D01*
D11*
X037945Y007205D03*
X037945Y008205D03*
X037945Y009205D03*
X037945Y010205D03*
X037945Y011205D03*
D12*
X037897Y011181D02*
X013972Y011181D01*
X014001Y011210D02*
X014193Y011210D01*
X014390Y011407D01*
X020847Y011407D01*
X020920Y011334D01*
X021113Y011334D01*
X021177Y011399D01*
X021177Y011372D01*
X021313Y011236D01*
X021506Y011236D01*
X021643Y011372D01*
X021643Y011565D01*
X021506Y011702D01*
X021502Y011702D01*
X021275Y011929D01*
X021181Y012023D01*
X020851Y012023D01*
X020753Y011924D01*
X014390Y011924D01*
X013991Y012323D01*
X013991Y012382D01*
X014064Y012455D01*
X014064Y012648D01*
X013928Y012785D01*
X013735Y012785D01*
X013598Y012648D01*
X013598Y012455D01*
X013671Y012382D01*
X013671Y012190D01*
X013765Y012096D01*
X014195Y011666D01*
X014060Y011530D01*
X014001Y011530D01*
X013928Y011603D01*
X013735Y011603D01*
X013598Y011467D01*
X013598Y011274D01*
X013735Y011137D01*
X013928Y011137D01*
X014001Y011210D01*
X014126Y011370D02*
X013831Y011370D01*
X013598Y011378D02*
X010806Y011378D01*
X010778Y011407D02*
X010585Y011407D01*
X010512Y011334D01*
X010059Y011334D01*
X008454Y012939D01*
X008454Y013042D01*
X008317Y013178D01*
X008124Y013178D01*
X007988Y013042D01*
X007988Y012849D01*
X008124Y012712D01*
X008228Y012712D01*
X009833Y011107D01*
X009926Y011014D01*
X010512Y011014D01*
X010585Y010941D01*
X010778Y010941D01*
X010914Y011077D01*
X010914Y011270D01*
X010778Y011407D01*
X010905Y011280D02*
X013598Y011280D01*
X013691Y011181D02*
X010914Y011181D01*
X010914Y011083D02*
X037480Y011083D01*
X037477Y011093D02*
X037500Y011021D01*
X037535Y010954D01*
X037579Y010892D01*
X037633Y010839D01*
X037694Y010795D01*
X037761Y010760D01*
X037833Y010737D01*
X037897Y010727D01*
X037897Y011157D01*
X037467Y011157D01*
X037477Y011093D01*
X037519Y010984D02*
X034724Y010984D01*
X034695Y011013D02*
X034502Y011013D01*
X034366Y010876D01*
X034366Y010841D01*
X033651Y010841D01*
X033651Y010876D01*
X033514Y011013D01*
X033321Y011013D01*
X033185Y010876D01*
X033185Y010683D01*
X033321Y010547D01*
X033424Y010547D01*
X033450Y010521D01*
X034567Y010521D01*
X034592Y010547D01*
X034695Y010547D01*
X034832Y010683D01*
X034832Y010876D01*
X034695Y011013D01*
X034822Y010886D02*
X037586Y010886D01*
X037708Y010787D02*
X034832Y010787D01*
X034832Y010689D02*
X039370Y010689D01*
X039370Y010787D02*
X038183Y010787D01*
X038197Y010795D02*
X038258Y010839D01*
X038311Y010892D01*
X038356Y010954D01*
X038390Y011021D01*
X038413Y011093D01*
X038424Y011157D01*
X037994Y011157D01*
X037994Y011254D01*
X037897Y011254D01*
X037897Y011683D01*
X037833Y011673D01*
X037761Y011650D01*
X037694Y011616D01*
X037633Y011571D01*
X037579Y011518D01*
X037535Y011457D01*
X037500Y011389D01*
X037477Y011318D01*
X037467Y011254D01*
X037897Y011254D01*
X037897Y011157D01*
X037994Y011157D01*
X037994Y010727D01*
X038058Y010737D01*
X038130Y010760D01*
X038197Y010795D01*
X038305Y010886D02*
X039370Y010886D01*
X039370Y010984D02*
X038372Y010984D01*
X038410Y011083D02*
X039370Y011083D01*
X039370Y011181D02*
X037994Y011181D01*
X037994Y011254D02*
X038424Y011254D01*
X038413Y011318D01*
X038390Y011389D01*
X038356Y011457D01*
X038311Y011518D01*
X038258Y011571D01*
X038197Y011616D01*
X038130Y011650D01*
X038058Y011673D01*
X037994Y011683D01*
X037994Y011254D01*
X037994Y011280D02*
X037897Y011280D01*
X037897Y011378D02*
X037994Y011378D01*
X037994Y011477D02*
X037897Y011477D01*
X037897Y011575D02*
X037994Y011575D01*
X037994Y011674D02*
X037897Y011674D01*
X037837Y011674D02*
X021534Y011674D01*
X021633Y011575D02*
X037638Y011575D01*
X037549Y011477D02*
X021643Y011477D01*
X021643Y011378D02*
X037497Y011378D01*
X037471Y011280D02*
X021550Y011280D01*
X021410Y011469D02*
X021410Y011567D01*
X021115Y011863D01*
X020918Y011863D01*
X020819Y011764D01*
X014323Y011764D01*
X013831Y012256D01*
X013831Y012552D01*
X013598Y012560D02*
X008832Y012560D01*
X008930Y012462D02*
X013598Y012462D01*
X013671Y012363D02*
X009029Y012363D01*
X009127Y012265D02*
X013671Y012265D01*
X013695Y012166D02*
X009226Y012166D01*
X009324Y012068D02*
X013793Y012068D01*
X013892Y011969D02*
X009423Y011969D01*
X009521Y011871D02*
X013990Y011871D01*
X014089Y011772D02*
X009620Y011772D01*
X009718Y011674D02*
X014187Y011674D01*
X014105Y011575D02*
X013956Y011575D01*
X013707Y011575D02*
X009817Y011575D01*
X009915Y011477D02*
X013608Y011477D01*
X014126Y011370D02*
X014323Y011567D01*
X021016Y011567D01*
X020876Y011378D02*
X014361Y011378D01*
X014262Y011280D02*
X021269Y011280D01*
X021177Y011378D02*
X021157Y011378D01*
X021431Y011772D02*
X039370Y011772D01*
X039370Y011674D02*
X038054Y011674D01*
X038252Y011575D02*
X039370Y011575D01*
X039370Y011477D02*
X038341Y011477D01*
X038394Y011378D02*
X039370Y011378D01*
X039370Y011280D02*
X038419Y011280D01*
X037994Y011083D02*
X037897Y011083D01*
X037897Y010984D02*
X037994Y010984D01*
X037994Y010886D02*
X037897Y010886D01*
X037897Y010787D02*
X037994Y010787D01*
X038033Y010645D02*
X037858Y010645D01*
X037696Y010578D01*
X037572Y010454D01*
X037505Y010293D01*
X037505Y010118D01*
X037572Y009956D01*
X037696Y009832D01*
X037858Y009765D01*
X038033Y009765D01*
X038195Y009832D01*
X038318Y009956D01*
X038385Y010118D01*
X038385Y010293D01*
X038318Y010454D01*
X038195Y010578D01*
X038033Y010645D01*
X038165Y010590D02*
X039370Y010590D01*
X039370Y010492D02*
X038281Y010492D01*
X038344Y010393D02*
X039370Y010393D01*
X039370Y010295D02*
X038384Y010295D01*
X038385Y010196D02*
X039370Y010196D01*
X039370Y010098D02*
X038377Y010098D01*
X038336Y009999D02*
X039370Y009999D01*
X039370Y009901D02*
X038263Y009901D01*
X038123Y009802D02*
X039370Y009802D01*
X039370Y009704D02*
X032525Y009704D01*
X032525Y009802D02*
X037768Y009802D01*
X037627Y009901D02*
X032525Y009901D01*
X032525Y009999D02*
X037554Y009999D01*
X037513Y010098D02*
X032525Y010098D01*
X032525Y010196D02*
X037505Y010196D01*
X037506Y010295D02*
X032525Y010295D01*
X032525Y010345D02*
X032568Y010388D01*
X032568Y010581D01*
X032432Y010718D01*
X032239Y010718D01*
X032102Y010581D01*
X032102Y010388D01*
X032145Y010345D01*
X032145Y009049D01*
X032102Y009006D01*
X032102Y008813D01*
X032239Y008677D01*
X032432Y008677D01*
X032568Y008813D01*
X032568Y009006D01*
X032525Y009049D01*
X032525Y010345D01*
X032568Y010393D02*
X037547Y010393D01*
X037610Y010492D02*
X032568Y010492D01*
X032559Y010590D02*
X033278Y010590D01*
X033185Y010689D02*
X032460Y010689D01*
X032210Y010689D02*
X024314Y010689D01*
X024326Y010662D02*
X024273Y010789D01*
X024175Y010887D01*
X024048Y010940D01*
X023910Y010940D01*
X023782Y010887D01*
X023685Y010789D01*
X023632Y010662D01*
X023632Y010524D01*
X023685Y010396D01*
X023782Y010299D01*
X023910Y010246D01*
X024048Y010246D01*
X024175Y010299D01*
X024273Y010396D01*
X024326Y010524D01*
X024326Y010662D01*
X024326Y010590D02*
X032111Y010590D01*
X032102Y010492D02*
X024312Y010492D01*
X024270Y010393D02*
X032102Y010393D01*
X032145Y010295D02*
X024166Y010295D01*
X023792Y010295D02*
X000300Y010295D01*
X000300Y010393D02*
X023688Y010393D01*
X023645Y010492D02*
X000300Y010492D01*
X000300Y010590D02*
X023632Y010590D01*
X023643Y010689D02*
X000300Y010689D01*
X000300Y010787D02*
X023684Y010787D01*
X023781Y010886D02*
X000300Y010886D01*
X000300Y010984D02*
X010541Y010984D01*
X010681Y011174D02*
X009993Y011174D01*
X008221Y012945D01*
X008454Y012954D02*
X025766Y012954D01*
X025723Y012911D02*
X025661Y012762D01*
X025661Y012600D01*
X025723Y012451D01*
X025837Y012337D01*
X025986Y012275D01*
X026147Y012275D01*
X026297Y012337D01*
X026411Y012451D01*
X026473Y012600D01*
X026473Y012762D01*
X026411Y012911D01*
X026297Y013025D01*
X026147Y013087D01*
X025986Y013087D01*
X025837Y013025D01*
X025723Y012911D01*
X025700Y012856D02*
X008536Y012856D01*
X008635Y012757D02*
X013707Y012757D01*
X013609Y012659D02*
X008733Y012659D01*
X008478Y012462D02*
X000300Y012462D01*
X000300Y012560D02*
X008379Y012560D01*
X008281Y012659D02*
X000300Y012659D01*
X000300Y012757D02*
X008079Y012757D01*
X007988Y012856D02*
X000300Y012856D01*
X000300Y012954D02*
X007988Y012954D01*
X007999Y013053D02*
X000300Y013053D01*
X000300Y013151D02*
X008098Y013151D01*
X008344Y013151D02*
X029854Y013151D01*
X029756Y013053D02*
X026229Y013053D01*
X026367Y012954D02*
X029657Y012954D01*
X029586Y012883D02*
X029483Y012883D01*
X029346Y012747D01*
X029346Y012553D01*
X029483Y012417D01*
X029676Y012417D01*
X029812Y012553D01*
X029812Y012657D01*
X030334Y013179D01*
X030886Y013179D01*
X030959Y013106D01*
X031152Y013106D01*
X031289Y013242D01*
X031289Y013435D01*
X031152Y013572D01*
X030959Y013572D01*
X030886Y013499D01*
X030202Y013499D01*
X029586Y012883D01*
X029456Y012856D02*
X026434Y012856D01*
X026473Y012757D02*
X029357Y012757D01*
X029346Y012659D02*
X026473Y012659D01*
X026456Y012560D02*
X029346Y012560D01*
X029438Y012462D02*
X026415Y012462D01*
X026323Y012363D02*
X039370Y012363D01*
X039370Y012265D02*
X014049Y012265D01*
X013991Y012363D02*
X025810Y012363D01*
X025718Y012462D02*
X014064Y012462D01*
X014064Y012560D02*
X025677Y012560D01*
X025661Y012659D02*
X014053Y012659D01*
X013955Y012757D02*
X025661Y012757D01*
X025904Y013053D02*
X008443Y013053D01*
X009786Y013742D02*
X000300Y013742D01*
X000300Y013644D02*
X009884Y013644D01*
X009983Y013545D02*
X000300Y013545D01*
X000300Y013447D02*
X030150Y013447D01*
X030051Y013348D02*
X000300Y013348D01*
X000300Y013250D02*
X029953Y013250D01*
X030208Y013053D02*
X033571Y013053D01*
X033553Y013071D02*
X033616Y013008D01*
X033810Y013008D01*
X033946Y013144D01*
X033946Y013337D01*
X033810Y013474D01*
X033616Y013474D01*
X033553Y013411D01*
X032012Y013411D01*
X031521Y013902D01*
X031421Y014001D01*
X029059Y014001D01*
X028336Y014724D01*
X028336Y014813D01*
X028199Y014950D01*
X028006Y014950D01*
X027870Y014813D01*
X027870Y014620D01*
X028006Y014484D01*
X028095Y014484D01*
X028918Y013661D01*
X031280Y013661D01*
X031871Y013071D01*
X033553Y013071D01*
X033855Y013053D02*
X039370Y013053D01*
X039370Y013151D02*
X033946Y013151D01*
X033946Y013250D02*
X039370Y013250D01*
X039370Y013348D02*
X033935Y013348D01*
X033836Y013447D02*
X039370Y013447D01*
X039370Y013545D02*
X031877Y013545D01*
X031975Y013447D02*
X033590Y013447D01*
X031778Y013644D02*
X039370Y013644D01*
X039370Y013742D02*
X031680Y013742D01*
X031581Y013841D02*
X039370Y013841D01*
X039370Y013939D02*
X031483Y013939D01*
X031298Y013644D02*
X021912Y013644D01*
X022010Y013742D02*
X028837Y013742D01*
X028738Y013841D02*
X022109Y013841D01*
X022197Y013930D02*
X022197Y016685D01*
X022835Y017323D01*
X037945Y017323D01*
X038131Y017311D01*
X038491Y017214D01*
X038743Y017068D01*
X039116Y016696D01*
X039262Y016443D01*
X039358Y016084D01*
X039370Y015898D01*
X039370Y002512D01*
X039358Y002326D01*
X039262Y001967D01*
X039262Y001967D01*
X039116Y001714D01*
X038743Y001342D01*
X038491Y001196D01*
X038131Y001100D01*
X037945Y001087D01*
X001725Y001087D01*
X001539Y001100D01*
X001180Y001196D01*
X000927Y001342D01*
X000554Y001714D01*
X000408Y001967D01*
X000312Y002326D01*
X000300Y002512D01*
X000300Y015898D01*
X000312Y016084D01*
X000408Y016443D01*
X000554Y016696D01*
X000927Y017068D01*
X001180Y017214D01*
X001539Y017311D01*
X001725Y017323D01*
X008961Y017323D01*
X009599Y016685D01*
X009599Y013930D01*
X009993Y013536D01*
X021804Y013536D01*
X022197Y013930D01*
X022197Y013939D02*
X028640Y013939D01*
X028541Y014038D02*
X022197Y014038D01*
X022197Y014136D02*
X028443Y014136D01*
X028344Y014235D02*
X022197Y014235D01*
X022197Y014333D02*
X028246Y014333D01*
X028147Y014432D02*
X022197Y014432D01*
X022197Y014530D02*
X027960Y014530D01*
X027870Y014629D02*
X022197Y014629D01*
X022197Y014727D02*
X027870Y014727D01*
X027882Y014826D02*
X022197Y014826D01*
X022197Y014924D02*
X027981Y014924D01*
X028225Y014924D02*
X039370Y014924D01*
X039370Y014826D02*
X028323Y014826D01*
X028336Y014727D02*
X039370Y014727D01*
X039370Y014629D02*
X028431Y014629D01*
X028530Y014530D02*
X039370Y014530D01*
X039370Y014432D02*
X028628Y014432D01*
X028727Y014333D02*
X039370Y014333D01*
X039370Y014235D02*
X028825Y014235D01*
X028924Y014136D02*
X039370Y014136D01*
X039370Y014038D02*
X029022Y014038D01*
X030268Y013339D02*
X029579Y012650D01*
X029721Y012462D02*
X039370Y012462D01*
X039370Y012560D02*
X029812Y012560D01*
X029814Y012659D02*
X039370Y012659D01*
X039370Y012757D02*
X029913Y012757D01*
X030011Y012856D02*
X039370Y012856D01*
X039370Y012954D02*
X030110Y012954D01*
X030307Y013151D02*
X030914Y013151D01*
X031056Y013339D02*
X030268Y013339D01*
X030932Y013545D02*
X021813Y013545D01*
X022197Y015023D02*
X039370Y015023D01*
X039370Y015121D02*
X038108Y015121D01*
X038100Y015118D02*
X038387Y015237D01*
X038606Y015456D01*
X038725Y015743D01*
X038725Y016053D01*
X038606Y016340D01*
X038387Y016559D01*
X038100Y016678D01*
X037790Y016678D01*
X037503Y016559D01*
X037284Y016340D01*
X037165Y016053D01*
X037165Y015743D01*
X037284Y015456D01*
X037503Y015237D01*
X037790Y015118D01*
X038100Y015118D01*
X038346Y015220D02*
X039370Y015220D01*
X039370Y015318D02*
X038469Y015318D01*
X038567Y015417D02*
X039370Y015417D01*
X039370Y015515D02*
X038631Y015515D01*
X038672Y015614D02*
X039370Y015614D01*
X039370Y015712D02*
X038713Y015712D01*
X038725Y015811D02*
X039370Y015811D01*
X039369Y015909D02*
X038725Y015909D01*
X038725Y016008D02*
X039363Y016008D01*
X039352Y016106D02*
X038703Y016106D01*
X038662Y016205D02*
X039325Y016205D01*
X039299Y016303D02*
X038622Y016303D01*
X038544Y016402D02*
X039273Y016402D01*
X039229Y016500D02*
X038446Y016500D01*
X038291Y016599D02*
X039172Y016599D01*
X039114Y016697D02*
X022209Y016697D01*
X022197Y016599D02*
X037599Y016599D01*
X037445Y016500D02*
X022197Y016500D01*
X022197Y016402D02*
X037346Y016402D01*
X037269Y016303D02*
X022197Y016303D01*
X022197Y016205D02*
X037228Y016205D01*
X037187Y016106D02*
X022197Y016106D01*
X022197Y016008D02*
X037165Y016008D01*
X037165Y015909D02*
X022197Y015909D01*
X022197Y015811D02*
X037165Y015811D01*
X037178Y015712D02*
X022197Y015712D01*
X022197Y015614D02*
X037219Y015614D01*
X037260Y015515D02*
X022197Y015515D01*
X022197Y015417D02*
X037323Y015417D01*
X037422Y015318D02*
X022197Y015318D01*
X022197Y015220D02*
X037544Y015220D01*
X037782Y015121D02*
X022197Y015121D01*
X022308Y016796D02*
X039016Y016796D01*
X038917Y016894D02*
X022406Y016894D01*
X022505Y016993D02*
X038819Y016993D01*
X038703Y017091D02*
X022603Y017091D01*
X022702Y017190D02*
X038533Y017190D01*
X038214Y017288D02*
X022800Y017288D01*
X031179Y013545D02*
X031396Y013545D01*
X031495Y013447D02*
X031277Y013447D01*
X031289Y013348D02*
X031593Y013348D01*
X031692Y013250D02*
X031289Y013250D01*
X031197Y013151D02*
X031790Y013151D01*
X033293Y010984D02*
X010822Y010984D01*
X010557Y011378D02*
X010014Y011378D01*
X009758Y011181D02*
X000300Y011181D01*
X000300Y011083D02*
X009857Y011083D01*
X009660Y011280D02*
X000300Y011280D01*
X000300Y011378D02*
X009561Y011378D01*
X009463Y011477D02*
X000300Y011477D01*
X000300Y011575D02*
X009364Y011575D01*
X009266Y011674D02*
X000300Y011674D01*
X000300Y011772D02*
X009167Y011772D01*
X009069Y011871D02*
X000300Y011871D01*
X000300Y011969D02*
X008970Y011969D01*
X008872Y012068D02*
X000300Y012068D01*
X000300Y012166D02*
X008773Y012166D01*
X008675Y012265D02*
X000300Y012265D01*
X000300Y012363D02*
X008576Y012363D01*
X009687Y013841D02*
X000300Y013841D01*
X000300Y013939D02*
X009599Y013939D01*
X009599Y014038D02*
X000300Y014038D01*
X000300Y014136D02*
X009599Y014136D01*
X009599Y014235D02*
X000300Y014235D01*
X000300Y014333D02*
X009599Y014333D01*
X009599Y014432D02*
X000300Y014432D01*
X000300Y014530D02*
X009599Y014530D01*
X009599Y014629D02*
X000300Y014629D01*
X000300Y014727D02*
X009599Y014727D01*
X009599Y014826D02*
X000300Y014826D01*
X000300Y014924D02*
X009599Y014924D01*
X009599Y015023D02*
X000300Y015023D01*
X000300Y015121D02*
X001562Y015121D01*
X001570Y015118D02*
X001880Y015118D01*
X002167Y015237D01*
X002386Y015456D01*
X002505Y015743D01*
X002505Y016053D01*
X002386Y016340D01*
X002167Y016559D01*
X001880Y016678D01*
X001570Y016678D01*
X001283Y016559D01*
X001064Y016340D01*
X000945Y016053D01*
X000945Y015743D01*
X001064Y015456D01*
X001283Y015237D01*
X001570Y015118D01*
X001324Y015220D02*
X000300Y015220D01*
X000300Y015318D02*
X001201Y015318D01*
X001103Y015417D02*
X000300Y015417D01*
X000300Y015515D02*
X001039Y015515D01*
X000998Y015614D02*
X000300Y015614D01*
X000300Y015712D02*
X000957Y015712D01*
X000945Y015811D02*
X000300Y015811D01*
X000301Y015909D02*
X000945Y015909D01*
X000945Y016008D02*
X000307Y016008D01*
X000318Y016106D02*
X000967Y016106D01*
X001008Y016205D02*
X000345Y016205D01*
X000371Y016303D02*
X001049Y016303D01*
X001126Y016402D02*
X000397Y016402D01*
X000441Y016500D02*
X001224Y016500D01*
X001379Y016599D02*
X000498Y016599D01*
X000556Y016697D02*
X009587Y016697D01*
X009599Y016599D02*
X002071Y016599D01*
X002225Y016500D02*
X009599Y016500D01*
X009599Y016402D02*
X002324Y016402D01*
X002401Y016303D02*
X009599Y016303D01*
X009599Y016205D02*
X002442Y016205D01*
X002483Y016106D02*
X009599Y016106D01*
X009599Y016008D02*
X002505Y016008D01*
X002505Y015909D02*
X009599Y015909D01*
X009599Y015811D02*
X002505Y015811D01*
X002492Y015712D02*
X009599Y015712D01*
X009599Y015614D02*
X002451Y015614D01*
X002411Y015515D02*
X009599Y015515D01*
X009599Y015417D02*
X002347Y015417D01*
X002248Y015318D02*
X009599Y015318D01*
X009599Y015220D02*
X002126Y015220D01*
X001888Y015121D02*
X009599Y015121D01*
X009488Y016796D02*
X000654Y016796D01*
X000753Y016894D02*
X009390Y016894D01*
X009291Y016993D02*
X000851Y016993D01*
X000967Y017091D02*
X009193Y017091D01*
X009094Y017190D02*
X001137Y017190D01*
X001456Y017288D02*
X008996Y017288D01*
X014147Y012166D02*
X039370Y012166D01*
X039370Y012068D02*
X014246Y012068D01*
X014344Y011969D02*
X020798Y011969D01*
X021234Y011969D02*
X039370Y011969D01*
X039370Y011871D02*
X021333Y011871D01*
X024176Y010886D02*
X033194Y010886D01*
X033185Y010787D02*
X024274Y010787D01*
X032110Y009014D02*
X000300Y009014D01*
X000300Y008916D02*
X032102Y008916D01*
X032102Y008817D02*
X000300Y008817D01*
X000300Y008719D02*
X032196Y008719D01*
X032474Y008719D02*
X039370Y008719D01*
X039370Y008817D02*
X038159Y008817D01*
X038195Y008832D02*
X038318Y008956D01*
X038385Y009118D01*
X038385Y009293D01*
X038318Y009454D01*
X038195Y009578D01*
X038033Y009645D01*
X037858Y009645D01*
X037696Y009578D01*
X037572Y009454D01*
X037505Y009293D01*
X037505Y009118D01*
X037572Y008956D01*
X037696Y008832D01*
X037858Y008765D01*
X038033Y008765D01*
X038195Y008832D01*
X038278Y008916D02*
X039370Y008916D01*
X039370Y009014D02*
X038343Y009014D01*
X038383Y009113D02*
X039370Y009113D01*
X039370Y009211D02*
X038385Y009211D01*
X038378Y009310D02*
X039370Y009310D01*
X039370Y009408D02*
X038337Y009408D01*
X038266Y009507D02*
X039370Y009507D01*
X039370Y009605D02*
X038129Y009605D01*
X037762Y009605D02*
X032525Y009605D01*
X032525Y009507D02*
X037625Y009507D01*
X037553Y009408D02*
X032525Y009408D01*
X032525Y009310D02*
X037512Y009310D01*
X037505Y009211D02*
X032525Y009211D01*
X032525Y009113D02*
X037507Y009113D01*
X037548Y009014D02*
X032560Y009014D01*
X032568Y008916D02*
X037612Y008916D01*
X037731Y008817D02*
X032568Y008817D01*
X032145Y009113D02*
X000300Y009113D01*
X000300Y009211D02*
X032145Y009211D01*
X032145Y009310D02*
X000300Y009310D01*
X000300Y009408D02*
X032145Y009408D01*
X032145Y009507D02*
X000300Y009507D01*
X000300Y009605D02*
X032145Y009605D01*
X032145Y009704D02*
X000300Y009704D01*
X000300Y009802D02*
X032145Y009802D01*
X032145Y009901D02*
X000300Y009901D01*
X000300Y009999D02*
X032145Y009999D01*
X032145Y010098D02*
X000300Y010098D01*
X000300Y010196D02*
X032145Y010196D01*
X033418Y010780D02*
X033516Y010681D01*
X034500Y010681D01*
X034599Y010780D01*
X034739Y010590D02*
X037726Y010590D01*
X034474Y010984D02*
X033543Y010984D01*
X033641Y010886D02*
X034375Y010886D01*
X037696Y008578D02*
X037858Y008645D01*
X038033Y008645D01*
X038195Y008578D01*
X038318Y008454D01*
X038385Y008293D01*
X038385Y008118D01*
X038318Y007956D01*
X038195Y007832D01*
X039370Y007832D01*
X039370Y007734D02*
X033159Y007734D01*
X033159Y007731D02*
X033022Y007594D01*
X032829Y007594D01*
X032786Y007637D01*
X032453Y007637D01*
X032201Y007889D01*
X032140Y007889D01*
X032004Y008026D01*
X032004Y008219D01*
X032140Y008355D01*
X032333Y008355D01*
X032470Y008219D01*
X032470Y008158D01*
X032611Y008017D01*
X032786Y008017D01*
X032829Y008060D01*
X033022Y008060D01*
X033159Y007924D01*
X033159Y007731D01*
X033159Y007832D02*
X037696Y007832D01*
X037858Y007765D01*
X038033Y007765D01*
X038195Y007832D01*
X038293Y007931D02*
X039370Y007931D01*
X039370Y008029D02*
X038349Y008029D01*
X038385Y008128D02*
X039370Y008128D01*
X039370Y008226D02*
X038385Y008226D01*
X038372Y008325D02*
X039370Y008325D01*
X039370Y008423D02*
X038331Y008423D01*
X038251Y008522D02*
X039370Y008522D01*
X039370Y008620D02*
X038092Y008620D01*
X037798Y008620D02*
X000300Y008620D01*
X000300Y008522D02*
X037640Y008522D01*
X037696Y008578D02*
X037572Y008454D01*
X037505Y008293D01*
X037505Y008118D01*
X037572Y007956D01*
X037696Y007832D01*
X037597Y007931D02*
X033151Y007931D01*
X033053Y008029D02*
X037542Y008029D01*
X037505Y008128D02*
X032500Y008128D01*
X032462Y008226D02*
X037505Y008226D01*
X037519Y008325D02*
X032364Y008325D01*
X032110Y008325D02*
X000300Y008325D01*
X000300Y008423D02*
X037559Y008423D01*
X037858Y007645D02*
X037696Y007578D01*
X037572Y007454D01*
X037505Y007293D01*
X037505Y007118D01*
X037572Y006956D01*
X037696Y006832D01*
X037858Y006765D01*
X038033Y006765D01*
X038195Y006832D01*
X038318Y006956D01*
X038385Y007118D01*
X038385Y007293D01*
X038318Y007454D01*
X038195Y007578D01*
X038033Y007645D01*
X037858Y007645D01*
X037834Y007635D02*
X033063Y007635D01*
X032788Y007635D02*
X000300Y007635D01*
X000300Y007537D02*
X037655Y007537D01*
X037566Y007438D02*
X000300Y007438D01*
X000300Y007340D02*
X037525Y007340D01*
X037505Y007241D02*
X000300Y007241D01*
X000300Y007143D02*
X037505Y007143D01*
X037536Y007044D02*
X000300Y007044D01*
X000300Y006946D02*
X037582Y006946D01*
X037681Y006847D02*
X000300Y006847D01*
X000300Y006749D02*
X039370Y006749D01*
X039370Y006847D02*
X038210Y006847D01*
X038308Y006946D02*
X039370Y006946D01*
X039370Y007044D02*
X038355Y007044D01*
X038385Y007143D02*
X039370Y007143D01*
X039370Y007241D02*
X038385Y007241D01*
X038366Y007340D02*
X039370Y007340D01*
X039370Y007438D02*
X038325Y007438D01*
X038236Y007537D02*
X039370Y007537D01*
X039370Y007635D02*
X038056Y007635D01*
X039370Y006650D02*
X000300Y006650D01*
X000300Y006552D02*
X039370Y006552D01*
X039370Y006453D02*
X000300Y006453D01*
X000300Y006355D02*
X019707Y006355D01*
X019739Y006387D02*
X019602Y006250D01*
X019602Y006057D01*
X019739Y005921D01*
X019932Y005921D01*
X020005Y005994D01*
X022033Y005994D01*
X022260Y005767D01*
X022260Y005664D01*
X022396Y005527D01*
X022589Y005527D01*
X022726Y005664D01*
X022726Y005857D01*
X022589Y005993D01*
X022486Y005993D01*
X022165Y006314D01*
X020005Y006314D01*
X019932Y006387D01*
X019739Y006387D01*
X019608Y006256D02*
X000300Y006256D01*
X000300Y006158D02*
X019602Y006158D01*
X019602Y006059D02*
X000300Y006059D01*
X000300Y005961D02*
X019699Y005961D01*
X019835Y006154D02*
X022099Y006154D01*
X022493Y005760D01*
X022726Y005764D02*
X030105Y005764D01*
X030105Y005862D02*
X022720Y005862D01*
X022621Y005961D02*
X030105Y005961D01*
X030105Y006029D02*
X030105Y003842D01*
X029135Y002872D01*
X012110Y002872D01*
X011184Y003799D01*
X011111Y003871D01*
X011111Y003888D01*
X010975Y004025D01*
X010921Y004025D01*
X010852Y004053D01*
X010708Y004053D01*
X010639Y004025D01*
X010585Y004025D01*
X010449Y003888D01*
X010449Y003834D01*
X010420Y003765D01*
X010420Y003622D01*
X010449Y003553D01*
X010449Y003498D01*
X010585Y003362D01*
X010602Y003362D01*
X010674Y003290D01*
X011757Y002207D01*
X011889Y002152D01*
X029355Y002152D01*
X029488Y002207D01*
X030770Y003489D01*
X030825Y003622D01*
X030825Y006029D01*
X030796Y006098D01*
X030796Y006152D01*
X030660Y006289D01*
X030606Y006289D01*
X030537Y006317D01*
X030393Y006317D01*
X030324Y006289D01*
X030270Y006289D01*
X030134Y006152D01*
X030134Y006098D01*
X030105Y006029D01*
X030118Y006059D02*
X022420Y006059D01*
X022321Y006158D02*
X030139Y006158D01*
X030238Y006256D02*
X022223Y006256D01*
X022066Y005961D02*
X019972Y005961D01*
X019964Y006355D02*
X039370Y006355D01*
X039370Y006256D02*
X030692Y006256D01*
X030790Y006158D02*
X039370Y006158D01*
X039370Y006059D02*
X030812Y006059D01*
X030825Y005961D02*
X039370Y005961D01*
X039370Y005862D02*
X030825Y005862D01*
X030825Y005764D02*
X039370Y005764D01*
X039370Y005665D02*
X030825Y005665D01*
X030825Y005567D02*
X039370Y005567D01*
X039370Y005468D02*
X030825Y005468D01*
X030825Y005370D02*
X039370Y005370D01*
X039370Y005271D02*
X030825Y005271D01*
X030825Y005173D02*
X039370Y005173D01*
X039370Y005074D02*
X030825Y005074D01*
X030825Y004976D02*
X039370Y004976D01*
X039370Y004877D02*
X030825Y004877D01*
X030825Y004779D02*
X039370Y004779D01*
X039370Y004680D02*
X030825Y004680D01*
X030825Y004582D02*
X039370Y004582D01*
X039370Y004483D02*
X030825Y004483D01*
X030825Y004385D02*
X039370Y004385D01*
X039370Y004286D02*
X030825Y004286D01*
X030825Y004188D02*
X039370Y004188D01*
X039370Y004089D02*
X030825Y004089D01*
X030825Y003991D02*
X039370Y003991D01*
X039370Y003892D02*
X030825Y003892D01*
X030825Y003794D02*
X039370Y003794D01*
X039370Y003695D02*
X030825Y003695D01*
X030815Y003597D02*
X039370Y003597D01*
X039370Y003498D02*
X030774Y003498D01*
X030681Y003400D02*
X039370Y003400D01*
X039370Y003301D02*
X030582Y003301D01*
X030484Y003203D02*
X037575Y003203D01*
X037503Y003173D02*
X037284Y002954D01*
X037165Y002667D01*
X037165Y002357D01*
X037284Y002070D01*
X037503Y001851D01*
X037790Y001732D01*
X038100Y001732D01*
X038387Y001851D01*
X038606Y002070D01*
X038725Y002357D01*
X038725Y002667D01*
X038606Y002954D01*
X038387Y003173D01*
X038100Y003292D01*
X037790Y003292D01*
X037503Y003173D01*
X037435Y003104D02*
X033438Y003104D01*
X033485Y003085D02*
X033365Y003135D01*
X033235Y003135D01*
X033114Y003085D01*
X033022Y002993D01*
X032972Y002873D01*
X032972Y002742D01*
X033022Y002622D01*
X033114Y002530D01*
X033235Y002480D01*
X033365Y002480D01*
X033485Y002530D01*
X033577Y002622D01*
X033627Y002742D01*
X033627Y002873D01*
X033577Y002993D01*
X033485Y003085D01*
X033564Y003006D02*
X037336Y003006D01*
X037265Y002907D02*
X033612Y002907D01*
X033627Y002809D02*
X037224Y002809D01*
X037183Y002710D02*
X033614Y002710D01*
X033567Y002612D02*
X037165Y002612D01*
X037165Y002513D02*
X033445Y002513D01*
X033155Y002513D02*
X031712Y002513D01*
X031753Y002530D02*
X031632Y002480D01*
X031502Y002480D01*
X031382Y002530D01*
X031290Y002622D01*
X031240Y002742D01*
X031240Y002873D01*
X031290Y002993D01*
X031382Y003085D01*
X031502Y003135D01*
X031632Y003135D01*
X031753Y003085D01*
X031845Y002993D01*
X031894Y002873D01*
X031894Y002742D01*
X031845Y002622D01*
X031753Y002530D01*
X031834Y002612D02*
X033032Y002612D01*
X032986Y002710D02*
X031881Y002710D01*
X031894Y002809D02*
X032972Y002809D01*
X032987Y002907D02*
X031880Y002907D01*
X031832Y003006D02*
X033035Y003006D01*
X033162Y003104D02*
X031705Y003104D01*
X031429Y003104D02*
X030385Y003104D01*
X030287Y003006D02*
X031303Y003006D01*
X031255Y002907D02*
X030188Y002907D01*
X030090Y002809D02*
X031240Y002809D01*
X031253Y002710D02*
X029991Y002710D01*
X029893Y002612D02*
X031300Y002612D01*
X031422Y002513D02*
X029794Y002513D01*
X029696Y002415D02*
X037165Y002415D01*
X037182Y002316D02*
X029597Y002316D01*
X029499Y002218D02*
X037223Y002218D01*
X037264Y002119D02*
X002406Y002119D01*
X002386Y002070D02*
X002505Y002357D01*
X002505Y002667D01*
X002386Y002954D01*
X002167Y003173D01*
X001880Y003292D01*
X001570Y003292D01*
X001283Y003173D01*
X001064Y002954D01*
X000945Y002667D01*
X000945Y002357D01*
X001064Y002070D01*
X001283Y001851D01*
X001570Y001732D01*
X001880Y001732D01*
X002167Y001851D01*
X002386Y002070D01*
X002336Y002021D02*
X037334Y002021D01*
X037432Y001922D02*
X028377Y001922D01*
X028355Y001945D02*
X028480Y001820D01*
X028548Y001656D01*
X028548Y001479D01*
X028480Y001315D01*
X028355Y001190D01*
X028191Y001122D01*
X028014Y001122D01*
X027851Y001190D01*
X027725Y001315D01*
X027657Y001479D01*
X027657Y001656D01*
X027725Y001820D01*
X027851Y001945D01*
X028014Y002013D01*
X028191Y002013D01*
X028355Y001945D01*
X028476Y001824D02*
X037569Y001824D01*
X038322Y001824D02*
X039179Y001824D01*
X039236Y001922D02*
X038458Y001922D01*
X038557Y002021D02*
X039276Y002021D01*
X039302Y002119D02*
X038627Y002119D01*
X038668Y002218D02*
X039329Y002218D01*
X039355Y002316D02*
X038708Y002316D01*
X038725Y002415D02*
X039364Y002415D01*
X039370Y002513D02*
X038725Y002513D01*
X038725Y002612D02*
X039370Y002612D01*
X039370Y002710D02*
X038707Y002710D01*
X038667Y002809D02*
X039370Y002809D01*
X039370Y002907D02*
X038626Y002907D01*
X038555Y003006D02*
X039370Y003006D01*
X039370Y003104D02*
X038456Y003104D01*
X038316Y003203D02*
X039370Y003203D01*
X039122Y001725D02*
X028519Y001725D01*
X028548Y001627D02*
X039028Y001627D01*
X038930Y001528D02*
X028548Y001528D01*
X028528Y001430D02*
X038831Y001430D01*
X038725Y001331D02*
X028487Y001331D01*
X028398Y001233D02*
X038555Y001233D01*
X038261Y001134D02*
X028221Y001134D01*
X027984Y001134D02*
X001409Y001134D01*
X001115Y001233D02*
X027807Y001233D01*
X027719Y001331D02*
X000945Y001331D01*
X000839Y001430D02*
X027678Y001430D01*
X027657Y001528D02*
X000740Y001528D01*
X000642Y001627D02*
X027657Y001627D01*
X027686Y001725D02*
X000548Y001725D01*
X000491Y001824D02*
X001348Y001824D01*
X001212Y001922D02*
X000434Y001922D01*
X000394Y002021D02*
X001113Y002021D01*
X001043Y002119D02*
X000368Y002119D01*
X000341Y002218D02*
X001003Y002218D01*
X000962Y002316D02*
X000315Y002316D01*
X000306Y002415D02*
X000945Y002415D01*
X000945Y002513D02*
X000300Y002513D01*
X000300Y002612D02*
X000945Y002612D01*
X000963Y002710D02*
X000300Y002710D01*
X000300Y002809D02*
X001004Y002809D01*
X001044Y002907D02*
X000300Y002907D01*
X000300Y003006D02*
X001116Y003006D01*
X001214Y003104D02*
X000300Y003104D01*
X000300Y003203D02*
X001354Y003203D01*
X002095Y003203D02*
X010761Y003203D01*
X010663Y003301D02*
X000300Y003301D01*
X000300Y003400D02*
X010547Y003400D01*
X010449Y003498D02*
X000300Y003498D01*
X000300Y003597D02*
X010430Y003597D01*
X010420Y003695D02*
X000300Y003695D01*
X000300Y003794D02*
X010432Y003794D01*
X010453Y003892D02*
X000300Y003892D01*
X000300Y003991D02*
X010551Y003991D01*
X011009Y003991D02*
X027805Y003991D01*
X027851Y003946D02*
X028014Y003878D01*
X028191Y003878D01*
X028355Y003946D01*
X028480Y004071D01*
X028548Y004235D01*
X028548Y004412D01*
X028480Y004575D01*
X028355Y004701D01*
X028191Y004769D01*
X028014Y004769D01*
X027851Y004701D01*
X027725Y004575D01*
X027657Y004412D01*
X027657Y004235D01*
X027725Y004071D01*
X027851Y003946D01*
X027979Y003892D02*
X011107Y003892D01*
X011188Y003794D02*
X030056Y003794D01*
X030105Y003892D02*
X028226Y003892D01*
X028400Y003991D02*
X030105Y003991D01*
X030105Y004089D02*
X028488Y004089D01*
X028529Y004188D02*
X030105Y004188D01*
X030105Y004286D02*
X028548Y004286D01*
X028548Y004385D02*
X030105Y004385D01*
X030105Y004483D02*
X028518Y004483D01*
X028474Y004582D02*
X030105Y004582D01*
X030105Y004680D02*
X028375Y004680D01*
X027830Y004680D02*
X000300Y004680D01*
X000300Y004582D02*
X027732Y004582D01*
X027687Y004483D02*
X000300Y004483D01*
X000300Y004385D02*
X027657Y004385D01*
X027657Y004286D02*
X000300Y004286D01*
X000300Y004188D02*
X027677Y004188D01*
X027718Y004089D02*
X000300Y004089D01*
X000300Y004779D02*
X030105Y004779D01*
X030105Y004877D02*
X000300Y004877D01*
X000300Y004976D02*
X030105Y004976D01*
X030105Y005074D02*
X000300Y005074D01*
X000300Y005173D02*
X030105Y005173D01*
X030105Y005271D02*
X000300Y005271D01*
X000300Y005370D02*
X030105Y005370D01*
X030105Y005468D02*
X000300Y005468D01*
X000300Y005567D02*
X022356Y005567D01*
X022260Y005665D02*
X000300Y005665D01*
X000300Y005764D02*
X022260Y005764D01*
X022164Y005862D02*
X000300Y005862D01*
X000300Y007734D02*
X032356Y007734D01*
X032258Y007832D02*
X000300Y007832D01*
X000300Y007931D02*
X032099Y007931D01*
X032004Y008029D02*
X000300Y008029D01*
X000300Y008128D02*
X032004Y008128D01*
X032011Y008226D02*
X000300Y008226D01*
X011287Y003695D02*
X029958Y003695D01*
X029859Y003597D02*
X011385Y003597D01*
X011484Y003498D02*
X029761Y003498D01*
X029662Y003400D02*
X011582Y003400D01*
X011681Y003301D02*
X029564Y003301D01*
X029465Y003203D02*
X011779Y003203D01*
X011878Y003104D02*
X029367Y003104D01*
X029268Y003006D02*
X011976Y003006D01*
X012075Y002907D02*
X029170Y002907D01*
X027828Y001922D02*
X002238Y001922D01*
X002101Y001824D02*
X027730Y001824D01*
X030105Y005567D02*
X022629Y005567D01*
X022726Y005665D02*
X030105Y005665D01*
X030465Y005957D02*
X030367Y006056D01*
X032598Y008029D02*
X032798Y008029D01*
X011746Y002218D02*
X002447Y002218D01*
X002488Y002316D02*
X011648Y002316D01*
X011549Y002415D02*
X002505Y002415D01*
X002505Y002513D02*
X011451Y002513D01*
X011352Y002612D02*
X002505Y002612D01*
X002487Y002710D02*
X011254Y002710D01*
X011155Y002809D02*
X002446Y002809D01*
X002405Y002907D02*
X011057Y002907D01*
X010958Y003006D02*
X002334Y003006D01*
X002236Y003104D02*
X010860Y003104D01*
D13*
X010878Y003595D03*
X010681Y003595D03*
X010681Y003792D03*
X010878Y003792D03*
X010878Y003792D03*
X009599Y002906D03*
X008024Y002906D03*
X006449Y002906D03*
X004874Y002906D03*
X003300Y002906D03*
X003300Y004087D03*
X002119Y004087D03*
X000937Y004087D03*
X000937Y004874D03*
X000937Y005662D03*
X000937Y006449D03*
X000937Y007237D03*
X000937Y008024D03*
X000937Y008811D03*
X000937Y009599D03*
X000937Y010386D03*
X000937Y011174D03*
X000937Y011961D03*
X000937Y012748D03*
X000937Y013536D03*
X000937Y014323D03*
X002119Y014323D03*
X003300Y014323D03*
X004284Y014520D03*
X004284Y014914D03*
X004284Y015307D03*
X003300Y015504D03*
X004284Y015701D03*
X004678Y015701D03*
X005071Y015701D03*
X004874Y016685D03*
X004087Y016685D03*
X003300Y016685D03*
X005662Y016685D03*
X006449Y016685D03*
X007237Y016685D03*
X008024Y016685D03*
X008811Y016685D03*
X009205Y016292D03*
X008418Y015701D03*
X008221Y015701D03*
X009205Y015504D03*
X009205Y014717D03*
X009205Y013930D03*
X009599Y013536D03*
X009993Y013142D03*
X010780Y013142D03*
X011567Y013142D03*
X012355Y013142D03*
X013831Y012552D03*
X014323Y012748D03*
X014323Y013142D03*
X015111Y013142D03*
X015898Y013142D03*
X015898Y012748D03*
X016685Y013142D03*
X017473Y013142D03*
X017473Y012748D03*
X020032Y012355D03*
X021016Y012552D03*
X021016Y013142D03*
X021804Y013142D03*
X022197Y013536D03*
X022591Y013930D03*
X023772Y013536D03*
X025347Y013536D03*
X026922Y013142D03*
X026922Y012552D03*
X028496Y012552D03*
X029481Y012945D03*
X029481Y013142D03*
X029579Y012650D03*
X031056Y013339D03*
X032138Y013634D03*
X032926Y014028D03*
X032926Y014323D03*
X032926Y014619D03*
X032926Y014914D03*
X032926Y015209D03*
X032926Y015504D03*
X032926Y015800D03*
X032926Y016095D03*
X033221Y016095D03*
X033516Y016095D03*
X033811Y016095D03*
X034107Y016095D03*
X034500Y016095D03*
X034796Y016095D03*
X034796Y015800D03*
X034796Y015504D03*
X034796Y015209D03*
X034796Y014914D03*
X034796Y014619D03*
X034796Y014323D03*
X034796Y014028D03*
X035583Y013634D03*
X035583Y013437D03*
X035583Y013142D03*
X035583Y012945D03*
X033713Y013241D03*
X032138Y012748D03*
X031646Y012355D03*
X033615Y012355D03*
X033615Y012059D03*
X034599Y011666D03*
X034599Y011370D03*
X034599Y010780D03*
X033418Y010780D03*
X032827Y010780D03*
X032335Y010485D03*
X031646Y010780D03*
X030268Y010681D03*
X029481Y010091D03*
X029481Y009894D03*
X030859Y009008D03*
X030859Y008811D03*
X030170Y008615D03*
X030662Y008122D03*
X030662Y007926D03*
X030071Y007827D03*
X029874Y007827D03*
X029579Y007827D03*
X029382Y007827D03*
X032237Y008122D03*
X032926Y007827D03*
X033615Y008024D03*
X033910Y008615D03*
X034107Y008615D03*
X035583Y009205D03*
X037158Y009205D03*
X038930Y008811D03*
X038930Y008024D03*
X038733Y007237D03*
X038733Y006449D03*
X038733Y005662D03*
X038733Y004874D03*
X038733Y004087D03*
X037552Y004087D03*
X036370Y004087D03*
X036370Y002906D03*
X034402Y002906D03*
X034008Y002906D03*
X034008Y002512D03*
X034402Y002512D03*
X035583Y001725D03*
X036370Y001725D03*
X033418Y003890D03*
X033418Y004087D03*
X030859Y002906D03*
X030465Y002906D03*
X030465Y002512D03*
X030859Y002512D03*
X029284Y001725D03*
X026922Y001725D03*
X026134Y001725D03*
X025347Y001725D03*
X024559Y001725D03*
X023772Y001725D03*
X022985Y001725D03*
X022197Y001725D03*
X021410Y001725D03*
X020622Y001725D03*
X019835Y001725D03*
X019048Y001725D03*
X018260Y001725D03*
X017473Y001725D03*
X016685Y001725D03*
X015898Y001725D03*
X015111Y001725D03*
X014323Y001725D03*
X013536Y001725D03*
X012748Y001725D03*
X011961Y001725D03*
X011174Y001725D03*
X010386Y001725D03*
X009599Y001725D03*
X008811Y001725D03*
X008024Y001725D03*
X007237Y001725D03*
X006449Y001725D03*
X005662Y001725D03*
X004874Y001725D03*
X004087Y001725D03*
X003300Y001725D03*
X004874Y004087D03*
X006449Y004087D03*
X008024Y004087D03*
X008024Y005662D03*
X006449Y005662D03*
X004874Y005662D03*
X004874Y007237D03*
X003300Y007237D03*
X006449Y007237D03*
X008024Y007237D03*
X009008Y007827D03*
X009993Y007827D03*
X010780Y007827D03*
X011272Y007335D03*
X011764Y006843D03*
X012355Y006843D03*
X012945Y006843D03*
X013536Y006843D03*
X014225Y006843D03*
X014225Y007040D03*
X014323Y008418D03*
X012748Y008418D03*
X011961Y009205D03*
X010583Y009205D03*
X008910Y009304D03*
X008713Y009304D03*
X008319Y009304D03*
X008122Y009304D03*
X008024Y008811D03*
X006449Y008811D03*
X004874Y008811D03*
X003300Y008811D03*
X004678Y010386D03*
X006252Y010386D03*
X007532Y010386D03*
X010583Y010780D03*
X010681Y011174D03*
X011961Y010780D03*
X013831Y011370D03*
X014323Y011174D03*
X015898Y011174D03*
X017473Y011174D03*
X017473Y010780D03*
X017867Y010780D03*
X017473Y010386D03*
X017473Y009599D03*
X015898Y009599D03*
X014323Y009599D03*
X015898Y008418D03*
X017473Y008418D03*
X019048Y008418D03*
X021311Y008713D03*
X022591Y008024D03*
X021804Y007237D03*
X020622Y007237D03*
X019835Y007237D03*
X019835Y006154D03*
X018851Y006154D03*
X022493Y005760D03*
X022985Y006056D03*
X023772Y006843D03*
X024559Y007630D03*
X025347Y008418D03*
X026134Y009205D03*
X027119Y010189D03*
X025741Y011174D03*
X024559Y011174D03*
X023378Y011174D03*
X022197Y011174D03*
X021410Y011469D03*
X021016Y011567D03*
X021016Y011174D03*
X019441Y010780D03*
X019441Y010386D03*
X021410Y010091D03*
X023378Y008811D03*
X024166Y009599D03*
X024953Y010386D03*
X024559Y012552D03*
X023378Y012552D03*
X022197Y012552D03*
X022591Y014717D03*
X023772Y015111D03*
X022591Y015504D03*
X022591Y016292D03*
X022985Y016685D03*
X023772Y016685D03*
X024559Y016685D03*
X025347Y016685D03*
X026134Y016685D03*
X026922Y016685D03*
X027709Y016685D03*
X028496Y016685D03*
X029284Y016685D03*
X030071Y016685D03*
X030859Y016685D03*
X031646Y016685D03*
X032433Y016685D03*
X033221Y016685D03*
X034008Y016685D03*
X034796Y016685D03*
X035583Y016685D03*
X036370Y016685D03*
X033811Y015800D03*
X033811Y015504D03*
X033811Y015209D03*
X033811Y014914D03*
X033811Y014619D03*
X033811Y014323D03*
X033811Y014028D03*
X036370Y014323D03*
X037552Y014323D03*
X038733Y014323D03*
X038733Y013536D03*
X038733Y012748D03*
X038733Y011961D03*
X038733Y011174D03*
X038733Y010386D03*
X038930Y009599D03*
X033418Y009402D03*
X032335Y008910D03*
X032433Y007040D03*
X032926Y006941D03*
X030563Y006056D03*
X030367Y006056D03*
X030367Y005859D03*
X030563Y005859D03*
X028496Y006056D03*
X028300Y006056D03*
X027512Y006252D03*
X027315Y006252D03*
X027315Y004087D03*
X026922Y004087D03*
X026528Y004087D03*
X019441Y002512D03*
X019343Y003201D03*
X018359Y003201D03*
X017276Y003201D03*
X015898Y003300D03*
X015898Y003693D03*
X015898Y004087D03*
X015504Y004087D03*
X013536Y004087D03*
X013142Y004087D03*
X013142Y003693D03*
X013142Y003300D03*
X018851Y004185D03*
X003300Y011961D03*
X006843Y013536D03*
X006843Y013930D03*
X008221Y012945D03*
X025347Y015111D03*
X026922Y015111D03*
X028103Y014717D03*
X028496Y015111D03*
X030071Y015406D03*
X030071Y015603D03*
X030071Y014815D03*
X030071Y014225D03*
X029185Y014225D03*
X028496Y013536D03*
X036370Y015504D03*
D14*
X030465Y005957D02*
X030465Y003693D01*
X029284Y002512D01*
X019441Y002512D01*
X011961Y002512D01*
X010878Y003595D01*
X010780Y003693D01*
D15*
X010681Y003792D01*
X010780Y003693D02*
X010681Y003595D01*
X010878Y003595D01*
X010780Y003693D02*
X010878Y003792D01*
X032237Y008122D02*
X032532Y007827D01*
X032926Y007827D01*
X032335Y008910D02*
X032335Y010485D01*
D16*
X031941Y013241D02*
X031351Y013831D01*
X028989Y013831D01*
X028103Y014717D01*
X031941Y013241D02*
X033713Y013241D01*
M02*
