%
M48
M72
T01C0.0126
T02C0.0354
T03C0.0394
T04C0.0512
T05C0.0591
T06C0.1260
%
T01
X3300Y1725
X4087Y1725
X4874Y1725
X5662Y1725
X6449Y1725
X7237Y1725
X8024Y1725
X8811Y1725
X9599Y1725
X10386Y1725
X11174Y1725
X11961Y1725
X12748Y1725
X13536Y1725
X14323Y1725
X15111Y1725
X15898Y1725
X16685Y1725
X17473Y1725
X18260Y1725
X19048Y1725
X19835Y1725
X20622Y1725
X21410Y1725
X22197Y1725
X22985Y1725
X23772Y1725
X24559Y1725
X25347Y1725
X26134Y1725
X26922Y1725
X29284Y1725
X30465Y2512
X30859Y2512
X30859Y2906
X30465Y2906
X34008Y2906
X34402Y2906
X34402Y2512
X34008Y2512
X35583Y1725
X36370Y1725
X36370Y15504
X34796Y15504
X34796Y15209
X34796Y14914
X34796Y14619
X34796Y14323
X34796Y14028
X35583Y13634
X35583Y13437
X35583Y13142
X35583Y12945
X33713Y13241
X32138Y13634
X32926Y14028
X32926Y14323
X32926Y14619
X32926Y14914
X32926Y15209
X32926Y15504
X32926Y15800
X32926Y16095
X33221Y16095
X33516Y16095
X33811Y16095
X34107Y16095
X34500Y16095
X34796Y16095
X34796Y15800
X33811Y15800
X33811Y15504
X33811Y15209
X33811Y14914
X33811Y14619
X33811Y14323
X33811Y14028
X36370Y14323
X37552Y14323
X38733Y14323
X38733Y13536
X38733Y12748
X38733Y11961
X38733Y11174
X38733Y10386
X38930Y9599
X38930Y8811
X38930Y8024
X38733Y7237
X38733Y6449
X38733Y5662
X38733Y4874
X38733Y4087
X37552Y4087
X36370Y4087
X36370Y2906
X33418Y3890
X33418Y4087
X30563Y5859
X30367Y5859
X30367Y6056
X30563Y6056
X32433Y7040
X32926Y6941
X32926Y7827
X33615Y8024
X33910Y8615
X34107Y8615
X35583Y9205
X37158Y9205
X34599Y10780
X34599Y11370
X34599Y11666
X33615Y12059
X33615Y12355
X32138Y12748
X31646Y12355
X31056Y13339
X29481Y13142
X29481Y12945
X29579Y12650
X28496Y12552
X26922Y12552
X26922Y13142
X28496Y13536
X29185Y14225
X30071Y14225
X30071Y14815
X30071Y15406
X30071Y15603
X28496Y15111
X28103Y14717
X26922Y15111
X25347Y15111
X23772Y15111
X22591Y15504
X22591Y14717
X22591Y13930
X22197Y13536
X21804Y13142
X21016Y13142
X21016Y12552
X20032Y12355
X21016Y11567
X21410Y11469
X21016Y11174
X22197Y11174
X23378Y11174
X24559Y11174
X25741Y11174
X24953Y10386
X24166Y9599
X23378Y8811
X22591Y8024
X21804Y7237
X20622Y7237
X19835Y7237
X19048Y8418
X17473Y8418
X15898Y8418
X14323Y8418
X12748Y8418
X11961Y9205
X10583Y9205
X8910Y9304
X8713Y9304
X8319Y9304
X8122Y9304
X8024Y8811
X6449Y8811
X4874Y8811
X3300Y8811
X937Y8811
X937Y8024
X937Y7237
X937Y6449
X937Y5662
X937Y4874
X937Y4087
X2119Y4087
X3300Y4087
X4874Y4087
X6449Y4087
X8024Y4087
X10681Y3792
X10681Y3595
X10878Y3595
X10878Y3792
X10878Y3792
X9599Y2906
X8024Y2906
X6449Y2906
X4874Y2906
X3300Y2906
X36370Y16685
X35583Y16685
X34796Y16685
X34008Y16685
X33221Y16685
X32433Y16685
X31646Y16685
X30859Y16685
X30071Y16685
X29284Y16685
X28496Y16685
X27709Y16685
X26922Y16685
X26134Y16685
X25347Y16685
X24559Y16685
X23772Y16685
X22985Y16685
X22591Y16292
X23772Y13536
X25347Y13536
X24559Y12552
X23378Y12552
X22197Y12552
X19441Y10780
X19441Y10386
X17867Y10780
X17473Y10780
X17473Y11174
X15898Y11174
X14323Y11174
X13831Y11370
X11961Y10780
X10681Y11174
X10583Y10780
X7532Y10386
X6252Y10386
X4678Y10386
X3300Y11961
X937Y11961
X937Y11174
X937Y10386
X937Y9599
X3300Y7237
X4874Y7237
X6449Y7237
X8024Y7237
X9008Y7827
X9993Y7827
X10780Y7827
X11272Y7335
X11764Y6843
X12355Y6843
X12945Y6843
X13536Y6843
X14225Y6843
X14225Y7040
X18851Y6154
X19835Y6154
X22493Y5760
X22985Y6056
X23772Y6843
X24559Y7630
X25347Y8418
X26134Y9205
X27119Y10189
X29481Y10091
X29481Y9894
X30268Y10681
X31646Y10780
X32335Y10485
X32827Y10780
X33418Y10780
X33418Y9402
X32335Y8910
X32237Y8122
X30859Y8811
X30170Y8615
X30662Y8122
X30662Y7926
X30071Y7827
X29874Y7827
X29579Y7827
X29382Y7827
X30859Y9008
X27512Y6252
X27315Y6252
X28300Y6056
X28496Y6056
X27315Y4087
X26922Y4087
X26528Y4087
X19441Y2512
X19343Y3201
X18359Y3201
X17276Y3201
X15898Y3300
X15898Y3693
X15898Y4087
X15504Y4087
X13536Y4087
X13142Y4087
X13142Y3693
X13142Y3300
X8024Y5662
X6449Y5662
X4874Y5662
X14323Y9599
X15898Y9599
X17473Y9599
X17473Y10386
X21410Y10091
X21311Y8713
X13831Y12552
X14323Y12748
X14323Y13142
X15111Y13142
X15898Y13142
X15898Y12748
X16685Y13142
X17473Y13142
X17473Y12748
X12355Y13142
X11567Y13142
X10780Y13142
X9993Y13142
X9599Y13536
X9205Y13930
X9205Y14717
X9205Y15504
X8418Y15701
X8221Y15701
X9205Y16292
X8811Y16685
X8024Y16685
X7237Y16685
X6449Y16685
X5662Y16685
X4874Y16685
X4087Y16685
X3300Y16685
X4284Y15701
X4678Y15701
X5071Y15701
X4284Y15307
X4284Y14914
X4284Y14520
X3300Y14323
X2119Y14323
X937Y14323
X937Y13536
X937Y12748
X3300Y15504
X6843Y13930
X6843Y13536
X8221Y12945
X18851Y4185
T02
X31567Y2807
X33300Y2807
T03
X37945Y7205
X37945Y8205
X37945Y9205
X37945Y10205
X37945Y11205
X23979Y10593
T04
X26067Y12681
T05
X28103Y1567
X28103Y4323
T06
X1725Y2512
X1725Y15898
X37945Y15898
X37945Y2512
M30
