G75*
G70*
%OFA0B0*%
%FSLAX24Y24*%
%IPPOS*%
%LPD*%
%AMOC8*
5,1,8,0,0,1.08239X$1,22.5*
%
%ADD10C,0.0000*%
%ADD11C,0.1300*%
%ADD12R,0.0473X0.0434*%
%ADD13R,0.1064X0.1516*%
%ADD14R,0.1064X0.1418*%
%ADD15C,0.0434*%
%ADD16C,0.0552*%
%ADD17R,0.0434X0.0473*%
%ADD18R,0.0355X0.0355*%
%ADD19R,0.0827X0.1024*%
%ADD20R,0.0827X0.1339*%
%ADD21R,0.0237X0.1260*%
%ADD22C,0.0394*%
%ADD23R,0.0512X0.0257*%
%ADD24R,0.1221X0.1221*%
%ADD25R,0.0276X0.0906*%
%ADD26R,0.0434X0.0591*%
%ADD27R,0.0670X0.0750*%
%ADD28C,0.0827*%
%ADD29R,0.0946X0.1024*%
%ADD30R,0.2205X0.0768*%
%ADD31R,0.0670X0.1103*%
%ADD32R,0.0827X0.0670*%
%ADD33R,0.0749X0.0473*%
%ADD34R,0.0158X0.0512*%
%ADD35R,0.0512X0.0158*%
%ADD36C,0.0700*%
%ADD37R,0.0276X0.0512*%
%ADD38R,0.0512X0.0276*%
%ADD39R,0.1142X0.0631*%
%ADD40C,0.0631*%
%ADD41R,0.0827X0.0985*%
%ADD42R,0.0257X0.0512*%
%ADD43R,0.0434X0.0749*%
%ADD44R,0.0440X0.1340*%
%ADD45R,0.0900X0.0460*%
D10*
X001725Y000937D02*
X037945Y000937D01*
X037315Y002512D02*
X037317Y002562D01*
X037323Y002612D01*
X037333Y002661D01*
X037347Y002709D01*
X037364Y002756D01*
X037385Y002801D01*
X037410Y002845D01*
X037438Y002886D01*
X037470Y002925D01*
X037504Y002962D01*
X037541Y002996D01*
X037581Y003026D01*
X037623Y003053D01*
X037667Y003077D01*
X037713Y003098D01*
X037760Y003114D01*
X037808Y003127D01*
X037858Y003136D01*
X037907Y003141D01*
X037958Y003142D01*
X038008Y003139D01*
X038057Y003132D01*
X038106Y003121D01*
X038154Y003106D01*
X038200Y003088D01*
X038245Y003066D01*
X038288Y003040D01*
X038329Y003011D01*
X038368Y002979D01*
X038404Y002944D01*
X038436Y002906D01*
X038466Y002866D01*
X038493Y002823D01*
X038516Y002779D01*
X038535Y002733D01*
X038551Y002685D01*
X038563Y002636D01*
X038571Y002587D01*
X038575Y002537D01*
X038575Y002487D01*
X038571Y002437D01*
X038563Y002388D01*
X038551Y002339D01*
X038535Y002291D01*
X038516Y002245D01*
X038493Y002201D01*
X038466Y002158D01*
X038436Y002118D01*
X038404Y002080D01*
X038368Y002045D01*
X038329Y002013D01*
X038288Y001984D01*
X038245Y001958D01*
X038200Y001936D01*
X038154Y001918D01*
X038106Y001903D01*
X038057Y001892D01*
X038008Y001885D01*
X037958Y001882D01*
X037907Y001883D01*
X037858Y001888D01*
X037808Y001897D01*
X037760Y001910D01*
X037713Y001926D01*
X037667Y001947D01*
X037623Y001971D01*
X037581Y001998D01*
X037541Y002028D01*
X037504Y002062D01*
X037470Y002099D01*
X037438Y002138D01*
X037410Y002179D01*
X037385Y002223D01*
X037364Y002268D01*
X037347Y002315D01*
X037333Y002363D01*
X037323Y002412D01*
X037317Y002462D01*
X037315Y002512D01*
X037945Y000937D02*
X038022Y000939D01*
X038099Y000945D01*
X038176Y000954D01*
X038252Y000967D01*
X038328Y000984D01*
X038402Y001005D01*
X038476Y001029D01*
X038548Y001057D01*
X038618Y001088D01*
X038687Y001123D01*
X038755Y001161D01*
X038820Y001202D01*
X038883Y001247D01*
X038944Y001295D01*
X039003Y001345D01*
X039059Y001398D01*
X039112Y001454D01*
X039162Y001513D01*
X039210Y001574D01*
X039255Y001637D01*
X039296Y001702D01*
X039334Y001770D01*
X039369Y001839D01*
X039400Y001909D01*
X039428Y001981D01*
X039452Y002055D01*
X039473Y002129D01*
X039490Y002205D01*
X039503Y002281D01*
X039512Y002358D01*
X039518Y002435D01*
X039520Y002512D01*
X039520Y015898D01*
X037315Y015898D02*
X037317Y015948D01*
X037323Y015998D01*
X037333Y016047D01*
X037347Y016095D01*
X037364Y016142D01*
X037385Y016187D01*
X037410Y016231D01*
X037438Y016272D01*
X037470Y016311D01*
X037504Y016348D01*
X037541Y016382D01*
X037581Y016412D01*
X037623Y016439D01*
X037667Y016463D01*
X037713Y016484D01*
X037760Y016500D01*
X037808Y016513D01*
X037858Y016522D01*
X037907Y016527D01*
X037958Y016528D01*
X038008Y016525D01*
X038057Y016518D01*
X038106Y016507D01*
X038154Y016492D01*
X038200Y016474D01*
X038245Y016452D01*
X038288Y016426D01*
X038329Y016397D01*
X038368Y016365D01*
X038404Y016330D01*
X038436Y016292D01*
X038466Y016252D01*
X038493Y016209D01*
X038516Y016165D01*
X038535Y016119D01*
X038551Y016071D01*
X038563Y016022D01*
X038571Y015973D01*
X038575Y015923D01*
X038575Y015873D01*
X038571Y015823D01*
X038563Y015774D01*
X038551Y015725D01*
X038535Y015677D01*
X038516Y015631D01*
X038493Y015587D01*
X038466Y015544D01*
X038436Y015504D01*
X038404Y015466D01*
X038368Y015431D01*
X038329Y015399D01*
X038288Y015370D01*
X038245Y015344D01*
X038200Y015322D01*
X038154Y015304D01*
X038106Y015289D01*
X038057Y015278D01*
X038008Y015271D01*
X037958Y015268D01*
X037907Y015269D01*
X037858Y015274D01*
X037808Y015283D01*
X037760Y015296D01*
X037713Y015312D01*
X037667Y015333D01*
X037623Y015357D01*
X037581Y015384D01*
X037541Y015414D01*
X037504Y015448D01*
X037470Y015485D01*
X037438Y015524D01*
X037410Y015565D01*
X037385Y015609D01*
X037364Y015654D01*
X037347Y015701D01*
X037333Y015749D01*
X037323Y015798D01*
X037317Y015848D01*
X037315Y015898D01*
X037945Y017473D02*
X038022Y017471D01*
X038099Y017465D01*
X038176Y017456D01*
X038252Y017443D01*
X038328Y017426D01*
X038402Y017405D01*
X038476Y017381D01*
X038548Y017353D01*
X038618Y017322D01*
X038687Y017287D01*
X038755Y017249D01*
X038820Y017208D01*
X038883Y017163D01*
X038944Y017115D01*
X039003Y017065D01*
X039059Y017012D01*
X039112Y016956D01*
X039162Y016897D01*
X039210Y016836D01*
X039255Y016773D01*
X039296Y016708D01*
X039334Y016640D01*
X039369Y016571D01*
X039400Y016501D01*
X039428Y016429D01*
X039452Y016355D01*
X039473Y016281D01*
X039490Y016205D01*
X039503Y016129D01*
X039512Y016052D01*
X039518Y015975D01*
X039520Y015898D01*
X037945Y017473D02*
X001725Y017473D01*
X001095Y015898D02*
X001097Y015948D01*
X001103Y015998D01*
X001113Y016047D01*
X001127Y016095D01*
X001144Y016142D01*
X001165Y016187D01*
X001190Y016231D01*
X001218Y016272D01*
X001250Y016311D01*
X001284Y016348D01*
X001321Y016382D01*
X001361Y016412D01*
X001403Y016439D01*
X001447Y016463D01*
X001493Y016484D01*
X001540Y016500D01*
X001588Y016513D01*
X001638Y016522D01*
X001687Y016527D01*
X001738Y016528D01*
X001788Y016525D01*
X001837Y016518D01*
X001886Y016507D01*
X001934Y016492D01*
X001980Y016474D01*
X002025Y016452D01*
X002068Y016426D01*
X002109Y016397D01*
X002148Y016365D01*
X002184Y016330D01*
X002216Y016292D01*
X002246Y016252D01*
X002273Y016209D01*
X002296Y016165D01*
X002315Y016119D01*
X002331Y016071D01*
X002343Y016022D01*
X002351Y015973D01*
X002355Y015923D01*
X002355Y015873D01*
X002351Y015823D01*
X002343Y015774D01*
X002331Y015725D01*
X002315Y015677D01*
X002296Y015631D01*
X002273Y015587D01*
X002246Y015544D01*
X002216Y015504D01*
X002184Y015466D01*
X002148Y015431D01*
X002109Y015399D01*
X002068Y015370D01*
X002025Y015344D01*
X001980Y015322D01*
X001934Y015304D01*
X001886Y015289D01*
X001837Y015278D01*
X001788Y015271D01*
X001738Y015268D01*
X001687Y015269D01*
X001638Y015274D01*
X001588Y015283D01*
X001540Y015296D01*
X001493Y015312D01*
X001447Y015333D01*
X001403Y015357D01*
X001361Y015384D01*
X001321Y015414D01*
X001284Y015448D01*
X001250Y015485D01*
X001218Y015524D01*
X001190Y015565D01*
X001165Y015609D01*
X001144Y015654D01*
X001127Y015701D01*
X001113Y015749D01*
X001103Y015798D01*
X001097Y015848D01*
X001095Y015898D01*
X000150Y015898D02*
X000152Y015975D01*
X000158Y016052D01*
X000167Y016129D01*
X000180Y016205D01*
X000197Y016281D01*
X000218Y016355D01*
X000242Y016429D01*
X000270Y016501D01*
X000301Y016571D01*
X000336Y016640D01*
X000374Y016708D01*
X000415Y016773D01*
X000460Y016836D01*
X000508Y016897D01*
X000558Y016956D01*
X000611Y017012D01*
X000667Y017065D01*
X000726Y017115D01*
X000787Y017163D01*
X000850Y017208D01*
X000915Y017249D01*
X000983Y017287D01*
X001052Y017322D01*
X001122Y017353D01*
X001194Y017381D01*
X001268Y017405D01*
X001342Y017426D01*
X001418Y017443D01*
X001494Y017456D01*
X001571Y017465D01*
X001648Y017471D01*
X001725Y017473D01*
X000150Y015898D02*
X000150Y002512D01*
X001095Y002512D02*
X001097Y002562D01*
X001103Y002612D01*
X001113Y002661D01*
X001127Y002709D01*
X001144Y002756D01*
X001165Y002801D01*
X001190Y002845D01*
X001218Y002886D01*
X001250Y002925D01*
X001284Y002962D01*
X001321Y002996D01*
X001361Y003026D01*
X001403Y003053D01*
X001447Y003077D01*
X001493Y003098D01*
X001540Y003114D01*
X001588Y003127D01*
X001638Y003136D01*
X001687Y003141D01*
X001738Y003142D01*
X001788Y003139D01*
X001837Y003132D01*
X001886Y003121D01*
X001934Y003106D01*
X001980Y003088D01*
X002025Y003066D01*
X002068Y003040D01*
X002109Y003011D01*
X002148Y002979D01*
X002184Y002944D01*
X002216Y002906D01*
X002246Y002866D01*
X002273Y002823D01*
X002296Y002779D01*
X002315Y002733D01*
X002331Y002685D01*
X002343Y002636D01*
X002351Y002587D01*
X002355Y002537D01*
X002355Y002487D01*
X002351Y002437D01*
X002343Y002388D01*
X002331Y002339D01*
X002315Y002291D01*
X002296Y002245D01*
X002273Y002201D01*
X002246Y002158D01*
X002216Y002118D01*
X002184Y002080D01*
X002148Y002045D01*
X002109Y002013D01*
X002068Y001984D01*
X002025Y001958D01*
X001980Y001936D01*
X001934Y001918D01*
X001886Y001903D01*
X001837Y001892D01*
X001788Y001885D01*
X001738Y001882D01*
X001687Y001883D01*
X001638Y001888D01*
X001588Y001897D01*
X001540Y001910D01*
X001493Y001926D01*
X001447Y001947D01*
X001403Y001971D01*
X001361Y001998D01*
X001321Y002028D01*
X001284Y002062D01*
X001250Y002099D01*
X001218Y002138D01*
X001190Y002179D01*
X001165Y002223D01*
X001144Y002268D01*
X001127Y002315D01*
X001113Y002363D01*
X001103Y002412D01*
X001097Y002462D01*
X001095Y002512D01*
X000150Y002512D02*
X000152Y002435D01*
X000158Y002358D01*
X000167Y002281D01*
X000180Y002205D01*
X000197Y002129D01*
X000218Y002055D01*
X000242Y001981D01*
X000270Y001909D01*
X000301Y001839D01*
X000336Y001770D01*
X000374Y001702D01*
X000415Y001637D01*
X000460Y001574D01*
X000508Y001513D01*
X000558Y001454D01*
X000611Y001398D01*
X000667Y001345D01*
X000726Y001295D01*
X000787Y001247D01*
X000850Y001202D01*
X000915Y001161D01*
X000983Y001123D01*
X001052Y001088D01*
X001122Y001057D01*
X001194Y001029D01*
X001268Y001005D01*
X001342Y000984D01*
X001418Y000967D01*
X001494Y000954D01*
X001571Y000945D01*
X001648Y000939D01*
X001725Y000937D01*
X023782Y010593D02*
X023784Y010620D01*
X023790Y010647D01*
X023799Y010673D01*
X023812Y010697D01*
X023828Y010720D01*
X023847Y010739D01*
X023869Y010756D01*
X023893Y010770D01*
X023918Y010780D01*
X023945Y010787D01*
X023972Y010790D01*
X024000Y010789D01*
X024027Y010784D01*
X024053Y010776D01*
X024077Y010764D01*
X024100Y010748D01*
X024121Y010730D01*
X024138Y010709D01*
X024153Y010685D01*
X024164Y010660D01*
X024172Y010634D01*
X024176Y010607D01*
X024176Y010579D01*
X024172Y010552D01*
X024164Y010526D01*
X024153Y010501D01*
X024138Y010477D01*
X024121Y010456D01*
X024100Y010438D01*
X024078Y010422D01*
X024053Y010410D01*
X024027Y010402D01*
X024000Y010397D01*
X023972Y010396D01*
X023945Y010399D01*
X023918Y010406D01*
X023893Y010416D01*
X023869Y010430D01*
X023847Y010447D01*
X023828Y010466D01*
X023812Y010489D01*
X023799Y010513D01*
X023790Y010539D01*
X023784Y010566D01*
X023782Y010593D01*
X025811Y012681D02*
X025813Y012712D01*
X025819Y012743D01*
X025828Y012773D01*
X025841Y012802D01*
X025858Y012829D01*
X025878Y012853D01*
X025900Y012875D01*
X025926Y012894D01*
X025953Y012910D01*
X025982Y012922D01*
X026012Y012931D01*
X026043Y012936D01*
X026075Y012937D01*
X026106Y012934D01*
X026137Y012927D01*
X026167Y012917D01*
X026195Y012903D01*
X026221Y012885D01*
X026245Y012865D01*
X026266Y012841D01*
X026285Y012816D01*
X026300Y012788D01*
X026311Y012759D01*
X026319Y012728D01*
X026323Y012697D01*
X026323Y012665D01*
X026319Y012634D01*
X026311Y012603D01*
X026300Y012574D01*
X026285Y012546D01*
X026266Y012521D01*
X026245Y012497D01*
X026221Y012477D01*
X026195Y012459D01*
X026167Y012445D01*
X026137Y012435D01*
X026106Y012428D01*
X026075Y012425D01*
X026043Y012426D01*
X026012Y012431D01*
X025982Y012440D01*
X025953Y012452D01*
X025926Y012468D01*
X025900Y012487D01*
X025878Y012509D01*
X025858Y012533D01*
X025841Y012560D01*
X025828Y012589D01*
X025819Y012619D01*
X025813Y012650D01*
X025811Y012681D01*
X027808Y004323D02*
X027810Y004357D01*
X027816Y004391D01*
X027826Y004424D01*
X027839Y004455D01*
X027857Y004485D01*
X027877Y004513D01*
X027901Y004538D01*
X027927Y004560D01*
X027955Y004578D01*
X027986Y004594D01*
X028018Y004606D01*
X028052Y004614D01*
X028086Y004618D01*
X028120Y004618D01*
X028154Y004614D01*
X028188Y004606D01*
X028220Y004594D01*
X028250Y004578D01*
X028279Y004560D01*
X028305Y004538D01*
X028329Y004513D01*
X028349Y004485D01*
X028367Y004455D01*
X028380Y004424D01*
X028390Y004391D01*
X028396Y004357D01*
X028398Y004323D01*
X028396Y004289D01*
X028390Y004255D01*
X028380Y004222D01*
X028367Y004191D01*
X028349Y004161D01*
X028329Y004133D01*
X028305Y004108D01*
X028279Y004086D01*
X028251Y004068D01*
X028220Y004052D01*
X028188Y004040D01*
X028154Y004032D01*
X028120Y004028D01*
X028086Y004028D01*
X028052Y004032D01*
X028018Y004040D01*
X027986Y004052D01*
X027955Y004068D01*
X027927Y004086D01*
X027901Y004108D01*
X027877Y004133D01*
X027857Y004161D01*
X027839Y004191D01*
X027826Y004222D01*
X027816Y004255D01*
X027810Y004289D01*
X027808Y004323D01*
X031390Y002807D02*
X031392Y002833D01*
X031398Y002859D01*
X031408Y002884D01*
X031421Y002907D01*
X031437Y002927D01*
X031457Y002945D01*
X031479Y002960D01*
X031502Y002972D01*
X031528Y002980D01*
X031554Y002984D01*
X031580Y002984D01*
X031606Y002980D01*
X031632Y002972D01*
X031656Y002960D01*
X031677Y002945D01*
X031697Y002927D01*
X031713Y002907D01*
X031726Y002884D01*
X031736Y002859D01*
X031742Y002833D01*
X031744Y002807D01*
X031742Y002781D01*
X031736Y002755D01*
X031726Y002730D01*
X031713Y002707D01*
X031697Y002687D01*
X031677Y002669D01*
X031655Y002654D01*
X031632Y002642D01*
X031606Y002634D01*
X031580Y002630D01*
X031554Y002630D01*
X031528Y002634D01*
X031502Y002642D01*
X031478Y002654D01*
X031457Y002669D01*
X031437Y002687D01*
X031421Y002707D01*
X031408Y002730D01*
X031398Y002755D01*
X031392Y002781D01*
X031390Y002807D01*
X033123Y002807D02*
X033125Y002833D01*
X033131Y002859D01*
X033141Y002884D01*
X033154Y002907D01*
X033170Y002927D01*
X033190Y002945D01*
X033212Y002960D01*
X033235Y002972D01*
X033261Y002980D01*
X033287Y002984D01*
X033313Y002984D01*
X033339Y002980D01*
X033365Y002972D01*
X033389Y002960D01*
X033410Y002945D01*
X033430Y002927D01*
X033446Y002907D01*
X033459Y002884D01*
X033469Y002859D01*
X033475Y002833D01*
X033477Y002807D01*
X033475Y002781D01*
X033469Y002755D01*
X033459Y002730D01*
X033446Y002707D01*
X033430Y002687D01*
X033410Y002669D01*
X033388Y002654D01*
X033365Y002642D01*
X033339Y002634D01*
X033313Y002630D01*
X033287Y002630D01*
X033261Y002634D01*
X033235Y002642D01*
X033211Y002654D01*
X033190Y002669D01*
X033170Y002687D01*
X033154Y002707D01*
X033141Y002730D01*
X033131Y002755D01*
X033125Y002781D01*
X033123Y002807D01*
X027808Y001567D02*
X027810Y001601D01*
X027816Y001635D01*
X027826Y001668D01*
X027839Y001699D01*
X027857Y001729D01*
X027877Y001757D01*
X027901Y001782D01*
X027927Y001804D01*
X027955Y001822D01*
X027986Y001838D01*
X028018Y001850D01*
X028052Y001858D01*
X028086Y001862D01*
X028120Y001862D01*
X028154Y001858D01*
X028188Y001850D01*
X028220Y001838D01*
X028250Y001822D01*
X028279Y001804D01*
X028305Y001782D01*
X028329Y001757D01*
X028349Y001729D01*
X028367Y001699D01*
X028380Y001668D01*
X028390Y001635D01*
X028396Y001601D01*
X028398Y001567D01*
X028396Y001533D01*
X028390Y001499D01*
X028380Y001466D01*
X028367Y001435D01*
X028349Y001405D01*
X028329Y001377D01*
X028305Y001352D01*
X028279Y001330D01*
X028251Y001312D01*
X028220Y001296D01*
X028188Y001284D01*
X028154Y001276D01*
X028120Y001272D01*
X028086Y001272D01*
X028052Y001276D01*
X028018Y001284D01*
X027986Y001296D01*
X027955Y001312D01*
X027927Y001330D01*
X027901Y001352D01*
X027877Y001377D01*
X027857Y001405D01*
X027839Y001435D01*
X027826Y001466D01*
X027816Y001499D01*
X027810Y001533D01*
X027808Y001567D01*
D11*
X037945Y002512D03*
X037945Y015898D03*
X001725Y015898D03*
X001725Y002512D03*
D12*
X019441Y011331D03*
X019441Y012000D03*
X019441Y012611D03*
X019441Y013280D03*
X029933Y013044D03*
X030603Y013044D03*
X034461Y013044D03*
X034461Y013536D03*
X035130Y013536D03*
X035130Y013044D03*
X032473Y015504D03*
X031804Y015504D03*
X031193Y015504D03*
X030524Y015504D03*
X030603Y009993D03*
X029933Y009993D03*
X031311Y008910D03*
X031981Y008910D03*
X034599Y009067D03*
X034599Y009737D03*
X031981Y007040D03*
X031311Y007040D03*
X031311Y006449D03*
X031981Y006449D03*
X032729Y005898D03*
X033319Y005898D03*
X033910Y005898D03*
X033910Y005229D03*
X033319Y005229D03*
X032729Y005229D03*
X007729Y014579D03*
X007729Y015248D03*
D13*
G36*
X023024Y010391D02*
X023777Y009638D01*
X022706Y008567D01*
X021953Y009320D01*
X023024Y010391D01*
G37*
D14*
G36*
X027514Y014880D02*
X028266Y014128D01*
X027264Y013126D01*
X026512Y013878D01*
X027514Y014880D01*
G37*
D15*
X023979Y010593D03*
D16*
X026067Y012681D03*
D17*
X019441Y009737D03*
X019441Y009067D03*
X015347Y006941D03*
X014678Y006941D03*
X008811Y009756D03*
X008221Y009756D03*
X008221Y010426D03*
X008811Y010426D03*
X008319Y014579D03*
X007138Y014579D03*
X007138Y015248D03*
X008319Y015248D03*
X027473Y008811D03*
X028142Y008811D03*
X028142Y008221D03*
X027473Y008221D03*
X027414Y007374D03*
X027414Y006705D03*
X029382Y006705D03*
X029973Y006705D03*
X029973Y007374D03*
X029382Y007374D03*
X031311Y005859D03*
X031981Y005859D03*
X031981Y005268D03*
X031311Y005268D03*
X034008Y009067D03*
X034008Y009737D03*
X035052Y011666D03*
X035721Y011666D03*
X035721Y012256D03*
X035052Y012256D03*
X034304Y014874D03*
X033319Y014874D03*
X033319Y015544D03*
X034304Y015544D03*
D18*
X036370Y012256D03*
X036961Y012256D03*
X036961Y011666D03*
X036370Y011666D03*
X020032Y011961D03*
X020032Y011370D03*
D19*
X030681Y001626D03*
X034185Y001626D03*
D20*
X034185Y003949D03*
X030681Y003949D03*
D21*
X031804Y003989D03*
X032119Y003989D03*
X032433Y003989D03*
X032748Y003989D03*
X033063Y003989D03*
D22*
X033300Y002807D03*
X031567Y002807D03*
D23*
X031134Y007650D03*
X031134Y008024D03*
X031134Y008398D03*
X032158Y008398D03*
X032158Y007650D03*
D24*
X009717Y006252D03*
X003575Y006252D03*
D25*
X004715Y011528D03*
X005215Y011528D03*
X005715Y011528D03*
X006215Y011528D03*
X007274Y011528D03*
X007774Y011528D03*
X008274Y011528D03*
X008774Y011528D03*
X008774Y013575D03*
X008274Y013575D03*
X007774Y013575D03*
X007274Y013575D03*
X006215Y013575D03*
X005715Y013575D03*
X005215Y013575D03*
X004715Y013575D03*
D26*
X009796Y012000D03*
X010170Y011134D03*
X009422Y011134D03*
D27*
X006025Y014914D03*
X004905Y014914D03*
D28*
X005465Y010386D03*
X003300Y010386D03*
X009796Y010091D03*
X009993Y003693D03*
D29*
X011115Y005465D03*
X012807Y005465D03*
D30*
X014520Y005485D03*
X014520Y003477D03*
D31*
X012512Y003693D03*
X011410Y003693D03*
D32*
X016095Y005504D03*
X016095Y006607D03*
D33*
X034658Y007178D03*
X037099Y007178D03*
X037099Y005721D03*
X034658Y005721D03*
D34*
X033516Y009894D03*
X033319Y009894D03*
X033122Y009894D03*
X032926Y009894D03*
X032729Y009894D03*
X032532Y009894D03*
X032335Y009894D03*
X032138Y009894D03*
X031941Y009894D03*
X031744Y009894D03*
X031548Y009894D03*
X031351Y009894D03*
X031351Y013241D03*
X031548Y013241D03*
X031744Y013241D03*
X031941Y013241D03*
X032138Y013241D03*
X032335Y013241D03*
X032532Y013241D03*
X032729Y013241D03*
X032926Y013241D03*
X033122Y013241D03*
X033319Y013241D03*
X033516Y013241D03*
D35*
X034107Y012650D03*
X034107Y012453D03*
X034107Y012256D03*
X034107Y012059D03*
X034107Y011863D03*
X034107Y011666D03*
X034107Y011469D03*
X034107Y011272D03*
X034107Y011075D03*
X034107Y010878D03*
X034107Y010681D03*
X034107Y010485D03*
X030760Y010485D03*
X030760Y010681D03*
X030760Y010878D03*
X030760Y011075D03*
X030760Y011272D03*
X030760Y011469D03*
X030760Y011666D03*
X030760Y011863D03*
X030760Y012059D03*
X030760Y012256D03*
X030760Y012453D03*
X030760Y012650D03*
D36*
X037945Y011205D03*
X037945Y010205D03*
X037945Y009205D03*
X037945Y008205D03*
X037945Y007205D03*
D37*
X033398Y007433D03*
X033024Y007433D03*
X032650Y007433D03*
X032650Y006528D03*
X033024Y006528D03*
X033398Y006528D03*
D38*
X029697Y008241D03*
X029697Y008615D03*
X028792Y008615D03*
X028792Y008241D03*
X028792Y008989D03*
X029697Y008989D03*
D39*
X029441Y005347D03*
X026764Y004953D03*
X026764Y003378D03*
X026764Y002197D03*
D40*
X028103Y001567D03*
X028103Y004323D03*
D41*
X030760Y014520D03*
X032335Y014520D03*
D42*
X028772Y007552D03*
X028024Y007552D03*
X028024Y006528D03*
X028398Y006528D03*
X028772Y006528D03*
D43*
X033319Y014225D03*
X034304Y014225D03*
D44*
X021839Y005178D03*
X020839Y005178D03*
X019839Y005178D03*
X018839Y005178D03*
X017839Y005178D03*
X017839Y003178D03*
X018839Y003178D03*
X019839Y003178D03*
X020839Y003178D03*
X021839Y003178D03*
D45*
X018556Y009008D03*
X018556Y009599D03*
X018556Y010189D03*
X018556Y010780D03*
X018556Y011370D03*
X018556Y011961D03*
X018556Y012552D03*
X018556Y013142D03*
X013241Y013142D03*
X013241Y012552D03*
X013241Y011961D03*
X013241Y011370D03*
X013241Y010780D03*
X013241Y010189D03*
X013241Y009599D03*
X013241Y009008D03*
M02*
