G75*
%MOIN*%
%OFA0B0*%
%FSLAX25Y25*%
%IPPOS*%
%LPD*%
%AMOC8*
5,1,8,0,0,1.08239X$1,22.5*
%
%ADD10C,0.00000*%
%ADD11C,0.06600*%
%ADD12C,0.01000*%
%ADD13C,0.02460*%
%ADD14C,0.05000*%
%ADD15C,0.03200*%
%ADD16C,0.02400*%
%ADD17C,0.01600*%
%ADD18C,0.01200*%
D10*
X0017248Y0009374D02*
X0576303Y0009374D01*
X0570004Y0025122D02*
X0570006Y0025280D01*
X0570012Y0025438D01*
X0570022Y0025596D01*
X0570036Y0025754D01*
X0570054Y0025911D01*
X0570075Y0026068D01*
X0570101Y0026224D01*
X0570131Y0026380D01*
X0570164Y0026535D01*
X0570202Y0026688D01*
X0570243Y0026841D01*
X0570288Y0026993D01*
X0570337Y0027144D01*
X0570390Y0027293D01*
X0570446Y0027441D01*
X0570506Y0027587D01*
X0570570Y0027732D01*
X0570638Y0027875D01*
X0570709Y0028017D01*
X0570783Y0028157D01*
X0570861Y0028294D01*
X0570943Y0028430D01*
X0571027Y0028564D01*
X0571116Y0028695D01*
X0571207Y0028824D01*
X0571302Y0028951D01*
X0571399Y0029076D01*
X0571500Y0029198D01*
X0571604Y0029317D01*
X0571711Y0029434D01*
X0571821Y0029548D01*
X0571934Y0029659D01*
X0572049Y0029768D01*
X0572167Y0029873D01*
X0572288Y0029975D01*
X0572411Y0030075D01*
X0572537Y0030171D01*
X0572665Y0030264D01*
X0572795Y0030354D01*
X0572928Y0030440D01*
X0573063Y0030524D01*
X0573199Y0030603D01*
X0573338Y0030680D01*
X0573479Y0030752D01*
X0573621Y0030822D01*
X0573765Y0030887D01*
X0573911Y0030949D01*
X0574058Y0031007D01*
X0574207Y0031062D01*
X0574357Y0031113D01*
X0574508Y0031160D01*
X0574660Y0031203D01*
X0574813Y0031242D01*
X0574968Y0031278D01*
X0575123Y0031309D01*
X0575279Y0031337D01*
X0575435Y0031361D01*
X0575592Y0031381D01*
X0575750Y0031397D01*
X0575907Y0031409D01*
X0576066Y0031417D01*
X0576224Y0031421D01*
X0576382Y0031421D01*
X0576540Y0031417D01*
X0576699Y0031409D01*
X0576856Y0031397D01*
X0577014Y0031381D01*
X0577171Y0031361D01*
X0577327Y0031337D01*
X0577483Y0031309D01*
X0577638Y0031278D01*
X0577793Y0031242D01*
X0577946Y0031203D01*
X0578098Y0031160D01*
X0578249Y0031113D01*
X0578399Y0031062D01*
X0578548Y0031007D01*
X0578695Y0030949D01*
X0578841Y0030887D01*
X0578985Y0030822D01*
X0579127Y0030752D01*
X0579268Y0030680D01*
X0579407Y0030603D01*
X0579543Y0030524D01*
X0579678Y0030440D01*
X0579811Y0030354D01*
X0579941Y0030264D01*
X0580069Y0030171D01*
X0580195Y0030075D01*
X0580318Y0029975D01*
X0580439Y0029873D01*
X0580557Y0029768D01*
X0580672Y0029659D01*
X0580785Y0029548D01*
X0580895Y0029434D01*
X0581002Y0029317D01*
X0581106Y0029198D01*
X0581207Y0029076D01*
X0581304Y0028951D01*
X0581399Y0028824D01*
X0581490Y0028695D01*
X0581579Y0028564D01*
X0581663Y0028430D01*
X0581745Y0028294D01*
X0581823Y0028157D01*
X0581897Y0028017D01*
X0581968Y0027875D01*
X0582036Y0027732D01*
X0582100Y0027587D01*
X0582160Y0027441D01*
X0582216Y0027293D01*
X0582269Y0027144D01*
X0582318Y0026993D01*
X0582363Y0026841D01*
X0582404Y0026688D01*
X0582442Y0026535D01*
X0582475Y0026380D01*
X0582505Y0026224D01*
X0582531Y0026068D01*
X0582552Y0025911D01*
X0582570Y0025754D01*
X0582584Y0025596D01*
X0582594Y0025438D01*
X0582600Y0025280D01*
X0582602Y0025122D01*
X0582600Y0024964D01*
X0582594Y0024806D01*
X0582584Y0024648D01*
X0582570Y0024490D01*
X0582552Y0024333D01*
X0582531Y0024176D01*
X0582505Y0024020D01*
X0582475Y0023864D01*
X0582442Y0023709D01*
X0582404Y0023556D01*
X0582363Y0023403D01*
X0582318Y0023251D01*
X0582269Y0023100D01*
X0582216Y0022951D01*
X0582160Y0022803D01*
X0582100Y0022657D01*
X0582036Y0022512D01*
X0581968Y0022369D01*
X0581897Y0022227D01*
X0581823Y0022087D01*
X0581745Y0021950D01*
X0581663Y0021814D01*
X0581579Y0021680D01*
X0581490Y0021549D01*
X0581399Y0021420D01*
X0581304Y0021293D01*
X0581207Y0021168D01*
X0581106Y0021046D01*
X0581002Y0020927D01*
X0580895Y0020810D01*
X0580785Y0020696D01*
X0580672Y0020585D01*
X0580557Y0020476D01*
X0580439Y0020371D01*
X0580318Y0020269D01*
X0580195Y0020169D01*
X0580069Y0020073D01*
X0579941Y0019980D01*
X0579811Y0019890D01*
X0579678Y0019804D01*
X0579543Y0019720D01*
X0579407Y0019641D01*
X0579268Y0019564D01*
X0579127Y0019492D01*
X0578985Y0019422D01*
X0578841Y0019357D01*
X0578695Y0019295D01*
X0578548Y0019237D01*
X0578399Y0019182D01*
X0578249Y0019131D01*
X0578098Y0019084D01*
X0577946Y0019041D01*
X0577793Y0019002D01*
X0577638Y0018966D01*
X0577483Y0018935D01*
X0577327Y0018907D01*
X0577171Y0018883D01*
X0577014Y0018863D01*
X0576856Y0018847D01*
X0576699Y0018835D01*
X0576540Y0018827D01*
X0576382Y0018823D01*
X0576224Y0018823D01*
X0576066Y0018827D01*
X0575907Y0018835D01*
X0575750Y0018847D01*
X0575592Y0018863D01*
X0575435Y0018883D01*
X0575279Y0018907D01*
X0575123Y0018935D01*
X0574968Y0018966D01*
X0574813Y0019002D01*
X0574660Y0019041D01*
X0574508Y0019084D01*
X0574357Y0019131D01*
X0574207Y0019182D01*
X0574058Y0019237D01*
X0573911Y0019295D01*
X0573765Y0019357D01*
X0573621Y0019422D01*
X0573479Y0019492D01*
X0573338Y0019564D01*
X0573199Y0019641D01*
X0573063Y0019720D01*
X0572928Y0019804D01*
X0572795Y0019890D01*
X0572665Y0019980D01*
X0572537Y0020073D01*
X0572411Y0020169D01*
X0572288Y0020269D01*
X0572167Y0020371D01*
X0572049Y0020476D01*
X0571934Y0020585D01*
X0571821Y0020696D01*
X0571711Y0020810D01*
X0571604Y0020927D01*
X0571500Y0021046D01*
X0571399Y0021168D01*
X0571302Y0021293D01*
X0571207Y0021420D01*
X0571116Y0021549D01*
X0571027Y0021680D01*
X0570943Y0021814D01*
X0570861Y0021950D01*
X0570783Y0022087D01*
X0570709Y0022227D01*
X0570638Y0022369D01*
X0570570Y0022512D01*
X0570506Y0022657D01*
X0570446Y0022803D01*
X0570390Y0022951D01*
X0570337Y0023100D01*
X0570288Y0023251D01*
X0570243Y0023403D01*
X0570202Y0023556D01*
X0570164Y0023709D01*
X0570131Y0023864D01*
X0570101Y0024020D01*
X0570075Y0024176D01*
X0570054Y0024333D01*
X0570036Y0024490D01*
X0570022Y0024648D01*
X0570012Y0024806D01*
X0570006Y0024964D01*
X0570004Y0025122D01*
X0576303Y0009374D02*
X0576684Y0009379D01*
X0577064Y0009392D01*
X0577444Y0009415D01*
X0577823Y0009448D01*
X0578201Y0009489D01*
X0578578Y0009539D01*
X0578954Y0009599D01*
X0579329Y0009667D01*
X0579701Y0009745D01*
X0580072Y0009832D01*
X0580440Y0009927D01*
X0580806Y0010032D01*
X0581169Y0010145D01*
X0581530Y0010267D01*
X0581887Y0010397D01*
X0582241Y0010537D01*
X0582592Y0010684D01*
X0582939Y0010841D01*
X0583282Y0011005D01*
X0583621Y0011178D01*
X0583956Y0011359D01*
X0584287Y0011548D01*
X0584612Y0011745D01*
X0584933Y0011949D01*
X0585249Y0012162D01*
X0585559Y0012382D01*
X0585865Y0012609D01*
X0586164Y0012844D01*
X0586458Y0013086D01*
X0586746Y0013334D01*
X0587028Y0013590D01*
X0587303Y0013853D01*
X0587572Y0014122D01*
X0587835Y0014397D01*
X0588091Y0014679D01*
X0588339Y0014967D01*
X0588581Y0015261D01*
X0588816Y0015560D01*
X0589043Y0015866D01*
X0589263Y0016176D01*
X0589476Y0016492D01*
X0589680Y0016813D01*
X0589877Y0017138D01*
X0590066Y0017469D01*
X0590247Y0017804D01*
X0590420Y0018143D01*
X0590584Y0018486D01*
X0590741Y0018833D01*
X0590888Y0019184D01*
X0591028Y0019538D01*
X0591158Y0019895D01*
X0591280Y0020256D01*
X0591393Y0020619D01*
X0591498Y0020985D01*
X0591593Y0021353D01*
X0591680Y0021724D01*
X0591758Y0022096D01*
X0591826Y0022471D01*
X0591886Y0022847D01*
X0591936Y0023224D01*
X0591977Y0023602D01*
X0592010Y0023981D01*
X0592033Y0024361D01*
X0592046Y0024741D01*
X0592051Y0025122D01*
X0592051Y0158980D01*
X0570004Y0158980D02*
X0570006Y0159138D01*
X0570012Y0159296D01*
X0570022Y0159454D01*
X0570036Y0159612D01*
X0570054Y0159769D01*
X0570075Y0159926D01*
X0570101Y0160082D01*
X0570131Y0160238D01*
X0570164Y0160393D01*
X0570202Y0160546D01*
X0570243Y0160699D01*
X0570288Y0160851D01*
X0570337Y0161002D01*
X0570390Y0161151D01*
X0570446Y0161299D01*
X0570506Y0161445D01*
X0570570Y0161590D01*
X0570638Y0161733D01*
X0570709Y0161875D01*
X0570783Y0162015D01*
X0570861Y0162152D01*
X0570943Y0162288D01*
X0571027Y0162422D01*
X0571116Y0162553D01*
X0571207Y0162682D01*
X0571302Y0162809D01*
X0571399Y0162934D01*
X0571500Y0163056D01*
X0571604Y0163175D01*
X0571711Y0163292D01*
X0571821Y0163406D01*
X0571934Y0163517D01*
X0572049Y0163626D01*
X0572167Y0163731D01*
X0572288Y0163833D01*
X0572411Y0163933D01*
X0572537Y0164029D01*
X0572665Y0164122D01*
X0572795Y0164212D01*
X0572928Y0164298D01*
X0573063Y0164382D01*
X0573199Y0164461D01*
X0573338Y0164538D01*
X0573479Y0164610D01*
X0573621Y0164680D01*
X0573765Y0164745D01*
X0573911Y0164807D01*
X0574058Y0164865D01*
X0574207Y0164920D01*
X0574357Y0164971D01*
X0574508Y0165018D01*
X0574660Y0165061D01*
X0574813Y0165100D01*
X0574968Y0165136D01*
X0575123Y0165167D01*
X0575279Y0165195D01*
X0575435Y0165219D01*
X0575592Y0165239D01*
X0575750Y0165255D01*
X0575907Y0165267D01*
X0576066Y0165275D01*
X0576224Y0165279D01*
X0576382Y0165279D01*
X0576540Y0165275D01*
X0576699Y0165267D01*
X0576856Y0165255D01*
X0577014Y0165239D01*
X0577171Y0165219D01*
X0577327Y0165195D01*
X0577483Y0165167D01*
X0577638Y0165136D01*
X0577793Y0165100D01*
X0577946Y0165061D01*
X0578098Y0165018D01*
X0578249Y0164971D01*
X0578399Y0164920D01*
X0578548Y0164865D01*
X0578695Y0164807D01*
X0578841Y0164745D01*
X0578985Y0164680D01*
X0579127Y0164610D01*
X0579268Y0164538D01*
X0579407Y0164461D01*
X0579543Y0164382D01*
X0579678Y0164298D01*
X0579811Y0164212D01*
X0579941Y0164122D01*
X0580069Y0164029D01*
X0580195Y0163933D01*
X0580318Y0163833D01*
X0580439Y0163731D01*
X0580557Y0163626D01*
X0580672Y0163517D01*
X0580785Y0163406D01*
X0580895Y0163292D01*
X0581002Y0163175D01*
X0581106Y0163056D01*
X0581207Y0162934D01*
X0581304Y0162809D01*
X0581399Y0162682D01*
X0581490Y0162553D01*
X0581579Y0162422D01*
X0581663Y0162288D01*
X0581745Y0162152D01*
X0581823Y0162015D01*
X0581897Y0161875D01*
X0581968Y0161733D01*
X0582036Y0161590D01*
X0582100Y0161445D01*
X0582160Y0161299D01*
X0582216Y0161151D01*
X0582269Y0161002D01*
X0582318Y0160851D01*
X0582363Y0160699D01*
X0582404Y0160546D01*
X0582442Y0160393D01*
X0582475Y0160238D01*
X0582505Y0160082D01*
X0582531Y0159926D01*
X0582552Y0159769D01*
X0582570Y0159612D01*
X0582584Y0159454D01*
X0582594Y0159296D01*
X0582600Y0159138D01*
X0582602Y0158980D01*
X0582600Y0158822D01*
X0582594Y0158664D01*
X0582584Y0158506D01*
X0582570Y0158348D01*
X0582552Y0158191D01*
X0582531Y0158034D01*
X0582505Y0157878D01*
X0582475Y0157722D01*
X0582442Y0157567D01*
X0582404Y0157414D01*
X0582363Y0157261D01*
X0582318Y0157109D01*
X0582269Y0156958D01*
X0582216Y0156809D01*
X0582160Y0156661D01*
X0582100Y0156515D01*
X0582036Y0156370D01*
X0581968Y0156227D01*
X0581897Y0156085D01*
X0581823Y0155945D01*
X0581745Y0155808D01*
X0581663Y0155672D01*
X0581579Y0155538D01*
X0581490Y0155407D01*
X0581399Y0155278D01*
X0581304Y0155151D01*
X0581207Y0155026D01*
X0581106Y0154904D01*
X0581002Y0154785D01*
X0580895Y0154668D01*
X0580785Y0154554D01*
X0580672Y0154443D01*
X0580557Y0154334D01*
X0580439Y0154229D01*
X0580318Y0154127D01*
X0580195Y0154027D01*
X0580069Y0153931D01*
X0579941Y0153838D01*
X0579811Y0153748D01*
X0579678Y0153662D01*
X0579543Y0153578D01*
X0579407Y0153499D01*
X0579268Y0153422D01*
X0579127Y0153350D01*
X0578985Y0153280D01*
X0578841Y0153215D01*
X0578695Y0153153D01*
X0578548Y0153095D01*
X0578399Y0153040D01*
X0578249Y0152989D01*
X0578098Y0152942D01*
X0577946Y0152899D01*
X0577793Y0152860D01*
X0577638Y0152824D01*
X0577483Y0152793D01*
X0577327Y0152765D01*
X0577171Y0152741D01*
X0577014Y0152721D01*
X0576856Y0152705D01*
X0576699Y0152693D01*
X0576540Y0152685D01*
X0576382Y0152681D01*
X0576224Y0152681D01*
X0576066Y0152685D01*
X0575907Y0152693D01*
X0575750Y0152705D01*
X0575592Y0152721D01*
X0575435Y0152741D01*
X0575279Y0152765D01*
X0575123Y0152793D01*
X0574968Y0152824D01*
X0574813Y0152860D01*
X0574660Y0152899D01*
X0574508Y0152942D01*
X0574357Y0152989D01*
X0574207Y0153040D01*
X0574058Y0153095D01*
X0573911Y0153153D01*
X0573765Y0153215D01*
X0573621Y0153280D01*
X0573479Y0153350D01*
X0573338Y0153422D01*
X0573199Y0153499D01*
X0573063Y0153578D01*
X0572928Y0153662D01*
X0572795Y0153748D01*
X0572665Y0153838D01*
X0572537Y0153931D01*
X0572411Y0154027D01*
X0572288Y0154127D01*
X0572167Y0154229D01*
X0572049Y0154334D01*
X0571934Y0154443D01*
X0571821Y0154554D01*
X0571711Y0154668D01*
X0571604Y0154785D01*
X0571500Y0154904D01*
X0571399Y0155026D01*
X0571302Y0155151D01*
X0571207Y0155278D01*
X0571116Y0155407D01*
X0571027Y0155538D01*
X0570943Y0155672D01*
X0570861Y0155808D01*
X0570783Y0155945D01*
X0570709Y0156085D01*
X0570638Y0156227D01*
X0570570Y0156370D01*
X0570506Y0156515D01*
X0570446Y0156661D01*
X0570390Y0156809D01*
X0570337Y0156958D01*
X0570288Y0157109D01*
X0570243Y0157261D01*
X0570202Y0157414D01*
X0570164Y0157567D01*
X0570131Y0157722D01*
X0570101Y0157878D01*
X0570075Y0158034D01*
X0570054Y0158191D01*
X0570036Y0158348D01*
X0570022Y0158506D01*
X0570012Y0158664D01*
X0570006Y0158822D01*
X0570004Y0158980D01*
X0576303Y0174728D02*
X0576684Y0174723D01*
X0577064Y0174710D01*
X0577444Y0174687D01*
X0577823Y0174654D01*
X0578201Y0174613D01*
X0578578Y0174563D01*
X0578954Y0174503D01*
X0579329Y0174435D01*
X0579701Y0174357D01*
X0580072Y0174270D01*
X0580440Y0174175D01*
X0580806Y0174070D01*
X0581169Y0173957D01*
X0581530Y0173835D01*
X0581887Y0173705D01*
X0582241Y0173565D01*
X0582592Y0173418D01*
X0582939Y0173261D01*
X0583282Y0173097D01*
X0583621Y0172924D01*
X0583956Y0172743D01*
X0584287Y0172554D01*
X0584612Y0172357D01*
X0584933Y0172153D01*
X0585249Y0171940D01*
X0585559Y0171720D01*
X0585865Y0171493D01*
X0586164Y0171258D01*
X0586458Y0171016D01*
X0586746Y0170768D01*
X0587028Y0170512D01*
X0587303Y0170249D01*
X0587572Y0169980D01*
X0587835Y0169705D01*
X0588091Y0169423D01*
X0588339Y0169135D01*
X0588581Y0168841D01*
X0588816Y0168542D01*
X0589043Y0168236D01*
X0589263Y0167926D01*
X0589476Y0167610D01*
X0589680Y0167289D01*
X0589877Y0166964D01*
X0590066Y0166633D01*
X0590247Y0166298D01*
X0590420Y0165959D01*
X0590584Y0165616D01*
X0590741Y0165269D01*
X0590888Y0164918D01*
X0591028Y0164564D01*
X0591158Y0164207D01*
X0591280Y0163846D01*
X0591393Y0163483D01*
X0591498Y0163117D01*
X0591593Y0162749D01*
X0591680Y0162378D01*
X0591758Y0162006D01*
X0591826Y0161631D01*
X0591886Y0161255D01*
X0591936Y0160878D01*
X0591977Y0160500D01*
X0592010Y0160121D01*
X0592033Y0159741D01*
X0592046Y0159361D01*
X0592051Y0158980D01*
X0576303Y0174728D02*
X0017248Y0174728D01*
X0010949Y0158980D02*
X0010951Y0159138D01*
X0010957Y0159296D01*
X0010967Y0159454D01*
X0010981Y0159612D01*
X0010999Y0159769D01*
X0011020Y0159926D01*
X0011046Y0160082D01*
X0011076Y0160238D01*
X0011109Y0160393D01*
X0011147Y0160546D01*
X0011188Y0160699D01*
X0011233Y0160851D01*
X0011282Y0161002D01*
X0011335Y0161151D01*
X0011391Y0161299D01*
X0011451Y0161445D01*
X0011515Y0161590D01*
X0011583Y0161733D01*
X0011654Y0161875D01*
X0011728Y0162015D01*
X0011806Y0162152D01*
X0011888Y0162288D01*
X0011972Y0162422D01*
X0012061Y0162553D01*
X0012152Y0162682D01*
X0012247Y0162809D01*
X0012344Y0162934D01*
X0012445Y0163056D01*
X0012549Y0163175D01*
X0012656Y0163292D01*
X0012766Y0163406D01*
X0012879Y0163517D01*
X0012994Y0163626D01*
X0013112Y0163731D01*
X0013233Y0163833D01*
X0013356Y0163933D01*
X0013482Y0164029D01*
X0013610Y0164122D01*
X0013740Y0164212D01*
X0013873Y0164298D01*
X0014008Y0164382D01*
X0014144Y0164461D01*
X0014283Y0164538D01*
X0014424Y0164610D01*
X0014566Y0164680D01*
X0014710Y0164745D01*
X0014856Y0164807D01*
X0015003Y0164865D01*
X0015152Y0164920D01*
X0015302Y0164971D01*
X0015453Y0165018D01*
X0015605Y0165061D01*
X0015758Y0165100D01*
X0015913Y0165136D01*
X0016068Y0165167D01*
X0016224Y0165195D01*
X0016380Y0165219D01*
X0016537Y0165239D01*
X0016695Y0165255D01*
X0016852Y0165267D01*
X0017011Y0165275D01*
X0017169Y0165279D01*
X0017327Y0165279D01*
X0017485Y0165275D01*
X0017644Y0165267D01*
X0017801Y0165255D01*
X0017959Y0165239D01*
X0018116Y0165219D01*
X0018272Y0165195D01*
X0018428Y0165167D01*
X0018583Y0165136D01*
X0018738Y0165100D01*
X0018891Y0165061D01*
X0019043Y0165018D01*
X0019194Y0164971D01*
X0019344Y0164920D01*
X0019493Y0164865D01*
X0019640Y0164807D01*
X0019786Y0164745D01*
X0019930Y0164680D01*
X0020072Y0164610D01*
X0020213Y0164538D01*
X0020352Y0164461D01*
X0020488Y0164382D01*
X0020623Y0164298D01*
X0020756Y0164212D01*
X0020886Y0164122D01*
X0021014Y0164029D01*
X0021140Y0163933D01*
X0021263Y0163833D01*
X0021384Y0163731D01*
X0021502Y0163626D01*
X0021617Y0163517D01*
X0021730Y0163406D01*
X0021840Y0163292D01*
X0021947Y0163175D01*
X0022051Y0163056D01*
X0022152Y0162934D01*
X0022249Y0162809D01*
X0022344Y0162682D01*
X0022435Y0162553D01*
X0022524Y0162422D01*
X0022608Y0162288D01*
X0022690Y0162152D01*
X0022768Y0162015D01*
X0022842Y0161875D01*
X0022913Y0161733D01*
X0022981Y0161590D01*
X0023045Y0161445D01*
X0023105Y0161299D01*
X0023161Y0161151D01*
X0023214Y0161002D01*
X0023263Y0160851D01*
X0023308Y0160699D01*
X0023349Y0160546D01*
X0023387Y0160393D01*
X0023420Y0160238D01*
X0023450Y0160082D01*
X0023476Y0159926D01*
X0023497Y0159769D01*
X0023515Y0159612D01*
X0023529Y0159454D01*
X0023539Y0159296D01*
X0023545Y0159138D01*
X0023547Y0158980D01*
X0023545Y0158822D01*
X0023539Y0158664D01*
X0023529Y0158506D01*
X0023515Y0158348D01*
X0023497Y0158191D01*
X0023476Y0158034D01*
X0023450Y0157878D01*
X0023420Y0157722D01*
X0023387Y0157567D01*
X0023349Y0157414D01*
X0023308Y0157261D01*
X0023263Y0157109D01*
X0023214Y0156958D01*
X0023161Y0156809D01*
X0023105Y0156661D01*
X0023045Y0156515D01*
X0022981Y0156370D01*
X0022913Y0156227D01*
X0022842Y0156085D01*
X0022768Y0155945D01*
X0022690Y0155808D01*
X0022608Y0155672D01*
X0022524Y0155538D01*
X0022435Y0155407D01*
X0022344Y0155278D01*
X0022249Y0155151D01*
X0022152Y0155026D01*
X0022051Y0154904D01*
X0021947Y0154785D01*
X0021840Y0154668D01*
X0021730Y0154554D01*
X0021617Y0154443D01*
X0021502Y0154334D01*
X0021384Y0154229D01*
X0021263Y0154127D01*
X0021140Y0154027D01*
X0021014Y0153931D01*
X0020886Y0153838D01*
X0020756Y0153748D01*
X0020623Y0153662D01*
X0020488Y0153578D01*
X0020352Y0153499D01*
X0020213Y0153422D01*
X0020072Y0153350D01*
X0019930Y0153280D01*
X0019786Y0153215D01*
X0019640Y0153153D01*
X0019493Y0153095D01*
X0019344Y0153040D01*
X0019194Y0152989D01*
X0019043Y0152942D01*
X0018891Y0152899D01*
X0018738Y0152860D01*
X0018583Y0152824D01*
X0018428Y0152793D01*
X0018272Y0152765D01*
X0018116Y0152741D01*
X0017959Y0152721D01*
X0017801Y0152705D01*
X0017644Y0152693D01*
X0017485Y0152685D01*
X0017327Y0152681D01*
X0017169Y0152681D01*
X0017011Y0152685D01*
X0016852Y0152693D01*
X0016695Y0152705D01*
X0016537Y0152721D01*
X0016380Y0152741D01*
X0016224Y0152765D01*
X0016068Y0152793D01*
X0015913Y0152824D01*
X0015758Y0152860D01*
X0015605Y0152899D01*
X0015453Y0152942D01*
X0015302Y0152989D01*
X0015152Y0153040D01*
X0015003Y0153095D01*
X0014856Y0153153D01*
X0014710Y0153215D01*
X0014566Y0153280D01*
X0014424Y0153350D01*
X0014283Y0153422D01*
X0014144Y0153499D01*
X0014008Y0153578D01*
X0013873Y0153662D01*
X0013740Y0153748D01*
X0013610Y0153838D01*
X0013482Y0153931D01*
X0013356Y0154027D01*
X0013233Y0154127D01*
X0013112Y0154229D01*
X0012994Y0154334D01*
X0012879Y0154443D01*
X0012766Y0154554D01*
X0012656Y0154668D01*
X0012549Y0154785D01*
X0012445Y0154904D01*
X0012344Y0155026D01*
X0012247Y0155151D01*
X0012152Y0155278D01*
X0012061Y0155407D01*
X0011972Y0155538D01*
X0011888Y0155672D01*
X0011806Y0155808D01*
X0011728Y0155945D01*
X0011654Y0156085D01*
X0011583Y0156227D01*
X0011515Y0156370D01*
X0011451Y0156515D01*
X0011391Y0156661D01*
X0011335Y0156809D01*
X0011282Y0156958D01*
X0011233Y0157109D01*
X0011188Y0157261D01*
X0011147Y0157414D01*
X0011109Y0157567D01*
X0011076Y0157722D01*
X0011046Y0157878D01*
X0011020Y0158034D01*
X0010999Y0158191D01*
X0010981Y0158348D01*
X0010967Y0158506D01*
X0010957Y0158664D01*
X0010951Y0158822D01*
X0010949Y0158980D01*
X0001500Y0158980D02*
X0001505Y0159361D01*
X0001518Y0159741D01*
X0001541Y0160121D01*
X0001574Y0160500D01*
X0001615Y0160878D01*
X0001665Y0161255D01*
X0001725Y0161631D01*
X0001793Y0162006D01*
X0001871Y0162378D01*
X0001958Y0162749D01*
X0002053Y0163117D01*
X0002158Y0163483D01*
X0002271Y0163846D01*
X0002393Y0164207D01*
X0002523Y0164564D01*
X0002663Y0164918D01*
X0002810Y0165269D01*
X0002967Y0165616D01*
X0003131Y0165959D01*
X0003304Y0166298D01*
X0003485Y0166633D01*
X0003674Y0166964D01*
X0003871Y0167289D01*
X0004075Y0167610D01*
X0004288Y0167926D01*
X0004508Y0168236D01*
X0004735Y0168542D01*
X0004970Y0168841D01*
X0005212Y0169135D01*
X0005460Y0169423D01*
X0005716Y0169705D01*
X0005979Y0169980D01*
X0006248Y0170249D01*
X0006523Y0170512D01*
X0006805Y0170768D01*
X0007093Y0171016D01*
X0007387Y0171258D01*
X0007686Y0171493D01*
X0007992Y0171720D01*
X0008302Y0171940D01*
X0008618Y0172153D01*
X0008939Y0172357D01*
X0009264Y0172554D01*
X0009595Y0172743D01*
X0009930Y0172924D01*
X0010269Y0173097D01*
X0010612Y0173261D01*
X0010959Y0173418D01*
X0011310Y0173565D01*
X0011664Y0173705D01*
X0012021Y0173835D01*
X0012382Y0173957D01*
X0012745Y0174070D01*
X0013111Y0174175D01*
X0013479Y0174270D01*
X0013850Y0174357D01*
X0014222Y0174435D01*
X0014597Y0174503D01*
X0014973Y0174563D01*
X0015350Y0174613D01*
X0015728Y0174654D01*
X0016107Y0174687D01*
X0016487Y0174710D01*
X0016867Y0174723D01*
X0017248Y0174728D01*
X0001500Y0158980D02*
X0001500Y0025122D01*
X0010949Y0025122D02*
X0010951Y0025280D01*
X0010957Y0025438D01*
X0010967Y0025596D01*
X0010981Y0025754D01*
X0010999Y0025911D01*
X0011020Y0026068D01*
X0011046Y0026224D01*
X0011076Y0026380D01*
X0011109Y0026535D01*
X0011147Y0026688D01*
X0011188Y0026841D01*
X0011233Y0026993D01*
X0011282Y0027144D01*
X0011335Y0027293D01*
X0011391Y0027441D01*
X0011451Y0027587D01*
X0011515Y0027732D01*
X0011583Y0027875D01*
X0011654Y0028017D01*
X0011728Y0028157D01*
X0011806Y0028294D01*
X0011888Y0028430D01*
X0011972Y0028564D01*
X0012061Y0028695D01*
X0012152Y0028824D01*
X0012247Y0028951D01*
X0012344Y0029076D01*
X0012445Y0029198D01*
X0012549Y0029317D01*
X0012656Y0029434D01*
X0012766Y0029548D01*
X0012879Y0029659D01*
X0012994Y0029768D01*
X0013112Y0029873D01*
X0013233Y0029975D01*
X0013356Y0030075D01*
X0013482Y0030171D01*
X0013610Y0030264D01*
X0013740Y0030354D01*
X0013873Y0030440D01*
X0014008Y0030524D01*
X0014144Y0030603D01*
X0014283Y0030680D01*
X0014424Y0030752D01*
X0014566Y0030822D01*
X0014710Y0030887D01*
X0014856Y0030949D01*
X0015003Y0031007D01*
X0015152Y0031062D01*
X0015302Y0031113D01*
X0015453Y0031160D01*
X0015605Y0031203D01*
X0015758Y0031242D01*
X0015913Y0031278D01*
X0016068Y0031309D01*
X0016224Y0031337D01*
X0016380Y0031361D01*
X0016537Y0031381D01*
X0016695Y0031397D01*
X0016852Y0031409D01*
X0017011Y0031417D01*
X0017169Y0031421D01*
X0017327Y0031421D01*
X0017485Y0031417D01*
X0017644Y0031409D01*
X0017801Y0031397D01*
X0017959Y0031381D01*
X0018116Y0031361D01*
X0018272Y0031337D01*
X0018428Y0031309D01*
X0018583Y0031278D01*
X0018738Y0031242D01*
X0018891Y0031203D01*
X0019043Y0031160D01*
X0019194Y0031113D01*
X0019344Y0031062D01*
X0019493Y0031007D01*
X0019640Y0030949D01*
X0019786Y0030887D01*
X0019930Y0030822D01*
X0020072Y0030752D01*
X0020213Y0030680D01*
X0020352Y0030603D01*
X0020488Y0030524D01*
X0020623Y0030440D01*
X0020756Y0030354D01*
X0020886Y0030264D01*
X0021014Y0030171D01*
X0021140Y0030075D01*
X0021263Y0029975D01*
X0021384Y0029873D01*
X0021502Y0029768D01*
X0021617Y0029659D01*
X0021730Y0029548D01*
X0021840Y0029434D01*
X0021947Y0029317D01*
X0022051Y0029198D01*
X0022152Y0029076D01*
X0022249Y0028951D01*
X0022344Y0028824D01*
X0022435Y0028695D01*
X0022524Y0028564D01*
X0022608Y0028430D01*
X0022690Y0028294D01*
X0022768Y0028157D01*
X0022842Y0028017D01*
X0022913Y0027875D01*
X0022981Y0027732D01*
X0023045Y0027587D01*
X0023105Y0027441D01*
X0023161Y0027293D01*
X0023214Y0027144D01*
X0023263Y0026993D01*
X0023308Y0026841D01*
X0023349Y0026688D01*
X0023387Y0026535D01*
X0023420Y0026380D01*
X0023450Y0026224D01*
X0023476Y0026068D01*
X0023497Y0025911D01*
X0023515Y0025754D01*
X0023529Y0025596D01*
X0023539Y0025438D01*
X0023545Y0025280D01*
X0023547Y0025122D01*
X0023545Y0024964D01*
X0023539Y0024806D01*
X0023529Y0024648D01*
X0023515Y0024490D01*
X0023497Y0024333D01*
X0023476Y0024176D01*
X0023450Y0024020D01*
X0023420Y0023864D01*
X0023387Y0023709D01*
X0023349Y0023556D01*
X0023308Y0023403D01*
X0023263Y0023251D01*
X0023214Y0023100D01*
X0023161Y0022951D01*
X0023105Y0022803D01*
X0023045Y0022657D01*
X0022981Y0022512D01*
X0022913Y0022369D01*
X0022842Y0022227D01*
X0022768Y0022087D01*
X0022690Y0021950D01*
X0022608Y0021814D01*
X0022524Y0021680D01*
X0022435Y0021549D01*
X0022344Y0021420D01*
X0022249Y0021293D01*
X0022152Y0021168D01*
X0022051Y0021046D01*
X0021947Y0020927D01*
X0021840Y0020810D01*
X0021730Y0020696D01*
X0021617Y0020585D01*
X0021502Y0020476D01*
X0021384Y0020371D01*
X0021263Y0020269D01*
X0021140Y0020169D01*
X0021014Y0020073D01*
X0020886Y0019980D01*
X0020756Y0019890D01*
X0020623Y0019804D01*
X0020488Y0019720D01*
X0020352Y0019641D01*
X0020213Y0019564D01*
X0020072Y0019492D01*
X0019930Y0019422D01*
X0019786Y0019357D01*
X0019640Y0019295D01*
X0019493Y0019237D01*
X0019344Y0019182D01*
X0019194Y0019131D01*
X0019043Y0019084D01*
X0018891Y0019041D01*
X0018738Y0019002D01*
X0018583Y0018966D01*
X0018428Y0018935D01*
X0018272Y0018907D01*
X0018116Y0018883D01*
X0017959Y0018863D01*
X0017801Y0018847D01*
X0017644Y0018835D01*
X0017485Y0018827D01*
X0017327Y0018823D01*
X0017169Y0018823D01*
X0017011Y0018827D01*
X0016852Y0018835D01*
X0016695Y0018847D01*
X0016537Y0018863D01*
X0016380Y0018883D01*
X0016224Y0018907D01*
X0016068Y0018935D01*
X0015913Y0018966D01*
X0015758Y0019002D01*
X0015605Y0019041D01*
X0015453Y0019084D01*
X0015302Y0019131D01*
X0015152Y0019182D01*
X0015003Y0019237D01*
X0014856Y0019295D01*
X0014710Y0019357D01*
X0014566Y0019422D01*
X0014424Y0019492D01*
X0014283Y0019564D01*
X0014144Y0019641D01*
X0014008Y0019720D01*
X0013873Y0019804D01*
X0013740Y0019890D01*
X0013610Y0019980D01*
X0013482Y0020073D01*
X0013356Y0020169D01*
X0013233Y0020269D01*
X0013112Y0020371D01*
X0012994Y0020476D01*
X0012879Y0020585D01*
X0012766Y0020696D01*
X0012656Y0020810D01*
X0012549Y0020927D01*
X0012445Y0021046D01*
X0012344Y0021168D01*
X0012247Y0021293D01*
X0012152Y0021420D01*
X0012061Y0021549D01*
X0011972Y0021680D01*
X0011888Y0021814D01*
X0011806Y0021950D01*
X0011728Y0022087D01*
X0011654Y0022227D01*
X0011583Y0022369D01*
X0011515Y0022512D01*
X0011451Y0022657D01*
X0011391Y0022803D01*
X0011335Y0022951D01*
X0011282Y0023100D01*
X0011233Y0023251D01*
X0011188Y0023403D01*
X0011147Y0023556D01*
X0011109Y0023709D01*
X0011076Y0023864D01*
X0011046Y0024020D01*
X0011020Y0024176D01*
X0010999Y0024333D01*
X0010981Y0024490D01*
X0010967Y0024648D01*
X0010957Y0024806D01*
X0010951Y0024964D01*
X0010949Y0025122D01*
X0001500Y0025122D02*
X0001505Y0024741D01*
X0001518Y0024361D01*
X0001541Y0023981D01*
X0001574Y0023602D01*
X0001615Y0023224D01*
X0001665Y0022847D01*
X0001725Y0022471D01*
X0001793Y0022096D01*
X0001871Y0021724D01*
X0001958Y0021353D01*
X0002053Y0020985D01*
X0002158Y0020619D01*
X0002271Y0020256D01*
X0002393Y0019895D01*
X0002523Y0019538D01*
X0002663Y0019184D01*
X0002810Y0018833D01*
X0002967Y0018486D01*
X0003131Y0018143D01*
X0003304Y0017804D01*
X0003485Y0017469D01*
X0003674Y0017138D01*
X0003871Y0016813D01*
X0004075Y0016492D01*
X0004288Y0016176D01*
X0004508Y0015866D01*
X0004735Y0015560D01*
X0004970Y0015261D01*
X0005212Y0014967D01*
X0005460Y0014679D01*
X0005716Y0014397D01*
X0005979Y0014122D01*
X0006248Y0013853D01*
X0006523Y0013590D01*
X0006805Y0013334D01*
X0007093Y0013086D01*
X0007387Y0012844D01*
X0007686Y0012609D01*
X0007992Y0012382D01*
X0008302Y0012162D01*
X0008618Y0011949D01*
X0008939Y0011745D01*
X0009264Y0011548D01*
X0009595Y0011359D01*
X0009930Y0011178D01*
X0010269Y0011005D01*
X0010612Y0010841D01*
X0010959Y0010684D01*
X0011310Y0010537D01*
X0011664Y0010397D01*
X0012021Y0010267D01*
X0012382Y0010145D01*
X0012745Y0010032D01*
X0013111Y0009927D01*
X0013479Y0009832D01*
X0013850Y0009745D01*
X0014222Y0009667D01*
X0014597Y0009599D01*
X0014973Y0009539D01*
X0015350Y0009489D01*
X0015728Y0009448D01*
X0016107Y0009415D01*
X0016487Y0009392D01*
X0016867Y0009379D01*
X0017248Y0009374D01*
X0474925Y0015673D02*
X0474927Y0015781D01*
X0474933Y0015890D01*
X0474943Y0015998D01*
X0474957Y0016105D01*
X0474975Y0016212D01*
X0474996Y0016319D01*
X0475022Y0016424D01*
X0475052Y0016529D01*
X0475085Y0016632D01*
X0475122Y0016734D01*
X0475163Y0016834D01*
X0475207Y0016933D01*
X0475256Y0017031D01*
X0475307Y0017126D01*
X0475362Y0017219D01*
X0475421Y0017311D01*
X0475483Y0017400D01*
X0475548Y0017487D01*
X0475616Y0017571D01*
X0475687Y0017653D01*
X0475761Y0017732D01*
X0475838Y0017808D01*
X0475918Y0017882D01*
X0476001Y0017952D01*
X0476086Y0018020D01*
X0476173Y0018084D01*
X0476263Y0018145D01*
X0476355Y0018203D01*
X0476449Y0018257D01*
X0476545Y0018308D01*
X0476642Y0018355D01*
X0476742Y0018399D01*
X0476843Y0018439D01*
X0476945Y0018475D01*
X0477048Y0018507D01*
X0477153Y0018536D01*
X0477259Y0018560D01*
X0477365Y0018581D01*
X0477472Y0018598D01*
X0477580Y0018611D01*
X0477688Y0018620D01*
X0477797Y0018625D01*
X0477905Y0018626D01*
X0478014Y0018623D01*
X0478122Y0018616D01*
X0478230Y0018605D01*
X0478337Y0018590D01*
X0478444Y0018571D01*
X0478550Y0018548D01*
X0478655Y0018522D01*
X0478760Y0018491D01*
X0478862Y0018457D01*
X0478964Y0018419D01*
X0479064Y0018377D01*
X0479163Y0018332D01*
X0479260Y0018283D01*
X0479354Y0018230D01*
X0479447Y0018174D01*
X0479538Y0018115D01*
X0479627Y0018052D01*
X0479713Y0017987D01*
X0479797Y0017918D01*
X0479878Y0017846D01*
X0479956Y0017771D01*
X0480032Y0017693D01*
X0480105Y0017612D01*
X0480175Y0017529D01*
X0480241Y0017444D01*
X0480305Y0017356D01*
X0480365Y0017265D01*
X0480422Y0017173D01*
X0480475Y0017078D01*
X0480525Y0016982D01*
X0480571Y0016884D01*
X0480614Y0016784D01*
X0480653Y0016683D01*
X0480688Y0016580D01*
X0480720Y0016477D01*
X0480747Y0016372D01*
X0480771Y0016266D01*
X0480791Y0016159D01*
X0480807Y0016052D01*
X0480819Y0015944D01*
X0480827Y0015836D01*
X0480831Y0015727D01*
X0480831Y0015619D01*
X0480827Y0015510D01*
X0480819Y0015402D01*
X0480807Y0015294D01*
X0480791Y0015187D01*
X0480771Y0015080D01*
X0480747Y0014974D01*
X0480720Y0014869D01*
X0480688Y0014766D01*
X0480653Y0014663D01*
X0480614Y0014562D01*
X0480571Y0014462D01*
X0480525Y0014364D01*
X0480475Y0014268D01*
X0480422Y0014173D01*
X0480365Y0014081D01*
X0480305Y0013990D01*
X0480241Y0013902D01*
X0480175Y0013817D01*
X0480105Y0013734D01*
X0480032Y0013653D01*
X0479956Y0013575D01*
X0479878Y0013500D01*
X0479797Y0013428D01*
X0479713Y0013359D01*
X0479627Y0013294D01*
X0479538Y0013231D01*
X0479447Y0013172D01*
X0479355Y0013116D01*
X0479260Y0013063D01*
X0479163Y0013014D01*
X0479064Y0012969D01*
X0478964Y0012927D01*
X0478862Y0012889D01*
X0478760Y0012855D01*
X0478655Y0012824D01*
X0478550Y0012798D01*
X0478444Y0012775D01*
X0478337Y0012756D01*
X0478230Y0012741D01*
X0478122Y0012730D01*
X0478014Y0012723D01*
X0477905Y0012720D01*
X0477797Y0012721D01*
X0477688Y0012726D01*
X0477580Y0012735D01*
X0477472Y0012748D01*
X0477365Y0012765D01*
X0477259Y0012786D01*
X0477153Y0012810D01*
X0477048Y0012839D01*
X0476945Y0012871D01*
X0476843Y0012907D01*
X0476742Y0012947D01*
X0476642Y0012991D01*
X0476545Y0013038D01*
X0476449Y0013089D01*
X0476355Y0013143D01*
X0476263Y0013201D01*
X0476173Y0013262D01*
X0476086Y0013326D01*
X0476001Y0013394D01*
X0475918Y0013464D01*
X0475838Y0013538D01*
X0475761Y0013614D01*
X0475687Y0013693D01*
X0475616Y0013775D01*
X0475548Y0013859D01*
X0475483Y0013946D01*
X0475421Y0014035D01*
X0475362Y0014127D01*
X0475307Y0014220D01*
X0475256Y0014315D01*
X0475207Y0014413D01*
X0475163Y0014512D01*
X0475122Y0014612D01*
X0475085Y0014714D01*
X0475052Y0014817D01*
X0475022Y0014922D01*
X0474996Y0015027D01*
X0474975Y0015134D01*
X0474957Y0015241D01*
X0474943Y0015348D01*
X0474933Y0015456D01*
X0474927Y0015565D01*
X0474925Y0015673D01*
X0510752Y0028075D02*
X0510754Y0028159D01*
X0510760Y0028242D01*
X0510770Y0028325D01*
X0510784Y0028408D01*
X0510801Y0028490D01*
X0510823Y0028571D01*
X0510848Y0028650D01*
X0510877Y0028729D01*
X0510910Y0028806D01*
X0510946Y0028881D01*
X0510986Y0028955D01*
X0511029Y0029027D01*
X0511076Y0029096D01*
X0511126Y0029163D01*
X0511179Y0029228D01*
X0511235Y0029290D01*
X0511293Y0029350D01*
X0511355Y0029407D01*
X0511419Y0029460D01*
X0511486Y0029511D01*
X0511555Y0029558D01*
X0511626Y0029603D01*
X0511699Y0029643D01*
X0511774Y0029680D01*
X0511851Y0029714D01*
X0511929Y0029744D01*
X0512008Y0029770D01*
X0512089Y0029793D01*
X0512171Y0029811D01*
X0512253Y0029826D01*
X0512336Y0029837D01*
X0512419Y0029844D01*
X0512503Y0029847D01*
X0512587Y0029846D01*
X0512670Y0029841D01*
X0512754Y0029832D01*
X0512836Y0029819D01*
X0512918Y0029803D01*
X0512999Y0029782D01*
X0513080Y0029758D01*
X0513158Y0029730D01*
X0513236Y0029698D01*
X0513312Y0029662D01*
X0513386Y0029623D01*
X0513458Y0029581D01*
X0513528Y0029535D01*
X0513596Y0029486D01*
X0513661Y0029434D01*
X0513724Y0029379D01*
X0513784Y0029321D01*
X0513842Y0029260D01*
X0513896Y0029196D01*
X0513948Y0029130D01*
X0513996Y0029062D01*
X0514041Y0028991D01*
X0514082Y0028918D01*
X0514121Y0028844D01*
X0514155Y0028768D01*
X0514186Y0028690D01*
X0514213Y0028611D01*
X0514237Y0028530D01*
X0514256Y0028449D01*
X0514272Y0028367D01*
X0514284Y0028284D01*
X0514292Y0028200D01*
X0514296Y0028117D01*
X0514296Y0028033D01*
X0514292Y0027950D01*
X0514284Y0027866D01*
X0514272Y0027783D01*
X0514256Y0027701D01*
X0514237Y0027620D01*
X0514213Y0027539D01*
X0514186Y0027460D01*
X0514155Y0027382D01*
X0514121Y0027306D01*
X0514082Y0027232D01*
X0514041Y0027159D01*
X0513996Y0027088D01*
X0513948Y0027020D01*
X0513896Y0026954D01*
X0513842Y0026890D01*
X0513784Y0026829D01*
X0513724Y0026771D01*
X0513661Y0026716D01*
X0513596Y0026664D01*
X0513528Y0026615D01*
X0513458Y0026569D01*
X0513386Y0026527D01*
X0513312Y0026488D01*
X0513236Y0026452D01*
X0513158Y0026420D01*
X0513080Y0026392D01*
X0512999Y0026368D01*
X0512918Y0026347D01*
X0512836Y0026331D01*
X0512754Y0026318D01*
X0512670Y0026309D01*
X0512587Y0026304D01*
X0512503Y0026303D01*
X0512419Y0026306D01*
X0512336Y0026313D01*
X0512253Y0026324D01*
X0512171Y0026339D01*
X0512089Y0026357D01*
X0512008Y0026380D01*
X0511929Y0026406D01*
X0511851Y0026436D01*
X0511774Y0026470D01*
X0511699Y0026507D01*
X0511626Y0026547D01*
X0511555Y0026592D01*
X0511486Y0026639D01*
X0511419Y0026690D01*
X0511355Y0026743D01*
X0511293Y0026800D01*
X0511235Y0026860D01*
X0511179Y0026922D01*
X0511126Y0026987D01*
X0511076Y0027054D01*
X0511029Y0027123D01*
X0510986Y0027195D01*
X0510946Y0027269D01*
X0510910Y0027344D01*
X0510877Y0027421D01*
X0510848Y0027500D01*
X0510823Y0027579D01*
X0510801Y0027660D01*
X0510784Y0027742D01*
X0510770Y0027825D01*
X0510760Y0027908D01*
X0510754Y0027991D01*
X0510752Y0028075D01*
X0528074Y0028075D02*
X0528076Y0028159D01*
X0528082Y0028242D01*
X0528092Y0028325D01*
X0528106Y0028408D01*
X0528123Y0028490D01*
X0528145Y0028571D01*
X0528170Y0028650D01*
X0528199Y0028729D01*
X0528232Y0028806D01*
X0528268Y0028881D01*
X0528308Y0028955D01*
X0528351Y0029027D01*
X0528398Y0029096D01*
X0528448Y0029163D01*
X0528501Y0029228D01*
X0528557Y0029290D01*
X0528615Y0029350D01*
X0528677Y0029407D01*
X0528741Y0029460D01*
X0528808Y0029511D01*
X0528877Y0029558D01*
X0528948Y0029603D01*
X0529021Y0029643D01*
X0529096Y0029680D01*
X0529173Y0029714D01*
X0529251Y0029744D01*
X0529330Y0029770D01*
X0529411Y0029793D01*
X0529493Y0029811D01*
X0529575Y0029826D01*
X0529658Y0029837D01*
X0529741Y0029844D01*
X0529825Y0029847D01*
X0529909Y0029846D01*
X0529992Y0029841D01*
X0530076Y0029832D01*
X0530158Y0029819D01*
X0530240Y0029803D01*
X0530321Y0029782D01*
X0530402Y0029758D01*
X0530480Y0029730D01*
X0530558Y0029698D01*
X0530634Y0029662D01*
X0530708Y0029623D01*
X0530780Y0029581D01*
X0530850Y0029535D01*
X0530918Y0029486D01*
X0530983Y0029434D01*
X0531046Y0029379D01*
X0531106Y0029321D01*
X0531164Y0029260D01*
X0531218Y0029196D01*
X0531270Y0029130D01*
X0531318Y0029062D01*
X0531363Y0028991D01*
X0531404Y0028918D01*
X0531443Y0028844D01*
X0531477Y0028768D01*
X0531508Y0028690D01*
X0531535Y0028611D01*
X0531559Y0028530D01*
X0531578Y0028449D01*
X0531594Y0028367D01*
X0531606Y0028284D01*
X0531614Y0028200D01*
X0531618Y0028117D01*
X0531618Y0028033D01*
X0531614Y0027950D01*
X0531606Y0027866D01*
X0531594Y0027783D01*
X0531578Y0027701D01*
X0531559Y0027620D01*
X0531535Y0027539D01*
X0531508Y0027460D01*
X0531477Y0027382D01*
X0531443Y0027306D01*
X0531404Y0027232D01*
X0531363Y0027159D01*
X0531318Y0027088D01*
X0531270Y0027020D01*
X0531218Y0026954D01*
X0531164Y0026890D01*
X0531106Y0026829D01*
X0531046Y0026771D01*
X0530983Y0026716D01*
X0530918Y0026664D01*
X0530850Y0026615D01*
X0530780Y0026569D01*
X0530708Y0026527D01*
X0530634Y0026488D01*
X0530558Y0026452D01*
X0530480Y0026420D01*
X0530402Y0026392D01*
X0530321Y0026368D01*
X0530240Y0026347D01*
X0530158Y0026331D01*
X0530076Y0026318D01*
X0529992Y0026309D01*
X0529909Y0026304D01*
X0529825Y0026303D01*
X0529741Y0026306D01*
X0529658Y0026313D01*
X0529575Y0026324D01*
X0529493Y0026339D01*
X0529411Y0026357D01*
X0529330Y0026380D01*
X0529251Y0026406D01*
X0529173Y0026436D01*
X0529096Y0026470D01*
X0529021Y0026507D01*
X0528948Y0026547D01*
X0528877Y0026592D01*
X0528808Y0026639D01*
X0528741Y0026690D01*
X0528677Y0026743D01*
X0528615Y0026800D01*
X0528557Y0026860D01*
X0528501Y0026922D01*
X0528448Y0026987D01*
X0528398Y0027054D01*
X0528351Y0027123D01*
X0528308Y0027195D01*
X0528268Y0027269D01*
X0528232Y0027344D01*
X0528199Y0027421D01*
X0528170Y0027500D01*
X0528145Y0027579D01*
X0528123Y0027660D01*
X0528106Y0027742D01*
X0528092Y0027825D01*
X0528082Y0027908D01*
X0528076Y0027991D01*
X0528074Y0028075D01*
X0474925Y0043232D02*
X0474927Y0043340D01*
X0474933Y0043449D01*
X0474943Y0043557D01*
X0474957Y0043664D01*
X0474975Y0043771D01*
X0474996Y0043878D01*
X0475022Y0043983D01*
X0475052Y0044088D01*
X0475085Y0044191D01*
X0475122Y0044293D01*
X0475163Y0044393D01*
X0475207Y0044492D01*
X0475256Y0044590D01*
X0475307Y0044685D01*
X0475362Y0044778D01*
X0475421Y0044870D01*
X0475483Y0044959D01*
X0475548Y0045046D01*
X0475616Y0045130D01*
X0475687Y0045212D01*
X0475761Y0045291D01*
X0475838Y0045367D01*
X0475918Y0045441D01*
X0476001Y0045511D01*
X0476086Y0045579D01*
X0476173Y0045643D01*
X0476263Y0045704D01*
X0476355Y0045762D01*
X0476449Y0045816D01*
X0476545Y0045867D01*
X0476642Y0045914D01*
X0476742Y0045958D01*
X0476843Y0045998D01*
X0476945Y0046034D01*
X0477048Y0046066D01*
X0477153Y0046095D01*
X0477259Y0046119D01*
X0477365Y0046140D01*
X0477472Y0046157D01*
X0477580Y0046170D01*
X0477688Y0046179D01*
X0477797Y0046184D01*
X0477905Y0046185D01*
X0478014Y0046182D01*
X0478122Y0046175D01*
X0478230Y0046164D01*
X0478337Y0046149D01*
X0478444Y0046130D01*
X0478550Y0046107D01*
X0478655Y0046081D01*
X0478760Y0046050D01*
X0478862Y0046016D01*
X0478964Y0045978D01*
X0479064Y0045936D01*
X0479163Y0045891D01*
X0479260Y0045842D01*
X0479354Y0045789D01*
X0479447Y0045733D01*
X0479538Y0045674D01*
X0479627Y0045611D01*
X0479713Y0045546D01*
X0479797Y0045477D01*
X0479878Y0045405D01*
X0479956Y0045330D01*
X0480032Y0045252D01*
X0480105Y0045171D01*
X0480175Y0045088D01*
X0480241Y0045003D01*
X0480305Y0044915D01*
X0480365Y0044824D01*
X0480422Y0044732D01*
X0480475Y0044637D01*
X0480525Y0044541D01*
X0480571Y0044443D01*
X0480614Y0044343D01*
X0480653Y0044242D01*
X0480688Y0044139D01*
X0480720Y0044036D01*
X0480747Y0043931D01*
X0480771Y0043825D01*
X0480791Y0043718D01*
X0480807Y0043611D01*
X0480819Y0043503D01*
X0480827Y0043395D01*
X0480831Y0043286D01*
X0480831Y0043178D01*
X0480827Y0043069D01*
X0480819Y0042961D01*
X0480807Y0042853D01*
X0480791Y0042746D01*
X0480771Y0042639D01*
X0480747Y0042533D01*
X0480720Y0042428D01*
X0480688Y0042325D01*
X0480653Y0042222D01*
X0480614Y0042121D01*
X0480571Y0042021D01*
X0480525Y0041923D01*
X0480475Y0041827D01*
X0480422Y0041732D01*
X0480365Y0041640D01*
X0480305Y0041549D01*
X0480241Y0041461D01*
X0480175Y0041376D01*
X0480105Y0041293D01*
X0480032Y0041212D01*
X0479956Y0041134D01*
X0479878Y0041059D01*
X0479797Y0040987D01*
X0479713Y0040918D01*
X0479627Y0040853D01*
X0479538Y0040790D01*
X0479447Y0040731D01*
X0479355Y0040675D01*
X0479260Y0040622D01*
X0479163Y0040573D01*
X0479064Y0040528D01*
X0478964Y0040486D01*
X0478862Y0040448D01*
X0478760Y0040414D01*
X0478655Y0040383D01*
X0478550Y0040357D01*
X0478444Y0040334D01*
X0478337Y0040315D01*
X0478230Y0040300D01*
X0478122Y0040289D01*
X0478014Y0040282D01*
X0477905Y0040279D01*
X0477797Y0040280D01*
X0477688Y0040285D01*
X0477580Y0040294D01*
X0477472Y0040307D01*
X0477365Y0040324D01*
X0477259Y0040345D01*
X0477153Y0040369D01*
X0477048Y0040398D01*
X0476945Y0040430D01*
X0476843Y0040466D01*
X0476742Y0040506D01*
X0476642Y0040550D01*
X0476545Y0040597D01*
X0476449Y0040648D01*
X0476355Y0040702D01*
X0476263Y0040760D01*
X0476173Y0040821D01*
X0476086Y0040885D01*
X0476001Y0040953D01*
X0475918Y0041023D01*
X0475838Y0041097D01*
X0475761Y0041173D01*
X0475687Y0041252D01*
X0475616Y0041334D01*
X0475548Y0041418D01*
X0475483Y0041505D01*
X0475421Y0041594D01*
X0475362Y0041686D01*
X0475307Y0041779D01*
X0475256Y0041874D01*
X0475207Y0041972D01*
X0475163Y0042071D01*
X0475122Y0042171D01*
X0475085Y0042273D01*
X0475052Y0042376D01*
X0475022Y0042481D01*
X0474996Y0042586D01*
X0474975Y0042693D01*
X0474957Y0042800D01*
X0474943Y0042907D01*
X0474933Y0043015D01*
X0474927Y0043124D01*
X0474925Y0043232D01*
D11*
X0576303Y0072051D03*
X0576303Y0082051D03*
X0576303Y0092051D03*
X0576303Y0102051D03*
X0576303Y0112051D03*
X0306776Y0025122D03*
X0296776Y0025122D03*
X0286776Y0025122D03*
D12*
X0015388Y0010996D02*
X0011796Y0011959D01*
X0009266Y0013419D01*
X0005545Y0017140D01*
X0004085Y0019670D01*
X0003122Y0023262D01*
X0003000Y0025122D01*
X0003000Y0158980D01*
X0003122Y0160840D01*
X0004085Y0164433D01*
X0005545Y0166962D01*
X0009266Y0170683D01*
X0011796Y0172144D01*
X0015388Y0173106D01*
X0017248Y0173228D01*
X0121110Y0173228D01*
X0127484Y0166854D01*
X0127484Y0139295D01*
X0131421Y0135358D01*
X0414886Y0135358D01*
X0418823Y0139295D01*
X0418823Y0166854D01*
X0425197Y0173228D01*
X0576303Y0173228D01*
X0578163Y0173106D01*
X0581756Y0172144D01*
X0584285Y0170683D01*
X0588006Y0166962D01*
X0589467Y0164433D01*
X0590429Y0160840D01*
X0590551Y0158980D01*
X0590551Y0025122D01*
X0590429Y0023262D01*
X0589467Y0019670D01*
X0589467Y0019670D01*
X0588006Y0017140D01*
X0584285Y0013419D01*
X0581756Y0011959D01*
X0578163Y0010996D01*
X0576303Y0010874D01*
X0017248Y0010874D01*
X0015388Y0010996D01*
X0013988Y0011371D02*
X0476629Y0011371D01*
X0476992Y0011220D02*
X0478764Y0011220D01*
X0480400Y0011898D01*
X0481653Y0013151D01*
X0482331Y0014788D01*
X0482331Y0016559D01*
X0481653Y0018196D01*
X0480400Y0019448D01*
X0478764Y0020126D01*
X0476992Y0020126D01*
X0475356Y0019448D01*
X0474103Y0018196D01*
X0473425Y0016559D01*
X0473425Y0014788D01*
X0474103Y0013151D01*
X0475356Y0011898D01*
X0476992Y0011220D01*
X0479127Y0011371D02*
X0579563Y0011371D01*
X0582467Y0012370D02*
X0480871Y0012370D01*
X0481743Y0013368D02*
X0584197Y0013368D01*
X0585233Y0014367D02*
X0482156Y0014367D01*
X0482331Y0015365D02*
X0586231Y0015365D01*
X0587230Y0016364D02*
X0482331Y0016364D01*
X0481998Y0017362D02*
X0574657Y0017362D01*
X0574752Y0017323D02*
X0577855Y0017323D01*
X0580721Y0018510D01*
X0582915Y0020704D01*
X0584102Y0023571D01*
X0584102Y0026673D01*
X0582915Y0029540D01*
X0580721Y0031734D01*
X0577855Y0032921D01*
X0574752Y0032921D01*
X0571885Y0031734D01*
X0569691Y0029540D01*
X0568504Y0026673D01*
X0568504Y0023571D01*
X0569691Y0020704D01*
X0571885Y0018510D01*
X0574752Y0017323D01*
X0572246Y0018361D02*
X0481488Y0018361D01*
X0480489Y0019359D02*
X0571036Y0019359D01*
X0570038Y0020358D02*
X0287378Y0020358D01*
X0287260Y0020358D02*
X0286291Y0020358D01*
X0286291Y0020339D02*
X0286291Y0024638D01*
X0281992Y0024638D01*
X0282094Y0023998D01*
X0282327Y0023279D01*
X0282670Y0022606D01*
X0283114Y0021995D01*
X0283649Y0021461D01*
X0284260Y0021017D01*
X0284933Y0020674D01*
X0285652Y0020440D01*
X0286291Y0020339D01*
X0286173Y0020358D02*
X0023513Y0020358D01*
X0023860Y0020704D02*
X0021666Y0018510D01*
X0018799Y0017323D01*
X0015697Y0017323D01*
X0012830Y0018510D01*
X0010636Y0020704D01*
X0009449Y0023571D01*
X0009449Y0026673D01*
X0010636Y0029540D01*
X0012830Y0031734D01*
X0015697Y0032921D01*
X0018799Y0032921D01*
X0021666Y0031734D01*
X0023860Y0029540D01*
X0025047Y0026673D01*
X0025047Y0023571D01*
X0023860Y0020704D01*
X0024130Y0021356D02*
X0283793Y0021356D01*
X0282853Y0022355D02*
X0216281Y0022355D01*
X0216081Y0022155D02*
X0225391Y0031465D01*
X0371113Y0031465D01*
X0379438Y0023139D01*
X0380423Y0022155D01*
X0381709Y0021622D01*
X0415174Y0021622D01*
X0490385Y0021622D01*
X0491672Y0022155D01*
X0503483Y0033966D01*
X0504467Y0034950D01*
X0505000Y0036237D01*
X0505000Y0055980D01*
X0505698Y0056679D01*
X0505698Y0058526D01*
X0505146Y0059079D01*
X0505698Y0059631D01*
X0505698Y0061479D01*
X0504392Y0062785D01*
X0502886Y0062785D01*
X0502196Y0063071D01*
X0500804Y0063071D01*
X0500114Y0062785D01*
X0499592Y0062785D01*
X0498286Y0061479D01*
X0498286Y0060957D01*
X0498000Y0060267D01*
X0498000Y0038383D01*
X0488239Y0028622D01*
X0383855Y0028622D01*
X0382667Y0029810D01*
X0382667Y0030967D01*
X0381361Y0032273D01*
X0380204Y0032273D01*
X0374546Y0037932D01*
X0373259Y0038465D01*
X0223245Y0038465D01*
X0221958Y0037932D01*
X0220974Y0036947D01*
X0212649Y0028622D01*
X0122217Y0028622D01*
X0121518Y0029320D01*
X0119671Y0029320D01*
X0119380Y0029029D01*
X0119115Y0029295D01*
X0118159Y0029691D01*
X0117125Y0029691D01*
X0116169Y0029295D01*
X0115438Y0028563D01*
X0115042Y0027608D01*
X0115042Y0023621D01*
X0115438Y0022665D01*
X0116169Y0021934D01*
X0117125Y0021538D01*
X0121112Y0021538D01*
X0121315Y0021622D01*
X0214795Y0021622D01*
X0216081Y0022155D01*
X0217279Y0023353D02*
X0282303Y0023353D01*
X0282038Y0024352D02*
X0218278Y0024352D01*
X0219276Y0025350D02*
X0286291Y0025350D01*
X0286291Y0025606D02*
X0286291Y0024638D01*
X0287260Y0024638D01*
X0287260Y0025606D01*
X0291559Y0025606D01*
X0291457Y0026246D01*
X0291224Y0026965D01*
X0290881Y0027638D01*
X0290437Y0028249D01*
X0289903Y0028783D01*
X0289291Y0029227D01*
X0288618Y0029570D01*
X0287900Y0029804D01*
X0287260Y0029905D01*
X0287260Y0025606D01*
X0286291Y0025606D01*
X0281992Y0025606D01*
X0282094Y0026246D01*
X0282327Y0026965D01*
X0282670Y0027638D01*
X0283114Y0028249D01*
X0283649Y0028783D01*
X0284260Y0029227D01*
X0284933Y0029570D01*
X0285652Y0029804D01*
X0286291Y0029905D01*
X0286291Y0025606D01*
X0286291Y0026349D02*
X0287260Y0026349D01*
X0287260Y0027347D02*
X0286291Y0027347D01*
X0286291Y0028346D02*
X0287260Y0028346D01*
X0287260Y0029344D02*
X0286291Y0029344D01*
X0284489Y0029344D02*
X0223270Y0029344D01*
X0222272Y0028346D02*
X0283211Y0028346D01*
X0282522Y0027347D02*
X0221273Y0027347D01*
X0220275Y0026349D02*
X0282127Y0026349D01*
X0286291Y0024352D02*
X0287260Y0024352D01*
X0287260Y0024638D02*
X0287260Y0020339D01*
X0287900Y0020440D01*
X0288618Y0020674D01*
X0289291Y0021017D01*
X0289903Y0021461D01*
X0290437Y0021995D01*
X0290881Y0022606D01*
X0291224Y0023279D01*
X0291457Y0023998D01*
X0291559Y0024638D01*
X0287260Y0024638D01*
X0287260Y0025350D02*
X0292476Y0025350D01*
X0292476Y0025977D02*
X0292476Y0024267D01*
X0293130Y0022686D01*
X0294340Y0021477D01*
X0295920Y0020822D01*
X0297631Y0020822D01*
X0299211Y0021477D01*
X0300421Y0022686D01*
X0301076Y0024267D01*
X0301076Y0025977D01*
X0300421Y0027558D01*
X0299211Y0028767D01*
X0297631Y0029422D01*
X0295920Y0029422D01*
X0294340Y0028767D01*
X0293130Y0027558D01*
X0292476Y0025977D01*
X0292629Y0026349D02*
X0291424Y0026349D01*
X0291029Y0027347D02*
X0293043Y0027347D01*
X0293918Y0028346D02*
X0290340Y0028346D01*
X0289062Y0029344D02*
X0295732Y0029344D01*
X0297819Y0029344D02*
X0305732Y0029344D01*
X0305920Y0029422D02*
X0304340Y0028767D01*
X0303130Y0027558D01*
X0302476Y0025977D01*
X0302476Y0024267D01*
X0303130Y0022686D01*
X0304340Y0021477D01*
X0305920Y0020822D01*
X0307631Y0020822D01*
X0309211Y0021477D01*
X0310421Y0022686D01*
X0311076Y0024267D01*
X0311076Y0025977D01*
X0310421Y0027558D01*
X0309211Y0028767D01*
X0307631Y0029422D01*
X0305920Y0029422D01*
X0307819Y0029344D02*
X0373234Y0029344D01*
X0374232Y0028346D02*
X0309633Y0028346D01*
X0310508Y0027347D02*
X0375231Y0027347D01*
X0376229Y0026349D02*
X0310922Y0026349D01*
X0311076Y0025350D02*
X0377228Y0025350D01*
X0378226Y0024352D02*
X0311076Y0024352D01*
X0310697Y0023353D02*
X0379225Y0023353D01*
X0380223Y0022355D02*
X0310089Y0022355D01*
X0308920Y0021356D02*
X0569421Y0021356D01*
X0569008Y0022355D02*
X0491871Y0022355D01*
X0492870Y0023353D02*
X0568594Y0023353D01*
X0568504Y0024352D02*
X0493868Y0024352D01*
X0494867Y0025350D02*
X0510621Y0025350D01*
X0510670Y0025301D02*
X0511873Y0024803D01*
X0513174Y0024803D01*
X0514377Y0025301D01*
X0515297Y0026222D01*
X0515795Y0027424D01*
X0515795Y0028726D01*
X0515297Y0029928D01*
X0514377Y0030848D01*
X0513174Y0031346D01*
X0511873Y0031346D01*
X0510670Y0030848D01*
X0509750Y0029928D01*
X0509252Y0028726D01*
X0509252Y0027424D01*
X0509750Y0026222D01*
X0510670Y0025301D01*
X0509697Y0026349D02*
X0495865Y0026349D01*
X0496864Y0027347D02*
X0509284Y0027347D01*
X0509252Y0028346D02*
X0497862Y0028346D01*
X0498861Y0029344D02*
X0509508Y0029344D01*
X0510165Y0030343D02*
X0499859Y0030343D01*
X0500858Y0031341D02*
X0511860Y0031341D01*
X0513187Y0031341D02*
X0529183Y0031341D01*
X0529196Y0031346D02*
X0527993Y0030848D01*
X0527073Y0029928D01*
X0526575Y0028726D01*
X0526575Y0027424D01*
X0527073Y0026222D01*
X0527993Y0025301D01*
X0529196Y0024803D01*
X0530497Y0024803D01*
X0531700Y0025301D01*
X0532620Y0026222D01*
X0533118Y0027424D01*
X0533118Y0028726D01*
X0532620Y0029928D01*
X0531700Y0030848D01*
X0530497Y0031346D01*
X0529196Y0031346D01*
X0530510Y0031341D02*
X0571493Y0031341D01*
X0570494Y0030343D02*
X0532205Y0030343D01*
X0532862Y0029344D02*
X0569610Y0029344D01*
X0569197Y0028346D02*
X0533118Y0028346D01*
X0533086Y0027347D02*
X0568783Y0027347D01*
X0568504Y0026349D02*
X0532673Y0026349D01*
X0531749Y0025350D02*
X0568504Y0025350D01*
X0580360Y0018361D02*
X0588711Y0018361D01*
X0589287Y0019359D02*
X0581570Y0019359D01*
X0582568Y0020358D02*
X0589651Y0020358D01*
X0589919Y0021356D02*
X0583185Y0021356D01*
X0583599Y0022355D02*
X0590186Y0022355D01*
X0590435Y0023353D02*
X0584012Y0023353D01*
X0584102Y0024352D02*
X0590501Y0024352D01*
X0590551Y0025350D02*
X0584102Y0025350D01*
X0584102Y0026349D02*
X0590551Y0026349D01*
X0590551Y0027347D02*
X0583823Y0027347D01*
X0583410Y0028346D02*
X0590551Y0028346D01*
X0590551Y0029344D02*
X0582996Y0029344D01*
X0582112Y0030343D02*
X0590551Y0030343D01*
X0590551Y0031341D02*
X0581114Y0031341D01*
X0579258Y0032340D02*
X0590551Y0032340D01*
X0590551Y0033338D02*
X0502855Y0033338D01*
X0501856Y0032340D02*
X0573348Y0032340D01*
X0590551Y0034337D02*
X0503853Y0034337D01*
X0504627Y0035335D02*
X0590551Y0035335D01*
X0590551Y0036334D02*
X0505000Y0036334D01*
X0505000Y0037332D02*
X0590551Y0037332D01*
X0590551Y0038331D02*
X0505000Y0038331D01*
X0505000Y0039329D02*
X0590551Y0039329D01*
X0590551Y0040328D02*
X0505000Y0040328D01*
X0505000Y0041326D02*
X0590551Y0041326D01*
X0590551Y0042325D02*
X0505000Y0042325D01*
X0505000Y0043323D02*
X0590551Y0043323D01*
X0590551Y0044322D02*
X0505000Y0044322D01*
X0505000Y0045320D02*
X0590551Y0045320D01*
X0590551Y0046319D02*
X0505000Y0046319D01*
X0505000Y0047317D02*
X0590551Y0047317D01*
X0590551Y0048316D02*
X0505000Y0048316D01*
X0505000Y0049314D02*
X0590551Y0049314D01*
X0590551Y0050313D02*
X0505000Y0050313D01*
X0505000Y0051311D02*
X0590551Y0051311D01*
X0590551Y0052310D02*
X0505000Y0052310D01*
X0505000Y0053309D02*
X0590551Y0053309D01*
X0590551Y0054307D02*
X0505000Y0054307D01*
X0505000Y0055306D02*
X0590551Y0055306D01*
X0590551Y0056304D02*
X0505324Y0056304D01*
X0505698Y0057303D02*
X0590551Y0057303D01*
X0590551Y0058301D02*
X0505698Y0058301D01*
X0505367Y0059300D02*
X0590551Y0059300D01*
X0590551Y0060298D02*
X0505698Y0060298D01*
X0505698Y0061297D02*
X0590551Y0061297D01*
X0590551Y0062295D02*
X0504882Y0062295D01*
X0501500Y0059571D02*
X0500516Y0060555D01*
X0499102Y0062295D02*
X0419204Y0062295D01*
X0418206Y0063294D02*
X0590551Y0063294D01*
X0590551Y0064292D02*
X0417207Y0064292D01*
X0416209Y0065291D02*
X0590551Y0065291D01*
X0590551Y0066289D02*
X0210534Y0066289D01*
X0210831Y0065992D02*
X0210101Y0066722D01*
X0208253Y0066722D01*
X0206947Y0065416D01*
X0206947Y0063568D01*
X0208253Y0062262D01*
X0210101Y0062262D01*
X0210831Y0062992D01*
X0414264Y0062992D01*
X0419546Y0057711D01*
X0419546Y0056679D01*
X0420852Y0055372D01*
X0422699Y0055372D01*
X0424005Y0056679D01*
X0424005Y0058526D01*
X0422699Y0059832D01*
X0421667Y0059832D01*
X0415507Y0065992D01*
X0210831Y0065992D01*
X0209177Y0064492D02*
X0414886Y0064492D01*
X0421776Y0057602D01*
X0423232Y0059300D02*
X0498000Y0059300D01*
X0498013Y0060298D02*
X0421201Y0060298D01*
X0420203Y0061297D02*
X0498286Y0061297D01*
X0498000Y0058301D02*
X0424005Y0058301D01*
X0424005Y0057303D02*
X0498000Y0057303D01*
X0498000Y0056304D02*
X0423631Y0056304D01*
X0419920Y0056304D02*
X0003000Y0056304D01*
X0003000Y0055306D02*
X0498000Y0055306D01*
X0498000Y0054307D02*
X0003000Y0054307D01*
X0003000Y0053309D02*
X0498000Y0053309D01*
X0498000Y0052310D02*
X0003000Y0052310D01*
X0003000Y0051311D02*
X0498000Y0051311D01*
X0498000Y0050313D02*
X0003000Y0050313D01*
X0003000Y0049314D02*
X0498000Y0049314D01*
X0498000Y0048316D02*
X0003000Y0048316D01*
X0003000Y0047317D02*
X0476105Y0047317D01*
X0475356Y0047007D02*
X0474103Y0045755D01*
X0473425Y0044118D01*
X0473425Y0042347D01*
X0474103Y0040710D01*
X0475356Y0039457D01*
X0476992Y0038780D01*
X0478764Y0038780D01*
X0480400Y0039457D01*
X0481653Y0040710D01*
X0482331Y0042347D01*
X0482331Y0044118D01*
X0481653Y0045755D01*
X0480400Y0047007D01*
X0478764Y0047685D01*
X0476992Y0047685D01*
X0475356Y0047007D01*
X0474667Y0046319D02*
X0003000Y0046319D01*
X0003000Y0045320D02*
X0473923Y0045320D01*
X0473510Y0044322D02*
X0003000Y0044322D01*
X0003000Y0043323D02*
X0473425Y0043323D01*
X0473434Y0042325D02*
X0003000Y0042325D01*
X0003000Y0041326D02*
X0473848Y0041326D01*
X0474485Y0040328D02*
X0003000Y0040328D01*
X0003000Y0039329D02*
X0475665Y0039329D01*
X0480091Y0039329D02*
X0498000Y0039329D01*
X0498000Y0040328D02*
X0481271Y0040328D01*
X0481908Y0041326D02*
X0498000Y0041326D01*
X0498000Y0042325D02*
X0482322Y0042325D01*
X0482331Y0043323D02*
X0498000Y0043323D01*
X0498000Y0044322D02*
X0482246Y0044322D01*
X0481833Y0045320D02*
X0498000Y0045320D01*
X0498000Y0046319D02*
X0481088Y0046319D01*
X0479651Y0047317D02*
X0498000Y0047317D01*
X0497948Y0038331D02*
X0373582Y0038331D01*
X0375145Y0037332D02*
X0496950Y0037332D01*
X0495951Y0036334D02*
X0376143Y0036334D01*
X0377142Y0035335D02*
X0494952Y0035335D01*
X0493954Y0034337D02*
X0378140Y0034337D01*
X0379139Y0033338D02*
X0492955Y0033338D01*
X0491957Y0032340D02*
X0380138Y0032340D01*
X0380437Y0030043D02*
X0380437Y0026106D01*
X0415870Y0025122D01*
X0383133Y0029344D02*
X0488961Y0029344D01*
X0489960Y0030343D02*
X0382667Y0030343D01*
X0382293Y0031341D02*
X0490958Y0031341D01*
X0514882Y0030343D02*
X0527488Y0030343D01*
X0526831Y0029344D02*
X0515539Y0029344D01*
X0515795Y0028346D02*
X0526575Y0028346D01*
X0526607Y0027347D02*
X0515763Y0027347D01*
X0515350Y0026349D02*
X0527020Y0026349D01*
X0527944Y0025350D02*
X0514426Y0025350D01*
X0475267Y0019359D02*
X0022515Y0019359D01*
X0021305Y0018361D02*
X0474268Y0018361D01*
X0473758Y0017362D02*
X0018894Y0017362D01*
X0015602Y0017362D02*
X0005417Y0017362D01*
X0004840Y0018361D02*
X0013191Y0018361D01*
X0011981Y0019359D02*
X0004264Y0019359D01*
X0003900Y0020358D02*
X0010983Y0020358D01*
X0010366Y0021356D02*
X0003633Y0021356D01*
X0003365Y0022355D02*
X0009952Y0022355D01*
X0009539Y0023353D02*
X0003116Y0023353D01*
X0003050Y0024352D02*
X0009449Y0024352D01*
X0009449Y0025350D02*
X0003000Y0025350D01*
X0003000Y0026349D02*
X0009449Y0026349D01*
X0009728Y0027347D02*
X0003000Y0027347D01*
X0003000Y0028346D02*
X0010142Y0028346D01*
X0010555Y0029344D02*
X0003000Y0029344D01*
X0003000Y0030343D02*
X0011439Y0030343D01*
X0012437Y0031341D02*
X0003000Y0031341D01*
X0003000Y0032340D02*
X0014293Y0032340D01*
X0020203Y0032340D02*
X0216366Y0032340D01*
X0215368Y0031341D02*
X0022059Y0031341D01*
X0023057Y0030343D02*
X0214369Y0030343D01*
X0213371Y0029344D02*
X0118995Y0029344D01*
X0116289Y0029344D02*
X0023941Y0029344D01*
X0024355Y0028346D02*
X0115347Y0028346D01*
X0115042Y0027347D02*
X0024768Y0027347D01*
X0025047Y0026349D02*
X0115042Y0026349D01*
X0115042Y0025350D02*
X0025047Y0025350D01*
X0025047Y0024352D02*
X0115042Y0024352D01*
X0115152Y0023353D02*
X0024957Y0023353D01*
X0024544Y0022355D02*
X0115748Y0022355D01*
X0217365Y0033338D02*
X0003000Y0033338D01*
X0003000Y0034337D02*
X0218363Y0034337D01*
X0219362Y0035335D02*
X0003000Y0035335D01*
X0003000Y0036334D02*
X0220360Y0036334D01*
X0221359Y0037332D02*
X0003000Y0037332D01*
X0003000Y0038331D02*
X0222922Y0038331D01*
X0225267Y0031341D02*
X0371237Y0031341D01*
X0372235Y0030343D02*
X0224269Y0030343D01*
X0286291Y0023353D02*
X0287260Y0023353D01*
X0287260Y0022355D02*
X0286291Y0022355D01*
X0286291Y0021356D02*
X0287260Y0021356D01*
X0289759Y0021356D02*
X0294631Y0021356D01*
X0293462Y0022355D02*
X0290698Y0022355D01*
X0291248Y0023353D02*
X0292854Y0023353D01*
X0292476Y0024352D02*
X0291513Y0024352D01*
X0300089Y0022355D02*
X0303462Y0022355D01*
X0302854Y0023353D02*
X0300697Y0023353D01*
X0301076Y0024352D02*
X0302476Y0024352D01*
X0302476Y0025350D02*
X0301076Y0025350D01*
X0300922Y0026349D02*
X0302629Y0026349D01*
X0303043Y0027347D02*
X0300508Y0027347D01*
X0299633Y0028346D02*
X0303918Y0028346D01*
X0304631Y0021356D02*
X0298920Y0021356D01*
X0418956Y0058301D02*
X0003000Y0058301D01*
X0003000Y0057303D02*
X0419546Y0057303D01*
X0417957Y0059300D02*
X0003000Y0059300D01*
X0003000Y0060298D02*
X0416959Y0060298D01*
X0415960Y0061297D02*
X0003000Y0061297D01*
X0003000Y0062295D02*
X0208221Y0062295D01*
X0207222Y0063294D02*
X0003000Y0063294D01*
X0003000Y0064292D02*
X0206947Y0064292D01*
X0206947Y0065291D02*
X0003000Y0065291D01*
X0003000Y0066289D02*
X0207821Y0066289D01*
X0210134Y0062295D02*
X0414962Y0062295D01*
X0516987Y0080301D02*
X0518293Y0078994D01*
X0518901Y0078994D01*
X0521424Y0076472D01*
X0524753Y0076472D01*
X0525183Y0076042D01*
X0527030Y0076042D01*
X0528336Y0077348D01*
X0528336Y0079195D01*
X0527030Y0080502D01*
X0525183Y0080502D01*
X0524753Y0080072D01*
X0522915Y0080072D01*
X0521446Y0081540D01*
X0521446Y0082148D01*
X0520140Y0083454D01*
X0518293Y0083454D01*
X0516987Y0082148D01*
X0516987Y0080301D01*
X0517019Y0080268D02*
X0146703Y0080268D01*
X0145705Y0081267D02*
X0516987Y0081267D01*
X0517104Y0082265D02*
X0144706Y0082265D01*
X0143708Y0083264D02*
X0518102Y0083264D01*
X0520331Y0083264D02*
X0572151Y0083264D01*
X0572003Y0082906D02*
X0572003Y0081196D01*
X0572658Y0079615D01*
X0573867Y0078406D01*
X0575448Y0077751D01*
X0577158Y0077751D01*
X0578739Y0078406D01*
X0579948Y0079615D01*
X0580603Y0081196D01*
X0580603Y0082906D01*
X0579948Y0084487D01*
X0578739Y0085697D01*
X0577158Y0086351D01*
X0575448Y0086351D01*
X0573867Y0085697D01*
X0572658Y0084487D01*
X0572003Y0082906D01*
X0572003Y0082265D02*
X0521329Y0082265D01*
X0521720Y0081267D02*
X0572003Y0081267D01*
X0572387Y0080268D02*
X0527263Y0080268D01*
X0528262Y0079270D02*
X0573003Y0079270D01*
X0574192Y0078271D02*
X0528336Y0078271D01*
X0528261Y0077273D02*
X0590551Y0077273D01*
X0590551Y0078271D02*
X0578414Y0078271D01*
X0579603Y0079270D02*
X0590551Y0079270D01*
X0590551Y0080268D02*
X0580219Y0080268D01*
X0580603Y0081267D02*
X0590551Y0081267D01*
X0590551Y0082265D02*
X0580603Y0082265D01*
X0580455Y0083264D02*
X0590551Y0083264D01*
X0590551Y0084262D02*
X0580042Y0084262D01*
X0579175Y0085261D02*
X0590551Y0085261D01*
X0590551Y0086259D02*
X0577380Y0086259D01*
X0577158Y0087751D02*
X0578739Y0088406D01*
X0579948Y0089615D01*
X0580603Y0091196D01*
X0580603Y0092906D01*
X0579948Y0094487D01*
X0578739Y0095697D01*
X0577158Y0096351D01*
X0575448Y0096351D01*
X0573867Y0095697D01*
X0572658Y0094487D01*
X0572003Y0092906D01*
X0572003Y0091196D01*
X0572658Y0089615D01*
X0573867Y0088406D01*
X0575448Y0087751D01*
X0577158Y0087751D01*
X0578378Y0088256D02*
X0590551Y0088256D01*
X0590551Y0087258D02*
X0521514Y0087258D01*
X0521124Y0086869D02*
X0522431Y0088175D01*
X0522431Y0090022D01*
X0522001Y0090452D01*
X0522001Y0103493D01*
X0522431Y0103923D01*
X0522431Y0105770D01*
X0521124Y0107076D01*
X0519277Y0107076D01*
X0517971Y0105770D01*
X0517971Y0103923D01*
X0518401Y0103493D01*
X0518401Y0090452D01*
X0517971Y0090022D01*
X0517971Y0088175D01*
X0519277Y0086869D01*
X0521124Y0086869D01*
X0522431Y0088256D02*
X0574228Y0088256D01*
X0573018Y0089255D02*
X0522431Y0089255D01*
X0522199Y0090253D02*
X0572394Y0090253D01*
X0572003Y0091252D02*
X0522001Y0091252D01*
X0522001Y0092250D02*
X0572003Y0092250D01*
X0572145Y0093249D02*
X0522001Y0093249D01*
X0522001Y0094247D02*
X0572559Y0094247D01*
X0573417Y0095246D02*
X0522001Y0095246D01*
X0522001Y0096245D02*
X0575190Y0096245D01*
X0575448Y0097751D02*
X0577158Y0097751D01*
X0578739Y0098406D01*
X0579948Y0099615D01*
X0580603Y0101196D01*
X0580603Y0102906D01*
X0579948Y0104487D01*
X0578739Y0105697D01*
X0577158Y0106351D01*
X0575448Y0106351D01*
X0573867Y0105697D01*
X0572658Y0104487D01*
X0572003Y0102906D01*
X0572003Y0101196D01*
X0572658Y0099615D01*
X0573867Y0098406D01*
X0575448Y0097751D01*
X0574264Y0098242D02*
X0522001Y0098242D01*
X0522001Y0099240D02*
X0573033Y0099240D01*
X0572400Y0100239D02*
X0522001Y0100239D01*
X0522001Y0101237D02*
X0572003Y0101237D01*
X0572003Y0102236D02*
X0522001Y0102236D01*
X0522001Y0103234D02*
X0572139Y0103234D01*
X0572552Y0104233D02*
X0522431Y0104233D01*
X0522431Y0105231D02*
X0573402Y0105231D01*
X0575154Y0106230D02*
X0544423Y0106230D01*
X0545068Y0106876D02*
X0543762Y0105569D01*
X0542730Y0105569D01*
X0542476Y0105315D01*
X0531390Y0105315D01*
X0531136Y0105569D01*
X0530104Y0105569D01*
X0528798Y0106876D01*
X0528798Y0108723D01*
X0530104Y0110029D01*
X0531951Y0110029D01*
X0533257Y0108723D01*
X0533257Y0108315D01*
X0540609Y0108315D01*
X0540609Y0108723D01*
X0541915Y0110029D01*
X0543762Y0110029D01*
X0545068Y0108723D01*
X0545068Y0106876D01*
X0545068Y0107228D02*
X0590551Y0107228D01*
X0590551Y0106230D02*
X0577452Y0106230D01*
X0577427Y0107369D02*
X0578146Y0107603D01*
X0578819Y0107946D01*
X0579430Y0108390D01*
X0579964Y0108924D01*
X0580408Y0109535D01*
X0580751Y0110209D01*
X0580985Y0110927D01*
X0581086Y0111567D01*
X0576787Y0111567D01*
X0576787Y0107268D01*
X0577427Y0107369D01*
X0576787Y0108227D02*
X0575819Y0108227D01*
X0575819Y0107268D02*
X0575179Y0107369D01*
X0574461Y0107603D01*
X0573787Y0107946D01*
X0573176Y0108390D01*
X0572642Y0108924D01*
X0572198Y0109535D01*
X0571855Y0110209D01*
X0571621Y0110927D01*
X0571520Y0111567D01*
X0575819Y0111567D01*
X0576787Y0111567D01*
X0576787Y0112535D01*
X0581086Y0112535D01*
X0580985Y0113175D01*
X0580751Y0113894D01*
X0580408Y0114567D01*
X0579964Y0115178D01*
X0579430Y0115712D01*
X0578819Y0116156D01*
X0578146Y0116500D01*
X0577427Y0116733D01*
X0576787Y0116834D01*
X0576787Y0112536D01*
X0575819Y0112536D01*
X0575819Y0116834D01*
X0575179Y0116733D01*
X0574461Y0116500D01*
X0573787Y0116156D01*
X0573176Y0115712D01*
X0572642Y0115178D01*
X0572198Y0114567D01*
X0571855Y0113894D01*
X0571621Y0113175D01*
X0571520Y0112535D01*
X0575819Y0112535D01*
X0575819Y0111567D01*
X0575819Y0107268D01*
X0575819Y0109225D02*
X0576787Y0109225D01*
X0576787Y0110224D02*
X0575819Y0110224D01*
X0575819Y0111222D02*
X0576787Y0111222D01*
X0576787Y0112221D02*
X0590551Y0112221D01*
X0590551Y0113219D02*
X0580971Y0113219D01*
X0580586Y0114218D02*
X0590551Y0114218D01*
X0590551Y0115216D02*
X0579926Y0115216D01*
X0578705Y0116215D02*
X0590551Y0116215D01*
X0590551Y0117213D02*
X0384005Y0117213D01*
X0384005Y0116215D02*
X0573902Y0116215D01*
X0572680Y0115216D02*
X0384005Y0115216D01*
X0384005Y0114218D02*
X0456537Y0114218D01*
X0455963Y0113644D02*
X0455963Y0111797D01*
X0457269Y0110491D01*
X0459117Y0110491D01*
X0459693Y0111067D01*
X0466430Y0104331D01*
X0472335Y0104331D01*
X0472780Y0103886D01*
X0472695Y0103802D01*
X0472695Y0101954D01*
X0474002Y0100648D01*
X0475849Y0100648D01*
X0477155Y0101954D01*
X0477155Y0103802D01*
X0475849Y0105108D01*
X0475801Y0105108D01*
X0474457Y0106452D01*
X0473578Y0107331D01*
X0467673Y0107331D01*
X0461661Y0113342D01*
X0460783Y0114220D01*
X0459846Y0114220D01*
X0459117Y0114950D01*
X0457269Y0114950D01*
X0455963Y0113644D01*
X0455963Y0113219D02*
X0384005Y0113219D01*
X0384005Y0112306D02*
X0384005Y0120025D01*
X0384635Y0120655D01*
X0384635Y0122502D01*
X0383329Y0123809D01*
X0381482Y0123809D01*
X0380176Y0122502D01*
X0380176Y0120655D01*
X0380806Y0120025D01*
X0380806Y0112306D01*
X0380176Y0111676D01*
X0380176Y0109828D01*
X0381482Y0108522D01*
X0383329Y0108522D01*
X0384635Y0109828D01*
X0384635Y0111676D01*
X0384005Y0112306D01*
X0384090Y0112221D02*
X0455963Y0112221D01*
X0456538Y0111222D02*
X0384635Y0111222D01*
X0384635Y0110224D02*
X0460537Y0110224D01*
X0461535Y0109225D02*
X0384032Y0109225D01*
X0380779Y0109225D02*
X0117747Y0109225D01*
X0118745Y0108227D02*
X0462534Y0108227D01*
X0463532Y0107228D02*
X0119744Y0107228D01*
X0120742Y0106230D02*
X0464531Y0106230D01*
X0465529Y0105231D02*
X0121741Y0105231D01*
X0122739Y0104233D02*
X0472433Y0104233D01*
X0472695Y0103234D02*
X0123738Y0103234D01*
X0124736Y0102236D02*
X0472695Y0102236D01*
X0473412Y0101237D02*
X0125735Y0101237D01*
X0126733Y0100239D02*
X0518401Y0100239D01*
X0518401Y0101237D02*
X0476438Y0101237D01*
X0477155Y0102236D02*
X0518401Y0102236D01*
X0518401Y0103234D02*
X0477155Y0103234D01*
X0476724Y0104233D02*
X0517971Y0104233D01*
X0517971Y0105231D02*
X0475678Y0105231D01*
X0474679Y0106230D02*
X0518430Y0106230D01*
X0521971Y0106230D02*
X0529444Y0106230D01*
X0528798Y0107228D02*
X0473681Y0107228D01*
X0472957Y0105831D02*
X0467051Y0105831D01*
X0460161Y0112720D01*
X0458193Y0112720D01*
X0460785Y0114218D02*
X0572020Y0114218D01*
X0571636Y0113219D02*
X0461784Y0113219D01*
X0462783Y0112221D02*
X0575819Y0112221D01*
X0575819Y0113219D02*
X0576787Y0113219D01*
X0576787Y0114218D02*
X0575819Y0114218D01*
X0575819Y0115216D02*
X0576787Y0115216D01*
X0576787Y0116215D02*
X0575819Y0116215D01*
X0590551Y0118212D02*
X0384005Y0118212D01*
X0384005Y0119210D02*
X0590551Y0119210D01*
X0590551Y0120209D02*
X0384189Y0120209D01*
X0384635Y0121207D02*
X0590551Y0121207D01*
X0590551Y0122206D02*
X0384635Y0122206D01*
X0383934Y0123204D02*
X0590551Y0123204D01*
X0590551Y0124203D02*
X0365935Y0124203D01*
X0365935Y0124471D02*
X0364628Y0125777D01*
X0362781Y0125777D01*
X0362051Y0125047D01*
X0354225Y0125047D01*
X0349050Y0119872D01*
X0348017Y0119872D01*
X0346711Y0118565D01*
X0346711Y0116718D01*
X0348017Y0115412D01*
X0349865Y0115412D01*
X0351171Y0116718D01*
X0351171Y0117750D01*
X0355468Y0122047D01*
X0362051Y0122047D01*
X0362781Y0121317D01*
X0364628Y0121317D01*
X0365935Y0122624D01*
X0365935Y0124471D01*
X0365204Y0125201D02*
X0486850Y0125201D01*
X0486475Y0125576D02*
X0486475Y0127424D01*
X0487781Y0128730D01*
X0488813Y0128730D01*
X0494973Y0134890D01*
X0501815Y0134890D01*
X0502545Y0135620D01*
X0504392Y0135620D01*
X0505698Y0134313D01*
X0505698Y0132466D01*
X0504392Y0131160D01*
X0502545Y0131160D01*
X0501815Y0131890D01*
X0496216Y0131890D01*
X0490935Y0126609D01*
X0490935Y0125576D01*
X0489628Y0124270D01*
X0487781Y0124270D01*
X0486475Y0125576D01*
X0486475Y0126200D02*
X0087583Y0126200D01*
X0086584Y0127198D02*
X0486475Y0127198D01*
X0487248Y0128197D02*
X0085586Y0128197D01*
X0084587Y0129195D02*
X0489279Y0129195D01*
X0490277Y0130194D02*
X0084439Y0130194D01*
X0084439Y0130376D02*
X0083132Y0131683D01*
X0081285Y0131683D01*
X0079979Y0130376D01*
X0079979Y0128529D01*
X0081285Y0127223D01*
X0082317Y0127223D01*
X0090551Y0118989D01*
X0091430Y0118110D01*
X0104619Y0118110D01*
X0149016Y0073713D01*
X0149894Y0072835D01*
X0157327Y0072835D01*
X0158057Y0072105D01*
X0159904Y0072105D01*
X0161210Y0073411D01*
X0161210Y0075258D01*
X0159904Y0076565D01*
X0158057Y0076565D01*
X0157327Y0075835D01*
X0151137Y0075835D01*
X0105861Y0121110D01*
X0092673Y0121110D01*
X0084439Y0129344D01*
X0084439Y0130376D01*
X0083623Y0131192D02*
X0491276Y0131192D01*
X0492274Y0132191D02*
X0003000Y0132191D01*
X0003000Y0133189D02*
X0493273Y0133189D01*
X0494271Y0134188D02*
X0003000Y0134188D01*
X0003000Y0135186D02*
X0502112Y0135186D01*
X0503469Y0133390D02*
X0495594Y0133390D01*
X0488705Y0126500D01*
X0490935Y0126200D02*
X0590551Y0126200D01*
X0590551Y0127198D02*
X0491524Y0127198D01*
X0492523Y0128197D02*
X0590551Y0128197D01*
X0590551Y0129195D02*
X0493521Y0129195D01*
X0494520Y0130194D02*
X0533038Y0130194D01*
X0533057Y0130176D02*
X0534904Y0130176D01*
X0536210Y0131482D01*
X0536210Y0133329D01*
X0534904Y0134635D01*
X0533057Y0134635D01*
X0532427Y0134005D01*
X0516927Y0134005D01*
X0511958Y0138974D01*
X0511021Y0139911D01*
X0489367Y0139911D01*
X0481092Y0148186D01*
X0481092Y0149077D01*
X0479786Y0150383D01*
X0477939Y0150383D01*
X0476632Y0149077D01*
X0476632Y0147230D01*
X0477939Y0145924D01*
X0478829Y0145924D01*
X0488042Y0136711D01*
X0509696Y0136711D01*
X0515601Y0130806D01*
X0532427Y0130806D01*
X0533057Y0130176D01*
X0534922Y0130194D02*
X0590551Y0130194D01*
X0590551Y0131192D02*
X0535921Y0131192D01*
X0536210Y0132191D02*
X0590551Y0132191D01*
X0590551Y0133189D02*
X0536210Y0133189D01*
X0535351Y0134188D02*
X0590551Y0134188D01*
X0590551Y0135186D02*
X0515746Y0135186D01*
X0516744Y0134188D02*
X0532609Y0134188D01*
X0515214Y0131192D02*
X0504425Y0131192D01*
X0505423Y0132191D02*
X0514216Y0132191D01*
X0513217Y0133189D02*
X0505698Y0133189D01*
X0505698Y0134188D02*
X0512219Y0134188D01*
X0511220Y0135186D02*
X0504825Y0135186D01*
X0510222Y0136185D02*
X0415713Y0136185D01*
X0416711Y0137183D02*
X0487570Y0137183D01*
X0486571Y0138182D02*
X0417710Y0138182D01*
X0418708Y0139180D02*
X0485573Y0139180D01*
X0484574Y0140179D02*
X0418823Y0140179D01*
X0418823Y0141178D02*
X0483575Y0141178D01*
X0482577Y0142176D02*
X0418823Y0142176D01*
X0418823Y0143175D02*
X0481578Y0143175D01*
X0480580Y0144173D02*
X0418823Y0144173D01*
X0418823Y0145172D02*
X0479581Y0145172D01*
X0477692Y0146170D02*
X0418823Y0146170D01*
X0418823Y0147169D02*
X0476694Y0147169D01*
X0476632Y0148167D02*
X0418823Y0148167D01*
X0418823Y0149166D02*
X0476721Y0149166D01*
X0477719Y0150164D02*
X0418823Y0150164D01*
X0418823Y0151163D02*
X0590551Y0151163D01*
X0590551Y0152161D02*
X0580221Y0152161D01*
X0580721Y0152368D02*
X0577855Y0151181D01*
X0574752Y0151181D01*
X0571885Y0152368D01*
X0569691Y0154562D01*
X0568504Y0157429D01*
X0568504Y0160532D01*
X0569691Y0163398D01*
X0571885Y0165592D01*
X0574752Y0166780D01*
X0577855Y0166780D01*
X0580721Y0165592D01*
X0582915Y0163398D01*
X0584102Y0160532D01*
X0584102Y0157429D01*
X0582915Y0154562D01*
X0580721Y0152368D01*
X0581512Y0153160D02*
X0590551Y0153160D01*
X0590551Y0154158D02*
X0582511Y0154158D01*
X0583161Y0155157D02*
X0590551Y0155157D01*
X0590551Y0156155D02*
X0583575Y0156155D01*
X0583988Y0157154D02*
X0590551Y0157154D01*
X0590551Y0158152D02*
X0584102Y0158152D01*
X0584102Y0159151D02*
X0590540Y0159151D01*
X0590475Y0160149D02*
X0584102Y0160149D01*
X0583847Y0161148D02*
X0590347Y0161148D01*
X0590079Y0162146D02*
X0583434Y0162146D01*
X0583020Y0163145D02*
X0589812Y0163145D01*
X0589544Y0164143D02*
X0582170Y0164143D01*
X0581171Y0165142D02*
X0589057Y0165142D01*
X0588481Y0166140D02*
X0579398Y0166140D01*
X0573209Y0166140D02*
X0418823Y0166140D01*
X0418823Y0165142D02*
X0571435Y0165142D01*
X0570436Y0164143D02*
X0418823Y0164143D01*
X0418823Y0163145D02*
X0569586Y0163145D01*
X0569173Y0162146D02*
X0418823Y0162146D01*
X0418823Y0161148D02*
X0568759Y0161148D01*
X0568504Y0160149D02*
X0418823Y0160149D01*
X0418823Y0159151D02*
X0568504Y0159151D01*
X0568504Y0158152D02*
X0418823Y0158152D01*
X0418823Y0157154D02*
X0568618Y0157154D01*
X0569032Y0156155D02*
X0418823Y0156155D01*
X0418823Y0155157D02*
X0569445Y0155157D01*
X0570096Y0154158D02*
X0418823Y0154158D01*
X0418823Y0153160D02*
X0571094Y0153160D01*
X0572386Y0152161D02*
X0418823Y0152161D01*
X0419107Y0167139D02*
X0587830Y0167139D01*
X0586831Y0168137D02*
X0420106Y0168137D01*
X0421104Y0169136D02*
X0585833Y0169136D01*
X0584834Y0170134D02*
X0422103Y0170134D01*
X0423101Y0171133D02*
X0583507Y0171133D01*
X0581777Y0172131D02*
X0424100Y0172131D01*
X0425098Y0173130D02*
X0577805Y0173130D01*
X0590551Y0150164D02*
X0480005Y0150164D01*
X0481004Y0149166D02*
X0590551Y0149166D01*
X0590551Y0148167D02*
X0481111Y0148167D01*
X0482110Y0147169D02*
X0590551Y0147169D01*
X0590551Y0146170D02*
X0483108Y0146170D01*
X0484107Y0145172D02*
X0590551Y0145172D01*
X0590551Y0144173D02*
X0485105Y0144173D01*
X0486104Y0143175D02*
X0590551Y0143175D01*
X0590551Y0142176D02*
X0487102Y0142176D01*
X0488101Y0141178D02*
X0590551Y0141178D01*
X0590551Y0140179D02*
X0489099Y0140179D01*
X0511752Y0139180D02*
X0590551Y0139180D01*
X0590551Y0138182D02*
X0512750Y0138182D01*
X0513749Y0137183D02*
X0590551Y0137183D01*
X0590551Y0136185D02*
X0514747Y0136185D01*
X0502512Y0131192D02*
X0495518Y0131192D01*
X0490560Y0125201D02*
X0590551Y0125201D01*
X0590551Y0111222D02*
X0581032Y0111222D01*
X0580756Y0110224D02*
X0590551Y0110224D01*
X0590551Y0109225D02*
X0580183Y0109225D01*
X0579205Y0108227D02*
X0590551Y0108227D01*
X0590551Y0105231D02*
X0579204Y0105231D01*
X0580054Y0104233D02*
X0590551Y0104233D01*
X0590551Y0103234D02*
X0580467Y0103234D01*
X0580603Y0102236D02*
X0590551Y0102236D01*
X0590551Y0101237D02*
X0580603Y0101237D01*
X0580207Y0100239D02*
X0590551Y0100239D01*
X0590551Y0099240D02*
X0579573Y0099240D01*
X0578342Y0098242D02*
X0590551Y0098242D01*
X0590551Y0097243D02*
X0522001Y0097243D01*
X0518401Y0097243D02*
X0129729Y0097243D01*
X0130727Y0096245D02*
X0518401Y0096245D01*
X0518401Y0095246D02*
X0131726Y0095246D01*
X0132724Y0094247D02*
X0518401Y0094247D01*
X0518401Y0093249D02*
X0133723Y0093249D01*
X0134721Y0092250D02*
X0518401Y0092250D01*
X0518401Y0091252D02*
X0135720Y0091252D01*
X0136718Y0090253D02*
X0518202Y0090253D01*
X0517971Y0089255D02*
X0137717Y0089255D01*
X0138715Y0088256D02*
X0517971Y0088256D01*
X0518888Y0087258D02*
X0139714Y0087258D01*
X0140712Y0086259D02*
X0575226Y0086259D01*
X0573432Y0085261D02*
X0141711Y0085261D01*
X0142709Y0084262D02*
X0572565Y0084262D01*
X0579588Y0089255D02*
X0590551Y0089255D01*
X0590551Y0090253D02*
X0580213Y0090253D01*
X0580603Y0091252D02*
X0590551Y0091252D01*
X0590551Y0092250D02*
X0580603Y0092250D01*
X0580461Y0093249D02*
X0590551Y0093249D01*
X0590551Y0094247D02*
X0580048Y0094247D01*
X0579189Y0095246D02*
X0590551Y0095246D01*
X0590551Y0096245D02*
X0577416Y0096245D01*
X0542839Y0107799D02*
X0541854Y0106815D01*
X0532012Y0106815D01*
X0531028Y0107799D01*
X0532755Y0109225D02*
X0541111Y0109225D01*
X0544566Y0109225D02*
X0572423Y0109225D01*
X0571850Y0110224D02*
X0464780Y0110224D01*
X0465778Y0109225D02*
X0529300Y0109225D01*
X0528798Y0108227D02*
X0466777Y0108227D01*
X0463781Y0111222D02*
X0571575Y0111222D01*
X0573401Y0108227D02*
X0545068Y0108227D01*
X0518401Y0099240D02*
X0127732Y0099240D01*
X0128730Y0098242D02*
X0518401Y0098242D01*
X0474925Y0102878D02*
X0474925Y0103862D01*
X0472957Y0105831D01*
X0518018Y0079270D02*
X0147702Y0079270D01*
X0148700Y0078271D02*
X0519624Y0078271D01*
X0520623Y0077273D02*
X0149699Y0077273D01*
X0150697Y0076274D02*
X0157766Y0076274D01*
X0158980Y0074335D02*
X0150516Y0074335D01*
X0105240Y0119610D01*
X0092051Y0119610D01*
X0082209Y0129453D01*
X0080795Y0131192D02*
X0003000Y0131192D01*
X0003000Y0130194D02*
X0079979Y0130194D01*
X0079979Y0129195D02*
X0003000Y0129195D01*
X0003000Y0128197D02*
X0080311Y0128197D01*
X0082342Y0127198D02*
X0003000Y0127198D01*
X0003000Y0126200D02*
X0083340Y0126200D01*
X0084339Y0125201D02*
X0003000Y0125201D01*
X0003000Y0124203D02*
X0085337Y0124203D01*
X0086336Y0123204D02*
X0003000Y0123204D01*
X0003000Y0122206D02*
X0087334Y0122206D01*
X0088333Y0121207D02*
X0003000Y0121207D01*
X0003000Y0120209D02*
X0089331Y0120209D01*
X0090330Y0119210D02*
X0003000Y0119210D01*
X0003000Y0118212D02*
X0091328Y0118212D01*
X0092575Y0121207D02*
X0350385Y0121207D01*
X0349387Y0120209D02*
X0106763Y0120209D01*
X0107761Y0119210D02*
X0347356Y0119210D01*
X0346711Y0118212D02*
X0108760Y0118212D01*
X0109758Y0117213D02*
X0346711Y0117213D01*
X0347214Y0116215D02*
X0110757Y0116215D01*
X0111755Y0115216D02*
X0380806Y0115216D01*
X0380806Y0114218D02*
X0112754Y0114218D01*
X0113753Y0113219D02*
X0380806Y0113219D01*
X0380721Y0112221D02*
X0114751Y0112221D01*
X0115750Y0111222D02*
X0380176Y0111222D01*
X0380176Y0110224D02*
X0116748Y0110224D01*
X0114502Y0108227D02*
X0003000Y0108227D01*
X0003000Y0109225D02*
X0113504Y0109225D01*
X0112505Y0110224D02*
X0003000Y0110224D01*
X0003000Y0111222D02*
X0111507Y0111222D01*
X0110508Y0112221D02*
X0003000Y0112221D01*
X0003000Y0113219D02*
X0109510Y0113219D01*
X0108511Y0114218D02*
X0003000Y0114218D01*
X0003000Y0115216D02*
X0107513Y0115216D01*
X0106514Y0116215D02*
X0003000Y0116215D01*
X0003000Y0117213D02*
X0105516Y0117213D01*
X0091577Y0122206D02*
X0351384Y0122206D01*
X0352382Y0123204D02*
X0090578Y0123204D01*
X0089580Y0124203D02*
X0353381Y0124203D01*
X0354846Y0123547D02*
X0348941Y0117642D01*
X0350668Y0116215D02*
X0380806Y0116215D01*
X0380806Y0117213D02*
X0351171Y0117213D01*
X0351632Y0118212D02*
X0380806Y0118212D01*
X0380806Y0119210D02*
X0352631Y0119210D01*
X0353629Y0120209D02*
X0380622Y0120209D01*
X0380176Y0121207D02*
X0354628Y0121207D01*
X0354846Y0123547D02*
X0363705Y0123547D01*
X0362205Y0125201D02*
X0088581Y0125201D01*
X0127599Y0139180D02*
X0003000Y0139180D01*
X0003000Y0138182D02*
X0128598Y0138182D01*
X0129596Y0137183D02*
X0003000Y0137183D01*
X0003000Y0136185D02*
X0130595Y0136185D01*
X0127484Y0140179D02*
X0003000Y0140179D01*
X0003000Y0141178D02*
X0127484Y0141178D01*
X0127484Y0142176D02*
X0003000Y0142176D01*
X0003000Y0143175D02*
X0127484Y0143175D01*
X0127484Y0144173D02*
X0003000Y0144173D01*
X0003000Y0145172D02*
X0127484Y0145172D01*
X0127484Y0146170D02*
X0003000Y0146170D01*
X0003000Y0147169D02*
X0127484Y0147169D01*
X0127484Y0148167D02*
X0003000Y0148167D01*
X0003000Y0149166D02*
X0127484Y0149166D01*
X0127484Y0150164D02*
X0003000Y0150164D01*
X0003000Y0151163D02*
X0127484Y0151163D01*
X0127484Y0152161D02*
X0021165Y0152161D01*
X0021666Y0152368D02*
X0018799Y0151181D01*
X0015697Y0151181D01*
X0012830Y0152368D01*
X0010636Y0154562D01*
X0009449Y0157429D01*
X0009449Y0160532D01*
X0010636Y0163398D01*
X0012830Y0165592D01*
X0015697Y0166780D01*
X0018799Y0166780D01*
X0021666Y0165592D01*
X0023860Y0163398D01*
X0025047Y0160532D01*
X0025047Y0157429D01*
X0023860Y0154562D01*
X0021666Y0152368D01*
X0022457Y0153160D02*
X0127484Y0153160D01*
X0127484Y0154158D02*
X0023456Y0154158D01*
X0024106Y0155157D02*
X0127484Y0155157D01*
X0127484Y0156155D02*
X0024520Y0156155D01*
X0024933Y0157154D02*
X0127484Y0157154D01*
X0127484Y0158152D02*
X0025047Y0158152D01*
X0025047Y0159151D02*
X0127484Y0159151D01*
X0127484Y0160149D02*
X0025047Y0160149D01*
X0024792Y0161148D02*
X0127484Y0161148D01*
X0127484Y0162146D02*
X0024378Y0162146D01*
X0023965Y0163145D02*
X0127484Y0163145D01*
X0127484Y0164143D02*
X0023115Y0164143D01*
X0022116Y0165142D02*
X0127484Y0165142D01*
X0127484Y0166140D02*
X0020343Y0166140D01*
X0014153Y0166140D02*
X0005070Y0166140D01*
X0004494Y0165142D02*
X0012380Y0165142D01*
X0011381Y0164143D02*
X0004007Y0164143D01*
X0003739Y0163145D02*
X0010531Y0163145D01*
X0010118Y0162146D02*
X0003472Y0162146D01*
X0003204Y0161148D02*
X0009704Y0161148D01*
X0009449Y0160149D02*
X0003077Y0160149D01*
X0003011Y0159151D02*
X0009449Y0159151D01*
X0009449Y0158152D02*
X0003000Y0158152D01*
X0003000Y0157154D02*
X0009563Y0157154D01*
X0009976Y0156155D02*
X0003000Y0156155D01*
X0003000Y0155157D02*
X0010390Y0155157D01*
X0011040Y0154158D02*
X0003000Y0154158D01*
X0003000Y0153160D02*
X0012039Y0153160D01*
X0013331Y0152161D02*
X0003000Y0152161D01*
X0005721Y0167139D02*
X0127200Y0167139D01*
X0126201Y0168137D02*
X0006720Y0168137D01*
X0007719Y0169136D02*
X0125203Y0169136D01*
X0124204Y0170134D02*
X0008717Y0170134D01*
X0010045Y0171133D02*
X0123206Y0171133D01*
X0122207Y0172131D02*
X0011774Y0172131D01*
X0015746Y0173130D02*
X0121209Y0173130D01*
X0115501Y0107228D02*
X0003000Y0107228D01*
X0003000Y0106230D02*
X0116499Y0106230D01*
X0117498Y0105231D02*
X0003000Y0105231D01*
X0003000Y0104233D02*
X0118496Y0104233D01*
X0119495Y0103234D02*
X0003000Y0103234D01*
X0003000Y0102236D02*
X0120493Y0102236D01*
X0121492Y0101237D02*
X0003000Y0101237D01*
X0003000Y0100239D02*
X0122491Y0100239D01*
X0123489Y0099240D02*
X0003000Y0099240D01*
X0003000Y0098242D02*
X0124488Y0098242D01*
X0125486Y0097243D02*
X0003000Y0097243D01*
X0003000Y0096245D02*
X0126485Y0096245D01*
X0127483Y0095246D02*
X0003000Y0095246D01*
X0003000Y0094247D02*
X0128482Y0094247D01*
X0129480Y0093249D02*
X0003000Y0093249D01*
X0003000Y0092250D02*
X0130479Y0092250D01*
X0131477Y0091252D02*
X0003000Y0091252D01*
X0003000Y0090253D02*
X0132476Y0090253D01*
X0133474Y0089255D02*
X0003000Y0089255D01*
X0003000Y0088256D02*
X0134473Y0088256D01*
X0135471Y0087258D02*
X0003000Y0087258D01*
X0003000Y0086259D02*
X0136470Y0086259D01*
X0137468Y0085261D02*
X0003000Y0085261D01*
X0003000Y0084262D02*
X0138467Y0084262D01*
X0139465Y0083264D02*
X0003000Y0083264D01*
X0003000Y0082265D02*
X0140464Y0082265D01*
X0141462Y0081267D02*
X0003000Y0081267D01*
X0003000Y0080268D02*
X0142461Y0080268D01*
X0143459Y0079270D02*
X0003000Y0079270D01*
X0003000Y0078271D02*
X0144458Y0078271D01*
X0145456Y0077273D02*
X0003000Y0077273D01*
X0003000Y0076274D02*
X0146455Y0076274D01*
X0147453Y0075276D02*
X0003000Y0075276D01*
X0003000Y0074277D02*
X0148452Y0074277D01*
X0149450Y0073279D02*
X0003000Y0073279D01*
X0003000Y0072280D02*
X0157881Y0072280D01*
X0160079Y0072280D02*
X0572003Y0072280D01*
X0572003Y0072906D02*
X0572003Y0071196D01*
X0572658Y0069615D01*
X0573867Y0068406D01*
X0575448Y0067751D01*
X0577158Y0067751D01*
X0578739Y0068406D01*
X0579948Y0069615D01*
X0580603Y0071196D01*
X0580603Y0072906D01*
X0579948Y0074487D01*
X0578739Y0075697D01*
X0577158Y0076351D01*
X0575448Y0076351D01*
X0573867Y0075697D01*
X0572658Y0074487D01*
X0572003Y0072906D01*
X0572157Y0073279D02*
X0161078Y0073279D01*
X0161210Y0074277D02*
X0572571Y0074277D01*
X0573447Y0075276D02*
X0161193Y0075276D01*
X0160194Y0076274D02*
X0524950Y0076274D01*
X0527263Y0076274D02*
X0575262Y0076274D01*
X0577344Y0076274D02*
X0590551Y0076274D01*
X0590551Y0075276D02*
X0579160Y0075276D01*
X0580035Y0074277D02*
X0590551Y0074277D01*
X0590551Y0073279D02*
X0580449Y0073279D01*
X0580603Y0072280D02*
X0590551Y0072280D01*
X0590551Y0071282D02*
X0580603Y0071282D01*
X0580225Y0070283D02*
X0590551Y0070283D01*
X0590551Y0069285D02*
X0579618Y0069285D01*
X0578450Y0068286D02*
X0590551Y0068286D01*
X0590551Y0067288D02*
X0003000Y0067288D01*
X0003000Y0068286D02*
X0574156Y0068286D01*
X0572989Y0069285D02*
X0003000Y0069285D01*
X0003000Y0070283D02*
X0572381Y0070283D01*
X0572003Y0071282D02*
X0003000Y0071282D01*
X0006321Y0016364D02*
X0473425Y0016364D01*
X0473425Y0015365D02*
X0007320Y0015365D01*
X0008318Y0014367D02*
X0473600Y0014367D01*
X0474013Y0013368D02*
X0009354Y0013368D01*
X0011084Y0012370D02*
X0474884Y0012370D01*
X0577949Y0017362D02*
X0588134Y0017362D01*
X0524949Y0080268D02*
X0522718Y0080268D01*
X0380877Y0123204D02*
X0365935Y0123204D01*
X0365517Y0122206D02*
X0380176Y0122206D01*
D13*
X0382406Y0121579D03*
X0363705Y0123547D03*
X0348941Y0117642D03*
X0382406Y0110752D03*
X0391264Y0103862D03*
X0407012Y0103862D03*
X0418823Y0107799D03*
X0430634Y0107799D03*
X0446382Y0107799D03*
X0450319Y0107799D03*
X0446382Y0103862D03*
X0466067Y0099925D03*
X0474925Y0102878D03*
X0491657Y0099925D03*
X0499531Y0106815D03*
X0513311Y0107799D03*
X0520201Y0104846D03*
X0525122Y0107799D03*
X0531028Y0107799D03*
X0542839Y0107799D03*
X0542839Y0113705D03*
X0542839Y0116657D03*
X0532996Y0120594D03*
X0532996Y0123547D03*
X0518232Y0127484D03*
X0513311Y0123547D03*
X0488705Y0126500D03*
X0487720Y0130437D03*
X0477878Y0127484D03*
X0466067Y0127484D03*
X0466067Y0131421D03*
X0477878Y0135358D03*
X0488705Y0142248D03*
X0497563Y0142248D03*
X0497563Y0148154D03*
X0481815Y0151106D03*
X0478862Y0148154D03*
X0497563Y0155043D03*
X0526106Y0155043D03*
X0526106Y0152091D03*
X0526106Y0149138D03*
X0526106Y0146185D03*
X0526106Y0143232D03*
X0526106Y0140280D03*
X0518232Y0136343D03*
X0533980Y0132406D03*
X0534965Y0140280D03*
X0544807Y0140280D03*
X0544807Y0143232D03*
X0544807Y0146185D03*
X0534965Y0146185D03*
X0534965Y0143232D03*
X0534965Y0149138D03*
X0534965Y0152091D03*
X0544807Y0152091D03*
X0544807Y0149138D03*
X0544807Y0155043D03*
X0534965Y0155043D03*
X0534965Y0157996D03*
X0534965Y0160949D03*
X0537917Y0160949D03*
X0541854Y0160949D03*
X0544807Y0160949D03*
X0544807Y0157996D03*
X0532012Y0160949D03*
X0529059Y0160949D03*
X0526106Y0160949D03*
X0526106Y0157996D03*
X0529059Y0166854D03*
X0536933Y0166854D03*
X0544807Y0166854D03*
X0552681Y0166854D03*
X0560555Y0166854D03*
X0560555Y0155043D03*
X0560555Y0143232D03*
X0572366Y0143232D03*
X0584177Y0143232D03*
X0584177Y0135358D03*
X0584177Y0127484D03*
X0584177Y0119610D03*
X0584177Y0111736D03*
X0584177Y0103862D03*
X0586146Y0095988D03*
X0568429Y0092051D03*
X0552681Y0092051D03*
X0536933Y0086146D03*
X0532996Y0080240D03*
X0526106Y0078272D03*
X0519217Y0081224D03*
X0503469Y0080240D03*
X0496579Y0078272D03*
X0490673Y0078272D03*
X0498547Y0086146D03*
X0505437Y0089098D03*
X0520201Y0089098D03*
X0531028Y0094020D03*
X0586146Y0088114D03*
X0586146Y0080240D03*
X0584177Y0072366D03*
X0584177Y0064492D03*
X0584177Y0056618D03*
X0584177Y0048744D03*
X0584177Y0040870D03*
X0572366Y0040870D03*
X0560555Y0040870D03*
X0531028Y0041854D03*
X0531028Y0037917D03*
X0536933Y0029059D03*
X0540870Y0029059D03*
X0540870Y0025122D03*
X0536933Y0025122D03*
X0552681Y0017248D03*
X0560555Y0017248D03*
X0560555Y0029059D03*
X0505437Y0029059D03*
X0501500Y0029059D03*
X0501500Y0025122D03*
X0505437Y0025122D03*
X0489689Y0016264D03*
X0466067Y0016264D03*
X0458193Y0016264D03*
X0450319Y0017248D03*
X0442445Y0017248D03*
X0434571Y0017248D03*
X0426697Y0017248D03*
X0418823Y0017248D03*
X0407012Y0017248D03*
X0399138Y0017248D03*
X0391264Y0017248D03*
X0383390Y0017248D03*
X0375516Y0017248D03*
X0367642Y0017248D03*
X0359768Y0017248D03*
X0351894Y0017248D03*
X0344020Y0017248D03*
X0336146Y0017248D03*
X0328272Y0017248D03*
X0320398Y0017248D03*
X0312524Y0017248D03*
X0304650Y0017248D03*
X0296776Y0017248D03*
X0288902Y0017248D03*
X0281028Y0017248D03*
X0273154Y0017248D03*
X0265280Y0017248D03*
X0257406Y0017248D03*
X0249531Y0017248D03*
X0241657Y0017248D03*
X0233783Y0017248D03*
X0225909Y0017248D03*
X0218035Y0017248D03*
X0210161Y0017248D03*
X0202287Y0017248D03*
X0194413Y0017248D03*
X0186539Y0017248D03*
X0174728Y0017248D03*
X0166854Y0017248D03*
X0158980Y0017248D03*
X0151106Y0017248D03*
X0143232Y0017248D03*
X0135358Y0017248D03*
X0127484Y0017248D03*
X0119610Y0017248D03*
X0111736Y0017248D03*
X0103862Y0017248D03*
X0095988Y0017248D03*
X0088114Y0017248D03*
X0080240Y0017248D03*
X0072366Y0017248D03*
X0064492Y0017248D03*
X0056618Y0017248D03*
X0048744Y0017248D03*
X0040870Y0017248D03*
X0032996Y0017248D03*
X0032996Y0029059D03*
X0048744Y0029059D03*
X0064492Y0029059D03*
X0080240Y0029059D03*
X0095988Y0029059D03*
X0117642Y0027091D03*
X0120594Y0027091D03*
X0120594Y0024138D03*
X0117642Y0024138D03*
X0135358Y0032012D03*
X0139295Y0032012D03*
X0151106Y0032012D03*
X0155043Y0032012D03*
X0163902Y0024138D03*
X0166854Y0024138D03*
X0169807Y0024138D03*
X0193429Y0032012D03*
X0198350Y0038902D03*
X0208193Y0038902D03*
X0218035Y0040870D03*
X0233783Y0040870D03*
X0249531Y0040870D03*
X0265280Y0040870D03*
X0281028Y0040870D03*
X0296776Y0040870D03*
X0312524Y0040870D03*
X0328272Y0040870D03*
X0344020Y0040870D03*
X0359768Y0040870D03*
X0375516Y0040870D03*
X0380437Y0030043D03*
X0426697Y0040870D03*
X0442445Y0040870D03*
X0462130Y0040870D03*
X0466067Y0040870D03*
X0470004Y0040870D03*
X0442445Y0056618D03*
X0426697Y0060555D03*
X0421776Y0057602D03*
X0434571Y0068429D03*
X0442445Y0076303D03*
X0422760Y0080240D03*
X0407012Y0072366D03*
X0391264Y0072366D03*
X0375516Y0072366D03*
X0359768Y0072366D03*
X0344020Y0072366D03*
X0328272Y0072366D03*
X0312524Y0072366D03*
X0300713Y0068429D03*
X0292839Y0068429D03*
X0296776Y0056618D03*
X0312524Y0056618D03*
X0328272Y0056618D03*
X0344020Y0056618D03*
X0359768Y0056618D03*
X0375516Y0056618D03*
X0450319Y0084177D03*
X0430634Y0088114D03*
X0438508Y0095988D03*
X0458193Y0092051D03*
X0407012Y0088114D03*
X0375516Y0088114D03*
X0359768Y0088114D03*
X0344020Y0088114D03*
X0328272Y0088114D03*
X0312524Y0088114D03*
X0281028Y0088114D03*
X0265280Y0088114D03*
X0249531Y0088114D03*
X0218035Y0088114D03*
X0202287Y0088114D03*
X0182602Y0080240D03*
X0170791Y0084177D03*
X0155043Y0084177D03*
X0158980Y0074335D03*
X0127484Y0076303D03*
X0115673Y0076303D03*
X0111736Y0080240D03*
X0095988Y0080240D03*
X0084177Y0080240D03*
X0080240Y0072366D03*
X0064492Y0072366D03*
X0048744Y0072366D03*
X0032996Y0072366D03*
X0009374Y0072366D03*
X0009374Y0064492D03*
X0009374Y0056618D03*
X0009374Y0048744D03*
X0009374Y0040870D03*
X0021185Y0040870D03*
X0032996Y0040870D03*
X0064492Y0040870D03*
X0080240Y0040870D03*
X0080240Y0056618D03*
X0064492Y0056618D03*
X0048744Y0056618D03*
X0009374Y0080240D03*
X0009374Y0088114D03*
X0009374Y0095988D03*
X0009374Y0103862D03*
X0009374Y0111736D03*
X0009374Y0119610D03*
X0009374Y0127484D03*
X0009374Y0135358D03*
X0009374Y0143232D03*
X0021185Y0143232D03*
X0032996Y0143232D03*
X0042839Y0145201D03*
X0042839Y0149138D03*
X0042839Y0153075D03*
X0042839Y0157012D03*
X0046776Y0157012D03*
X0050713Y0157012D03*
X0032996Y0155043D03*
X0032996Y0166854D03*
X0040870Y0166854D03*
X0048744Y0166854D03*
X0056618Y0166854D03*
X0064492Y0166854D03*
X0072366Y0166854D03*
X0080240Y0166854D03*
X0088114Y0166854D03*
X0095988Y0166854D03*
X0103862Y0166854D03*
X0111736Y0166854D03*
X0119610Y0166854D03*
X0123547Y0162917D03*
X0123547Y0155043D03*
X0123547Y0147169D03*
X0123547Y0139295D03*
X0127484Y0135358D03*
X0131421Y0131421D03*
X0139295Y0131421D03*
X0147169Y0131421D03*
X0155043Y0131421D03*
X0162917Y0131421D03*
X0170791Y0131421D03*
X0186539Y0131421D03*
X0194413Y0131421D03*
X0210161Y0131421D03*
X0249531Y0131421D03*
X0257406Y0131421D03*
X0265280Y0131421D03*
X0273154Y0131421D03*
X0281028Y0119610D03*
X0265280Y0119610D03*
X0249531Y0119610D03*
X0249531Y0103862D03*
X0265280Y0103862D03*
X0281028Y0103862D03*
X0202287Y0103862D03*
X0186539Y0103862D03*
X0170791Y0103862D03*
X0155043Y0103862D03*
X0127484Y0103862D03*
X0111736Y0103862D03*
X0088114Y0093035D03*
X0082209Y0093035D03*
X0080240Y0088114D03*
X0064492Y0088114D03*
X0048744Y0088114D03*
X0032996Y0088114D03*
X0046776Y0103862D03*
X0062524Y0103862D03*
X0075319Y0103862D03*
X0095988Y0088114D03*
X0111736Y0088114D03*
X0127484Y0084177D03*
X0198350Y0058587D03*
X0208193Y0058587D03*
X0218035Y0056618D03*
X0233783Y0056618D03*
X0249531Y0056618D03*
X0265280Y0056618D03*
X0281028Y0056618D03*
X0218035Y0072366D03*
X0209177Y0064492D03*
X0204256Y0025122D03*
X0470988Y0062524D03*
X0480831Y0060555D03*
X0500516Y0060555D03*
X0503469Y0060555D03*
X0503469Y0057602D03*
X0500516Y0057602D03*
X0526106Y0069413D03*
X0521185Y0070398D03*
X0458193Y0112720D03*
X0442445Y0127484D03*
X0430634Y0127484D03*
X0418823Y0127484D03*
X0414886Y0131421D03*
X0407012Y0131421D03*
X0399138Y0131421D03*
X0391264Y0131421D03*
X0383390Y0131421D03*
X0375516Y0131421D03*
X0367642Y0131421D03*
X0359768Y0131421D03*
X0351894Y0131421D03*
X0344020Y0131421D03*
X0336146Y0131421D03*
X0328272Y0131421D03*
X0320398Y0131421D03*
X0312524Y0131421D03*
X0418823Y0135358D03*
X0422760Y0139295D03*
X0434571Y0135358D03*
X0450319Y0135358D03*
X0422760Y0147169D03*
X0434571Y0151106D03*
X0422760Y0155043D03*
X0422760Y0162917D03*
X0426697Y0166854D03*
X0434571Y0166854D03*
X0442445Y0166854D03*
X0450319Y0166854D03*
X0458193Y0166854D03*
X0466067Y0166854D03*
X0473941Y0166854D03*
X0481815Y0166854D03*
X0489689Y0166854D03*
X0497563Y0166854D03*
X0505437Y0166854D03*
X0513311Y0166854D03*
X0521185Y0166854D03*
X0450319Y0151106D03*
X0503469Y0133390D03*
X0552681Y0135358D03*
X0552681Y0130437D03*
X0155043Y0119610D03*
X0127484Y0119610D03*
X0082209Y0129453D03*
X0068429Y0135358D03*
X0068429Y0139295D03*
X0083193Y0157012D03*
X0032996Y0119610D03*
D14*
X0214098Y0025122D02*
X0223941Y0034965D01*
X0372563Y0034965D01*
X0382406Y0025122D01*
X0415870Y0025122D01*
X0489689Y0025122D01*
X0501500Y0036933D01*
X0501500Y0059571D01*
X0214098Y0025122D02*
X0204256Y0025122D01*
X0170791Y0025122D01*
X0119610Y0025122D01*
D15*
X0120594Y0024138D02*
X0117642Y0024138D01*
X0117642Y0027091D01*
D16*
X0169807Y0024138D02*
X0170791Y0025122D01*
D17*
X0519217Y0081224D02*
X0522169Y0078272D01*
X0526106Y0078272D01*
X0520201Y0089098D02*
X0520201Y0104846D01*
D18*
X0516264Y0132406D02*
X0510358Y0138311D01*
X0488705Y0138311D01*
X0478862Y0148154D01*
X0516264Y0132406D02*
X0533980Y0132406D01*
X0382406Y0121579D02*
X0382406Y0110752D01*
M02*
