%
M48
M72
T01C0.01260
T02C0.03543
T03C0.03937
T04C0.05906
T05C0.12598
%
T01
X32996Y17248
X40870Y17248
X48744Y17248
X56618Y17248
X64492Y17248
X72366Y17248
X80240Y17248
X88114Y17248
X95988Y17248
X103862Y17248
X111736Y17248
X119610Y17248
X127484Y17248
X135358Y17248
X143232Y17248
X151106Y17248
X158980Y17248
X166854Y17248
X174728Y17248
X186539Y17248
X194413Y17248
X202287Y17248
X210161Y17248
X218035Y17248
X225909Y17248
X233783Y17248
X241657Y17248
X249531Y17248
X257406Y17248
X265280Y17248
X273154Y17248
X281028Y17248
X288902Y17248
X296776Y17248
X304650Y17248
X312524Y17248
X320398Y17248
X328272Y17248
X336146Y17248
X344020Y17248
X351894Y17248
X359768Y17248
X367642Y17248
X375516Y17248
X383390Y17248
X391264Y17248
X399138Y17248
X407012Y17248
X418823Y17248
X426697Y17248
X434571Y17248
X442445Y17248
X450319Y17248
X458193Y16264
X466067Y16264
X489689Y16264
X501500Y25122
X505437Y25122
X505437Y29059
X501500Y29059
X536933Y29059
X540870Y29059
X540870Y25122
X536933Y25122
X552681Y17248
X560555Y17248
X560555Y155043
X544807Y155043
X534965Y155043
X534965Y152091
X534965Y149138
X544807Y149138
X544807Y152091
X544807Y146185
X544807Y143232
X534965Y143232
X534965Y146185
X526106Y146185
X526106Y143232
X526106Y140280
X518232Y136343
X533980Y132406
X518232Y127484
X513311Y123547
X532996Y123547
X532996Y120594
X542839Y116657
X542839Y113705
X542839Y107799
X531028Y107799
X525122Y107799
X520201Y104846
X513311Y107799
X499531Y106815
X491657Y99925
X474925Y102878
X466067Y99925
X446382Y103862
X446382Y107799
X450319Y107799
X458193Y112720
X430634Y107799
X418823Y107799
X407012Y103862
X391264Y103862
X382406Y110752
X382406Y121579
X363705Y123547
X348941Y117642
X351894Y131421
X359768Y131421
X367642Y131421
X375516Y131421
X383390Y131421
X391264Y131421
X399138Y131421
X407012Y131421
X414886Y131421
X418823Y127484
X430634Y127484
X442445Y127484
X450319Y135358
X434571Y135358
X422760Y139295
X418823Y135358
X422760Y147169
X434571Y151106
X422760Y155043
X422760Y162917
X426697Y166854
X434571Y166854
X442445Y166854
X450319Y166854
X458193Y166854
X466067Y166854
X473941Y166854
X481815Y166854
X489689Y166854
X497563Y166854
X505437Y166854
X513311Y166854
X521185Y166854
X529059Y166854
X536933Y166854
X544807Y166854
X552681Y166854
X560555Y166854
X544807Y160949
X541854Y160949
X537917Y160949
X534965Y160949
X534965Y157996
X532012Y160949
X529059Y160949
X526106Y160949
X526106Y157996
X526106Y155043
X526106Y152091
X526106Y149138
X534965Y140280
X544807Y140280
X552681Y135358
X552681Y130437
X584177Y127484
X584177Y119610
X584177Y111736
X584177Y103862
X586146Y95988
X568429Y92051
X552681Y92051
X536933Y86146
X532996Y80240
X526106Y78272
X519217Y81224
X503469Y80240
X496579Y78272
X490673Y78272
X498547Y86146
X505437Y89098
X520201Y89098
X531028Y94020
X586146Y88114
X586146Y80240
X584177Y72366
X584177Y64492
X584177Y56618
X584177Y48744
X584177Y40870
X572366Y40870
X560555Y40870
X531028Y41854
X531028Y37917
X560555Y29059
X470004Y40870
X466067Y40870
X462130Y40870
X442445Y40870
X426697Y40870
X380437Y30043
X375516Y40870
X359768Y40870
X344020Y40870
X328272Y40870
X312524Y40870
X296776Y40870
X281028Y40870
X265280Y40870
X249531Y40870
X233783Y40870
X218035Y40870
X208193Y38902
X198350Y38902
X193429Y32012
X204256Y25122
X169807Y24138
X166854Y24138
X163902Y24138
X155043Y32012
X151106Y32012
X139295Y32012
X135358Y32012
X120594Y27091
X117642Y27091
X117642Y24138
X120594Y24138
X95988Y29059
X80240Y29059
X64492Y29059
X48744Y29059
X32996Y29059
X544807Y157996
X560555Y143232
X572366Y143232
X584177Y143232
X584177Y135358
X503469Y133390
X487720Y130437
X488705Y126500
X477878Y127484
X466067Y127484
X466067Y131421
X477878Y135358
X488705Y142248
X497563Y142248
X497563Y148154
X481815Y151106
X478862Y148154
X497563Y155043
X450319Y151106
X344020Y131421
X336146Y131421
X328272Y131421
X320398Y131421
X312524Y131421
X281028Y119610
X265280Y119610
X249531Y119610
X249531Y131421
X257406Y131421
X265280Y131421
X273154Y131421
X210161Y131421
X194413Y131421
X186539Y131421
X170791Y131421
X162917Y131421
X155043Y131421
X147169Y131421
X139295Y131421
X131421Y131421
X127484Y135358
X123547Y139295
X123547Y147169
X123547Y155043
X123547Y162917
X119610Y166854
X111736Y166854
X103862Y166854
X95988Y166854
X88114Y166854
X80240Y166854
X72366Y166854
X64492Y166854
X56618Y166854
X48744Y166854
X40870Y166854
X32996Y166854
X42839Y157012
X46776Y157012
X50713Y157012
X42839Y153075
X42839Y149138
X42839Y145201
X32996Y143232
X21185Y143232
X9374Y143232
X9374Y135358
X9374Y127484
X9374Y119610
X32996Y119610
X9374Y111736
X9374Y103862
X9374Y95988
X9374Y88114
X32996Y88114
X48744Y88114
X64492Y88114
X80240Y88114
X82209Y93035
X88114Y93035
X95988Y88114
X111736Y88114
X127484Y84177
X111736Y80240
X115673Y76303
X127484Y76303
X155043Y84177
X170791Y84177
X182602Y80240
X158980Y74335
X202287Y88114
X218035Y88114
X249531Y88114
X265280Y88114
X281028Y88114
X312524Y88114
X328272Y88114
X344020Y88114
X359768Y88114
X375516Y88114
X407012Y88114
X430634Y88114
X450319Y84177
X442445Y76303
X422760Y80240
X407012Y72366
X391264Y72366
X375516Y72366
X359768Y72366
X344020Y72366
X328272Y72366
X312524Y72366
X300713Y68429
X292839Y68429
X296776Y56618
X312524Y56618
X328272Y56618
X344020Y56618
X359768Y56618
X375516Y56618
X421776Y57602
X426697Y60555
X442445Y56618
X470988Y62524
X480831Y60555
X500516Y60555
X503469Y60555
X503469Y57602
X500516Y57602
X526106Y69413
X521185Y70398
X458193Y92051
X438508Y95988
X434571Y68429
X281028Y56618
X265280Y56618
X249531Y56618
X233783Y56618
X218035Y56618
X208193Y58587
X198350Y58587
X209177Y64492
X218035Y72366
X202287Y103862
X186539Y103862
X170791Y103862
X155043Y103862
X127484Y103862
X111736Y103862
X75319Y103862
X62524Y103862
X46776Y103862
X84177Y80240
X95988Y80240
X80240Y72366
X64492Y72366
X48744Y72366
X32996Y72366
X9374Y72366
X9374Y64492
X9374Y56618
X9374Y48744
X9374Y40870
X21185Y40870
X32996Y40870
X64492Y40870
X80240Y40870
X80240Y56618
X64492Y56618
X48744Y56618
X9374Y80240
X127484Y119610
X155043Y119610
X82209Y129453
X68429Y135358
X68429Y139295
X32996Y155043
X83193Y157012
X249531Y103862
X265280Y103862
X281028Y103862
T02
X512524Y28075
X529846Y28075
T03
X576303Y72051
X576303Y82051
X576303Y92051
X576303Y102051
X576303Y112051
X306776Y25122
X296776Y25122
X286776Y25122
T04
X477878Y15673
X477878Y43232
T05
X17248Y25122
X17248Y158980
X576303Y158980
X576303Y25122
M30
