G75*
%MOIN*%
%OFA0B0*%
%FSLAX25Y25*%
%IPPOS*%
%LPD*%
%AMOC8*
5,1,8,0,0,1.08239X$1,22.5*
%
%ADD10C,0.00000*%
D10*
X0017248Y0009374D02*
X0576303Y0009374D01*
X0570004Y0025122D02*
X0570006Y0025280D01*
X0570012Y0025438D01*
X0570022Y0025596D01*
X0570036Y0025754D01*
X0570054Y0025911D01*
X0570075Y0026068D01*
X0570101Y0026224D01*
X0570131Y0026380D01*
X0570164Y0026535D01*
X0570202Y0026688D01*
X0570243Y0026841D01*
X0570288Y0026993D01*
X0570337Y0027144D01*
X0570390Y0027293D01*
X0570446Y0027441D01*
X0570506Y0027587D01*
X0570570Y0027732D01*
X0570638Y0027875D01*
X0570709Y0028017D01*
X0570783Y0028157D01*
X0570861Y0028294D01*
X0570943Y0028430D01*
X0571027Y0028564D01*
X0571116Y0028695D01*
X0571207Y0028824D01*
X0571302Y0028951D01*
X0571399Y0029076D01*
X0571500Y0029198D01*
X0571604Y0029317D01*
X0571711Y0029434D01*
X0571821Y0029548D01*
X0571934Y0029659D01*
X0572049Y0029768D01*
X0572167Y0029873D01*
X0572288Y0029975D01*
X0572411Y0030075D01*
X0572537Y0030171D01*
X0572665Y0030264D01*
X0572795Y0030354D01*
X0572928Y0030440D01*
X0573063Y0030524D01*
X0573199Y0030603D01*
X0573338Y0030680D01*
X0573479Y0030752D01*
X0573621Y0030822D01*
X0573765Y0030887D01*
X0573911Y0030949D01*
X0574058Y0031007D01*
X0574207Y0031062D01*
X0574357Y0031113D01*
X0574508Y0031160D01*
X0574660Y0031203D01*
X0574813Y0031242D01*
X0574968Y0031278D01*
X0575123Y0031309D01*
X0575279Y0031337D01*
X0575435Y0031361D01*
X0575592Y0031381D01*
X0575750Y0031397D01*
X0575907Y0031409D01*
X0576066Y0031417D01*
X0576224Y0031421D01*
X0576382Y0031421D01*
X0576540Y0031417D01*
X0576699Y0031409D01*
X0576856Y0031397D01*
X0577014Y0031381D01*
X0577171Y0031361D01*
X0577327Y0031337D01*
X0577483Y0031309D01*
X0577638Y0031278D01*
X0577793Y0031242D01*
X0577946Y0031203D01*
X0578098Y0031160D01*
X0578249Y0031113D01*
X0578399Y0031062D01*
X0578548Y0031007D01*
X0578695Y0030949D01*
X0578841Y0030887D01*
X0578985Y0030822D01*
X0579127Y0030752D01*
X0579268Y0030680D01*
X0579407Y0030603D01*
X0579543Y0030524D01*
X0579678Y0030440D01*
X0579811Y0030354D01*
X0579941Y0030264D01*
X0580069Y0030171D01*
X0580195Y0030075D01*
X0580318Y0029975D01*
X0580439Y0029873D01*
X0580557Y0029768D01*
X0580672Y0029659D01*
X0580785Y0029548D01*
X0580895Y0029434D01*
X0581002Y0029317D01*
X0581106Y0029198D01*
X0581207Y0029076D01*
X0581304Y0028951D01*
X0581399Y0028824D01*
X0581490Y0028695D01*
X0581579Y0028564D01*
X0581663Y0028430D01*
X0581745Y0028294D01*
X0581823Y0028157D01*
X0581897Y0028017D01*
X0581968Y0027875D01*
X0582036Y0027732D01*
X0582100Y0027587D01*
X0582160Y0027441D01*
X0582216Y0027293D01*
X0582269Y0027144D01*
X0582318Y0026993D01*
X0582363Y0026841D01*
X0582404Y0026688D01*
X0582442Y0026535D01*
X0582475Y0026380D01*
X0582505Y0026224D01*
X0582531Y0026068D01*
X0582552Y0025911D01*
X0582570Y0025754D01*
X0582584Y0025596D01*
X0582594Y0025438D01*
X0582600Y0025280D01*
X0582602Y0025122D01*
X0582600Y0024964D01*
X0582594Y0024806D01*
X0582584Y0024648D01*
X0582570Y0024490D01*
X0582552Y0024333D01*
X0582531Y0024176D01*
X0582505Y0024020D01*
X0582475Y0023864D01*
X0582442Y0023709D01*
X0582404Y0023556D01*
X0582363Y0023403D01*
X0582318Y0023251D01*
X0582269Y0023100D01*
X0582216Y0022951D01*
X0582160Y0022803D01*
X0582100Y0022657D01*
X0582036Y0022512D01*
X0581968Y0022369D01*
X0581897Y0022227D01*
X0581823Y0022087D01*
X0581745Y0021950D01*
X0581663Y0021814D01*
X0581579Y0021680D01*
X0581490Y0021549D01*
X0581399Y0021420D01*
X0581304Y0021293D01*
X0581207Y0021168D01*
X0581106Y0021046D01*
X0581002Y0020927D01*
X0580895Y0020810D01*
X0580785Y0020696D01*
X0580672Y0020585D01*
X0580557Y0020476D01*
X0580439Y0020371D01*
X0580318Y0020269D01*
X0580195Y0020169D01*
X0580069Y0020073D01*
X0579941Y0019980D01*
X0579811Y0019890D01*
X0579678Y0019804D01*
X0579543Y0019720D01*
X0579407Y0019641D01*
X0579268Y0019564D01*
X0579127Y0019492D01*
X0578985Y0019422D01*
X0578841Y0019357D01*
X0578695Y0019295D01*
X0578548Y0019237D01*
X0578399Y0019182D01*
X0578249Y0019131D01*
X0578098Y0019084D01*
X0577946Y0019041D01*
X0577793Y0019002D01*
X0577638Y0018966D01*
X0577483Y0018935D01*
X0577327Y0018907D01*
X0577171Y0018883D01*
X0577014Y0018863D01*
X0576856Y0018847D01*
X0576699Y0018835D01*
X0576540Y0018827D01*
X0576382Y0018823D01*
X0576224Y0018823D01*
X0576066Y0018827D01*
X0575907Y0018835D01*
X0575750Y0018847D01*
X0575592Y0018863D01*
X0575435Y0018883D01*
X0575279Y0018907D01*
X0575123Y0018935D01*
X0574968Y0018966D01*
X0574813Y0019002D01*
X0574660Y0019041D01*
X0574508Y0019084D01*
X0574357Y0019131D01*
X0574207Y0019182D01*
X0574058Y0019237D01*
X0573911Y0019295D01*
X0573765Y0019357D01*
X0573621Y0019422D01*
X0573479Y0019492D01*
X0573338Y0019564D01*
X0573199Y0019641D01*
X0573063Y0019720D01*
X0572928Y0019804D01*
X0572795Y0019890D01*
X0572665Y0019980D01*
X0572537Y0020073D01*
X0572411Y0020169D01*
X0572288Y0020269D01*
X0572167Y0020371D01*
X0572049Y0020476D01*
X0571934Y0020585D01*
X0571821Y0020696D01*
X0571711Y0020810D01*
X0571604Y0020927D01*
X0571500Y0021046D01*
X0571399Y0021168D01*
X0571302Y0021293D01*
X0571207Y0021420D01*
X0571116Y0021549D01*
X0571027Y0021680D01*
X0570943Y0021814D01*
X0570861Y0021950D01*
X0570783Y0022087D01*
X0570709Y0022227D01*
X0570638Y0022369D01*
X0570570Y0022512D01*
X0570506Y0022657D01*
X0570446Y0022803D01*
X0570390Y0022951D01*
X0570337Y0023100D01*
X0570288Y0023251D01*
X0570243Y0023403D01*
X0570202Y0023556D01*
X0570164Y0023709D01*
X0570131Y0023864D01*
X0570101Y0024020D01*
X0570075Y0024176D01*
X0570054Y0024333D01*
X0570036Y0024490D01*
X0570022Y0024648D01*
X0570012Y0024806D01*
X0570006Y0024964D01*
X0570004Y0025122D01*
X0576303Y0009374D02*
X0576684Y0009379D01*
X0577064Y0009392D01*
X0577444Y0009415D01*
X0577823Y0009448D01*
X0578201Y0009489D01*
X0578578Y0009539D01*
X0578954Y0009599D01*
X0579329Y0009667D01*
X0579701Y0009745D01*
X0580072Y0009832D01*
X0580440Y0009927D01*
X0580806Y0010032D01*
X0581169Y0010145D01*
X0581530Y0010267D01*
X0581887Y0010397D01*
X0582241Y0010537D01*
X0582592Y0010684D01*
X0582939Y0010841D01*
X0583282Y0011005D01*
X0583621Y0011178D01*
X0583956Y0011359D01*
X0584287Y0011548D01*
X0584612Y0011745D01*
X0584933Y0011949D01*
X0585249Y0012162D01*
X0585559Y0012382D01*
X0585865Y0012609D01*
X0586164Y0012844D01*
X0586458Y0013086D01*
X0586746Y0013334D01*
X0587028Y0013590D01*
X0587303Y0013853D01*
X0587572Y0014122D01*
X0587835Y0014397D01*
X0588091Y0014679D01*
X0588339Y0014967D01*
X0588581Y0015261D01*
X0588816Y0015560D01*
X0589043Y0015866D01*
X0589263Y0016176D01*
X0589476Y0016492D01*
X0589680Y0016813D01*
X0589877Y0017138D01*
X0590066Y0017469D01*
X0590247Y0017804D01*
X0590420Y0018143D01*
X0590584Y0018486D01*
X0590741Y0018833D01*
X0590888Y0019184D01*
X0591028Y0019538D01*
X0591158Y0019895D01*
X0591280Y0020256D01*
X0591393Y0020619D01*
X0591498Y0020985D01*
X0591593Y0021353D01*
X0591680Y0021724D01*
X0591758Y0022096D01*
X0591826Y0022471D01*
X0591886Y0022847D01*
X0591936Y0023224D01*
X0591977Y0023602D01*
X0592010Y0023981D01*
X0592033Y0024361D01*
X0592046Y0024741D01*
X0592051Y0025122D01*
X0592051Y0158980D01*
X0570004Y0158980D02*
X0570006Y0159138D01*
X0570012Y0159296D01*
X0570022Y0159454D01*
X0570036Y0159612D01*
X0570054Y0159769D01*
X0570075Y0159926D01*
X0570101Y0160082D01*
X0570131Y0160238D01*
X0570164Y0160393D01*
X0570202Y0160546D01*
X0570243Y0160699D01*
X0570288Y0160851D01*
X0570337Y0161002D01*
X0570390Y0161151D01*
X0570446Y0161299D01*
X0570506Y0161445D01*
X0570570Y0161590D01*
X0570638Y0161733D01*
X0570709Y0161875D01*
X0570783Y0162015D01*
X0570861Y0162152D01*
X0570943Y0162288D01*
X0571027Y0162422D01*
X0571116Y0162553D01*
X0571207Y0162682D01*
X0571302Y0162809D01*
X0571399Y0162934D01*
X0571500Y0163056D01*
X0571604Y0163175D01*
X0571711Y0163292D01*
X0571821Y0163406D01*
X0571934Y0163517D01*
X0572049Y0163626D01*
X0572167Y0163731D01*
X0572288Y0163833D01*
X0572411Y0163933D01*
X0572537Y0164029D01*
X0572665Y0164122D01*
X0572795Y0164212D01*
X0572928Y0164298D01*
X0573063Y0164382D01*
X0573199Y0164461D01*
X0573338Y0164538D01*
X0573479Y0164610D01*
X0573621Y0164680D01*
X0573765Y0164745D01*
X0573911Y0164807D01*
X0574058Y0164865D01*
X0574207Y0164920D01*
X0574357Y0164971D01*
X0574508Y0165018D01*
X0574660Y0165061D01*
X0574813Y0165100D01*
X0574968Y0165136D01*
X0575123Y0165167D01*
X0575279Y0165195D01*
X0575435Y0165219D01*
X0575592Y0165239D01*
X0575750Y0165255D01*
X0575907Y0165267D01*
X0576066Y0165275D01*
X0576224Y0165279D01*
X0576382Y0165279D01*
X0576540Y0165275D01*
X0576699Y0165267D01*
X0576856Y0165255D01*
X0577014Y0165239D01*
X0577171Y0165219D01*
X0577327Y0165195D01*
X0577483Y0165167D01*
X0577638Y0165136D01*
X0577793Y0165100D01*
X0577946Y0165061D01*
X0578098Y0165018D01*
X0578249Y0164971D01*
X0578399Y0164920D01*
X0578548Y0164865D01*
X0578695Y0164807D01*
X0578841Y0164745D01*
X0578985Y0164680D01*
X0579127Y0164610D01*
X0579268Y0164538D01*
X0579407Y0164461D01*
X0579543Y0164382D01*
X0579678Y0164298D01*
X0579811Y0164212D01*
X0579941Y0164122D01*
X0580069Y0164029D01*
X0580195Y0163933D01*
X0580318Y0163833D01*
X0580439Y0163731D01*
X0580557Y0163626D01*
X0580672Y0163517D01*
X0580785Y0163406D01*
X0580895Y0163292D01*
X0581002Y0163175D01*
X0581106Y0163056D01*
X0581207Y0162934D01*
X0581304Y0162809D01*
X0581399Y0162682D01*
X0581490Y0162553D01*
X0581579Y0162422D01*
X0581663Y0162288D01*
X0581745Y0162152D01*
X0581823Y0162015D01*
X0581897Y0161875D01*
X0581968Y0161733D01*
X0582036Y0161590D01*
X0582100Y0161445D01*
X0582160Y0161299D01*
X0582216Y0161151D01*
X0582269Y0161002D01*
X0582318Y0160851D01*
X0582363Y0160699D01*
X0582404Y0160546D01*
X0582442Y0160393D01*
X0582475Y0160238D01*
X0582505Y0160082D01*
X0582531Y0159926D01*
X0582552Y0159769D01*
X0582570Y0159612D01*
X0582584Y0159454D01*
X0582594Y0159296D01*
X0582600Y0159138D01*
X0582602Y0158980D01*
X0582600Y0158822D01*
X0582594Y0158664D01*
X0582584Y0158506D01*
X0582570Y0158348D01*
X0582552Y0158191D01*
X0582531Y0158034D01*
X0582505Y0157878D01*
X0582475Y0157722D01*
X0582442Y0157567D01*
X0582404Y0157414D01*
X0582363Y0157261D01*
X0582318Y0157109D01*
X0582269Y0156958D01*
X0582216Y0156809D01*
X0582160Y0156661D01*
X0582100Y0156515D01*
X0582036Y0156370D01*
X0581968Y0156227D01*
X0581897Y0156085D01*
X0581823Y0155945D01*
X0581745Y0155808D01*
X0581663Y0155672D01*
X0581579Y0155538D01*
X0581490Y0155407D01*
X0581399Y0155278D01*
X0581304Y0155151D01*
X0581207Y0155026D01*
X0581106Y0154904D01*
X0581002Y0154785D01*
X0580895Y0154668D01*
X0580785Y0154554D01*
X0580672Y0154443D01*
X0580557Y0154334D01*
X0580439Y0154229D01*
X0580318Y0154127D01*
X0580195Y0154027D01*
X0580069Y0153931D01*
X0579941Y0153838D01*
X0579811Y0153748D01*
X0579678Y0153662D01*
X0579543Y0153578D01*
X0579407Y0153499D01*
X0579268Y0153422D01*
X0579127Y0153350D01*
X0578985Y0153280D01*
X0578841Y0153215D01*
X0578695Y0153153D01*
X0578548Y0153095D01*
X0578399Y0153040D01*
X0578249Y0152989D01*
X0578098Y0152942D01*
X0577946Y0152899D01*
X0577793Y0152860D01*
X0577638Y0152824D01*
X0577483Y0152793D01*
X0577327Y0152765D01*
X0577171Y0152741D01*
X0577014Y0152721D01*
X0576856Y0152705D01*
X0576699Y0152693D01*
X0576540Y0152685D01*
X0576382Y0152681D01*
X0576224Y0152681D01*
X0576066Y0152685D01*
X0575907Y0152693D01*
X0575750Y0152705D01*
X0575592Y0152721D01*
X0575435Y0152741D01*
X0575279Y0152765D01*
X0575123Y0152793D01*
X0574968Y0152824D01*
X0574813Y0152860D01*
X0574660Y0152899D01*
X0574508Y0152942D01*
X0574357Y0152989D01*
X0574207Y0153040D01*
X0574058Y0153095D01*
X0573911Y0153153D01*
X0573765Y0153215D01*
X0573621Y0153280D01*
X0573479Y0153350D01*
X0573338Y0153422D01*
X0573199Y0153499D01*
X0573063Y0153578D01*
X0572928Y0153662D01*
X0572795Y0153748D01*
X0572665Y0153838D01*
X0572537Y0153931D01*
X0572411Y0154027D01*
X0572288Y0154127D01*
X0572167Y0154229D01*
X0572049Y0154334D01*
X0571934Y0154443D01*
X0571821Y0154554D01*
X0571711Y0154668D01*
X0571604Y0154785D01*
X0571500Y0154904D01*
X0571399Y0155026D01*
X0571302Y0155151D01*
X0571207Y0155278D01*
X0571116Y0155407D01*
X0571027Y0155538D01*
X0570943Y0155672D01*
X0570861Y0155808D01*
X0570783Y0155945D01*
X0570709Y0156085D01*
X0570638Y0156227D01*
X0570570Y0156370D01*
X0570506Y0156515D01*
X0570446Y0156661D01*
X0570390Y0156809D01*
X0570337Y0156958D01*
X0570288Y0157109D01*
X0570243Y0157261D01*
X0570202Y0157414D01*
X0570164Y0157567D01*
X0570131Y0157722D01*
X0570101Y0157878D01*
X0570075Y0158034D01*
X0570054Y0158191D01*
X0570036Y0158348D01*
X0570022Y0158506D01*
X0570012Y0158664D01*
X0570006Y0158822D01*
X0570004Y0158980D01*
X0576303Y0174728D02*
X0576684Y0174723D01*
X0577064Y0174710D01*
X0577444Y0174687D01*
X0577823Y0174654D01*
X0578201Y0174613D01*
X0578578Y0174563D01*
X0578954Y0174503D01*
X0579329Y0174435D01*
X0579701Y0174357D01*
X0580072Y0174270D01*
X0580440Y0174175D01*
X0580806Y0174070D01*
X0581169Y0173957D01*
X0581530Y0173835D01*
X0581887Y0173705D01*
X0582241Y0173565D01*
X0582592Y0173418D01*
X0582939Y0173261D01*
X0583282Y0173097D01*
X0583621Y0172924D01*
X0583956Y0172743D01*
X0584287Y0172554D01*
X0584612Y0172357D01*
X0584933Y0172153D01*
X0585249Y0171940D01*
X0585559Y0171720D01*
X0585865Y0171493D01*
X0586164Y0171258D01*
X0586458Y0171016D01*
X0586746Y0170768D01*
X0587028Y0170512D01*
X0587303Y0170249D01*
X0587572Y0169980D01*
X0587835Y0169705D01*
X0588091Y0169423D01*
X0588339Y0169135D01*
X0588581Y0168841D01*
X0588816Y0168542D01*
X0589043Y0168236D01*
X0589263Y0167926D01*
X0589476Y0167610D01*
X0589680Y0167289D01*
X0589877Y0166964D01*
X0590066Y0166633D01*
X0590247Y0166298D01*
X0590420Y0165959D01*
X0590584Y0165616D01*
X0590741Y0165269D01*
X0590888Y0164918D01*
X0591028Y0164564D01*
X0591158Y0164207D01*
X0591280Y0163846D01*
X0591393Y0163483D01*
X0591498Y0163117D01*
X0591593Y0162749D01*
X0591680Y0162378D01*
X0591758Y0162006D01*
X0591826Y0161631D01*
X0591886Y0161255D01*
X0591936Y0160878D01*
X0591977Y0160500D01*
X0592010Y0160121D01*
X0592033Y0159741D01*
X0592046Y0159361D01*
X0592051Y0158980D01*
X0576303Y0174728D02*
X0017248Y0174728D01*
X0010949Y0158980D02*
X0010951Y0159138D01*
X0010957Y0159296D01*
X0010967Y0159454D01*
X0010981Y0159612D01*
X0010999Y0159769D01*
X0011020Y0159926D01*
X0011046Y0160082D01*
X0011076Y0160238D01*
X0011109Y0160393D01*
X0011147Y0160546D01*
X0011188Y0160699D01*
X0011233Y0160851D01*
X0011282Y0161002D01*
X0011335Y0161151D01*
X0011391Y0161299D01*
X0011451Y0161445D01*
X0011515Y0161590D01*
X0011583Y0161733D01*
X0011654Y0161875D01*
X0011728Y0162015D01*
X0011806Y0162152D01*
X0011888Y0162288D01*
X0011972Y0162422D01*
X0012061Y0162553D01*
X0012152Y0162682D01*
X0012247Y0162809D01*
X0012344Y0162934D01*
X0012445Y0163056D01*
X0012549Y0163175D01*
X0012656Y0163292D01*
X0012766Y0163406D01*
X0012879Y0163517D01*
X0012994Y0163626D01*
X0013112Y0163731D01*
X0013233Y0163833D01*
X0013356Y0163933D01*
X0013482Y0164029D01*
X0013610Y0164122D01*
X0013740Y0164212D01*
X0013873Y0164298D01*
X0014008Y0164382D01*
X0014144Y0164461D01*
X0014283Y0164538D01*
X0014424Y0164610D01*
X0014566Y0164680D01*
X0014710Y0164745D01*
X0014856Y0164807D01*
X0015003Y0164865D01*
X0015152Y0164920D01*
X0015302Y0164971D01*
X0015453Y0165018D01*
X0015605Y0165061D01*
X0015758Y0165100D01*
X0015913Y0165136D01*
X0016068Y0165167D01*
X0016224Y0165195D01*
X0016380Y0165219D01*
X0016537Y0165239D01*
X0016695Y0165255D01*
X0016852Y0165267D01*
X0017011Y0165275D01*
X0017169Y0165279D01*
X0017327Y0165279D01*
X0017485Y0165275D01*
X0017644Y0165267D01*
X0017801Y0165255D01*
X0017959Y0165239D01*
X0018116Y0165219D01*
X0018272Y0165195D01*
X0018428Y0165167D01*
X0018583Y0165136D01*
X0018738Y0165100D01*
X0018891Y0165061D01*
X0019043Y0165018D01*
X0019194Y0164971D01*
X0019344Y0164920D01*
X0019493Y0164865D01*
X0019640Y0164807D01*
X0019786Y0164745D01*
X0019930Y0164680D01*
X0020072Y0164610D01*
X0020213Y0164538D01*
X0020352Y0164461D01*
X0020488Y0164382D01*
X0020623Y0164298D01*
X0020756Y0164212D01*
X0020886Y0164122D01*
X0021014Y0164029D01*
X0021140Y0163933D01*
X0021263Y0163833D01*
X0021384Y0163731D01*
X0021502Y0163626D01*
X0021617Y0163517D01*
X0021730Y0163406D01*
X0021840Y0163292D01*
X0021947Y0163175D01*
X0022051Y0163056D01*
X0022152Y0162934D01*
X0022249Y0162809D01*
X0022344Y0162682D01*
X0022435Y0162553D01*
X0022524Y0162422D01*
X0022608Y0162288D01*
X0022690Y0162152D01*
X0022768Y0162015D01*
X0022842Y0161875D01*
X0022913Y0161733D01*
X0022981Y0161590D01*
X0023045Y0161445D01*
X0023105Y0161299D01*
X0023161Y0161151D01*
X0023214Y0161002D01*
X0023263Y0160851D01*
X0023308Y0160699D01*
X0023349Y0160546D01*
X0023387Y0160393D01*
X0023420Y0160238D01*
X0023450Y0160082D01*
X0023476Y0159926D01*
X0023497Y0159769D01*
X0023515Y0159612D01*
X0023529Y0159454D01*
X0023539Y0159296D01*
X0023545Y0159138D01*
X0023547Y0158980D01*
X0023545Y0158822D01*
X0023539Y0158664D01*
X0023529Y0158506D01*
X0023515Y0158348D01*
X0023497Y0158191D01*
X0023476Y0158034D01*
X0023450Y0157878D01*
X0023420Y0157722D01*
X0023387Y0157567D01*
X0023349Y0157414D01*
X0023308Y0157261D01*
X0023263Y0157109D01*
X0023214Y0156958D01*
X0023161Y0156809D01*
X0023105Y0156661D01*
X0023045Y0156515D01*
X0022981Y0156370D01*
X0022913Y0156227D01*
X0022842Y0156085D01*
X0022768Y0155945D01*
X0022690Y0155808D01*
X0022608Y0155672D01*
X0022524Y0155538D01*
X0022435Y0155407D01*
X0022344Y0155278D01*
X0022249Y0155151D01*
X0022152Y0155026D01*
X0022051Y0154904D01*
X0021947Y0154785D01*
X0021840Y0154668D01*
X0021730Y0154554D01*
X0021617Y0154443D01*
X0021502Y0154334D01*
X0021384Y0154229D01*
X0021263Y0154127D01*
X0021140Y0154027D01*
X0021014Y0153931D01*
X0020886Y0153838D01*
X0020756Y0153748D01*
X0020623Y0153662D01*
X0020488Y0153578D01*
X0020352Y0153499D01*
X0020213Y0153422D01*
X0020072Y0153350D01*
X0019930Y0153280D01*
X0019786Y0153215D01*
X0019640Y0153153D01*
X0019493Y0153095D01*
X0019344Y0153040D01*
X0019194Y0152989D01*
X0019043Y0152942D01*
X0018891Y0152899D01*
X0018738Y0152860D01*
X0018583Y0152824D01*
X0018428Y0152793D01*
X0018272Y0152765D01*
X0018116Y0152741D01*
X0017959Y0152721D01*
X0017801Y0152705D01*
X0017644Y0152693D01*
X0017485Y0152685D01*
X0017327Y0152681D01*
X0017169Y0152681D01*
X0017011Y0152685D01*
X0016852Y0152693D01*
X0016695Y0152705D01*
X0016537Y0152721D01*
X0016380Y0152741D01*
X0016224Y0152765D01*
X0016068Y0152793D01*
X0015913Y0152824D01*
X0015758Y0152860D01*
X0015605Y0152899D01*
X0015453Y0152942D01*
X0015302Y0152989D01*
X0015152Y0153040D01*
X0015003Y0153095D01*
X0014856Y0153153D01*
X0014710Y0153215D01*
X0014566Y0153280D01*
X0014424Y0153350D01*
X0014283Y0153422D01*
X0014144Y0153499D01*
X0014008Y0153578D01*
X0013873Y0153662D01*
X0013740Y0153748D01*
X0013610Y0153838D01*
X0013482Y0153931D01*
X0013356Y0154027D01*
X0013233Y0154127D01*
X0013112Y0154229D01*
X0012994Y0154334D01*
X0012879Y0154443D01*
X0012766Y0154554D01*
X0012656Y0154668D01*
X0012549Y0154785D01*
X0012445Y0154904D01*
X0012344Y0155026D01*
X0012247Y0155151D01*
X0012152Y0155278D01*
X0012061Y0155407D01*
X0011972Y0155538D01*
X0011888Y0155672D01*
X0011806Y0155808D01*
X0011728Y0155945D01*
X0011654Y0156085D01*
X0011583Y0156227D01*
X0011515Y0156370D01*
X0011451Y0156515D01*
X0011391Y0156661D01*
X0011335Y0156809D01*
X0011282Y0156958D01*
X0011233Y0157109D01*
X0011188Y0157261D01*
X0011147Y0157414D01*
X0011109Y0157567D01*
X0011076Y0157722D01*
X0011046Y0157878D01*
X0011020Y0158034D01*
X0010999Y0158191D01*
X0010981Y0158348D01*
X0010967Y0158506D01*
X0010957Y0158664D01*
X0010951Y0158822D01*
X0010949Y0158980D01*
X0001500Y0158980D02*
X0001505Y0159361D01*
X0001518Y0159741D01*
X0001541Y0160121D01*
X0001574Y0160500D01*
X0001615Y0160878D01*
X0001665Y0161255D01*
X0001725Y0161631D01*
X0001793Y0162006D01*
X0001871Y0162378D01*
X0001958Y0162749D01*
X0002053Y0163117D01*
X0002158Y0163483D01*
X0002271Y0163846D01*
X0002393Y0164207D01*
X0002523Y0164564D01*
X0002663Y0164918D01*
X0002810Y0165269D01*
X0002967Y0165616D01*
X0003131Y0165959D01*
X0003304Y0166298D01*
X0003485Y0166633D01*
X0003674Y0166964D01*
X0003871Y0167289D01*
X0004075Y0167610D01*
X0004288Y0167926D01*
X0004508Y0168236D01*
X0004735Y0168542D01*
X0004970Y0168841D01*
X0005212Y0169135D01*
X0005460Y0169423D01*
X0005716Y0169705D01*
X0005979Y0169980D01*
X0006248Y0170249D01*
X0006523Y0170512D01*
X0006805Y0170768D01*
X0007093Y0171016D01*
X0007387Y0171258D01*
X0007686Y0171493D01*
X0007992Y0171720D01*
X0008302Y0171940D01*
X0008618Y0172153D01*
X0008939Y0172357D01*
X0009264Y0172554D01*
X0009595Y0172743D01*
X0009930Y0172924D01*
X0010269Y0173097D01*
X0010612Y0173261D01*
X0010959Y0173418D01*
X0011310Y0173565D01*
X0011664Y0173705D01*
X0012021Y0173835D01*
X0012382Y0173957D01*
X0012745Y0174070D01*
X0013111Y0174175D01*
X0013479Y0174270D01*
X0013850Y0174357D01*
X0014222Y0174435D01*
X0014597Y0174503D01*
X0014973Y0174563D01*
X0015350Y0174613D01*
X0015728Y0174654D01*
X0016107Y0174687D01*
X0016487Y0174710D01*
X0016867Y0174723D01*
X0017248Y0174728D01*
X0001500Y0158980D02*
X0001500Y0025122D01*
X0010949Y0025122D02*
X0010951Y0025280D01*
X0010957Y0025438D01*
X0010967Y0025596D01*
X0010981Y0025754D01*
X0010999Y0025911D01*
X0011020Y0026068D01*
X0011046Y0026224D01*
X0011076Y0026380D01*
X0011109Y0026535D01*
X0011147Y0026688D01*
X0011188Y0026841D01*
X0011233Y0026993D01*
X0011282Y0027144D01*
X0011335Y0027293D01*
X0011391Y0027441D01*
X0011451Y0027587D01*
X0011515Y0027732D01*
X0011583Y0027875D01*
X0011654Y0028017D01*
X0011728Y0028157D01*
X0011806Y0028294D01*
X0011888Y0028430D01*
X0011972Y0028564D01*
X0012061Y0028695D01*
X0012152Y0028824D01*
X0012247Y0028951D01*
X0012344Y0029076D01*
X0012445Y0029198D01*
X0012549Y0029317D01*
X0012656Y0029434D01*
X0012766Y0029548D01*
X0012879Y0029659D01*
X0012994Y0029768D01*
X0013112Y0029873D01*
X0013233Y0029975D01*
X0013356Y0030075D01*
X0013482Y0030171D01*
X0013610Y0030264D01*
X0013740Y0030354D01*
X0013873Y0030440D01*
X0014008Y0030524D01*
X0014144Y0030603D01*
X0014283Y0030680D01*
X0014424Y0030752D01*
X0014566Y0030822D01*
X0014710Y0030887D01*
X0014856Y0030949D01*
X0015003Y0031007D01*
X0015152Y0031062D01*
X0015302Y0031113D01*
X0015453Y0031160D01*
X0015605Y0031203D01*
X0015758Y0031242D01*
X0015913Y0031278D01*
X0016068Y0031309D01*
X0016224Y0031337D01*
X0016380Y0031361D01*
X0016537Y0031381D01*
X0016695Y0031397D01*
X0016852Y0031409D01*
X0017011Y0031417D01*
X0017169Y0031421D01*
X0017327Y0031421D01*
X0017485Y0031417D01*
X0017644Y0031409D01*
X0017801Y0031397D01*
X0017959Y0031381D01*
X0018116Y0031361D01*
X0018272Y0031337D01*
X0018428Y0031309D01*
X0018583Y0031278D01*
X0018738Y0031242D01*
X0018891Y0031203D01*
X0019043Y0031160D01*
X0019194Y0031113D01*
X0019344Y0031062D01*
X0019493Y0031007D01*
X0019640Y0030949D01*
X0019786Y0030887D01*
X0019930Y0030822D01*
X0020072Y0030752D01*
X0020213Y0030680D01*
X0020352Y0030603D01*
X0020488Y0030524D01*
X0020623Y0030440D01*
X0020756Y0030354D01*
X0020886Y0030264D01*
X0021014Y0030171D01*
X0021140Y0030075D01*
X0021263Y0029975D01*
X0021384Y0029873D01*
X0021502Y0029768D01*
X0021617Y0029659D01*
X0021730Y0029548D01*
X0021840Y0029434D01*
X0021947Y0029317D01*
X0022051Y0029198D01*
X0022152Y0029076D01*
X0022249Y0028951D01*
X0022344Y0028824D01*
X0022435Y0028695D01*
X0022524Y0028564D01*
X0022608Y0028430D01*
X0022690Y0028294D01*
X0022768Y0028157D01*
X0022842Y0028017D01*
X0022913Y0027875D01*
X0022981Y0027732D01*
X0023045Y0027587D01*
X0023105Y0027441D01*
X0023161Y0027293D01*
X0023214Y0027144D01*
X0023263Y0026993D01*
X0023308Y0026841D01*
X0023349Y0026688D01*
X0023387Y0026535D01*
X0023420Y0026380D01*
X0023450Y0026224D01*
X0023476Y0026068D01*
X0023497Y0025911D01*
X0023515Y0025754D01*
X0023529Y0025596D01*
X0023539Y0025438D01*
X0023545Y0025280D01*
X0023547Y0025122D01*
X0023545Y0024964D01*
X0023539Y0024806D01*
X0023529Y0024648D01*
X0023515Y0024490D01*
X0023497Y0024333D01*
X0023476Y0024176D01*
X0023450Y0024020D01*
X0023420Y0023864D01*
X0023387Y0023709D01*
X0023349Y0023556D01*
X0023308Y0023403D01*
X0023263Y0023251D01*
X0023214Y0023100D01*
X0023161Y0022951D01*
X0023105Y0022803D01*
X0023045Y0022657D01*
X0022981Y0022512D01*
X0022913Y0022369D01*
X0022842Y0022227D01*
X0022768Y0022087D01*
X0022690Y0021950D01*
X0022608Y0021814D01*
X0022524Y0021680D01*
X0022435Y0021549D01*
X0022344Y0021420D01*
X0022249Y0021293D01*
X0022152Y0021168D01*
X0022051Y0021046D01*
X0021947Y0020927D01*
X0021840Y0020810D01*
X0021730Y0020696D01*
X0021617Y0020585D01*
X0021502Y0020476D01*
X0021384Y0020371D01*
X0021263Y0020269D01*
X0021140Y0020169D01*
X0021014Y0020073D01*
X0020886Y0019980D01*
X0020756Y0019890D01*
X0020623Y0019804D01*
X0020488Y0019720D01*
X0020352Y0019641D01*
X0020213Y0019564D01*
X0020072Y0019492D01*
X0019930Y0019422D01*
X0019786Y0019357D01*
X0019640Y0019295D01*
X0019493Y0019237D01*
X0019344Y0019182D01*
X0019194Y0019131D01*
X0019043Y0019084D01*
X0018891Y0019041D01*
X0018738Y0019002D01*
X0018583Y0018966D01*
X0018428Y0018935D01*
X0018272Y0018907D01*
X0018116Y0018883D01*
X0017959Y0018863D01*
X0017801Y0018847D01*
X0017644Y0018835D01*
X0017485Y0018827D01*
X0017327Y0018823D01*
X0017169Y0018823D01*
X0017011Y0018827D01*
X0016852Y0018835D01*
X0016695Y0018847D01*
X0016537Y0018863D01*
X0016380Y0018883D01*
X0016224Y0018907D01*
X0016068Y0018935D01*
X0015913Y0018966D01*
X0015758Y0019002D01*
X0015605Y0019041D01*
X0015453Y0019084D01*
X0015302Y0019131D01*
X0015152Y0019182D01*
X0015003Y0019237D01*
X0014856Y0019295D01*
X0014710Y0019357D01*
X0014566Y0019422D01*
X0014424Y0019492D01*
X0014283Y0019564D01*
X0014144Y0019641D01*
X0014008Y0019720D01*
X0013873Y0019804D01*
X0013740Y0019890D01*
X0013610Y0019980D01*
X0013482Y0020073D01*
X0013356Y0020169D01*
X0013233Y0020269D01*
X0013112Y0020371D01*
X0012994Y0020476D01*
X0012879Y0020585D01*
X0012766Y0020696D01*
X0012656Y0020810D01*
X0012549Y0020927D01*
X0012445Y0021046D01*
X0012344Y0021168D01*
X0012247Y0021293D01*
X0012152Y0021420D01*
X0012061Y0021549D01*
X0011972Y0021680D01*
X0011888Y0021814D01*
X0011806Y0021950D01*
X0011728Y0022087D01*
X0011654Y0022227D01*
X0011583Y0022369D01*
X0011515Y0022512D01*
X0011451Y0022657D01*
X0011391Y0022803D01*
X0011335Y0022951D01*
X0011282Y0023100D01*
X0011233Y0023251D01*
X0011188Y0023403D01*
X0011147Y0023556D01*
X0011109Y0023709D01*
X0011076Y0023864D01*
X0011046Y0024020D01*
X0011020Y0024176D01*
X0010999Y0024333D01*
X0010981Y0024490D01*
X0010967Y0024648D01*
X0010957Y0024806D01*
X0010951Y0024964D01*
X0010949Y0025122D01*
X0001500Y0025122D02*
X0001505Y0024741D01*
X0001518Y0024361D01*
X0001541Y0023981D01*
X0001574Y0023602D01*
X0001615Y0023224D01*
X0001665Y0022847D01*
X0001725Y0022471D01*
X0001793Y0022096D01*
X0001871Y0021724D01*
X0001958Y0021353D01*
X0002053Y0020985D01*
X0002158Y0020619D01*
X0002271Y0020256D01*
X0002393Y0019895D01*
X0002523Y0019538D01*
X0002663Y0019184D01*
X0002810Y0018833D01*
X0002967Y0018486D01*
X0003131Y0018143D01*
X0003304Y0017804D01*
X0003485Y0017469D01*
X0003674Y0017138D01*
X0003871Y0016813D01*
X0004075Y0016492D01*
X0004288Y0016176D01*
X0004508Y0015866D01*
X0004735Y0015560D01*
X0004970Y0015261D01*
X0005212Y0014967D01*
X0005460Y0014679D01*
X0005716Y0014397D01*
X0005979Y0014122D01*
X0006248Y0013853D01*
X0006523Y0013590D01*
X0006805Y0013334D01*
X0007093Y0013086D01*
X0007387Y0012844D01*
X0007686Y0012609D01*
X0007992Y0012382D01*
X0008302Y0012162D01*
X0008618Y0011949D01*
X0008939Y0011745D01*
X0009264Y0011548D01*
X0009595Y0011359D01*
X0009930Y0011178D01*
X0010269Y0011005D01*
X0010612Y0010841D01*
X0010959Y0010684D01*
X0011310Y0010537D01*
X0011664Y0010397D01*
X0012021Y0010267D01*
X0012382Y0010145D01*
X0012745Y0010032D01*
X0013111Y0009927D01*
X0013479Y0009832D01*
X0013850Y0009745D01*
X0014222Y0009667D01*
X0014597Y0009599D01*
X0014973Y0009539D01*
X0015350Y0009489D01*
X0015728Y0009448D01*
X0016107Y0009415D01*
X0016487Y0009392D01*
X0016867Y0009379D01*
X0017248Y0009374D01*
X0474925Y0015673D02*
X0474927Y0015781D01*
X0474933Y0015890D01*
X0474943Y0015998D01*
X0474957Y0016105D01*
X0474975Y0016212D01*
X0474996Y0016319D01*
X0475022Y0016424D01*
X0475052Y0016529D01*
X0475085Y0016632D01*
X0475122Y0016734D01*
X0475163Y0016834D01*
X0475207Y0016933D01*
X0475256Y0017031D01*
X0475307Y0017126D01*
X0475362Y0017219D01*
X0475421Y0017311D01*
X0475483Y0017400D01*
X0475548Y0017487D01*
X0475616Y0017571D01*
X0475687Y0017653D01*
X0475761Y0017732D01*
X0475838Y0017808D01*
X0475918Y0017882D01*
X0476001Y0017952D01*
X0476086Y0018020D01*
X0476173Y0018084D01*
X0476263Y0018145D01*
X0476355Y0018203D01*
X0476449Y0018257D01*
X0476545Y0018308D01*
X0476642Y0018355D01*
X0476742Y0018399D01*
X0476843Y0018439D01*
X0476945Y0018475D01*
X0477048Y0018507D01*
X0477153Y0018536D01*
X0477259Y0018560D01*
X0477365Y0018581D01*
X0477472Y0018598D01*
X0477580Y0018611D01*
X0477688Y0018620D01*
X0477797Y0018625D01*
X0477905Y0018626D01*
X0478014Y0018623D01*
X0478122Y0018616D01*
X0478230Y0018605D01*
X0478337Y0018590D01*
X0478444Y0018571D01*
X0478550Y0018548D01*
X0478655Y0018522D01*
X0478760Y0018491D01*
X0478862Y0018457D01*
X0478964Y0018419D01*
X0479064Y0018377D01*
X0479163Y0018332D01*
X0479260Y0018283D01*
X0479354Y0018230D01*
X0479447Y0018174D01*
X0479538Y0018115D01*
X0479627Y0018052D01*
X0479713Y0017987D01*
X0479797Y0017918D01*
X0479878Y0017846D01*
X0479956Y0017771D01*
X0480032Y0017693D01*
X0480105Y0017612D01*
X0480175Y0017529D01*
X0480241Y0017444D01*
X0480305Y0017356D01*
X0480365Y0017265D01*
X0480422Y0017173D01*
X0480475Y0017078D01*
X0480525Y0016982D01*
X0480571Y0016884D01*
X0480614Y0016784D01*
X0480653Y0016683D01*
X0480688Y0016580D01*
X0480720Y0016477D01*
X0480747Y0016372D01*
X0480771Y0016266D01*
X0480791Y0016159D01*
X0480807Y0016052D01*
X0480819Y0015944D01*
X0480827Y0015836D01*
X0480831Y0015727D01*
X0480831Y0015619D01*
X0480827Y0015510D01*
X0480819Y0015402D01*
X0480807Y0015294D01*
X0480791Y0015187D01*
X0480771Y0015080D01*
X0480747Y0014974D01*
X0480720Y0014869D01*
X0480688Y0014766D01*
X0480653Y0014663D01*
X0480614Y0014562D01*
X0480571Y0014462D01*
X0480525Y0014364D01*
X0480475Y0014268D01*
X0480422Y0014173D01*
X0480365Y0014081D01*
X0480305Y0013990D01*
X0480241Y0013902D01*
X0480175Y0013817D01*
X0480105Y0013734D01*
X0480032Y0013653D01*
X0479956Y0013575D01*
X0479878Y0013500D01*
X0479797Y0013428D01*
X0479713Y0013359D01*
X0479627Y0013294D01*
X0479538Y0013231D01*
X0479447Y0013172D01*
X0479355Y0013116D01*
X0479260Y0013063D01*
X0479163Y0013014D01*
X0479064Y0012969D01*
X0478964Y0012927D01*
X0478862Y0012889D01*
X0478760Y0012855D01*
X0478655Y0012824D01*
X0478550Y0012798D01*
X0478444Y0012775D01*
X0478337Y0012756D01*
X0478230Y0012741D01*
X0478122Y0012730D01*
X0478014Y0012723D01*
X0477905Y0012720D01*
X0477797Y0012721D01*
X0477688Y0012726D01*
X0477580Y0012735D01*
X0477472Y0012748D01*
X0477365Y0012765D01*
X0477259Y0012786D01*
X0477153Y0012810D01*
X0477048Y0012839D01*
X0476945Y0012871D01*
X0476843Y0012907D01*
X0476742Y0012947D01*
X0476642Y0012991D01*
X0476545Y0013038D01*
X0476449Y0013089D01*
X0476355Y0013143D01*
X0476263Y0013201D01*
X0476173Y0013262D01*
X0476086Y0013326D01*
X0476001Y0013394D01*
X0475918Y0013464D01*
X0475838Y0013538D01*
X0475761Y0013614D01*
X0475687Y0013693D01*
X0475616Y0013775D01*
X0475548Y0013859D01*
X0475483Y0013946D01*
X0475421Y0014035D01*
X0475362Y0014127D01*
X0475307Y0014220D01*
X0475256Y0014315D01*
X0475207Y0014413D01*
X0475163Y0014512D01*
X0475122Y0014612D01*
X0475085Y0014714D01*
X0475052Y0014817D01*
X0475022Y0014922D01*
X0474996Y0015027D01*
X0474975Y0015134D01*
X0474957Y0015241D01*
X0474943Y0015348D01*
X0474933Y0015456D01*
X0474927Y0015565D01*
X0474925Y0015673D01*
X0510752Y0028075D02*
X0510754Y0028159D01*
X0510760Y0028242D01*
X0510770Y0028325D01*
X0510784Y0028408D01*
X0510801Y0028490D01*
X0510823Y0028571D01*
X0510848Y0028650D01*
X0510877Y0028729D01*
X0510910Y0028806D01*
X0510946Y0028881D01*
X0510986Y0028955D01*
X0511029Y0029027D01*
X0511076Y0029096D01*
X0511126Y0029163D01*
X0511179Y0029228D01*
X0511235Y0029290D01*
X0511293Y0029350D01*
X0511355Y0029407D01*
X0511419Y0029460D01*
X0511486Y0029511D01*
X0511555Y0029558D01*
X0511626Y0029603D01*
X0511699Y0029643D01*
X0511774Y0029680D01*
X0511851Y0029714D01*
X0511929Y0029744D01*
X0512008Y0029770D01*
X0512089Y0029793D01*
X0512171Y0029811D01*
X0512253Y0029826D01*
X0512336Y0029837D01*
X0512419Y0029844D01*
X0512503Y0029847D01*
X0512587Y0029846D01*
X0512670Y0029841D01*
X0512754Y0029832D01*
X0512836Y0029819D01*
X0512918Y0029803D01*
X0512999Y0029782D01*
X0513080Y0029758D01*
X0513158Y0029730D01*
X0513236Y0029698D01*
X0513312Y0029662D01*
X0513386Y0029623D01*
X0513458Y0029581D01*
X0513528Y0029535D01*
X0513596Y0029486D01*
X0513661Y0029434D01*
X0513724Y0029379D01*
X0513784Y0029321D01*
X0513842Y0029260D01*
X0513896Y0029196D01*
X0513948Y0029130D01*
X0513996Y0029062D01*
X0514041Y0028991D01*
X0514082Y0028918D01*
X0514121Y0028844D01*
X0514155Y0028768D01*
X0514186Y0028690D01*
X0514213Y0028611D01*
X0514237Y0028530D01*
X0514256Y0028449D01*
X0514272Y0028367D01*
X0514284Y0028284D01*
X0514292Y0028200D01*
X0514296Y0028117D01*
X0514296Y0028033D01*
X0514292Y0027950D01*
X0514284Y0027866D01*
X0514272Y0027783D01*
X0514256Y0027701D01*
X0514237Y0027620D01*
X0514213Y0027539D01*
X0514186Y0027460D01*
X0514155Y0027382D01*
X0514121Y0027306D01*
X0514082Y0027232D01*
X0514041Y0027159D01*
X0513996Y0027088D01*
X0513948Y0027020D01*
X0513896Y0026954D01*
X0513842Y0026890D01*
X0513784Y0026829D01*
X0513724Y0026771D01*
X0513661Y0026716D01*
X0513596Y0026664D01*
X0513528Y0026615D01*
X0513458Y0026569D01*
X0513386Y0026527D01*
X0513312Y0026488D01*
X0513236Y0026452D01*
X0513158Y0026420D01*
X0513080Y0026392D01*
X0512999Y0026368D01*
X0512918Y0026347D01*
X0512836Y0026331D01*
X0512754Y0026318D01*
X0512670Y0026309D01*
X0512587Y0026304D01*
X0512503Y0026303D01*
X0512419Y0026306D01*
X0512336Y0026313D01*
X0512253Y0026324D01*
X0512171Y0026339D01*
X0512089Y0026357D01*
X0512008Y0026380D01*
X0511929Y0026406D01*
X0511851Y0026436D01*
X0511774Y0026470D01*
X0511699Y0026507D01*
X0511626Y0026547D01*
X0511555Y0026592D01*
X0511486Y0026639D01*
X0511419Y0026690D01*
X0511355Y0026743D01*
X0511293Y0026800D01*
X0511235Y0026860D01*
X0511179Y0026922D01*
X0511126Y0026987D01*
X0511076Y0027054D01*
X0511029Y0027123D01*
X0510986Y0027195D01*
X0510946Y0027269D01*
X0510910Y0027344D01*
X0510877Y0027421D01*
X0510848Y0027500D01*
X0510823Y0027579D01*
X0510801Y0027660D01*
X0510784Y0027742D01*
X0510770Y0027825D01*
X0510760Y0027908D01*
X0510754Y0027991D01*
X0510752Y0028075D01*
X0528074Y0028075D02*
X0528076Y0028159D01*
X0528082Y0028242D01*
X0528092Y0028325D01*
X0528106Y0028408D01*
X0528123Y0028490D01*
X0528145Y0028571D01*
X0528170Y0028650D01*
X0528199Y0028729D01*
X0528232Y0028806D01*
X0528268Y0028881D01*
X0528308Y0028955D01*
X0528351Y0029027D01*
X0528398Y0029096D01*
X0528448Y0029163D01*
X0528501Y0029228D01*
X0528557Y0029290D01*
X0528615Y0029350D01*
X0528677Y0029407D01*
X0528741Y0029460D01*
X0528808Y0029511D01*
X0528877Y0029558D01*
X0528948Y0029603D01*
X0529021Y0029643D01*
X0529096Y0029680D01*
X0529173Y0029714D01*
X0529251Y0029744D01*
X0529330Y0029770D01*
X0529411Y0029793D01*
X0529493Y0029811D01*
X0529575Y0029826D01*
X0529658Y0029837D01*
X0529741Y0029844D01*
X0529825Y0029847D01*
X0529909Y0029846D01*
X0529992Y0029841D01*
X0530076Y0029832D01*
X0530158Y0029819D01*
X0530240Y0029803D01*
X0530321Y0029782D01*
X0530402Y0029758D01*
X0530480Y0029730D01*
X0530558Y0029698D01*
X0530634Y0029662D01*
X0530708Y0029623D01*
X0530780Y0029581D01*
X0530850Y0029535D01*
X0530918Y0029486D01*
X0530983Y0029434D01*
X0531046Y0029379D01*
X0531106Y0029321D01*
X0531164Y0029260D01*
X0531218Y0029196D01*
X0531270Y0029130D01*
X0531318Y0029062D01*
X0531363Y0028991D01*
X0531404Y0028918D01*
X0531443Y0028844D01*
X0531477Y0028768D01*
X0531508Y0028690D01*
X0531535Y0028611D01*
X0531559Y0028530D01*
X0531578Y0028449D01*
X0531594Y0028367D01*
X0531606Y0028284D01*
X0531614Y0028200D01*
X0531618Y0028117D01*
X0531618Y0028033D01*
X0531614Y0027950D01*
X0531606Y0027866D01*
X0531594Y0027783D01*
X0531578Y0027701D01*
X0531559Y0027620D01*
X0531535Y0027539D01*
X0531508Y0027460D01*
X0531477Y0027382D01*
X0531443Y0027306D01*
X0531404Y0027232D01*
X0531363Y0027159D01*
X0531318Y0027088D01*
X0531270Y0027020D01*
X0531218Y0026954D01*
X0531164Y0026890D01*
X0531106Y0026829D01*
X0531046Y0026771D01*
X0530983Y0026716D01*
X0530918Y0026664D01*
X0530850Y0026615D01*
X0530780Y0026569D01*
X0530708Y0026527D01*
X0530634Y0026488D01*
X0530558Y0026452D01*
X0530480Y0026420D01*
X0530402Y0026392D01*
X0530321Y0026368D01*
X0530240Y0026347D01*
X0530158Y0026331D01*
X0530076Y0026318D01*
X0529992Y0026309D01*
X0529909Y0026304D01*
X0529825Y0026303D01*
X0529741Y0026306D01*
X0529658Y0026313D01*
X0529575Y0026324D01*
X0529493Y0026339D01*
X0529411Y0026357D01*
X0529330Y0026380D01*
X0529251Y0026406D01*
X0529173Y0026436D01*
X0529096Y0026470D01*
X0529021Y0026507D01*
X0528948Y0026547D01*
X0528877Y0026592D01*
X0528808Y0026639D01*
X0528741Y0026690D01*
X0528677Y0026743D01*
X0528615Y0026800D01*
X0528557Y0026860D01*
X0528501Y0026922D01*
X0528448Y0026987D01*
X0528398Y0027054D01*
X0528351Y0027123D01*
X0528308Y0027195D01*
X0528268Y0027269D01*
X0528232Y0027344D01*
X0528199Y0027421D01*
X0528170Y0027500D01*
X0528145Y0027579D01*
X0528123Y0027660D01*
X0528106Y0027742D01*
X0528092Y0027825D01*
X0528082Y0027908D01*
X0528076Y0027991D01*
X0528074Y0028075D01*
X0474925Y0043232D02*
X0474927Y0043340D01*
X0474933Y0043449D01*
X0474943Y0043557D01*
X0474957Y0043664D01*
X0474975Y0043771D01*
X0474996Y0043878D01*
X0475022Y0043983D01*
X0475052Y0044088D01*
X0475085Y0044191D01*
X0475122Y0044293D01*
X0475163Y0044393D01*
X0475207Y0044492D01*
X0475256Y0044590D01*
X0475307Y0044685D01*
X0475362Y0044778D01*
X0475421Y0044870D01*
X0475483Y0044959D01*
X0475548Y0045046D01*
X0475616Y0045130D01*
X0475687Y0045212D01*
X0475761Y0045291D01*
X0475838Y0045367D01*
X0475918Y0045441D01*
X0476001Y0045511D01*
X0476086Y0045579D01*
X0476173Y0045643D01*
X0476263Y0045704D01*
X0476355Y0045762D01*
X0476449Y0045816D01*
X0476545Y0045867D01*
X0476642Y0045914D01*
X0476742Y0045958D01*
X0476843Y0045998D01*
X0476945Y0046034D01*
X0477048Y0046066D01*
X0477153Y0046095D01*
X0477259Y0046119D01*
X0477365Y0046140D01*
X0477472Y0046157D01*
X0477580Y0046170D01*
X0477688Y0046179D01*
X0477797Y0046184D01*
X0477905Y0046185D01*
X0478014Y0046182D01*
X0478122Y0046175D01*
X0478230Y0046164D01*
X0478337Y0046149D01*
X0478444Y0046130D01*
X0478550Y0046107D01*
X0478655Y0046081D01*
X0478760Y0046050D01*
X0478862Y0046016D01*
X0478964Y0045978D01*
X0479064Y0045936D01*
X0479163Y0045891D01*
X0479260Y0045842D01*
X0479354Y0045789D01*
X0479447Y0045733D01*
X0479538Y0045674D01*
X0479627Y0045611D01*
X0479713Y0045546D01*
X0479797Y0045477D01*
X0479878Y0045405D01*
X0479956Y0045330D01*
X0480032Y0045252D01*
X0480105Y0045171D01*
X0480175Y0045088D01*
X0480241Y0045003D01*
X0480305Y0044915D01*
X0480365Y0044824D01*
X0480422Y0044732D01*
X0480475Y0044637D01*
X0480525Y0044541D01*
X0480571Y0044443D01*
X0480614Y0044343D01*
X0480653Y0044242D01*
X0480688Y0044139D01*
X0480720Y0044036D01*
X0480747Y0043931D01*
X0480771Y0043825D01*
X0480791Y0043718D01*
X0480807Y0043611D01*
X0480819Y0043503D01*
X0480827Y0043395D01*
X0480831Y0043286D01*
X0480831Y0043178D01*
X0480827Y0043069D01*
X0480819Y0042961D01*
X0480807Y0042853D01*
X0480791Y0042746D01*
X0480771Y0042639D01*
X0480747Y0042533D01*
X0480720Y0042428D01*
X0480688Y0042325D01*
X0480653Y0042222D01*
X0480614Y0042121D01*
X0480571Y0042021D01*
X0480525Y0041923D01*
X0480475Y0041827D01*
X0480422Y0041732D01*
X0480365Y0041640D01*
X0480305Y0041549D01*
X0480241Y0041461D01*
X0480175Y0041376D01*
X0480105Y0041293D01*
X0480032Y0041212D01*
X0479956Y0041134D01*
X0479878Y0041059D01*
X0479797Y0040987D01*
X0479713Y0040918D01*
X0479627Y0040853D01*
X0479538Y0040790D01*
X0479447Y0040731D01*
X0479355Y0040675D01*
X0479260Y0040622D01*
X0479163Y0040573D01*
X0479064Y0040528D01*
X0478964Y0040486D01*
X0478862Y0040448D01*
X0478760Y0040414D01*
X0478655Y0040383D01*
X0478550Y0040357D01*
X0478444Y0040334D01*
X0478337Y0040315D01*
X0478230Y0040300D01*
X0478122Y0040289D01*
X0478014Y0040282D01*
X0477905Y0040279D01*
X0477797Y0040280D01*
X0477688Y0040285D01*
X0477580Y0040294D01*
X0477472Y0040307D01*
X0477365Y0040324D01*
X0477259Y0040345D01*
X0477153Y0040369D01*
X0477048Y0040398D01*
X0476945Y0040430D01*
X0476843Y0040466D01*
X0476742Y0040506D01*
X0476642Y0040550D01*
X0476545Y0040597D01*
X0476449Y0040648D01*
X0476355Y0040702D01*
X0476263Y0040760D01*
X0476173Y0040821D01*
X0476086Y0040885D01*
X0476001Y0040953D01*
X0475918Y0041023D01*
X0475838Y0041097D01*
X0475761Y0041173D01*
X0475687Y0041252D01*
X0475616Y0041334D01*
X0475548Y0041418D01*
X0475483Y0041505D01*
X0475421Y0041594D01*
X0475362Y0041686D01*
X0475307Y0041779D01*
X0475256Y0041874D01*
X0475207Y0041972D01*
X0475163Y0042071D01*
X0475122Y0042171D01*
X0475085Y0042273D01*
X0475052Y0042376D01*
X0475022Y0042481D01*
X0474996Y0042586D01*
X0474975Y0042693D01*
X0474957Y0042800D01*
X0474943Y0042907D01*
X0474933Y0043015D01*
X0474927Y0043124D01*
X0474925Y0043232D01*
M02*
