G75*
G70*
%OFA0B0*%
%FSLAX24Y24*%
%IPPOS*%
%LPD*%
%AMOC8*
5,1,8,0,0,1.08239X$1,22.5*
%
%ADD10C,0.0000*%
%ADD11C,0.0060*%
%ADD12R,0.0003X0.0003*%
%ADD13R,0.0008X0.0003*%
%ADD14R,0.0005X0.0003*%
%ADD15R,0.0015X0.0003*%
%ADD16R,0.0020X0.0003*%
%ADD17R,0.0010X0.0003*%
%ADD18R,0.0018X0.0003*%
%ADD19R,0.0067X0.0003*%
%ADD20R,0.0013X0.0003*%
%ADD21R,0.0045X0.0003*%
%ADD22R,0.0077X0.0003*%
%ADD23R,0.0030X0.0003*%
%ADD24R,0.0032X0.0003*%
%ADD25R,0.0022X0.0003*%
%ADD26R,0.0127X0.0003*%
%ADD27R,0.0140X0.0003*%
%ADD28R,0.0025X0.0003*%
%ADD29R,0.0043X0.0003*%
%ADD30R,0.0053X0.0003*%
%ADD31R,0.0088X0.0003*%
%ADD32R,0.0035X0.0003*%
%ADD33R,0.0055X0.0003*%
%ADD34R,0.0040X0.0003*%
%ADD35R,0.0080X0.0003*%
%ADD36R,0.0065X0.0003*%
%ADD37R,0.0090X0.0003*%
%ADD38R,0.0143X0.0003*%
%ADD39R,0.0248X0.0003*%
%ADD40R,0.0293X0.0003*%
%ADD41R,0.0257X0.0003*%
%ADD42R,0.0037X0.0003*%
%ADD43R,0.0262X0.0003*%
%ADD44R,0.0027X0.0003*%
%ADD45R,0.0280X0.0003*%
%ADD46R,0.0070X0.0003*%
%ADD47R,0.0440X0.0003*%
%ADD48R,0.0315X0.0003*%
%ADD49R,0.0085X0.0003*%
%ADD50R,0.0330X0.0003*%
%ADD51R,0.0323X0.0003*%
%ADD52R,0.0107X0.0003*%
%ADD53R,0.0057X0.0003*%
%ADD54R,0.0490X0.0003*%
%ADD55R,0.0360X0.0003*%
%ADD56R,0.0512X0.0003*%
%ADD57R,0.0390X0.0003*%
%ADD58R,0.0565X0.0003*%
%ADD59R,0.0325X0.0003*%
%ADD60R,0.0168X0.0003*%
%ADD61R,0.0307X0.0003*%
%ADD62R,0.0152X0.0003*%
%ADD63R,0.0272X0.0003*%
%ADD64R,0.0132X0.0003*%
%ADD65R,0.0147X0.0003*%
%ADD66R,0.0243X0.0003*%
%ADD67R,0.0125X0.0003*%
%ADD68R,0.0240X0.0003*%
%ADD69R,0.0130X0.0003*%
%ADD70R,0.0225X0.0003*%
%ADD71R,0.0083X0.0003*%
%ADD72R,0.0222X0.0003*%
%ADD73R,0.0217X0.0003*%
%ADD74R,0.0120X0.0003*%
%ADD75R,0.0215X0.0003*%
%ADD76R,0.0118X0.0003*%
%ADD77R,0.0205X0.0003*%
%ADD78R,0.0103X0.0003*%
%ADD79R,0.0210X0.0003*%
%ADD80R,0.0097X0.0003*%
%ADD81R,0.0198X0.0003*%
%ADD82R,0.0100X0.0003*%
%ADD83R,0.0190X0.0003*%
%ADD84R,0.0187X0.0003*%
%ADD85R,0.0192X0.0003*%
%ADD86R,0.0170X0.0003*%
%ADD87R,0.0173X0.0003*%
%ADD88R,0.0182X0.0003*%
%ADD89R,0.0180X0.0003*%
%ADD90R,0.0047X0.0003*%
%ADD91R,0.0165X0.0003*%
%ADD92R,0.0163X0.0003*%
%ADD93R,0.0160X0.0003*%
%ADD94R,0.0158X0.0003*%
%ADD95R,0.0155X0.0003*%
%ADD96R,0.0092X0.0003*%
%ADD97R,0.0150X0.0003*%
%ADD98R,0.0105X0.0003*%
%ADD99R,0.0115X0.0003*%
%ADD100R,0.0145X0.0003*%
%ADD101R,0.0138X0.0003*%
%ADD102R,0.0135X0.0003*%
%ADD103R,0.0075X0.0003*%
%ADD104R,0.0063X0.0003*%
%ADD105R,0.0060X0.0003*%
%ADD106R,0.0050X0.0003*%
%ADD107R,0.0123X0.0003*%
%ADD108R,0.0112X0.0003*%
%ADD109R,0.0110X0.0003*%
%ADD110R,0.0073X0.0003*%
%ADD111R,0.0095X0.0003*%
%ADD112R,0.0185X0.0003*%
%ADD113R,0.0208X0.0003*%
%ADD114R,0.0235X0.0003*%
%ADD115R,0.0260X0.0003*%
%ADD116R,0.0267X0.0003*%
%ADD117R,0.0283X0.0003*%
%ADD118R,0.0295X0.0003*%
%ADD119R,0.0302X0.0003*%
%ADD120R,0.0320X0.0003*%
%ADD121R,0.0333X0.0003*%
%ADD122R,0.0338X0.0003*%
%ADD123R,0.0343X0.0003*%
%ADD124R,0.0350X0.0003*%
%ADD125R,0.0355X0.0003*%
%ADD126R,0.0365X0.0003*%
%ADD127R,0.0370X0.0003*%
%ADD128R,0.0375X0.0003*%
%ADD129R,0.0380X0.0003*%
%ADD130R,0.0382X0.0003*%
%ADD131R,0.0393X0.0003*%
%ADD132R,0.0398X0.0003*%
%ADD133R,0.0403X0.0003*%
%ADD134R,0.0405X0.0003*%
%ADD135R,0.0415X0.0003*%
%ADD136R,0.0177X0.0003*%
%ADD137R,0.0175X0.0003*%
%ADD138R,0.0195X0.0003*%
%ADD139R,0.0200X0.0003*%
%ADD140R,0.0203X0.0003*%
%ADD141R,0.0213X0.0003*%
%ADD142R,0.0220X0.0003*%
%ADD143R,0.0227X0.0003*%
%ADD144R,0.0230X0.0003*%
%ADD145R,0.0232X0.0003*%
%ADD146R,0.0238X0.0003*%
%ADD147R,0.0245X0.0003*%
%ADD148R,0.0250X0.0003*%
%ADD149R,0.0253X0.0003*%
%ADD150R,0.0255X0.0003*%
%ADD151R,0.0305X0.0003*%
%ADD152R,0.0318X0.0003*%
%ADD153R,0.0328X0.0003*%
%ADD154R,0.0335X0.0003*%
%ADD155R,0.0340X0.0003*%
%ADD156R,0.0352X0.0003*%
%ADD157R,0.0387X0.0003*%
%ADD158R,0.0410X0.0003*%
%ADD159R,0.0413X0.0003*%
%ADD160R,0.0430X0.0003*%
%ADD161R,0.0432X0.0003*%
%ADD162R,0.0428X0.0003*%
%ADD163R,0.0420X0.0003*%
%ADD164R,0.0435X0.0003*%
%ADD165R,0.0425X0.0003*%
%ADD166R,0.0423X0.0003*%
%ADD167R,0.0418X0.0003*%
%ADD168R,0.0372X0.0003*%
%ADD169R,0.0362X0.0003*%
%ADD170R,0.0348X0.0003*%
%ADD171R,0.0345X0.0003*%
%ADD172R,0.0310X0.0003*%
%ADD173R,0.0300X0.0003*%
%ADD174R,0.0297X0.0003*%
%ADD175R,0.0285X0.0003*%
%ADD176R,0.0278X0.0003*%
%ADD177R,0.0265X0.0003*%
%ADD178R,0.0050X0.0010*%
%ADD179R,0.0040X0.0010*%
%ADD180R,0.0130X0.0010*%
%ADD181R,0.0070X0.0010*%
%ADD182R,0.0180X0.0010*%
%ADD183R,0.0080X0.0010*%
%ADD184R,0.0210X0.0010*%
%ADD185R,0.0090X0.0010*%
%ADD186R,0.0060X0.0010*%
%ADD187R,0.0010X0.0010*%
%ADD188R,0.0030X0.0010*%
%ADD189R,0.0020X0.0010*%
%ADD190R,0.0220X0.0010*%
%ADD191R,0.0100X0.0010*%
%ADD192R,0.0110X0.0010*%
%ADD193R,0.0120X0.0010*%
%ADD194R,0.0140X0.0010*%
%ADD195R,0.0150X0.0010*%
%ADD196R,0.0200X0.0010*%
%ADD197R,0.0170X0.0010*%
%ADD198R,0.0190X0.0010*%
%ADD199R,0.0160X0.0010*%
D10*
X001725Y000937D02*
X077315Y000937D01*
X076685Y002512D02*
X076687Y002562D01*
X076693Y002612D01*
X076703Y002661D01*
X076717Y002709D01*
X076734Y002756D01*
X076755Y002801D01*
X076780Y002845D01*
X076808Y002886D01*
X076840Y002925D01*
X076874Y002962D01*
X076911Y002996D01*
X076951Y003026D01*
X076993Y003053D01*
X077037Y003077D01*
X077083Y003098D01*
X077130Y003114D01*
X077178Y003127D01*
X077228Y003136D01*
X077277Y003141D01*
X077328Y003142D01*
X077378Y003139D01*
X077427Y003132D01*
X077476Y003121D01*
X077524Y003106D01*
X077570Y003088D01*
X077615Y003066D01*
X077658Y003040D01*
X077699Y003011D01*
X077738Y002979D01*
X077774Y002944D01*
X077806Y002906D01*
X077836Y002866D01*
X077863Y002823D01*
X077886Y002779D01*
X077905Y002733D01*
X077921Y002685D01*
X077933Y002636D01*
X077941Y002587D01*
X077945Y002537D01*
X077945Y002487D01*
X077941Y002437D01*
X077933Y002388D01*
X077921Y002339D01*
X077905Y002291D01*
X077886Y002245D01*
X077863Y002201D01*
X077836Y002158D01*
X077806Y002118D01*
X077774Y002080D01*
X077738Y002045D01*
X077699Y002013D01*
X077658Y001984D01*
X077615Y001958D01*
X077570Y001936D01*
X077524Y001918D01*
X077476Y001903D01*
X077427Y001892D01*
X077378Y001885D01*
X077328Y001882D01*
X077277Y001883D01*
X077228Y001888D01*
X077178Y001897D01*
X077130Y001910D01*
X077083Y001926D01*
X077037Y001947D01*
X076993Y001971D01*
X076951Y001998D01*
X076911Y002028D01*
X076874Y002062D01*
X076840Y002099D01*
X076808Y002138D01*
X076780Y002179D01*
X076755Y002223D01*
X076734Y002268D01*
X076717Y002315D01*
X076703Y002363D01*
X076693Y002412D01*
X076687Y002462D01*
X076685Y002512D01*
X077315Y000937D02*
X077392Y000939D01*
X077469Y000945D01*
X077546Y000954D01*
X077622Y000967D01*
X077698Y000984D01*
X077772Y001005D01*
X077846Y001029D01*
X077918Y001057D01*
X077988Y001088D01*
X078057Y001123D01*
X078125Y001161D01*
X078190Y001202D01*
X078253Y001247D01*
X078314Y001295D01*
X078373Y001345D01*
X078429Y001398D01*
X078482Y001454D01*
X078532Y001513D01*
X078580Y001574D01*
X078625Y001637D01*
X078666Y001702D01*
X078704Y001770D01*
X078739Y001839D01*
X078770Y001909D01*
X078798Y001981D01*
X078822Y002055D01*
X078843Y002129D01*
X078860Y002205D01*
X078873Y002281D01*
X078882Y002358D01*
X078888Y002435D01*
X078890Y002512D01*
X078890Y019048D01*
X076685Y019048D02*
X076687Y019098D01*
X076693Y019148D01*
X076703Y019197D01*
X076717Y019245D01*
X076734Y019292D01*
X076755Y019337D01*
X076780Y019381D01*
X076808Y019422D01*
X076840Y019461D01*
X076874Y019498D01*
X076911Y019532D01*
X076951Y019562D01*
X076993Y019589D01*
X077037Y019613D01*
X077083Y019634D01*
X077130Y019650D01*
X077178Y019663D01*
X077228Y019672D01*
X077277Y019677D01*
X077328Y019678D01*
X077378Y019675D01*
X077427Y019668D01*
X077476Y019657D01*
X077524Y019642D01*
X077570Y019624D01*
X077615Y019602D01*
X077658Y019576D01*
X077699Y019547D01*
X077738Y019515D01*
X077774Y019480D01*
X077806Y019442D01*
X077836Y019402D01*
X077863Y019359D01*
X077886Y019315D01*
X077905Y019269D01*
X077921Y019221D01*
X077933Y019172D01*
X077941Y019123D01*
X077945Y019073D01*
X077945Y019023D01*
X077941Y018973D01*
X077933Y018924D01*
X077921Y018875D01*
X077905Y018827D01*
X077886Y018781D01*
X077863Y018737D01*
X077836Y018694D01*
X077806Y018654D01*
X077774Y018616D01*
X077738Y018581D01*
X077699Y018549D01*
X077658Y018520D01*
X077615Y018494D01*
X077570Y018472D01*
X077524Y018454D01*
X077476Y018439D01*
X077427Y018428D01*
X077378Y018421D01*
X077328Y018418D01*
X077277Y018419D01*
X077228Y018424D01*
X077178Y018433D01*
X077130Y018446D01*
X077083Y018462D01*
X077037Y018483D01*
X076993Y018507D01*
X076951Y018534D01*
X076911Y018564D01*
X076874Y018598D01*
X076840Y018635D01*
X076808Y018674D01*
X076780Y018715D01*
X076755Y018759D01*
X076734Y018804D01*
X076717Y018851D01*
X076703Y018899D01*
X076693Y018948D01*
X076687Y018998D01*
X076685Y019048D01*
X077315Y020623D02*
X077392Y020621D01*
X077469Y020615D01*
X077546Y020606D01*
X077622Y020593D01*
X077698Y020576D01*
X077772Y020555D01*
X077846Y020531D01*
X077918Y020503D01*
X077988Y020472D01*
X078057Y020437D01*
X078125Y020399D01*
X078190Y020358D01*
X078253Y020313D01*
X078314Y020265D01*
X078373Y020215D01*
X078429Y020162D01*
X078482Y020106D01*
X078532Y020047D01*
X078580Y019986D01*
X078625Y019923D01*
X078666Y019858D01*
X078704Y019790D01*
X078739Y019721D01*
X078770Y019651D01*
X078798Y019579D01*
X078822Y019505D01*
X078843Y019431D01*
X078860Y019355D01*
X078873Y019279D01*
X078882Y019202D01*
X078888Y019125D01*
X078890Y019048D01*
X077315Y020622D02*
X001725Y020622D01*
X001095Y019048D02*
X001097Y019098D01*
X001103Y019148D01*
X001113Y019197D01*
X001127Y019245D01*
X001144Y019292D01*
X001165Y019337D01*
X001190Y019381D01*
X001218Y019422D01*
X001250Y019461D01*
X001284Y019498D01*
X001321Y019532D01*
X001361Y019562D01*
X001403Y019589D01*
X001447Y019613D01*
X001493Y019634D01*
X001540Y019650D01*
X001588Y019663D01*
X001638Y019672D01*
X001687Y019677D01*
X001738Y019678D01*
X001788Y019675D01*
X001837Y019668D01*
X001886Y019657D01*
X001934Y019642D01*
X001980Y019624D01*
X002025Y019602D01*
X002068Y019576D01*
X002109Y019547D01*
X002148Y019515D01*
X002184Y019480D01*
X002216Y019442D01*
X002246Y019402D01*
X002273Y019359D01*
X002296Y019315D01*
X002315Y019269D01*
X002331Y019221D01*
X002343Y019172D01*
X002351Y019123D01*
X002355Y019073D01*
X002355Y019023D01*
X002351Y018973D01*
X002343Y018924D01*
X002331Y018875D01*
X002315Y018827D01*
X002296Y018781D01*
X002273Y018737D01*
X002246Y018694D01*
X002216Y018654D01*
X002184Y018616D01*
X002148Y018581D01*
X002109Y018549D01*
X002068Y018520D01*
X002025Y018494D01*
X001980Y018472D01*
X001934Y018454D01*
X001886Y018439D01*
X001837Y018428D01*
X001788Y018421D01*
X001738Y018418D01*
X001687Y018419D01*
X001638Y018424D01*
X001588Y018433D01*
X001540Y018446D01*
X001493Y018462D01*
X001447Y018483D01*
X001403Y018507D01*
X001361Y018534D01*
X001321Y018564D01*
X001284Y018598D01*
X001250Y018635D01*
X001218Y018674D01*
X001190Y018715D01*
X001165Y018759D01*
X001144Y018804D01*
X001127Y018851D01*
X001113Y018899D01*
X001103Y018948D01*
X001097Y018998D01*
X001095Y019048D01*
X000150Y019048D02*
X000152Y019125D01*
X000158Y019202D01*
X000167Y019279D01*
X000180Y019355D01*
X000197Y019431D01*
X000218Y019505D01*
X000242Y019579D01*
X000270Y019651D01*
X000301Y019721D01*
X000336Y019790D01*
X000374Y019858D01*
X000415Y019923D01*
X000460Y019986D01*
X000508Y020047D01*
X000558Y020106D01*
X000611Y020162D01*
X000667Y020215D01*
X000726Y020265D01*
X000787Y020313D01*
X000850Y020358D01*
X000915Y020399D01*
X000983Y020437D01*
X001052Y020472D01*
X001122Y020503D01*
X001194Y020531D01*
X001268Y020555D01*
X001342Y020576D01*
X001418Y020593D01*
X001494Y020606D01*
X001571Y020615D01*
X001648Y020621D01*
X001725Y020623D01*
X000150Y019048D02*
X000150Y002512D01*
X001095Y002512D02*
X001097Y002562D01*
X001103Y002612D01*
X001113Y002661D01*
X001127Y002709D01*
X001144Y002756D01*
X001165Y002801D01*
X001190Y002845D01*
X001218Y002886D01*
X001250Y002925D01*
X001284Y002962D01*
X001321Y002996D01*
X001361Y003026D01*
X001403Y003053D01*
X001447Y003077D01*
X001493Y003098D01*
X001540Y003114D01*
X001588Y003127D01*
X001638Y003136D01*
X001687Y003141D01*
X001738Y003142D01*
X001788Y003139D01*
X001837Y003132D01*
X001886Y003121D01*
X001934Y003106D01*
X001980Y003088D01*
X002025Y003066D01*
X002068Y003040D01*
X002109Y003011D01*
X002148Y002979D01*
X002184Y002944D01*
X002216Y002906D01*
X002246Y002866D01*
X002273Y002823D01*
X002296Y002779D01*
X002315Y002733D01*
X002331Y002685D01*
X002343Y002636D01*
X002351Y002587D01*
X002355Y002537D01*
X002355Y002487D01*
X002351Y002437D01*
X002343Y002388D01*
X002331Y002339D01*
X002315Y002291D01*
X002296Y002245D01*
X002273Y002201D01*
X002246Y002158D01*
X002216Y002118D01*
X002184Y002080D01*
X002148Y002045D01*
X002109Y002013D01*
X002068Y001984D01*
X002025Y001958D01*
X001980Y001936D01*
X001934Y001918D01*
X001886Y001903D01*
X001837Y001892D01*
X001788Y001885D01*
X001738Y001882D01*
X001687Y001883D01*
X001638Y001888D01*
X001588Y001897D01*
X001540Y001910D01*
X001493Y001926D01*
X001447Y001947D01*
X001403Y001971D01*
X001361Y001998D01*
X001321Y002028D01*
X001284Y002062D01*
X001250Y002099D01*
X001218Y002138D01*
X001190Y002179D01*
X001165Y002223D01*
X001144Y002268D01*
X001127Y002315D01*
X001113Y002363D01*
X001103Y002412D01*
X001097Y002462D01*
X001095Y002512D01*
X000150Y002512D02*
X000152Y002435D01*
X000158Y002358D01*
X000167Y002281D01*
X000180Y002205D01*
X000197Y002129D01*
X000218Y002055D01*
X000242Y001981D01*
X000270Y001909D01*
X000301Y001839D01*
X000336Y001770D01*
X000374Y001702D01*
X000415Y001637D01*
X000460Y001574D01*
X000508Y001513D01*
X000558Y001454D01*
X000611Y001398D01*
X000667Y001345D01*
X000726Y001295D01*
X000787Y001247D01*
X000850Y001202D01*
X000915Y001161D01*
X000983Y001123D01*
X001052Y001088D01*
X001122Y001057D01*
X001194Y001029D01*
X001268Y001005D01*
X001342Y000984D01*
X001418Y000967D01*
X001494Y000954D01*
X001571Y000945D01*
X001648Y000939D01*
X001725Y000937D01*
X063349Y010790D02*
X063351Y010817D01*
X063357Y010844D01*
X063366Y010870D01*
X063379Y010894D01*
X063395Y010917D01*
X063414Y010936D01*
X063436Y010953D01*
X063460Y010967D01*
X063485Y010977D01*
X063512Y010984D01*
X063539Y010987D01*
X063567Y010986D01*
X063594Y010981D01*
X063620Y010973D01*
X063644Y010961D01*
X063667Y010945D01*
X063688Y010927D01*
X063705Y010906D01*
X063720Y010882D01*
X063731Y010857D01*
X063739Y010831D01*
X063743Y010804D01*
X063743Y010776D01*
X063739Y010749D01*
X063731Y010723D01*
X063720Y010698D01*
X063705Y010674D01*
X063688Y010653D01*
X063667Y010635D01*
X063645Y010619D01*
X063620Y010607D01*
X063594Y010599D01*
X063567Y010594D01*
X063539Y010593D01*
X063512Y010596D01*
X063485Y010603D01*
X063460Y010613D01*
X063436Y010627D01*
X063414Y010644D01*
X063395Y010663D01*
X063379Y010686D01*
X063366Y010710D01*
X063357Y010736D01*
X063351Y010763D01*
X063349Y010790D01*
X065378Y012878D02*
X065380Y012909D01*
X065386Y012940D01*
X065395Y012970D01*
X065408Y012999D01*
X065425Y013026D01*
X065445Y013050D01*
X065467Y013072D01*
X065493Y013091D01*
X065520Y013107D01*
X065549Y013119D01*
X065579Y013128D01*
X065610Y013133D01*
X065642Y013134D01*
X065673Y013131D01*
X065704Y013124D01*
X065734Y013114D01*
X065762Y013100D01*
X065788Y013082D01*
X065812Y013062D01*
X065833Y013038D01*
X065852Y013013D01*
X065867Y012985D01*
X065878Y012956D01*
X065886Y012925D01*
X065890Y012894D01*
X065890Y012862D01*
X065886Y012831D01*
X065878Y012800D01*
X065867Y012771D01*
X065852Y012743D01*
X065833Y012718D01*
X065812Y012694D01*
X065788Y012674D01*
X065762Y012656D01*
X065734Y012642D01*
X065704Y012632D01*
X065673Y012625D01*
X065642Y012622D01*
X065610Y012623D01*
X065579Y012628D01*
X065549Y012637D01*
X065520Y012649D01*
X065493Y012665D01*
X065467Y012684D01*
X065445Y012706D01*
X065425Y012730D01*
X065408Y012757D01*
X065395Y012786D01*
X065386Y012816D01*
X065380Y012847D01*
X065378Y012878D01*
X067178Y004323D02*
X067180Y004357D01*
X067186Y004391D01*
X067196Y004424D01*
X067209Y004455D01*
X067227Y004485D01*
X067247Y004513D01*
X067271Y004538D01*
X067297Y004560D01*
X067325Y004578D01*
X067356Y004594D01*
X067388Y004606D01*
X067422Y004614D01*
X067456Y004618D01*
X067490Y004618D01*
X067524Y004614D01*
X067558Y004606D01*
X067590Y004594D01*
X067620Y004578D01*
X067649Y004560D01*
X067675Y004538D01*
X067699Y004513D01*
X067719Y004485D01*
X067737Y004455D01*
X067750Y004424D01*
X067760Y004391D01*
X067766Y004357D01*
X067768Y004323D01*
X067766Y004289D01*
X067760Y004255D01*
X067750Y004222D01*
X067737Y004191D01*
X067719Y004161D01*
X067699Y004133D01*
X067675Y004108D01*
X067649Y004086D01*
X067621Y004068D01*
X067590Y004052D01*
X067558Y004040D01*
X067524Y004032D01*
X067490Y004028D01*
X067456Y004028D01*
X067422Y004032D01*
X067388Y004040D01*
X067356Y004052D01*
X067325Y004068D01*
X067297Y004086D01*
X067271Y004108D01*
X067247Y004133D01*
X067227Y004161D01*
X067209Y004191D01*
X067196Y004222D01*
X067186Y004255D01*
X067180Y004289D01*
X067178Y004323D01*
X070760Y002807D02*
X070762Y002833D01*
X070768Y002859D01*
X070778Y002884D01*
X070791Y002907D01*
X070807Y002927D01*
X070827Y002945D01*
X070849Y002960D01*
X070872Y002972D01*
X070898Y002980D01*
X070924Y002984D01*
X070950Y002984D01*
X070976Y002980D01*
X071002Y002972D01*
X071026Y002960D01*
X071047Y002945D01*
X071067Y002927D01*
X071083Y002907D01*
X071096Y002884D01*
X071106Y002859D01*
X071112Y002833D01*
X071114Y002807D01*
X071112Y002781D01*
X071106Y002755D01*
X071096Y002730D01*
X071083Y002707D01*
X071067Y002687D01*
X071047Y002669D01*
X071025Y002654D01*
X071002Y002642D01*
X070976Y002634D01*
X070950Y002630D01*
X070924Y002630D01*
X070898Y002634D01*
X070872Y002642D01*
X070848Y002654D01*
X070827Y002669D01*
X070807Y002687D01*
X070791Y002707D01*
X070778Y002730D01*
X070768Y002755D01*
X070762Y002781D01*
X070760Y002807D01*
X072493Y002807D02*
X072495Y002833D01*
X072501Y002859D01*
X072511Y002884D01*
X072524Y002907D01*
X072540Y002927D01*
X072560Y002945D01*
X072582Y002960D01*
X072605Y002972D01*
X072631Y002980D01*
X072657Y002984D01*
X072683Y002984D01*
X072709Y002980D01*
X072735Y002972D01*
X072759Y002960D01*
X072780Y002945D01*
X072800Y002927D01*
X072816Y002907D01*
X072829Y002884D01*
X072839Y002859D01*
X072845Y002833D01*
X072847Y002807D01*
X072845Y002781D01*
X072839Y002755D01*
X072829Y002730D01*
X072816Y002707D01*
X072800Y002687D01*
X072780Y002669D01*
X072758Y002654D01*
X072735Y002642D01*
X072709Y002634D01*
X072683Y002630D01*
X072657Y002630D01*
X072631Y002634D01*
X072605Y002642D01*
X072581Y002654D01*
X072560Y002669D01*
X072540Y002687D01*
X072524Y002707D01*
X072511Y002730D01*
X072501Y002755D01*
X072495Y002781D01*
X072493Y002807D01*
X067178Y001567D02*
X067180Y001601D01*
X067186Y001635D01*
X067196Y001668D01*
X067209Y001699D01*
X067227Y001729D01*
X067247Y001757D01*
X067271Y001782D01*
X067297Y001804D01*
X067325Y001822D01*
X067356Y001838D01*
X067388Y001850D01*
X067422Y001858D01*
X067456Y001862D01*
X067490Y001862D01*
X067524Y001858D01*
X067558Y001850D01*
X067590Y001838D01*
X067620Y001822D01*
X067649Y001804D01*
X067675Y001782D01*
X067699Y001757D01*
X067719Y001729D01*
X067737Y001699D01*
X067750Y001668D01*
X067760Y001635D01*
X067766Y001601D01*
X067768Y001567D01*
X067766Y001533D01*
X067760Y001499D01*
X067750Y001466D01*
X067737Y001435D01*
X067719Y001405D01*
X067699Y001377D01*
X067675Y001352D01*
X067649Y001330D01*
X067621Y001312D01*
X067590Y001296D01*
X067558Y001284D01*
X067524Y001276D01*
X067490Y001272D01*
X067456Y001272D01*
X067422Y001276D01*
X067388Y001284D01*
X067356Y001296D01*
X067325Y001312D01*
X067297Y001330D01*
X067271Y001352D01*
X067247Y001377D01*
X067227Y001405D01*
X067209Y001435D01*
X067196Y001466D01*
X067186Y001499D01*
X067180Y001533D01*
X067178Y001567D01*
D11*
X044737Y002967D02*
X044737Y003227D01*
X044437Y003287D01*
X044387Y003267D02*
X044287Y003567D01*
X044487Y003767D01*
X044337Y003917D01*
X044037Y003767D01*
X043737Y003917D01*
X043787Y003917D01*
X043737Y004167D01*
X043487Y004167D01*
X043487Y003867D01*
X043187Y003767D01*
X042937Y003917D01*
X042787Y003817D01*
X042937Y003517D01*
X042837Y003267D01*
X042537Y003217D01*
X042537Y002967D01*
X042837Y002967D01*
X042937Y002617D01*
X042787Y002417D01*
X042937Y002267D01*
X043137Y002417D01*
X043237Y002367D01*
X043437Y002767D01*
X043237Y002967D01*
X043237Y003217D01*
X043387Y003467D01*
X043637Y003517D01*
X043937Y003417D01*
X043887Y003417D01*
X044037Y003167D01*
X043937Y002867D01*
X043837Y002767D01*
X043987Y002367D01*
X044087Y002417D01*
X044287Y002267D01*
X044437Y002417D01*
X044287Y002667D01*
X044387Y002917D01*
X044687Y003017D01*
X044687Y002967D01*
X044687Y003217D01*
X044387Y003267D01*
X044383Y003277D02*
X043970Y003277D01*
X044005Y003219D02*
X044675Y003219D01*
X044687Y003160D02*
X044034Y003160D01*
X044015Y003102D02*
X044687Y003102D01*
X044687Y003043D02*
X043995Y003043D01*
X043976Y002985D02*
X044591Y002985D01*
X044737Y002967D02*
X044437Y002917D01*
X044415Y002926D02*
X043956Y002926D01*
X043937Y002868D02*
X044367Y002868D01*
X044344Y002809D02*
X043879Y002809D01*
X043843Y002751D02*
X044320Y002751D01*
X044297Y002692D02*
X043865Y002692D01*
X043886Y002634D02*
X044306Y002634D01*
X044337Y002647D02*
X044497Y002407D01*
X044317Y002217D01*
X044077Y002387D01*
X043977Y002327D01*
X043777Y002777D01*
X043908Y002575D02*
X044342Y002575D01*
X044377Y002517D02*
X043930Y002517D01*
X043952Y002458D02*
X044412Y002458D01*
X044420Y002400D02*
X044109Y002400D01*
X044053Y002400D02*
X043974Y002400D01*
X044187Y002341D02*
X044361Y002341D01*
X044303Y002283D02*
X044265Y002283D01*
X043457Y002777D02*
X043267Y002327D01*
X043167Y002387D01*
X042927Y002217D01*
X042737Y002407D01*
X042907Y002647D01*
X042932Y002634D02*
X043370Y002634D01*
X043399Y002692D02*
X042915Y002692D01*
X042898Y002751D02*
X043429Y002751D01*
X043394Y002809D02*
X042882Y002809D01*
X042865Y002868D02*
X043336Y002868D01*
X043277Y002926D02*
X042848Y002926D01*
X042807Y002917D02*
X042507Y002967D01*
X042507Y003227D01*
X042807Y003287D01*
X042841Y003277D02*
X043273Y003277D01*
X043238Y003219D02*
X042549Y003219D01*
X042537Y003160D02*
X043237Y003160D01*
X043237Y003102D02*
X042537Y003102D01*
X042537Y003043D02*
X043237Y003043D01*
X043237Y002985D02*
X042537Y002985D01*
X042864Y003336D02*
X043308Y003336D01*
X043343Y003394D02*
X042888Y003394D01*
X042911Y003453D02*
X043378Y003453D01*
X043609Y003511D02*
X042934Y003511D01*
X042917Y003537D02*
X042737Y003797D01*
X042927Y003977D01*
X043187Y003797D01*
X043125Y003804D02*
X042793Y003804D01*
X042822Y003745D02*
X044465Y003745D01*
X044450Y003804D02*
X044111Y003804D01*
X044057Y003797D02*
X044317Y003977D01*
X044507Y003797D01*
X044327Y003537D01*
X044305Y003511D02*
X043653Y003511D01*
X043829Y003453D02*
X044325Y003453D01*
X044344Y003394D02*
X043900Y003394D01*
X043935Y003336D02*
X044364Y003336D01*
X044290Y003570D02*
X042910Y003570D01*
X042881Y003628D02*
X044348Y003628D01*
X044407Y003687D02*
X042852Y003687D01*
X042855Y003862D02*
X043027Y003862D01*
X043298Y003804D02*
X043963Y003804D01*
X043846Y003862D02*
X043473Y003862D01*
X043437Y003897D02*
X043487Y004217D01*
X043757Y004217D01*
X043807Y003897D01*
X043786Y003921D02*
X043487Y003921D01*
X043487Y003979D02*
X043774Y003979D01*
X043762Y004038D02*
X043487Y004038D01*
X043487Y004096D02*
X043751Y004096D01*
X043739Y004155D02*
X043487Y004155D01*
X044228Y003862D02*
X044391Y003862D01*
X043777Y002787D02*
X043810Y002805D01*
X043840Y002826D01*
X043869Y002850D01*
X043895Y002877D01*
X043917Y002906D01*
X043937Y002938D01*
X043954Y002971D01*
X043967Y003006D01*
X043976Y003042D01*
X043982Y003079D01*
X043984Y003116D01*
X043982Y003153D01*
X043977Y003190D01*
X043967Y003226D01*
X043955Y003261D01*
X043938Y003295D01*
X043919Y003326D01*
X043896Y003356D01*
X043870Y003383D01*
X043842Y003407D01*
X043811Y003428D01*
X043779Y003446D01*
X043745Y003461D01*
X043709Y003472D01*
X043673Y003480D01*
X043636Y003484D01*
X043598Y003484D01*
X043561Y003480D01*
X043525Y003472D01*
X043489Y003461D01*
X043455Y003446D01*
X043423Y003428D01*
X043392Y003407D01*
X043364Y003383D01*
X043338Y003356D01*
X043315Y003326D01*
X043296Y003295D01*
X043279Y003261D01*
X043267Y003226D01*
X043257Y003190D01*
X043252Y003153D01*
X043250Y003116D01*
X043252Y003079D01*
X043258Y003042D01*
X043267Y003006D01*
X043280Y002971D01*
X043297Y002938D01*
X043317Y002906D01*
X043339Y002877D01*
X043365Y002850D01*
X043394Y002826D01*
X043424Y002805D01*
X043457Y002787D01*
X043341Y002575D02*
X042905Y002575D01*
X042862Y002517D02*
X043312Y002517D01*
X043282Y002458D02*
X042818Y002458D01*
X042804Y002400D02*
X043114Y002400D01*
X043171Y002400D02*
X043253Y002400D01*
X043036Y002341D02*
X042862Y002341D01*
X042921Y002283D02*
X042958Y002283D01*
X042906Y002647D02*
X042883Y002688D01*
X042862Y002731D01*
X042844Y002776D01*
X042829Y002821D01*
X042816Y002867D01*
X042806Y002914D01*
X042808Y003287D02*
X042823Y003339D01*
X042842Y003390D01*
X042864Y003440D01*
X042889Y003488D01*
X042918Y003535D01*
X043183Y003798D02*
X043230Y003825D01*
X043279Y003848D01*
X043329Y003868D01*
X043380Y003885D01*
X043432Y003899D01*
X043814Y003897D02*
X043864Y003884D01*
X043913Y003867D01*
X043961Y003848D01*
X044008Y003825D01*
X044053Y003800D01*
X044326Y003532D02*
X044353Y003485D01*
X044377Y003438D01*
X044398Y003389D01*
X044416Y003338D01*
X044430Y003287D01*
X044436Y002916D02*
X044423Y002860D01*
X044406Y002805D01*
X044385Y002752D01*
X044361Y002700D01*
X044333Y002650D01*
D12*
X041340Y003863D03*
X041315Y003861D03*
X041313Y003863D03*
X041315Y003866D03*
X041303Y003848D03*
X041303Y003846D03*
X041295Y003848D03*
X041290Y003841D03*
X041283Y003836D03*
X041283Y003833D03*
X041260Y003831D03*
X041245Y003828D03*
X041248Y003821D03*
X041243Y003818D03*
X041238Y003816D03*
X041230Y003816D03*
X041225Y003816D03*
X041225Y003821D03*
X041218Y003811D03*
X041213Y003811D03*
X041205Y003808D03*
X041198Y003811D03*
X041193Y003811D03*
X041198Y003801D03*
X041183Y003803D03*
X041180Y003806D03*
X041178Y003803D03*
X041175Y003798D03*
X041170Y003801D03*
X041168Y003803D03*
X041163Y003801D03*
X041153Y003801D03*
X041150Y003803D03*
X041145Y003803D03*
X041145Y003796D03*
X041138Y003801D03*
X041130Y003803D03*
X041130Y003806D03*
X041133Y003808D03*
X041125Y003811D03*
X041120Y003803D03*
X041115Y003801D03*
X041108Y003806D03*
X041103Y003803D03*
X041103Y003811D03*
X041098Y003813D03*
X041100Y003818D03*
X041100Y003821D03*
X041095Y003821D03*
X041095Y003818D03*
X041090Y003816D03*
X041090Y003821D03*
X041080Y003811D03*
X041075Y003813D03*
X041073Y003816D03*
X041065Y003823D03*
X041060Y003821D03*
X041055Y003821D03*
X041053Y003823D03*
X041048Y003821D03*
X041040Y003813D03*
X041043Y003811D03*
X041043Y003808D03*
X041045Y003801D03*
X041035Y003813D03*
X041035Y003816D03*
X041030Y003823D03*
X041030Y003826D03*
X041025Y003821D03*
X041020Y003823D03*
X041018Y003818D03*
X041013Y003811D03*
X041005Y003811D03*
X041003Y003816D03*
X041003Y003823D03*
X041008Y003823D03*
X040998Y003823D03*
X040990Y003823D03*
X040988Y003826D03*
X040993Y003831D03*
X040985Y003833D03*
X040985Y003836D03*
X040978Y003836D03*
X040973Y003831D03*
X040965Y003831D03*
X040958Y003826D03*
X040953Y003826D03*
X040948Y003823D03*
X040945Y003821D03*
X040943Y003831D03*
X040950Y003836D03*
X040935Y003843D03*
X040933Y003838D03*
X040928Y003838D03*
X040925Y003836D03*
X040920Y003833D03*
X040915Y003831D03*
X040908Y003831D03*
X040908Y003841D03*
X040905Y003848D03*
X040895Y003838D03*
X040898Y003836D03*
X040898Y003831D03*
X040893Y003826D03*
X040890Y003828D03*
X040883Y003831D03*
X040883Y003838D03*
X040888Y003841D03*
X040875Y003831D03*
X040868Y003826D03*
X040865Y003828D03*
X040863Y003833D03*
X040865Y003836D03*
X040860Y003838D03*
X040858Y003843D03*
X040853Y003843D03*
X040853Y003838D03*
X040853Y003836D03*
X040855Y003833D03*
X040858Y003831D03*
X040845Y003833D03*
X040843Y003836D03*
X040845Y003846D03*
X040840Y003848D03*
X040830Y003841D03*
X040833Y003838D03*
X040825Y003838D03*
X040813Y003841D03*
X040810Y003846D03*
X040808Y003853D03*
X040813Y003853D03*
X040813Y003856D03*
X040810Y003858D03*
X040805Y003858D03*
X040798Y003858D03*
X040798Y003856D03*
X040793Y003861D03*
X040790Y003863D03*
X040788Y003866D03*
X040785Y003868D03*
X040785Y003871D03*
X040783Y003873D03*
X040780Y003871D03*
X040775Y003871D03*
X040783Y003866D03*
X040795Y003871D03*
X040808Y003881D03*
X040810Y003866D03*
X040820Y003861D03*
X040820Y003851D03*
X040865Y003846D03*
X040870Y003841D03*
X040923Y003828D03*
X040923Y003826D03*
X040928Y003821D03*
X040920Y003816D03*
X040940Y003811D03*
X040953Y003813D03*
X040973Y003813D03*
X040973Y003816D03*
X040978Y003818D03*
X040978Y003813D03*
X040980Y003811D03*
X040983Y003813D03*
X040993Y003808D03*
X041005Y003833D03*
X041010Y003833D03*
X041015Y003831D03*
X040985Y003846D03*
X040985Y003848D03*
X040970Y003838D03*
X040980Y003878D03*
X040973Y003881D03*
X040958Y003883D03*
X041015Y003881D03*
X041028Y003881D03*
X041058Y003816D03*
X041063Y003811D03*
X041065Y003806D03*
X041078Y003801D03*
X041085Y003801D03*
X041085Y003798D03*
X041085Y003796D03*
X041093Y003796D03*
X041093Y003793D03*
X041093Y003791D03*
X041093Y003801D03*
X041093Y003806D03*
X041133Y003791D03*
X041173Y003806D03*
X041183Y003796D03*
X041190Y003836D03*
X040788Y003888D03*
X040785Y003891D03*
X040765Y003883D03*
X040765Y003881D03*
X040763Y003886D03*
X040760Y003888D03*
X040758Y003886D03*
X040753Y003886D03*
X040745Y003893D03*
X040743Y003896D03*
X040750Y003898D03*
X040753Y003906D03*
X040750Y003908D03*
X040745Y003908D03*
X040740Y003911D03*
X040738Y003913D03*
X040735Y003916D03*
X040735Y003918D03*
X040730Y003918D03*
X040730Y003913D03*
X040733Y003911D03*
X040733Y003908D03*
X040730Y003906D03*
X040728Y003908D03*
X040723Y003908D03*
X040718Y003911D03*
X040718Y003896D03*
X040728Y003891D03*
X040738Y003906D03*
X040740Y003921D03*
X040745Y003921D03*
X040750Y003921D03*
X040745Y003928D03*
X040748Y003936D03*
X040753Y003931D03*
X040755Y003948D03*
X040755Y003951D03*
X040760Y003948D03*
X040773Y003943D03*
X040775Y003941D03*
X040788Y003936D03*
X040758Y003901D03*
X040765Y003873D03*
X040728Y003923D03*
X040728Y003926D03*
X040728Y003928D03*
X040718Y003931D03*
X040715Y003928D03*
X040710Y003928D03*
X040710Y003933D03*
X040705Y003933D03*
X040700Y003933D03*
X040695Y003926D03*
X040690Y003923D03*
X040693Y003921D03*
X040685Y003923D03*
X040685Y003926D03*
X040685Y003928D03*
X040680Y003921D03*
X040675Y003921D03*
X040675Y003918D03*
X040670Y003916D03*
X040670Y003923D03*
X040670Y003926D03*
X040678Y003933D03*
X040678Y003936D03*
X040690Y003936D03*
X040668Y003943D03*
X040663Y003941D03*
X040665Y003936D03*
X040660Y003933D03*
X040653Y003936D03*
X040653Y003938D03*
X040648Y003941D03*
X040645Y003943D03*
X040645Y003948D03*
X040640Y003948D03*
X040635Y003948D03*
X040650Y003951D03*
X040653Y003948D03*
X040658Y003951D03*
X040665Y003951D03*
X040673Y003956D03*
X040680Y003958D03*
X040700Y003966D03*
X040708Y003966D03*
X040715Y003956D03*
X040720Y003968D03*
X040730Y003966D03*
X040740Y003956D03*
X040745Y003956D03*
X040735Y003938D03*
X040695Y003906D03*
X040650Y003931D03*
X040620Y003963D03*
X040613Y003971D03*
X040600Y003971D03*
X040595Y003971D03*
X040598Y003966D03*
X040600Y003963D03*
X040610Y003958D03*
X040585Y003971D03*
X040580Y003983D03*
X040575Y003983D03*
X040565Y004001D03*
X040560Y003998D03*
X040555Y003998D03*
X040553Y004003D03*
X040550Y004008D03*
X040545Y004008D03*
X040545Y004013D03*
X040540Y004018D03*
X040543Y004021D03*
X040543Y004026D03*
X040548Y004026D03*
X040540Y004041D03*
X040528Y004036D03*
X040525Y004028D03*
X040525Y004026D03*
X040528Y004023D03*
X040515Y004033D03*
X040518Y004043D03*
X040523Y004046D03*
X040523Y004048D03*
X040520Y004051D03*
X040515Y004061D03*
X040510Y004061D03*
X040510Y004058D03*
X040508Y004053D03*
X040508Y004063D03*
X040503Y004063D03*
X040503Y004066D03*
X040498Y004066D03*
X040503Y004073D03*
X040505Y004076D03*
X040508Y004073D03*
X040508Y004071D03*
X040513Y004073D03*
X040515Y004083D03*
X040508Y004086D03*
X040503Y004088D03*
X040503Y004083D03*
X040500Y004081D03*
X040495Y004091D03*
X040490Y004093D03*
X040488Y004101D03*
X040495Y004108D03*
X040493Y004111D03*
X040493Y004113D03*
X040498Y004113D03*
X040503Y004118D03*
X040508Y004118D03*
X040510Y004121D03*
X040510Y004123D03*
X040513Y004118D03*
X040513Y004131D03*
X040508Y004131D03*
X040500Y004138D03*
X040493Y004131D03*
X040488Y004138D03*
X040480Y004141D03*
X040475Y004141D03*
X040473Y004138D03*
X040473Y004136D03*
X040473Y004133D03*
X040473Y004131D03*
X040478Y004133D03*
X040483Y004123D03*
X040483Y004116D03*
X040478Y004111D03*
X040470Y004111D03*
X040470Y004113D03*
X040470Y004116D03*
X040473Y004121D03*
X040463Y004111D03*
X040468Y004103D03*
X040473Y004103D03*
X040475Y004096D03*
X040473Y004091D03*
X040463Y004086D03*
X040453Y004118D03*
X040455Y004123D03*
X040460Y004128D03*
X040465Y004133D03*
X040453Y004133D03*
X040448Y004133D03*
X040445Y004131D03*
X040445Y004128D03*
X040438Y004131D03*
X040435Y004128D03*
X040435Y004141D03*
X040435Y004143D03*
X040430Y004143D03*
X040425Y004146D03*
X040418Y004141D03*
X040415Y004143D03*
X040410Y004153D03*
X040408Y004158D03*
X040413Y004161D03*
X040413Y004163D03*
X040413Y004166D03*
X040410Y004173D03*
X040415Y004181D03*
X040415Y004188D03*
X040413Y004198D03*
X040395Y004196D03*
X040385Y004196D03*
X040385Y004198D03*
X040380Y004198D03*
X040375Y004196D03*
X040373Y004193D03*
X040373Y004191D03*
X040375Y004183D03*
X040383Y004183D03*
X040385Y004186D03*
X040385Y004191D03*
X040383Y004193D03*
X040390Y004183D03*
X040393Y004176D03*
X040398Y004178D03*
X040385Y004173D03*
X040385Y004206D03*
X040380Y004206D03*
X040378Y004213D03*
X040373Y004213D03*
X040373Y004211D03*
X040375Y004218D03*
X040375Y004228D03*
X040375Y004231D03*
X040370Y004231D03*
X040370Y004233D03*
X040375Y004236D03*
X040363Y004231D03*
X040363Y004226D03*
X040363Y004221D03*
X040355Y004228D03*
X040353Y004231D03*
X040348Y004226D03*
X040355Y004238D03*
X040358Y004241D03*
X040358Y004243D03*
X040355Y004246D03*
X040353Y004243D03*
X040345Y004243D03*
X040340Y004246D03*
X040345Y004253D03*
X040353Y004256D03*
X040355Y004251D03*
X040363Y004256D03*
X040365Y004251D03*
X040365Y004246D03*
X040378Y004266D03*
X040383Y004266D03*
X040365Y004278D03*
X040360Y004288D03*
X040360Y004291D03*
X040355Y004291D03*
X040350Y004293D03*
X040348Y004296D03*
X040343Y004303D03*
X040340Y004306D03*
X040333Y004303D03*
X040328Y004303D03*
X040325Y004308D03*
X040320Y004303D03*
X040320Y004298D03*
X040315Y004306D03*
X040308Y004303D03*
X040300Y004313D03*
X040295Y004311D03*
X040305Y004316D03*
X040310Y004318D03*
X040313Y004323D03*
X040303Y004323D03*
X040308Y004333D03*
X040303Y004338D03*
X040310Y004343D03*
X040315Y004341D03*
X040320Y004341D03*
X040325Y004341D03*
X040318Y004336D03*
X040323Y004321D03*
X040328Y004323D03*
X040333Y004323D03*
X040333Y004318D03*
X040340Y004328D03*
X040348Y004336D03*
X040340Y004341D03*
X040333Y004351D03*
X040330Y004358D03*
X040323Y004363D03*
X040323Y004366D03*
X040318Y004366D03*
X040318Y004356D03*
X040305Y004358D03*
X040300Y004358D03*
X040300Y004356D03*
X040303Y004351D03*
X040293Y004346D03*
X040290Y004341D03*
X040288Y004338D03*
X040290Y004336D03*
X040288Y004333D03*
X040280Y004326D03*
X040273Y004348D03*
X040270Y004351D03*
X040265Y004348D03*
X040278Y004353D03*
X040283Y004353D03*
X040288Y004353D03*
X040288Y004351D03*
X040283Y004361D03*
X040280Y004366D03*
X040275Y004366D03*
X040285Y004368D03*
X040283Y004381D03*
X040290Y004383D03*
X040308Y004381D03*
X040313Y004381D03*
X040318Y004378D03*
X040308Y004391D03*
X040298Y004401D03*
X040295Y004408D03*
X040268Y004391D03*
X040268Y004388D03*
X040263Y004388D03*
X040258Y004388D03*
X040258Y004383D03*
X040250Y004386D03*
X040248Y004383D03*
X040243Y004383D03*
X040240Y004388D03*
X040238Y004393D03*
X040240Y004396D03*
X040243Y004401D03*
X040240Y004403D03*
X040240Y004406D03*
X040235Y004403D03*
X040225Y004403D03*
X040225Y004406D03*
X040223Y004408D03*
X040220Y004406D03*
X040215Y004406D03*
X040210Y004408D03*
X040218Y004418D03*
X040223Y004418D03*
X040223Y004421D03*
X040225Y004423D03*
X040220Y004423D03*
X040215Y004426D03*
X040208Y004423D03*
X040200Y004433D03*
X040203Y004441D03*
X040200Y004443D03*
X040198Y004448D03*
X040200Y004451D03*
X040198Y004453D03*
X040190Y004453D03*
X040190Y004451D03*
X040190Y004458D03*
X040195Y004466D03*
X040195Y004471D03*
X040190Y004471D03*
X040185Y004471D03*
X040183Y004478D03*
X040188Y004486D03*
X040183Y004488D03*
X040180Y004491D03*
X040178Y004496D03*
X040173Y004501D03*
X040175Y004503D03*
X040175Y004511D03*
X040173Y004513D03*
X040180Y004513D03*
X040180Y004511D03*
X040193Y004513D03*
X040195Y004506D03*
X040188Y004493D03*
X040198Y004481D03*
X040170Y004488D03*
X040168Y004493D03*
X040160Y004498D03*
X040163Y004501D03*
X040160Y004503D03*
X040158Y004506D03*
X040163Y004508D03*
X040165Y004506D03*
X040163Y004516D03*
X040158Y004521D03*
X040155Y004518D03*
X040155Y004516D03*
X040143Y004536D03*
X040143Y004538D03*
X040140Y004543D03*
X040143Y004551D03*
X040140Y004553D03*
X040135Y004553D03*
X040135Y004561D03*
X040140Y004563D03*
X040130Y004566D03*
X040125Y004568D03*
X040125Y004571D03*
X040125Y004578D03*
X040118Y004581D03*
X040118Y004586D03*
X040113Y004586D03*
X040120Y004593D03*
X040103Y004601D03*
X040103Y004603D03*
X040105Y004606D03*
X040105Y004608D03*
X040098Y004631D03*
X040090Y004631D03*
X040090Y004633D03*
X040088Y004636D03*
X040085Y004641D03*
X040080Y004651D03*
X040178Y004626D03*
X040198Y004576D03*
X040180Y004568D03*
X040163Y004541D03*
X040173Y004533D03*
X040178Y004533D03*
X040203Y004538D03*
X040148Y004548D03*
X040128Y004558D03*
X040205Y004451D03*
X040208Y004443D03*
X040213Y004441D03*
X040218Y004441D03*
X040210Y004436D03*
X040223Y004413D03*
X040225Y004411D03*
X040245Y004406D03*
X040248Y004403D03*
X040253Y004403D03*
X040248Y004411D03*
X040258Y004393D03*
X040250Y004378D03*
X040250Y004376D03*
X040255Y004366D03*
X040248Y004361D03*
X040248Y004358D03*
X040245Y004353D03*
X040263Y004371D03*
X040235Y004378D03*
X040248Y004491D03*
X040335Y004298D03*
X040335Y004293D03*
X040330Y004293D03*
X040330Y004283D03*
X040325Y004276D03*
X040333Y004266D03*
X040328Y004261D03*
X040343Y004276D03*
X040340Y004281D03*
X040340Y004286D03*
X040350Y004271D03*
X040375Y004293D03*
X040365Y004303D03*
X040313Y004281D03*
X040385Y004216D03*
X040418Y004238D03*
X040423Y004168D03*
X040425Y004163D03*
X040430Y004163D03*
X040430Y004161D03*
X040435Y004163D03*
X040435Y004158D03*
X040445Y004156D03*
X040448Y004146D03*
X040448Y004141D03*
X040453Y004141D03*
X040453Y004138D03*
X040443Y004141D03*
X040465Y004156D03*
X040463Y004173D03*
X040488Y004148D03*
X040493Y004148D03*
X040493Y004146D03*
X040493Y004153D03*
X040508Y004101D03*
X040503Y004096D03*
X040515Y004101D03*
X040538Y004106D03*
X040535Y004063D03*
X040530Y004063D03*
X040525Y004063D03*
X040533Y004058D03*
X040570Y004008D03*
X040688Y003981D03*
X040418Y004158D03*
X040415Y004156D03*
X039653Y005478D03*
X039563Y005468D03*
X039083Y005516D03*
X037975Y005728D03*
X038113Y006031D03*
X038315Y006276D03*
X037745Y006423D03*
X037675Y006441D03*
X037533Y006553D03*
X037360Y006588D03*
X037300Y006596D03*
X037233Y006596D03*
X037398Y006188D03*
X038898Y006131D03*
X038923Y006121D03*
X039173Y006103D03*
X039513Y006198D03*
D13*
X039173Y006101D03*
X037960Y005728D03*
X039545Y005551D03*
X041038Y005508D03*
X041040Y005501D03*
X041045Y005493D03*
X041045Y005491D03*
X041045Y005488D03*
X040133Y004573D03*
X040133Y004571D03*
X040140Y004568D03*
X040148Y004546D03*
X040148Y004543D03*
X040155Y004541D03*
X040155Y004538D03*
X040160Y004531D03*
X040165Y004538D03*
X040173Y004541D03*
X040183Y004528D03*
X040165Y004521D03*
X040165Y004513D03*
X040165Y004511D03*
X040183Y004508D03*
X040188Y004506D03*
X040190Y004478D03*
X040188Y004473D03*
X040195Y004461D03*
X040198Y004458D03*
X040208Y004453D03*
X040233Y004423D03*
X040230Y004408D03*
X040260Y004391D03*
X040268Y004386D03*
X040273Y004383D03*
X040270Y004378D03*
X040270Y004376D03*
X040275Y004371D03*
X040275Y004361D03*
X040285Y004363D03*
X040283Y004383D03*
X040273Y004401D03*
X040303Y004343D03*
X040310Y004338D03*
X040318Y004343D03*
X040323Y004338D03*
X040335Y004338D03*
X040338Y004333D03*
X040340Y004336D03*
X040333Y004328D03*
X040335Y004308D03*
X040328Y004298D03*
X040330Y004296D03*
X040348Y004306D03*
X040353Y004303D03*
X040355Y004298D03*
X040355Y004296D03*
X040358Y004293D03*
X040365Y004296D03*
X040368Y004293D03*
X040368Y004291D03*
X040373Y004276D03*
X040380Y004281D03*
X040383Y004278D03*
X040355Y004268D03*
X040353Y004266D03*
X040380Y004233D03*
X040378Y004223D03*
X040398Y004193D03*
X040398Y004191D03*
X040398Y004183D03*
X040405Y004198D03*
X040423Y004188D03*
X040455Y004173D03*
X040458Y004166D03*
X040470Y004171D03*
X040480Y004148D03*
X040480Y004138D03*
X040480Y004136D03*
X040485Y004126D03*
X040500Y004131D03*
X040503Y004136D03*
X040465Y004138D03*
X040463Y004131D03*
X040450Y004143D03*
X040448Y004151D03*
X040438Y004151D03*
X040435Y004146D03*
X040443Y004138D03*
X040515Y004098D03*
X040523Y004096D03*
X040523Y004091D03*
X040530Y004088D03*
X040525Y004083D03*
X040518Y004071D03*
X040508Y004081D03*
X040525Y004056D03*
X040523Y004053D03*
X040548Y004031D03*
X040560Y004003D03*
X040565Y003991D03*
X040608Y003961D03*
X040620Y003958D03*
X040625Y003951D03*
X040653Y003946D03*
X040653Y003943D03*
X040660Y003938D03*
X040663Y003953D03*
X040695Y003941D03*
X040718Y003938D03*
X040718Y003933D03*
X040728Y003933D03*
X040728Y003938D03*
X040733Y003946D03*
X040743Y003938D03*
X040745Y003951D03*
X040728Y003963D03*
X040693Y003986D03*
X040723Y003916D03*
X040753Y003913D03*
X040758Y003921D03*
X040750Y003903D03*
X040760Y003893D03*
X040780Y003876D03*
X040793Y003873D03*
X040808Y003871D03*
X040808Y003863D03*
X040820Y003858D03*
X040833Y003848D03*
X040830Y003843D03*
X040840Y003843D03*
X040838Y003853D03*
X040853Y003858D03*
X040875Y003838D03*
X040880Y003841D03*
X040895Y003851D03*
X040918Y003851D03*
X040940Y003838D03*
X040953Y003833D03*
X040953Y003831D03*
X040953Y003828D03*
X040963Y003838D03*
X040978Y003846D03*
X040985Y003841D03*
X040985Y003853D03*
X040998Y003841D03*
X041000Y003826D03*
X040983Y003828D03*
X041023Y003836D03*
X041045Y003823D03*
X041053Y003811D03*
X041065Y003816D03*
X041068Y003818D03*
X041070Y003826D03*
X041060Y003826D03*
X041098Y003816D03*
X041105Y003813D03*
X041103Y003808D03*
X041113Y003803D03*
X041115Y003816D03*
X041100Y003836D03*
X041138Y003803D03*
X041145Y003793D03*
X041158Y003803D03*
X041205Y003803D03*
X041208Y003806D03*
X041205Y003811D03*
X041210Y003816D03*
X041270Y003828D03*
X041270Y003831D03*
X041283Y003831D03*
X040980Y003881D03*
X040535Y004096D03*
X040348Y004313D03*
X040223Y004533D03*
D14*
X040212Y004541D03*
X040212Y004556D03*
X040194Y004536D03*
X040187Y004511D03*
X040182Y004493D03*
X040192Y004483D03*
X040189Y004481D03*
X040202Y004473D03*
X040207Y004466D03*
X040204Y004463D03*
X040199Y004446D03*
X040209Y004446D03*
X040212Y004431D03*
X040217Y004428D03*
X040229Y004418D03*
X040237Y004411D03*
X040232Y004406D03*
X040237Y004401D03*
X040239Y004398D03*
X040247Y004396D03*
X040247Y004393D03*
X040249Y004391D03*
X040257Y004396D03*
X040267Y004396D03*
X040274Y004388D03*
X040264Y004383D03*
X040262Y004376D03*
X040262Y004373D03*
X040279Y004378D03*
X040282Y004373D03*
X040284Y004371D03*
X040289Y004366D03*
X040292Y004368D03*
X040292Y004356D03*
X040282Y004356D03*
X040294Y004343D03*
X040304Y004353D03*
X040309Y004341D03*
X040322Y004323D03*
X040327Y004318D03*
X040329Y004321D03*
X040334Y004313D03*
X040334Y004306D03*
X040342Y004298D03*
X040349Y004301D03*
X040357Y004313D03*
X040349Y004316D03*
X040349Y004323D03*
X040344Y004326D03*
X040339Y004331D03*
X040334Y004341D03*
X040337Y004348D03*
X040322Y004361D03*
X040317Y004363D03*
X040319Y004371D03*
X040309Y004383D03*
X040247Y004408D03*
X040242Y004501D03*
X040174Y004476D03*
X040167Y004518D03*
X040162Y004528D03*
X040147Y004541D03*
X040147Y004553D03*
X040144Y004558D03*
X040132Y004556D03*
X040132Y004568D03*
X040129Y004576D03*
X040124Y004573D03*
X040122Y004576D03*
X040119Y004583D03*
X040114Y004593D03*
X040109Y004603D03*
X040099Y004616D03*
X040129Y004598D03*
X040074Y004668D03*
X040342Y004288D03*
X040349Y004283D03*
X040364Y004276D03*
X040372Y004273D03*
X040374Y004278D03*
X040374Y004286D03*
X040369Y004266D03*
X040362Y004266D03*
X040354Y004253D03*
X040347Y004256D03*
X040347Y004263D03*
X040342Y004251D03*
X040354Y004236D03*
X040377Y004238D03*
X040379Y004216D03*
X040384Y004211D03*
X040387Y004203D03*
X040397Y004198D03*
X040407Y004191D03*
X040409Y004186D03*
X040409Y004183D03*
X040407Y004181D03*
X040407Y004178D03*
X040407Y004176D03*
X040399Y004176D03*
X040404Y004168D03*
X040414Y004168D03*
X040419Y004166D03*
X040429Y004168D03*
X040429Y004158D03*
X040429Y004153D03*
X040427Y004151D03*
X040427Y004138D03*
X040434Y004136D03*
X040444Y004136D03*
X040454Y004128D03*
X040457Y004146D03*
X040464Y004143D03*
X040479Y004131D03*
X040477Y004126D03*
X040484Y004128D03*
X040494Y004128D03*
X040494Y004136D03*
X040494Y004138D03*
X040499Y004141D03*
X040499Y004146D03*
X040504Y004133D03*
X040517Y004123D03*
X040517Y004121D03*
X040519Y004118D03*
X040532Y004108D03*
X040532Y004091D03*
X040522Y004088D03*
X040514Y004088D03*
X040514Y004086D03*
X040514Y004091D03*
X040512Y004093D03*
X040514Y004096D03*
X040504Y004098D03*
X040499Y004101D03*
X040494Y004106D03*
X040504Y004106D03*
X040504Y004091D03*
X040509Y004083D03*
X040507Y004078D03*
X040494Y004086D03*
X040479Y004106D03*
X040479Y004108D03*
X040472Y004108D03*
X040469Y004118D03*
X040479Y004118D03*
X040489Y004116D03*
X040482Y004163D03*
X040449Y004166D03*
X040422Y004181D03*
X040424Y004186D03*
X040417Y004186D03*
X040417Y004183D03*
X040419Y004196D03*
X040374Y004206D03*
X040367Y004213D03*
X040367Y004216D03*
X040327Y004268D03*
X040544Y004096D03*
X040549Y004093D03*
X040522Y004066D03*
X040517Y004063D03*
X040517Y004056D03*
X040532Y004053D03*
X040527Y004043D03*
X040532Y004041D03*
X040539Y004031D03*
X040549Y004021D03*
X040552Y004023D03*
X040557Y004018D03*
X040554Y004013D03*
X040567Y003993D03*
X040574Y003993D03*
X040587Y003983D03*
X040592Y003976D03*
X040607Y003971D03*
X040607Y003963D03*
X040614Y003963D03*
X040629Y003943D03*
X040654Y003953D03*
X040662Y003948D03*
X040667Y003956D03*
X040672Y003951D03*
X040674Y003953D03*
X040682Y003956D03*
X040684Y003946D03*
X040682Y003943D03*
X040682Y003941D03*
X040684Y003936D03*
X040684Y003933D03*
X040682Y003931D03*
X040692Y003933D03*
X040697Y003951D03*
X040717Y003941D03*
X040727Y003931D03*
X040722Y003923D03*
X040712Y003918D03*
X040709Y003923D03*
X040724Y003911D03*
X040734Y003923D03*
X040737Y003933D03*
X040742Y003946D03*
X040764Y003943D03*
X040759Y003931D03*
X040744Y003913D03*
X040759Y003896D03*
X040759Y003891D03*
X040772Y003886D03*
X040782Y003886D03*
X040794Y003888D03*
X040792Y003876D03*
X040792Y003868D03*
X040802Y003861D03*
X040804Y003848D03*
X040819Y003848D03*
X040824Y003846D03*
X040832Y003846D03*
X040839Y003846D03*
X040839Y003841D03*
X040829Y003853D03*
X040827Y003861D03*
X040834Y003861D03*
X040819Y003856D03*
X040817Y003866D03*
X040777Y003868D03*
X040772Y003866D03*
X040772Y003873D03*
X040769Y003876D03*
X040859Y003841D03*
X040864Y003843D03*
X040867Y003838D03*
X040874Y003833D03*
X040882Y003833D03*
X040884Y003836D03*
X040889Y003838D03*
X040889Y003831D03*
X040884Y003828D03*
X040902Y003833D03*
X040902Y003838D03*
X040907Y003836D03*
X040912Y003838D03*
X040914Y003841D03*
X040919Y003838D03*
X040919Y003836D03*
X040924Y003831D03*
X040929Y003833D03*
X040932Y003826D03*
X040917Y003828D03*
X040912Y003833D03*
X040904Y003851D03*
X040887Y003858D03*
X040932Y003846D03*
X040954Y003838D03*
X040972Y003826D03*
X040989Y003818D03*
X041004Y003818D03*
X041004Y003821D03*
X041009Y003826D03*
X041009Y003831D03*
X041014Y003836D03*
X041022Y003831D03*
X041019Y003826D03*
X041029Y003831D03*
X041024Y003838D03*
X041042Y003821D03*
X041039Y003818D03*
X041047Y003818D03*
X041059Y003823D03*
X041072Y003821D03*
X041084Y003816D03*
X041087Y003813D03*
X041087Y003811D03*
X041084Y003803D03*
X041092Y003823D03*
X041107Y003818D03*
X041107Y003816D03*
X041112Y003811D03*
X041112Y003808D03*
X041119Y003806D03*
X041119Y003811D03*
X041157Y003806D03*
X041164Y003806D03*
X041174Y003816D03*
X041182Y003808D03*
X041187Y003806D03*
X041194Y003803D03*
X041197Y003808D03*
X041199Y003816D03*
X041219Y003816D03*
X041219Y003813D03*
X041232Y003821D03*
X041234Y003826D03*
X041227Y003826D03*
X041242Y003823D03*
X041249Y003823D03*
X041254Y003826D03*
X041252Y003828D03*
X041259Y003828D03*
X041272Y003833D03*
X041277Y003836D03*
X041294Y003851D03*
X041309Y003848D03*
X041374Y003888D03*
X041179Y003801D03*
X041059Y003806D03*
X040674Y003943D03*
X040664Y003963D03*
X041044Y005496D03*
X041042Y005498D03*
X039084Y005518D03*
X039049Y005508D03*
X038692Y005568D03*
X038654Y005583D03*
X037944Y005728D03*
X038584Y005998D03*
X038072Y006033D03*
X038232Y006298D03*
X038327Y006386D03*
X038119Y006426D03*
X037479Y006566D03*
X037274Y006598D03*
X037352Y006188D03*
X037369Y006191D03*
X037379Y006098D03*
X039544Y006201D03*
D15*
X038587Y005996D03*
X041007Y005468D03*
X041022Y005448D03*
X041024Y005446D03*
X041027Y005441D03*
X041027Y005438D03*
X041032Y005436D03*
X040147Y004571D03*
X040157Y004558D03*
X040157Y004533D03*
X040177Y004531D03*
X040187Y004523D03*
X040179Y004518D03*
X040117Y004598D03*
X040237Y004421D03*
X040287Y004401D03*
X040294Y004381D03*
X040307Y004378D03*
X040362Y004301D03*
X040389Y004213D03*
X040442Y004173D03*
X040442Y004153D03*
X040492Y004118D03*
X040499Y004126D03*
X040524Y004093D03*
X040527Y004078D03*
X040527Y004073D03*
X040612Y003966D03*
X040624Y003968D03*
X040669Y003958D03*
X040692Y003958D03*
X040704Y003936D03*
X040747Y003941D03*
X040754Y003946D03*
X040764Y003941D03*
X040774Y003936D03*
X040774Y003891D03*
X040899Y003846D03*
X040919Y003846D03*
X041002Y003843D03*
X041002Y003836D03*
X041052Y003813D03*
X041054Y003808D03*
X041084Y003818D03*
X041139Y003811D03*
X041142Y003806D03*
X041187Y003816D03*
X041212Y003818D03*
X041304Y003858D03*
X041404Y003921D03*
D16*
X041329Y003861D03*
X041327Y003863D03*
X041209Y003821D03*
X041159Y003811D03*
X041159Y003808D03*
X041014Y003841D03*
X041007Y003828D03*
X041002Y003853D03*
X040879Y003846D03*
X040837Y003858D03*
X040812Y003873D03*
X040759Y003938D03*
X040742Y003948D03*
X040652Y003956D03*
X040547Y004088D03*
X040547Y004091D03*
X040534Y004101D03*
X040497Y004123D03*
X040464Y004148D03*
X040459Y004181D03*
X040452Y004186D03*
X040437Y004181D03*
X040402Y004203D03*
X040364Y004281D03*
X040319Y004351D03*
X040304Y004366D03*
X040302Y004363D03*
X040304Y004371D03*
X040282Y004411D03*
X040227Y004431D03*
X040189Y004538D03*
X040204Y004553D03*
X040194Y004568D03*
X040164Y004546D03*
X041049Y005418D03*
X041052Y005416D03*
X041044Y005426D03*
X041012Y005461D03*
D17*
X039202Y006106D03*
X038709Y005568D03*
X040134Y004578D03*
X040144Y004573D03*
X040172Y004528D03*
X040174Y004516D03*
X040189Y004516D03*
X040202Y004518D03*
X040214Y004538D03*
X040219Y004536D03*
X040184Y004536D03*
X040207Y004461D03*
X040207Y004456D03*
X040219Y004456D03*
X040274Y004438D03*
X040264Y004403D03*
X040257Y004401D03*
X040272Y004373D03*
X040282Y004376D03*
X040289Y004378D03*
X040299Y004383D03*
X040309Y004356D03*
X040314Y004346D03*
X040309Y004336D03*
X040299Y004341D03*
X040302Y004346D03*
X040327Y004356D03*
X040329Y004336D03*
X040327Y004331D03*
X040337Y004316D03*
X040349Y004318D03*
X040359Y004306D03*
X040352Y004288D03*
X040359Y004283D03*
X040357Y004278D03*
X040354Y004276D03*
X040372Y004283D03*
X040374Y004288D03*
X040384Y004276D03*
X040384Y004271D03*
X040392Y004266D03*
X040392Y004188D03*
X040404Y004188D03*
X040419Y004171D03*
X040427Y004173D03*
X040434Y004186D03*
X040434Y004188D03*
X040472Y004173D03*
X040467Y004141D03*
X040489Y004141D03*
X040499Y004116D03*
X040514Y004126D03*
X040539Y004093D03*
X040524Y004086D03*
X040524Y004061D03*
X040524Y004058D03*
X040542Y004023D03*
X040609Y003968D03*
X040642Y003966D03*
X040642Y003946D03*
X040642Y003938D03*
X040677Y003948D03*
X040682Y003951D03*
X040707Y003941D03*
X040714Y003971D03*
X040737Y003928D03*
X040777Y003938D03*
X040797Y003886D03*
X040817Y003868D03*
X040812Y003861D03*
X040844Y003861D03*
X040854Y003848D03*
X040857Y003846D03*
X040849Y003841D03*
X040844Y003838D03*
X040874Y003836D03*
X040899Y003841D03*
X040964Y003833D03*
X040967Y003836D03*
X040977Y003833D03*
X040987Y003843D03*
X040994Y003848D03*
X041002Y003838D03*
X041007Y003848D03*
X041014Y003838D03*
X041019Y003833D03*
X041019Y003851D03*
X040994Y003821D03*
X041047Y003816D03*
X041082Y003821D03*
X041117Y003818D03*
X041142Y003808D03*
X041207Y003813D03*
X041244Y003826D03*
X041252Y003831D03*
X041312Y003851D03*
X041407Y003923D03*
D18*
X041323Y003858D03*
X041313Y003853D03*
X041258Y003833D03*
X041180Y003841D03*
X041180Y003811D03*
X041078Y003823D03*
X040973Y003848D03*
X040920Y003848D03*
X040920Y003843D03*
X040863Y003856D03*
X040775Y003888D03*
X040740Y003931D03*
X040728Y003956D03*
X040700Y003943D03*
X040703Y003938D03*
X040688Y003953D03*
X040535Y004048D03*
X040495Y004103D03*
X040490Y004133D03*
X040475Y004161D03*
X040473Y004166D03*
X040435Y004166D03*
X040433Y004148D03*
X040413Y004201D03*
X040393Y004201D03*
X040398Y004251D03*
X040378Y004251D03*
X040375Y004256D03*
X040368Y004271D03*
X040353Y004308D03*
X040323Y004333D03*
X040333Y004343D03*
X040330Y004346D03*
X040318Y004358D03*
X040253Y004398D03*
X040260Y004411D03*
X040155Y004536D03*
X040115Y004601D03*
X041038Y005428D03*
X041025Y005443D03*
X041020Y005451D03*
X041020Y005453D03*
X041020Y005456D03*
X041010Y005463D03*
X041010Y005466D03*
X039475Y006066D03*
X037373Y006188D03*
X037330Y006591D03*
X037238Y006598D03*
D19*
X039203Y006096D03*
X039478Y006083D03*
X039055Y005521D03*
X040180Y004551D03*
X040630Y003976D03*
X041063Y003838D03*
X041165Y003813D03*
X040628Y007343D03*
D20*
X039473Y006063D03*
X039053Y005511D03*
X041018Y005458D03*
X041033Y005433D03*
X041033Y005431D03*
X041038Y005503D03*
X041038Y005506D03*
X040115Y004588D03*
X040183Y004546D03*
X040205Y004536D03*
X040193Y004503D03*
X040198Y004476D03*
X040215Y004448D03*
X040235Y004413D03*
X040260Y004438D03*
X040280Y004386D03*
X040268Y004381D03*
X040275Y004368D03*
X040288Y004358D03*
X040318Y004328D03*
X040343Y004321D03*
X040330Y004301D03*
X040368Y004298D03*
X040360Y004273D03*
X040383Y004273D03*
X040393Y004256D03*
X040390Y004236D03*
X040405Y004196D03*
X040410Y004193D03*
X040418Y004191D03*
X040433Y004183D03*
X040440Y004168D03*
X040435Y004156D03*
X040455Y004156D03*
X040485Y004121D03*
X040500Y004121D03*
X040505Y004128D03*
X040563Y004081D03*
X040533Y004046D03*
X040560Y004008D03*
X040575Y003986D03*
X040628Y003966D03*
X040633Y003958D03*
X040640Y003951D03*
X040648Y003958D03*
X040665Y003946D03*
X040693Y003973D03*
X040698Y003981D03*
X040708Y003973D03*
X040718Y003966D03*
X040720Y003943D03*
X040720Y003936D03*
X040718Y003926D03*
X040730Y003941D03*
X040738Y003936D03*
X040740Y003926D03*
X040758Y003936D03*
X040880Y003856D03*
X040928Y003841D03*
X040935Y003836D03*
X040988Y003838D03*
X041025Y003848D03*
X041043Y003826D03*
X041085Y003826D03*
X041118Y003813D03*
X040990Y003878D03*
X041325Y003866D03*
X041340Y003866D03*
X040395Y004186D03*
X040165Y004523D03*
D21*
X040189Y004558D03*
X040214Y004511D03*
X040249Y004448D03*
X040267Y004413D03*
X040272Y004406D03*
X040382Y004253D03*
X040389Y004241D03*
X040404Y004228D03*
X040812Y003916D03*
X041147Y003816D03*
X041092Y005436D03*
X041064Y005473D03*
X041064Y005476D03*
X041062Y005478D03*
X039049Y005516D03*
X039547Y006198D03*
X040632Y007348D03*
D22*
X039205Y006088D03*
X038590Y005986D03*
X038093Y006021D03*
X037970Y005736D03*
X038708Y005578D03*
X037370Y006181D03*
X040135Y004633D03*
X040135Y004628D03*
X041140Y003833D03*
X041163Y003818D03*
X041233Y003836D03*
D23*
X041179Y003821D03*
X040954Y003846D03*
X040947Y003848D03*
X040874Y003851D03*
X040754Y003918D03*
X040634Y003953D03*
X040629Y003961D03*
X040554Y004078D03*
X040549Y004083D03*
X040547Y004086D03*
X040474Y004153D03*
X040464Y004168D03*
X040449Y004161D03*
X040432Y004203D03*
X040302Y004361D03*
X040249Y004458D03*
X040162Y004568D03*
D24*
X040150Y004566D03*
X040138Y004581D03*
X040280Y004398D03*
X040295Y004388D03*
X040378Y004268D03*
X040398Y004238D03*
X040440Y004196D03*
X040475Y004151D03*
X040538Y004081D03*
X040780Y003931D03*
X040788Y003881D03*
X040953Y003841D03*
X040955Y003843D03*
X041145Y003821D03*
X041335Y003868D03*
X039045Y005513D03*
X038588Y005993D03*
D25*
X038075Y006031D03*
X039475Y006068D03*
X041045Y005423D03*
X041048Y005421D03*
X040150Y004561D03*
X040165Y004543D03*
X040218Y004473D03*
X040215Y004458D03*
X040225Y004446D03*
X040300Y004386D03*
X040323Y004353D03*
X040325Y004326D03*
X040358Y004286D03*
X040410Y004236D03*
X040453Y004188D03*
X040480Y004156D03*
X040518Y004116D03*
X040520Y004106D03*
X040590Y004051D03*
X040560Y004006D03*
X040710Y003963D03*
X040828Y003871D03*
X040870Y003858D03*
X040895Y003853D03*
X041023Y003843D03*
X041115Y003821D03*
X040625Y007351D03*
D26*
X040625Y007333D03*
X040435Y007171D03*
X040433Y007168D03*
X040428Y007163D03*
X040425Y007161D03*
X040423Y007158D03*
X040418Y007153D03*
X040413Y007148D03*
X040410Y007143D03*
X039630Y006098D03*
X039205Y005891D03*
X039205Y005888D03*
X039205Y005886D03*
X039205Y005883D03*
X039205Y005881D03*
X039320Y005636D03*
X039323Y005631D03*
X039325Y005628D03*
X039098Y005573D03*
X039095Y005571D03*
X039093Y005568D03*
X039085Y005558D03*
X038805Y005706D03*
X038808Y005711D03*
X038808Y005713D03*
X038815Y005728D03*
X038815Y005731D03*
X038815Y005733D03*
X038593Y005953D03*
X038890Y006063D03*
X038890Y006066D03*
X038895Y006086D03*
X038895Y006088D03*
X038895Y006091D03*
X038895Y006093D03*
X038895Y006096D03*
X038105Y005881D03*
X038098Y005866D03*
X038095Y005861D03*
X038095Y005858D03*
X037975Y005743D03*
X037168Y005691D03*
X037168Y005688D03*
X037165Y005686D03*
X037165Y005683D03*
X037160Y005633D03*
X037393Y006161D03*
X041450Y004093D03*
X041450Y004091D03*
X041443Y004076D03*
X041440Y004071D03*
X041438Y004066D03*
X041435Y004061D03*
X041435Y004058D03*
X041433Y004056D03*
X041433Y004053D03*
X041160Y003823D03*
X041158Y003826D03*
X040915Y003861D03*
X040890Y003868D03*
D27*
X040837Y003893D03*
X041172Y003828D03*
X041407Y004006D03*
X041409Y004011D03*
X041409Y004013D03*
X039699Y005571D03*
X039384Y005576D03*
X039377Y005578D03*
X039364Y005591D03*
X038787Y005681D03*
X038502Y005706D03*
X038499Y005701D03*
X038489Y005686D03*
X038487Y005683D03*
X038484Y005681D03*
X038592Y005928D03*
X038077Y005833D03*
X037982Y005748D03*
X037182Y005711D03*
X037177Y005618D03*
X037189Y005598D03*
X039207Y005836D03*
X039207Y005838D03*
X039207Y005841D03*
X039207Y005843D03*
X039207Y005846D03*
X039207Y005848D03*
X039207Y005851D03*
X038312Y006298D03*
X040469Y007206D03*
X040472Y007208D03*
X040622Y007328D03*
D28*
X039207Y006103D03*
X040129Y004591D03*
X040202Y004548D03*
X040204Y004546D03*
X040222Y004518D03*
X040244Y004473D03*
X040224Y004443D03*
X040269Y004436D03*
X040284Y004403D03*
X040342Y004311D03*
X040437Y004201D03*
X040454Y004183D03*
X040477Y004146D03*
X040514Y004108D03*
X040519Y004113D03*
X040684Y003963D03*
X040699Y003956D03*
X040747Y003943D03*
X040839Y003856D03*
X041047Y003831D03*
X041082Y003833D03*
X041087Y003828D03*
D29*
X041050Y003828D03*
X040795Y003883D03*
X040785Y003896D03*
X040708Y003948D03*
X040695Y003968D03*
X040448Y004178D03*
X040403Y004231D03*
X040390Y004246D03*
X040390Y004248D03*
X040260Y004431D03*
X040230Y004438D03*
X040223Y004503D03*
X040220Y004506D03*
X040178Y004581D03*
X041093Y005433D03*
X041080Y005448D03*
X041080Y005451D03*
X041080Y005453D03*
X041060Y005481D03*
X037183Y005573D03*
D30*
X038708Y005573D03*
X041068Y005468D03*
X040218Y004491D03*
X040225Y004483D03*
X040410Y004218D03*
X040415Y004211D03*
X040445Y004176D03*
X040798Y003918D03*
X041215Y003831D03*
D31*
X041143Y003831D03*
X041143Y003838D03*
X040968Y003851D03*
X040620Y004006D03*
X040618Y004008D03*
X040598Y004021D03*
X040133Y004638D03*
X040128Y004646D03*
X040123Y004656D03*
X040120Y004661D03*
X040118Y004663D03*
X040118Y004666D03*
X040115Y004671D03*
X040113Y004673D03*
X040103Y004696D03*
X040093Y004721D03*
X040093Y004723D03*
X040090Y004731D03*
X040088Y004733D03*
X040075Y004761D03*
X040075Y004763D03*
X040075Y004766D03*
X040075Y004768D03*
X040073Y004776D03*
X040070Y004781D03*
X040065Y004788D03*
X040060Y004803D03*
X040060Y004806D03*
X040058Y004816D03*
X040050Y004828D03*
X040050Y004831D03*
X040050Y004833D03*
X040050Y004836D03*
X040048Y004841D03*
X040045Y004846D03*
X040043Y004853D03*
X040043Y004856D03*
X040038Y004871D03*
X040038Y004873D03*
X040030Y004886D03*
X040030Y004888D03*
X040030Y004891D03*
X040030Y004893D03*
X040023Y004913D03*
X040023Y004916D03*
X040023Y004918D03*
X040023Y004921D03*
X040023Y004923D03*
X040020Y004928D03*
X040020Y004931D03*
X040015Y004938D03*
X040015Y004941D03*
X040015Y004943D03*
X040015Y004946D03*
X040015Y004948D03*
X040013Y004951D03*
X040010Y004956D03*
X040010Y004958D03*
X040010Y004961D03*
X040010Y004963D03*
X040010Y004966D03*
X040008Y004971D03*
X040008Y004973D03*
X040005Y004976D03*
X040005Y004978D03*
X040005Y004981D03*
X040005Y004983D03*
X040003Y004986D03*
X039998Y005008D03*
X039995Y005013D03*
X039995Y005016D03*
X039995Y005026D03*
X039990Y005038D03*
X039983Y005068D03*
X039983Y005071D03*
X039983Y005073D03*
X039983Y005076D03*
X039983Y005078D03*
X039978Y005096D03*
X039978Y005098D03*
X039978Y005101D03*
X039975Y005103D03*
X039970Y005128D03*
X039973Y005136D03*
X039970Y005138D03*
X039970Y005141D03*
X039970Y005143D03*
X039968Y005151D03*
X039968Y005153D03*
X039968Y005156D03*
X039958Y005201D03*
X039958Y005203D03*
X039958Y005206D03*
X039958Y005208D03*
X039958Y005211D03*
X039958Y005213D03*
X039958Y005216D03*
X039958Y005226D03*
X039955Y005228D03*
X039955Y005231D03*
X039955Y005233D03*
X039953Y005256D03*
X039953Y005258D03*
X039953Y005261D03*
X039953Y005263D03*
X039953Y005266D03*
X039953Y005268D03*
X039953Y005271D03*
X039945Y005311D03*
X039945Y005313D03*
X039945Y005316D03*
X039945Y005318D03*
X039943Y005353D03*
X039943Y005356D03*
X039940Y005373D03*
X039940Y005386D03*
X039940Y005388D03*
X039938Y005408D03*
X039935Y005413D03*
X039935Y005416D03*
X039935Y005418D03*
X039935Y005421D03*
X039935Y005423D03*
X039935Y005426D03*
X039935Y005428D03*
X039935Y005433D03*
X039935Y005436D03*
X039935Y005441D03*
X039935Y005443D03*
X039935Y005446D03*
X039935Y005463D03*
X039935Y005466D03*
X039935Y005468D03*
X039935Y005471D03*
X039933Y005486D03*
X039933Y005488D03*
X039933Y005498D03*
X039933Y005501D03*
X039933Y005503D03*
X039933Y005506D03*
X039933Y005516D03*
X039933Y005518D03*
X039933Y005521D03*
X039933Y005536D03*
X039930Y005561D03*
X039930Y005563D03*
X039930Y005566D03*
X039933Y005571D03*
X039933Y005573D03*
X039933Y005576D03*
X039930Y005581D03*
X039930Y005583D03*
X039930Y005586D03*
X039930Y005588D03*
X039930Y005591D03*
X039930Y005593D03*
X039930Y005596D03*
X039930Y005598D03*
X039930Y005601D03*
X039930Y005603D03*
X039930Y005606D03*
X039930Y005618D03*
X039930Y005621D03*
X039930Y005623D03*
X039930Y005626D03*
X039930Y005628D03*
X039930Y005631D03*
X039930Y005633D03*
X039930Y005651D03*
X039930Y005653D03*
X039930Y005663D03*
X039930Y005666D03*
X039930Y005668D03*
X039935Y005681D03*
X039935Y005683D03*
X039933Y005686D03*
X039933Y005691D03*
X039933Y005693D03*
X039933Y005696D03*
X039933Y005698D03*
X039933Y005701D03*
X039933Y005703D03*
X039933Y005706D03*
X039933Y005708D03*
X039933Y005713D03*
X039933Y005716D03*
X039933Y005718D03*
X039933Y005721D03*
X039933Y005723D03*
X039933Y005726D03*
X039933Y005728D03*
X039933Y005731D03*
X039935Y005743D03*
X039935Y005746D03*
X039935Y005748D03*
X039935Y005763D03*
X039938Y005771D03*
X039935Y005793D03*
X039935Y005796D03*
X039935Y005798D03*
X039935Y005801D03*
X039935Y005803D03*
X039938Y005828D03*
X039940Y005836D03*
X039940Y005846D03*
X039940Y005858D03*
X039940Y005861D03*
X039940Y005863D03*
X039943Y005876D03*
X039943Y005878D03*
X039943Y005881D03*
X039943Y005883D03*
X039943Y005886D03*
X039945Y005891D03*
X039945Y005893D03*
X039945Y005908D03*
X039945Y005911D03*
X039945Y005913D03*
X039945Y005916D03*
X039945Y005918D03*
X039950Y005961D03*
X039950Y005963D03*
X039953Y005968D03*
X039953Y005971D03*
X039953Y005973D03*
X039953Y005986D03*
X039953Y005988D03*
X039960Y006031D03*
X039960Y006033D03*
X039960Y006036D03*
X039963Y006053D03*
X039963Y006056D03*
X039965Y006071D03*
X039965Y006073D03*
X039965Y006076D03*
X039965Y006078D03*
X039965Y006081D03*
X039968Y006086D03*
X039968Y006088D03*
X039968Y006091D03*
X039968Y006093D03*
X039968Y006096D03*
X039970Y006101D03*
X039970Y006103D03*
X039973Y006118D03*
X039973Y006121D03*
X039973Y006123D03*
X039975Y006136D03*
X039978Y006151D03*
X039980Y006158D03*
X039983Y006171D03*
X039983Y006173D03*
X039985Y006188D03*
X039988Y006211D03*
X039990Y006218D03*
X039990Y006221D03*
X039990Y006223D03*
X039993Y006233D03*
X039995Y006241D03*
X039995Y006243D03*
X039995Y006246D03*
X040000Y006263D03*
X040018Y006338D03*
X040025Y006368D03*
X040028Y006376D03*
X040053Y006458D03*
X040055Y006468D03*
X040055Y006471D03*
X040055Y006473D03*
X040063Y006493D03*
X039540Y006191D03*
X038890Y006116D03*
X038095Y006016D03*
X038095Y006013D03*
D32*
X038882Y006128D03*
X039204Y006101D03*
X037259Y006596D03*
X040169Y004548D03*
X040199Y004533D03*
X040257Y004446D03*
X040267Y004421D03*
X040304Y004373D03*
X040444Y004191D03*
X040447Y004171D03*
X040524Y004103D03*
X040642Y003963D03*
X040709Y003946D03*
X040892Y003843D03*
X041017Y003878D03*
X041079Y003831D03*
D33*
X041212Y003833D03*
X040792Y003921D03*
X040564Y004058D03*
X040562Y004061D03*
X040554Y004071D03*
X040419Y004206D03*
X040369Y004258D03*
X040372Y004261D03*
X040262Y004418D03*
X040252Y004441D03*
X040242Y004453D03*
X040237Y004463D03*
X040224Y004486D03*
X041102Y005421D03*
X039472Y006076D03*
X039197Y006098D03*
X038882Y006126D03*
X037287Y006591D03*
D34*
X038707Y005571D03*
X041074Y005466D03*
X041074Y005463D03*
X041077Y005458D03*
X041079Y005456D03*
X041082Y005446D03*
X040199Y004543D03*
X040207Y004531D03*
X040209Y004528D03*
X040217Y004516D03*
X040172Y004553D03*
X040234Y004436D03*
X040272Y004408D03*
X040439Y004193D03*
X040667Y003961D03*
X040687Y003976D03*
X040767Y003916D03*
X041047Y003833D03*
D35*
X041147Y003836D03*
X040149Y004606D03*
X040144Y004611D03*
X040139Y004618D03*
X040119Y004668D03*
X040109Y004686D03*
X040107Y004688D03*
X040004Y004993D03*
X040004Y004996D03*
X039964Y005168D03*
X038349Y005551D03*
X039934Y005648D03*
X039937Y005646D03*
X039937Y005643D03*
X039937Y005641D03*
X039484Y006086D03*
X038327Y006286D03*
D36*
X038332Y006281D03*
X038882Y006121D03*
X039542Y006196D03*
X037367Y006186D03*
X040159Y004593D03*
X040177Y004563D03*
X040174Y004556D03*
X040552Y004068D03*
X040569Y004053D03*
X040579Y004046D03*
X040782Y003923D03*
X041062Y003836D03*
D37*
X041234Y003838D03*
X041237Y003841D03*
X040662Y003971D03*
X040124Y004653D03*
X040122Y004658D03*
X040074Y004771D03*
X040074Y004773D03*
X040072Y004778D03*
X040059Y004808D03*
X040059Y004811D03*
X040059Y004813D03*
X040049Y004838D03*
X040047Y004843D03*
X040044Y004848D03*
X040044Y004851D03*
X040042Y004858D03*
X040042Y004861D03*
X040039Y004868D03*
X040022Y004926D03*
X040019Y004933D03*
X039997Y005011D03*
X039952Y005273D03*
X039952Y005276D03*
X039952Y005278D03*
X039949Y005286D03*
X039949Y005288D03*
X039949Y005291D03*
X039949Y005296D03*
X039949Y005298D03*
X039949Y005301D03*
X039949Y005303D03*
X039947Y005308D03*
X039947Y005333D03*
X039947Y005336D03*
X039947Y005338D03*
X039944Y005346D03*
X039944Y005348D03*
X039944Y005351D03*
X039939Y005391D03*
X039939Y005393D03*
X039939Y005396D03*
X039939Y005398D03*
X039939Y005401D03*
X039939Y005403D03*
X039939Y005406D03*
X039934Y005431D03*
X039937Y005438D03*
X039937Y005448D03*
X039934Y005473D03*
X039934Y005476D03*
X039934Y005478D03*
X039934Y005481D03*
X039934Y005483D03*
X039934Y005508D03*
X039932Y005523D03*
X039934Y005526D03*
X039934Y005528D03*
X039934Y005531D03*
X039932Y005578D03*
X039932Y005608D03*
X039932Y005611D03*
X039932Y005613D03*
X039932Y005616D03*
X039932Y005656D03*
X039932Y005658D03*
X039932Y005661D03*
X039932Y005688D03*
X039932Y005711D03*
X039934Y005733D03*
X039934Y005736D03*
X039934Y005738D03*
X039934Y005741D03*
X039937Y005766D03*
X039937Y005768D03*
X039937Y005806D03*
X039939Y005838D03*
X039939Y005841D03*
X039942Y005848D03*
X039942Y005851D03*
X039942Y005853D03*
X039942Y005856D03*
X039942Y005866D03*
X039942Y005868D03*
X039947Y005906D03*
X039947Y005921D03*
X039947Y005923D03*
X039949Y005938D03*
X039949Y005941D03*
X039949Y005943D03*
X039952Y005948D03*
X039952Y005951D03*
X039952Y005953D03*
X039952Y005958D03*
X039952Y005976D03*
X039952Y005978D03*
X039954Y005981D03*
X039954Y005983D03*
X039957Y006003D03*
X039957Y006006D03*
X039959Y006013D03*
X039959Y006016D03*
X039959Y006018D03*
X039959Y006021D03*
X039959Y006023D03*
X039959Y006026D03*
X039959Y006028D03*
X039962Y006038D03*
X039962Y006041D03*
X039962Y006043D03*
X039962Y006046D03*
X039962Y006048D03*
X039962Y006051D03*
X039964Y006058D03*
X039964Y006061D03*
X039964Y006063D03*
X039964Y006066D03*
X039964Y006068D03*
X039967Y006083D03*
X039969Y006098D03*
X039972Y006106D03*
X039972Y006108D03*
X039972Y006111D03*
X039972Y006113D03*
X039972Y006116D03*
X039974Y006126D03*
X039974Y006128D03*
X039974Y006131D03*
X039974Y006133D03*
X039977Y006138D03*
X039977Y006141D03*
X039977Y006143D03*
X039977Y006146D03*
X039977Y006148D03*
X039979Y006153D03*
X039979Y006156D03*
X039982Y006161D03*
X039982Y006163D03*
X039982Y006166D03*
X039982Y006168D03*
X039984Y006176D03*
X039984Y006178D03*
X039984Y006181D03*
X039984Y006183D03*
X039984Y006186D03*
X039987Y006191D03*
X039987Y006193D03*
X039987Y006196D03*
X039989Y006201D03*
X039989Y006203D03*
X039989Y006206D03*
X039989Y006208D03*
X039992Y006226D03*
X039992Y006228D03*
X039992Y006231D03*
X039994Y006236D03*
X039994Y006238D03*
X039997Y006248D03*
X039997Y006251D03*
X039997Y006253D03*
X039999Y006258D03*
X039999Y006261D03*
X040002Y006266D03*
X040002Y006268D03*
X040004Y006276D03*
X040004Y006278D03*
X040004Y006281D03*
X040004Y006283D03*
X040004Y006286D03*
X040007Y006288D03*
X040007Y006291D03*
X040009Y006293D03*
X040009Y006296D03*
X040009Y006298D03*
X040012Y006313D03*
X040012Y006316D03*
X040012Y006318D03*
X040014Y006321D03*
X040014Y006323D03*
X040017Y006326D03*
X040017Y006328D03*
X040017Y006331D03*
X040017Y006333D03*
X040017Y006336D03*
X040019Y006341D03*
X040022Y006348D03*
X040024Y006361D03*
X040024Y006363D03*
X040024Y006366D03*
X040027Y006371D03*
X040027Y006373D03*
X040029Y006378D03*
X040032Y006386D03*
X040032Y006388D03*
X040034Y006393D03*
X040039Y006411D03*
X040039Y006413D03*
X040039Y006416D03*
X040039Y006418D03*
X040044Y006428D03*
X040044Y006431D03*
X040044Y006433D03*
X040047Y006438D03*
X040049Y006441D03*
X040049Y006443D03*
X040049Y006446D03*
X040052Y006453D03*
X040052Y006456D03*
X040054Y006461D03*
X040054Y006463D03*
X040054Y006466D03*
X040057Y006476D03*
X040062Y006488D03*
X040062Y006491D03*
X040064Y006496D03*
X040064Y006498D03*
X040064Y006501D03*
X040067Y006506D03*
X040084Y006553D03*
X040084Y006556D03*
X040084Y006558D03*
X040087Y006561D03*
X040087Y006563D03*
X039202Y006086D03*
X038892Y006113D03*
X038592Y005981D03*
X037377Y006178D03*
X040632Y007341D03*
D38*
X040475Y007213D03*
X040473Y007211D03*
X038593Y005926D03*
X038593Y005923D03*
X038483Y005678D03*
X038480Y005676D03*
X038478Y005673D03*
X038078Y005836D03*
X039393Y005568D03*
X041403Y004003D03*
X041098Y003841D03*
X040895Y003873D03*
D39*
X041160Y003843D03*
X039565Y005493D03*
X038723Y005661D03*
X039563Y006108D03*
D40*
X037645Y006493D03*
X037590Y006506D03*
X037550Y006516D03*
X041138Y003846D03*
D41*
X041163Y003848D03*
D42*
X040883Y003848D03*
X040863Y003853D03*
X040720Y003951D03*
X040720Y003958D03*
X040653Y003968D03*
X040558Y004073D03*
X040458Y004163D03*
X040435Y004198D03*
X040418Y004213D03*
X040405Y004233D03*
X040283Y004393D03*
X040258Y004443D03*
X040245Y004456D03*
X040218Y004513D03*
X040215Y004523D03*
X040188Y004566D03*
X041075Y005461D03*
D43*
X038725Y005678D03*
X041158Y003851D03*
X041243Y003886D03*
D44*
X040843Y003851D03*
X040790Y003878D03*
X040625Y003956D03*
X040535Y004098D03*
X040518Y004111D03*
X040483Y004143D03*
X040315Y004348D03*
X040310Y004368D03*
X040305Y004376D03*
X040288Y004391D03*
X040288Y004396D03*
X040193Y004541D03*
X041050Y005483D03*
X041048Y005486D03*
X039475Y006071D03*
X038340Y005546D03*
D45*
X038264Y006331D03*
X037522Y006523D03*
X041154Y003853D03*
D46*
X040944Y003853D03*
X040579Y004041D03*
X040247Y004433D03*
X037187Y005578D03*
X037972Y005733D03*
X038089Y006026D03*
X038329Y006283D03*
X039204Y006093D03*
X039542Y006193D03*
D47*
X041109Y003856D03*
D48*
X041137Y003858D03*
X037757Y006463D03*
D49*
X037307Y006588D03*
X039484Y006091D03*
X039954Y005993D03*
X039954Y005991D03*
X039957Y005996D03*
X039957Y005998D03*
X039957Y006001D03*
X039952Y005966D03*
X039944Y005903D03*
X039944Y005901D03*
X039944Y005898D03*
X039944Y005896D03*
X039944Y005888D03*
X039939Y005833D03*
X039939Y005831D03*
X039939Y005826D03*
X039939Y005823D03*
X039939Y005821D03*
X039939Y005818D03*
X039939Y005816D03*
X039939Y005813D03*
X039939Y005811D03*
X039939Y005808D03*
X039937Y005791D03*
X039937Y005788D03*
X039937Y005786D03*
X039937Y005783D03*
X039937Y005781D03*
X039937Y005778D03*
X039937Y005776D03*
X039937Y005773D03*
X039937Y005761D03*
X039937Y005758D03*
X039934Y005753D03*
X039934Y005751D03*
X039934Y005678D03*
X039934Y005676D03*
X039934Y005673D03*
X039934Y005638D03*
X039932Y005636D03*
X039932Y005568D03*
X039929Y005558D03*
X039929Y005556D03*
X039932Y005551D03*
X039929Y005546D03*
X039932Y005538D03*
X039932Y005496D03*
X039932Y005493D03*
X039932Y005491D03*
X039934Y005461D03*
X039934Y005458D03*
X039934Y005456D03*
X039937Y005411D03*
X039942Y005383D03*
X039942Y005381D03*
X039942Y005378D03*
X039942Y005376D03*
X039942Y005371D03*
X039942Y005368D03*
X039944Y005358D03*
X039947Y005328D03*
X039947Y005326D03*
X039947Y005323D03*
X039947Y005321D03*
X039952Y005253D03*
X039954Y005243D03*
X039954Y005241D03*
X039954Y005238D03*
X039954Y005236D03*
X039959Y005223D03*
X039959Y005221D03*
X039959Y005218D03*
X039959Y005198D03*
X039962Y005191D03*
X039962Y005188D03*
X039962Y005186D03*
X039962Y005183D03*
X039962Y005181D03*
X039967Y005158D03*
X039969Y005148D03*
X039969Y005146D03*
X039972Y005133D03*
X039972Y005131D03*
X039972Y005126D03*
X039972Y005123D03*
X039974Y005111D03*
X039974Y005108D03*
X039974Y005106D03*
X039979Y005093D03*
X039979Y005091D03*
X039979Y005088D03*
X039982Y005086D03*
X039982Y005083D03*
X039982Y005081D03*
X039984Y005066D03*
X039984Y005063D03*
X039984Y005061D03*
X039984Y005058D03*
X039987Y005056D03*
X039987Y005053D03*
X039987Y005051D03*
X039989Y005043D03*
X039989Y005041D03*
X039992Y005036D03*
X039992Y005033D03*
X039992Y005031D03*
X039992Y005028D03*
X039994Y005023D03*
X039994Y005021D03*
X039994Y005018D03*
X039999Y005006D03*
X039999Y005003D03*
X039999Y005001D03*
X040004Y004988D03*
X040009Y004968D03*
X040012Y004953D03*
X040024Y004911D03*
X040024Y004908D03*
X040027Y004901D03*
X040029Y004896D03*
X040032Y004883D03*
X040034Y004881D03*
X040034Y004878D03*
X040037Y004876D03*
X040052Y004826D03*
X040054Y004823D03*
X040057Y004821D03*
X040057Y004818D03*
X040062Y004801D03*
X040064Y004798D03*
X040064Y004796D03*
X040064Y004793D03*
X040064Y004791D03*
X040069Y004783D03*
X040077Y004758D03*
X040079Y004756D03*
X040082Y004753D03*
X040082Y004751D03*
X040082Y004748D03*
X040082Y004746D03*
X040092Y004728D03*
X040092Y004726D03*
X040094Y004718D03*
X040094Y004716D03*
X040097Y004713D03*
X040097Y004711D03*
X040097Y004708D03*
X040099Y004706D03*
X040099Y004703D03*
X040099Y004701D03*
X040102Y004698D03*
X040104Y004693D03*
X040104Y004691D03*
X040107Y004683D03*
X040109Y004678D03*
X040127Y004651D03*
X040129Y004648D03*
X040132Y004641D03*
X040139Y004623D03*
X040139Y004621D03*
X040579Y004036D03*
X040582Y004033D03*
X040604Y004018D03*
X040934Y003858D03*
X038592Y005983D03*
X038097Y006018D03*
X039989Y006213D03*
X039989Y006216D03*
D50*
X041147Y003861D03*
D51*
X041148Y003863D03*
D52*
X040930Y003863D03*
X040625Y003996D03*
X040620Y003998D03*
X041498Y004498D03*
X041493Y004531D03*
X041493Y004533D03*
X041493Y004536D03*
X041488Y004591D03*
X041480Y004626D03*
X041480Y004628D03*
X041480Y004631D03*
X041465Y004703D03*
X041460Y004718D03*
X041450Y004746D03*
X041450Y004748D03*
X041450Y004751D03*
X041440Y004778D03*
X041440Y004786D03*
X041440Y004788D03*
X041440Y004791D03*
X041438Y004793D03*
X041430Y004818D03*
X041428Y004826D03*
X041428Y004828D03*
X041403Y004886D03*
X041370Y004963D03*
X041370Y004966D03*
X041368Y004968D03*
X041360Y004988D03*
X041353Y005008D03*
X041350Y005013D03*
X041335Y005038D03*
X041335Y005041D03*
X041328Y005051D03*
X041328Y005053D03*
X041310Y005088D03*
X041308Y005091D03*
X041263Y005178D03*
X041260Y005181D03*
X041225Y005233D03*
X041223Y005238D03*
X041218Y005246D03*
X041208Y005261D03*
X041205Y005263D03*
X041200Y005268D03*
X039733Y005621D03*
X039735Y005636D03*
X039735Y005638D03*
X039735Y005641D03*
X039735Y005643D03*
X039738Y005646D03*
X039738Y005648D03*
X039738Y005651D03*
X039738Y005653D03*
X039740Y005678D03*
X039740Y005721D03*
X039740Y005723D03*
X039710Y005913D03*
X039710Y005916D03*
X039695Y005963D03*
X039690Y005973D03*
X039690Y005976D03*
X039690Y005978D03*
X039690Y005981D03*
X039688Y005986D03*
X039685Y005988D03*
X039685Y005991D03*
X039683Y005996D03*
X039493Y006103D03*
X039163Y005683D03*
X039163Y005681D03*
X039160Y005676D03*
X039160Y005673D03*
X039155Y005658D03*
X039150Y005648D03*
X039150Y005646D03*
X039150Y005643D03*
X039143Y005631D03*
X039143Y005628D03*
X039140Y005626D03*
X039135Y005618D03*
X039133Y005616D03*
X038645Y005691D03*
X038645Y005693D03*
X038643Y005698D03*
X037190Y005588D03*
X037190Y005586D03*
X037385Y006168D03*
X040228Y006871D03*
X040230Y006876D03*
X040233Y006878D03*
X040233Y006881D03*
X040235Y006883D03*
X040238Y006888D03*
X040240Y006893D03*
X040243Y006896D03*
X040243Y006898D03*
X040245Y006901D03*
X040245Y006903D03*
X040255Y006916D03*
X040255Y006918D03*
X040265Y006931D03*
X040268Y006936D03*
X040270Y006943D03*
X040273Y006946D03*
X040275Y006951D03*
X040278Y006953D03*
X040280Y006958D03*
X040283Y006963D03*
X040285Y006966D03*
X040290Y006973D03*
X040293Y006981D03*
D53*
X040625Y007346D03*
X039473Y006078D03*
X038585Y005991D03*
X038085Y006028D03*
X037185Y005576D03*
X040163Y004598D03*
X040170Y004578D03*
X040165Y004576D03*
X040205Y004521D03*
X040213Y004498D03*
X040218Y004496D03*
X040230Y004471D03*
X040230Y004468D03*
X040415Y004208D03*
X040555Y004066D03*
X040780Y003926D03*
X040845Y003863D03*
X041103Y005416D03*
X041103Y005418D03*
D54*
X041067Y003866D03*
D55*
X041137Y003868D03*
X037887Y006433D03*
X037869Y006438D03*
D56*
X041098Y003871D03*
D57*
X041164Y003873D03*
X038194Y006358D03*
D58*
X041079Y003876D03*
D59*
X041199Y003878D03*
X037784Y006456D03*
D60*
X037573Y005998D03*
X037305Y005821D03*
X037290Y005806D03*
X037285Y005803D03*
X037283Y005801D03*
X037250Y005776D03*
X037245Y005773D03*
X037235Y005766D03*
X038050Y005816D03*
X038443Y005641D03*
X038588Y005841D03*
X038588Y005843D03*
X038588Y005846D03*
X038588Y005848D03*
X038585Y005858D03*
X038585Y005861D03*
X039213Y005776D03*
X038710Y005603D03*
X040893Y003878D03*
X041350Y003946D03*
X040618Y007321D03*
D61*
X037720Y006473D03*
X037670Y006486D03*
X039558Y005508D03*
X041215Y003881D03*
D62*
X041378Y003973D03*
X041378Y003976D03*
X041385Y003981D03*
X041393Y003988D03*
X040888Y003881D03*
X039693Y005566D03*
X039403Y005561D03*
X039210Y005806D03*
X038713Y005596D03*
X038460Y005653D03*
X038590Y005898D03*
X038590Y005901D03*
X038590Y005903D03*
X038063Y005823D03*
X038060Y005821D03*
X037983Y005753D03*
X037595Y006018D03*
X037588Y006013D03*
X037400Y006153D03*
X037193Y005728D03*
X040495Y007228D03*
X040498Y007231D03*
X040518Y007246D03*
D63*
X038268Y006328D03*
X041235Y003883D03*
D64*
X041420Y004028D03*
X041420Y004031D03*
X041423Y004033D03*
X041423Y004036D03*
X041428Y004043D03*
X040885Y003883D03*
X040825Y003898D03*
X039705Y005576D03*
X039360Y005593D03*
X039353Y005601D03*
X039350Y005603D03*
X039338Y005613D03*
X039335Y005616D03*
X039333Y005621D03*
X039203Y005861D03*
X039203Y005863D03*
X039203Y005866D03*
X039205Y005871D03*
X039205Y005873D03*
X038893Y006071D03*
X038893Y006073D03*
X038893Y006076D03*
X038893Y006078D03*
X038595Y005948D03*
X038798Y005696D03*
X038798Y005693D03*
X038795Y005691D03*
X038088Y005848D03*
X037170Y005693D03*
X037163Y005631D03*
X037168Y005626D03*
X037190Y005596D03*
X039625Y006103D03*
X040443Y007176D03*
X040445Y007181D03*
X040448Y007183D03*
X040453Y007188D03*
X040455Y007191D03*
D65*
X040485Y007221D03*
X040488Y007223D03*
X037600Y006031D03*
X037600Y006028D03*
X037600Y006026D03*
X037598Y006023D03*
X037598Y006021D03*
X037398Y006156D03*
X038068Y005826D03*
X037185Y005718D03*
X037185Y005716D03*
X037185Y005713D03*
X037183Y005611D03*
X037188Y005606D03*
X037188Y005603D03*
X039208Y005821D03*
X039208Y005823D03*
X039208Y005826D03*
X041395Y003996D03*
X041395Y003993D03*
X041393Y003991D03*
X041398Y003998D03*
X041388Y003983D03*
X040878Y003886D03*
D66*
X041248Y003888D03*
X038723Y005656D03*
X038568Y005726D03*
X039563Y006116D03*
X039563Y006118D03*
D67*
X039634Y006096D03*
X039204Y005921D03*
X039204Y005918D03*
X039204Y005916D03*
X039204Y005913D03*
X039204Y005898D03*
X039204Y005896D03*
X039204Y005893D03*
X039299Y005663D03*
X039312Y005646D03*
X039314Y005643D03*
X039317Y005641D03*
X039319Y005638D03*
X039322Y005633D03*
X039099Y005576D03*
X039089Y005563D03*
X039089Y005561D03*
X039087Y005556D03*
X038812Y005716D03*
X038814Y005726D03*
X038817Y005736D03*
X038827Y005758D03*
X038802Y005701D03*
X038877Y006006D03*
X038877Y006008D03*
X038882Y006028D03*
X038882Y006031D03*
X038882Y006033D03*
X038882Y006036D03*
X038884Y006041D03*
X038884Y006043D03*
X038887Y006046D03*
X038887Y006048D03*
X038887Y006051D03*
X038887Y006053D03*
X038887Y006056D03*
X038887Y006058D03*
X038594Y005956D03*
X038107Y005883D03*
X038104Y005878D03*
X038104Y005876D03*
X038102Y005873D03*
X038102Y005871D03*
X038099Y005868D03*
X037164Y005681D03*
X037159Y005676D03*
X037159Y005673D03*
X037157Y005658D03*
X037157Y005656D03*
X037157Y005653D03*
X037159Y005638D03*
X037159Y005636D03*
X037189Y005593D03*
X038359Y005561D03*
X039709Y005581D03*
X039712Y005583D03*
X040629Y003988D03*
X040864Y003888D03*
X041442Y004073D03*
X041444Y004078D03*
X041447Y004083D03*
X041447Y004086D03*
X041449Y004088D03*
X041454Y004098D03*
X041454Y004101D03*
X041454Y004103D03*
X041464Y004126D03*
X041472Y004148D03*
X040397Y007126D03*
X040402Y007131D03*
X040407Y007138D03*
X040409Y007141D03*
X040412Y007146D03*
X040417Y007151D03*
X040429Y007166D03*
D68*
X039564Y006121D03*
X038722Y005653D03*
X038569Y005728D03*
X038569Y005731D03*
X041259Y003891D03*
D69*
X041429Y004046D03*
X041432Y004048D03*
X041432Y004051D03*
X041437Y004063D03*
X041439Y004068D03*
X040854Y003891D03*
X039707Y005578D03*
X039564Y005476D03*
X039347Y005606D03*
X039347Y005608D03*
X039342Y005611D03*
X039334Y005618D03*
X039332Y005623D03*
X039329Y005626D03*
X039092Y005566D03*
X038807Y005708D03*
X038804Y005703D03*
X038799Y005698D03*
X038794Y005688D03*
X038709Y005588D03*
X037167Y005628D03*
X038089Y005851D03*
X038092Y005853D03*
X038094Y005856D03*
X038097Y005863D03*
X038594Y005951D03*
X038889Y006061D03*
X038892Y006068D03*
X038894Y006081D03*
X038894Y006083D03*
X039207Y005878D03*
X039207Y005876D03*
X039204Y005868D03*
X039629Y006101D03*
X037329Y006583D03*
X040419Y007156D03*
X040439Y007173D03*
D70*
X038284Y006316D03*
X039557Y006138D03*
X039224Y005696D03*
X039224Y005693D03*
X038572Y005748D03*
X041267Y003893D03*
X041272Y003896D03*
D71*
X040850Y003896D03*
X040800Y003913D03*
X040598Y004023D03*
X040593Y004026D03*
X040588Y004028D03*
X040573Y004043D03*
X040150Y004596D03*
X040135Y004636D03*
X040130Y004643D03*
X040113Y004676D03*
X040110Y004681D03*
X040088Y004736D03*
X040085Y004738D03*
X040085Y004741D03*
X040083Y004743D03*
X040068Y004786D03*
X040028Y004898D03*
X040025Y004903D03*
X040025Y004906D03*
X040005Y004991D03*
X040000Y004998D03*
X039988Y005046D03*
X039988Y005048D03*
X039973Y005113D03*
X039973Y005116D03*
X039973Y005118D03*
X039973Y005121D03*
X039965Y005161D03*
X039965Y005163D03*
X039965Y005166D03*
X039963Y005171D03*
X039963Y005173D03*
X039963Y005176D03*
X039963Y005178D03*
X039960Y005193D03*
X039960Y005196D03*
X039953Y005246D03*
X039953Y005248D03*
X039953Y005251D03*
X039943Y005361D03*
X039943Y005363D03*
X039943Y005366D03*
X039930Y005541D03*
X039930Y005543D03*
X039930Y005548D03*
X039930Y005553D03*
X039933Y005671D03*
X039935Y005756D03*
X039565Y005471D03*
X039483Y006088D03*
X038888Y006118D03*
X037193Y005581D03*
D72*
X038573Y005751D03*
X038573Y005753D03*
X038573Y005756D03*
X038573Y005758D03*
X038720Y005638D03*
X039563Y005488D03*
X039555Y006141D03*
X037450Y006546D03*
X041275Y003898D03*
D73*
X041280Y003901D03*
X039223Y005701D03*
X038718Y005633D03*
X038395Y005616D03*
X038393Y005611D03*
X039555Y006143D03*
X040575Y007273D03*
D74*
X040382Y007106D03*
X040374Y007096D03*
X040372Y007091D03*
X040344Y007056D03*
X040342Y007053D03*
X039639Y006086D03*
X039644Y006078D03*
X039644Y006076D03*
X039649Y006068D03*
X039209Y006046D03*
X039209Y006043D03*
X039209Y006041D03*
X039209Y006038D03*
X039207Y006051D03*
X039207Y006053D03*
X039207Y006056D03*
X039207Y006058D03*
X039209Y006021D03*
X039209Y006003D03*
X039207Y006001D03*
X039207Y005998D03*
X039207Y005996D03*
X039207Y005993D03*
X039207Y005991D03*
X039207Y005988D03*
X039207Y005973D03*
X039207Y005971D03*
X039207Y005968D03*
X039207Y005966D03*
X039204Y005953D03*
X039204Y005951D03*
X039204Y005948D03*
X039204Y005936D03*
X039204Y005933D03*
X039204Y005908D03*
X039204Y005906D03*
X038872Y005976D03*
X038869Y005966D03*
X038867Y005961D03*
X038867Y005958D03*
X038867Y005956D03*
X038867Y005953D03*
X038867Y005951D03*
X038867Y005948D03*
X038867Y005946D03*
X038864Y005941D03*
X038864Y005938D03*
X038862Y005936D03*
X038862Y005933D03*
X038862Y005931D03*
X038862Y005928D03*
X038859Y005916D03*
X038874Y005988D03*
X038874Y005991D03*
X038879Y006018D03*
X038879Y006021D03*
X038894Y006098D03*
X038594Y005961D03*
X038837Y005801D03*
X038837Y005798D03*
X038837Y005796D03*
X038837Y005793D03*
X038832Y005773D03*
X038827Y005766D03*
X038827Y005763D03*
X038824Y005756D03*
X038824Y005753D03*
X038824Y005751D03*
X038822Y005748D03*
X038822Y005746D03*
X038822Y005743D03*
X038822Y005741D03*
X038709Y005586D03*
X039084Y005551D03*
X039114Y005588D03*
X037974Y005741D03*
X038109Y005888D03*
X038112Y005896D03*
X038112Y005898D03*
X038112Y005901D03*
X038112Y005913D03*
X038112Y005916D03*
X038112Y005918D03*
X038112Y005921D03*
X038107Y005963D03*
X038107Y005966D03*
X038102Y005978D03*
X038102Y005981D03*
X038102Y005983D03*
X037392Y006163D03*
X037157Y005666D03*
X037157Y005663D03*
X037159Y005646D03*
X041497Y004276D03*
X041497Y004263D03*
X041494Y004261D03*
X041494Y004258D03*
X041492Y004256D03*
X041492Y004253D03*
X041489Y004218D03*
X041487Y004208D03*
X041487Y004206D03*
X041484Y004203D03*
X041479Y004178D03*
X041477Y004173D03*
X041477Y004171D03*
X041477Y004168D03*
X041477Y004166D03*
X041474Y004163D03*
X041472Y004156D03*
X041472Y004153D03*
X041469Y004146D03*
X041469Y004143D03*
X041469Y004141D03*
X041469Y004138D03*
X041459Y004116D03*
X041457Y004111D03*
X040827Y003901D03*
X040647Y003978D03*
D75*
X041287Y003903D03*
X039224Y005703D03*
X038574Y005763D03*
X038574Y005766D03*
X038574Y005768D03*
X038399Y005618D03*
X038394Y005613D03*
X039557Y006146D03*
X040569Y007268D03*
X040574Y007271D03*
X040582Y007278D03*
X040587Y007281D03*
D76*
X040378Y007101D03*
X040365Y007083D03*
X040358Y007076D03*
X040353Y007068D03*
X040350Y007066D03*
X040348Y007063D03*
X040348Y007061D03*
X040345Y007058D03*
X040340Y007051D03*
X039550Y006186D03*
X039640Y006083D03*
X039645Y006073D03*
X039648Y006071D03*
X039650Y006066D03*
X039653Y006063D03*
X039653Y006061D03*
X039660Y006051D03*
X039208Y006048D03*
X039208Y006036D03*
X039208Y006033D03*
X039208Y006031D03*
X039208Y006028D03*
X039208Y006018D03*
X039208Y006016D03*
X039208Y006013D03*
X039208Y006011D03*
X039208Y006008D03*
X039208Y006006D03*
X039208Y005986D03*
X039208Y005983D03*
X039208Y005981D03*
X039208Y005978D03*
X039208Y005976D03*
X039205Y005963D03*
X039205Y005961D03*
X039205Y005958D03*
X039205Y005956D03*
X039205Y005946D03*
X039205Y005943D03*
X039205Y005941D03*
X039205Y005938D03*
X039208Y006061D03*
X039208Y006063D03*
X039208Y006066D03*
X038860Y005926D03*
X038860Y005923D03*
X038860Y005921D03*
X038860Y005918D03*
X038858Y005913D03*
X038858Y005911D03*
X038858Y005908D03*
X038858Y005906D03*
X038858Y005903D03*
X038855Y005901D03*
X038855Y005898D03*
X038855Y005896D03*
X038855Y005893D03*
X038855Y005891D03*
X038855Y005888D03*
X038855Y005886D03*
X038855Y005883D03*
X038853Y005876D03*
X038850Y005863D03*
X038850Y005861D03*
X038850Y005858D03*
X038848Y005853D03*
X038848Y005851D03*
X038845Y005843D03*
X038845Y005841D03*
X038840Y005823D03*
X038840Y005821D03*
X038840Y005818D03*
X038840Y005816D03*
X038840Y005813D03*
X038838Y005806D03*
X038838Y005803D03*
X038835Y005791D03*
X038835Y005788D03*
X038830Y005778D03*
X038830Y005776D03*
X038593Y005963D03*
X038113Y005933D03*
X038113Y005931D03*
X038113Y005928D03*
X038113Y005926D03*
X038113Y005923D03*
X038113Y005911D03*
X038113Y005908D03*
X038113Y005906D03*
X038113Y005903D03*
X038110Y005893D03*
X038110Y005891D03*
X038110Y005938D03*
X038110Y005941D03*
X038110Y005943D03*
X038110Y005946D03*
X038110Y005948D03*
X038110Y005951D03*
X038108Y005953D03*
X038108Y005956D03*
X038108Y005958D03*
X038108Y005961D03*
X038105Y005968D03*
X038105Y005971D03*
X038103Y005976D03*
X038100Y005986D03*
X038100Y005988D03*
X038100Y005991D03*
X038100Y005993D03*
X039288Y005678D03*
X039125Y005603D03*
X039123Y005598D03*
X039080Y005548D03*
X039080Y005546D03*
X039078Y005543D03*
X039073Y005541D03*
X038355Y005558D03*
X041480Y004648D03*
X041480Y004646D03*
X041480Y004643D03*
X041480Y004641D03*
X041503Y004368D03*
X041503Y004366D03*
X041503Y004363D03*
X041500Y004326D03*
X041495Y004283D03*
X041495Y004281D03*
X041495Y004278D03*
X041495Y004273D03*
X041495Y004271D03*
X041495Y004268D03*
X041495Y004266D03*
X041493Y004251D03*
X041493Y004248D03*
X041493Y004246D03*
X041493Y004243D03*
X041490Y004238D03*
X041490Y004236D03*
X041490Y004233D03*
X041490Y004231D03*
X041488Y004226D03*
X041488Y004223D03*
X041488Y004221D03*
X041488Y004216D03*
X041488Y004213D03*
X041488Y004211D03*
X041483Y004201D03*
X041483Y004198D03*
X041480Y004191D03*
X041480Y004188D03*
X041480Y004186D03*
X041480Y004183D03*
X041480Y004181D03*
X041478Y004176D03*
X041458Y004113D03*
X040818Y003903D03*
D77*
X041289Y003906D03*
X038384Y005598D03*
X038577Y005778D03*
X038577Y005781D03*
X038019Y005801D03*
X038017Y005798D03*
X039222Y005713D03*
X039557Y006151D03*
X037477Y006101D03*
X037472Y006106D03*
X037462Y006111D03*
X040602Y007296D03*
D78*
X040225Y006866D03*
X040223Y006861D03*
X040220Y006853D03*
X040218Y006851D03*
X040215Y006848D03*
X040215Y006846D03*
X040213Y006841D03*
X040210Y006838D03*
X040208Y006833D03*
X040208Y006831D03*
X040205Y006828D03*
X040203Y006823D03*
X040200Y006818D03*
X040188Y006793D03*
X040185Y006791D03*
X040183Y006786D03*
X040148Y006711D03*
X039490Y006098D03*
X039700Y005953D03*
X039700Y005951D03*
X039703Y005943D03*
X039703Y005941D03*
X039703Y005938D03*
X039705Y005931D03*
X039705Y005928D03*
X039708Y005923D03*
X039708Y005921D03*
X039713Y005908D03*
X039713Y005906D03*
X039713Y005903D03*
X039713Y005901D03*
X039715Y005896D03*
X039715Y005893D03*
X039718Y005888D03*
X039718Y005886D03*
X039723Y005863D03*
X039723Y005861D03*
X039723Y005858D03*
X039723Y005856D03*
X039725Y005851D03*
X039725Y005848D03*
X039725Y005846D03*
X039725Y005843D03*
X039725Y005841D03*
X039728Y005833D03*
X039728Y005831D03*
X039730Y005821D03*
X039733Y005796D03*
X039733Y005778D03*
X039733Y005776D03*
X039738Y005773D03*
X039738Y005771D03*
X039738Y005768D03*
X039738Y005766D03*
X039738Y005763D03*
X039738Y005751D03*
X039738Y005748D03*
X039740Y005736D03*
X039740Y005733D03*
X039738Y005716D03*
X039738Y005693D03*
X039738Y005691D03*
X039738Y005688D03*
X039738Y005686D03*
X039738Y005683D03*
X039738Y005681D03*
X039738Y005671D03*
X039738Y005668D03*
X039738Y005666D03*
X039738Y005663D03*
X039738Y005661D03*
X039065Y005531D03*
X038640Y005701D03*
X038640Y005703D03*
X038638Y005713D03*
X038638Y005716D03*
X038638Y005718D03*
X038638Y005721D03*
X038098Y006003D03*
X041110Y005388D03*
X041125Y005368D03*
X041145Y005341D03*
X041160Y005321D03*
X041163Y005316D03*
X041168Y005311D03*
X041168Y005308D03*
X041180Y005293D03*
X041183Y005291D03*
X041185Y005288D03*
X041190Y005281D03*
X041193Y005278D03*
X041195Y005276D03*
X041198Y005271D03*
X041220Y005241D03*
X041228Y005228D03*
X041230Y005226D03*
X041235Y005216D03*
X041253Y005188D03*
X041263Y005173D03*
X041280Y005141D03*
X041283Y005138D03*
X041283Y005136D03*
X041285Y005133D03*
X041298Y005108D03*
X041300Y005103D03*
X041300Y005101D03*
X041305Y005096D03*
X041310Y005083D03*
X041323Y005063D03*
X041325Y005058D03*
X041330Y005046D03*
X041338Y005033D03*
X041338Y005031D03*
X041340Y005028D03*
X041340Y005026D03*
X041343Y005023D03*
X041345Y005018D03*
X041345Y005016D03*
X041363Y004983D03*
X041363Y004981D03*
X041365Y004976D03*
X041365Y004973D03*
X041383Y004931D03*
X041405Y004878D03*
X041430Y004811D03*
X041443Y004773D03*
X041443Y004771D03*
X041443Y004768D03*
X041465Y004686D03*
X041468Y004683D03*
X040635Y003986D03*
X040620Y004001D03*
X040815Y003906D03*
D79*
X041294Y003908D03*
X038389Y005606D03*
X038574Y005771D03*
X038574Y005773D03*
X039222Y005711D03*
X039222Y005708D03*
X039557Y006148D03*
X038292Y006313D03*
X037464Y006108D03*
X037447Y006118D03*
X037444Y006121D03*
X037419Y006553D03*
X040564Y007266D03*
X040592Y007288D03*
X040597Y007291D03*
D80*
X040198Y006813D03*
X040195Y006808D03*
X040193Y006803D03*
X040178Y006771D03*
X040175Y006768D03*
X040168Y006753D03*
X040165Y006748D03*
X040163Y006746D03*
X040163Y006743D03*
X040160Y006738D03*
X040160Y006736D03*
X040158Y006733D03*
X040155Y006728D03*
X040155Y006726D03*
X040155Y006723D03*
X040153Y006721D03*
X040150Y006716D03*
X040150Y006713D03*
X040145Y006701D03*
X040140Y006693D03*
X040140Y006691D03*
X040138Y006686D03*
X040133Y006673D03*
X040130Y006668D03*
X040125Y006656D03*
X040123Y006651D03*
X040120Y006648D03*
X040120Y006646D03*
X040118Y006641D03*
X040110Y006628D03*
X040110Y006626D03*
X040105Y006613D03*
X040105Y006611D03*
X040105Y006608D03*
X039203Y006083D03*
X038098Y006008D03*
X037970Y005738D03*
X038353Y005553D03*
X039060Y005528D03*
X039738Y005708D03*
X039738Y005711D03*
X039733Y005788D03*
X039733Y005791D03*
X039730Y005806D03*
X039730Y005808D03*
X039730Y005811D03*
X041100Y005398D03*
X041100Y005396D03*
X041120Y005376D03*
X041123Y005373D03*
X041138Y005351D03*
X041143Y005343D03*
X041150Y005333D03*
X041155Y005328D03*
X041155Y005326D03*
X041245Y005198D03*
X041245Y005196D03*
X041263Y005168D03*
X041270Y005156D03*
X041278Y005143D03*
X041313Y005078D03*
X040600Y004016D03*
X040810Y003908D03*
D81*
X041298Y003911D03*
X039220Y005721D03*
X039220Y005723D03*
X039220Y005726D03*
X038580Y005791D03*
X038580Y005793D03*
X038580Y005796D03*
X037490Y006096D03*
D82*
X038099Y006006D03*
X038587Y005973D03*
X039204Y006078D03*
X039204Y006081D03*
X039707Y005926D03*
X039717Y005883D03*
X039717Y005881D03*
X039717Y005878D03*
X039717Y005876D03*
X039719Y005873D03*
X039719Y005871D03*
X039722Y005868D03*
X039722Y005866D03*
X039727Y005838D03*
X039727Y005836D03*
X039729Y005818D03*
X039729Y005816D03*
X039729Y005813D03*
X039732Y005803D03*
X039732Y005801D03*
X039732Y005798D03*
X039732Y005793D03*
X039734Y005786D03*
X039734Y005783D03*
X039734Y005781D03*
X039737Y005713D03*
X039739Y005706D03*
X039739Y005703D03*
X039739Y005701D03*
X039739Y005698D03*
X039739Y005696D03*
X041092Y005411D03*
X041094Y005408D03*
X041094Y005406D03*
X041097Y005403D03*
X041099Y005401D03*
X041112Y005386D03*
X041114Y005383D03*
X041114Y005381D03*
X041117Y005378D03*
X041124Y005371D03*
X041132Y005358D03*
X041134Y005356D03*
X041137Y005353D03*
X041139Y005348D03*
X041142Y005346D03*
X041149Y005338D03*
X041149Y005336D03*
X041154Y005331D03*
X041157Y005323D03*
X041162Y005318D03*
X041187Y005286D03*
X041237Y005213D03*
X041257Y005183D03*
X041262Y005171D03*
X041302Y005098D03*
X041312Y005081D03*
X041314Y005076D03*
X041317Y005073D03*
X041317Y005071D03*
X041317Y005068D03*
X041319Y005066D03*
X041324Y005061D03*
X041384Y004928D03*
X040619Y004003D03*
X040797Y003911D03*
X038714Y005583D03*
X040142Y006696D03*
X040144Y006698D03*
X040147Y006703D03*
X040147Y006706D03*
X040147Y006708D03*
X040152Y006718D03*
X040157Y006731D03*
X040162Y006741D03*
X040167Y006751D03*
X040169Y006756D03*
X040172Y006758D03*
X040172Y006761D03*
X040172Y006763D03*
X040174Y006766D03*
X040179Y006773D03*
X040179Y006776D03*
X040182Y006778D03*
X040182Y006781D03*
X040182Y006783D03*
X040184Y006788D03*
X040189Y006796D03*
X040189Y006798D03*
X040192Y006801D03*
X040194Y006806D03*
X040197Y006811D03*
X040199Y006816D03*
X040202Y006821D03*
X040204Y006826D03*
X040209Y006836D03*
X040214Y006843D03*
D83*
X038297Y006306D03*
X037539Y006076D03*
X037534Y006078D03*
X037529Y006081D03*
X038007Y005781D03*
X038012Y005786D03*
X038372Y005583D03*
X038582Y005811D03*
X039219Y005733D03*
X039562Y005483D03*
X039557Y006158D03*
X041304Y003913D03*
D84*
X041305Y003916D03*
X039435Y005551D03*
X039218Y005736D03*
X039218Y005738D03*
X039218Y005741D03*
X038713Y005613D03*
X038583Y005813D03*
X038033Y005808D03*
X038000Y005776D03*
X037508Y005951D03*
X037505Y005948D03*
X037500Y005946D03*
X037518Y006086D03*
X037505Y006091D03*
X037420Y006136D03*
X039555Y006161D03*
X040610Y007308D03*
D85*
X040605Y007306D03*
X039558Y006156D03*
X039220Y005731D03*
X039660Y005551D03*
X038713Y005616D03*
X038580Y005806D03*
X038580Y005808D03*
X038420Y005626D03*
X038418Y005623D03*
X038030Y005806D03*
X038005Y005778D03*
X037523Y006083D03*
X037498Y006093D03*
X041310Y003918D03*
D86*
X041309Y003921D03*
X041347Y003943D03*
X041352Y003948D03*
X039417Y005556D03*
X039214Y005771D03*
X039214Y005773D03*
X038587Y005851D03*
X038587Y005853D03*
X038587Y005856D03*
X038447Y005643D03*
X038442Y005638D03*
X038047Y005813D03*
X037989Y005761D03*
X037569Y005996D03*
X037564Y005991D03*
X037587Y006046D03*
X037584Y006048D03*
X037574Y006053D03*
X037412Y006146D03*
X037319Y005828D03*
X037314Y005826D03*
X037312Y005823D03*
X037299Y005813D03*
X037297Y005811D03*
X037274Y005796D03*
X037272Y005793D03*
X037267Y005791D03*
X037267Y005788D03*
X037262Y005786D03*
X039557Y006168D03*
X040534Y007256D03*
D87*
X040538Y007258D03*
X040615Y007318D03*
X037380Y006566D03*
X037578Y006051D03*
X037565Y005993D03*
X037560Y005988D03*
X037300Y005816D03*
X037278Y005798D03*
X038365Y005573D03*
X038438Y005636D03*
X039215Y005766D03*
X039215Y005768D03*
X041313Y003923D03*
X041343Y003938D03*
X041343Y003941D03*
D88*
X041330Y003933D03*
X041323Y003926D03*
X038370Y005581D03*
X037998Y005768D03*
X037998Y005771D03*
X037543Y005976D03*
X037533Y005966D03*
X037525Y005961D03*
X037520Y005958D03*
X037518Y005956D03*
X037495Y005943D03*
X037480Y005933D03*
X037470Y005928D03*
X037465Y005926D03*
X037443Y005911D03*
X037428Y005901D03*
X037410Y005891D03*
X037408Y005888D03*
X037405Y005886D03*
X037403Y005883D03*
X037383Y005871D03*
X037365Y005861D03*
X037415Y006141D03*
X038583Y005821D03*
X039218Y005746D03*
X039555Y006163D03*
D89*
X039217Y005751D03*
X039217Y005748D03*
X038714Y005608D03*
X038429Y005628D03*
X038584Y005823D03*
X038584Y005826D03*
X038584Y005828D03*
X038584Y005831D03*
X038584Y005833D03*
X037997Y005766D03*
X037554Y005983D03*
X037552Y005981D03*
X037542Y005973D03*
X037537Y005971D03*
X037534Y005968D03*
X037484Y005936D03*
X037459Y005921D03*
X037454Y005918D03*
X037449Y005916D03*
X037447Y005913D03*
X037399Y005881D03*
X037389Y005876D03*
X037387Y005873D03*
X037374Y005866D03*
X037372Y005863D03*
X037362Y005858D03*
X037359Y005856D03*
X037552Y006068D03*
X037557Y006066D03*
X040547Y007263D03*
X040614Y007313D03*
X041337Y003936D03*
X041329Y003931D03*
X041327Y003928D03*
D90*
X040778Y003928D03*
X040765Y003933D03*
X040723Y003953D03*
X040713Y003961D03*
X040673Y003966D03*
X040563Y004063D03*
X040553Y004051D03*
X040463Y004158D03*
X040408Y004223D03*
X040405Y004226D03*
X040388Y004243D03*
X040375Y004263D03*
X040263Y004423D03*
X040188Y004561D03*
X040180Y004571D03*
X041095Y005428D03*
X041095Y005431D03*
X041090Y005438D03*
X041090Y005441D03*
X041088Y005443D03*
X039473Y006073D03*
X038325Y006278D03*
X037963Y005731D03*
D91*
X037987Y005758D03*
X038362Y005571D03*
X039409Y005558D03*
X039677Y005556D03*
X038587Y005863D03*
X038587Y005866D03*
X037589Y006043D03*
X037409Y006148D03*
X037304Y005818D03*
X037292Y005808D03*
X037259Y005783D03*
X037254Y005781D03*
X037252Y005778D03*
X037229Y005761D03*
X037227Y005758D03*
X037209Y005743D03*
X037207Y005741D03*
X039557Y006171D03*
X037374Y006568D03*
X037372Y006571D03*
X037352Y006576D03*
X041354Y003951D03*
X041357Y003953D03*
X041364Y003958D03*
D92*
X041360Y003956D03*
X039680Y005558D03*
X039213Y005778D03*
X039213Y005781D03*
X039213Y005783D03*
X039213Y005786D03*
X039213Y005788D03*
X039213Y005791D03*
X038710Y005601D03*
X037240Y005771D03*
X037238Y005768D03*
X037230Y005763D03*
X037225Y005756D03*
X037575Y006001D03*
X037590Y006041D03*
X038055Y005818D03*
X038588Y005868D03*
X038588Y005871D03*
X038588Y005873D03*
X039558Y006173D03*
X040528Y007251D03*
X040530Y007253D03*
D93*
X037594Y006038D03*
X037579Y006003D03*
X037222Y005753D03*
X037219Y005751D03*
X037217Y005748D03*
X037214Y005746D03*
X037984Y005756D03*
X038359Y005568D03*
X038452Y005646D03*
X038712Y005598D03*
X038589Y005876D03*
X039564Y005478D03*
X041367Y003961D03*
D94*
X041368Y003963D03*
X041370Y003966D03*
X041373Y003968D03*
X039685Y005561D03*
X038590Y005878D03*
X038458Y005651D03*
X038455Y005648D03*
X037583Y006008D03*
X037595Y006036D03*
X038303Y006301D03*
X037355Y006573D03*
X039558Y006176D03*
X037203Y005738D03*
X037198Y005733D03*
X040510Y007241D03*
X040513Y007243D03*
X040523Y007248D03*
X040620Y007323D03*
D95*
X040507Y007238D03*
X040504Y007236D03*
X040502Y007233D03*
X037597Y006033D03*
X037584Y006011D03*
X037582Y006006D03*
X037404Y006151D03*
X038589Y005891D03*
X038589Y005888D03*
X038589Y005886D03*
X038589Y005883D03*
X038589Y005881D03*
X038592Y005893D03*
X038592Y005896D03*
X039209Y005803D03*
X039212Y005801D03*
X039212Y005798D03*
X039212Y005796D03*
X039212Y005793D03*
X039689Y005563D03*
X037202Y005736D03*
X037197Y005731D03*
X041374Y003971D03*
D96*
X040638Y003973D03*
X040605Y004013D03*
X040040Y004863D03*
X040040Y004866D03*
X040018Y004936D03*
X039950Y005281D03*
X039950Y005283D03*
X039950Y005293D03*
X039948Y005306D03*
X039945Y005331D03*
X039945Y005341D03*
X039945Y005343D03*
X039935Y005451D03*
X039935Y005453D03*
X039933Y005511D03*
X039933Y005513D03*
X039933Y005533D03*
X041088Y005413D03*
X041103Y005391D03*
X041238Y005206D03*
X041265Y005163D03*
X041273Y005151D03*
X041273Y005148D03*
X041273Y005146D03*
X039943Y005871D03*
X039943Y005873D03*
X039948Y005926D03*
X039948Y005928D03*
X039948Y005931D03*
X039948Y005933D03*
X039948Y005936D03*
X039950Y005946D03*
X039950Y005956D03*
X039958Y006008D03*
X039958Y006011D03*
X039988Y006198D03*
X039998Y006256D03*
X040003Y006271D03*
X040003Y006273D03*
X040010Y006301D03*
X040010Y006303D03*
X040010Y006306D03*
X040010Y006308D03*
X040010Y006311D03*
X040020Y006343D03*
X040020Y006346D03*
X040023Y006351D03*
X040023Y006353D03*
X040023Y006356D03*
X040023Y006358D03*
X040030Y006381D03*
X040030Y006383D03*
X040033Y006391D03*
X040035Y006396D03*
X040035Y006398D03*
X040035Y006401D03*
X040035Y006403D03*
X040038Y006406D03*
X040038Y006408D03*
X040040Y006421D03*
X040043Y006423D03*
X040043Y006426D03*
X040045Y006436D03*
X040050Y006448D03*
X040050Y006451D03*
X040058Y006478D03*
X040060Y006483D03*
X040060Y006486D03*
X040065Y006503D03*
X040068Y006508D03*
X040073Y006518D03*
X040073Y006521D03*
X040075Y006523D03*
X040075Y006526D03*
X040075Y006528D03*
X040078Y006531D03*
X040078Y006533D03*
X040078Y006536D03*
X040078Y006538D03*
X040078Y006541D03*
X040080Y006543D03*
X040080Y006546D03*
X040083Y006548D03*
X040083Y006551D03*
X040088Y006566D03*
X040090Y006571D03*
X040093Y006576D03*
X040095Y006583D03*
X040100Y006598D03*
X040100Y006601D03*
X040103Y006603D03*
X040103Y006606D03*
X040108Y006616D03*
X039485Y006093D03*
X038890Y006111D03*
X038590Y005978D03*
X037378Y006176D03*
X037190Y005583D03*
D97*
X037187Y005608D03*
X037182Y005613D03*
X037189Y005721D03*
X037192Y005723D03*
X037192Y005726D03*
X037592Y006016D03*
X038462Y005656D03*
X038359Y005566D03*
X039209Y005808D03*
X039209Y005811D03*
X039209Y005813D03*
X039209Y005816D03*
X039209Y005818D03*
X038592Y005906D03*
X038592Y005908D03*
X038592Y005911D03*
X040492Y007226D03*
X040622Y007326D03*
X041389Y003986D03*
X041382Y003978D03*
D98*
X040644Y003983D03*
X040632Y003981D03*
X040632Y003993D03*
X040602Y004011D03*
X041464Y004688D03*
X041464Y004691D03*
X041464Y004696D03*
X041464Y004698D03*
X041464Y004701D03*
X041442Y004776D03*
X041429Y004813D03*
X041429Y004816D03*
X041407Y004876D03*
X041404Y004881D03*
X041404Y004883D03*
X041382Y004933D03*
X041382Y004936D03*
X041382Y004938D03*
X041382Y004941D03*
X041382Y004943D03*
X041379Y004946D03*
X041379Y004948D03*
X041377Y004951D03*
X041374Y004953D03*
X041374Y004956D03*
X041374Y004958D03*
X041372Y004961D03*
X041367Y004971D03*
X041364Y004978D03*
X041362Y004986D03*
X041354Y005003D03*
X041354Y005006D03*
X041344Y005021D03*
X041337Y005036D03*
X041332Y005043D03*
X041329Y005048D03*
X041327Y005056D03*
X041312Y005086D03*
X041307Y005093D03*
X041299Y005106D03*
X041294Y005111D03*
X041294Y005113D03*
X041294Y005116D03*
X041287Y005131D03*
X041264Y005176D03*
X041254Y005186D03*
X041252Y005191D03*
X041234Y005218D03*
X041234Y005221D03*
X041234Y005223D03*
X041227Y005231D03*
X041219Y005243D03*
X041197Y005273D03*
X041189Y005283D03*
X041179Y005296D03*
X041179Y005298D03*
X041164Y005313D03*
X041129Y005361D03*
X041129Y005363D03*
X041129Y005366D03*
X039739Y005673D03*
X039739Y005676D03*
X039739Y005718D03*
X039742Y005726D03*
X039742Y005728D03*
X039742Y005731D03*
X039739Y005738D03*
X039739Y005741D03*
X039739Y005743D03*
X039739Y005746D03*
X039737Y005753D03*
X039737Y005756D03*
X039737Y005758D03*
X039737Y005761D03*
X039729Y005823D03*
X039729Y005826D03*
X039729Y005828D03*
X039724Y005853D03*
X039717Y005891D03*
X039714Y005898D03*
X039712Y005911D03*
X039709Y005918D03*
X039707Y005933D03*
X039704Y005936D03*
X039702Y005946D03*
X039702Y005948D03*
X039699Y005956D03*
X039697Y005958D03*
X039697Y005961D03*
X039694Y005966D03*
X039694Y005968D03*
X039694Y005971D03*
X039689Y005983D03*
X039492Y006101D03*
X039207Y006076D03*
X038894Y006108D03*
X038587Y005971D03*
X038639Y005711D03*
X038639Y005708D03*
X038639Y005706D03*
X038644Y005696D03*
X039067Y005533D03*
X039144Y005633D03*
X039147Y005636D03*
X039147Y005638D03*
X039149Y005641D03*
X039154Y005656D03*
X037384Y006171D03*
X037317Y006586D03*
X040222Y006856D03*
X040222Y006858D03*
X040224Y006863D03*
X040227Y006868D03*
X040229Y006873D03*
X040239Y006891D03*
X040247Y006906D03*
X040249Y006908D03*
X040249Y006911D03*
X040254Y006913D03*
X040267Y006933D03*
X040269Y006938D03*
X040269Y006941D03*
X040274Y006948D03*
X040279Y006956D03*
X040282Y006961D03*
X040287Y006968D03*
X040289Y006971D03*
X040629Y007338D03*
D99*
X040367Y007086D03*
X040364Y007081D03*
X040364Y007078D03*
X040357Y007073D03*
X040357Y007071D03*
X040339Y007048D03*
X040337Y007046D03*
X040337Y007043D03*
X040334Y007041D03*
X040332Y007038D03*
X040332Y007036D03*
X040329Y007033D03*
X040327Y007031D03*
X040324Y007026D03*
X040322Y007023D03*
X040319Y007018D03*
X040317Y007016D03*
X040312Y007008D03*
X039642Y006081D03*
X039657Y006058D03*
X039659Y006056D03*
X039659Y006053D03*
X039662Y006048D03*
X039664Y006046D03*
X039664Y006043D03*
X039669Y006031D03*
X039209Y006068D03*
X039209Y006071D03*
X038894Y006101D03*
X038854Y005881D03*
X038854Y005878D03*
X038852Y005873D03*
X038852Y005871D03*
X038852Y005868D03*
X038852Y005866D03*
X038849Y005856D03*
X038847Y005848D03*
X038847Y005846D03*
X038844Y005838D03*
X038842Y005828D03*
X038842Y005826D03*
X038839Y005811D03*
X038839Y005808D03*
X038834Y005786D03*
X038832Y005783D03*
X038832Y005781D03*
X039119Y005596D03*
X039117Y005591D03*
X039124Y005601D03*
X039127Y005606D03*
X039129Y005608D03*
X039284Y005686D03*
X039287Y005683D03*
X039287Y005681D03*
X039289Y005676D03*
X039292Y005673D03*
X039724Y005598D03*
X039727Y005603D03*
X039727Y005606D03*
X041214Y005256D03*
X041394Y004923D03*
X041394Y004921D03*
X041397Y004913D03*
X041397Y004911D03*
X041412Y004873D03*
X041424Y004836D03*
X041477Y004661D03*
X041479Y004653D03*
X041479Y004651D03*
X041482Y004638D03*
X041489Y004583D03*
X041489Y004581D03*
X041489Y004578D03*
X041492Y004568D03*
X041494Y004548D03*
X041499Y004511D03*
X041499Y004508D03*
X041502Y004483D03*
X041502Y004463D03*
X041502Y004461D03*
X041502Y004458D03*
X041504Y004436D03*
X041504Y004426D03*
X041504Y004413D03*
X041504Y004411D03*
X041504Y004408D03*
X041504Y004406D03*
X041504Y004403D03*
X041504Y004401D03*
X041504Y004398D03*
X041504Y004396D03*
X041504Y004393D03*
X041504Y004391D03*
X041502Y004376D03*
X041502Y004373D03*
X041502Y004371D03*
X041502Y004361D03*
X041502Y004358D03*
X041502Y004333D03*
X041502Y004331D03*
X041502Y004328D03*
X041499Y004323D03*
X041499Y004321D03*
X041499Y004318D03*
X041499Y004316D03*
X041499Y004306D03*
X041499Y004303D03*
X041499Y004301D03*
X041499Y004298D03*
X041492Y004241D03*
X041489Y004228D03*
X041482Y004196D03*
X041482Y004193D03*
X040629Y003991D03*
X037192Y005591D03*
X038112Y005936D03*
X038104Y005973D03*
D100*
X038072Y005831D03*
X038069Y005828D03*
X037982Y005751D03*
X038467Y005661D03*
X038467Y005658D03*
X038469Y005663D03*
X038474Y005666D03*
X038474Y005668D03*
X038474Y005671D03*
X038592Y005913D03*
X038592Y005916D03*
X038592Y005918D03*
X038592Y005921D03*
X039207Y005833D03*
X039207Y005831D03*
X039207Y005828D03*
X039554Y006178D03*
X039697Y005568D03*
X039399Y005563D03*
X039394Y005566D03*
X039389Y005571D03*
X039387Y005573D03*
X037187Y005601D03*
X037179Y005616D03*
X037397Y006158D03*
X040479Y007216D03*
X040482Y007218D03*
X041399Y004001D03*
D101*
X041408Y004008D03*
X041410Y004016D03*
X041415Y004018D03*
X041415Y004021D03*
X041415Y004023D03*
X039375Y005581D03*
X039370Y005586D03*
X039368Y005588D03*
X038790Y005683D03*
X038790Y005686D03*
X038710Y005593D03*
X038500Y005703D03*
X038495Y005696D03*
X038490Y005688D03*
X038358Y005563D03*
X037980Y005746D03*
X038080Y005838D03*
X038085Y005846D03*
X038593Y005931D03*
X038593Y005933D03*
X039205Y005858D03*
X039205Y005856D03*
X039205Y005853D03*
X038313Y006296D03*
X037335Y006578D03*
X037333Y006581D03*
X037178Y005708D03*
X037175Y005706D03*
X037173Y005703D03*
X037173Y005701D03*
X037170Y005623D03*
X037170Y005621D03*
X040465Y007201D03*
X040468Y007203D03*
D102*
X040462Y007198D03*
X040462Y007196D03*
X040459Y007193D03*
X040449Y007186D03*
X040444Y007178D03*
X040624Y007331D03*
X039552Y006181D03*
X038594Y005946D03*
X038594Y005943D03*
X038594Y005941D03*
X038594Y005938D03*
X038594Y005936D03*
X038512Y005721D03*
X038509Y005718D03*
X038509Y005716D03*
X038509Y005713D03*
X038507Y005711D03*
X038504Y005708D03*
X038497Y005698D03*
X038494Y005693D03*
X038492Y005691D03*
X038712Y005591D03*
X039357Y005598D03*
X039359Y005596D03*
X039374Y005583D03*
X039702Y005573D03*
X038084Y005843D03*
X038082Y005841D03*
X037172Y005698D03*
X037172Y005696D03*
X041417Y004026D03*
X041427Y004038D03*
X041427Y004041D03*
D103*
X040592Y004031D03*
X040579Y004038D03*
X040162Y004583D03*
X040159Y004586D03*
X040152Y004603D03*
X040147Y004608D03*
X040142Y004613D03*
X040142Y004616D03*
X040137Y004626D03*
X039059Y005523D03*
X038092Y006023D03*
X037372Y006183D03*
X039204Y006091D03*
D104*
X037278Y006593D03*
X038343Y005548D03*
X040158Y004601D03*
X040253Y004426D03*
X040258Y004416D03*
X040578Y004048D03*
D105*
X040567Y004056D03*
X040252Y004428D03*
X040239Y004451D03*
X040227Y004478D03*
X040219Y004488D03*
X038707Y005576D03*
X038584Y005988D03*
X038882Y006123D03*
X039474Y006081D03*
D106*
X039049Y005518D03*
X041067Y005471D03*
X041097Y005426D03*
X041099Y005423D03*
X040169Y004591D03*
X040177Y004573D03*
X040214Y004508D03*
X040212Y004501D03*
X040222Y004493D03*
X040229Y004481D03*
X040232Y004476D03*
X040237Y004466D03*
X040239Y004461D03*
X040407Y004221D03*
X040414Y004216D03*
X040547Y004076D03*
D107*
X041445Y004081D03*
X041453Y004096D03*
X041455Y004106D03*
X041455Y004108D03*
X041463Y004118D03*
X041463Y004121D03*
X041463Y004123D03*
X041465Y004128D03*
X041468Y004131D03*
X041468Y004133D03*
X041468Y004136D03*
X041473Y004151D03*
X041473Y004158D03*
X041473Y004161D03*
X039720Y005593D03*
X039720Y005596D03*
X039718Y005591D03*
X039715Y005588D03*
X039713Y005586D03*
X039310Y005648D03*
X039308Y005651D03*
X039305Y005653D03*
X039305Y005656D03*
X039303Y005658D03*
X039300Y005661D03*
X039298Y005666D03*
X039298Y005668D03*
X039295Y005671D03*
X039110Y005586D03*
X039108Y005583D03*
X039108Y005581D03*
X039103Y005578D03*
X039085Y005553D03*
X038813Y005718D03*
X038813Y005721D03*
X038813Y005723D03*
X038818Y005738D03*
X038825Y005761D03*
X038828Y005768D03*
X038828Y005771D03*
X038865Y005943D03*
X038868Y005963D03*
X038870Y005968D03*
X038870Y005971D03*
X038870Y005973D03*
X038873Y005978D03*
X038873Y005981D03*
X038873Y005983D03*
X038873Y005986D03*
X038875Y005993D03*
X038875Y005996D03*
X038875Y005998D03*
X038875Y006001D03*
X038875Y006003D03*
X038878Y006011D03*
X038878Y006013D03*
X038878Y006016D03*
X038880Y006023D03*
X038880Y006026D03*
X038883Y006038D03*
X038593Y005958D03*
X038108Y005886D03*
X037163Y005678D03*
X037158Y005671D03*
X037158Y005668D03*
X037155Y005661D03*
X037158Y005651D03*
X037158Y005648D03*
X037160Y005643D03*
X037160Y005641D03*
X039203Y005911D03*
X039205Y005903D03*
X039205Y005901D03*
X039205Y005923D03*
X039205Y005926D03*
X039205Y005928D03*
X039205Y005931D03*
X039208Y006023D03*
X039208Y006026D03*
X039550Y006183D03*
X039635Y006093D03*
X039638Y006091D03*
X039638Y006088D03*
X038318Y006293D03*
X040370Y007088D03*
X040373Y007093D03*
X040375Y007098D03*
X040380Y007103D03*
X040383Y007108D03*
X040385Y007111D03*
X040385Y007113D03*
X040388Y007116D03*
X040390Y007118D03*
X040393Y007121D03*
X040395Y007123D03*
X040398Y007128D03*
X040403Y007133D03*
X040405Y007136D03*
D108*
X040325Y007028D03*
X040320Y007021D03*
X040315Y007013D03*
X040313Y007011D03*
X040310Y007006D03*
X040308Y007001D03*
X040305Y006998D03*
X040303Y006996D03*
X040628Y007336D03*
X039665Y006041D03*
X039665Y006038D03*
X039665Y006036D03*
X039668Y006033D03*
X039670Y006028D03*
X039670Y006026D03*
X039673Y006023D03*
X039680Y006001D03*
X039730Y005616D03*
X039728Y005611D03*
X039728Y005608D03*
X039725Y005601D03*
X039560Y005473D03*
X039158Y005663D03*
X039158Y005666D03*
X039158Y005668D03*
X039150Y005651D03*
X039130Y005613D03*
X039130Y005611D03*
X039118Y005593D03*
X039070Y005538D03*
X038648Y005688D03*
X038843Y005831D03*
X038843Y005833D03*
X038843Y005836D03*
X038590Y005966D03*
X038100Y005996D03*
X038100Y005998D03*
X039208Y006073D03*
X041175Y005303D03*
X041215Y005253D03*
X041218Y005248D03*
X041293Y005126D03*
X041293Y005123D03*
X041358Y004998D03*
X041360Y004996D03*
X041360Y004993D03*
X041390Y004926D03*
X041395Y004918D03*
X041395Y004916D03*
X041400Y004908D03*
X041400Y004906D03*
X041400Y004903D03*
X041400Y004901D03*
X041400Y004898D03*
X041403Y004893D03*
X041403Y004891D03*
X041413Y004871D03*
X041415Y004858D03*
X041418Y004856D03*
X041418Y004853D03*
X041423Y004848D03*
X041423Y004846D03*
X041423Y004843D03*
X041423Y004841D03*
X041423Y004838D03*
X041425Y004833D03*
X041435Y004808D03*
X041443Y004783D03*
X041450Y004766D03*
X041450Y004763D03*
X041450Y004761D03*
X041450Y004758D03*
X041453Y004743D03*
X041458Y004728D03*
X041473Y004676D03*
X041475Y004666D03*
X041475Y004663D03*
X041478Y004658D03*
X041478Y004656D03*
X041480Y004636D03*
X041480Y004633D03*
X041483Y004621D03*
X041483Y004618D03*
X041483Y004616D03*
X041483Y004613D03*
X041483Y004611D03*
X041485Y004608D03*
X041488Y004603D03*
X041488Y004601D03*
X041488Y004598D03*
X041488Y004596D03*
X041488Y004593D03*
X041490Y004586D03*
X041490Y004576D03*
X041490Y004573D03*
X041490Y004571D03*
X041490Y004566D03*
X041493Y004556D03*
X041493Y004553D03*
X041493Y004551D03*
X041498Y004521D03*
X041498Y004518D03*
X041498Y004516D03*
X041498Y004513D03*
X041500Y004493D03*
X041500Y004491D03*
X041500Y004488D03*
X041500Y004486D03*
X041500Y004481D03*
X041500Y004478D03*
X041500Y004476D03*
X041503Y004473D03*
X041503Y004471D03*
X041503Y004468D03*
X041503Y004466D03*
X041500Y004456D03*
X041500Y004453D03*
X041500Y004451D03*
X041503Y004433D03*
X041503Y004431D03*
X041503Y004428D03*
X041503Y004423D03*
X041503Y004421D03*
X041503Y004418D03*
X041503Y004416D03*
X041503Y004388D03*
X041503Y004386D03*
X041500Y004378D03*
X041500Y004356D03*
X041500Y004336D03*
X041498Y004313D03*
X041498Y004311D03*
X041498Y004308D03*
X041498Y004296D03*
X041495Y004288D03*
X041495Y004286D03*
D109*
X041497Y004291D03*
X041497Y004293D03*
X041499Y004338D03*
X041499Y004341D03*
X041499Y004343D03*
X041499Y004346D03*
X041499Y004348D03*
X041499Y004351D03*
X041499Y004353D03*
X041502Y004381D03*
X041502Y004383D03*
X041502Y004438D03*
X041502Y004441D03*
X041499Y004443D03*
X041499Y004446D03*
X041499Y004448D03*
X041499Y004496D03*
X041497Y004501D03*
X041497Y004503D03*
X041497Y004506D03*
X041497Y004523D03*
X041497Y004526D03*
X041494Y004528D03*
X041494Y004538D03*
X041494Y004541D03*
X041494Y004543D03*
X041494Y004546D03*
X041492Y004558D03*
X041492Y004561D03*
X041492Y004563D03*
X041489Y004588D03*
X041487Y004606D03*
X041482Y004623D03*
X041474Y004668D03*
X041474Y004671D03*
X041474Y004673D03*
X041472Y004678D03*
X041472Y004681D03*
X041467Y004693D03*
X041464Y004706D03*
X041464Y004708D03*
X041464Y004711D03*
X041464Y004713D03*
X041462Y004716D03*
X041459Y004721D03*
X041459Y004723D03*
X041459Y004726D03*
X041457Y004731D03*
X041457Y004733D03*
X041457Y004736D03*
X041454Y004738D03*
X041454Y004741D03*
X041452Y004753D03*
X041452Y004756D03*
X041442Y004781D03*
X041437Y004796D03*
X041437Y004798D03*
X041437Y004801D03*
X041437Y004803D03*
X041437Y004806D03*
X041429Y004821D03*
X041429Y004823D03*
X041427Y004831D03*
X041419Y004851D03*
X041414Y004861D03*
X041414Y004863D03*
X041414Y004866D03*
X041414Y004868D03*
X041404Y004888D03*
X041402Y004896D03*
X041362Y004991D03*
X041357Y005001D03*
X041352Y005011D03*
X041294Y005118D03*
X041294Y005121D03*
X041292Y005128D03*
X041224Y005236D03*
X041217Y005251D03*
X041212Y005258D03*
X041204Y005266D03*
X041177Y005301D03*
X041174Y005306D03*
X039734Y005623D03*
X039734Y005626D03*
X039734Y005628D03*
X039734Y005631D03*
X039734Y005633D03*
X039732Y005618D03*
X039729Y005613D03*
X039739Y005656D03*
X039739Y005658D03*
X039684Y005993D03*
X039682Y005998D03*
X039679Y006003D03*
X039679Y006006D03*
X039679Y006008D03*
X039679Y006011D03*
X039679Y006013D03*
X039677Y006016D03*
X039674Y006018D03*
X039674Y006021D03*
X039549Y006188D03*
X038894Y006106D03*
X038894Y006103D03*
X038589Y005968D03*
X038649Y005686D03*
X038649Y005683D03*
X038649Y005681D03*
X038354Y005556D03*
X039069Y005536D03*
X039137Y005621D03*
X039139Y005623D03*
X039152Y005653D03*
X039157Y005661D03*
X039159Y005671D03*
X039162Y005678D03*
X039164Y005686D03*
X038099Y006001D03*
X037387Y006166D03*
X038322Y006291D03*
X040237Y006886D03*
X040257Y006921D03*
X040257Y006923D03*
X040259Y006926D03*
X040262Y006928D03*
X040292Y006976D03*
X040292Y006978D03*
X040294Y006983D03*
X040297Y006986D03*
X040297Y006988D03*
X040299Y006991D03*
X040302Y006993D03*
X040309Y007003D03*
D110*
X040138Y004631D03*
X040160Y004588D03*
X040195Y004526D03*
D111*
X041267Y005161D03*
X041269Y005158D03*
X041272Y005153D03*
X041264Y005166D03*
X041247Y005193D03*
X041242Y005201D03*
X041239Y005203D03*
X041237Y005208D03*
X041237Y005211D03*
X041102Y005393D03*
X039937Y005843D03*
X039487Y006096D03*
X038589Y005976D03*
X038097Y006011D03*
X037379Y006173D03*
X038324Y006288D03*
X040059Y006481D03*
X040072Y006511D03*
X040072Y006513D03*
X040072Y006516D03*
X040089Y006568D03*
X040092Y006573D03*
X040094Y006578D03*
X040094Y006581D03*
X040097Y006586D03*
X040097Y006588D03*
X040097Y006591D03*
X040099Y006593D03*
X040099Y006596D03*
X040109Y006618D03*
X040109Y006621D03*
X040109Y006623D03*
X040112Y006631D03*
X040114Y006633D03*
X040117Y006636D03*
X040117Y006638D03*
X040119Y006643D03*
X040124Y006653D03*
X040127Y006658D03*
X040127Y006661D03*
X040127Y006663D03*
X040127Y006666D03*
X040132Y006671D03*
X040134Y006676D03*
X040134Y006678D03*
X040137Y006681D03*
X040137Y006683D03*
X040139Y006688D03*
X039059Y005526D03*
X038712Y005581D03*
D112*
X038714Y005611D03*
X038582Y005816D03*
X038582Y005818D03*
X037999Y005773D03*
X037527Y005963D03*
X037514Y005953D03*
X037492Y005941D03*
X037489Y005938D03*
X037477Y005931D03*
X037464Y005923D03*
X037542Y006073D03*
X037547Y006071D03*
X037512Y006088D03*
X037419Y006138D03*
X039217Y005743D03*
X039564Y005481D03*
X040612Y007311D03*
D113*
X040598Y007293D03*
X037410Y006558D03*
X037433Y006128D03*
X037473Y006103D03*
X038575Y005776D03*
X038718Y005628D03*
X038718Y005626D03*
X038388Y005603D03*
X038388Y005601D03*
X039563Y005486D03*
D114*
X039564Y005491D03*
X038722Y005648D03*
X039562Y006126D03*
D115*
X038724Y005676D03*
X039562Y005496D03*
D116*
X039560Y005498D03*
D117*
X039560Y005501D03*
X037535Y006521D03*
X037515Y006526D03*
X037493Y006531D03*
D118*
X037597Y006503D03*
X039559Y005503D03*
D119*
X039558Y005506D03*
X037733Y006471D03*
X037693Y006481D03*
D120*
X037762Y006461D03*
X039559Y005511D03*
D121*
X039555Y005513D03*
X037805Y006451D03*
D122*
X037800Y006453D03*
X039555Y005516D03*
D123*
X039555Y005518D03*
X037858Y006441D03*
D124*
X039554Y005521D03*
D125*
X039554Y005523D03*
D126*
X039552Y005526D03*
D127*
X039552Y005528D03*
X038212Y006351D03*
X037894Y006431D03*
D128*
X037922Y006426D03*
X039552Y005531D03*
D129*
X039552Y005533D03*
X038204Y006353D03*
D130*
X039550Y005536D03*
D131*
X039553Y005538D03*
D132*
X039553Y005541D03*
D133*
X039550Y005543D03*
X037965Y006418D03*
D134*
X039549Y005546D03*
D135*
X039549Y005548D03*
X038164Y006368D03*
D136*
X037570Y006056D03*
X037560Y006063D03*
X037548Y005978D03*
X037430Y005903D03*
X037423Y005898D03*
X037418Y005896D03*
X037415Y005893D03*
X037393Y005878D03*
X037380Y005868D03*
X037358Y005853D03*
X037995Y005763D03*
X038040Y005811D03*
X038368Y005578D03*
X039215Y005753D03*
X039215Y005756D03*
X039215Y005758D03*
X039215Y005761D03*
X039668Y005553D03*
X038585Y005836D03*
X038585Y005838D03*
X039553Y006166D03*
X040615Y007316D03*
D137*
X040542Y007261D03*
X038302Y006303D03*
X037564Y006058D03*
X037562Y006061D03*
X037557Y005986D03*
X037439Y005908D03*
X037434Y005906D03*
X037354Y005851D03*
X037349Y005848D03*
X037347Y005846D03*
X037344Y005843D03*
X037337Y005841D03*
X037334Y005838D03*
X037332Y005836D03*
X037327Y005833D03*
X037324Y005831D03*
X037414Y006143D03*
X038432Y005631D03*
X038434Y005633D03*
X038367Y005576D03*
X038714Y005606D03*
X039217Y005763D03*
X039424Y005553D03*
D138*
X039222Y005728D03*
X038714Y005618D03*
X038579Y005798D03*
X038579Y005801D03*
X038579Y005803D03*
X038379Y005591D03*
X038377Y005588D03*
X038374Y005586D03*
X038014Y005788D03*
X038014Y005791D03*
X038009Y005783D03*
X037489Y006098D03*
X038294Y006308D03*
X040604Y007301D03*
X040604Y007303D03*
D139*
X037402Y006561D03*
X037394Y006563D03*
X038294Y006311D03*
X037454Y006116D03*
X037427Y006131D03*
X037427Y006133D03*
X038017Y005793D03*
X038024Y005803D03*
X038382Y005593D03*
X038409Y005621D03*
X038579Y005788D03*
X038717Y005621D03*
X039557Y006153D03*
D140*
X039220Y005718D03*
X039220Y005716D03*
X038718Y005623D03*
X038578Y005783D03*
X038578Y005786D03*
X038383Y005596D03*
X038015Y005796D03*
X037458Y006113D03*
X037438Y006123D03*
X037435Y006126D03*
X040603Y007298D03*
D141*
X040590Y007286D03*
X040588Y007283D03*
X037430Y006551D03*
X037413Y006556D03*
X038718Y005631D03*
X038390Y005608D03*
X039223Y005706D03*
D142*
X039224Y005698D03*
X038719Y005636D03*
X038574Y005761D03*
X037454Y006543D03*
X037439Y006548D03*
X040579Y007276D03*
D143*
X039558Y006136D03*
X039225Y005691D03*
X039225Y005688D03*
X038720Y005641D03*
X038570Y005741D03*
X038570Y005743D03*
X038570Y005746D03*
D144*
X038572Y005738D03*
X038572Y005736D03*
X038722Y005643D03*
X039559Y006131D03*
X039559Y006133D03*
X038282Y006318D03*
D145*
X038280Y006321D03*
X037460Y006541D03*
X039560Y006128D03*
X038720Y005646D03*
D146*
X038720Y005651D03*
X038570Y005733D03*
X039563Y006123D03*
D147*
X039564Y006113D03*
X039564Y006111D03*
X038722Y005658D03*
X038567Y005723D03*
X038279Y006323D03*
X037467Y006538D03*
D148*
X038724Y005663D03*
D149*
X038723Y005666D03*
X039565Y006106D03*
X038275Y006326D03*
D150*
X038724Y005673D03*
X038724Y005671D03*
X038724Y005668D03*
D151*
X038252Y006333D03*
X038249Y006336D03*
X037742Y006468D03*
X037699Y006478D03*
X037659Y006488D03*
D152*
X038243Y006338D03*
D153*
X038238Y006341D03*
D154*
X038234Y006343D03*
D155*
X038229Y006346D03*
X037814Y006448D03*
D156*
X038223Y006348D03*
D157*
X038200Y006356D03*
X037950Y006421D03*
D158*
X038184Y006361D03*
D159*
X038180Y006363D03*
X038170Y006366D03*
X038005Y006411D03*
D160*
X038059Y006398D03*
X038079Y006393D03*
X038102Y006388D03*
X038119Y006383D03*
X038132Y006378D03*
X038154Y006371D03*
D161*
X038150Y006373D03*
D162*
X038135Y006376D03*
X038130Y006381D03*
X038040Y006403D03*
D163*
X037992Y006413D03*
X038107Y006386D03*
D164*
X038087Y006391D03*
X038052Y006401D03*
D165*
X038072Y006396D03*
D166*
X038030Y006406D03*
D167*
X038025Y006408D03*
X037980Y006416D03*
D168*
X037940Y006423D03*
X037905Y006428D03*
D169*
X037873Y006436D03*
D170*
X037838Y006443D03*
D171*
X037827Y006446D03*
D172*
X037774Y006458D03*
X037749Y006466D03*
D173*
X037714Y006476D03*
X037687Y006483D03*
X037602Y006501D03*
D174*
X037633Y006496D03*
X037648Y006491D03*
D175*
X037622Y006498D03*
X037577Y006508D03*
X037569Y006511D03*
X037564Y006513D03*
X037544Y006518D03*
D176*
X037505Y006528D03*
X037483Y006533D03*
D177*
X037477Y006536D03*
D178*
X037058Y003356D03*
X037058Y003316D03*
X037058Y003236D03*
X037058Y003226D03*
X037058Y003216D03*
X037058Y003206D03*
X037058Y003196D03*
X037058Y003186D03*
X037058Y003176D03*
X037058Y003166D03*
X037058Y003156D03*
X037058Y003146D03*
X037058Y003136D03*
X037058Y003126D03*
X037058Y003116D03*
X037058Y003106D03*
X037058Y003096D03*
X037058Y003086D03*
X037058Y003076D03*
X037058Y003066D03*
X037058Y003056D03*
X037058Y003046D03*
X037058Y003036D03*
X037058Y003026D03*
X037058Y003016D03*
X037058Y003006D03*
X037058Y002996D03*
X037058Y002986D03*
X037058Y002976D03*
X037058Y002966D03*
X037058Y002956D03*
X037058Y002946D03*
X037058Y002936D03*
X037058Y002926D03*
X037058Y002916D03*
X037058Y002906D03*
X037068Y002886D03*
X036918Y002986D03*
X036928Y003006D03*
X036928Y003016D03*
X036928Y003026D03*
X036898Y003066D03*
X036808Y002976D03*
X036738Y003016D03*
X036738Y003026D03*
X036738Y003036D03*
X036738Y003046D03*
X036738Y003056D03*
X036738Y003066D03*
X036738Y003076D03*
X036738Y003116D03*
X036738Y003126D03*
X036738Y003136D03*
X036738Y003146D03*
X036748Y003186D03*
X036758Y003196D03*
X036908Y003196D03*
X036598Y003176D03*
X036598Y003166D03*
X036598Y003156D03*
X036598Y003146D03*
X036598Y003136D03*
X036598Y003126D03*
X036598Y003116D03*
X036598Y003106D03*
X036598Y003096D03*
X036598Y003086D03*
X036598Y003076D03*
X036598Y003066D03*
X036598Y003056D03*
X036598Y003046D03*
X036598Y003036D03*
X036598Y003026D03*
X036598Y003016D03*
X036598Y003006D03*
X036598Y002996D03*
X036598Y002986D03*
X036598Y002976D03*
X036598Y002966D03*
X036598Y002956D03*
X036598Y002946D03*
X036408Y002946D03*
X036408Y002956D03*
X036408Y002966D03*
X036408Y002976D03*
X036408Y002986D03*
X036408Y002996D03*
X036408Y003006D03*
X036408Y003016D03*
X036408Y003026D03*
X036408Y003036D03*
X036408Y003046D03*
X036408Y003056D03*
X036408Y003066D03*
X036408Y003076D03*
X036408Y003086D03*
X036408Y003096D03*
X036408Y003106D03*
X036408Y003116D03*
X036408Y003126D03*
X036408Y003136D03*
X036408Y003146D03*
X036408Y003156D03*
X036408Y003166D03*
X036418Y003186D03*
X036418Y003196D03*
X036248Y003256D03*
X036238Y003266D03*
X036228Y003276D03*
X036138Y003276D03*
X036138Y003286D03*
X036138Y003296D03*
X036138Y003266D03*
X036138Y003256D03*
X036138Y003246D03*
X036138Y003236D03*
X036138Y003226D03*
X036138Y003216D03*
X036138Y003206D03*
X036138Y003196D03*
X036138Y003186D03*
X036138Y003176D03*
X036138Y003166D03*
X036138Y003156D03*
X036138Y003146D03*
X036138Y003136D03*
X036138Y003126D03*
X036138Y003116D03*
X036138Y003106D03*
X036138Y003096D03*
X036138Y003086D03*
X036138Y003076D03*
X036138Y003066D03*
X036138Y003056D03*
X036138Y003046D03*
X036138Y003036D03*
X036138Y003026D03*
X036138Y003016D03*
X036138Y003006D03*
X036138Y002996D03*
X036138Y002986D03*
X035928Y003136D03*
X035938Y003156D03*
X035938Y003166D03*
X035918Y003206D03*
X035798Y003056D03*
X035788Y003046D03*
X035788Y003036D03*
X035798Y002996D03*
X035808Y002986D03*
X036138Y003356D03*
X037418Y003166D03*
X037418Y003156D03*
X037418Y003146D03*
X037418Y003136D03*
X037418Y003126D03*
X037418Y003116D03*
X037418Y003106D03*
X037418Y003096D03*
X037418Y003086D03*
X037418Y003076D03*
X037418Y003066D03*
X037418Y003056D03*
X037418Y003046D03*
X037418Y003036D03*
X037418Y003026D03*
X037418Y003016D03*
X037418Y003006D03*
X037418Y002996D03*
X037418Y002986D03*
X037418Y002976D03*
X037418Y002966D03*
X037418Y002956D03*
X037418Y002946D03*
X037598Y002946D03*
X037598Y002956D03*
X037598Y002966D03*
X037598Y002976D03*
X037598Y002986D03*
X037598Y002996D03*
X037598Y003006D03*
X037598Y003016D03*
X037598Y003026D03*
X037598Y003036D03*
X037598Y003046D03*
X037598Y003056D03*
X037598Y003066D03*
X037598Y003076D03*
X037598Y003086D03*
X037598Y003096D03*
X037598Y003106D03*
X037598Y003116D03*
X037598Y003126D03*
X037598Y003136D03*
X037598Y003146D03*
X037598Y003156D03*
X037598Y003166D03*
X037768Y003166D03*
X037768Y003176D03*
X037768Y003156D03*
X037768Y003146D03*
X037768Y003136D03*
X037768Y003126D03*
X037768Y003116D03*
X037768Y003106D03*
X037768Y003096D03*
X037768Y003086D03*
X037768Y003076D03*
X037768Y003066D03*
X037768Y003056D03*
X037768Y003046D03*
X037768Y003036D03*
X037768Y003026D03*
X037768Y003016D03*
X037768Y003006D03*
X037768Y002996D03*
X037768Y002986D03*
X037768Y002976D03*
X037768Y002966D03*
X037768Y002956D03*
X037768Y002946D03*
X037918Y003016D03*
X037928Y003006D03*
X037938Y002996D03*
X037908Y003036D03*
X037908Y003046D03*
X037898Y003086D03*
X037898Y003096D03*
X037898Y003106D03*
X037908Y003146D03*
X037908Y003156D03*
X037918Y003176D03*
X037928Y003186D03*
X037938Y003196D03*
X038098Y003196D03*
X038108Y003186D03*
X038118Y003176D03*
X038128Y003156D03*
X038128Y003146D03*
X038138Y003106D03*
X038138Y003096D03*
X038138Y003086D03*
X038128Y003046D03*
X038128Y003036D03*
X038118Y003016D03*
X038108Y003006D03*
X038098Y002996D03*
X038238Y002986D03*
X038398Y003016D03*
X038408Y003036D03*
X038418Y003086D03*
X038418Y003096D03*
X038418Y003106D03*
X038408Y003156D03*
X038398Y003176D03*
X038388Y003186D03*
X038238Y003206D03*
X038528Y002996D03*
X038528Y002956D03*
X038648Y003026D03*
X038658Y003006D03*
X038668Y002996D03*
X038638Y003056D03*
X038638Y003066D03*
X038638Y003076D03*
X038638Y003086D03*
X038638Y003096D03*
X038638Y003106D03*
X038638Y003116D03*
X038638Y003126D03*
X038638Y003136D03*
X038638Y003146D03*
X038648Y003166D03*
X038648Y003176D03*
X038658Y003186D03*
X038848Y003176D03*
X038848Y003166D03*
X038848Y003156D03*
X038848Y003146D03*
X038848Y003136D03*
X038848Y003126D03*
X038848Y003116D03*
X038848Y003106D03*
X038848Y003096D03*
X038848Y003086D03*
X038848Y003076D03*
X038848Y003066D03*
X038848Y003056D03*
X038848Y003046D03*
X038848Y003036D03*
X038848Y003026D03*
X038848Y003016D03*
X038848Y003006D03*
X038988Y003016D03*
X038988Y003026D03*
X038988Y003036D03*
X038988Y003046D03*
X038988Y003056D03*
X038988Y003066D03*
X038988Y003076D03*
X038988Y003086D03*
X038988Y003096D03*
X038988Y003106D03*
X038988Y003116D03*
X038988Y003126D03*
X038988Y003136D03*
X038988Y003146D03*
X038988Y003156D03*
X038988Y003166D03*
X038988Y003176D03*
X038988Y003186D03*
X038988Y003196D03*
X038988Y003206D03*
X038988Y003216D03*
X038988Y003226D03*
X038988Y003236D03*
X038848Y003236D03*
X038848Y003246D03*
X038848Y003256D03*
X038848Y003266D03*
X038848Y003276D03*
X038848Y003286D03*
X038848Y003296D03*
X038848Y003306D03*
X038848Y003316D03*
X038848Y003326D03*
X038848Y003336D03*
X038848Y003346D03*
X038848Y003356D03*
X038848Y003366D03*
X038848Y003376D03*
X038848Y003226D03*
X038848Y003216D03*
X038848Y003206D03*
X039188Y003206D03*
X039188Y003216D03*
X039188Y003226D03*
X039188Y003236D03*
X039188Y003196D03*
X039188Y003186D03*
X039188Y003176D03*
X039188Y003166D03*
X039188Y003156D03*
X039188Y003146D03*
X039188Y003136D03*
X039188Y003126D03*
X039188Y003116D03*
X039188Y003106D03*
X039188Y003096D03*
X039188Y003086D03*
X039188Y003076D03*
X039188Y003066D03*
X039188Y003056D03*
X039188Y003046D03*
X039188Y003036D03*
X039188Y003026D03*
X039178Y003006D03*
X039178Y002996D03*
X039328Y002996D03*
X039328Y003006D03*
X039328Y003016D03*
X039328Y003026D03*
X039328Y003036D03*
X039328Y003046D03*
X039328Y003056D03*
X039328Y003066D03*
X039328Y003076D03*
X039328Y003086D03*
X039328Y003096D03*
X039328Y003106D03*
X039328Y003116D03*
X039328Y003126D03*
X039328Y003136D03*
X039328Y003146D03*
X039328Y003156D03*
X039328Y003166D03*
X039338Y003186D03*
X039338Y003196D03*
X039518Y003206D03*
X039518Y003216D03*
X039518Y003226D03*
X039518Y003236D03*
X039518Y003246D03*
X039518Y003256D03*
X039518Y003266D03*
X039518Y003276D03*
X039518Y003286D03*
X039518Y003296D03*
X039518Y003306D03*
X039518Y003316D03*
X039518Y003326D03*
X039518Y003336D03*
X039518Y003346D03*
X039518Y003356D03*
X039518Y003366D03*
X039518Y003376D03*
X039518Y003176D03*
X039518Y003166D03*
X039518Y003156D03*
X039518Y003146D03*
X039518Y003136D03*
X039518Y003126D03*
X039518Y003116D03*
X039518Y003106D03*
X039518Y003096D03*
X039518Y003086D03*
X039518Y003076D03*
X039518Y003066D03*
X039518Y003056D03*
X039518Y003046D03*
X039518Y003036D03*
X039518Y003026D03*
X039518Y003016D03*
X039518Y003006D03*
X039518Y002996D03*
X039518Y002986D03*
X039518Y002976D03*
X039518Y002966D03*
X039518Y002956D03*
X039518Y002946D03*
X039328Y002946D03*
X039328Y002956D03*
X039328Y002966D03*
X039328Y002976D03*
X039328Y002986D03*
X039718Y002986D03*
X039728Y003016D03*
X039728Y003026D03*
X039728Y003036D03*
X039728Y003046D03*
X039728Y003056D03*
X039728Y003066D03*
X039728Y003076D03*
X039728Y003086D03*
X039728Y003096D03*
X039728Y003106D03*
X039728Y003116D03*
X039728Y003126D03*
X039728Y003136D03*
X039728Y003146D03*
X039728Y003156D03*
X039728Y003166D03*
X039728Y003176D03*
X039728Y003186D03*
X039728Y003196D03*
X039898Y003196D03*
X039898Y003206D03*
X039898Y003216D03*
X039898Y003226D03*
X039898Y003236D03*
X039898Y003186D03*
X039898Y003176D03*
X039898Y003166D03*
X039898Y003156D03*
X039898Y003146D03*
X039898Y003136D03*
X039898Y003126D03*
X039898Y003116D03*
X039898Y003106D03*
X039898Y003096D03*
X039898Y003086D03*
X039898Y003076D03*
X039898Y003066D03*
X039898Y003056D03*
X039898Y003046D03*
X039898Y003036D03*
X039898Y003026D03*
X039898Y003016D03*
X039898Y003006D03*
X039898Y002996D03*
X039898Y002986D03*
X039898Y002976D03*
X039898Y002966D03*
X039898Y002956D03*
X039898Y002946D03*
X040008Y002946D03*
X040008Y002936D03*
X040018Y002956D03*
X040038Y002886D03*
X040128Y002846D03*
X040228Y002896D03*
X040208Y003016D03*
X040218Y003146D03*
X040218Y003156D03*
X040198Y003206D03*
X040048Y003196D03*
X039898Y003316D03*
X039898Y003356D03*
X040718Y003216D03*
X040718Y003176D03*
X040718Y002996D03*
X040718Y002956D03*
X040858Y002996D03*
X040868Y002986D03*
X040848Y003036D03*
X040848Y003046D03*
X040858Y003056D03*
X040988Y003136D03*
X040998Y003156D03*
X040998Y003166D03*
X040978Y003206D03*
X041108Y003166D03*
X041108Y003156D03*
X041118Y003186D03*
X041128Y003196D03*
X041098Y003116D03*
X041098Y003106D03*
X041098Y003096D03*
X041098Y003086D03*
X041108Y003046D03*
X041108Y003036D03*
X041118Y003016D03*
X041128Y003006D03*
X041308Y003006D03*
X041308Y003016D03*
X041308Y003026D03*
X041308Y003036D03*
X041308Y003046D03*
X041308Y003056D03*
X041308Y003066D03*
X041308Y003076D03*
X041308Y003086D03*
X041308Y003096D03*
X041308Y003106D03*
X041308Y003116D03*
X041308Y003126D03*
X041308Y003136D03*
X041308Y003146D03*
X041308Y003156D03*
X041308Y003166D03*
X041308Y003176D03*
X041308Y002976D03*
X041308Y002966D03*
X041308Y002956D03*
X041308Y002946D03*
X041308Y002936D03*
X041308Y002926D03*
X041308Y002916D03*
X041308Y002906D03*
X041308Y002896D03*
X041308Y002886D03*
X041308Y002876D03*
X041308Y002866D03*
X041308Y002856D03*
X041308Y002846D03*
X041508Y002986D03*
X041518Y003016D03*
X041518Y003026D03*
X041518Y003036D03*
X041518Y003046D03*
X041518Y003056D03*
X041518Y003066D03*
X041518Y003076D03*
X041518Y003086D03*
X041518Y003096D03*
X041518Y003106D03*
X041518Y003116D03*
X041518Y003126D03*
X041518Y003136D03*
X041518Y003146D03*
X041518Y003156D03*
X041518Y003166D03*
X041518Y003176D03*
X041518Y003186D03*
X041518Y003196D03*
X041748Y003196D03*
X041748Y003186D03*
X041748Y003176D03*
X041748Y003166D03*
X041748Y003156D03*
X041748Y003146D03*
X041748Y003136D03*
X041748Y003126D03*
X041748Y003116D03*
X041748Y003106D03*
X041748Y003096D03*
X041748Y003086D03*
X041748Y003076D03*
X041748Y003066D03*
X041748Y003056D03*
X041748Y003046D03*
X041748Y003036D03*
X041748Y003026D03*
X041748Y003016D03*
X041738Y002986D03*
X041898Y002986D03*
X041898Y002996D03*
X041898Y003006D03*
X041898Y003016D03*
X041898Y003026D03*
X041898Y003036D03*
X041898Y003046D03*
X041898Y003056D03*
X041898Y003066D03*
X041898Y003076D03*
X041898Y003086D03*
X041898Y003096D03*
X041898Y003106D03*
X041898Y003116D03*
X041898Y003126D03*
X041898Y003136D03*
X041898Y003146D03*
X041898Y003156D03*
X041898Y003166D03*
X041908Y003186D03*
X041908Y003196D03*
X042088Y003206D03*
X042088Y003216D03*
X042088Y003226D03*
X042088Y003236D03*
X042088Y003246D03*
X042088Y003256D03*
X042088Y003266D03*
X042088Y003276D03*
X042088Y003286D03*
X042088Y003296D03*
X042088Y003306D03*
X042088Y003316D03*
X042088Y003326D03*
X042088Y003336D03*
X042088Y003346D03*
X042088Y003356D03*
X042088Y003366D03*
X042088Y003376D03*
X042088Y003176D03*
X042088Y003166D03*
X042088Y003156D03*
X042088Y003146D03*
X042088Y003136D03*
X042088Y003126D03*
X042088Y003116D03*
X042088Y003106D03*
X042088Y003096D03*
X042088Y003086D03*
X042088Y003076D03*
X042088Y003066D03*
X042088Y003056D03*
X042088Y003046D03*
X042088Y003036D03*
X042088Y003026D03*
X042088Y003016D03*
X042088Y003006D03*
X042088Y002996D03*
X042088Y002986D03*
X042088Y002976D03*
X042088Y002966D03*
X042088Y002956D03*
X042088Y002946D03*
X041898Y002946D03*
X041898Y002956D03*
X041898Y002966D03*
X041898Y002976D03*
X037428Y003186D03*
X037428Y003196D03*
D179*
X037423Y003176D03*
X037553Y003206D03*
X037613Y003196D03*
X037613Y003186D03*
X037623Y003206D03*
X037773Y003206D03*
X037773Y003216D03*
X037773Y003226D03*
X037773Y003236D03*
X037913Y003166D03*
X037903Y003136D03*
X037903Y003126D03*
X037903Y003116D03*
X037903Y003076D03*
X037903Y003066D03*
X037903Y003056D03*
X037913Y003026D03*
X038123Y003026D03*
X038133Y003056D03*
X038133Y003066D03*
X038133Y003076D03*
X038133Y003116D03*
X038133Y003126D03*
X038133Y003136D03*
X038123Y003166D03*
X038303Y003246D03*
X038403Y003166D03*
X038413Y003146D03*
X038413Y003136D03*
X038413Y003126D03*
X038413Y003116D03*
X038413Y003076D03*
X038413Y003066D03*
X038413Y003056D03*
X038413Y003046D03*
X038403Y003026D03*
X038393Y003006D03*
X038533Y003006D03*
X038643Y003036D03*
X038643Y003046D03*
X038653Y003016D03*
X038643Y003156D03*
X038853Y002976D03*
X038853Y002966D03*
X038853Y002956D03*
X038983Y002956D03*
X038983Y002966D03*
X038983Y002976D03*
X038983Y002986D03*
X039043Y002986D03*
X039183Y003016D03*
X039333Y003176D03*
X039723Y003236D03*
X039723Y003246D03*
X039723Y003256D03*
X039723Y003266D03*
X039723Y003276D03*
X039723Y003286D03*
X039723Y003296D03*
X039723Y003306D03*
X039723Y003006D03*
X039723Y002996D03*
X040013Y002926D03*
X040013Y002916D03*
X040013Y002906D03*
X040023Y002896D03*
X040063Y003096D03*
X040053Y003106D03*
X040043Y003116D03*
X040043Y003126D03*
X040033Y003146D03*
X040033Y003156D03*
X040043Y003176D03*
X040043Y003186D03*
X040203Y003196D03*
X040213Y003186D03*
X040213Y003176D03*
X040213Y003166D03*
X040213Y003136D03*
X040213Y003126D03*
X040213Y003116D03*
X040203Y003106D03*
X040193Y003096D03*
X040213Y003026D03*
X040223Y002956D03*
X040233Y002936D03*
X040233Y002926D03*
X040233Y002916D03*
X040233Y002906D03*
X040423Y002956D03*
X040403Y003006D03*
X040383Y003056D03*
X040363Y003106D03*
X040343Y003156D03*
X040333Y003186D03*
X040323Y003206D03*
X040313Y003236D03*
X040303Y003256D03*
X040293Y003286D03*
X040273Y003336D03*
X040453Y003336D03*
X040473Y003286D03*
X040483Y003256D03*
X040493Y003236D03*
X040503Y003206D03*
X040513Y003186D03*
X040523Y003156D03*
X040543Y003106D03*
X040563Y003056D03*
X040583Y003006D03*
X040603Y002956D03*
X040853Y003006D03*
X040853Y003016D03*
X040853Y003026D03*
X041003Y002986D03*
X041113Y003026D03*
X041103Y003056D03*
X041103Y003066D03*
X041103Y003076D03*
X041103Y003126D03*
X041103Y003136D03*
X041103Y003146D03*
X041113Y003176D03*
X040993Y003176D03*
X040993Y003186D03*
X040993Y003196D03*
X040993Y003146D03*
X041313Y003206D03*
X041313Y003216D03*
X041313Y003226D03*
X041313Y003236D03*
X041513Y003236D03*
X041513Y003246D03*
X041513Y003256D03*
X041513Y003266D03*
X041513Y003276D03*
X041513Y003286D03*
X041513Y003296D03*
X041513Y003306D03*
X041743Y003306D03*
X041743Y003296D03*
X041743Y003286D03*
X041743Y003276D03*
X041743Y003266D03*
X041743Y003256D03*
X041743Y003246D03*
X041743Y003236D03*
X041903Y003176D03*
X041743Y003006D03*
X041743Y002996D03*
X041513Y002996D03*
X041513Y003006D03*
X037313Y002956D03*
X037293Y003006D03*
X037273Y003056D03*
X037253Y003106D03*
X037233Y003156D03*
X037223Y003186D03*
X037213Y003206D03*
X037203Y003236D03*
X037193Y003256D03*
X037183Y003286D03*
X037163Y003336D03*
X036743Y003176D03*
X036743Y003166D03*
X036743Y003156D03*
X036603Y003206D03*
X036603Y003216D03*
X036603Y003226D03*
X036603Y003236D03*
X036413Y003176D03*
X036133Y003366D03*
X035933Y003196D03*
X035933Y003186D03*
X035933Y003176D03*
X035933Y003146D03*
X035943Y002986D03*
X035793Y003006D03*
X035793Y003016D03*
X035793Y003026D03*
X036733Y002986D03*
X036733Y002976D03*
X036733Y002966D03*
X036733Y002956D03*
X036923Y002996D03*
X036923Y003036D03*
X036923Y003046D03*
X036913Y003056D03*
X037063Y002896D03*
X037123Y002846D03*
D180*
X036858Y002966D03*
X037668Y003216D03*
X038728Y003226D03*
X038738Y002966D03*
X039108Y002966D03*
X039678Y002976D03*
X040048Y003216D03*
X040128Y003076D03*
X040128Y002856D03*
X040918Y003226D03*
X041188Y003226D03*
X041198Y002966D03*
X041468Y002976D03*
X041698Y002976D03*
X035858Y003226D03*
D181*
X035818Y003076D03*
X036588Y003196D03*
X036748Y003106D03*
X036748Y002996D03*
X036898Y003206D03*
X037058Y003336D03*
X037758Y003196D03*
X038528Y002976D03*
X039508Y003196D03*
X039898Y003336D03*
X040178Y003216D03*
X040028Y002966D03*
X040718Y002976D03*
X040878Y003076D03*
X040718Y003196D03*
X041298Y003196D03*
X042078Y003196D03*
X037108Y002856D03*
X036148Y003336D03*
D182*
X036803Y003086D03*
X038303Y003216D03*
X039703Y003216D03*
X039703Y003226D03*
X039703Y003206D03*
X040133Y002866D03*
X041493Y003206D03*
X041493Y003216D03*
X041493Y003226D03*
X041723Y003226D03*
X041723Y003216D03*
X041723Y003206D03*
D183*
X041293Y002986D03*
X040983Y002976D03*
X039003Y002996D03*
X038833Y002986D03*
X038833Y003196D03*
X037663Y003236D03*
X037103Y002866D03*
X035923Y002976D03*
X036153Y003326D03*
D184*
X040128Y002876D03*
D185*
X040178Y003006D03*
X039678Y002956D03*
X039398Y003236D03*
X038738Y002956D03*
X040898Y003086D03*
X040958Y003116D03*
X040918Y003236D03*
X041188Y003236D03*
X041468Y002956D03*
X041698Y002956D03*
X041968Y003236D03*
X037098Y002876D03*
X036868Y003076D03*
X036478Y003236D03*
X035898Y003116D03*
X035838Y003086D03*
X035858Y003236D03*
D186*
X035913Y003126D03*
X035803Y003066D03*
X035823Y002976D03*
X036203Y003296D03*
X036213Y003286D03*
X036143Y003346D03*
X036433Y003206D03*
X036593Y003186D03*
X036763Y003206D03*
X036743Y003006D03*
X036903Y002976D03*
X037443Y003206D03*
X037593Y003176D03*
X037763Y003186D03*
X037943Y003206D03*
X038093Y003206D03*
X038093Y002986D03*
X037943Y002986D03*
X038373Y002986D03*
X038383Y002996D03*
X038533Y002986D03*
X038533Y002966D03*
X038683Y002986D03*
X038843Y002996D03*
X038993Y003006D03*
X039163Y002986D03*
X039353Y003206D03*
X039513Y003186D03*
X039893Y003326D03*
X039893Y003346D03*
X040713Y003206D03*
X040713Y003186D03*
X040863Y003066D03*
X040883Y002976D03*
X040713Y002986D03*
X040713Y002966D03*
X040973Y003126D03*
X041133Y003206D03*
X041303Y003186D03*
X041303Y002996D03*
X041143Y002986D03*
X041133Y002996D03*
X041923Y003206D03*
X042083Y003186D03*
X040213Y002886D03*
X038843Y003186D03*
X038673Y003206D03*
X038663Y003196D03*
X038383Y003196D03*
X038373Y003206D03*
X037053Y003326D03*
X037053Y003346D03*
D187*
X037058Y003306D03*
X037138Y003376D03*
X036248Y003236D03*
X035788Y003196D03*
X037338Y002916D03*
X038228Y003006D03*
X038528Y002946D03*
X039898Y003306D03*
X040128Y003246D03*
X040248Y003376D03*
X040428Y003376D03*
X040718Y003166D03*
X040848Y003196D03*
X040718Y002946D03*
X040628Y002916D03*
X040448Y002916D03*
D188*
X040438Y002926D03*
X040428Y002936D03*
X040428Y002946D03*
X040418Y002966D03*
X040418Y002976D03*
X040408Y002986D03*
X040408Y002996D03*
X040398Y003016D03*
X040398Y003026D03*
X040388Y003036D03*
X040388Y003046D03*
X040378Y003066D03*
X040378Y003076D03*
X040368Y003086D03*
X040368Y003096D03*
X040358Y003116D03*
X040358Y003126D03*
X040348Y003136D03*
X040348Y003146D03*
X040338Y003166D03*
X040338Y003176D03*
X040328Y003196D03*
X040318Y003216D03*
X040318Y003226D03*
X040308Y003246D03*
X040298Y003266D03*
X040298Y003276D03*
X040288Y003296D03*
X040288Y003306D03*
X040278Y003316D03*
X040278Y003326D03*
X040268Y003346D03*
X040268Y003356D03*
X040258Y003366D03*
X040438Y003366D03*
X040448Y003356D03*
X040448Y003346D03*
X040458Y003326D03*
X040458Y003316D03*
X040468Y003306D03*
X040468Y003296D03*
X040478Y003276D03*
X040478Y003266D03*
X040488Y003246D03*
X040498Y003226D03*
X040498Y003216D03*
X040508Y003196D03*
X040518Y003176D03*
X040518Y003166D03*
X040528Y003146D03*
X040528Y003136D03*
X040538Y003126D03*
X040538Y003116D03*
X040548Y003096D03*
X040548Y003086D03*
X040558Y003076D03*
X040558Y003066D03*
X040568Y003046D03*
X040568Y003036D03*
X040578Y003026D03*
X040578Y003016D03*
X040588Y002996D03*
X040588Y002986D03*
X040598Y002976D03*
X040598Y002966D03*
X040608Y002946D03*
X040608Y002936D03*
X040618Y002926D03*
X040718Y003006D03*
X040718Y003226D03*
X040858Y003206D03*
X040918Y003246D03*
X041188Y003246D03*
X041258Y003206D03*
X041508Y003316D03*
X041508Y003326D03*
X041508Y003336D03*
X041738Y003336D03*
X041738Y003326D03*
X041738Y003316D03*
X041968Y003246D03*
X042038Y003206D03*
X041698Y002946D03*
X041468Y002946D03*
X040228Y002946D03*
X040208Y002966D03*
X040208Y003036D03*
X040208Y003046D03*
X040198Y003056D03*
X040038Y003136D03*
X040038Y003166D03*
X039898Y003366D03*
X039718Y003336D03*
X039718Y003326D03*
X039718Y003316D03*
X039468Y003206D03*
X039398Y003246D03*
X039678Y002946D03*
X039118Y002946D03*
X038978Y002946D03*
X038858Y002946D03*
X038738Y002946D03*
X038798Y003206D03*
X038308Y002946D03*
X038228Y002996D03*
X038018Y002946D03*
X038018Y003246D03*
X037728Y003206D03*
X037568Y003196D03*
X037488Y003246D03*
X037248Y003126D03*
X037248Y003116D03*
X037258Y003096D03*
X037258Y003086D03*
X037268Y003076D03*
X037268Y003066D03*
X037278Y003046D03*
X037278Y003036D03*
X037288Y003026D03*
X037288Y003016D03*
X037298Y002996D03*
X037298Y002986D03*
X037308Y002976D03*
X037308Y002966D03*
X037318Y002946D03*
X037318Y002936D03*
X037328Y002926D03*
X037238Y003136D03*
X037238Y003146D03*
X037228Y003166D03*
X037228Y003176D03*
X037218Y003196D03*
X037208Y003216D03*
X037208Y003226D03*
X037198Y003246D03*
X037188Y003266D03*
X037188Y003276D03*
X037178Y003296D03*
X037178Y003306D03*
X037168Y003316D03*
X037168Y003326D03*
X037158Y003346D03*
X037158Y003356D03*
X037148Y003366D03*
X037058Y003366D03*
X036818Y003246D03*
X036788Y002986D03*
X036728Y002946D03*
X036868Y002946D03*
X036548Y003206D03*
X036478Y003246D03*
X036248Y003246D03*
X035858Y003246D03*
X035798Y003206D03*
D189*
X035943Y002996D03*
X035873Y002946D03*
X036913Y003186D03*
X037073Y003246D03*
X037573Y003186D03*
X037663Y003246D03*
X038233Y003196D03*
X038723Y003246D03*
X039633Y002986D03*
X040933Y002946D03*
X041003Y002996D03*
X041203Y002946D03*
X041423Y002986D03*
X041653Y002986D03*
D190*
X040093Y003226D03*
X036143Y002976D03*
X036143Y002966D03*
X036143Y002956D03*
X036143Y002946D03*
D191*
X035873Y002956D03*
X035873Y003106D03*
X036163Y003316D03*
X036863Y002956D03*
X037493Y003236D03*
X037663Y003226D03*
X038723Y003236D03*
X039113Y002956D03*
X040033Y003206D03*
X040143Y003066D03*
X040933Y003106D03*
X040933Y002956D03*
X041203Y002956D03*
D192*
X040918Y003096D03*
X040128Y003236D03*
X038308Y003236D03*
X038308Y002956D03*
X038018Y002956D03*
X038018Y003236D03*
X036828Y003236D03*
X036168Y003306D03*
X035858Y003096D03*
D193*
X036483Y003226D03*
X037493Y003226D03*
X039403Y003226D03*
X039673Y002966D03*
X041463Y002966D03*
X041693Y002966D03*
X041973Y003226D03*
D194*
X041973Y003216D03*
X040933Y002966D03*
X039403Y003216D03*
X038303Y003226D03*
X037493Y003216D03*
X036783Y003096D03*
X036483Y003216D03*
X035873Y002966D03*
D195*
X036828Y003226D03*
X038018Y003226D03*
X038018Y002966D03*
X038308Y002966D03*
X038738Y002976D03*
X038728Y003216D03*
X039108Y002976D03*
X040128Y003086D03*
X041188Y003216D03*
X041198Y002976D03*
D196*
X040103Y002976D03*
D197*
X038308Y002976D03*
X036828Y003216D03*
D198*
X038018Y003216D03*
X038018Y002976D03*
X040108Y002986D03*
X040128Y002996D03*
D199*
X040913Y003216D03*
X035853Y003216D03*
M02*
