G75*
G70*
%OFA0B0*%
%FSLAX24Y24*%
%IPPOS*%
%LPD*%
%AMOC8*
5,1,8,0,0,1.08239X$1,22.5*
%
%ADD10C,0.0000*%
%ADD11R,0.0433X0.0394*%
%ADD12R,0.1024X0.1476*%
%ADD13R,0.1024X0.1378*%
%ADD14R,0.0394X0.0433*%
%ADD15R,0.0315X0.0315*%
%ADD16R,0.0787X0.0984*%
%ADD17R,0.0787X0.1299*%
%ADD18R,0.0197X0.1220*%
%ADD19R,0.0472X0.0217*%
%ADD20R,0.1181X0.1181*%
%ADD21R,0.0236X0.0866*%
%ADD22R,0.0394X0.0551*%
%ADD23R,0.0630X0.0710*%
%ADD24C,0.0787*%
%ADD25R,0.0906X0.0984*%
%ADD26R,0.2165X0.0728*%
%ADD27R,0.0630X0.1063*%
%ADD28R,0.0787X0.0630*%
%ADD29R,0.0709X0.0433*%
%ADD30R,0.0118X0.0472*%
%ADD31R,0.0472X0.0118*%
%ADD32C,0.0660*%
%ADD33R,0.0236X0.0472*%
%ADD34R,0.0472X0.0236*%
%ADD35R,0.1102X0.0591*%
%ADD36R,0.0787X0.0945*%
%ADD37R,0.0217X0.0472*%
%ADD38R,0.0394X0.0709*%
%ADD39R,0.0860X0.0420*%
%ADD40R,0.0400X0.1300*%
%ADD41R,0.0394X0.0787*%
%ADD42R,0.0984X0.0394*%
%ADD43R,0.1181X0.0394*%
%ADD44C,0.0100*%
%ADD45C,0.0246*%
%ADD46C,0.0120*%
%ADD47C,0.0160*%
%ADD48C,0.0500*%
%ADD49C,0.0240*%
%ADD50C,0.0320*%
D10*
X001725Y000937D02*
X077315Y000937D01*
X076685Y002512D02*
X076687Y002562D01*
X076693Y002612D01*
X076703Y002661D01*
X076717Y002709D01*
X076734Y002756D01*
X076755Y002801D01*
X076780Y002845D01*
X076808Y002886D01*
X076840Y002925D01*
X076874Y002962D01*
X076911Y002996D01*
X076951Y003026D01*
X076993Y003053D01*
X077037Y003077D01*
X077083Y003098D01*
X077130Y003114D01*
X077178Y003127D01*
X077228Y003136D01*
X077277Y003141D01*
X077328Y003142D01*
X077378Y003139D01*
X077427Y003132D01*
X077476Y003121D01*
X077524Y003106D01*
X077570Y003088D01*
X077615Y003066D01*
X077658Y003040D01*
X077699Y003011D01*
X077738Y002979D01*
X077774Y002944D01*
X077806Y002906D01*
X077836Y002866D01*
X077863Y002823D01*
X077886Y002779D01*
X077905Y002733D01*
X077921Y002685D01*
X077933Y002636D01*
X077941Y002587D01*
X077945Y002537D01*
X077945Y002487D01*
X077941Y002437D01*
X077933Y002388D01*
X077921Y002339D01*
X077905Y002291D01*
X077886Y002245D01*
X077863Y002201D01*
X077836Y002158D01*
X077806Y002118D01*
X077774Y002080D01*
X077738Y002045D01*
X077699Y002013D01*
X077658Y001984D01*
X077615Y001958D01*
X077570Y001936D01*
X077524Y001918D01*
X077476Y001903D01*
X077427Y001892D01*
X077378Y001885D01*
X077328Y001882D01*
X077277Y001883D01*
X077228Y001888D01*
X077178Y001897D01*
X077130Y001910D01*
X077083Y001926D01*
X077037Y001947D01*
X076993Y001971D01*
X076951Y001998D01*
X076911Y002028D01*
X076874Y002062D01*
X076840Y002099D01*
X076808Y002138D01*
X076780Y002179D01*
X076755Y002223D01*
X076734Y002268D01*
X076717Y002315D01*
X076703Y002363D01*
X076693Y002412D01*
X076687Y002462D01*
X076685Y002512D01*
X077315Y000937D02*
X077392Y000939D01*
X077469Y000945D01*
X077546Y000954D01*
X077622Y000967D01*
X077698Y000984D01*
X077772Y001005D01*
X077846Y001029D01*
X077918Y001057D01*
X077988Y001088D01*
X078057Y001123D01*
X078125Y001161D01*
X078190Y001202D01*
X078253Y001247D01*
X078314Y001295D01*
X078373Y001345D01*
X078429Y001398D01*
X078482Y001454D01*
X078532Y001513D01*
X078580Y001574D01*
X078625Y001637D01*
X078666Y001702D01*
X078704Y001770D01*
X078739Y001839D01*
X078770Y001909D01*
X078798Y001981D01*
X078822Y002055D01*
X078843Y002129D01*
X078860Y002205D01*
X078873Y002281D01*
X078882Y002358D01*
X078888Y002435D01*
X078890Y002512D01*
X078890Y019048D01*
X076685Y019048D02*
X076687Y019098D01*
X076693Y019148D01*
X076703Y019197D01*
X076717Y019245D01*
X076734Y019292D01*
X076755Y019337D01*
X076780Y019381D01*
X076808Y019422D01*
X076840Y019461D01*
X076874Y019498D01*
X076911Y019532D01*
X076951Y019562D01*
X076993Y019589D01*
X077037Y019613D01*
X077083Y019634D01*
X077130Y019650D01*
X077178Y019663D01*
X077228Y019672D01*
X077277Y019677D01*
X077328Y019678D01*
X077378Y019675D01*
X077427Y019668D01*
X077476Y019657D01*
X077524Y019642D01*
X077570Y019624D01*
X077615Y019602D01*
X077658Y019576D01*
X077699Y019547D01*
X077738Y019515D01*
X077774Y019480D01*
X077806Y019442D01*
X077836Y019402D01*
X077863Y019359D01*
X077886Y019315D01*
X077905Y019269D01*
X077921Y019221D01*
X077933Y019172D01*
X077941Y019123D01*
X077945Y019073D01*
X077945Y019023D01*
X077941Y018973D01*
X077933Y018924D01*
X077921Y018875D01*
X077905Y018827D01*
X077886Y018781D01*
X077863Y018737D01*
X077836Y018694D01*
X077806Y018654D01*
X077774Y018616D01*
X077738Y018581D01*
X077699Y018549D01*
X077658Y018520D01*
X077615Y018494D01*
X077570Y018472D01*
X077524Y018454D01*
X077476Y018439D01*
X077427Y018428D01*
X077378Y018421D01*
X077328Y018418D01*
X077277Y018419D01*
X077228Y018424D01*
X077178Y018433D01*
X077130Y018446D01*
X077083Y018462D01*
X077037Y018483D01*
X076993Y018507D01*
X076951Y018534D01*
X076911Y018564D01*
X076874Y018598D01*
X076840Y018635D01*
X076808Y018674D01*
X076780Y018715D01*
X076755Y018759D01*
X076734Y018804D01*
X076717Y018851D01*
X076703Y018899D01*
X076693Y018948D01*
X076687Y018998D01*
X076685Y019048D01*
X077315Y020623D02*
X077392Y020621D01*
X077469Y020615D01*
X077546Y020606D01*
X077622Y020593D01*
X077698Y020576D01*
X077772Y020555D01*
X077846Y020531D01*
X077918Y020503D01*
X077988Y020472D01*
X078057Y020437D01*
X078125Y020399D01*
X078190Y020358D01*
X078253Y020313D01*
X078314Y020265D01*
X078373Y020215D01*
X078429Y020162D01*
X078482Y020106D01*
X078532Y020047D01*
X078580Y019986D01*
X078625Y019923D01*
X078666Y019858D01*
X078704Y019790D01*
X078739Y019721D01*
X078770Y019651D01*
X078798Y019579D01*
X078822Y019505D01*
X078843Y019431D01*
X078860Y019355D01*
X078873Y019279D01*
X078882Y019202D01*
X078888Y019125D01*
X078890Y019048D01*
X077315Y020622D02*
X001725Y020622D01*
X001095Y019048D02*
X001097Y019098D01*
X001103Y019148D01*
X001113Y019197D01*
X001127Y019245D01*
X001144Y019292D01*
X001165Y019337D01*
X001190Y019381D01*
X001218Y019422D01*
X001250Y019461D01*
X001284Y019498D01*
X001321Y019532D01*
X001361Y019562D01*
X001403Y019589D01*
X001447Y019613D01*
X001493Y019634D01*
X001540Y019650D01*
X001588Y019663D01*
X001638Y019672D01*
X001687Y019677D01*
X001738Y019678D01*
X001788Y019675D01*
X001837Y019668D01*
X001886Y019657D01*
X001934Y019642D01*
X001980Y019624D01*
X002025Y019602D01*
X002068Y019576D01*
X002109Y019547D01*
X002148Y019515D01*
X002184Y019480D01*
X002216Y019442D01*
X002246Y019402D01*
X002273Y019359D01*
X002296Y019315D01*
X002315Y019269D01*
X002331Y019221D01*
X002343Y019172D01*
X002351Y019123D01*
X002355Y019073D01*
X002355Y019023D01*
X002351Y018973D01*
X002343Y018924D01*
X002331Y018875D01*
X002315Y018827D01*
X002296Y018781D01*
X002273Y018737D01*
X002246Y018694D01*
X002216Y018654D01*
X002184Y018616D01*
X002148Y018581D01*
X002109Y018549D01*
X002068Y018520D01*
X002025Y018494D01*
X001980Y018472D01*
X001934Y018454D01*
X001886Y018439D01*
X001837Y018428D01*
X001788Y018421D01*
X001738Y018418D01*
X001687Y018419D01*
X001638Y018424D01*
X001588Y018433D01*
X001540Y018446D01*
X001493Y018462D01*
X001447Y018483D01*
X001403Y018507D01*
X001361Y018534D01*
X001321Y018564D01*
X001284Y018598D01*
X001250Y018635D01*
X001218Y018674D01*
X001190Y018715D01*
X001165Y018759D01*
X001144Y018804D01*
X001127Y018851D01*
X001113Y018899D01*
X001103Y018948D01*
X001097Y018998D01*
X001095Y019048D01*
X000150Y019048D02*
X000152Y019125D01*
X000158Y019202D01*
X000167Y019279D01*
X000180Y019355D01*
X000197Y019431D01*
X000218Y019505D01*
X000242Y019579D01*
X000270Y019651D01*
X000301Y019721D01*
X000336Y019790D01*
X000374Y019858D01*
X000415Y019923D01*
X000460Y019986D01*
X000508Y020047D01*
X000558Y020106D01*
X000611Y020162D01*
X000667Y020215D01*
X000726Y020265D01*
X000787Y020313D01*
X000850Y020358D01*
X000915Y020399D01*
X000983Y020437D01*
X001052Y020472D01*
X001122Y020503D01*
X001194Y020531D01*
X001268Y020555D01*
X001342Y020576D01*
X001418Y020593D01*
X001494Y020606D01*
X001571Y020615D01*
X001648Y020621D01*
X001725Y020623D01*
X000150Y019048D02*
X000150Y002512D01*
X001095Y002512D02*
X001097Y002562D01*
X001103Y002612D01*
X001113Y002661D01*
X001127Y002709D01*
X001144Y002756D01*
X001165Y002801D01*
X001190Y002845D01*
X001218Y002886D01*
X001250Y002925D01*
X001284Y002962D01*
X001321Y002996D01*
X001361Y003026D01*
X001403Y003053D01*
X001447Y003077D01*
X001493Y003098D01*
X001540Y003114D01*
X001588Y003127D01*
X001638Y003136D01*
X001687Y003141D01*
X001738Y003142D01*
X001788Y003139D01*
X001837Y003132D01*
X001886Y003121D01*
X001934Y003106D01*
X001980Y003088D01*
X002025Y003066D01*
X002068Y003040D01*
X002109Y003011D01*
X002148Y002979D01*
X002184Y002944D01*
X002216Y002906D01*
X002246Y002866D01*
X002273Y002823D01*
X002296Y002779D01*
X002315Y002733D01*
X002331Y002685D01*
X002343Y002636D01*
X002351Y002587D01*
X002355Y002537D01*
X002355Y002487D01*
X002351Y002437D01*
X002343Y002388D01*
X002331Y002339D01*
X002315Y002291D01*
X002296Y002245D01*
X002273Y002201D01*
X002246Y002158D01*
X002216Y002118D01*
X002184Y002080D01*
X002148Y002045D01*
X002109Y002013D01*
X002068Y001984D01*
X002025Y001958D01*
X001980Y001936D01*
X001934Y001918D01*
X001886Y001903D01*
X001837Y001892D01*
X001788Y001885D01*
X001738Y001882D01*
X001687Y001883D01*
X001638Y001888D01*
X001588Y001897D01*
X001540Y001910D01*
X001493Y001926D01*
X001447Y001947D01*
X001403Y001971D01*
X001361Y001998D01*
X001321Y002028D01*
X001284Y002062D01*
X001250Y002099D01*
X001218Y002138D01*
X001190Y002179D01*
X001165Y002223D01*
X001144Y002268D01*
X001127Y002315D01*
X001113Y002363D01*
X001103Y002412D01*
X001097Y002462D01*
X001095Y002512D01*
X000150Y002512D02*
X000152Y002435D01*
X000158Y002358D01*
X000167Y002281D01*
X000180Y002205D01*
X000197Y002129D01*
X000218Y002055D01*
X000242Y001981D01*
X000270Y001909D01*
X000301Y001839D01*
X000336Y001770D01*
X000374Y001702D01*
X000415Y001637D01*
X000460Y001574D01*
X000508Y001513D01*
X000558Y001454D01*
X000611Y001398D01*
X000667Y001345D01*
X000726Y001295D01*
X000787Y001247D01*
X000850Y001202D01*
X000915Y001161D01*
X000983Y001123D01*
X001052Y001088D01*
X001122Y001057D01*
X001194Y001029D01*
X001268Y001005D01*
X001342Y000984D01*
X001418Y000967D01*
X001494Y000954D01*
X001571Y000945D01*
X001648Y000939D01*
X001725Y000937D01*
X063349Y010790D02*
X063351Y010817D01*
X063357Y010844D01*
X063366Y010870D01*
X063379Y010894D01*
X063395Y010917D01*
X063414Y010936D01*
X063436Y010953D01*
X063460Y010967D01*
X063485Y010977D01*
X063512Y010984D01*
X063539Y010987D01*
X063567Y010986D01*
X063594Y010981D01*
X063620Y010973D01*
X063644Y010961D01*
X063667Y010945D01*
X063688Y010927D01*
X063705Y010906D01*
X063720Y010882D01*
X063731Y010857D01*
X063739Y010831D01*
X063743Y010804D01*
X063743Y010776D01*
X063739Y010749D01*
X063731Y010723D01*
X063720Y010698D01*
X063705Y010674D01*
X063688Y010653D01*
X063667Y010635D01*
X063645Y010619D01*
X063620Y010607D01*
X063594Y010599D01*
X063567Y010594D01*
X063539Y010593D01*
X063512Y010596D01*
X063485Y010603D01*
X063460Y010613D01*
X063436Y010627D01*
X063414Y010644D01*
X063395Y010663D01*
X063379Y010686D01*
X063366Y010710D01*
X063357Y010736D01*
X063351Y010763D01*
X063349Y010790D01*
X065378Y012878D02*
X065380Y012909D01*
X065386Y012940D01*
X065395Y012970D01*
X065408Y012999D01*
X065425Y013026D01*
X065445Y013050D01*
X065467Y013072D01*
X065493Y013091D01*
X065520Y013107D01*
X065549Y013119D01*
X065579Y013128D01*
X065610Y013133D01*
X065642Y013134D01*
X065673Y013131D01*
X065704Y013124D01*
X065734Y013114D01*
X065762Y013100D01*
X065788Y013082D01*
X065812Y013062D01*
X065833Y013038D01*
X065852Y013013D01*
X065867Y012985D01*
X065878Y012956D01*
X065886Y012925D01*
X065890Y012894D01*
X065890Y012862D01*
X065886Y012831D01*
X065878Y012800D01*
X065867Y012771D01*
X065852Y012743D01*
X065833Y012718D01*
X065812Y012694D01*
X065788Y012674D01*
X065762Y012656D01*
X065734Y012642D01*
X065704Y012632D01*
X065673Y012625D01*
X065642Y012622D01*
X065610Y012623D01*
X065579Y012628D01*
X065549Y012637D01*
X065520Y012649D01*
X065493Y012665D01*
X065467Y012684D01*
X065445Y012706D01*
X065425Y012730D01*
X065408Y012757D01*
X065395Y012786D01*
X065386Y012816D01*
X065380Y012847D01*
X065378Y012878D01*
X067178Y004323D02*
X067180Y004357D01*
X067186Y004391D01*
X067196Y004424D01*
X067209Y004455D01*
X067227Y004485D01*
X067247Y004513D01*
X067271Y004538D01*
X067297Y004560D01*
X067325Y004578D01*
X067356Y004594D01*
X067388Y004606D01*
X067422Y004614D01*
X067456Y004618D01*
X067490Y004618D01*
X067524Y004614D01*
X067558Y004606D01*
X067590Y004594D01*
X067620Y004578D01*
X067649Y004560D01*
X067675Y004538D01*
X067699Y004513D01*
X067719Y004485D01*
X067737Y004455D01*
X067750Y004424D01*
X067760Y004391D01*
X067766Y004357D01*
X067768Y004323D01*
X067766Y004289D01*
X067760Y004255D01*
X067750Y004222D01*
X067737Y004191D01*
X067719Y004161D01*
X067699Y004133D01*
X067675Y004108D01*
X067649Y004086D01*
X067621Y004068D01*
X067590Y004052D01*
X067558Y004040D01*
X067524Y004032D01*
X067490Y004028D01*
X067456Y004028D01*
X067422Y004032D01*
X067388Y004040D01*
X067356Y004052D01*
X067325Y004068D01*
X067297Y004086D01*
X067271Y004108D01*
X067247Y004133D01*
X067227Y004161D01*
X067209Y004191D01*
X067196Y004222D01*
X067186Y004255D01*
X067180Y004289D01*
X067178Y004323D01*
X070760Y002807D02*
X070762Y002833D01*
X070768Y002859D01*
X070778Y002884D01*
X070791Y002907D01*
X070807Y002927D01*
X070827Y002945D01*
X070849Y002960D01*
X070872Y002972D01*
X070898Y002980D01*
X070924Y002984D01*
X070950Y002984D01*
X070976Y002980D01*
X071002Y002972D01*
X071026Y002960D01*
X071047Y002945D01*
X071067Y002927D01*
X071083Y002907D01*
X071096Y002884D01*
X071106Y002859D01*
X071112Y002833D01*
X071114Y002807D01*
X071112Y002781D01*
X071106Y002755D01*
X071096Y002730D01*
X071083Y002707D01*
X071067Y002687D01*
X071047Y002669D01*
X071025Y002654D01*
X071002Y002642D01*
X070976Y002634D01*
X070950Y002630D01*
X070924Y002630D01*
X070898Y002634D01*
X070872Y002642D01*
X070848Y002654D01*
X070827Y002669D01*
X070807Y002687D01*
X070791Y002707D01*
X070778Y002730D01*
X070768Y002755D01*
X070762Y002781D01*
X070760Y002807D01*
X072493Y002807D02*
X072495Y002833D01*
X072501Y002859D01*
X072511Y002884D01*
X072524Y002907D01*
X072540Y002927D01*
X072560Y002945D01*
X072582Y002960D01*
X072605Y002972D01*
X072631Y002980D01*
X072657Y002984D01*
X072683Y002984D01*
X072709Y002980D01*
X072735Y002972D01*
X072759Y002960D01*
X072780Y002945D01*
X072800Y002927D01*
X072816Y002907D01*
X072829Y002884D01*
X072839Y002859D01*
X072845Y002833D01*
X072847Y002807D01*
X072845Y002781D01*
X072839Y002755D01*
X072829Y002730D01*
X072816Y002707D01*
X072800Y002687D01*
X072780Y002669D01*
X072758Y002654D01*
X072735Y002642D01*
X072709Y002634D01*
X072683Y002630D01*
X072657Y002630D01*
X072631Y002634D01*
X072605Y002642D01*
X072581Y002654D01*
X072560Y002669D01*
X072540Y002687D01*
X072524Y002707D01*
X072511Y002730D01*
X072501Y002755D01*
X072495Y002781D01*
X072493Y002807D01*
X067178Y001567D02*
X067180Y001601D01*
X067186Y001635D01*
X067196Y001668D01*
X067209Y001699D01*
X067227Y001729D01*
X067247Y001757D01*
X067271Y001782D01*
X067297Y001804D01*
X067325Y001822D01*
X067356Y001838D01*
X067388Y001850D01*
X067422Y001858D01*
X067456Y001862D01*
X067490Y001862D01*
X067524Y001858D01*
X067558Y001850D01*
X067590Y001838D01*
X067620Y001822D01*
X067649Y001804D01*
X067675Y001782D01*
X067699Y001757D01*
X067719Y001729D01*
X067737Y001699D01*
X067750Y001668D01*
X067760Y001635D01*
X067766Y001601D01*
X067768Y001567D01*
X067766Y001533D01*
X067760Y001499D01*
X067750Y001466D01*
X067737Y001435D01*
X067719Y001405D01*
X067699Y001377D01*
X067675Y001352D01*
X067649Y001330D01*
X067621Y001312D01*
X067590Y001296D01*
X067558Y001284D01*
X067524Y001276D01*
X067490Y001272D01*
X067456Y001272D01*
X067422Y001276D01*
X067388Y001284D01*
X067356Y001296D01*
X067325Y001312D01*
X067297Y001330D01*
X067271Y001352D01*
X067247Y001377D01*
X067227Y001405D01*
X067209Y001435D01*
X067196Y001466D01*
X067186Y001499D01*
X067180Y001533D01*
X067178Y001567D01*
D11*
X072099Y005229D03*
X072689Y005229D03*
X073280Y005229D03*
X073280Y005898D03*
X072689Y005898D03*
X072099Y005898D03*
X071351Y006449D03*
X070681Y006449D03*
X070681Y007040D03*
X071351Y007040D03*
X071351Y008910D03*
X070681Y008910D03*
X073969Y009067D03*
X073969Y009737D03*
X069973Y009993D03*
X069304Y009993D03*
X058811Y011331D03*
X058811Y012000D03*
X058811Y012611D03*
X058811Y013280D03*
X068910Y013044D03*
X069579Y013044D03*
X073831Y013044D03*
X074500Y013044D03*
X074500Y013536D03*
X073831Y013536D03*
X071843Y015504D03*
X071174Y015504D03*
X070563Y015504D03*
X069894Y015504D03*
X007729Y015248D03*
X007729Y014579D03*
D12*
G36*
X062591Y010559D02*
X063315Y009835D01*
X062273Y008793D01*
X061549Y009517D01*
X062591Y010559D01*
G37*
D13*
G36*
X067081Y015049D02*
X067805Y014325D01*
X066831Y013351D01*
X066107Y014075D01*
X067081Y015049D01*
G37*
D14*
X072689Y014874D03*
X073674Y014874D03*
X073674Y015544D03*
X072689Y015544D03*
X074422Y012256D03*
X075091Y012256D03*
X075091Y011666D03*
X074422Y011666D03*
X073378Y009737D03*
X073378Y009067D03*
X067512Y008811D03*
X066843Y008811D03*
X066843Y008221D03*
X067512Y008221D03*
X066784Y007374D03*
X068752Y007374D03*
X069343Y007374D03*
X069343Y006705D03*
X068752Y006705D03*
X066784Y006705D03*
X070681Y005859D03*
X071351Y005859D03*
X071351Y005268D03*
X070681Y005268D03*
X058811Y009067D03*
X058811Y009737D03*
X050485Y009796D03*
X049815Y009796D03*
X049815Y010583D03*
X050485Y010583D03*
X050485Y009008D03*
X049815Y009008D03*
X049815Y008221D03*
X050485Y008221D03*
X041390Y007374D03*
X041390Y006705D03*
X015052Y007040D03*
X014382Y007040D03*
X008811Y009756D03*
X008221Y009756D03*
X008221Y010426D03*
X008811Y010426D03*
X008319Y014579D03*
X007138Y014579D03*
X007138Y015248D03*
X008319Y015248D03*
D15*
X059402Y011961D03*
X059402Y011370D03*
X075741Y011666D03*
X076331Y011666D03*
X076331Y012256D03*
X075741Y012256D03*
D16*
X073556Y001626D03*
X070052Y001626D03*
D17*
X070052Y003949D03*
X073556Y003949D03*
D18*
X072433Y003989D03*
X072119Y003989D03*
X071804Y003989D03*
X071489Y003989D03*
X071174Y003989D03*
D19*
X071528Y007650D03*
X070504Y007650D03*
X070504Y008024D03*
X070504Y008398D03*
X071528Y008398D03*
D20*
X009717Y006252D03*
X003575Y006252D03*
D21*
X004715Y011528D03*
X005215Y011528D03*
X005715Y011528D03*
X006215Y011528D03*
X007274Y011528D03*
X007774Y011528D03*
X008274Y011528D03*
X008774Y011528D03*
X008774Y013575D03*
X008274Y013575D03*
X007774Y013575D03*
X007274Y013575D03*
X006215Y013575D03*
X005715Y013575D03*
X005215Y013575D03*
X004715Y013575D03*
D22*
X009796Y012000D03*
X010170Y011134D03*
X009422Y011134D03*
D23*
X006025Y014914D03*
X004905Y014914D03*
D24*
X005465Y010386D03*
X003300Y010386D03*
X009796Y010091D03*
X009993Y003693D03*
D25*
X011115Y005465D03*
X012807Y005465D03*
D26*
X014520Y005485D03*
X014520Y003477D03*
D27*
X012512Y003693D03*
X011410Y003693D03*
D28*
X016095Y005504D03*
X016095Y006607D03*
D29*
X074028Y007178D03*
X076469Y007178D03*
X076469Y005721D03*
X074028Y005721D03*
D30*
X072886Y009894D03*
X072689Y009894D03*
X072493Y009894D03*
X072296Y009894D03*
X072099Y009894D03*
X071902Y009894D03*
X071705Y009894D03*
X071508Y009894D03*
X071311Y009894D03*
X071115Y009894D03*
X070918Y009894D03*
X070721Y009894D03*
X070721Y013241D03*
X070918Y013241D03*
X071115Y013241D03*
X071311Y013241D03*
X071508Y013241D03*
X071705Y013241D03*
X071902Y013241D03*
X072099Y013241D03*
X072296Y013241D03*
X072493Y013241D03*
X072689Y013241D03*
X072886Y013241D03*
D31*
X073477Y012650D03*
X073477Y012453D03*
X073477Y012256D03*
X073477Y012059D03*
X073477Y011863D03*
X073477Y011666D03*
X073477Y011469D03*
X073477Y011272D03*
X073477Y011075D03*
X073477Y010878D03*
X073477Y010681D03*
X073477Y010485D03*
X070130Y010485D03*
X070130Y010681D03*
X070130Y010878D03*
X070130Y011075D03*
X070130Y011272D03*
X070130Y011469D03*
X070130Y011666D03*
X070130Y011863D03*
X070130Y012059D03*
X070130Y012256D03*
X070130Y012453D03*
X070130Y012650D03*
D32*
X077315Y011205D03*
X077315Y010205D03*
X077315Y009205D03*
X077315Y008205D03*
X077315Y007205D03*
D33*
X072768Y007433D03*
X072394Y007433D03*
X072020Y007433D03*
X072020Y006528D03*
X072394Y006528D03*
X072768Y006528D03*
D34*
X069067Y008241D03*
X068162Y008241D03*
X068162Y008615D03*
X069067Y008615D03*
X069067Y008989D03*
X068162Y008989D03*
D35*
X068811Y005347D03*
X066134Y004953D03*
X066134Y003378D03*
X066134Y002197D03*
D36*
X070130Y014520D03*
X071705Y014520D03*
D37*
X068142Y007552D03*
X067394Y007552D03*
X067394Y006528D03*
X067768Y006528D03*
X068142Y006528D03*
D38*
X072689Y014225D03*
X073674Y014225D03*
D39*
X057926Y013142D03*
X057926Y012552D03*
X057926Y011961D03*
X057926Y011370D03*
X057926Y010780D03*
X057926Y010189D03*
X057926Y009599D03*
X057926Y009008D03*
X052611Y009008D03*
X052611Y009599D03*
X052611Y010189D03*
X052611Y010780D03*
X052611Y011370D03*
X052611Y011961D03*
X052611Y012552D03*
X052611Y013142D03*
D40*
X058205Y004890D03*
X059205Y004890D03*
X060205Y004890D03*
X060205Y002890D03*
X059205Y002890D03*
X058205Y002890D03*
X020835Y002890D03*
X019835Y002890D03*
X018835Y002890D03*
X018835Y004890D03*
X019835Y004890D03*
X020835Y004890D03*
D41*
X043457Y006843D03*
X044244Y006843D03*
X045032Y006843D03*
X045819Y006843D03*
X046607Y006843D03*
X047394Y006843D03*
D42*
X048477Y007433D03*
X042374Y007433D03*
D43*
X042473Y008221D03*
X042473Y009008D03*
X042473Y009796D03*
X042473Y010583D03*
X042473Y011370D03*
X042473Y012158D03*
X042473Y012945D03*
X048378Y012945D03*
X048378Y012158D03*
X048378Y011370D03*
X048378Y010583D03*
X048378Y009796D03*
X048378Y009008D03*
X048378Y008221D03*
D44*
X049815Y008221D01*
X050122Y008226D02*
X050436Y008226D01*
X050436Y008269D02*
X050436Y008172D01*
X050138Y008172D01*
X050138Y007985D01*
X050148Y007946D01*
X050168Y007912D01*
X050181Y007899D01*
X050062Y007899D01*
X050122Y007959D01*
X050122Y008483D01*
X050058Y008547D01*
X049573Y008547D01*
X049509Y008483D01*
X049509Y008381D01*
X049079Y008381D01*
X049079Y008463D01*
X049014Y008528D01*
X047742Y008528D01*
X047678Y008463D01*
X047678Y007997D01*
X047619Y007997D01*
X047519Y007898D01*
X047225Y007603D01*
X042977Y007603D01*
X042977Y007676D01*
X042912Y007740D01*
X041837Y007740D01*
X041772Y007676D01*
X041772Y007603D01*
X041697Y007603D01*
X041697Y007637D01*
X041633Y007701D01*
X041148Y007701D01*
X041083Y007637D01*
X041083Y007112D01*
X041135Y007061D01*
X041101Y007042D01*
X041073Y007014D01*
X041054Y006980D01*
X041043Y006941D01*
X041043Y006754D01*
X041342Y006754D01*
X041342Y006657D01*
X041043Y006657D01*
X041043Y006469D01*
X041054Y006431D01*
X041073Y006396D01*
X041101Y006369D01*
X041135Y006349D01*
X041174Y006339D01*
X041342Y006339D01*
X041342Y006657D01*
X041439Y006657D01*
X041439Y006754D01*
X041737Y006754D01*
X041737Y006941D01*
X041727Y006980D01*
X041707Y007014D01*
X041679Y007042D01*
X041646Y007061D01*
X041697Y007112D01*
X041697Y007263D01*
X041772Y007263D01*
X041772Y007191D01*
X041837Y007127D01*
X042912Y007127D01*
X042977Y007191D01*
X042977Y007263D01*
X043150Y007263D01*
X043150Y006404D01*
X043215Y006339D01*
X043700Y006339D01*
X043764Y006404D01*
X043764Y007263D01*
X043938Y007263D01*
X043938Y006404D01*
X044002Y006339D01*
X044487Y006339D01*
X044551Y006404D01*
X044551Y007263D01*
X044725Y007263D01*
X044725Y006404D01*
X044789Y006339D01*
X045274Y006339D01*
X045339Y006404D01*
X045339Y007263D01*
X045512Y007263D01*
X045512Y006404D01*
X045577Y006339D01*
X046062Y006339D01*
X046126Y006404D01*
X046126Y007263D01*
X046300Y007263D01*
X046300Y006404D01*
X046364Y006339D01*
X046849Y006339D01*
X046914Y006404D01*
X046914Y007263D01*
X047087Y007263D01*
X047087Y006404D01*
X047152Y006339D01*
X047637Y006339D01*
X047701Y006404D01*
X047701Y007282D01*
X047637Y007347D01*
X047449Y007347D01*
X047760Y007657D01*
X047837Y007657D01*
X047835Y007650D01*
X047835Y007482D01*
X048428Y007482D01*
X048428Y007385D01*
X047835Y007385D01*
X047835Y007217D01*
X047845Y007179D01*
X047865Y007145D01*
X047893Y007117D01*
X047927Y007097D01*
X047965Y007087D01*
X048428Y007087D01*
X048428Y007385D01*
X048525Y007385D01*
X048525Y007087D01*
X048989Y007087D01*
X049027Y007097D01*
X049061Y007117D01*
X049089Y007145D01*
X049109Y007179D01*
X049119Y007217D01*
X049119Y007385D01*
X048525Y007385D01*
X048525Y007482D01*
X049119Y007482D01*
X049119Y007650D01*
X049117Y007657D01*
X049194Y007657D01*
X049292Y007559D01*
X057405Y007559D01*
X057889Y008043D01*
X057889Y007928D01*
X058026Y007791D01*
X058219Y007791D01*
X058292Y007864D01*
X058386Y007864D01*
X058479Y007958D01*
X058878Y008356D01*
X059468Y008356D01*
X059562Y008450D01*
X060546Y009434D01*
X060546Y010320D01*
X061240Y011014D01*
X063279Y011014D01*
X063252Y010986D01*
X063199Y010859D01*
X063199Y010721D01*
X063252Y010593D01*
X063349Y010496D01*
X063477Y010443D01*
X063615Y010443D01*
X063742Y010496D01*
X063840Y010593D01*
X063893Y010721D01*
X063893Y010859D01*
X063840Y010986D01*
X063812Y011014D01*
X064976Y011014D01*
X064976Y010979D01*
X065113Y010842D01*
X065242Y010842D01*
X060517Y006117D01*
X058450Y006117D01*
X058139Y005806D01*
X058045Y005712D01*
X058045Y005650D01*
X057960Y005650D01*
X057895Y005586D01*
X057895Y004195D01*
X057960Y004130D01*
X058451Y004130D01*
X058515Y004195D01*
X058515Y005586D01*
X058451Y005650D01*
X058435Y005650D01*
X058582Y005797D01*
X059114Y005797D01*
X059045Y005728D01*
X059045Y005650D01*
X058960Y005650D01*
X058895Y005586D01*
X058895Y004195D01*
X058960Y004130D01*
X059317Y004130D01*
X059139Y003952D01*
X059045Y003858D01*
X059045Y003650D01*
X058960Y003650D01*
X058895Y003586D01*
X058895Y002195D01*
X058960Y002130D01*
X059451Y002130D01*
X059515Y002195D01*
X059515Y003586D01*
X059451Y003650D01*
X059365Y003650D01*
X059365Y003725D01*
X059468Y003829D01*
X060649Y003829D01*
X060743Y003922D01*
X060841Y004021D01*
X060841Y005103D01*
X061703Y005965D01*
X061703Y005930D01*
X061630Y005857D01*
X061630Y005664D01*
X061766Y005527D01*
X061959Y005527D01*
X062096Y005664D01*
X062096Y005857D01*
X062023Y005930D01*
X062023Y005989D01*
X066456Y010423D01*
X066590Y010423D01*
X066551Y010384D01*
X066551Y010191D01*
X066687Y010055D01*
X066880Y010055D01*
X066945Y010119D01*
X066945Y009994D01*
X067081Y009858D01*
X067274Y009858D01*
X067411Y009994D01*
X067411Y010029D01*
X068622Y010029D01*
X068716Y010123D01*
X069704Y011112D01*
X069784Y011112D01*
X069784Y010843D01*
X069774Y010833D01*
X069754Y010798D01*
X069744Y010760D01*
X069744Y010682D01*
X070130Y010682D01*
X070130Y010681D01*
X069744Y010681D01*
X069744Y010603D01*
X069754Y010565D01*
X069774Y010530D01*
X069784Y010520D01*
X069784Y010380D01*
X069849Y010316D01*
X069960Y010316D01*
X069960Y010299D01*
X069711Y010299D01*
X069659Y010248D01*
X069640Y010281D01*
X069612Y010309D01*
X069578Y010329D01*
X069540Y010339D01*
X069352Y010339D01*
X069352Y010041D01*
X069255Y010041D01*
X069255Y009944D01*
X068937Y009944D01*
X068937Y009776D01*
X068947Y009738D01*
X068967Y009704D01*
X065737Y009704D01*
X065639Y009605D02*
X069812Y009605D01*
X069867Y009660D02*
X069386Y009179D01*
X069349Y009217D01*
X068786Y009217D01*
X068721Y009152D01*
X068721Y008835D01*
X068711Y008825D01*
X068691Y008791D01*
X068681Y008752D01*
X068681Y008631D01*
X068627Y008685D01*
X068528Y008785D01*
X068502Y008785D01*
X068485Y008802D01*
X068508Y008825D01*
X068508Y009152D01*
X068444Y009217D01*
X067880Y009217D01*
X067816Y009152D01*
X067816Y009149D01*
X067781Y009149D01*
X067762Y009130D01*
X067755Y009138D01*
X067270Y009138D01*
X067205Y009074D01*
X067205Y008549D01*
X067239Y008516D01*
X067205Y008483D01*
X067205Y007959D01*
X067266Y007898D01*
X067240Y007898D01*
X067176Y007833D01*
X067176Y007602D01*
X067138Y007564D01*
X067091Y007564D01*
X067091Y007637D01*
X067026Y007701D01*
X066541Y007701D01*
X066477Y007637D01*
X066477Y007564D01*
X066351Y007564D01*
X066213Y007427D01*
X066156Y007370D01*
X066156Y007564D01*
X066544Y007951D01*
X066600Y007894D01*
X067085Y007894D01*
X067150Y007959D01*
X067150Y008483D01*
X067117Y008516D01*
X067150Y008549D01*
X067150Y009074D01*
X067085Y009138D01*
X066600Y009138D01*
X066536Y009074D01*
X066536Y008971D01*
X066521Y008971D01*
X066427Y008878D01*
X066329Y008779D01*
X066329Y008484D01*
X065640Y007795D01*
X065640Y006122D01*
X065049Y005531D01*
X065049Y002348D01*
X065266Y002131D01*
X065359Y002037D01*
X065473Y002037D01*
X065473Y001856D01*
X065538Y001792D01*
X066731Y001792D01*
X066795Y001856D01*
X066795Y002538D01*
X066731Y002603D01*
X065538Y002603D01*
X065473Y002538D01*
X065473Y002376D01*
X065369Y002480D01*
X065369Y004390D01*
X065438Y004321D01*
X066850Y004321D01*
X066949Y004419D01*
X067042Y004513D01*
X067042Y005005D01*
X067224Y005187D01*
X068150Y005187D01*
X068150Y005006D01*
X068215Y004942D01*
X069408Y004942D01*
X069473Y005006D01*
X069473Y005688D01*
X069408Y005752D01*
X068215Y005752D01*
X068150Y005688D01*
X068150Y005507D01*
X067092Y005507D01*
X066998Y005413D01*
X066795Y005211D01*
X066795Y005294D01*
X066731Y005358D01*
X066482Y005358D01*
X066482Y006382D01*
X066495Y006369D01*
X066529Y006349D01*
X066567Y006339D01*
X066735Y006339D01*
X066735Y006657D01*
X066832Y006657D01*
X066832Y006339D01*
X067000Y006339D01*
X067039Y006349D01*
X067073Y006369D01*
X067101Y006396D01*
X067120Y006431D01*
X067131Y006469D01*
X067131Y006657D01*
X066832Y006657D01*
X066832Y006754D01*
X067131Y006754D01*
X067131Y006941D01*
X067120Y006980D01*
X067101Y007014D01*
X067073Y007042D01*
X067039Y007061D01*
X067091Y007112D01*
X067091Y007184D01*
X067296Y007184D01*
X067317Y007205D01*
X067548Y007205D01*
X067612Y007270D01*
X067612Y007431D01*
X067924Y007742D01*
X067924Y007270D01*
X067952Y007242D01*
X067952Y007131D01*
X067493Y007131D01*
X067381Y007020D01*
X067204Y006843D01*
X067204Y006838D01*
X067176Y006810D01*
X067176Y006246D01*
X067240Y006182D01*
X067548Y006182D01*
X067553Y006187D01*
X067568Y006172D01*
X067602Y006152D01*
X067640Y006142D01*
X067764Y006142D01*
X067764Y006524D01*
X067772Y006524D01*
X067772Y006142D01*
X067896Y006142D01*
X067934Y006152D01*
X067968Y006172D01*
X067983Y006187D01*
X067988Y006182D01*
X068161Y006182D01*
X068280Y006062D01*
X069323Y006062D01*
X069422Y006161D01*
X069533Y006272D01*
X069533Y006379D01*
X069585Y006379D01*
X069650Y006443D01*
X069650Y006515D01*
X070091Y006515D01*
X070150Y006456D01*
X070347Y006259D01*
X070355Y006259D01*
X070355Y006207D01*
X070408Y006154D01*
X070375Y006121D01*
X070375Y006080D01*
X070307Y006147D01*
X070209Y006147D01*
X070123Y006233D01*
X070012Y006344D01*
X069658Y006344D01*
X069448Y006134D01*
X069448Y005780D01*
X069547Y005682D01*
X069658Y005570D01*
X070012Y005570D01*
X070111Y005669D01*
X070180Y005738D01*
X070248Y005669D01*
X070375Y005669D01*
X070375Y005597D01*
X070408Y005563D01*
X070375Y005530D01*
X070375Y005006D01*
X070439Y004942D01*
X070924Y004942D01*
X070984Y005001D01*
X070984Y004663D01*
X070965Y004644D01*
X070965Y003333D01*
X071030Y003268D01*
X071318Y003268D01*
X071331Y003282D01*
X071345Y003268D01*
X071633Y003268D01*
X071646Y003282D01*
X071660Y003268D01*
X071948Y003268D01*
X071961Y003282D01*
X071975Y003268D01*
X072233Y003268D01*
X072243Y003258D01*
X072277Y003239D01*
X072315Y003228D01*
X072433Y003228D01*
X072433Y003989D01*
X072433Y003989D01*
X072682Y003989D01*
X072682Y004619D01*
X072672Y004657D01*
X072652Y004691D01*
X072628Y004714D01*
X072657Y004714D01*
X072751Y004808D01*
X072751Y004808D01*
X072756Y004813D01*
X072849Y004907D01*
X072849Y004922D01*
X072951Y004922D01*
X072985Y004955D01*
X073018Y004922D01*
X073542Y004922D01*
X073606Y004986D01*
X073606Y005370D01*
X073616Y005365D01*
X073654Y005354D01*
X073978Y005354D01*
X073978Y005671D01*
X074078Y005671D01*
X074078Y005771D01*
X073978Y005771D01*
X073978Y006087D01*
X073654Y006087D01*
X073616Y006077D01*
X073606Y006072D01*
X073606Y006140D01*
X073542Y006205D01*
X073440Y006205D01*
X073440Y006712D01*
X073046Y007106D01*
X072996Y007156D01*
X072996Y007715D01*
X072932Y007780D01*
X072928Y007780D01*
X072928Y007815D01*
X072456Y008287D01*
X072456Y008425D01*
X072628Y008253D01*
X072722Y008159D01*
X074232Y008159D01*
X074527Y008455D01*
X074621Y008548D01*
X074621Y009434D01*
X074724Y009537D01*
X076757Y009537D01*
X076912Y009382D01*
X076875Y009293D01*
X076875Y009118D01*
X076942Y008956D01*
X077066Y008832D01*
X077228Y008765D01*
X077403Y008765D01*
X077565Y008832D01*
X077637Y008905D01*
X077637Y008768D01*
X077482Y008612D01*
X077403Y008645D01*
X077228Y008645D01*
X077066Y008578D01*
X076942Y008454D01*
X076875Y008293D01*
X076875Y008118D01*
X076942Y007956D01*
X077066Y007832D01*
X077228Y007765D01*
X077403Y007765D01*
X077565Y007832D01*
X077688Y007956D01*
X077755Y008118D01*
X077755Y008293D01*
X077723Y008372D01*
X077844Y008494D01*
X077844Y007960D01*
X077492Y007608D01*
X077403Y007645D01*
X077228Y007645D01*
X077066Y007578D01*
X076942Y007454D01*
X076933Y007432D01*
X076933Y007440D01*
X076869Y007504D01*
X076069Y007504D01*
X076005Y007440D01*
X076005Y007338D01*
X074492Y007338D01*
X074492Y007440D01*
X074428Y007504D01*
X073628Y007504D01*
X073564Y007440D01*
X073564Y006915D01*
X073628Y006851D01*
X074428Y006851D01*
X074492Y006915D01*
X074492Y007018D01*
X076005Y007018D01*
X076005Y006915D01*
X076069Y006851D01*
X076869Y006851D01*
X076933Y006915D01*
X076933Y006978D01*
X076942Y006956D01*
X077066Y006832D01*
X077228Y006765D01*
X077403Y006765D01*
X077565Y006832D01*
X077688Y006956D01*
X077755Y007118D01*
X077755Y007293D01*
X077718Y007382D01*
X078164Y007828D01*
X078164Y009567D01*
X078071Y009660D01*
X077967Y009764D01*
X077967Y010452D01*
X077874Y010546D01*
X077601Y010819D01*
X077628Y010839D01*
X077681Y010892D01*
X077726Y010954D01*
X077760Y011021D01*
X077784Y011093D01*
X077794Y011157D01*
X077364Y011157D01*
X077364Y011254D01*
X077267Y011254D01*
X077267Y011683D01*
X077203Y011673D01*
X077131Y011650D01*
X077064Y011616D01*
X077003Y011571D01*
X076949Y011518D01*
X076905Y011457D01*
X076871Y011389D01*
X076847Y011318D01*
X076837Y011254D01*
X077267Y011254D01*
X077267Y011157D01*
X076837Y011157D01*
X076847Y011093D01*
X076871Y011021D01*
X076905Y010954D01*
X076949Y010892D01*
X077003Y010839D01*
X077030Y010819D01*
X076959Y010748D01*
X076659Y010448D01*
X074429Y010448D01*
X074198Y010679D01*
X074202Y010683D01*
X074202Y010876D01*
X074065Y011013D01*
X073872Y011013D01*
X073823Y010964D01*
X073823Y011701D01*
X073833Y011711D01*
X073853Y011746D01*
X073863Y011784D01*
X073863Y011863D01*
X073863Y011899D01*
X073903Y011899D01*
X074115Y011687D01*
X074115Y011404D01*
X074179Y011339D01*
X074664Y011339D01*
X074729Y011404D01*
X074729Y011928D01*
X074695Y011961D01*
X074729Y011994D01*
X074729Y012480D01*
X074784Y012480D01*
X074784Y011994D01*
X074817Y011961D01*
X074784Y011928D01*
X074784Y011404D01*
X074849Y011339D01*
X075333Y011339D01*
X075398Y011404D01*
X075398Y011506D01*
X075473Y011506D01*
X075473Y011463D01*
X075538Y011398D01*
X075944Y011398D01*
X076008Y011463D01*
X076008Y011869D01*
X075944Y011933D01*
X075538Y011933D01*
X075473Y011869D01*
X075473Y011826D01*
X075398Y011826D01*
X075398Y011928D01*
X075365Y011961D01*
X075398Y011994D01*
X075398Y012096D01*
X075473Y012096D01*
X075473Y012053D01*
X075538Y011989D01*
X075944Y011989D01*
X076008Y012053D01*
X076008Y012459D01*
X075987Y012480D01*
X076064Y012480D01*
X076074Y012470D01*
X076064Y012459D01*
X076064Y012053D01*
X076128Y011989D01*
X076161Y011989D01*
X076161Y011933D01*
X076128Y011933D01*
X076064Y011869D01*
X076064Y011463D01*
X076128Y011398D01*
X076534Y011398D01*
X076599Y011463D01*
X076599Y011869D01*
X076534Y011933D01*
X076501Y011933D01*
X076501Y011989D01*
X076534Y011989D01*
X076599Y012053D01*
X076599Y012459D01*
X076534Y012524D01*
X076501Y012524D01*
X076304Y012720D01*
X076205Y012820D01*
X074865Y012820D01*
X074867Y012827D01*
X074867Y012995D01*
X074549Y012995D01*
X074549Y013092D01*
X074867Y013092D01*
X074867Y013260D01*
X074859Y013290D01*
X074867Y013319D01*
X074867Y013487D01*
X074549Y013487D01*
X074549Y013092D01*
X074452Y013092D01*
X074452Y013189D01*
X074452Y013487D01*
X074549Y013487D01*
X074549Y013584D01*
X074867Y013584D01*
X074867Y013752D01*
X074857Y013791D01*
X074837Y013825D01*
X074809Y013853D01*
X074775Y013872D01*
X074737Y013883D01*
X074549Y013883D01*
X074549Y013584D01*
X074452Y013584D01*
X074452Y013883D01*
X074264Y013883D01*
X074226Y013872D01*
X074192Y013853D01*
X074164Y013825D01*
X074145Y013791D01*
X074093Y013843D01*
X073980Y013843D01*
X073980Y015137D01*
X073929Y015188D01*
X073963Y015207D01*
X073991Y015235D01*
X074010Y015269D01*
X074020Y015307D01*
X074020Y015495D01*
X073722Y015495D01*
X073722Y015592D01*
X074020Y015592D01*
X074020Y015780D01*
X074010Y015818D01*
X073991Y015852D01*
X073963Y015880D01*
X073928Y015900D01*
X073890Y015910D01*
X073722Y015910D01*
X073722Y015592D01*
X073625Y015592D01*
X073625Y015495D01*
X073327Y015495D01*
X073327Y015307D01*
X073337Y015269D01*
X073357Y015235D01*
X073385Y015207D01*
X073418Y015188D01*
X073367Y015137D01*
X073367Y013947D01*
X073312Y013893D01*
X072996Y013893D01*
X072996Y015137D01*
X072945Y015188D01*
X072978Y015207D01*
X073006Y015235D01*
X073026Y015269D01*
X073036Y015307D01*
X073036Y015495D01*
X072738Y015495D01*
X072738Y015592D01*
X073036Y015592D01*
X073036Y015780D01*
X073026Y015818D01*
X073006Y015852D01*
X072978Y015880D01*
X072944Y015900D01*
X072906Y015910D01*
X072738Y015910D01*
X072738Y015592D01*
X072641Y015592D01*
X072641Y015495D01*
X072343Y015495D01*
X072343Y015307D01*
X072353Y015269D01*
X072372Y015235D01*
X072400Y015207D01*
X072434Y015188D01*
X072383Y015137D01*
X072383Y013947D01*
X072259Y013824D01*
X072259Y013897D01*
X072181Y013975D01*
X072209Y014002D01*
X072209Y015038D01*
X072144Y015103D01*
X071644Y015103D01*
X071583Y015164D01*
X071607Y015157D01*
X071794Y015157D01*
X071794Y015456D01*
X071891Y015456D01*
X071891Y015157D01*
X072079Y015157D01*
X072117Y015168D01*
X072152Y015187D01*
X072179Y015215D01*
X072199Y015250D01*
X072209Y015288D01*
X072209Y015456D01*
X071891Y015456D01*
X071891Y015553D01*
X071794Y015553D01*
X071794Y015851D01*
X071607Y015851D01*
X071568Y015841D01*
X071534Y015821D01*
X071506Y015793D01*
X071487Y015760D01*
X071436Y015811D01*
X071524Y015811D01*
X071436Y015811D02*
X070912Y015811D01*
X070869Y015768D01*
X070825Y015811D01*
X070301Y015811D01*
X070213Y015811D01*
X070203Y015821D02*
X070169Y015841D01*
X070130Y015851D01*
X069943Y015851D01*
X069943Y015553D01*
X069846Y015553D01*
X069846Y015851D01*
X069658Y015851D01*
X069620Y015841D01*
X069585Y015821D01*
X069558Y015793D01*
X069538Y015759D01*
X069528Y015721D01*
X069528Y015553D01*
X069846Y015553D01*
X069846Y015456D01*
X069943Y015456D01*
X069943Y015157D01*
X070130Y015157D01*
X070169Y015168D01*
X070203Y015187D01*
X070231Y015215D01*
X070250Y015249D01*
X070294Y015205D01*
X070191Y015103D01*
X069691Y015103D01*
X069627Y015038D01*
X069627Y014002D01*
X069638Y013991D01*
X068096Y013991D01*
X067702Y013597D01*
X067608Y013504D01*
X067608Y012716D01*
X067407Y012515D01*
X065818Y012515D01*
X065864Y012534D01*
X065978Y012648D01*
X066040Y012797D01*
X066040Y012958D01*
X065978Y013108D01*
X065864Y013222D01*
X065714Y013284D01*
X065553Y013284D01*
X065404Y013222D01*
X065290Y013108D01*
X065228Y012958D01*
X065228Y012797D01*
X065290Y012648D01*
X065404Y012534D01*
X065449Y012515D01*
X060718Y012515D01*
X060718Y012648D01*
X060581Y012785D01*
X060388Y012785D01*
X060252Y012648D01*
X060252Y012455D01*
X060388Y012319D01*
X060393Y012319D01*
X060394Y012318D01*
X060354Y012318D01*
X059464Y013208D01*
X059370Y013302D01*
X059138Y013302D01*
X059138Y013522D01*
X059124Y013536D01*
X061174Y013536D01*
X061567Y013930D01*
X061567Y019835D01*
X062205Y020472D01*
X077315Y020472D01*
X077501Y020460D01*
X077861Y020364D01*
X078114Y020218D01*
X078486Y019846D01*
X078632Y019593D01*
X078728Y019234D01*
X078740Y019048D01*
X078740Y002512D01*
X078728Y002326D01*
X078632Y001967D01*
X078632Y001967D01*
X078486Y001714D01*
X078114Y001342D01*
X077861Y001196D01*
X077501Y001100D01*
X077315Y001087D01*
X074092Y001087D01*
X074099Y001115D01*
X074099Y001576D01*
X073606Y001576D01*
X073606Y001676D01*
X074099Y001676D01*
X074099Y002138D01*
X074089Y002176D01*
X074069Y002211D01*
X074041Y002239D01*
X074007Y002258D01*
X073969Y002269D01*
X073606Y002269D01*
X073606Y001676D01*
X073506Y001676D01*
X073506Y002269D01*
X073142Y002269D01*
X073104Y002258D01*
X073070Y002239D01*
X073042Y002211D01*
X073022Y002176D01*
X073012Y002138D01*
X073012Y001676D01*
X073506Y001676D01*
X073506Y001576D01*
X073012Y001576D01*
X073012Y001115D01*
X073019Y001087D01*
X070588Y001087D01*
X070595Y001115D01*
X070595Y001576D01*
X070102Y001576D01*
X070102Y001676D01*
X070595Y001676D01*
X070595Y002138D01*
X070585Y002176D01*
X070565Y002211D01*
X070537Y002239D01*
X070503Y002258D01*
X070465Y002269D01*
X070102Y002269D01*
X070102Y001676D01*
X070002Y001676D01*
X070002Y001576D01*
X069508Y001576D01*
X069508Y001115D01*
X069515Y001087D01*
X019638Y001087D01*
X019638Y002090D01*
X019785Y002090D01*
X019785Y002840D01*
X019885Y002840D01*
X019885Y002090D01*
X020055Y002090D01*
X020093Y002100D01*
X020127Y002120D01*
X020155Y002148D01*
X020175Y002182D01*
X020185Y002220D01*
X020185Y002840D01*
X019885Y002840D01*
X019885Y002940D01*
X020185Y002940D01*
X020185Y003560D01*
X020175Y003598D01*
X020155Y003632D01*
X020127Y003660D01*
X020093Y003680D01*
X020055Y003690D01*
X019885Y003690D01*
X019885Y002940D01*
X019785Y002940D01*
X019785Y003690D01*
X019638Y003690D01*
X019638Y004090D01*
X019785Y004090D01*
X019785Y004840D01*
X019885Y004840D01*
X019885Y004090D01*
X020055Y004090D01*
X020093Y004100D01*
X020127Y004120D01*
X020155Y004148D01*
X020175Y004182D01*
X020185Y004220D01*
X020185Y004840D01*
X019885Y004840D01*
X019885Y004940D01*
X020185Y004940D01*
X020185Y005560D01*
X020175Y005598D01*
X020155Y005632D01*
X020127Y005660D01*
X020093Y005680D01*
X020055Y005690D01*
X019885Y005690D01*
X019885Y004940D01*
X019785Y004940D01*
X019785Y005690D01*
X019638Y005690D01*
X019638Y006449D01*
X019441Y006646D01*
X016599Y006646D01*
X016599Y006967D01*
X016534Y007032D01*
X016328Y007032D01*
X016328Y007136D01*
X016191Y007273D01*
X015998Y007273D01*
X015925Y007200D01*
X015358Y007200D01*
X015358Y007302D01*
X015294Y007366D01*
X014809Y007366D01*
X014745Y007302D01*
X014745Y006778D01*
X014809Y006713D01*
X015294Y006713D01*
X015358Y006778D01*
X015358Y006880D01*
X015591Y006880D01*
X015591Y006646D01*
X011567Y006646D01*
X010780Y007433D01*
X008811Y007433D01*
X008418Y007040D01*
X008418Y005071D01*
X009205Y004284D01*
X010998Y004284D01*
X010985Y004270D01*
X010985Y004053D01*
X010345Y004053D01*
X010278Y004120D01*
X010093Y004197D01*
X009892Y004197D01*
X009707Y004120D01*
X009566Y003979D01*
X009489Y003793D01*
X009489Y003593D01*
X009566Y003408D01*
X009707Y003266D01*
X009892Y003190D01*
X010093Y003190D01*
X010278Y003266D01*
X010345Y003333D01*
X010985Y003333D01*
X010985Y003116D01*
X011049Y003052D01*
X011770Y003052D01*
X011835Y003116D01*
X011835Y004270D01*
X011821Y004284D01*
X012058Y004284D01*
X012057Y004283D01*
X012047Y004245D01*
X012047Y003743D01*
X012462Y003743D01*
X012462Y003643D01*
X012562Y003643D01*
X012562Y003012D01*
X012847Y003012D01*
X012885Y003022D01*
X012919Y003042D01*
X012947Y003070D01*
X012967Y003104D01*
X012977Y003142D01*
X012977Y003643D01*
X012562Y003643D01*
X012562Y003743D01*
X012977Y003743D01*
X012977Y004245D01*
X012967Y004283D01*
X012966Y004284D01*
X017276Y004284D01*
X018063Y003496D01*
X018063Y001087D01*
X001725Y001087D01*
X001539Y001100D01*
X001180Y001196D01*
X000927Y001342D01*
X000554Y001714D01*
X000408Y001967D01*
X000312Y002326D01*
X000300Y002512D01*
X000300Y019048D01*
X000312Y019234D01*
X000408Y019593D01*
X000554Y019846D01*
X000927Y020218D01*
X001180Y020364D01*
X001539Y020460D01*
X001725Y020472D01*
X012111Y020472D01*
X012748Y019835D01*
X012748Y013930D01*
X013142Y013536D01*
X047660Y013536D01*
X047628Y013504D01*
X045655Y011530D01*
X043173Y011530D01*
X043173Y011613D01*
X043109Y011677D01*
X041845Y011677D01*
X041845Y011851D01*
X043109Y011851D01*
X043173Y011915D01*
X043173Y012400D01*
X043109Y012465D01*
X041845Y012465D01*
X041845Y012638D01*
X043109Y012638D01*
X043173Y012703D01*
X043173Y013188D01*
X043109Y013252D01*
X041837Y013252D01*
X041772Y013188D01*
X041772Y013105D01*
X041718Y013105D01*
X041624Y013012D01*
X041624Y013012D01*
X041525Y012913D01*
X041525Y011107D01*
X041619Y011014D01*
X041722Y010910D01*
X041790Y010843D01*
X041772Y010825D01*
X041772Y010341D01*
X041837Y010276D01*
X043109Y010276D01*
X043173Y010341D01*
X043173Y010817D01*
X043228Y010817D01*
X043322Y010910D01*
X043425Y011014D01*
X045886Y011014D01*
X045979Y011107D01*
X045979Y011107D01*
X046476Y011604D01*
X047678Y011604D01*
X047678Y011128D01*
X047742Y011064D01*
X049014Y011064D01*
X049079Y011128D01*
X049079Y011604D01*
X049330Y011604D01*
X049424Y011698D01*
X049459Y011732D01*
X049561Y011630D01*
X049754Y011630D01*
X049891Y011766D01*
X049891Y011959D01*
X049852Y011998D01*
X050871Y011998D01*
X051073Y011796D01*
X051073Y011166D01*
X050905Y011334D01*
X050118Y011334D01*
X050113Y011338D01*
X050019Y011432D01*
X049592Y011432D01*
X049395Y011235D01*
X049301Y011141D01*
X049301Y009956D01*
X049079Y009956D01*
X049079Y010038D01*
X049014Y010103D01*
X047742Y010103D01*
X047678Y010038D01*
X047678Y009553D01*
X047742Y009489D01*
X049014Y009489D01*
X049079Y009553D01*
X049079Y009636D01*
X049509Y009636D01*
X049509Y009534D01*
X049573Y009469D01*
X049990Y009469D01*
X049990Y009335D01*
X049573Y009335D01*
X049509Y009270D01*
X049509Y009168D01*
X049079Y009168D01*
X049079Y009251D01*
X049014Y009315D01*
X047742Y009315D01*
X047678Y009251D01*
X047678Y008766D01*
X047742Y008701D01*
X049014Y008701D01*
X049079Y008766D01*
X049079Y008848D01*
X049509Y008848D01*
X049509Y008746D01*
X049573Y008682D01*
X050058Y008682D01*
X050122Y008746D01*
X050122Y008951D01*
X050178Y009007D01*
X050178Y008746D01*
X050242Y008682D01*
X050727Y008682D01*
X050777Y008732D01*
X050777Y008554D01*
X050774Y008557D01*
X050739Y008577D01*
X050701Y008587D01*
X050533Y008587D01*
X050533Y008269D01*
X050436Y008269D01*
X050138Y008269D01*
X050138Y008457D01*
X050148Y008495D01*
X050168Y008530D01*
X050196Y008557D01*
X050230Y008577D01*
X050268Y008587D01*
X050436Y008587D01*
X050436Y008269D01*
X050436Y008325D02*
X050533Y008325D01*
X050533Y008423D02*
X050436Y008423D01*
X050436Y008522D02*
X050533Y008522D01*
X050777Y008620D02*
X012121Y008620D01*
X012121Y008522D02*
X041831Y008522D01*
X041837Y008528D02*
X041772Y008463D01*
X041772Y007978D01*
X041837Y007914D01*
X043109Y007914D01*
X043173Y007978D01*
X043173Y008463D01*
X043109Y008528D01*
X041837Y008528D01*
X041772Y008423D02*
X012182Y008423D01*
X012121Y008484D02*
X012121Y011338D01*
X012027Y011432D01*
X011437Y012023D01*
X010551Y012023D01*
X010448Y012126D01*
X010448Y012421D01*
X010354Y012515D01*
X010157Y012712D01*
X009764Y012712D01*
X009567Y012908D01*
X009075Y012908D01*
X008944Y013039D01*
X009002Y013097D01*
X009002Y014054D01*
X008938Y014118D01*
X008610Y014118D01*
X008546Y014054D01*
X008546Y013097D01*
X008610Y013032D01*
X008614Y013032D01*
X008614Y012916D01*
X008708Y012823D01*
X008848Y012682D01*
X008942Y012588D01*
X009434Y012588D01*
X009478Y012545D01*
X008339Y012545D01*
X008228Y012433D01*
X008084Y012290D01*
X008084Y012045D01*
X008046Y012007D01*
X008046Y011049D01*
X008084Y011011D01*
X008084Y010752D01*
X007978Y010752D01*
X007914Y010688D01*
X007914Y010163D01*
X007965Y010112D01*
X007932Y010093D01*
X007904Y010065D01*
X007884Y010031D01*
X007874Y009993D01*
X007874Y009805D01*
X008172Y009805D01*
X008172Y009708D01*
X007874Y009708D01*
X007874Y009520D01*
X007884Y009482D01*
X007904Y009448D01*
X007932Y009420D01*
X007966Y009400D01*
X008004Y009390D01*
X008172Y009390D01*
X008172Y009708D01*
X008269Y009708D01*
X008269Y009390D01*
X008437Y009390D01*
X008476Y009400D01*
X008510Y009420D01*
X008516Y009426D01*
X008522Y009420D01*
X008557Y009400D01*
X008595Y009390D01*
X008763Y009390D01*
X008763Y009708D01*
X008269Y009708D01*
X008269Y009805D01*
X008568Y009805D01*
X008763Y009805D01*
X008763Y009708D01*
X008860Y009708D01*
X008860Y009805D01*
X009158Y009805D01*
X009158Y009993D01*
X009148Y010031D01*
X009128Y010065D01*
X009100Y010093D01*
X009067Y010112D01*
X009118Y010163D01*
X009118Y010688D01*
X009054Y010752D01*
X008964Y010752D01*
X008964Y011011D01*
X009002Y011049D01*
X009002Y011377D01*
X009115Y011377D01*
X009115Y010813D01*
X009179Y010749D01*
X009232Y010749D01*
X009232Y010386D01*
X009331Y010286D01*
X009292Y010191D01*
X009292Y009991D01*
X009369Y009806D01*
X009510Y009664D01*
X009695Y009587D01*
X009896Y009587D01*
X010081Y009664D01*
X010223Y009806D01*
X010299Y009991D01*
X010299Y010191D01*
X010223Y010376D01*
X010081Y010518D01*
X009896Y010595D01*
X009695Y010595D01*
X009612Y010560D01*
X009612Y010749D01*
X009664Y010749D01*
X009729Y010813D01*
X009729Y011377D01*
X009863Y011377D01*
X009863Y010813D01*
X009927Y010749D01*
X010412Y010749D01*
X010477Y010813D01*
X010477Y011377D01*
X011193Y011377D01*
X011476Y011095D01*
X011476Y008241D01*
X011587Y008129D01*
X012276Y007440D01*
X019264Y007440D01*
X020236Y006469D01*
X020236Y002652D01*
X020193Y002609D01*
X020193Y002416D01*
X020329Y002279D01*
X020522Y002279D01*
X020525Y002282D01*
X020525Y002195D01*
X020589Y002130D01*
X021081Y002130D01*
X021145Y002195D01*
X021145Y003586D01*
X021081Y003650D01*
X020616Y003650D01*
X020616Y004090D01*
X020785Y004090D01*
X020785Y004840D01*
X020885Y004840D01*
X020885Y004090D01*
X021055Y004090D01*
X021093Y004100D01*
X021127Y004120D01*
X021155Y004148D01*
X021175Y004182D01*
X021185Y004220D01*
X021185Y004840D01*
X020885Y004840D01*
X020885Y004940D01*
X021185Y004940D01*
X021185Y005560D01*
X021175Y005598D01*
X021155Y005632D01*
X021127Y005660D01*
X021093Y005680D01*
X021055Y005690D01*
X020885Y005690D01*
X020885Y004940D01*
X020785Y004940D01*
X020785Y005690D01*
X020616Y005690D01*
X020616Y006623D01*
X020783Y006456D01*
X020783Y006353D01*
X020920Y006216D01*
X021113Y006216D01*
X021249Y006353D01*
X021249Y006546D01*
X021113Y006682D01*
X021009Y006682D01*
X019606Y008086D01*
X012519Y008086D01*
X012121Y008484D01*
X011961Y008418D02*
X012453Y007926D01*
X019540Y007926D01*
X021016Y006449D01*
X020783Y006453D02*
X020616Y006453D01*
X020616Y006355D02*
X020783Y006355D01*
X020879Y006256D02*
X020616Y006256D01*
X020616Y006158D02*
X060558Y006158D01*
X060656Y006256D02*
X021153Y006256D01*
X021249Y006355D02*
X041125Y006355D01*
X041047Y006453D02*
X021249Y006453D01*
X021243Y006552D02*
X041043Y006552D01*
X041043Y006650D02*
X021144Y006650D01*
X020943Y006749D02*
X041342Y006749D01*
X041439Y006749D02*
X043150Y006749D01*
X043150Y006847D02*
X041737Y006847D01*
X041736Y006946D02*
X043150Y006946D01*
X043150Y007044D02*
X041674Y007044D01*
X041697Y007143D02*
X041820Y007143D01*
X041772Y007241D02*
X041697Y007241D01*
X041449Y007433D02*
X041292Y007433D01*
X041083Y007438D02*
X020253Y007438D01*
X020352Y007340D02*
X041083Y007340D01*
X041083Y007241D02*
X020450Y007241D01*
X020549Y007143D02*
X041083Y007143D01*
X041106Y007044D02*
X020647Y007044D01*
X020746Y006946D02*
X041045Y006946D01*
X041043Y006847D02*
X020844Y006847D01*
X020687Y006552D02*
X020616Y006552D01*
X020236Y006453D02*
X019634Y006453D01*
X019638Y006355D02*
X020236Y006355D01*
X020236Y006256D02*
X019638Y006256D01*
X019638Y006158D02*
X020236Y006158D01*
X020236Y006059D02*
X019638Y006059D01*
X019638Y005961D02*
X020236Y005961D01*
X020236Y005862D02*
X019638Y005862D01*
X019638Y005764D02*
X020236Y005764D01*
X020236Y005665D02*
X020118Y005665D01*
X020183Y005567D02*
X020236Y005567D01*
X020236Y005468D02*
X020185Y005468D01*
X020185Y005370D02*
X020236Y005370D01*
X020236Y005271D02*
X020185Y005271D01*
X020185Y005173D02*
X020236Y005173D01*
X020236Y005074D02*
X020185Y005074D01*
X020185Y004976D02*
X020236Y004976D01*
X020236Y004877D02*
X019885Y004877D01*
X019885Y004779D02*
X019785Y004779D01*
X019785Y004680D02*
X019885Y004680D01*
X019885Y004582D02*
X019785Y004582D01*
X019785Y004483D02*
X019885Y004483D01*
X019885Y004385D02*
X019785Y004385D01*
X019785Y004286D02*
X019885Y004286D01*
X019885Y004188D02*
X019785Y004188D01*
X019638Y004089D02*
X020236Y004089D01*
X020236Y003991D02*
X019638Y003991D01*
X019638Y003892D02*
X020236Y003892D01*
X020236Y003794D02*
X019638Y003794D01*
X019638Y003695D02*
X020236Y003695D01*
X020236Y003597D02*
X020175Y003597D01*
X020185Y003498D02*
X020236Y003498D01*
X020236Y003400D02*
X020185Y003400D01*
X020185Y003301D02*
X020236Y003301D01*
X020236Y003203D02*
X020185Y003203D01*
X020185Y003104D02*
X020236Y003104D01*
X020236Y003006D02*
X020185Y003006D01*
X020236Y002907D02*
X019885Y002907D01*
X019885Y002809D02*
X019785Y002809D01*
X019785Y002710D02*
X019885Y002710D01*
X019885Y002612D02*
X019785Y002612D01*
X019785Y002513D02*
X019885Y002513D01*
X019885Y002415D02*
X019785Y002415D01*
X019785Y002316D02*
X019885Y002316D01*
X019885Y002218D02*
X019785Y002218D01*
X019785Y002119D02*
X019885Y002119D01*
X020126Y002119D02*
X059914Y002119D01*
X059913Y002120D02*
X059947Y002100D01*
X059985Y002090D01*
X060155Y002090D01*
X060155Y002840D01*
X060255Y002840D01*
X060255Y002090D01*
X060425Y002090D01*
X060463Y002100D01*
X060497Y002120D01*
X060525Y002148D01*
X060545Y002182D01*
X060555Y002220D01*
X060555Y002840D01*
X060255Y002840D01*
X060255Y002940D01*
X060555Y002940D01*
X060555Y003560D01*
X060545Y003598D01*
X060525Y003632D01*
X060497Y003660D01*
X060463Y003680D01*
X060425Y003690D01*
X060255Y003690D01*
X060255Y002940D01*
X060155Y002940D01*
X060155Y002840D01*
X059855Y002840D01*
X059855Y002220D01*
X059865Y002182D01*
X059885Y002148D01*
X059913Y002120D01*
X059856Y002218D02*
X059515Y002218D01*
X059515Y002316D02*
X059855Y002316D01*
X059855Y002415D02*
X059515Y002415D01*
X059515Y002513D02*
X059855Y002513D01*
X059855Y002612D02*
X059515Y002612D01*
X059515Y002710D02*
X059855Y002710D01*
X059855Y002809D02*
X059515Y002809D01*
X059515Y002907D02*
X060155Y002907D01*
X060155Y002940D02*
X059855Y002940D01*
X059855Y003560D01*
X059865Y003598D01*
X059885Y003632D01*
X059913Y003660D01*
X059947Y003680D01*
X059985Y003690D01*
X060155Y003690D01*
X060155Y002940D01*
X060155Y003006D02*
X060255Y003006D01*
X060255Y003104D02*
X060155Y003104D01*
X060155Y003203D02*
X060255Y003203D01*
X060255Y003301D02*
X060155Y003301D01*
X060155Y003400D02*
X060255Y003400D01*
X060255Y003498D02*
X060155Y003498D01*
X060155Y003597D02*
X060255Y003597D01*
X060545Y003597D02*
X065049Y003597D01*
X065049Y003695D02*
X059365Y003695D01*
X059434Y003794D02*
X065049Y003794D01*
X065049Y003892D02*
X060713Y003892D01*
X060812Y003991D02*
X065049Y003991D01*
X065049Y004089D02*
X060841Y004089D01*
X060841Y004188D02*
X065049Y004188D01*
X065049Y004286D02*
X060841Y004286D01*
X060841Y004385D02*
X065049Y004385D01*
X065049Y004483D02*
X060841Y004483D01*
X060841Y004582D02*
X065049Y004582D01*
X065049Y004680D02*
X060841Y004680D01*
X060841Y004779D02*
X065049Y004779D01*
X065049Y004877D02*
X060841Y004877D01*
X060841Y004976D02*
X065049Y004976D01*
X065049Y005074D02*
X060841Y005074D01*
X060911Y005173D02*
X065049Y005173D01*
X065049Y005271D02*
X061009Y005271D01*
X061108Y005370D02*
X065049Y005370D01*
X065049Y005468D02*
X061206Y005468D01*
X061305Y005567D02*
X061726Y005567D01*
X061630Y005665D02*
X061403Y005665D01*
X061502Y005764D02*
X061630Y005764D01*
X061635Y005862D02*
X061600Y005862D01*
X061699Y005961D02*
X061703Y005961D01*
X061863Y006056D02*
X061863Y005760D01*
X062096Y005764D02*
X065282Y005764D01*
X065380Y005862D02*
X062090Y005862D01*
X062023Y005961D02*
X065479Y005961D01*
X065577Y006059D02*
X062093Y006059D01*
X062191Y006158D02*
X065640Y006158D01*
X065640Y006256D02*
X062290Y006256D01*
X062388Y006355D02*
X065640Y006355D01*
X065640Y006453D02*
X062487Y006453D01*
X062585Y006552D02*
X065640Y006552D01*
X065640Y006650D02*
X062684Y006650D01*
X062782Y006749D02*
X065640Y006749D01*
X065640Y006847D02*
X062881Y006847D01*
X062979Y006946D02*
X065640Y006946D01*
X065640Y007044D02*
X063078Y007044D01*
X063176Y007143D02*
X065640Y007143D01*
X065640Y007241D02*
X063275Y007241D01*
X063373Y007340D02*
X065640Y007340D01*
X065640Y007438D02*
X063472Y007438D01*
X063570Y007537D02*
X065640Y007537D01*
X065640Y007635D02*
X063669Y007635D01*
X063767Y007734D02*
X065640Y007734D01*
X065677Y007832D02*
X063866Y007832D01*
X063964Y007931D02*
X065776Y007931D01*
X065874Y008029D02*
X064063Y008029D01*
X064161Y008128D02*
X065973Y008128D01*
X066071Y008226D02*
X064260Y008226D01*
X064358Y008325D02*
X066170Y008325D01*
X066268Y008423D02*
X064457Y008423D01*
X064555Y008522D02*
X066329Y008522D01*
X066329Y008620D02*
X064654Y008620D01*
X064752Y008719D02*
X066329Y008719D01*
X066367Y008817D02*
X064851Y008817D01*
X064949Y008916D02*
X066465Y008916D01*
X066536Y009014D02*
X065048Y009014D01*
X065146Y009113D02*
X066575Y009113D01*
X066587Y008811D02*
X066843Y008811D01*
X066587Y008811D02*
X066489Y008713D01*
X066489Y008418D01*
X065800Y007729D01*
X065800Y006056D01*
X065209Y005465D01*
X065209Y002414D01*
X065426Y002197D01*
X066134Y002197D01*
X066795Y002218D02*
X069545Y002218D01*
X069538Y002211D02*
X069518Y002176D01*
X069508Y002138D01*
X069508Y001676D01*
X070002Y001676D01*
X070002Y002269D01*
X069638Y002269D01*
X069600Y002258D01*
X069566Y002239D01*
X069538Y002211D01*
X069508Y002119D02*
X066795Y002119D01*
X066795Y002021D02*
X069508Y002021D01*
X069508Y001922D02*
X067747Y001922D01*
X067725Y001945D02*
X067561Y002013D01*
X067384Y002013D01*
X067221Y001945D01*
X067095Y001820D01*
X067028Y001656D01*
X067028Y001479D01*
X067095Y001315D01*
X067221Y001190D01*
X067384Y001122D01*
X067561Y001122D01*
X067725Y001190D01*
X067850Y001315D01*
X067918Y001479D01*
X067918Y001656D01*
X067850Y001820D01*
X067725Y001945D01*
X067846Y001824D02*
X069508Y001824D01*
X069508Y001725D02*
X067889Y001725D01*
X067918Y001627D02*
X070002Y001627D01*
X070002Y001725D02*
X070102Y001725D01*
X070102Y001627D02*
X073506Y001627D01*
X073506Y001725D02*
X073606Y001725D01*
X073606Y001627D02*
X078399Y001627D01*
X078492Y001725D02*
X074099Y001725D01*
X074099Y001824D02*
X076939Y001824D01*
X076874Y001851D02*
X077160Y001732D01*
X077470Y001732D01*
X077757Y001851D01*
X077977Y002070D01*
X078095Y002357D01*
X078095Y002667D01*
X077977Y002954D01*
X077757Y003173D01*
X077470Y003292D01*
X077160Y003292D01*
X076874Y003173D01*
X076654Y002954D01*
X076535Y002667D01*
X076535Y002357D01*
X076654Y002070D01*
X076874Y001851D01*
X076802Y001922D02*
X074099Y001922D01*
X074099Y002021D02*
X076704Y002021D01*
X076634Y002119D02*
X074099Y002119D01*
X074062Y002218D02*
X076593Y002218D01*
X076552Y002316D02*
X066795Y002316D01*
X066795Y002415D02*
X076535Y002415D01*
X076535Y002513D02*
X072815Y002513D01*
X072855Y002530D02*
X072947Y002622D01*
X072997Y002742D01*
X072997Y002873D01*
X072947Y002993D01*
X072855Y003085D01*
X072735Y003135D01*
X072605Y003135D01*
X072484Y003085D01*
X072392Y002993D01*
X072343Y002873D01*
X072343Y002742D01*
X072392Y002622D01*
X072484Y002530D01*
X072605Y002480D01*
X072735Y002480D01*
X072855Y002530D01*
X072937Y002612D02*
X076535Y002612D01*
X076553Y002710D02*
X072984Y002710D01*
X072997Y002809D02*
X076594Y002809D01*
X076635Y002907D02*
X072982Y002907D01*
X072934Y003006D02*
X076706Y003006D01*
X076805Y003104D02*
X072808Y003104D01*
X072652Y003286D02*
X072672Y003320D01*
X072682Y003359D01*
X072682Y003989D01*
X072433Y003989D01*
X072433Y003989D01*
X072433Y003228D01*
X072552Y003228D01*
X072590Y003239D01*
X072624Y003258D01*
X072652Y003286D01*
X072661Y003301D02*
X073012Y003301D01*
X073012Y003280D02*
X073022Y003242D01*
X073042Y003208D01*
X073070Y003180D01*
X073104Y003160D01*
X073142Y003150D01*
X073506Y003150D01*
X073506Y003899D01*
X073606Y003899D01*
X073606Y003999D01*
X074099Y003999D01*
X074099Y004619D01*
X074089Y004657D01*
X074069Y004691D01*
X074041Y004719D01*
X074007Y004739D01*
X073969Y004749D01*
X073606Y004749D01*
X073606Y003999D01*
X073506Y003999D01*
X073506Y004749D01*
X073142Y004749D01*
X073104Y004739D01*
X073070Y004719D01*
X073042Y004691D01*
X073022Y004657D01*
X073012Y004619D01*
X073012Y003999D01*
X073506Y003999D01*
X073506Y003899D01*
X073012Y003899D01*
X073012Y003280D01*
X073046Y003203D02*
X070561Y003203D01*
X070565Y003208D02*
X070585Y003242D01*
X070595Y003280D01*
X070595Y003899D01*
X070102Y003899D01*
X070102Y003999D01*
X070595Y003999D01*
X070595Y004619D01*
X070585Y004657D01*
X070565Y004691D01*
X070537Y004719D01*
X070503Y004739D01*
X070465Y004749D01*
X070102Y004749D01*
X070102Y003999D01*
X070002Y003999D01*
X070002Y004749D01*
X069638Y004749D01*
X069600Y004739D01*
X069566Y004719D01*
X069538Y004691D01*
X069518Y004657D01*
X069508Y004619D01*
X069508Y003999D01*
X070002Y003999D01*
X070002Y003899D01*
X070102Y003899D01*
X070102Y003150D01*
X070465Y003150D01*
X070503Y003160D01*
X070537Y003180D01*
X070565Y003208D01*
X070595Y003301D02*
X070997Y003301D01*
X070965Y003400D02*
X070595Y003400D01*
X070595Y003498D02*
X070965Y003498D01*
X070965Y003597D02*
X070595Y003597D01*
X070595Y003695D02*
X070965Y003695D01*
X070965Y003794D02*
X070595Y003794D01*
X070595Y003892D02*
X070965Y003892D01*
X070965Y003991D02*
X070102Y003991D01*
X070102Y004089D02*
X070002Y004089D01*
X070002Y003991D02*
X067770Y003991D01*
X067725Y003946D02*
X067850Y004071D01*
X067918Y004235D01*
X067918Y004412D01*
X067850Y004575D01*
X067725Y004701D01*
X067561Y004769D01*
X067384Y004769D01*
X067221Y004701D01*
X067095Y004575D01*
X067028Y004412D01*
X067028Y004235D01*
X067095Y004071D01*
X067221Y003946D01*
X067384Y003878D01*
X067561Y003878D01*
X067725Y003946D01*
X067596Y003892D02*
X069508Y003892D01*
X069508Y003899D02*
X069508Y003280D01*
X069518Y003242D01*
X069538Y003208D01*
X069566Y003180D01*
X069600Y003160D01*
X069638Y003150D01*
X070002Y003150D01*
X070002Y003899D01*
X069508Y003899D01*
X069508Y003794D02*
X066777Y003794D01*
X066778Y003794D02*
X066743Y003813D01*
X066705Y003824D01*
X066184Y003824D01*
X066184Y003428D01*
X066835Y003428D01*
X066835Y003693D01*
X066825Y003732D01*
X066805Y003766D01*
X066778Y003794D01*
X066835Y003695D02*
X069508Y003695D01*
X069508Y003597D02*
X066835Y003597D01*
X066835Y003498D02*
X069508Y003498D01*
X069508Y003400D02*
X066184Y003400D01*
X066184Y003428D02*
X066184Y003328D01*
X066184Y002933D01*
X066705Y002933D01*
X066743Y002943D01*
X066778Y002963D01*
X066805Y002991D01*
X066825Y003025D01*
X066835Y003063D01*
X066835Y003328D01*
X066184Y003328D01*
X066084Y003328D01*
X066084Y002933D01*
X065563Y002933D01*
X065525Y002943D01*
X065491Y002963D01*
X065463Y002991D01*
X065443Y003025D01*
X065433Y003063D01*
X065433Y003328D01*
X066084Y003328D01*
X066084Y003428D01*
X065433Y003428D01*
X065433Y003693D01*
X065443Y003732D01*
X065463Y003766D01*
X065491Y003794D01*
X065525Y003813D01*
X065563Y003824D01*
X066084Y003824D01*
X066084Y003428D01*
X066184Y003428D01*
X066184Y003498D02*
X066084Y003498D01*
X066084Y003400D02*
X065369Y003400D01*
X065369Y003498D02*
X065433Y003498D01*
X065433Y003597D02*
X065369Y003597D01*
X065369Y003695D02*
X065434Y003695D01*
X065491Y003794D02*
X065369Y003794D01*
X065369Y003892D02*
X067349Y003892D01*
X067175Y003991D02*
X065369Y003991D01*
X065369Y004089D02*
X067088Y004089D01*
X067047Y004188D02*
X065369Y004188D01*
X065369Y004286D02*
X067028Y004286D01*
X067028Y004385D02*
X066914Y004385D01*
X067013Y004483D02*
X067057Y004483D01*
X067042Y004582D02*
X067102Y004582D01*
X067042Y004680D02*
X067200Y004680D01*
X067042Y004779D02*
X070984Y004779D01*
X070984Y004877D02*
X067042Y004877D01*
X067042Y004976D02*
X068180Y004976D01*
X068150Y005074D02*
X067112Y005074D01*
X067210Y005173D02*
X068150Y005173D01*
X068811Y005347D02*
X067158Y005347D01*
X066882Y005071D01*
X066882Y004579D01*
X066784Y004481D01*
X065504Y004481D01*
X065406Y004579D01*
X065406Y005367D01*
X065996Y005957D01*
X065996Y007630D01*
X066587Y008221D01*
X066843Y008221D01*
X067150Y008226D02*
X067205Y008226D01*
X067205Y008128D02*
X067150Y008128D01*
X067150Y008029D02*
X067205Y008029D01*
X067233Y007931D02*
X067122Y007931D01*
X067176Y007832D02*
X066425Y007832D01*
X066326Y007734D02*
X067176Y007734D01*
X067176Y007635D02*
X067091Y007635D01*
X067620Y007438D02*
X067924Y007438D01*
X067924Y007340D02*
X067612Y007340D01*
X067584Y007241D02*
X067952Y007241D01*
X067952Y007143D02*
X067091Y007143D01*
X067068Y007044D02*
X067406Y007044D01*
X067307Y006946D02*
X067129Y006946D01*
X067131Y006847D02*
X067209Y006847D01*
X067176Y006749D02*
X066832Y006749D01*
X066832Y006650D02*
X066735Y006650D01*
X066735Y006552D02*
X066832Y006552D01*
X066832Y006453D02*
X066735Y006453D01*
X066735Y006355D02*
X066832Y006355D01*
X067049Y006355D02*
X067176Y006355D01*
X067176Y006453D02*
X067127Y006453D01*
X067131Y006552D02*
X067176Y006552D01*
X067176Y006650D02*
X067131Y006650D01*
X067764Y006453D02*
X067772Y006453D01*
X067764Y006355D02*
X067772Y006355D01*
X067764Y006256D02*
X067772Y006256D01*
X067764Y006158D02*
X067772Y006158D01*
X067945Y006158D02*
X068184Y006158D01*
X067592Y006158D02*
X066482Y006158D01*
X066482Y006256D02*
X067176Y006256D01*
X066519Y006355D02*
X066482Y006355D01*
X066482Y006059D02*
X069448Y006059D01*
X069448Y005961D02*
X066482Y005961D01*
X066482Y005862D02*
X069448Y005862D01*
X069464Y005764D02*
X066482Y005764D01*
X066482Y005665D02*
X068150Y005665D01*
X068150Y005567D02*
X066482Y005567D01*
X066482Y005468D02*
X067053Y005468D01*
X066955Y005370D02*
X066482Y005370D01*
X066795Y005271D02*
X066856Y005271D01*
X065183Y005665D02*
X062096Y005665D01*
X061999Y005567D02*
X065085Y005567D01*
X067745Y004680D02*
X069532Y004680D01*
X069508Y004582D02*
X067844Y004582D01*
X067888Y004483D02*
X069508Y004483D01*
X069508Y004385D02*
X067918Y004385D01*
X067918Y004286D02*
X069508Y004286D01*
X069508Y004188D02*
X067899Y004188D01*
X067858Y004089D02*
X069508Y004089D01*
X070002Y004188D02*
X070102Y004188D01*
X070102Y004286D02*
X070002Y004286D01*
X070002Y004385D02*
X070102Y004385D01*
X070102Y004483D02*
X070002Y004483D01*
X070002Y004582D02*
X070102Y004582D01*
X070102Y004680D02*
X070002Y004680D01*
X070405Y004976D02*
X069442Y004976D01*
X069473Y005074D02*
X070375Y005074D01*
X070375Y005173D02*
X069473Y005173D01*
X069473Y005271D02*
X070375Y005271D01*
X070375Y005370D02*
X069473Y005370D01*
X069473Y005468D02*
X070375Y005468D01*
X070404Y005567D02*
X069473Y005567D01*
X069473Y005665D02*
X069563Y005665D01*
X070107Y005665D02*
X070375Y005665D01*
X071624Y005563D02*
X071658Y005597D01*
X071658Y006121D01*
X071651Y006127D01*
X071659Y006132D01*
X071687Y006160D01*
X071707Y006194D01*
X071717Y006233D01*
X071717Y006401D01*
X071399Y006401D01*
X071399Y006498D01*
X071302Y006498D01*
X071302Y006796D01*
X071302Y006991D01*
X071399Y006991D01*
X071399Y006498D01*
X071717Y006498D01*
X071717Y006666D01*
X071707Y006704D01*
X071687Y006738D01*
X071681Y006744D01*
X071687Y006751D01*
X071707Y006785D01*
X071717Y006823D01*
X071717Y006991D01*
X071399Y006991D01*
X071399Y007088D01*
X071302Y007088D01*
X071302Y007387D01*
X071140Y007387D01*
X071213Y007460D01*
X071218Y007460D01*
X071246Y007432D01*
X071792Y007432D01*
X071792Y007152D01*
X071856Y007087D01*
X072184Y007087D01*
X072207Y007111D01*
X072230Y007087D01*
X072317Y007087D01*
X072490Y006914D01*
X072403Y006914D01*
X072403Y006537D01*
X072385Y006537D01*
X072385Y006914D01*
X072256Y006914D01*
X072218Y006904D01*
X072184Y006884D01*
X072174Y006874D01*
X071856Y006874D01*
X071792Y006810D01*
X071792Y006246D01*
X071835Y006203D01*
X071772Y006140D01*
X071772Y005656D01*
X071837Y005591D01*
X072361Y005591D01*
X072394Y005624D01*
X072427Y005591D01*
X072691Y005591D01*
X072747Y005536D01*
X072427Y005536D01*
X072394Y005502D01*
X072361Y005536D01*
X071837Y005536D01*
X071772Y005471D01*
X071772Y005069D01*
X071412Y004709D01*
X071364Y004709D01*
X071364Y004942D01*
X071593Y004942D01*
X071658Y005006D01*
X071658Y005530D01*
X071624Y005563D01*
X071628Y005567D02*
X072715Y005567D01*
X072689Y005819D02*
X073280Y005229D01*
X073606Y005271D02*
X078740Y005271D01*
X078740Y005173D02*
X073606Y005173D01*
X073606Y005074D02*
X078740Y005074D01*
X078740Y004976D02*
X073596Y004976D01*
X073606Y004680D02*
X073506Y004680D01*
X073506Y004582D02*
X073606Y004582D01*
X073606Y004483D02*
X073506Y004483D01*
X073506Y004385D02*
X073606Y004385D01*
X073606Y004286D02*
X073506Y004286D01*
X073506Y004188D02*
X073606Y004188D01*
X073606Y004089D02*
X073506Y004089D01*
X073506Y003991D02*
X072682Y003991D01*
X072682Y004089D02*
X073012Y004089D01*
X073012Y004188D02*
X072682Y004188D01*
X072682Y004286D02*
X073012Y004286D01*
X073012Y004385D02*
X072682Y004385D01*
X072682Y004483D02*
X073012Y004483D01*
X073012Y004582D02*
X072682Y004582D01*
X072658Y004680D02*
X073036Y004680D01*
X072820Y004877D02*
X078740Y004877D01*
X078740Y004779D02*
X072722Y004779D01*
X072756Y004813D02*
X072756Y004813D01*
X072689Y004973D02*
X072689Y005229D01*
X072099Y005229D02*
X072099Y005170D01*
X071489Y004559D01*
X071489Y003989D01*
X071804Y003989D02*
X071804Y004579D01*
X072099Y004874D01*
X072591Y004874D01*
X072689Y004973D01*
X071772Y005074D02*
X071658Y005074D01*
X071658Y005173D02*
X071772Y005173D01*
X071772Y005271D02*
X071658Y005271D01*
X071658Y005370D02*
X071772Y005370D01*
X071772Y005468D02*
X071658Y005468D01*
X071658Y005665D02*
X071772Y005665D01*
X071772Y005764D02*
X071658Y005764D01*
X071658Y005862D02*
X071772Y005862D01*
X071772Y005961D02*
X071658Y005961D01*
X071658Y006059D02*
X071772Y006059D01*
X071790Y006158D02*
X071685Y006158D01*
X071717Y006256D02*
X071792Y006256D01*
X071792Y006355D02*
X071717Y006355D01*
X071792Y006453D02*
X071399Y006453D01*
X071399Y006552D02*
X071302Y006552D01*
X071302Y006650D02*
X071399Y006650D01*
X071399Y006749D02*
X071302Y006749D01*
X071302Y006847D02*
X071399Y006847D01*
X071399Y006946D02*
X071302Y006946D01*
X071399Y007044D02*
X072360Y007044D01*
X072459Y006946D02*
X071717Y006946D01*
X071717Y006847D02*
X071830Y006847D01*
X071792Y006749D02*
X071685Y006749D01*
X071717Y006650D02*
X071792Y006650D01*
X071792Y006552D02*
X071717Y006552D01*
X072020Y006528D02*
X072020Y005977D01*
X072099Y005898D01*
X072689Y005898D02*
X072689Y005819D01*
X072689Y005898D02*
X072768Y005977D01*
X072768Y006528D01*
X072403Y006552D02*
X072385Y006552D01*
X072385Y006650D02*
X072403Y006650D01*
X072403Y006749D02*
X072385Y006749D01*
X072385Y006847D02*
X072403Y006847D01*
X072591Y007040D02*
X072394Y007237D01*
X072394Y007433D01*
X072020Y007433D02*
X072020Y008142D01*
X072099Y008221D01*
X072099Y009894D01*
X072296Y009894D02*
X072296Y008221D01*
X072768Y007748D01*
X072768Y007433D01*
X072996Y007438D02*
X073564Y007438D01*
X073564Y007340D02*
X072996Y007340D01*
X072996Y007241D02*
X073564Y007241D01*
X073564Y007143D02*
X073009Y007143D01*
X073108Y007044D02*
X073564Y007044D01*
X073564Y006946D02*
X073206Y006946D01*
X073305Y006847D02*
X077051Y006847D01*
X076952Y006946D02*
X076933Y006946D01*
X077288Y007178D02*
X076469Y007178D01*
X074028Y007178D01*
X074492Y007340D02*
X076005Y007340D01*
X076005Y007438D02*
X074492Y007438D01*
X074492Y006946D02*
X076005Y006946D01*
X077288Y007178D02*
X077315Y007205D01*
X078004Y007894D01*
X078004Y009500D01*
X077807Y009697D01*
X077807Y010386D01*
X077512Y010681D01*
X077119Y010681D01*
X076725Y010288D01*
X074363Y010288D01*
X073969Y010681D01*
X073969Y010780D01*
X074202Y010787D02*
X076998Y010787D01*
X076956Y010886D02*
X074192Y010886D01*
X074094Y010984D02*
X076889Y010984D01*
X076850Y011083D02*
X073823Y011083D01*
X073823Y011181D02*
X077267Y011181D01*
X077364Y011181D02*
X078740Y011181D01*
X078740Y011083D02*
X077780Y011083D01*
X077742Y010984D02*
X078740Y010984D01*
X078740Y010886D02*
X077675Y010886D01*
X077633Y010787D02*
X078740Y010787D01*
X078740Y010689D02*
X077731Y010689D01*
X077830Y010590D02*
X078740Y010590D01*
X078740Y010492D02*
X077928Y010492D01*
X077967Y010393D02*
X078740Y010393D01*
X078740Y010295D02*
X077967Y010295D01*
X077967Y010196D02*
X078740Y010196D01*
X078740Y010098D02*
X077967Y010098D01*
X077967Y009999D02*
X078740Y009999D01*
X078740Y009901D02*
X077967Y009901D01*
X077967Y009802D02*
X078740Y009802D01*
X078740Y009704D02*
X078027Y009704D01*
X078126Y009605D02*
X078740Y009605D01*
X078740Y009507D02*
X078164Y009507D01*
X078164Y009408D02*
X078740Y009408D01*
X078740Y009310D02*
X078164Y009310D01*
X078164Y009211D02*
X078740Y009211D01*
X078740Y009113D02*
X078164Y009113D01*
X078164Y009014D02*
X078740Y009014D01*
X078740Y008916D02*
X078164Y008916D01*
X078164Y008817D02*
X078740Y008817D01*
X078740Y008719D02*
X078164Y008719D01*
X078164Y008620D02*
X078740Y008620D01*
X078740Y008522D02*
X078164Y008522D01*
X078164Y008423D02*
X078740Y008423D01*
X078740Y008325D02*
X078164Y008325D01*
X078164Y008226D02*
X078740Y008226D01*
X078740Y008128D02*
X078164Y008128D01*
X078164Y008029D02*
X078740Y008029D01*
X078740Y007931D02*
X078164Y007931D01*
X078164Y007832D02*
X078740Y007832D01*
X078740Y007734D02*
X078070Y007734D01*
X077972Y007635D02*
X078740Y007635D01*
X078740Y007537D02*
X077873Y007537D01*
X077775Y007438D02*
X078740Y007438D01*
X078740Y007340D02*
X077736Y007340D01*
X077755Y007241D02*
X078740Y007241D01*
X078740Y007143D02*
X077755Y007143D01*
X077725Y007044D02*
X078740Y007044D01*
X078740Y006946D02*
X077678Y006946D01*
X077580Y006847D02*
X078740Y006847D01*
X078740Y006749D02*
X073403Y006749D01*
X073440Y006650D02*
X078740Y006650D01*
X078740Y006552D02*
X073440Y006552D01*
X073440Y006453D02*
X078740Y006453D01*
X078740Y006355D02*
X073440Y006355D01*
X073440Y006256D02*
X078740Y006256D01*
X078740Y006158D02*
X073589Y006158D01*
X073978Y006059D02*
X074078Y006059D01*
X074078Y006087D02*
X074078Y005771D01*
X074532Y005771D01*
X074532Y005957D01*
X074522Y005995D01*
X074502Y006030D01*
X074474Y006057D01*
X074440Y006077D01*
X074402Y006087D01*
X074078Y006087D01*
X074078Y005961D02*
X073978Y005961D01*
X073978Y005862D02*
X074078Y005862D01*
X074078Y005764D02*
X076419Y005764D01*
X076419Y005771D02*
X076419Y005671D01*
X075965Y005671D01*
X075965Y005485D01*
X075975Y005446D01*
X075995Y005412D01*
X076022Y005384D01*
X076057Y005365D01*
X076095Y005354D01*
X076419Y005354D01*
X076419Y005671D01*
X076519Y005671D01*
X076519Y005771D01*
X076419Y005771D01*
X076419Y006087D01*
X076095Y006087D01*
X076057Y006077D01*
X076022Y006057D01*
X075995Y006030D01*
X075975Y005995D01*
X075965Y005957D01*
X075965Y005771D01*
X076419Y005771D01*
X076419Y005862D02*
X076519Y005862D01*
X076519Y005771D02*
X076519Y006087D01*
X076843Y006087D01*
X076881Y006077D01*
X076915Y006057D01*
X076943Y006030D01*
X076963Y005995D01*
X076973Y005957D01*
X076973Y005771D01*
X076519Y005771D01*
X076519Y005764D02*
X078740Y005764D01*
X078740Y005862D02*
X076973Y005862D01*
X076972Y005961D02*
X078740Y005961D01*
X078740Y006059D02*
X076912Y006059D01*
X076519Y006059D02*
X076419Y006059D01*
X076419Y005961D02*
X076519Y005961D01*
X076519Y005671D02*
X076973Y005671D01*
X076973Y005485D01*
X076963Y005446D01*
X076943Y005412D01*
X076915Y005384D01*
X076881Y005365D01*
X076843Y005354D01*
X076519Y005354D01*
X076519Y005671D01*
X076519Y005665D02*
X076419Y005665D01*
X076419Y005567D02*
X076519Y005567D01*
X076519Y005468D02*
X076419Y005468D01*
X076419Y005370D02*
X076519Y005370D01*
X076890Y005370D02*
X078740Y005370D01*
X078740Y005468D02*
X076969Y005468D01*
X076973Y005567D02*
X078740Y005567D01*
X078740Y005665D02*
X076973Y005665D01*
X075965Y005665D02*
X074532Y005665D01*
X074532Y005671D02*
X074078Y005671D01*
X074078Y005354D01*
X074402Y005354D01*
X074440Y005365D01*
X074474Y005384D01*
X074502Y005412D01*
X074522Y005446D01*
X074532Y005485D01*
X074532Y005671D01*
X074532Y005567D02*
X075965Y005567D01*
X075969Y005468D02*
X074528Y005468D01*
X074449Y005370D02*
X076047Y005370D01*
X075965Y005862D02*
X074532Y005862D01*
X074531Y005961D02*
X075966Y005961D01*
X076026Y006059D02*
X074471Y006059D01*
X074078Y005665D02*
X073978Y005665D01*
X073978Y005567D02*
X074078Y005567D01*
X074078Y005468D02*
X073978Y005468D01*
X073978Y005370D02*
X074078Y005370D01*
X074075Y004680D02*
X078740Y004680D01*
X078740Y004582D02*
X074099Y004582D01*
X074099Y004483D02*
X078740Y004483D01*
X078740Y004385D02*
X074099Y004385D01*
X074099Y004286D02*
X078740Y004286D01*
X078740Y004188D02*
X074099Y004188D01*
X074099Y004089D02*
X078740Y004089D01*
X078740Y003991D02*
X073606Y003991D01*
X073606Y003899D02*
X074099Y003899D01*
X074099Y003280D01*
X074089Y003242D01*
X074069Y003208D01*
X074041Y003180D01*
X074007Y003160D01*
X073969Y003150D01*
X073606Y003150D01*
X073606Y003899D01*
X073606Y003892D02*
X073506Y003892D01*
X073506Y003794D02*
X073606Y003794D01*
X073606Y003695D02*
X073506Y003695D01*
X073506Y003597D02*
X073606Y003597D01*
X073606Y003498D02*
X073506Y003498D01*
X073506Y003400D02*
X073606Y003400D01*
X073606Y003301D02*
X073506Y003301D01*
X073506Y003203D02*
X073606Y003203D01*
X074065Y003203D02*
X076945Y003203D01*
X077686Y003203D02*
X078740Y003203D01*
X078740Y003301D02*
X074099Y003301D01*
X074099Y003400D02*
X078740Y003400D01*
X078740Y003498D02*
X074099Y003498D01*
X074099Y003597D02*
X078740Y003597D01*
X078740Y003695D02*
X074099Y003695D01*
X074099Y003794D02*
X078740Y003794D01*
X078740Y003892D02*
X074099Y003892D01*
X073012Y003892D02*
X072682Y003892D01*
X072682Y003794D02*
X073012Y003794D01*
X073012Y003695D02*
X072682Y003695D01*
X072682Y003597D02*
X073012Y003597D01*
X073012Y003498D02*
X072682Y003498D01*
X072682Y003400D02*
X073012Y003400D01*
X072433Y003400D02*
X072433Y003400D01*
X072433Y003498D02*
X072433Y003498D01*
X072433Y003597D02*
X072433Y003597D01*
X072433Y003695D02*
X072433Y003695D01*
X072433Y003794D02*
X072433Y003794D01*
X072433Y003892D02*
X072433Y003892D01*
X070965Y004089D02*
X070595Y004089D01*
X070595Y004188D02*
X070965Y004188D01*
X070965Y004286D02*
X070595Y004286D01*
X070595Y004385D02*
X070965Y004385D01*
X070965Y004483D02*
X070595Y004483D01*
X070595Y004582D02*
X070965Y004582D01*
X070984Y004680D02*
X070571Y004680D01*
X070958Y004976D02*
X070984Y004976D01*
X071364Y004877D02*
X071580Y004877D01*
X071628Y004976D02*
X071679Y004976D01*
X071482Y004779D02*
X071364Y004779D01*
X070102Y003892D02*
X070002Y003892D01*
X070002Y003794D02*
X070102Y003794D01*
X070102Y003695D02*
X070002Y003695D01*
X070002Y003597D02*
X070102Y003597D01*
X070102Y003498D02*
X070002Y003498D01*
X070002Y003400D02*
X070102Y003400D01*
X070102Y003301D02*
X070002Y003301D01*
X070002Y003203D02*
X070102Y003203D01*
X069542Y003203D02*
X066835Y003203D01*
X066835Y003301D02*
X069508Y003301D01*
X070610Y002873D02*
X070610Y002742D01*
X070660Y002622D01*
X070752Y002530D01*
X070872Y002480D01*
X071002Y002480D01*
X071123Y002530D01*
X071215Y002622D01*
X071265Y002742D01*
X071265Y002873D01*
X071215Y002993D01*
X071123Y003085D01*
X071002Y003135D01*
X070872Y003135D01*
X070752Y003085D01*
X070660Y002993D01*
X070610Y002873D01*
X070625Y002907D02*
X065369Y002907D01*
X065369Y002809D02*
X070610Y002809D01*
X070623Y002710D02*
X065369Y002710D01*
X065369Y002612D02*
X070670Y002612D01*
X070792Y002513D02*
X066795Y002513D01*
X066814Y003006D02*
X070673Y003006D01*
X070799Y003104D02*
X066835Y003104D01*
X066184Y003104D02*
X066084Y003104D01*
X066084Y003006D02*
X066184Y003006D01*
X066184Y003203D02*
X066084Y003203D01*
X066084Y003301D02*
X066184Y003301D01*
X065433Y003301D02*
X065369Y003301D01*
X065369Y003203D02*
X065433Y003203D01*
X065433Y003104D02*
X065369Y003104D01*
X065369Y003006D02*
X065454Y003006D01*
X065049Y003006D02*
X060555Y003006D01*
X060555Y003104D02*
X065049Y003104D01*
X065049Y003203D02*
X060555Y003203D01*
X060555Y003301D02*
X065049Y003301D01*
X065049Y003400D02*
X060555Y003400D01*
X060555Y003498D02*
X065049Y003498D01*
X066084Y003597D02*
X066184Y003597D01*
X066184Y003695D02*
X066084Y003695D01*
X066084Y003794D02*
X066184Y003794D01*
X065374Y004385D02*
X065369Y004385D01*
X060681Y004087D02*
X060583Y003989D01*
X059402Y003989D01*
X059205Y003792D01*
X059205Y002890D01*
X058895Y002907D02*
X058515Y002907D01*
X058515Y002809D02*
X058895Y002809D01*
X058895Y002710D02*
X058515Y002710D01*
X058515Y002612D02*
X058895Y002612D01*
X058895Y002513D02*
X058515Y002513D01*
X058515Y002415D02*
X058895Y002415D01*
X058895Y002316D02*
X058515Y002316D01*
X058515Y002218D02*
X058895Y002218D01*
X058515Y002195D02*
X058515Y003586D01*
X058451Y003650D01*
X057960Y003650D01*
X057895Y003586D01*
X057895Y003237D01*
X057731Y003237D01*
X057594Y003101D01*
X057594Y002908D01*
X057731Y002771D01*
X057834Y002771D01*
X057875Y002730D01*
X057895Y002730D01*
X057895Y002195D01*
X057960Y002130D01*
X058451Y002130D01*
X058515Y002195D01*
X057895Y002218D02*
X021145Y002218D01*
X021145Y002316D02*
X057895Y002316D01*
X057895Y002415D02*
X021145Y002415D01*
X021145Y002513D02*
X057895Y002513D01*
X057895Y002612D02*
X021145Y002612D01*
X021145Y002710D02*
X057895Y002710D01*
X057941Y002890D02*
X057827Y003004D01*
X057941Y002890D02*
X058205Y002890D01*
X058515Y003006D02*
X058895Y003006D01*
X058895Y003104D02*
X058515Y003104D01*
X058515Y003203D02*
X058895Y003203D01*
X058895Y003301D02*
X058515Y003301D01*
X058515Y003400D02*
X058895Y003400D01*
X058895Y003498D02*
X058515Y003498D01*
X058504Y003597D02*
X058906Y003597D01*
X059045Y003695D02*
X020616Y003695D01*
X020616Y003794D02*
X059045Y003794D01*
X059080Y003892D02*
X020616Y003892D01*
X020616Y003991D02*
X059178Y003991D01*
X059277Y004089D02*
X020616Y004089D01*
X020785Y004188D02*
X020885Y004188D01*
X020885Y004286D02*
X020785Y004286D01*
X020785Y004385D02*
X020885Y004385D01*
X020885Y004483D02*
X020785Y004483D01*
X020785Y004582D02*
X020885Y004582D01*
X020885Y004680D02*
X020785Y004680D01*
X020785Y004779D02*
X020885Y004779D01*
X020885Y004877D02*
X057895Y004877D01*
X057895Y004779D02*
X021185Y004779D01*
X021185Y004680D02*
X057895Y004680D01*
X057895Y004582D02*
X021185Y004582D01*
X021185Y004483D02*
X057895Y004483D01*
X057895Y004385D02*
X021185Y004385D01*
X021185Y004286D02*
X057895Y004286D01*
X057902Y004188D02*
X021176Y004188D01*
X020236Y004188D02*
X020176Y004188D01*
X020185Y004286D02*
X020236Y004286D01*
X020236Y004385D02*
X020185Y004385D01*
X020185Y004483D02*
X020236Y004483D01*
X020236Y004582D02*
X020185Y004582D01*
X020185Y004680D02*
X020236Y004680D01*
X020236Y004779D02*
X020185Y004779D01*
X019885Y004976D02*
X019785Y004976D01*
X019785Y005074D02*
X019885Y005074D01*
X019885Y005173D02*
X019785Y005173D01*
X019785Y005271D02*
X019885Y005271D01*
X019885Y005370D02*
X019785Y005370D01*
X019785Y005468D02*
X019885Y005468D01*
X019885Y005567D02*
X019785Y005567D01*
X019785Y005665D02*
X019885Y005665D01*
X020616Y005764D02*
X058097Y005764D01*
X058045Y005665D02*
X021118Y005665D01*
X021183Y005567D02*
X057895Y005567D01*
X057895Y005468D02*
X021185Y005468D01*
X021185Y005370D02*
X057895Y005370D01*
X057895Y005271D02*
X021185Y005271D01*
X021185Y005173D02*
X057895Y005173D01*
X057895Y005074D02*
X021185Y005074D01*
X021185Y004976D02*
X057895Y004976D01*
X058205Y004890D02*
X058205Y005646D01*
X058516Y005957D01*
X060583Y005957D01*
X065996Y011370D01*
X067965Y011370D01*
X069048Y012453D01*
X070130Y012453D01*
X070130Y012256D02*
X069146Y012256D01*
X068063Y011174D01*
X066095Y011174D01*
X060681Y005760D01*
X059304Y005760D01*
X059205Y005662D01*
X059205Y004890D01*
X058895Y004877D02*
X058515Y004877D01*
X058515Y004779D02*
X058895Y004779D01*
X058895Y004680D02*
X058515Y004680D01*
X058515Y004582D02*
X058895Y004582D01*
X058895Y004483D02*
X058515Y004483D01*
X058515Y004385D02*
X058895Y004385D01*
X058895Y004286D02*
X058515Y004286D01*
X058508Y004188D02*
X058902Y004188D01*
X060681Y004087D02*
X060681Y005170D01*
X066292Y010780D01*
X068260Y010780D01*
X069343Y011863D01*
X070130Y011863D01*
X070130Y012059D02*
X069244Y012059D01*
X068162Y010977D01*
X066193Y010977D01*
X060205Y004989D01*
X060205Y004890D01*
X058895Y004976D02*
X058515Y004976D01*
X058515Y005074D02*
X058895Y005074D01*
X058895Y005173D02*
X058515Y005173D01*
X058515Y005271D02*
X058895Y005271D01*
X058895Y005370D02*
X058515Y005370D01*
X058515Y005468D02*
X058895Y005468D01*
X058895Y005567D02*
X058515Y005567D01*
X058451Y005665D02*
X059045Y005665D01*
X059081Y005764D02*
X058549Y005764D01*
X058294Y005961D02*
X020616Y005961D01*
X020616Y006059D02*
X058392Y006059D01*
X058195Y005862D02*
X020616Y005862D01*
X020785Y005665D02*
X020885Y005665D01*
X020885Y005567D02*
X020785Y005567D01*
X020785Y005468D02*
X020885Y005468D01*
X020885Y005370D02*
X020785Y005370D01*
X020785Y005271D02*
X020885Y005271D01*
X020885Y005173D02*
X020785Y005173D01*
X020785Y005074D02*
X020885Y005074D01*
X020885Y004976D02*
X020785Y004976D01*
X017569Y003991D02*
X015623Y003991D01*
X014570Y003991D01*
X014570Y003527D01*
X014470Y003527D01*
X014470Y003991D01*
X013418Y003991D01*
X013380Y003981D01*
X013345Y003961D01*
X013317Y003933D01*
X013298Y003899D01*
X013287Y003861D01*
X013287Y003527D01*
X014470Y003527D01*
X014470Y003427D01*
X013287Y003427D01*
X013287Y003093D01*
X013298Y003055D01*
X013317Y003020D01*
X013345Y002993D01*
X013380Y002973D01*
X013418Y002963D01*
X014470Y002963D01*
X014470Y003427D01*
X014570Y003427D01*
X014570Y003527D01*
X015753Y003527D01*
X015753Y003861D01*
X015743Y003899D01*
X015723Y003933D01*
X015695Y003961D01*
X015661Y003981D01*
X015623Y003991D01*
X015744Y003892D02*
X017667Y003892D01*
X017766Y003794D02*
X015753Y003794D01*
X015753Y003695D02*
X017864Y003695D01*
X017963Y003597D02*
X015753Y003597D01*
X015753Y003427D02*
X014570Y003427D01*
X014570Y002963D01*
X015623Y002963D01*
X015661Y002973D01*
X015695Y002993D01*
X015723Y003020D01*
X015743Y003055D01*
X015753Y003093D01*
X015753Y003427D01*
X015753Y003400D02*
X018063Y003400D01*
X018061Y003498D02*
X014570Y003498D01*
X014570Y003400D02*
X014470Y003400D01*
X014470Y003498D02*
X012977Y003498D01*
X012977Y003400D02*
X013287Y003400D01*
X013287Y003301D02*
X012977Y003301D01*
X012977Y003203D02*
X013287Y003203D01*
X013287Y003104D02*
X012967Y003104D01*
X013332Y003006D02*
X002334Y003006D01*
X002386Y002954D02*
X002167Y003173D01*
X001880Y003292D01*
X001570Y003292D01*
X001283Y003173D01*
X001064Y002954D01*
X000945Y002667D01*
X000945Y002357D01*
X001064Y002070D01*
X001283Y001851D01*
X001570Y001732D01*
X001880Y001732D01*
X002167Y001851D01*
X002386Y002070D01*
X002505Y002357D01*
X002505Y002667D01*
X002386Y002954D01*
X002405Y002907D02*
X018063Y002907D01*
X018063Y002809D02*
X002446Y002809D01*
X002487Y002710D02*
X018063Y002710D01*
X018063Y002612D02*
X002505Y002612D01*
X002505Y002513D02*
X018063Y002513D01*
X018063Y002415D02*
X002505Y002415D01*
X002488Y002316D02*
X018063Y002316D01*
X018063Y002218D02*
X002447Y002218D01*
X002406Y002119D02*
X018063Y002119D01*
X018063Y002021D02*
X002336Y002021D01*
X002238Y001922D02*
X018063Y001922D01*
X018063Y001824D02*
X002101Y001824D01*
X001348Y001824D02*
X000491Y001824D01*
X000434Y001922D02*
X001212Y001922D01*
X001113Y002021D02*
X000394Y002021D01*
X000368Y002119D02*
X001043Y002119D01*
X001003Y002218D02*
X000341Y002218D01*
X000315Y002316D02*
X000962Y002316D01*
X000945Y002415D02*
X000306Y002415D01*
X000300Y002513D02*
X000945Y002513D01*
X000945Y002612D02*
X000300Y002612D01*
X000300Y002710D02*
X000963Y002710D01*
X001004Y002809D02*
X000300Y002809D01*
X000300Y002907D02*
X001044Y002907D01*
X001116Y003006D02*
X000300Y003006D01*
X000300Y003104D02*
X001214Y003104D01*
X001354Y003203D02*
X000300Y003203D01*
X000300Y003301D02*
X009672Y003301D01*
X009574Y003400D02*
X000300Y003400D01*
X000300Y003498D02*
X009528Y003498D01*
X009489Y003597D02*
X000300Y003597D01*
X000300Y003695D02*
X009489Y003695D01*
X009489Y003794D02*
X000300Y003794D01*
X000300Y003892D02*
X009530Y003892D01*
X009578Y003991D02*
X000300Y003991D01*
X000300Y004089D02*
X009676Y004089D01*
X009870Y004188D02*
X000300Y004188D01*
X000300Y004286D02*
X009203Y004286D01*
X009104Y004385D02*
X000300Y004385D01*
X000300Y004483D02*
X009006Y004483D01*
X008907Y004582D02*
X000300Y004582D01*
X000300Y004680D02*
X008809Y004680D01*
X008710Y004779D02*
X000300Y004779D01*
X000300Y004877D02*
X008612Y004877D01*
X008513Y004976D02*
X000300Y004976D01*
X000300Y005074D02*
X008418Y005074D01*
X008418Y005173D02*
X000300Y005173D01*
X000300Y005271D02*
X008418Y005271D01*
X008418Y005370D02*
X000300Y005370D01*
X000300Y005468D02*
X008418Y005468D01*
X008418Y005567D02*
X004283Y005567D01*
X004286Y005570D02*
X004306Y005604D01*
X004316Y005642D01*
X004316Y006202D01*
X003625Y006202D01*
X003625Y005512D01*
X004185Y005512D01*
X004224Y005522D01*
X004258Y005542D01*
X004286Y005570D01*
X004316Y005665D02*
X008418Y005665D01*
X008418Y005764D02*
X004316Y005764D01*
X004316Y005862D02*
X008418Y005862D01*
X008418Y005961D02*
X004316Y005961D01*
X004316Y006059D02*
X008418Y006059D01*
X008418Y006158D02*
X004316Y006158D01*
X004316Y006302D02*
X003625Y006302D01*
X003625Y006202D01*
X003525Y006202D01*
X003525Y005512D01*
X002965Y005512D01*
X002927Y005522D01*
X002893Y005542D01*
X002865Y005570D01*
X002845Y005604D01*
X002835Y005642D01*
X002835Y006202D01*
X003525Y006202D01*
X003525Y006302D01*
X002835Y006302D01*
X002835Y006863D01*
X002845Y006901D01*
X002865Y006935D01*
X002893Y006963D01*
X002927Y006983D01*
X002965Y006993D01*
X003525Y006993D01*
X003525Y006302D01*
X003625Y006302D01*
X003625Y006993D01*
X004185Y006993D01*
X004224Y006983D01*
X004258Y006963D01*
X004286Y006935D01*
X004306Y006901D01*
X004316Y006863D01*
X004316Y006302D01*
X004316Y006355D02*
X008418Y006355D01*
X008418Y006453D02*
X004316Y006453D01*
X004316Y006552D02*
X008418Y006552D01*
X008418Y006650D02*
X004316Y006650D01*
X004316Y006749D02*
X008418Y006749D01*
X008418Y006847D02*
X004316Y006847D01*
X004275Y006946D02*
X008418Y006946D01*
X008422Y007044D02*
X000300Y007044D01*
X000300Y006946D02*
X002876Y006946D01*
X002835Y006847D02*
X000300Y006847D01*
X000300Y006749D02*
X002835Y006749D01*
X002835Y006650D02*
X000300Y006650D01*
X000300Y006552D02*
X002835Y006552D01*
X002835Y006453D02*
X000300Y006453D01*
X000300Y006355D02*
X002835Y006355D01*
X002835Y006158D02*
X000300Y006158D01*
X000300Y006256D02*
X003525Y006256D01*
X003525Y006158D02*
X003625Y006158D01*
X003625Y006256D02*
X008418Y006256D01*
X008521Y007143D02*
X000300Y007143D01*
X000300Y007241D02*
X008619Y007241D01*
X008718Y007340D02*
X000300Y007340D01*
X000300Y007438D02*
X019266Y007438D01*
X019365Y007340D02*
X015320Y007340D01*
X015358Y007241D02*
X015967Y007241D01*
X016095Y007040D02*
X015052Y007040D01*
X014745Y007044D02*
X014431Y007044D01*
X014431Y007088D02*
X014431Y006991D01*
X014729Y006991D01*
X014729Y006803D01*
X014719Y006765D01*
X014699Y006731D01*
X014671Y006703D01*
X014637Y006683D01*
X014599Y006673D01*
X014431Y006673D01*
X014431Y006991D01*
X014334Y006991D01*
X014334Y006673D01*
X014166Y006673D01*
X014128Y006683D01*
X014093Y006703D01*
X014065Y006731D01*
X014046Y006765D01*
X014035Y006803D01*
X014035Y006991D01*
X014334Y006991D01*
X014334Y007088D01*
X014035Y007088D01*
X014035Y007276D01*
X014046Y007314D01*
X014065Y007348D01*
X014093Y007376D01*
X014128Y007396D01*
X014166Y007406D01*
X014334Y007406D01*
X014334Y007088D01*
X014431Y007088D01*
X014729Y007088D01*
X014729Y007276D01*
X014719Y007314D01*
X014699Y007348D01*
X014671Y007376D01*
X014637Y007396D01*
X014599Y007406D01*
X014431Y007406D01*
X014431Y007088D01*
X014431Y007143D02*
X014334Y007143D01*
X014334Y007241D02*
X014431Y007241D01*
X014431Y007340D02*
X014334Y007340D01*
X014061Y007340D02*
X010873Y007340D01*
X010972Y007241D02*
X014035Y007241D01*
X014035Y007143D02*
X011070Y007143D01*
X011169Y007044D02*
X014334Y007044D01*
X014334Y006946D02*
X014431Y006946D01*
X014431Y006847D02*
X014334Y006847D01*
X014334Y006749D02*
X014431Y006749D01*
X014709Y006749D02*
X014773Y006749D01*
X014745Y006847D02*
X014729Y006847D01*
X014729Y006946D02*
X014745Y006946D01*
X014729Y007143D02*
X014745Y007143D01*
X014745Y007241D02*
X014729Y007241D01*
X014704Y007340D02*
X014783Y007340D01*
X014035Y006946D02*
X011267Y006946D01*
X011366Y006847D02*
X014035Y006847D01*
X014055Y006749D02*
X011464Y006749D01*
X011563Y006650D02*
X015591Y006650D01*
X015591Y006749D02*
X015330Y006749D01*
X015358Y006847D02*
X015591Y006847D01*
X016095Y007040D02*
X016095Y006607D01*
X016599Y006650D02*
X020054Y006650D01*
X020153Y006552D02*
X019535Y006552D01*
X019857Y006847D02*
X016599Y006847D01*
X016599Y006749D02*
X019956Y006749D01*
X019759Y006946D02*
X016599Y006946D01*
X016328Y007044D02*
X019660Y007044D01*
X019562Y007143D02*
X016321Y007143D01*
X016223Y007241D02*
X019463Y007241D01*
X020056Y007635D02*
X041083Y007635D01*
X041083Y007537D02*
X020155Y007537D01*
X019958Y007734D02*
X041830Y007734D01*
X041772Y007635D02*
X041697Y007635D01*
X041820Y007931D02*
X019761Y007931D01*
X019859Y007832D02*
X047454Y007832D01*
X047356Y007734D02*
X042918Y007734D01*
X042977Y007635D02*
X047257Y007635D01*
X047541Y007438D02*
X048428Y007438D01*
X048525Y007438D02*
X061838Y007438D01*
X061740Y007340D02*
X049119Y007340D01*
X049119Y007241D02*
X061641Y007241D01*
X061543Y007143D02*
X049087Y007143D01*
X048525Y007143D02*
X048428Y007143D01*
X048428Y007241D02*
X048525Y007241D01*
X048525Y007340D02*
X048428Y007340D01*
X047835Y007340D02*
X047643Y007340D01*
X047701Y007241D02*
X047835Y007241D01*
X047866Y007143D02*
X047701Y007143D01*
X047701Y007044D02*
X061444Y007044D01*
X061346Y006946D02*
X047701Y006946D01*
X047701Y006847D02*
X061247Y006847D01*
X061149Y006749D02*
X047701Y006749D01*
X047701Y006650D02*
X061050Y006650D01*
X060952Y006552D02*
X047701Y006552D01*
X047701Y006453D02*
X060853Y006453D01*
X060755Y006355D02*
X047652Y006355D01*
X047136Y006355D02*
X046865Y006355D01*
X046914Y006453D02*
X047087Y006453D01*
X047087Y006552D02*
X046914Y006552D01*
X046914Y006650D02*
X047087Y006650D01*
X047087Y006749D02*
X046914Y006749D01*
X046914Y006847D02*
X047087Y006847D01*
X047087Y006946D02*
X046914Y006946D01*
X046914Y007044D02*
X047087Y007044D01*
X047087Y007143D02*
X046914Y007143D01*
X046914Y007241D02*
X047087Y007241D01*
X046300Y007241D02*
X046126Y007241D01*
X046126Y007143D02*
X046300Y007143D01*
X046300Y007044D02*
X046126Y007044D01*
X046126Y006946D02*
X046300Y006946D01*
X046300Y006847D02*
X046126Y006847D01*
X046126Y006749D02*
X046300Y006749D01*
X046300Y006650D02*
X046126Y006650D01*
X046126Y006552D02*
X046300Y006552D01*
X046300Y006453D02*
X046126Y006453D01*
X046077Y006355D02*
X046349Y006355D01*
X045561Y006355D02*
X045290Y006355D01*
X045339Y006453D02*
X045512Y006453D01*
X045512Y006552D02*
X045339Y006552D01*
X045339Y006650D02*
X045512Y006650D01*
X045512Y006749D02*
X045339Y006749D01*
X045339Y006847D02*
X045512Y006847D01*
X045512Y006946D02*
X045339Y006946D01*
X045339Y007044D02*
X045512Y007044D01*
X045512Y007143D02*
X045339Y007143D01*
X045339Y007241D02*
X045512Y007241D01*
X044725Y007241D02*
X044551Y007241D01*
X044551Y007143D02*
X044725Y007143D01*
X044725Y007044D02*
X044551Y007044D01*
X044551Y006946D02*
X044725Y006946D01*
X044725Y006847D02*
X044551Y006847D01*
X044551Y006749D02*
X044725Y006749D01*
X044725Y006650D02*
X044551Y006650D01*
X044551Y006552D02*
X044725Y006552D01*
X044725Y006453D02*
X044551Y006453D01*
X044503Y006355D02*
X044774Y006355D01*
X043986Y006355D02*
X043715Y006355D01*
X043764Y006453D02*
X043938Y006453D01*
X043938Y006552D02*
X043764Y006552D01*
X043764Y006650D02*
X043938Y006650D01*
X043938Y006749D02*
X043764Y006749D01*
X043764Y006847D02*
X043938Y006847D01*
X043938Y006946D02*
X043764Y006946D01*
X043764Y007044D02*
X043938Y007044D01*
X043938Y007143D02*
X043764Y007143D01*
X043764Y007241D02*
X043938Y007241D01*
X043150Y007241D02*
X042977Y007241D01*
X042928Y007143D02*
X043150Y007143D01*
X043150Y006650D02*
X041737Y006650D01*
X041737Y006657D02*
X041439Y006657D01*
X041439Y006339D01*
X041607Y006339D01*
X041645Y006349D01*
X041679Y006369D01*
X041707Y006396D01*
X041727Y006431D01*
X041737Y006469D01*
X041737Y006657D01*
X041737Y006552D02*
X043150Y006552D01*
X043150Y006453D02*
X041733Y006453D01*
X041655Y006355D02*
X043199Y006355D01*
X041439Y006355D02*
X041342Y006355D01*
X041342Y006453D02*
X041439Y006453D01*
X041439Y006552D02*
X041342Y006552D01*
X041342Y006650D02*
X041439Y006650D01*
X041772Y008029D02*
X019662Y008029D01*
X012477Y008128D02*
X041772Y008128D01*
X041772Y008226D02*
X012379Y008226D01*
X012280Y008325D02*
X041772Y008325D01*
X041837Y008701D02*
X043109Y008701D01*
X043173Y008766D01*
X043173Y009251D01*
X043109Y009315D01*
X041837Y009315D01*
X041772Y009251D01*
X041772Y008766D01*
X041837Y008701D01*
X041819Y008719D02*
X012121Y008719D01*
X012121Y008817D02*
X041772Y008817D01*
X041772Y008916D02*
X012121Y008916D01*
X012121Y009014D02*
X041772Y009014D01*
X041772Y009113D02*
X012121Y009113D01*
X012121Y009211D02*
X041772Y009211D01*
X041832Y009310D02*
X012121Y009310D01*
X012121Y009408D02*
X049990Y009408D01*
X050150Y009205D02*
X050150Y010878D01*
X050248Y010977D01*
X050741Y010977D01*
X050839Y010878D01*
X050839Y009205D01*
X051134Y008910D01*
X051134Y008122D01*
X051331Y007926D01*
X057138Y007926D01*
X057237Y008024D01*
X056941Y008122D02*
X057237Y008418D01*
X057433Y008418D01*
X057237Y008713D02*
X056843Y008319D01*
X051626Y008319D01*
X051528Y008418D01*
X051528Y009107D01*
X051233Y009402D01*
X051233Y011863D01*
X050937Y012158D01*
X049658Y012158D01*
X049559Y012059D01*
X049559Y011961D01*
X049658Y011863D01*
X049559Y012059D02*
X049264Y011764D01*
X046410Y011764D01*
X045819Y011174D01*
X043359Y011174D01*
X043162Y010977D01*
X041882Y010977D01*
X041685Y011174D01*
X041685Y012847D01*
X041784Y012945D01*
X042473Y012945D01*
X043173Y012954D02*
X047079Y012954D01*
X047177Y013053D02*
X043173Y013053D01*
X043173Y013151D02*
X047276Y013151D01*
X047374Y013250D02*
X043111Y013250D01*
X043173Y012856D02*
X046980Y012856D01*
X046882Y012757D02*
X043173Y012757D01*
X043129Y012659D02*
X046783Y012659D01*
X046685Y012560D02*
X041845Y012560D01*
X041525Y012560D02*
X010308Y012560D01*
X010407Y012462D02*
X041525Y012462D01*
X041525Y012363D02*
X010448Y012363D01*
X010448Y012265D02*
X041525Y012265D01*
X041525Y012166D02*
X010448Y012166D01*
X010506Y012068D02*
X041525Y012068D01*
X041525Y011969D02*
X011490Y011969D01*
X011588Y011871D02*
X041525Y011871D01*
X041525Y011772D02*
X011687Y011772D01*
X011785Y011674D02*
X041525Y011674D01*
X041525Y011575D02*
X011884Y011575D01*
X011982Y011477D02*
X041525Y011477D01*
X041525Y011378D02*
X012081Y011378D01*
X012121Y011280D02*
X041525Y011280D01*
X041525Y011181D02*
X012121Y011181D01*
X012121Y011083D02*
X041550Y011083D01*
X041619Y011014D02*
X041619Y011014D01*
X041648Y010984D02*
X012121Y010984D01*
X012121Y010886D02*
X041747Y010886D01*
X041722Y010910D02*
X041722Y010910D01*
X041772Y010787D02*
X012121Y010787D01*
X012121Y010689D02*
X041772Y010689D01*
X041772Y010590D02*
X012121Y010590D01*
X012121Y010492D02*
X041772Y010492D01*
X041772Y010393D02*
X012121Y010393D01*
X012121Y010295D02*
X041818Y010295D01*
X041837Y010103D02*
X041772Y010038D01*
X041772Y009553D01*
X041837Y009489D01*
X043109Y009489D01*
X043173Y009553D01*
X043173Y010038D01*
X043109Y010103D01*
X041837Y010103D01*
X041832Y010098D02*
X012121Y010098D01*
X012121Y010196D02*
X049301Y010196D01*
X049301Y010098D02*
X049019Y010098D01*
X049079Y009999D02*
X049301Y009999D01*
X049461Y009796D02*
X048378Y009796D01*
X047678Y009802D02*
X043173Y009802D01*
X043173Y009704D02*
X047678Y009704D01*
X047678Y009605D02*
X043173Y009605D01*
X043127Y009507D02*
X047724Y009507D01*
X047737Y009310D02*
X043114Y009310D01*
X043173Y009211D02*
X047678Y009211D01*
X047678Y009113D02*
X043173Y009113D01*
X043173Y009014D02*
X047678Y009014D01*
X047678Y008916D02*
X043173Y008916D01*
X043173Y008817D02*
X047678Y008817D01*
X047725Y008719D02*
X043126Y008719D01*
X043115Y008522D02*
X047736Y008522D01*
X047678Y008423D02*
X043173Y008423D01*
X043173Y008325D02*
X047678Y008325D01*
X047678Y008226D02*
X043173Y008226D01*
X043173Y008128D02*
X047678Y008128D01*
X047678Y008029D02*
X043173Y008029D01*
X043126Y007931D02*
X047553Y007931D01*
X047738Y007635D02*
X047835Y007635D01*
X047835Y007537D02*
X047640Y007537D01*
X049119Y007537D02*
X061937Y007537D01*
X062035Y007635D02*
X057482Y007635D01*
X057581Y007734D02*
X062134Y007734D01*
X062232Y007832D02*
X058260Y007832D01*
X058319Y008024D02*
X058122Y008024D01*
X058319Y008024D02*
X058811Y008516D01*
X059402Y008516D01*
X060386Y009500D01*
X060386Y010386D01*
X061174Y011174D01*
X065111Y011174D01*
X065209Y011075D01*
X065069Y010886D02*
X063881Y010886D01*
X063893Y010787D02*
X065187Y010787D01*
X065089Y010689D02*
X063879Y010689D01*
X063837Y010590D02*
X064990Y010590D01*
X064892Y010492D02*
X063733Y010492D01*
X063359Y010492D02*
X062873Y010492D01*
X062971Y010393D02*
X064793Y010393D01*
X064695Y010295D02*
X062980Y010295D01*
X063025Y010340D02*
X062684Y010680D01*
X062650Y010700D01*
X062612Y010710D01*
X062572Y010710D01*
X062534Y010700D01*
X062500Y010680D01*
X062000Y010180D01*
X062432Y009747D01*
X062361Y009676D01*
X062432Y009606D01*
X061839Y009013D01*
X062180Y008672D01*
X062214Y008653D01*
X062252Y008642D01*
X062292Y008642D01*
X062330Y008653D01*
X062364Y008672D01*
X062865Y009173D01*
X062432Y009606D01*
X062503Y009676D01*
X062935Y009244D01*
X063436Y009744D01*
X063456Y009778D01*
X063466Y009817D01*
X063466Y009856D01*
X063456Y009894D01*
X063436Y009928D01*
X063096Y010269D01*
X062503Y009676D01*
X062432Y009747D01*
X063025Y010340D01*
X063023Y010196D02*
X062882Y010196D01*
X062925Y010098D02*
X062783Y010098D01*
X062826Y009999D02*
X062685Y009999D01*
X062728Y009901D02*
X062586Y009901D01*
X062629Y009802D02*
X062488Y009802D01*
X062475Y009704D02*
X062531Y009704D01*
X062574Y009605D02*
X062432Y009605D01*
X062291Y009605D01*
X062361Y009676D02*
X061769Y009084D01*
X061428Y009424D01*
X061409Y009458D01*
X061398Y009496D01*
X061398Y009536D01*
X061409Y009574D01*
X061428Y009608D01*
X061929Y010109D01*
X062361Y009676D01*
X062334Y009704D02*
X062389Y009704D01*
X062377Y009802D02*
X062235Y009802D01*
X062278Y009901D02*
X062137Y009901D01*
X062180Y009999D02*
X062038Y009999D01*
X062081Y010098D02*
X061940Y010098D01*
X061918Y010098D02*
X060546Y010098D01*
X060546Y010196D02*
X062016Y010196D01*
X062115Y010295D02*
X060546Y010295D01*
X060620Y010393D02*
X062213Y010393D01*
X062312Y010492D02*
X060718Y010492D01*
X060817Y010590D02*
X062410Y010590D01*
X062515Y010689D02*
X060915Y010689D01*
X061014Y010787D02*
X063199Y010787D01*
X063212Y010689D02*
X062669Y010689D01*
X062774Y010590D02*
X063255Y010590D01*
X063168Y010196D02*
X064596Y010196D01*
X064498Y010098D02*
X063267Y010098D01*
X063365Y009999D02*
X064399Y009999D01*
X064301Y009901D02*
X063452Y009901D01*
X063462Y009802D02*
X064202Y009802D01*
X064104Y009704D02*
X063396Y009704D01*
X063297Y009605D02*
X064005Y009605D01*
X063907Y009507D02*
X063199Y009507D01*
X063100Y009408D02*
X063808Y009408D01*
X063710Y009310D02*
X063002Y009310D01*
X062869Y009310D02*
X062728Y009310D01*
X062771Y009408D02*
X062629Y009408D01*
X062672Y009507D02*
X062531Y009507D01*
X062334Y009507D02*
X062192Y009507D01*
X062235Y009408D02*
X062094Y009408D01*
X062137Y009310D02*
X061995Y009310D01*
X062038Y009211D02*
X061897Y009211D01*
X061940Y009113D02*
X061798Y009113D01*
X061739Y009113D02*
X060225Y009113D01*
X060324Y009211D02*
X061641Y009211D01*
X061542Y009310D02*
X060422Y009310D01*
X060521Y009408D02*
X061444Y009408D01*
X061398Y009507D02*
X060546Y009507D01*
X060546Y009605D02*
X061427Y009605D01*
X061524Y009704D02*
X060546Y009704D01*
X060546Y009802D02*
X061622Y009802D01*
X061721Y009901D02*
X060546Y009901D01*
X060546Y009999D02*
X061819Y009999D01*
X061075Y011370D02*
X060189Y010485D01*
X060189Y009599D01*
X059304Y008713D01*
X058713Y008713D01*
X058418Y008418D01*
X058221Y008418D01*
X058649Y008128D02*
X062528Y008128D01*
X062626Y008226D02*
X058748Y008226D01*
X058846Y008325D02*
X062725Y008325D01*
X062823Y008423D02*
X059536Y008423D01*
X059634Y008522D02*
X062922Y008522D01*
X063020Y008620D02*
X059733Y008620D01*
X059831Y008719D02*
X062133Y008719D01*
X062035Y008817D02*
X059930Y008817D01*
X060028Y008916D02*
X061936Y008916D01*
X061841Y009014D02*
X060127Y009014D01*
X059823Y009768D02*
X059292Y009237D01*
X059118Y009237D01*
X059118Y009329D01*
X059067Y009381D01*
X059100Y009400D01*
X059128Y009428D01*
X059148Y009462D01*
X059158Y009500D01*
X059158Y009688D01*
X058860Y009688D01*
X058860Y009785D01*
X059158Y009785D01*
X059158Y009973D01*
X059148Y010011D01*
X059128Y010045D01*
X059100Y010073D01*
X059066Y010093D01*
X059028Y010103D01*
X058860Y010103D01*
X058860Y009785D01*
X058763Y009785D01*
X058763Y010103D01*
X058755Y010103D01*
X058878Y010226D01*
X059370Y010226D01*
X059665Y010521D01*
X059691Y010547D01*
X059695Y010547D01*
X059823Y010674D01*
X059823Y009768D01*
X059823Y009802D02*
X059158Y009802D01*
X059158Y009901D02*
X059823Y009901D01*
X059823Y009999D02*
X059151Y009999D01*
X059048Y010098D02*
X059823Y010098D01*
X059823Y010196D02*
X058848Y010196D01*
X058860Y010098D02*
X058763Y010098D01*
X058763Y009999D02*
X058860Y009999D01*
X058860Y009901D02*
X058763Y009901D01*
X058763Y009802D02*
X058860Y009802D01*
X058860Y009704D02*
X059759Y009704D01*
X059660Y009605D02*
X059158Y009605D01*
X059158Y009507D02*
X059562Y009507D01*
X059463Y009408D02*
X059109Y009408D01*
X059118Y009310D02*
X059365Y009310D01*
X057237Y008713D02*
X057237Y009993D01*
X057433Y010189D01*
X057926Y010189D01*
X058615Y010189D01*
X058811Y010386D01*
X059304Y010386D01*
X059599Y010681D01*
X059599Y010780D01*
X059366Y010787D02*
X057976Y010787D01*
X057976Y010830D02*
X057976Y010730D01*
X058506Y010730D01*
X058506Y010550D01*
X058495Y010512D01*
X058476Y010478D01*
X058454Y010456D01*
X058466Y010445D01*
X058466Y010349D01*
X058548Y010349D01*
X058651Y010452D01*
X058745Y010546D01*
X059237Y010546D01*
X059370Y010679D01*
X059366Y010683D01*
X059366Y010876D01*
X059502Y011013D01*
X059695Y011013D01*
X059823Y010886D01*
X059822Y010886D01*
X059823Y010886D02*
X059823Y012031D01*
X059833Y012041D01*
X059833Y012092D01*
X059473Y012451D01*
X059138Y012451D01*
X059138Y012368D01*
X059075Y012306D01*
X059138Y012243D01*
X059138Y012224D01*
X059152Y012239D01*
X059187Y012258D01*
X059225Y012269D01*
X059373Y012269D01*
X059373Y011990D01*
X059431Y011990D01*
X059709Y011990D01*
X059709Y012138D01*
X059699Y012176D01*
X059679Y012211D01*
X059652Y012239D01*
X059617Y012258D01*
X059579Y012269D01*
X059431Y012269D01*
X059431Y011990D01*
X059431Y011932D01*
X059709Y011932D01*
X059709Y011784D01*
X059699Y011746D01*
X059679Y011711D01*
X059652Y011684D01*
X059617Y011664D01*
X059579Y011654D01*
X059431Y011654D01*
X059431Y011932D01*
X059373Y011932D01*
X059373Y011654D01*
X059225Y011654D01*
X059187Y011664D01*
X059152Y011684D01*
X059124Y011711D01*
X059112Y011732D01*
X059074Y011694D01*
X058549Y011694D01*
X058485Y011758D01*
X058485Y012061D01*
X058466Y012081D01*
X058466Y011705D01*
X058426Y011666D01*
X058466Y011626D01*
X058466Y011115D01*
X058454Y011103D01*
X058476Y011082D01*
X058495Y011048D01*
X058506Y011010D01*
X058506Y010830D01*
X057976Y010830D01*
X057876Y010830D02*
X057876Y010730D01*
X057346Y010730D01*
X057346Y010550D01*
X057356Y010512D01*
X057376Y010478D01*
X057397Y010456D01*
X057386Y010445D01*
X057386Y010349D01*
X057367Y010349D01*
X057170Y010153D01*
X057077Y010059D01*
X057077Y008779D01*
X056777Y008479D01*
X051693Y008479D01*
X051688Y008484D01*
X051688Y009173D01*
X051393Y009468D01*
X051393Y011929D01*
X051127Y012195D01*
X051462Y012195D01*
X051762Y011895D01*
X051762Y011501D01*
X051855Y011407D01*
X052052Y011210D01*
X052071Y011210D01*
X052071Y011115D01*
X052110Y011075D01*
X052071Y011035D01*
X052071Y010524D01*
X052110Y010485D01*
X052071Y010445D01*
X052071Y009934D01*
X052110Y009894D01*
X052071Y009854D01*
X052071Y009343D01*
X052110Y009304D01*
X052071Y009264D01*
X052071Y008753D01*
X052135Y008688D01*
X053086Y008688D01*
X053151Y008753D01*
X053151Y009264D01*
X053111Y009304D01*
X053151Y009343D01*
X053151Y009854D01*
X053111Y009894D01*
X053151Y009934D01*
X053151Y010445D01*
X053111Y010485D01*
X053151Y010524D01*
X053151Y011035D01*
X053111Y011075D01*
X053151Y011115D01*
X053151Y011137D01*
X053298Y011137D01*
X053434Y011274D01*
X053434Y011467D01*
X053298Y011603D01*
X053151Y011603D01*
X053151Y011626D01*
X053111Y011666D01*
X053151Y011705D01*
X053151Y012217D01*
X053111Y012256D01*
X053151Y012296D01*
X053151Y012319D01*
X053298Y012319D01*
X053434Y012455D01*
X053434Y012588D01*
X057204Y012588D01*
X057386Y012770D01*
X057386Y012296D01*
X057425Y012256D01*
X057386Y012217D01*
X057386Y011705D01*
X057425Y011666D01*
X057386Y011626D01*
X057386Y011115D01*
X057397Y011103D01*
X057376Y011082D01*
X057356Y011048D01*
X057346Y011010D01*
X057346Y010830D01*
X057876Y010830D01*
X057876Y010787D02*
X053151Y010787D01*
X053151Y010689D02*
X057346Y010689D01*
X057346Y010590D02*
X053151Y010590D01*
X053118Y010492D02*
X057367Y010492D01*
X057386Y010393D02*
X053151Y010393D01*
X053151Y010295D02*
X057313Y010295D01*
X057214Y010196D02*
X053151Y010196D01*
X053151Y010098D02*
X057116Y010098D01*
X057077Y009999D02*
X053151Y009999D01*
X053118Y009901D02*
X057077Y009901D01*
X057077Y009802D02*
X053151Y009802D01*
X053151Y009704D02*
X057077Y009704D01*
X057077Y009605D02*
X053151Y009605D01*
X053151Y009507D02*
X057077Y009507D01*
X057077Y009408D02*
X053151Y009408D01*
X053117Y009310D02*
X057077Y009310D01*
X057077Y009211D02*
X053151Y009211D01*
X053151Y009113D02*
X057077Y009113D01*
X057077Y009014D02*
X053151Y009014D01*
X053151Y008916D02*
X057077Y008916D01*
X057077Y008817D02*
X053151Y008817D01*
X053117Y008719D02*
X057016Y008719D01*
X056918Y008620D02*
X051688Y008620D01*
X051688Y008522D02*
X056819Y008522D01*
X056941Y008122D02*
X051430Y008122D01*
X051331Y008221D01*
X051331Y009008D01*
X051036Y009304D01*
X051036Y010977D01*
X050839Y011174D01*
X050052Y011174D01*
X049953Y011272D01*
X049658Y011272D01*
X049461Y011075D01*
X049461Y009796D01*
X049815Y009796D01*
X049509Y009605D02*
X049079Y009605D01*
X049033Y009507D02*
X049535Y009507D01*
X049548Y009310D02*
X049020Y009310D01*
X049079Y009211D02*
X049509Y009211D01*
X049815Y009008D02*
X048378Y009008D01*
X049079Y008817D02*
X049509Y008817D01*
X049536Y008719D02*
X049032Y008719D01*
X049020Y008522D02*
X049547Y008522D01*
X049509Y008423D02*
X049079Y008423D01*
X050083Y008522D02*
X050163Y008522D01*
X050138Y008423D02*
X050122Y008423D01*
X050122Y008325D02*
X050138Y008325D01*
X050122Y008128D02*
X050138Y008128D01*
X050138Y008029D02*
X050122Y008029D01*
X050094Y007931D02*
X050157Y007931D01*
X050937Y007729D02*
X050937Y008811D01*
X050741Y009008D01*
X050485Y009008D01*
X050485Y009796D01*
X050485Y010583D01*
X049815Y010583D02*
X049815Y010918D01*
X049756Y010977D01*
X049301Y010984D02*
X043396Y010984D01*
X043297Y010886D02*
X047738Y010886D01*
X047742Y010890D02*
X047678Y010825D01*
X047678Y010341D01*
X047742Y010276D01*
X049014Y010276D01*
X049079Y010341D01*
X049079Y010825D01*
X049014Y010890D01*
X047742Y010890D01*
X047678Y010787D02*
X043173Y010787D01*
X043173Y010689D02*
X047678Y010689D01*
X047678Y010590D02*
X043173Y010590D01*
X043173Y010492D02*
X047678Y010492D01*
X047678Y010393D02*
X043173Y010393D01*
X043128Y010295D02*
X047724Y010295D01*
X047738Y010098D02*
X043114Y010098D01*
X043173Y009999D02*
X047678Y009999D01*
X047678Y009901D02*
X043173Y009901D01*
X041772Y009901D02*
X012121Y009901D01*
X012121Y009999D02*
X041772Y009999D01*
X041772Y009802D02*
X012121Y009802D01*
X012121Y009704D02*
X041772Y009704D01*
X041772Y009605D02*
X012121Y009605D01*
X012121Y009507D02*
X041819Y009507D01*
X045955Y011083D02*
X047723Y011083D01*
X047678Y011181D02*
X046053Y011181D01*
X046152Y011280D02*
X047678Y011280D01*
X047678Y011378D02*
X046250Y011378D01*
X046349Y011477D02*
X047678Y011477D01*
X047678Y011575D02*
X046447Y011575D01*
X045897Y011772D02*
X041845Y011772D01*
X042473Y011370D02*
X045721Y011370D01*
X047788Y013437D01*
X048969Y013437D01*
X049658Y012748D01*
X051725Y012748D01*
X052020Y013044D01*
X052020Y013437D01*
X052119Y013536D01*
X053103Y013536D01*
X053201Y013437D01*
X053201Y012945D01*
X053398Y012748D01*
X057138Y012748D01*
X057532Y013142D01*
X057926Y013142D01*
X058772Y013142D01*
X058811Y013280D01*
X058851Y013142D01*
X059304Y013142D01*
X060288Y012158D01*
X067571Y012158D01*
X067965Y012552D01*
X067965Y013339D01*
X068260Y013634D01*
X070819Y013634D01*
X070918Y013536D01*
X070918Y013241D01*
X071115Y013241D02*
X071115Y013634D01*
X070918Y013831D01*
X068162Y013831D01*
X067768Y013437D01*
X067768Y012650D01*
X067473Y012355D01*
X060583Y012355D01*
X060485Y012453D01*
X060485Y012552D01*
X060718Y012560D02*
X065377Y012560D01*
X065285Y012659D02*
X060707Y012659D01*
X060608Y012757D02*
X065244Y012757D01*
X065228Y012856D02*
X059816Y012856D01*
X059718Y012954D02*
X065228Y012954D01*
X065267Y013053D02*
X059619Y013053D01*
X059521Y013151D02*
X065333Y013151D01*
X065472Y013250D02*
X059422Y013250D01*
X059138Y013348D02*
X066678Y013348D01*
X066776Y013250D02*
X065796Y013250D01*
X065934Y013151D02*
X067608Y013151D01*
X067608Y013053D02*
X066000Y013053D01*
X066040Y012954D02*
X067608Y012954D01*
X067608Y012856D02*
X066040Y012856D01*
X066023Y012757D02*
X067608Y012757D01*
X067551Y012659D02*
X065982Y012659D01*
X065890Y012560D02*
X067452Y012560D01*
X067768Y011764D02*
X068556Y012552D01*
X068556Y012650D01*
X068432Y012856D02*
X068332Y012856D01*
X068332Y012954D02*
X068543Y012954D01*
X068543Y012995D02*
X068543Y012883D01*
X068459Y012883D01*
X068332Y012756D01*
X068332Y013170D01*
X068429Y013267D01*
X068545Y013267D01*
X068543Y013260D01*
X068543Y013092D01*
X068861Y013092D01*
X068861Y012995D01*
X068543Y012995D01*
X068543Y013151D02*
X068332Y013151D01*
X068332Y013053D02*
X068861Y013053D01*
X068543Y013250D02*
X068412Y013250D01*
X067608Y013250D02*
X066885Y013250D01*
X066876Y013241D02*
X067915Y014280D01*
X067915Y014371D01*
X067686Y014600D01*
X067804Y014719D01*
X067804Y014912D01*
X067668Y015048D01*
X067475Y015048D01*
X067356Y014930D01*
X067127Y015159D01*
X067036Y015159D01*
X065997Y014120D01*
X065997Y014029D01*
X066785Y013241D01*
X066876Y013241D01*
X066984Y013348D02*
X067608Y013348D01*
X067608Y013447D02*
X067082Y013447D01*
X067181Y013545D02*
X067650Y013545D01*
X067748Y013644D02*
X067279Y013644D01*
X067378Y013742D02*
X067847Y013742D01*
X067945Y013841D02*
X067476Y013841D01*
X067575Y013939D02*
X068044Y013939D01*
X067772Y014136D02*
X069627Y014136D01*
X069627Y014038D02*
X067673Y014038D01*
X067870Y014235D02*
X069627Y014235D01*
X069627Y014333D02*
X067915Y014333D01*
X067854Y014432D02*
X069627Y014432D01*
X069627Y014530D02*
X067756Y014530D01*
X067714Y014629D02*
X069627Y014629D01*
X069627Y014727D02*
X067804Y014727D01*
X067804Y014826D02*
X069627Y014826D01*
X069627Y014924D02*
X067792Y014924D01*
X067693Y015023D02*
X069627Y015023D01*
X069658Y015157D02*
X069846Y015157D01*
X069846Y015456D01*
X069528Y015456D01*
X069528Y015288D01*
X069538Y015250D01*
X069558Y015215D01*
X069585Y015187D01*
X069620Y015168D01*
X069658Y015157D01*
X069555Y015220D02*
X061567Y015220D01*
X061567Y015318D02*
X069528Y015318D01*
X069528Y015417D02*
X061567Y015417D01*
X061567Y015515D02*
X069846Y015515D01*
X069846Y015417D02*
X069943Y015417D01*
X069943Y015318D02*
X069846Y015318D01*
X069846Y015220D02*
X069943Y015220D01*
X070210Y015121D02*
X067165Y015121D01*
X067263Y015023D02*
X067449Y015023D01*
X066998Y015121D02*
X061567Y015121D01*
X061567Y015023D02*
X066899Y015023D01*
X066801Y014924D02*
X061567Y014924D01*
X061567Y014826D02*
X066702Y014826D01*
X066604Y014727D02*
X061567Y014727D01*
X061567Y014629D02*
X066505Y014629D01*
X066407Y014530D02*
X061567Y014530D01*
X061567Y014432D02*
X066308Y014432D01*
X066210Y014333D02*
X061567Y014333D01*
X061567Y014235D02*
X066111Y014235D01*
X066013Y014136D02*
X061567Y014136D01*
X061567Y014038D02*
X065997Y014038D01*
X066087Y013939D02*
X061567Y013939D01*
X061479Y013841D02*
X066185Y013841D01*
X066284Y013742D02*
X061380Y013742D01*
X061282Y013644D02*
X066382Y013644D01*
X066481Y013545D02*
X061183Y013545D01*
X059138Y013447D02*
X066579Y013447D01*
X068332Y012757D02*
X068333Y012757D01*
X068949Y012650D02*
X067867Y011567D01*
X060878Y011567D01*
X060780Y011469D01*
X061075Y011370D02*
X065406Y011370D01*
X065504Y011272D01*
X064976Y010984D02*
X063841Y010984D01*
X063251Y010984D02*
X061211Y010984D01*
X061112Y010886D02*
X063210Y010886D01*
X060583Y011764D02*
X060386Y011567D01*
X060583Y011764D02*
X067768Y011764D01*
X068359Y010583D02*
X069441Y011666D01*
X070130Y011666D01*
X070130Y011469D02*
X069540Y011469D01*
X068457Y010386D01*
X066882Y010386D01*
X066784Y010288D01*
X066551Y010295D02*
X066328Y010295D01*
X066230Y010196D02*
X066551Y010196D01*
X066644Y010098D02*
X066131Y010098D01*
X066033Y009999D02*
X066945Y009999D01*
X066945Y010098D02*
X066923Y010098D01*
X067038Y009901D02*
X065934Y009901D01*
X065836Y009802D02*
X068937Y009802D01*
X068937Y009901D02*
X067317Y009901D01*
X067411Y009999D02*
X069255Y009999D01*
X069255Y010041D02*
X068937Y010041D01*
X068937Y010209D01*
X068947Y010247D01*
X068967Y010281D01*
X068995Y010309D01*
X069029Y010329D01*
X069067Y010339D01*
X069255Y010339D01*
X069255Y010041D01*
X069255Y010098D02*
X069352Y010098D01*
X069352Y010196D02*
X069255Y010196D01*
X069255Y010295D02*
X069352Y010295D01*
X069627Y010295D02*
X069706Y010295D01*
X069784Y010393D02*
X068986Y010393D01*
X068980Y010295D02*
X068887Y010295D01*
X068937Y010196D02*
X068789Y010196D01*
X068690Y010098D02*
X068937Y010098D01*
X069255Y009944D02*
X069352Y009944D01*
X069352Y009646D01*
X069540Y009646D01*
X069578Y009656D01*
X069612Y009676D01*
X069640Y009704D01*
X069692Y009704D01*
X069711Y009686D02*
X070235Y009686D01*
X070299Y009750D01*
X070299Y010079D01*
X070300Y010080D01*
X070300Y010315D01*
X070355Y010315D01*
X070452Y010217D01*
X070552Y010118D01*
X070552Y009660D01*
X069867Y009660D01*
X069711Y009686D02*
X069659Y009737D01*
X069640Y009704D01*
X069714Y009507D02*
X065540Y009507D01*
X065442Y009408D02*
X069615Y009408D01*
X069517Y009310D02*
X065343Y009310D01*
X065245Y009211D02*
X067875Y009211D01*
X067847Y008989D02*
X068162Y008989D01*
X067847Y008989D02*
X067670Y008811D01*
X067512Y008811D01*
X067205Y008817D02*
X067150Y008817D01*
X067150Y008719D02*
X067205Y008719D01*
X067205Y008620D02*
X067150Y008620D01*
X067122Y008522D02*
X067233Y008522D01*
X067205Y008423D02*
X067150Y008423D01*
X067150Y008325D02*
X067205Y008325D01*
X067512Y008221D02*
X067532Y008241D01*
X068162Y008241D01*
X068726Y008072D02*
X068786Y008012D01*
X069349Y008012D01*
X069414Y008077D01*
X069414Y008081D01*
X069724Y008081D01*
X069818Y008174D01*
X069995Y008351D01*
X069995Y009040D01*
X070098Y009144D01*
X070320Y009144D01*
X070315Y009126D01*
X070315Y008958D01*
X070633Y008958D01*
X070633Y008861D01*
X070315Y008861D01*
X070315Y008693D01*
X070325Y008655D01*
X070345Y008621D01*
X070350Y008616D01*
X070223Y008616D01*
X070158Y008552D01*
X070158Y008244D01*
X070163Y008239D01*
X070148Y008224D01*
X070128Y008190D01*
X070118Y008152D01*
X070118Y008028D01*
X070500Y008028D01*
X070500Y008020D01*
X070118Y008020D01*
X070118Y007896D01*
X070128Y007858D01*
X070148Y007824D01*
X070163Y007809D01*
X070158Y007804D01*
X070158Y007631D01*
X070039Y007512D01*
X070039Y006895D01*
X069650Y006895D01*
X069650Y006967D01*
X069598Y007019D01*
X069632Y007038D01*
X069660Y007066D01*
X069680Y007100D01*
X069690Y007138D01*
X069690Y007326D01*
X069391Y007326D01*
X069391Y007423D01*
X069294Y007423D01*
X069294Y007326D01*
X068801Y007326D01*
X068801Y007423D01*
X068996Y007423D01*
X069294Y007423D01*
X069294Y007741D01*
X069126Y007741D01*
X069088Y007731D01*
X069054Y007711D01*
X069048Y007705D01*
X069041Y007711D01*
X069007Y007731D01*
X068969Y007741D01*
X068801Y007741D01*
X068801Y007423D01*
X068704Y007423D01*
X068704Y007741D01*
X068536Y007741D01*
X068498Y007731D01*
X068463Y007711D01*
X068435Y007683D01*
X068416Y007649D01*
X068406Y007611D01*
X068406Y007423D01*
X068704Y007423D01*
X068704Y007326D01*
X068406Y007326D01*
X068406Y007163D01*
X068332Y007237D01*
X068332Y007242D01*
X068360Y007270D01*
X068360Y007756D01*
X068528Y007756D01*
X068626Y007854D01*
X068726Y007954D01*
X068726Y008072D01*
X068726Y008029D02*
X068769Y008029D01*
X068703Y007931D02*
X070118Y007931D01*
X070118Y008029D02*
X069366Y008029D01*
X069391Y007741D02*
X069391Y007423D01*
X069690Y007423D01*
X069690Y007611D01*
X069680Y007649D01*
X069660Y007683D01*
X069632Y007711D01*
X069598Y007731D01*
X069560Y007741D01*
X069391Y007741D01*
X069391Y007734D02*
X069294Y007734D01*
X069294Y007635D02*
X069391Y007635D01*
X069391Y007537D02*
X069294Y007537D01*
X069294Y007438D02*
X069391Y007438D01*
X069391Y007340D02*
X070039Y007340D01*
X070039Y007438D02*
X069690Y007438D01*
X069690Y007537D02*
X070063Y007537D01*
X070158Y007635D02*
X069683Y007635D01*
X069586Y007734D02*
X070158Y007734D01*
X070143Y007832D02*
X068604Y007832D01*
X068510Y007734D02*
X068360Y007734D01*
X068360Y007635D02*
X068412Y007635D01*
X068406Y007537D02*
X068360Y007537D01*
X068360Y007438D02*
X068406Y007438D01*
X068360Y007340D02*
X068704Y007340D01*
X068801Y007340D02*
X069294Y007340D01*
X069690Y007241D02*
X070039Y007241D01*
X070039Y007143D02*
X069690Y007143D01*
X069638Y007044D02*
X070039Y007044D01*
X070039Y006946D02*
X069650Y006946D01*
X069650Y006453D02*
X070153Y006453D01*
X070251Y006355D02*
X069533Y006355D01*
X069517Y006256D02*
X069570Y006256D01*
X069472Y006158D02*
X069419Y006158D01*
X070100Y006256D02*
X070355Y006256D01*
X070404Y006158D02*
X070198Y006158D01*
X072591Y007040D02*
X072886Y007040D01*
X073280Y006646D01*
X073280Y005898D01*
X071801Y007143D02*
X071717Y007143D01*
X071717Y007088D02*
X071717Y007256D01*
X071707Y007295D01*
X071687Y007329D01*
X071659Y007357D01*
X071625Y007376D01*
X071587Y007387D01*
X071399Y007387D01*
X071399Y007088D01*
X071717Y007088D01*
X071717Y007241D02*
X071792Y007241D01*
X071792Y007340D02*
X071676Y007340D01*
X071399Y007340D02*
X071302Y007340D01*
X071302Y007241D02*
X071399Y007241D01*
X071399Y007143D02*
X071302Y007143D01*
X071240Y007438D02*
X071191Y007438D01*
X072910Y007832D02*
X077066Y007832D01*
X076967Y007931D02*
X072812Y007931D01*
X072713Y008029D02*
X076912Y008029D01*
X076875Y008128D02*
X072615Y008128D01*
X072654Y008226D02*
X072516Y008226D01*
X072556Y008325D02*
X072456Y008325D01*
X072456Y008423D02*
X072457Y008423D01*
X072493Y008615D02*
X072788Y008319D01*
X074166Y008319D01*
X074461Y008615D01*
X074461Y009500D01*
X074658Y009697D01*
X076823Y009697D01*
X077315Y009205D01*
X076875Y009211D02*
X074621Y009211D01*
X074621Y009113D02*
X076877Y009113D01*
X076918Y009014D02*
X074621Y009014D01*
X074621Y008916D02*
X076982Y008916D01*
X077102Y008817D02*
X074621Y008817D01*
X074621Y008719D02*
X077589Y008719D01*
X077637Y008817D02*
X077529Y008817D01*
X077490Y008620D02*
X077462Y008620D01*
X077168Y008620D02*
X074621Y008620D01*
X074595Y008522D02*
X077010Y008522D01*
X076930Y008423D02*
X074496Y008423D01*
X074398Y008325D02*
X076889Y008325D01*
X076875Y008226D02*
X074299Y008226D01*
X074099Y008479D02*
X072854Y008479D01*
X072653Y008681D01*
X072653Y009508D01*
X072689Y009508D01*
X072689Y009894D01*
X072689Y009894D01*
X072689Y009508D01*
X072768Y009508D01*
X072806Y009518D01*
X072841Y009538D01*
X072851Y009548D01*
X072991Y009548D01*
X073055Y009612D01*
X073055Y009724D01*
X073071Y009724D01*
X073071Y009475D01*
X073123Y009423D01*
X073089Y009404D01*
X073061Y009376D01*
X073042Y009342D01*
X073031Y009304D01*
X073031Y009116D01*
X073330Y009116D01*
X073330Y009019D01*
X073031Y009019D01*
X073031Y008831D01*
X073042Y008793D01*
X073061Y008759D01*
X073089Y008731D01*
X073124Y008711D01*
X073162Y008701D01*
X073330Y008701D01*
X073330Y009019D01*
X073427Y009019D01*
X073427Y008701D01*
X073595Y008701D01*
X073633Y008711D01*
X073667Y008731D01*
X073695Y008759D01*
X073700Y008767D01*
X073707Y008760D01*
X074231Y008760D01*
X074295Y008825D01*
X074295Y009310D01*
X074301Y009310D01*
X074295Y009310D02*
X074231Y009374D01*
X073942Y009374D01*
X073886Y009430D01*
X074231Y009430D01*
X074295Y009494D01*
X074295Y009567D01*
X074301Y009567D01*
X074301Y009434D01*
X074301Y008681D01*
X074099Y008479D01*
X074142Y008522D02*
X072811Y008522D01*
X072713Y008620D02*
X074241Y008620D01*
X074301Y008719D02*
X073647Y008719D01*
X073427Y008719D02*
X073330Y008719D01*
X073330Y008817D02*
X073427Y008817D01*
X073427Y008916D02*
X073330Y008916D01*
X073330Y009014D02*
X073427Y009014D01*
X073330Y009113D02*
X072653Y009113D01*
X072653Y009211D02*
X073031Y009211D01*
X073033Y009310D02*
X072653Y009310D01*
X072653Y009408D02*
X073097Y009408D01*
X073071Y009507D02*
X072653Y009507D01*
X072689Y009605D02*
X072689Y009605D01*
X072689Y009704D02*
X072689Y009704D01*
X072689Y009802D02*
X072689Y009802D01*
X072493Y009894D02*
X072493Y008615D01*
X072653Y008719D02*
X073110Y008719D01*
X073035Y008817D02*
X072653Y008817D01*
X072653Y008916D02*
X073031Y008916D01*
X073031Y009014D02*
X072653Y009014D01*
X071902Y009402D02*
X071804Y009304D01*
X070032Y009304D01*
X069835Y009107D01*
X069835Y008418D01*
X069658Y008241D01*
X069067Y008241D01*
X069420Y008401D02*
X069424Y008404D01*
X069443Y008439D01*
X069454Y008477D01*
X069454Y008606D01*
X069076Y008606D01*
X069076Y008624D01*
X069454Y008624D01*
X069454Y008752D01*
X069443Y008791D01*
X069424Y008825D01*
X069420Y008829D01*
X069488Y008829D01*
X069582Y008922D01*
X069675Y009016D01*
X069675Y008484D01*
X069592Y008401D01*
X069420Y008401D01*
X069435Y008423D02*
X069614Y008423D01*
X069675Y008522D02*
X069454Y008522D01*
X069454Y008719D02*
X069675Y008719D01*
X069675Y008817D02*
X069428Y008817D01*
X069422Y008989D02*
X069067Y008989D01*
X068721Y009014D02*
X068508Y009014D01*
X068508Y008916D02*
X068721Y008916D01*
X068707Y008817D02*
X068501Y008817D01*
X068593Y008719D02*
X068681Y008719D01*
X069076Y008620D02*
X069675Y008620D01*
X069675Y008916D02*
X069575Y008916D01*
X069674Y009014D02*
X069675Y009014D01*
X069422Y008989D02*
X069933Y009500D01*
X071607Y009500D01*
X071705Y009599D01*
X071705Y009894D01*
X071902Y009894D02*
X071902Y009402D01*
X070552Y009704D02*
X070253Y009704D01*
X070299Y009802D02*
X070552Y009802D01*
X070552Y009901D02*
X070299Y009901D01*
X070299Y009999D02*
X070552Y009999D01*
X070552Y010098D02*
X070300Y010098D01*
X070300Y010196D02*
X070473Y010196D01*
X070375Y010295D02*
X070300Y010295D01*
X070694Y010458D02*
X070694Y012677D01*
X071283Y012677D01*
X071383Y012776D01*
X071461Y012854D01*
X071508Y012854D01*
X071508Y013241D01*
X071508Y013627D01*
X071429Y013627D01*
X071391Y013617D01*
X071357Y013597D01*
X071347Y013587D01*
X071275Y013587D01*
X071275Y013701D01*
X071206Y013770D01*
X071639Y013770D01*
X071742Y013666D01*
X071742Y013587D01*
X071669Y013587D01*
X071659Y013597D01*
X071625Y013617D01*
X071587Y013627D01*
X071508Y013627D01*
X071508Y013241D01*
X071508Y013241D01*
X071508Y013241D01*
X071508Y012854D01*
X071570Y012854D01*
X071639Y012785D01*
X072333Y012092D01*
X072333Y011796D01*
X072726Y011403D01*
X072726Y011013D01*
X072691Y011013D01*
X072555Y010876D01*
X072555Y010683D01*
X072691Y010547D01*
X072884Y010547D01*
X072913Y010576D01*
X072913Y010555D01*
X072816Y010458D01*
X071938Y010458D01*
X071938Y010581D01*
X071802Y010718D01*
X071609Y010718D01*
X071472Y010581D01*
X071472Y010458D01*
X070694Y010458D01*
X070694Y010492D02*
X071472Y010492D01*
X071481Y010590D02*
X070694Y010590D01*
X070694Y010689D02*
X071580Y010689D01*
X071830Y010689D02*
X072555Y010689D01*
X072555Y010787D02*
X070694Y010787D01*
X070694Y010886D02*
X072564Y010886D01*
X072663Y010984D02*
X070694Y010984D01*
X070694Y011083D02*
X072726Y011083D01*
X072726Y011181D02*
X070694Y011181D01*
X070694Y011280D02*
X072726Y011280D01*
X072726Y011378D02*
X070694Y011378D01*
X070694Y011477D02*
X072652Y011477D01*
X072553Y011575D02*
X070694Y011575D01*
X070694Y011674D02*
X072455Y011674D01*
X072356Y011772D02*
X070694Y011772D01*
X070694Y011871D02*
X072333Y011871D01*
X072333Y011969D02*
X070694Y011969D01*
X070694Y012068D02*
X072333Y012068D01*
X072258Y012166D02*
X070694Y012166D01*
X070694Y012265D02*
X072159Y012265D01*
X072061Y012363D02*
X070694Y012363D01*
X070694Y012462D02*
X071962Y012462D01*
X071864Y012560D02*
X070694Y012560D01*
X070694Y012659D02*
X071765Y012659D01*
X071667Y012757D02*
X071364Y012757D01*
X071508Y012856D02*
X071508Y012856D01*
X071508Y012954D02*
X071508Y012954D01*
X071508Y013053D02*
X071508Y013053D01*
X071508Y013151D02*
X071508Y013151D01*
X071508Y013250D02*
X071508Y013250D01*
X071508Y013348D02*
X071508Y013348D01*
X071508Y013447D02*
X071508Y013447D01*
X071508Y013545D02*
X071508Y013545D01*
X071666Y013742D02*
X071233Y013742D01*
X071275Y013644D02*
X071742Y013644D01*
X071902Y013733D02*
X071705Y013930D01*
X071115Y013930D01*
X070819Y014225D01*
X070426Y014225D01*
X070327Y014323D01*
X070327Y014422D01*
X070130Y014520D01*
X070229Y014914D01*
X070563Y015248D01*
X070563Y015504D01*
X070279Y015220D02*
X070233Y015220D01*
X069943Y015614D02*
X069846Y015614D01*
X069846Y015712D02*
X069943Y015712D01*
X069943Y015811D02*
X069846Y015811D01*
X069575Y015811D02*
X061567Y015811D01*
X061567Y015909D02*
X072470Y015909D01*
X072473Y015910D02*
X072435Y015900D01*
X072400Y015880D01*
X072372Y015852D01*
X072353Y015818D01*
X072343Y015780D01*
X072343Y015592D01*
X072641Y015592D01*
X072641Y015910D01*
X072473Y015910D01*
X072351Y015811D02*
X072162Y015811D01*
X072152Y015821D02*
X072117Y015841D01*
X072079Y015851D01*
X071891Y015851D01*
X071891Y015553D01*
X072209Y015553D01*
X072209Y015721D01*
X072199Y015759D01*
X072179Y015793D01*
X072152Y015821D01*
X072209Y015712D02*
X072343Y015712D01*
X072343Y015614D02*
X072209Y015614D01*
X072209Y015417D02*
X072343Y015417D01*
X072343Y015318D02*
X072209Y015318D01*
X072182Y015220D02*
X072388Y015220D01*
X072383Y015121D02*
X071625Y015121D01*
X071794Y015220D02*
X071891Y015220D01*
X071891Y015318D02*
X071794Y015318D01*
X071794Y015417D02*
X071891Y015417D01*
X071891Y015515D02*
X072641Y015515D01*
X072738Y015515D02*
X073625Y015515D01*
X073625Y015592D02*
X073327Y015592D01*
X073327Y015780D01*
X073337Y015818D01*
X073357Y015852D01*
X073385Y015880D01*
X073419Y015900D01*
X073457Y015910D01*
X073625Y015910D01*
X073625Y015592D01*
X073625Y015614D02*
X073722Y015614D01*
X073722Y015712D02*
X073625Y015712D01*
X073625Y015811D02*
X073722Y015811D01*
X073722Y015909D02*
X073625Y015909D01*
X073454Y015909D02*
X072909Y015909D01*
X073028Y015811D02*
X073335Y015811D01*
X073327Y015712D02*
X073036Y015712D01*
X073036Y015614D02*
X073327Y015614D01*
X073327Y015417D02*
X073036Y015417D01*
X073036Y015318D02*
X073327Y015318D01*
X073372Y015220D02*
X072991Y015220D01*
X072996Y015121D02*
X073367Y015121D01*
X073367Y015023D02*
X072996Y015023D01*
X072996Y014924D02*
X073367Y014924D01*
X073367Y014826D02*
X072996Y014826D01*
X072996Y014727D02*
X073367Y014727D01*
X073367Y014629D02*
X072996Y014629D01*
X072996Y014530D02*
X073367Y014530D01*
X073367Y014432D02*
X072996Y014432D01*
X072996Y014333D02*
X073367Y014333D01*
X073367Y014235D02*
X072996Y014235D01*
X072996Y014136D02*
X073367Y014136D01*
X073367Y014038D02*
X072996Y014038D01*
X072996Y013939D02*
X073359Y013939D01*
X073378Y013733D02*
X072689Y013733D01*
X072493Y013536D01*
X072493Y013241D01*
X072296Y013241D02*
X072296Y013634D01*
X072689Y014028D01*
X072689Y014225D01*
X072689Y014874D01*
X072383Y014826D02*
X072209Y014826D01*
X072209Y014924D02*
X072383Y014924D01*
X072383Y015023D02*
X072209Y015023D01*
X071804Y014717D02*
X071174Y015347D01*
X071174Y015504D01*
X071794Y015614D02*
X071891Y015614D01*
X071891Y015712D02*
X071794Y015712D01*
X071794Y015811D02*
X071891Y015811D01*
X072641Y015811D02*
X072738Y015811D01*
X072738Y015909D02*
X072641Y015909D01*
X072641Y015712D02*
X072738Y015712D01*
X072738Y015614D02*
X072641Y015614D01*
X073722Y015515D02*
X078740Y015515D01*
X078740Y015417D02*
X074020Y015417D01*
X074020Y015318D02*
X078740Y015318D01*
X078740Y015220D02*
X073975Y015220D01*
X073980Y015121D02*
X078740Y015121D01*
X078740Y015023D02*
X073980Y015023D01*
X073980Y014924D02*
X078740Y014924D01*
X078740Y014826D02*
X073980Y014826D01*
X073980Y014727D02*
X078740Y014727D01*
X078740Y014629D02*
X073980Y014629D01*
X073980Y014530D02*
X078740Y014530D01*
X078740Y014432D02*
X073980Y014432D01*
X073980Y014333D02*
X078740Y014333D01*
X078740Y014235D02*
X073980Y014235D01*
X073980Y014136D02*
X078740Y014136D01*
X078740Y014038D02*
X073980Y014038D01*
X073980Y013939D02*
X078740Y013939D01*
X078740Y013841D02*
X074821Y013841D01*
X074867Y013742D02*
X078740Y013742D01*
X078740Y013644D02*
X074867Y013644D01*
X074867Y013447D02*
X078740Y013447D01*
X078740Y013545D02*
X074549Y013545D01*
X074549Y013447D02*
X074452Y013447D01*
X074452Y013348D02*
X074549Y013348D01*
X074549Y013250D02*
X074452Y013250D01*
X074452Y013151D02*
X074549Y013151D01*
X074549Y013053D02*
X078740Y013053D01*
X078740Y013151D02*
X074867Y013151D01*
X074867Y013250D02*
X078740Y013250D01*
X078740Y013348D02*
X074867Y013348D01*
X074549Y013644D02*
X074452Y013644D01*
X074452Y013742D02*
X074549Y013742D01*
X074549Y013841D02*
X074452Y013841D01*
X074180Y013841D02*
X074095Y013841D01*
X073674Y014028D02*
X073674Y014225D01*
X073674Y014874D01*
X072383Y014727D02*
X072209Y014727D01*
X072209Y014629D02*
X072383Y014629D01*
X072383Y014530D02*
X072209Y014530D01*
X072209Y014432D02*
X072383Y014432D01*
X072383Y014333D02*
X072209Y014333D01*
X072209Y014235D02*
X072383Y014235D01*
X072383Y014136D02*
X072209Y014136D01*
X072209Y014038D02*
X072383Y014038D01*
X072375Y013939D02*
X072217Y013939D01*
X072259Y013841D02*
X072276Y013841D01*
X072099Y013831D02*
X071705Y014225D01*
X071705Y014520D01*
X071804Y014717D01*
X073378Y013733D02*
X073674Y014028D01*
X072099Y013831D02*
X072099Y013241D01*
X071902Y013241D02*
X071902Y013733D01*
X070130Y013241D02*
X070032Y013339D01*
X070130Y013241D02*
X070721Y013241D01*
X071705Y013241D02*
X071705Y012945D01*
X072493Y012158D01*
X072493Y011863D01*
X072886Y011469D01*
X072886Y010878D01*
X072788Y010780D01*
X072648Y010590D02*
X071929Y010590D01*
X071938Y010492D02*
X072850Y010492D01*
X073477Y010485D02*
X073870Y010485D01*
X074264Y010091D01*
X077217Y010091D01*
X077315Y010189D01*
X077315Y010205D01*
X076801Y010590D02*
X074286Y010590D01*
X074202Y010689D02*
X076900Y010689D01*
X076703Y010492D02*
X074385Y010492D01*
X073844Y010984D02*
X073823Y010984D01*
X073823Y011280D02*
X076841Y011280D01*
X076867Y011378D02*
X075373Y011378D01*
X075398Y011477D02*
X075473Y011477D01*
X075741Y011666D02*
X075091Y011666D01*
X074784Y011674D02*
X074729Y011674D01*
X074729Y011772D02*
X074784Y011772D01*
X074784Y011871D02*
X074729Y011871D01*
X074704Y011969D02*
X074809Y011969D01*
X074784Y012068D02*
X074729Y012068D01*
X074729Y012166D02*
X074784Y012166D01*
X074784Y012265D02*
X074729Y012265D01*
X074729Y012363D02*
X074784Y012363D01*
X074784Y012462D02*
X074729Y012462D01*
X074422Y012256D02*
X073477Y012256D01*
X073477Y012059D02*
X073969Y012059D01*
X074363Y011666D01*
X074422Y011666D01*
X074115Y011674D02*
X073823Y011674D01*
X073823Y011575D02*
X074115Y011575D01*
X074115Y011477D02*
X073823Y011477D01*
X073823Y011378D02*
X074140Y011378D01*
X074703Y011378D02*
X074809Y011378D01*
X074784Y011477D02*
X074729Y011477D01*
X074729Y011575D02*
X074784Y011575D01*
X074030Y011772D02*
X073860Y011772D01*
X073863Y011863D02*
X073477Y011863D01*
X073863Y011863D01*
X073863Y011871D02*
X073931Y011871D01*
X073477Y011863D02*
X073477Y011863D01*
X073477Y011863D01*
X073091Y011863D01*
X073091Y011941D01*
X073101Y011980D01*
X073121Y012014D01*
X073131Y012024D01*
X073131Y012292D01*
X073121Y012302D01*
X073101Y012336D01*
X073091Y012374D01*
X073091Y012453D01*
X073477Y012453D01*
X073477Y012453D01*
X073863Y012453D01*
X073863Y012416D01*
X074115Y012416D01*
X074115Y012480D01*
X073863Y012480D01*
X073863Y012453D01*
X073477Y012453D01*
X073477Y012453D01*
X073091Y012453D01*
X073091Y012480D01*
X072957Y012480D01*
X072859Y012383D01*
X072859Y012031D01*
X073091Y011800D01*
X073091Y011863D01*
X073477Y011863D01*
X073091Y011871D02*
X073020Y011871D01*
X073098Y011969D02*
X072921Y011969D01*
X072859Y012068D02*
X073131Y012068D01*
X073131Y012166D02*
X072859Y012166D01*
X072859Y012265D02*
X073131Y012265D01*
X073093Y012363D02*
X072859Y012363D01*
X072939Y012462D02*
X073091Y012462D01*
X073863Y012462D02*
X074115Y012462D01*
X074867Y012856D02*
X078740Y012856D01*
X078740Y012954D02*
X074867Y012954D01*
X076267Y012757D02*
X078740Y012757D01*
X078740Y012659D02*
X076366Y012659D01*
X076464Y012560D02*
X078740Y012560D01*
X078740Y012462D02*
X076596Y012462D01*
X076599Y012363D02*
X078740Y012363D01*
X078740Y012265D02*
X076599Y012265D01*
X076599Y012166D02*
X078740Y012166D01*
X078740Y012068D02*
X076599Y012068D01*
X076501Y011969D02*
X078740Y011969D01*
X078740Y011871D02*
X076596Y011871D01*
X076599Y011772D02*
X078740Y011772D01*
X078740Y011674D02*
X077424Y011674D01*
X077428Y011673D02*
X077364Y011683D01*
X077364Y011254D01*
X077794Y011254D01*
X077784Y011318D01*
X077760Y011389D01*
X077726Y011457D01*
X077681Y011518D01*
X077628Y011571D01*
X077567Y011616D01*
X077500Y011650D01*
X077428Y011673D01*
X077364Y011674D02*
X077267Y011674D01*
X077207Y011674D02*
X076599Y011674D01*
X076599Y011575D02*
X077008Y011575D01*
X076920Y011477D02*
X076599Y011477D01*
X076064Y011477D02*
X076008Y011477D01*
X076008Y011575D02*
X076064Y011575D01*
X076064Y011674D02*
X076008Y011674D01*
X076008Y011772D02*
X076064Y011772D01*
X076066Y011871D02*
X076006Y011871D01*
X076161Y011969D02*
X075373Y011969D01*
X075398Y011871D02*
X075475Y011871D01*
X075473Y012068D02*
X075398Y012068D01*
X075091Y012256D02*
X075741Y012256D01*
X076008Y012265D02*
X076064Y012265D01*
X076064Y012363D02*
X076008Y012363D01*
X076005Y012462D02*
X076066Y012462D01*
X076064Y012166D02*
X076008Y012166D01*
X076008Y012068D02*
X076064Y012068D01*
X077267Y011575D02*
X077364Y011575D01*
X077364Y011477D02*
X077267Y011477D01*
X077267Y011378D02*
X077364Y011378D01*
X077364Y011280D02*
X077267Y011280D01*
X077622Y011575D02*
X078740Y011575D01*
X078740Y011477D02*
X077711Y011477D01*
X077764Y011378D02*
X078740Y011378D01*
X078740Y011280D02*
X077789Y011280D01*
X073071Y009704D02*
X073055Y009704D01*
X073048Y009605D02*
X073071Y009605D01*
X073908Y009408D02*
X074301Y009408D01*
X074295Y009507D02*
X074301Y009507D01*
X074295Y009211D02*
X074301Y009211D01*
X074295Y009113D02*
X074301Y009113D01*
X074295Y009014D02*
X074301Y009014D01*
X074295Y008916D02*
X074301Y008916D01*
X074288Y008817D02*
X074301Y008817D01*
X074621Y009310D02*
X076883Y009310D01*
X076886Y009408D02*
X074621Y009408D01*
X074694Y009507D02*
X076787Y009507D01*
X077774Y008423D02*
X077844Y008423D01*
X077844Y008325D02*
X077742Y008325D01*
X077755Y008226D02*
X077844Y008226D01*
X077844Y008128D02*
X077755Y008128D01*
X077719Y008029D02*
X077844Y008029D01*
X077815Y007931D02*
X077663Y007931D01*
X077716Y007832D02*
X077565Y007832D01*
X077618Y007734D02*
X072978Y007734D01*
X072996Y007635D02*
X077204Y007635D01*
X077025Y007537D02*
X072996Y007537D01*
X070150Y008226D02*
X069870Y008226D01*
X069772Y008128D02*
X070118Y008128D01*
X070158Y008325D02*
X069969Y008325D01*
X069995Y008423D02*
X070158Y008423D01*
X070158Y008522D02*
X069995Y008522D01*
X069995Y008620D02*
X070345Y008620D01*
X070315Y008719D02*
X069995Y008719D01*
X069995Y008817D02*
X070315Y008817D01*
X070315Y009014D02*
X069995Y009014D01*
X069995Y008916D02*
X070633Y008916D01*
X070315Y009113D02*
X070068Y009113D01*
X069418Y009211D02*
X069354Y009211D01*
X068780Y009211D02*
X068449Y009211D01*
X068508Y009113D02*
X068721Y009113D01*
X067245Y009113D02*
X067110Y009113D01*
X067150Y009014D02*
X067205Y009014D01*
X067205Y008916D02*
X067150Y008916D01*
X066564Y007931D02*
X066523Y007931D01*
X067915Y007734D02*
X067924Y007734D01*
X067924Y007635D02*
X067817Y007635D01*
X067718Y007537D02*
X067924Y007537D01*
X068704Y007537D02*
X068801Y007537D01*
X068801Y007635D02*
X068704Y007635D01*
X068704Y007734D02*
X068801Y007734D01*
X068995Y007734D02*
X069100Y007734D01*
X068801Y007438D02*
X068704Y007438D01*
X068406Y007241D02*
X068332Y007241D01*
X066477Y007635D02*
X066228Y007635D01*
X066156Y007537D02*
X066323Y007537D01*
X066225Y007438D02*
X066156Y007438D01*
X062429Y008029D02*
X058551Y008029D01*
X058479Y007958D02*
X058479Y007958D01*
X058452Y007931D02*
X062331Y007931D01*
X062411Y008719D02*
X063119Y008719D01*
X063217Y008817D02*
X062509Y008817D01*
X062608Y008916D02*
X063316Y008916D01*
X063414Y009014D02*
X062706Y009014D01*
X062805Y009113D02*
X063513Y009113D01*
X063611Y009211D02*
X062826Y009211D01*
X059823Y010295D02*
X059439Y010295D01*
X059537Y010393D02*
X059823Y010393D01*
X059823Y010492D02*
X059636Y010492D01*
X059739Y010590D02*
X059823Y010590D01*
X059366Y010689D02*
X058506Y010689D01*
X058506Y010590D02*
X059281Y010590D01*
X058691Y010492D02*
X058484Y010492D01*
X058466Y010393D02*
X058592Y010393D01*
X058506Y010886D02*
X059375Y010886D01*
X059474Y010984D02*
X058506Y010984D01*
X058549Y011024D02*
X058485Y011089D01*
X058485Y011574D01*
X058549Y011638D01*
X059074Y011638D01*
X059136Y011575D01*
X059199Y011638D01*
X059605Y011638D01*
X059669Y011574D01*
X059669Y011167D01*
X059605Y011103D01*
X059199Y011103D01*
X059138Y011164D01*
X059138Y011089D01*
X059074Y011024D01*
X058549Y011024D01*
X058491Y011083D02*
X058475Y011083D01*
X058466Y011181D02*
X058485Y011181D01*
X058485Y011280D02*
X058466Y011280D01*
X058466Y011378D02*
X058485Y011378D01*
X058485Y011477D02*
X058466Y011477D01*
X058466Y011575D02*
X058487Y011575D01*
X058434Y011674D02*
X059169Y011674D01*
X059136Y011575D02*
X059136Y011575D01*
X059373Y011674D02*
X059431Y011674D01*
X059431Y011772D02*
X059373Y011772D01*
X059373Y011871D02*
X059431Y011871D01*
X059431Y011969D02*
X059823Y011969D01*
X059823Y011871D02*
X059709Y011871D01*
X059706Y011772D02*
X059823Y011772D01*
X059823Y011674D02*
X059635Y011674D01*
X059668Y011575D02*
X059823Y011575D01*
X059823Y011477D02*
X059669Y011477D01*
X059669Y011378D02*
X059823Y011378D01*
X059823Y011280D02*
X059669Y011280D01*
X059669Y011181D02*
X059823Y011181D01*
X059823Y011083D02*
X059132Y011083D01*
X059363Y011331D02*
X058811Y011331D01*
X059363Y011331D02*
X059402Y011370D01*
X059724Y010984D02*
X059823Y010984D01*
X057386Y011181D02*
X053342Y011181D01*
X053434Y011280D02*
X057386Y011280D01*
X057386Y011378D02*
X053434Y011378D01*
X053424Y011477D02*
X057386Y011477D01*
X057386Y011575D02*
X053326Y011575D01*
X053119Y011674D02*
X057417Y011674D01*
X057386Y011772D02*
X053151Y011772D01*
X053151Y011871D02*
X057386Y011871D01*
X057386Y011969D02*
X053151Y011969D01*
X053151Y012068D02*
X057386Y012068D01*
X057386Y012166D02*
X053151Y012166D01*
X053120Y012265D02*
X057417Y012265D01*
X057386Y012363D02*
X053343Y012363D01*
X053434Y012462D02*
X057386Y012462D01*
X057386Y012560D02*
X053434Y012560D01*
X053201Y012552D02*
X052611Y012552D01*
X049559Y012552D01*
X049166Y012945D01*
X048378Y012945D01*
X049097Y013536D02*
X049724Y012908D01*
X051659Y012908D01*
X051860Y013110D01*
X051860Y013504D01*
X051892Y013536D01*
X049097Y013536D01*
X049186Y013447D02*
X051860Y013447D01*
X051860Y013348D02*
X049284Y013348D01*
X049383Y013250D02*
X051860Y013250D01*
X051860Y013151D02*
X049481Y013151D01*
X049580Y013053D02*
X051803Y013053D01*
X051705Y012954D02*
X049678Y012954D01*
X047571Y013447D02*
X009002Y013447D01*
X009002Y013545D02*
X013133Y013545D01*
X013034Y013644D02*
X009002Y013644D01*
X009002Y013742D02*
X012936Y013742D01*
X012837Y013841D02*
X009002Y013841D01*
X009002Y013939D02*
X012748Y013939D01*
X012748Y014038D02*
X009002Y014038D01*
X008546Y014038D02*
X008502Y014038D01*
X008502Y014054D02*
X008438Y014118D01*
X008110Y014118D01*
X008046Y014054D01*
X008046Y013100D01*
X007988Y013042D01*
X007988Y012849D01*
X008124Y012712D01*
X008317Y012712D01*
X008454Y012849D01*
X008454Y013042D01*
X008451Y013045D01*
X008502Y013097D01*
X008502Y014054D01*
X008502Y013939D02*
X008546Y013939D01*
X008546Y013841D02*
X008502Y013841D01*
X008502Y013742D02*
X008546Y013742D01*
X008546Y013644D02*
X008502Y013644D01*
X008502Y013545D02*
X008546Y013545D01*
X008546Y013447D02*
X008502Y013447D01*
X008502Y013348D02*
X008546Y013348D01*
X008546Y013250D02*
X008502Y013250D01*
X008502Y013151D02*
X008546Y013151D01*
X008590Y013053D02*
X008458Y013053D01*
X008454Y012954D02*
X008614Y012954D01*
X008674Y012856D02*
X008454Y012856D01*
X008363Y012757D02*
X008773Y012757D01*
X008871Y012659D02*
X007356Y012659D01*
X007434Y012580D02*
X006445Y013570D01*
X006445Y013670D01*
X006443Y013672D01*
X006443Y014054D01*
X006379Y014118D01*
X006227Y014118D01*
X006227Y014449D01*
X006385Y014449D01*
X006450Y014513D01*
X006450Y015314D01*
X006385Y015379D01*
X005664Y015379D01*
X005600Y015314D01*
X005600Y014513D01*
X005664Y014449D01*
X005687Y014449D01*
X005687Y014118D01*
X005551Y014118D01*
X005487Y014054D01*
X005487Y013805D01*
X005443Y013805D01*
X005443Y014054D01*
X005379Y014118D01*
X005051Y014118D01*
X004987Y014054D01*
X004987Y013672D01*
X004985Y013670D01*
X004985Y013480D01*
X004987Y013478D01*
X004987Y013097D01*
X005051Y013032D01*
X005379Y013032D01*
X005443Y013097D01*
X005443Y013345D01*
X005487Y013345D01*
X005487Y013097D01*
X005551Y013032D01*
X005879Y013032D01*
X005943Y013097D01*
X005943Y013320D01*
X005987Y013320D01*
X005987Y013097D01*
X006051Y013032D01*
X006379Y013032D01*
X006443Y013097D01*
X006443Y013119D01*
X007114Y012448D01*
X007114Y012071D01*
X007110Y012071D01*
X007046Y012007D01*
X007046Y011049D01*
X007110Y010985D01*
X007438Y010985D01*
X007502Y011049D01*
X007502Y012007D01*
X007438Y012071D01*
X007434Y012071D01*
X007434Y012580D01*
X007434Y012560D02*
X009462Y012560D01*
X009500Y012748D02*
X009008Y012748D01*
X008774Y012983D01*
X008774Y013575D01*
X009002Y013348D02*
X047473Y013348D01*
X046586Y012462D02*
X043112Y012462D01*
X043173Y012363D02*
X046488Y012363D01*
X046389Y012265D02*
X043173Y012265D01*
X043173Y012166D02*
X046291Y012166D01*
X046192Y012068D02*
X043173Y012068D01*
X043173Y011969D02*
X046094Y011969D01*
X045995Y011871D02*
X043129Y011871D01*
X043112Y011674D02*
X045798Y011674D01*
X045700Y011575D02*
X043173Y011575D01*
X041525Y012659D02*
X010210Y012659D01*
X010091Y012552D02*
X010288Y012355D01*
X010288Y012059D01*
X010485Y011863D01*
X011370Y011863D01*
X011961Y011272D01*
X011961Y008418D01*
X011588Y008128D02*
X000300Y008128D01*
X000300Y008226D02*
X011490Y008226D01*
X011476Y008325D02*
X000300Y008325D01*
X000300Y008423D02*
X011476Y008423D01*
X011476Y008522D02*
X000300Y008522D01*
X000300Y008620D02*
X011476Y008620D01*
X011476Y008719D02*
X000300Y008719D01*
X000300Y008817D02*
X011476Y008817D01*
X011476Y008916D02*
X000300Y008916D01*
X000300Y009014D02*
X011476Y009014D01*
X011476Y009113D02*
X000300Y009113D01*
X000300Y009211D02*
X011476Y009211D01*
X011476Y009310D02*
X000300Y009310D01*
X000300Y009408D02*
X007952Y009408D01*
X007878Y009507D02*
X000300Y009507D01*
X000300Y009605D02*
X007874Y009605D01*
X007874Y009704D02*
X000300Y009704D01*
X000300Y009802D02*
X008172Y009802D01*
X008269Y009802D02*
X008763Y009802D01*
X008860Y009802D02*
X009372Y009802D01*
X009329Y009901D02*
X009158Y009901D01*
X009156Y009999D02*
X009292Y009999D01*
X009292Y010098D02*
X009092Y010098D01*
X009118Y010196D02*
X009294Y010196D01*
X009323Y010295D02*
X009118Y010295D01*
X009118Y010393D02*
X009232Y010393D01*
X009232Y010492D02*
X009118Y010492D01*
X009118Y010590D02*
X009232Y010590D01*
X009232Y010689D02*
X009117Y010689D01*
X009140Y010787D02*
X008964Y010787D01*
X008964Y010886D02*
X009115Y010886D01*
X009115Y010984D02*
X008964Y010984D01*
X009002Y011083D02*
X009115Y011083D01*
X009115Y011181D02*
X009002Y011181D01*
X009002Y011280D02*
X009115Y011280D01*
X009729Y011280D02*
X009863Y011280D01*
X009863Y011181D02*
X009729Y011181D01*
X009729Y011083D02*
X009863Y011083D01*
X009863Y010984D02*
X009729Y010984D01*
X009729Y010886D02*
X009863Y010886D01*
X009889Y010787D02*
X009703Y010787D01*
X009612Y010689D02*
X011476Y010689D01*
X011476Y010787D02*
X010451Y010787D01*
X010477Y010886D02*
X011476Y010886D01*
X011476Y010984D02*
X010477Y010984D01*
X010477Y011083D02*
X011476Y011083D01*
X011389Y011181D02*
X010477Y011181D01*
X010477Y011280D02*
X011291Y011280D01*
X011476Y010590D02*
X009906Y010590D01*
X009685Y010590D02*
X009612Y010590D01*
X010107Y010492D02*
X011476Y010492D01*
X011476Y010393D02*
X010206Y010393D01*
X010256Y010295D02*
X011476Y010295D01*
X011476Y010196D02*
X010297Y010196D01*
X010299Y010098D02*
X011476Y010098D01*
X011476Y009999D02*
X010299Y009999D01*
X010262Y009901D02*
X011476Y009901D01*
X011476Y009802D02*
X010219Y009802D01*
X010121Y009704D02*
X011476Y009704D01*
X011476Y009605D02*
X009940Y009605D01*
X009652Y009605D02*
X009158Y009605D01*
X009158Y009520D02*
X009158Y009708D01*
X008860Y009708D01*
X008860Y009390D01*
X009028Y009390D01*
X009066Y009400D01*
X009100Y009420D01*
X009128Y009448D01*
X009148Y009482D01*
X009158Y009520D01*
X009155Y009507D02*
X011476Y009507D01*
X011476Y009408D02*
X009081Y009408D01*
X008860Y009408D02*
X008763Y009408D01*
X008763Y009507D02*
X008860Y009507D01*
X008860Y009605D02*
X008763Y009605D01*
X008763Y009704D02*
X008860Y009704D01*
X009158Y009704D02*
X009470Y009704D01*
X008542Y009408D02*
X008490Y009408D01*
X008269Y009408D02*
X008172Y009408D01*
X008172Y009507D02*
X008269Y009507D01*
X008269Y009605D02*
X008172Y009605D01*
X008172Y009704D02*
X008269Y009704D01*
X007874Y009901D02*
X005610Y009901D01*
X005565Y009883D02*
X005750Y009959D01*
X005892Y010101D01*
X005969Y010286D01*
X005969Y010486D01*
X005892Y010672D01*
X005750Y010813D01*
X005735Y010820D01*
X005735Y010985D01*
X005879Y010985D01*
X005943Y011049D01*
X005943Y011298D01*
X005987Y011298D01*
X005987Y011049D01*
X006051Y010985D01*
X006379Y010985D01*
X006443Y011049D01*
X006443Y011431D01*
X006445Y011433D01*
X006445Y011623D01*
X006443Y011625D01*
X006443Y012007D01*
X006379Y012071D01*
X006051Y012071D01*
X005987Y012007D01*
X005987Y011758D01*
X005943Y011758D01*
X005943Y012007D01*
X005879Y012071D01*
X005551Y012071D01*
X005487Y012007D01*
X005487Y011758D01*
X005443Y011758D01*
X005443Y012007D01*
X005379Y012071D01*
X005051Y012071D01*
X004987Y012007D01*
X004987Y011758D01*
X004943Y011758D01*
X004943Y012007D01*
X004879Y012071D01*
X004551Y012071D01*
X004487Y012007D01*
X004487Y011625D01*
X004485Y011623D01*
X004485Y011433D01*
X004487Y011431D01*
X004487Y011049D01*
X004551Y010985D01*
X004879Y010985D01*
X004943Y011049D01*
X004943Y011298D01*
X004987Y011298D01*
X004987Y011049D01*
X005051Y010985D01*
X005195Y010985D01*
X005195Y010820D01*
X005180Y010813D01*
X005038Y010672D01*
X004961Y010486D01*
X004961Y010286D01*
X005038Y010101D01*
X005180Y009959D01*
X005365Y009883D01*
X005565Y009883D01*
X005320Y009901D02*
X003545Y009901D01*
X003508Y009882D02*
X003585Y009921D01*
X003654Y009972D01*
X003714Y010032D01*
X003765Y010101D01*
X003803Y010178D01*
X003830Y010259D01*
X003842Y010336D01*
X003350Y010336D01*
X003350Y010436D01*
X003842Y010436D01*
X003830Y010514D01*
X003803Y010595D01*
X003765Y010671D01*
X003714Y010740D01*
X003654Y010801D01*
X003585Y010851D01*
X003508Y010890D01*
X003427Y010917D01*
X003350Y010929D01*
X003350Y010436D01*
X003250Y010436D01*
X003250Y010929D01*
X003172Y010917D01*
X003091Y010890D01*
X003015Y010851D01*
X002945Y010801D01*
X002885Y010740D01*
X002835Y010671D01*
X002796Y010595D01*
X002769Y010514D01*
X002757Y010436D01*
X003250Y010436D01*
X003250Y010336D01*
X003350Y010336D01*
X003350Y009844D01*
X003427Y009856D01*
X003508Y009882D01*
X003350Y009901D02*
X003250Y009901D01*
X003250Y009844D02*
X003250Y010336D01*
X002757Y010336D01*
X002769Y010259D01*
X002796Y010178D01*
X002835Y010101D01*
X002885Y010032D01*
X002945Y009972D01*
X003015Y009921D01*
X003091Y009882D01*
X003172Y009856D01*
X003250Y009844D01*
X003250Y009999D02*
X003350Y009999D01*
X003350Y010098D02*
X003250Y010098D01*
X003250Y010196D02*
X003350Y010196D01*
X003350Y010295D02*
X003250Y010295D01*
X003250Y010393D02*
X000300Y010393D01*
X000300Y010295D02*
X002764Y010295D01*
X002790Y010196D02*
X000300Y010196D01*
X000300Y010098D02*
X002837Y010098D01*
X002917Y009999D02*
X000300Y009999D01*
X000300Y009901D02*
X003054Y009901D01*
X003682Y009999D02*
X005139Y009999D01*
X005041Y010098D02*
X003762Y010098D01*
X003810Y010196D02*
X004998Y010196D01*
X004961Y010295D02*
X003836Y010295D01*
X003833Y010492D02*
X004964Y010492D01*
X004961Y010393D02*
X003350Y010393D01*
X003350Y010492D02*
X003250Y010492D01*
X003250Y010590D02*
X003350Y010590D01*
X003350Y010689D02*
X003250Y010689D01*
X003250Y010787D02*
X003350Y010787D01*
X003350Y010886D02*
X003250Y010886D01*
X003083Y010886D02*
X000300Y010886D01*
X000300Y010984D02*
X005195Y010984D01*
X005195Y010886D02*
X003516Y010886D01*
X003667Y010787D02*
X005154Y010787D01*
X005055Y010689D02*
X003752Y010689D01*
X003805Y010590D02*
X005004Y010590D01*
X005776Y010787D02*
X006764Y010787D01*
X006850Y010701D02*
X006961Y010590D01*
X007709Y010590D01*
X007820Y010701D01*
X007964Y010845D01*
X007964Y011011D01*
X008002Y011049D01*
X008002Y012007D01*
X007938Y012071D01*
X007610Y012071D01*
X007546Y012007D01*
X007546Y011049D01*
X007584Y011011D01*
X007584Y011002D01*
X007552Y010970D01*
X007118Y010970D01*
X007033Y011055D01*
X007033Y012040D01*
X006922Y012151D01*
X006528Y012545D01*
X005150Y012545D01*
X004905Y012790D01*
X004905Y013058D01*
X004943Y013097D01*
X004943Y014054D01*
X004879Y014118D01*
X004551Y014118D01*
X004487Y014054D01*
X004487Y013097D01*
X004525Y013058D01*
X004525Y012632D01*
X004881Y012276D01*
X004993Y012165D01*
X006371Y012165D01*
X006653Y011882D01*
X006653Y010898D01*
X006850Y010701D01*
X006862Y010689D02*
X005875Y010689D01*
X005926Y010590D02*
X006961Y010590D01*
X007710Y010590D02*
X007914Y010590D01*
X007914Y010492D02*
X005966Y010492D01*
X005969Y010393D02*
X007914Y010393D01*
X007914Y010295D02*
X005969Y010295D01*
X005932Y010196D02*
X007914Y010196D01*
X007941Y010098D02*
X005889Y010098D01*
X005791Y009999D02*
X007876Y009999D01*
X007915Y010689D02*
X007808Y010689D01*
X007907Y010787D02*
X008084Y010787D01*
X008084Y010886D02*
X007964Y010886D01*
X007964Y010984D02*
X008084Y010984D01*
X008046Y011083D02*
X008002Y011083D01*
X008002Y011181D02*
X008046Y011181D01*
X008046Y011280D02*
X008002Y011280D01*
X008002Y011378D02*
X008046Y011378D01*
X008046Y011477D02*
X008002Y011477D01*
X008002Y011575D02*
X008046Y011575D01*
X008046Y011674D02*
X008002Y011674D01*
X008002Y011772D02*
X008046Y011772D01*
X008046Y011871D02*
X008002Y011871D01*
X008002Y011969D02*
X008046Y011969D01*
X008084Y012068D02*
X007941Y012068D01*
X008084Y012166D02*
X007434Y012166D01*
X007441Y012068D02*
X007607Y012068D01*
X007546Y011969D02*
X007502Y011969D01*
X007502Y011871D02*
X007546Y011871D01*
X007546Y011772D02*
X007502Y011772D01*
X007502Y011674D02*
X007546Y011674D01*
X007546Y011575D02*
X007502Y011575D01*
X007502Y011477D02*
X007546Y011477D01*
X007546Y011378D02*
X007502Y011378D01*
X007502Y011280D02*
X007546Y011280D01*
X007546Y011181D02*
X007502Y011181D01*
X007502Y011083D02*
X007546Y011083D01*
X007566Y010984D02*
X007104Y010984D01*
X007046Y011083D02*
X007033Y011083D01*
X007033Y011181D02*
X007046Y011181D01*
X007033Y011280D02*
X007046Y011280D01*
X007033Y011378D02*
X007046Y011378D01*
X007033Y011477D02*
X007046Y011477D01*
X007033Y011575D02*
X007046Y011575D01*
X007033Y011674D02*
X007046Y011674D01*
X007033Y011772D02*
X007046Y011772D01*
X007033Y011871D02*
X007046Y011871D01*
X007033Y011969D02*
X007046Y011969D01*
X007005Y012068D02*
X007107Y012068D01*
X007114Y012166D02*
X006906Y012166D01*
X006808Y012265D02*
X007114Y012265D01*
X007114Y012363D02*
X006709Y012363D01*
X006611Y012462D02*
X007100Y012462D01*
X007001Y012560D02*
X005134Y012560D01*
X005036Y012659D02*
X006903Y012659D01*
X006804Y012757D02*
X004937Y012757D01*
X004905Y012856D02*
X006706Y012856D01*
X006607Y012954D02*
X004905Y012954D01*
X004905Y013053D02*
X005030Y013053D01*
X004987Y013151D02*
X004943Y013151D01*
X004943Y013250D02*
X004987Y013250D01*
X004987Y013348D02*
X004943Y013348D01*
X004943Y013447D02*
X004987Y013447D01*
X004985Y013545D02*
X004943Y013545D01*
X004943Y013644D02*
X004985Y013644D01*
X004987Y013742D02*
X004943Y013742D01*
X004943Y013841D02*
X004987Y013841D01*
X004987Y013939D02*
X004943Y013939D01*
X004943Y014038D02*
X004987Y014038D01*
X005443Y014038D02*
X005487Y014038D01*
X005487Y013939D02*
X005443Y013939D01*
X005443Y013841D02*
X005487Y013841D01*
X006215Y013575D02*
X006215Y013573D01*
X007274Y012514D01*
X007274Y011528D01*
X006653Y011575D02*
X006445Y011575D01*
X006445Y011477D02*
X006653Y011477D01*
X006653Y011378D02*
X006443Y011378D01*
X006443Y011280D02*
X006653Y011280D01*
X006653Y011181D02*
X006443Y011181D01*
X006443Y011083D02*
X006653Y011083D01*
X006653Y010984D02*
X005735Y010984D01*
X005735Y010886D02*
X006665Y010886D01*
X005987Y011083D02*
X005943Y011083D01*
X005943Y011181D02*
X005987Y011181D01*
X005987Y011280D02*
X005943Y011280D01*
X004987Y011280D02*
X004943Y011280D01*
X004943Y011181D02*
X004987Y011181D01*
X004987Y011083D02*
X004943Y011083D01*
X004487Y011083D02*
X000300Y011083D01*
X000300Y011181D02*
X004487Y011181D01*
X004487Y011280D02*
X000300Y011280D01*
X000300Y011378D02*
X004487Y011378D01*
X004485Y011477D02*
X000300Y011477D01*
X000300Y011575D02*
X004485Y011575D01*
X004487Y011674D02*
X000300Y011674D01*
X000300Y011772D02*
X004487Y011772D01*
X004487Y011871D02*
X000300Y011871D01*
X000300Y011969D02*
X004487Y011969D01*
X004548Y012068D02*
X000300Y012068D01*
X000300Y012166D02*
X004991Y012166D01*
X005048Y012068D02*
X004882Y012068D01*
X004943Y011969D02*
X004987Y011969D01*
X004987Y011871D02*
X004943Y011871D01*
X004943Y011772D02*
X004987Y011772D01*
X005443Y011772D02*
X005487Y011772D01*
X005487Y011871D02*
X005443Y011871D01*
X005443Y011969D02*
X005487Y011969D01*
X005548Y012068D02*
X005382Y012068D01*
X005882Y012068D02*
X006048Y012068D01*
X005987Y011969D02*
X005943Y011969D01*
X005943Y011871D02*
X005987Y011871D01*
X005987Y011772D02*
X005943Y011772D01*
X006443Y011772D02*
X006653Y011772D01*
X006653Y011674D02*
X006443Y011674D01*
X006443Y011871D02*
X006653Y011871D01*
X006566Y011969D02*
X006443Y011969D01*
X006467Y012068D02*
X006382Y012068D01*
X007434Y012265D02*
X008084Y012265D01*
X008158Y012363D02*
X007434Y012363D01*
X007434Y012462D02*
X008256Y012462D01*
X008079Y012757D02*
X007257Y012757D01*
X007159Y012856D02*
X007988Y012856D01*
X007988Y012954D02*
X007060Y012954D01*
X007098Y013002D02*
X007136Y012992D01*
X007265Y012992D01*
X007265Y013566D01*
X007283Y013566D01*
X007283Y012992D01*
X007412Y012992D01*
X007450Y013002D01*
X007484Y013022D01*
X007512Y013050D01*
X007532Y013084D01*
X007542Y013122D01*
X007542Y013566D01*
X007283Y013566D01*
X007283Y013584D01*
X007542Y013584D01*
X007542Y014028D01*
X007532Y014066D01*
X007512Y014100D01*
X007484Y014128D01*
X007450Y014148D01*
X007412Y014158D01*
X007283Y014158D01*
X007283Y013584D01*
X007265Y013584D01*
X007265Y013566D01*
X007006Y013566D01*
X007006Y013122D01*
X007016Y013084D01*
X007036Y013050D01*
X007064Y013022D01*
X007098Y013002D01*
X007034Y013053D02*
X006962Y013053D01*
X007006Y013151D02*
X006863Y013151D01*
X006765Y013250D02*
X007006Y013250D01*
X007006Y013348D02*
X006666Y013348D01*
X006568Y013447D02*
X007006Y013447D01*
X007006Y013545D02*
X006469Y013545D01*
X006445Y013644D02*
X007006Y013644D01*
X007006Y013584D02*
X007265Y013584D01*
X007265Y014158D01*
X007136Y014158D01*
X007098Y014148D01*
X007064Y014128D01*
X007036Y014100D01*
X007016Y014066D01*
X007006Y014028D01*
X007006Y013584D01*
X007006Y013742D02*
X006443Y013742D01*
X006443Y013841D02*
X007006Y013841D01*
X007006Y013939D02*
X006443Y013939D01*
X006443Y014038D02*
X007009Y014038D01*
X007078Y014136D02*
X006227Y014136D01*
X006227Y014235D02*
X006862Y014235D01*
X006849Y014243D02*
X006883Y014223D01*
X006922Y014213D01*
X007090Y014213D01*
X007090Y014531D01*
X007187Y014531D01*
X007187Y014213D01*
X007355Y014213D01*
X007393Y014223D01*
X007427Y014243D01*
X007455Y014270D01*
X007460Y014279D01*
X007467Y014272D01*
X007614Y014272D01*
X007614Y014118D01*
X007610Y014118D01*
X007546Y014054D01*
X007546Y013097D01*
X007610Y013032D01*
X007938Y013032D01*
X008002Y013097D01*
X008002Y014054D01*
X007938Y014118D01*
X007934Y014118D01*
X007934Y014272D01*
X007991Y014272D01*
X008024Y014305D01*
X008077Y014253D01*
X008562Y014253D01*
X008626Y014317D01*
X008626Y014841D01*
X008575Y014893D01*
X008608Y014912D01*
X008636Y014940D01*
X008656Y014974D01*
X008666Y015012D01*
X008666Y015200D01*
X008368Y015200D01*
X008368Y015297D01*
X008666Y015297D01*
X008666Y015485D01*
X008656Y015523D01*
X008636Y015557D01*
X008608Y015585D01*
X008574Y015605D01*
X008536Y015615D01*
X008368Y015615D01*
X008368Y015297D01*
X008271Y015297D01*
X008271Y015615D01*
X008103Y015615D01*
X008065Y015605D01*
X008030Y015585D01*
X008002Y015557D01*
X007998Y015549D01*
X007991Y015555D01*
X007467Y015555D01*
X007433Y015522D01*
X007381Y015575D01*
X006896Y015575D01*
X006831Y015511D01*
X006831Y014986D01*
X006883Y014935D01*
X006849Y014916D01*
X006821Y014888D01*
X006802Y014854D01*
X006791Y014815D01*
X006791Y014628D01*
X007090Y014628D01*
X007090Y014531D01*
X006791Y014531D01*
X006791Y014343D01*
X006802Y014305D01*
X006821Y014270D01*
X006849Y014243D01*
X006794Y014333D02*
X006227Y014333D01*
X006227Y014432D02*
X006791Y014432D01*
X006791Y014530D02*
X006450Y014530D01*
X006450Y014629D02*
X006791Y014629D01*
X006791Y014727D02*
X006450Y014727D01*
X006450Y014826D02*
X006794Y014826D01*
X006864Y014924D02*
X006450Y014924D01*
X006450Y015023D02*
X006831Y015023D01*
X006831Y015121D02*
X006450Y015121D01*
X006450Y015220D02*
X006831Y015220D01*
X006831Y015318D02*
X006446Y015318D01*
X006831Y015417D02*
X005246Y015417D01*
X005240Y015419D02*
X004955Y015419D01*
X004955Y014964D01*
X004855Y014964D01*
X004855Y015419D01*
X004570Y015419D01*
X004532Y015408D01*
X004498Y015389D01*
X004470Y015361D01*
X004450Y015327D01*
X004440Y015288D01*
X004440Y014964D01*
X004855Y014964D01*
X004855Y014864D01*
X004440Y014864D01*
X004440Y014539D01*
X004450Y014501D01*
X004470Y014467D01*
X004498Y014439D01*
X004532Y014419D01*
X004570Y014409D01*
X004855Y014409D01*
X004855Y014864D01*
X004955Y014864D01*
X004955Y014964D01*
X005370Y014964D01*
X005370Y015288D01*
X005360Y015327D01*
X005340Y015361D01*
X005312Y015389D01*
X005278Y015408D01*
X005240Y015419D01*
X005362Y015318D02*
X005604Y015318D01*
X005600Y015220D02*
X005370Y015220D01*
X005370Y015121D02*
X005600Y015121D01*
X005600Y015023D02*
X005370Y015023D01*
X005370Y014864D02*
X004955Y014864D01*
X004955Y014409D01*
X005240Y014409D01*
X005278Y014419D01*
X005312Y014439D01*
X005340Y014467D01*
X005360Y014501D01*
X005370Y014539D01*
X005370Y014864D01*
X005370Y014826D02*
X005600Y014826D01*
X005600Y014924D02*
X004955Y014924D01*
X004955Y014826D02*
X004855Y014826D01*
X004855Y014924D02*
X000300Y014924D01*
X000300Y014826D02*
X004440Y014826D01*
X004440Y014727D02*
X000300Y014727D01*
X000300Y014629D02*
X004440Y014629D01*
X004442Y014530D02*
X000300Y014530D01*
X000300Y014432D02*
X004510Y014432D01*
X004855Y014432D02*
X004955Y014432D01*
X004955Y014530D02*
X004855Y014530D01*
X004855Y014629D02*
X004955Y014629D01*
X004955Y014727D02*
X004855Y014727D01*
X005370Y014727D02*
X005600Y014727D01*
X005600Y014629D02*
X005370Y014629D01*
X005368Y014530D02*
X005600Y014530D01*
X005687Y014432D02*
X005300Y014432D01*
X005687Y014333D02*
X000300Y014333D01*
X000300Y014235D02*
X005687Y014235D01*
X005687Y014136D02*
X000300Y014136D01*
X000300Y014038D02*
X004487Y014038D01*
X004487Y013939D02*
X000300Y013939D01*
X000300Y013841D02*
X004487Y013841D01*
X004487Y013742D02*
X000300Y013742D01*
X000300Y013644D02*
X004487Y013644D01*
X004487Y013545D02*
X000300Y013545D01*
X000300Y013447D02*
X004487Y013447D01*
X004487Y013348D02*
X000300Y013348D01*
X000300Y013250D02*
X004487Y013250D01*
X004487Y013151D02*
X000300Y013151D01*
X000300Y013053D02*
X004525Y013053D01*
X004525Y012954D02*
X000300Y012954D01*
X000300Y012856D02*
X004525Y012856D01*
X004525Y012757D02*
X000300Y012757D01*
X000300Y012659D02*
X004525Y012659D01*
X004597Y012560D02*
X000300Y012560D01*
X000300Y012462D02*
X004695Y012462D01*
X004794Y012363D02*
X000300Y012363D01*
X000300Y012265D02*
X004892Y012265D01*
X005399Y013053D02*
X005530Y013053D01*
X005487Y013151D02*
X005443Y013151D01*
X005443Y013250D02*
X005487Y013250D01*
X005943Y013250D02*
X005987Y013250D01*
X005987Y013151D02*
X005943Y013151D01*
X005899Y013053D02*
X006030Y013053D01*
X006399Y013053D02*
X006509Y013053D01*
X007265Y013053D02*
X007283Y013053D01*
X007283Y013151D02*
X007265Y013151D01*
X007265Y013250D02*
X007283Y013250D01*
X007283Y013348D02*
X007265Y013348D01*
X007265Y013447D02*
X007283Y013447D01*
X007283Y013545D02*
X007265Y013545D01*
X007265Y013644D02*
X007283Y013644D01*
X007283Y013742D02*
X007265Y013742D01*
X007265Y013841D02*
X007283Y013841D01*
X007283Y013939D02*
X007265Y013939D01*
X007265Y014038D02*
X007283Y014038D01*
X007283Y014136D02*
X007265Y014136D01*
X007187Y014235D02*
X007090Y014235D01*
X007090Y014333D02*
X007187Y014333D01*
X007187Y014432D02*
X007090Y014432D01*
X007090Y014530D02*
X007187Y014530D01*
X007414Y014235D02*
X007614Y014235D01*
X007614Y014136D02*
X007470Y014136D01*
X007539Y014038D02*
X007546Y014038D01*
X007542Y013939D02*
X007546Y013939D01*
X007542Y013841D02*
X007546Y013841D01*
X007542Y013742D02*
X007546Y013742D01*
X007542Y013644D02*
X007546Y013644D01*
X007542Y013545D02*
X007546Y013545D01*
X007542Y013447D02*
X007546Y013447D01*
X007542Y013348D02*
X007546Y013348D01*
X007542Y013250D02*
X007546Y013250D01*
X007542Y013151D02*
X007546Y013151D01*
X007514Y013053D02*
X007590Y013053D01*
X007958Y013053D02*
X007999Y013053D01*
X008002Y013151D02*
X008046Y013151D01*
X008046Y013250D02*
X008002Y013250D01*
X008002Y013348D02*
X008046Y013348D01*
X008046Y013447D02*
X008002Y013447D01*
X008002Y013545D02*
X008046Y013545D01*
X008046Y013644D02*
X008002Y013644D01*
X008002Y013742D02*
X008046Y013742D01*
X008046Y013841D02*
X008002Y013841D01*
X008002Y013939D02*
X008046Y013939D01*
X008046Y014038D02*
X008002Y014038D01*
X007934Y014136D02*
X012748Y014136D01*
X012748Y014235D02*
X007934Y014235D01*
X007774Y014467D02*
X007729Y014520D01*
X007729Y014579D01*
X008319Y014579D01*
X008626Y014530D02*
X012748Y014530D01*
X012748Y014432D02*
X008626Y014432D01*
X008626Y014333D02*
X012748Y014333D01*
X012748Y014629D02*
X008626Y014629D01*
X008626Y014727D02*
X012748Y014727D01*
X012748Y014826D02*
X008626Y014826D01*
X008621Y014924D02*
X012748Y014924D01*
X012748Y015023D02*
X008666Y015023D01*
X008666Y015121D02*
X012748Y015121D01*
X012748Y015220D02*
X008368Y015220D01*
X008368Y015318D02*
X008271Y015318D01*
X008271Y015417D02*
X008368Y015417D01*
X008368Y015515D02*
X008271Y015515D01*
X008271Y015614D02*
X008368Y015614D01*
X008540Y015614D02*
X012748Y015614D01*
X012748Y015712D02*
X000300Y015712D01*
X000300Y015614D02*
X008099Y015614D01*
X008658Y015515D02*
X012748Y015515D01*
X012748Y015417D02*
X008666Y015417D01*
X008666Y015318D02*
X012748Y015318D01*
X012748Y015811D02*
X000300Y015811D01*
X000300Y015909D02*
X012748Y015909D01*
X012748Y016008D02*
X000300Y016008D01*
X000300Y016106D02*
X012748Y016106D01*
X012748Y016205D02*
X000300Y016205D01*
X000300Y016303D02*
X012748Y016303D01*
X012748Y016402D02*
X000300Y016402D01*
X000300Y016500D02*
X012748Y016500D01*
X012748Y016599D02*
X000300Y016599D01*
X000300Y016697D02*
X012748Y016697D01*
X012748Y016796D02*
X000300Y016796D01*
X000300Y016894D02*
X012748Y016894D01*
X012748Y016993D02*
X000300Y016993D01*
X000300Y017091D02*
X012748Y017091D01*
X012748Y017190D02*
X000300Y017190D01*
X000300Y017288D02*
X012748Y017288D01*
X012748Y017387D02*
X000300Y017387D01*
X000300Y017485D02*
X012748Y017485D01*
X012748Y017584D02*
X000300Y017584D01*
X000300Y017682D02*
X012748Y017682D01*
X012748Y017781D02*
X000300Y017781D01*
X000300Y017879D02*
X012748Y017879D01*
X012748Y017978D02*
X000300Y017978D01*
X000300Y018076D02*
X012748Y018076D01*
X012748Y018175D02*
X000300Y018175D01*
X000300Y018273D02*
X001556Y018273D01*
X001570Y018268D02*
X001880Y018268D01*
X002167Y018386D01*
X002386Y018606D01*
X002505Y018893D01*
X002505Y019203D01*
X002386Y019489D01*
X002167Y019709D01*
X001880Y019828D01*
X001570Y019828D01*
X001283Y019709D01*
X001064Y019489D01*
X000945Y019203D01*
X000945Y018893D01*
X001064Y018606D01*
X001283Y018386D01*
X001570Y018268D01*
X001318Y018372D02*
X000300Y018372D01*
X000300Y018470D02*
X001199Y018470D01*
X001101Y018569D02*
X000300Y018569D01*
X000300Y018667D02*
X001038Y018667D01*
X000997Y018766D02*
X000300Y018766D01*
X000300Y018864D02*
X000957Y018864D01*
X000945Y018963D02*
X000300Y018963D01*
X000301Y019061D02*
X000945Y019061D01*
X000945Y019160D02*
X000307Y019160D01*
X000319Y019258D02*
X000968Y019258D01*
X001009Y019357D02*
X000345Y019357D01*
X000372Y019455D02*
X001050Y019455D01*
X001128Y019554D02*
X000398Y019554D01*
X000443Y019652D02*
X001227Y019652D01*
X001385Y019751D02*
X000500Y019751D01*
X000558Y019849D02*
X012734Y019849D01*
X012748Y019751D02*
X002065Y019751D01*
X002223Y019652D02*
X012748Y019652D01*
X012748Y019554D02*
X002321Y019554D01*
X002400Y019455D02*
X012748Y019455D01*
X012748Y019357D02*
X002441Y019357D01*
X002482Y019258D02*
X012748Y019258D01*
X012748Y019160D02*
X002505Y019160D01*
X002505Y019061D02*
X012748Y019061D01*
X012748Y018963D02*
X002505Y018963D01*
X002493Y018864D02*
X012748Y018864D01*
X012748Y018766D02*
X002452Y018766D01*
X002412Y018667D02*
X012748Y018667D01*
X012748Y018569D02*
X002349Y018569D01*
X002251Y018470D02*
X012748Y018470D01*
X012748Y018372D02*
X002132Y018372D01*
X001894Y018273D02*
X012748Y018273D01*
X012636Y019948D02*
X000657Y019948D01*
X000755Y020046D02*
X012537Y020046D01*
X012439Y020145D02*
X000854Y020145D01*
X000971Y020243D02*
X012340Y020243D01*
X012242Y020342D02*
X001141Y020342D01*
X001465Y020440D02*
X012143Y020440D01*
X006836Y015515D02*
X000300Y015515D01*
X000300Y015417D02*
X004564Y015417D01*
X004448Y015318D02*
X000300Y015318D01*
X000300Y015220D02*
X004440Y015220D01*
X004440Y015121D02*
X000300Y015121D01*
X000300Y015023D02*
X004440Y015023D01*
X004855Y015023D02*
X004955Y015023D01*
X004955Y015121D02*
X004855Y015121D01*
X004855Y015220D02*
X004955Y015220D01*
X004955Y015318D02*
X004855Y015318D01*
X004855Y015417D02*
X004955Y015417D01*
X007774Y014467D02*
X007774Y013575D01*
X008274Y013575D02*
X008274Y012998D01*
X008221Y012945D01*
X008958Y013053D02*
X041665Y013053D01*
X041567Y012954D02*
X009029Y012954D01*
X009002Y013151D02*
X041772Y013151D01*
X041835Y013250D02*
X009002Y013250D01*
X009500Y012748D02*
X009697Y012552D01*
X010091Y012552D01*
X009718Y012757D02*
X041525Y012757D01*
X041525Y012856D02*
X009619Y012856D01*
X002932Y010787D02*
X000300Y010787D01*
X000300Y010689D02*
X002847Y010689D01*
X002794Y010590D02*
X000300Y010590D01*
X000300Y010492D02*
X002766Y010492D01*
X000300Y008029D02*
X011687Y008029D01*
X011785Y007931D02*
X000300Y007931D01*
X000300Y007832D02*
X011884Y007832D01*
X011982Y007734D02*
X000300Y007734D01*
X000300Y007635D02*
X012081Y007635D01*
X012179Y007537D02*
X000300Y007537D01*
X003525Y006946D02*
X003625Y006946D01*
X003625Y006847D02*
X003525Y006847D01*
X003525Y006749D02*
X003625Y006749D01*
X003625Y006650D02*
X003525Y006650D01*
X003525Y006552D02*
X003625Y006552D01*
X003625Y006453D02*
X003525Y006453D01*
X003525Y006355D02*
X003625Y006355D01*
X003625Y006059D02*
X003525Y006059D01*
X003525Y005961D02*
X003625Y005961D01*
X003625Y005862D02*
X003525Y005862D01*
X003525Y005764D02*
X003625Y005764D01*
X003625Y005665D02*
X003525Y005665D01*
X003525Y005567D02*
X003625Y005567D01*
X002867Y005567D02*
X000300Y005567D01*
X000300Y005665D02*
X002835Y005665D01*
X002835Y005764D02*
X000300Y005764D01*
X000300Y005862D02*
X002835Y005862D01*
X002835Y005961D02*
X000300Y005961D01*
X000300Y006059D02*
X002835Y006059D01*
X010115Y004188D02*
X010985Y004188D01*
X010985Y004089D02*
X010309Y004089D01*
X011835Y004089D02*
X012047Y004089D01*
X012047Y003991D02*
X011835Y003991D01*
X011835Y003892D02*
X012047Y003892D01*
X012047Y003794D02*
X011835Y003794D01*
X011835Y003695D02*
X012462Y003695D01*
X012462Y003643D02*
X012047Y003643D01*
X012047Y003142D01*
X012057Y003104D01*
X012077Y003070D01*
X012105Y003042D01*
X012139Y003022D01*
X012177Y003012D01*
X012462Y003012D01*
X012462Y003643D01*
X012462Y003597D02*
X012562Y003597D01*
X012562Y003695D02*
X013287Y003695D01*
X013287Y003597D02*
X012977Y003597D01*
X012977Y003794D02*
X013287Y003794D01*
X013296Y003892D02*
X012977Y003892D01*
X012977Y003991D02*
X013418Y003991D01*
X012977Y004089D02*
X017470Y004089D01*
X017372Y004188D02*
X012977Y004188D01*
X012047Y004188D02*
X011835Y004188D01*
X011835Y003597D02*
X012047Y003597D01*
X012047Y003498D02*
X011835Y003498D01*
X011835Y003400D02*
X012047Y003400D01*
X012047Y003301D02*
X011835Y003301D01*
X011835Y003203D02*
X012047Y003203D01*
X012057Y003104D02*
X011823Y003104D01*
X012462Y003104D02*
X012562Y003104D01*
X012562Y003203D02*
X012462Y003203D01*
X012462Y003301D02*
X012562Y003301D01*
X012562Y003400D02*
X012462Y003400D01*
X012462Y003498D02*
X012562Y003498D01*
X010985Y003301D02*
X010313Y003301D01*
X010125Y003203D02*
X010985Y003203D01*
X010997Y003104D02*
X002236Y003104D01*
X002095Y003203D02*
X009860Y003203D01*
X014470Y003203D02*
X014570Y003203D01*
X014570Y003301D02*
X014470Y003301D01*
X014470Y003104D02*
X014570Y003104D01*
X014570Y003006D02*
X014470Y003006D01*
X015708Y003006D02*
X018063Y003006D01*
X018063Y003104D02*
X015753Y003104D01*
X015753Y003203D02*
X018063Y003203D01*
X018063Y003301D02*
X015753Y003301D01*
X014570Y003597D02*
X014470Y003597D01*
X014470Y003695D02*
X014570Y003695D01*
X014570Y003794D02*
X014470Y003794D01*
X014470Y003892D02*
X014570Y003892D01*
X014570Y003991D02*
X014470Y003991D01*
X014914Y005465D02*
X014953Y005504D01*
X016095Y005504D01*
X019785Y003597D02*
X019885Y003597D01*
X019885Y003498D02*
X019785Y003498D01*
X019785Y003400D02*
X019885Y003400D01*
X019885Y003301D02*
X019785Y003301D01*
X019785Y003203D02*
X019885Y003203D01*
X019885Y003104D02*
X019785Y003104D01*
X019785Y003006D02*
X019885Y003006D01*
X020185Y002809D02*
X020236Y002809D01*
X020236Y002710D02*
X020185Y002710D01*
X020185Y002612D02*
X020196Y002612D01*
X020185Y002513D02*
X020193Y002513D01*
X020185Y002415D02*
X020193Y002415D01*
X020185Y002316D02*
X020292Y002316D01*
X020184Y002218D02*
X020525Y002218D01*
X019638Y002021D02*
X065473Y002021D01*
X065473Y001922D02*
X019638Y001922D01*
X019638Y001824D02*
X065506Y001824D01*
X065277Y002119D02*
X060496Y002119D01*
X060554Y002218D02*
X065179Y002218D01*
X065080Y002316D02*
X060555Y002316D01*
X060555Y002415D02*
X065049Y002415D01*
X065049Y002513D02*
X060555Y002513D01*
X060555Y002612D02*
X065049Y002612D01*
X065049Y002710D02*
X060555Y002710D01*
X060555Y002809D02*
X065049Y002809D01*
X065049Y002907D02*
X060255Y002907D01*
X060255Y002809D02*
X060155Y002809D01*
X060155Y002710D02*
X060255Y002710D01*
X060255Y002612D02*
X060155Y002612D01*
X060155Y002513D02*
X060255Y002513D01*
X060255Y002415D02*
X060155Y002415D01*
X060155Y002316D02*
X060255Y002316D01*
X060255Y002218D02*
X060155Y002218D01*
X060155Y002119D02*
X060255Y002119D01*
X059855Y003006D02*
X059515Y003006D01*
X059515Y003104D02*
X059855Y003104D01*
X059855Y003203D02*
X059515Y003203D01*
X059515Y003301D02*
X059855Y003301D01*
X059855Y003400D02*
X059515Y003400D01*
X059515Y003498D02*
X059855Y003498D01*
X059865Y003597D02*
X059504Y003597D01*
X057906Y003597D02*
X021134Y003597D01*
X021145Y003498D02*
X057895Y003498D01*
X057895Y003400D02*
X021145Y003400D01*
X021145Y003301D02*
X057895Y003301D01*
X057696Y003203D02*
X021145Y003203D01*
X021145Y003104D02*
X057598Y003104D01*
X057594Y003006D02*
X021145Y003006D01*
X021145Y002907D02*
X057595Y002907D01*
X057693Y002809D02*
X021145Y002809D01*
X019638Y001725D02*
X067056Y001725D01*
X067028Y001627D02*
X019638Y001627D01*
X019638Y001528D02*
X067028Y001528D01*
X067048Y001430D02*
X019638Y001430D01*
X019638Y001331D02*
X067089Y001331D01*
X067178Y001233D02*
X019638Y001233D01*
X019638Y001134D02*
X067354Y001134D01*
X067591Y001134D02*
X069508Y001134D01*
X069508Y001233D02*
X067768Y001233D01*
X067857Y001331D02*
X069508Y001331D01*
X069508Y001430D02*
X067898Y001430D01*
X067918Y001528D02*
X069508Y001528D01*
X070002Y001824D02*
X070102Y001824D01*
X070102Y001922D02*
X070002Y001922D01*
X070002Y002021D02*
X070102Y002021D01*
X070102Y002119D02*
X070002Y002119D01*
X070002Y002218D02*
X070102Y002218D01*
X070558Y002218D02*
X073049Y002218D01*
X073012Y002119D02*
X070595Y002119D01*
X070595Y002021D02*
X073012Y002021D01*
X073012Y001922D02*
X070595Y001922D01*
X070595Y001824D02*
X073012Y001824D01*
X073012Y001725D02*
X070595Y001725D01*
X070595Y001528D02*
X073012Y001528D01*
X073012Y001430D02*
X070595Y001430D01*
X070595Y001331D02*
X073012Y001331D01*
X073012Y001233D02*
X070595Y001233D01*
X070595Y001134D02*
X073012Y001134D01*
X074099Y001134D02*
X077631Y001134D01*
X077925Y001233D02*
X074099Y001233D01*
X074099Y001331D02*
X078095Y001331D01*
X078202Y001430D02*
X074099Y001430D01*
X074099Y001528D02*
X078300Y001528D01*
X078549Y001824D02*
X077692Y001824D01*
X077829Y001922D02*
X078606Y001922D01*
X078646Y002021D02*
X077927Y002021D01*
X077997Y002119D02*
X078673Y002119D01*
X078699Y002218D02*
X078038Y002218D01*
X078078Y002316D02*
X078725Y002316D01*
X078734Y002415D02*
X078095Y002415D01*
X078095Y002513D02*
X078740Y002513D01*
X078740Y002612D02*
X078095Y002612D01*
X078077Y002710D02*
X078740Y002710D01*
X078740Y002809D02*
X078037Y002809D01*
X077996Y002907D02*
X078740Y002907D01*
X078740Y003006D02*
X077925Y003006D01*
X077826Y003104D02*
X078740Y003104D01*
X073606Y002218D02*
X073506Y002218D01*
X073506Y002119D02*
X073606Y002119D01*
X073606Y002021D02*
X073506Y002021D01*
X073506Y001922D02*
X073606Y001922D01*
X073606Y001824D02*
X073506Y001824D01*
X072525Y002513D02*
X071082Y002513D01*
X071205Y002612D02*
X072403Y002612D01*
X072356Y002710D02*
X071251Y002710D01*
X071265Y002809D02*
X072343Y002809D01*
X072357Y002907D02*
X071250Y002907D01*
X071202Y003006D02*
X072405Y003006D01*
X072532Y003104D02*
X071075Y003104D01*
X072433Y003301D02*
X072433Y003301D01*
X067198Y001922D02*
X066795Y001922D01*
X066763Y001824D02*
X067100Y001824D01*
X065473Y002415D02*
X065434Y002415D01*
X065473Y002513D02*
X065369Y002513D01*
X061863Y006056D02*
X066390Y010583D01*
X068359Y010583D01*
X068556Y010189D02*
X067276Y010189D01*
X067178Y010091D01*
X066560Y010393D02*
X066427Y010393D01*
X068556Y010189D02*
X069638Y011272D01*
X070130Y011272D01*
X069784Y011083D02*
X069675Y011083D01*
X069577Y010984D02*
X069784Y010984D01*
X069784Y010886D02*
X069478Y010886D01*
X069380Y010787D02*
X069751Y010787D01*
X069744Y010689D02*
X069281Y010689D01*
X069183Y010590D02*
X069747Y010590D01*
X069784Y010492D02*
X069084Y010492D01*
X069255Y009944D02*
X069255Y009646D01*
X069067Y009646D01*
X069029Y009656D01*
X068995Y009676D01*
X068967Y009704D01*
X069255Y009704D02*
X069352Y009704D01*
X069352Y009802D02*
X069255Y009802D01*
X069255Y009901D02*
X069352Y009901D01*
X077426Y007635D02*
X077519Y007635D01*
X076936Y007438D02*
X076933Y007438D01*
X059993Y011961D02*
X059993Y012158D01*
X059540Y012611D01*
X058811Y012611D01*
X059133Y012363D02*
X059561Y012363D01*
X059593Y012265D02*
X059659Y012265D01*
X059702Y012166D02*
X059758Y012166D01*
X059709Y012068D02*
X059833Y012068D01*
X059431Y012068D02*
X059373Y012068D01*
X059373Y012166D02*
X059431Y012166D01*
X059431Y012265D02*
X059373Y012265D01*
X059211Y012265D02*
X059116Y012265D01*
X058772Y012000D02*
X058221Y012552D01*
X057926Y012552D01*
X057386Y012659D02*
X057275Y012659D01*
X057373Y012757D02*
X057386Y012757D01*
X057118Y012954D02*
X053418Y012954D01*
X053464Y012908D02*
X053361Y013012D01*
X053361Y013371D01*
X053361Y013504D01*
X053329Y013536D01*
X058498Y013536D01*
X058485Y013522D01*
X058485Y013302D01*
X058466Y013302D01*
X058466Y013398D01*
X058401Y013462D01*
X057450Y013462D01*
X057386Y013398D01*
X057386Y013222D01*
X057072Y012908D01*
X053464Y012908D01*
X053361Y013053D02*
X057216Y013053D01*
X057315Y013151D02*
X053361Y013151D01*
X053361Y013250D02*
X057386Y013250D01*
X057386Y013348D02*
X053361Y013348D01*
X053361Y013447D02*
X057435Y013447D01*
X058416Y013447D02*
X058485Y013447D01*
X058485Y013348D02*
X058466Y013348D01*
X059915Y012757D02*
X060361Y012757D01*
X060263Y012659D02*
X060013Y012659D01*
X060112Y012560D02*
X060252Y012560D01*
X060252Y012462D02*
X060210Y012462D01*
X060309Y012363D02*
X060343Y012363D01*
X058811Y012000D02*
X058772Y012000D01*
X058485Y011969D02*
X058466Y011969D01*
X058466Y011871D02*
X058485Y011871D01*
X058485Y011772D02*
X058466Y011772D01*
X058466Y012068D02*
X058478Y012068D01*
X057376Y011083D02*
X053119Y011083D01*
X053151Y010984D02*
X057346Y010984D01*
X057346Y010886D02*
X053151Y010886D01*
X053201Y011370D02*
X052611Y011370D01*
X052119Y011370D01*
X051922Y011567D01*
X051922Y011961D01*
X051528Y012355D01*
X049559Y012355D01*
X049363Y012158D01*
X048378Y012158D01*
X049400Y011674D02*
X049517Y011674D01*
X049799Y011674D02*
X051073Y011674D01*
X051073Y011772D02*
X049891Y011772D01*
X049891Y011871D02*
X050998Y011871D01*
X050900Y011969D02*
X049881Y011969D01*
X051155Y012166D02*
X051490Y012166D01*
X051588Y012068D02*
X051254Y012068D01*
X051352Y011969D02*
X051687Y011969D01*
X051762Y011871D02*
X051393Y011871D01*
X051393Y011772D02*
X051762Y011772D01*
X051762Y011674D02*
X051393Y011674D01*
X051393Y011575D02*
X051762Y011575D01*
X051786Y011477D02*
X051393Y011477D01*
X051393Y011378D02*
X051884Y011378D01*
X051983Y011280D02*
X051393Y011280D01*
X051393Y011181D02*
X052071Y011181D01*
X052103Y011083D02*
X051393Y011083D01*
X051393Y010984D02*
X052071Y010984D01*
X052071Y010886D02*
X051393Y010886D01*
X051393Y010787D02*
X052071Y010787D01*
X052071Y010689D02*
X051393Y010689D01*
X051393Y010590D02*
X052071Y010590D01*
X052103Y010492D02*
X051393Y010492D01*
X051393Y010393D02*
X052071Y010393D01*
X052071Y010295D02*
X051393Y010295D01*
X051393Y010196D02*
X052071Y010196D01*
X052071Y010098D02*
X051393Y010098D01*
X051393Y009999D02*
X052071Y009999D01*
X052104Y009901D02*
X051393Y009901D01*
X051393Y009802D02*
X052071Y009802D01*
X052071Y009704D02*
X051393Y009704D01*
X051393Y009605D02*
X052071Y009605D01*
X052071Y009507D02*
X051393Y009507D01*
X051452Y009408D02*
X052071Y009408D01*
X052104Y009310D02*
X051551Y009310D01*
X051649Y009211D02*
X052071Y009211D01*
X052071Y009113D02*
X051688Y009113D01*
X051688Y009014D02*
X052071Y009014D01*
X052071Y008916D02*
X051688Y008916D01*
X051688Y008817D02*
X052071Y008817D01*
X052104Y008719D02*
X051688Y008719D01*
X050777Y008719D02*
X050764Y008719D01*
X050205Y008719D02*
X050095Y008719D01*
X050122Y008817D02*
X050178Y008817D01*
X050178Y008916D02*
X050122Y008916D01*
X049953Y009008D02*
X050150Y009205D01*
X049953Y009008D02*
X049815Y009008D01*
X049301Y010295D02*
X049033Y010295D01*
X049079Y010393D02*
X049301Y010393D01*
X049301Y010492D02*
X049079Y010492D01*
X049079Y010590D02*
X049301Y010590D01*
X049301Y010689D02*
X049079Y010689D01*
X049079Y010787D02*
X049301Y010787D01*
X049301Y010886D02*
X049018Y010886D01*
X049034Y011083D02*
X049301Y011083D01*
X049341Y011181D02*
X049079Y011181D01*
X049079Y011280D02*
X049439Y011280D01*
X049538Y011378D02*
X049079Y011378D01*
X049079Y011477D02*
X051073Y011477D01*
X051073Y011575D02*
X049079Y011575D01*
X050073Y011378D02*
X051073Y011378D01*
X051073Y011280D02*
X050959Y011280D01*
X051057Y011181D02*
X051073Y011181D01*
X057778Y007931D02*
X057889Y007931D01*
X057876Y008029D02*
X057889Y008029D01*
X057985Y007832D02*
X057679Y007832D01*
X049216Y007635D02*
X049119Y007635D01*
X068949Y012650D02*
X070130Y012650D01*
X071639Y012785D02*
X071639Y012785D01*
X072886Y013241D02*
X073083Y013241D01*
X074020Y015614D02*
X078740Y015614D01*
X078740Y015712D02*
X074020Y015712D01*
X074012Y015811D02*
X078740Y015811D01*
X078740Y015909D02*
X073893Y015909D01*
X070911Y015811D02*
X070826Y015811D01*
X070301Y015811D02*
X070250Y015760D01*
X070231Y015793D01*
X070203Y015821D01*
X069528Y015712D02*
X061567Y015712D01*
X061567Y015614D02*
X069528Y015614D01*
X061567Y016008D02*
X078740Y016008D01*
X078740Y016106D02*
X061567Y016106D01*
X061567Y016205D02*
X078740Y016205D01*
X078740Y016303D02*
X061567Y016303D01*
X061567Y016402D02*
X078740Y016402D01*
X078740Y016500D02*
X061567Y016500D01*
X061567Y016599D02*
X078740Y016599D01*
X078740Y016697D02*
X061567Y016697D01*
X061567Y016796D02*
X078740Y016796D01*
X078740Y016894D02*
X061567Y016894D01*
X061567Y016993D02*
X078740Y016993D01*
X078740Y017091D02*
X061567Y017091D01*
X061567Y017190D02*
X078740Y017190D01*
X078740Y017288D02*
X061567Y017288D01*
X061567Y017387D02*
X078740Y017387D01*
X078740Y017485D02*
X061567Y017485D01*
X061567Y017584D02*
X078740Y017584D01*
X078740Y017682D02*
X061567Y017682D01*
X061567Y017781D02*
X078740Y017781D01*
X078740Y017879D02*
X061567Y017879D01*
X061567Y017978D02*
X078740Y017978D01*
X078740Y018076D02*
X061567Y018076D01*
X061567Y018175D02*
X078740Y018175D01*
X078740Y018273D02*
X077484Y018273D01*
X077470Y018268D02*
X077757Y018386D01*
X077977Y018606D01*
X078095Y018893D01*
X078095Y019203D01*
X077977Y019489D01*
X077757Y019709D01*
X077470Y019828D01*
X077160Y019828D01*
X076874Y019709D01*
X076654Y019489D01*
X076535Y019203D01*
X076535Y018893D01*
X076654Y018606D01*
X076874Y018386D01*
X077160Y018268D01*
X077470Y018268D01*
X077722Y018372D02*
X078740Y018372D01*
X078740Y018470D02*
X077841Y018470D01*
X077940Y018569D02*
X078740Y018569D01*
X078740Y018667D02*
X078002Y018667D01*
X078043Y018766D02*
X078740Y018766D01*
X078740Y018864D02*
X078084Y018864D01*
X078095Y018963D02*
X078740Y018963D01*
X078739Y019061D02*
X078095Y019061D01*
X078095Y019160D02*
X078733Y019160D01*
X078721Y019258D02*
X078072Y019258D01*
X078031Y019357D02*
X078695Y019357D01*
X078669Y019455D02*
X077991Y019455D01*
X077912Y019554D02*
X078642Y019554D01*
X078597Y019652D02*
X077814Y019652D01*
X077655Y019751D02*
X078540Y019751D01*
X078482Y019849D02*
X061582Y019849D01*
X061567Y019751D02*
X076975Y019751D01*
X076817Y019652D02*
X061567Y019652D01*
X061567Y019554D02*
X076719Y019554D01*
X076640Y019455D02*
X061567Y019455D01*
X061567Y019357D02*
X076599Y019357D01*
X076558Y019258D02*
X061567Y019258D01*
X061567Y019160D02*
X076535Y019160D01*
X076535Y019061D02*
X061567Y019061D01*
X061567Y018963D02*
X076535Y018963D01*
X076547Y018864D02*
X061567Y018864D01*
X061567Y018766D02*
X076588Y018766D01*
X076629Y018667D02*
X061567Y018667D01*
X061567Y018569D02*
X076691Y018569D01*
X076790Y018470D02*
X061567Y018470D01*
X061567Y018372D02*
X076909Y018372D01*
X077146Y018273D02*
X061567Y018273D01*
X061680Y019948D02*
X078384Y019948D01*
X078285Y020046D02*
X061779Y020046D01*
X061877Y020145D02*
X078187Y020145D01*
X078069Y020243D02*
X061976Y020243D01*
X062074Y020342D02*
X077899Y020342D01*
X077575Y020440D02*
X062173Y020440D01*
X018063Y001725D02*
X000548Y001725D01*
X000642Y001627D02*
X018063Y001627D01*
X018063Y001528D02*
X000740Y001528D01*
X000839Y001430D02*
X018063Y001430D01*
X018063Y001331D02*
X000945Y001331D01*
X001115Y001233D02*
X018063Y001233D01*
X018063Y001134D02*
X001409Y001134D01*
D45*
X003300Y001725D03*
X004087Y001725D03*
X004874Y001725D03*
X005662Y001725D03*
X006449Y001725D03*
X007237Y001725D03*
X008024Y001725D03*
X008811Y001725D03*
X009599Y001725D03*
X010386Y001725D03*
X011174Y001725D03*
X011961Y001725D03*
X012748Y001725D03*
X013536Y001725D03*
X014323Y001725D03*
X015111Y001725D03*
X015898Y001725D03*
X016685Y001725D03*
X017473Y001725D03*
X018260Y001725D03*
X019048Y001725D03*
X019835Y001725D03*
X020622Y001725D03*
X021410Y001725D03*
X022197Y001725D03*
X022985Y001725D03*
X023772Y001725D03*
X024559Y001725D03*
X025347Y001725D03*
X026134Y001725D03*
X026922Y001725D03*
X027709Y001725D03*
X028496Y001725D03*
X029284Y001725D03*
X030071Y001725D03*
X030859Y001725D03*
X031646Y001725D03*
X032433Y001725D03*
X033221Y001725D03*
X034008Y001725D03*
X034796Y001725D03*
X035583Y001725D03*
X036370Y001725D03*
X037158Y001725D03*
X037945Y001725D03*
X038733Y001725D03*
X039520Y001725D03*
X040307Y001725D03*
X041095Y001725D03*
X041882Y001725D03*
X042670Y001725D03*
X043457Y001725D03*
X044244Y001725D03*
X045032Y001725D03*
X045819Y001725D03*
X046607Y001725D03*
X047394Y001725D03*
X048181Y001725D03*
X048969Y001725D03*
X049756Y001725D03*
X050544Y001725D03*
X051331Y001725D03*
X052119Y001725D03*
X052906Y001725D03*
X053693Y001725D03*
X054481Y001725D03*
X055268Y001725D03*
X056056Y001725D03*
X056843Y001725D03*
X057630Y001725D03*
X058418Y001725D03*
X059205Y001725D03*
X059993Y001725D03*
X060780Y001725D03*
X061567Y001725D03*
X062355Y001725D03*
X063142Y001725D03*
X063930Y001725D03*
X064717Y001725D03*
X065504Y001725D03*
X066292Y001725D03*
X068654Y001725D03*
X069835Y002512D03*
X070229Y002512D03*
X070229Y002906D03*
X069835Y002906D03*
X073378Y002906D03*
X073378Y002512D03*
X073772Y002512D03*
X073772Y002906D03*
X075741Y002906D03*
X075741Y001725D03*
X074953Y001725D03*
X072788Y003890D03*
X072788Y004087D03*
X075741Y004087D03*
X076922Y004087D03*
X078103Y004087D03*
X078103Y004874D03*
X078103Y005662D03*
X078103Y006449D03*
X078103Y007237D03*
X078300Y008024D03*
X078300Y008811D03*
X076528Y009205D03*
X074953Y009205D03*
X072788Y009402D03*
X071705Y008910D03*
X070229Y009008D03*
X070229Y008811D03*
X069540Y008615D03*
X070032Y008122D03*
X070032Y007926D03*
X069441Y007827D03*
X069244Y007827D03*
X068949Y007827D03*
X068752Y007827D03*
X071607Y008122D03*
X072296Y007827D03*
X072985Y008024D03*
X073280Y008615D03*
X073477Y008615D03*
X068851Y009894D03*
X068851Y010091D03*
X069638Y010681D03*
X071016Y010780D03*
X071705Y010485D03*
X072197Y010780D03*
X072788Y010780D03*
X073969Y010780D03*
X073969Y011370D03*
X073969Y011666D03*
X072985Y012059D03*
X072985Y012355D03*
X071508Y012748D03*
X071016Y012355D03*
X068556Y012650D03*
X067473Y012748D03*
X068457Y012945D03*
X068457Y013142D03*
X067473Y013536D03*
X066292Y013142D03*
X066292Y012748D03*
X063930Y012748D03*
X062748Y012748D03*
X061567Y012748D03*
X060485Y012552D03*
X059402Y012355D03*
X059993Y013142D03*
X060386Y013142D03*
X061174Y013142D03*
X061567Y013536D03*
X061961Y013930D03*
X063142Y013536D03*
X064717Y013536D03*
X061961Y014717D03*
X063142Y015111D03*
X061961Y015504D03*
X064717Y015111D03*
X066292Y015111D03*
X067571Y014815D03*
X067867Y015111D03*
X069441Y015406D03*
X069441Y015603D03*
X069441Y014815D03*
X069441Y014225D03*
X068556Y014225D03*
X070032Y013339D03*
X071508Y013634D03*
X072296Y014028D03*
X072296Y014323D03*
X073181Y014323D03*
X073181Y014028D03*
X074166Y014028D03*
X074166Y014323D03*
X074166Y014619D03*
X074166Y014914D03*
X073181Y014914D03*
X073181Y014619D03*
X072296Y014619D03*
X072296Y014914D03*
X072296Y015209D03*
X072296Y015504D03*
X073181Y015504D03*
X073181Y015209D03*
X074166Y015209D03*
X074166Y015504D03*
X074166Y015800D03*
X074166Y016095D03*
X073870Y016095D03*
X073477Y016095D03*
X073181Y016095D03*
X072886Y016095D03*
X072591Y016095D03*
X072296Y016095D03*
X072296Y015800D03*
X073181Y015800D03*
X078103Y015898D03*
X078103Y015111D03*
X078103Y014323D03*
X078103Y013536D03*
X078103Y012748D03*
X078103Y011961D03*
X078103Y011174D03*
X078103Y010386D03*
X078300Y009599D03*
X072296Y006941D03*
X071804Y007040D03*
X069933Y006056D03*
X069737Y006056D03*
X069737Y005859D03*
X069933Y005859D03*
X067867Y006056D03*
X067670Y006056D03*
X066882Y006252D03*
X066685Y006252D03*
X063930Y005662D03*
X062355Y006056D03*
X061863Y005760D03*
X063142Y006843D03*
X063930Y007630D03*
X061961Y008024D03*
X064717Y008418D03*
X062748Y008811D03*
X060780Y008811D03*
X058221Y008418D03*
X057433Y008418D03*
X057237Y008024D03*
X058122Y008024D03*
X058418Y007237D03*
X059993Y007237D03*
X056843Y007237D03*
X055268Y007237D03*
X053693Y007237D03*
X052119Y007237D03*
X050544Y007237D03*
X048969Y006843D03*
X048181Y006843D03*
X047394Y005662D03*
X045819Y005662D03*
X044244Y005662D03*
X042670Y005662D03*
X041095Y005662D03*
X039520Y005662D03*
X037945Y005662D03*
X036370Y005662D03*
X034796Y005662D03*
X033221Y005662D03*
X031646Y005662D03*
X030071Y005662D03*
X028496Y005662D03*
X026922Y005662D03*
X025347Y005662D03*
X023772Y005662D03*
X022197Y005662D03*
X020819Y005859D03*
X019835Y005859D03*
X021016Y006449D03*
X022197Y007237D03*
X023772Y007237D03*
X025347Y007237D03*
X026922Y007237D03*
X028496Y007237D03*
X030071Y007237D03*
X031646Y007237D03*
X033221Y007237D03*
X034796Y007237D03*
X036370Y007237D03*
X037945Y007237D03*
X039520Y007237D03*
X040701Y006843D03*
X041882Y006843D03*
X048969Y005662D03*
X050544Y005662D03*
X052119Y005662D03*
X053693Y005662D03*
X055268Y005662D03*
X056843Y005662D03*
X056843Y004087D03*
X055268Y004087D03*
X053693Y004087D03*
X052119Y004087D03*
X050544Y004087D03*
X048969Y004087D03*
X047394Y004087D03*
X045819Y004087D03*
X044244Y004087D03*
X042670Y004087D03*
X041095Y004087D03*
X039520Y004087D03*
X037945Y004087D03*
X036370Y004087D03*
X034796Y004087D03*
X033221Y004087D03*
X031646Y004087D03*
X030071Y004087D03*
X028496Y004087D03*
X026922Y004087D03*
X025347Y004087D03*
X023772Y004087D03*
X022197Y004087D03*
X020819Y003890D03*
X019835Y003890D03*
X018851Y004185D03*
X015898Y004087D03*
X015504Y004087D03*
X015898Y003693D03*
X015898Y003300D03*
X017276Y003201D03*
X018359Y003201D03*
X019343Y003201D03*
X020426Y002512D03*
X013536Y004087D03*
X013142Y004087D03*
X013142Y003693D03*
X013142Y003300D03*
X010878Y003595D03*
X010681Y003595D03*
X010681Y003792D03*
X010878Y003792D03*
X010878Y003792D03*
X008024Y004087D03*
X006449Y004087D03*
X004874Y004087D03*
X003300Y004087D03*
X002119Y004087D03*
X000937Y004087D03*
X000937Y004874D03*
X000937Y005662D03*
X000937Y006449D03*
X000937Y007237D03*
X003300Y007237D03*
X004874Y007237D03*
X006449Y007237D03*
X008024Y007237D03*
X009008Y007827D03*
X010189Y007827D03*
X011370Y007827D03*
X011961Y007237D03*
X012945Y006843D03*
X013536Y006843D03*
X013930Y006843D03*
X013930Y007237D03*
X013536Y007237D03*
X016095Y007040D03*
X015898Y008811D03*
X014323Y008811D03*
X012748Y008811D03*
X011174Y008811D03*
X009599Y008811D03*
X008910Y009304D03*
X008713Y009304D03*
X008319Y009304D03*
X008122Y009304D03*
X008024Y008811D03*
X006449Y008811D03*
X004874Y008811D03*
X003300Y008811D03*
X000937Y008811D03*
X000937Y008024D03*
X000937Y009599D03*
X000937Y010386D03*
X000937Y011174D03*
X000937Y011961D03*
X003300Y011961D03*
X000937Y012748D03*
X000937Y013536D03*
X000937Y014323D03*
X000937Y015111D03*
X000937Y015898D03*
X000937Y016685D03*
X000937Y017473D03*
X002119Y017473D03*
X003300Y017473D03*
X003300Y018654D03*
X003300Y019835D03*
X004087Y019835D03*
X004874Y019835D03*
X005662Y019835D03*
X006449Y019835D03*
X007237Y019835D03*
X008024Y019835D03*
X008811Y019835D03*
X009599Y019835D03*
X010386Y019835D03*
X011174Y019835D03*
X011961Y019835D03*
X012355Y019441D03*
X012355Y018654D03*
X012355Y017867D03*
X012355Y017079D03*
X012355Y016292D03*
X012355Y015504D03*
X012355Y014717D03*
X012355Y013930D03*
X012748Y013536D03*
X013142Y013142D03*
X013930Y013142D03*
X014717Y013142D03*
X015504Y013142D03*
X016292Y013142D03*
X017079Y013142D03*
X017867Y013142D03*
X018654Y013142D03*
X019441Y013142D03*
X020229Y013142D03*
X021016Y013142D03*
X021804Y013142D03*
X022591Y013142D03*
X023378Y013142D03*
X024166Y013142D03*
X024953Y013142D03*
X025741Y013142D03*
X026528Y013142D03*
X027315Y013142D03*
X028103Y013142D03*
X028890Y013142D03*
X029678Y013142D03*
X030465Y013142D03*
X031252Y013142D03*
X032040Y013142D03*
X032827Y013142D03*
X033615Y013142D03*
X034402Y013142D03*
X035189Y013142D03*
X035977Y013142D03*
X036764Y013142D03*
X037552Y013142D03*
X038339Y013142D03*
X039126Y013142D03*
X039914Y013142D03*
X040701Y013142D03*
X041489Y013142D03*
X043851Y013142D03*
X044638Y013142D03*
X045426Y013142D03*
X046213Y013142D03*
X047000Y013142D03*
X049756Y013142D03*
X050544Y013142D03*
X051331Y013142D03*
X053201Y012552D03*
X053693Y013142D03*
X054481Y013142D03*
X055268Y013142D03*
X056056Y013142D03*
X056843Y013142D03*
X060386Y011567D03*
X060780Y011469D03*
X061567Y010780D03*
X060780Y010386D03*
X059599Y010780D03*
X059205Y010780D03*
X058811Y010780D03*
X057237Y010780D03*
X056843Y010780D03*
X056843Y010386D03*
X055268Y010386D03*
X053693Y010386D03*
X051725Y009599D03*
X053693Y008811D03*
X055268Y008811D03*
X056843Y008811D03*
X059402Y009796D03*
X062748Y010780D03*
X064323Y010780D03*
X064323Y010386D03*
X064717Y010780D03*
X065209Y011075D03*
X065504Y011272D03*
X066784Y010288D03*
X067178Y010091D03*
X066292Y009993D03*
X063536Y009599D03*
X065504Y009205D03*
X053201Y011370D03*
X051725Y011174D03*
X050544Y011567D03*
X049658Y011863D03*
X047394Y011174D03*
X047394Y010386D03*
X045819Y010386D03*
X044244Y010386D03*
X041095Y010386D03*
X039520Y010386D03*
X037945Y010386D03*
X036370Y010386D03*
X034796Y010386D03*
X033221Y010386D03*
X031646Y010386D03*
X030071Y010386D03*
X028496Y010386D03*
X026922Y010386D03*
X025347Y010386D03*
X023772Y010386D03*
X022197Y010386D03*
X020622Y010386D03*
X019048Y010386D03*
X017473Y010386D03*
X015898Y010386D03*
X014323Y010386D03*
X012748Y010386D03*
X011174Y010386D03*
X007532Y010386D03*
X006252Y010386D03*
X004678Y010386D03*
X012748Y011961D03*
X014323Y011961D03*
X015898Y011961D03*
X017473Y011961D03*
X019048Y011961D03*
X020622Y011961D03*
X022197Y011961D03*
X023772Y011961D03*
X025347Y011961D03*
X026922Y011961D03*
X028496Y011961D03*
X030071Y011961D03*
X031646Y011961D03*
X033221Y011961D03*
X034796Y011961D03*
X036370Y011961D03*
X037945Y011961D03*
X039520Y011961D03*
X041095Y011961D03*
X044244Y011961D03*
X045819Y011961D03*
X049756Y010977D03*
X047394Y008811D03*
X045819Y008811D03*
X044244Y008811D03*
X041095Y008811D03*
X039520Y008811D03*
X037945Y008811D03*
X036370Y008811D03*
X034796Y008811D03*
X033221Y008811D03*
X031646Y008811D03*
X030071Y008811D03*
X028496Y008811D03*
X026922Y008811D03*
X025347Y008811D03*
X025347Y008811D03*
X023772Y008811D03*
X022197Y008811D03*
X020622Y008811D03*
X019048Y008811D03*
X017473Y008811D03*
X008024Y005662D03*
X006449Y005662D03*
X004874Y005662D03*
X004874Y002906D03*
X003300Y002906D03*
X006449Y002906D03*
X008024Y002906D03*
X009599Y002906D03*
X021410Y004874D03*
X008221Y012945D03*
X006843Y013536D03*
X006843Y013930D03*
X004284Y014520D03*
X004284Y014914D03*
X004284Y015307D03*
X004284Y015701D03*
X004678Y015701D03*
X005071Y015701D03*
X008221Y015701D03*
X008418Y015701D03*
X057827Y003004D03*
X062355Y004087D03*
X063930Y004087D03*
X065898Y004087D03*
X066292Y004087D03*
X066685Y004087D03*
X074953Y012945D03*
X074953Y013142D03*
X074953Y013437D03*
X074953Y013634D03*
X073083Y013241D03*
X061961Y016292D03*
X061961Y017079D03*
X061961Y017867D03*
X061961Y018654D03*
X061961Y019441D03*
X062355Y019835D03*
X063142Y019835D03*
X063930Y019835D03*
X064717Y019835D03*
X065504Y019835D03*
X066292Y019835D03*
X067079Y019835D03*
X067867Y019835D03*
X068654Y019835D03*
X069441Y019835D03*
X070229Y019835D03*
X071016Y019835D03*
X071804Y019835D03*
X072591Y019835D03*
X073378Y019835D03*
X074166Y019835D03*
X074953Y019835D03*
X075741Y019835D03*
X075741Y018654D03*
X075741Y017473D03*
X076922Y017473D03*
X078103Y017473D03*
X078103Y016685D03*
D46*
X067571Y014815D02*
X066956Y014200D01*
X068162Y013241D02*
X068359Y013437D01*
X069441Y013437D01*
X069579Y013300D01*
X069579Y013044D01*
X070426Y013044D01*
X070622Y012847D01*
X070524Y012748D01*
X070524Y010485D01*
X070130Y010485D01*
X070130Y010150D01*
X069973Y009993D01*
X070524Y010386D02*
X070622Y010288D01*
X071705Y010288D01*
X071705Y010485D01*
X071705Y010288D02*
X072886Y010288D01*
X073083Y010485D01*
X073083Y011567D01*
X072689Y011961D01*
X072689Y012453D01*
X072886Y012650D01*
X073477Y012650D01*
X073772Y012650D01*
X073831Y012709D01*
X073831Y013044D01*
X073378Y013536D02*
X073083Y013241D01*
X073378Y013536D02*
X073831Y013536D01*
X071311Y013241D02*
X071311Y012945D01*
X071213Y012847D01*
X070622Y012847D01*
X068162Y013241D02*
X068162Y012453D01*
X067670Y011961D01*
X059993Y011961D01*
X059993Y009697D01*
X059363Y009067D01*
X058811Y009067D01*
X058556Y009008D01*
X057926Y009008D01*
X057926Y008319D01*
X057335Y007729D01*
X050937Y007729D01*
X049363Y007729D01*
X049264Y007827D01*
X047689Y007827D01*
X047296Y007433D01*
X042374Y007433D01*
X041449Y007433D01*
X041390Y007374D01*
X019638Y002930D02*
X019638Y002850D01*
X019475Y002850D01*
X019475Y002219D01*
X019486Y002178D01*
X019507Y002142D01*
X019537Y002112D01*
X019573Y002091D01*
X019614Y002080D01*
X019638Y002080D01*
X019638Y001097D01*
X018063Y001097D01*
X018063Y003496D01*
X018475Y003496D01*
X018475Y002930D01*
X018795Y002930D01*
X018795Y002850D01*
X018875Y002850D01*
X018875Y002080D01*
X019056Y002080D01*
X019097Y002091D01*
X019133Y002112D01*
X019163Y002142D01*
X019184Y002178D01*
X019195Y002219D01*
X019195Y002850D01*
X018875Y002850D01*
X018875Y002930D01*
X019195Y002930D01*
X019195Y003496D01*
X019475Y003496D01*
X019475Y002930D01*
X019638Y002930D01*
X019475Y002952D02*
X019195Y002952D01*
X019195Y003070D02*
X019475Y003070D01*
X019475Y003189D02*
X019195Y003189D01*
X019195Y003307D02*
X019475Y003307D01*
X019475Y003426D02*
X019195Y003426D01*
X018475Y003426D02*
X018063Y003426D01*
X018063Y003307D02*
X018475Y003307D01*
X018475Y003189D02*
X018063Y003189D01*
X018063Y003070D02*
X018475Y003070D01*
X018475Y002952D02*
X018063Y002952D01*
X018063Y002833D02*
X018475Y002833D01*
X018475Y002850D02*
X018475Y002219D01*
X018486Y002178D01*
X018507Y002142D01*
X018537Y002112D01*
X018573Y002091D01*
X018614Y002080D01*
X018795Y002080D01*
X018795Y002850D01*
X018475Y002850D01*
X018475Y002715D02*
X018063Y002715D01*
X018063Y002596D02*
X018475Y002596D01*
X018475Y002478D02*
X018063Y002478D01*
X018063Y002359D02*
X018475Y002359D01*
X018475Y002241D02*
X018063Y002241D01*
X018063Y002122D02*
X018527Y002122D01*
X018795Y002122D02*
X018875Y002122D01*
X018875Y002241D02*
X018795Y002241D01*
X018795Y002359D02*
X018875Y002359D01*
X018875Y002478D02*
X018795Y002478D01*
X018795Y002596D02*
X018875Y002596D01*
X018875Y002715D02*
X018795Y002715D01*
X018795Y002833D02*
X018875Y002833D01*
X019195Y002833D02*
X019475Y002833D01*
X019475Y002715D02*
X019195Y002715D01*
X019195Y002596D02*
X019475Y002596D01*
X019475Y002478D02*
X019195Y002478D01*
X019195Y002359D02*
X019475Y002359D01*
X019475Y002241D02*
X019195Y002241D01*
X019144Y002122D02*
X019527Y002122D01*
X019638Y002004D02*
X018063Y002004D01*
X018063Y001885D02*
X019638Y001885D01*
X019638Y001767D02*
X018063Y001767D01*
X018063Y001648D02*
X019638Y001648D01*
X019638Y001530D02*
X018063Y001530D01*
X018063Y001411D02*
X019638Y001411D01*
X019638Y001293D02*
X018063Y001293D01*
X018063Y001174D02*
X019638Y001174D01*
X067394Y007552D02*
X067493Y007552D01*
X067867Y007926D01*
X068457Y007926D01*
X068556Y008024D01*
X068556Y008516D01*
X068457Y008615D01*
X068162Y008615D01*
X072886Y009894D02*
X072886Y010288D01*
X072886Y009894D02*
X073221Y009894D01*
X073378Y009737D01*
X073378Y009697D01*
X073969Y009107D01*
X073969Y009067D01*
X073969Y009737D02*
X074304Y009737D01*
X074461Y009894D01*
X076922Y009894D01*
X077119Y009697D01*
X077512Y009697D01*
X077807Y009402D01*
X077807Y008697D01*
X077315Y008205D01*
X070524Y010386D02*
X070524Y010485D01*
X076331Y011666D02*
X076331Y012256D01*
X076331Y012453D01*
X076134Y012650D01*
X073772Y012650D01*
X007729Y015248D02*
X007138Y015248D01*
D47*
X004715Y013575D02*
X004715Y012711D01*
X005071Y012355D01*
X006449Y012355D01*
X006843Y011961D01*
X006843Y010977D01*
X007040Y010780D01*
X007630Y010780D01*
X007774Y010924D01*
X007774Y011528D01*
X008274Y011528D02*
X008274Y012211D01*
X008418Y012355D01*
X009441Y012355D01*
X009796Y012000D01*
X010189Y011567D02*
X008811Y011567D01*
X008774Y011530D01*
X008774Y011528D01*
X008774Y010721D01*
X008811Y010426D01*
X008221Y010426D02*
X008274Y010721D01*
X008274Y011528D01*
X009422Y011134D02*
X009422Y010465D01*
X009796Y010091D01*
X010170Y011134D02*
X010170Y011548D01*
X010189Y011567D01*
X011272Y011567D01*
X011666Y011174D01*
X011666Y008319D01*
X012355Y007630D01*
X019343Y007630D01*
X020426Y006548D01*
X020426Y002906D01*
X020426Y002512D01*
X020426Y002906D02*
X020819Y002906D01*
X020835Y002890D01*
X018851Y004874D02*
X018835Y004890D01*
X018831Y004894D01*
X016469Y004894D01*
X016075Y005288D01*
X016075Y005485D01*
X016095Y005504D01*
X014894Y005465D02*
X014520Y005485D01*
X014894Y005465D02*
X012807Y005465D01*
X011115Y005465D02*
X010504Y005465D01*
X009717Y006252D01*
X010780Y003693D02*
X010681Y003595D01*
X010780Y003693D02*
X011410Y003693D01*
X005465Y011475D02*
X005268Y011475D01*
X005215Y011528D01*
X066292Y007237D02*
X066292Y005071D01*
X066193Y004973D01*
X066134Y004953D02*
X066292Y005052D01*
X066292Y005071D01*
X069638Y005859D02*
X069638Y006056D01*
X069737Y006154D01*
X069933Y006154D01*
X070032Y006056D01*
X070032Y005859D01*
X069933Y005760D01*
X069737Y005760D01*
X069638Y005859D01*
X069646Y005851D02*
X070024Y005851D01*
X069933Y005957D02*
X070229Y005957D01*
X070327Y005859D01*
X070721Y005859D01*
X070681Y005859D02*
X070681Y006449D01*
X070426Y006449D01*
X070229Y006646D01*
X070170Y006705D01*
X069343Y006705D01*
X069343Y006744D01*
X069441Y006843D01*
X069343Y006705D02*
X069343Y006351D01*
X069244Y006252D01*
X068359Y006252D01*
X068142Y006469D01*
X068142Y006528D01*
X068142Y006764D01*
X067965Y006941D01*
X067571Y006941D01*
X067394Y006764D01*
X067394Y006528D01*
X068142Y007158D02*
X068595Y006705D01*
X068752Y006705D01*
X068142Y007158D02*
X068142Y007552D01*
X067394Y007552D02*
X067217Y007374D01*
X066784Y007374D01*
X066430Y007374D01*
X066292Y007237D01*
X070229Y007433D02*
X070229Y006646D01*
X070681Y007040D02*
X070681Y007197D01*
X071134Y007650D01*
X071528Y007650D01*
X070918Y007827D02*
X070918Y008221D01*
X070741Y008398D01*
X070504Y008398D01*
X071351Y008575D02*
X071528Y008398D01*
X071607Y008319D01*
X071607Y008122D01*
X071351Y008575D02*
X071351Y008910D01*
X071705Y008910D01*
X072296Y007827D02*
X072394Y007729D01*
X072394Y007433D01*
X070918Y007827D02*
X070741Y007650D01*
X070504Y007650D01*
X070445Y007650D01*
X070229Y007433D01*
X070032Y006009D02*
X069638Y006009D01*
X070721Y005268D02*
X071311Y005859D01*
X071351Y005859D01*
X071351Y005268D02*
X071174Y005091D01*
X071174Y003989D01*
X070721Y005268D02*
X070681Y005268D01*
D48*
X011410Y003693D02*
X009993Y003693D01*
D49*
X006215Y011528D02*
X005715Y011528D01*
X005215Y011528D01*
X005229Y011528D01*
X005268Y011567D01*
X005215Y011528D02*
X004715Y011528D01*
X005215Y013575D02*
X005715Y013575D01*
X005943Y013575D01*
X005957Y013590D01*
X005715Y013575D02*
X006215Y013575D01*
D50*
X005957Y013590D02*
X005957Y014914D01*
X006025Y014914D01*
X005465Y011475D02*
X005465Y010386D01*
M02*
