%
M48
M72
T01C0.0126
T02C0.0354
T03C0.0394
T04C0.0512
T05C0.0591
T06C0.1260
%
T01
X3300Y1725
X4087Y1725
X4874Y1725
X5662Y1725
X6449Y1725
X7237Y1725
X8024Y1725
X8811Y1725
X9599Y1725
X10386Y1725
X11174Y1725
X11961Y1725
X12748Y1725
X13536Y1725
X14323Y1725
X15111Y1725
X15898Y1725
X16685Y1725
X17473Y1725
X18260Y1725
X19048Y1725
X19835Y1725
X20622Y1725
X21410Y1725
X22197Y1725
X22985Y1725
X23772Y1725
X24559Y1725
X25347Y1725
X26134Y1725
X26922Y1725
X27709Y1725
X28496Y1725
X29284Y1725
X30071Y1725
X30859Y1725
X31646Y1725
X32433Y1725
X33221Y1725
X34008Y1725
X34796Y1725
X35583Y1725
X36370Y1725
X37158Y1725
X37945Y1725
X38733Y1725
X39520Y1725
X40307Y1725
X41095Y1725
X41882Y1725
X42670Y1725
X43457Y1725
X44244Y1725
X45032Y1725
X45819Y1725
X46607Y1725
X47394Y1725
X48181Y1725
X48969Y1725
X49756Y1725
X50544Y1725
X51331Y1725
X52119Y1725
X52906Y1725
X53693Y1725
X54481Y1725
X55268Y1725
X56056Y1725
X56843Y1725
X57630Y1725
X58418Y1725
X59205Y1725
X59993Y1725
X60780Y1725
X61567Y1725
X62355Y1725
X63142Y1725
X63930Y1725
X64717Y1725
X65504Y1725
X66292Y1725
X68654Y1725
X69835Y2512
X70229Y2512
X70229Y2906
X69835Y2906
X73378Y2906
X73378Y2512
X73772Y2512
X73772Y2906
X75741Y2906
X75741Y18654
X75741Y17473
X76922Y17473
X78103Y17473
X78103Y16685
X78103Y15898
X78103Y15111
X78103Y14323
X78103Y13536
X78103Y12748
X78103Y11961
X78103Y11174
X78103Y10386
X78300Y9599
X76528Y9205
X74953Y9205
X72788Y9402
X71705Y8910
X70229Y9008
X70229Y8811
X69540Y8615
X70032Y8122
X70032Y7926
X69441Y7827
X69244Y7827
X68949Y7827
X68752Y7827
X71607Y8122
X72296Y7827
X72985Y8024
X73280Y8615
X73477Y8615
X68851Y9894
X68851Y10091
X69638Y10681
X71016Y10780
X71705Y10485
X72197Y10780
X72788Y10780
X73969Y10780
X73969Y11370
X73969Y11666
X72985Y12059
X72985Y12355
X71508Y12748
X71016Y12355
X68556Y12650
X67473Y12748
X68457Y12945
X68457Y13142
X67473Y13536
X66292Y13142
X66292Y12748
X63930Y12748
X62748Y12748
X61567Y12748
X60485Y12552
X59402Y12355
X59993Y13142
X60386Y13142
X61174Y13142
X61567Y13536
X61961Y13930
X63142Y13536
X64717Y13536
X61961Y14717
X63142Y15111
X61961Y15504
X64717Y15111
X66292Y15111
X67571Y14815
X67867Y15111
X69441Y15406
X69441Y15603
X69441Y14815
X69441Y14225
X68556Y14225
X70032Y13339
X71508Y13634
X72296Y14028
X72296Y14323
X73181Y14323
X73181Y14028
X74166Y14028
X74166Y14323
X74166Y14619
X74166Y14914
X73181Y14914
X73181Y14619
X72296Y14619
X72296Y14914
X72296Y15209
X72296Y15504
X73181Y15504
X73181Y15209
X74166Y15209
X74166Y15504
X74166Y15800
X74166Y16095
X73870Y16095
X73477Y16095
X73181Y16095
X72886Y16095
X72591Y16095
X72296Y16095
X72296Y15800
X73181Y15800
X74953Y13634
X74953Y13437
X74953Y13142
X74953Y12945
X73083Y13241
X65504Y11272
X65209Y11075
X64717Y10780
X64323Y10780
X64323Y10386
X62748Y10780
X61567Y10780
X60780Y10386
X59599Y10780
X59205Y10780
X58811Y10780
X57237Y10780
X56843Y10780
X56843Y10386
X55268Y10386
X53693Y10386
X51725Y9599
X53693Y8811
X55268Y8811
X56843Y8811
X57433Y8418
X58221Y8418
X58122Y8024
X57237Y8024
X56843Y7237
X58418Y7237
X59993Y7237
X61961Y8024
X63930Y7630
X64717Y8418
X62748Y8811
X60780Y8811
X63536Y9599
X65504Y9205
X66292Y9993
X66784Y10288
X67178Y10091
X60780Y11469
X60386Y11567
X59402Y9796
X53201Y11370
X51725Y11174
X50544Y11567
X49658Y11863
X47394Y11174
X47394Y10386
X45819Y10386
X44244Y10386
X41095Y10386
X39520Y10386
X37945Y10386
X36370Y10386
X34796Y10386
X33221Y10386
X31646Y10386
X30071Y10386
X28496Y10386
X26922Y10386
X25347Y10386
X23772Y10386
X22197Y10386
X20622Y10386
X19048Y10386
X17473Y10386
X15898Y10386
X14323Y10386
X12748Y10386
X11174Y10386
X8910Y9304
X8713Y9304
X8319Y9304
X8122Y9304
X8024Y8811
X6449Y8811
X4874Y8811
X3300Y8811
X937Y8811
X937Y8024
X937Y7237
X937Y6449
X3300Y7237
X4874Y7237
X6449Y7237
X8024Y7237
X9008Y7827
X10189Y7827
X11370Y7827
X11961Y7237
X12945Y6843
X13536Y6843
X13930Y6843
X13930Y7237
X13536Y7237
X16095Y7040
X19835Y5859
X20819Y5859
X22197Y5662
X23772Y5662
X25347Y5662
X26922Y5662
X28496Y5662
X30071Y5662
X31646Y5662
X33221Y5662
X34796Y5662
X36370Y5662
X37945Y5662
X39520Y5662
X41095Y5662
X42670Y5662
X44244Y5662
X45819Y5662
X47394Y5662
X48969Y5662
X50544Y5662
X52119Y5662
X53693Y5662
X55268Y5662
X56843Y5662
X55268Y7237
X53693Y7237
X52119Y7237
X50544Y7237
X48969Y6843
X48181Y6843
X41882Y6843
X40701Y6843
X39520Y7237
X37945Y7237
X36370Y7237
X34796Y7237
X33221Y7237
X31646Y7237
X30071Y7237
X28496Y7237
X26922Y7237
X25347Y7237
X23772Y7237
X22197Y7237
X21016Y6449
X21410Y4874
X22197Y4087
X20819Y3890
X19835Y3890
X18851Y4185
X15898Y4087
X15504Y4087
X15898Y3693
X15898Y3300
X17276Y3201
X18359Y3201
X19343Y3201
X20426Y2512
X23772Y4087
X25347Y4087
X26922Y4087
X28496Y4087
X30071Y4087
X31646Y4087
X33221Y4087
X34796Y4087
X36370Y4087
X37945Y4087
X39520Y4087
X41095Y4087
X42670Y4087
X44244Y4087
X45819Y4087
X47394Y4087
X48969Y4087
X50544Y4087
X52119Y4087
X53693Y4087
X55268Y4087
X56843Y4087
X57827Y3004
X62355Y4087
X63930Y4087
X65898Y4087
X66292Y4087
X66685Y4087
X63930Y5662
X62355Y6056
X61863Y5760
X63142Y6843
X66685Y6252
X66882Y6252
X67670Y6056
X67867Y6056
X69737Y6056
X69933Y6056
X69933Y5859
X69737Y5859
X71804Y7040
X72296Y6941
X78103Y7237
X78103Y6449
X78103Y5662
X78103Y4874
X78103Y4087
X76922Y4087
X75741Y4087
X72788Y4087
X72788Y3890
X74953Y1725
X75741Y1725
X78300Y8024
X78300Y8811
X56843Y13142
X56056Y13142
X55268Y13142
X54481Y13142
X53693Y13142
X53201Y12552
X51331Y13142
X50544Y13142
X49756Y13142
X47000Y13142
X46213Y13142
X45426Y13142
X44638Y13142
X43851Y13142
X41489Y13142
X40701Y13142
X39914Y13142
X39126Y13142
X38339Y13142
X37552Y13142
X36764Y13142
X35977Y13142
X35189Y13142
X34402Y13142
X33615Y13142
X32827Y13142
X32040Y13142
X31252Y13142
X30465Y13142
X29678Y13142
X28890Y13142
X28103Y13142
X27315Y13142
X26528Y13142
X25741Y13142
X24953Y13142
X24166Y13142
X23378Y13142
X22591Y13142
X21804Y13142
X21016Y13142
X20229Y13142
X19441Y13142
X18654Y13142
X17867Y13142
X17079Y13142
X16292Y13142
X15504Y13142
X14717Y13142
X13930Y13142
X13142Y13142
X12748Y13536
X12355Y13930
X12355Y14717
X12355Y15504
X12355Y16292
X12355Y17079
X12355Y17867
X12355Y18654
X12355Y19441
X11961Y19835
X11174Y19835
X10386Y19835
X9599Y19835
X8811Y19835
X8024Y19835
X7237Y19835
X6449Y19835
X5662Y19835
X4874Y19835
X4087Y19835
X3300Y19835
X75741Y19835
X74953Y19835
X74166Y19835
X73378Y19835
X72591Y19835
X71804Y19835
X71016Y19835
X70229Y19835
X69441Y19835
X68654Y19835
X67867Y19835
X67079Y19835
X66292Y19835
X65504Y19835
X64717Y19835
X63930Y19835
X63142Y19835
X62355Y19835
X61961Y19441
X61961Y18654
X61961Y17867
X61961Y17079
X61961Y16292
X45819Y11961
X44244Y11961
X41095Y11961
X39520Y11961
X37945Y11961
X36370Y11961
X34796Y11961
X33221Y11961
X31646Y11961
X30071Y11961
X28496Y11961
X26922Y11961
X25347Y11961
X23772Y11961
X22197Y11961
X20622Y11961
X19048Y11961
X17473Y11961
X15898Y11961
X14323Y11961
X12748Y11961
X8221Y12945
X6843Y13536
X6843Y13930
X4284Y14520
X4284Y14914
X4284Y15307
X4284Y15701
X4678Y15701
X5071Y15701
X8221Y15701
X8418Y15701
X3300Y17473
X2119Y17473
X937Y17473
X937Y16685
X937Y15898
X937Y15111
X937Y14323
X937Y13536
X937Y12748
X937Y11961
X3300Y11961
X937Y11174
X937Y10386
X937Y9599
X4678Y10386
X6252Y10386
X7532Y10386
X9599Y8811
X11174Y8811
X12748Y8811
X14323Y8811
X15898Y8811
X17473Y8811
X19048Y8811
X20622Y8811
X22197Y8811
X23772Y8811
X25347Y8811
X25347Y8811
X26922Y8811
X28496Y8811
X30071Y8811
X31646Y8811
X33221Y8811
X34796Y8811
X36370Y8811
X37945Y8811
X39520Y8811
X41095Y8811
X44244Y8811
X45819Y8811
X47394Y8811
X49756Y10977
X13536Y4087
X13142Y4087
X13142Y3693
X13142Y3300
X10878Y3595
X10681Y3595
X10681Y3792
X10878Y3792
X10878Y3792
X8024Y4087
X6449Y4087
X4874Y4087
X3300Y4087
X2119Y4087
X937Y4087
X937Y4874
X937Y5662
X4874Y5662
X6449Y5662
X8024Y5662
X8024Y2906
X6449Y2906
X4874Y2906
X3300Y2906
X3300Y18654
X9599Y2906
T02
X70937Y2807
X72670Y2807
T03
X77315Y7205
X77315Y8205
X77315Y9205
X77315Y10205
X77315Y11205
X63546Y10790
T04
X65634Y12878
T05
X67473Y1567
X67473Y4323
T06
X1725Y2512
X1725Y19048
X77315Y19048
X77315Y2512
M30
