G75*
G70*
%OFA0B0*%
%FSLAX24Y24*%
%IPPOS*%
%LPD*%
%AMOC8*
5,1,8,0,0,1.08239X$1,22.5*
%
%ADD10C,0.0000*%
%ADD11C,0.0660*%
%ADD12C,0.0100*%
%ADD13C,0.0246*%
%ADD14C,0.0500*%
%ADD15C,0.0160*%
%ADD16C,0.0120*%
D10*
X001725Y000937D02*
X077315Y000937D01*
X076685Y002512D02*
X076687Y002562D01*
X076693Y002612D01*
X076703Y002661D01*
X076717Y002709D01*
X076734Y002756D01*
X076755Y002801D01*
X076780Y002845D01*
X076808Y002886D01*
X076840Y002925D01*
X076874Y002962D01*
X076911Y002996D01*
X076951Y003026D01*
X076993Y003053D01*
X077037Y003077D01*
X077083Y003098D01*
X077130Y003114D01*
X077178Y003127D01*
X077228Y003136D01*
X077277Y003141D01*
X077328Y003142D01*
X077378Y003139D01*
X077427Y003132D01*
X077476Y003121D01*
X077524Y003106D01*
X077570Y003088D01*
X077615Y003066D01*
X077658Y003040D01*
X077699Y003011D01*
X077738Y002979D01*
X077774Y002944D01*
X077806Y002906D01*
X077836Y002866D01*
X077863Y002823D01*
X077886Y002779D01*
X077905Y002733D01*
X077921Y002685D01*
X077933Y002636D01*
X077941Y002587D01*
X077945Y002537D01*
X077945Y002487D01*
X077941Y002437D01*
X077933Y002388D01*
X077921Y002339D01*
X077905Y002291D01*
X077886Y002245D01*
X077863Y002201D01*
X077836Y002158D01*
X077806Y002118D01*
X077774Y002080D01*
X077738Y002045D01*
X077699Y002013D01*
X077658Y001984D01*
X077615Y001958D01*
X077570Y001936D01*
X077524Y001918D01*
X077476Y001903D01*
X077427Y001892D01*
X077378Y001885D01*
X077328Y001882D01*
X077277Y001883D01*
X077228Y001888D01*
X077178Y001897D01*
X077130Y001910D01*
X077083Y001926D01*
X077037Y001947D01*
X076993Y001971D01*
X076951Y001998D01*
X076911Y002028D01*
X076874Y002062D01*
X076840Y002099D01*
X076808Y002138D01*
X076780Y002179D01*
X076755Y002223D01*
X076734Y002268D01*
X076717Y002315D01*
X076703Y002363D01*
X076693Y002412D01*
X076687Y002462D01*
X076685Y002512D01*
X077315Y000937D02*
X077392Y000939D01*
X077469Y000945D01*
X077546Y000954D01*
X077622Y000967D01*
X077698Y000984D01*
X077772Y001005D01*
X077846Y001029D01*
X077918Y001057D01*
X077988Y001088D01*
X078057Y001123D01*
X078125Y001161D01*
X078190Y001202D01*
X078253Y001247D01*
X078314Y001295D01*
X078373Y001345D01*
X078429Y001398D01*
X078482Y001454D01*
X078532Y001513D01*
X078580Y001574D01*
X078625Y001637D01*
X078666Y001702D01*
X078704Y001770D01*
X078739Y001839D01*
X078770Y001909D01*
X078798Y001981D01*
X078822Y002055D01*
X078843Y002129D01*
X078860Y002205D01*
X078873Y002281D01*
X078882Y002358D01*
X078888Y002435D01*
X078890Y002512D01*
X078890Y019048D01*
X076685Y019048D02*
X076687Y019098D01*
X076693Y019148D01*
X076703Y019197D01*
X076717Y019245D01*
X076734Y019292D01*
X076755Y019337D01*
X076780Y019381D01*
X076808Y019422D01*
X076840Y019461D01*
X076874Y019498D01*
X076911Y019532D01*
X076951Y019562D01*
X076993Y019589D01*
X077037Y019613D01*
X077083Y019634D01*
X077130Y019650D01*
X077178Y019663D01*
X077228Y019672D01*
X077277Y019677D01*
X077328Y019678D01*
X077378Y019675D01*
X077427Y019668D01*
X077476Y019657D01*
X077524Y019642D01*
X077570Y019624D01*
X077615Y019602D01*
X077658Y019576D01*
X077699Y019547D01*
X077738Y019515D01*
X077774Y019480D01*
X077806Y019442D01*
X077836Y019402D01*
X077863Y019359D01*
X077886Y019315D01*
X077905Y019269D01*
X077921Y019221D01*
X077933Y019172D01*
X077941Y019123D01*
X077945Y019073D01*
X077945Y019023D01*
X077941Y018973D01*
X077933Y018924D01*
X077921Y018875D01*
X077905Y018827D01*
X077886Y018781D01*
X077863Y018737D01*
X077836Y018694D01*
X077806Y018654D01*
X077774Y018616D01*
X077738Y018581D01*
X077699Y018549D01*
X077658Y018520D01*
X077615Y018494D01*
X077570Y018472D01*
X077524Y018454D01*
X077476Y018439D01*
X077427Y018428D01*
X077378Y018421D01*
X077328Y018418D01*
X077277Y018419D01*
X077228Y018424D01*
X077178Y018433D01*
X077130Y018446D01*
X077083Y018462D01*
X077037Y018483D01*
X076993Y018507D01*
X076951Y018534D01*
X076911Y018564D01*
X076874Y018598D01*
X076840Y018635D01*
X076808Y018674D01*
X076780Y018715D01*
X076755Y018759D01*
X076734Y018804D01*
X076717Y018851D01*
X076703Y018899D01*
X076693Y018948D01*
X076687Y018998D01*
X076685Y019048D01*
X077315Y020623D02*
X077392Y020621D01*
X077469Y020615D01*
X077546Y020606D01*
X077622Y020593D01*
X077698Y020576D01*
X077772Y020555D01*
X077846Y020531D01*
X077918Y020503D01*
X077988Y020472D01*
X078057Y020437D01*
X078125Y020399D01*
X078190Y020358D01*
X078253Y020313D01*
X078314Y020265D01*
X078373Y020215D01*
X078429Y020162D01*
X078482Y020106D01*
X078532Y020047D01*
X078580Y019986D01*
X078625Y019923D01*
X078666Y019858D01*
X078704Y019790D01*
X078739Y019721D01*
X078770Y019651D01*
X078798Y019579D01*
X078822Y019505D01*
X078843Y019431D01*
X078860Y019355D01*
X078873Y019279D01*
X078882Y019202D01*
X078888Y019125D01*
X078890Y019048D01*
X077315Y020622D02*
X001725Y020622D01*
X001095Y019048D02*
X001097Y019098D01*
X001103Y019148D01*
X001113Y019197D01*
X001127Y019245D01*
X001144Y019292D01*
X001165Y019337D01*
X001190Y019381D01*
X001218Y019422D01*
X001250Y019461D01*
X001284Y019498D01*
X001321Y019532D01*
X001361Y019562D01*
X001403Y019589D01*
X001447Y019613D01*
X001493Y019634D01*
X001540Y019650D01*
X001588Y019663D01*
X001638Y019672D01*
X001687Y019677D01*
X001738Y019678D01*
X001788Y019675D01*
X001837Y019668D01*
X001886Y019657D01*
X001934Y019642D01*
X001980Y019624D01*
X002025Y019602D01*
X002068Y019576D01*
X002109Y019547D01*
X002148Y019515D01*
X002184Y019480D01*
X002216Y019442D01*
X002246Y019402D01*
X002273Y019359D01*
X002296Y019315D01*
X002315Y019269D01*
X002331Y019221D01*
X002343Y019172D01*
X002351Y019123D01*
X002355Y019073D01*
X002355Y019023D01*
X002351Y018973D01*
X002343Y018924D01*
X002331Y018875D01*
X002315Y018827D01*
X002296Y018781D01*
X002273Y018737D01*
X002246Y018694D01*
X002216Y018654D01*
X002184Y018616D01*
X002148Y018581D01*
X002109Y018549D01*
X002068Y018520D01*
X002025Y018494D01*
X001980Y018472D01*
X001934Y018454D01*
X001886Y018439D01*
X001837Y018428D01*
X001788Y018421D01*
X001738Y018418D01*
X001687Y018419D01*
X001638Y018424D01*
X001588Y018433D01*
X001540Y018446D01*
X001493Y018462D01*
X001447Y018483D01*
X001403Y018507D01*
X001361Y018534D01*
X001321Y018564D01*
X001284Y018598D01*
X001250Y018635D01*
X001218Y018674D01*
X001190Y018715D01*
X001165Y018759D01*
X001144Y018804D01*
X001127Y018851D01*
X001113Y018899D01*
X001103Y018948D01*
X001097Y018998D01*
X001095Y019048D01*
X000150Y019048D02*
X000152Y019125D01*
X000158Y019202D01*
X000167Y019279D01*
X000180Y019355D01*
X000197Y019431D01*
X000218Y019505D01*
X000242Y019579D01*
X000270Y019651D01*
X000301Y019721D01*
X000336Y019790D01*
X000374Y019858D01*
X000415Y019923D01*
X000460Y019986D01*
X000508Y020047D01*
X000558Y020106D01*
X000611Y020162D01*
X000667Y020215D01*
X000726Y020265D01*
X000787Y020313D01*
X000850Y020358D01*
X000915Y020399D01*
X000983Y020437D01*
X001052Y020472D01*
X001122Y020503D01*
X001194Y020531D01*
X001268Y020555D01*
X001342Y020576D01*
X001418Y020593D01*
X001494Y020606D01*
X001571Y020615D01*
X001648Y020621D01*
X001725Y020623D01*
X000150Y019048D02*
X000150Y002512D01*
X001095Y002512D02*
X001097Y002562D01*
X001103Y002612D01*
X001113Y002661D01*
X001127Y002709D01*
X001144Y002756D01*
X001165Y002801D01*
X001190Y002845D01*
X001218Y002886D01*
X001250Y002925D01*
X001284Y002962D01*
X001321Y002996D01*
X001361Y003026D01*
X001403Y003053D01*
X001447Y003077D01*
X001493Y003098D01*
X001540Y003114D01*
X001588Y003127D01*
X001638Y003136D01*
X001687Y003141D01*
X001738Y003142D01*
X001788Y003139D01*
X001837Y003132D01*
X001886Y003121D01*
X001934Y003106D01*
X001980Y003088D01*
X002025Y003066D01*
X002068Y003040D01*
X002109Y003011D01*
X002148Y002979D01*
X002184Y002944D01*
X002216Y002906D01*
X002246Y002866D01*
X002273Y002823D01*
X002296Y002779D01*
X002315Y002733D01*
X002331Y002685D01*
X002343Y002636D01*
X002351Y002587D01*
X002355Y002537D01*
X002355Y002487D01*
X002351Y002437D01*
X002343Y002388D01*
X002331Y002339D01*
X002315Y002291D01*
X002296Y002245D01*
X002273Y002201D01*
X002246Y002158D01*
X002216Y002118D01*
X002184Y002080D01*
X002148Y002045D01*
X002109Y002013D01*
X002068Y001984D01*
X002025Y001958D01*
X001980Y001936D01*
X001934Y001918D01*
X001886Y001903D01*
X001837Y001892D01*
X001788Y001885D01*
X001738Y001882D01*
X001687Y001883D01*
X001638Y001888D01*
X001588Y001897D01*
X001540Y001910D01*
X001493Y001926D01*
X001447Y001947D01*
X001403Y001971D01*
X001361Y001998D01*
X001321Y002028D01*
X001284Y002062D01*
X001250Y002099D01*
X001218Y002138D01*
X001190Y002179D01*
X001165Y002223D01*
X001144Y002268D01*
X001127Y002315D01*
X001113Y002363D01*
X001103Y002412D01*
X001097Y002462D01*
X001095Y002512D01*
X000150Y002512D02*
X000152Y002435D01*
X000158Y002358D01*
X000167Y002281D01*
X000180Y002205D01*
X000197Y002129D01*
X000218Y002055D01*
X000242Y001981D01*
X000270Y001909D01*
X000301Y001839D01*
X000336Y001770D01*
X000374Y001702D01*
X000415Y001637D01*
X000460Y001574D01*
X000508Y001513D01*
X000558Y001454D01*
X000611Y001398D01*
X000667Y001345D01*
X000726Y001295D01*
X000787Y001247D01*
X000850Y001202D01*
X000915Y001161D01*
X000983Y001123D01*
X001052Y001088D01*
X001122Y001057D01*
X001194Y001029D01*
X001268Y001005D01*
X001342Y000984D01*
X001418Y000967D01*
X001494Y000954D01*
X001571Y000945D01*
X001648Y000939D01*
X001725Y000937D01*
X063349Y010790D02*
X063351Y010817D01*
X063357Y010844D01*
X063366Y010870D01*
X063379Y010894D01*
X063395Y010917D01*
X063414Y010936D01*
X063436Y010953D01*
X063460Y010967D01*
X063485Y010977D01*
X063512Y010984D01*
X063539Y010987D01*
X063567Y010986D01*
X063594Y010981D01*
X063620Y010973D01*
X063644Y010961D01*
X063667Y010945D01*
X063688Y010927D01*
X063705Y010906D01*
X063720Y010882D01*
X063731Y010857D01*
X063739Y010831D01*
X063743Y010804D01*
X063743Y010776D01*
X063739Y010749D01*
X063731Y010723D01*
X063720Y010698D01*
X063705Y010674D01*
X063688Y010653D01*
X063667Y010635D01*
X063645Y010619D01*
X063620Y010607D01*
X063594Y010599D01*
X063567Y010594D01*
X063539Y010593D01*
X063512Y010596D01*
X063485Y010603D01*
X063460Y010613D01*
X063436Y010627D01*
X063414Y010644D01*
X063395Y010663D01*
X063379Y010686D01*
X063366Y010710D01*
X063357Y010736D01*
X063351Y010763D01*
X063349Y010790D01*
X065378Y012878D02*
X065380Y012909D01*
X065386Y012940D01*
X065395Y012970D01*
X065408Y012999D01*
X065425Y013026D01*
X065445Y013050D01*
X065467Y013072D01*
X065493Y013091D01*
X065520Y013107D01*
X065549Y013119D01*
X065579Y013128D01*
X065610Y013133D01*
X065642Y013134D01*
X065673Y013131D01*
X065704Y013124D01*
X065734Y013114D01*
X065762Y013100D01*
X065788Y013082D01*
X065812Y013062D01*
X065833Y013038D01*
X065852Y013013D01*
X065867Y012985D01*
X065878Y012956D01*
X065886Y012925D01*
X065890Y012894D01*
X065890Y012862D01*
X065886Y012831D01*
X065878Y012800D01*
X065867Y012771D01*
X065852Y012743D01*
X065833Y012718D01*
X065812Y012694D01*
X065788Y012674D01*
X065762Y012656D01*
X065734Y012642D01*
X065704Y012632D01*
X065673Y012625D01*
X065642Y012622D01*
X065610Y012623D01*
X065579Y012628D01*
X065549Y012637D01*
X065520Y012649D01*
X065493Y012665D01*
X065467Y012684D01*
X065445Y012706D01*
X065425Y012730D01*
X065408Y012757D01*
X065395Y012786D01*
X065386Y012816D01*
X065380Y012847D01*
X065378Y012878D01*
X067178Y004323D02*
X067180Y004357D01*
X067186Y004391D01*
X067196Y004424D01*
X067209Y004455D01*
X067227Y004485D01*
X067247Y004513D01*
X067271Y004538D01*
X067297Y004560D01*
X067325Y004578D01*
X067356Y004594D01*
X067388Y004606D01*
X067422Y004614D01*
X067456Y004618D01*
X067490Y004618D01*
X067524Y004614D01*
X067558Y004606D01*
X067590Y004594D01*
X067620Y004578D01*
X067649Y004560D01*
X067675Y004538D01*
X067699Y004513D01*
X067719Y004485D01*
X067737Y004455D01*
X067750Y004424D01*
X067760Y004391D01*
X067766Y004357D01*
X067768Y004323D01*
X067766Y004289D01*
X067760Y004255D01*
X067750Y004222D01*
X067737Y004191D01*
X067719Y004161D01*
X067699Y004133D01*
X067675Y004108D01*
X067649Y004086D01*
X067621Y004068D01*
X067590Y004052D01*
X067558Y004040D01*
X067524Y004032D01*
X067490Y004028D01*
X067456Y004028D01*
X067422Y004032D01*
X067388Y004040D01*
X067356Y004052D01*
X067325Y004068D01*
X067297Y004086D01*
X067271Y004108D01*
X067247Y004133D01*
X067227Y004161D01*
X067209Y004191D01*
X067196Y004222D01*
X067186Y004255D01*
X067180Y004289D01*
X067178Y004323D01*
X070760Y002807D02*
X070762Y002833D01*
X070768Y002859D01*
X070778Y002884D01*
X070791Y002907D01*
X070807Y002927D01*
X070827Y002945D01*
X070849Y002960D01*
X070872Y002972D01*
X070898Y002980D01*
X070924Y002984D01*
X070950Y002984D01*
X070976Y002980D01*
X071002Y002972D01*
X071026Y002960D01*
X071047Y002945D01*
X071067Y002927D01*
X071083Y002907D01*
X071096Y002884D01*
X071106Y002859D01*
X071112Y002833D01*
X071114Y002807D01*
X071112Y002781D01*
X071106Y002755D01*
X071096Y002730D01*
X071083Y002707D01*
X071067Y002687D01*
X071047Y002669D01*
X071025Y002654D01*
X071002Y002642D01*
X070976Y002634D01*
X070950Y002630D01*
X070924Y002630D01*
X070898Y002634D01*
X070872Y002642D01*
X070848Y002654D01*
X070827Y002669D01*
X070807Y002687D01*
X070791Y002707D01*
X070778Y002730D01*
X070768Y002755D01*
X070762Y002781D01*
X070760Y002807D01*
X072493Y002807D02*
X072495Y002833D01*
X072501Y002859D01*
X072511Y002884D01*
X072524Y002907D01*
X072540Y002927D01*
X072560Y002945D01*
X072582Y002960D01*
X072605Y002972D01*
X072631Y002980D01*
X072657Y002984D01*
X072683Y002984D01*
X072709Y002980D01*
X072735Y002972D01*
X072759Y002960D01*
X072780Y002945D01*
X072800Y002927D01*
X072816Y002907D01*
X072829Y002884D01*
X072839Y002859D01*
X072845Y002833D01*
X072847Y002807D01*
X072845Y002781D01*
X072839Y002755D01*
X072829Y002730D01*
X072816Y002707D01*
X072800Y002687D01*
X072780Y002669D01*
X072758Y002654D01*
X072735Y002642D01*
X072709Y002634D01*
X072683Y002630D01*
X072657Y002630D01*
X072631Y002634D01*
X072605Y002642D01*
X072581Y002654D01*
X072560Y002669D01*
X072540Y002687D01*
X072524Y002707D01*
X072511Y002730D01*
X072501Y002755D01*
X072495Y002781D01*
X072493Y002807D01*
X067178Y001567D02*
X067180Y001601D01*
X067186Y001635D01*
X067196Y001668D01*
X067209Y001699D01*
X067227Y001729D01*
X067247Y001757D01*
X067271Y001782D01*
X067297Y001804D01*
X067325Y001822D01*
X067356Y001838D01*
X067388Y001850D01*
X067422Y001858D01*
X067456Y001862D01*
X067490Y001862D01*
X067524Y001858D01*
X067558Y001850D01*
X067590Y001838D01*
X067620Y001822D01*
X067649Y001804D01*
X067675Y001782D01*
X067699Y001757D01*
X067719Y001729D01*
X067737Y001699D01*
X067750Y001668D01*
X067760Y001635D01*
X067766Y001601D01*
X067768Y001567D01*
X067766Y001533D01*
X067760Y001499D01*
X067750Y001466D01*
X067737Y001435D01*
X067719Y001405D01*
X067699Y001377D01*
X067675Y001352D01*
X067649Y001330D01*
X067621Y001312D01*
X067590Y001296D01*
X067558Y001284D01*
X067524Y001276D01*
X067490Y001272D01*
X067456Y001272D01*
X067422Y001276D01*
X067388Y001284D01*
X067356Y001296D01*
X067325Y001312D01*
X067297Y001330D01*
X067271Y001352D01*
X067247Y001377D01*
X067227Y001405D01*
X067209Y001435D01*
X067196Y001466D01*
X067186Y001499D01*
X067180Y001533D01*
X067178Y001567D01*
D11*
X077315Y007205D03*
X077315Y008205D03*
X077315Y009205D03*
X077315Y010205D03*
X077315Y011205D03*
D12*
X077267Y011181D02*
X066018Y011181D01*
X066117Y011083D02*
X076850Y011083D01*
X076847Y011093D02*
X076871Y011021D01*
X076905Y010954D01*
X076949Y010892D01*
X077003Y010839D01*
X077064Y010795D01*
X077131Y010760D01*
X077203Y010737D01*
X077267Y010727D01*
X077267Y011157D01*
X076837Y011157D01*
X076847Y011093D01*
X076889Y010984D02*
X074094Y010984D01*
X074065Y011013D02*
X074202Y010876D01*
X074202Y010683D01*
X074065Y010547D01*
X073962Y010547D01*
X073937Y010521D01*
X072820Y010521D01*
X072795Y010547D01*
X072691Y010547D01*
X072555Y010683D01*
X072555Y010876D01*
X072691Y011013D01*
X072884Y011013D01*
X073021Y010876D01*
X073021Y010841D01*
X073736Y010841D01*
X073736Y010876D01*
X073872Y011013D01*
X074065Y011013D01*
X074192Y010886D02*
X076956Y010886D01*
X077078Y010787D02*
X074202Y010787D01*
X074202Y010689D02*
X078740Y010689D01*
X078740Y010787D02*
X077553Y010787D01*
X077567Y010795D02*
X077628Y010839D01*
X077681Y010892D01*
X077726Y010954D01*
X077760Y011021D01*
X077784Y011093D01*
X077794Y011157D01*
X077364Y011157D01*
X077364Y011254D01*
X077267Y011254D01*
X077267Y011683D01*
X077203Y011673D01*
X077131Y011650D01*
X077064Y011616D01*
X077003Y011571D01*
X076949Y011518D01*
X076905Y011457D01*
X076871Y011389D01*
X076847Y011318D01*
X076837Y011254D01*
X077267Y011254D01*
X077267Y011157D01*
X077364Y011157D01*
X077364Y010727D01*
X077428Y010737D01*
X077500Y010760D01*
X077567Y010795D01*
X077675Y010886D02*
X078740Y010886D01*
X078740Y010984D02*
X077742Y010984D01*
X077780Y011083D02*
X078740Y011083D01*
X078740Y011181D02*
X077364Y011181D01*
X077364Y011254D02*
X077794Y011254D01*
X077784Y011318D01*
X077760Y011389D01*
X077726Y011457D01*
X077681Y011518D01*
X077628Y011571D01*
X077567Y011616D01*
X077500Y011650D01*
X077428Y011673D01*
X077364Y011683D01*
X077364Y011254D01*
X077364Y011280D02*
X077267Y011280D01*
X077267Y011378D02*
X077364Y011378D01*
X077364Y011477D02*
X077267Y011477D01*
X077267Y011575D02*
X077364Y011575D01*
X077364Y011674D02*
X077267Y011674D01*
X077207Y011674D02*
X061195Y011674D01*
X061235Y011634D02*
X060645Y012224D01*
X060645Y012382D01*
X060718Y012455D01*
X060718Y012648D01*
X060581Y012785D01*
X060388Y012785D01*
X060252Y012648D01*
X060252Y012455D01*
X060325Y012382D01*
X060325Y012092D01*
X060394Y012023D01*
X060222Y012023D01*
X060123Y011924D01*
X053760Y011924D01*
X053361Y012323D01*
X053361Y012382D01*
X053434Y012455D01*
X053434Y012648D01*
X053298Y012785D01*
X053105Y012785D01*
X052968Y012648D01*
X052968Y012455D01*
X053041Y012382D01*
X053041Y012190D01*
X053135Y012096D01*
X053565Y011666D01*
X053430Y011530D01*
X053371Y011530D01*
X053298Y011603D01*
X053105Y011603D01*
X052968Y011467D01*
X052968Y011274D01*
X053105Y011137D01*
X053298Y011137D01*
X053371Y011210D01*
X053563Y011210D01*
X053760Y011407D01*
X059508Y011407D01*
X059439Y011338D01*
X059439Y010949D01*
X059366Y010876D01*
X059366Y010683D01*
X059502Y010547D01*
X059695Y010547D01*
X059832Y010683D01*
X059832Y010876D01*
X059759Y010949D01*
X059759Y011206D01*
X059764Y011210D01*
X060123Y011210D01*
X060128Y011206D01*
X060128Y011206D01*
X060222Y011112D01*
X060517Y011112D01*
X060521Y011107D01*
X060615Y011014D01*
X060945Y011014D01*
X061141Y011210D01*
X061235Y011304D01*
X061235Y011634D01*
X061235Y011575D02*
X077008Y011575D01*
X076920Y011477D02*
X065629Y011477D01*
X065601Y011505D02*
X065674Y011432D01*
X065767Y011432D01*
X065861Y011338D01*
X066456Y010743D01*
X066949Y010743D01*
X067042Y010649D01*
X067338Y010354D01*
X067338Y010260D01*
X067411Y010187D01*
X067411Y009994D01*
X067274Y009858D01*
X067081Y009858D01*
X066945Y009994D01*
X066945Y010119D01*
X066880Y010055D01*
X066687Y010055D01*
X066551Y010191D01*
X066551Y010226D01*
X066225Y010226D01*
X065635Y010817D01*
X065241Y010817D01*
X065216Y010842D01*
X065113Y010842D01*
X064976Y010979D01*
X064976Y011172D01*
X065113Y011308D01*
X065271Y011308D01*
X065271Y011369D01*
X065408Y011505D01*
X065601Y011505D01*
X065380Y011477D02*
X061235Y011477D01*
X061235Y011378D02*
X065281Y011378D01*
X065084Y011280D02*
X061211Y011280D01*
X061112Y011181D02*
X064986Y011181D01*
X064976Y011083D02*
X063743Y011083D01*
X063742Y011084D02*
X063615Y011137D01*
X063477Y011137D01*
X063349Y011084D01*
X063252Y010986D01*
X063199Y010859D01*
X063199Y010721D01*
X063252Y010593D01*
X063349Y010496D01*
X063477Y010443D01*
X063615Y010443D01*
X063742Y010496D01*
X063840Y010593D01*
X063893Y010721D01*
X063893Y010859D01*
X063840Y010986D01*
X063742Y011084D01*
X063841Y010984D02*
X064976Y010984D01*
X065069Y010886D02*
X063881Y010886D01*
X063893Y010787D02*
X065664Y010787D01*
X065763Y010689D02*
X063879Y010689D01*
X063837Y010590D02*
X065861Y010590D01*
X065960Y010492D02*
X063733Y010492D01*
X063359Y010492D02*
X012219Y010492D01*
X012121Y010590D02*
X059459Y010590D01*
X059366Y010689D02*
X012022Y010689D01*
X011924Y010787D02*
X049616Y010787D01*
X049660Y010744D02*
X049853Y010744D01*
X049989Y010880D01*
X049989Y011073D01*
X049916Y011146D01*
X049916Y011830D01*
X049891Y011856D01*
X049891Y011959D01*
X049754Y012096D01*
X049561Y012096D01*
X049425Y011959D01*
X049425Y011766D01*
X049561Y011630D01*
X049596Y011630D01*
X049596Y011146D01*
X049523Y011073D01*
X049523Y010880D01*
X049660Y010744D01*
X049523Y010886D02*
X011825Y010886D01*
X011727Y010984D02*
X049523Y010984D01*
X049533Y011083D02*
X011628Y011083D01*
X011530Y011181D02*
X049596Y011181D01*
X049596Y011280D02*
X011431Y011280D01*
X011333Y011378D02*
X049596Y011378D01*
X049596Y011477D02*
X011234Y011477D01*
X011136Y011575D02*
X049596Y011575D01*
X049517Y011674D02*
X011037Y011674D01*
X010939Y011772D02*
X049425Y011772D01*
X049425Y011871D02*
X010840Y011871D01*
X010742Y011969D02*
X049435Y011969D01*
X049534Y012068D02*
X010643Y012068D01*
X010590Y012121D02*
X009271Y012121D01*
X008454Y012939D01*
X008454Y013042D01*
X008317Y013178D01*
X008124Y013178D01*
X007988Y013042D01*
X007988Y012849D01*
X008124Y012712D01*
X008228Y012712D01*
X009045Y011895D01*
X009139Y011801D01*
X010458Y011801D01*
X015059Y007200D01*
X015044Y007200D01*
X014951Y007106D01*
X014951Y006973D01*
X015044Y006880D01*
X015925Y006880D01*
X015998Y006807D01*
X016191Y006807D01*
X016328Y006943D01*
X016328Y007136D01*
X016191Y007273D01*
X015998Y007273D01*
X015925Y007200D01*
X015512Y007200D01*
X010590Y012121D01*
X010524Y011961D02*
X015445Y007040D01*
X016095Y007040D01*
X016328Y007044D02*
X076906Y007044D01*
X076875Y007118D02*
X076942Y006956D01*
X077066Y006832D01*
X077228Y006765D01*
X077403Y006765D01*
X077565Y006832D01*
X077688Y006956D01*
X077755Y007118D01*
X077755Y007293D01*
X077688Y007454D01*
X077565Y007578D01*
X077403Y007645D01*
X077228Y007645D01*
X077066Y007578D01*
X076942Y007454D01*
X076875Y007293D01*
X076875Y007118D01*
X076875Y007143D02*
X016321Y007143D01*
X016223Y007241D02*
X076875Y007241D01*
X076895Y007340D02*
X015371Y007340D01*
X015273Y007438D02*
X076936Y007438D01*
X077025Y007537D02*
X015174Y007537D01*
X015076Y007635D02*
X072158Y007635D01*
X072156Y007637D02*
X072199Y007594D01*
X072392Y007594D01*
X072529Y007731D01*
X072529Y007924D01*
X072392Y008060D01*
X072199Y008060D01*
X072156Y008017D01*
X071981Y008017D01*
X071840Y008158D01*
X071840Y008219D01*
X071703Y008355D01*
X071510Y008355D01*
X071374Y008219D01*
X071374Y008026D01*
X071510Y007889D01*
X071571Y007889D01*
X071823Y007637D01*
X072156Y007637D01*
X072433Y007635D02*
X077204Y007635D01*
X077228Y007765D02*
X077403Y007765D01*
X077565Y007832D01*
X077688Y007956D01*
X077755Y008118D01*
X077755Y008293D01*
X077688Y008454D01*
X077565Y008578D01*
X077403Y008645D01*
X077228Y008645D01*
X077066Y008578D01*
X076942Y008454D01*
X076875Y008293D01*
X076875Y008118D01*
X076942Y007956D01*
X077066Y007832D01*
X077228Y007765D01*
X077066Y007832D02*
X072529Y007832D01*
X072529Y007734D02*
X078740Y007734D01*
X078740Y007832D02*
X077565Y007832D01*
X077663Y007931D02*
X078740Y007931D01*
X078740Y008029D02*
X077719Y008029D01*
X077755Y008128D02*
X078740Y008128D01*
X078740Y008226D02*
X077755Y008226D01*
X077742Y008325D02*
X078740Y008325D01*
X078740Y008423D02*
X077701Y008423D01*
X077621Y008522D02*
X078740Y008522D01*
X078740Y008620D02*
X077462Y008620D01*
X077403Y008765D02*
X077565Y008832D01*
X077688Y008956D01*
X077755Y009118D01*
X077755Y009293D01*
X077688Y009454D01*
X077565Y009578D01*
X077403Y009645D01*
X077228Y009645D01*
X077066Y009578D01*
X076942Y009454D01*
X076875Y009293D01*
X076875Y009118D01*
X076942Y008956D01*
X077066Y008832D01*
X077228Y008765D01*
X077403Y008765D01*
X077529Y008817D02*
X078740Y008817D01*
X078740Y008719D02*
X071844Y008719D01*
X071802Y008677D02*
X071938Y008813D01*
X071938Y009006D01*
X071895Y009049D01*
X071895Y010345D01*
X071938Y010388D01*
X071938Y010581D01*
X071802Y010718D01*
X071609Y010718D01*
X071472Y010581D01*
X071472Y010388D01*
X071515Y010345D01*
X071515Y009049D01*
X071472Y009006D01*
X071472Y008813D01*
X071609Y008677D01*
X071802Y008677D01*
X071938Y008817D02*
X077102Y008817D01*
X076982Y008916D02*
X071938Y008916D01*
X071930Y009014D02*
X076918Y009014D01*
X076877Y009113D02*
X071895Y009113D01*
X071895Y009211D02*
X076875Y009211D01*
X076883Y009310D02*
X071895Y009310D01*
X071895Y009408D02*
X076923Y009408D01*
X076995Y009507D02*
X071895Y009507D01*
X071895Y009605D02*
X077132Y009605D01*
X077228Y009765D02*
X077403Y009765D01*
X077565Y009832D01*
X077688Y009956D01*
X077755Y010118D01*
X077755Y010293D01*
X077688Y010454D01*
X077565Y010578D01*
X077403Y010645D01*
X077228Y010645D01*
X077066Y010578D01*
X076942Y010454D01*
X076875Y010293D01*
X076875Y010118D01*
X076942Y009956D01*
X077066Y009832D01*
X077228Y009765D01*
X077138Y009802D02*
X071895Y009802D01*
X071895Y009704D02*
X078740Y009704D01*
X078740Y009802D02*
X077493Y009802D01*
X077633Y009901D02*
X078740Y009901D01*
X078740Y009999D02*
X077706Y009999D01*
X077747Y010098D02*
X078740Y010098D01*
X078740Y010196D02*
X077755Y010196D01*
X077754Y010295D02*
X078740Y010295D01*
X078740Y010393D02*
X077714Y010393D01*
X077651Y010492D02*
X078740Y010492D01*
X078740Y010590D02*
X077535Y010590D01*
X077364Y010787D02*
X077267Y010787D01*
X077267Y010886D02*
X077364Y010886D01*
X077364Y010984D02*
X077267Y010984D01*
X077267Y011083D02*
X077364Y011083D01*
X077789Y011280D02*
X078740Y011280D01*
X078740Y011378D02*
X077764Y011378D01*
X077711Y011477D02*
X078740Y011477D01*
X078740Y011575D02*
X077622Y011575D01*
X077424Y011674D02*
X078740Y011674D01*
X078740Y011772D02*
X061096Y011772D01*
X060998Y011871D02*
X078740Y011871D01*
X078740Y011969D02*
X060899Y011969D01*
X060801Y012068D02*
X078740Y012068D01*
X078740Y012166D02*
X060702Y012166D01*
X060645Y012265D02*
X078740Y012265D01*
X078740Y012363D02*
X060645Y012363D01*
X060718Y012462D02*
X068414Y012462D01*
X068459Y012417D02*
X068652Y012417D01*
X068789Y012553D01*
X068789Y012657D01*
X069311Y013179D01*
X069862Y013179D01*
X069935Y013106D01*
X070128Y013106D01*
X070265Y013242D01*
X070265Y013435D01*
X070128Y013572D01*
X069935Y013572D01*
X069862Y013499D01*
X069178Y013499D01*
X069084Y013405D01*
X068562Y012883D01*
X068459Y012883D01*
X068323Y012747D01*
X068323Y012553D01*
X068459Y012417D01*
X068323Y012560D02*
X065890Y012560D01*
X065864Y012534D02*
X065978Y012648D01*
X066040Y012797D01*
X066040Y012958D01*
X065978Y013108D01*
X065864Y013222D01*
X065714Y013284D01*
X065553Y013284D01*
X065404Y013222D01*
X065290Y013108D01*
X065228Y012958D01*
X065228Y012797D01*
X065290Y012648D01*
X065404Y012534D01*
X065553Y012472D01*
X065714Y012472D01*
X065864Y012534D01*
X065982Y012659D02*
X068323Y012659D01*
X068333Y012757D02*
X066023Y012757D01*
X066040Y012856D02*
X068432Y012856D01*
X068634Y012954D02*
X066040Y012954D01*
X066000Y013053D02*
X068732Y013053D01*
X068831Y013151D02*
X065934Y013151D01*
X065796Y013250D02*
X068929Y013250D01*
X069028Y013348D02*
X000300Y013348D01*
X000300Y013250D02*
X065472Y013250D01*
X065333Y013151D02*
X008344Y013151D01*
X008443Y013053D02*
X065267Y013053D01*
X065228Y012954D02*
X008454Y012954D01*
X008536Y012856D02*
X065228Y012856D01*
X065244Y012757D02*
X060608Y012757D01*
X060707Y012659D02*
X065285Y012659D01*
X065377Y012560D02*
X060718Y012560D01*
X060485Y012552D02*
X060485Y012158D01*
X061075Y011567D01*
X061075Y011370D01*
X060878Y011174D01*
X060681Y011174D01*
X060583Y011272D01*
X060288Y011272D01*
X060189Y011370D01*
X059697Y011370D01*
X059599Y011272D01*
X059599Y010780D01*
X059832Y010787D02*
X063199Y010787D01*
X063212Y010689D02*
X059832Y010689D01*
X059739Y010590D02*
X063255Y010590D01*
X063210Y010886D02*
X059822Y010886D01*
X059759Y010984D02*
X063251Y010984D01*
X063348Y011083D02*
X061014Y011083D01*
X060546Y011083D02*
X059759Y011083D01*
X059759Y011181D02*
X060152Y011181D01*
X059479Y011378D02*
X053731Y011378D01*
X053632Y011280D02*
X059439Y011280D01*
X059439Y011181D02*
X053342Y011181D01*
X053201Y011370D02*
X053496Y011370D01*
X053693Y011567D01*
X060386Y011567D01*
X060189Y011764D02*
X053693Y011764D01*
X053201Y012256D01*
X053201Y012552D01*
X052968Y012560D02*
X008832Y012560D01*
X008930Y012462D02*
X052968Y012462D01*
X053041Y012363D02*
X009029Y012363D01*
X009127Y012265D02*
X053041Y012265D01*
X053065Y012166D02*
X009226Y012166D01*
X009205Y011961D02*
X010524Y011961D01*
X010486Y011772D02*
X000300Y011772D01*
X000300Y011674D02*
X010585Y011674D01*
X010683Y011575D02*
X000300Y011575D01*
X000300Y011477D02*
X010782Y011477D01*
X010880Y011378D02*
X000300Y011378D01*
X000300Y011280D02*
X010979Y011280D01*
X011077Y011181D02*
X000300Y011181D01*
X000300Y011083D02*
X011176Y011083D01*
X011274Y010984D02*
X000300Y010984D01*
X000300Y010886D02*
X011373Y010886D01*
X011471Y010787D02*
X000300Y010787D01*
X000300Y010689D02*
X011570Y010689D01*
X011668Y010590D02*
X000300Y010590D01*
X000300Y010492D02*
X011767Y010492D01*
X011865Y010393D02*
X000300Y010393D01*
X000300Y010295D02*
X011964Y010295D01*
X012062Y010196D02*
X000300Y010196D01*
X000300Y010098D02*
X012161Y010098D01*
X012259Y009999D02*
X000300Y009999D01*
X000300Y009901D02*
X012358Y009901D01*
X012456Y009802D02*
X000300Y009802D01*
X000300Y009704D02*
X012555Y009704D01*
X012653Y009605D02*
X000300Y009605D01*
X000300Y009507D02*
X012752Y009507D01*
X012850Y009408D02*
X000300Y009408D01*
X000300Y009310D02*
X012949Y009310D01*
X013047Y009211D02*
X000300Y009211D01*
X000300Y009113D02*
X013146Y009113D01*
X013244Y009014D02*
X000300Y009014D01*
X000300Y008916D02*
X013343Y008916D01*
X013441Y008817D02*
X000300Y008817D01*
X000300Y008719D02*
X013540Y008719D01*
X013638Y008620D02*
X000300Y008620D01*
X000300Y008522D02*
X013737Y008522D01*
X013835Y008423D02*
X000300Y008423D01*
X000300Y008325D02*
X013934Y008325D01*
X014032Y008226D02*
X000300Y008226D01*
X000300Y008128D02*
X014131Y008128D01*
X014229Y008029D02*
X000300Y008029D01*
X000300Y007931D02*
X014328Y007931D01*
X014426Y007832D02*
X000300Y007832D01*
X000300Y007734D02*
X014525Y007734D01*
X014623Y007635D02*
X000300Y007635D01*
X000300Y007537D02*
X014722Y007537D01*
X014820Y007438D02*
X000300Y007438D01*
X000300Y007340D02*
X014919Y007340D01*
X015017Y007241D02*
X000300Y007241D01*
X000300Y007143D02*
X014988Y007143D01*
X014951Y007044D02*
X000300Y007044D01*
X000300Y006946D02*
X014978Y006946D01*
X015111Y007040D02*
X015445Y007040D01*
X015470Y007241D02*
X015967Y007241D01*
X016328Y006946D02*
X076952Y006946D01*
X077051Y006847D02*
X016232Y006847D01*
X015958Y006847D02*
X000300Y006847D01*
X000300Y006749D02*
X078740Y006749D01*
X078740Y006847D02*
X077580Y006847D01*
X077678Y006946D02*
X078740Y006946D01*
X078740Y007044D02*
X077725Y007044D01*
X077755Y007143D02*
X078740Y007143D01*
X078740Y007241D02*
X077755Y007241D01*
X077736Y007340D02*
X078740Y007340D01*
X078740Y007438D02*
X077695Y007438D01*
X077606Y007537D02*
X078740Y007537D01*
X078740Y007635D02*
X077426Y007635D01*
X076967Y007931D02*
X072521Y007931D01*
X072423Y008029D02*
X076912Y008029D01*
X076875Y008128D02*
X071870Y008128D01*
X071832Y008226D02*
X076875Y008226D01*
X076889Y008325D02*
X071734Y008325D01*
X071480Y008325D02*
X058454Y008325D01*
X058454Y008321D02*
X058454Y008514D01*
X058317Y008651D01*
X058124Y008651D01*
X058051Y008578D01*
X057603Y008578D01*
X057530Y008651D01*
X057337Y008651D01*
X057200Y008514D01*
X057200Y008321D01*
X057265Y008257D01*
X057140Y008257D01*
X057004Y008121D01*
X057004Y007928D01*
X057140Y007791D01*
X057333Y007791D01*
X057406Y007864D01*
X057953Y007864D01*
X058026Y007791D01*
X058219Y007791D01*
X058355Y007928D01*
X058355Y008121D01*
X058291Y008185D01*
X058317Y008185D01*
X058454Y008321D01*
X058454Y008423D02*
X076930Y008423D01*
X077010Y008522D02*
X058446Y008522D01*
X058348Y008620D02*
X077168Y008620D01*
X077648Y008916D02*
X078740Y008916D01*
X078740Y009014D02*
X077713Y009014D01*
X077753Y009113D02*
X078740Y009113D01*
X078740Y009211D02*
X077755Y009211D01*
X077748Y009310D02*
X078740Y009310D01*
X078740Y009408D02*
X077707Y009408D01*
X077636Y009507D02*
X078740Y009507D01*
X078740Y009605D02*
X077499Y009605D01*
X076997Y009901D02*
X071895Y009901D01*
X071895Y009999D02*
X076924Y009999D01*
X076884Y010098D02*
X071895Y010098D01*
X071895Y010196D02*
X076875Y010196D01*
X076876Y010295D02*
X071895Y010295D01*
X071938Y010393D02*
X076917Y010393D01*
X076980Y010492D02*
X071938Y010492D01*
X071929Y010590D02*
X072648Y010590D01*
X072555Y010689D02*
X071830Y010689D01*
X071580Y010689D02*
X067003Y010689D01*
X067101Y010590D02*
X071481Y010590D01*
X071472Y010492D02*
X067200Y010492D01*
X067298Y010393D02*
X071472Y010393D01*
X071515Y010295D02*
X067338Y010295D01*
X067402Y010196D02*
X071515Y010196D01*
X071515Y010098D02*
X067411Y010098D01*
X067411Y009999D02*
X071515Y009999D01*
X071515Y009901D02*
X067317Y009901D01*
X067178Y010091D02*
X067178Y010288D01*
X066882Y010583D01*
X066390Y010583D01*
X065701Y011272D01*
X065504Y011272D01*
X065821Y011378D02*
X076867Y011378D01*
X076841Y011280D02*
X065920Y011280D01*
X065307Y010977D02*
X065209Y011075D01*
X065307Y010977D02*
X065701Y010977D01*
X066292Y010386D01*
X066685Y010386D01*
X066784Y010288D01*
X066923Y010098D02*
X066945Y010098D01*
X066945Y009999D02*
X012712Y009999D01*
X012810Y009901D02*
X067038Y009901D01*
X066644Y010098D02*
X012613Y010098D01*
X012515Y010196D02*
X066551Y010196D01*
X066157Y010295D02*
X012416Y010295D01*
X012318Y010393D02*
X066058Y010393D01*
X066412Y010787D02*
X072555Y010787D01*
X072564Y010886D02*
X066314Y010886D01*
X066215Y010984D02*
X072663Y010984D01*
X072788Y010780D02*
X072886Y010681D01*
X073870Y010681D01*
X073969Y010780D01*
X074109Y010590D02*
X077096Y010590D01*
X073844Y010984D02*
X072913Y010984D01*
X073011Y010886D02*
X073745Y010886D01*
X071515Y009802D02*
X012909Y009802D01*
X013007Y009704D02*
X071515Y009704D01*
X071515Y009605D02*
X013106Y009605D01*
X013204Y009507D02*
X071515Y009507D01*
X071515Y009408D02*
X013303Y009408D01*
X013401Y009310D02*
X071515Y009310D01*
X071515Y009211D02*
X013500Y009211D01*
X013598Y009113D02*
X071515Y009113D01*
X071480Y009014D02*
X013697Y009014D01*
X013795Y008916D02*
X071472Y008916D01*
X071472Y008817D02*
X013894Y008817D01*
X013992Y008719D02*
X071567Y008719D01*
X071381Y008226D02*
X058359Y008226D01*
X058348Y008128D02*
X071374Y008128D01*
X071374Y008029D02*
X058355Y008029D01*
X058355Y007931D02*
X071469Y007931D01*
X071628Y007832D02*
X058260Y007832D01*
X058122Y008024D02*
X057237Y008024D01*
X057004Y008029D02*
X014682Y008029D01*
X014780Y007931D02*
X057004Y007931D01*
X057099Y007832D02*
X014879Y007832D01*
X014977Y007734D02*
X071727Y007734D01*
X071968Y008029D02*
X072168Y008029D01*
X070166Y006152D02*
X070030Y006289D01*
X069976Y006289D01*
X069907Y006317D01*
X069763Y006317D01*
X069694Y006289D01*
X069640Y006289D01*
X069504Y006152D01*
X069504Y006098D01*
X069475Y006029D01*
X069475Y003842D01*
X068505Y002872D01*
X058025Y002872D01*
X058060Y002908D01*
X058060Y003101D01*
X057924Y003237D01*
X057731Y003237D01*
X057594Y003101D01*
X057594Y002908D01*
X057630Y002872D01*
X012110Y002872D01*
X011184Y003799D01*
X011111Y003871D01*
X011111Y003888D01*
X010975Y004025D01*
X010921Y004025D01*
X010852Y004053D01*
X010708Y004053D01*
X010639Y004025D01*
X010585Y004025D01*
X010449Y003888D01*
X010449Y003834D01*
X010420Y003765D01*
X010420Y003622D01*
X010449Y003553D01*
X010449Y003498D01*
X010585Y003362D01*
X010602Y003362D01*
X010674Y003290D01*
X011757Y002207D01*
X011889Y002152D01*
X068726Y002152D01*
X068858Y002207D01*
X068959Y002308D01*
X070039Y003388D01*
X070140Y003489D01*
X070195Y003622D01*
X070195Y006029D01*
X070166Y006098D01*
X070166Y006152D01*
X070161Y006158D02*
X078740Y006158D01*
X078740Y006256D02*
X070062Y006256D01*
X070182Y006059D02*
X078740Y006059D01*
X078740Y005961D02*
X070195Y005961D01*
X070195Y005862D02*
X078740Y005862D01*
X078740Y005764D02*
X070195Y005764D01*
X070195Y005665D02*
X078740Y005665D01*
X078740Y005567D02*
X070195Y005567D01*
X070195Y005468D02*
X078740Y005468D01*
X078740Y005370D02*
X070195Y005370D01*
X070195Y005271D02*
X078740Y005271D01*
X078740Y005173D02*
X070195Y005173D01*
X070195Y005074D02*
X078740Y005074D01*
X078740Y004976D02*
X070195Y004976D01*
X070195Y004877D02*
X078740Y004877D01*
X078740Y004779D02*
X070195Y004779D01*
X070195Y004680D02*
X078740Y004680D01*
X078740Y004582D02*
X070195Y004582D01*
X070195Y004483D02*
X078740Y004483D01*
X078740Y004385D02*
X070195Y004385D01*
X070195Y004286D02*
X078740Y004286D01*
X078740Y004188D02*
X070195Y004188D01*
X070195Y004089D02*
X078740Y004089D01*
X078740Y003991D02*
X070195Y003991D01*
X070195Y003892D02*
X078740Y003892D01*
X078740Y003794D02*
X070195Y003794D01*
X070195Y003695D02*
X078740Y003695D01*
X078740Y003597D02*
X070185Y003597D01*
X070144Y003498D02*
X078740Y003498D01*
X078740Y003400D02*
X070051Y003400D01*
X070039Y003388D02*
X070039Y003388D01*
X069952Y003301D02*
X078740Y003301D01*
X078740Y003203D02*
X077686Y003203D01*
X077757Y003173D02*
X077470Y003292D01*
X077160Y003292D01*
X076874Y003173D01*
X076654Y002954D01*
X076535Y002667D01*
X076535Y002357D01*
X076654Y002070D01*
X076874Y001851D01*
X077160Y001732D01*
X077470Y001732D01*
X077757Y001851D01*
X077977Y002070D01*
X078095Y002357D01*
X078095Y002667D01*
X077977Y002954D01*
X077757Y003173D01*
X077826Y003104D02*
X078740Y003104D01*
X078740Y003006D02*
X077925Y003006D01*
X077996Y002907D02*
X078740Y002907D01*
X078740Y002809D02*
X078037Y002809D01*
X078077Y002710D02*
X078740Y002710D01*
X078740Y002612D02*
X078095Y002612D01*
X078095Y002513D02*
X078740Y002513D01*
X078740Y002512D02*
X078728Y002326D01*
X078632Y001967D01*
X078632Y001967D01*
X078486Y001714D01*
X078114Y001342D01*
X077861Y001196D01*
X077501Y001100D01*
X077315Y001087D01*
X001725Y001087D01*
X001539Y001100D01*
X001180Y001196D01*
X000927Y001342D01*
X000554Y001714D01*
X000408Y001967D01*
X000312Y002326D01*
X000300Y002512D01*
X000300Y019048D01*
X000312Y019234D01*
X000408Y019593D01*
X000554Y019846D01*
X000927Y020218D01*
X001180Y020364D01*
X001539Y020460D01*
X001725Y020472D01*
X012111Y020472D01*
X012748Y019835D01*
X012748Y013930D01*
X013142Y013536D01*
X061174Y013536D01*
X061567Y013930D01*
X061567Y019835D01*
X062205Y020472D01*
X077315Y020472D01*
X077501Y020460D01*
X077861Y020364D01*
X078114Y020218D01*
X078486Y019846D01*
X078632Y019593D01*
X078728Y019234D01*
X078740Y019048D01*
X078740Y002512D01*
X078734Y002415D02*
X078095Y002415D01*
X078078Y002316D02*
X078725Y002316D01*
X078699Y002218D02*
X078038Y002218D01*
X077997Y002119D02*
X078673Y002119D01*
X078646Y002021D02*
X077927Y002021D01*
X077829Y001922D02*
X078606Y001922D01*
X078549Y001824D02*
X077692Y001824D01*
X078300Y001528D02*
X067918Y001528D01*
X067918Y001479D02*
X067850Y001315D01*
X067725Y001190D01*
X067561Y001122D01*
X067384Y001122D01*
X067221Y001190D01*
X067095Y001315D01*
X067028Y001479D01*
X067028Y001656D01*
X067095Y001820D01*
X067221Y001945D01*
X067384Y002013D01*
X067561Y002013D01*
X067725Y001945D01*
X067850Y001820D01*
X067918Y001656D01*
X067918Y001479D01*
X067898Y001430D02*
X078202Y001430D01*
X078095Y001331D02*
X067857Y001331D01*
X067768Y001233D02*
X077925Y001233D01*
X077631Y001134D02*
X067591Y001134D01*
X067354Y001134D02*
X001409Y001134D01*
X001115Y001233D02*
X067178Y001233D01*
X067089Y001331D02*
X000945Y001331D01*
X000839Y001430D02*
X067048Y001430D01*
X067028Y001528D02*
X000740Y001528D01*
X000642Y001627D02*
X067028Y001627D01*
X067056Y001725D02*
X000548Y001725D01*
X000491Y001824D02*
X001348Y001824D01*
X001283Y001851D02*
X001570Y001732D01*
X001880Y001732D01*
X002167Y001851D01*
X002386Y002070D01*
X002505Y002357D01*
X002505Y002667D01*
X002386Y002954D01*
X002167Y003173D01*
X001880Y003292D01*
X001570Y003292D01*
X001283Y003173D01*
X001064Y002954D01*
X000945Y002667D01*
X000945Y002357D01*
X001064Y002070D01*
X001283Y001851D01*
X001212Y001922D02*
X000434Y001922D01*
X000394Y002021D02*
X001113Y002021D01*
X001043Y002119D02*
X000368Y002119D01*
X000341Y002218D02*
X001003Y002218D01*
X000962Y002316D02*
X000315Y002316D01*
X000306Y002415D02*
X000945Y002415D01*
X000945Y002513D02*
X000300Y002513D01*
X000300Y002612D02*
X000945Y002612D01*
X000963Y002710D02*
X000300Y002710D01*
X000300Y002809D02*
X001004Y002809D01*
X001044Y002907D02*
X000300Y002907D01*
X000300Y003006D02*
X001116Y003006D01*
X001214Y003104D02*
X000300Y003104D01*
X000300Y003203D02*
X001354Y003203D01*
X002095Y003203D02*
X010761Y003203D01*
X010663Y003301D02*
X000300Y003301D01*
X000300Y003400D02*
X010547Y003400D01*
X010449Y003498D02*
X000300Y003498D01*
X000300Y003597D02*
X010430Y003597D01*
X010420Y003695D02*
X000300Y003695D01*
X000300Y003794D02*
X010432Y003794D01*
X010453Y003892D02*
X000300Y003892D01*
X000300Y003991D02*
X010551Y003991D01*
X011009Y003991D02*
X067175Y003991D01*
X067221Y003946D02*
X067095Y004071D01*
X067028Y004235D01*
X067028Y004412D01*
X067095Y004575D01*
X067221Y004701D01*
X067384Y004769D01*
X067561Y004769D01*
X067725Y004701D01*
X067850Y004575D01*
X067918Y004412D01*
X067918Y004235D01*
X067850Y004071D01*
X067725Y003946D01*
X067561Y003878D01*
X067384Y003878D01*
X067221Y003946D01*
X067349Y003892D02*
X011107Y003892D01*
X011188Y003794D02*
X069427Y003794D01*
X069475Y003892D02*
X067596Y003892D01*
X067770Y003991D02*
X069475Y003991D01*
X069475Y004089D02*
X067858Y004089D01*
X067899Y004188D02*
X069475Y004188D01*
X069475Y004286D02*
X067918Y004286D01*
X067918Y004385D02*
X069475Y004385D01*
X069475Y004483D02*
X067888Y004483D01*
X067844Y004582D02*
X069475Y004582D01*
X069475Y004680D02*
X067745Y004680D01*
X067200Y004680D02*
X000300Y004680D01*
X000300Y004582D02*
X067102Y004582D01*
X067057Y004483D02*
X000300Y004483D01*
X000300Y004385D02*
X067028Y004385D01*
X067028Y004286D02*
X000300Y004286D01*
X000300Y004188D02*
X067047Y004188D01*
X067088Y004089D02*
X000300Y004089D01*
X000300Y004779D02*
X069475Y004779D01*
X069475Y004877D02*
X000300Y004877D01*
X000300Y004976D02*
X069475Y004976D01*
X069475Y005074D02*
X000300Y005074D01*
X000300Y005173D02*
X069475Y005173D01*
X069475Y005271D02*
X000300Y005271D01*
X000300Y005370D02*
X069475Y005370D01*
X069475Y005468D02*
X000300Y005468D01*
X000300Y005567D02*
X061726Y005567D01*
X061766Y005527D02*
X061959Y005527D01*
X062096Y005664D01*
X062096Y005857D01*
X061959Y005993D01*
X061856Y005993D01*
X061240Y006609D01*
X021186Y006609D01*
X021113Y006682D01*
X020920Y006682D01*
X020783Y006546D01*
X020783Y006353D01*
X020920Y006216D01*
X021113Y006216D01*
X021186Y006289D01*
X061107Y006289D01*
X061630Y005767D01*
X061630Y005664D01*
X061766Y005527D01*
X061630Y005665D02*
X000300Y005665D01*
X000300Y005764D02*
X061630Y005764D01*
X061534Y005862D02*
X000300Y005862D01*
X000300Y005961D02*
X061436Y005961D01*
X061337Y006059D02*
X000300Y006059D01*
X000300Y006158D02*
X061239Y006158D01*
X061140Y006256D02*
X021153Y006256D01*
X021016Y006449D02*
X061174Y006449D01*
X061863Y005760D01*
X062096Y005764D02*
X069475Y005764D01*
X069475Y005862D02*
X062090Y005862D01*
X061991Y005961D02*
X069475Y005961D01*
X069488Y006059D02*
X061790Y006059D01*
X061691Y006158D02*
X069510Y006158D01*
X069608Y006256D02*
X061593Y006256D01*
X061494Y006355D02*
X078740Y006355D01*
X078740Y006453D02*
X061396Y006453D01*
X061297Y006552D02*
X078740Y006552D01*
X078740Y006650D02*
X021144Y006650D01*
X020888Y006650D02*
X000300Y006650D01*
X000300Y006552D02*
X020789Y006552D01*
X020783Y006453D02*
X000300Y006453D01*
X000300Y006355D02*
X020783Y006355D01*
X020879Y006256D02*
X000300Y006256D01*
X011287Y003695D02*
X069328Y003695D01*
X069230Y003597D02*
X011385Y003597D01*
X011484Y003498D02*
X069131Y003498D01*
X069033Y003400D02*
X011582Y003400D01*
X011681Y003301D02*
X068934Y003301D01*
X068836Y003203D02*
X057958Y003203D01*
X058057Y003104D02*
X068737Y003104D01*
X068639Y003006D02*
X058060Y003006D01*
X058060Y002907D02*
X068540Y002907D01*
X069164Y002513D02*
X070792Y002513D01*
X070752Y002530D02*
X070872Y002480D01*
X071002Y002480D01*
X071123Y002530D01*
X071215Y002622D01*
X071265Y002742D01*
X071265Y002873D01*
X071215Y002993D01*
X071123Y003085D01*
X071002Y003135D01*
X070872Y003135D01*
X070752Y003085D01*
X070660Y002993D01*
X070610Y002873D01*
X070610Y002742D01*
X070660Y002622D01*
X070752Y002530D01*
X070670Y002612D02*
X069263Y002612D01*
X069361Y002710D02*
X070623Y002710D01*
X070610Y002809D02*
X069460Y002809D01*
X069558Y002907D02*
X070625Y002907D01*
X070673Y003006D02*
X069657Y003006D01*
X069755Y003104D02*
X070799Y003104D01*
X071075Y003104D02*
X072532Y003104D01*
X072484Y003085D02*
X072392Y002993D01*
X072343Y002873D01*
X072343Y002742D01*
X072392Y002622D01*
X072484Y002530D01*
X072605Y002480D01*
X072735Y002480D01*
X072855Y002530D01*
X072947Y002622D01*
X072997Y002742D01*
X072997Y002873D01*
X072947Y002993D01*
X072855Y003085D01*
X072735Y003135D01*
X072605Y003135D01*
X072484Y003085D01*
X072405Y003006D02*
X071202Y003006D01*
X071250Y002907D02*
X072357Y002907D01*
X072343Y002809D02*
X071265Y002809D01*
X071251Y002710D02*
X072356Y002710D01*
X072403Y002612D02*
X071205Y002612D01*
X071082Y002513D02*
X072525Y002513D01*
X072815Y002513D02*
X076535Y002513D01*
X076535Y002415D02*
X069066Y002415D01*
X068967Y002316D02*
X076552Y002316D01*
X076593Y002218D02*
X068869Y002218D01*
X068959Y002308D02*
X068959Y002308D01*
X067747Y001922D02*
X076802Y001922D01*
X076704Y002021D02*
X002336Y002021D01*
X002406Y002119D02*
X076634Y002119D01*
X076939Y001824D02*
X067846Y001824D01*
X067889Y001725D02*
X078492Y001725D01*
X078399Y001627D02*
X067918Y001627D01*
X067100Y001824D02*
X002101Y001824D01*
X002238Y001922D02*
X067198Y001922D01*
X069854Y003203D02*
X076945Y003203D01*
X076805Y003104D02*
X072808Y003104D01*
X072934Y003006D02*
X076706Y003006D01*
X076635Y002907D02*
X072982Y002907D01*
X072997Y002809D02*
X076594Y002809D01*
X076553Y002710D02*
X072984Y002710D01*
X072937Y002612D02*
X076535Y002612D01*
X069475Y005567D02*
X061999Y005567D01*
X062096Y005665D02*
X069475Y005665D01*
X069835Y005957D02*
X069737Y006056D01*
X058221Y008418D02*
X057433Y008418D01*
X057200Y008423D02*
X014288Y008423D01*
X014386Y008325D02*
X057200Y008325D01*
X057110Y008226D02*
X014485Y008226D01*
X014583Y008128D02*
X057011Y008128D01*
X057208Y008522D02*
X014189Y008522D01*
X014091Y008620D02*
X057307Y008620D01*
X057560Y008620D02*
X058094Y008620D01*
X057985Y007832D02*
X057375Y007832D01*
X059366Y010787D02*
X049896Y010787D01*
X049989Y010886D02*
X059375Y010886D01*
X059439Y010984D02*
X049989Y010984D01*
X049980Y011083D02*
X059439Y011083D01*
X060485Y011863D02*
X060780Y011567D01*
X060780Y011469D01*
X060288Y011863D02*
X060189Y011764D01*
X060288Y011863D02*
X060485Y011863D01*
X060348Y012068D02*
X053616Y012068D01*
X053714Y011969D02*
X060168Y011969D01*
X060325Y012166D02*
X053517Y012166D01*
X053419Y012265D02*
X060325Y012265D01*
X060325Y012363D02*
X053361Y012363D01*
X053434Y012462D02*
X060252Y012462D01*
X060252Y012560D02*
X053434Y012560D01*
X053423Y012659D02*
X060263Y012659D01*
X060361Y012757D02*
X053325Y012757D01*
X053078Y012757D02*
X008635Y012757D01*
X008733Y012659D02*
X052979Y012659D01*
X053163Y012068D02*
X049782Y012068D01*
X049881Y011969D02*
X053262Y011969D01*
X053360Y011871D02*
X049891Y011871D01*
X049916Y011772D02*
X053459Y011772D01*
X053557Y011674D02*
X049916Y011674D01*
X049916Y011575D02*
X053077Y011575D01*
X052978Y011477D02*
X049916Y011477D01*
X049916Y011378D02*
X052968Y011378D01*
X052968Y011280D02*
X049916Y011280D01*
X049916Y011181D02*
X053061Y011181D01*
X053326Y011575D02*
X053475Y011575D01*
X049756Y011764D02*
X049756Y010977D01*
X049756Y011764D02*
X049658Y011863D01*
X061183Y013545D02*
X069909Y013545D01*
X070032Y013339D02*
X069244Y013339D01*
X068556Y012650D01*
X068791Y012659D02*
X078740Y012659D01*
X078740Y012757D02*
X068889Y012757D01*
X068988Y012856D02*
X078740Y012856D01*
X078740Y012954D02*
X069086Y012954D01*
X069185Y013053D02*
X072941Y013053D01*
X072924Y013071D02*
X072987Y013008D01*
X073180Y013008D01*
X073316Y013144D01*
X073316Y013337D01*
X073180Y013474D01*
X072987Y013474D01*
X072924Y013411D01*
X071382Y013411D01*
X070891Y013902D01*
X070791Y014001D01*
X068626Y014001D01*
X067804Y014823D01*
X067804Y014912D01*
X067668Y015048D01*
X067475Y015048D01*
X067338Y014912D01*
X067338Y014719D01*
X067475Y014582D01*
X067564Y014582D01*
X068485Y013661D01*
X070650Y013661D01*
X071241Y013071D01*
X072924Y013071D01*
X073225Y013053D02*
X078740Y013053D01*
X078740Y013151D02*
X073316Y013151D01*
X073316Y013250D02*
X078740Y013250D01*
X078740Y013348D02*
X073305Y013348D01*
X073206Y013447D02*
X078740Y013447D01*
X078740Y013545D02*
X071247Y013545D01*
X071345Y013447D02*
X072960Y013447D01*
X071148Y013644D02*
X078740Y013644D01*
X078740Y013742D02*
X071050Y013742D01*
X070951Y013841D02*
X078740Y013841D01*
X078740Y013939D02*
X070853Y013939D01*
X070668Y013644D02*
X061282Y013644D01*
X061380Y013742D02*
X068404Y013742D01*
X068305Y013841D02*
X061479Y013841D01*
X061567Y013939D02*
X068207Y013939D01*
X068108Y014038D02*
X061567Y014038D01*
X061567Y014136D02*
X068010Y014136D01*
X067911Y014235D02*
X061567Y014235D01*
X061567Y014333D02*
X067813Y014333D01*
X067714Y014432D02*
X061567Y014432D01*
X061567Y014530D02*
X067616Y014530D01*
X067428Y014629D02*
X061567Y014629D01*
X061567Y014727D02*
X067338Y014727D01*
X067338Y014826D02*
X061567Y014826D01*
X061567Y014924D02*
X067351Y014924D01*
X067449Y015023D02*
X061567Y015023D01*
X061567Y015121D02*
X078740Y015121D01*
X078740Y015023D02*
X067693Y015023D01*
X067792Y014924D02*
X078740Y014924D01*
X078740Y014826D02*
X067804Y014826D01*
X067900Y014727D02*
X078740Y014727D01*
X078740Y014629D02*
X067998Y014629D01*
X068097Y014530D02*
X078740Y014530D01*
X078740Y014432D02*
X068195Y014432D01*
X068294Y014333D02*
X078740Y014333D01*
X078740Y014235D02*
X068392Y014235D01*
X068491Y014136D02*
X078740Y014136D01*
X078740Y014038D02*
X068589Y014038D01*
X070155Y013545D02*
X070766Y013545D01*
X070865Y013447D02*
X070253Y013447D01*
X070265Y013348D02*
X070963Y013348D01*
X071062Y013250D02*
X070265Y013250D01*
X070174Y013151D02*
X071160Y013151D01*
X069890Y013151D02*
X069283Y013151D01*
X069084Y013405D02*
X069084Y013405D01*
X069126Y013447D02*
X000300Y013447D01*
X000300Y013545D02*
X013133Y013545D01*
X013034Y013644D02*
X000300Y013644D01*
X000300Y013742D02*
X012936Y013742D01*
X012837Y013841D02*
X000300Y013841D01*
X000300Y013939D02*
X012748Y013939D01*
X012748Y014038D02*
X000300Y014038D01*
X000300Y014136D02*
X012748Y014136D01*
X012748Y014235D02*
X000300Y014235D01*
X000300Y014333D02*
X012748Y014333D01*
X012748Y014432D02*
X000300Y014432D01*
X000300Y014530D02*
X012748Y014530D01*
X012748Y014629D02*
X000300Y014629D01*
X000300Y014727D02*
X012748Y014727D01*
X012748Y014826D02*
X000300Y014826D01*
X000300Y014924D02*
X012748Y014924D01*
X012748Y015023D02*
X000300Y015023D01*
X000300Y015121D02*
X012748Y015121D01*
X012748Y015220D02*
X000300Y015220D01*
X000300Y015318D02*
X012748Y015318D01*
X012748Y015417D02*
X000300Y015417D01*
X000300Y015515D02*
X012748Y015515D01*
X012748Y015614D02*
X000300Y015614D01*
X000300Y015712D02*
X012748Y015712D01*
X012748Y015811D02*
X000300Y015811D01*
X000300Y015909D02*
X012748Y015909D01*
X012748Y016008D02*
X000300Y016008D01*
X000300Y016106D02*
X012748Y016106D01*
X012748Y016205D02*
X000300Y016205D01*
X000300Y016303D02*
X012748Y016303D01*
X012748Y016402D02*
X000300Y016402D01*
X000300Y016500D02*
X012748Y016500D01*
X012748Y016599D02*
X000300Y016599D01*
X000300Y016697D02*
X012748Y016697D01*
X012748Y016796D02*
X000300Y016796D01*
X000300Y016894D02*
X012748Y016894D01*
X012748Y016993D02*
X000300Y016993D01*
X000300Y017091D02*
X012748Y017091D01*
X012748Y017190D02*
X000300Y017190D01*
X000300Y017288D02*
X012748Y017288D01*
X012748Y017387D02*
X000300Y017387D01*
X000300Y017485D02*
X012748Y017485D01*
X012748Y017584D02*
X000300Y017584D01*
X000300Y017682D02*
X012748Y017682D01*
X012748Y017781D02*
X000300Y017781D01*
X000300Y017879D02*
X012748Y017879D01*
X012748Y017978D02*
X000300Y017978D01*
X000300Y018076D02*
X012748Y018076D01*
X012748Y018175D02*
X000300Y018175D01*
X000300Y018273D02*
X001556Y018273D01*
X001570Y018268D02*
X001880Y018268D01*
X002167Y018386D01*
X002386Y018606D01*
X002505Y018893D01*
X002505Y019203D01*
X002386Y019489D01*
X002167Y019709D01*
X001880Y019828D01*
X001570Y019828D01*
X001283Y019709D01*
X001064Y019489D01*
X000945Y019203D01*
X000945Y018893D01*
X001064Y018606D01*
X001283Y018386D01*
X001570Y018268D01*
X001318Y018372D02*
X000300Y018372D01*
X000300Y018470D02*
X001199Y018470D01*
X001101Y018569D02*
X000300Y018569D01*
X000300Y018667D02*
X001038Y018667D01*
X000997Y018766D02*
X000300Y018766D01*
X000300Y018864D02*
X000957Y018864D01*
X000945Y018963D02*
X000300Y018963D01*
X000301Y019061D02*
X000945Y019061D01*
X000945Y019160D02*
X000307Y019160D01*
X000319Y019258D02*
X000968Y019258D01*
X001009Y019357D02*
X000345Y019357D01*
X000372Y019455D02*
X001050Y019455D01*
X001128Y019554D02*
X000398Y019554D01*
X000443Y019652D02*
X001227Y019652D01*
X001385Y019751D02*
X000500Y019751D01*
X000558Y019849D02*
X012734Y019849D01*
X012748Y019751D02*
X002065Y019751D01*
X002223Y019652D02*
X012748Y019652D01*
X012748Y019554D02*
X002321Y019554D01*
X002400Y019455D02*
X012748Y019455D01*
X012748Y019357D02*
X002441Y019357D01*
X002482Y019258D02*
X012748Y019258D01*
X012748Y019160D02*
X002505Y019160D01*
X002505Y019061D02*
X012748Y019061D01*
X012748Y018963D02*
X002505Y018963D01*
X002493Y018864D02*
X012748Y018864D01*
X012748Y018766D02*
X002452Y018766D01*
X002412Y018667D02*
X012748Y018667D01*
X012748Y018569D02*
X002349Y018569D01*
X002251Y018470D02*
X012748Y018470D01*
X012748Y018372D02*
X002132Y018372D01*
X001894Y018273D02*
X012748Y018273D01*
X012636Y019948D02*
X000657Y019948D01*
X000755Y020046D02*
X012537Y020046D01*
X012439Y020145D02*
X000854Y020145D01*
X000971Y020243D02*
X012340Y020243D01*
X012242Y020342D02*
X001141Y020342D01*
X001465Y020440D02*
X012143Y020440D01*
X008098Y013151D02*
X000300Y013151D01*
X000300Y013053D02*
X007999Y013053D01*
X007988Y012954D02*
X000300Y012954D01*
X000300Y012856D02*
X007988Y012856D01*
X008079Y012757D02*
X000300Y012757D01*
X000300Y012659D02*
X008281Y012659D01*
X008379Y012560D02*
X000300Y012560D01*
X000300Y012462D02*
X008478Y012462D01*
X008576Y012363D02*
X000300Y012363D01*
X000300Y012265D02*
X008675Y012265D01*
X008773Y012166D02*
X000300Y012166D01*
X000300Y012068D02*
X008872Y012068D01*
X008970Y011969D02*
X000300Y011969D01*
X000300Y011871D02*
X009069Y011871D01*
X009205Y011961D02*
X008221Y012945D01*
X011779Y003203D02*
X057696Y003203D01*
X057598Y003104D02*
X011878Y003104D01*
X011976Y003006D02*
X057594Y003006D01*
X057595Y002907D02*
X012075Y002907D01*
X011451Y002513D02*
X002505Y002513D01*
X002505Y002415D02*
X011549Y002415D01*
X011648Y002316D02*
X002488Y002316D01*
X002447Y002218D02*
X011746Y002218D01*
X011352Y002612D02*
X002505Y002612D01*
X002487Y002710D02*
X011254Y002710D01*
X011155Y002809D02*
X002446Y002809D01*
X002405Y002907D02*
X011057Y002907D01*
X010958Y003006D02*
X002334Y003006D01*
X002236Y003104D02*
X010860Y003104D01*
X057729Y002512D02*
X057827Y002611D01*
X057827Y003004D01*
X068697Y012462D02*
X078740Y012462D01*
X078740Y012560D02*
X068789Y012560D01*
X061567Y015220D02*
X078740Y015220D01*
X078740Y015318D02*
X061567Y015318D01*
X061567Y015417D02*
X078740Y015417D01*
X078740Y015515D02*
X061567Y015515D01*
X061567Y015614D02*
X078740Y015614D01*
X078740Y015712D02*
X061567Y015712D01*
X061567Y015811D02*
X078740Y015811D01*
X078740Y015909D02*
X061567Y015909D01*
X061567Y016008D02*
X078740Y016008D01*
X078740Y016106D02*
X061567Y016106D01*
X061567Y016205D02*
X078740Y016205D01*
X078740Y016303D02*
X061567Y016303D01*
X061567Y016402D02*
X078740Y016402D01*
X078740Y016500D02*
X061567Y016500D01*
X061567Y016599D02*
X078740Y016599D01*
X078740Y016697D02*
X061567Y016697D01*
X061567Y016796D02*
X078740Y016796D01*
X078740Y016894D02*
X061567Y016894D01*
X061567Y016993D02*
X078740Y016993D01*
X078740Y017091D02*
X061567Y017091D01*
X061567Y017190D02*
X078740Y017190D01*
X078740Y017288D02*
X061567Y017288D01*
X061567Y017387D02*
X078740Y017387D01*
X078740Y017485D02*
X061567Y017485D01*
X061567Y017584D02*
X078740Y017584D01*
X078740Y017682D02*
X061567Y017682D01*
X061567Y017781D02*
X078740Y017781D01*
X078740Y017879D02*
X061567Y017879D01*
X061567Y017978D02*
X078740Y017978D01*
X078740Y018076D02*
X061567Y018076D01*
X061567Y018175D02*
X078740Y018175D01*
X078740Y018273D02*
X077484Y018273D01*
X077470Y018268D02*
X077757Y018386D01*
X077977Y018606D01*
X078095Y018893D01*
X078095Y019203D01*
X077977Y019489D01*
X077757Y019709D01*
X077470Y019828D01*
X077160Y019828D01*
X076874Y019709D01*
X076654Y019489D01*
X076535Y019203D01*
X076535Y018893D01*
X076654Y018606D01*
X076874Y018386D01*
X077160Y018268D01*
X077470Y018268D01*
X077722Y018372D02*
X078740Y018372D01*
X078740Y018470D02*
X077841Y018470D01*
X077940Y018569D02*
X078740Y018569D01*
X078740Y018667D02*
X078002Y018667D01*
X078043Y018766D02*
X078740Y018766D01*
X078740Y018864D02*
X078084Y018864D01*
X078095Y018963D02*
X078740Y018963D01*
X078739Y019061D02*
X078095Y019061D01*
X078095Y019160D02*
X078733Y019160D01*
X078721Y019258D02*
X078072Y019258D01*
X078031Y019357D02*
X078695Y019357D01*
X078669Y019455D02*
X077991Y019455D01*
X077912Y019554D02*
X078642Y019554D01*
X078597Y019652D02*
X077814Y019652D01*
X077655Y019751D02*
X078540Y019751D01*
X078482Y019849D02*
X061582Y019849D01*
X061567Y019751D02*
X076975Y019751D01*
X076817Y019652D02*
X061567Y019652D01*
X061567Y019554D02*
X076719Y019554D01*
X076640Y019455D02*
X061567Y019455D01*
X061567Y019357D02*
X076599Y019357D01*
X076558Y019258D02*
X061567Y019258D01*
X061567Y019160D02*
X076535Y019160D01*
X076535Y019061D02*
X061567Y019061D01*
X061567Y018963D02*
X076535Y018963D01*
X076547Y018864D02*
X061567Y018864D01*
X061567Y018766D02*
X076588Y018766D01*
X076629Y018667D02*
X061567Y018667D01*
X061567Y018569D02*
X076691Y018569D01*
X076790Y018470D02*
X061567Y018470D01*
X061567Y018372D02*
X076909Y018372D01*
X077146Y018273D02*
X061567Y018273D01*
X061680Y019948D02*
X078384Y019948D01*
X078285Y020046D02*
X061779Y020046D01*
X061877Y020145D02*
X078187Y020145D01*
X078069Y020243D02*
X061976Y020243D01*
X062074Y020342D02*
X077899Y020342D01*
X077575Y020440D02*
X062173Y020440D01*
D13*
X062355Y019835D03*
X063142Y019835D03*
X063930Y019835D03*
X064717Y019835D03*
X065504Y019835D03*
X066292Y019835D03*
X067079Y019835D03*
X067867Y019835D03*
X068654Y019835D03*
X069441Y019835D03*
X070229Y019835D03*
X071016Y019835D03*
X071804Y019835D03*
X072591Y019835D03*
X073378Y019835D03*
X074166Y019835D03*
X074953Y019835D03*
X075741Y019835D03*
X075741Y018654D03*
X075741Y017473D03*
X076922Y017473D03*
X078103Y017473D03*
X078103Y016685D03*
X078103Y015898D03*
X078103Y015111D03*
X078103Y014323D03*
X078103Y013536D03*
X078103Y012748D03*
X078103Y011961D03*
X078103Y011174D03*
X078103Y010386D03*
X078300Y009599D03*
X076528Y009205D03*
X074953Y009205D03*
X072788Y009402D03*
X071705Y008910D03*
X070229Y009008D03*
X070229Y008811D03*
X069540Y008615D03*
X070032Y008122D03*
X070032Y007926D03*
X069441Y007827D03*
X069244Y007827D03*
X068949Y007827D03*
X068752Y007827D03*
X071607Y008122D03*
X072296Y007827D03*
X072985Y008024D03*
X073280Y008615D03*
X073477Y008615D03*
X068851Y009894D03*
X068851Y010091D03*
X069638Y010681D03*
X071016Y010780D03*
X071705Y010485D03*
X072197Y010780D03*
X072788Y010780D03*
X073969Y010780D03*
X073969Y011370D03*
X073969Y011666D03*
X072985Y012059D03*
X072985Y012355D03*
X071508Y012748D03*
X071016Y012355D03*
X068556Y012650D03*
X067473Y012748D03*
X068457Y012945D03*
X068457Y013142D03*
X067473Y013536D03*
X066292Y013142D03*
X066292Y012748D03*
X063930Y012748D03*
X062748Y012748D03*
X061567Y012748D03*
X060485Y012552D03*
X059402Y012355D03*
X059993Y013142D03*
X060386Y013142D03*
X061174Y013142D03*
X061567Y013536D03*
X061961Y013930D03*
X063142Y013536D03*
X064717Y013536D03*
X061961Y014717D03*
X063142Y015111D03*
X061961Y015504D03*
X064717Y015111D03*
X066292Y015111D03*
X067571Y014815D03*
X067867Y015111D03*
X069441Y015406D03*
X069441Y015603D03*
X069441Y014815D03*
X069441Y014225D03*
X068556Y014225D03*
X070032Y013339D03*
X071508Y013634D03*
X072296Y014028D03*
X072296Y014323D03*
X073181Y014323D03*
X073181Y014028D03*
X074166Y014028D03*
X074166Y014323D03*
X074166Y014619D03*
X074166Y014914D03*
X073181Y014914D03*
X073181Y014619D03*
X072296Y014619D03*
X072296Y014914D03*
X072296Y015209D03*
X072296Y015504D03*
X073181Y015504D03*
X073181Y015209D03*
X074166Y015209D03*
X074166Y015504D03*
X074166Y015800D03*
X074166Y016095D03*
X073870Y016095D03*
X073477Y016095D03*
X073181Y016095D03*
X072886Y016095D03*
X072591Y016095D03*
X072296Y016095D03*
X072296Y015800D03*
X073181Y015800D03*
X074953Y013634D03*
X074953Y013437D03*
X074953Y013142D03*
X074953Y012945D03*
X073083Y013241D03*
X065504Y011272D03*
X065209Y011075D03*
X064717Y010780D03*
X064323Y010780D03*
X064323Y010386D03*
X062748Y010780D03*
X061567Y010780D03*
X060780Y010386D03*
X059599Y010780D03*
X059205Y010780D03*
X058811Y010780D03*
X057237Y010780D03*
X056843Y010780D03*
X056843Y010386D03*
X055268Y010386D03*
X053693Y010386D03*
X051725Y009599D03*
X053693Y008811D03*
X055268Y008811D03*
X056843Y008811D03*
X057433Y008418D03*
X058221Y008418D03*
X058122Y008024D03*
X057237Y008024D03*
X056843Y007237D03*
X058418Y007237D03*
X059993Y007237D03*
X061961Y008024D03*
X063930Y007630D03*
X064717Y008418D03*
X062748Y008811D03*
X060780Y008811D03*
X063536Y009599D03*
X065504Y009205D03*
X066292Y009993D03*
X066784Y010288D03*
X067178Y010091D03*
X060780Y011469D03*
X060386Y011567D03*
X059402Y009796D03*
X053201Y011370D03*
X051725Y011174D03*
X050544Y011567D03*
X049658Y011863D03*
X047394Y011174D03*
X047394Y010386D03*
X045819Y010386D03*
X044244Y010386D03*
X041095Y010386D03*
X039520Y010386D03*
X037945Y010386D03*
X036370Y010386D03*
X034796Y010386D03*
X033221Y010386D03*
X031646Y010386D03*
X030071Y010386D03*
X028496Y010386D03*
X026922Y010386D03*
X025347Y010386D03*
X023772Y010386D03*
X022197Y010386D03*
X020622Y010386D03*
X019048Y010386D03*
X017473Y010386D03*
X015898Y010386D03*
X014323Y010386D03*
X012748Y010386D03*
X011174Y010386D03*
X008910Y009304D03*
X008713Y009304D03*
X008319Y009304D03*
X008122Y009304D03*
X008024Y008811D03*
X006449Y008811D03*
X004874Y008811D03*
X003300Y008811D03*
X000937Y008811D03*
X000937Y008024D03*
X000937Y007237D03*
X000937Y006449D03*
X003300Y007237D03*
X004874Y007237D03*
X006449Y007237D03*
X008024Y007237D03*
X009008Y007827D03*
X010189Y007827D03*
X011370Y007827D03*
X011961Y007237D03*
X012945Y006843D03*
X013536Y006843D03*
X013930Y006843D03*
X013930Y007237D03*
X013536Y007237D03*
X016095Y007040D03*
X019835Y005859D03*
X020819Y005859D03*
X022197Y005662D03*
X023772Y005662D03*
X025347Y005662D03*
X026922Y005662D03*
X028496Y005662D03*
X030071Y005662D03*
X031646Y005662D03*
X033221Y005662D03*
X034796Y005662D03*
X036370Y005662D03*
X037945Y005662D03*
X039520Y005662D03*
X041095Y005662D03*
X042670Y005662D03*
X044244Y005662D03*
X045819Y005662D03*
X047394Y005662D03*
X048969Y005662D03*
X050544Y005662D03*
X052119Y005662D03*
X053693Y005662D03*
X055268Y005662D03*
X056843Y005662D03*
X055268Y007237D03*
X053693Y007237D03*
X052119Y007237D03*
X050544Y007237D03*
X048969Y006843D03*
X048181Y006843D03*
X041882Y006843D03*
X040701Y006843D03*
X039520Y007237D03*
X037945Y007237D03*
X036370Y007237D03*
X034796Y007237D03*
X033221Y007237D03*
X031646Y007237D03*
X030071Y007237D03*
X028496Y007237D03*
X026922Y007237D03*
X025347Y007237D03*
X023772Y007237D03*
X022197Y007237D03*
X021016Y006449D03*
X021410Y004874D03*
X022197Y004087D03*
X020819Y003890D03*
X019835Y003890D03*
X018851Y004185D03*
X015898Y004087D03*
X015504Y004087D03*
X015898Y003693D03*
X015898Y003300D03*
X017276Y003201D03*
X018359Y003201D03*
X019343Y003201D03*
X020426Y002512D03*
X020622Y001725D03*
X019835Y001725D03*
X019048Y001725D03*
X018260Y001725D03*
X017473Y001725D03*
X016685Y001725D03*
X015898Y001725D03*
X015111Y001725D03*
X014323Y001725D03*
X013536Y001725D03*
X012748Y001725D03*
X011961Y001725D03*
X011174Y001725D03*
X010386Y001725D03*
X009599Y001725D03*
X008811Y001725D03*
X008024Y001725D03*
X007237Y001725D03*
X006449Y001725D03*
X005662Y001725D03*
X004874Y001725D03*
X004087Y001725D03*
X003300Y001725D03*
X003300Y002906D03*
X004874Y002906D03*
X006449Y002906D03*
X008024Y002906D03*
X009599Y002906D03*
X010681Y003595D03*
X010681Y003792D03*
X010878Y003792D03*
X010878Y003792D03*
X010878Y003595D03*
X013142Y003693D03*
X013142Y003300D03*
X013142Y004087D03*
X013536Y004087D03*
X008024Y004087D03*
X006449Y004087D03*
X004874Y004087D03*
X003300Y004087D03*
X002119Y004087D03*
X000937Y004087D03*
X000937Y004874D03*
X000937Y005662D03*
X004874Y005662D03*
X006449Y005662D03*
X008024Y005662D03*
X009599Y008811D03*
X011174Y008811D03*
X012748Y008811D03*
X014323Y008811D03*
X015898Y008811D03*
X017473Y008811D03*
X019048Y008811D03*
X020622Y008811D03*
X022197Y008811D03*
X023772Y008811D03*
X025347Y008811D03*
X025347Y008811D03*
X026922Y008811D03*
X028496Y008811D03*
X030071Y008811D03*
X031646Y008811D03*
X033221Y008811D03*
X034796Y008811D03*
X036370Y008811D03*
X037945Y008811D03*
X039520Y008811D03*
X041095Y008811D03*
X044244Y008811D03*
X045819Y008811D03*
X047394Y008811D03*
X049756Y010977D03*
X045819Y011961D03*
X044244Y011961D03*
X041095Y011961D03*
X039520Y011961D03*
X037945Y011961D03*
X036370Y011961D03*
X034796Y011961D03*
X033221Y011961D03*
X031646Y011961D03*
X030071Y011961D03*
X028496Y011961D03*
X026922Y011961D03*
X025347Y011961D03*
X023772Y011961D03*
X022197Y011961D03*
X020622Y011961D03*
X019048Y011961D03*
X017473Y011961D03*
X015898Y011961D03*
X014323Y011961D03*
X012748Y011961D03*
X013142Y013142D03*
X013930Y013142D03*
X014717Y013142D03*
X015504Y013142D03*
X016292Y013142D03*
X017079Y013142D03*
X017867Y013142D03*
X018654Y013142D03*
X019441Y013142D03*
X020229Y013142D03*
X021016Y013142D03*
X021804Y013142D03*
X022591Y013142D03*
X023378Y013142D03*
X024166Y013142D03*
X024953Y013142D03*
X025741Y013142D03*
X026528Y013142D03*
X027315Y013142D03*
X028103Y013142D03*
X028890Y013142D03*
X029678Y013142D03*
X030465Y013142D03*
X031252Y013142D03*
X032040Y013142D03*
X032827Y013142D03*
X033615Y013142D03*
X034402Y013142D03*
X035189Y013142D03*
X035977Y013142D03*
X036764Y013142D03*
X037552Y013142D03*
X038339Y013142D03*
X039126Y013142D03*
X039914Y013142D03*
X040701Y013142D03*
X041489Y013142D03*
X043851Y013142D03*
X044638Y013142D03*
X045426Y013142D03*
X046213Y013142D03*
X047000Y013142D03*
X049756Y013142D03*
X050544Y013142D03*
X051331Y013142D03*
X053201Y012552D03*
X053693Y013142D03*
X054481Y013142D03*
X055268Y013142D03*
X056056Y013142D03*
X056843Y013142D03*
X061961Y016292D03*
X061961Y017079D03*
X061961Y017867D03*
X061961Y018654D03*
X061961Y019441D03*
X078300Y008811D03*
X078300Y008024D03*
X078103Y007237D03*
X078103Y006449D03*
X078103Y005662D03*
X078103Y004874D03*
X078103Y004087D03*
X076922Y004087D03*
X075741Y004087D03*
X072788Y004087D03*
X072788Y003890D03*
X073378Y002906D03*
X073378Y002512D03*
X073772Y002512D03*
X073772Y002906D03*
X075741Y002906D03*
X075741Y001725D03*
X074953Y001725D03*
X070229Y002512D03*
X070229Y002906D03*
X069835Y002906D03*
X069835Y002512D03*
X068654Y001725D03*
X066292Y001725D03*
X065504Y001725D03*
X064717Y001725D03*
X063930Y001725D03*
X063142Y001725D03*
X062355Y001725D03*
X061567Y001725D03*
X060780Y001725D03*
X059993Y001725D03*
X059205Y001725D03*
X058418Y001725D03*
X057630Y001725D03*
X056843Y001725D03*
X056056Y001725D03*
X055268Y001725D03*
X054481Y001725D03*
X053693Y001725D03*
X052906Y001725D03*
X052119Y001725D03*
X051331Y001725D03*
X050544Y001725D03*
X049756Y001725D03*
X048969Y001725D03*
X048181Y001725D03*
X047394Y001725D03*
X046607Y001725D03*
X045819Y001725D03*
X045032Y001725D03*
X044244Y001725D03*
X043457Y001725D03*
X042670Y001725D03*
X041882Y001725D03*
X041095Y001725D03*
X040307Y001725D03*
X039520Y001725D03*
X038733Y001725D03*
X037945Y001725D03*
X037158Y001725D03*
X036370Y001725D03*
X035583Y001725D03*
X034796Y001725D03*
X034008Y001725D03*
X033221Y001725D03*
X032433Y001725D03*
X031646Y001725D03*
X030859Y001725D03*
X030071Y001725D03*
X029284Y001725D03*
X028496Y001725D03*
X027709Y001725D03*
X026922Y001725D03*
X026134Y001725D03*
X025347Y001725D03*
X024559Y001725D03*
X023772Y001725D03*
X022985Y001725D03*
X022197Y001725D03*
X021410Y001725D03*
X023772Y004087D03*
X025347Y004087D03*
X026922Y004087D03*
X028496Y004087D03*
X030071Y004087D03*
X031646Y004087D03*
X033221Y004087D03*
X034796Y004087D03*
X036370Y004087D03*
X037945Y004087D03*
X039520Y004087D03*
X041095Y004087D03*
X042670Y004087D03*
X044244Y004087D03*
X045819Y004087D03*
X047394Y004087D03*
X048969Y004087D03*
X050544Y004087D03*
X052119Y004087D03*
X053693Y004087D03*
X055268Y004087D03*
X056843Y004087D03*
X057827Y003004D03*
X062355Y004087D03*
X063930Y004087D03*
X065898Y004087D03*
X066292Y004087D03*
X066685Y004087D03*
X063930Y005662D03*
X062355Y006056D03*
X061863Y005760D03*
X063142Y006843D03*
X066685Y006252D03*
X066882Y006252D03*
X067670Y006056D03*
X067867Y006056D03*
X069737Y006056D03*
X069933Y006056D03*
X069933Y005859D03*
X069737Y005859D03*
X071804Y007040D03*
X072296Y006941D03*
X012748Y013536D03*
X012355Y013930D03*
X012355Y014717D03*
X012355Y015504D03*
X012355Y016292D03*
X012355Y017079D03*
X012355Y017867D03*
X012355Y018654D03*
X012355Y019441D03*
X011961Y019835D03*
X011174Y019835D03*
X010386Y019835D03*
X009599Y019835D03*
X008811Y019835D03*
X008024Y019835D03*
X007237Y019835D03*
X006449Y019835D03*
X005662Y019835D03*
X004874Y019835D03*
X004087Y019835D03*
X003300Y019835D03*
X003300Y018654D03*
X003300Y017473D03*
X002119Y017473D03*
X000937Y017473D03*
X000937Y016685D03*
X000937Y015898D03*
X000937Y015111D03*
X000937Y014323D03*
X000937Y013536D03*
X000937Y012748D03*
X000937Y011961D03*
X003300Y011961D03*
X000937Y011174D03*
X000937Y010386D03*
X000937Y009599D03*
X004678Y010386D03*
X006252Y010386D03*
X007532Y010386D03*
X008221Y012945D03*
X006843Y013536D03*
X006843Y013930D03*
X004284Y014520D03*
X004284Y014914D03*
X004284Y015307D03*
X004284Y015701D03*
X004678Y015701D03*
X005071Y015701D03*
X008221Y015701D03*
X008418Y015701D03*
D14*
X010780Y003693D02*
X010878Y003595D01*
X011961Y002512D01*
X020426Y002512D01*
X057729Y002512D01*
X068654Y002512D01*
X069835Y003693D01*
X069835Y005957D01*
D15*
X071902Y007827D02*
X071607Y008122D01*
X071902Y007827D02*
X072296Y007827D01*
X071705Y008910D02*
X071705Y010485D01*
X010878Y003792D02*
X010780Y003693D01*
X010681Y003792D01*
X010780Y003693D02*
X010681Y003595D01*
X010878Y003595D01*
D16*
X067571Y014815D02*
X068556Y013831D01*
X070721Y013831D01*
X071311Y013241D01*
X073083Y013241D01*
M02*
