G75*
G70*
%OFA0B0*%
%FSLAX24Y24*%
%IPPOS*%
%LPD*%
%AMOC8*
5,1,8,0,0,1.08239X$1,22.5*
%
%ADD10C,0.0000*%
%ADD11R,0.0394X0.0551*%
%ADD12R,0.0551X0.0394*%
%ADD13R,0.0197X0.0354*%
%ADD14OC8,0.0560*%
%ADD15R,0.0433X0.0394*%
%ADD16R,0.0394X0.0433*%
%ADD17R,0.0120X0.0390*%
%ADD18R,0.0400X0.1300*%
%ADD19C,0.0356*%
%ADD20C,0.0100*%
%ADD21C,0.0160*%
%ADD22C,0.0246*%
%ADD23C,0.0277*%
%ADD24C,0.0240*%
%ADD25C,0.0120*%
D10*
X001755Y000180D02*
X037975Y000180D01*
X037345Y001755D02*
X037347Y001805D01*
X037353Y001855D01*
X037363Y001904D01*
X037377Y001952D01*
X037394Y001999D01*
X037415Y002044D01*
X037440Y002088D01*
X037468Y002129D01*
X037500Y002168D01*
X037534Y002205D01*
X037571Y002239D01*
X037611Y002269D01*
X037653Y002296D01*
X037697Y002320D01*
X037743Y002341D01*
X037790Y002357D01*
X037838Y002370D01*
X037888Y002379D01*
X037937Y002384D01*
X037988Y002385D01*
X038038Y002382D01*
X038087Y002375D01*
X038136Y002364D01*
X038184Y002349D01*
X038230Y002331D01*
X038275Y002309D01*
X038318Y002283D01*
X038359Y002254D01*
X038398Y002222D01*
X038434Y002187D01*
X038466Y002149D01*
X038496Y002109D01*
X038523Y002066D01*
X038546Y002022D01*
X038565Y001976D01*
X038581Y001928D01*
X038593Y001879D01*
X038601Y001830D01*
X038605Y001780D01*
X038605Y001730D01*
X038601Y001680D01*
X038593Y001631D01*
X038581Y001582D01*
X038565Y001534D01*
X038546Y001488D01*
X038523Y001444D01*
X038496Y001401D01*
X038466Y001361D01*
X038434Y001323D01*
X038398Y001288D01*
X038359Y001256D01*
X038318Y001227D01*
X038275Y001201D01*
X038230Y001179D01*
X038184Y001161D01*
X038136Y001146D01*
X038087Y001135D01*
X038038Y001128D01*
X037988Y001125D01*
X037937Y001126D01*
X037888Y001131D01*
X037838Y001140D01*
X037790Y001153D01*
X037743Y001169D01*
X037697Y001190D01*
X037653Y001214D01*
X037611Y001241D01*
X037571Y001271D01*
X037534Y001305D01*
X037500Y001342D01*
X037468Y001381D01*
X037440Y001422D01*
X037415Y001466D01*
X037394Y001511D01*
X037377Y001558D01*
X037363Y001606D01*
X037353Y001655D01*
X037347Y001705D01*
X037345Y001755D01*
X037975Y000180D02*
X038052Y000182D01*
X038129Y000188D01*
X038206Y000197D01*
X038282Y000210D01*
X038358Y000227D01*
X038432Y000248D01*
X038506Y000272D01*
X038578Y000300D01*
X038648Y000331D01*
X038717Y000366D01*
X038785Y000404D01*
X038850Y000445D01*
X038913Y000490D01*
X038974Y000538D01*
X039033Y000588D01*
X039089Y000641D01*
X039142Y000697D01*
X039192Y000756D01*
X039240Y000817D01*
X039285Y000880D01*
X039326Y000945D01*
X039364Y001013D01*
X039399Y001082D01*
X039430Y001152D01*
X039458Y001224D01*
X039482Y001298D01*
X039503Y001372D01*
X039520Y001448D01*
X039533Y001524D01*
X039542Y001601D01*
X039548Y001678D01*
X039550Y001755D01*
X039550Y015141D01*
X037345Y015141D02*
X037347Y015191D01*
X037353Y015241D01*
X037363Y015290D01*
X037377Y015338D01*
X037394Y015385D01*
X037415Y015430D01*
X037440Y015474D01*
X037468Y015515D01*
X037500Y015554D01*
X037534Y015591D01*
X037571Y015625D01*
X037611Y015655D01*
X037653Y015682D01*
X037697Y015706D01*
X037743Y015727D01*
X037790Y015743D01*
X037838Y015756D01*
X037888Y015765D01*
X037937Y015770D01*
X037988Y015771D01*
X038038Y015768D01*
X038087Y015761D01*
X038136Y015750D01*
X038184Y015735D01*
X038230Y015717D01*
X038275Y015695D01*
X038318Y015669D01*
X038359Y015640D01*
X038398Y015608D01*
X038434Y015573D01*
X038466Y015535D01*
X038496Y015495D01*
X038523Y015452D01*
X038546Y015408D01*
X038565Y015362D01*
X038581Y015314D01*
X038593Y015265D01*
X038601Y015216D01*
X038605Y015166D01*
X038605Y015116D01*
X038601Y015066D01*
X038593Y015017D01*
X038581Y014968D01*
X038565Y014920D01*
X038546Y014874D01*
X038523Y014830D01*
X038496Y014787D01*
X038466Y014747D01*
X038434Y014709D01*
X038398Y014674D01*
X038359Y014642D01*
X038318Y014613D01*
X038275Y014587D01*
X038230Y014565D01*
X038184Y014547D01*
X038136Y014532D01*
X038087Y014521D01*
X038038Y014514D01*
X037988Y014511D01*
X037937Y014512D01*
X037888Y014517D01*
X037838Y014526D01*
X037790Y014539D01*
X037743Y014555D01*
X037697Y014576D01*
X037653Y014600D01*
X037611Y014627D01*
X037571Y014657D01*
X037534Y014691D01*
X037500Y014728D01*
X037468Y014767D01*
X037440Y014808D01*
X037415Y014852D01*
X037394Y014897D01*
X037377Y014944D01*
X037363Y014992D01*
X037353Y015041D01*
X037347Y015091D01*
X037345Y015141D01*
X037975Y016716D02*
X038052Y016714D01*
X038129Y016708D01*
X038206Y016699D01*
X038282Y016686D01*
X038358Y016669D01*
X038432Y016648D01*
X038506Y016624D01*
X038578Y016596D01*
X038648Y016565D01*
X038717Y016530D01*
X038785Y016492D01*
X038850Y016451D01*
X038913Y016406D01*
X038974Y016358D01*
X039033Y016308D01*
X039089Y016255D01*
X039142Y016199D01*
X039192Y016140D01*
X039240Y016079D01*
X039285Y016016D01*
X039326Y015951D01*
X039364Y015883D01*
X039399Y015814D01*
X039430Y015744D01*
X039458Y015672D01*
X039482Y015598D01*
X039503Y015524D01*
X039520Y015448D01*
X039533Y015372D01*
X039542Y015295D01*
X039548Y015218D01*
X039550Y015141D01*
X037975Y016715D02*
X001755Y016715D01*
X001125Y015141D02*
X001127Y015191D01*
X001133Y015241D01*
X001143Y015290D01*
X001157Y015338D01*
X001174Y015385D01*
X001195Y015430D01*
X001220Y015474D01*
X001248Y015515D01*
X001280Y015554D01*
X001314Y015591D01*
X001351Y015625D01*
X001391Y015655D01*
X001433Y015682D01*
X001477Y015706D01*
X001523Y015727D01*
X001570Y015743D01*
X001618Y015756D01*
X001668Y015765D01*
X001717Y015770D01*
X001768Y015771D01*
X001818Y015768D01*
X001867Y015761D01*
X001916Y015750D01*
X001964Y015735D01*
X002010Y015717D01*
X002055Y015695D01*
X002098Y015669D01*
X002139Y015640D01*
X002178Y015608D01*
X002214Y015573D01*
X002246Y015535D01*
X002276Y015495D01*
X002303Y015452D01*
X002326Y015408D01*
X002345Y015362D01*
X002361Y015314D01*
X002373Y015265D01*
X002381Y015216D01*
X002385Y015166D01*
X002385Y015116D01*
X002381Y015066D01*
X002373Y015017D01*
X002361Y014968D01*
X002345Y014920D01*
X002326Y014874D01*
X002303Y014830D01*
X002276Y014787D01*
X002246Y014747D01*
X002214Y014709D01*
X002178Y014674D01*
X002139Y014642D01*
X002098Y014613D01*
X002055Y014587D01*
X002010Y014565D01*
X001964Y014547D01*
X001916Y014532D01*
X001867Y014521D01*
X001818Y014514D01*
X001768Y014511D01*
X001717Y014512D01*
X001668Y014517D01*
X001618Y014526D01*
X001570Y014539D01*
X001523Y014555D01*
X001477Y014576D01*
X001433Y014600D01*
X001391Y014627D01*
X001351Y014657D01*
X001314Y014691D01*
X001280Y014728D01*
X001248Y014767D01*
X001220Y014808D01*
X001195Y014852D01*
X001174Y014897D01*
X001157Y014944D01*
X001143Y014992D01*
X001133Y015041D01*
X001127Y015091D01*
X001125Y015141D01*
X000180Y015141D02*
X000182Y015218D01*
X000188Y015295D01*
X000197Y015372D01*
X000210Y015448D01*
X000227Y015524D01*
X000248Y015598D01*
X000272Y015672D01*
X000300Y015744D01*
X000331Y015814D01*
X000366Y015883D01*
X000404Y015951D01*
X000445Y016016D01*
X000490Y016079D01*
X000538Y016140D01*
X000588Y016199D01*
X000641Y016255D01*
X000697Y016308D01*
X000756Y016358D01*
X000817Y016406D01*
X000880Y016451D01*
X000945Y016492D01*
X001013Y016530D01*
X001082Y016565D01*
X001152Y016596D01*
X001224Y016624D01*
X001298Y016648D01*
X001372Y016669D01*
X001448Y016686D01*
X001524Y016699D01*
X001601Y016708D01*
X001678Y016714D01*
X001755Y016716D01*
X000180Y015141D02*
X000180Y001755D01*
X001125Y001755D02*
X001127Y001805D01*
X001133Y001855D01*
X001143Y001904D01*
X001157Y001952D01*
X001174Y001999D01*
X001195Y002044D01*
X001220Y002088D01*
X001248Y002129D01*
X001280Y002168D01*
X001314Y002205D01*
X001351Y002239D01*
X001391Y002269D01*
X001433Y002296D01*
X001477Y002320D01*
X001523Y002341D01*
X001570Y002357D01*
X001618Y002370D01*
X001668Y002379D01*
X001717Y002384D01*
X001768Y002385D01*
X001818Y002382D01*
X001867Y002375D01*
X001916Y002364D01*
X001964Y002349D01*
X002010Y002331D01*
X002055Y002309D01*
X002098Y002283D01*
X002139Y002254D01*
X002178Y002222D01*
X002214Y002187D01*
X002246Y002149D01*
X002276Y002109D01*
X002303Y002066D01*
X002326Y002022D01*
X002345Y001976D01*
X002361Y001928D01*
X002373Y001879D01*
X002381Y001830D01*
X002385Y001780D01*
X002385Y001730D01*
X002381Y001680D01*
X002373Y001631D01*
X002361Y001582D01*
X002345Y001534D01*
X002326Y001488D01*
X002303Y001444D01*
X002276Y001401D01*
X002246Y001361D01*
X002214Y001323D01*
X002178Y001288D01*
X002139Y001256D01*
X002098Y001227D01*
X002055Y001201D01*
X002010Y001179D01*
X001964Y001161D01*
X001916Y001146D01*
X001867Y001135D01*
X001818Y001128D01*
X001768Y001125D01*
X001717Y001126D01*
X001668Y001131D01*
X001618Y001140D01*
X001570Y001153D01*
X001523Y001169D01*
X001477Y001190D01*
X001433Y001214D01*
X001391Y001241D01*
X001351Y001271D01*
X001314Y001305D01*
X001280Y001342D01*
X001248Y001381D01*
X001220Y001422D01*
X001195Y001466D01*
X001174Y001511D01*
X001157Y001558D01*
X001143Y001606D01*
X001133Y001655D01*
X001127Y001705D01*
X001125Y001755D01*
X000180Y001755D02*
X000182Y001678D01*
X000188Y001601D01*
X000197Y001524D01*
X000210Y001448D01*
X000227Y001372D01*
X000248Y001298D01*
X000272Y001224D01*
X000300Y001152D01*
X000331Y001082D01*
X000366Y001013D01*
X000404Y000945D01*
X000445Y000880D01*
X000490Y000817D01*
X000538Y000756D01*
X000588Y000697D01*
X000641Y000641D01*
X000697Y000588D01*
X000756Y000538D01*
X000817Y000490D01*
X000880Y000445D01*
X000945Y000404D01*
X001013Y000366D01*
X001082Y000331D01*
X001152Y000300D01*
X001224Y000272D01*
X001298Y000248D01*
X001372Y000227D01*
X001448Y000210D01*
X001524Y000197D01*
X001601Y000188D01*
X001678Y000182D01*
X001755Y000180D01*
D11*
X019078Y011952D03*
X020652Y011952D03*
X020278Y012818D03*
X021026Y012818D03*
X019452Y012818D03*
X018704Y012818D03*
X014334Y013999D03*
X013586Y013999D03*
X013960Y013133D03*
X006853Y013999D03*
X006105Y013999D03*
X006479Y013133D03*
X025397Y013999D03*
X026145Y013999D03*
X025771Y013133D03*
X032877Y013999D03*
X033625Y013999D03*
X033251Y013133D03*
D12*
X035574Y013566D03*
X036440Y013940D03*
X036440Y013192D03*
X036440Y012562D03*
X035574Y012188D03*
X036440Y011814D03*
X036440Y011184D03*
X035574Y010810D03*
X036440Y010436D03*
X036440Y009806D03*
X035574Y009432D03*
X036440Y009058D03*
X036440Y008428D03*
X035574Y008054D03*
X036440Y007680D03*
X030928Y008054D03*
X030062Y007680D03*
X028960Y007680D03*
X028093Y008054D03*
X028960Y008428D03*
X030062Y008428D03*
X030062Y009058D03*
X030928Y009432D03*
X030062Y009806D03*
X030062Y010436D03*
X030928Y010810D03*
X030062Y011184D03*
X030062Y011814D03*
X030928Y012188D03*
X030062Y012562D03*
X028960Y012562D03*
X028093Y012188D03*
X028960Y011814D03*
X028960Y011184D03*
X028093Y010810D03*
X028960Y010436D03*
X028960Y009806D03*
X028093Y009432D03*
X028960Y009058D03*
X023448Y009432D03*
X022582Y009806D03*
X022582Y010436D03*
X023448Y010810D03*
X022582Y011184D03*
X022582Y011814D03*
X023448Y012188D03*
X022582Y012562D03*
X022582Y013192D03*
X023448Y013566D03*
X022582Y013940D03*
X017149Y013940D03*
X016282Y013566D03*
X017149Y013192D03*
X017149Y012562D03*
X016282Y012188D03*
X017149Y011814D03*
X017149Y011184D03*
X016282Y010810D03*
X017149Y010436D03*
X017149Y009806D03*
X016282Y009432D03*
X017149Y009058D03*
X017149Y008428D03*
X016282Y008054D03*
X017149Y007680D03*
X022582Y007680D03*
X023448Y008054D03*
X022582Y008428D03*
X022582Y009058D03*
X028960Y013192D03*
X028093Y013566D03*
X028960Y013940D03*
X030062Y013940D03*
X030928Y013566D03*
X030062Y013192D03*
X011637Y013566D03*
X010771Y013940D03*
X009668Y013940D03*
X008802Y013566D03*
X009668Y013192D03*
X010771Y013192D03*
X010771Y012562D03*
X011637Y012188D03*
X010771Y011814D03*
X010771Y011184D03*
X011637Y010810D03*
X010771Y010436D03*
X010771Y009806D03*
X011637Y009432D03*
X010771Y009058D03*
X009668Y009058D03*
X008802Y009432D03*
X009668Y009806D03*
X009668Y010436D03*
X008802Y010810D03*
X009668Y011184D03*
X009668Y011814D03*
X008802Y012188D03*
X009668Y012562D03*
X004156Y012188D03*
X003290Y012562D03*
X003290Y013192D03*
X004156Y013566D03*
X003290Y013940D03*
X003290Y011814D03*
X003290Y011184D03*
X004156Y010810D03*
X003290Y010436D03*
X003290Y009806D03*
X004156Y009432D03*
X003290Y009058D03*
X003290Y008428D03*
X004156Y008054D03*
X003290Y007680D03*
X008802Y008054D03*
X009668Y007680D03*
X010771Y007680D03*
X011637Y008054D03*
X010771Y008428D03*
X009668Y008428D03*
D13*
X009412Y005219D03*
X009097Y005219D03*
X008782Y005219D03*
X008467Y005219D03*
X008467Y004589D03*
X008782Y004589D03*
X009097Y004589D03*
X009412Y004589D03*
X010042Y004589D03*
X010357Y004589D03*
X010672Y004589D03*
X010987Y004589D03*
X010987Y005219D03*
X010672Y005219D03*
X010357Y005219D03*
X010042Y005219D03*
X012404Y005219D03*
X012719Y005219D03*
X013034Y005219D03*
X013349Y005219D03*
X013979Y005219D03*
X014294Y005219D03*
X014609Y005219D03*
X014924Y005219D03*
X014924Y004589D03*
X014609Y004589D03*
X014294Y004589D03*
X013979Y004589D03*
X013349Y004589D03*
X013034Y004589D03*
X012719Y004589D03*
X012404Y004589D03*
X007050Y004589D03*
X006735Y004589D03*
X006420Y004589D03*
X006105Y004589D03*
X005475Y004589D03*
X005160Y004589D03*
X004845Y004589D03*
X004530Y004589D03*
X004530Y005219D03*
X004845Y005219D03*
X005160Y005219D03*
X005475Y005219D03*
X006105Y005219D03*
X006420Y005219D03*
X006735Y005219D03*
X007050Y005219D03*
X024609Y005219D03*
X024924Y005219D03*
X025239Y005219D03*
X025554Y005219D03*
X026184Y005219D03*
X026499Y005219D03*
X026814Y005219D03*
X027129Y005219D03*
X027129Y004589D03*
X026814Y004589D03*
X026499Y004589D03*
X026184Y004589D03*
X025554Y004589D03*
X025239Y004589D03*
X024924Y004589D03*
X024609Y004589D03*
X028546Y004589D03*
X028861Y004589D03*
X029176Y004589D03*
X029491Y004589D03*
X030121Y004589D03*
X030436Y004589D03*
X030751Y004589D03*
X031066Y004589D03*
X031066Y005219D03*
X030751Y005219D03*
X030436Y005219D03*
X030121Y005219D03*
X029491Y005219D03*
X029176Y005219D03*
X028861Y005219D03*
X028546Y005219D03*
X032483Y005219D03*
X032798Y005219D03*
X033113Y005219D03*
X033428Y005219D03*
X034058Y005219D03*
X034373Y005219D03*
X034688Y005219D03*
X035003Y005219D03*
X035003Y004589D03*
X034688Y004589D03*
X034373Y004589D03*
X034058Y004589D03*
X033428Y004589D03*
X033113Y004589D03*
X032798Y004589D03*
X032483Y004589D03*
D14*
X020259Y009523D03*
X019471Y009523D03*
X019471Y010523D03*
X020259Y010523D03*
D15*
X020259Y008586D03*
X019471Y008586D03*
X019471Y007916D03*
X020259Y007916D03*
X025377Y007995D03*
X025377Y007326D03*
X032857Y007326D03*
X032857Y007995D03*
X013566Y007995D03*
X013566Y007326D03*
X006086Y007326D03*
X006086Y007995D03*
D16*
X006873Y002286D03*
X006873Y001617D03*
X010810Y001617D03*
X010810Y002286D03*
X014747Y002286D03*
X014747Y001617D03*
X026952Y001617D03*
X026952Y002286D03*
X030889Y002286D03*
X030889Y001617D03*
X034826Y001617D03*
X034826Y002286D03*
D17*
X034343Y001590D03*
X034087Y001590D03*
X033832Y001590D03*
X033576Y001590D03*
X033320Y001590D03*
X033064Y001590D03*
X032808Y001590D03*
X032552Y001590D03*
X030406Y001590D03*
X030150Y001590D03*
X029895Y001590D03*
X029639Y001590D03*
X029383Y001590D03*
X029127Y001590D03*
X028871Y001590D03*
X028615Y001590D03*
X026469Y001590D03*
X026213Y001590D03*
X025958Y001590D03*
X025702Y001590D03*
X025446Y001590D03*
X025190Y001590D03*
X024934Y001590D03*
X024678Y001590D03*
X024678Y003888D03*
X024934Y003888D03*
X025190Y003888D03*
X025446Y003888D03*
X025702Y003888D03*
X025958Y003888D03*
X026213Y003888D03*
X026469Y003888D03*
X028615Y003888D03*
X028871Y003888D03*
X029127Y003888D03*
X029383Y003888D03*
X029639Y003888D03*
X029895Y003888D03*
X030150Y003888D03*
X030406Y003888D03*
X032552Y003888D03*
X032808Y003888D03*
X033064Y003888D03*
X033320Y003888D03*
X033576Y003888D03*
X033832Y003888D03*
X034087Y003888D03*
X034343Y003888D03*
X014265Y003888D03*
X014009Y003888D03*
X013753Y003888D03*
X013497Y003888D03*
X013241Y003888D03*
X012985Y003888D03*
X012729Y003888D03*
X012473Y003888D03*
X010328Y003888D03*
X010072Y003888D03*
X009816Y003888D03*
X009560Y003888D03*
X009304Y003888D03*
X009048Y003888D03*
X008792Y003888D03*
X008536Y003888D03*
X006391Y003888D03*
X006135Y003888D03*
X005879Y003888D03*
X005623Y003888D03*
X005367Y003888D03*
X005111Y003888D03*
X004855Y003888D03*
X004599Y003888D03*
X004599Y001590D03*
X004855Y001590D03*
X005111Y001590D03*
X005367Y001590D03*
X005623Y001590D03*
X005879Y001590D03*
X006135Y001590D03*
X006391Y001590D03*
X008536Y001590D03*
X008792Y001590D03*
X009048Y001590D03*
X009304Y001590D03*
X009560Y001590D03*
X009816Y001590D03*
X010072Y001590D03*
X010328Y001590D03*
X012473Y001590D03*
X012729Y001590D03*
X012985Y001590D03*
X013241Y001590D03*
X013497Y001590D03*
X013753Y001590D03*
X014009Y001590D03*
X014265Y001590D03*
D18*
X017861Y002141D03*
X018861Y002141D03*
X019861Y002141D03*
X020861Y002141D03*
X021861Y002141D03*
X021861Y004141D03*
X020861Y004141D03*
X019861Y004141D03*
X018861Y004141D03*
X017861Y004141D03*
D19*
X013960Y008645D03*
X014649Y008841D03*
X015141Y009334D03*
X015337Y010023D03*
X015141Y010711D03*
X014649Y011204D03*
X013960Y011400D03*
X013271Y011204D03*
X012778Y010711D03*
X012582Y010023D03*
X012778Y009334D03*
X013271Y008841D03*
X007857Y010023D03*
X007660Y010711D03*
X007168Y011204D03*
X006479Y011400D03*
X005790Y011204D03*
X005298Y010711D03*
X005101Y010023D03*
X005298Y009334D03*
X005790Y008841D03*
X006479Y008645D03*
X007168Y008841D03*
X007660Y009334D03*
X024393Y010023D03*
X024589Y010711D03*
X025082Y011204D03*
X025771Y011400D03*
X026460Y011204D03*
X026952Y010711D03*
X027149Y010023D03*
X026952Y009334D03*
X026460Y008841D03*
X025771Y008645D03*
X025082Y008841D03*
X024589Y009334D03*
X031873Y010023D03*
X032070Y010711D03*
X032562Y011204D03*
X033251Y011400D03*
X033940Y011204D03*
X034432Y010711D03*
X034629Y010023D03*
X034432Y009334D03*
X033940Y008841D03*
X033251Y008645D03*
X032562Y008841D03*
X032070Y009334D03*
D20*
X031026Y009334D01*
X030928Y009432D01*
X030200Y009530D02*
X030062Y009767D01*
X030062Y009806D01*
X028960Y010436D02*
X028546Y010436D01*
X028526Y010416D01*
X028093Y010810D02*
X027739Y010810D01*
X027542Y010613D01*
X027542Y009629D01*
X027247Y009334D01*
X026952Y009334D01*
X026460Y008841D02*
X027503Y008841D01*
X028093Y009432D01*
X028625Y009038D02*
X028645Y009058D01*
X028960Y009058D01*
X030062Y008428D02*
X030062Y008310D01*
X030003Y008152D01*
X030928Y008054D02*
X031774Y008054D01*
X032562Y008841D01*
X032857Y008448D02*
X033054Y009432D01*
X033645Y010023D01*
X034629Y010023D01*
X035023Y009629D02*
X035023Y010613D01*
X035219Y010810D01*
X035574Y010810D01*
X036007Y010416D02*
X036026Y010436D01*
X036440Y010436D01*
X035023Y009629D02*
X034727Y009334D01*
X034432Y009334D01*
X033940Y008841D02*
X034983Y008841D01*
X035574Y009432D01*
X036105Y009038D02*
X036400Y009038D01*
X035574Y008054D02*
X033841Y008054D01*
X033251Y008645D01*
X032857Y008448D02*
X032857Y007995D01*
X036400Y007542D02*
X036400Y007365D01*
X036400Y007542D02*
X036440Y007680D01*
X035121Y005692D02*
X035003Y005574D01*
X035003Y005219D01*
X034688Y005219D02*
X034688Y005652D01*
X034727Y005692D01*
X034373Y005652D02*
X034334Y005692D01*
X034373Y005652D02*
X034373Y005219D01*
X034058Y005219D02*
X034058Y005574D01*
X033940Y005692D01*
X033546Y005692D02*
X033428Y005574D01*
X033428Y005219D01*
X033113Y005219D02*
X033113Y005652D01*
X033152Y005692D01*
X032798Y005652D02*
X032759Y005692D01*
X032798Y005652D02*
X032798Y005219D01*
X032483Y005219D02*
X032483Y005574D01*
X032365Y005692D01*
X031184Y005692D02*
X031066Y005574D01*
X031066Y005219D01*
X030751Y005219D02*
X030751Y005652D01*
X030790Y005692D01*
X030436Y005652D02*
X030397Y005692D01*
X030436Y005652D02*
X030436Y005219D01*
X030121Y005219D02*
X030121Y005574D01*
X030003Y005692D01*
X029609Y005692D02*
X029491Y005574D01*
X029491Y005219D01*
X029176Y005219D02*
X029176Y005652D01*
X029215Y005692D01*
X028861Y005652D02*
X028822Y005692D01*
X028861Y005652D02*
X028861Y005219D01*
X028546Y005219D02*
X028546Y005574D01*
X028428Y005692D01*
X027247Y005692D02*
X027129Y005574D01*
X027129Y005219D01*
X026814Y005219D02*
X026814Y005652D01*
X026853Y005692D01*
X026499Y005652D02*
X026460Y005692D01*
X026499Y005652D02*
X026499Y005219D01*
X026184Y005219D02*
X026184Y005574D01*
X026066Y005692D01*
X025672Y005692D02*
X025554Y005574D01*
X025554Y005219D01*
X025239Y005219D02*
X025239Y005652D01*
X025278Y005692D01*
X024924Y005652D02*
X024885Y005692D01*
X024924Y005652D02*
X024924Y005219D01*
X024609Y005219D02*
X024609Y005574D01*
X024491Y005692D01*
X024609Y004589D02*
X024609Y004393D01*
X024934Y004068D01*
X024934Y003888D01*
X025190Y003888D02*
X025190Y004107D01*
X024924Y004373D01*
X024924Y004589D01*
X025239Y004589D02*
X025239Y004353D01*
X025446Y004147D01*
X025446Y003888D01*
X025702Y003888D02*
X025702Y004186D01*
X025554Y004334D01*
X025554Y004589D01*
X025958Y004206D02*
X026184Y004432D01*
X026184Y004589D01*
X026499Y004589D02*
X026499Y004452D01*
X026213Y004166D01*
X026213Y003888D01*
X025958Y003888D02*
X025958Y004206D01*
X026469Y004028D02*
X026814Y004373D01*
X026814Y004589D01*
X026832Y004572D01*
X027129Y004589D02*
X027129Y004294D01*
X026755Y003920D01*
X026755Y003526D01*
X026361Y003133D01*
X026361Y001952D01*
X026213Y001804D01*
X026213Y001590D01*
X025958Y001590D02*
X025958Y001942D01*
X026066Y002050D01*
X025967Y001952D01*
X025702Y001590D02*
X025702Y002513D01*
X025574Y002641D01*
X025278Y002444D02*
X025446Y002276D01*
X025446Y001590D01*
X025190Y001590D02*
X025190Y002040D01*
X024983Y002247D01*
X024688Y002050D02*
X024678Y002040D01*
X024678Y001590D01*
X024934Y001590D02*
X024934Y001213D01*
X024983Y001164D01*
X028615Y001590D02*
X028615Y002040D01*
X028625Y002050D01*
X028920Y002247D02*
X029127Y002040D01*
X029127Y001590D01*
X029383Y001590D02*
X029383Y002276D01*
X029215Y002444D01*
X029511Y002641D02*
X029639Y002513D01*
X029639Y001590D01*
X029895Y001590D02*
X029895Y001942D01*
X030003Y002050D01*
X029904Y001952D01*
X030150Y001804D02*
X030298Y001952D01*
X030298Y003133D01*
X030692Y003526D01*
X030692Y003920D01*
X031066Y004294D01*
X031066Y004589D01*
X030769Y004572D02*
X030751Y004589D01*
X030751Y004373D01*
X030406Y004028D01*
X030406Y003888D01*
X030150Y003888D02*
X030150Y004166D01*
X030436Y004452D01*
X030436Y004589D01*
X030121Y004589D02*
X030121Y004432D01*
X029895Y004206D01*
X029895Y003888D01*
X029639Y003888D02*
X029639Y004186D01*
X029491Y004334D01*
X029491Y004589D01*
X029176Y004589D02*
X029162Y004576D01*
X029162Y004367D01*
X029383Y004147D01*
X029383Y003888D01*
X029127Y003888D02*
X029127Y004107D01*
X028861Y004373D01*
X028861Y004589D01*
X028546Y004589D02*
X028546Y004393D01*
X028871Y004068D01*
X028871Y003888D01*
X028615Y003888D02*
X028362Y003888D01*
X028330Y003920D01*
X026469Y003888D02*
X026469Y004028D01*
X024678Y003888D02*
X024425Y003888D01*
X024393Y003920D01*
X028871Y001590D02*
X028871Y001213D01*
X028920Y001164D01*
X030150Y001590D02*
X030150Y001804D01*
X032552Y001590D02*
X032552Y002040D01*
X032562Y002050D01*
X032857Y002247D02*
X033064Y002040D01*
X033064Y001590D01*
X033320Y001590D02*
X033320Y002276D01*
X033152Y002444D01*
X033448Y002641D02*
X033576Y002513D01*
X033576Y001590D01*
X033832Y001590D02*
X033832Y001942D01*
X033940Y002050D01*
X033841Y001952D01*
X034087Y001804D02*
X034235Y001952D01*
X034235Y003133D01*
X034629Y003526D01*
X034629Y003920D01*
X035003Y004294D01*
X035003Y004589D01*
X034706Y004572D02*
X034688Y004589D01*
X034688Y004373D01*
X034343Y004028D01*
X034343Y003888D01*
X034087Y003888D02*
X034087Y004166D01*
X034373Y004452D01*
X034373Y004589D01*
X034058Y004589D02*
X034058Y004432D01*
X033832Y004206D01*
X033832Y003888D01*
X033576Y003888D02*
X033576Y004186D01*
X033428Y004432D01*
X033428Y004589D01*
X033113Y004589D02*
X033113Y004452D01*
X033320Y004147D01*
X033320Y003888D01*
X033064Y003888D02*
X033064Y004107D01*
X032798Y004471D01*
X032798Y004589D01*
X032483Y004589D02*
X032483Y004491D01*
X032808Y004068D01*
X032808Y003888D01*
X032552Y003888D02*
X032299Y003888D01*
X032267Y003920D01*
X034087Y001804D02*
X034087Y001590D01*
X032808Y001590D02*
X032808Y001213D01*
X032857Y001164D01*
X018861Y002141D02*
X018676Y002141D01*
X018389Y001853D01*
X017861Y002141D02*
X017743Y002093D01*
X017404Y002444D01*
X017208Y002739D02*
X017841Y003385D01*
X017861Y004141D01*
X018861Y004141D02*
X018841Y003172D01*
X018881Y003133D01*
X014924Y004294D02*
X014550Y003920D01*
X014550Y003526D01*
X014156Y003133D01*
X014156Y001952D01*
X014009Y001804D01*
X014009Y001590D01*
X013753Y001590D02*
X013753Y001942D01*
X013861Y002050D01*
X013763Y001952D01*
X013497Y001590D02*
X013497Y002513D01*
X013369Y002641D01*
X013074Y002444D02*
X013241Y002276D01*
X013241Y001590D01*
X012985Y001590D02*
X012985Y002040D01*
X012778Y002247D01*
X012483Y002050D02*
X012473Y002040D01*
X012473Y001590D01*
X012729Y001590D02*
X012729Y001213D01*
X012778Y001164D01*
X014723Y001164D01*
X014747Y001188D01*
X010810Y001164D02*
X010810Y001617D01*
X010219Y001952D02*
X010219Y003133D01*
X010613Y003526D01*
X010613Y003920D01*
X010987Y004294D01*
X010987Y004589D01*
X010690Y004572D02*
X010672Y004589D01*
X010672Y004373D01*
X010328Y004028D01*
X010328Y003888D01*
X010072Y003888D02*
X010072Y004166D01*
X010357Y004452D01*
X010357Y004589D01*
X010042Y004589D02*
X010042Y004432D01*
X009816Y004206D01*
X009816Y003888D01*
X009560Y003888D02*
X009560Y004186D01*
X009412Y004334D01*
X009412Y004589D01*
X009097Y004589D02*
X009084Y004576D01*
X009084Y004367D01*
X009304Y004147D01*
X009304Y003888D01*
X009048Y003888D02*
X009048Y004107D01*
X008782Y004373D01*
X008782Y004589D01*
X008467Y004589D02*
X008467Y004393D01*
X008792Y004068D01*
X008792Y003888D01*
X008536Y003888D02*
X008283Y003888D01*
X008251Y003920D01*
X007050Y004294D02*
X006676Y003920D01*
X006676Y003526D01*
X006282Y003133D01*
X006282Y001952D01*
X006135Y001804D01*
X006135Y001590D01*
X005879Y001590D02*
X005879Y001942D01*
X005987Y002050D01*
X005623Y001590D02*
X005623Y002513D01*
X005495Y002641D01*
X005200Y002444D02*
X005367Y002276D01*
X005367Y001590D01*
X005111Y001590D02*
X005111Y002040D01*
X004904Y002247D01*
X004855Y001590D02*
X004855Y001312D01*
X005003Y001164D01*
X006873Y001164D01*
X008536Y001590D02*
X008536Y001942D01*
X008546Y002050D01*
X008841Y002247D02*
X009048Y002040D01*
X009048Y001590D01*
X008792Y001590D02*
X008792Y001213D01*
X008841Y001164D01*
X009304Y001590D02*
X009304Y002276D01*
X009137Y002444D01*
X009432Y002641D02*
X009560Y002513D01*
X009560Y001590D01*
X009816Y001590D02*
X009826Y001600D01*
X009826Y001952D01*
X009924Y002050D01*
X010072Y001804D02*
X010219Y001952D01*
X010072Y001804D02*
X010072Y001590D01*
X012220Y003888D02*
X012188Y003920D01*
X012220Y003888D02*
X012473Y003888D01*
X012729Y003888D02*
X012729Y004068D01*
X012404Y004393D01*
X012404Y004589D01*
X012719Y004589D02*
X012719Y004373D01*
X012985Y004107D01*
X012985Y003888D01*
X013241Y003888D02*
X013241Y004147D01*
X013021Y004367D01*
X013021Y004576D01*
X013034Y004589D01*
X013349Y004589D02*
X013349Y004334D01*
X013497Y004186D01*
X013497Y003888D01*
X013753Y003888D02*
X013753Y004206D01*
X013979Y004432D01*
X013979Y004589D01*
X014294Y004589D02*
X014294Y004452D01*
X014009Y004166D01*
X014009Y003888D01*
X014265Y003888D02*
X014265Y004028D01*
X014609Y004373D01*
X014609Y004589D01*
X014649Y004550D01*
X014649Y004511D01*
X014627Y004489D01*
X014924Y004589D02*
X014924Y004294D01*
X014924Y005219D02*
X014924Y005574D01*
X015042Y005692D01*
X014649Y005692D02*
X014609Y005652D01*
X014609Y005219D01*
X014294Y005219D02*
X014294Y005652D01*
X014255Y005692D01*
X013979Y005574D02*
X013861Y005692D01*
X013979Y005574D02*
X013979Y005219D01*
X013349Y005219D02*
X013349Y005574D01*
X013467Y005692D01*
X013074Y005692D02*
X013034Y005652D01*
X013034Y005219D01*
X012719Y005219D02*
X012719Y005652D01*
X012680Y005692D01*
X012404Y005574D02*
X012286Y005692D01*
X012404Y005574D02*
X012404Y005219D01*
X011105Y005692D02*
X010987Y005574D01*
X010987Y005219D01*
X010672Y005219D02*
X010672Y005652D01*
X010711Y005692D01*
X010357Y005652D02*
X010318Y005692D01*
X010357Y005652D02*
X010357Y005219D01*
X010042Y005219D02*
X010042Y005574D01*
X009924Y005692D01*
X009530Y005692D02*
X009412Y005574D01*
X009412Y005219D01*
X009097Y005219D02*
X009097Y005652D01*
X009137Y005692D01*
X008782Y005652D02*
X008743Y005692D01*
X008782Y005652D02*
X008782Y005219D01*
X008467Y005219D02*
X008467Y005574D01*
X008349Y005692D01*
X007168Y005692D02*
X007050Y005574D01*
X007050Y005219D01*
X006735Y005219D02*
X006735Y005652D01*
X006774Y005692D01*
X006420Y005652D02*
X006381Y005692D01*
X006420Y005652D02*
X006420Y005219D01*
X006105Y005219D02*
X006105Y005574D01*
X005987Y005692D01*
X005593Y005692D02*
X005475Y005574D01*
X005475Y005219D01*
X005160Y005219D02*
X005160Y005652D01*
X005200Y005692D01*
X005160Y004589D02*
X005160Y004353D01*
X005367Y004147D01*
X005367Y003888D01*
X005111Y003888D02*
X005111Y004107D01*
X004845Y004373D01*
X004845Y004589D01*
X004530Y004589D02*
X004530Y004393D01*
X004855Y004068D01*
X004855Y003888D01*
X004599Y003888D02*
X004346Y003888D01*
X004314Y003920D01*
X005475Y004334D02*
X005623Y004186D01*
X005623Y003888D01*
X005879Y003888D02*
X005879Y004206D01*
X006105Y004432D01*
X006105Y004589D01*
X006420Y004589D02*
X006420Y004452D01*
X006135Y004166D01*
X006135Y003888D01*
X006391Y003888D02*
X006391Y004028D01*
X006735Y004373D01*
X006735Y004589D01*
X007050Y004589D02*
X007050Y004294D01*
X005475Y004334D02*
X005475Y004589D01*
X009629Y007365D02*
X009629Y007641D01*
X009668Y007680D01*
X008802Y008054D02*
X007070Y008054D01*
X006479Y008645D01*
X006086Y008448D02*
X006282Y009432D01*
X006873Y010023D01*
X007857Y010023D01*
X008251Y009629D02*
X008251Y010613D01*
X008448Y010810D01*
X008802Y010810D01*
X009235Y010416D02*
X009255Y010436D01*
X009668Y010436D01*
X010771Y009806D02*
X010771Y009668D01*
X010908Y009530D01*
X011637Y009432D02*
X011735Y009334D01*
X012778Y009334D01*
X013763Y009432D02*
X014353Y010023D01*
X015337Y010023D01*
X015731Y009629D02*
X015731Y010613D01*
X015928Y010810D01*
X016282Y010810D01*
X016715Y010416D02*
X016735Y010436D01*
X017149Y010436D01*
X015731Y009629D02*
X015436Y009334D01*
X015141Y009334D01*
X015692Y008841D02*
X016282Y009432D01*
X016814Y009038D02*
X016834Y009058D01*
X017149Y009058D01*
X015692Y008841D02*
X014649Y008841D01*
X013960Y008645D02*
X014550Y008054D01*
X016282Y008054D01*
X016715Y007463D02*
X016932Y007680D01*
X017149Y007680D01*
X013566Y007995D02*
X013566Y008448D01*
X013763Y009432D01*
X013271Y008841D02*
X012483Y008054D01*
X011637Y008054D01*
X010771Y008428D02*
X010711Y008369D01*
X010711Y008152D01*
X009668Y009058D02*
X009255Y009058D01*
X009235Y009038D01*
X008802Y009432D02*
X008211Y008841D01*
X007168Y008841D01*
X007660Y009334D02*
X007956Y009334D01*
X008251Y009629D01*
X006086Y008448D02*
X006086Y007995D01*
X005790Y008841D02*
X005003Y008054D01*
X004156Y008054D01*
X003231Y008152D02*
X003231Y008271D01*
X003290Y008428D01*
X004255Y009334D02*
X004156Y009432D01*
X004255Y009334D02*
X005298Y009334D01*
X005101Y010023D02*
X004314Y010810D01*
X004156Y010810D01*
X003625Y011204D02*
X003605Y011184D01*
X003290Y011184D01*
X004156Y012188D02*
X005298Y011046D01*
X005298Y010711D01*
X005790Y011204D02*
X005790Y011932D01*
X004156Y013566D01*
X003723Y013960D02*
X003310Y013960D01*
X003290Y013940D01*
X005692Y013566D02*
X006420Y013566D01*
X006853Y013999D01*
X006479Y013133D02*
X006479Y011400D01*
X007168Y011204D02*
X007168Y011932D01*
X008802Y013566D01*
X009235Y013172D02*
X009255Y013192D01*
X009668Y013192D01*
X010771Y012562D02*
X010790Y012582D01*
X011204Y012582D01*
X011637Y012188D02*
X012778Y011046D01*
X012778Y010711D01*
X013271Y011204D02*
X013271Y011932D01*
X011637Y013566D01*
X011204Y013960D02*
X010790Y013960D01*
X010771Y013940D01*
X013172Y013566D02*
X013900Y013566D01*
X014334Y013999D01*
X016282Y013566D02*
X014649Y011932D01*
X014649Y011204D01*
X013960Y011400D02*
X013960Y013133D01*
X015141Y011046D02*
X016282Y012188D01*
X016715Y011794D02*
X016735Y011814D01*
X017149Y011814D01*
X015141Y011046D02*
X015141Y010711D01*
X012582Y010023D02*
X011794Y010810D01*
X011637Y010810D01*
X011105Y011204D02*
X010790Y011204D01*
X010771Y011184D01*
X009668Y011814D02*
X009255Y011814D01*
X009235Y011794D01*
X008802Y012188D02*
X007660Y011046D01*
X007660Y010711D01*
X003723Y012582D02*
X003704Y012562D01*
X003290Y012562D01*
X003290Y009806D02*
X003428Y009668D01*
X003428Y009530D01*
X016715Y013172D02*
X016735Y013192D01*
X017149Y013192D01*
X019452Y012818D02*
X019452Y012601D01*
X019668Y012385D01*
X019668Y011991D01*
X021026Y012601D02*
X021243Y012385D01*
X021243Y011991D01*
X021026Y012601D02*
X021026Y012818D01*
X022582Y012562D02*
X022995Y012562D01*
X023015Y012582D01*
X023448Y012188D02*
X024589Y011046D01*
X024589Y010711D01*
X024393Y010023D02*
X023605Y010810D01*
X023448Y010810D01*
X022916Y011204D02*
X022897Y011184D01*
X022582Y011184D01*
X025082Y011204D02*
X025082Y011932D01*
X023448Y013566D01*
X023015Y013960D02*
X022995Y013940D01*
X022582Y013940D01*
X024983Y013566D02*
X025771Y013566D01*
X026145Y013940D01*
X026145Y013999D01*
X025771Y013133D02*
X025771Y011400D01*
X026460Y011204D02*
X026460Y011932D01*
X028093Y013566D01*
X028526Y013172D02*
X028546Y013192D01*
X028960Y013192D01*
X030062Y012562D02*
X030475Y012562D01*
X030495Y012582D01*
X030928Y012188D02*
X032070Y011046D01*
X032070Y010711D01*
X031873Y010023D02*
X031086Y010810D01*
X030928Y010810D01*
X030475Y011184D02*
X030062Y011184D01*
X030397Y011204D02*
X030475Y011184D01*
X028960Y011814D02*
X028546Y011814D01*
X028526Y011794D01*
X028093Y012188D02*
X026952Y011046D01*
X026952Y010711D01*
X027149Y010023D02*
X026164Y010023D01*
X025574Y009432D01*
X025377Y008448D01*
X025377Y007995D01*
X025082Y008841D02*
X024294Y008054D01*
X023448Y008054D01*
X022582Y008211D02*
X022523Y008152D01*
X022582Y008211D02*
X022582Y008428D01*
X023546Y009334D02*
X023448Y009432D01*
X023546Y009334D02*
X024589Y009334D01*
X025771Y008645D02*
X026361Y008054D01*
X028093Y008054D01*
X028920Y007641D02*
X028960Y007680D01*
X028920Y007641D02*
X028920Y007365D01*
X022719Y009530D02*
X022582Y009668D01*
X022582Y009806D01*
X030928Y013566D02*
X032562Y011932D01*
X032562Y011204D01*
X033251Y011400D02*
X033251Y013133D01*
X033192Y013566D02*
X032463Y013566D01*
X033192Y013566D02*
X033625Y013999D01*
X035574Y013566D02*
X033940Y011932D01*
X033940Y011204D01*
X034432Y011046D02*
X035574Y012188D01*
X036007Y011794D02*
X036420Y011794D01*
X036440Y011814D01*
X034432Y011046D02*
X034432Y010711D01*
X036007Y013172D02*
X036026Y013192D01*
X036440Y013192D01*
X030495Y013960D02*
X030475Y013940D01*
X030062Y013940D01*
D21*
X001275Y000596D02*
X000991Y000759D01*
X000759Y000991D01*
X000596Y001275D01*
X000511Y001591D01*
X000500Y001755D01*
X000500Y015141D01*
X000511Y015304D01*
X000596Y015621D01*
X000759Y015905D01*
X000991Y016136D01*
X001275Y016300D01*
X001591Y016385D01*
X001755Y016395D01*
X037975Y016395D01*
X038139Y016385D01*
X038455Y016300D01*
X038739Y016136D01*
X038971Y015905D01*
X039135Y015621D01*
X039219Y015304D01*
X039230Y015141D01*
X039230Y001755D01*
X039219Y001591D01*
X039135Y001275D01*
X038971Y000991D01*
X038739Y000759D01*
X038455Y000596D01*
X038139Y000511D01*
X037975Y000500D01*
X001755Y000500D01*
X001591Y000511D01*
X001275Y000596D01*
X001275Y000596D01*
X001171Y000656D02*
X038559Y000656D01*
X038794Y000814D02*
X038186Y000814D01*
X038164Y000805D02*
X038513Y000949D01*
X038781Y001217D01*
X038925Y001566D01*
X038925Y001944D01*
X038781Y002293D01*
X038513Y002560D01*
X038164Y002705D01*
X037786Y002705D01*
X037437Y002560D01*
X037170Y002293D01*
X037025Y001944D01*
X037025Y001566D01*
X037170Y001217D01*
X037437Y000949D01*
X037786Y000805D01*
X038164Y000805D01*
X037764Y000814D02*
X034730Y000814D01*
X034757Y000825D02*
X034958Y001026D01*
X034962Y001028D01*
X035012Y001080D01*
X035086Y001080D01*
X035204Y001129D01*
X035294Y001219D01*
X035343Y001337D01*
X035343Y001897D01*
X035294Y002015D01*
X035204Y002105D01*
X035203Y002105D01*
X035203Y002268D01*
X034844Y002268D01*
X034844Y002305D01*
X034807Y002305D01*
X034807Y002683D01*
X034605Y002683D01*
X034605Y002979D01*
X034942Y003317D01*
X034999Y003453D01*
X034999Y003767D01*
X035212Y003981D01*
X035317Y004085D01*
X035373Y004221D01*
X035373Y004232D01*
X035421Y004349D01*
X035421Y004830D01*
X035391Y004904D01*
X035421Y004979D01*
X035421Y005366D01*
X035496Y005441D01*
X035564Y005604D01*
X035564Y005780D01*
X035496Y005943D01*
X035372Y006067D01*
X035209Y006135D01*
X035033Y006135D01*
X034924Y006090D01*
X034815Y006135D01*
X034639Y006135D01*
X034530Y006090D01*
X034422Y006135D01*
X034245Y006135D01*
X034137Y006090D01*
X034028Y006135D01*
X033852Y006135D01*
X033743Y006090D01*
X033634Y006135D01*
X033458Y006135D01*
X033349Y006090D01*
X033241Y006135D01*
X033064Y006135D01*
X032956Y006090D01*
X032847Y006135D01*
X032671Y006135D01*
X032562Y006090D01*
X032453Y006135D01*
X032277Y006135D01*
X032114Y006067D01*
X031989Y005943D01*
X031922Y005780D01*
X031922Y005604D01*
X031989Y005441D01*
X032065Y005366D01*
X032065Y004979D01*
X032095Y004904D01*
X032065Y004830D01*
X032065Y004349D01*
X032113Y004231D01*
X032203Y004141D01*
X032312Y004096D01*
X032312Y003888D01*
X032428Y003888D01*
X032428Y003888D01*
X032312Y003888D01*
X032312Y003669D01*
X032324Y003623D01*
X032348Y003582D01*
X032382Y003549D01*
X032423Y003525D01*
X032468Y003513D01*
X032476Y003513D01*
X032477Y003512D01*
X032567Y003422D01*
X032684Y003373D01*
X032932Y003373D01*
X032936Y003375D01*
X032940Y003373D01*
X033188Y003373D01*
X033192Y003375D01*
X033196Y003373D01*
X033443Y003373D01*
X033448Y003375D01*
X033452Y003373D01*
X033699Y003373D01*
X033704Y003375D01*
X033708Y003373D01*
X033952Y003373D01*
X033921Y003342D01*
X033865Y003206D01*
X033865Y002791D01*
X033823Y002892D01*
X033699Y003016D01*
X033536Y003084D01*
X033360Y003084D01*
X033197Y003016D01*
X033072Y002892D01*
X033070Y002887D01*
X033064Y002887D01*
X032902Y002819D01*
X032777Y002695D01*
X032775Y002690D01*
X032769Y002690D01*
X032606Y002622D01*
X032482Y002498D01*
X032480Y002493D01*
X032474Y002493D01*
X032311Y002426D01*
X032186Y002301D01*
X032119Y002138D01*
X032119Y001962D01*
X032172Y001834D01*
X032172Y001564D01*
X031406Y001564D01*
X031406Y001897D01*
X031357Y002015D01*
X031267Y002105D01*
X031266Y002105D01*
X031266Y002268D01*
X030907Y002268D01*
X030907Y002305D01*
X030870Y002305D01*
X030870Y002683D01*
X030668Y002683D01*
X030668Y002979D01*
X031005Y003317D01*
X031062Y003453D01*
X031062Y003767D01*
X031379Y004085D01*
X031436Y004221D01*
X031436Y004232D01*
X031484Y004349D01*
X031484Y004830D01*
X031454Y004904D01*
X031484Y004979D01*
X031484Y005366D01*
X031559Y005441D01*
X031627Y005604D01*
X031627Y005780D01*
X031559Y005943D01*
X031435Y006067D01*
X031272Y006135D01*
X031096Y006135D01*
X030987Y006090D01*
X030878Y006135D01*
X030702Y006135D01*
X030593Y006090D01*
X030485Y006135D01*
X030308Y006135D01*
X030200Y006090D01*
X030091Y006135D01*
X029915Y006135D01*
X029806Y006090D01*
X029697Y006135D01*
X029521Y006135D01*
X029412Y006090D01*
X029304Y006135D01*
X029127Y006135D01*
X029019Y006090D01*
X028910Y006135D01*
X028734Y006135D01*
X028625Y006090D01*
X028516Y006135D01*
X028340Y006135D01*
X028177Y006067D01*
X028052Y005943D01*
X027985Y005780D01*
X027985Y005604D01*
X028052Y005441D01*
X028128Y005366D01*
X028128Y004979D01*
X028158Y004904D01*
X028128Y004830D01*
X028128Y004349D01*
X028176Y004231D01*
X028266Y004141D01*
X028280Y004135D01*
X028375Y004040D01*
X028375Y003888D01*
X028491Y003888D01*
X028491Y003888D01*
X028375Y003888D01*
X028375Y003669D01*
X028387Y003623D01*
X028411Y003582D01*
X028445Y003549D01*
X028486Y003525D01*
X028531Y003513D01*
X028539Y003513D01*
X028540Y003512D01*
X028630Y003422D01*
X028747Y003373D01*
X028995Y003373D01*
X028999Y003375D01*
X029003Y003373D01*
X029251Y003373D01*
X029255Y003375D01*
X029259Y003373D01*
X029506Y003373D01*
X029511Y003375D01*
X029515Y003373D01*
X029762Y003373D01*
X029767Y003375D01*
X029771Y003373D01*
X030015Y003373D01*
X029984Y003342D01*
X029928Y003206D01*
X029928Y002791D01*
X029886Y002892D01*
X029762Y003016D01*
X029599Y003084D01*
X029423Y003084D01*
X029260Y003016D01*
X029135Y002892D01*
X029133Y002887D01*
X029127Y002887D01*
X028964Y002819D01*
X028840Y002695D01*
X028838Y002690D01*
X028832Y002690D01*
X028669Y002622D01*
X028545Y002498D01*
X028543Y002493D01*
X028537Y002493D01*
X028374Y002426D01*
X028249Y002301D01*
X028182Y002138D01*
X028182Y001962D01*
X028235Y001834D01*
X028235Y001564D01*
X027469Y001564D01*
X027469Y001897D01*
X027420Y002015D01*
X027330Y002105D01*
X027329Y002105D01*
X027329Y002268D01*
X026970Y002268D01*
X026970Y002305D01*
X026933Y002305D01*
X026933Y002683D01*
X026731Y002683D01*
X026731Y002979D01*
X027068Y003317D01*
X027125Y003453D01*
X027125Y003767D01*
X027442Y004085D01*
X027499Y004221D01*
X027499Y004232D01*
X027547Y004349D01*
X027547Y004830D01*
X027517Y004904D01*
X027547Y004979D01*
X027547Y005366D01*
X027622Y005441D01*
X027690Y005604D01*
X027690Y005780D01*
X027622Y005943D01*
X027498Y006067D01*
X027335Y006135D01*
X027159Y006135D01*
X027050Y006090D01*
X026941Y006135D01*
X026765Y006135D01*
X026656Y006090D01*
X026548Y006135D01*
X026371Y006135D01*
X026263Y006090D01*
X026154Y006135D01*
X025978Y006135D01*
X025869Y006090D01*
X025760Y006135D01*
X025584Y006135D01*
X025475Y006090D01*
X025367Y006135D01*
X025190Y006135D01*
X025082Y006090D01*
X024973Y006135D01*
X024797Y006135D01*
X024688Y006090D01*
X024579Y006135D01*
X024403Y006135D01*
X024240Y006067D01*
X024115Y005943D01*
X024048Y005780D01*
X024048Y005604D01*
X024115Y005441D01*
X024191Y005366D01*
X024191Y004979D01*
X024221Y004904D01*
X024191Y004830D01*
X024191Y004349D01*
X024239Y004231D01*
X024329Y004141D01*
X024343Y004135D01*
X024438Y004040D01*
X024438Y003888D01*
X024554Y003888D01*
X024554Y003888D01*
X024438Y003888D01*
X024438Y003669D01*
X024450Y003623D01*
X024474Y003582D01*
X024508Y003549D01*
X024549Y003525D01*
X024594Y003513D01*
X024602Y003513D01*
X024603Y003512D01*
X024693Y003422D01*
X024810Y003373D01*
X025058Y003373D01*
X025062Y003375D01*
X025066Y003373D01*
X025313Y003373D01*
X025318Y003375D01*
X025322Y003373D01*
X025569Y003373D01*
X025574Y003375D01*
X025578Y003373D01*
X025825Y003373D01*
X025830Y003375D01*
X025834Y003373D01*
X026078Y003373D01*
X026047Y003342D01*
X025991Y003206D01*
X025991Y002791D01*
X025949Y002892D01*
X025825Y003016D01*
X025662Y003084D01*
X025486Y003084D01*
X025323Y003016D01*
X025198Y002892D01*
X025196Y002887D01*
X025190Y002887D01*
X025027Y002819D01*
X024903Y002695D01*
X024901Y002690D01*
X024895Y002690D01*
X024732Y002622D01*
X024608Y002498D01*
X024606Y002493D01*
X024600Y002493D01*
X024437Y002426D01*
X024312Y002301D01*
X024245Y002138D01*
X024245Y001962D01*
X024298Y001834D01*
X024298Y001564D01*
X022241Y001564D01*
X022241Y002121D01*
X021881Y002121D01*
X021881Y002161D01*
X021841Y002161D01*
X021841Y002971D01*
X021637Y002971D01*
X021592Y002958D01*
X021551Y002935D01*
X021517Y002901D01*
X021493Y002860D01*
X021481Y002814D01*
X021481Y002161D01*
X021841Y002161D01*
X021841Y002121D01*
X021481Y002121D01*
X021481Y001564D01*
X021241Y001564D01*
X021241Y002121D01*
X020881Y002121D01*
X020881Y002161D01*
X020841Y002161D01*
X020841Y002971D01*
X020637Y002971D01*
X020592Y002958D01*
X020551Y002935D01*
X020517Y002901D01*
X020493Y002860D01*
X020481Y002814D01*
X020481Y002161D01*
X020841Y002161D01*
X020841Y002121D01*
X020481Y002121D01*
X020481Y001564D01*
X020381Y001564D01*
X020381Y002854D01*
X020332Y002972D01*
X020242Y003062D01*
X020125Y003111D01*
X019597Y003111D01*
X019480Y003062D01*
X019390Y002972D01*
X019361Y002903D01*
X019332Y002972D01*
X019305Y002999D01*
X019324Y003045D01*
X019324Y003221D01*
X019300Y003277D01*
X019332Y003309D01*
X019381Y003427D01*
X019381Y004854D01*
X019332Y004972D01*
X019242Y005062D01*
X019125Y005111D01*
X018597Y005111D01*
X018480Y005062D01*
X018390Y004972D01*
X018361Y004903D01*
X018332Y004972D01*
X018242Y005062D01*
X018125Y005111D01*
X017597Y005111D01*
X017480Y005062D01*
X017390Y004972D01*
X017341Y004854D01*
X017341Y003427D01*
X017348Y003410D01*
X017124Y003182D01*
X017119Y003182D01*
X016957Y003115D01*
X016832Y002990D01*
X016765Y002827D01*
X016765Y002651D01*
X016832Y002488D01*
X016957Y002364D01*
X016961Y002362D01*
X016961Y002356D01*
X017029Y002193D01*
X017153Y002068D01*
X017316Y002001D01*
X017318Y002001D01*
X017341Y001977D01*
X017341Y001564D01*
X015264Y001564D01*
X015264Y001897D01*
X015215Y002015D01*
X015125Y002105D01*
X015124Y002105D01*
X015124Y002268D01*
X014765Y002268D01*
X014765Y002305D01*
X014729Y002305D01*
X014729Y002683D01*
X014526Y002683D01*
X014526Y002979D01*
X014864Y003317D01*
X014920Y003453D01*
X014920Y003767D01*
X015238Y004085D01*
X015294Y004221D01*
X015294Y004232D01*
X015343Y004349D01*
X015343Y004830D01*
X015312Y004904D01*
X015343Y004979D01*
X015343Y005366D01*
X015418Y005441D01*
X015485Y005604D01*
X015485Y005780D01*
X015418Y005943D01*
X015293Y006067D01*
X015130Y006135D01*
X014954Y006135D01*
X014845Y006090D01*
X014737Y006135D01*
X014560Y006135D01*
X014452Y006090D01*
X014343Y006135D01*
X014167Y006135D01*
X014058Y006090D01*
X013949Y006135D01*
X013773Y006135D01*
X013664Y006090D01*
X013556Y006135D01*
X013379Y006135D01*
X013271Y006090D01*
X013162Y006135D01*
X012986Y006135D01*
X012877Y006090D01*
X012768Y006135D01*
X012592Y006135D01*
X012483Y006090D01*
X012374Y006135D01*
X012198Y006135D01*
X012035Y006067D01*
X011911Y005943D01*
X011843Y005780D01*
X011843Y005604D01*
X011911Y005441D01*
X011986Y005366D01*
X011986Y004979D01*
X012017Y004904D01*
X011986Y004830D01*
X011986Y004349D01*
X012035Y004231D01*
X012125Y004141D01*
X012138Y004135D01*
X012233Y004040D01*
X012233Y003888D01*
X012349Y003888D01*
X012349Y003888D01*
X012233Y003888D01*
X012233Y003669D01*
X012246Y003623D01*
X012269Y003582D01*
X012303Y003549D01*
X012344Y003525D01*
X012390Y003513D01*
X012397Y003513D01*
X012398Y003512D01*
X012488Y003422D01*
X012606Y003373D01*
X012853Y003373D01*
X012857Y003375D01*
X012861Y003373D01*
X013109Y003373D01*
X013113Y003375D01*
X013117Y003373D01*
X013365Y003373D01*
X013369Y003375D01*
X013373Y003373D01*
X013621Y003373D01*
X013625Y003375D01*
X013629Y003373D01*
X013873Y003373D01*
X013843Y003342D01*
X013786Y003206D01*
X013786Y002791D01*
X013745Y002892D01*
X013620Y003016D01*
X013457Y003084D01*
X013281Y003084D01*
X013118Y003016D01*
X012993Y002892D01*
X012991Y002887D01*
X012986Y002887D01*
X012823Y002819D01*
X012698Y002695D01*
X012696Y002690D01*
X012690Y002690D01*
X012527Y002622D01*
X012403Y002498D01*
X012401Y002493D01*
X012395Y002493D01*
X012232Y002426D01*
X012108Y002301D01*
X012040Y002138D01*
X012040Y001962D01*
X012093Y001834D01*
X012093Y001564D01*
X011327Y001564D01*
X011327Y001897D01*
X011278Y002015D01*
X011188Y002105D01*
X011187Y002105D01*
X011187Y002268D01*
X010828Y002268D01*
X010828Y002305D01*
X010791Y002305D01*
X010791Y002683D01*
X010589Y002683D01*
X010589Y002979D01*
X010927Y003317D01*
X010983Y003453D01*
X010983Y003767D01*
X011301Y004085D01*
X011357Y004221D01*
X011357Y004232D01*
X011406Y004349D01*
X011406Y004830D01*
X011375Y004904D01*
X011406Y004979D01*
X011406Y005366D01*
X011481Y005441D01*
X011548Y005604D01*
X011548Y005780D01*
X011481Y005943D01*
X011356Y006067D01*
X011193Y006135D01*
X011017Y006135D01*
X010908Y006090D01*
X010800Y006135D01*
X010623Y006135D01*
X010515Y006090D01*
X010406Y006135D01*
X010230Y006135D01*
X010121Y006090D01*
X010012Y006135D01*
X009836Y006135D01*
X009727Y006090D01*
X009619Y006135D01*
X009442Y006135D01*
X009334Y006090D01*
X009225Y006135D01*
X009049Y006135D01*
X008940Y006090D01*
X008831Y006135D01*
X008655Y006135D01*
X008546Y006090D01*
X008437Y006135D01*
X008261Y006135D01*
X008098Y006067D01*
X007974Y005943D01*
X007906Y005780D01*
X007906Y005604D01*
X007974Y005441D01*
X008049Y005366D01*
X008049Y004979D01*
X008080Y004904D01*
X008049Y004830D01*
X008049Y004349D01*
X008098Y004231D01*
X008188Y004141D01*
X008201Y004135D01*
X008296Y004040D01*
X008296Y003888D01*
X008412Y003888D01*
X008412Y003888D01*
X008296Y003888D01*
X008296Y003669D01*
X008309Y003623D01*
X008332Y003582D01*
X008366Y003549D01*
X008407Y003525D01*
X008453Y003513D01*
X008460Y003513D01*
X008461Y003512D01*
X008551Y003422D01*
X008669Y003373D01*
X008916Y003373D01*
X008920Y003375D01*
X008924Y003373D01*
X009172Y003373D01*
X009176Y003375D01*
X009180Y003373D01*
X009428Y003373D01*
X009432Y003375D01*
X009436Y003373D01*
X009684Y003373D01*
X009688Y003375D01*
X009692Y003373D01*
X009936Y003373D01*
X009906Y003342D01*
X009849Y003206D01*
X009849Y002791D01*
X009808Y002892D01*
X009683Y003016D01*
X009520Y003084D01*
X009344Y003084D01*
X009181Y003016D01*
X009056Y002892D01*
X009054Y002887D01*
X009049Y002887D01*
X008886Y002819D01*
X008761Y002695D01*
X008759Y002690D01*
X008753Y002690D01*
X008590Y002622D01*
X008466Y002498D01*
X008464Y002493D01*
X008458Y002493D01*
X008295Y002426D01*
X008171Y002301D01*
X008103Y002138D01*
X008103Y001962D01*
X008156Y001834D01*
X008156Y001564D01*
X007390Y001564D01*
X007390Y001897D01*
X007341Y002015D01*
X007251Y002105D01*
X007250Y002105D01*
X007250Y002268D01*
X006891Y002268D01*
X006891Y002305D01*
X006854Y002305D01*
X006854Y002683D01*
X006652Y002683D01*
X006652Y002979D01*
X006990Y003317D01*
X007046Y003453D01*
X007046Y003767D01*
X007364Y004085D01*
X007420Y004221D01*
X007420Y004232D01*
X007469Y004349D01*
X007469Y004830D01*
X007438Y004904D01*
X007469Y004979D01*
X007469Y005366D01*
X007544Y005441D01*
X007611Y005604D01*
X007611Y005780D01*
X007544Y005943D01*
X007419Y006067D01*
X007256Y006135D01*
X007080Y006135D01*
X006971Y006090D01*
X006863Y006135D01*
X006686Y006135D01*
X006578Y006090D01*
X006469Y006135D01*
X006293Y006135D01*
X006184Y006090D01*
X006075Y006135D01*
X005899Y006135D01*
X005790Y006090D01*
X005682Y006135D01*
X005505Y006135D01*
X005397Y006090D01*
X005288Y006135D01*
X005112Y006135D01*
X004949Y006067D01*
X004824Y005943D01*
X004757Y005780D01*
X004757Y005717D01*
X004368Y005717D01*
X004251Y005668D01*
X004161Y005578D01*
X004112Y005460D01*
X004112Y004979D01*
X004143Y004904D01*
X004112Y004830D01*
X004112Y004349D01*
X004161Y004231D01*
X004251Y004141D01*
X004264Y004135D01*
X004359Y004040D01*
X004359Y003888D01*
X004475Y003888D01*
X004475Y003888D01*
X004359Y003888D01*
X004359Y003669D01*
X004372Y003623D01*
X004395Y003582D01*
X004429Y003549D01*
X004470Y003525D01*
X004516Y003513D01*
X004523Y003513D01*
X004524Y003512D01*
X004614Y003422D01*
X004732Y003373D01*
X004979Y003373D01*
X004983Y003375D01*
X004987Y003373D01*
X005235Y003373D01*
X005239Y003375D01*
X005243Y003373D01*
X005491Y003373D01*
X005495Y003375D01*
X005499Y003373D01*
X005747Y003373D01*
X005751Y003375D01*
X005755Y003373D01*
X005999Y003373D01*
X005969Y003342D01*
X005912Y003206D01*
X005912Y002791D01*
X005871Y002892D01*
X005746Y003016D01*
X005583Y003084D01*
X005407Y003084D01*
X005244Y003016D01*
X005119Y002892D01*
X005117Y002887D01*
X005112Y002887D01*
X004949Y002819D01*
X004824Y002695D01*
X004822Y002690D01*
X004816Y002690D01*
X004653Y002622D01*
X004529Y002498D01*
X004461Y002335D01*
X004461Y002159D01*
X004484Y002105D01*
X004476Y002105D01*
X004358Y002057D01*
X004268Y001967D01*
X004219Y001849D01*
X004219Y001332D01*
X004268Y001214D01*
X004358Y001124D01*
X004476Y001075D01*
X004569Y001075D01*
X004689Y000955D01*
X004793Y000851D01*
X004929Y000794D01*
X006721Y000794D01*
X006793Y000764D01*
X034610Y000764D01*
X034757Y000825D01*
X034904Y000973D02*
X037414Y000973D01*
X037256Y001131D02*
X035206Y001131D01*
X035323Y001290D02*
X037140Y001290D01*
X037074Y001448D02*
X035343Y001448D01*
X035343Y001607D02*
X037025Y001607D01*
X037025Y001765D02*
X035343Y001765D01*
X035332Y001924D02*
X037025Y001924D01*
X037083Y002082D02*
X035227Y002082D01*
X035203Y002241D02*
X037148Y002241D01*
X037276Y002399D02*
X035203Y002399D01*
X035203Y002305D02*
X035203Y002527D01*
X035190Y002572D01*
X035167Y002613D01*
X035133Y002647D01*
X035092Y002671D01*
X035046Y002683D01*
X034844Y002683D01*
X034844Y002305D01*
X035203Y002305D01*
X034844Y002399D02*
X034807Y002399D01*
X034807Y002558D02*
X034844Y002558D01*
X034605Y002683D02*
X034605Y002683D01*
X034605Y002716D02*
X039230Y002716D01*
X039230Y002558D02*
X038516Y002558D01*
X038674Y002399D02*
X039230Y002399D01*
X039230Y002241D02*
X038802Y002241D01*
X038868Y002082D02*
X039230Y002082D01*
X039230Y001924D02*
X038925Y001924D01*
X038925Y001765D02*
X039230Y001765D01*
X039220Y001607D02*
X038925Y001607D01*
X038876Y001448D02*
X039181Y001448D01*
X039139Y001290D02*
X038811Y001290D01*
X038695Y001131D02*
X039052Y001131D01*
X038952Y000973D02*
X038536Y000973D01*
X034826Y001617D02*
X034727Y001361D01*
X034530Y001164D01*
X032857Y001164D01*
X030889Y001164D01*
X030889Y001617D01*
X030862Y001590D01*
X030406Y001590D01*
X030889Y001164D02*
X028920Y001164D01*
X026952Y001164D01*
X026952Y001617D01*
X026925Y001590D01*
X026469Y001590D01*
X026952Y001164D02*
X024983Y001164D01*
X019865Y001164D01*
X019841Y001188D01*
X019861Y002141D01*
X020381Y002082D02*
X020481Y002082D01*
X020481Y001924D02*
X020381Y001924D01*
X020381Y001765D02*
X020481Y001765D01*
X020481Y001607D02*
X020381Y001607D01*
X021241Y001607D02*
X021481Y001607D01*
X021481Y001765D02*
X021241Y001765D01*
X021241Y001924D02*
X021481Y001924D01*
X021481Y002082D02*
X021241Y002082D01*
X021241Y002161D02*
X021241Y002814D01*
X021229Y002860D01*
X021205Y002901D01*
X021172Y002935D01*
X021131Y002958D01*
X021085Y002971D01*
X020881Y002971D01*
X020881Y002161D01*
X021241Y002161D01*
X021241Y002241D02*
X021481Y002241D01*
X021481Y002399D02*
X021241Y002399D01*
X021241Y002558D02*
X021481Y002558D01*
X021481Y002716D02*
X021241Y002716D01*
X021221Y002875D02*
X021502Y002875D01*
X021597Y003171D02*
X022125Y003171D01*
X022242Y003219D01*
X022332Y003309D01*
X022381Y003427D01*
X022381Y004854D01*
X022332Y004972D01*
X022255Y005050D01*
X022244Y006473D01*
X032937Y006473D01*
X033084Y006534D01*
X033196Y006646D01*
X033225Y006716D01*
X033431Y006705D01*
X034140Y006821D01*
X034807Y007087D01*
X034807Y007087D01*
X035402Y007490D01*
X035447Y007537D01*
X035844Y007537D01*
X035844Y007419D01*
X035893Y007302D01*
X035983Y007212D01*
X035985Y007211D01*
X036025Y007114D01*
X036150Y006989D01*
X036312Y006922D01*
X036489Y006922D01*
X036651Y006989D01*
X036776Y007114D01*
X036800Y007172D01*
X036897Y007212D01*
X036987Y007302D01*
X037035Y007419D01*
X037035Y007941D01*
X036987Y008058D01*
X036897Y008148D01*
X036879Y008155D01*
X036883Y008162D01*
X036895Y008207D01*
X036895Y008410D01*
X036458Y008410D01*
X036458Y008446D01*
X036895Y008446D01*
X036895Y008589D01*
X036897Y008590D01*
X036987Y008680D01*
X037035Y008797D01*
X037035Y009318D01*
X036987Y009436D01*
X036897Y009526D01*
X036879Y009533D01*
X036883Y009540D01*
X036895Y009585D01*
X036895Y009788D01*
X036548Y009788D01*
X036552Y009824D01*
X036895Y009824D01*
X036895Y009967D01*
X036897Y009968D01*
X036987Y010058D01*
X037035Y010175D01*
X037035Y010696D01*
X036987Y010814D01*
X036897Y010904D01*
X036879Y010911D01*
X036883Y010918D01*
X036895Y010963D01*
X036895Y011166D01*
X036458Y011166D01*
X036458Y011202D01*
X036895Y011202D01*
X036895Y011345D01*
X036897Y011346D01*
X036987Y011436D01*
X037035Y011553D01*
X037035Y012074D01*
X036987Y012192D01*
X036897Y012282D01*
X036879Y012289D01*
X036883Y012296D01*
X036895Y012341D01*
X036895Y012543D01*
X039230Y012543D01*
X039230Y012385D02*
X036895Y012385D01*
X036895Y012543D02*
X036458Y012543D01*
X036458Y012580D01*
X036895Y012580D01*
X036895Y012723D01*
X036897Y012724D01*
X036987Y012814D01*
X037035Y012931D01*
X037035Y013452D01*
X036987Y013570D01*
X036897Y013660D01*
X036879Y013667D01*
X036883Y013674D01*
X036895Y013719D01*
X036895Y013921D01*
X036458Y013921D01*
X036458Y013958D01*
X036421Y013958D01*
X036421Y014317D01*
X036141Y014317D01*
X036095Y014304D01*
X036054Y014281D01*
X036020Y014247D01*
X035997Y014206D01*
X035984Y014160D01*
X035984Y014053D01*
X035913Y014083D01*
X035234Y014083D01*
X035117Y014034D01*
X035027Y013944D01*
X034978Y013826D01*
X034978Y013493D01*
X034547Y013062D01*
X034140Y013224D01*
X033768Y013285D01*
X033768Y013403D01*
X033885Y013403D01*
X034003Y013452D01*
X034093Y013542D01*
X034142Y013660D01*
X034142Y014338D01*
X034093Y014456D01*
X034003Y014546D01*
X033885Y014594D01*
X033364Y014594D01*
X033247Y014546D01*
X033157Y014456D01*
X033150Y014439D01*
X033143Y014442D01*
X033097Y014454D01*
X032895Y014454D01*
X032895Y014017D01*
X032858Y014017D01*
X032858Y013980D01*
X032620Y013980D01*
X032552Y014009D01*
X032375Y014009D01*
X032213Y013941D01*
X032088Y013817D01*
X032020Y013654D01*
X032020Y013478D01*
X032088Y013315D01*
X032213Y013190D01*
X032253Y013174D01*
X032021Y013109D01*
X031947Y013070D01*
X031524Y013493D01*
X031524Y013826D01*
X031475Y013944D01*
X031385Y014034D01*
X031267Y014083D01*
X030923Y014083D01*
X030871Y014210D01*
X030746Y014335D01*
X030583Y014403D01*
X030524Y014403D01*
X030519Y014408D01*
X030401Y014457D01*
X029723Y014457D01*
X029605Y014408D01*
X029515Y014318D01*
X029466Y014200D01*
X029466Y013679D01*
X029515Y013562D01*
X029605Y013472D01*
X029622Y013465D01*
X029619Y013458D01*
X029606Y013412D01*
X029606Y013210D01*
X030043Y013210D01*
X030043Y013173D01*
X029606Y013173D01*
X029606Y013031D01*
X029605Y013030D01*
X029555Y012980D01*
X029555Y013452D01*
X029506Y013570D01*
X029416Y013660D01*
X029399Y013667D01*
X029403Y013674D01*
X029415Y013719D01*
X029415Y013921D01*
X028978Y013921D01*
X028978Y013958D01*
X029415Y013958D01*
X029415Y014160D01*
X029403Y014206D01*
X029379Y014247D01*
X029346Y014281D01*
X029305Y014304D01*
X029259Y014317D01*
X028978Y014317D01*
X028978Y013958D01*
X028941Y013958D01*
X028941Y014317D01*
X028660Y014317D01*
X028614Y014304D01*
X028573Y014281D01*
X028540Y014247D01*
X028516Y014206D01*
X028504Y014160D01*
X028504Y014053D01*
X028433Y014083D01*
X027754Y014083D01*
X027637Y014034D01*
X027547Y013944D01*
X027498Y013826D01*
X027498Y013493D01*
X027066Y013062D01*
X026659Y013224D01*
X026287Y013285D01*
X026287Y013403D01*
X026405Y013403D01*
X026523Y013452D01*
X026613Y013542D01*
X026661Y013660D01*
X026661Y014338D01*
X026613Y014456D01*
X026523Y014546D01*
X026405Y014594D01*
X025884Y014594D01*
X025766Y014546D01*
X025676Y014456D01*
X025669Y014439D01*
X025663Y014442D01*
X025617Y014454D01*
X025415Y014454D01*
X025415Y014017D01*
X025378Y014017D01*
X025378Y013980D01*
X025140Y013980D01*
X025071Y014009D01*
X024895Y014009D01*
X024732Y013941D01*
X024608Y013817D01*
X024540Y013654D01*
X024540Y013478D01*
X024608Y013315D01*
X024732Y013190D01*
X024772Y013174D01*
X024541Y013109D01*
X024541Y013109D01*
X024467Y013070D01*
X024043Y013493D01*
X024043Y013826D01*
X023995Y013944D01*
X023905Y014034D01*
X023787Y014083D01*
X023443Y014083D01*
X023390Y014210D01*
X023266Y014335D01*
X023103Y014403D01*
X023044Y014403D01*
X023038Y014408D01*
X022921Y014457D01*
X022242Y014457D01*
X022125Y014408D01*
X022035Y014318D01*
X021986Y014200D01*
X021986Y013679D01*
X022035Y013562D01*
X022125Y013472D01*
X022142Y013465D01*
X022138Y013458D01*
X022126Y013412D01*
X022126Y013210D01*
X022563Y013210D01*
X022563Y013173D01*
X022126Y013173D01*
X022126Y013031D01*
X022125Y013030D01*
X022035Y012940D01*
X021986Y012822D01*
X021986Y012301D01*
X022035Y012184D01*
X022125Y012094D01*
X022142Y012087D01*
X022138Y012080D01*
X022126Y012034D01*
X022126Y011832D01*
X022563Y011832D01*
X022563Y011795D01*
X022126Y011795D01*
X022126Y011653D01*
X022125Y011652D01*
X022035Y011562D01*
X021986Y011444D01*
X021986Y010923D01*
X022035Y010806D01*
X022125Y010716D01*
X022142Y010709D01*
X022138Y010702D01*
X022126Y010656D01*
X022126Y010454D01*
X022483Y010454D01*
X022475Y010417D01*
X022126Y010417D01*
X022126Y010275D01*
X022125Y010274D01*
X022035Y010184D01*
X021986Y010066D01*
X021986Y009545D01*
X022035Y009428D01*
X022125Y009338D01*
X022142Y009331D01*
X022138Y009324D01*
X022126Y009279D01*
X022126Y009076D01*
X022563Y009076D01*
X022563Y009040D01*
X022126Y009040D01*
X022126Y008897D01*
X022125Y008896D01*
X022035Y008806D01*
X021986Y008689D01*
X021986Y008168D01*
X022035Y008050D01*
X022121Y007963D01*
X022134Y007932D01*
X022126Y007901D01*
X022126Y007698D01*
X022563Y007698D01*
X022563Y007662D01*
X022126Y007662D01*
X022126Y007459D01*
X022138Y007414D01*
X022162Y007373D01*
X022195Y007339D01*
X022237Y007315D01*
X022282Y007303D01*
X022563Y007303D01*
X022563Y007662D01*
X022600Y007662D01*
X022600Y007303D01*
X022881Y007303D01*
X022927Y007315D01*
X022968Y007339D01*
X023001Y007373D01*
X023025Y007414D01*
X023037Y007459D01*
X023037Y007567D01*
X023108Y007537D01*
X023594Y007537D01*
X023905Y007273D01*
X020265Y007273D01*
X020265Y007399D01*
X020539Y007399D01*
X020657Y007448D01*
X020747Y007538D01*
X020795Y007656D01*
X020795Y008177D01*
X020765Y008251D01*
X020795Y008325D01*
X020795Y008846D01*
X020747Y008964D01*
X020657Y009054D01*
X020644Y009059D01*
X020859Y009274D01*
X020859Y009771D01*
X020607Y010023D01*
X020859Y010274D01*
X020859Y010771D01*
X020710Y010920D01*
X020868Y011078D01*
X020975Y011185D01*
X021032Y011325D01*
X021032Y011407D01*
X021121Y011495D01*
X021144Y011552D01*
X021155Y011548D01*
X021331Y011548D01*
X021494Y011615D01*
X021619Y011740D01*
X021686Y011903D01*
X021686Y012079D01*
X021619Y012242D01*
X021613Y012248D01*
X021613Y012458D01*
X021557Y012594D01*
X021543Y012608D01*
X021543Y013157D01*
X021495Y013275D01*
X021405Y013365D01*
X021287Y013413D01*
X020766Y013413D01*
X020648Y013365D01*
X020558Y013275D01*
X020551Y013257D01*
X020545Y013261D01*
X020499Y013273D01*
X020297Y013273D01*
X020297Y012836D01*
X020260Y012836D01*
X020260Y013273D01*
X020058Y013273D01*
X020012Y013261D01*
X019971Y013237D01*
X019946Y013212D01*
X019920Y013275D01*
X019830Y013365D01*
X019712Y013413D01*
X019191Y013413D01*
X019074Y013365D01*
X018984Y013275D01*
X018976Y013257D01*
X018970Y013261D01*
X018924Y013273D01*
X018722Y013273D01*
X018722Y012836D01*
X018685Y012836D01*
X018685Y012799D01*
X018327Y012799D01*
X018327Y012519D01*
X018339Y012473D01*
X018363Y012432D01*
X018396Y012398D01*
X018437Y012374D01*
X018483Y012362D01*
X018590Y012362D01*
X018561Y012291D01*
X018561Y011612D01*
X018610Y011495D01*
X018698Y011407D01*
X018698Y011325D01*
X018755Y011185D01*
X018862Y011078D01*
X019021Y010920D01*
X018871Y010771D01*
X018871Y010274D01*
X019123Y010023D01*
X018871Y009771D01*
X018871Y009274D01*
X019086Y009059D01*
X019074Y009054D01*
X018984Y008964D01*
X018935Y008846D01*
X018935Y008325D01*
X018966Y008251D01*
X018935Y008177D01*
X018935Y007656D01*
X018984Y007538D01*
X019074Y007448D01*
X019191Y007399D01*
X019465Y007399D01*
X019465Y007273D01*
X017666Y007273D01*
X017695Y007302D01*
X017744Y007419D01*
X017744Y007941D01*
X017695Y008058D01*
X017605Y008148D01*
X017588Y008155D01*
X017592Y008162D01*
X017604Y008207D01*
X017604Y008410D01*
X017167Y008410D01*
X017167Y008446D01*
X017604Y008446D01*
X017604Y008589D01*
X017605Y008590D01*
X017695Y008680D01*
X017744Y008797D01*
X017744Y009318D01*
X017695Y009436D01*
X017605Y009526D01*
X017588Y009533D01*
X017592Y009540D01*
X017604Y009585D01*
X017604Y009788D01*
X017257Y009788D01*
X017261Y009824D01*
X017604Y009824D01*
X017604Y009967D01*
X017605Y009968D01*
X017695Y010058D01*
X017744Y010175D01*
X017744Y010696D01*
X017695Y010814D01*
X017605Y010904D01*
X017588Y010911D01*
X017592Y010918D01*
X017604Y010963D01*
X017604Y011166D01*
X017167Y011166D01*
X017167Y011202D01*
X017604Y011202D01*
X017604Y011345D01*
X017605Y011346D01*
X017695Y011436D01*
X017744Y011553D01*
X017744Y012074D01*
X017695Y012192D01*
X017605Y012282D01*
X017588Y012289D01*
X017592Y012296D01*
X017604Y012341D01*
X017604Y012543D01*
X018327Y012543D01*
X018327Y012702D02*
X017604Y012702D01*
X017604Y012723D02*
X017605Y012724D01*
X017695Y012814D01*
X017744Y012931D01*
X017744Y013452D01*
X017695Y013570D01*
X017605Y013660D01*
X017588Y013667D01*
X017592Y013674D01*
X017604Y013719D01*
X017604Y013921D01*
X017167Y013921D01*
X017167Y013958D01*
X017604Y013958D01*
X017604Y014160D01*
X017592Y014206D01*
X017568Y014247D01*
X017535Y014281D01*
X017494Y014304D01*
X017448Y014317D01*
X017167Y014317D01*
X017167Y013958D01*
X017130Y013958D01*
X017130Y014317D01*
X016849Y014317D01*
X016803Y014304D01*
X016762Y014281D01*
X016729Y014247D01*
X016705Y014206D01*
X016693Y014160D01*
X016693Y014053D01*
X016622Y014083D01*
X015943Y014083D01*
X015826Y014034D01*
X015735Y013944D01*
X015687Y013826D01*
X015687Y013493D01*
X015255Y013062D01*
X014848Y013224D01*
X014476Y013285D01*
X014476Y013403D01*
X014594Y013403D01*
X014712Y013452D01*
X014802Y013542D01*
X014850Y013660D01*
X014850Y014338D01*
X014802Y014456D01*
X014712Y014546D01*
X014594Y014594D01*
X014073Y014594D01*
X013955Y014546D01*
X013865Y014456D01*
X013858Y014439D01*
X013852Y014442D01*
X013806Y014454D01*
X013604Y014454D01*
X013604Y014017D01*
X013567Y014017D01*
X013567Y013980D01*
X013329Y013980D01*
X013260Y014009D01*
X013084Y014009D01*
X012921Y013941D01*
X012797Y013817D01*
X012729Y013654D01*
X012729Y013478D01*
X012797Y013315D01*
X012921Y013190D01*
X012961Y013174D01*
X012730Y013109D01*
X012730Y013109D01*
X012656Y013070D01*
X012232Y013493D01*
X012232Y013826D01*
X012184Y013944D01*
X012094Y014034D01*
X011976Y014083D01*
X011632Y014083D01*
X011579Y014210D01*
X011455Y014335D01*
X011292Y014403D01*
X011233Y014403D01*
X011227Y014408D01*
X011110Y014457D01*
X010431Y014457D01*
X010314Y014408D01*
X010224Y014318D01*
X010175Y014200D01*
X010175Y013679D01*
X010224Y013562D01*
X010314Y013472D01*
X010331Y013465D01*
X010327Y013458D01*
X010315Y013412D01*
X010315Y013210D01*
X010752Y013210D01*
X010752Y013173D01*
X010315Y013173D01*
X010315Y013031D01*
X010314Y013030D01*
X010264Y012980D01*
X010264Y013452D01*
X010215Y013570D01*
X010125Y013660D01*
X010108Y013667D01*
X010112Y013674D01*
X010124Y013719D01*
X010124Y013921D01*
X009687Y013921D01*
X009687Y013958D01*
X010124Y013958D01*
X010124Y014160D01*
X010112Y014206D01*
X010088Y014247D01*
X010054Y014281D01*
X010013Y014304D01*
X009967Y014317D01*
X009687Y014317D01*
X009687Y013958D01*
X009650Y013958D01*
X009650Y014317D01*
X009369Y014317D01*
X009323Y014304D01*
X009282Y014281D01*
X009249Y014247D01*
X009225Y014206D01*
X009213Y014160D01*
X009213Y014053D01*
X009141Y014083D01*
X008463Y014083D01*
X008345Y014034D01*
X008255Y013944D01*
X008206Y013826D01*
X008206Y013493D01*
X007775Y013062D01*
X007368Y013224D01*
X006996Y013285D01*
X006996Y013403D01*
X007114Y013403D01*
X007231Y013452D01*
X007321Y013542D01*
X007370Y013660D01*
X007370Y014338D01*
X007321Y014456D01*
X007231Y014546D01*
X007114Y014594D01*
X006593Y014594D01*
X006475Y014546D01*
X006385Y014456D01*
X006378Y014439D01*
X006372Y014442D01*
X006326Y014454D01*
X006124Y014454D01*
X006124Y014017D01*
X006087Y014017D01*
X006087Y013980D01*
X005848Y013980D01*
X005780Y014009D01*
X005604Y014009D01*
X005441Y013941D01*
X005316Y013817D01*
X005249Y013654D01*
X005249Y013478D01*
X005316Y013315D01*
X005441Y013190D01*
X005481Y013174D01*
X005249Y013109D01*
X005175Y013070D01*
X004752Y013493D01*
X004752Y013826D01*
X004703Y013944D01*
X004613Y014034D01*
X004496Y014083D01*
X004152Y014083D01*
X004099Y014210D01*
X003974Y014335D01*
X003811Y014403D01*
X003753Y014403D01*
X003747Y014408D01*
X003629Y014457D01*
X002951Y014457D01*
X002833Y014408D01*
X002743Y014318D01*
X002695Y014200D01*
X002695Y013679D01*
X002743Y013562D01*
X002833Y013472D01*
X002851Y013465D01*
X002847Y013458D01*
X002835Y013412D01*
X002835Y013210D01*
X003272Y013210D01*
X003272Y013173D01*
X002835Y013173D01*
X002835Y013031D01*
X002833Y013030D01*
X002743Y012940D01*
X002695Y012822D01*
X002695Y012301D01*
X002743Y012184D01*
X002833Y012094D01*
X002851Y012087D01*
X002847Y012080D01*
X002835Y012034D01*
X002835Y011832D01*
X003272Y011832D01*
X003272Y011795D01*
X002835Y011795D01*
X002835Y011653D01*
X002833Y011652D01*
X002743Y011562D01*
X002695Y011444D01*
X002695Y010923D01*
X002743Y010806D01*
X002833Y010716D01*
X002851Y010709D01*
X002847Y010702D01*
X002835Y010656D01*
X002835Y010454D01*
X003192Y010454D01*
X003184Y010417D01*
X002835Y010417D01*
X002835Y010275D01*
X002833Y010274D01*
X002743Y010184D01*
X002695Y010066D01*
X002695Y009545D01*
X002743Y009428D01*
X002833Y009338D01*
X002851Y009331D01*
X002847Y009324D01*
X002835Y009279D01*
X002835Y009076D01*
X003272Y009076D01*
X003272Y009040D01*
X002835Y009040D01*
X002835Y008897D01*
X002833Y008896D01*
X002743Y008806D01*
X002695Y008689D01*
X002695Y008168D01*
X002743Y008050D01*
X002830Y007963D01*
X002843Y007932D01*
X002835Y007901D01*
X002835Y007698D01*
X003272Y007698D01*
X003272Y007662D01*
X002835Y007662D01*
X002835Y007459D01*
X002847Y007414D01*
X002871Y007373D01*
X002904Y007339D01*
X002945Y007315D01*
X002991Y007303D01*
X003272Y007303D01*
X003272Y007662D01*
X003309Y007662D01*
X003309Y007303D01*
X003590Y007303D01*
X003635Y007315D01*
X003676Y007339D01*
X003710Y007373D01*
X003734Y007414D01*
X003746Y007459D01*
X003746Y007567D01*
X003817Y007537D01*
X004303Y007537D01*
X004615Y007272D01*
X005249Y006936D01*
X005249Y006936D01*
X005686Y006815D01*
X005686Y006793D01*
X005746Y006646D01*
X005859Y006534D01*
X006006Y006473D01*
X021444Y006473D01*
X021455Y005037D01*
X021390Y004972D01*
X021341Y004854D01*
X021341Y003427D01*
X021390Y003309D01*
X021480Y003219D01*
X021597Y003171D01*
X021547Y003192D02*
X019324Y003192D01*
X019319Y003033D02*
X019451Y003033D01*
X019592Y003323D02*
X019637Y003311D01*
X019841Y003311D01*
X019841Y004121D01*
X019481Y004121D01*
X019481Y003467D01*
X019493Y003421D01*
X019517Y003380D01*
X019551Y003347D01*
X019592Y003323D01*
X019547Y003350D02*
X019349Y003350D01*
X019381Y003509D02*
X019481Y003509D01*
X019481Y003667D02*
X019381Y003667D01*
X019381Y003826D02*
X019481Y003826D01*
X019481Y003984D02*
X019381Y003984D01*
X019381Y004143D02*
X019841Y004143D01*
X019841Y004161D02*
X019841Y004121D01*
X019881Y004121D01*
X019881Y004161D01*
X019841Y004161D01*
X019841Y004971D01*
X019637Y004971D01*
X019592Y004958D01*
X019551Y004935D01*
X019348Y004935D01*
X019381Y004777D02*
X019481Y004777D01*
X019481Y004814D02*
X019481Y004161D01*
X019841Y004161D01*
X019881Y004161D02*
X019881Y004971D01*
X020085Y004971D01*
X020131Y004958D01*
X020172Y004935D01*
X020205Y004901D01*
X020229Y004860D01*
X020241Y004814D01*
X020241Y004161D01*
X019881Y004161D01*
X019881Y004143D02*
X020841Y004143D01*
X020841Y004161D02*
X020841Y004121D01*
X020481Y004121D01*
X020481Y003467D01*
X020493Y003421D01*
X020517Y003380D01*
X020551Y003347D01*
X020592Y003323D01*
X020637Y003311D01*
X020841Y003311D01*
X020841Y004121D01*
X020881Y004121D01*
X020881Y004161D01*
X020841Y004161D01*
X020841Y004971D01*
X020637Y004971D01*
X020592Y004958D01*
X020551Y004935D01*
X020171Y004935D01*
X020241Y004777D02*
X020481Y004777D01*
X020481Y004814D02*
X020481Y004161D01*
X020841Y004161D01*
X020881Y004161D02*
X020881Y004971D01*
X021085Y004971D01*
X021131Y004958D01*
X021172Y004935D01*
X021205Y004901D01*
X021229Y004860D01*
X021241Y004814D01*
X021241Y004161D01*
X020881Y004161D01*
X020881Y004143D02*
X021341Y004143D01*
X021241Y004121D02*
X020881Y004121D01*
X020881Y003311D01*
X021085Y003311D01*
X021131Y003323D01*
X021172Y003347D01*
X021205Y003380D01*
X021229Y003421D01*
X021241Y003467D01*
X021241Y004121D01*
X021241Y003984D02*
X021341Y003984D01*
X021341Y003826D02*
X021241Y003826D01*
X021241Y003667D02*
X021341Y003667D01*
X021341Y003509D02*
X021241Y003509D01*
X021175Y003350D02*
X021373Y003350D01*
X020881Y003350D02*
X020841Y003350D01*
X020841Y003509D02*
X020881Y003509D01*
X020881Y003667D02*
X020841Y003667D01*
X020841Y003826D02*
X020881Y003826D01*
X020881Y003984D02*
X020841Y003984D01*
X020481Y003984D02*
X020241Y003984D01*
X020241Y004121D02*
X019881Y004121D01*
X019881Y003311D01*
X020085Y003311D01*
X020131Y003323D01*
X020172Y003347D01*
X020205Y003380D01*
X020229Y003421D01*
X020241Y003467D01*
X020241Y004121D01*
X020241Y004301D02*
X020481Y004301D01*
X020481Y004460D02*
X020241Y004460D01*
X020241Y004618D02*
X020481Y004618D01*
X020481Y004814D02*
X020493Y004860D01*
X020517Y004901D01*
X020551Y004935D01*
X020841Y004935D02*
X020881Y004935D01*
X020881Y004777D02*
X020841Y004777D01*
X020841Y004618D02*
X020881Y004618D01*
X020881Y004460D02*
X020841Y004460D01*
X020841Y004301D02*
X020881Y004301D01*
X021241Y004301D02*
X021341Y004301D01*
X021341Y004460D02*
X021241Y004460D01*
X021241Y004618D02*
X021341Y004618D01*
X021341Y004777D02*
X021241Y004777D01*
X021171Y004935D02*
X021375Y004935D01*
X021454Y005094D02*
X019166Y005094D01*
X019517Y004901D02*
X019493Y004860D01*
X019481Y004814D01*
X019517Y004901D02*
X019551Y004935D01*
X019841Y004935D02*
X019881Y004935D01*
X019881Y004777D02*
X019841Y004777D01*
X019841Y004618D02*
X019881Y004618D01*
X019881Y004460D02*
X019841Y004460D01*
X019841Y004301D02*
X019881Y004301D01*
X019481Y004301D02*
X019381Y004301D01*
X019381Y004460D02*
X019481Y004460D01*
X019481Y004618D02*
X019381Y004618D01*
X018375Y004935D02*
X018348Y004935D01*
X018166Y005094D02*
X018556Y005094D01*
X017556Y005094D02*
X015343Y005094D01*
X015343Y005252D02*
X021453Y005252D01*
X021452Y005411D02*
X015387Y005411D01*
X015471Y005569D02*
X021451Y005569D01*
X021450Y005728D02*
X015485Y005728D01*
X015441Y005886D02*
X021448Y005886D01*
X021447Y006045D02*
X015316Y006045D01*
X013566Y006873D02*
X019865Y006873D01*
X019865Y007916D01*
X019530Y007916D01*
X019471Y007857D01*
X019865Y007916D02*
X020259Y007916D01*
X020795Y007947D02*
X022128Y007947D01*
X022126Y007788D02*
X020795Y007788D01*
X020784Y007630D02*
X022126Y007630D01*
X022126Y007471D02*
X020679Y007471D01*
X020265Y007313D02*
X022247Y007313D01*
X022563Y007313D02*
X022600Y007313D01*
X022600Y007471D02*
X022563Y007471D01*
X022563Y007630D02*
X022600Y007630D01*
X023037Y007471D02*
X023672Y007471D01*
X023859Y007313D02*
X022916Y007313D01*
X021841Y006865D02*
X021834Y006873D01*
X025377Y006873D01*
X032857Y006873D01*
X032857Y007326D01*
X034140Y006821D02*
X034140Y006821D01*
X034180Y006837D02*
X039230Y006837D01*
X039230Y006679D02*
X033210Y006679D01*
X033431Y006705D02*
X033431Y006705D01*
X033050Y006520D02*
X039230Y006520D01*
X039230Y006362D02*
X022245Y006362D01*
X022246Y006203D02*
X039230Y006203D01*
X039230Y006045D02*
X035395Y006045D01*
X035520Y005886D02*
X039230Y005886D01*
X039230Y005728D02*
X035564Y005728D01*
X035550Y005569D02*
X039230Y005569D01*
X039230Y005411D02*
X035466Y005411D01*
X035421Y005252D02*
X039230Y005252D01*
X039230Y005094D02*
X035421Y005094D01*
X035403Y004935D02*
X039230Y004935D01*
X039230Y004777D02*
X035421Y004777D01*
X035421Y004618D02*
X039230Y004618D01*
X039230Y004460D02*
X035421Y004460D01*
X035402Y004301D02*
X039230Y004301D01*
X039230Y004143D02*
X035340Y004143D01*
X035216Y003984D02*
X039230Y003984D01*
X039230Y003826D02*
X035057Y003826D01*
X034999Y003667D02*
X039230Y003667D01*
X039230Y003509D02*
X034999Y003509D01*
X034956Y003350D02*
X039230Y003350D01*
X039230Y003192D02*
X034817Y003192D01*
X034659Y003033D02*
X039230Y003033D01*
X039230Y002875D02*
X034605Y002875D01*
X035194Y002558D02*
X037435Y002558D01*
X034826Y001617D02*
X034799Y001590D01*
X034343Y001590D01*
X032284Y002399D02*
X031266Y002399D01*
X031266Y002305D02*
X031266Y002527D01*
X031253Y002572D01*
X031230Y002613D01*
X031196Y002647D01*
X031155Y002671D01*
X031109Y002683D01*
X030907Y002683D01*
X030907Y002305D01*
X031266Y002305D01*
X031266Y002241D02*
X032161Y002241D01*
X032119Y002082D02*
X031290Y002082D01*
X031395Y001924D02*
X032135Y001924D01*
X032172Y001765D02*
X031406Y001765D01*
X031406Y001607D02*
X032172Y001607D01*
X030907Y002399D02*
X030870Y002399D01*
X030870Y002558D02*
X030907Y002558D01*
X030668Y002683D02*
X030668Y002683D01*
X030668Y002716D02*
X032798Y002716D01*
X033035Y002875D02*
X030668Y002875D01*
X030722Y003033D02*
X033237Y003033D01*
X033658Y003033D02*
X033865Y003033D01*
X033865Y002875D02*
X033830Y002875D01*
X033865Y003192D02*
X030880Y003192D01*
X031019Y003350D02*
X033929Y003350D01*
X035212Y003981D02*
X035212Y003981D01*
X032480Y003509D02*
X031062Y003509D01*
X031062Y003667D02*
X032313Y003667D01*
X032312Y003826D02*
X031120Y003826D01*
X031279Y003984D02*
X032312Y003984D01*
X032202Y004143D02*
X031403Y004143D01*
X031465Y004301D02*
X032084Y004301D01*
X032065Y004460D02*
X031484Y004460D01*
X031484Y004618D02*
X032065Y004618D01*
X032065Y004777D02*
X031484Y004777D01*
X031466Y004935D02*
X032083Y004935D01*
X032065Y005094D02*
X031484Y005094D01*
X031484Y005252D02*
X032065Y005252D01*
X032020Y005411D02*
X031529Y005411D01*
X031613Y005569D02*
X031936Y005569D01*
X031922Y005728D02*
X031627Y005728D01*
X031583Y005886D02*
X031966Y005886D01*
X032091Y006045D02*
X031458Y006045D01*
X031385Y007273D02*
X029477Y007273D01*
X029506Y007302D01*
X029555Y007419D01*
X029555Y007941D01*
X029506Y008058D01*
X029416Y008148D01*
X029399Y008155D01*
X029403Y008162D01*
X029415Y008207D01*
X029415Y008410D01*
X028978Y008410D01*
X028978Y008446D01*
X029415Y008446D01*
X029415Y008589D01*
X029416Y008590D01*
X029466Y008640D01*
X029466Y008168D01*
X029515Y008050D01*
X029602Y007963D01*
X029615Y007932D01*
X029606Y007901D01*
X029606Y007698D01*
X030043Y007698D01*
X030043Y007662D01*
X029606Y007662D01*
X029606Y007459D01*
X029619Y007414D01*
X029642Y007373D01*
X029676Y007339D01*
X029717Y007315D01*
X029763Y007303D01*
X030043Y007303D01*
X030043Y007662D01*
X030080Y007662D01*
X030080Y007303D01*
X030361Y007303D01*
X030407Y007315D01*
X030448Y007339D01*
X030482Y007373D01*
X030505Y007414D01*
X030517Y007459D01*
X030517Y007567D01*
X030589Y007537D01*
X031074Y007537D01*
X031385Y007273D01*
X031339Y007313D02*
X030396Y007313D01*
X030517Y007471D02*
X031152Y007471D01*
X030080Y007471D02*
X030043Y007471D01*
X030043Y007313D02*
X030080Y007313D01*
X029728Y007313D02*
X029511Y007313D01*
X029555Y007471D02*
X029606Y007471D01*
X029606Y007630D02*
X029555Y007630D01*
X029555Y007788D02*
X029606Y007788D01*
X029609Y007947D02*
X029553Y007947D01*
X029492Y008105D02*
X029460Y008105D01*
X029466Y008264D02*
X029415Y008264D01*
X029466Y008422D02*
X028978Y008422D01*
X029415Y008581D02*
X029466Y008581D01*
X029511Y008448D02*
X029511Y009038D01*
X029511Y009826D01*
X029491Y009806D01*
X029511Y009826D02*
X029511Y010416D01*
X029530Y010436D01*
X029511Y010416D02*
X029511Y012582D01*
X029511Y013172D01*
X029555Y013177D02*
X030043Y013177D01*
X029606Y013336D02*
X029555Y013336D01*
X029538Y013494D02*
X029583Y013494D01*
X029477Y013653D02*
X029424Y013653D01*
X029415Y013811D02*
X029466Y013811D01*
X029466Y013970D02*
X029415Y013970D01*
X029415Y014128D02*
X029466Y014128D01*
X029502Y014287D02*
X029336Y014287D01*
X028978Y014287D02*
X028941Y014287D01*
X028941Y014128D02*
X028978Y014128D01*
X028978Y013970D02*
X028941Y013970D01*
X028504Y014128D02*
X026661Y014128D01*
X026661Y013970D02*
X027572Y013970D01*
X027498Y013811D02*
X026661Y013811D01*
X026658Y013653D02*
X027498Y013653D01*
X027498Y013494D02*
X026565Y013494D01*
X026659Y013224D02*
X026659Y013224D01*
X026778Y013177D02*
X027181Y013177D01*
X027340Y013336D02*
X026287Y013336D01*
X025378Y014017D02*
X025020Y014017D01*
X025020Y014298D01*
X025032Y014344D01*
X025056Y014385D01*
X025089Y014419D01*
X025130Y014442D01*
X025176Y014454D01*
X025378Y014454D01*
X025378Y014017D01*
X025378Y014128D02*
X025415Y014128D01*
X025415Y014287D02*
X025378Y014287D01*
X025378Y014445D02*
X025415Y014445D01*
X025652Y014445D02*
X025672Y014445D01*
X025141Y014445D02*
X022949Y014445D01*
X023314Y014287D02*
X025020Y014287D01*
X025020Y014128D02*
X023424Y014128D01*
X023969Y013970D02*
X024800Y013970D01*
X024605Y013811D02*
X024043Y013811D01*
X024043Y013653D02*
X024540Y013653D01*
X024540Y013494D02*
X024043Y013494D01*
X024201Y013336D02*
X024599Y013336D01*
X024764Y013177D02*
X024360Y013177D01*
X022563Y013177D02*
X021535Y013177D01*
X021543Y013019D02*
X022113Y013019D01*
X022002Y012860D02*
X021543Y012860D01*
X021543Y012702D02*
X021986Y012702D01*
X021986Y012543D02*
X021578Y012543D01*
X021613Y012385D02*
X021986Y012385D01*
X022017Y012226D02*
X021625Y012226D01*
X021686Y012068D02*
X022135Y012068D01*
X022126Y011909D02*
X021686Y011909D01*
X021623Y011751D02*
X022126Y011751D01*
X022065Y011592D02*
X021437Y011592D01*
X021059Y011434D02*
X021986Y011434D01*
X021986Y011275D02*
X021012Y011275D01*
X020906Y011117D02*
X021986Y011117D01*
X021986Y010958D02*
X020747Y010958D01*
X020830Y010800D02*
X022041Y010800D01*
X022126Y010641D02*
X020859Y010641D01*
X020859Y010483D02*
X022126Y010483D01*
X022126Y010324D02*
X020859Y010324D01*
X020750Y010166D02*
X022027Y010166D01*
X021986Y010007D02*
X020623Y010007D01*
X020781Y009849D02*
X021986Y009849D01*
X021986Y009690D02*
X020859Y009690D01*
X020859Y009532D02*
X021992Y009532D01*
X022090Y009373D02*
X020859Y009373D01*
X020799Y009215D02*
X022126Y009215D01*
X022563Y009056D02*
X020651Y009056D01*
X020774Y008898D02*
X022126Y008898D01*
X022007Y008739D02*
X020795Y008739D01*
X020795Y008581D02*
X021986Y008581D01*
X021986Y008422D02*
X020795Y008422D01*
X020770Y008264D02*
X021986Y008264D01*
X022012Y008105D02*
X020795Y008105D01*
X019465Y007313D02*
X017700Y007313D01*
X017744Y007471D02*
X019051Y007471D01*
X018946Y007630D02*
X017744Y007630D01*
X017744Y007788D02*
X018935Y007788D01*
X018935Y007947D02*
X017742Y007947D01*
X017648Y008105D02*
X018935Y008105D01*
X018960Y008264D02*
X017604Y008264D01*
X017167Y008422D02*
X018935Y008422D01*
X018935Y008581D02*
X017604Y008581D01*
X017720Y008739D02*
X018935Y008739D01*
X018956Y008898D02*
X017744Y008898D01*
X017744Y009056D02*
X019079Y009056D01*
X018931Y009215D02*
X017744Y009215D01*
X017721Y009373D02*
X018871Y009373D01*
X018871Y009532D02*
X017592Y009532D01*
X017604Y009690D02*
X018871Y009690D01*
X018949Y009849D02*
X017604Y009849D01*
X017645Y010007D02*
X019107Y010007D01*
X018980Y010166D02*
X017740Y010166D01*
X017744Y010324D02*
X018871Y010324D01*
X018871Y010483D02*
X017744Y010483D01*
X017744Y010641D02*
X018871Y010641D01*
X018900Y010800D02*
X017701Y010800D01*
X017603Y010958D02*
X018983Y010958D01*
X018824Y011117D02*
X017604Y011117D01*
X017604Y011275D02*
X018718Y011275D01*
X018671Y011434D02*
X017693Y011434D01*
X017744Y011592D02*
X018569Y011592D01*
X018561Y011751D02*
X017744Y011751D01*
X017744Y011909D02*
X018561Y011909D01*
X018561Y012068D02*
X017744Y012068D01*
X017661Y012226D02*
X018561Y012226D01*
X018420Y012385D02*
X017604Y012385D01*
X017604Y012543D02*
X017167Y012543D01*
X017167Y012580D01*
X017604Y012580D01*
X017604Y012723D01*
X017715Y012860D02*
X018327Y012860D01*
X018327Y012836D02*
X018685Y012836D01*
X018685Y013273D01*
X018483Y013273D01*
X018437Y013261D01*
X018396Y013237D01*
X018363Y013204D01*
X018339Y013163D01*
X018327Y013117D01*
X018327Y012836D01*
X018685Y012860D02*
X018722Y012860D01*
X018722Y013019D02*
X018685Y013019D01*
X018685Y013177D02*
X018722Y013177D01*
X019044Y013336D02*
X017744Y013336D01*
X017727Y013494D02*
X022102Y013494D01*
X022126Y013336D02*
X021434Y013336D01*
X021997Y013653D02*
X017613Y013653D01*
X017604Y013811D02*
X021986Y013811D01*
X021986Y013970D02*
X017604Y013970D01*
X017604Y014128D02*
X021986Y014128D01*
X022022Y014287D02*
X017525Y014287D01*
X017167Y014287D02*
X017130Y014287D01*
X017130Y014128D02*
X017167Y014128D01*
X017167Y013970D02*
X017130Y013970D01*
X016693Y014128D02*
X014850Y014128D01*
X014850Y013970D02*
X015761Y013970D01*
X015687Y013811D02*
X014850Y013811D01*
X014847Y013653D02*
X015687Y013653D01*
X015687Y013494D02*
X014754Y013494D01*
X014848Y013224D02*
X014848Y013224D01*
X014967Y013177D02*
X015370Y013177D01*
X015529Y013336D02*
X014476Y013336D01*
X013567Y014017D02*
X013567Y014454D01*
X013365Y014454D01*
X013319Y014442D01*
X013278Y014419D01*
X013245Y014385D01*
X013221Y014344D01*
X013209Y014298D01*
X013209Y014017D01*
X013567Y014017D01*
X013567Y014128D02*
X013604Y014128D01*
X013604Y014287D02*
X013567Y014287D01*
X013567Y014445D02*
X013604Y014445D01*
X013841Y014445D02*
X013861Y014445D01*
X013330Y014445D02*
X011138Y014445D01*
X011503Y014287D02*
X013209Y014287D01*
X013209Y014128D02*
X011613Y014128D01*
X012158Y013970D02*
X012989Y013970D01*
X012794Y013811D02*
X012232Y013811D01*
X012232Y013653D02*
X012729Y013653D01*
X012729Y013494D02*
X012232Y013494D01*
X012390Y013336D02*
X012788Y013336D01*
X012953Y013177D02*
X012549Y013177D01*
X010752Y013177D02*
X010264Y013177D01*
X010239Y013192D02*
X010219Y013172D01*
X010239Y014334D01*
X010239Y013192D01*
X010219Y013172D02*
X010219Y012582D01*
X010200Y012562D01*
X010219Y012582D02*
X010219Y010416D01*
X010239Y010436D01*
X010219Y010416D02*
X010219Y009826D01*
X010200Y009806D01*
X010219Y009826D02*
X010219Y009038D01*
X010239Y009058D01*
X010264Y009056D02*
X010752Y009056D01*
X010752Y009040D02*
X010315Y009040D01*
X010315Y008897D01*
X010314Y008896D01*
X010264Y008846D01*
X010264Y009318D01*
X010215Y009436D01*
X010125Y009526D01*
X010108Y009533D01*
X010112Y009540D01*
X010124Y009585D01*
X010124Y009788D01*
X009776Y009788D01*
X009780Y009824D01*
X010124Y009824D01*
X010124Y009967D01*
X010125Y009968D01*
X010175Y010018D01*
X010175Y009545D01*
X010224Y009428D01*
X010314Y009338D01*
X010331Y009331D01*
X010327Y009324D01*
X010315Y009279D01*
X010315Y009076D01*
X010752Y009076D01*
X010752Y009040D01*
X010315Y008898D02*
X010264Y008898D01*
X010219Y009038D02*
X010219Y008448D01*
X010200Y008428D01*
X010175Y008422D02*
X009687Y008422D01*
X009687Y008410D02*
X009687Y008446D01*
X010124Y008446D01*
X010124Y008589D01*
X010125Y008590D01*
X010175Y008640D01*
X010175Y008168D01*
X010224Y008050D01*
X010310Y007963D01*
X010323Y007932D01*
X010315Y007901D01*
X010315Y007698D01*
X010752Y007698D01*
X010752Y007662D01*
X010315Y007662D01*
X010315Y007459D01*
X010327Y007414D01*
X010351Y007373D01*
X010384Y007339D01*
X010425Y007315D01*
X010471Y007303D01*
X010752Y007303D01*
X010752Y007662D01*
X010789Y007662D01*
X010789Y007303D01*
X011070Y007303D01*
X011116Y007315D01*
X011157Y007339D01*
X011190Y007373D01*
X011214Y007414D01*
X011226Y007459D01*
X011226Y007567D01*
X011297Y007537D01*
X011783Y007537D01*
X012094Y007273D01*
X010186Y007273D01*
X010215Y007302D01*
X010264Y007419D01*
X010264Y007941D01*
X010215Y008058D01*
X010125Y008148D01*
X010108Y008155D01*
X010112Y008162D01*
X010124Y008207D01*
X010124Y008410D01*
X009687Y008410D01*
X010124Y008264D02*
X010175Y008264D01*
X010219Y008251D02*
X010219Y008448D01*
X010175Y008581D02*
X010124Y008581D01*
X010168Y008105D02*
X010201Y008105D01*
X010261Y007947D02*
X010317Y007947D01*
X010315Y007788D02*
X010264Y007788D01*
X010264Y007630D02*
X010315Y007630D01*
X010315Y007471D02*
X010264Y007471D01*
X010219Y007313D02*
X010436Y007313D01*
X010752Y007313D02*
X010789Y007313D01*
X010789Y007471D02*
X010752Y007471D01*
X010752Y007630D02*
X010789Y007630D01*
X011226Y007471D02*
X011861Y007471D01*
X012048Y007313D02*
X011105Y007313D01*
X013566Y007326D02*
X013566Y006873D01*
X006086Y006873D01*
X006086Y007326D01*
X005605Y006837D02*
X000500Y006837D01*
X000500Y006679D02*
X005733Y006679D01*
X005892Y006520D02*
X000500Y006520D01*
X000500Y006362D02*
X021445Y006362D01*
X021446Y006203D02*
X000500Y006203D01*
X000500Y006045D02*
X004926Y006045D01*
X004801Y005886D02*
X000500Y005886D01*
X000500Y005728D02*
X004757Y005728D01*
X004157Y005569D02*
X000500Y005569D01*
X000500Y005411D02*
X004112Y005411D01*
X004112Y005252D02*
X000500Y005252D01*
X000500Y005094D02*
X004112Y005094D01*
X004130Y004935D02*
X000500Y004935D01*
X000500Y004777D02*
X004112Y004777D01*
X004112Y004618D02*
X000500Y004618D01*
X000500Y004460D02*
X004112Y004460D01*
X004132Y004301D02*
X000500Y004301D01*
X000500Y004143D02*
X004249Y004143D01*
X004359Y003984D02*
X000500Y003984D01*
X000500Y003826D02*
X004359Y003826D01*
X004360Y003667D02*
X000500Y003667D01*
X000500Y003509D02*
X004527Y003509D01*
X005082Y002875D02*
X000500Y002875D01*
X000500Y003033D02*
X005285Y003033D01*
X005705Y003033D02*
X005912Y003033D01*
X005912Y002875D02*
X005878Y002875D01*
X005912Y003192D02*
X000500Y003192D01*
X000500Y003350D02*
X005976Y003350D01*
X006706Y003033D02*
X009222Y003033D01*
X009019Y002875D02*
X006652Y002875D01*
X006652Y002716D02*
X008782Y002716D01*
X008526Y002558D02*
X007241Y002558D01*
X007237Y002572D02*
X007214Y002613D01*
X007180Y002647D01*
X007139Y002671D01*
X007093Y002683D01*
X006891Y002683D01*
X006891Y002305D01*
X007250Y002305D01*
X007250Y002527D01*
X007237Y002572D01*
X007250Y002399D02*
X008269Y002399D01*
X008146Y002241D02*
X007250Y002241D01*
X007274Y002082D02*
X008103Y002082D01*
X008119Y001924D02*
X007379Y001924D01*
X007390Y001765D02*
X008156Y001765D01*
X008156Y001607D02*
X007390Y001607D01*
X006873Y001617D02*
X006873Y001164D01*
X008841Y001164D01*
X010786Y001164D01*
X010810Y001188D01*
X010810Y001617D01*
X010783Y001590D01*
X010328Y001590D01*
X010786Y001164D02*
X010810Y001164D01*
X012778Y001164D01*
X019865Y001164D01*
X021881Y002161D02*
X021881Y002971D01*
X022085Y002971D01*
X022131Y002958D01*
X022172Y002935D01*
X022205Y002901D01*
X022229Y002860D01*
X022241Y002814D01*
X022241Y002161D01*
X021881Y002161D01*
X021881Y002241D02*
X021841Y002241D01*
X021841Y002399D02*
X021881Y002399D01*
X021881Y002558D02*
X021841Y002558D01*
X021841Y002716D02*
X021881Y002716D01*
X021881Y002875D02*
X021841Y002875D01*
X022221Y002875D02*
X025161Y002875D01*
X025363Y003033D02*
X020271Y003033D01*
X020373Y002875D02*
X020502Y002875D01*
X020481Y002716D02*
X020381Y002716D01*
X020381Y002558D02*
X020481Y002558D01*
X020481Y002399D02*
X020381Y002399D01*
X020381Y002241D02*
X020481Y002241D01*
X020841Y002241D02*
X020881Y002241D01*
X020881Y002399D02*
X020841Y002399D01*
X020841Y002558D02*
X020881Y002558D01*
X020881Y002716D02*
X020841Y002716D01*
X020841Y002875D02*
X020881Y002875D01*
X020547Y003350D02*
X020175Y003350D01*
X020241Y003509D02*
X020481Y003509D01*
X020481Y003667D02*
X020241Y003667D01*
X020241Y003826D02*
X020481Y003826D01*
X019881Y003826D02*
X019841Y003826D01*
X019841Y003984D02*
X019881Y003984D01*
X019881Y003667D02*
X019841Y003667D01*
X019841Y003509D02*
X019881Y003509D01*
X019881Y003350D02*
X019841Y003350D01*
X021861Y004141D02*
X021841Y006865D01*
X021834Y006873D02*
X019865Y006873D01*
X022247Y006045D02*
X024217Y006045D01*
X024092Y005886D02*
X022249Y005886D01*
X022250Y005728D02*
X024048Y005728D01*
X024062Y005569D02*
X022251Y005569D01*
X022252Y005411D02*
X024146Y005411D01*
X024191Y005252D02*
X022253Y005252D01*
X022254Y005094D02*
X024191Y005094D01*
X024209Y004935D02*
X022348Y004935D01*
X022381Y004777D02*
X024191Y004777D01*
X024191Y004618D02*
X022381Y004618D01*
X022381Y004460D02*
X024191Y004460D01*
X024210Y004301D02*
X022381Y004301D01*
X022381Y004143D02*
X024328Y004143D01*
X024438Y003984D02*
X022381Y003984D01*
X022381Y003826D02*
X024438Y003826D01*
X024439Y003667D02*
X022381Y003667D01*
X022381Y003509D02*
X024606Y003509D01*
X025784Y003033D02*
X025991Y003033D01*
X025991Y002875D02*
X025956Y002875D01*
X025991Y003192D02*
X022175Y003192D01*
X022349Y003350D02*
X026055Y003350D01*
X026785Y003033D02*
X029300Y003033D01*
X029098Y002875D02*
X026731Y002875D01*
X026731Y002716D02*
X028861Y002716D01*
X028604Y002558D02*
X027320Y002558D01*
X027316Y002572D02*
X027293Y002613D01*
X027259Y002647D01*
X027218Y002671D01*
X027172Y002683D01*
X026970Y002683D01*
X026970Y002305D01*
X027329Y002305D01*
X027329Y002527D01*
X027316Y002572D01*
X027329Y002399D02*
X028347Y002399D01*
X028224Y002241D02*
X027329Y002241D01*
X027353Y002082D02*
X028182Y002082D01*
X028198Y001924D02*
X027458Y001924D01*
X027469Y001765D02*
X028235Y001765D01*
X028235Y001607D02*
X027469Y001607D01*
X026970Y002399D02*
X026933Y002399D01*
X026933Y002558D02*
X026970Y002558D01*
X026731Y002683D02*
X026731Y002683D01*
X026943Y003192D02*
X029928Y003192D01*
X029928Y003033D02*
X029721Y003033D01*
X029893Y002875D02*
X029928Y002875D01*
X029992Y003350D02*
X027082Y003350D01*
X027125Y003509D02*
X028543Y003509D01*
X028376Y003667D02*
X027125Y003667D01*
X027183Y003826D02*
X028375Y003826D01*
X028375Y003984D02*
X027342Y003984D01*
X027466Y004143D02*
X028265Y004143D01*
X028147Y004301D02*
X027528Y004301D01*
X027547Y004460D02*
X028128Y004460D01*
X028128Y004618D02*
X027547Y004618D01*
X027547Y004777D02*
X028128Y004777D01*
X028146Y004935D02*
X027529Y004935D01*
X027547Y005094D02*
X028128Y005094D01*
X028128Y005252D02*
X027547Y005252D01*
X027592Y005411D02*
X028083Y005411D01*
X027999Y005569D02*
X027676Y005569D01*
X027690Y005728D02*
X027985Y005728D01*
X028029Y005886D02*
X027646Y005886D01*
X027521Y006045D02*
X028154Y006045D01*
X025377Y006873D02*
X025377Y007326D01*
X029491Y008428D02*
X029511Y008448D01*
X029555Y008846D02*
X029555Y009318D01*
X029506Y009436D01*
X029416Y009526D01*
X029399Y009533D01*
X029403Y009540D01*
X029415Y009585D01*
X029415Y009788D01*
X029068Y009788D01*
X029072Y009824D01*
X029415Y009824D01*
X029415Y009967D01*
X029416Y009968D01*
X029466Y010018D01*
X029466Y009545D01*
X029515Y009428D01*
X029605Y009338D01*
X029622Y009331D01*
X029619Y009324D01*
X029606Y009279D01*
X029606Y009076D01*
X030043Y009076D01*
X030043Y009040D01*
X029606Y009040D01*
X029606Y008897D01*
X029605Y008896D01*
X029555Y008846D01*
X029555Y008898D02*
X029606Y008898D01*
X029555Y009056D02*
X030043Y009056D01*
X029606Y009215D02*
X029555Y009215D01*
X029570Y009373D02*
X029533Y009373D01*
X029472Y009532D02*
X029403Y009532D01*
X029415Y009690D02*
X029466Y009690D01*
X029466Y009849D02*
X029415Y009849D01*
X029456Y010007D02*
X029466Y010007D01*
X029555Y010224D02*
X029555Y010696D01*
X029506Y010814D01*
X029416Y010904D01*
X029399Y010911D01*
X029403Y010918D01*
X029415Y010963D01*
X029415Y011166D01*
X028978Y011166D01*
X028978Y011202D01*
X029415Y011202D01*
X029415Y011345D01*
X029416Y011346D01*
X029466Y011396D01*
X029466Y010923D01*
X029515Y010806D01*
X029605Y010716D01*
X029622Y010709D01*
X029619Y010702D01*
X029606Y010656D01*
X029606Y010454D01*
X029964Y010454D01*
X029955Y010417D01*
X029606Y010417D01*
X029606Y010275D01*
X029605Y010274D01*
X029555Y010224D01*
X029555Y010324D02*
X029606Y010324D01*
X029606Y010483D02*
X029555Y010483D01*
X029555Y010641D02*
X029606Y010641D01*
X029521Y010800D02*
X029512Y010800D01*
X029466Y010958D02*
X029414Y010958D01*
X029415Y011117D02*
X029466Y011117D01*
X029466Y011275D02*
X029415Y011275D01*
X029555Y011602D02*
X029555Y012074D01*
X029506Y012192D01*
X029416Y012282D01*
X029399Y012289D01*
X029403Y012296D01*
X029415Y012341D01*
X029415Y012543D01*
X029466Y012543D01*
X029415Y012543D02*
X028978Y012543D01*
X028978Y012580D01*
X029415Y012580D01*
X029415Y012723D01*
X029416Y012724D01*
X029466Y012774D01*
X029466Y012301D01*
X029515Y012184D01*
X029605Y012094D01*
X029622Y012087D01*
X029619Y012080D01*
X029606Y012034D01*
X029606Y011832D01*
X030043Y011832D01*
X030043Y011795D01*
X029606Y011795D01*
X029606Y011653D01*
X029605Y011652D01*
X029555Y011602D01*
X029555Y011751D02*
X029606Y011751D01*
X029606Y011909D02*
X029555Y011909D01*
X029555Y012068D02*
X029615Y012068D01*
X029498Y012226D02*
X029472Y012226D01*
X029466Y012385D02*
X029415Y012385D01*
X029415Y012702D02*
X029466Y012702D01*
X029555Y013019D02*
X029594Y013019D01*
X031524Y013494D02*
X032020Y013494D01*
X032020Y013653D02*
X031524Y013653D01*
X031524Y013811D02*
X032086Y013811D01*
X032280Y013970D02*
X031449Y013970D01*
X030905Y014128D02*
X032500Y014128D01*
X032500Y014017D02*
X032858Y014017D01*
X032858Y014454D01*
X032656Y014454D01*
X032611Y014442D01*
X032569Y014419D01*
X032536Y014385D01*
X032512Y014344D01*
X032500Y014298D01*
X032500Y014017D01*
X032858Y014128D02*
X032895Y014128D01*
X032895Y014287D02*
X032858Y014287D01*
X032858Y014445D02*
X032895Y014445D01*
X033133Y014445D02*
X033152Y014445D01*
X032621Y014445D02*
X030429Y014445D01*
X030794Y014287D02*
X032500Y014287D01*
X034097Y014445D02*
X037327Y014445D01*
X037437Y014335D02*
X037170Y014603D01*
X037025Y014952D01*
X037025Y015330D01*
X037170Y015679D01*
X037437Y015946D01*
X037786Y016091D01*
X038164Y016091D01*
X038513Y015946D01*
X038781Y015679D01*
X038925Y015330D01*
X038925Y014952D01*
X038781Y014603D01*
X038781Y014604D02*
X039230Y014604D01*
X039230Y014762D02*
X038847Y014762D01*
X038912Y014921D02*
X039230Y014921D01*
X039230Y015079D02*
X038925Y015079D01*
X038925Y015238D02*
X039224Y015238D01*
X039195Y015396D02*
X038898Y015396D01*
X038832Y015555D02*
X039152Y015555D01*
X039081Y015713D02*
X038746Y015713D01*
X038588Y015872D02*
X038990Y015872D01*
X038845Y016030D02*
X038310Y016030D01*
X038648Y016189D02*
X001082Y016189D01*
X000885Y016030D02*
X001420Y016030D01*
X001566Y016091D02*
X001217Y015946D01*
X000949Y015679D01*
X000805Y015330D01*
X000805Y014952D01*
X000949Y014603D01*
X000949Y014604D02*
X000500Y014604D01*
X000500Y014762D02*
X000883Y014762D01*
X000818Y014921D02*
X000500Y014921D01*
X000500Y015079D02*
X000805Y015079D01*
X000805Y015238D02*
X000506Y015238D01*
X000535Y015396D02*
X000832Y015396D01*
X000898Y015555D02*
X000578Y015555D01*
X000649Y015713D02*
X000984Y015713D01*
X001142Y015872D02*
X000740Y015872D01*
X001566Y016091D02*
X001944Y016091D01*
X002293Y015946D01*
X002560Y015679D01*
X002705Y015330D01*
X002705Y014952D01*
X002560Y014603D01*
X002293Y014335D01*
X001944Y014191D01*
X001566Y014191D01*
X001217Y014335D01*
X000949Y014603D01*
X001107Y014445D02*
X000500Y014445D01*
X000500Y014287D02*
X001335Y014287D01*
X002175Y014287D02*
X002730Y014287D01*
X002695Y014128D02*
X000500Y014128D01*
X000500Y013970D02*
X002695Y013970D01*
X002695Y013811D02*
X000500Y013811D01*
X000500Y013653D02*
X002706Y013653D01*
X002811Y013494D02*
X000500Y013494D01*
X000500Y013336D02*
X002835Y013336D01*
X002822Y013019D02*
X000500Y013019D01*
X000500Y013177D02*
X003272Y013177D01*
X002710Y012860D02*
X000500Y012860D01*
X000500Y012702D02*
X002695Y012702D01*
X002695Y012543D02*
X000500Y012543D01*
X000500Y012385D02*
X002695Y012385D01*
X002726Y012226D02*
X000500Y012226D01*
X000500Y012068D02*
X002844Y012068D01*
X002835Y011909D02*
X000500Y011909D01*
X000500Y011751D02*
X002835Y011751D01*
X002773Y011592D02*
X000500Y011592D01*
X000500Y011434D02*
X002695Y011434D01*
X002695Y011275D02*
X000500Y011275D01*
X000500Y011117D02*
X002695Y011117D01*
X002695Y010958D02*
X000500Y010958D01*
X000500Y010800D02*
X002750Y010800D01*
X002835Y010641D02*
X000500Y010641D01*
X000500Y010483D02*
X002835Y010483D01*
X002835Y010324D02*
X000500Y010324D01*
X000500Y010166D02*
X002736Y010166D01*
X002695Y010007D02*
X000500Y010007D01*
X000500Y009849D02*
X002695Y009849D01*
X002695Y009690D02*
X000500Y009690D01*
X000500Y009532D02*
X002700Y009532D01*
X002798Y009373D02*
X000500Y009373D01*
X000500Y009215D02*
X002835Y009215D01*
X003272Y009056D02*
X000500Y009056D01*
X000500Y008898D02*
X002835Y008898D01*
X002716Y008739D02*
X000500Y008739D01*
X000500Y008581D02*
X002695Y008581D01*
X002695Y008422D02*
X000500Y008422D01*
X000500Y008264D02*
X002695Y008264D01*
X002721Y008105D02*
X000500Y008105D01*
X000500Y007947D02*
X002837Y007947D01*
X002835Y007788D02*
X000500Y007788D01*
X000500Y007630D02*
X002835Y007630D01*
X002835Y007471D02*
X000500Y007471D01*
X000500Y007313D02*
X002956Y007313D01*
X003272Y007313D02*
X003309Y007313D01*
X003309Y007471D02*
X003272Y007471D01*
X003272Y007630D02*
X003309Y007630D01*
X003746Y007471D02*
X004381Y007471D01*
X004567Y007313D02*
X003624Y007313D01*
X004615Y007272D02*
X004615Y007272D01*
X004838Y007154D02*
X000500Y007154D01*
X000500Y006996D02*
X005137Y006996D01*
X007442Y006045D02*
X008076Y006045D01*
X007950Y005886D02*
X007567Y005886D01*
X007611Y005728D02*
X007906Y005728D01*
X007921Y005569D02*
X007597Y005569D01*
X007513Y005411D02*
X008004Y005411D01*
X008049Y005252D02*
X007469Y005252D01*
X007469Y005094D02*
X008049Y005094D01*
X008067Y004935D02*
X007450Y004935D01*
X007469Y004777D02*
X008049Y004777D01*
X008049Y004618D02*
X007469Y004618D01*
X007469Y004460D02*
X008049Y004460D01*
X008069Y004301D02*
X007449Y004301D01*
X007388Y004143D02*
X008186Y004143D01*
X008296Y003984D02*
X007263Y003984D01*
X007105Y003826D02*
X008296Y003826D01*
X008297Y003667D02*
X007046Y003667D01*
X007046Y003509D02*
X008464Y003509D01*
X009642Y003033D02*
X009849Y003033D01*
X009849Y002875D02*
X009815Y002875D01*
X009849Y003192D02*
X006864Y003192D01*
X007003Y003350D02*
X009913Y003350D01*
X010643Y003033D02*
X013159Y003033D01*
X012956Y002875D02*
X010589Y002875D01*
X010589Y002716D02*
X012719Y002716D01*
X012463Y002558D02*
X011178Y002558D01*
X011175Y002572D02*
X011151Y002613D01*
X011117Y002647D01*
X011076Y002671D01*
X011030Y002683D01*
X010828Y002683D01*
X010828Y002305D01*
X011187Y002305D01*
X011187Y002527D01*
X011175Y002572D01*
X011187Y002399D02*
X012206Y002399D01*
X012083Y002241D02*
X011187Y002241D01*
X011211Y002082D02*
X012040Y002082D01*
X012056Y001924D02*
X011316Y001924D01*
X011327Y001765D02*
X012093Y001765D01*
X012093Y001607D02*
X011327Y001607D01*
X010828Y002399D02*
X010791Y002399D01*
X010791Y002558D02*
X010828Y002558D01*
X010589Y002683D02*
X010589Y002683D01*
X010801Y003192D02*
X013786Y003192D01*
X013786Y003033D02*
X013579Y003033D01*
X013752Y002875D02*
X013786Y002875D01*
X013850Y003350D02*
X010940Y003350D01*
X010983Y003509D02*
X012401Y003509D01*
X012234Y003667D02*
X010983Y003667D01*
X011042Y003826D02*
X012233Y003826D01*
X012233Y003984D02*
X011200Y003984D01*
X011325Y004143D02*
X012123Y004143D01*
X012006Y004301D02*
X011386Y004301D01*
X011406Y004460D02*
X011986Y004460D01*
X011986Y004618D02*
X011406Y004618D01*
X011406Y004777D02*
X011986Y004777D01*
X012004Y004935D02*
X011387Y004935D01*
X011406Y005094D02*
X011986Y005094D01*
X011986Y005252D02*
X011406Y005252D01*
X011450Y005411D02*
X011941Y005411D01*
X011858Y005569D02*
X011534Y005569D01*
X011548Y005728D02*
X011843Y005728D01*
X011887Y005886D02*
X011504Y005886D01*
X011379Y006045D02*
X012013Y006045D01*
X015324Y004935D02*
X017375Y004935D01*
X017341Y004777D02*
X015343Y004777D01*
X015343Y004618D02*
X017341Y004618D01*
X017341Y004460D02*
X015343Y004460D01*
X015323Y004301D02*
X017341Y004301D01*
X017341Y004143D02*
X015262Y004143D01*
X015137Y003984D02*
X017341Y003984D01*
X017341Y003826D02*
X014979Y003826D01*
X014920Y003667D02*
X017341Y003667D01*
X017341Y003509D02*
X014920Y003509D01*
X014877Y003350D02*
X017289Y003350D01*
X017133Y003192D02*
X014738Y003192D01*
X014580Y003033D02*
X016875Y003033D01*
X016784Y002875D02*
X014526Y002875D01*
X014526Y002716D02*
X016765Y002716D01*
X016803Y002558D02*
X015115Y002558D01*
X015112Y002572D02*
X015088Y002613D01*
X015054Y002647D01*
X015013Y002671D01*
X014967Y002683D01*
X014765Y002683D01*
X014765Y002305D01*
X015124Y002305D01*
X015124Y002527D01*
X015112Y002572D01*
X015124Y002399D02*
X016921Y002399D01*
X017009Y002241D02*
X015124Y002241D01*
X015148Y002082D02*
X017140Y002082D01*
X017341Y001924D02*
X015253Y001924D01*
X015264Y001765D02*
X017341Y001765D01*
X017341Y001607D02*
X015264Y001607D01*
X014747Y001617D02*
X014720Y001590D01*
X014265Y001590D01*
X014747Y001617D02*
X014747Y001188D01*
X014729Y002399D02*
X014765Y002399D01*
X014765Y002558D02*
X014729Y002558D01*
X014526Y002683D02*
X014526Y002683D01*
X006891Y002558D02*
X006854Y002558D01*
X006854Y002399D02*
X006891Y002399D01*
X006652Y002683D02*
X006652Y002683D01*
X004845Y002716D02*
X000500Y002716D01*
X000500Y002558D02*
X001214Y002558D01*
X001217Y002560D02*
X000949Y002293D01*
X000805Y001944D01*
X000805Y001566D01*
X000949Y001217D01*
X001217Y000949D01*
X001566Y000805D01*
X001944Y000805D01*
X002293Y000949D01*
X002560Y001217D01*
X002705Y001566D01*
X002705Y001944D01*
X002560Y002293D01*
X002293Y002560D01*
X001944Y002705D01*
X001566Y002705D01*
X001217Y002560D01*
X001056Y002399D02*
X000500Y002399D01*
X000500Y002241D02*
X000928Y002241D01*
X000862Y002082D02*
X000500Y002082D01*
X000500Y001924D02*
X000805Y001924D01*
X000805Y001765D02*
X000500Y001765D01*
X000510Y001607D02*
X000805Y001607D01*
X000854Y001448D02*
X000549Y001448D01*
X000592Y001290D02*
X000919Y001290D01*
X001035Y001131D02*
X000678Y001131D01*
X000778Y000973D02*
X001194Y000973D01*
X000936Y000814D02*
X001544Y000814D01*
X001966Y000814D02*
X004882Y000814D01*
X004671Y000973D02*
X002316Y000973D01*
X002474Y001131D02*
X004351Y001131D01*
X004237Y001290D02*
X002590Y001290D01*
X002656Y001448D02*
X004219Y001448D01*
X004219Y001607D02*
X002705Y001607D01*
X002705Y001765D02*
X004219Y001765D01*
X004250Y001924D02*
X002705Y001924D01*
X002647Y002082D02*
X004419Y002082D01*
X004461Y002241D02*
X002582Y002241D01*
X002454Y002399D02*
X004488Y002399D01*
X004588Y002558D02*
X002295Y002558D01*
X006391Y001590D02*
X006417Y001617D01*
X006873Y001617D01*
X022241Y001607D02*
X024298Y001607D01*
X024298Y001765D02*
X022241Y001765D01*
X022241Y001924D02*
X024261Y001924D01*
X024245Y002082D02*
X022241Y002082D01*
X022241Y002241D02*
X024287Y002241D01*
X024410Y002399D02*
X022241Y002399D01*
X022241Y002558D02*
X024667Y002558D01*
X024924Y002716D02*
X022241Y002716D01*
X031257Y002558D02*
X032541Y002558D01*
X034578Y006996D02*
X036144Y006996D01*
X036008Y007154D02*
X034906Y007154D01*
X035140Y007313D02*
X035889Y007313D01*
X035844Y007471D02*
X035374Y007471D01*
X035402Y007490D02*
X035402Y007490D01*
X036657Y006996D02*
X039230Y006996D01*
X039230Y007154D02*
X036793Y007154D01*
X036991Y007313D02*
X039230Y007313D01*
X039230Y007471D02*
X037035Y007471D01*
X037035Y007630D02*
X039230Y007630D01*
X039230Y007788D02*
X037035Y007788D01*
X037033Y007947D02*
X039230Y007947D01*
X039230Y008105D02*
X036940Y008105D01*
X036895Y008264D02*
X039230Y008264D01*
X039230Y008422D02*
X036458Y008422D01*
X036895Y008581D02*
X039230Y008581D01*
X039230Y008739D02*
X037011Y008739D01*
X037035Y008898D02*
X039230Y008898D01*
X039230Y009056D02*
X037035Y009056D01*
X037035Y009215D02*
X039230Y009215D01*
X039230Y009373D02*
X037013Y009373D01*
X036884Y009532D02*
X039230Y009532D01*
X039230Y009690D02*
X036895Y009690D01*
X036895Y009849D02*
X039230Y009849D01*
X039230Y010007D02*
X036936Y010007D01*
X037031Y010166D02*
X039230Y010166D01*
X039230Y010324D02*
X037035Y010324D01*
X037035Y010483D02*
X039230Y010483D01*
X039230Y010641D02*
X037035Y010641D01*
X036993Y010800D02*
X039230Y010800D01*
X039230Y010958D02*
X036894Y010958D01*
X036895Y011117D02*
X039230Y011117D01*
X039230Y011275D02*
X036895Y011275D01*
X036984Y011434D02*
X039230Y011434D01*
X039230Y011592D02*
X037035Y011592D01*
X037035Y011751D02*
X039230Y011751D01*
X039230Y011909D02*
X037035Y011909D01*
X037035Y012068D02*
X039230Y012068D01*
X039230Y012226D02*
X036953Y012226D01*
X036895Y012702D02*
X039230Y012702D01*
X039230Y012860D02*
X037006Y012860D01*
X037035Y013019D02*
X039230Y013019D01*
X039230Y013177D02*
X037035Y013177D01*
X037035Y013336D02*
X039230Y013336D01*
X039230Y013494D02*
X037018Y013494D01*
X036904Y013653D02*
X039230Y013653D01*
X039230Y013811D02*
X036895Y013811D01*
X036895Y013958D02*
X036458Y013958D01*
X036458Y014317D01*
X036739Y014317D01*
X036785Y014304D01*
X036826Y014281D01*
X036859Y014247D01*
X036883Y014206D01*
X036895Y014160D01*
X036895Y013958D01*
X036895Y013970D02*
X039230Y013970D01*
X039230Y014128D02*
X036895Y014128D01*
X036816Y014287D02*
X037555Y014287D01*
X037437Y014335D02*
X037786Y014191D01*
X038164Y014191D01*
X038513Y014335D01*
X038781Y014603D01*
X038623Y014445D02*
X039230Y014445D01*
X039230Y014287D02*
X038396Y014287D01*
X037170Y014604D02*
X002561Y014604D01*
X002626Y014762D02*
X037104Y014762D01*
X037038Y014921D02*
X002692Y014921D01*
X002705Y015079D02*
X037025Y015079D01*
X037025Y015238D02*
X002705Y015238D01*
X002677Y015396D02*
X037053Y015396D01*
X037119Y015555D02*
X002612Y015555D01*
X002526Y015713D02*
X037204Y015713D01*
X037363Y015872D02*
X002367Y015872D01*
X002090Y016030D02*
X037640Y016030D01*
X038280Y016347D02*
X001450Y016347D01*
X002403Y014445D02*
X002923Y014445D01*
X003658Y014445D02*
X005849Y014445D01*
X005839Y014442D02*
X005798Y014419D01*
X005764Y014385D01*
X005741Y014344D01*
X005728Y014298D01*
X005728Y014017D01*
X006087Y014017D01*
X006087Y014454D01*
X005885Y014454D01*
X005839Y014442D01*
X005728Y014287D02*
X004023Y014287D01*
X004133Y014128D02*
X005728Y014128D01*
X005509Y013970D02*
X004678Y013970D01*
X004752Y013811D02*
X005314Y013811D01*
X005249Y013653D02*
X004752Y013653D01*
X004752Y013494D02*
X005249Y013494D01*
X005308Y013336D02*
X004910Y013336D01*
X005068Y013177D02*
X005473Y013177D01*
X005249Y013109D02*
X005249Y013109D01*
X006996Y013336D02*
X008048Y013336D01*
X008206Y013494D02*
X007273Y013494D01*
X007367Y013653D02*
X008206Y013653D01*
X008206Y013811D02*
X007370Y013811D01*
X007370Y013970D02*
X008281Y013970D01*
X007370Y014128D02*
X009213Y014128D01*
X009292Y014287D02*
X007370Y014287D01*
X007326Y014445D02*
X010403Y014445D01*
X010211Y014287D02*
X010044Y014287D01*
X010124Y014128D02*
X010175Y014128D01*
X010175Y013970D02*
X010124Y013970D01*
X010124Y013811D02*
X010175Y013811D01*
X010186Y013653D02*
X010132Y013653D01*
X010247Y013494D02*
X010291Y013494D01*
X010315Y013336D02*
X010264Y013336D01*
X010264Y013019D02*
X010302Y013019D01*
X010175Y012774D02*
X010175Y012301D01*
X010224Y012184D01*
X010314Y012094D01*
X010331Y012087D01*
X010327Y012080D01*
X010315Y012034D01*
X010315Y011832D01*
X010752Y011832D01*
X010752Y011795D01*
X010315Y011795D01*
X010315Y011653D01*
X010314Y011652D01*
X010264Y011602D01*
X010264Y012074D01*
X010215Y012192D01*
X010125Y012282D01*
X010108Y012289D01*
X010112Y012296D01*
X010124Y012341D01*
X010124Y012543D01*
X010175Y012543D01*
X010124Y012543D02*
X009687Y012543D01*
X009687Y012580D01*
X010124Y012580D01*
X010124Y012723D01*
X010125Y012724D01*
X010175Y012774D01*
X010175Y012702D02*
X010124Y012702D01*
X010124Y012385D02*
X010175Y012385D01*
X010181Y012226D02*
X010206Y012226D01*
X010264Y012068D02*
X010324Y012068D01*
X010315Y011909D02*
X010264Y011909D01*
X010264Y011751D02*
X010315Y011751D01*
X010175Y011396D02*
X010175Y010923D01*
X010224Y010806D01*
X010314Y010716D01*
X010331Y010709D01*
X010327Y010702D01*
X010315Y010656D01*
X010315Y010454D01*
X010672Y010454D01*
X010664Y010417D01*
X010315Y010417D01*
X010315Y010275D01*
X010314Y010274D01*
X010264Y010224D01*
X010264Y010696D01*
X010215Y010814D01*
X010125Y010904D01*
X010108Y010911D01*
X010112Y010918D01*
X010124Y010963D01*
X010124Y011166D01*
X009687Y011166D01*
X009687Y011202D01*
X010124Y011202D01*
X010124Y011345D01*
X010125Y011346D01*
X010175Y011396D01*
X010175Y011275D02*
X010124Y011275D01*
X010124Y011117D02*
X010175Y011117D01*
X010175Y010958D02*
X010122Y010958D01*
X010221Y010800D02*
X010230Y010800D01*
X010264Y010641D02*
X010315Y010641D01*
X010315Y010483D02*
X010264Y010483D01*
X010264Y010324D02*
X010315Y010324D01*
X010175Y010007D02*
X010164Y010007D01*
X010175Y009849D02*
X010124Y009849D01*
X010124Y009690D02*
X010175Y009690D01*
X010181Y009532D02*
X010112Y009532D01*
X010241Y009373D02*
X010279Y009373D01*
X010264Y009215D02*
X010315Y009215D01*
X007890Y013177D02*
X007486Y013177D01*
X007368Y013224D02*
X007368Y013224D01*
X006124Y014128D02*
X006087Y014128D01*
X006087Y014287D02*
X006124Y014287D01*
X006124Y014445D02*
X006087Y014445D01*
X006361Y014445D02*
X006381Y014445D01*
X009650Y014287D02*
X009687Y014287D01*
X009687Y014128D02*
X009650Y014128D01*
X009650Y013970D02*
X009687Y013970D01*
X014806Y014445D02*
X022214Y014445D01*
X020619Y013336D02*
X019859Y013336D01*
X020260Y013177D02*
X020297Y013177D01*
X020297Y013019D02*
X020260Y013019D01*
X020260Y012860D02*
X020297Y012860D01*
X018347Y013177D02*
X017744Y013177D01*
X017744Y013019D02*
X018327Y013019D01*
X016772Y014287D02*
X014850Y014287D01*
X026617Y014445D02*
X029694Y014445D01*
X028583Y014287D02*
X026661Y014287D01*
X031682Y013336D02*
X032079Y013336D01*
X032245Y013177D02*
X031840Y013177D01*
X032021Y013109D02*
X032021Y013109D01*
X033768Y013336D02*
X034820Y013336D01*
X034978Y013494D02*
X034045Y013494D01*
X034139Y013653D02*
X034978Y013653D01*
X034978Y013811D02*
X034142Y013811D01*
X034142Y013970D02*
X035052Y013970D01*
X034142Y014128D02*
X035984Y014128D01*
X036064Y014287D02*
X034142Y014287D01*
X034140Y013224D02*
X034140Y013224D01*
X034258Y013177D02*
X034662Y013177D01*
X036421Y013970D02*
X036458Y013970D01*
X036458Y014128D02*
X036421Y014128D01*
X036421Y014287D02*
X036458Y014287D01*
X029530Y009058D02*
X029511Y009038D01*
X030043Y007630D02*
X030080Y007630D01*
D22*
X029511Y007365D03*
X028920Y007365D03*
X030003Y008152D03*
X028625Y009038D03*
X030200Y009530D03*
X028526Y010416D03*
X030397Y011204D03*
X028526Y011794D03*
X030495Y012582D03*
X029511Y013172D03*
X028526Y013172D03*
X030495Y013960D03*
X032463Y013566D03*
X036007Y013172D03*
X036007Y011794D03*
X036007Y010416D03*
X036105Y009038D03*
X036400Y007365D03*
X035121Y005692D03*
X034727Y005692D03*
X034334Y005692D03*
X033940Y005692D03*
X033546Y005692D03*
X033152Y005692D03*
X032759Y005692D03*
X032365Y005692D03*
X031184Y005692D03*
X030790Y005692D03*
X030397Y005692D03*
X030003Y005692D03*
X029609Y005692D03*
X029215Y005692D03*
X028822Y005692D03*
X028428Y005692D03*
X027247Y005692D03*
X026853Y005692D03*
X026460Y005692D03*
X026066Y005692D03*
X025672Y005692D03*
X025278Y005692D03*
X024885Y005692D03*
X024491Y005692D03*
X022621Y006086D03*
X021046Y006086D03*
X018684Y006086D03*
X016715Y007463D03*
X018684Y007660D03*
X021046Y007660D03*
X022523Y008152D03*
X022719Y009530D03*
X021046Y010810D03*
X022916Y011204D03*
X021243Y011991D03*
X019668Y011991D03*
X018684Y010810D03*
X016715Y010416D03*
X016715Y011794D03*
X016715Y013172D03*
X013172Y013566D03*
X011204Y013960D03*
X010219Y013172D03*
X009235Y013172D03*
X011204Y012582D03*
X009235Y011794D03*
X011105Y011204D03*
X009235Y010416D03*
X010908Y009530D03*
X009235Y009038D03*
X010711Y008152D03*
X010219Y007365D03*
X009629Y007365D03*
X009530Y005692D03*
X009137Y005692D03*
X008743Y005692D03*
X008349Y005692D03*
X007168Y005692D03*
X006774Y005692D03*
X006381Y005692D03*
X005987Y005692D03*
X005593Y005692D03*
X005200Y005692D03*
X004314Y003920D03*
X007070Y003330D03*
X008251Y003920D03*
X011007Y003330D03*
X012188Y003920D03*
X014944Y003330D03*
X013369Y002641D03*
X013074Y002444D03*
X012778Y002247D03*
X012483Y002050D03*
X013861Y002050D03*
X017208Y002739D03*
X017404Y002444D03*
X018389Y001853D03*
X018881Y003133D03*
X024393Y003920D03*
X027149Y003330D03*
X028330Y003920D03*
X031086Y003330D03*
X032267Y003920D03*
X034826Y003330D03*
X033448Y002641D03*
X033152Y002444D03*
X032857Y002247D03*
X032562Y002050D03*
X033940Y002050D03*
X030003Y002050D03*
X029215Y002444D03*
X028920Y002247D03*
X028625Y002050D03*
X029511Y002641D03*
X026066Y002050D03*
X025278Y002444D03*
X024983Y002247D03*
X024688Y002050D03*
X025574Y002641D03*
X015042Y005692D03*
X014649Y005692D03*
X014255Y005692D03*
X013861Y005692D03*
X013467Y005692D03*
X013074Y005692D03*
X012680Y005692D03*
X012286Y005692D03*
X011105Y005692D03*
X010711Y005692D03*
X010318Y005692D03*
X009924Y005692D03*
X003231Y008152D03*
X003428Y009530D03*
X003625Y011204D03*
X003723Y012582D03*
X005692Y013566D03*
X003723Y013960D03*
X016814Y009038D03*
X023015Y012582D03*
X024983Y013566D03*
X023015Y013960D03*
X009432Y002641D03*
X009137Y002444D03*
X008841Y002247D03*
X008546Y002050D03*
X009924Y002050D03*
X005987Y002050D03*
X005200Y002444D03*
X005495Y002641D03*
X004904Y002247D03*
D23*
X004904Y000574D03*
X004117Y000574D03*
X003330Y000574D03*
X005692Y000574D03*
X006479Y000574D03*
X007267Y000574D03*
X008054Y000574D03*
X008841Y000574D03*
X009629Y000574D03*
X010416Y000574D03*
X011204Y000574D03*
X011991Y000574D03*
X012778Y000574D03*
X013566Y000574D03*
X014353Y000574D03*
X015141Y000574D03*
X015928Y000574D03*
X016715Y000574D03*
X017503Y000574D03*
X018290Y000574D03*
X019078Y000574D03*
X019865Y000574D03*
X020652Y000574D03*
X021440Y000574D03*
X022227Y000574D03*
X023015Y000574D03*
X023802Y000574D03*
X024589Y000574D03*
X025377Y000574D03*
X026164Y000574D03*
X026952Y000574D03*
X027739Y000574D03*
X028526Y000574D03*
X029314Y000574D03*
X030101Y000574D03*
X030889Y000574D03*
X031676Y000574D03*
X032463Y000574D03*
X033251Y000574D03*
X034038Y000574D03*
X034826Y000574D03*
X035613Y000574D03*
X036400Y000574D03*
X038763Y003330D03*
X038763Y004117D03*
X038763Y004904D03*
X038763Y005692D03*
X038763Y006479D03*
X038763Y007267D03*
X038763Y008054D03*
X038763Y008841D03*
X038763Y009629D03*
X038763Y010416D03*
X038763Y011204D03*
X038763Y011991D03*
X038763Y012778D03*
X038763Y013566D03*
X036400Y015928D03*
X035613Y015928D03*
X034826Y015928D03*
X034038Y015928D03*
X033251Y015928D03*
X032463Y015928D03*
X031676Y015928D03*
X030889Y015928D03*
X030101Y015928D03*
X029314Y015928D03*
X028526Y015928D03*
X027739Y015928D03*
X026952Y015928D03*
X026164Y015928D03*
X025377Y015928D03*
X024589Y015928D03*
X023802Y015928D03*
X023015Y015928D03*
X022227Y015928D03*
X021440Y015928D03*
X020652Y015928D03*
X019865Y015928D03*
X019078Y015928D03*
X018290Y015928D03*
X017503Y015928D03*
X016715Y015928D03*
X015928Y015928D03*
X015141Y015928D03*
X014353Y015928D03*
X013566Y015928D03*
X012778Y015928D03*
X011991Y015928D03*
X011204Y015928D03*
X010416Y015928D03*
X009629Y015928D03*
X008841Y015928D03*
X008054Y015928D03*
X007267Y015928D03*
X006479Y015928D03*
X005692Y015928D03*
X004904Y015928D03*
X004117Y015928D03*
X003330Y015928D03*
X000967Y013566D03*
X000967Y012778D03*
X000967Y011991D03*
X000967Y011204D03*
X000967Y010416D03*
X000967Y009629D03*
X000967Y008841D03*
X000967Y008054D03*
X000967Y007267D03*
X000967Y006479D03*
X000967Y005692D03*
X000967Y004904D03*
X000967Y004117D03*
X000967Y003330D03*
D24*
X009668Y008428D02*
X010200Y008428D01*
X010200Y009806D02*
X009668Y009806D01*
X010239Y010436D02*
X010771Y010436D01*
X010200Y012562D02*
X009668Y012562D01*
X028960Y012562D02*
X029491Y012562D01*
X029511Y012582D01*
X029530Y010436D02*
X030062Y010436D01*
X029491Y009806D02*
X028960Y009806D01*
X028960Y008428D02*
X029491Y008428D01*
D25*
X020652Y011400D02*
X020652Y011952D01*
X020652Y011400D02*
X020259Y011007D01*
X020259Y010523D01*
X019471Y010523D02*
X019471Y011007D01*
X019078Y011400D01*
X019078Y011952D01*
X019471Y009523D02*
X019471Y008586D01*
X020259Y008586D02*
X020259Y009523D01*
M02*
