G75*
G70*
%OFA0B0*%
%FSLAX24Y24*%
%IPPOS*%
%LPD*%
%AMOC8*
5,1,8,0,0,1.08239X$1,22.5*
%
%ADD10C,0.0000*%
%ADD11C,0.0120*%
%ADD12C,0.0060*%
%ADD13C,0.0030*%
%ADD14C,0.0050*%
%ADD15C,0.0080*%
%ADD16R,0.0079X0.0394*%
D10*
X000160Y001700D02*
X000160Y018629D01*
X006459Y018629D01*
X006459Y001700D01*
X006457Y001646D01*
X006452Y001593D01*
X006443Y001540D01*
X006430Y001488D01*
X006414Y001436D01*
X006394Y001386D01*
X006371Y001338D01*
X006344Y001291D01*
X006315Y001246D01*
X006282Y001203D01*
X006247Y001163D01*
X006209Y001125D01*
X006169Y001090D01*
X006126Y001057D01*
X006081Y001028D01*
X006034Y001001D01*
X005986Y000978D01*
X005936Y000958D01*
X005884Y000942D01*
X005832Y000929D01*
X005779Y000920D01*
X005726Y000915D01*
X005672Y000913D01*
X005672Y000912D02*
X000947Y000912D01*
X000947Y000913D02*
X000893Y000915D01*
X000840Y000920D01*
X000787Y000929D01*
X000735Y000942D01*
X000683Y000958D01*
X000633Y000978D01*
X000585Y001001D01*
X000538Y001028D01*
X000493Y001057D01*
X000450Y001090D01*
X000410Y001125D01*
X000372Y001163D01*
X000337Y001203D01*
X000304Y001246D01*
X000275Y001291D01*
X000248Y001338D01*
X000225Y001386D01*
X000205Y001436D01*
X000189Y001488D01*
X000176Y001540D01*
X000167Y001593D01*
X000162Y001646D01*
X000160Y001700D01*
X002227Y001542D02*
X002229Y001576D01*
X002235Y001610D01*
X002245Y001643D01*
X002258Y001674D01*
X002276Y001704D01*
X002296Y001732D01*
X002320Y001757D01*
X002346Y001779D01*
X002374Y001797D01*
X002405Y001813D01*
X002437Y001825D01*
X002471Y001833D01*
X002505Y001837D01*
X002539Y001837D01*
X002573Y001833D01*
X002607Y001825D01*
X002639Y001813D01*
X002669Y001797D01*
X002698Y001779D01*
X002724Y001757D01*
X002748Y001732D01*
X002768Y001704D01*
X002786Y001674D01*
X002799Y001643D01*
X002809Y001610D01*
X002815Y001576D01*
X002817Y001542D01*
X002815Y001508D01*
X002809Y001474D01*
X002799Y001441D01*
X002786Y001410D01*
X002768Y001380D01*
X002748Y001352D01*
X002724Y001327D01*
X002698Y001305D01*
X002670Y001287D01*
X002639Y001271D01*
X002607Y001259D01*
X002573Y001251D01*
X002539Y001247D01*
X002505Y001247D01*
X002471Y001251D01*
X002437Y001259D01*
X002405Y001271D01*
X002374Y001287D01*
X002346Y001305D01*
X002320Y001327D01*
X002296Y001352D01*
X002276Y001380D01*
X002258Y001410D01*
X002245Y001441D01*
X002235Y001474D01*
X002229Y001508D01*
X002227Y001542D01*
X002227Y003668D02*
X002229Y003702D01*
X002235Y003736D01*
X002245Y003769D01*
X002258Y003800D01*
X002276Y003830D01*
X002296Y003858D01*
X002320Y003883D01*
X002346Y003905D01*
X002374Y003923D01*
X002405Y003939D01*
X002437Y003951D01*
X002471Y003959D01*
X002505Y003963D01*
X002539Y003963D01*
X002573Y003959D01*
X002607Y003951D01*
X002639Y003939D01*
X002669Y003923D01*
X002698Y003905D01*
X002724Y003883D01*
X002748Y003858D01*
X002768Y003830D01*
X002786Y003800D01*
X002799Y003769D01*
X002809Y003736D01*
X002815Y003702D01*
X002817Y003668D01*
X002815Y003634D01*
X002809Y003600D01*
X002799Y003567D01*
X002786Y003536D01*
X002768Y003506D01*
X002748Y003478D01*
X002724Y003453D01*
X002698Y003431D01*
X002670Y003413D01*
X002639Y003397D01*
X002607Y003385D01*
X002573Y003377D01*
X002539Y003373D01*
X002505Y003373D01*
X002471Y003377D01*
X002437Y003385D01*
X002405Y003397D01*
X002374Y003413D01*
X002346Y003431D01*
X002320Y003453D01*
X002296Y003478D01*
X002276Y003506D01*
X002258Y003536D01*
X002245Y003567D01*
X002235Y003600D01*
X002229Y003634D01*
X002227Y003668D01*
D11*
X000160Y010361D02*
X000160Y018629D01*
X006459Y018629D01*
X006459Y010361D01*
X000160Y010361D01*
D12*
X001022Y008756D02*
X001022Y008719D01*
X001022Y008756D02*
X001660Y008756D01*
X001660Y008719D01*
X001660Y008402D02*
X001660Y008364D01*
X001660Y008028D02*
X001660Y007990D01*
X001660Y007673D02*
X001660Y007636D01*
X001022Y007636D01*
X001022Y007673D01*
X001022Y007990D02*
X001022Y008402D01*
X002518Y011505D02*
X002475Y011548D01*
X002475Y011722D01*
X002518Y011765D01*
X002605Y011765D01*
X002648Y011722D01*
X002770Y011765D02*
X002770Y011505D01*
X002770Y011592D02*
X002900Y011592D01*
X002943Y011635D01*
X002943Y011722D01*
X002900Y011765D01*
X002770Y011765D01*
X002648Y011548D02*
X002605Y011505D01*
X002518Y011505D01*
X003064Y011505D02*
X003238Y011678D01*
X003238Y011722D01*
X003194Y011765D01*
X003108Y011765D01*
X003064Y011722D01*
X003064Y011505D02*
X003238Y011505D01*
X003359Y011505D02*
X003532Y011505D01*
X003446Y011505D02*
X003446Y011765D01*
X003359Y011678D01*
X003654Y011722D02*
X003654Y011548D01*
X003827Y011722D01*
X003827Y011548D01*
X003784Y011505D01*
X003697Y011505D01*
X003654Y011548D01*
X003654Y011722D02*
X003697Y011765D01*
X003784Y011765D01*
X003827Y011722D01*
X003948Y011722D02*
X003992Y011765D01*
X004078Y011765D01*
X004122Y011722D01*
X004122Y011678D01*
X003948Y011505D01*
X004122Y011505D01*
X003166Y006327D02*
X003079Y006327D01*
X003036Y006284D01*
X002915Y006284D02*
X002915Y006110D01*
X002871Y006067D01*
X002741Y006067D01*
X002741Y006327D01*
X002871Y006327D01*
X002915Y006284D01*
X003036Y006067D02*
X003209Y006240D01*
X003209Y006284D01*
X003166Y006327D01*
X003209Y006067D02*
X003036Y006067D01*
X004491Y004079D02*
X004491Y003392D01*
X005672Y003392D01*
X005672Y004079D01*
X004491Y004079D01*
X005660Y004237D02*
X005662Y004250D01*
X005667Y004262D01*
X005676Y004272D01*
X005687Y004279D01*
X005699Y004283D01*
X005713Y004283D01*
X005725Y004279D01*
X005736Y004272D01*
X005745Y004262D01*
X005750Y004250D01*
X005752Y004237D01*
X005750Y004224D01*
X005745Y004212D01*
X005736Y004202D01*
X005725Y004195D01*
X005713Y004191D01*
X005699Y004191D01*
X005687Y004195D01*
X005676Y004202D01*
X005667Y004212D01*
X005662Y004224D01*
X005660Y004237D01*
D13*
X005451Y004550D02*
X005258Y004550D01*
X005451Y004744D01*
X005451Y004792D01*
X005403Y004841D01*
X005306Y004841D01*
X005258Y004792D01*
X005156Y004792D02*
X005108Y004841D01*
X005011Y004841D01*
X004963Y004792D01*
X004963Y004599D01*
X005011Y004550D01*
X005108Y004550D01*
X005156Y004599D01*
X004863Y004550D02*
X004767Y004550D01*
X004815Y004550D02*
X004815Y004841D01*
X004767Y004841D02*
X004863Y004841D01*
X004179Y002150D02*
X004179Y001956D01*
X004034Y002101D01*
X004324Y002101D01*
X004324Y001855D02*
X004227Y001758D01*
X004227Y001807D02*
X004227Y001662D01*
X004227Y001807D02*
X004179Y001855D01*
X004082Y001855D01*
X004034Y001807D01*
X004034Y001662D01*
X004324Y001662D01*
X005707Y001662D02*
X005707Y001807D01*
X005755Y001855D01*
X005852Y001855D01*
X005901Y001807D01*
X005901Y001662D01*
X005997Y001662D02*
X005707Y001662D01*
X005755Y001956D02*
X005707Y002005D01*
X005707Y002101D01*
X005755Y002150D01*
X005804Y002150D01*
X005852Y002101D01*
X005901Y002150D01*
X005949Y002150D01*
X005997Y002101D01*
X005997Y002005D01*
X005949Y001956D01*
X005997Y001855D02*
X005901Y001758D01*
X005852Y002053D02*
X005852Y002101D01*
X004796Y009687D02*
X004603Y009687D01*
X004502Y009687D02*
X004502Y009977D01*
X004603Y009881D02*
X004700Y009977D01*
X004700Y009687D01*
X004502Y009687D02*
X004405Y009784D01*
X004308Y009687D01*
X004308Y009977D01*
X004207Y009929D02*
X004159Y009977D01*
X004062Y009977D01*
X004014Y009929D01*
X004014Y009881D01*
X004062Y009832D01*
X004159Y009832D01*
X004207Y009784D01*
X004207Y009736D01*
X004159Y009687D01*
X004062Y009687D01*
X004014Y009736D01*
X002480Y009642D02*
X002287Y009642D01*
X002480Y009835D01*
X002480Y009884D01*
X002432Y009932D01*
X002335Y009932D01*
X002287Y009884D01*
X002185Y009884D02*
X002137Y009932D01*
X002040Y009932D01*
X001992Y009884D01*
X001992Y009690D01*
X002040Y009642D01*
X002137Y009642D01*
X002185Y009690D01*
X002137Y009342D02*
X002040Y009342D01*
X001992Y009293D01*
X001992Y009100D01*
X002040Y009051D01*
X002137Y009051D01*
X002185Y009100D01*
X002287Y009100D02*
X002335Y009051D01*
X002432Y009051D01*
X002480Y009100D01*
X002480Y009148D01*
X002432Y009197D01*
X002383Y009197D01*
X002432Y009197D02*
X002480Y009245D01*
X002480Y009293D01*
X002432Y009342D01*
X002335Y009342D01*
X002287Y009293D01*
X002185Y009293D02*
X002137Y009342D01*
X002495Y008466D02*
X002495Y008273D01*
X002495Y008369D02*
X002204Y008369D01*
X002301Y008273D01*
X002253Y008171D02*
X002204Y008123D01*
X002204Y008026D01*
X002253Y007978D01*
X002446Y007978D01*
X002495Y008026D01*
X002495Y008123D01*
X002446Y008171D01*
X002495Y007878D02*
X002495Y007781D01*
X002495Y007830D02*
X002204Y007830D01*
X002204Y007878D02*
X002204Y007781D01*
X002137Y007275D02*
X002040Y007275D01*
X001992Y007226D01*
X001992Y007033D01*
X002040Y006984D01*
X002137Y006984D01*
X002185Y007033D01*
X002287Y006984D02*
X002480Y006984D01*
X002383Y006984D02*
X002383Y007275D01*
X002287Y007178D01*
X002185Y007226D02*
X002137Y007275D01*
D14*
X001341Y005676D02*
X001341Y005243D01*
X001341Y005676D02*
X003703Y005676D01*
X003703Y005007D02*
X003703Y000912D01*
X001341Y000912D01*
X001341Y001857D01*
X001341Y002487D02*
X001341Y002999D01*
X001341Y003668D02*
X001341Y004613D01*
D15*
X001194Y006050D02*
X001882Y006050D01*
X001656Y006326D02*
X001420Y006483D01*
X001420Y006168D01*
X001656Y006326D01*
X001577Y006326D02*
X001459Y006405D01*
X001459Y006247D01*
X001577Y006326D01*
X001573Y006329D02*
X001459Y006329D01*
X001459Y006250D02*
X001464Y006250D01*
X001194Y006601D02*
X001882Y006601D01*
D16*
X001695Y006326D03*
M02*
