%
M48
M72
T01C0.0126
T02C0.0394
T03C0.0591
%
T01
X6066Y1700
X6066Y2487
X947Y1306
X554Y1700
X554Y2487
X554Y4062
X554Y5637
X1341Y7605
X2129Y7113
X2325Y8196
X2129Y9180
X2129Y9771
X2916Y9968
X2916Y7999
X2916Y5637
X2916Y4456
X2522Y2487
X1735Y1306
X3310Y1306
X3703Y4062
X4491Y7507
X4786Y7901
X4983Y9082
X4294Y8393
X5081Y4653
X6066Y4062
X6066Y5637
X6066Y7999
X6066Y9968
X6066Y14692
X6066Y18235
X554Y18235
X554Y14692
X5672Y1306
T02
X1810Y10952
X2810Y10952
X3810Y10952
X4810Y10952
X5810Y10952
X810Y10952
T03
X2522Y3668
X2522Y1542
M30
