G75*
G70*
%OFA0B0*%
%FSLAX24Y24*%
%IPPOS*%
%LPD*%
%AMOC8*
5,1,8,0,0,1.08239X$1,22.5*
%
%ADD10C,0.0000*%
%ADD11R,0.0236X0.0472*%
%ADD12R,0.0984X0.0472*%
%ADD13R,0.0433X0.0394*%
%ADD14R,0.0472X0.0217*%
%ADD15R,0.0433X0.0768*%
%ADD16R,0.0551X0.0551*%
D10*
X000160Y001700D02*
X000160Y018629D01*
X006459Y018629D01*
X006459Y001700D01*
X006457Y001646D01*
X006452Y001593D01*
X006443Y001540D01*
X006430Y001488D01*
X006414Y001436D01*
X006394Y001386D01*
X006371Y001338D01*
X006344Y001291D01*
X006315Y001246D01*
X006282Y001203D01*
X006247Y001163D01*
X006209Y001125D01*
X006169Y001090D01*
X006126Y001057D01*
X006081Y001028D01*
X006034Y001001D01*
X005986Y000978D01*
X005936Y000958D01*
X005884Y000942D01*
X005832Y000929D01*
X005779Y000920D01*
X005726Y000915D01*
X005672Y000913D01*
X005672Y000912D02*
X000947Y000912D01*
X000947Y000913D02*
X000893Y000915D01*
X000840Y000920D01*
X000787Y000929D01*
X000735Y000942D01*
X000683Y000958D01*
X000633Y000978D01*
X000585Y001001D01*
X000538Y001028D01*
X000493Y001057D01*
X000450Y001090D01*
X000410Y001125D01*
X000372Y001163D01*
X000337Y001203D01*
X000304Y001246D01*
X000275Y001291D01*
X000248Y001338D01*
X000225Y001386D01*
X000205Y001436D01*
X000189Y001488D01*
X000176Y001540D01*
X000167Y001593D01*
X000162Y001646D01*
X000160Y001700D01*
X002227Y001542D02*
X002229Y001576D01*
X002235Y001610D01*
X002245Y001643D01*
X002258Y001674D01*
X002276Y001704D01*
X002296Y001732D01*
X002320Y001757D01*
X002346Y001779D01*
X002374Y001797D01*
X002405Y001813D01*
X002437Y001825D01*
X002471Y001833D01*
X002505Y001837D01*
X002539Y001837D01*
X002573Y001833D01*
X002607Y001825D01*
X002639Y001813D01*
X002669Y001797D01*
X002698Y001779D01*
X002724Y001757D01*
X002748Y001732D01*
X002768Y001704D01*
X002786Y001674D01*
X002799Y001643D01*
X002809Y001610D01*
X002815Y001576D01*
X002817Y001542D01*
X002815Y001508D01*
X002809Y001474D01*
X002799Y001441D01*
X002786Y001410D01*
X002768Y001380D01*
X002748Y001352D01*
X002724Y001327D01*
X002698Y001305D01*
X002670Y001287D01*
X002639Y001271D01*
X002607Y001259D01*
X002573Y001251D01*
X002539Y001247D01*
X002505Y001247D01*
X002471Y001251D01*
X002437Y001259D01*
X002405Y001271D01*
X002374Y001287D01*
X002346Y001305D01*
X002320Y001327D01*
X002296Y001352D01*
X002276Y001380D01*
X002258Y001410D01*
X002245Y001441D01*
X002235Y001474D01*
X002229Y001508D01*
X002227Y001542D01*
X002227Y003668D02*
X002229Y003702D01*
X002235Y003736D01*
X002245Y003769D01*
X002258Y003800D01*
X002276Y003830D01*
X002296Y003858D01*
X002320Y003883D01*
X002346Y003905D01*
X002374Y003923D01*
X002405Y003939D01*
X002437Y003951D01*
X002471Y003959D01*
X002505Y003963D01*
X002539Y003963D01*
X002573Y003959D01*
X002607Y003951D01*
X002639Y003939D01*
X002669Y003923D01*
X002698Y003905D01*
X002724Y003883D01*
X002748Y003858D01*
X002768Y003830D01*
X002786Y003800D01*
X002799Y003769D01*
X002809Y003736D01*
X002815Y003702D01*
X002817Y003668D01*
X002815Y003634D01*
X002809Y003600D01*
X002799Y003567D01*
X002786Y003536D01*
X002768Y003506D01*
X002748Y003478D01*
X002724Y003453D01*
X002698Y003431D01*
X002670Y003413D01*
X002639Y003397D01*
X002607Y003385D01*
X002573Y003377D01*
X002539Y003373D01*
X002505Y003373D01*
X002471Y003377D01*
X002437Y003385D01*
X002405Y003397D01*
X002374Y003413D01*
X002346Y003431D01*
X002320Y003453D01*
X002296Y003478D01*
X002276Y003506D01*
X002258Y003536D01*
X002245Y003567D01*
X002235Y003600D01*
X002229Y003634D01*
X002227Y003668D01*
D11*
X004707Y003275D03*
X005081Y003275D03*
X005081Y004180D03*
X004707Y004180D03*
X005455Y004180D03*
X005455Y003275D03*
D12*
X003802Y005322D03*
X001243Y004928D03*
X001243Y003353D03*
X001243Y002172D03*
D13*
X001006Y007113D03*
X001676Y007113D03*
X001676Y009180D03*
X001676Y009771D03*
X001006Y009771D03*
X001006Y009180D03*
X004688Y002428D03*
X004688Y001759D03*
X005377Y001759D03*
X005377Y002428D03*
D14*
X001853Y007822D03*
X001853Y008196D03*
X001853Y008570D03*
X000829Y008570D03*
X000829Y007822D03*
D15*
X003506Y006897D03*
X003506Y009101D03*
X004491Y009101D03*
X004491Y006897D03*
X005475Y006897D03*
X005475Y009101D03*
D16*
X002266Y006326D03*
X000810Y006326D03*
M02*
