%
M48
M72
T01C0.01260
T02C0.03937
T03C0.05906
%
T01
X6034Y16998
X9971Y13061
X6034Y24872
X6034Y40620
X6034Y56368
X8003Y63258
X11940Y68179
X21782Y64242
X21782Y56368
X29656Y56368
X29656Y44557
X25719Y24872
X17845Y13061
X33593Y13061
X37530Y40620
X47373Y46526
X53278Y52431
X57215Y52431
X60168Y58337
X64105Y58337
X70011Y58337
X76900Y64242
X84774Y64242
X92648Y64242
X92648Y56368
X92648Y32746
X92648Y24872
X92648Y16998
X76900Y13061
X69026Y13061
X53278Y13061
X57215Y40620
X49341Y58337
X45404Y58337
X45404Y79006
X49341Y79006
X57215Y79990
X60168Y78022
X64105Y78022
X70011Y78022
X57215Y87864
X57215Y103612
X57215Y119360
X65089Y119360
X65089Y134124
X57215Y134124
X49341Y134124
X41467Y134124
X33593Y134124
X25719Y134124
X17845Y134124
X13908Y134124
X9971Y134124
X6034Y134124
X5050Y101644
X5050Y87864
X29656Y79990
X33593Y87864
X33593Y103612
X33593Y119360
X69026Y99675
X72963Y134124
X80837Y134124
X88711Y134124
X92648Y131171
X92648Y127234
X92648Y119360
X92648Y111486
T02
X90680Y90738
X90680Y100738
T03
X25719Y15423
X25719Y36683
M30
