G75*
%MOIN*%
%OFA0B0*%
%FSLAX25Y25*%
%IPPOS*%
%LPD*%
%AMOC8*
5,1,8,0,0,1.08239X$1,22.5*
%
%ADD10C,0.00000*%
D10*
X0009971Y0009124D02*
X0088711Y0009124D01*
X0088901Y0009126D01*
X0089091Y0009133D01*
X0089281Y0009145D01*
X0089471Y0009161D01*
X0089660Y0009181D01*
X0089849Y0009207D01*
X0090037Y0009236D01*
X0090224Y0009271D01*
X0090410Y0009310D01*
X0090595Y0009353D01*
X0090780Y0009401D01*
X0090963Y0009453D01*
X0091144Y0009509D01*
X0091324Y0009570D01*
X0091503Y0009636D01*
X0091680Y0009705D01*
X0091856Y0009779D01*
X0092029Y0009857D01*
X0092201Y0009940D01*
X0092370Y0010026D01*
X0092538Y0010116D01*
X0092703Y0010211D01*
X0092866Y0010309D01*
X0093026Y0010412D01*
X0093184Y0010518D01*
X0093339Y0010628D01*
X0093492Y0010741D01*
X0093642Y0010859D01*
X0093788Y0010980D01*
X0093932Y0011104D01*
X0094073Y0011232D01*
X0094211Y0011363D01*
X0094346Y0011498D01*
X0094477Y0011636D01*
X0094605Y0011777D01*
X0094729Y0011921D01*
X0094850Y0012067D01*
X0094968Y0012217D01*
X0095081Y0012370D01*
X0095191Y0012525D01*
X0095297Y0012683D01*
X0095400Y0012843D01*
X0095498Y0013006D01*
X0095593Y0013171D01*
X0095683Y0013339D01*
X0095769Y0013508D01*
X0095852Y0013680D01*
X0095930Y0013853D01*
X0096004Y0014029D01*
X0096073Y0014206D01*
X0096139Y0014385D01*
X0096200Y0014565D01*
X0096256Y0014746D01*
X0096308Y0014929D01*
X0096356Y0015114D01*
X0096399Y0015299D01*
X0096438Y0015485D01*
X0096473Y0015672D01*
X0096502Y0015860D01*
X0096528Y0016049D01*
X0096548Y0016238D01*
X0096564Y0016428D01*
X0096576Y0016618D01*
X0096583Y0016808D01*
X0096585Y0016998D01*
X0096585Y0154793D01*
X0096583Y0154983D01*
X0096576Y0155173D01*
X0096564Y0155363D01*
X0096548Y0155553D01*
X0096528Y0155742D01*
X0096502Y0155931D01*
X0096473Y0156119D01*
X0096438Y0156306D01*
X0096399Y0156492D01*
X0096356Y0156677D01*
X0096308Y0156862D01*
X0096256Y0157045D01*
X0096200Y0157226D01*
X0096139Y0157406D01*
X0096073Y0157585D01*
X0096004Y0157762D01*
X0095930Y0157938D01*
X0095852Y0158111D01*
X0095769Y0158283D01*
X0095683Y0158452D01*
X0095593Y0158620D01*
X0095498Y0158785D01*
X0095400Y0158948D01*
X0095297Y0159108D01*
X0095191Y0159266D01*
X0095081Y0159421D01*
X0094968Y0159574D01*
X0094850Y0159724D01*
X0094729Y0159870D01*
X0094605Y0160014D01*
X0094477Y0160155D01*
X0094346Y0160293D01*
X0094211Y0160428D01*
X0094073Y0160559D01*
X0093932Y0160687D01*
X0093788Y0160811D01*
X0093642Y0160932D01*
X0093492Y0161050D01*
X0093339Y0161163D01*
X0093184Y0161273D01*
X0093026Y0161379D01*
X0092866Y0161482D01*
X0092703Y0161580D01*
X0092538Y0161675D01*
X0092370Y0161765D01*
X0092201Y0161851D01*
X0092029Y0161934D01*
X0091856Y0162012D01*
X0091680Y0162086D01*
X0091503Y0162155D01*
X0091324Y0162221D01*
X0091144Y0162282D01*
X0090963Y0162338D01*
X0090780Y0162390D01*
X0090595Y0162438D01*
X0090410Y0162481D01*
X0090224Y0162520D01*
X0090037Y0162555D01*
X0089849Y0162584D01*
X0089660Y0162610D01*
X0089471Y0162630D01*
X0089281Y0162646D01*
X0089091Y0162658D01*
X0088901Y0162665D01*
X0088711Y0162667D01*
X0009971Y0162667D01*
X0009781Y0162665D01*
X0009591Y0162658D01*
X0009401Y0162646D01*
X0009211Y0162630D01*
X0009022Y0162610D01*
X0008833Y0162584D01*
X0008645Y0162555D01*
X0008458Y0162520D01*
X0008272Y0162481D01*
X0008087Y0162438D01*
X0007902Y0162390D01*
X0007719Y0162338D01*
X0007538Y0162282D01*
X0007358Y0162221D01*
X0007179Y0162155D01*
X0007002Y0162086D01*
X0006826Y0162012D01*
X0006653Y0161934D01*
X0006481Y0161851D01*
X0006312Y0161765D01*
X0006144Y0161675D01*
X0005979Y0161580D01*
X0005816Y0161482D01*
X0005656Y0161379D01*
X0005498Y0161273D01*
X0005343Y0161163D01*
X0005190Y0161050D01*
X0005040Y0160932D01*
X0004894Y0160811D01*
X0004750Y0160687D01*
X0004609Y0160559D01*
X0004471Y0160428D01*
X0004336Y0160293D01*
X0004205Y0160155D01*
X0004077Y0160014D01*
X0003953Y0159870D01*
X0003832Y0159724D01*
X0003714Y0159574D01*
X0003601Y0159421D01*
X0003491Y0159266D01*
X0003385Y0159108D01*
X0003282Y0158948D01*
X0003184Y0158785D01*
X0003089Y0158620D01*
X0002999Y0158452D01*
X0002913Y0158283D01*
X0002830Y0158111D01*
X0002752Y0157938D01*
X0002678Y0157762D01*
X0002609Y0157585D01*
X0002543Y0157406D01*
X0002482Y0157226D01*
X0002426Y0157045D01*
X0002374Y0156862D01*
X0002326Y0156677D01*
X0002283Y0156492D01*
X0002244Y0156306D01*
X0002209Y0156119D01*
X0002180Y0155931D01*
X0002154Y0155742D01*
X0002134Y0155553D01*
X0002118Y0155363D01*
X0002106Y0155173D01*
X0002099Y0154983D01*
X0002097Y0154793D01*
X0002097Y0016998D01*
X0002099Y0016808D01*
X0002106Y0016618D01*
X0002118Y0016428D01*
X0002134Y0016238D01*
X0002154Y0016049D01*
X0002180Y0015860D01*
X0002209Y0015672D01*
X0002244Y0015485D01*
X0002283Y0015299D01*
X0002326Y0015114D01*
X0002374Y0014929D01*
X0002426Y0014746D01*
X0002482Y0014565D01*
X0002543Y0014385D01*
X0002609Y0014206D01*
X0002678Y0014029D01*
X0002752Y0013853D01*
X0002830Y0013680D01*
X0002913Y0013508D01*
X0002999Y0013339D01*
X0003089Y0013171D01*
X0003184Y0013006D01*
X0003282Y0012843D01*
X0003385Y0012683D01*
X0003491Y0012525D01*
X0003601Y0012370D01*
X0003714Y0012217D01*
X0003832Y0012067D01*
X0003953Y0011921D01*
X0004077Y0011777D01*
X0004205Y0011636D01*
X0004336Y0011498D01*
X0004471Y0011363D01*
X0004609Y0011232D01*
X0004750Y0011104D01*
X0004894Y0010980D01*
X0005040Y0010859D01*
X0005190Y0010741D01*
X0005343Y0010628D01*
X0005498Y0010518D01*
X0005656Y0010412D01*
X0005816Y0010309D01*
X0005979Y0010211D01*
X0006144Y0010116D01*
X0006312Y0010026D01*
X0006481Y0009940D01*
X0006653Y0009857D01*
X0006826Y0009779D01*
X0007002Y0009705D01*
X0007179Y0009636D01*
X0007358Y0009570D01*
X0007538Y0009509D01*
X0007719Y0009453D01*
X0007902Y0009401D01*
X0008087Y0009353D01*
X0008272Y0009310D01*
X0008458Y0009271D01*
X0008645Y0009236D01*
X0008833Y0009207D01*
X0009022Y0009181D01*
X0009211Y0009161D01*
X0009401Y0009145D01*
X0009591Y0009133D01*
X0009781Y0009126D01*
X0009971Y0009124D01*
X0022766Y0015423D02*
X0022768Y0015531D01*
X0022774Y0015640D01*
X0022784Y0015748D01*
X0022798Y0015855D01*
X0022816Y0015962D01*
X0022837Y0016069D01*
X0022863Y0016174D01*
X0022893Y0016279D01*
X0022926Y0016382D01*
X0022963Y0016484D01*
X0023004Y0016584D01*
X0023048Y0016683D01*
X0023097Y0016781D01*
X0023148Y0016876D01*
X0023203Y0016969D01*
X0023262Y0017061D01*
X0023324Y0017150D01*
X0023389Y0017237D01*
X0023457Y0017321D01*
X0023528Y0017403D01*
X0023602Y0017482D01*
X0023679Y0017558D01*
X0023759Y0017632D01*
X0023842Y0017702D01*
X0023927Y0017770D01*
X0024014Y0017834D01*
X0024104Y0017895D01*
X0024196Y0017953D01*
X0024290Y0018007D01*
X0024386Y0018058D01*
X0024483Y0018105D01*
X0024583Y0018149D01*
X0024684Y0018189D01*
X0024786Y0018225D01*
X0024889Y0018257D01*
X0024994Y0018286D01*
X0025100Y0018310D01*
X0025206Y0018331D01*
X0025313Y0018348D01*
X0025421Y0018361D01*
X0025529Y0018370D01*
X0025638Y0018375D01*
X0025746Y0018376D01*
X0025855Y0018373D01*
X0025963Y0018366D01*
X0026071Y0018355D01*
X0026178Y0018340D01*
X0026285Y0018321D01*
X0026391Y0018298D01*
X0026496Y0018272D01*
X0026601Y0018241D01*
X0026703Y0018207D01*
X0026805Y0018169D01*
X0026905Y0018127D01*
X0027004Y0018082D01*
X0027101Y0018033D01*
X0027195Y0017980D01*
X0027288Y0017924D01*
X0027379Y0017865D01*
X0027468Y0017802D01*
X0027554Y0017737D01*
X0027638Y0017668D01*
X0027719Y0017596D01*
X0027797Y0017521D01*
X0027873Y0017443D01*
X0027946Y0017362D01*
X0028016Y0017279D01*
X0028082Y0017194D01*
X0028146Y0017106D01*
X0028206Y0017015D01*
X0028263Y0016923D01*
X0028316Y0016828D01*
X0028366Y0016732D01*
X0028412Y0016634D01*
X0028455Y0016534D01*
X0028494Y0016433D01*
X0028529Y0016330D01*
X0028561Y0016227D01*
X0028588Y0016122D01*
X0028612Y0016016D01*
X0028632Y0015909D01*
X0028648Y0015802D01*
X0028660Y0015694D01*
X0028668Y0015586D01*
X0028672Y0015477D01*
X0028672Y0015369D01*
X0028668Y0015260D01*
X0028660Y0015152D01*
X0028648Y0015044D01*
X0028632Y0014937D01*
X0028612Y0014830D01*
X0028588Y0014724D01*
X0028561Y0014619D01*
X0028529Y0014516D01*
X0028494Y0014413D01*
X0028455Y0014312D01*
X0028412Y0014212D01*
X0028366Y0014114D01*
X0028316Y0014018D01*
X0028263Y0013923D01*
X0028206Y0013831D01*
X0028146Y0013740D01*
X0028082Y0013652D01*
X0028016Y0013567D01*
X0027946Y0013484D01*
X0027873Y0013403D01*
X0027797Y0013325D01*
X0027719Y0013250D01*
X0027638Y0013178D01*
X0027554Y0013109D01*
X0027468Y0013044D01*
X0027379Y0012981D01*
X0027288Y0012922D01*
X0027196Y0012866D01*
X0027101Y0012813D01*
X0027004Y0012764D01*
X0026905Y0012719D01*
X0026805Y0012677D01*
X0026703Y0012639D01*
X0026601Y0012605D01*
X0026496Y0012574D01*
X0026391Y0012548D01*
X0026285Y0012525D01*
X0026178Y0012506D01*
X0026071Y0012491D01*
X0025963Y0012480D01*
X0025855Y0012473D01*
X0025746Y0012470D01*
X0025638Y0012471D01*
X0025529Y0012476D01*
X0025421Y0012485D01*
X0025313Y0012498D01*
X0025206Y0012515D01*
X0025100Y0012536D01*
X0024994Y0012560D01*
X0024889Y0012589D01*
X0024786Y0012621D01*
X0024684Y0012657D01*
X0024583Y0012697D01*
X0024483Y0012741D01*
X0024386Y0012788D01*
X0024290Y0012839D01*
X0024196Y0012893D01*
X0024104Y0012951D01*
X0024014Y0013012D01*
X0023927Y0013076D01*
X0023842Y0013144D01*
X0023759Y0013214D01*
X0023679Y0013288D01*
X0023602Y0013364D01*
X0023528Y0013443D01*
X0023457Y0013525D01*
X0023389Y0013609D01*
X0023324Y0013696D01*
X0023262Y0013785D01*
X0023203Y0013877D01*
X0023148Y0013970D01*
X0023097Y0014065D01*
X0023048Y0014163D01*
X0023004Y0014262D01*
X0022963Y0014362D01*
X0022926Y0014464D01*
X0022893Y0014567D01*
X0022863Y0014672D01*
X0022837Y0014777D01*
X0022816Y0014884D01*
X0022798Y0014991D01*
X0022784Y0015098D01*
X0022774Y0015206D01*
X0022768Y0015315D01*
X0022766Y0015423D01*
X0022766Y0036683D02*
X0022768Y0036791D01*
X0022774Y0036900D01*
X0022784Y0037008D01*
X0022798Y0037115D01*
X0022816Y0037222D01*
X0022837Y0037329D01*
X0022863Y0037434D01*
X0022893Y0037539D01*
X0022926Y0037642D01*
X0022963Y0037744D01*
X0023004Y0037844D01*
X0023048Y0037943D01*
X0023097Y0038041D01*
X0023148Y0038136D01*
X0023203Y0038229D01*
X0023262Y0038321D01*
X0023324Y0038410D01*
X0023389Y0038497D01*
X0023457Y0038581D01*
X0023528Y0038663D01*
X0023602Y0038742D01*
X0023679Y0038818D01*
X0023759Y0038892D01*
X0023842Y0038962D01*
X0023927Y0039030D01*
X0024014Y0039094D01*
X0024104Y0039155D01*
X0024196Y0039213D01*
X0024290Y0039267D01*
X0024386Y0039318D01*
X0024483Y0039365D01*
X0024583Y0039409D01*
X0024684Y0039449D01*
X0024786Y0039485D01*
X0024889Y0039517D01*
X0024994Y0039546D01*
X0025100Y0039570D01*
X0025206Y0039591D01*
X0025313Y0039608D01*
X0025421Y0039621D01*
X0025529Y0039630D01*
X0025638Y0039635D01*
X0025746Y0039636D01*
X0025855Y0039633D01*
X0025963Y0039626D01*
X0026071Y0039615D01*
X0026178Y0039600D01*
X0026285Y0039581D01*
X0026391Y0039558D01*
X0026496Y0039532D01*
X0026601Y0039501D01*
X0026703Y0039467D01*
X0026805Y0039429D01*
X0026905Y0039387D01*
X0027004Y0039342D01*
X0027101Y0039293D01*
X0027195Y0039240D01*
X0027288Y0039184D01*
X0027379Y0039125D01*
X0027468Y0039062D01*
X0027554Y0038997D01*
X0027638Y0038928D01*
X0027719Y0038856D01*
X0027797Y0038781D01*
X0027873Y0038703D01*
X0027946Y0038622D01*
X0028016Y0038539D01*
X0028082Y0038454D01*
X0028146Y0038366D01*
X0028206Y0038275D01*
X0028263Y0038183D01*
X0028316Y0038088D01*
X0028366Y0037992D01*
X0028412Y0037894D01*
X0028455Y0037794D01*
X0028494Y0037693D01*
X0028529Y0037590D01*
X0028561Y0037487D01*
X0028588Y0037382D01*
X0028612Y0037276D01*
X0028632Y0037169D01*
X0028648Y0037062D01*
X0028660Y0036954D01*
X0028668Y0036846D01*
X0028672Y0036737D01*
X0028672Y0036629D01*
X0028668Y0036520D01*
X0028660Y0036412D01*
X0028648Y0036304D01*
X0028632Y0036197D01*
X0028612Y0036090D01*
X0028588Y0035984D01*
X0028561Y0035879D01*
X0028529Y0035776D01*
X0028494Y0035673D01*
X0028455Y0035572D01*
X0028412Y0035472D01*
X0028366Y0035374D01*
X0028316Y0035278D01*
X0028263Y0035183D01*
X0028206Y0035091D01*
X0028146Y0035000D01*
X0028082Y0034912D01*
X0028016Y0034827D01*
X0027946Y0034744D01*
X0027873Y0034663D01*
X0027797Y0034585D01*
X0027719Y0034510D01*
X0027638Y0034438D01*
X0027554Y0034369D01*
X0027468Y0034304D01*
X0027379Y0034241D01*
X0027288Y0034182D01*
X0027196Y0034126D01*
X0027101Y0034073D01*
X0027004Y0034024D01*
X0026905Y0033979D01*
X0026805Y0033937D01*
X0026703Y0033899D01*
X0026601Y0033865D01*
X0026496Y0033834D01*
X0026391Y0033808D01*
X0026285Y0033785D01*
X0026178Y0033766D01*
X0026071Y0033751D01*
X0025963Y0033740D01*
X0025855Y0033733D01*
X0025746Y0033730D01*
X0025638Y0033731D01*
X0025529Y0033736D01*
X0025421Y0033745D01*
X0025313Y0033758D01*
X0025206Y0033775D01*
X0025100Y0033796D01*
X0024994Y0033820D01*
X0024889Y0033849D01*
X0024786Y0033881D01*
X0024684Y0033917D01*
X0024583Y0033957D01*
X0024483Y0034001D01*
X0024386Y0034048D01*
X0024290Y0034099D01*
X0024196Y0034153D01*
X0024104Y0034211D01*
X0024014Y0034272D01*
X0023927Y0034336D01*
X0023842Y0034404D01*
X0023759Y0034474D01*
X0023679Y0034548D01*
X0023602Y0034624D01*
X0023528Y0034703D01*
X0023457Y0034785D01*
X0023389Y0034869D01*
X0023324Y0034956D01*
X0023262Y0035045D01*
X0023203Y0035137D01*
X0023148Y0035230D01*
X0023097Y0035325D01*
X0023048Y0035423D01*
X0023004Y0035522D01*
X0022963Y0035622D01*
X0022926Y0035724D01*
X0022893Y0035827D01*
X0022863Y0035932D01*
X0022837Y0036037D01*
X0022816Y0036144D01*
X0022798Y0036251D01*
X0022784Y0036358D01*
X0022774Y0036466D01*
X0022768Y0036575D01*
X0022766Y0036683D01*
M02*
