G75*
G70*
%OFA0B0*%
%FSLAX24Y24*%
%IPPOS*%
%LPD*%
%AMOC8*
5,1,8,0,0,1.08239X$1,22.5*
%
%ADD10C,0.0000*%
%ADD11C,0.0030*%
%ADD12R,0.0059X0.0118*%
%ADD13R,0.0118X0.0118*%
%ADD14C,0.0060*%
%ADD15R,0.0010X0.0050*%
%ADD16R,0.0010X0.0040*%
%ADD17R,0.0010X0.0130*%
%ADD18R,0.0010X0.0070*%
%ADD19R,0.0010X0.0180*%
%ADD20R,0.0010X0.0080*%
%ADD21R,0.0010X0.0210*%
%ADD22R,0.0010X0.0090*%
%ADD23R,0.0010X0.0060*%
%ADD24R,0.0010X0.0010*%
%ADD25R,0.0010X0.0030*%
%ADD26R,0.0010X0.0020*%
%ADD27R,0.0010X0.0220*%
%ADD28R,0.0010X0.0100*%
%ADD29R,0.0010X0.0110*%
%ADD30R,0.0010X0.0120*%
%ADD31R,0.0010X0.0140*%
%ADD32R,0.0010X0.0150*%
%ADD33R,0.0010X0.0200*%
%ADD34R,0.0010X0.0170*%
%ADD35R,0.0010X0.0190*%
%ADD36R,0.0010X0.0160*%
%ADD37C,0.0050*%
%ADD38R,0.0003X0.0003*%
%ADD39R,0.0003X0.0008*%
%ADD40R,0.0003X0.0005*%
%ADD41R,0.0003X0.0015*%
%ADD42R,0.0003X0.0020*%
%ADD43R,0.0003X0.0010*%
%ADD44R,0.0003X0.0018*%
%ADD45R,0.0003X0.0067*%
%ADD46R,0.0003X0.0013*%
%ADD47R,0.0003X0.0045*%
%ADD48R,0.0003X0.0077*%
%ADD49R,0.0003X0.0030*%
%ADD50R,0.0003X0.0032*%
%ADD51R,0.0003X0.0022*%
%ADD52R,0.0003X0.0127*%
%ADD53R,0.0003X0.0140*%
%ADD54R,0.0003X0.0025*%
%ADD55R,0.0003X0.0043*%
%ADD56R,0.0003X0.0053*%
%ADD57R,0.0003X0.0088*%
%ADD58R,0.0003X0.0035*%
%ADD59R,0.0003X0.0055*%
%ADD60R,0.0003X0.0040*%
%ADD61R,0.0003X0.0080*%
%ADD62R,0.0003X0.0065*%
%ADD63R,0.0003X0.0090*%
%ADD64R,0.0003X0.0143*%
%ADD65R,0.0003X0.0248*%
%ADD66R,0.0003X0.0293*%
%ADD67R,0.0003X0.0257*%
%ADD68R,0.0003X0.0037*%
%ADD69R,0.0003X0.0262*%
%ADD70R,0.0003X0.0027*%
%ADD71R,0.0003X0.0280*%
%ADD72R,0.0003X0.0070*%
%ADD73R,0.0003X0.0440*%
%ADD74R,0.0003X0.0315*%
%ADD75R,0.0003X0.0085*%
%ADD76R,0.0003X0.0330*%
%ADD77R,0.0003X0.0323*%
%ADD78R,0.0003X0.0107*%
%ADD79R,0.0003X0.0057*%
%ADD80R,0.0003X0.0490*%
%ADD81R,0.0003X0.0360*%
%ADD82R,0.0003X0.0512*%
%ADD83R,0.0003X0.0390*%
%ADD84R,0.0003X0.0565*%
%ADD85R,0.0003X0.0325*%
%ADD86R,0.0003X0.0168*%
%ADD87R,0.0003X0.0307*%
%ADD88R,0.0003X0.0152*%
%ADD89R,0.0003X0.0272*%
%ADD90R,0.0003X0.0132*%
%ADD91R,0.0003X0.0147*%
%ADD92R,0.0003X0.0243*%
%ADD93R,0.0003X0.0125*%
%ADD94R,0.0003X0.0240*%
%ADD95R,0.0003X0.0130*%
%ADD96R,0.0003X0.0225*%
%ADD97R,0.0003X0.0083*%
%ADD98R,0.0003X0.0222*%
%ADD99R,0.0003X0.0217*%
%ADD100R,0.0003X0.0120*%
%ADD101R,0.0003X0.0215*%
%ADD102R,0.0003X0.0118*%
%ADD103R,0.0003X0.0205*%
%ADD104R,0.0003X0.0103*%
%ADD105R,0.0003X0.0210*%
%ADD106R,0.0003X0.0097*%
%ADD107R,0.0003X0.0198*%
%ADD108R,0.0003X0.0100*%
%ADD109R,0.0003X0.0190*%
%ADD110R,0.0003X0.0187*%
%ADD111R,0.0003X0.0192*%
%ADD112R,0.0003X0.0170*%
%ADD113R,0.0003X0.0173*%
%ADD114R,0.0003X0.0182*%
%ADD115R,0.0003X0.0180*%
%ADD116R,0.0003X0.0047*%
%ADD117R,0.0003X0.0165*%
%ADD118R,0.0003X0.0163*%
%ADD119R,0.0003X0.0160*%
%ADD120R,0.0003X0.0158*%
%ADD121R,0.0003X0.0155*%
%ADD122R,0.0003X0.0092*%
%ADD123R,0.0003X0.0150*%
%ADD124R,0.0003X0.0105*%
%ADD125R,0.0003X0.0115*%
%ADD126R,0.0003X0.0145*%
%ADD127R,0.0003X0.0138*%
%ADD128R,0.0003X0.0135*%
%ADD129R,0.0003X0.0075*%
%ADD130R,0.0003X0.0063*%
%ADD131R,0.0003X0.0060*%
%ADD132R,0.0003X0.0050*%
%ADD133R,0.0003X0.0123*%
%ADD134R,0.0003X0.0112*%
%ADD135R,0.0003X0.0110*%
%ADD136R,0.0003X0.0073*%
%ADD137R,0.0003X0.0095*%
%ADD138R,0.0003X0.0185*%
%ADD139R,0.0003X0.0208*%
%ADD140R,0.0003X0.0235*%
%ADD141R,0.0003X0.0260*%
%ADD142R,0.0003X0.0267*%
%ADD143R,0.0003X0.0283*%
%ADD144R,0.0003X0.0295*%
%ADD145R,0.0003X0.0302*%
%ADD146R,0.0003X0.0320*%
%ADD147R,0.0003X0.0333*%
%ADD148R,0.0003X0.0338*%
%ADD149R,0.0003X0.0343*%
%ADD150R,0.0003X0.0350*%
%ADD151R,0.0003X0.0355*%
%ADD152R,0.0003X0.0365*%
%ADD153R,0.0003X0.0370*%
%ADD154R,0.0003X0.0375*%
%ADD155R,0.0003X0.0380*%
%ADD156R,0.0003X0.0382*%
%ADD157R,0.0003X0.0393*%
%ADD158R,0.0003X0.0398*%
%ADD159R,0.0003X0.0403*%
%ADD160R,0.0003X0.0405*%
%ADD161R,0.0003X0.0415*%
%ADD162R,0.0003X0.0177*%
%ADD163R,0.0003X0.0175*%
%ADD164R,0.0003X0.0195*%
%ADD165R,0.0003X0.0200*%
%ADD166R,0.0003X0.0203*%
%ADD167R,0.0003X0.0213*%
%ADD168R,0.0003X0.0220*%
%ADD169R,0.0003X0.0227*%
%ADD170R,0.0003X0.0230*%
%ADD171R,0.0003X0.0232*%
%ADD172R,0.0003X0.0238*%
%ADD173R,0.0003X0.0245*%
%ADD174R,0.0003X0.0250*%
%ADD175R,0.0003X0.0253*%
%ADD176R,0.0003X0.0255*%
%ADD177R,0.0003X0.0305*%
%ADD178R,0.0003X0.0318*%
%ADD179R,0.0003X0.0328*%
%ADD180R,0.0003X0.0335*%
%ADD181R,0.0003X0.0340*%
%ADD182R,0.0003X0.0352*%
%ADD183R,0.0003X0.0387*%
%ADD184R,0.0003X0.0410*%
%ADD185R,0.0003X0.0413*%
%ADD186R,0.0003X0.0430*%
%ADD187R,0.0003X0.0432*%
%ADD188R,0.0003X0.0428*%
%ADD189R,0.0003X0.0420*%
%ADD190R,0.0003X0.0435*%
%ADD191R,0.0003X0.0425*%
%ADD192R,0.0003X0.0423*%
%ADD193R,0.0003X0.0418*%
%ADD194R,0.0003X0.0372*%
%ADD195R,0.0003X0.0362*%
%ADD196R,0.0003X0.0348*%
%ADD197R,0.0003X0.0345*%
%ADD198R,0.0003X0.0310*%
%ADD199R,0.0003X0.0300*%
%ADD200R,0.0003X0.0297*%
%ADD201R,0.0003X0.0285*%
%ADD202R,0.0003X0.0278*%
%ADD203R,0.0003X0.0265*%
%ADD204C,0.0080*%
%ADD205R,0.0394X0.0079*%
D10*
X000944Y000912D02*
X008818Y000912D01*
X008818Y000913D02*
X008872Y000915D01*
X008925Y000920D01*
X008978Y000929D01*
X009030Y000942D01*
X009082Y000958D01*
X009132Y000978D01*
X009180Y001001D01*
X009227Y001028D01*
X009272Y001057D01*
X009315Y001090D01*
X009355Y001125D01*
X009393Y001163D01*
X009428Y001203D01*
X009461Y001246D01*
X009490Y001291D01*
X009517Y001338D01*
X009540Y001386D01*
X009560Y001436D01*
X009576Y001488D01*
X009589Y001540D01*
X009598Y001593D01*
X009603Y001646D01*
X009605Y001700D01*
X009605Y017842D01*
X009603Y017896D01*
X009598Y017949D01*
X009589Y018002D01*
X009576Y018054D01*
X009560Y018106D01*
X009540Y018156D01*
X009517Y018204D01*
X009490Y018251D01*
X009461Y018296D01*
X009428Y018339D01*
X009393Y018379D01*
X009355Y018417D01*
X009315Y018452D01*
X009272Y018485D01*
X009227Y018514D01*
X009180Y018541D01*
X009132Y018564D01*
X009082Y018584D01*
X009030Y018600D01*
X008978Y018613D01*
X008925Y018622D01*
X008872Y018627D01*
X008818Y018629D01*
X000944Y018629D01*
X000890Y018627D01*
X000837Y018622D01*
X000784Y018613D01*
X000732Y018600D01*
X000680Y018584D01*
X000630Y018564D01*
X000582Y018541D01*
X000535Y018514D01*
X000490Y018485D01*
X000447Y018452D01*
X000407Y018417D01*
X000369Y018379D01*
X000334Y018339D01*
X000301Y018296D01*
X000272Y018251D01*
X000245Y018204D01*
X000222Y018156D01*
X000202Y018106D01*
X000186Y018054D01*
X000173Y018002D01*
X000164Y017949D01*
X000159Y017896D01*
X000157Y017842D01*
X000156Y017842D02*
X000156Y001700D01*
X000157Y001700D02*
X000159Y001646D01*
X000164Y001593D01*
X000173Y001540D01*
X000186Y001488D01*
X000202Y001436D01*
X000222Y001386D01*
X000245Y001338D01*
X000272Y001291D01*
X000301Y001246D01*
X000334Y001203D01*
X000369Y001163D01*
X000407Y001125D01*
X000447Y001090D01*
X000490Y001057D01*
X000535Y001028D01*
X000582Y001001D01*
X000630Y000978D01*
X000680Y000958D01*
X000732Y000942D01*
X000784Y000929D01*
X000837Y000920D01*
X000890Y000915D01*
X000944Y000913D01*
X002617Y001542D02*
X002619Y001576D01*
X002625Y001610D01*
X002635Y001643D01*
X002648Y001674D01*
X002666Y001704D01*
X002686Y001732D01*
X002710Y001757D01*
X002736Y001779D01*
X002764Y001797D01*
X002795Y001813D01*
X002827Y001825D01*
X002861Y001833D01*
X002895Y001837D01*
X002929Y001837D01*
X002963Y001833D01*
X002997Y001825D01*
X003029Y001813D01*
X003059Y001797D01*
X003088Y001779D01*
X003114Y001757D01*
X003138Y001732D01*
X003158Y001704D01*
X003176Y001674D01*
X003189Y001643D01*
X003199Y001610D01*
X003205Y001576D01*
X003207Y001542D01*
X003205Y001508D01*
X003199Y001474D01*
X003189Y001441D01*
X003176Y001410D01*
X003158Y001380D01*
X003138Y001352D01*
X003114Y001327D01*
X003088Y001305D01*
X003060Y001287D01*
X003029Y001271D01*
X002997Y001259D01*
X002963Y001251D01*
X002929Y001247D01*
X002895Y001247D01*
X002861Y001251D01*
X002827Y001259D01*
X002795Y001271D01*
X002764Y001287D01*
X002736Y001305D01*
X002710Y001327D01*
X002686Y001352D01*
X002666Y001380D01*
X002648Y001410D01*
X002635Y001441D01*
X002625Y001474D01*
X002619Y001508D01*
X002617Y001542D01*
X002617Y003668D02*
X002619Y003702D01*
X002625Y003736D01*
X002635Y003769D01*
X002648Y003800D01*
X002666Y003830D01*
X002686Y003858D01*
X002710Y003883D01*
X002736Y003905D01*
X002764Y003923D01*
X002795Y003939D01*
X002827Y003951D01*
X002861Y003959D01*
X002895Y003963D01*
X002929Y003963D01*
X002963Y003959D01*
X002997Y003951D01*
X003029Y003939D01*
X003059Y003923D01*
X003088Y003905D01*
X003114Y003883D01*
X003138Y003858D01*
X003158Y003830D01*
X003176Y003800D01*
X003189Y003769D01*
X003199Y003736D01*
X003205Y003702D01*
X003207Y003668D01*
X003205Y003634D01*
X003199Y003600D01*
X003189Y003567D01*
X003176Y003536D01*
X003158Y003506D01*
X003138Y003478D01*
X003114Y003453D01*
X003088Y003431D01*
X003060Y003413D01*
X003029Y003397D01*
X002997Y003385D01*
X002963Y003377D01*
X002929Y003373D01*
X002895Y003373D01*
X002861Y003377D01*
X002827Y003385D01*
X002795Y003397D01*
X002764Y003413D01*
X002736Y003431D01*
X002710Y003453D01*
X002686Y003478D01*
X002666Y003506D01*
X002648Y003536D01*
X002635Y003567D01*
X002625Y003600D01*
X002619Y003634D01*
X002617Y003668D01*
X005688Y002684D02*
X005690Y002711D01*
X005696Y002738D01*
X005705Y002764D01*
X005718Y002788D01*
X005734Y002811D01*
X005753Y002830D01*
X005775Y002847D01*
X005799Y002861D01*
X005824Y002871D01*
X005851Y002878D01*
X005878Y002881D01*
X005906Y002880D01*
X005933Y002875D01*
X005959Y002867D01*
X005983Y002855D01*
X006006Y002839D01*
X006027Y002821D01*
X006044Y002800D01*
X006059Y002776D01*
X006070Y002751D01*
X006078Y002725D01*
X006082Y002698D01*
X006082Y002670D01*
X006078Y002643D01*
X006070Y002617D01*
X006059Y002592D01*
X006044Y002568D01*
X006027Y002547D01*
X006006Y002529D01*
X005984Y002513D01*
X005959Y002501D01*
X005933Y002493D01*
X005906Y002488D01*
X005878Y002487D01*
X005851Y002490D01*
X005824Y002497D01*
X005799Y002507D01*
X005775Y002521D01*
X005753Y002538D01*
X005734Y002557D01*
X005718Y002580D01*
X005705Y002604D01*
X005696Y002630D01*
X005690Y002657D01*
X005688Y002684D01*
X007420Y002684D02*
X007422Y002711D01*
X007428Y002738D01*
X007437Y002764D01*
X007450Y002788D01*
X007466Y002811D01*
X007485Y002830D01*
X007507Y002847D01*
X007531Y002861D01*
X007556Y002871D01*
X007583Y002878D01*
X007610Y002881D01*
X007638Y002880D01*
X007665Y002875D01*
X007691Y002867D01*
X007715Y002855D01*
X007738Y002839D01*
X007759Y002821D01*
X007776Y002800D01*
X007791Y002776D01*
X007802Y002751D01*
X007810Y002725D01*
X007814Y002698D01*
X007814Y002670D01*
X007810Y002643D01*
X007802Y002617D01*
X007791Y002592D01*
X007776Y002568D01*
X007759Y002547D01*
X007738Y002529D01*
X007716Y002513D01*
X007691Y002501D01*
X007665Y002493D01*
X007638Y002488D01*
X007610Y002487D01*
X007583Y002490D01*
X007556Y002497D01*
X007531Y002507D01*
X007507Y002521D01*
X007485Y002538D01*
X007466Y002557D01*
X007450Y002580D01*
X007437Y002604D01*
X007428Y002630D01*
X007422Y002657D01*
X007420Y002684D01*
D11*
X007404Y004722D02*
X007114Y004722D01*
X007114Y004867D01*
X007162Y004915D01*
X007259Y004915D01*
X007307Y004867D01*
X007307Y004722D01*
X007307Y004819D02*
X007404Y004915D01*
X007404Y005017D02*
X007211Y005210D01*
X007162Y005210D01*
X007114Y005162D01*
X007114Y005065D01*
X007162Y005017D01*
X007404Y005017D02*
X007404Y005210D01*
X007705Y005113D02*
X007995Y005113D01*
X007995Y005017D02*
X007995Y005210D01*
X007995Y004915D02*
X007898Y004819D01*
X007898Y004867D02*
X007898Y004722D01*
X007995Y004722D02*
X007705Y004722D01*
X007705Y004867D01*
X007753Y004915D01*
X007850Y004915D01*
X007898Y004867D01*
X007801Y005017D02*
X007705Y005113D01*
X006700Y006796D02*
X006507Y006796D01*
X006604Y006796D02*
X006604Y007086D01*
X006507Y006989D01*
X006406Y007037D02*
X006357Y007086D01*
X006261Y007086D01*
X006212Y007037D01*
X006212Y006844D01*
X006261Y006796D01*
X006357Y006796D01*
X006406Y006844D01*
X006113Y006796D02*
X006016Y006796D01*
X006064Y006796D02*
X006064Y007086D01*
X006016Y007086D02*
X006113Y007086D01*
X004848Y004688D02*
X004654Y004688D01*
X004751Y004688D02*
X004751Y004978D01*
X004654Y004882D01*
X004553Y004930D02*
X004505Y004978D01*
X004408Y004978D01*
X004360Y004930D01*
X004360Y004736D01*
X004408Y004688D01*
X004505Y004688D01*
X004553Y004736D01*
X004200Y006689D02*
X004103Y006689D01*
X004055Y006738D01*
X003953Y006738D02*
X003905Y006689D01*
X003808Y006689D01*
X003760Y006738D01*
X003760Y006931D01*
X003808Y006979D01*
X003905Y006979D01*
X003953Y006931D01*
X004055Y006931D02*
X004103Y006979D01*
X004200Y006979D01*
X004248Y006931D01*
X004248Y006883D01*
X004200Y006834D01*
X004248Y006786D01*
X004248Y006738D01*
X004200Y006689D01*
X004200Y006834D02*
X004151Y006834D01*
X004325Y006927D02*
X004374Y006878D01*
X004567Y006878D01*
X004616Y006927D01*
X004616Y007023D01*
X004567Y007072D01*
X004616Y007173D02*
X004422Y007366D01*
X004374Y007366D01*
X004325Y007318D01*
X004325Y007221D01*
X004374Y007173D01*
X004374Y007072D02*
X004325Y007023D01*
X004325Y006927D01*
X004616Y007173D02*
X004616Y007366D01*
X002824Y008751D02*
X002776Y008703D01*
X002679Y008703D01*
X002631Y008751D01*
X002530Y008751D02*
X002481Y008703D01*
X002385Y008703D01*
X002336Y008751D01*
X002336Y008945D01*
X002385Y008993D01*
X002481Y008993D01*
X002530Y008945D01*
X002631Y008945D02*
X002679Y008993D01*
X002776Y008993D01*
X002824Y008945D01*
X002824Y008896D01*
X002776Y008848D01*
X002824Y008800D01*
X002824Y008751D01*
X002776Y008848D02*
X002728Y008848D01*
X002237Y008703D02*
X002140Y008703D01*
X002188Y008703D02*
X002188Y008993D01*
X002140Y008993D02*
X002237Y008993D01*
X001237Y005739D02*
X001141Y005739D01*
X001092Y005691D01*
X000991Y005691D02*
X000943Y005739D01*
X000846Y005739D01*
X000798Y005691D01*
X000798Y005497D01*
X000846Y005449D01*
X000943Y005449D01*
X000991Y005497D01*
X001092Y005449D02*
X001286Y005642D01*
X001286Y005691D01*
X001237Y005739D01*
X001286Y005449D02*
X001092Y005449D01*
X000755Y005011D02*
X000803Y004963D01*
X000803Y004914D01*
X000755Y004866D01*
X000803Y004817D01*
X000803Y004769D01*
X000755Y004721D01*
X000658Y004721D01*
X000610Y004769D01*
X000508Y004721D02*
X000412Y004817D01*
X000460Y004817D02*
X000315Y004817D01*
X000315Y004721D02*
X000315Y005011D01*
X000460Y005011D01*
X000508Y004963D01*
X000508Y004866D01*
X000460Y004817D01*
X000610Y004963D02*
X000658Y005011D01*
X000755Y005011D01*
X000755Y004866D02*
X000706Y004866D01*
X000698Y005449D02*
X000601Y005449D01*
X000649Y005449D02*
X000649Y005739D01*
X000601Y005739D02*
X000698Y005739D01*
X000755Y003535D02*
X000610Y003389D01*
X000803Y003389D01*
X000755Y003244D02*
X000755Y003535D01*
X000508Y003486D02*
X000508Y003389D01*
X000460Y003341D01*
X000315Y003341D01*
X000315Y003244D02*
X000315Y003535D01*
X000460Y003535D01*
X000508Y003486D01*
X000412Y003341D02*
X000508Y003244D01*
X008020Y011951D02*
X008020Y012096D01*
X008069Y012145D01*
X008165Y012145D01*
X008214Y012096D01*
X008214Y011951D01*
X008311Y011951D02*
X008020Y011951D01*
X008214Y012048D02*
X008311Y012145D01*
X008311Y012246D02*
X008311Y012439D01*
X008311Y012342D02*
X008020Y012342D01*
X008117Y012246D01*
X008069Y012540D02*
X008020Y012589D01*
X008020Y012685D01*
X008069Y012734D01*
X008117Y012734D01*
X008311Y012540D01*
X008311Y012734D01*
X008611Y012685D02*
X008611Y012589D01*
X008659Y012540D01*
X008708Y012540D01*
X008756Y012589D01*
X008756Y012685D01*
X008804Y012734D01*
X008853Y012734D01*
X008901Y012685D01*
X008901Y012589D01*
X008853Y012540D01*
X008901Y012342D02*
X008756Y012342D01*
X008659Y012439D01*
X008611Y012439D01*
X008756Y012342D02*
X008659Y012246D01*
X008611Y012246D01*
X008659Y012145D02*
X008611Y012096D01*
X008611Y011999D01*
X008659Y011951D01*
X008708Y011951D01*
X008756Y011999D01*
X008756Y012096D01*
X008804Y012145D01*
X008853Y012145D01*
X008901Y012096D01*
X008901Y011999D01*
X008853Y011951D01*
X008611Y012685D02*
X008659Y012734D01*
X008611Y012835D02*
X008901Y012835D01*
X008901Y013028D01*
X008901Y013130D02*
X008901Y013323D01*
X008901Y013424D02*
X008901Y013569D01*
X008853Y013618D01*
X008659Y013618D01*
X008611Y013569D01*
X008611Y013424D01*
X008901Y013424D01*
X008756Y013226D02*
X008756Y013130D01*
X008611Y013130D02*
X008611Y013323D01*
X008611Y013130D02*
X008901Y013130D01*
X008677Y010031D02*
X008580Y009982D01*
X008484Y009886D01*
X008629Y009886D01*
X008677Y009837D01*
X008677Y009789D01*
X008629Y009740D01*
X008532Y009740D01*
X008484Y009789D01*
X008484Y009886D01*
X008383Y009886D02*
X008383Y009982D01*
X008334Y010031D01*
X008189Y010031D01*
X008189Y009740D01*
X008189Y009837D02*
X008334Y009837D01*
X008383Y009886D01*
X008286Y009837D02*
X008383Y009740D01*
D12*
X008572Y011405D03*
X008867Y011405D03*
D13*
X008719Y011405D03*
D14*
X008758Y016365D02*
X008518Y016535D01*
X008418Y016475D01*
X008228Y016925D01*
X008248Y016915D02*
X008448Y017115D01*
X008448Y017365D01*
X008298Y017615D01*
X008048Y017665D01*
X007748Y017565D01*
X007798Y017565D01*
X007648Y017315D01*
X007748Y017015D01*
X007848Y016915D01*
X007698Y016515D01*
X007598Y016565D01*
X007398Y016415D01*
X007248Y016565D01*
X007398Y016815D01*
X007298Y017065D01*
X006998Y017165D01*
X006998Y017115D01*
X006998Y017365D01*
X007298Y017415D01*
X007398Y017715D01*
X007198Y017915D01*
X007348Y018065D01*
X007648Y017915D01*
X007948Y018065D01*
X007898Y018065D01*
X007948Y018315D01*
X008198Y018315D01*
X008198Y018015D01*
X008498Y017915D01*
X008748Y018065D01*
X008898Y017965D01*
X008748Y017665D01*
X008848Y017415D01*
X009148Y017365D01*
X009148Y017115D01*
X008848Y017115D01*
X008748Y016765D01*
X008898Y016565D01*
X008748Y016415D01*
X008548Y016565D01*
X008448Y016515D01*
X008248Y016915D01*
X008264Y016883D02*
X008781Y016883D01*
X008765Y016824D02*
X008293Y016824D01*
X008322Y016766D02*
X008748Y016766D01*
X008778Y016795D02*
X008948Y016555D01*
X008758Y016365D01*
X008806Y016473D02*
X008670Y016473D01*
X008592Y016532D02*
X008864Y016532D01*
X008879Y016590D02*
X008410Y016590D01*
X008439Y016532D02*
X008481Y016532D01*
X008381Y016649D02*
X008835Y016649D01*
X008791Y016707D02*
X008351Y016707D01*
X008274Y016941D02*
X008798Y016941D01*
X008815Y017000D02*
X008332Y017000D01*
X008391Y017058D02*
X008831Y017058D01*
X008878Y017065D02*
X009178Y017115D01*
X009178Y017375D01*
X008878Y017435D01*
X008882Y017409D02*
X008421Y017409D01*
X008448Y017351D02*
X009148Y017351D01*
X009148Y017292D02*
X008448Y017292D01*
X008448Y017234D02*
X009148Y017234D01*
X009148Y017175D02*
X008448Y017175D01*
X008448Y017117D02*
X009148Y017117D01*
X008827Y017468D02*
X008386Y017468D01*
X008351Y017526D02*
X008803Y017526D01*
X008780Y017585D02*
X008316Y017585D01*
X008156Y017643D02*
X008756Y017643D01*
X008768Y017685D02*
X008948Y017945D01*
X008758Y018125D01*
X008498Y017945D01*
X008532Y017936D02*
X008883Y017936D01*
X008854Y017877D02*
X007235Y017877D01*
X007218Y017936D02*
X007606Y017936D01*
X007628Y017945D02*
X007368Y018125D01*
X007178Y017945D01*
X007358Y017685D01*
X007393Y017702D02*
X008766Y017702D01*
X008795Y017760D02*
X007352Y017760D01*
X007294Y017819D02*
X008825Y017819D01*
X008854Y017994D02*
X008630Y017994D01*
X008727Y018053D02*
X008766Y018053D01*
X008435Y017936D02*
X007689Y017936D01*
X007806Y017994D02*
X008260Y017994D01*
X008248Y018045D02*
X008198Y018365D01*
X007928Y018365D01*
X007878Y018045D01*
X007923Y018053D02*
X008198Y018053D01*
X008198Y018111D02*
X007907Y018111D01*
X007919Y018170D02*
X008198Y018170D01*
X008198Y018228D02*
X007930Y018228D01*
X007942Y018287D02*
X008198Y018287D01*
X007983Y017643D02*
X007374Y017643D01*
X007354Y017585D02*
X007807Y017585D01*
X007774Y017526D02*
X007335Y017526D01*
X007315Y017468D02*
X007739Y017468D01*
X007704Y017409D02*
X007264Y017409D01*
X007248Y017435D02*
X006948Y017375D01*
X006948Y017115D01*
X007248Y017065D01*
X007300Y017058D02*
X007733Y017058D01*
X007714Y017117D02*
X007142Y017117D01*
X006998Y017175D02*
X007694Y017175D01*
X007675Y017234D02*
X006998Y017234D01*
X006998Y017292D02*
X007655Y017292D01*
X007669Y017351D02*
X006998Y017351D01*
X007277Y017994D02*
X007489Y017994D01*
X007372Y018053D02*
X007335Y018053D01*
X007324Y017000D02*
X007763Y017000D01*
X007821Y016941D02*
X007347Y016941D01*
X007371Y016883D02*
X007836Y016883D01*
X007814Y016824D02*
X007394Y016824D01*
X007348Y016795D02*
X007188Y016555D01*
X007368Y016365D01*
X007608Y016535D01*
X007708Y016475D01*
X007908Y016925D01*
X008778Y016795D02*
X008801Y016836D01*
X008822Y016879D01*
X008840Y016924D01*
X008855Y016969D01*
X008868Y017015D01*
X008878Y017062D01*
X008876Y017435D02*
X008861Y017487D01*
X008842Y017538D01*
X008820Y017588D01*
X008795Y017636D01*
X008766Y017683D01*
X008228Y016935D02*
X008261Y016953D01*
X008291Y016974D01*
X008320Y016998D01*
X008346Y017025D01*
X008368Y017054D01*
X008388Y017086D01*
X008405Y017119D01*
X008418Y017154D01*
X008427Y017190D01*
X008433Y017227D01*
X008435Y017264D01*
X008433Y017301D01*
X008428Y017338D01*
X008418Y017374D01*
X008406Y017409D01*
X008389Y017443D01*
X008370Y017474D01*
X008347Y017504D01*
X008321Y017531D01*
X008293Y017555D01*
X008262Y017576D01*
X008230Y017594D01*
X008196Y017609D01*
X008160Y017620D01*
X008124Y017628D01*
X008087Y017632D01*
X008049Y017632D01*
X008012Y017628D01*
X007976Y017620D01*
X007940Y017609D01*
X007906Y017594D01*
X007874Y017576D01*
X007843Y017555D01*
X007815Y017531D01*
X007789Y017504D01*
X007766Y017474D01*
X007747Y017443D01*
X007730Y017409D01*
X007718Y017374D01*
X007708Y017338D01*
X007703Y017301D01*
X007701Y017264D01*
X007703Y017227D01*
X007709Y017190D01*
X007718Y017154D01*
X007731Y017119D01*
X007748Y017086D01*
X007768Y017054D01*
X007790Y017025D01*
X007816Y016998D01*
X007845Y016974D01*
X007875Y016953D01*
X007908Y016935D01*
X007351Y016798D02*
X007323Y016848D01*
X007299Y016900D01*
X007278Y016953D01*
X007261Y017008D01*
X007248Y017064D01*
X007368Y016766D02*
X007792Y016766D01*
X007770Y016707D02*
X007333Y016707D01*
X007298Y016649D02*
X007748Y016649D01*
X007726Y016590D02*
X007263Y016590D01*
X007281Y016532D02*
X007553Y016532D01*
X007475Y016473D02*
X007339Y016473D01*
X007664Y016532D02*
X007704Y016532D01*
X007631Y017948D02*
X007676Y017973D01*
X007723Y017996D01*
X007771Y018015D01*
X007820Y018032D01*
X007870Y018045D01*
X007358Y017680D02*
X007331Y017633D01*
X007307Y017586D01*
X007286Y017537D01*
X007268Y017486D01*
X007254Y017435D01*
X008253Y018048D02*
X008305Y018034D01*
X008356Y018017D01*
X008406Y017997D01*
X008455Y017974D01*
X008502Y017947D01*
X005343Y007277D02*
X005343Y007103D01*
X005343Y007190D02*
X005083Y007190D01*
X005169Y007103D01*
X005126Y006982D02*
X005083Y006939D01*
X005083Y006809D01*
X005343Y006809D01*
X005343Y006939D01*
X005299Y006982D01*
X005126Y006982D01*
X005699Y006251D02*
X005736Y006251D01*
X005699Y006251D02*
X005699Y005613D01*
X005736Y005613D01*
X006053Y005613D02*
X006090Y005613D01*
X006427Y005613D02*
X006464Y005613D01*
X006781Y005613D02*
X006819Y005613D01*
X006819Y006251D01*
X006781Y006251D01*
X006464Y006251D02*
X006053Y006251D01*
X001621Y007091D02*
X001623Y007104D01*
X001628Y007116D01*
X001637Y007126D01*
X001648Y007133D01*
X001660Y007137D01*
X001674Y007137D01*
X001686Y007133D01*
X001697Y007126D01*
X001706Y007116D01*
X001711Y007104D01*
X001713Y007091D01*
X001711Y007078D01*
X001706Y007066D01*
X001697Y007056D01*
X001686Y007049D01*
X001674Y007045D01*
X001660Y007045D01*
X001648Y007049D01*
X001637Y007056D01*
X001628Y007066D01*
X001623Y007078D01*
X001621Y007091D01*
X001633Y006933D02*
X001633Y006246D01*
X000452Y006246D01*
X000452Y006933D01*
X001633Y006933D01*
D15*
X005592Y012026D03*
X005602Y012026D03*
X005612Y012026D03*
X005622Y012026D03*
X005632Y012026D03*
X005642Y012026D03*
X005652Y012026D03*
X005662Y012026D03*
X005672Y012026D03*
X005682Y012026D03*
X005692Y012026D03*
X005702Y012026D03*
X005712Y012026D03*
X005722Y012026D03*
X005732Y012026D03*
X005742Y012026D03*
X005752Y012026D03*
X005762Y012026D03*
X005792Y012026D03*
X005802Y012026D03*
X005812Y012026D03*
X005822Y012026D03*
X005832Y012026D03*
X005842Y012026D03*
X005852Y012026D03*
X005862Y012026D03*
X005872Y012026D03*
X005882Y012026D03*
X005892Y012026D03*
X005902Y012026D03*
X005912Y012026D03*
X005922Y012026D03*
X005932Y012026D03*
X005942Y012026D03*
X005952Y012026D03*
X005962Y012026D03*
X005972Y012026D03*
X005982Y012026D03*
X005992Y012026D03*
X006002Y012026D03*
X006012Y012026D03*
X006022Y012026D03*
X006022Y012216D03*
X006012Y012216D03*
X006002Y012216D03*
X005992Y012216D03*
X005982Y012216D03*
X005972Y012216D03*
X005962Y012216D03*
X005952Y012216D03*
X005942Y012216D03*
X005932Y012216D03*
X005922Y012216D03*
X005912Y012216D03*
X005902Y012216D03*
X005892Y012216D03*
X005882Y012216D03*
X005872Y012216D03*
X005862Y012216D03*
X005852Y012216D03*
X005842Y012216D03*
X005832Y012216D03*
X005822Y012216D03*
X005812Y012216D03*
X005802Y012216D03*
X005782Y012206D03*
X005772Y012206D03*
X005772Y012366D03*
X005782Y012366D03*
X005792Y012366D03*
X005802Y012366D03*
X005812Y012366D03*
X005822Y012366D03*
X005832Y012366D03*
X005842Y012366D03*
X005852Y012366D03*
X005862Y012366D03*
X005872Y012366D03*
X005882Y012366D03*
X005892Y012366D03*
X005902Y012366D03*
X005912Y012366D03*
X005922Y012366D03*
X005932Y012366D03*
X005942Y012366D03*
X005952Y012366D03*
X005982Y012376D03*
X005952Y012596D03*
X005942Y012596D03*
X005932Y012596D03*
X005922Y012596D03*
X005912Y012596D03*
X005902Y012596D03*
X005892Y012596D03*
X005882Y012596D03*
X005872Y012596D03*
X005862Y012596D03*
X005852Y012596D03*
X005842Y012596D03*
X005832Y012596D03*
X005822Y012596D03*
X005812Y012596D03*
X005802Y012596D03*
X005792Y012596D03*
X005782Y012596D03*
X005772Y012596D03*
X005792Y012806D03*
X005802Y012806D03*
X005812Y012806D03*
X005822Y012806D03*
X005832Y012806D03*
X005842Y012806D03*
X005852Y012806D03*
X005862Y012806D03*
X005872Y012806D03*
X005882Y012806D03*
X005892Y012806D03*
X005902Y012806D03*
X005912Y012806D03*
X005922Y012806D03*
X005932Y012806D03*
X005942Y012806D03*
X005952Y012806D03*
X005962Y012806D03*
X005992Y012806D03*
X006002Y012806D03*
X006012Y012806D03*
X006022Y012806D03*
X006032Y012806D03*
X006042Y012806D03*
X006052Y012806D03*
X006062Y012806D03*
X006072Y012806D03*
X006082Y012806D03*
X006092Y012806D03*
X006102Y012806D03*
X006112Y012806D03*
X006122Y012806D03*
X005962Y012986D03*
X005952Y012996D03*
X005932Y013006D03*
X005922Y013006D03*
X005882Y013016D03*
X005872Y013016D03*
X005862Y013016D03*
X005852Y013016D03*
X005812Y013006D03*
X005802Y013006D03*
X005782Y012996D03*
X005772Y012986D03*
X005802Y013116D03*
X005812Y013116D03*
X005832Y013126D03*
X005762Y013136D03*
X005912Y013256D03*
X005922Y013266D03*
X005932Y013266D03*
X005972Y013256D03*
X005982Y013246D03*
X005972Y013396D03*
X006012Y013396D03*
X005792Y013396D03*
X005752Y013396D03*
X005812Y013896D03*
X005822Y013896D03*
X005762Y013916D03*
X005772Y014066D03*
X005772Y014216D03*
X005782Y014216D03*
X005792Y014216D03*
X005802Y014216D03*
X005812Y014216D03*
X005822Y014216D03*
X005832Y014216D03*
X005842Y014216D03*
X005852Y014216D03*
X005862Y014216D03*
X005872Y014216D03*
X005882Y014216D03*
X005892Y014216D03*
X005902Y014216D03*
X005912Y014216D03*
X005922Y014216D03*
X005932Y014216D03*
X005942Y014216D03*
X005952Y014216D03*
X005962Y014216D03*
X005972Y014216D03*
X005982Y014216D03*
X005992Y014216D03*
X006002Y014216D03*
X006012Y014216D03*
X006022Y014216D03*
X006022Y014106D03*
X006032Y014106D03*
X006012Y014096D03*
X006082Y014076D03*
X006122Y013986D03*
X006072Y013886D03*
X005952Y013906D03*
X005762Y014216D03*
X005752Y014216D03*
X005742Y014216D03*
X005732Y014216D03*
X005652Y014216D03*
X005612Y014216D03*
X005772Y014386D03*
X005782Y014386D03*
X005792Y014386D03*
X005802Y014386D03*
X005812Y014386D03*
X005822Y014386D03*
X005832Y014386D03*
X005842Y014386D03*
X005852Y014386D03*
X005862Y014386D03*
X005872Y014386D03*
X005882Y014386D03*
X005892Y014386D03*
X005902Y014386D03*
X005912Y014386D03*
X005922Y014386D03*
X005932Y014386D03*
X005942Y014386D03*
X005952Y014386D03*
X005982Y014396D03*
X005982Y014596D03*
X005992Y014596D03*
X006002Y014596D03*
X006012Y014596D03*
X006022Y014596D03*
X005972Y014596D03*
X005962Y014596D03*
X005952Y014596D03*
X005942Y014596D03*
X005932Y014596D03*
X005922Y014596D03*
X005912Y014596D03*
X005902Y014596D03*
X005892Y014596D03*
X005882Y014596D03*
X005872Y014596D03*
X005862Y014596D03*
X005852Y014596D03*
X005842Y014596D03*
X005832Y014596D03*
X005822Y014596D03*
X005812Y014596D03*
X005802Y014596D03*
X005792Y014596D03*
X005762Y014596D03*
X005752Y014596D03*
X005742Y014596D03*
X005732Y014596D03*
X005722Y014596D03*
X005712Y014596D03*
X005702Y014596D03*
X005692Y014596D03*
X005682Y014596D03*
X005672Y014596D03*
X005662Y014596D03*
X005652Y014596D03*
X005642Y014596D03*
X005632Y014596D03*
X005622Y014596D03*
X005612Y014596D03*
X005602Y014596D03*
X005592Y014596D03*
X005772Y014776D03*
X005782Y014776D03*
X005802Y014786D03*
X005812Y014786D03*
X005822Y014786D03*
X005832Y014786D03*
X005842Y014786D03*
X005852Y014786D03*
X005862Y014786D03*
X005872Y014786D03*
X005882Y014786D03*
X005892Y014786D03*
X005902Y014786D03*
X005912Y014786D03*
X005922Y014786D03*
X005932Y014786D03*
X005942Y014786D03*
X005952Y014786D03*
X005962Y014786D03*
X005972Y014786D03*
X005982Y014786D03*
X005992Y014786D03*
X006002Y014786D03*
X006012Y014786D03*
X006022Y014786D03*
X005972Y014936D03*
X005962Y014936D03*
X005942Y014926D03*
X005932Y014926D03*
X005922Y014926D03*
X005912Y014926D03*
X005902Y014926D03*
X005892Y014926D03*
X005882Y014926D03*
X005872Y014926D03*
X005862Y014926D03*
X005852Y014926D03*
X005842Y014926D03*
X005832Y014926D03*
X005822Y014926D03*
X005812Y014926D03*
X005802Y014926D03*
X005792Y014926D03*
X005782Y014926D03*
X005772Y014926D03*
X005762Y014926D03*
X005752Y014926D03*
X005742Y014926D03*
X005732Y014926D03*
X005732Y015126D03*
X005742Y015126D03*
X005752Y015126D03*
X005762Y015126D03*
X005772Y015126D03*
X005782Y015126D03*
X005792Y015126D03*
X005802Y015126D03*
X005812Y015126D03*
X005822Y015126D03*
X005832Y015126D03*
X005842Y015126D03*
X005852Y015126D03*
X005862Y015126D03*
X005872Y015126D03*
X005882Y015126D03*
X005892Y015126D03*
X005902Y015126D03*
X005912Y015126D03*
X005922Y015126D03*
X005932Y015126D03*
X005942Y015126D03*
X005952Y015126D03*
X005952Y015266D03*
X005962Y015266D03*
X005942Y015266D03*
X005932Y015266D03*
X005922Y015266D03*
X005912Y015266D03*
X005902Y015266D03*
X005892Y015266D03*
X005882Y015266D03*
X005872Y015266D03*
X005862Y015266D03*
X005852Y015266D03*
X005842Y015266D03*
X005832Y015266D03*
X005822Y015266D03*
X005812Y015266D03*
X005802Y015266D03*
X005792Y015266D03*
X005762Y015266D03*
X005752Y015266D03*
X005742Y015266D03*
X005732Y015266D03*
X005722Y015266D03*
X005712Y015266D03*
X005702Y015266D03*
X005692Y015266D03*
X005682Y015266D03*
X005672Y015266D03*
X005662Y015266D03*
X005652Y015266D03*
X005642Y015266D03*
X005632Y015266D03*
X005622Y015266D03*
X005612Y015266D03*
X005602Y015266D03*
X005592Y015266D03*
X005782Y015456D03*
X005792Y015466D03*
X005802Y015466D03*
X005822Y015476D03*
X005832Y015476D03*
X005842Y015476D03*
X005852Y015476D03*
X005862Y015476D03*
X005872Y015476D03*
X005882Y015476D03*
X005892Y015476D03*
X005902Y015476D03*
X005912Y015476D03*
X005942Y015466D03*
X005962Y015456D03*
X005972Y015446D03*
X005972Y015586D03*
X006012Y015586D03*
X005952Y015716D03*
X005932Y015706D03*
X005882Y015696D03*
X005872Y015696D03*
X005862Y015696D03*
X005812Y015706D03*
X005792Y015716D03*
X005782Y015726D03*
X005762Y015876D03*
X005812Y015986D03*
X005822Y015986D03*
X005792Y015996D03*
X005782Y016006D03*
X005772Y016016D03*
X005862Y015976D03*
X005872Y015976D03*
X005882Y015976D03*
X005922Y015986D03*
X005932Y015986D03*
X005952Y015996D03*
X005962Y016006D03*
X005972Y016016D03*
X005982Y015876D03*
X005972Y016176D03*
X005962Y016186D03*
X005952Y016196D03*
X005932Y016206D03*
X005922Y016206D03*
X005882Y016216D03*
X005872Y016216D03*
X005862Y016216D03*
X005822Y016206D03*
X005812Y016206D03*
X005792Y016196D03*
X005782Y016186D03*
X005772Y016176D03*
X005792Y016346D03*
X005802Y016346D03*
X005812Y016346D03*
X005822Y016346D03*
X005832Y016346D03*
X005842Y016346D03*
X005852Y016346D03*
X005862Y016346D03*
X005872Y016346D03*
X005882Y016346D03*
X005892Y016346D03*
X005902Y016346D03*
X005912Y016346D03*
X005922Y016346D03*
X005932Y016346D03*
X005942Y016346D03*
X005952Y016346D03*
X005962Y016346D03*
X005972Y016346D03*
X005982Y016346D03*
X005992Y016346D03*
X006002Y016346D03*
X006012Y016346D03*
X006022Y016346D03*
X006022Y016516D03*
X006012Y016516D03*
X006002Y016516D03*
X005992Y016516D03*
X005982Y016516D03*
X005972Y016516D03*
X005962Y016516D03*
X005952Y016516D03*
X005942Y016516D03*
X005932Y016516D03*
X005922Y016516D03*
X005912Y016516D03*
X005902Y016516D03*
X005892Y016516D03*
X005882Y016516D03*
X005872Y016516D03*
X005862Y016516D03*
X005852Y016516D03*
X005842Y016516D03*
X005832Y016516D03*
X005822Y016516D03*
X005812Y016516D03*
X005802Y016516D03*
X005782Y016686D03*
X005772Y016686D03*
X005802Y016696D03*
X005812Y016696D03*
X005822Y016696D03*
X005832Y016696D03*
X005842Y016696D03*
X005852Y016696D03*
X005862Y016696D03*
X005872Y016696D03*
X005882Y016696D03*
X005892Y016696D03*
X005902Y016696D03*
X005912Y016696D03*
X005922Y016696D03*
X005932Y016696D03*
X005942Y016696D03*
X005952Y016696D03*
X005962Y016696D03*
X005972Y016696D03*
X005982Y016696D03*
X005992Y016696D03*
X006002Y016696D03*
X006012Y016696D03*
X006022Y016696D03*
X006082Y017046D03*
X006062Y017056D03*
X006052Y017056D03*
X006042Y017056D03*
X006032Y017056D03*
X006022Y017056D03*
X006012Y017056D03*
X006002Y017056D03*
X005992Y017056D03*
X005982Y017056D03*
X005972Y017056D03*
X005962Y017056D03*
X005952Y017056D03*
X005942Y017056D03*
X005932Y017056D03*
X005922Y017056D03*
X005912Y017056D03*
X005902Y017056D03*
X005892Y017056D03*
X005882Y017056D03*
X005872Y017056D03*
X005862Y017056D03*
X005852Y017056D03*
X005842Y017056D03*
X005832Y017056D03*
X005822Y017056D03*
X005812Y017056D03*
X005802Y017056D03*
X005792Y017056D03*
X005782Y017056D03*
X005772Y017056D03*
X005762Y017056D03*
X005752Y017056D03*
X005742Y017056D03*
X005732Y017056D03*
X005652Y017056D03*
X005612Y017056D03*
X005772Y017206D03*
X005902Y017216D03*
X005942Y017186D03*
X005952Y017186D03*
X005962Y017186D03*
X005982Y017196D03*
X005992Y017306D03*
X005952Y017376D03*
X005942Y017376D03*
X005932Y017376D03*
X005922Y017376D03*
X005912Y017376D03*
X005902Y017376D03*
X005892Y017376D03*
X005852Y017376D03*
X005842Y017376D03*
X005832Y017376D03*
X005822Y017376D03*
X005782Y017366D03*
X005772Y017356D03*
X005792Y017516D03*
X005802Y017516D03*
X005812Y017516D03*
X005822Y017516D03*
X005832Y017516D03*
X005842Y017516D03*
X005852Y017516D03*
X005862Y017516D03*
X005872Y017516D03*
X005882Y017516D03*
X005892Y017516D03*
X005902Y017516D03*
X005912Y017516D03*
X005922Y017516D03*
X005932Y017516D03*
X005942Y017516D03*
X005952Y017516D03*
X005962Y017516D03*
X005972Y017516D03*
X005982Y017516D03*
X005992Y017516D03*
X006002Y017516D03*
X006012Y017516D03*
X006022Y017516D03*
X006022Y017706D03*
X006012Y017706D03*
X006002Y017706D03*
X005992Y017706D03*
X005982Y017706D03*
X005972Y017706D03*
X005962Y017706D03*
X005952Y017706D03*
X005942Y017706D03*
X005932Y017706D03*
X005922Y017706D03*
X005912Y017706D03*
X005902Y017706D03*
X005892Y017706D03*
X005882Y017706D03*
X005872Y017706D03*
X005862Y017706D03*
X005852Y017706D03*
X005842Y017706D03*
X005832Y017706D03*
X005822Y017706D03*
X005812Y017706D03*
X005802Y017706D03*
X005782Y017696D03*
X005772Y017696D03*
X005712Y017866D03*
X005702Y017876D03*
X005692Y017886D03*
X005692Y017976D03*
X005702Y017976D03*
X005712Y017976D03*
X005722Y017976D03*
X005732Y017976D03*
X005742Y017976D03*
X005752Y017976D03*
X005762Y017976D03*
X005772Y017976D03*
X005782Y017976D03*
X005792Y017976D03*
X005802Y017976D03*
X005812Y017976D03*
X005822Y017976D03*
X005832Y017976D03*
X005842Y017976D03*
X005852Y017976D03*
X005862Y017976D03*
X005872Y017976D03*
X005882Y017976D03*
X005892Y017976D03*
X005902Y017976D03*
X005912Y017976D03*
X005922Y017976D03*
X005932Y017976D03*
X005942Y017976D03*
X005952Y017976D03*
X005962Y017976D03*
X005972Y017976D03*
X005982Y017976D03*
X005832Y018186D03*
X005812Y018176D03*
X005802Y018176D03*
X005762Y018196D03*
X005912Y018316D03*
X005922Y018326D03*
X005932Y018326D03*
X005972Y018316D03*
X005982Y018306D03*
X005682Y017976D03*
X005672Y017976D03*
X005612Y017976D03*
X005982Y012606D03*
D16*
X005972Y012601D03*
X005962Y012601D03*
X005962Y012371D03*
X005972Y012371D03*
X005792Y012211D03*
X005732Y012371D03*
X005722Y012371D03*
X005712Y012371D03*
X005702Y012371D03*
X005692Y012371D03*
X005682Y012371D03*
X005672Y012371D03*
X005662Y012371D03*
X005662Y012601D03*
X005672Y012601D03*
X005682Y012601D03*
X005692Y012601D03*
X005702Y012601D03*
X005712Y012601D03*
X005722Y012601D03*
X005732Y012601D03*
X005732Y012801D03*
X005742Y012801D03*
X005752Y012801D03*
X005762Y012801D03*
X005792Y013001D03*
X005822Y013011D03*
X005832Y013011D03*
X005842Y013011D03*
X005892Y013011D03*
X005902Y013011D03*
X005912Y013011D03*
X005942Y013001D03*
X005982Y013111D03*
X005962Y013261D03*
X005952Y013261D03*
X005942Y013261D03*
X005822Y013121D03*
X005792Y013121D03*
X005782Y013121D03*
X005772Y013121D03*
X005962Y013531D03*
X006012Y013511D03*
X005912Y013551D03*
X005862Y013571D03*
X005812Y013591D03*
X005782Y013601D03*
X005762Y013611D03*
X005732Y013621D03*
X005712Y013631D03*
X005682Y013641D03*
X005632Y013661D03*
X005682Y013821D03*
X005712Y013811D03*
X005732Y013801D03*
X005762Y013791D03*
X005782Y013781D03*
X005812Y013771D03*
X005862Y013751D03*
X005912Y013731D03*
X005962Y013711D03*
X006012Y013691D03*
X006032Y013881D03*
X006042Y013881D03*
X006052Y013881D03*
X006062Y013881D03*
X006012Y013891D03*
X005942Y013901D03*
X005872Y013921D03*
X005862Y013911D03*
X005852Y013901D03*
X005842Y013901D03*
X005832Y013901D03*
X005802Y013901D03*
X005792Y013901D03*
X005782Y013901D03*
X005772Y013911D03*
X005782Y014071D03*
X005792Y014071D03*
X005812Y014081D03*
X005822Y014081D03*
X005842Y014071D03*
X005852Y014071D03*
X005862Y014061D03*
X005872Y014051D03*
X006042Y014101D03*
X006052Y014101D03*
X006062Y014101D03*
X006072Y014091D03*
X005972Y014391D03*
X005962Y014391D03*
X005792Y014781D03*
X005952Y014931D03*
X005982Y015071D03*
X005982Y015131D03*
X005992Y015131D03*
X006002Y015131D03*
X006012Y015131D03*
X006012Y015261D03*
X006002Y015261D03*
X005992Y015261D03*
X005952Y015461D03*
X005932Y015471D03*
X005922Y015471D03*
X005812Y015471D03*
X005822Y015701D03*
X005832Y015701D03*
X005842Y015701D03*
X005852Y015701D03*
X005892Y015701D03*
X005902Y015701D03*
X005912Y015701D03*
X005922Y015701D03*
X005942Y015711D03*
X005962Y015721D03*
X005962Y015581D03*
X005802Y015711D03*
X005722Y015811D03*
X005802Y015991D03*
X005832Y015981D03*
X005842Y015981D03*
X005852Y015981D03*
X005892Y015981D03*
X005902Y015981D03*
X005912Y015981D03*
X005942Y015991D03*
X005942Y016201D03*
X005912Y016211D03*
X005902Y016211D03*
X005892Y016211D03*
X005852Y016211D03*
X005842Y016211D03*
X005832Y016211D03*
X005802Y016201D03*
X005762Y016341D03*
X005752Y016341D03*
X005742Y016341D03*
X005732Y016341D03*
X005762Y016491D03*
X005772Y016501D03*
X005782Y016501D03*
X005762Y016561D03*
X005792Y016691D03*
X005862Y016861D03*
X005912Y016841D03*
X005962Y016821D03*
X006012Y016801D03*
X006122Y016991D03*
X006072Y017051D03*
X005972Y017191D03*
X005932Y017191D03*
X005922Y017191D03*
X005912Y017201D03*
X005982Y017381D03*
X005992Y017381D03*
X006002Y017381D03*
X006012Y017381D03*
X005812Y017371D03*
X005802Y017371D03*
X005792Y017371D03*
X005762Y017511D03*
X005752Y017511D03*
X005742Y017511D03*
X005732Y017511D03*
X005792Y017701D03*
X005602Y017981D03*
X005772Y018181D03*
X005782Y018181D03*
X005792Y018181D03*
X005822Y018181D03*
X005942Y018321D03*
X005952Y018321D03*
X005962Y018321D03*
X005982Y018171D03*
X005632Y016951D03*
X005682Y016931D03*
X005712Y016921D03*
X005732Y016911D03*
X005762Y016901D03*
X005782Y016891D03*
X005812Y016881D03*
X005732Y014391D03*
X005722Y014391D03*
X005712Y014391D03*
X005702Y014391D03*
X005692Y014391D03*
X005682Y014391D03*
X005672Y014391D03*
X005662Y014391D03*
X005632Y013841D03*
D17*
X005752Y014066D03*
X005892Y013986D03*
X006112Y013986D03*
X005992Y014436D03*
X006002Y015006D03*
X006002Y015376D03*
X005742Y015386D03*
X005752Y016446D03*
X006002Y017256D03*
X005742Y018256D03*
X005742Y013196D03*
X005742Y012926D03*
X006002Y012916D03*
X005992Y012646D03*
X005992Y012416D03*
D18*
X005772Y012036D03*
X005772Y012816D03*
X005892Y013236D03*
X005992Y013396D03*
X005772Y013396D03*
X005752Y013936D03*
X005632Y014216D03*
X005772Y014606D03*
X006002Y014086D03*
X005992Y015586D03*
X005772Y016356D03*
X005632Y017056D03*
X005762Y017216D03*
X005862Y017366D03*
X005972Y017366D03*
X005772Y017526D03*
X005632Y017966D03*
X005892Y018296D03*
X006112Y017006D03*
D19*
X005882Y017311D03*
X005752Y015811D03*
X005752Y014411D03*
X005762Y014411D03*
X005742Y014411D03*
X006102Y013981D03*
X005762Y012621D03*
X005752Y012621D03*
X005742Y012621D03*
X005742Y012391D03*
X005752Y012391D03*
X005762Y012391D03*
D20*
X005982Y012821D03*
X005992Y013131D03*
X005972Y015111D03*
X005982Y015281D03*
X005772Y015281D03*
X005732Y016451D03*
X006102Y017011D03*
X005642Y017961D03*
X005992Y018191D03*
D21*
X006092Y013986D03*
D22*
X005962Y013936D03*
X006012Y014436D03*
X005732Y014716D03*
X006012Y015376D03*
X006092Y017016D03*
X005892Y017246D03*
X005732Y017636D03*
X005852Y018216D03*
X005882Y018276D03*
X005732Y018256D03*
X005882Y013216D03*
X005852Y013156D03*
X005732Y013196D03*
X005732Y012926D03*
X006012Y012646D03*
X006012Y012416D03*
X005732Y012146D03*
D23*
X005762Y012191D03*
X005782Y012031D03*
X005782Y012811D03*
X005762Y012981D03*
X005842Y013141D03*
X005902Y013251D03*
X005992Y013231D03*
X006002Y013401D03*
X005982Y013401D03*
X005782Y013401D03*
X005762Y013401D03*
X005972Y012981D03*
X005982Y012971D03*
X005972Y012811D03*
X006082Y013901D03*
X005782Y014601D03*
X005762Y014761D03*
X005982Y014951D03*
X005962Y015121D03*
X005972Y015271D03*
X005982Y015431D03*
X005982Y015581D03*
X006002Y015581D03*
X005972Y015731D03*
X005982Y015741D03*
X005772Y015731D03*
X005762Y015741D03*
X005772Y015451D03*
X005762Y015441D03*
X005782Y015271D03*
X005762Y016021D03*
X005762Y016171D03*
X005782Y016351D03*
X005792Y016521D03*
X005762Y016671D03*
X005642Y017061D03*
X005622Y017061D03*
X005762Y017351D03*
X005782Y017521D03*
X005762Y017681D03*
X005682Y017901D03*
X005672Y017911D03*
X005622Y017971D03*
X005842Y018201D03*
X005902Y018311D03*
X005992Y018291D03*
X005962Y017371D03*
X005992Y017211D03*
X005982Y016171D03*
X005982Y016021D03*
X005642Y014221D03*
X005622Y014221D03*
D24*
X005662Y014216D03*
X005722Y013986D03*
X005592Y013866D03*
X005592Y013686D03*
X005802Y013396D03*
X005772Y013266D03*
X006022Y013396D03*
X006052Y013486D03*
X006052Y013666D03*
X006022Y015586D03*
X005962Y015886D03*
X006052Y016776D03*
X005662Y017056D03*
X005592Y016976D03*
X005732Y017866D03*
X005772Y018326D03*
D25*
X005762Y018316D03*
X005722Y018256D03*
X005722Y017866D03*
X005722Y017636D03*
X005762Y017566D03*
X005722Y017296D03*
X005602Y017056D03*
X005602Y016966D03*
X005612Y016956D03*
X005622Y016956D03*
X005642Y016946D03*
X005652Y016946D03*
X005662Y016936D03*
X005672Y016936D03*
X005692Y016926D03*
X005702Y016926D03*
X005722Y016916D03*
X005742Y016906D03*
X005752Y016906D03*
X005772Y016896D03*
X005792Y016886D03*
X005802Y016886D03*
X005822Y016876D03*
X005832Y016876D03*
X005842Y016866D03*
X005852Y016866D03*
X005872Y016856D03*
X005882Y016856D03*
X005892Y016846D03*
X005902Y016846D03*
X005922Y016836D03*
X005932Y016836D03*
X005942Y016826D03*
X005952Y016826D03*
X005972Y016816D03*
X005982Y016816D03*
X005992Y016806D03*
X006002Y016806D03*
X006022Y016796D03*
X006032Y016796D03*
X006042Y016786D03*
X005772Y016546D03*
X005722Y016626D03*
X005762Y016386D03*
X005722Y016096D03*
X006022Y016096D03*
X005972Y015886D03*
X006022Y015806D03*
X006022Y015376D03*
X006022Y015256D03*
X006022Y015136D03*
X006022Y014996D03*
X005762Y015316D03*
X005722Y014716D03*
X005762Y014646D03*
X005652Y014396D03*
X005642Y014396D03*
X005632Y014396D03*
X005602Y014216D03*
X005802Y014076D03*
X005832Y014076D03*
X005912Y013916D03*
X005922Y013906D03*
X005932Y013906D03*
X006002Y013906D03*
X006022Y013886D03*
X005932Y013726D03*
X005922Y013726D03*
X005942Y013716D03*
X005952Y013716D03*
X005972Y013706D03*
X005982Y013706D03*
X005992Y013696D03*
X006002Y013696D03*
X006022Y013686D03*
X006032Y013686D03*
X006042Y013676D03*
X005902Y013736D03*
X005892Y013736D03*
X005882Y013746D03*
X005872Y013746D03*
X005852Y013756D03*
X005842Y013756D03*
X005832Y013766D03*
X005822Y013766D03*
X005802Y013776D03*
X005792Y013776D03*
X005772Y013786D03*
X005752Y013796D03*
X005742Y013796D03*
X005722Y013806D03*
X005702Y013816D03*
X005692Y013816D03*
X005672Y013826D03*
X005662Y013826D03*
X005652Y013836D03*
X005642Y013836D03*
X005622Y013846D03*
X005612Y013846D03*
X005602Y013856D03*
X005602Y013676D03*
X005612Y013666D03*
X005622Y013666D03*
X005642Y013656D03*
X005652Y013656D03*
X005662Y013646D03*
X005672Y013646D03*
X005692Y013636D03*
X005702Y013636D03*
X005722Y013626D03*
X005742Y013616D03*
X005752Y013616D03*
X005772Y013606D03*
X005792Y013596D03*
X005802Y013596D03*
X005822Y013586D03*
X005832Y013586D03*
X005842Y013576D03*
X005852Y013576D03*
X005872Y013566D03*
X005882Y013566D03*
X005892Y013556D03*
X005902Y013556D03*
X005922Y013546D03*
X005932Y013546D03*
X005942Y013536D03*
X005952Y013536D03*
X005972Y013526D03*
X005982Y013526D03*
X005992Y013516D03*
X006002Y013516D03*
X006022Y013506D03*
X006032Y013506D03*
X006042Y013496D03*
X005962Y013396D03*
X005762Y013256D03*
X005722Y013196D03*
X005742Y013396D03*
X005722Y012926D03*
X005762Y012856D03*
X005652Y012606D03*
X005642Y012606D03*
X005632Y012606D03*
X005632Y012376D03*
X005642Y012376D03*
X005652Y012376D03*
X005722Y012146D03*
X005762Y012076D03*
X006022Y012416D03*
X006022Y012646D03*
X006022Y014436D03*
X006022Y017246D03*
X005982Y017326D03*
X006022Y017386D03*
D26*
X005782Y017201D03*
X005722Y017041D03*
X005782Y016541D03*
X005722Y016451D03*
X005772Y015881D03*
X005722Y015391D03*
X005982Y014481D03*
X006022Y013181D03*
X005972Y013111D03*
X006022Y012911D03*
X005982Y012691D03*
X005982Y012461D03*
X005972Y018171D03*
X006022Y018241D03*
D27*
X006022Y017971D03*
X006012Y017971D03*
X006002Y017971D03*
X005992Y017971D03*
X005742Y014021D03*
D28*
X005762Y014081D03*
X005902Y013971D03*
X005862Y013181D03*
X006012Y013181D03*
X006012Y012911D03*
X006012Y015001D03*
X005732Y015391D03*
X005742Y016451D03*
X005732Y016621D03*
X006012Y017251D03*
X005652Y017951D03*
X005862Y018241D03*
X006012Y018241D03*
D29*
X005872Y018256D03*
X005662Y017946D03*
X005732Y017286D03*
X005732Y016096D03*
X005732Y015806D03*
X006012Y015806D03*
X006012Y016096D03*
X005732Y013986D03*
X005872Y013196D03*
D30*
X006002Y012651D03*
X006002Y012421D03*
X005742Y012141D03*
X006002Y014441D03*
X005742Y014711D03*
X005742Y016621D03*
X005742Y017631D03*
D31*
X005752Y017631D03*
X005872Y017331D03*
X005752Y016621D03*
X005742Y015811D03*
X005752Y014711D03*
X006002Y013181D03*
X005752Y012141D03*
X006002Y018241D03*
D32*
X005742Y017286D03*
X005742Y016096D03*
X006002Y016096D03*
X006002Y015806D03*
X005992Y015376D03*
X005992Y015006D03*
X005752Y015386D03*
X005882Y013986D03*
X005752Y012926D03*
X005992Y012916D03*
D33*
X005992Y014011D03*
D34*
X005992Y015806D03*
X005752Y017286D03*
D35*
X005752Y016096D03*
X005992Y016096D03*
X005982Y014006D03*
X005972Y013986D03*
D36*
X005752Y013201D03*
X005752Y018261D03*
D37*
X007991Y009416D02*
X008857Y009416D01*
X009251Y009180D02*
X009448Y008983D01*
X009448Y007802D01*
X009251Y007605D01*
X008857Y007369D02*
X007991Y007369D01*
X007597Y007605D02*
X007400Y007802D01*
X007400Y008983D01*
X007597Y009180D01*
X004093Y005676D02*
X001731Y005676D01*
X001731Y005243D01*
X001731Y004613D02*
X001731Y003668D01*
X001731Y002999D02*
X001731Y002487D01*
X001731Y001857D02*
X001731Y000912D01*
X004093Y000912D01*
X004093Y005007D01*
D38*
X005892Y009033D03*
X005894Y009058D03*
X005892Y009060D03*
X005889Y009058D03*
X005907Y009070D03*
X005909Y009070D03*
X005907Y009078D03*
X005914Y009083D03*
X005919Y009090D03*
X005922Y009090D03*
X005924Y009113D03*
X005927Y009128D03*
X005934Y009125D03*
X005937Y009130D03*
X005939Y009135D03*
X005939Y009143D03*
X005939Y009148D03*
X005934Y009148D03*
X005944Y009155D03*
X005944Y009160D03*
X005947Y009168D03*
X005944Y009175D03*
X005944Y009180D03*
X005954Y009175D03*
X005952Y009190D03*
X005949Y009193D03*
X005952Y009195D03*
X005957Y009198D03*
X005954Y009203D03*
X005952Y009205D03*
X005949Y009200D03*
X005954Y009210D03*
X005954Y009220D03*
X005952Y009223D03*
X005952Y009228D03*
X005959Y009228D03*
X005954Y009235D03*
X005952Y009243D03*
X005949Y009243D03*
X005947Y009240D03*
X005944Y009248D03*
X005952Y009253D03*
X005954Y009258D03*
X005949Y009265D03*
X005952Y009270D03*
X005944Y009270D03*
X005942Y009275D03*
X005937Y009273D03*
X005934Y009273D03*
X005934Y009278D03*
X005937Y009278D03*
X005939Y009283D03*
X005934Y009283D03*
X005944Y009293D03*
X005942Y009298D03*
X005939Y009300D03*
X005932Y009308D03*
X005934Y009313D03*
X005934Y009318D03*
X005932Y009320D03*
X005934Y009325D03*
X005939Y009315D03*
X005944Y009310D03*
X005949Y009308D03*
X005954Y009295D03*
X005954Y009288D03*
X005957Y009288D03*
X005959Y009288D03*
X005959Y009280D03*
X005962Y009280D03*
X005964Y009280D03*
X005954Y009280D03*
X005949Y009280D03*
X005964Y009240D03*
X005959Y009190D03*
X005919Y009183D03*
X005954Y009328D03*
X005947Y009330D03*
X005944Y009330D03*
X005942Y009333D03*
X005942Y009338D03*
X005939Y009338D03*
X005932Y009343D03*
X005929Y009343D03*
X005934Y009348D03*
X005932Y009353D03*
X005937Y009355D03*
X005944Y009360D03*
X005944Y009368D03*
X005939Y009370D03*
X005932Y009370D03*
X005932Y009365D03*
X005922Y009363D03*
X005922Y009368D03*
X005924Y009358D03*
X005932Y009375D03*
X005932Y009383D03*
X005929Y009385D03*
X005924Y009380D03*
X005922Y009388D03*
X005919Y009388D03*
X005919Y009395D03*
X005924Y009400D03*
X005917Y009403D03*
X005924Y009408D03*
X005929Y009415D03*
X005929Y009420D03*
X005932Y009425D03*
X005934Y009428D03*
X005924Y009430D03*
X005919Y009423D03*
X005912Y009438D03*
X005917Y009440D03*
X005917Y009445D03*
X005919Y009448D03*
X005922Y009453D03*
X005927Y009450D03*
X005929Y009450D03*
X005934Y009445D03*
X005939Y009453D03*
X005924Y009458D03*
X005924Y009465D03*
X005914Y009465D03*
X005907Y009468D03*
X005917Y009478D03*
X005919Y009475D03*
X005924Y009475D03*
X005929Y009480D03*
X005927Y009483D03*
X005924Y009490D03*
X005917Y009490D03*
X005914Y009485D03*
X005924Y009498D03*
X005929Y009505D03*
X005927Y009508D03*
X005922Y009510D03*
X005919Y009508D03*
X005917Y009513D03*
X005912Y009515D03*
X005912Y009520D03*
X005917Y009520D03*
X005919Y009520D03*
X005922Y009518D03*
X005924Y009515D03*
X005922Y009528D03*
X005919Y009530D03*
X005909Y009528D03*
X005907Y009533D03*
X005917Y009540D03*
X005914Y009543D03*
X005917Y009548D03*
X005914Y009560D03*
X005909Y009563D03*
X005902Y009565D03*
X005902Y009560D03*
X005899Y009560D03*
X005897Y009563D03*
X005897Y009568D03*
X005897Y009575D03*
X005899Y009575D03*
X005894Y009580D03*
X005892Y009583D03*
X005889Y009585D03*
X005887Y009588D03*
X005884Y009588D03*
X005882Y009590D03*
X005884Y009593D03*
X005884Y009598D03*
X005889Y009590D03*
X005884Y009578D03*
X005874Y009565D03*
X005889Y009563D03*
X005894Y009553D03*
X005904Y009553D03*
X005909Y009508D03*
X005914Y009503D03*
X005944Y009433D03*
X005942Y009420D03*
X005942Y009400D03*
X005939Y009400D03*
X005937Y009395D03*
X005942Y009395D03*
X005944Y009393D03*
X005942Y009390D03*
X005947Y009380D03*
X005909Y009388D03*
X005907Y009388D03*
X005877Y009393D03*
X005874Y009400D03*
X005872Y009415D03*
X005874Y009358D03*
X005874Y009345D03*
X005867Y009585D03*
X005864Y009588D03*
X005872Y009608D03*
X005874Y009608D03*
X005869Y009610D03*
X005867Y009613D03*
X005869Y009615D03*
X005869Y009620D03*
X005862Y009628D03*
X005859Y009630D03*
X005857Y009623D03*
X005854Y009615D03*
X005849Y009620D03*
X005847Y009623D03*
X005847Y009628D03*
X005844Y009633D03*
X005842Y009635D03*
X005839Y009638D03*
X005837Y009638D03*
X005837Y009643D03*
X005842Y009643D03*
X005844Y009640D03*
X005847Y009640D03*
X005849Y009643D03*
X005847Y009645D03*
X005847Y009650D03*
X005844Y009655D03*
X005859Y009655D03*
X005864Y009645D03*
X005849Y009635D03*
X005834Y009633D03*
X005834Y009628D03*
X005834Y009623D03*
X005827Y009628D03*
X005824Y009620D03*
X005819Y009625D03*
X005817Y009638D03*
X005827Y009645D03*
X005829Y009645D03*
X005832Y009645D03*
X005824Y009655D03*
X005827Y009658D03*
X005827Y009663D03*
X005822Y009663D03*
X005822Y009668D03*
X005822Y009673D03*
X005829Y009678D03*
X005832Y009683D03*
X005834Y009680D03*
X005832Y009688D03*
X005829Y009688D03*
X005827Y009688D03*
X005834Y009693D03*
X005834Y009698D03*
X005837Y009698D03*
X005839Y009703D03*
X005832Y009703D03*
X005829Y009703D03*
X005822Y009695D03*
X005819Y009695D03*
X005819Y009683D03*
X005812Y009705D03*
X005814Y009710D03*
X005819Y009708D03*
X005822Y009713D03*
X005819Y009720D03*
X005817Y009720D03*
X005814Y009725D03*
X005812Y009728D03*
X005807Y009728D03*
X005807Y009733D03*
X005807Y009738D03*
X005804Y009723D03*
X005807Y009720D03*
X005804Y009715D03*
X005804Y009708D03*
X005799Y009700D03*
X005797Y009693D03*
X005789Y009673D03*
X005789Y009665D03*
X005787Y009653D03*
X005789Y009643D03*
X005799Y009633D03*
X005799Y009628D03*
X005804Y009618D03*
X005807Y009618D03*
X005807Y009613D03*
X005812Y009600D03*
X005814Y009598D03*
X005819Y009585D03*
X005882Y009608D03*
X005849Y009678D03*
X005824Y009723D03*
X005792Y009753D03*
X005784Y009760D03*
X005784Y009773D03*
X005784Y009778D03*
X005789Y009775D03*
X005792Y009773D03*
X005797Y009763D03*
X005784Y009788D03*
X005772Y009793D03*
X005772Y009798D03*
X005754Y009808D03*
X005757Y009813D03*
X005757Y009818D03*
X005752Y009820D03*
X005747Y009823D03*
X005747Y009828D03*
X005742Y009828D03*
X005737Y009833D03*
X005734Y009830D03*
X005729Y009830D03*
X005729Y009825D03*
X005714Y009833D03*
X005719Y009845D03*
X005727Y009848D03*
X005729Y009848D03*
X005732Y009845D03*
X005722Y009858D03*
X005712Y009855D03*
X005709Y009850D03*
X005707Y009850D03*
X005704Y009853D03*
X005694Y009858D03*
X005694Y009863D03*
X005697Y009863D03*
X005702Y009865D03*
X005692Y009865D03*
X005692Y009870D03*
X005689Y009870D03*
X005689Y009875D03*
X005682Y009870D03*
X005679Y009868D03*
X005682Y009865D03*
X005684Y009865D03*
X005682Y009860D03*
X005672Y009858D03*
X005669Y009865D03*
X005667Y009870D03*
X005672Y009870D03*
X005674Y009873D03*
X005664Y009878D03*
X005662Y009883D03*
X005654Y009885D03*
X005647Y009878D03*
X005644Y009880D03*
X005642Y009880D03*
X005642Y009875D03*
X005637Y009870D03*
X005637Y009865D03*
X005634Y009863D03*
X005632Y009863D03*
X005637Y009860D03*
X005624Y009860D03*
X005624Y009865D03*
X005617Y009873D03*
X005624Y009880D03*
X005617Y009885D03*
X005614Y009893D03*
X005614Y009898D03*
X005617Y009900D03*
X005619Y009900D03*
X005622Y009900D03*
X005624Y009900D03*
X005622Y009895D03*
X005632Y009890D03*
X005639Y009890D03*
X005644Y009895D03*
X005644Y009903D03*
X005642Y009903D03*
X005639Y009903D03*
X005634Y009900D03*
X005622Y009908D03*
X005627Y009913D03*
X005632Y009918D03*
X005637Y009920D03*
X005644Y009910D03*
X005652Y009905D03*
X005652Y009900D03*
X005659Y009898D03*
X005664Y009900D03*
X005669Y009910D03*
X005659Y009870D03*
X005654Y009865D03*
X005654Y009858D03*
X005649Y009835D03*
X005692Y009838D03*
X005692Y009843D03*
X005692Y009848D03*
X005697Y009840D03*
X005747Y009803D03*
X005774Y009685D03*
X005799Y009658D03*
X005609Y009880D03*
X005607Y009880D03*
X005602Y009880D03*
X005607Y009885D03*
X005599Y009908D03*
X005582Y009910D03*
X005599Y009928D03*
X005597Y009938D03*
X005592Y009938D03*
X005592Y009943D03*
X005594Y009943D03*
X005592Y009948D03*
X005587Y009950D03*
X005589Y009960D03*
X005592Y009960D03*
X005594Y009960D03*
X005597Y009955D03*
X005599Y009958D03*
X005602Y009963D03*
X005597Y009965D03*
X005582Y009963D03*
X005574Y009958D03*
X005567Y009958D03*
X005557Y009960D03*
X005559Y009978D03*
X005559Y009988D03*
X005557Y009988D03*
X005557Y009993D03*
X005562Y009990D03*
X005564Y009988D03*
X005569Y009988D03*
X005572Y009990D03*
X005572Y009983D03*
X005579Y009980D03*
X005577Y009975D03*
X005582Y009988D03*
X005572Y009998D03*
X005564Y010000D03*
X005562Y010000D03*
X005559Y009998D03*
X005549Y009993D03*
X005549Y009988D03*
X005539Y009988D03*
X005542Y009995D03*
X005542Y010000D03*
X005544Y010000D03*
X005537Y009998D03*
X005527Y009998D03*
X005524Y009998D03*
X005519Y009998D03*
X005522Y010003D03*
X005524Y010003D03*
X005524Y010010D03*
X005529Y010010D03*
X005534Y010010D03*
X005527Y010018D03*
X005524Y010020D03*
X005517Y010018D03*
X005514Y010015D03*
X005512Y010015D03*
X005509Y010018D03*
X005512Y010020D03*
X005504Y010018D03*
X005499Y010020D03*
X005502Y010028D03*
X005509Y010033D03*
X005512Y010028D03*
X005529Y010025D03*
X005509Y010008D03*
X005504Y010008D03*
X005499Y010010D03*
X005489Y009995D03*
X005489Y009990D03*
X005477Y010008D03*
X005467Y010013D03*
X005464Y010013D03*
X005464Y010018D03*
X005462Y010023D03*
X005459Y010025D03*
X005452Y010030D03*
X005449Y010033D03*
X005452Y010040D03*
X005457Y010038D03*
X005462Y010038D03*
X005462Y010043D03*
X005472Y010043D03*
X005479Y010048D03*
X005489Y010040D03*
X005494Y010045D03*
X005479Y010030D03*
X005474Y010033D03*
X005469Y010033D03*
X005484Y010023D03*
X005462Y009998D03*
X005452Y010008D03*
X005427Y010033D03*
X005432Y010040D03*
X005437Y010040D03*
X005432Y010045D03*
X005434Y010050D03*
X005432Y010060D03*
X005437Y010063D03*
X005439Y010068D03*
X005442Y010073D03*
X005444Y010078D03*
X005432Y010070D03*
X005422Y010065D03*
X005417Y010070D03*
X005412Y010063D03*
X005414Y010058D03*
X005414Y010053D03*
X005414Y010048D03*
X005419Y010055D03*
X005399Y010055D03*
X005392Y010050D03*
X005389Y010050D03*
X005389Y010055D03*
X005377Y010055D03*
X005374Y010060D03*
X005374Y010065D03*
X005364Y010065D03*
X005354Y010075D03*
X005347Y010078D03*
X005372Y010083D03*
X005374Y010090D03*
X005387Y010088D03*
X005389Y010093D03*
X005389Y010098D03*
X005394Y010090D03*
X005402Y010090D03*
X005402Y010085D03*
X005404Y010085D03*
X005409Y010080D03*
X005414Y010083D03*
X005417Y010085D03*
X005419Y010083D03*
X005422Y010085D03*
X005429Y010093D03*
X005407Y010100D03*
X005404Y010103D03*
X005407Y010108D03*
X005402Y010095D03*
X005399Y010073D03*
X005397Y010073D03*
X005397Y010068D03*
X005404Y010070D03*
X005397Y010043D03*
X005404Y010040D03*
X005414Y010033D03*
X005419Y010025D03*
X005447Y010048D03*
X005452Y010045D03*
X005452Y010053D03*
X005457Y010053D03*
X005449Y010058D03*
X005452Y010065D03*
X005474Y010060D03*
X005402Y010128D03*
X005397Y010125D03*
X005394Y010125D03*
X005389Y010118D03*
X005384Y010110D03*
X005372Y010115D03*
X005367Y010115D03*
X005367Y010110D03*
X005367Y010105D03*
X005364Y010105D03*
X005362Y010115D03*
X005369Y010123D03*
X005372Y010125D03*
X005377Y010123D03*
X005379Y010123D03*
X005372Y010130D03*
X005367Y010133D03*
X005362Y010135D03*
X005359Y010133D03*
X005354Y010130D03*
X005352Y010133D03*
X005349Y010133D03*
X005349Y010128D03*
X005352Y010125D03*
X005352Y010120D03*
X005344Y010125D03*
X005352Y010138D03*
X005352Y010148D03*
X005349Y010148D03*
X005347Y010150D03*
X005344Y010148D03*
X005342Y010150D03*
X005337Y010150D03*
X005334Y010150D03*
X005332Y010148D03*
X005332Y010153D03*
X005337Y010155D03*
X005329Y010158D03*
X005332Y010165D03*
X005319Y010163D03*
X005314Y010160D03*
X005314Y010155D03*
X005312Y010165D03*
X005314Y010170D03*
X005312Y010173D03*
X005307Y010175D03*
X005304Y010173D03*
X005302Y010175D03*
X005304Y010168D03*
X005304Y010183D03*
X005302Y010183D03*
X005297Y010183D03*
X005289Y010178D03*
X005284Y010178D03*
X005284Y010183D03*
X005284Y010188D03*
X005277Y010190D03*
X005269Y010185D03*
X005267Y010190D03*
X005264Y010193D03*
X005259Y010195D03*
X005254Y010200D03*
X005252Y010198D03*
X005244Y010198D03*
X005242Y010200D03*
X005242Y010193D03*
X005244Y010193D03*
X005242Y010180D03*
X005249Y010178D03*
X005262Y010185D03*
X005274Y010175D03*
X005267Y010203D03*
X005262Y010205D03*
X005254Y010210D03*
X005252Y010213D03*
X005249Y010215D03*
X005247Y010210D03*
X005249Y010208D03*
X005257Y010213D03*
X005239Y010210D03*
X005234Y010215D03*
X005237Y010218D03*
X005239Y010218D03*
X005219Y010230D03*
X005217Y010230D03*
X005212Y010233D03*
X005204Y010230D03*
X005202Y010233D03*
X005202Y010238D03*
X005194Y010238D03*
X005192Y010233D03*
X005189Y010243D03*
X005187Y010248D03*
X005184Y010248D03*
X005177Y010248D03*
X005174Y010255D03*
X005169Y010255D03*
X005169Y010260D03*
X005162Y010253D03*
X005154Y010270D03*
X005152Y010270D03*
X005149Y010268D03*
X005147Y010268D03*
X005124Y010275D03*
X005124Y010283D03*
X005122Y010283D03*
X005119Y010285D03*
X005114Y010288D03*
X005104Y010293D03*
X005129Y010195D03*
X005179Y010175D03*
X005187Y010193D03*
X005214Y010210D03*
X005222Y010200D03*
X005222Y010195D03*
X005217Y010170D03*
X005207Y010225D03*
X005197Y010245D03*
X005264Y010125D03*
X005322Y010173D03*
X005347Y010163D03*
X005349Y010158D03*
X005349Y010153D03*
X005377Y010138D03*
X005517Y009955D03*
X005609Y009948D03*
X005612Y009943D03*
X005612Y009938D03*
X005614Y009938D03*
X005614Y009930D03*
X005614Y009925D03*
X005614Y009920D03*
X005617Y009920D03*
X005622Y009920D03*
X005622Y009925D03*
X005624Y009928D03*
X005627Y009928D03*
X005624Y009935D03*
X005627Y009938D03*
X005614Y009955D03*
X005612Y009958D03*
X005609Y009925D03*
X004277Y010720D03*
X004287Y010810D03*
X004239Y011290D03*
X003724Y012260D03*
X003479Y012058D03*
X003332Y012628D03*
X003314Y012698D03*
X003202Y012840D03*
X003167Y013013D03*
X003159Y013073D03*
X003159Y013140D03*
X003567Y012975D03*
X004027Y012398D03*
X003624Y011475D03*
X003634Y011450D03*
X003652Y011200D03*
X003557Y010860D03*
D39*
X003654Y011200D03*
X004204Y010828D03*
X004247Y009335D03*
X004254Y009333D03*
X004262Y009328D03*
X004264Y009328D03*
X004267Y009328D03*
X005222Y010150D03*
X005227Y010190D03*
X005214Y010200D03*
X005217Y010208D03*
X005224Y010213D03*
X005217Y010218D03*
X005214Y010218D03*
X005212Y010225D03*
X005209Y010225D03*
X005187Y010233D03*
X005184Y010240D03*
X005182Y010240D03*
X005234Y010208D03*
X005242Y010208D03*
X005244Y010208D03*
X005247Y010190D03*
X005249Y010185D03*
X005277Y010183D03*
X005282Y010185D03*
X005294Y010178D03*
X005297Y010175D03*
X005302Y010165D03*
X005332Y010140D03*
X005347Y010143D03*
X005364Y010113D03*
X005369Y010105D03*
X005372Y010100D03*
X005377Y010103D03*
X005379Y010103D03*
X005384Y010098D03*
X005394Y010098D03*
X005392Y010088D03*
X005372Y010090D03*
X005354Y010100D03*
X005412Y010070D03*
X005417Y010063D03*
X005412Y010055D03*
X005417Y010050D03*
X005417Y010038D03*
X005422Y010035D03*
X005419Y010033D03*
X005427Y010040D03*
X005447Y010038D03*
X005457Y010045D03*
X005459Y010043D03*
X005449Y010025D03*
X005452Y010020D03*
X005457Y010018D03*
X005459Y010018D03*
X005462Y010015D03*
X005459Y010008D03*
X005462Y010005D03*
X005464Y010005D03*
X005474Y009993D03*
X005477Y009990D03*
X005479Y010000D03*
X005487Y010018D03*
X005489Y010020D03*
X005522Y009993D03*
X005532Y009995D03*
X005562Y009975D03*
X005564Y009975D03*
X005572Y009975D03*
X005557Y009968D03*
X005567Y009950D03*
X005582Y009918D03*
X005589Y009915D03*
X005584Y009903D03*
X005607Y009893D03*
X005617Y009893D03*
X005619Y009893D03*
X005629Y009888D03*
X005624Y009873D03*
X005619Y009870D03*
X005617Y009908D03*
X005624Y009910D03*
X005612Y009923D03*
X005604Y009925D03*
X005604Y009935D03*
X005609Y009938D03*
X005617Y009930D03*
X005657Y009858D03*
X005659Y009850D03*
X005664Y009850D03*
X005667Y009843D03*
X005672Y009848D03*
X005684Y009855D03*
X005674Y009865D03*
X005699Y009848D03*
X005702Y009850D03*
X005724Y009825D03*
X005752Y009813D03*
X005764Y009808D03*
X005794Y009765D03*
X005797Y009753D03*
X005804Y009748D03*
X005809Y009720D03*
X005812Y009720D03*
X005817Y009713D03*
X005802Y009710D03*
X005814Y009678D03*
X005817Y009655D03*
X005822Y009655D03*
X005822Y009645D03*
X005817Y009645D03*
X005809Y009640D03*
X005817Y009630D03*
X005804Y009628D03*
X005792Y009645D03*
X005769Y009680D03*
X005839Y009650D03*
X005842Y009620D03*
X005834Y009615D03*
X005852Y009623D03*
X005862Y009613D03*
X005879Y009593D03*
X005882Y009580D03*
X005884Y009565D03*
X005892Y009565D03*
X005897Y009553D03*
X005907Y009540D03*
X005912Y009543D03*
X005912Y009533D03*
X005902Y009535D03*
X005897Y009520D03*
X005917Y009498D03*
X005914Y009493D03*
X005904Y009478D03*
X005904Y009455D03*
X005917Y009433D03*
X005922Y009420D03*
X005924Y009420D03*
X005927Y009420D03*
X005917Y009410D03*
X005909Y009395D03*
X005914Y009388D03*
X005902Y009388D03*
X005914Y009375D03*
X005929Y009373D03*
X005927Y009390D03*
X005919Y009350D03*
X005932Y009328D03*
X005944Y009320D03*
X005939Y009308D03*
X005937Y009305D03*
X005929Y009303D03*
X005929Y009313D03*
X005939Y009275D03*
X005942Y009268D03*
X005947Y009270D03*
X005952Y009260D03*
X005939Y009258D03*
X005919Y009273D03*
X005952Y009235D03*
X005962Y009228D03*
X005952Y009215D03*
X005952Y009168D03*
X005949Y009165D03*
X005944Y009168D03*
X005939Y009163D03*
X005927Y009103D03*
X005924Y009103D03*
X005924Y009090D03*
X005874Y009393D03*
X005659Y009838D03*
X005442Y010025D03*
X004027Y012413D03*
D40*
X004027Y012429D03*
X003722Y012302D03*
X003457Y012142D03*
X003369Y012047D03*
X003329Y012254D03*
X003189Y012894D03*
X003157Y013099D03*
X003567Y013022D03*
X003564Y013004D03*
X003657Y012994D03*
X003757Y011789D03*
X004172Y011719D03*
X004187Y011682D03*
X004247Y011324D03*
X004237Y011289D03*
X003554Y010829D03*
X004257Y009332D03*
X004259Y009329D03*
X005087Y010299D03*
X005139Y010274D03*
X005152Y010264D03*
X005162Y010259D03*
X005172Y010254D03*
X005179Y010252D03*
X005182Y010249D03*
X005179Y010244D03*
X005187Y010242D03*
X005199Y010242D03*
X005197Y010229D03*
X005202Y010227D03*
X005214Y010227D03*
X005227Y010212D03*
X005237Y010207D03*
X005244Y010187D03*
X005262Y010192D03*
X005272Y010182D03*
X005274Y010184D03*
X005282Y010172D03*
X005289Y010167D03*
X005292Y010169D03*
X005309Y010164D03*
X005309Y010174D03*
X005324Y010162D03*
X005327Y010157D03*
X005337Y010144D03*
X005344Y010137D03*
X005349Y010142D03*
X005354Y010137D03*
X005357Y010134D03*
X005359Y010127D03*
X005362Y010127D03*
X005364Y010124D03*
X005359Y010117D03*
X005359Y010107D03*
X005367Y010099D03*
X005377Y010094D03*
X005382Y010092D03*
X005384Y010089D03*
X005389Y010084D03*
X005387Y010082D03*
X005399Y010082D03*
X005399Y010092D03*
X005412Y010079D03*
X005402Y010069D03*
X005414Y010064D03*
X005432Y010052D03*
X005437Y010047D03*
X005434Y010044D03*
X005442Y010039D03*
X005449Y010039D03*
X005457Y010032D03*
X005454Y010024D03*
X005442Y010017D03*
X005439Y010024D03*
X005432Y010024D03*
X005429Y010029D03*
X005424Y010034D03*
X005414Y010039D03*
X005407Y010037D03*
X005394Y010052D03*
X005392Y010057D03*
X005384Y010054D03*
X005372Y010064D03*
X005372Y010109D03*
X005379Y010112D03*
X005382Y010112D03*
X005347Y010127D03*
X005254Y010132D03*
X005214Y010162D03*
X005199Y010162D03*
X005219Y010179D03*
X005279Y010199D03*
X005157Y010244D03*
X005467Y010032D03*
X005472Y010024D03*
X005479Y010009D03*
X005482Y010002D03*
X005477Y009999D03*
X005469Y009999D03*
X005489Y010004D03*
X005489Y010012D03*
X005502Y010019D03*
X005499Y010027D03*
X005504Y010032D03*
X005492Y010027D03*
X005487Y010047D03*
X005519Y010019D03*
X005517Y009997D03*
X005539Y009994D03*
X005544Y009989D03*
X005552Y009987D03*
X005557Y009977D03*
X005564Y009967D03*
X005569Y009964D03*
X005572Y009964D03*
X005574Y009967D03*
X005577Y009967D03*
X005579Y009967D03*
X005579Y009974D03*
X005587Y009969D03*
X005587Y009959D03*
X005589Y009954D03*
X005587Y009944D03*
X005597Y009944D03*
X005602Y009944D03*
X005604Y009947D03*
X005617Y009947D03*
X005619Y009939D03*
X005619Y009929D03*
X005627Y009919D03*
X005637Y009904D03*
X005637Y009894D03*
X005629Y009897D03*
X005624Y009894D03*
X005627Y009889D03*
X005627Y009879D03*
X005619Y009879D03*
X005617Y009879D03*
X005614Y009874D03*
X005609Y009874D03*
X005622Y009869D03*
X005632Y009857D03*
X005634Y009857D03*
X005637Y009854D03*
X005647Y009842D03*
X005664Y009842D03*
X005667Y009852D03*
X005667Y009859D03*
X005669Y009859D03*
X005664Y009859D03*
X005662Y009862D03*
X005659Y009859D03*
X005657Y009869D03*
X005654Y009874D03*
X005649Y009869D03*
X005649Y009879D03*
X005639Y009884D03*
X005647Y009894D03*
X005649Y009894D03*
X005647Y009902D03*
X005669Y009879D03*
X005664Y009869D03*
X005672Y009864D03*
X005677Y009867D03*
X005692Y009857D03*
X005689Y009852D03*
X005699Y009857D03*
X005702Y009842D03*
X005712Y009847D03*
X005714Y009842D03*
X005724Y009834D03*
X005734Y009824D03*
X005732Y009822D03*
X005737Y009817D03*
X005742Y009819D03*
X005762Y009807D03*
X005762Y009799D03*
X005772Y009787D03*
X005779Y009782D03*
X005784Y009767D03*
X005792Y009767D03*
X005792Y009759D03*
X005812Y009744D03*
X005802Y009719D03*
X005807Y009712D03*
X005799Y009707D03*
X005804Y009702D03*
X005802Y009699D03*
X005799Y009692D03*
X005809Y009689D03*
X005812Y009692D03*
X005814Y009692D03*
X005819Y009689D03*
X005822Y009689D03*
X005824Y009692D03*
X005822Y009682D03*
X005804Y009677D03*
X005814Y009657D03*
X005824Y009647D03*
X005832Y009652D03*
X005837Y009662D03*
X005832Y009664D03*
X005844Y009649D03*
X005832Y009639D03*
X005822Y009637D03*
X005809Y009632D03*
X005812Y009609D03*
X005824Y009614D03*
X005842Y009629D03*
X005859Y009614D03*
X005864Y009614D03*
X005869Y009602D03*
X005869Y009592D03*
X005867Y009579D03*
X005879Y009582D03*
X005887Y009582D03*
X005894Y009572D03*
X005907Y009569D03*
X005907Y009554D03*
X005909Y009549D03*
X005909Y009542D03*
X005902Y009544D03*
X005894Y009547D03*
X005894Y009539D03*
X005909Y009534D03*
X005914Y009534D03*
X005914Y009514D03*
X005912Y009509D03*
X005917Y009507D03*
X005922Y009499D03*
X005922Y009492D03*
X005919Y009489D03*
X005917Y009484D03*
X005924Y009484D03*
X005927Y009489D03*
X005922Y009472D03*
X005917Y009472D03*
X005919Y009467D03*
X005917Y009462D03*
X005914Y009459D03*
X005917Y009454D03*
X005919Y009454D03*
X005924Y009449D03*
X005922Y009444D03*
X005929Y009442D03*
X005927Y009457D03*
X005922Y009462D03*
X005904Y009469D03*
X005897Y009487D03*
X005909Y009442D03*
X005917Y009419D03*
X005929Y009402D03*
X005937Y009384D03*
X005937Y009369D03*
X005934Y009369D03*
X005929Y009364D03*
X005924Y009364D03*
X005919Y009359D03*
X005924Y009352D03*
X005929Y009354D03*
X005924Y009344D03*
X005917Y009349D03*
X005934Y009332D03*
X005937Y009334D03*
X005937Y009327D03*
X005932Y009314D03*
X005934Y009302D03*
X005939Y009289D03*
X005942Y009287D03*
X005944Y009287D03*
X005952Y009289D03*
X005932Y009282D03*
X005937Y009267D03*
X005939Y009267D03*
X005944Y009262D03*
X005947Y009262D03*
X005949Y009254D03*
X005944Y009254D03*
X005949Y009217D03*
X005949Y009209D03*
X005939Y009199D03*
X005947Y009192D03*
X005949Y009187D03*
X005952Y009179D03*
X005947Y009177D03*
X005939Y009174D03*
X005939Y009154D03*
X005942Y009154D03*
X005934Y009142D03*
X005929Y009139D03*
X005929Y009147D03*
X005932Y009132D03*
X005932Y009124D03*
X005929Y009119D03*
X005927Y009122D03*
X005927Y009114D03*
X005922Y009102D03*
X005919Y009097D03*
X005904Y009079D03*
X005907Y009064D03*
X005867Y008999D03*
X005954Y009194D03*
X005949Y009314D03*
X005899Y009554D03*
X005889Y009557D03*
X005887Y009597D03*
X005889Y009602D03*
X005882Y009602D03*
X005879Y009604D03*
X005812Y009699D03*
X005792Y009709D03*
X005662Y009824D03*
X005659Y009829D03*
X005592Y009892D03*
X005612Y009909D03*
X005609Y009917D03*
X005589Y009924D03*
X005574Y009952D03*
X005572Y009957D03*
X005569Y009957D03*
X005569Y009949D03*
X005559Y009954D03*
X005549Y009999D03*
X005542Y010007D03*
X005539Y010007D03*
D41*
X005542Y009984D03*
X005582Y009932D03*
X005602Y009932D03*
X005637Y009882D03*
X005629Y009874D03*
X005662Y009849D03*
X005677Y009847D03*
X005682Y009847D03*
X005789Y009762D03*
X005787Y009749D03*
X005797Y009704D03*
X005797Y009682D03*
X005819Y009669D03*
X005814Y009627D03*
X005809Y009619D03*
X005814Y009609D03*
X005819Y009599D03*
X005864Y009599D03*
X005909Y009474D03*
X005909Y009454D03*
X005912Y009372D03*
X005919Y009372D03*
X005942Y009322D03*
X005947Y009319D03*
X005937Y009289D03*
X005944Y009234D03*
X005949Y009232D03*
X005939Y009187D03*
X005937Y009162D03*
X005897Y009069D03*
X005834Y008969D03*
X005454Y010012D03*
X005377Y010067D03*
X005374Y010079D03*
X005354Y010087D03*
X005334Y010137D03*
X005237Y010194D03*
X005232Y010187D03*
X005224Y010197D03*
X005222Y010217D03*
X005197Y010217D03*
X005184Y010227D03*
X005157Y010257D03*
X004317Y009347D03*
X004314Y009347D03*
X004309Y009349D03*
X004307Y009352D03*
X004319Y009342D03*
X004287Y009367D03*
X003759Y011787D03*
D42*
X004294Y009362D03*
X004329Y009329D03*
X004337Y009324D03*
X004339Y009322D03*
X005187Y010179D03*
X005202Y010169D03*
X005217Y010184D03*
X005209Y010209D03*
X005324Y010147D03*
X005344Y010092D03*
X005384Y010069D03*
X005389Y010069D03*
X005392Y010072D03*
X005404Y010054D03*
X005474Y010009D03*
X005552Y009972D03*
X005574Y009937D03*
X005569Y009922D03*
X005574Y009914D03*
X005607Y009909D03*
X005632Y009877D03*
X005654Y009839D03*
X005664Y009827D03*
X005667Y009827D03*
X005799Y009722D03*
X005807Y009632D03*
X005817Y009614D03*
X005882Y009562D03*
X005897Y009537D03*
X005909Y009494D03*
X005902Y009372D03*
X005914Y009359D03*
X005927Y009367D03*
X005944Y009214D03*
X005947Y009214D03*
X005934Y009164D03*
X005892Y009047D03*
X005894Y009044D03*
D43*
X005904Y009062D03*
X005924Y009122D03*
X005929Y009129D03*
X005942Y009167D03*
X005947Y009232D03*
X005937Y009257D03*
X005934Y009292D03*
X005939Y009327D03*
X005922Y009354D03*
X005917Y009359D03*
X005917Y009372D03*
X005907Y009367D03*
X005907Y009379D03*
X005912Y009387D03*
X005922Y009397D03*
X005919Y009407D03*
X005922Y009409D03*
X005934Y009379D03*
X005904Y009354D03*
X005914Y009474D03*
X005919Y009499D03*
X005909Y009517D03*
X005907Y009519D03*
X005914Y009524D03*
X005917Y009529D03*
X005894Y009529D03*
X005887Y009557D03*
X005894Y009562D03*
X005869Y009577D03*
X005817Y009597D03*
X005827Y009637D03*
X005814Y009667D03*
X005804Y009692D03*
X005807Y009697D03*
X005809Y009732D03*
X005817Y009732D03*
X005789Y009732D03*
X005787Y009764D03*
X005732Y009832D03*
X005697Y009849D03*
X005694Y009849D03*
X005669Y009849D03*
X005662Y009834D03*
X005629Y009859D03*
X005639Y009874D03*
X005614Y009884D03*
X005614Y009907D03*
X005582Y009902D03*
X005569Y009939D03*
X005567Y009939D03*
X005582Y009947D03*
X005584Y009954D03*
X005567Y009969D03*
X005567Y009982D03*
X005489Y009982D03*
X005484Y009989D03*
X005479Y009989D03*
X005472Y010002D03*
X005467Y009999D03*
X005472Y010014D03*
X005477Y010017D03*
X005479Y010019D03*
X005467Y010022D03*
X005449Y010014D03*
X005437Y010024D03*
X005439Y010037D03*
X005424Y010047D03*
X005419Y010044D03*
X005409Y010059D03*
X005399Y010064D03*
X005409Y010072D03*
X005414Y010074D03*
X005419Y010064D03*
X005399Y010047D03*
X005372Y010074D03*
X005377Y010084D03*
X005379Y010092D03*
X005382Y010102D03*
X005352Y010109D03*
X005354Y010117D03*
X005317Y010099D03*
X005299Y010154D03*
X005299Y010167D03*
X005294Y010167D03*
X005239Y010184D03*
X005237Y010172D03*
X005217Y010159D03*
X005219Y010154D03*
X005219Y010189D03*
X005227Y010202D03*
X005239Y010199D03*
X005182Y010229D03*
X005177Y010239D03*
X005784Y009659D03*
X005832Y008967D03*
X004187Y011664D03*
X003649Y011172D03*
D44*
X003689Y010898D03*
X004289Y009363D03*
X004292Y009363D03*
X004299Y009353D03*
X004302Y009353D03*
X004304Y009353D03*
X004312Y009348D03*
X004327Y009335D03*
X005154Y010258D03*
X005219Y010218D03*
X005344Y010113D03*
X005357Y010120D03*
X005397Y010055D03*
X005409Y010043D03*
X005412Y010040D03*
X005422Y010050D03*
X005447Y010020D03*
X005484Y010005D03*
X005499Y009998D03*
X005504Y009995D03*
X005504Y009975D03*
X005554Y009980D03*
X005554Y009960D03*
X005589Y009938D03*
X005607Y009940D03*
X005589Y009900D03*
X005594Y009898D03*
X005622Y009883D03*
X005652Y009878D03*
X005707Y009838D03*
X005802Y009685D03*
X005812Y009673D03*
X005817Y009670D03*
X005799Y009645D03*
X005824Y009633D03*
X005867Y009598D03*
X005899Y009510D03*
X005907Y009453D03*
X005912Y009453D03*
X005907Y009400D03*
X005932Y009295D03*
X005944Y009193D03*
X005914Y009193D03*
X005922Y009115D03*
X005902Y009060D03*
X005897Y009050D03*
X003567Y013000D03*
X003164Y013043D03*
X003157Y013135D03*
D45*
X003659Y011170D03*
X003672Y010895D03*
X004234Y011318D03*
X005204Y010193D03*
X005779Y009743D03*
X005917Y009310D03*
X005942Y009208D03*
X002412Y009745D03*
D46*
X003692Y010900D03*
X004244Y011320D03*
X005167Y010258D03*
X005209Y010190D03*
X005219Y010168D03*
X005252Y010180D03*
X005279Y010175D03*
X005307Y010158D03*
X005342Y010138D03*
X005317Y010113D03*
X005369Y010093D03*
X005374Y010105D03*
X005387Y010098D03*
X005397Y010085D03*
X005427Y010055D03*
X005434Y010030D03*
X005454Y010043D03*
X005457Y010005D03*
X005482Y010013D03*
X005482Y009990D03*
X005499Y009980D03*
X005519Y009983D03*
X005559Y009968D03*
X005562Y009963D03*
X005564Y009955D03*
X005572Y009940D03*
X005587Y009933D03*
X005599Y009938D03*
X005599Y009918D03*
X005634Y009888D03*
X005634Y009873D03*
X005627Y009868D03*
X005674Y009810D03*
X005709Y009840D03*
X005747Y009813D03*
X005769Y009798D03*
X005789Y009745D03*
X005797Y009740D03*
X005804Y009733D03*
X005797Y009725D03*
X005809Y009708D03*
X005782Y009680D03*
X005774Y009675D03*
X005782Y009665D03*
X005789Y009655D03*
X005812Y009653D03*
X005819Y009653D03*
X005829Y009655D03*
X005814Y009643D03*
X005819Y009635D03*
X005829Y009633D03*
X005819Y009615D03*
X005899Y009493D03*
X005914Y009445D03*
X005919Y009438D03*
X005917Y009385D03*
X005907Y009348D03*
X005929Y009330D03*
X005929Y009288D03*
X005942Y009255D03*
X005877Y009383D03*
X005889Y009048D03*
X005889Y009033D03*
X005569Y009978D03*
X005232Y010208D03*
X004324Y009340D03*
X004322Y009340D03*
X004297Y009355D03*
X004252Y009335D03*
X004249Y009335D03*
D47*
X004277Y009312D03*
X004279Y009309D03*
X004282Y009309D03*
X004319Y009282D03*
X003557Y010827D03*
X004239Y011324D03*
X005197Y010184D03*
X005244Y010159D03*
X005307Y010124D03*
X005342Y010107D03*
X005349Y010102D03*
X005502Y009992D03*
X005514Y009984D03*
X005527Y009969D03*
X005839Y009562D03*
X005939Y009227D03*
X002407Y009742D03*
D48*
X003667Y011168D03*
X003769Y011783D03*
X003734Y012280D03*
X004019Y012403D03*
X004177Y011665D03*
X003574Y013003D03*
X005122Y010238D03*
X005127Y010238D03*
X005922Y009233D03*
X005937Y009210D03*
X005919Y009140D03*
D49*
X005934Y009194D03*
X005909Y009419D03*
X005907Y009427D03*
X005904Y009499D03*
X005837Y009619D03*
X005802Y009739D03*
X005794Y009744D03*
X005677Y009819D03*
X005672Y009824D03*
X005669Y009827D03*
X005602Y009899D03*
X005587Y009909D03*
X005594Y009924D03*
X005552Y009942D03*
X005394Y010072D03*
X005297Y010124D03*
X005187Y010212D03*
D50*
X005189Y010223D03*
X005174Y010235D03*
X005357Y010093D03*
X005367Y010078D03*
X005487Y009995D03*
X005517Y009975D03*
X005559Y009933D03*
X005604Y009898D03*
X005674Y009835D03*
X005824Y009593D03*
X005874Y009585D03*
X005914Y009420D03*
X005912Y009418D03*
X005934Y009228D03*
X005887Y009038D03*
X004242Y011328D03*
X003762Y011785D03*
D51*
X003724Y012298D03*
X003687Y010898D03*
X004332Y009328D03*
X004334Y009325D03*
X005194Y010223D03*
X005212Y010208D03*
X005282Y010155D03*
X005297Y010158D03*
X005309Y010148D03*
X005369Y010073D03*
X005402Y010050D03*
X005429Y010048D03*
X005469Y010015D03*
X005519Y009963D03*
X005567Y009920D03*
X005599Y009893D03*
X005639Y009855D03*
X005649Y009853D03*
X005704Y009783D03*
X005749Y009813D03*
X005792Y009663D03*
X005884Y009545D03*
X005897Y009503D03*
X005902Y009478D03*
X005912Y009350D03*
X005934Y009258D03*
X002404Y009748D03*
D52*
X002422Y009748D03*
X002584Y009938D03*
X002587Y009940D03*
X002592Y009945D03*
X002594Y009948D03*
X002597Y009950D03*
X002602Y009955D03*
X002607Y009960D03*
X002612Y009963D03*
X003657Y010743D03*
X003864Y011168D03*
X003867Y011168D03*
X003869Y011168D03*
X003872Y011168D03*
X003874Y011168D03*
X003692Y011483D03*
X003689Y011483D03*
X003669Y011478D03*
X003667Y011478D03*
X003664Y011478D03*
X003662Y011478D03*
X003659Y011478D03*
X003802Y011780D03*
X004022Y011558D03*
X004024Y011558D03*
X004027Y011558D03*
X004042Y011565D03*
X004044Y011565D03*
X004049Y011568D03*
X004187Y011280D03*
X004184Y011278D03*
X004182Y011275D03*
X004197Y011288D03*
X004119Y011053D03*
X004124Y011050D03*
X004127Y011048D03*
X003874Y012268D03*
X003889Y012275D03*
X003894Y012278D03*
X003897Y012278D03*
X004012Y012398D03*
X003594Y012980D03*
X004064Y013205D03*
X004067Y013205D03*
X004069Y013208D03*
X004072Y013208D03*
X004122Y013213D03*
X005887Y009483D03*
X005894Y009458D03*
X005929Y009215D03*
X005932Y009213D03*
X005702Y008940D03*
X005699Y008940D03*
X005697Y008938D03*
X005694Y008938D03*
X005689Y008935D03*
X005684Y008933D03*
X005679Y008930D03*
X005664Y008923D03*
X005662Y008923D03*
D53*
X005742Y008964D03*
X005744Y008964D03*
X005749Y008967D03*
X005927Y009202D03*
X005862Y009537D03*
X004184Y010674D03*
X004179Y010989D03*
X004177Y010997D03*
X004164Y011009D03*
X003919Y011167D03*
X003917Y011167D03*
X003914Y011167D03*
X003912Y011167D03*
X003909Y011167D03*
X003907Y011167D03*
X003904Y011167D03*
X004074Y011587D03*
X004049Y011872D03*
X004054Y011874D03*
X004069Y011884D03*
X004072Y011887D03*
X004074Y011889D03*
X003827Y011782D03*
X003922Y012297D03*
X004007Y012392D03*
X004044Y013192D03*
X004137Y013197D03*
X004157Y013184D03*
X003457Y012062D03*
X002549Y009904D03*
X002547Y009902D03*
X002427Y009752D03*
D54*
X003652Y011167D03*
X005164Y010244D03*
X005207Y010172D03*
X005209Y010169D03*
X005237Y010152D03*
X005282Y010129D03*
X005312Y010149D03*
X005319Y010104D03*
X005352Y010089D03*
X005444Y010032D03*
X005554Y009937D03*
X005572Y009919D03*
X005609Y009897D03*
X005647Y009859D03*
X005642Y009854D03*
X005792Y009689D03*
X005799Y009674D03*
X005812Y009627D03*
X005899Y009534D03*
X005924Y009327D03*
X005922Y009292D03*
X005927Y009287D03*
D55*
X005927Y009323D03*
X005872Y009578D03*
X005859Y009588D03*
X005807Y009665D03*
X005787Y009678D03*
X005577Y009925D03*
X005524Y009970D03*
X005509Y009983D03*
X005507Y009983D03*
X005324Y010113D03*
X005317Y010143D03*
X005252Y010150D03*
X005249Y010153D03*
X005174Y010195D03*
X004322Y009280D03*
X004307Y009293D03*
X004304Y009293D03*
X004302Y009293D03*
X004274Y009313D03*
X004182Y013190D03*
D56*
X004182Y011665D03*
X005264Y010155D03*
X005272Y010148D03*
X005537Y009963D03*
X005544Y009958D03*
X005579Y009928D03*
X005837Y009575D03*
X005924Y009158D03*
X004287Y009305D03*
D57*
X004367Y010433D03*
X004369Y010433D03*
X004382Y010433D03*
X004399Y010430D03*
X004402Y010430D03*
X004437Y010428D03*
X004439Y010428D03*
X004442Y010428D03*
X004444Y010428D03*
X004484Y010420D03*
X004487Y010420D03*
X004489Y010420D03*
X004492Y010420D03*
X004494Y010420D03*
X004497Y010420D03*
X004499Y010420D03*
X004522Y010418D03*
X004524Y010418D03*
X004527Y010418D03*
X004529Y010415D03*
X004539Y010415D03*
X004542Y010415D03*
X004544Y010415D03*
X004547Y010415D03*
X004549Y010415D03*
X004552Y010415D03*
X004554Y010415D03*
X004599Y010405D03*
X004602Y010405D03*
X004604Y010405D03*
X004612Y010403D03*
X004614Y010403D03*
X004617Y010403D03*
X004619Y010400D03*
X004627Y010403D03*
X004652Y010398D03*
X004654Y010395D03*
X004657Y010395D03*
X004659Y010395D03*
X004677Y010390D03*
X004679Y010390D03*
X004682Y010390D03*
X004684Y010390D03*
X004687Y010390D03*
X004717Y010383D03*
X004729Y010378D03*
X004739Y010378D03*
X004742Y010378D03*
X004747Y010375D03*
X004769Y010370D03*
X004772Y010368D03*
X004774Y010368D03*
X004777Y010368D03*
X004779Y010368D03*
X004782Y010365D03*
X004784Y010365D03*
X004789Y010363D03*
X004792Y010363D03*
X004794Y010363D03*
X004797Y010363D03*
X004799Y010363D03*
X004804Y010360D03*
X004807Y010358D03*
X004809Y010358D03*
X004812Y010358D03*
X004814Y010358D03*
X004817Y010358D03*
X004824Y010353D03*
X004827Y010353D03*
X004832Y010350D03*
X004834Y010350D03*
X004837Y010350D03*
X004839Y010350D03*
X004842Y010350D03*
X004862Y010343D03*
X004864Y010343D03*
X004867Y010343D03*
X004869Y010343D03*
X004882Y010335D03*
X004884Y010335D03*
X004899Y010330D03*
X004902Y010330D03*
X004909Y010328D03*
X004914Y010325D03*
X004919Y010323D03*
X004922Y010323D03*
X004924Y010323D03*
X004927Y010323D03*
X004939Y010315D03*
X004949Y010313D03*
X004952Y010313D03*
X004967Y010308D03*
X004974Y010303D03*
X004979Y010300D03*
X004987Y010298D03*
X004989Y010298D03*
X004992Y010298D03*
X004994Y010298D03*
X005022Y010285D03*
X005024Y010283D03*
X005032Y010280D03*
X005034Y010280D03*
X005059Y010270D03*
X005082Y010260D03*
X005084Y010258D03*
X005089Y010255D03*
X005092Y010255D03*
X005094Y010253D03*
X005099Y010250D03*
X005109Y010245D03*
X005117Y010240D03*
X005734Y009775D03*
X005747Y009755D03*
X005749Y009753D03*
X005904Y009405D03*
X005917Y009230D03*
X005924Y009230D03*
X004347Y010435D03*
X004342Y010438D03*
X004339Y010438D03*
X004337Y010438D03*
X004334Y010438D03*
X004332Y010438D03*
X004329Y010438D03*
X004327Y010438D03*
X004322Y010438D03*
X004319Y010438D03*
X004314Y010438D03*
X004312Y010438D03*
X004309Y010438D03*
X004292Y010438D03*
X004289Y010438D03*
X004287Y010438D03*
X004284Y010438D03*
X004269Y010440D03*
X004267Y010440D03*
X004257Y010440D03*
X004254Y010440D03*
X004252Y010440D03*
X004249Y010440D03*
X004239Y010440D03*
X004237Y010440D03*
X004234Y010440D03*
X004219Y010440D03*
X004194Y010443D03*
X004192Y010443D03*
X004189Y010443D03*
X004184Y010440D03*
X004182Y010440D03*
X004179Y010440D03*
X004174Y010443D03*
X004172Y010443D03*
X004169Y010443D03*
X004167Y010443D03*
X004164Y010443D03*
X004162Y010443D03*
X004159Y010443D03*
X004157Y010443D03*
X004154Y010443D03*
X004152Y010443D03*
X004149Y010443D03*
X004137Y010443D03*
X004134Y010443D03*
X004132Y010443D03*
X004129Y010443D03*
X004127Y010443D03*
X004124Y010443D03*
X004122Y010443D03*
X004104Y010443D03*
X004102Y010443D03*
X004092Y010443D03*
X004089Y010443D03*
X004087Y010443D03*
X004074Y010438D03*
X004072Y010438D03*
X004069Y010440D03*
X004064Y010440D03*
X004062Y010440D03*
X004059Y010440D03*
X004057Y010440D03*
X004054Y010440D03*
X004052Y010440D03*
X004049Y010440D03*
X004047Y010440D03*
X004042Y010440D03*
X004039Y010440D03*
X004037Y010440D03*
X004034Y010440D03*
X004032Y010440D03*
X004029Y010440D03*
X004027Y010440D03*
X004024Y010440D03*
X004012Y010438D03*
X004009Y010438D03*
X004007Y010438D03*
X003992Y010438D03*
X003984Y010435D03*
X003962Y010438D03*
X003959Y010438D03*
X003957Y010438D03*
X003954Y010438D03*
X003952Y010438D03*
X003927Y010435D03*
X003919Y010433D03*
X003909Y010433D03*
X003897Y010433D03*
X003894Y010433D03*
X003892Y010433D03*
X003879Y010430D03*
X003877Y010430D03*
X003874Y010430D03*
X003872Y010430D03*
X003869Y010430D03*
X003864Y010428D03*
X003862Y010428D03*
X003847Y010428D03*
X003844Y010428D03*
X003842Y010428D03*
X003839Y010428D03*
X003837Y010428D03*
X003794Y010423D03*
X003792Y010423D03*
X003787Y010420D03*
X003784Y010420D03*
X003782Y010420D03*
X003769Y010420D03*
X003767Y010420D03*
X003724Y010413D03*
X003722Y010413D03*
X003719Y010413D03*
X003702Y010410D03*
X003699Y010410D03*
X003684Y010408D03*
X003682Y010408D03*
X003679Y010408D03*
X003677Y010408D03*
X003674Y010408D03*
X003669Y010405D03*
X003667Y010405D03*
X003664Y010405D03*
X003662Y010405D03*
X003659Y010405D03*
X003654Y010403D03*
X003652Y010403D03*
X003637Y010400D03*
X003634Y010400D03*
X003632Y010400D03*
X003619Y010398D03*
X003604Y010395D03*
X003597Y010393D03*
X003584Y010390D03*
X003582Y010390D03*
X003567Y010388D03*
X003544Y010385D03*
X003537Y010383D03*
X003534Y010383D03*
X003532Y010383D03*
X003522Y010380D03*
X003514Y010378D03*
X003512Y010378D03*
X003509Y010378D03*
X003492Y010373D03*
X003417Y010355D03*
X003387Y010348D03*
X003379Y010345D03*
X003297Y010320D03*
X003287Y010318D03*
X003284Y010318D03*
X003282Y010318D03*
X003262Y010310D03*
X003564Y010833D03*
X003639Y011483D03*
X003739Y012278D03*
X003742Y012278D03*
D58*
X003627Y011492D03*
X003654Y011169D03*
X003159Y013114D03*
X005207Y010204D03*
X005222Y010174D03*
X005309Y010117D03*
X005334Y010107D03*
X005382Y010069D03*
X005564Y009929D03*
X005584Y009927D03*
X005652Y009849D03*
X005792Y009732D03*
X005809Y009664D03*
X005912Y009482D03*
X005877Y009357D03*
X005924Y009294D03*
D59*
X005922Y009162D03*
X005834Y009582D03*
X005697Y009809D03*
X005694Y009812D03*
X005684Y009819D03*
X005549Y009954D03*
X005497Y010004D03*
X005494Y010002D03*
X005337Y010112D03*
X005314Y010122D03*
X005302Y010132D03*
X005292Y010137D03*
X005269Y010149D03*
X004334Y009272D03*
X003679Y010902D03*
X003657Y011177D03*
X003629Y011492D03*
X003164Y013087D03*
D60*
X004184Y011667D03*
X005202Y010202D03*
X005212Y010174D03*
X005224Y010167D03*
X005227Y010164D03*
X005239Y010157D03*
X005319Y010139D03*
X005347Y010102D03*
X005562Y009934D03*
X005794Y009707D03*
X005779Y009687D03*
X005839Y009607D03*
X005922Y009327D03*
X004309Y009292D03*
X004299Y009294D03*
X004297Y009297D03*
X004292Y009299D03*
X004289Y009299D03*
D61*
X004587Y010409D03*
X004759Y010369D03*
X004762Y010369D03*
X005067Y010267D03*
X005069Y010264D03*
X005087Y010254D03*
X005137Y010234D03*
X005144Y010229D03*
X005149Y010224D03*
X005919Y009227D03*
X004204Y012024D03*
X003669Y010889D03*
X004107Y010439D03*
X004109Y010437D03*
X004112Y010437D03*
X004114Y010437D03*
X003469Y012047D03*
D62*
X003474Y012042D03*
X003634Y011492D03*
X003559Y010832D03*
X003569Y013007D03*
X005162Y010214D03*
X005192Y010197D03*
X005199Y010199D03*
X005687Y009822D03*
X005702Y009804D03*
X005709Y009794D03*
X005832Y009592D03*
X005919Y009312D03*
D63*
X005917Y009139D03*
X005914Y009137D03*
X005784Y009712D03*
X005102Y010249D03*
X005097Y010252D03*
X004984Y010299D03*
X004982Y010299D03*
X004977Y010302D03*
X004947Y010314D03*
X004944Y010314D03*
X004942Y010314D03*
X004917Y010324D03*
X004912Y010327D03*
X004907Y010329D03*
X004904Y010329D03*
X004897Y010332D03*
X004894Y010332D03*
X004887Y010334D03*
X004829Y010352D03*
X004822Y010354D03*
X004744Y010377D03*
X004482Y010422D03*
X004479Y010422D03*
X004477Y010422D03*
X004469Y010424D03*
X004467Y010424D03*
X004464Y010424D03*
X004459Y010424D03*
X004457Y010424D03*
X004454Y010424D03*
X004452Y010424D03*
X004447Y010427D03*
X004422Y010427D03*
X004419Y010427D03*
X004417Y010427D03*
X004409Y010429D03*
X004407Y010429D03*
X004404Y010429D03*
X004364Y010434D03*
X004362Y010434D03*
X004359Y010434D03*
X004357Y010434D03*
X004354Y010434D03*
X004352Y010434D03*
X004349Y010434D03*
X004324Y010439D03*
X004317Y010437D03*
X004307Y010437D03*
X004282Y010439D03*
X004279Y010439D03*
X004277Y010439D03*
X004274Y010439D03*
X004272Y010439D03*
X004247Y010439D03*
X004232Y010442D03*
X004229Y010439D03*
X004227Y010439D03*
X004224Y010439D03*
X004177Y010442D03*
X004147Y010442D03*
X004144Y010442D03*
X004142Y010442D03*
X004139Y010442D03*
X004099Y010442D03*
X004097Y010442D03*
X004094Y010442D03*
X004067Y010442D03*
X004044Y010442D03*
X004022Y010439D03*
X004019Y010439D03*
X004017Y010439D03*
X004014Y010439D03*
X003989Y010437D03*
X003987Y010437D03*
X003949Y010437D03*
X003917Y010434D03*
X003914Y010434D03*
X003907Y010432D03*
X003904Y010432D03*
X003902Y010432D03*
X003899Y010432D03*
X003889Y010432D03*
X003887Y010432D03*
X003849Y010427D03*
X003834Y010427D03*
X003832Y010427D03*
X003817Y010424D03*
X003814Y010424D03*
X003812Y010424D03*
X003807Y010422D03*
X003804Y010422D03*
X003802Y010422D03*
X003797Y010422D03*
X003779Y010422D03*
X003777Y010422D03*
X003774Y010419D03*
X003772Y010419D03*
X003752Y010417D03*
X003749Y010417D03*
X003742Y010414D03*
X003739Y010414D03*
X003737Y010414D03*
X003734Y010414D03*
X003732Y010414D03*
X003729Y010414D03*
X003727Y010414D03*
X003717Y010412D03*
X003714Y010412D03*
X003712Y010412D03*
X003709Y010412D03*
X003707Y010412D03*
X003704Y010412D03*
X003697Y010409D03*
X003694Y010409D03*
X003692Y010409D03*
X003689Y010409D03*
X003687Y010409D03*
X003672Y010407D03*
X003657Y010404D03*
X003649Y010402D03*
X003647Y010402D03*
X003644Y010402D03*
X003642Y010402D03*
X003639Y010402D03*
X003629Y010399D03*
X003627Y010399D03*
X003624Y010399D03*
X003622Y010399D03*
X003617Y010397D03*
X003614Y010397D03*
X003612Y010397D03*
X003609Y010397D03*
X003607Y010397D03*
X003602Y010394D03*
X003599Y010394D03*
X003594Y010392D03*
X003592Y010392D03*
X003589Y010392D03*
X003587Y010392D03*
X003579Y010389D03*
X003577Y010389D03*
X003574Y010389D03*
X003572Y010389D03*
X003569Y010389D03*
X003564Y010387D03*
X003562Y010387D03*
X003559Y010387D03*
X003554Y010384D03*
X003552Y010384D03*
X003549Y010384D03*
X003547Y010384D03*
X003529Y010382D03*
X003527Y010382D03*
X003524Y010382D03*
X003519Y010379D03*
X003517Y010379D03*
X003507Y010377D03*
X003504Y010377D03*
X003502Y010377D03*
X003497Y010374D03*
X003494Y010374D03*
X003489Y010372D03*
X003487Y010372D03*
X003479Y010369D03*
X003477Y010369D03*
X003474Y010369D03*
X003472Y010369D03*
X003469Y010369D03*
X003467Y010367D03*
X003464Y010367D03*
X003462Y010364D03*
X003459Y010364D03*
X003457Y010364D03*
X003442Y010362D03*
X003439Y010362D03*
X003437Y010362D03*
X003434Y010359D03*
X003432Y010359D03*
X003429Y010357D03*
X003427Y010357D03*
X003424Y010357D03*
X003422Y010357D03*
X003419Y010357D03*
X003414Y010354D03*
X003407Y010352D03*
X003394Y010349D03*
X003392Y010349D03*
X003389Y010349D03*
X003384Y010347D03*
X003382Y010347D03*
X003377Y010344D03*
X003369Y010342D03*
X003367Y010342D03*
X003362Y010339D03*
X003344Y010334D03*
X003342Y010334D03*
X003339Y010334D03*
X003337Y010334D03*
X003327Y010329D03*
X003324Y010329D03*
X003322Y010329D03*
X003317Y010327D03*
X003314Y010324D03*
X003312Y010324D03*
X003309Y010324D03*
X003302Y010322D03*
X003299Y010322D03*
X003294Y010319D03*
X003292Y010319D03*
X003289Y010319D03*
X003279Y010317D03*
X003267Y010312D03*
X003264Y010312D03*
X003259Y010309D03*
X003257Y010309D03*
X003254Y010309D03*
X003249Y010307D03*
X003202Y010289D03*
X003199Y010289D03*
X003197Y010289D03*
X003194Y010287D03*
X003192Y010287D03*
X003669Y011172D03*
X003642Y011482D03*
X003774Y011782D03*
X003577Y012997D03*
X002414Y009742D03*
D64*
X002542Y009898D03*
X002544Y009900D03*
X003829Y011780D03*
X003832Y011780D03*
X004077Y011890D03*
X004079Y011893D03*
X004082Y011895D03*
X003919Y012295D03*
X004187Y010980D03*
X005752Y008970D03*
X005914Y009275D03*
X005882Y009478D03*
D65*
X005912Y009213D03*
X004262Y010808D03*
X004094Y011650D03*
X003647Y010810D03*
D66*
X003262Y012728D03*
X003249Y012783D03*
X003239Y012823D03*
X005909Y009235D03*
D67*
X005907Y009210D03*
D68*
X005907Y009490D03*
X005902Y009510D03*
X005804Y009653D03*
X005797Y009653D03*
X005787Y009720D03*
X005682Y009815D03*
X005592Y009915D03*
X005557Y009938D03*
X005542Y009955D03*
X005522Y009968D03*
X005362Y010090D03*
X005312Y010115D03*
X005299Y010128D03*
X005242Y010155D03*
X005232Y010158D03*
X005189Y010185D03*
X004294Y009298D03*
D69*
X004077Y011648D03*
X005904Y009215D03*
X005869Y009130D03*
D70*
X005904Y009530D03*
X005877Y009583D03*
X005799Y009748D03*
X005657Y009838D03*
X005644Y009855D03*
X005612Y009890D03*
X005407Y010058D03*
X005387Y010063D03*
X005379Y010068D03*
X005364Y010085D03*
X005359Y010085D03*
X005214Y010180D03*
X004272Y009323D03*
X004269Y009325D03*
X003684Y010898D03*
X004209Y012033D03*
D71*
X003424Y012109D03*
X003232Y012852D03*
X005902Y009219D03*
D72*
X005902Y009429D03*
X005714Y009794D03*
X005322Y010127D03*
X004022Y012402D03*
X003729Y012284D03*
X003472Y012044D03*
X003662Y011169D03*
X003562Y010832D03*
X004177Y013187D03*
D73*
X005899Y009264D03*
D74*
X005897Y009237D03*
X003292Y012617D03*
D75*
X003167Y013067D03*
X003737Y012277D03*
X003772Y011782D03*
X003664Y010889D03*
X003762Y010419D03*
X003764Y010419D03*
X003759Y010417D03*
X003757Y010417D03*
X003754Y010417D03*
X003789Y010422D03*
X003852Y010429D03*
X003854Y010429D03*
X003857Y010429D03*
X003859Y010429D03*
X003867Y010429D03*
X003922Y010434D03*
X003924Y010434D03*
X003929Y010434D03*
X003932Y010434D03*
X003934Y010434D03*
X003937Y010434D03*
X003939Y010434D03*
X003942Y010434D03*
X003944Y010434D03*
X003947Y010434D03*
X003964Y010437D03*
X003967Y010437D03*
X003969Y010437D03*
X003972Y010437D03*
X003974Y010437D03*
X003977Y010437D03*
X003979Y010437D03*
X003982Y010437D03*
X003994Y010437D03*
X003997Y010437D03*
X004002Y010439D03*
X004004Y010439D03*
X004077Y010439D03*
X004079Y010439D03*
X004082Y010439D03*
X004117Y010439D03*
X004119Y010442D03*
X004187Y010442D03*
X004197Y010444D03*
X004199Y010444D03*
X004204Y010442D03*
X004209Y010444D03*
X004217Y010442D03*
X004259Y010442D03*
X004262Y010442D03*
X004264Y010442D03*
X004294Y010439D03*
X004297Y010439D03*
X004299Y010439D03*
X004344Y010437D03*
X004372Y010432D03*
X004374Y010432D03*
X004377Y010432D03*
X004379Y010432D03*
X004384Y010432D03*
X004387Y010432D03*
X004397Y010429D03*
X004427Y010427D03*
X004429Y010427D03*
X004432Y010427D03*
X004434Y010427D03*
X004502Y010422D03*
X004512Y010419D03*
X004514Y010419D03*
X004517Y010419D03*
X004519Y010419D03*
X004532Y010414D03*
X004534Y010414D03*
X004537Y010414D03*
X004557Y010414D03*
X004564Y010412D03*
X004567Y010412D03*
X004569Y010412D03*
X004572Y010412D03*
X004574Y010412D03*
X004597Y010407D03*
X004607Y010404D03*
X004609Y010404D03*
X004622Y010402D03*
X004624Y010402D03*
X004629Y010402D03*
X004632Y010402D03*
X004644Y010399D03*
X004647Y010399D03*
X004649Y010399D03*
X004662Y010394D03*
X004664Y010394D03*
X004667Y010394D03*
X004669Y010392D03*
X004672Y010392D03*
X004674Y010392D03*
X004689Y010389D03*
X004692Y010389D03*
X004694Y010389D03*
X004697Y010389D03*
X004699Y010387D03*
X004702Y010387D03*
X004704Y010387D03*
X004712Y010384D03*
X004714Y010384D03*
X004719Y010382D03*
X004722Y010382D03*
X004724Y010382D03*
X004727Y010382D03*
X004732Y010379D03*
X004734Y010379D03*
X004737Y010379D03*
X004749Y010374D03*
X004752Y010374D03*
X004754Y010374D03*
X004767Y010369D03*
X004787Y010364D03*
X004802Y010362D03*
X004844Y010349D03*
X004847Y010349D03*
X004854Y010347D03*
X004859Y010344D03*
X004872Y010342D03*
X004874Y010339D03*
X004877Y010339D03*
X004879Y010337D03*
X004929Y010322D03*
X004932Y010319D03*
X004934Y010317D03*
X004937Y010317D03*
X004954Y010312D03*
X004957Y010309D03*
X004959Y010309D03*
X004962Y010309D03*
X004964Y010309D03*
X004972Y010304D03*
X004997Y010297D03*
X004999Y010294D03*
X005002Y010292D03*
X005004Y010292D03*
X005007Y010292D03*
X005009Y010292D03*
X005027Y010282D03*
X005029Y010282D03*
X005037Y010279D03*
X005039Y010279D03*
X005042Y010277D03*
X005044Y010277D03*
X005047Y010277D03*
X005049Y010274D03*
X005052Y010274D03*
X005054Y010274D03*
X005057Y010272D03*
X005062Y010269D03*
X005064Y010269D03*
X005072Y010267D03*
X005077Y010264D03*
X005104Y010247D03*
X005107Y010244D03*
X005114Y010242D03*
X005132Y010234D03*
X005134Y010234D03*
X005719Y009794D03*
X005722Y009792D03*
X005737Y009769D03*
X005897Y009439D03*
X003542Y010384D03*
X003539Y010384D03*
D76*
X005894Y009227D03*
D77*
X005892Y009225D03*
D78*
X005892Y009443D03*
X005759Y009748D03*
X005757Y009753D03*
X005257Y008875D03*
X005224Y008880D03*
X005222Y008880D03*
X005219Y008880D03*
X005164Y008885D03*
X005129Y008893D03*
X005127Y008893D03*
X005124Y008893D03*
X005052Y008908D03*
X005037Y008913D03*
X005009Y008923D03*
X005007Y008923D03*
X005004Y008923D03*
X004977Y008933D03*
X004969Y008933D03*
X004967Y008933D03*
X004964Y008933D03*
X004962Y008935D03*
X004937Y008943D03*
X004929Y008945D03*
X004927Y008945D03*
X004869Y008970D03*
X004792Y009003D03*
X004789Y009003D03*
X004787Y009005D03*
X004767Y009013D03*
X004747Y009020D03*
X004742Y009023D03*
X004717Y009038D03*
X004714Y009038D03*
X004704Y009045D03*
X004702Y009045D03*
X004667Y009063D03*
X004664Y009065D03*
X004577Y009110D03*
X004574Y009113D03*
X004522Y009148D03*
X004517Y009150D03*
X004509Y009155D03*
X004494Y009165D03*
X004492Y009168D03*
X004487Y009173D03*
X004134Y010640D03*
X004119Y010638D03*
X004117Y010638D03*
X004114Y010638D03*
X004112Y010638D03*
X004109Y010635D03*
X004107Y010635D03*
X004104Y010635D03*
X004102Y010635D03*
X004077Y010633D03*
X004034Y010633D03*
X004032Y010633D03*
X003842Y010663D03*
X003839Y010663D03*
X003792Y010678D03*
X003782Y010683D03*
X003779Y010683D03*
X003777Y010683D03*
X003774Y010683D03*
X003769Y010685D03*
X003767Y010688D03*
X003764Y010688D03*
X003759Y010690D03*
X003652Y010880D03*
X004072Y011210D03*
X004074Y011210D03*
X004079Y011213D03*
X004082Y011213D03*
X004097Y011218D03*
X004107Y011223D03*
X004109Y011223D03*
X004112Y011223D03*
X004124Y011230D03*
X004127Y011230D03*
X004129Y011233D03*
X004137Y011238D03*
X004139Y011240D03*
X004064Y011728D03*
X004062Y011728D03*
X004057Y011730D03*
X003587Y012988D03*
X004167Y013183D03*
X004169Y013183D03*
X002884Y010145D03*
X002879Y010143D03*
X002877Y010140D03*
X002874Y010140D03*
X002872Y010138D03*
X002867Y010135D03*
X002862Y010133D03*
X002859Y010130D03*
X002857Y010130D03*
X002854Y010128D03*
X002852Y010128D03*
X002839Y010118D03*
X002837Y010118D03*
X002824Y010108D03*
X002819Y010105D03*
X002812Y010103D03*
X002809Y010100D03*
X002804Y010098D03*
X002802Y010095D03*
X002797Y010093D03*
X002792Y010090D03*
X002789Y010088D03*
X002782Y010083D03*
X002774Y010080D03*
D79*
X002409Y009748D03*
X003677Y010900D03*
X003764Y011788D03*
X003727Y012288D03*
X004179Y013188D03*
X005157Y010210D03*
X005177Y010203D03*
X005179Y010208D03*
X005234Y010168D03*
X005257Y010160D03*
X005259Y010155D03*
X005284Y010143D03*
X005287Y010143D03*
X005547Y009958D03*
X005689Y009818D03*
X005829Y009593D03*
X005892Y009528D03*
X004339Y009270D03*
X004337Y009270D03*
D80*
X005889Y009307D03*
D81*
X005887Y009237D03*
X003322Y012487D03*
X003317Y012504D03*
D82*
X005884Y009275D03*
D83*
X005882Y009209D03*
X003397Y012179D03*
D84*
X005879Y009294D03*
D85*
X005877Y009174D03*
X003299Y012589D03*
D86*
X003757Y012800D03*
X003934Y013068D03*
X003949Y013083D03*
X003952Y013088D03*
X003954Y013090D03*
X003979Y013123D03*
X003982Y013128D03*
X003989Y013138D03*
X003939Y012323D03*
X004114Y011930D03*
X004152Y011663D03*
X003914Y011785D03*
X003912Y011785D03*
X003909Y011785D03*
X003907Y011785D03*
X003897Y011788D03*
X003894Y011788D03*
X003979Y011160D03*
X002434Y009755D03*
X005809Y009023D03*
X005877Y009480D03*
D87*
X005874Y009158D03*
X004247Y010815D03*
X003282Y012653D03*
X003269Y012703D03*
D88*
X003602Y012973D03*
X003742Y012785D03*
X003737Y012778D03*
X003934Y012313D03*
X003932Y012310D03*
X004002Y012390D03*
X004102Y011913D03*
X004159Y011660D03*
X003857Y011783D03*
X003854Y011783D03*
X003852Y011783D03*
X003949Y011163D03*
X004194Y010970D03*
X004189Y010680D03*
X004027Y013180D03*
X002527Y009878D03*
X002524Y009875D03*
X002509Y009855D03*
X005767Y008980D03*
X005774Y008988D03*
X005779Y008995D03*
X005782Y008995D03*
X005874Y009485D03*
D89*
X005872Y009138D03*
X003427Y012105D03*
D90*
X003677Y011480D03*
X003679Y011480D03*
X003682Y011480D03*
X003684Y011480D03*
X003807Y011778D03*
X004059Y011575D03*
X004062Y011575D03*
X004064Y011578D03*
X003894Y011170D03*
X003892Y011170D03*
X003889Y011170D03*
X003884Y011168D03*
X003882Y011168D03*
X003652Y010748D03*
X004179Y010668D03*
X004162Y011013D03*
X004154Y011020D03*
X004152Y011023D03*
X004142Y011035D03*
X004139Y011038D03*
X004134Y011040D03*
X003907Y012285D03*
X004062Y013203D03*
X004124Y013210D03*
X004129Y013205D03*
X004159Y013183D03*
X002579Y009930D03*
X002574Y009928D03*
X002572Y009925D03*
X002567Y009920D03*
X002564Y009918D03*
X005712Y008945D03*
X005719Y008950D03*
X005722Y008950D03*
X005724Y008953D03*
X005727Y008953D03*
X005872Y009488D03*
X005857Y009548D03*
D91*
X005869Y009495D03*
X005772Y008985D03*
X005764Y008980D03*
X005762Y008978D03*
X005759Y008978D03*
X005757Y008975D03*
X003934Y011165D03*
X003932Y011165D03*
X003929Y011165D03*
X003929Y012305D03*
X003729Y012773D03*
X003727Y012773D03*
X003724Y012773D03*
X003732Y012775D03*
X003734Y012775D03*
X003599Y012975D03*
X004037Y013188D03*
X004039Y013188D03*
X004042Y013188D03*
X004144Y013190D03*
X004149Y013185D03*
X004152Y013185D03*
X002534Y009888D03*
X002532Y009885D03*
D92*
X003637Y010810D03*
X003639Y010810D03*
X004099Y011650D03*
X004029Y011805D03*
X005867Y009125D03*
D93*
X005682Y008932D03*
X005677Y008929D03*
X005672Y008927D03*
X005669Y008927D03*
X005667Y008924D03*
X005657Y008919D03*
X005654Y008919D03*
X005652Y008919D03*
X005629Y008909D03*
X005607Y008902D03*
X005867Y009509D03*
X005767Y009744D03*
X004199Y011287D03*
X004194Y011284D03*
X004192Y011284D03*
X004179Y011274D03*
X004092Y011074D03*
X004109Y011062D03*
X004112Y011059D03*
X004114Y011057D03*
X004117Y011054D03*
X004122Y011052D03*
X004174Y010664D03*
X004172Y010662D03*
X003862Y011169D03*
X003859Y011169D03*
X003857Y011169D03*
X003842Y011169D03*
X003839Y011169D03*
X003837Y011169D03*
X003834Y011169D03*
X003749Y011497D03*
X003747Y011497D03*
X003727Y011492D03*
X003724Y011492D03*
X003722Y011492D03*
X003719Y011492D03*
X003714Y011489D03*
X003712Y011489D03*
X003709Y011487D03*
X003707Y011487D03*
X003704Y011487D03*
X003702Y011487D03*
X003699Y011487D03*
X003697Y011487D03*
X003799Y011779D03*
X003997Y011547D03*
X004019Y011557D03*
X004029Y011559D03*
X004039Y011562D03*
X004054Y011572D03*
X004194Y012014D03*
X003887Y012274D03*
X003884Y012272D03*
X003882Y012272D03*
X003879Y012269D03*
X003877Y012269D03*
X003872Y012267D03*
X004162Y013184D03*
X004119Y013214D03*
X004117Y013214D03*
X004102Y013217D03*
X004099Y013217D03*
X004097Y013217D03*
X004082Y013214D03*
X004079Y013214D03*
X004074Y013209D03*
X003659Y010739D03*
X002629Y009977D03*
X002624Y009972D03*
X002617Y009967D03*
X002614Y009964D03*
X002609Y009962D03*
X002604Y009957D03*
X002589Y009944D03*
D94*
X003634Y010809D03*
X004102Y011652D03*
X004027Y011804D03*
X004024Y011804D03*
X005864Y009114D03*
D95*
X005709Y008944D03*
X005707Y008942D03*
X005704Y008942D03*
X005692Y008937D03*
X005687Y008934D03*
X005864Y009519D03*
X004279Y010809D03*
X004177Y010667D03*
X004149Y011027D03*
X004147Y011027D03*
X004144Y011032D03*
X004137Y011039D03*
X004132Y011042D03*
X004129Y011044D03*
X004189Y011282D03*
X004047Y011567D03*
X004052Y011569D03*
X004057Y011574D03*
X004067Y011579D03*
X004167Y011664D03*
X003887Y011169D03*
X003879Y011167D03*
X003877Y011167D03*
X003694Y011484D03*
X003687Y011482D03*
X003674Y011479D03*
X003672Y011479D03*
X003804Y011779D03*
X003892Y012277D03*
X003899Y012279D03*
X003902Y012282D03*
X003904Y012284D03*
X004127Y013207D03*
X003172Y013044D03*
X003654Y010744D03*
X002599Y009954D03*
X002582Y009934D03*
D96*
X003617Y010817D03*
X004059Y011149D03*
X004062Y011149D03*
X004007Y011802D03*
X003439Y012089D03*
X005862Y009107D03*
X005859Y009102D03*
D97*
X005859Y009523D03*
X005842Y009573D03*
X005732Y009775D03*
X005729Y009780D03*
X005727Y009785D03*
X005712Y009800D03*
X005159Y010223D03*
X005119Y010238D03*
X005112Y010243D03*
X005079Y010260D03*
X005074Y010263D03*
X005019Y010285D03*
X005017Y010288D03*
X005014Y010288D03*
X005012Y010290D03*
X004969Y010305D03*
X004857Y010345D03*
X004852Y010348D03*
X004849Y010348D03*
X004764Y010368D03*
X004757Y010373D03*
X004709Y010385D03*
X004707Y010385D03*
X004642Y010400D03*
X004639Y010400D03*
X004637Y010400D03*
X004634Y010400D03*
X004594Y010408D03*
X004592Y010408D03*
X004589Y010408D03*
X004584Y010410D03*
X004582Y010410D03*
X004579Y010410D03*
X004577Y010410D03*
X004562Y010413D03*
X004559Y010413D03*
X004509Y010420D03*
X004507Y010420D03*
X004504Y010420D03*
X004394Y010430D03*
X004392Y010430D03*
X004389Y010430D03*
X004214Y010443D03*
X004212Y010443D03*
X004207Y010443D03*
X004202Y010443D03*
X004084Y010440D03*
X003999Y010438D03*
X004284Y010808D03*
X003667Y010890D03*
X003637Y011485D03*
X004174Y013180D03*
D98*
X004004Y011800D03*
X004002Y011800D03*
X003999Y011800D03*
X003997Y011800D03*
X004117Y011653D03*
X004267Y010810D03*
X003614Y010818D03*
X003209Y012923D03*
X005857Y009098D03*
D99*
X005854Y009093D03*
X004122Y011655D03*
X004139Y011978D03*
X004144Y011980D03*
X004054Y011150D03*
X003612Y010818D03*
X002482Y009798D03*
D100*
X002649Y009992D03*
X002659Y009999D03*
X002664Y010002D03*
X002699Y010029D03*
X002702Y010032D03*
X003669Y010734D03*
X003677Y010729D03*
X003679Y010729D03*
X003687Y010724D03*
X003709Y011164D03*
X003712Y011164D03*
X003714Y011164D03*
X003717Y011164D03*
X003704Y011167D03*
X003702Y011167D03*
X003699Y011167D03*
X003697Y011167D03*
X003734Y011164D03*
X003752Y011164D03*
X003754Y011167D03*
X003757Y011167D03*
X003759Y011167D03*
X003762Y011167D03*
X003764Y011167D03*
X003767Y011167D03*
X003782Y011167D03*
X003784Y011167D03*
X003787Y011167D03*
X003789Y011167D03*
X003802Y011169D03*
X003804Y011169D03*
X003807Y011169D03*
X003819Y011169D03*
X003822Y011169D03*
X003847Y011169D03*
X003849Y011169D03*
X003779Y011502D03*
X003789Y011504D03*
X003794Y011507D03*
X003797Y011507D03*
X003799Y011507D03*
X003802Y011507D03*
X003804Y011507D03*
X003807Y011507D03*
X003809Y011507D03*
X003814Y011509D03*
X003817Y011509D03*
X003819Y011512D03*
X003822Y011512D03*
X003824Y011512D03*
X003827Y011512D03*
X003839Y011514D03*
X003767Y011499D03*
X003764Y011499D03*
X003737Y011494D03*
X003734Y011494D03*
X003657Y011479D03*
X003794Y011779D03*
X003954Y011537D03*
X003957Y011537D03*
X003959Y011537D03*
X003962Y011537D03*
X003982Y011542D03*
X003989Y011547D03*
X003992Y011547D03*
X003999Y011549D03*
X004002Y011549D03*
X004004Y011549D03*
X004007Y011552D03*
X004009Y011552D03*
X004012Y011552D03*
X004014Y011552D03*
X004169Y011664D03*
X004204Y011289D03*
X004167Y011259D03*
X003859Y012262D03*
X003857Y012262D03*
X003854Y012262D03*
X003842Y012262D03*
X003839Y012262D03*
X003837Y012262D03*
X003834Y012262D03*
X003867Y012264D03*
X003792Y012267D03*
X003789Y012267D03*
X003777Y012272D03*
X003774Y012272D03*
X003772Y012272D03*
X004014Y012399D03*
X003592Y012982D03*
X004089Y013217D03*
X004092Y013217D03*
X004109Y013214D03*
X005777Y009727D03*
X005854Y009547D03*
X005644Y008917D03*
X005639Y008914D03*
X005617Y008904D03*
X005614Y008904D03*
X005612Y008904D03*
X005609Y008904D03*
X005602Y008902D03*
X005599Y008902D03*
X005592Y008899D03*
X005589Y008897D03*
X005587Y008897D03*
X005584Y008897D03*
X005582Y008897D03*
X005577Y008894D03*
X005552Y008889D03*
X005549Y008887D03*
X005547Y008887D03*
X005537Y008884D03*
X005502Y008882D03*
X005499Y008882D03*
X005497Y008879D03*
X005494Y008879D03*
X005492Y008877D03*
X005479Y008877D03*
D101*
X005852Y009087D03*
X004137Y011974D03*
X004142Y011979D03*
X003992Y011799D03*
X003989Y011799D03*
X003987Y011799D03*
X004052Y011149D03*
X003609Y010817D03*
X002487Y009804D03*
X002484Y009799D03*
X002477Y009792D03*
X002474Y009787D03*
D102*
X002654Y009995D03*
X002672Y010008D03*
X002679Y010015D03*
X002687Y010020D03*
X002689Y010023D03*
X002692Y010025D03*
X002694Y010025D03*
X002697Y010028D03*
X002704Y010033D03*
X003569Y010823D03*
X003672Y010733D03*
X003682Y010728D03*
X003684Y010725D03*
X003689Y010723D03*
X003692Y010720D03*
X003694Y010720D03*
X003704Y010713D03*
X003707Y011165D03*
X003719Y011165D03*
X003722Y011165D03*
X003724Y011165D03*
X003727Y011165D03*
X003737Y011165D03*
X003739Y011165D03*
X003742Y011165D03*
X003744Y011165D03*
X003747Y011165D03*
X003749Y011165D03*
X003769Y011165D03*
X003772Y011165D03*
X003774Y011165D03*
X003777Y011165D03*
X003779Y011165D03*
X003792Y011168D03*
X003794Y011168D03*
X003797Y011168D03*
X003799Y011168D03*
X003809Y011168D03*
X003812Y011168D03*
X003814Y011168D03*
X003817Y011168D03*
X003694Y011165D03*
X003692Y011165D03*
X003689Y011165D03*
X003829Y011513D03*
X003832Y011513D03*
X003834Y011513D03*
X003837Y011513D03*
X003842Y011515D03*
X003844Y011515D03*
X003847Y011515D03*
X003849Y011515D03*
X003852Y011515D03*
X003854Y011518D03*
X003857Y011518D03*
X003859Y011518D03*
X003862Y011518D03*
X003864Y011518D03*
X003867Y011518D03*
X003869Y011518D03*
X003872Y011518D03*
X003879Y011520D03*
X003892Y011523D03*
X003894Y011523D03*
X003897Y011523D03*
X003902Y011525D03*
X003904Y011525D03*
X003912Y011528D03*
X003914Y011528D03*
X003932Y011533D03*
X003934Y011533D03*
X003937Y011533D03*
X003939Y011533D03*
X003942Y011533D03*
X003949Y011535D03*
X003952Y011535D03*
X003964Y011538D03*
X003967Y011538D03*
X003977Y011543D03*
X003979Y011543D03*
X003792Y011780D03*
X003822Y012260D03*
X003824Y012260D03*
X003827Y012260D03*
X003829Y012260D03*
X003832Y012260D03*
X003844Y012260D03*
X003847Y012260D03*
X003849Y012260D03*
X003852Y012260D03*
X003862Y012263D03*
X003864Y012263D03*
X003817Y012263D03*
X003814Y012263D03*
X003812Y012263D03*
X003809Y012263D03*
X003807Y012263D03*
X003804Y012263D03*
X003802Y012265D03*
X003799Y012265D03*
X003797Y012265D03*
X003794Y012265D03*
X003787Y012268D03*
X003784Y012268D03*
X003779Y012270D03*
X003769Y012273D03*
X003767Y012273D03*
X003764Y012273D03*
X003762Y012273D03*
X004197Y012018D03*
X004214Y011300D03*
X004212Y011295D03*
X004209Y011293D03*
X004207Y011293D03*
X004157Y011250D03*
X004152Y011248D03*
X004077Y011085D03*
X005107Y008893D03*
X005109Y008893D03*
X005112Y008893D03*
X005114Y008893D03*
X005387Y008870D03*
X005389Y008870D03*
X005392Y008870D03*
X005429Y008873D03*
X005472Y008878D03*
X005474Y008878D03*
X005477Y008878D03*
X005482Y008878D03*
X005484Y008878D03*
X005487Y008878D03*
X005489Y008878D03*
X005504Y008880D03*
X005507Y008880D03*
X005509Y008880D03*
X005512Y008880D03*
X005517Y008883D03*
X005519Y008883D03*
X005522Y008883D03*
X005524Y008883D03*
X005529Y008885D03*
X005532Y008885D03*
X005534Y008885D03*
X005539Y008885D03*
X005542Y008885D03*
X005544Y008885D03*
X005554Y008890D03*
X005557Y008890D03*
X005564Y008893D03*
X005567Y008893D03*
X005569Y008893D03*
X005572Y008893D03*
X005574Y008893D03*
X005579Y008895D03*
X005642Y008915D03*
X005852Y009555D03*
D103*
X005849Y009084D03*
X004157Y011989D03*
X003977Y011797D03*
X003974Y011797D03*
X003954Y012354D03*
X003957Y012357D03*
X003654Y012897D03*
X003649Y012902D03*
X003644Y012912D03*
X004042Y011152D03*
X003604Y010817D03*
X002459Y009772D03*
D104*
X002889Y010148D03*
X002894Y010150D03*
X002902Y010153D03*
X002904Y010155D03*
X002907Y010158D03*
X002909Y010158D03*
X002914Y010160D03*
X002917Y010163D03*
X002922Y010165D03*
X002924Y010165D03*
X002927Y010168D03*
X002932Y010170D03*
X002937Y010173D03*
X002962Y010185D03*
X002964Y010188D03*
X002969Y010190D03*
X003044Y010225D03*
X003657Y010883D03*
X003802Y010673D03*
X003804Y010673D03*
X003812Y010670D03*
X003814Y010670D03*
X003817Y010670D03*
X003824Y010668D03*
X003827Y010668D03*
X003832Y010665D03*
X003834Y010665D03*
X003847Y010660D03*
X003849Y010660D03*
X003852Y010660D03*
X003854Y010660D03*
X003859Y010658D03*
X003862Y010658D03*
X003867Y010655D03*
X003869Y010655D03*
X003892Y010650D03*
X003894Y010650D03*
X003897Y010650D03*
X003899Y010650D03*
X003904Y010648D03*
X003907Y010648D03*
X003909Y010648D03*
X003912Y010648D03*
X003914Y010648D03*
X003922Y010645D03*
X003924Y010645D03*
X003934Y010643D03*
X003959Y010640D03*
X003977Y010640D03*
X003979Y010640D03*
X003982Y010635D03*
X003984Y010635D03*
X003987Y010635D03*
X003989Y010635D03*
X003992Y010635D03*
X004004Y010635D03*
X004007Y010635D03*
X004019Y010633D03*
X004022Y010633D03*
X004039Y010635D03*
X004062Y010635D03*
X004064Y010635D03*
X004067Y010635D03*
X004069Y010635D03*
X004072Y010635D03*
X004074Y010635D03*
X004084Y010635D03*
X004087Y010635D03*
X004089Y010635D03*
X004092Y010635D03*
X004094Y010635D03*
X004224Y011308D03*
X004054Y011733D03*
X004052Y011733D03*
X004042Y011735D03*
X004039Y011735D03*
X004037Y011735D03*
X004034Y011735D03*
X003752Y012275D03*
X004367Y009263D03*
X004387Y009248D03*
X004414Y009228D03*
X004434Y009213D03*
X004439Y009210D03*
X004444Y009205D03*
X004447Y009205D03*
X004462Y009193D03*
X004464Y009190D03*
X004467Y009188D03*
X004474Y009183D03*
X004477Y009180D03*
X004479Y009178D03*
X004484Y009175D03*
X004514Y009153D03*
X004527Y009145D03*
X004529Y009143D03*
X004539Y009138D03*
X004567Y009120D03*
X004582Y009110D03*
X004614Y009093D03*
X004617Y009090D03*
X004619Y009090D03*
X004622Y009088D03*
X004647Y009075D03*
X004652Y009073D03*
X004654Y009073D03*
X004659Y009068D03*
X004672Y009063D03*
X004692Y009050D03*
X004697Y009048D03*
X004709Y009043D03*
X004722Y009035D03*
X004724Y009035D03*
X004727Y009033D03*
X004729Y009033D03*
X004732Y009030D03*
X004737Y009028D03*
X004739Y009028D03*
X004772Y009010D03*
X004774Y009010D03*
X004779Y009008D03*
X004782Y009008D03*
X004824Y008990D03*
X004877Y008968D03*
X004944Y008943D03*
X004982Y008930D03*
X004984Y008930D03*
X004987Y008930D03*
X005069Y008908D03*
X005072Y008905D03*
X005754Y009753D03*
X005769Y009738D03*
X005849Y009558D03*
D105*
X005847Y009079D03*
X004149Y011984D03*
X003984Y011799D03*
X003982Y011799D03*
X004044Y011152D03*
X004047Y011152D03*
X003607Y010817D03*
X003442Y012082D03*
X003647Y012909D03*
X003637Y012927D03*
X003634Y012929D03*
X003202Y012954D03*
X002489Y009809D03*
X002467Y009782D03*
X002464Y009777D03*
D106*
X002942Y010175D03*
X002947Y010178D03*
X002952Y010180D03*
X002984Y010195D03*
X002987Y010198D03*
X003002Y010205D03*
X003007Y010208D03*
X003009Y010210D03*
X003012Y010210D03*
X003017Y010213D03*
X003019Y010213D03*
X003022Y010215D03*
X003027Y010218D03*
X003029Y010218D03*
X003032Y010218D03*
X003034Y010220D03*
X003039Y010223D03*
X003042Y010223D03*
X003054Y010228D03*
X003062Y010233D03*
X003064Y010233D03*
X003069Y010235D03*
X003082Y010240D03*
X003087Y010243D03*
X003099Y010248D03*
X003104Y010250D03*
X003107Y010253D03*
X003109Y010253D03*
X003114Y010255D03*
X003127Y010263D03*
X003129Y010263D03*
X003142Y010268D03*
X003144Y010268D03*
X003147Y010268D03*
X003672Y011170D03*
X003944Y010643D03*
X003947Y010643D03*
X003949Y010643D03*
X003964Y010640D03*
X003967Y010640D03*
X004044Y010635D03*
X004047Y010635D03*
X004227Y011313D03*
X004202Y012020D03*
X004017Y012403D03*
X003747Y012275D03*
X004357Y009273D03*
X004359Y009273D03*
X004379Y009253D03*
X004382Y009250D03*
X004404Y009235D03*
X004412Y009230D03*
X004422Y009223D03*
X004427Y009218D03*
X004429Y009218D03*
X004557Y009128D03*
X004559Y009128D03*
X004587Y009110D03*
X004599Y009103D03*
X004612Y009095D03*
X004677Y009060D03*
X005739Y009773D03*
X005847Y009563D03*
D107*
X005844Y009075D03*
X004034Y011153D03*
X004032Y011153D03*
X004029Y011153D03*
X003964Y011793D03*
X003962Y011793D03*
X003959Y011793D03*
X003659Y012883D03*
D108*
X003749Y012274D03*
X003782Y011787D03*
X003677Y011169D03*
X003674Y011169D03*
X003829Y010667D03*
X003872Y010657D03*
X003874Y010657D03*
X003877Y010657D03*
X003879Y010657D03*
X003882Y010654D03*
X003884Y010654D03*
X003887Y010652D03*
X003889Y010652D03*
X003917Y010647D03*
X003919Y010647D03*
X003937Y010644D03*
X003939Y010644D03*
X003942Y010644D03*
X003952Y010642D03*
X003954Y010642D03*
X003957Y010642D03*
X003962Y010642D03*
X003969Y010639D03*
X003972Y010639D03*
X003974Y010639D03*
X004042Y010637D03*
X004049Y010634D03*
X004052Y010634D03*
X004054Y010634D03*
X004057Y010634D03*
X004059Y010634D03*
X004172Y011659D03*
X003059Y010232D03*
X003057Y010229D03*
X003052Y010227D03*
X003049Y010227D03*
X003047Y010227D03*
X003037Y010222D03*
X003024Y010217D03*
X003014Y010212D03*
X003004Y010207D03*
X002999Y010204D03*
X002997Y010202D03*
X002994Y010202D03*
X002992Y010202D03*
X002989Y010199D03*
X002982Y010194D03*
X002979Y010194D03*
X002977Y010192D03*
X002974Y010192D03*
X002972Y010192D03*
X002967Y010189D03*
X002959Y010184D03*
X002957Y010184D03*
X002954Y010182D03*
X002949Y010179D03*
X002944Y010177D03*
X002939Y010174D03*
X002934Y010172D03*
X002929Y010169D03*
X002919Y010164D03*
X002912Y010159D03*
X004344Y009282D03*
X004347Y009279D03*
X004349Y009279D03*
X004352Y009277D03*
X004354Y009274D03*
X004369Y009262D03*
X004372Y009259D03*
X004374Y009259D03*
X004377Y009257D03*
X004384Y009249D03*
X004397Y009242D03*
X004399Y009239D03*
X004402Y009237D03*
X004407Y009234D03*
X004409Y009232D03*
X004417Y009224D03*
X004419Y009224D03*
X004424Y009219D03*
X004432Y009217D03*
X004437Y009212D03*
X004469Y009187D03*
X004542Y009137D03*
X004572Y009117D03*
X004584Y009112D03*
X004657Y009072D03*
X004674Y009062D03*
X004679Y009059D03*
X004682Y009057D03*
X004684Y009057D03*
X004687Y009057D03*
X004689Y009054D03*
X004694Y009049D03*
X004827Y008989D03*
X005752Y009754D03*
X005844Y009577D03*
D109*
X005842Y009069D03*
X004272Y010812D03*
X004022Y011154D03*
X003944Y011792D03*
X004172Y012002D03*
X003969Y012362D03*
X003974Y012367D03*
X003679Y012834D03*
X003677Y012839D03*
X003674Y012844D03*
X003449Y012077D03*
X003597Y010817D03*
D110*
X003594Y010818D03*
X004014Y011155D03*
X004017Y011155D03*
X004019Y011155D03*
X004204Y010938D03*
X004142Y011660D03*
X003942Y011790D03*
X003947Y012340D03*
X003979Y012373D03*
X003804Y012865D03*
X003807Y012868D03*
X003809Y012873D03*
X003669Y012855D03*
X003664Y012868D03*
X003619Y012953D03*
X002447Y009763D03*
X005839Y009068D03*
D111*
X005837Y009063D03*
X004204Y010713D03*
X004024Y011153D03*
X004139Y011660D03*
X004129Y011953D03*
X004132Y011955D03*
X003949Y011793D03*
X003947Y011793D03*
X003949Y012343D03*
X003977Y012368D03*
X003672Y012850D03*
X003662Y012875D03*
X003599Y010815D03*
X002449Y009768D03*
D112*
X002499Y009839D03*
X003587Y010817D03*
X003982Y011159D03*
X003984Y011159D03*
X004199Y010957D03*
X003904Y011787D03*
X003902Y011787D03*
X003899Y011787D03*
X004112Y011927D03*
X004117Y011932D03*
X003942Y012327D03*
X003994Y012384D03*
X003759Y012804D03*
X003764Y012809D03*
X003709Y012787D03*
X003707Y012789D03*
X003702Y012799D03*
X003609Y012962D03*
X003927Y013054D03*
X003929Y013059D03*
X003932Y013062D03*
X003942Y013074D03*
X003944Y013077D03*
X003959Y013099D03*
X003962Y013102D03*
X003964Y013107D03*
X003967Y013107D03*
X003969Y013112D03*
X005834Y009064D03*
X005812Y009027D03*
X005807Y009022D03*
D113*
X005814Y009030D03*
X005817Y009030D03*
X005832Y009060D03*
X004119Y011935D03*
X004182Y012008D03*
X003989Y011158D03*
X003987Y011158D03*
X003704Y012795D03*
X003762Y012808D03*
X003767Y012813D03*
X003939Y013073D03*
X003957Y013095D03*
X003189Y012993D03*
X002497Y009835D03*
X002437Y009758D03*
D114*
X003592Y010818D03*
X004009Y011155D03*
X003934Y011790D03*
X004174Y012003D03*
X003987Y012375D03*
X003984Y012375D03*
X003779Y012830D03*
X003789Y012840D03*
X003794Y012848D03*
X003797Y012853D03*
X003799Y012855D03*
X003812Y012878D03*
X003822Y012893D03*
X003827Y012903D03*
X003829Y012908D03*
X003844Y012930D03*
X003854Y012945D03*
X003864Y012963D03*
X003867Y012965D03*
X003869Y012968D03*
X003872Y012970D03*
X003884Y012990D03*
X003894Y013008D03*
X003614Y012958D03*
X005829Y009050D03*
X005822Y009043D03*
D115*
X005824Y009044D03*
X005827Y009047D03*
X005819Y009037D03*
X004147Y011659D03*
X004127Y011944D03*
X003932Y011789D03*
X003929Y011789D03*
X003927Y011789D03*
X003924Y011789D03*
X003922Y011789D03*
X003989Y012377D03*
X003772Y012819D03*
X003774Y012822D03*
X003782Y012832D03*
X003784Y012837D03*
X003787Y012839D03*
X003819Y012889D03*
X003834Y012914D03*
X003837Y012919D03*
X003839Y012924D03*
X003842Y012927D03*
X003874Y012974D03*
X003879Y012984D03*
X003882Y012987D03*
X003889Y012999D03*
X003892Y013002D03*
X003897Y013012D03*
X003899Y013014D03*
X003687Y012822D03*
X003689Y012817D03*
X004004Y011157D03*
X004007Y011157D03*
X002492Y009827D03*
X002442Y009759D03*
D116*
X003682Y010900D03*
X003477Y012048D03*
X004024Y012410D03*
X005184Y010193D03*
X005194Y010185D03*
X005332Y010110D03*
X005492Y009998D03*
X005512Y009985D03*
X005529Y009968D03*
X005532Y009965D03*
X005597Y009910D03*
X005692Y009810D03*
X005704Y009820D03*
X005789Y009700D03*
X005794Y009660D03*
X005802Y009650D03*
X005822Y009608D03*
X005827Y009595D03*
X004327Y009278D03*
X004324Y009278D03*
X004317Y009283D03*
X004314Y009283D03*
X004312Y009285D03*
D117*
X004199Y010697D03*
X004197Y010964D03*
X003892Y011787D03*
X003889Y011787D03*
X004184Y012012D03*
X003997Y012387D03*
X003712Y012784D03*
X003607Y012964D03*
X003937Y013069D03*
X003947Y013082D03*
X003972Y013114D03*
X003974Y013119D03*
X003977Y013122D03*
X003994Y013144D03*
X003997Y013147D03*
X004012Y013164D03*
X004014Y013167D03*
X003187Y012999D03*
X003184Y013002D03*
X003179Y013022D03*
X003584Y010817D03*
X005802Y009017D03*
X005804Y009019D03*
X005797Y009009D03*
D118*
X005799Y009013D03*
X004197Y010693D03*
X003977Y011160D03*
X003974Y011160D03*
X003972Y011160D03*
X003969Y011160D03*
X003967Y011160D03*
X003964Y011160D03*
X004154Y011663D03*
X003887Y011785D03*
X003884Y011785D03*
X003882Y011785D03*
X003937Y012318D03*
X003754Y012798D03*
X003714Y012783D03*
X003984Y013133D03*
X003987Y013135D03*
X003992Y013143D03*
X003999Y013148D03*
X003582Y010815D03*
X002504Y009845D03*
X002502Y009843D03*
D119*
X003879Y011784D03*
X004109Y011922D03*
X004187Y012014D03*
X004157Y011662D03*
X003999Y012389D03*
X003717Y012779D03*
X003752Y012794D03*
X004002Y013152D03*
X004004Y013154D03*
X004007Y013157D03*
X004009Y013159D03*
X004277Y010809D03*
X005794Y009007D03*
D120*
X005792Y009005D03*
X005789Y009003D03*
X005787Y009000D03*
X004194Y010688D03*
X003579Y010815D03*
X003877Y011783D03*
X004104Y011915D03*
X004107Y011918D03*
X003719Y012778D03*
X003747Y012790D03*
X004017Y013170D03*
X004022Y013175D03*
X003454Y012070D03*
X003182Y013018D03*
X002514Y009863D03*
X002512Y009860D03*
X002507Y009850D03*
X002432Y009753D03*
D121*
X002517Y009867D03*
X002519Y009869D03*
X002522Y009872D03*
X003859Y011782D03*
X003862Y011782D03*
X003864Y011784D03*
X003867Y011784D03*
X003869Y011784D03*
X003872Y011784D03*
X003874Y011784D03*
X003952Y011164D03*
X003954Y011162D03*
X003957Y011162D03*
X003959Y011162D03*
X003962Y011162D03*
X004192Y010684D03*
X003722Y012777D03*
X003744Y012789D03*
X003749Y012792D03*
X003604Y012969D03*
X004019Y013172D03*
X004024Y013177D03*
X005784Y008999D03*
D122*
X005782Y009735D03*
X005742Y009768D03*
X004892Y010333D03*
X004889Y010333D03*
X004819Y010355D03*
X004474Y010423D03*
X004472Y010423D03*
X004462Y010423D03*
X004449Y010425D03*
X004424Y010428D03*
X004414Y010428D03*
X004412Y010428D03*
X004304Y010438D03*
X004302Y010438D03*
X004244Y010440D03*
X004242Y010440D03*
X004222Y010440D03*
X003884Y010430D03*
X003882Y010430D03*
X003829Y010425D03*
X003827Y010425D03*
X003824Y010425D03*
X003822Y010425D03*
X003819Y010425D03*
X003809Y010423D03*
X003799Y010423D03*
X003747Y010415D03*
X003744Y010415D03*
X003557Y010385D03*
X003499Y010375D03*
X003484Y010370D03*
X003482Y010370D03*
X003454Y010363D03*
X003452Y010363D03*
X003449Y010363D03*
X003447Y010363D03*
X003444Y010363D03*
X003412Y010353D03*
X003409Y010353D03*
X003404Y010350D03*
X003402Y010350D03*
X003399Y010350D03*
X003397Y010350D03*
X003374Y010343D03*
X003372Y010343D03*
X003364Y010340D03*
X003359Y010338D03*
X003357Y010338D03*
X003354Y010338D03*
X003352Y010338D03*
X003349Y010335D03*
X003347Y010335D03*
X003334Y010333D03*
X003332Y010330D03*
X003329Y010330D03*
X003319Y010328D03*
X003307Y010323D03*
X003304Y010323D03*
X003277Y010315D03*
X003272Y010313D03*
X003269Y010313D03*
X003252Y010308D03*
X003247Y010305D03*
X003237Y010300D03*
X003234Y010300D03*
X003232Y010298D03*
X003229Y010298D03*
X003227Y010298D03*
X003224Y010295D03*
X003222Y010295D03*
X003219Y010295D03*
X003217Y010295D03*
X003214Y010295D03*
X003212Y010293D03*
X003209Y010293D03*
X003207Y010290D03*
X003204Y010290D03*
X003189Y010285D03*
X003184Y010283D03*
X003179Y010280D03*
X003172Y010278D03*
X003157Y010273D03*
X003154Y010273D03*
X003152Y010270D03*
X003149Y010270D03*
X003139Y010265D03*
X003662Y010888D03*
X003644Y011483D03*
X003777Y011783D03*
X003579Y012995D03*
X004172Y013183D03*
X004342Y009285D03*
X004364Y009270D03*
X004549Y009135D03*
X004592Y009108D03*
X004604Y009100D03*
X004607Y009100D03*
X004609Y009100D03*
D123*
X003947Y011164D03*
X003944Y011164D03*
X003942Y011164D03*
X003939Y011164D03*
X003937Y011164D03*
X003849Y011782D03*
X003847Y011782D03*
X003844Y011782D03*
X004099Y011912D03*
X004189Y012014D03*
X003739Y012782D03*
X004029Y013182D03*
X004032Y013182D03*
X004034Y013184D03*
X004142Y013192D03*
X004147Y013187D03*
X002529Y009882D03*
X002429Y009752D03*
X005769Y008984D03*
X005777Y008992D03*
D124*
X005772Y009729D03*
X005774Y009742D03*
X005762Y009742D03*
X005744Y009772D03*
X005067Y008909D03*
X005064Y008909D03*
X005059Y008909D03*
X005057Y008909D03*
X005054Y008909D03*
X004979Y008932D03*
X004942Y008944D03*
X004939Y008944D03*
X004879Y008967D03*
X004874Y008969D03*
X004872Y008969D03*
X004822Y008992D03*
X004819Y008992D03*
X004817Y008992D03*
X004814Y008992D03*
X004812Y008992D03*
X004809Y008994D03*
X004807Y008994D03*
X004804Y008997D03*
X004802Y008999D03*
X004799Y008999D03*
X004797Y008999D03*
X004794Y009002D03*
X004784Y009007D03*
X004777Y009009D03*
X004769Y009012D03*
X004752Y009019D03*
X004749Y009019D03*
X004734Y009029D03*
X004719Y009037D03*
X004712Y009042D03*
X004707Y009044D03*
X004699Y009047D03*
X004669Y009062D03*
X004662Y009067D03*
X004649Y009074D03*
X004644Y009079D03*
X004642Y009079D03*
X004639Y009079D03*
X004624Y009087D03*
X004579Y009109D03*
X004569Y009119D03*
X004564Y009122D03*
X004537Y009139D03*
X004534Y009139D03*
X004532Y009139D03*
X004524Y009147D03*
X004512Y009154D03*
X004482Y009177D03*
X004472Y009184D03*
X004459Y009194D03*
X004457Y009194D03*
X004442Y009209D03*
X004394Y009244D03*
X004392Y009244D03*
X004389Y009244D03*
X004082Y010634D03*
X004079Y010634D03*
X004037Y010634D03*
X004029Y010632D03*
X004027Y010632D03*
X004024Y010632D03*
X004017Y010634D03*
X004014Y010634D03*
X004012Y010634D03*
X004009Y010634D03*
X004002Y010637D03*
X003999Y010637D03*
X003997Y010637D03*
X003994Y010637D03*
X003932Y010644D03*
X003929Y010644D03*
X003927Y010644D03*
X003902Y010649D03*
X003864Y010657D03*
X003857Y010659D03*
X003844Y010662D03*
X003837Y010664D03*
X003822Y010667D03*
X003819Y010669D03*
X003809Y010672D03*
X003807Y010672D03*
X003799Y010674D03*
X003797Y010677D03*
X003794Y010677D03*
X003789Y010679D03*
X003787Y010679D03*
X003784Y010679D03*
X003772Y010684D03*
X003654Y010882D03*
X003679Y011167D03*
X003647Y011479D03*
X003784Y011787D03*
X004044Y011734D03*
X004047Y011734D03*
X004049Y011734D03*
X004059Y011729D03*
X004222Y011307D03*
X004122Y011229D03*
X004119Y011227D03*
X004117Y011227D03*
X004114Y011224D03*
X004099Y011219D03*
X003584Y012989D03*
X003169Y013057D03*
X002899Y010152D03*
X002897Y010152D03*
X002892Y010149D03*
X002887Y010147D03*
X002882Y010144D03*
X002864Y010134D03*
X002849Y010127D03*
X002847Y010124D03*
X002844Y010124D03*
X002842Y010119D03*
X002822Y010107D03*
X002817Y010104D03*
X002814Y010104D03*
X002807Y010099D03*
X002799Y010094D03*
X002794Y010092D03*
X002787Y010087D03*
X002784Y010084D03*
X002417Y009744D03*
D125*
X002669Y010007D03*
X002674Y010009D03*
X002677Y010009D03*
X002682Y010017D03*
X002684Y010017D03*
X002707Y010034D03*
X002709Y010037D03*
X002712Y010037D03*
X002714Y010039D03*
X002717Y010042D03*
X002719Y010042D03*
X002722Y010044D03*
X002724Y010047D03*
X002729Y010049D03*
X002732Y010052D03*
X002737Y010054D03*
X002739Y010057D03*
X002747Y010062D03*
X003674Y010732D03*
X003697Y010717D03*
X003699Y010714D03*
X003702Y010714D03*
X003707Y010712D03*
X003709Y010709D03*
X003712Y010709D03*
X003724Y010704D03*
X003687Y011164D03*
X003684Y011164D03*
X003654Y011479D03*
X003874Y011519D03*
X003877Y011519D03*
X003882Y011522D03*
X003884Y011522D03*
X003887Y011522D03*
X003889Y011522D03*
X003899Y011524D03*
X003907Y011527D03*
X003909Y011527D03*
X003917Y011529D03*
X003927Y011532D03*
X003929Y011532D03*
X003944Y011534D03*
X003947Y011534D03*
X003969Y011539D03*
X003972Y011542D03*
X003974Y011542D03*
X004159Y011254D03*
X004164Y011257D03*
X004154Y011249D03*
X004149Y011247D03*
X004147Y011244D03*
X004069Y011089D03*
X004072Y011087D03*
X004074Y011087D03*
X004079Y011084D03*
X004082Y011082D03*
X004157Y010649D03*
X004152Y010647D03*
X004149Y010647D03*
X004499Y009159D03*
X004832Y008979D03*
X004834Y008979D03*
X004842Y008977D03*
X004844Y008977D03*
X004882Y008962D03*
X004919Y008949D03*
X005094Y008897D03*
X005102Y008894D03*
X005104Y008894D03*
X005117Y008892D03*
X005172Y008884D03*
X005174Y008884D03*
X005177Y008884D03*
X005187Y008882D03*
X005207Y008879D03*
X005244Y008874D03*
X005247Y008874D03*
X005272Y008872D03*
X005292Y008872D03*
X005294Y008872D03*
X005297Y008872D03*
X005319Y008869D03*
X005329Y008869D03*
X005342Y008869D03*
X005344Y008869D03*
X005347Y008869D03*
X005349Y008869D03*
X005352Y008869D03*
X005354Y008869D03*
X005357Y008869D03*
X005359Y008869D03*
X005362Y008869D03*
X005364Y008869D03*
X005379Y008872D03*
X005382Y008872D03*
X005384Y008872D03*
X005394Y008872D03*
X005397Y008872D03*
X005422Y008872D03*
X005424Y008872D03*
X005427Y008872D03*
X005432Y008874D03*
X005434Y008874D03*
X005437Y008874D03*
X005439Y008874D03*
X005449Y008874D03*
X005452Y008874D03*
X005454Y008874D03*
X005457Y008874D03*
X005514Y008882D03*
X005527Y008884D03*
X005559Y008892D03*
X005562Y008892D03*
X005764Y009744D03*
X004164Y013182D03*
X003819Y012262D03*
X003782Y012269D03*
D126*
X003924Y012302D03*
X003927Y012304D03*
X004004Y012392D03*
X004094Y011907D03*
X004097Y011907D03*
X004092Y011904D03*
X004089Y011899D03*
X004087Y011899D03*
X004084Y011899D03*
X003842Y011782D03*
X003839Y011782D03*
X003837Y011782D03*
X003834Y011782D03*
X003922Y011167D03*
X003924Y011167D03*
X003927Y011167D03*
X004182Y010987D03*
X004184Y010984D03*
X004189Y010979D03*
X004192Y010974D03*
X004187Y010677D03*
X003577Y010819D03*
X002539Y009894D03*
X002537Y009892D03*
X003597Y012977D03*
X004139Y013194D03*
X004154Y013187D03*
X005754Y008974D03*
D127*
X005747Y008965D03*
X005739Y008963D03*
X005737Y008958D03*
X005734Y008958D03*
X005732Y008958D03*
X004174Y010998D03*
X004169Y011003D03*
X004167Y011005D03*
X003902Y011168D03*
X003899Y011168D03*
X003897Y011168D03*
X004069Y011583D03*
X004072Y011583D03*
X004162Y011663D03*
X004052Y011873D03*
X004059Y011878D03*
X004067Y011883D03*
X004192Y012015D03*
X003917Y012293D03*
X003909Y012288D03*
X004009Y012393D03*
X003824Y011780D03*
X003822Y011780D03*
X003459Y012060D03*
X003177Y013038D03*
X003174Y013040D03*
X004047Y013195D03*
X004049Y013198D03*
X004052Y013200D03*
X004054Y013200D03*
X004132Y013203D03*
X004134Y013203D03*
X002554Y009908D03*
X002552Y009905D03*
D128*
X002557Y009912D03*
X002559Y009912D03*
X002562Y009914D03*
X002569Y009924D03*
X002577Y009929D03*
X002424Y009749D03*
X003574Y010822D03*
X003809Y011779D03*
X003812Y011779D03*
X003814Y011779D03*
X003817Y011779D03*
X003819Y011779D03*
X004034Y011862D03*
X004037Y011864D03*
X004039Y011864D03*
X004042Y011864D03*
X004044Y011867D03*
X004047Y011869D03*
X004057Y011877D03*
X004062Y011879D03*
X004064Y011882D03*
X004164Y011662D03*
X003912Y012289D03*
X003914Y012292D03*
X004057Y013202D03*
X004059Y013202D03*
X004157Y011017D03*
X004159Y011014D03*
X004172Y010999D03*
X004182Y010672D03*
X005714Y008947D03*
X005717Y008947D03*
X005729Y008957D03*
D129*
X005724Y009782D03*
X005717Y009794D03*
X005172Y010212D03*
X005169Y010214D03*
X005152Y010222D03*
X005147Y010227D03*
X005142Y010232D03*
X005139Y010232D03*
X005129Y010237D03*
X004232Y011314D03*
X003732Y012282D03*
X003572Y013002D03*
X003664Y011169D03*
D130*
X004207Y012030D03*
X005154Y010215D03*
X005329Y010120D03*
X005339Y010115D03*
X005707Y009795D03*
X003162Y013095D03*
D131*
X003767Y011789D03*
X003632Y011492D03*
X003674Y010899D03*
X004179Y011667D03*
X005267Y010154D03*
X005277Y010147D03*
X005304Y010134D03*
X005327Y010122D03*
X005699Y009807D03*
D132*
X005679Y009827D03*
X005539Y009959D03*
X005534Y009967D03*
X005294Y010134D03*
X005289Y010137D03*
X005279Y010142D03*
X005274Y010144D03*
X005262Y010152D03*
X005254Y010162D03*
X005247Y010159D03*
X005182Y010197D03*
X005164Y010204D03*
X004329Y009277D03*
X004332Y009274D03*
X004284Y009307D03*
X004237Y011324D03*
D133*
X004202Y011288D03*
X004177Y011270D03*
X004174Y011265D03*
X004172Y011265D03*
X004169Y011263D03*
X004084Y011078D03*
X004087Y011075D03*
X004089Y011075D03*
X004094Y011073D03*
X004097Y011070D03*
X004099Y011068D03*
X004102Y011068D03*
X004104Y011065D03*
X004107Y011063D03*
X004169Y010660D03*
X004167Y010658D03*
X004164Y010655D03*
X004162Y010653D03*
X004159Y010653D03*
X003854Y011168D03*
X003852Y011168D03*
X003844Y011170D03*
X003832Y011168D03*
X003829Y011168D03*
X003827Y011168D03*
X003824Y011168D03*
X003732Y011165D03*
X003729Y011165D03*
X003717Y011490D03*
X003729Y011493D03*
X003732Y011493D03*
X003739Y011495D03*
X003742Y011495D03*
X003744Y011495D03*
X003752Y011498D03*
X003754Y011498D03*
X003757Y011498D03*
X003759Y011498D03*
X003762Y011498D03*
X003769Y011500D03*
X003772Y011500D03*
X003774Y011500D03*
X003777Y011500D03*
X003782Y011503D03*
X003784Y011503D03*
X003787Y011503D03*
X003792Y011505D03*
X003812Y011508D03*
X003984Y011545D03*
X003987Y011545D03*
X003994Y011548D03*
X004017Y011555D03*
X004032Y011560D03*
X004034Y011560D03*
X004037Y011560D03*
X003797Y011780D03*
X003462Y012055D03*
X003869Y012265D03*
X004077Y013210D03*
X004084Y013215D03*
X004087Y013215D03*
X004094Y013218D03*
X004104Y013215D03*
X004107Y013215D03*
X004112Y013213D03*
X004114Y013213D03*
X003572Y010823D03*
X003662Y010738D03*
X003664Y010735D03*
X003667Y010735D03*
X002667Y010003D03*
X002662Y010000D03*
X002657Y009998D03*
X002652Y009993D03*
X002647Y009990D03*
X002644Y009988D03*
X002642Y009988D03*
X002639Y009985D03*
X002637Y009983D03*
X002634Y009980D03*
X002632Y009978D03*
X002627Y009975D03*
X002622Y009970D03*
X002619Y009968D03*
X005594Y008900D03*
X005597Y008900D03*
X005604Y008900D03*
X005619Y008905D03*
X005622Y008905D03*
X005624Y008905D03*
X005627Y008908D03*
X005632Y008910D03*
X005634Y008910D03*
X005637Y008910D03*
X005647Y008918D03*
X005649Y008918D03*
X005659Y008920D03*
X005674Y008928D03*
D134*
X005469Y008878D03*
X005467Y008878D03*
X005459Y008875D03*
X005447Y008875D03*
X005444Y008875D03*
X005442Y008875D03*
X005419Y008873D03*
X005399Y008873D03*
X005377Y008873D03*
X005369Y008870D03*
X005367Y008870D03*
X005339Y008870D03*
X005337Y008870D03*
X005334Y008870D03*
X005332Y008870D03*
X005327Y008870D03*
X005324Y008870D03*
X005322Y008870D03*
X005304Y008873D03*
X005302Y008873D03*
X005299Y008873D03*
X005289Y008870D03*
X005287Y008870D03*
X005284Y008870D03*
X005282Y008870D03*
X005279Y008873D03*
X005277Y008873D03*
X005274Y008873D03*
X005269Y008873D03*
X005267Y008873D03*
X005264Y008873D03*
X005262Y008873D03*
X005242Y008875D03*
X005239Y008875D03*
X005237Y008875D03*
X005234Y008875D03*
X005204Y008880D03*
X005202Y008880D03*
X005199Y008880D03*
X005189Y008883D03*
X005184Y008883D03*
X005182Y008883D03*
X005179Y008883D03*
X005169Y008883D03*
X005162Y008885D03*
X005159Y008885D03*
X005157Y008885D03*
X005154Y008885D03*
X005152Y008885D03*
X005147Y008888D03*
X005144Y008890D03*
X005142Y008890D03*
X005139Y008890D03*
X005137Y008890D03*
X005134Y008890D03*
X005122Y008893D03*
X005119Y008893D03*
X005099Y008895D03*
X005097Y008895D03*
X005092Y008898D03*
X005089Y008898D03*
X005079Y008900D03*
X005027Y008915D03*
X005012Y008920D03*
X004997Y008923D03*
X004994Y008923D03*
X004992Y008923D03*
X004989Y008923D03*
X004972Y008930D03*
X004947Y008938D03*
X004922Y008948D03*
X004917Y008950D03*
X004914Y008950D03*
X004912Y008950D03*
X004909Y008950D03*
X004907Y008950D03*
X004902Y008955D03*
X004899Y008955D03*
X004897Y008958D03*
X004884Y008960D03*
X004864Y008970D03*
X004862Y008970D03*
X004857Y008973D03*
X004854Y008973D03*
X004852Y008973D03*
X004849Y008973D03*
X004847Y008973D03*
X004839Y008978D03*
X004837Y008978D03*
X004829Y008983D03*
X004762Y009013D03*
X004759Y009013D03*
X004757Y009015D03*
X004632Y009080D03*
X004629Y009080D03*
X004507Y009155D03*
X004502Y009158D03*
X004452Y009198D03*
X004139Y010643D03*
X004144Y010645D03*
X004147Y010645D03*
X004154Y010648D03*
X004282Y010813D03*
X004092Y011215D03*
X004089Y011215D03*
X004087Y011215D03*
X004104Y011223D03*
X004142Y011243D03*
X004144Y011243D03*
X004162Y011255D03*
X004217Y011303D03*
X004067Y011725D03*
X003924Y011530D03*
X003922Y011530D03*
X003919Y011530D03*
X003789Y011783D03*
X003759Y012273D03*
X003757Y012273D03*
X003682Y011165D03*
X003714Y010708D03*
X003717Y010708D03*
X003719Y010708D03*
X003722Y010705D03*
X003727Y010703D03*
X003729Y010703D03*
X003732Y010700D03*
X003754Y010693D03*
X002759Y010070D03*
X002757Y010068D03*
X002754Y010065D03*
X002749Y010063D03*
X002744Y010060D03*
X002742Y010058D03*
X002734Y010053D03*
X002727Y010048D03*
X002419Y009745D03*
D135*
X002752Y010064D03*
X002762Y010072D03*
X002764Y010074D03*
X002767Y010077D03*
X002769Y010077D03*
X002772Y010079D03*
X002777Y010082D03*
X002779Y010082D03*
X002827Y010112D03*
X002829Y010114D03*
X002832Y010117D03*
X002834Y010117D03*
X002869Y010137D03*
X003567Y010824D03*
X003734Y010699D03*
X003737Y010699D03*
X003739Y010697D03*
X003742Y010694D03*
X003744Y010694D03*
X003747Y010694D03*
X003749Y010694D03*
X003752Y010694D03*
X003757Y010692D03*
X003762Y010689D03*
X004097Y010634D03*
X004099Y010634D03*
X004122Y010639D03*
X004124Y010639D03*
X004127Y010639D03*
X004129Y010639D03*
X004132Y010639D03*
X004137Y010642D03*
X004142Y010644D03*
X004069Y011209D03*
X004077Y011212D03*
X004084Y011214D03*
X004094Y011217D03*
X004102Y011222D03*
X004132Y011234D03*
X004134Y011237D03*
X004219Y011304D03*
X004074Y011724D03*
X004072Y011724D03*
X004069Y011724D03*
X004199Y012019D03*
X003787Y011784D03*
X003652Y011479D03*
X003649Y011479D03*
X003464Y012052D03*
X003754Y012274D03*
X003589Y012987D03*
X004449Y009199D03*
X004454Y009197D03*
X004489Y009169D03*
X004497Y009162D03*
X004504Y009157D03*
X004519Y009149D03*
X004627Y009082D03*
X004634Y009079D03*
X004637Y009079D03*
X004744Y009022D03*
X004754Y009017D03*
X004764Y009012D03*
X004859Y008972D03*
X004867Y008969D03*
X004887Y008959D03*
X004889Y008959D03*
X004892Y008959D03*
X004894Y008959D03*
X004904Y008954D03*
X004924Y008947D03*
X004932Y008944D03*
X004934Y008944D03*
X004949Y008937D03*
X004952Y008937D03*
X004954Y008937D03*
X004957Y008937D03*
X004959Y008937D03*
X004974Y008932D03*
X004999Y008922D03*
X005002Y008922D03*
X005014Y008919D03*
X005017Y008919D03*
X005019Y008917D03*
X005022Y008917D03*
X005024Y008917D03*
X005029Y008914D03*
X005032Y008914D03*
X005034Y008914D03*
X005039Y008912D03*
X005042Y008909D03*
X005044Y008909D03*
X005047Y008909D03*
X005049Y008909D03*
X005062Y008907D03*
X005074Y008902D03*
X005077Y008902D03*
X005082Y008899D03*
X005084Y008899D03*
X005087Y008899D03*
X005132Y008892D03*
X005149Y008887D03*
X005167Y008884D03*
X005192Y008882D03*
X005194Y008882D03*
X005197Y008882D03*
X005209Y008879D03*
X005212Y008879D03*
X005214Y008879D03*
X005217Y008879D03*
X005227Y008879D03*
X005229Y008877D03*
X005232Y008877D03*
X005249Y008877D03*
X005252Y008877D03*
X005254Y008877D03*
X005259Y008874D03*
X005307Y008874D03*
X005309Y008874D03*
X005312Y008874D03*
X005314Y008872D03*
X005317Y008872D03*
X005372Y008872D03*
X005374Y008872D03*
X005402Y008874D03*
X005404Y008874D03*
X005407Y008874D03*
X005409Y008874D03*
X005412Y008874D03*
X005414Y008874D03*
X005417Y008874D03*
X005462Y008877D03*
X005464Y008877D03*
D136*
X005229Y010178D03*
X005167Y010213D03*
X005124Y010235D03*
D137*
X004552Y009134D03*
X004554Y009132D03*
X004547Y009137D03*
X004544Y009137D03*
X004562Y009127D03*
X004589Y009109D03*
X004594Y009107D03*
X004597Y009104D03*
X004602Y009102D03*
X004362Y009272D03*
X003912Y010437D03*
X003659Y010887D03*
X003274Y010314D03*
X003244Y010302D03*
X003242Y010302D03*
X003239Y010302D03*
X003187Y010284D03*
X003182Y010282D03*
X003177Y010279D03*
X003174Y010279D03*
X003169Y010277D03*
X003167Y010277D03*
X003164Y010277D03*
X003162Y010274D03*
X003159Y010274D03*
X003137Y010264D03*
X003134Y010264D03*
X003132Y010264D03*
X003124Y010262D03*
X003122Y010259D03*
X003119Y010257D03*
X003117Y010257D03*
X003112Y010254D03*
X003102Y010249D03*
X003097Y010247D03*
X003094Y010247D03*
X003092Y010247D03*
X003089Y010247D03*
X003084Y010242D03*
X003079Y010239D03*
X003077Y010239D03*
X003074Y010237D03*
X003072Y010237D03*
X003067Y010234D03*
X003779Y011784D03*
X003467Y012049D03*
X003744Y012277D03*
X003582Y012994D03*
X004174Y011662D03*
X004229Y011314D03*
D138*
X004012Y011157D03*
X004274Y010809D03*
X004144Y011659D03*
X003939Y011792D03*
X003937Y011792D03*
X003982Y012374D03*
X003792Y012847D03*
X003802Y012859D03*
X003814Y012882D03*
X003817Y012884D03*
X003824Y012897D03*
X003832Y012909D03*
X003682Y012832D03*
X003684Y012827D03*
X003667Y012862D03*
X003617Y012954D03*
X002444Y009762D03*
D139*
X002462Y009775D03*
X003979Y011798D03*
X004127Y011655D03*
X004129Y011655D03*
X004152Y011985D03*
X004154Y011985D03*
X003652Y012900D03*
X003627Y012940D03*
X003197Y012963D03*
X004269Y010810D03*
D140*
X004264Y010809D03*
X004107Y011652D03*
X003629Y010812D03*
D141*
X004079Y011649D03*
X004259Y010812D03*
D142*
X004257Y010813D03*
D143*
X004254Y010813D03*
X003234Y012838D03*
X003229Y012858D03*
X003224Y012880D03*
D144*
X003252Y012777D03*
X004252Y010814D03*
D145*
X004249Y010815D03*
X003284Y012640D03*
X003274Y012680D03*
D146*
X003294Y012612D03*
X004244Y010814D03*
D147*
X004242Y010818D03*
X003304Y012568D03*
D148*
X003302Y012573D03*
X004239Y010818D03*
D149*
X004237Y010818D03*
X003314Y012515D03*
D150*
X004234Y010819D03*
D151*
X004232Y010819D03*
D152*
X004229Y010822D03*
D153*
X004227Y010822D03*
X003404Y012162D03*
X003324Y012479D03*
D154*
X003329Y012452D03*
X004224Y010822D03*
D155*
X004222Y010822D03*
X003402Y012169D03*
D156*
X004219Y010823D03*
D157*
X004217Y010820D03*
D158*
X004214Y010820D03*
D159*
X004212Y010823D03*
X003337Y012408D03*
D160*
X004209Y010824D03*
D161*
X004207Y010824D03*
X003387Y012209D03*
D162*
X003699Y012803D03*
X003692Y012813D03*
X003777Y012825D03*
X003852Y012943D03*
X003857Y012950D03*
X003859Y012955D03*
X003862Y012958D03*
X003877Y012980D03*
X003887Y012993D03*
X003902Y013015D03*
X003992Y012378D03*
X003944Y012333D03*
X004177Y012005D03*
X003919Y011788D03*
X003917Y011788D03*
X003994Y011158D03*
X003997Y011158D03*
X003999Y011158D03*
X004002Y011158D03*
X004202Y010705D03*
X003589Y010820D03*
X002439Y009758D03*
D163*
X002494Y009832D03*
X003452Y012072D03*
X003697Y012809D03*
X003694Y012812D03*
X003769Y012817D03*
X003847Y012934D03*
X003849Y012939D03*
X003904Y013019D03*
X003907Y013024D03*
X003909Y013027D03*
X003912Y013029D03*
X003914Y013037D03*
X003917Y013039D03*
X003919Y013042D03*
X003922Y013047D03*
X003924Y013049D03*
X003612Y012959D03*
X004179Y012007D03*
X004124Y011942D03*
X004122Y011939D03*
X004149Y011659D03*
X003992Y011157D03*
X004202Y010949D03*
D164*
X004027Y011152D03*
X004137Y011659D03*
X004164Y011994D03*
X004167Y011997D03*
X004169Y011999D03*
X003957Y011794D03*
X003954Y011794D03*
X003952Y011794D03*
X003964Y012359D03*
X003967Y012359D03*
X003972Y012364D03*
X003657Y012884D03*
X003447Y012079D03*
X002454Y009769D03*
X002452Y009769D03*
D165*
X003602Y010817D03*
X003967Y011794D03*
X004134Y011657D03*
X004134Y011964D03*
X004162Y011992D03*
X003952Y012349D03*
X003962Y012357D03*
X003639Y012919D03*
X003624Y012947D03*
X003622Y012947D03*
X003444Y012079D03*
X003194Y012972D03*
X003192Y012979D03*
D166*
X003629Y012938D03*
X003632Y012935D03*
X003642Y012915D03*
X003959Y012358D03*
X004159Y011990D03*
X004132Y011655D03*
X003972Y011795D03*
X003969Y011795D03*
X004037Y011153D03*
X004039Y011153D03*
X002457Y009770D03*
D167*
X002469Y009783D03*
X002472Y009785D03*
X004049Y011150D03*
X004124Y011655D03*
X004147Y011983D03*
X003204Y012943D03*
X003199Y012960D03*
D168*
X003207Y012934D03*
X003212Y012919D03*
X003994Y011799D03*
X004119Y011654D03*
X004057Y011149D03*
X002479Y009794D03*
D169*
X003619Y010815D03*
X004064Y011148D03*
X004067Y011148D03*
X004114Y011653D03*
X004014Y011803D03*
X004012Y011803D03*
X004009Y011803D03*
D170*
X004017Y011802D03*
X004019Y011802D03*
X004112Y011652D03*
X003624Y010814D03*
X003622Y010814D03*
X003437Y012092D03*
D171*
X003434Y012093D03*
X003214Y012913D03*
X004109Y011653D03*
X003627Y010813D03*
D172*
X003632Y010810D03*
X004104Y011653D03*
X004022Y011803D03*
D173*
X004032Y011807D03*
X004097Y011652D03*
X003644Y010809D03*
X003642Y010809D03*
X003432Y012094D03*
X003217Y012907D03*
D174*
X004092Y011649D03*
D175*
X004089Y011650D03*
X003649Y010808D03*
X003429Y012098D03*
D176*
X004082Y011649D03*
X004084Y011649D03*
X004087Y011649D03*
D177*
X003422Y012122D03*
X003419Y012124D03*
X003287Y012632D03*
X003277Y012674D03*
X003267Y012714D03*
D178*
X003417Y012130D03*
D179*
X003414Y012135D03*
D180*
X003412Y012139D03*
D181*
X003409Y012144D03*
X003307Y012559D03*
D182*
X003407Y012150D03*
D183*
X003399Y012173D03*
X003334Y012423D03*
D184*
X003394Y012189D03*
D185*
X003392Y012193D03*
X003389Y012203D03*
X003344Y012368D03*
D186*
X003357Y012314D03*
X003362Y012294D03*
X003367Y012272D03*
X003372Y012254D03*
X003377Y012242D03*
X003384Y012219D03*
D187*
X003382Y012223D03*
D188*
X003379Y012238D03*
X003374Y012243D03*
X003352Y012333D03*
D189*
X003342Y012382D03*
X003369Y012267D03*
D190*
X003364Y012287D03*
X003354Y012322D03*
D191*
X003359Y012302D03*
D192*
X003349Y012343D03*
D193*
X003347Y012348D03*
X003339Y012393D03*
D194*
X003332Y012433D03*
X003327Y012468D03*
D195*
X003319Y012500D03*
D196*
X003312Y012535D03*
D197*
X003309Y012547D03*
D198*
X003297Y012599D03*
X003289Y012624D03*
D199*
X003279Y012659D03*
X003272Y012687D03*
X003254Y012772D03*
D200*
X003259Y012740D03*
X003264Y012725D03*
D201*
X003257Y012752D03*
X003247Y012797D03*
X003244Y012804D03*
X003242Y012809D03*
X003237Y012829D03*
D202*
X003227Y012868D03*
X003222Y012890D03*
D203*
X003219Y012897D03*
D204*
X004900Y006326D02*
X004900Y005538D01*
X005176Y005893D02*
X005097Y006011D01*
X005255Y006011D01*
X005176Y005893D01*
X005147Y005936D02*
X005205Y005936D01*
X005176Y005834D02*
X005333Y006070D01*
X005019Y006070D01*
X005176Y005834D01*
X005452Y005538D02*
X005452Y006326D01*
X005491Y004101D02*
X005924Y004101D01*
X005215Y003117D02*
X005215Y002054D01*
X007578Y004101D02*
X008011Y004101D01*
X008286Y003117D02*
X008286Y002054D01*
D205*
X005176Y005794D03*
M02*
