G75*
G70*
%OFA0B0*%
%FSLAX24Y24*%
%IPPOS*%
%LPD*%
%AMOC8*
5,1,8,0,0,1.08239X$1,22.5*
%
%ADD10C,0.0000*%
%ADD11R,0.0003X0.0003*%
%ADD12R,0.0003X0.0008*%
%ADD13R,0.0003X0.0005*%
%ADD14R,0.0003X0.0015*%
%ADD15R,0.0003X0.0020*%
%ADD16R,0.0003X0.0010*%
%ADD17R,0.0003X0.0018*%
%ADD18R,0.0003X0.0067*%
%ADD19R,0.0003X0.0013*%
%ADD20R,0.0003X0.0045*%
%ADD21R,0.0003X0.0077*%
%ADD22R,0.0003X0.0030*%
%ADD23R,0.0003X0.0032*%
%ADD24R,0.0003X0.0022*%
%ADD25R,0.0003X0.0127*%
%ADD26R,0.0003X0.0140*%
%ADD27R,0.0003X0.0025*%
%ADD28R,0.0003X0.0043*%
%ADD29R,0.0003X0.0053*%
%ADD30R,0.0003X0.0088*%
%ADD31R,0.0003X0.0035*%
%ADD32R,0.0003X0.0055*%
%ADD33R,0.0003X0.0040*%
%ADD34R,0.0003X0.0080*%
%ADD35R,0.0003X0.0065*%
%ADD36R,0.0003X0.0090*%
%ADD37R,0.0003X0.0143*%
%ADD38R,0.0003X0.0248*%
%ADD39R,0.0003X0.0293*%
%ADD40R,0.0003X0.0257*%
%ADD41R,0.0003X0.0037*%
%ADD42R,0.0003X0.0262*%
%ADD43R,0.0003X0.0027*%
%ADD44R,0.0003X0.0280*%
%ADD45R,0.0003X0.0070*%
%ADD46R,0.0003X0.0440*%
%ADD47R,0.0003X0.0315*%
%ADD48R,0.0003X0.0085*%
%ADD49R,0.0003X0.0330*%
%ADD50R,0.0003X0.0323*%
%ADD51R,0.0003X0.0107*%
%ADD52R,0.0003X0.0057*%
%ADD53R,0.0003X0.0490*%
%ADD54R,0.0003X0.0360*%
%ADD55R,0.0003X0.0512*%
%ADD56R,0.0003X0.0390*%
%ADD57R,0.0003X0.0565*%
%ADD58R,0.0003X0.0325*%
%ADD59R,0.0003X0.0168*%
%ADD60R,0.0003X0.0307*%
%ADD61R,0.0003X0.0152*%
%ADD62R,0.0003X0.0272*%
%ADD63R,0.0003X0.0132*%
%ADD64R,0.0003X0.0147*%
%ADD65R,0.0003X0.0243*%
%ADD66R,0.0003X0.0125*%
%ADD67R,0.0003X0.0240*%
%ADD68R,0.0003X0.0130*%
%ADD69R,0.0003X0.0225*%
%ADD70R,0.0003X0.0083*%
%ADD71R,0.0003X0.0222*%
%ADD72R,0.0003X0.0217*%
%ADD73R,0.0003X0.0120*%
%ADD74R,0.0003X0.0215*%
%ADD75R,0.0003X0.0118*%
%ADD76R,0.0003X0.0205*%
%ADD77R,0.0003X0.0103*%
%ADD78R,0.0003X0.0210*%
%ADD79R,0.0003X0.0097*%
%ADD80R,0.0003X0.0198*%
%ADD81R,0.0003X0.0100*%
%ADD82R,0.0003X0.0190*%
%ADD83R,0.0003X0.0187*%
%ADD84R,0.0003X0.0192*%
%ADD85R,0.0003X0.0170*%
%ADD86R,0.0003X0.0173*%
%ADD87R,0.0003X0.0182*%
%ADD88R,0.0003X0.0180*%
%ADD89R,0.0003X0.0047*%
%ADD90R,0.0003X0.0165*%
%ADD91R,0.0003X0.0163*%
%ADD92R,0.0003X0.0160*%
%ADD93R,0.0003X0.0158*%
%ADD94R,0.0003X0.0155*%
%ADD95R,0.0003X0.0092*%
%ADD96R,0.0003X0.0150*%
%ADD97R,0.0003X0.0105*%
%ADD98R,0.0003X0.0115*%
%ADD99R,0.0003X0.0145*%
%ADD100R,0.0003X0.0138*%
%ADD101R,0.0003X0.0135*%
%ADD102R,0.0003X0.0075*%
%ADD103R,0.0003X0.0063*%
%ADD104R,0.0003X0.0060*%
%ADD105R,0.0003X0.0050*%
%ADD106R,0.0003X0.0123*%
%ADD107R,0.0003X0.0112*%
%ADD108R,0.0003X0.0110*%
%ADD109R,0.0003X0.0073*%
%ADD110R,0.0003X0.0095*%
%ADD111R,0.0003X0.0185*%
%ADD112R,0.0003X0.0208*%
%ADD113R,0.0003X0.0235*%
%ADD114R,0.0003X0.0260*%
%ADD115R,0.0003X0.0267*%
%ADD116R,0.0003X0.0283*%
%ADD117R,0.0003X0.0295*%
%ADD118R,0.0003X0.0302*%
%ADD119R,0.0003X0.0320*%
%ADD120R,0.0003X0.0333*%
%ADD121R,0.0003X0.0338*%
%ADD122R,0.0003X0.0343*%
%ADD123R,0.0003X0.0350*%
%ADD124R,0.0003X0.0355*%
%ADD125R,0.0003X0.0365*%
%ADD126R,0.0003X0.0370*%
%ADD127R,0.0003X0.0375*%
%ADD128R,0.0003X0.0380*%
%ADD129R,0.0003X0.0382*%
%ADD130R,0.0003X0.0393*%
%ADD131R,0.0003X0.0398*%
%ADD132R,0.0003X0.0403*%
%ADD133R,0.0003X0.0405*%
%ADD134R,0.0003X0.0415*%
%ADD135R,0.0003X0.0177*%
%ADD136R,0.0003X0.0175*%
%ADD137R,0.0003X0.0195*%
%ADD138R,0.0003X0.0200*%
%ADD139R,0.0003X0.0203*%
%ADD140R,0.0003X0.0213*%
%ADD141R,0.0003X0.0220*%
%ADD142R,0.0003X0.0227*%
%ADD143R,0.0003X0.0230*%
%ADD144R,0.0003X0.0232*%
%ADD145R,0.0003X0.0238*%
%ADD146R,0.0003X0.0245*%
%ADD147R,0.0003X0.0250*%
%ADD148R,0.0003X0.0253*%
%ADD149R,0.0003X0.0255*%
%ADD150R,0.0003X0.0305*%
%ADD151R,0.0003X0.0318*%
%ADD152R,0.0003X0.0328*%
%ADD153R,0.0003X0.0335*%
%ADD154R,0.0003X0.0340*%
%ADD155R,0.0003X0.0352*%
%ADD156R,0.0003X0.0387*%
%ADD157R,0.0003X0.0410*%
%ADD158R,0.0003X0.0413*%
%ADD159R,0.0003X0.0430*%
%ADD160R,0.0003X0.0432*%
%ADD161R,0.0003X0.0428*%
%ADD162R,0.0003X0.0420*%
%ADD163R,0.0003X0.0435*%
%ADD164R,0.0003X0.0425*%
%ADD165R,0.0003X0.0423*%
%ADD166R,0.0003X0.0418*%
%ADD167R,0.0003X0.0372*%
%ADD168R,0.0003X0.0362*%
%ADD169R,0.0003X0.0348*%
%ADD170R,0.0003X0.0345*%
%ADD171R,0.0003X0.0310*%
%ADD172R,0.0003X0.0300*%
%ADD173R,0.0003X0.0297*%
%ADD174R,0.0003X0.0285*%
%ADD175R,0.0003X0.0278*%
%ADD176R,0.0003X0.0265*%
%ADD177R,0.0010X0.0050*%
%ADD178R,0.0010X0.0040*%
%ADD179R,0.0010X0.0130*%
%ADD180R,0.0010X0.0070*%
%ADD181R,0.0010X0.0180*%
%ADD182R,0.0010X0.0080*%
%ADD183R,0.0010X0.0210*%
%ADD184R,0.0010X0.0090*%
%ADD185R,0.0010X0.0060*%
%ADD186R,0.0010X0.0010*%
%ADD187R,0.0010X0.0030*%
%ADD188R,0.0010X0.0020*%
%ADD189R,0.0010X0.0220*%
%ADD190R,0.0010X0.0100*%
%ADD191R,0.0010X0.0110*%
%ADD192R,0.0010X0.0120*%
%ADD193R,0.0010X0.0140*%
%ADD194R,0.0010X0.0150*%
%ADD195R,0.0010X0.0200*%
%ADD196R,0.0010X0.0170*%
%ADD197R,0.0010X0.0190*%
%ADD198R,0.0010X0.0160*%
D10*
X000944Y000912D02*
X008818Y000912D01*
X008818Y000913D02*
X008872Y000915D01*
X008925Y000920D01*
X008978Y000929D01*
X009030Y000942D01*
X009082Y000958D01*
X009132Y000978D01*
X009180Y001001D01*
X009227Y001028D01*
X009272Y001057D01*
X009315Y001090D01*
X009355Y001125D01*
X009393Y001163D01*
X009428Y001203D01*
X009461Y001246D01*
X009490Y001291D01*
X009517Y001338D01*
X009540Y001386D01*
X009560Y001436D01*
X009576Y001488D01*
X009589Y001540D01*
X009598Y001593D01*
X009603Y001646D01*
X009605Y001700D01*
X009605Y017842D01*
X009603Y017896D01*
X009598Y017949D01*
X009589Y018002D01*
X009576Y018054D01*
X009560Y018106D01*
X009540Y018156D01*
X009517Y018204D01*
X009490Y018251D01*
X009461Y018296D01*
X009428Y018339D01*
X009393Y018379D01*
X009355Y018417D01*
X009315Y018452D01*
X009272Y018485D01*
X009227Y018514D01*
X009180Y018541D01*
X009132Y018564D01*
X009082Y018584D01*
X009030Y018600D01*
X008978Y018613D01*
X008925Y018622D01*
X008872Y018627D01*
X008818Y018629D01*
X000944Y018629D01*
X000890Y018627D01*
X000837Y018622D01*
X000784Y018613D01*
X000732Y018600D01*
X000680Y018584D01*
X000630Y018564D01*
X000582Y018541D01*
X000535Y018514D01*
X000490Y018485D01*
X000447Y018452D01*
X000407Y018417D01*
X000369Y018379D01*
X000334Y018339D01*
X000301Y018296D01*
X000272Y018251D01*
X000245Y018204D01*
X000222Y018156D01*
X000202Y018106D01*
X000186Y018054D01*
X000173Y018002D01*
X000164Y017949D01*
X000159Y017896D01*
X000157Y017842D01*
X000156Y017842D02*
X000156Y001700D01*
X000157Y001700D02*
X000159Y001646D01*
X000164Y001593D01*
X000173Y001540D01*
X000186Y001488D01*
X000202Y001436D01*
X000222Y001386D01*
X000245Y001338D01*
X000272Y001291D01*
X000301Y001246D01*
X000334Y001203D01*
X000369Y001163D01*
X000407Y001125D01*
X000447Y001090D01*
X000490Y001057D01*
X000535Y001028D01*
X000582Y001001D01*
X000630Y000978D01*
X000680Y000958D01*
X000732Y000942D01*
X000784Y000929D01*
X000837Y000920D01*
X000890Y000915D01*
X000944Y000913D01*
X002617Y001542D02*
X002619Y001576D01*
X002625Y001610D01*
X002635Y001643D01*
X002648Y001674D01*
X002666Y001704D01*
X002686Y001732D01*
X002710Y001757D01*
X002736Y001779D01*
X002764Y001797D01*
X002795Y001813D01*
X002827Y001825D01*
X002861Y001833D01*
X002895Y001837D01*
X002929Y001837D01*
X002963Y001833D01*
X002997Y001825D01*
X003029Y001813D01*
X003059Y001797D01*
X003088Y001779D01*
X003114Y001757D01*
X003138Y001732D01*
X003158Y001704D01*
X003176Y001674D01*
X003189Y001643D01*
X003199Y001610D01*
X003205Y001576D01*
X003207Y001542D01*
X003205Y001508D01*
X003199Y001474D01*
X003189Y001441D01*
X003176Y001410D01*
X003158Y001380D01*
X003138Y001352D01*
X003114Y001327D01*
X003088Y001305D01*
X003060Y001287D01*
X003029Y001271D01*
X002997Y001259D01*
X002963Y001251D01*
X002929Y001247D01*
X002895Y001247D01*
X002861Y001251D01*
X002827Y001259D01*
X002795Y001271D01*
X002764Y001287D01*
X002736Y001305D01*
X002710Y001327D01*
X002686Y001352D01*
X002666Y001380D01*
X002648Y001410D01*
X002635Y001441D01*
X002625Y001474D01*
X002619Y001508D01*
X002617Y001542D01*
X002617Y003668D02*
X002619Y003702D01*
X002625Y003736D01*
X002635Y003769D01*
X002648Y003800D01*
X002666Y003830D01*
X002686Y003858D01*
X002710Y003883D01*
X002736Y003905D01*
X002764Y003923D01*
X002795Y003939D01*
X002827Y003951D01*
X002861Y003959D01*
X002895Y003963D01*
X002929Y003963D01*
X002963Y003959D01*
X002997Y003951D01*
X003029Y003939D01*
X003059Y003923D01*
X003088Y003905D01*
X003114Y003883D01*
X003138Y003858D01*
X003158Y003830D01*
X003176Y003800D01*
X003189Y003769D01*
X003199Y003736D01*
X003205Y003702D01*
X003207Y003668D01*
X003205Y003634D01*
X003199Y003600D01*
X003189Y003567D01*
X003176Y003536D01*
X003158Y003506D01*
X003138Y003478D01*
X003114Y003453D01*
X003088Y003431D01*
X003060Y003413D01*
X003029Y003397D01*
X002997Y003385D01*
X002963Y003377D01*
X002929Y003373D01*
X002895Y003373D01*
X002861Y003377D01*
X002827Y003385D01*
X002795Y003397D01*
X002764Y003413D01*
X002736Y003431D01*
X002710Y003453D01*
X002686Y003478D01*
X002666Y003506D01*
X002648Y003536D01*
X002635Y003567D01*
X002625Y003600D01*
X002619Y003634D01*
X002617Y003668D01*
X005688Y002684D02*
X005690Y002711D01*
X005696Y002738D01*
X005705Y002764D01*
X005718Y002788D01*
X005734Y002811D01*
X005753Y002830D01*
X005775Y002847D01*
X005799Y002861D01*
X005824Y002871D01*
X005851Y002878D01*
X005878Y002881D01*
X005906Y002880D01*
X005933Y002875D01*
X005959Y002867D01*
X005983Y002855D01*
X006006Y002839D01*
X006027Y002821D01*
X006044Y002800D01*
X006059Y002776D01*
X006070Y002751D01*
X006078Y002725D01*
X006082Y002698D01*
X006082Y002670D01*
X006078Y002643D01*
X006070Y002617D01*
X006059Y002592D01*
X006044Y002568D01*
X006027Y002547D01*
X006006Y002529D01*
X005984Y002513D01*
X005959Y002501D01*
X005933Y002493D01*
X005906Y002488D01*
X005878Y002487D01*
X005851Y002490D01*
X005824Y002497D01*
X005799Y002507D01*
X005775Y002521D01*
X005753Y002538D01*
X005734Y002557D01*
X005718Y002580D01*
X005705Y002604D01*
X005696Y002630D01*
X005690Y002657D01*
X005688Y002684D01*
X007420Y002684D02*
X007422Y002711D01*
X007428Y002738D01*
X007437Y002764D01*
X007450Y002788D01*
X007466Y002811D01*
X007485Y002830D01*
X007507Y002847D01*
X007531Y002861D01*
X007556Y002871D01*
X007583Y002878D01*
X007610Y002881D01*
X007638Y002880D01*
X007665Y002875D01*
X007691Y002867D01*
X007715Y002855D01*
X007738Y002839D01*
X007759Y002821D01*
X007776Y002800D01*
X007791Y002776D01*
X007802Y002751D01*
X007810Y002725D01*
X007814Y002698D01*
X007814Y002670D01*
X007810Y002643D01*
X007802Y002617D01*
X007791Y002592D01*
X007776Y002568D01*
X007759Y002547D01*
X007738Y002529D01*
X007716Y002513D01*
X007691Y002501D01*
X007665Y002493D01*
X007638Y002488D01*
X007610Y002487D01*
X007583Y002490D01*
X007556Y002497D01*
X007531Y002507D01*
X007507Y002521D01*
X007485Y002538D01*
X007466Y002557D01*
X007450Y002580D01*
X007437Y002604D01*
X007428Y002630D01*
X007422Y002657D01*
X007420Y002684D01*
D11*
X004913Y008029D03*
X004610Y008167D03*
X004365Y008369D03*
X004218Y007799D03*
X004200Y007729D03*
X004088Y007587D03*
X004053Y007414D03*
X004045Y007354D03*
X004045Y007287D03*
X004453Y007452D03*
X004510Y008952D03*
X004520Y008977D03*
X004538Y009227D03*
X004443Y009567D03*
X005163Y009707D03*
X005173Y009617D03*
X005125Y009137D03*
X005990Y010134D03*
X006000Y010139D03*
X006005Y010142D03*
X006008Y010144D03*
X006010Y010144D03*
X006010Y010152D03*
X006033Y010159D03*
X006035Y010159D03*
X006038Y010157D03*
X006040Y010157D03*
X006055Y010167D03*
X006055Y010172D03*
X006060Y010172D03*
X006063Y010179D03*
X006070Y010179D03*
X006073Y010179D03*
X006075Y010184D03*
X006080Y010189D03*
X006078Y010194D03*
X006088Y010194D03*
X006090Y010197D03*
X006093Y010202D03*
X006098Y010194D03*
X006103Y010197D03*
X006105Y010197D03*
X006088Y010189D03*
X006083Y010182D03*
X006048Y010174D03*
X006073Y010234D03*
X006065Y010252D03*
X006103Y010257D03*
X006108Y010232D03*
X006108Y010227D03*
X006100Y010217D03*
X006120Y010212D03*
X006123Y010209D03*
X006125Y010209D03*
X006125Y010217D03*
X006133Y010217D03*
X006135Y010219D03*
X006138Y010214D03*
X006140Y010217D03*
X006143Y010214D03*
X006135Y010212D03*
X006140Y010227D03*
X006138Y010229D03*
X006145Y010232D03*
X006150Y010234D03*
X006153Y010237D03*
X006155Y010242D03*
X006148Y010242D03*
X006135Y010249D03*
X006128Y010247D03*
X006128Y010234D03*
X006130Y010234D03*
X006130Y010229D03*
X006128Y010227D03*
X006148Y010222D03*
X006153Y010224D03*
X006163Y010237D03*
X006170Y010239D03*
X006170Y010244D03*
X006170Y010249D03*
X006175Y010249D03*
X006183Y010244D03*
X006188Y010244D03*
X006190Y010244D03*
X006188Y010252D03*
X006190Y010254D03*
X006193Y010252D03*
X006198Y010254D03*
X006200Y010257D03*
X006198Y010262D03*
X006200Y010267D03*
X006200Y010272D03*
X006205Y010264D03*
X006208Y010254D03*
X006218Y010262D03*
X006215Y010269D03*
X006218Y010274D03*
X006220Y010277D03*
X006223Y010277D03*
X006228Y010277D03*
X006230Y010279D03*
X006233Y010277D03*
X006235Y010279D03*
X006238Y010279D03*
X006235Y010274D03*
X006235Y010269D03*
X006233Y010264D03*
X006223Y010272D03*
X006218Y010279D03*
X006238Y010289D03*
X006238Y010294D03*
X006235Y010294D03*
X006235Y010299D03*
X006238Y010302D03*
X006238Y010307D03*
X006230Y010302D03*
X006240Y010297D03*
X006245Y010294D03*
X006248Y010292D03*
X006253Y010294D03*
X006258Y010297D03*
X006258Y010302D03*
X006255Y010304D03*
X006263Y010304D03*
X006265Y010304D03*
X006258Y010312D03*
X006253Y010312D03*
X006253Y010317D03*
X006253Y010322D03*
X006250Y010322D03*
X006248Y010312D03*
X006270Y010317D03*
X006275Y010309D03*
X006280Y010302D03*
X006283Y010302D03*
X006288Y010299D03*
X006293Y010319D03*
X006290Y010324D03*
X006293Y010327D03*
X006288Y010332D03*
X006288Y010337D03*
X006288Y010342D03*
X006290Y010342D03*
X006295Y010347D03*
X006300Y010344D03*
X006303Y010342D03*
X006305Y010344D03*
X006308Y010342D03*
X006315Y010334D03*
X006330Y010349D03*
X006328Y010354D03*
X006325Y010359D03*
X006323Y010364D03*
X006318Y010367D03*
X006320Y010377D03*
X006318Y010382D03*
X006318Y010387D03*
X006323Y010387D03*
X006333Y010379D03*
X006338Y010382D03*
X006338Y010387D03*
X006343Y010389D03*
X006348Y010389D03*
X006348Y010384D03*
X006358Y010384D03*
X006365Y010379D03*
X006375Y010387D03*
X006380Y010382D03*
X006388Y010399D03*
X006385Y010407D03*
X006390Y010409D03*
X006395Y010409D03*
X006398Y010407D03*
X006398Y010412D03*
X006400Y010412D03*
X006403Y010409D03*
X006410Y010407D03*
X006413Y010409D03*
X006415Y010402D03*
X006415Y010417D03*
X006410Y010417D03*
X006410Y010424D03*
X006408Y010424D03*
X006410Y010429D03*
X006413Y010429D03*
X006405Y010429D03*
X006395Y010419D03*
X006390Y010419D03*
X006385Y010417D03*
X006375Y010432D03*
X006375Y010437D03*
X006363Y010419D03*
X006353Y010414D03*
X006350Y010414D03*
X006350Y010409D03*
X006348Y010404D03*
X006345Y010402D03*
X006338Y010397D03*
X006335Y010394D03*
X006338Y010374D03*
X006343Y010374D03*
X006335Y010369D03*
X006338Y010362D03*
X006318Y010357D03*
X006308Y010362D03*
X006303Y010357D03*
X006298Y010364D03*
X006300Y010369D03*
X006300Y010374D03*
X006300Y010379D03*
X006305Y010372D03*
X006285Y010372D03*
X006278Y010377D03*
X006275Y010377D03*
X006275Y010372D03*
X006263Y010372D03*
X006260Y010367D03*
X006260Y010362D03*
X006250Y010362D03*
X006240Y010352D03*
X006233Y010349D03*
X006258Y010344D03*
X006260Y010337D03*
X006273Y010339D03*
X006275Y010334D03*
X006275Y010329D03*
X006280Y010337D03*
X006283Y010354D03*
X006285Y010354D03*
X006283Y010359D03*
X006290Y010357D03*
X006283Y010384D03*
X006290Y010387D03*
X006300Y010394D03*
X006305Y010402D03*
X006313Y010394D03*
X006338Y010419D03*
X006348Y010429D03*
X006370Y010404D03*
X006365Y010397D03*
X006360Y010394D03*
X006355Y010394D03*
X006360Y010367D03*
X006395Y010394D03*
X006398Y010399D03*
X006420Y010417D03*
X006428Y010427D03*
X006430Y010427D03*
X006428Y010432D03*
X006423Y010429D03*
X006425Y010439D03*
X006435Y010439D03*
X006435Y010434D03*
X006443Y010434D03*
X006443Y010439D03*
X006445Y010439D03*
X006448Y010437D03*
X006450Y010439D03*
X006455Y010439D03*
X006458Y010437D03*
X006458Y010444D03*
X006465Y010447D03*
X006463Y010452D03*
X006468Y010464D03*
X006475Y010467D03*
X006478Y010467D03*
X006480Y010467D03*
X006483Y010472D03*
X006485Y010469D03*
X006488Y010464D03*
X006483Y010462D03*
X006498Y010469D03*
X006500Y010472D03*
X006495Y010479D03*
X006498Y010484D03*
X006498Y010489D03*
X006500Y010489D03*
X006500Y010497D03*
X006500Y010502D03*
X006500Y010507D03*
X006503Y010507D03*
X006508Y010507D03*
X006508Y010502D03*
X006510Y010499D03*
X006513Y010499D03*
X006510Y010492D03*
X006513Y010489D03*
X006523Y010507D03*
X006518Y010509D03*
X006513Y010514D03*
X006508Y010519D03*
X006508Y010527D03*
X006510Y010527D03*
X006505Y010527D03*
X006503Y010527D03*
X006500Y010529D03*
X006500Y010534D03*
X006508Y010532D03*
X006518Y010537D03*
X006525Y010537D03*
X006530Y010532D03*
X006530Y010524D03*
X006528Y010524D03*
X006525Y010524D03*
X006520Y010527D03*
X006530Y010517D03*
X006538Y010522D03*
X006538Y010527D03*
X006545Y010529D03*
X006550Y010527D03*
X006555Y010517D03*
X006548Y010544D03*
X006550Y010549D03*
X006553Y010557D03*
X006558Y010557D03*
X006560Y010554D03*
X006565Y010559D03*
X006568Y010557D03*
X006568Y010562D03*
X006570Y010562D03*
X006568Y010567D03*
X006558Y010569D03*
X006555Y010562D03*
X006545Y010557D03*
X006540Y010562D03*
X006540Y010569D03*
X006523Y010567D03*
X006520Y010564D03*
X006518Y010564D03*
X006523Y010562D03*
X006523Y010557D03*
X006528Y010552D03*
X006528Y010547D03*
X006530Y010547D03*
X006533Y010549D03*
X006540Y010542D03*
X006510Y010547D03*
X006503Y010542D03*
X006495Y010547D03*
X006493Y010547D03*
X006493Y010542D03*
X006488Y010547D03*
X006503Y010554D03*
X006510Y010562D03*
X006510Y010567D03*
X006535Y010592D03*
X006578Y010589D03*
X006578Y010584D03*
X006578Y010579D03*
X006583Y010587D03*
X006593Y010577D03*
X006595Y010577D03*
X006590Y010574D03*
X006598Y010572D03*
X006608Y010569D03*
X006613Y010579D03*
X006615Y010579D03*
X006618Y010582D03*
X006605Y010582D03*
X006600Y010594D03*
X006615Y010597D03*
X006615Y010602D03*
X006620Y010597D03*
X006623Y010594D03*
X006628Y010599D03*
X006633Y010599D03*
X006633Y010604D03*
X006638Y010607D03*
X006643Y010609D03*
X006643Y010614D03*
X006640Y010619D03*
X006633Y010624D03*
X006658Y010629D03*
X006658Y010634D03*
X006670Y010639D03*
X006670Y010649D03*
X006670Y010654D03*
X006675Y010652D03*
X006678Y010654D03*
X006683Y010664D03*
X006678Y010674D03*
X006670Y010667D03*
X006693Y010689D03*
X006693Y010694D03*
X006693Y010699D03*
X006698Y010699D03*
X006700Y010702D03*
X006703Y010707D03*
X006705Y010707D03*
X006710Y010704D03*
X006708Y010714D03*
X006705Y010719D03*
X006700Y010717D03*
X006698Y010722D03*
X006690Y010719D03*
X006690Y010712D03*
X006693Y010707D03*
X006690Y010704D03*
X006685Y010727D03*
X006683Y010734D03*
X006675Y010754D03*
X006675Y010762D03*
X006673Y010774D03*
X006675Y010784D03*
X006685Y010794D03*
X006685Y010799D03*
X006690Y010809D03*
X006693Y010809D03*
X006693Y010814D03*
X006698Y010827D03*
X006700Y010829D03*
X006705Y010842D03*
X006710Y010807D03*
X006705Y010802D03*
X006713Y010799D03*
X006720Y010799D03*
X006720Y010794D03*
X006723Y010789D03*
X006725Y010789D03*
X006728Y010792D03*
X006730Y010794D03*
X006735Y010792D03*
X006733Y010787D03*
X006730Y010787D03*
X006728Y010784D03*
X006733Y010782D03*
X006735Y010784D03*
X006733Y010777D03*
X006730Y010772D03*
X006723Y010784D03*
X006718Y010782D03*
X006715Y010782D03*
X006713Y010782D03*
X006710Y010772D03*
X006713Y010769D03*
X006713Y010764D03*
X006708Y010764D03*
X006708Y010759D03*
X006708Y010754D03*
X006715Y010749D03*
X006718Y010744D03*
X006720Y010747D03*
X006718Y010739D03*
X006715Y010739D03*
X006713Y010739D03*
X006720Y010734D03*
X006720Y010729D03*
X006723Y010729D03*
X006725Y010724D03*
X006718Y010724D03*
X006715Y010724D03*
X006708Y010732D03*
X006705Y010732D03*
X006705Y010744D03*
X006735Y010749D03*
X006745Y010772D03*
X006750Y010782D03*
X006745Y010797D03*
X006748Y010799D03*
X006743Y010804D03*
X006740Y010812D03*
X006735Y010807D03*
X006733Y010804D03*
X006733Y010799D03*
X006720Y010804D03*
X006703Y010789D03*
X006685Y010769D03*
X006660Y010742D03*
X006755Y010807D03*
X006755Y010812D03*
X006753Y010814D03*
X006755Y010817D03*
X006758Y010819D03*
X006760Y010819D03*
X006768Y010819D03*
X006770Y010829D03*
X006770Y010834D03*
X006768Y010837D03*
X006770Y010839D03*
X006773Y010839D03*
X006775Y010837D03*
X006775Y010842D03*
X006778Y010844D03*
X006780Y010847D03*
X006783Y010852D03*
X006785Y010852D03*
X006783Y010859D03*
X006783Y010864D03*
X006785Y010867D03*
X006788Y010867D03*
X006788Y010862D03*
X006795Y010864D03*
X006800Y010867D03*
X006790Y010874D03*
X006780Y010874D03*
X006775Y010864D03*
X006760Y010862D03*
X006770Y010849D03*
X006753Y010842D03*
X006750Y010839D03*
X006803Y010879D03*
X006800Y010884D03*
X006803Y010887D03*
X006805Y010897D03*
X006808Y010899D03*
X006805Y010907D03*
X006803Y010907D03*
X006808Y010909D03*
X006810Y010912D03*
X006808Y010917D03*
X006805Y010919D03*
X006803Y010914D03*
X006798Y010912D03*
X006798Y010907D03*
X006795Y010899D03*
X006793Y010894D03*
X006795Y010919D03*
X006800Y010924D03*
X006810Y010929D03*
X006810Y010937D03*
X006803Y010937D03*
X006800Y010942D03*
X006803Y010949D03*
X006805Y010952D03*
X006810Y010952D03*
X006815Y010947D03*
X006813Y010944D03*
X006810Y010962D03*
X006810Y010969D03*
X006808Y010974D03*
X006813Y010977D03*
X006815Y010977D03*
X006820Y010982D03*
X006825Y010974D03*
X006805Y010979D03*
X006803Y010982D03*
X006803Y010987D03*
X006798Y010989D03*
X006810Y010997D03*
X006805Y011004D03*
X006815Y011007D03*
X006815Y011012D03*
X006810Y011019D03*
X006810Y011027D03*
X006805Y011032D03*
X006805Y011039D03*
X006808Y011039D03*
X006815Y011042D03*
X006818Y011044D03*
X006818Y011052D03*
X006818Y011057D03*
X006818Y011062D03*
X006825Y011057D03*
X006830Y011059D03*
X006830Y011067D03*
X006823Y011072D03*
X006818Y011074D03*
X006820Y011079D03*
X006818Y011084D03*
X006815Y011084D03*
X006825Y011089D03*
X006828Y011089D03*
X006828Y011094D03*
X006830Y011097D03*
X006833Y011097D03*
X006840Y011099D03*
X006825Y011112D03*
X006820Y011114D03*
X006820Y011109D03*
X006818Y011107D03*
X006820Y011102D03*
X006818Y011119D03*
X006825Y011127D03*
X006828Y011129D03*
X006830Y011134D03*
X006840Y011132D03*
X006840Y011139D03*
X006843Y011139D03*
X006845Y011139D03*
X006845Y011147D03*
X006848Y011147D03*
X006850Y011147D03*
X006840Y011147D03*
X006835Y011147D03*
X006828Y011152D03*
X006830Y011157D03*
X006835Y011162D03*
X006838Y011157D03*
X006840Y011169D03*
X006838Y011174D03*
X006830Y011179D03*
X006835Y011184D03*
X006838Y011184D03*
X006833Y011187D03*
X006840Y011192D03*
X006838Y011199D03*
X006838Y011204D03*
X006840Y011207D03*
X006845Y011199D03*
X006850Y011187D03*
X006840Y011217D03*
X006838Y011222D03*
X006840Y011224D03*
X006835Y011227D03*
X006838Y011232D03*
X006835Y011234D03*
X006838Y011237D03*
X006845Y011237D03*
X006843Y011229D03*
X006830Y011247D03*
X006830Y011252D03*
X006833Y011259D03*
X006830Y011267D03*
X006830Y011272D03*
X006825Y011279D03*
X006820Y011279D03*
X006825Y011284D03*
X006825Y011292D03*
X006823Y011297D03*
X006820Y011302D03*
X006813Y011299D03*
X006810Y011314D03*
X006808Y011337D03*
X006805Y011337D03*
X006800Y011344D03*
X006793Y011349D03*
X006793Y011357D03*
X006795Y011357D03*
X006780Y011369D03*
X006778Y011367D03*
X006775Y011369D03*
X006778Y011394D03*
X006805Y011244D03*
X006840Y011252D03*
X006823Y011154D03*
X006820Y011154D03*
X006820Y011149D03*
X006823Y011149D03*
X006825Y011144D03*
X006820Y011144D03*
X006835Y011119D03*
X006830Y011117D03*
X006810Y011069D03*
X006808Y011064D03*
X006808Y011059D03*
X006810Y011047D03*
X006795Y011039D03*
X006793Y011039D03*
X006803Y011024D03*
X006823Y011032D03*
X006828Y011032D03*
X006830Y011034D03*
X006828Y011037D03*
X006828Y011027D03*
X006825Y011027D03*
X006828Y011007D03*
X006820Y010999D03*
X006818Y011002D03*
X006830Y010994D03*
X006800Y010962D03*
X006793Y010959D03*
X006815Y010922D03*
X006813Y010919D03*
X006758Y011012D03*
X006760Y011027D03*
X006763Y011034D03*
X006760Y011069D03*
X006760Y011082D03*
X006833Y011047D03*
X006580Y010569D03*
X006580Y010564D03*
X006583Y010564D03*
X006588Y010562D03*
X006578Y010562D03*
X006578Y010557D03*
X006575Y010557D03*
X006575Y010552D03*
X006495Y010502D03*
X006485Y010499D03*
X006483Y010489D03*
X006478Y010489D03*
X006478Y010484D03*
X006480Y010484D03*
X006478Y010479D03*
X006473Y010477D03*
X006460Y010469D03*
X006453Y010469D03*
X006443Y010467D03*
X006445Y010449D03*
X006445Y010429D03*
X006448Y010427D03*
X006450Y010427D03*
X006458Y010429D03*
X006468Y010439D03*
X006403Y010472D03*
X006468Y010517D03*
X006485Y010519D03*
X006263Y010289D03*
X006190Y010259D03*
X006160Y010252D03*
X006150Y010302D03*
X006015Y010232D03*
D12*
X006073Y010194D03*
X006070Y010187D03*
X006068Y010187D03*
X006095Y010202D03*
X006098Y010202D03*
X006100Y010209D03*
X006103Y010209D03*
X006110Y010214D03*
X006103Y010219D03*
X006100Y010227D03*
X006113Y010237D03*
X006120Y010219D03*
X006128Y010219D03*
X006130Y010219D03*
X006133Y010237D03*
X006135Y010242D03*
X006163Y010244D03*
X006168Y010242D03*
X006180Y010249D03*
X006183Y010252D03*
X006188Y010262D03*
X006218Y010287D03*
X006233Y010284D03*
X006250Y010314D03*
X006255Y010322D03*
X006258Y010327D03*
X006263Y010324D03*
X006265Y010324D03*
X006270Y010329D03*
X006280Y010329D03*
X006278Y010339D03*
X006258Y010337D03*
X006240Y010327D03*
X006298Y010357D03*
X006303Y010364D03*
X006298Y010372D03*
X006303Y010377D03*
X006303Y010389D03*
X006308Y010392D03*
X006305Y010394D03*
X006313Y010387D03*
X006333Y010389D03*
X006343Y010382D03*
X006345Y010384D03*
X006335Y010402D03*
X006338Y010407D03*
X006343Y010409D03*
X006345Y010409D03*
X006348Y010412D03*
X006345Y010419D03*
X006348Y010422D03*
X006350Y010422D03*
X006360Y010434D03*
X006363Y010437D03*
X006365Y010427D03*
X006373Y010409D03*
X006375Y010407D03*
X006408Y010434D03*
X006418Y010432D03*
X006448Y010452D03*
X006450Y010452D03*
X006458Y010452D03*
X006443Y010459D03*
X006453Y010477D03*
X006468Y010509D03*
X006475Y010512D03*
X006470Y010524D03*
X006493Y010534D03*
X006503Y010534D03*
X006505Y010534D03*
X006515Y010539D03*
X006510Y010554D03*
X006505Y010557D03*
X006503Y010519D03*
X006510Y010517D03*
X006498Y010504D03*
X006490Y010502D03*
X006490Y010492D03*
X006495Y010489D03*
X006503Y010497D03*
X006543Y010569D03*
X006545Y010577D03*
X006550Y010577D03*
X006553Y010584D03*
X006558Y010579D03*
X006570Y010572D03*
X006560Y010562D03*
X006585Y010579D03*
X006588Y010577D03*
X006610Y010602D03*
X006638Y010614D03*
X006650Y010619D03*
X006680Y010662D03*
X006683Y010674D03*
X006690Y010679D03*
X006695Y010707D03*
X006698Y010707D03*
X006703Y010714D03*
X006688Y010717D03*
X006700Y010749D03*
X006703Y010772D03*
X006708Y010772D03*
X006708Y010782D03*
X006703Y010782D03*
X006695Y010787D03*
X006703Y010797D03*
X006690Y010799D03*
X006678Y010782D03*
X006655Y010747D03*
X006725Y010777D03*
X006728Y010807D03*
X006720Y010812D03*
X006738Y010804D03*
X006748Y010814D03*
X006765Y010834D03*
X006768Y010847D03*
X006770Y010862D03*
X006778Y010862D03*
X006783Y010874D03*
X006793Y010887D03*
X006798Y010884D03*
X006798Y010894D03*
X006788Y010892D03*
X006783Y010907D03*
X006803Y010929D03*
X006800Y010934D03*
X006790Y010949D03*
X006790Y010972D03*
X006803Y010994D03*
X006808Y011007D03*
X006810Y011007D03*
X006813Y011007D03*
X006803Y011017D03*
X006795Y011032D03*
X006800Y011039D03*
X006788Y011039D03*
X006800Y011052D03*
X006815Y011054D03*
X006813Y011037D03*
X006805Y011077D03*
X006818Y011099D03*
X006830Y011107D03*
X006825Y011119D03*
X006823Y011122D03*
X006815Y011124D03*
X006815Y011114D03*
X006825Y011152D03*
X006828Y011159D03*
X006833Y011157D03*
X006838Y011167D03*
X006825Y011169D03*
X006805Y011154D03*
X006838Y011192D03*
X006848Y011199D03*
X006838Y011212D03*
X006838Y011259D03*
X006835Y011262D03*
X006830Y011259D03*
X006825Y011264D03*
X006813Y011324D03*
X006810Y011324D03*
X006810Y011337D03*
X006760Y011034D03*
X006545Y010589D03*
X006328Y010402D03*
X006108Y010277D03*
X005090Y009599D03*
X004540Y009227D03*
X004913Y008014D03*
X005133Y011092D03*
X005140Y011094D03*
X005148Y011099D03*
X005150Y011099D03*
X005153Y011099D03*
D13*
X005145Y011098D03*
X005143Y011095D03*
X004440Y009598D03*
X004643Y008638D03*
X004608Y008125D03*
X004343Y008285D03*
X004255Y008380D03*
X004215Y008173D03*
X004075Y007533D03*
X004043Y007328D03*
X004453Y007405D03*
X004450Y007423D03*
X004543Y007433D03*
X004913Y007998D03*
X005058Y008708D03*
X005073Y008745D03*
X005133Y009103D03*
X005123Y009138D03*
X005973Y010128D03*
X006025Y010153D03*
X006038Y010163D03*
X006048Y010168D03*
X006058Y010173D03*
X006065Y010175D03*
X006068Y010178D03*
X006065Y010183D03*
X006073Y010185D03*
X006085Y010185D03*
X006083Y010198D03*
X006088Y010200D03*
X006100Y010200D03*
X006113Y010215D03*
X006123Y010220D03*
X006130Y010240D03*
X006148Y010235D03*
X006158Y010245D03*
X006160Y010243D03*
X006168Y010255D03*
X006175Y010260D03*
X006178Y010258D03*
X006195Y010263D03*
X006195Y010253D03*
X006210Y010265D03*
X006213Y010270D03*
X006223Y010283D03*
X006230Y010290D03*
X006235Y010285D03*
X006240Y010290D03*
X006243Y010293D03*
X006245Y010300D03*
X006248Y010300D03*
X006250Y010303D03*
X006245Y010310D03*
X006245Y010320D03*
X006253Y010328D03*
X006263Y010333D03*
X006268Y010335D03*
X006270Y010338D03*
X006275Y010343D03*
X006273Y010345D03*
X006285Y010345D03*
X006285Y010335D03*
X006298Y010348D03*
X006288Y010358D03*
X006300Y010363D03*
X006318Y010375D03*
X006323Y010380D03*
X006320Y010383D03*
X006328Y010388D03*
X006335Y010388D03*
X006343Y010395D03*
X006340Y010403D03*
X006328Y010410D03*
X006325Y010403D03*
X006318Y010403D03*
X006315Y010398D03*
X006310Y010393D03*
X006300Y010388D03*
X006293Y010390D03*
X006280Y010375D03*
X006278Y010370D03*
X006270Y010373D03*
X006258Y010363D03*
X006258Y010318D03*
X006265Y010315D03*
X006268Y010315D03*
X006233Y010300D03*
X006140Y010295D03*
X006100Y010265D03*
X006085Y010265D03*
X006105Y010248D03*
X006165Y010228D03*
X006043Y010183D03*
X006353Y010395D03*
X006358Y010403D03*
X006365Y010418D03*
X006368Y010425D03*
X006363Y010428D03*
X006355Y010428D03*
X006375Y010423D03*
X006375Y010415D03*
X006388Y010408D03*
X006385Y010400D03*
X006390Y010395D03*
X006378Y010400D03*
X006373Y010380D03*
X006405Y010408D03*
X006403Y010430D03*
X006425Y010433D03*
X006430Y010438D03*
X006438Y010440D03*
X006443Y010450D03*
X006450Y010460D03*
X006455Y010463D03*
X006458Y010463D03*
X006460Y010460D03*
X006463Y010460D03*
X006465Y010460D03*
X006465Y010453D03*
X006473Y010458D03*
X006473Y010468D03*
X006475Y010473D03*
X006473Y010483D03*
X006483Y010483D03*
X006488Y010483D03*
X006490Y010480D03*
X006503Y010480D03*
X006505Y010488D03*
X006505Y010498D03*
X006513Y010508D03*
X006523Y010523D03*
X006523Y010533D03*
X006515Y010530D03*
X006510Y010533D03*
X006513Y010538D03*
X006513Y010548D03*
X006505Y010548D03*
X006503Y010548D03*
X006500Y010553D03*
X006495Y010553D03*
X006508Y010558D03*
X006518Y010570D03*
X006520Y010570D03*
X006523Y010573D03*
X006533Y010585D03*
X006550Y010585D03*
X006553Y010575D03*
X006553Y010568D03*
X006555Y010568D03*
X006550Y010568D03*
X006548Y010565D03*
X006545Y010568D03*
X006543Y010558D03*
X006540Y010553D03*
X006535Y010558D03*
X006535Y010548D03*
X006525Y010543D03*
X006533Y010533D03*
X006535Y010533D03*
X006533Y010525D03*
X006555Y010548D03*
X006550Y010558D03*
X006558Y010563D03*
X006563Y010560D03*
X006578Y010570D03*
X006575Y010575D03*
X006585Y010570D03*
X006588Y010585D03*
X006598Y010580D03*
X006600Y010585D03*
X006610Y010593D03*
X006620Y010603D03*
X006618Y010605D03*
X006623Y010610D03*
X006628Y010608D03*
X006648Y010620D03*
X006648Y010628D03*
X006658Y010640D03*
X006665Y010645D03*
X006670Y010660D03*
X006678Y010660D03*
X006678Y010668D03*
X006698Y010683D03*
X006688Y010708D03*
X006693Y010715D03*
X006685Y010720D03*
X006690Y010725D03*
X006688Y010728D03*
X006685Y010735D03*
X006695Y010738D03*
X006698Y010735D03*
X006700Y010735D03*
X006705Y010738D03*
X006708Y010738D03*
X006710Y010735D03*
X006708Y010745D03*
X006690Y010750D03*
X006700Y010770D03*
X006710Y010780D03*
X006718Y010775D03*
X006723Y010765D03*
X006718Y010763D03*
X006730Y010778D03*
X006718Y010788D03*
X006708Y010790D03*
X006695Y010795D03*
X006698Y010818D03*
X006710Y010813D03*
X006728Y010798D03*
X006745Y010813D03*
X006750Y010813D03*
X006755Y010825D03*
X006765Y010823D03*
X006768Y010825D03*
X006773Y010830D03*
X006775Y010825D03*
X006773Y010845D03*
X006765Y010845D03*
X006753Y010848D03*
X006755Y010835D03*
X006780Y010855D03*
X006793Y010858D03*
X006793Y010873D03*
X006795Y010878D03*
X006795Y010885D03*
X006788Y010883D03*
X006780Y010880D03*
X006780Y010888D03*
X006795Y010893D03*
X006800Y010893D03*
X006800Y010913D03*
X006798Y010918D03*
X006803Y010920D03*
X006808Y010928D03*
X006808Y010935D03*
X006805Y010938D03*
X006803Y010943D03*
X006810Y010943D03*
X006813Y010938D03*
X006808Y010955D03*
X006803Y010955D03*
X006805Y010960D03*
X006803Y010965D03*
X006800Y010968D03*
X006803Y010973D03*
X006805Y010973D03*
X006810Y010978D03*
X006808Y010983D03*
X006815Y010985D03*
X006813Y010970D03*
X006808Y010965D03*
X006790Y010958D03*
X006783Y010940D03*
X006795Y010985D03*
X006803Y011008D03*
X006815Y011025D03*
X006823Y011043D03*
X006823Y011058D03*
X006820Y011058D03*
X006815Y011063D03*
X006810Y011063D03*
X006805Y011068D03*
X006810Y011075D03*
X006815Y011073D03*
X006810Y011083D03*
X006803Y011078D03*
X006820Y011095D03*
X006823Y011093D03*
X006823Y011100D03*
X006818Y011113D03*
X006820Y011125D03*
X006825Y011138D03*
X006828Y011140D03*
X006830Y011140D03*
X006838Y011138D03*
X006818Y011145D03*
X006823Y011160D03*
X006825Y011160D03*
X006830Y011165D03*
X006833Y011165D03*
X006835Y011173D03*
X006830Y011173D03*
X006835Y011210D03*
X006835Y011218D03*
X006825Y011228D03*
X006833Y011235D03*
X006835Y011240D03*
X006838Y011248D03*
X006833Y011250D03*
X006825Y011253D03*
X006825Y011273D03*
X006828Y011273D03*
X006820Y011285D03*
X006815Y011288D03*
X006815Y011280D03*
X006818Y011295D03*
X006818Y011303D03*
X006815Y011308D03*
X006813Y011305D03*
X006813Y011313D03*
X006808Y011325D03*
X006805Y011330D03*
X006790Y011348D03*
X006793Y011363D03*
X006753Y011428D03*
X006840Y011233D03*
X006835Y011113D03*
X006785Y010873D03*
X006775Y010870D03*
X006698Y010728D03*
X006678Y010718D03*
X006548Y010603D03*
X006545Y010598D03*
X006478Y010535D03*
X006498Y010518D03*
X006495Y010510D03*
X006475Y010503D03*
X006460Y010475D03*
X006458Y010470D03*
X006455Y010470D03*
X006455Y010478D03*
X006445Y010473D03*
X006435Y010428D03*
X006428Y010420D03*
X006425Y010420D03*
D14*
X006428Y010443D03*
X006468Y010495D03*
X006488Y010495D03*
X006523Y010545D03*
X006515Y010553D03*
X006548Y010578D03*
X006563Y010580D03*
X006568Y010580D03*
X006675Y010665D03*
X006673Y010678D03*
X006683Y010723D03*
X006683Y010745D03*
X006705Y010758D03*
X006700Y010800D03*
X006695Y010808D03*
X006700Y010818D03*
X006705Y010828D03*
X006750Y010828D03*
X006795Y010953D03*
X006795Y010973D03*
X006798Y011055D03*
X006805Y011055D03*
X006828Y011105D03*
X006833Y011108D03*
X006823Y011138D03*
X006830Y011193D03*
X006835Y011195D03*
X006825Y011240D03*
X006823Y011265D03*
X006783Y011358D03*
X006720Y011458D03*
X006340Y010415D03*
X006263Y010360D03*
X006260Y010348D03*
X006240Y010340D03*
X006220Y010290D03*
X006123Y010233D03*
X006118Y010240D03*
X006110Y010230D03*
X006108Y010210D03*
X006083Y010210D03*
X006070Y010200D03*
X006043Y010170D03*
X005203Y011080D03*
X005200Y011080D03*
X005195Y011078D03*
X005193Y011075D03*
X005205Y011085D03*
X005173Y011060D03*
X004645Y008640D03*
D15*
X005180Y011065D03*
X005215Y011098D03*
X005223Y011103D03*
X005225Y011105D03*
X006073Y010248D03*
X006088Y010258D03*
X006103Y010243D03*
X006095Y010218D03*
X006210Y010280D03*
X006230Y010335D03*
X006270Y010358D03*
X006275Y010358D03*
X006278Y010355D03*
X006290Y010373D03*
X006360Y010418D03*
X006438Y010455D03*
X006460Y010490D03*
X006455Y010505D03*
X006460Y010513D03*
X006493Y010518D03*
X006518Y010550D03*
X006540Y010588D03*
X006550Y010600D03*
X006553Y010600D03*
X006685Y010705D03*
X006693Y010795D03*
X006703Y010813D03*
X006768Y010865D03*
X006783Y010890D03*
X006795Y010933D03*
X006788Y011055D03*
X006800Y011068D03*
X006813Y011060D03*
X006830Y011213D03*
X006833Y011213D03*
X006820Y011263D03*
X006778Y011380D03*
X006780Y011383D03*
D16*
X006790Y011365D03*
X006810Y011305D03*
X006815Y011298D03*
X006828Y011260D03*
X006833Y011195D03*
X006823Y011170D03*
X006820Y011135D03*
X006825Y011100D03*
X006808Y011073D03*
X006803Y011068D03*
X006803Y011055D03*
X006793Y011060D03*
X006793Y011048D03*
X006798Y011040D03*
X006808Y011030D03*
X006805Y011020D03*
X006808Y011018D03*
X006820Y011048D03*
X006790Y011073D03*
X006800Y010953D03*
X006805Y010928D03*
X006795Y010910D03*
X006793Y010908D03*
X006800Y010903D03*
X006803Y010898D03*
X006780Y010898D03*
X006773Y010870D03*
X006780Y010865D03*
X006755Y010850D03*
X006703Y010830D03*
X006713Y010790D03*
X006700Y010760D03*
X006690Y010735D03*
X006693Y010730D03*
X006695Y010695D03*
X006703Y010695D03*
X006675Y010695D03*
X006673Y010663D03*
X006618Y010595D03*
X006583Y010578D03*
X006580Y010578D03*
X006555Y010578D03*
X006548Y010593D03*
X006515Y010568D03*
X006525Y010553D03*
X006500Y010543D03*
X006500Y010520D03*
X006468Y010525D03*
X006455Y010488D03*
X006453Y010488D03*
X006468Y010480D03*
X006470Y010473D03*
X006453Y010458D03*
X006453Y010445D03*
X006375Y010445D03*
X006370Y010438D03*
X006365Y010438D03*
X006358Y010425D03*
X006353Y010428D03*
X006358Y010413D03*
X006363Y010410D03*
X006365Y010408D03*
X006353Y010405D03*
X006335Y010413D03*
X006323Y010403D03*
X006325Y010390D03*
X006310Y010380D03*
X006305Y010383D03*
X006295Y010368D03*
X006285Y010363D03*
X006295Y010355D03*
X006300Y010353D03*
X006305Y010363D03*
X006285Y010380D03*
X006258Y010353D03*
X006263Y010343D03*
X006265Y010335D03*
X006268Y010325D03*
X006238Y010318D03*
X006240Y010310D03*
X006203Y010328D03*
X006185Y010273D03*
X006185Y010260D03*
X006180Y010260D03*
X006125Y010243D03*
X006123Y010255D03*
X006103Y010268D03*
X006105Y010273D03*
X006105Y010238D03*
X006113Y010225D03*
X006125Y010228D03*
X006068Y010198D03*
X006063Y010188D03*
X006670Y010768D03*
X006718Y011460D03*
X005073Y008763D03*
X004535Y009255D03*
D17*
X004575Y009529D03*
X005175Y011064D03*
X005178Y011064D03*
X005185Y011074D03*
X005188Y011074D03*
X005190Y011074D03*
X005198Y011079D03*
X005213Y011092D03*
X006040Y010169D03*
X006105Y010209D03*
X006230Y010314D03*
X006243Y010307D03*
X006283Y010372D03*
X006295Y010384D03*
X006298Y010387D03*
X006308Y010377D03*
X006333Y010407D03*
X006370Y010422D03*
X006385Y010429D03*
X006390Y010432D03*
X006390Y010452D03*
X006440Y010447D03*
X006440Y010467D03*
X006475Y010489D03*
X006493Y010487D03*
X006475Y010527D03*
X006480Y010529D03*
X006508Y010544D03*
X006538Y010549D03*
X006593Y010589D03*
X006688Y010742D03*
X006698Y010754D03*
X006703Y010757D03*
X006685Y010782D03*
X006710Y010794D03*
X006753Y010829D03*
X006785Y010917D03*
X006793Y010974D03*
X006798Y010974D03*
X006793Y011027D03*
X006818Y011132D03*
X006830Y011234D03*
X006800Y011234D03*
X006808Y011312D03*
X006788Y011367D03*
X006783Y011377D03*
X004453Y007427D03*
X004050Y007384D03*
X004043Y007292D03*
D18*
X004545Y009257D03*
X004558Y009532D03*
X005120Y009109D03*
X006090Y010234D03*
X006665Y010684D03*
X006803Y011117D03*
X006828Y011219D03*
X003298Y010682D03*
D19*
X004578Y009527D03*
X005130Y009107D03*
X006053Y010169D03*
X006095Y010237D03*
X006105Y010259D03*
X006138Y010247D03*
X006165Y010252D03*
X006193Y010269D03*
X006228Y010289D03*
X006203Y010314D03*
X006255Y010334D03*
X006260Y010322D03*
X006273Y010329D03*
X006283Y010342D03*
X006313Y010372D03*
X006320Y010397D03*
X006340Y010384D03*
X006343Y010422D03*
X006368Y010414D03*
X006368Y010437D03*
X006385Y010447D03*
X006405Y010444D03*
X006445Y010459D03*
X006448Y010464D03*
X006450Y010472D03*
X006458Y010487D03*
X006473Y010494D03*
X006485Y010489D03*
X006485Y010509D03*
X006520Y010539D03*
X006520Y010554D03*
X006513Y010559D03*
X006560Y010617D03*
X006595Y010587D03*
X006633Y010614D03*
X006655Y010629D03*
X006675Y010682D03*
X006683Y010687D03*
X006690Y010694D03*
X006683Y010702D03*
X006695Y010719D03*
X006668Y010747D03*
X006660Y010752D03*
X006668Y010762D03*
X006675Y010772D03*
X006698Y010774D03*
X006705Y010774D03*
X006715Y010772D03*
X006700Y010784D03*
X006705Y010792D03*
X006715Y010794D03*
X006705Y010812D03*
X006785Y010934D03*
X006800Y010982D03*
X006805Y010989D03*
X006803Y011042D03*
X006793Y011079D03*
X006815Y011097D03*
X006815Y011139D03*
X006828Y011172D03*
X006763Y011044D03*
X006775Y011379D03*
X006775Y011394D03*
X006455Y010449D03*
X006118Y010219D03*
X005210Y011087D03*
X005208Y011087D03*
X005183Y011072D03*
X005138Y011092D03*
X005135Y011092D03*
D20*
X005163Y011115D03*
X005165Y011118D03*
X005168Y011118D03*
X005205Y011145D03*
X004443Y009600D03*
X005125Y009103D03*
X006083Y010243D03*
X006130Y010268D03*
X006193Y010303D03*
X006228Y010320D03*
X006235Y010325D03*
X006388Y010435D03*
X006400Y010443D03*
X006413Y010458D03*
X006725Y010865D03*
X006825Y011200D03*
X003293Y010685D03*
D21*
X004553Y009259D03*
X004655Y008644D03*
X004620Y008147D03*
X004905Y008024D03*
X005063Y008762D03*
X004460Y007424D03*
X006008Y010189D03*
X006013Y010189D03*
X006808Y011194D03*
X006823Y011217D03*
X006805Y011287D03*
D22*
X006820Y011233D03*
X006795Y011008D03*
X006793Y011000D03*
X006790Y010928D03*
X006723Y010808D03*
X006688Y010688D03*
X006680Y010683D03*
X006563Y010608D03*
X006558Y010603D03*
X006555Y010600D03*
X006488Y010528D03*
X006473Y010518D03*
X006480Y010503D03*
X006438Y010485D03*
X006280Y010355D03*
X006183Y010303D03*
X006073Y010215D03*
D23*
X006075Y010204D03*
X006060Y010192D03*
X006243Y010334D03*
X006253Y010349D03*
X006373Y010432D03*
X006403Y010452D03*
X006445Y010494D03*
X006490Y010529D03*
X006560Y010592D03*
X006710Y010834D03*
X006760Y010842D03*
X006800Y011007D03*
X006798Y011009D03*
X006820Y011199D03*
X006773Y011389D03*
X005128Y009099D03*
X004648Y008642D03*
D24*
X004610Y008129D03*
X004573Y009529D03*
X005218Y011099D03*
X005220Y011102D03*
X006080Y010204D03*
X006098Y010219D03*
X006168Y010272D03*
X006183Y010269D03*
X006195Y010279D03*
X006255Y010354D03*
X006288Y010377D03*
X006315Y010379D03*
X006355Y010412D03*
X006405Y010464D03*
X006453Y010507D03*
X006485Y010534D03*
X006525Y010572D03*
X006535Y010574D03*
X006590Y010644D03*
X006635Y010614D03*
X006678Y010764D03*
X006770Y010882D03*
X006783Y010924D03*
X006788Y010949D03*
X006798Y011077D03*
X006820Y011169D03*
X003290Y010679D03*
D25*
X003308Y010679D03*
X003470Y010489D03*
X003473Y010487D03*
X003478Y010482D03*
X003480Y010479D03*
X003483Y010477D03*
X003488Y010472D03*
X003493Y010467D03*
X003498Y010464D03*
X004543Y009684D03*
X004750Y009259D03*
X004753Y009259D03*
X004755Y009259D03*
X004758Y009259D03*
X004760Y009259D03*
X004578Y008944D03*
X004575Y008944D03*
X004555Y008949D03*
X004553Y008949D03*
X004550Y008949D03*
X004548Y008949D03*
X004545Y008949D03*
X004688Y008647D03*
X004908Y008869D03*
X004910Y008869D03*
X004913Y008869D03*
X004928Y008862D03*
X004930Y008862D03*
X004935Y008859D03*
X005070Y009149D03*
X005073Y009147D03*
X005068Y009152D03*
X005083Y009139D03*
X005005Y009374D03*
X005010Y009377D03*
X005013Y009379D03*
X004760Y008159D03*
X004775Y008152D03*
X004780Y008149D03*
X004783Y008149D03*
X004898Y008029D03*
X004950Y007222D03*
X004953Y007222D03*
X004955Y007219D03*
X004958Y007219D03*
X005008Y007214D03*
X004480Y007447D03*
X006548Y011504D03*
X006550Y011504D03*
X006565Y011497D03*
X006570Y011494D03*
X006575Y011492D03*
X006580Y011489D03*
X006583Y011489D03*
X006585Y011487D03*
X006588Y011487D03*
X006818Y011214D03*
X006815Y011212D03*
X006780Y010969D03*
X006773Y010944D03*
D26*
X006748Y010890D03*
X006813Y011225D03*
X006635Y011460D03*
X006630Y011463D03*
X006628Y011463D03*
X005070Y009753D03*
X005065Y009438D03*
X005063Y009430D03*
X005050Y009418D03*
X004805Y009260D03*
X004803Y009260D03*
X004800Y009260D03*
X004798Y009260D03*
X004795Y009260D03*
X004793Y009260D03*
X004790Y009260D03*
X004960Y008840D03*
X004935Y008555D03*
X004940Y008553D03*
X004955Y008543D03*
X004958Y008540D03*
X004960Y008538D03*
X004713Y008645D03*
X004808Y008130D03*
X004893Y008035D03*
X004930Y007235D03*
X005023Y007230D03*
X005043Y007243D03*
X004343Y008365D03*
X003435Y010523D03*
X003433Y010525D03*
X003313Y010675D03*
D27*
X004538Y009260D03*
X006050Y010183D03*
X006093Y010255D03*
X006095Y010258D03*
X006123Y010275D03*
X006168Y010298D03*
X006198Y010278D03*
X006205Y010323D03*
X006238Y010338D03*
X006330Y010395D03*
X006440Y010490D03*
X006458Y010508D03*
X006495Y010530D03*
X006533Y010568D03*
X006528Y010573D03*
X006678Y010738D03*
X006685Y010753D03*
X006698Y010800D03*
X006785Y010893D03*
X006810Y011100D03*
X006808Y011135D03*
X006813Y011140D03*
D28*
X006813Y011104D03*
X006758Y010849D03*
X006745Y010839D03*
X006693Y010762D03*
X006673Y010749D03*
X006463Y010502D03*
X006410Y010457D03*
X006395Y010444D03*
X006393Y010444D03*
X006210Y010314D03*
X006203Y010284D03*
X006138Y010277D03*
X006135Y010274D03*
X006060Y010232D03*
X005208Y011147D03*
X005193Y011134D03*
X005190Y011134D03*
X005188Y011134D03*
X005160Y011114D03*
X005068Y007237D03*
D29*
X005068Y008762D03*
X006150Y010272D03*
X006158Y010279D03*
X006423Y010464D03*
X006430Y010469D03*
X006465Y010499D03*
X006723Y010852D03*
X006810Y011269D03*
X005173Y011122D03*
D30*
X005253Y009994D03*
X005255Y009994D03*
X005268Y009994D03*
X005285Y009997D03*
X005288Y009997D03*
X005323Y009999D03*
X005325Y009999D03*
X005328Y009999D03*
X005330Y009999D03*
X005370Y010007D03*
X005373Y010007D03*
X005375Y010007D03*
X005378Y010007D03*
X005380Y010007D03*
X005383Y010007D03*
X005385Y010007D03*
X005408Y010009D03*
X005410Y010009D03*
X005413Y010009D03*
X005415Y010012D03*
X005425Y010012D03*
X005428Y010012D03*
X005430Y010012D03*
X005433Y010012D03*
X005435Y010012D03*
X005438Y010012D03*
X005440Y010012D03*
X005485Y010022D03*
X005488Y010022D03*
X005490Y010022D03*
X005498Y010024D03*
X005500Y010024D03*
X005503Y010024D03*
X005505Y010027D03*
X005513Y010024D03*
X005538Y010029D03*
X005540Y010032D03*
X005543Y010032D03*
X005545Y010032D03*
X005563Y010037D03*
X005565Y010037D03*
X005568Y010037D03*
X005570Y010037D03*
X005573Y010037D03*
X005603Y010044D03*
X005615Y010049D03*
X005625Y010049D03*
X005628Y010049D03*
X005633Y010052D03*
X005655Y010057D03*
X005658Y010059D03*
X005660Y010059D03*
X005663Y010059D03*
X005665Y010059D03*
X005668Y010062D03*
X005670Y010062D03*
X005675Y010064D03*
X005678Y010064D03*
X005680Y010064D03*
X005683Y010064D03*
X005685Y010064D03*
X005690Y010067D03*
X005693Y010069D03*
X005695Y010069D03*
X005698Y010069D03*
X005700Y010069D03*
X005703Y010069D03*
X005710Y010074D03*
X005713Y010074D03*
X005718Y010077D03*
X005720Y010077D03*
X005723Y010077D03*
X005725Y010077D03*
X005728Y010077D03*
X005748Y010084D03*
X005750Y010084D03*
X005753Y010084D03*
X005755Y010084D03*
X005768Y010092D03*
X005770Y010092D03*
X005785Y010097D03*
X005788Y010097D03*
X005795Y010099D03*
X005800Y010102D03*
X005805Y010104D03*
X005808Y010104D03*
X005810Y010104D03*
X005813Y010104D03*
X005825Y010112D03*
X005835Y010114D03*
X005838Y010114D03*
X005853Y010119D03*
X005860Y010124D03*
X005865Y010127D03*
X005873Y010129D03*
X005875Y010129D03*
X005878Y010129D03*
X005880Y010129D03*
X005908Y010142D03*
X005910Y010144D03*
X005918Y010147D03*
X005920Y010147D03*
X005945Y010157D03*
X005968Y010167D03*
X005970Y010169D03*
X005975Y010172D03*
X005978Y010172D03*
X005980Y010174D03*
X005985Y010177D03*
X005995Y010182D03*
X006003Y010187D03*
X006620Y010652D03*
X006633Y010672D03*
X006635Y010674D03*
X006790Y011022D03*
X006803Y011197D03*
X006810Y011197D03*
X005233Y009992D03*
X005228Y009989D03*
X005225Y009989D03*
X005223Y009989D03*
X005220Y009989D03*
X005218Y009989D03*
X005215Y009989D03*
X005213Y009989D03*
X005208Y009989D03*
X005205Y009989D03*
X005200Y009989D03*
X005198Y009989D03*
X005195Y009989D03*
X005178Y009989D03*
X005175Y009989D03*
X005173Y009989D03*
X005170Y009989D03*
X005155Y009987D03*
X005153Y009987D03*
X005143Y009987D03*
X005140Y009987D03*
X005138Y009987D03*
X005135Y009987D03*
X005125Y009987D03*
X005123Y009987D03*
X005120Y009987D03*
X005105Y009987D03*
X005080Y009984D03*
X005078Y009984D03*
X005075Y009984D03*
X005070Y009987D03*
X005068Y009987D03*
X005065Y009987D03*
X005060Y009984D03*
X005058Y009984D03*
X005055Y009984D03*
X005053Y009984D03*
X005050Y009984D03*
X005048Y009984D03*
X005045Y009984D03*
X005043Y009984D03*
X005040Y009984D03*
X005038Y009984D03*
X005035Y009984D03*
X005023Y009984D03*
X005020Y009984D03*
X005018Y009984D03*
X005015Y009984D03*
X005013Y009984D03*
X005010Y009984D03*
X005008Y009984D03*
X004990Y009984D03*
X004988Y009984D03*
X004978Y009984D03*
X004975Y009984D03*
X004973Y009984D03*
X004960Y009989D03*
X004958Y009989D03*
X004955Y009987D03*
X004950Y009987D03*
X004948Y009987D03*
X004945Y009987D03*
X004943Y009987D03*
X004940Y009987D03*
X004938Y009987D03*
X004935Y009987D03*
X004933Y009987D03*
X004928Y009987D03*
X004925Y009987D03*
X004923Y009987D03*
X004920Y009987D03*
X004918Y009987D03*
X004915Y009987D03*
X004913Y009987D03*
X004910Y009987D03*
X004898Y009989D03*
X004895Y009989D03*
X004893Y009989D03*
X004878Y009989D03*
X004870Y009992D03*
X004848Y009989D03*
X004845Y009989D03*
X004843Y009989D03*
X004840Y009989D03*
X004838Y009989D03*
X004813Y009992D03*
X004805Y009994D03*
X004795Y009994D03*
X004783Y009994D03*
X004780Y009994D03*
X004778Y009994D03*
X004765Y009997D03*
X004763Y009997D03*
X004760Y009997D03*
X004758Y009997D03*
X004755Y009997D03*
X004750Y009999D03*
X004748Y009999D03*
X004733Y009999D03*
X004730Y009999D03*
X004728Y009999D03*
X004725Y009999D03*
X004723Y009999D03*
X004680Y010004D03*
X004678Y010004D03*
X004673Y010007D03*
X004670Y010007D03*
X004668Y010007D03*
X004655Y010007D03*
X004653Y010007D03*
X004610Y010014D03*
X004608Y010014D03*
X004605Y010014D03*
X004588Y010017D03*
X004585Y010017D03*
X004570Y010019D03*
X004568Y010019D03*
X004565Y010019D03*
X004563Y010019D03*
X004560Y010019D03*
X004555Y010022D03*
X004553Y010022D03*
X004550Y010022D03*
X004548Y010022D03*
X004545Y010022D03*
X004540Y010024D03*
X004538Y010024D03*
X004523Y010027D03*
X004520Y010027D03*
X004518Y010027D03*
X004505Y010029D03*
X004490Y010032D03*
X004483Y010034D03*
X004470Y010037D03*
X004468Y010037D03*
X004453Y010039D03*
X004430Y010042D03*
X004423Y010044D03*
X004420Y010044D03*
X004418Y010044D03*
X004408Y010047D03*
X004400Y010049D03*
X004398Y010049D03*
X004395Y010049D03*
X004378Y010054D03*
X004303Y010072D03*
X004273Y010079D03*
X004265Y010082D03*
X004183Y010107D03*
X004173Y010109D03*
X004170Y010109D03*
X004168Y010109D03*
X004148Y010117D03*
X004450Y009594D03*
X004525Y008944D03*
X004625Y008149D03*
X004628Y008149D03*
D31*
X004513Y008935D03*
X004540Y009258D03*
X004045Y007313D03*
X006093Y010223D03*
X006108Y010253D03*
X006195Y010310D03*
X006220Y010320D03*
X006268Y010358D03*
X006450Y010498D03*
X006470Y010500D03*
X006538Y010578D03*
X006678Y010695D03*
X006695Y010763D03*
X006798Y010945D03*
X006763Y011070D03*
X006810Y011133D03*
D32*
X006808Y011265D03*
X006720Y010845D03*
X006583Y010618D03*
X006580Y010615D03*
X006570Y010608D03*
X006435Y010473D03*
X006383Y010423D03*
X006380Y010425D03*
X006223Y010315D03*
X006200Y010305D03*
X006188Y010295D03*
X006178Y010290D03*
X006155Y010278D03*
X005220Y011155D03*
X004565Y009525D03*
X004543Y009250D03*
X004515Y008935D03*
X004050Y007340D03*
D33*
X005070Y008760D03*
X006088Y010225D03*
X006098Y010253D03*
X006110Y010260D03*
X006113Y010263D03*
X006125Y010270D03*
X006205Y010288D03*
X006233Y010325D03*
X006448Y010493D03*
X006680Y010720D03*
X006665Y010740D03*
X006725Y010820D03*
X006808Y011100D03*
X005195Y011135D03*
X005185Y011133D03*
X005183Y011130D03*
X005178Y011128D03*
X005175Y011128D03*
D34*
X005473Y010018D03*
X005645Y010058D03*
X005648Y010058D03*
X005953Y010160D03*
X005955Y010163D03*
X005973Y010173D03*
X006023Y010193D03*
X006030Y010198D03*
X006035Y010203D03*
X006805Y011200D03*
X005090Y008403D03*
X004555Y009538D03*
X004993Y009988D03*
X004995Y009990D03*
X004998Y009990D03*
X005000Y009990D03*
X004355Y008380D03*
D35*
X004360Y008385D03*
X004520Y008935D03*
X004445Y009595D03*
X004455Y007420D03*
X006048Y010213D03*
X006078Y010230D03*
X006085Y010228D03*
X006573Y010605D03*
X006588Y010623D03*
X006595Y010633D03*
X006718Y010835D03*
X006805Y011115D03*
D36*
X006803Y011288D03*
X006800Y011290D03*
X006670Y010715D03*
X005988Y010178D03*
X005983Y010175D03*
X005870Y010128D03*
X005868Y010128D03*
X005863Y010125D03*
X005833Y010113D03*
X005830Y010113D03*
X005828Y010113D03*
X005803Y010103D03*
X005798Y010100D03*
X005793Y010098D03*
X005790Y010098D03*
X005783Y010095D03*
X005780Y010095D03*
X005773Y010093D03*
X005715Y010075D03*
X005708Y010073D03*
X005630Y010050D03*
X005368Y010005D03*
X005365Y010005D03*
X005363Y010005D03*
X005355Y010003D03*
X005353Y010003D03*
X005350Y010003D03*
X005345Y010003D03*
X005343Y010003D03*
X005340Y010003D03*
X005338Y010003D03*
X005333Y010000D03*
X005308Y010000D03*
X005305Y010000D03*
X005303Y010000D03*
X005295Y009998D03*
X005293Y009998D03*
X005290Y009998D03*
X005250Y009993D03*
X005248Y009993D03*
X005245Y009993D03*
X005243Y009993D03*
X005240Y009993D03*
X005238Y009993D03*
X005235Y009993D03*
X005210Y009988D03*
X005203Y009990D03*
X005193Y009990D03*
X005168Y009988D03*
X005165Y009988D03*
X005163Y009988D03*
X005160Y009988D03*
X005158Y009988D03*
X005133Y009988D03*
X005118Y009985D03*
X005115Y009988D03*
X005113Y009988D03*
X005110Y009988D03*
X005063Y009985D03*
X005033Y009985D03*
X005030Y009985D03*
X005028Y009985D03*
X005025Y009985D03*
X004985Y009985D03*
X004983Y009985D03*
X004980Y009985D03*
X004953Y009985D03*
X004930Y009985D03*
X004908Y009988D03*
X004905Y009988D03*
X004903Y009988D03*
X004900Y009988D03*
X004875Y009990D03*
X004873Y009990D03*
X004835Y009990D03*
X004803Y009993D03*
X004800Y009993D03*
X004793Y009995D03*
X004790Y009995D03*
X004788Y009995D03*
X004785Y009995D03*
X004775Y009995D03*
X004773Y009995D03*
X004735Y010000D03*
X004720Y010000D03*
X004718Y010000D03*
X004703Y010003D03*
X004700Y010003D03*
X004698Y010003D03*
X004693Y010005D03*
X004690Y010005D03*
X004688Y010005D03*
X004683Y010005D03*
X004665Y010005D03*
X004663Y010005D03*
X004660Y010008D03*
X004658Y010008D03*
X004638Y010010D03*
X004635Y010010D03*
X004628Y010013D03*
X004625Y010013D03*
X004623Y010013D03*
X004620Y010013D03*
X004618Y010013D03*
X004615Y010013D03*
X004613Y010013D03*
X004603Y010015D03*
X004600Y010015D03*
X004598Y010015D03*
X004595Y010015D03*
X004593Y010015D03*
X004590Y010015D03*
X004583Y010018D03*
X004580Y010018D03*
X004578Y010018D03*
X004575Y010018D03*
X004573Y010018D03*
X004558Y010020D03*
X004543Y010023D03*
X004535Y010025D03*
X004533Y010025D03*
X004530Y010025D03*
X004528Y010025D03*
X004525Y010025D03*
X004515Y010028D03*
X004513Y010028D03*
X004510Y010028D03*
X004508Y010028D03*
X004503Y010030D03*
X004500Y010030D03*
X004498Y010030D03*
X004495Y010030D03*
X004493Y010030D03*
X004488Y010033D03*
X004485Y010033D03*
X004480Y010035D03*
X004478Y010035D03*
X004475Y010035D03*
X004473Y010035D03*
X004465Y010038D03*
X004463Y010038D03*
X004460Y010038D03*
X004458Y010038D03*
X004455Y010038D03*
X004450Y010040D03*
X004448Y010040D03*
X004445Y010040D03*
X004440Y010043D03*
X004438Y010043D03*
X004435Y010043D03*
X004433Y010043D03*
X004415Y010045D03*
X004413Y010045D03*
X004410Y010045D03*
X004405Y010048D03*
X004403Y010048D03*
X004393Y010050D03*
X004390Y010050D03*
X004388Y010050D03*
X004383Y010053D03*
X004380Y010053D03*
X004375Y010055D03*
X004373Y010055D03*
X004365Y010058D03*
X004363Y010058D03*
X004360Y010058D03*
X004358Y010058D03*
X004355Y010058D03*
X004353Y010060D03*
X004350Y010060D03*
X004348Y010063D03*
X004345Y010063D03*
X004343Y010063D03*
X004328Y010065D03*
X004325Y010065D03*
X004323Y010065D03*
X004320Y010068D03*
X004318Y010068D03*
X004315Y010070D03*
X004313Y010070D03*
X004310Y010070D03*
X004308Y010070D03*
X004305Y010070D03*
X004300Y010073D03*
X004293Y010075D03*
X004280Y010078D03*
X004278Y010078D03*
X004275Y010078D03*
X004270Y010080D03*
X004268Y010080D03*
X004263Y010083D03*
X004255Y010085D03*
X004253Y010085D03*
X004248Y010088D03*
X004230Y010093D03*
X004228Y010093D03*
X004225Y010093D03*
X004223Y010093D03*
X004213Y010098D03*
X004210Y010098D03*
X004208Y010098D03*
X004203Y010100D03*
X004200Y010103D03*
X004198Y010103D03*
X004195Y010103D03*
X004188Y010105D03*
X004185Y010105D03*
X004180Y010108D03*
X004178Y010108D03*
X004175Y010108D03*
X004165Y010110D03*
X004153Y010115D03*
X004150Y010115D03*
X004145Y010118D03*
X004143Y010118D03*
X004140Y010118D03*
X004135Y010120D03*
X004088Y010138D03*
X004085Y010138D03*
X004083Y010138D03*
X004080Y010140D03*
X004078Y010140D03*
X004555Y009255D03*
X004528Y008945D03*
X004660Y008645D03*
X004463Y007430D03*
X003300Y010685D03*
D37*
X003428Y010529D03*
X003430Y010527D03*
X004715Y008647D03*
X004718Y008647D03*
X004963Y008537D03*
X004965Y008534D03*
X004968Y008532D03*
X004805Y008132D03*
X005073Y009447D03*
X006638Y011457D03*
X006800Y011152D03*
X006768Y010949D03*
D38*
X006798Y011214D03*
X005148Y009619D03*
X004980Y008777D03*
X004533Y009617D03*
D39*
X004148Y007699D03*
X004135Y007644D03*
X004125Y007604D03*
X006795Y011192D03*
D40*
X006793Y011217D03*
D41*
X006793Y010937D03*
X006788Y010917D03*
X006690Y010774D03*
X006683Y010774D03*
X006673Y010707D03*
X006568Y010612D03*
X006478Y010512D03*
X006443Y010489D03*
X006428Y010472D03*
X006408Y010459D03*
X006248Y010337D03*
X006198Y010312D03*
X006185Y010299D03*
X006128Y010272D03*
X006118Y010269D03*
X006075Y010242D03*
X005180Y011129D03*
D42*
X004963Y008779D03*
X006790Y011212D03*
X006755Y011297D03*
D43*
X006790Y010897D03*
X006763Y010844D03*
X006685Y010679D03*
X006543Y010589D03*
X006530Y010572D03*
X006498Y010537D03*
X006293Y010369D03*
X006273Y010364D03*
X006265Y010359D03*
X006250Y010342D03*
X006245Y010342D03*
X006100Y010247D03*
X005158Y011104D03*
X005155Y011102D03*
X004570Y009529D03*
X005095Y008394D03*
D44*
X004310Y008318D03*
X004118Y007575D03*
X006788Y011208D03*
D45*
X006788Y010998D03*
X006600Y010633D03*
X006208Y010300D03*
X004908Y008025D03*
X004615Y008143D03*
X004358Y008383D03*
X004548Y009258D03*
X004448Y009595D03*
X005063Y007240D03*
D46*
X006785Y011163D03*
D47*
X006783Y011190D03*
X004178Y007810D03*
D48*
X004053Y007360D03*
X004623Y008150D03*
X004658Y008645D03*
X004550Y009538D03*
X004648Y010008D03*
X004650Y010008D03*
X004645Y010010D03*
X004643Y010010D03*
X004640Y010010D03*
X004675Y010005D03*
X004738Y009998D03*
X004740Y009998D03*
X004743Y009998D03*
X004745Y009998D03*
X004753Y009998D03*
X004808Y009993D03*
X004810Y009993D03*
X004815Y009993D03*
X004818Y009993D03*
X004820Y009993D03*
X004823Y009993D03*
X004825Y009993D03*
X004828Y009993D03*
X004830Y009993D03*
X004833Y009993D03*
X004850Y009990D03*
X004853Y009990D03*
X004855Y009990D03*
X004858Y009990D03*
X004860Y009990D03*
X004863Y009990D03*
X004865Y009990D03*
X004868Y009990D03*
X004880Y009990D03*
X004883Y009990D03*
X004888Y009988D03*
X004890Y009988D03*
X004963Y009988D03*
X004965Y009988D03*
X004968Y009988D03*
X005003Y009988D03*
X005005Y009985D03*
X005073Y009985D03*
X005083Y009983D03*
X005085Y009983D03*
X005090Y009985D03*
X005095Y009983D03*
X005103Y009985D03*
X005145Y009985D03*
X005148Y009985D03*
X005150Y009985D03*
X005180Y009988D03*
X005183Y009988D03*
X005185Y009988D03*
X005230Y009990D03*
X005258Y009995D03*
X005260Y009995D03*
X005263Y009995D03*
X005265Y009995D03*
X005270Y009995D03*
X005273Y009995D03*
X005283Y009998D03*
X005313Y010000D03*
X005315Y010000D03*
X005318Y010000D03*
X005320Y010000D03*
X005388Y010005D03*
X005398Y010008D03*
X005400Y010008D03*
X005403Y010008D03*
X005405Y010008D03*
X005418Y010013D03*
X005420Y010013D03*
X005423Y010013D03*
X005443Y010013D03*
X005450Y010015D03*
X005453Y010015D03*
X005455Y010015D03*
X005458Y010015D03*
X005460Y010015D03*
X005483Y010020D03*
X005493Y010023D03*
X005495Y010023D03*
X005508Y010025D03*
X005510Y010025D03*
X005515Y010025D03*
X005518Y010025D03*
X005530Y010028D03*
X005533Y010028D03*
X005535Y010028D03*
X005548Y010033D03*
X005550Y010033D03*
X005553Y010033D03*
X005555Y010035D03*
X005558Y010035D03*
X005560Y010035D03*
X005575Y010038D03*
X005578Y010038D03*
X005580Y010038D03*
X005583Y010038D03*
X005585Y010040D03*
X005588Y010040D03*
X005590Y010040D03*
X005598Y010043D03*
X005600Y010043D03*
X005605Y010045D03*
X005608Y010045D03*
X005610Y010045D03*
X005613Y010045D03*
X005618Y010048D03*
X005620Y010048D03*
X005623Y010048D03*
X005635Y010053D03*
X005638Y010053D03*
X005640Y010053D03*
X005653Y010058D03*
X005673Y010063D03*
X005688Y010065D03*
X005730Y010078D03*
X005733Y010078D03*
X005740Y010080D03*
X005745Y010083D03*
X005758Y010085D03*
X005760Y010088D03*
X005763Y010088D03*
X005765Y010090D03*
X005815Y010105D03*
X005818Y010108D03*
X005820Y010110D03*
X005823Y010110D03*
X005840Y010115D03*
X005843Y010118D03*
X005845Y010118D03*
X005848Y010118D03*
X005850Y010118D03*
X005858Y010123D03*
X005883Y010130D03*
X005885Y010133D03*
X005888Y010135D03*
X005890Y010135D03*
X005893Y010135D03*
X005895Y010135D03*
X005913Y010145D03*
X005915Y010145D03*
X005923Y010148D03*
X005925Y010148D03*
X005928Y010150D03*
X005930Y010150D03*
X005933Y010150D03*
X005935Y010153D03*
X005938Y010153D03*
X005940Y010153D03*
X005943Y010155D03*
X005948Y010158D03*
X005950Y010158D03*
X005958Y010160D03*
X005963Y010163D03*
X005990Y010180D03*
X005993Y010183D03*
X006000Y010185D03*
X006018Y010193D03*
X006020Y010193D03*
X006605Y010633D03*
X006608Y010635D03*
X006623Y010658D03*
X006783Y010988D03*
X004428Y010043D03*
X004425Y010043D03*
D49*
X006780Y011200D03*
D50*
X006778Y011202D03*
D51*
X006778Y010984D03*
X006645Y010679D03*
X006643Y010674D03*
X006143Y011552D03*
X006110Y011547D03*
X006108Y011547D03*
X006105Y011547D03*
X006050Y011542D03*
X006015Y011534D03*
X006013Y011534D03*
X006010Y011534D03*
X005938Y011519D03*
X005923Y011514D03*
X005895Y011504D03*
X005893Y011504D03*
X005890Y011504D03*
X005863Y011494D03*
X005855Y011494D03*
X005853Y011494D03*
X005850Y011494D03*
X005848Y011492D03*
X005823Y011484D03*
X005815Y011482D03*
X005813Y011482D03*
X005755Y011457D03*
X005678Y011424D03*
X005675Y011424D03*
X005673Y011422D03*
X005653Y011414D03*
X005633Y011407D03*
X005628Y011404D03*
X005603Y011389D03*
X005600Y011389D03*
X005590Y011382D03*
X005588Y011382D03*
X005553Y011364D03*
X005550Y011362D03*
X005463Y011317D03*
X005460Y011314D03*
X005408Y011279D03*
X005403Y011277D03*
X005395Y011272D03*
X005380Y011262D03*
X005378Y011259D03*
X005373Y011254D03*
X005020Y009787D03*
X005005Y009789D03*
X005003Y009789D03*
X005000Y009789D03*
X004998Y009789D03*
X004995Y009792D03*
X004993Y009792D03*
X004990Y009792D03*
X004988Y009792D03*
X004963Y009794D03*
X004920Y009794D03*
X004918Y009794D03*
X004728Y009764D03*
X004725Y009764D03*
X004678Y009749D03*
X004668Y009744D03*
X004665Y009744D03*
X004663Y009744D03*
X004660Y009744D03*
X004655Y009742D03*
X004653Y009739D03*
X004650Y009739D03*
X004645Y009737D03*
X004538Y009547D03*
X004958Y009217D03*
X004960Y009217D03*
X004965Y009214D03*
X004968Y009214D03*
X004983Y009209D03*
X004993Y009204D03*
X004995Y009204D03*
X004998Y009204D03*
X005010Y009197D03*
X005013Y009197D03*
X005015Y009194D03*
X005023Y009189D03*
X005025Y009187D03*
X004950Y008699D03*
X004948Y008699D03*
X004943Y008697D03*
X004473Y007439D03*
X005053Y007244D03*
X005055Y007244D03*
X003770Y010282D03*
X003765Y010284D03*
X003763Y010287D03*
X003760Y010287D03*
X003758Y010289D03*
X003753Y010292D03*
X003748Y010294D03*
X003745Y010297D03*
X003743Y010297D03*
X003740Y010299D03*
X003738Y010299D03*
X003725Y010309D03*
X003723Y010309D03*
X003710Y010319D03*
X003705Y010322D03*
X003698Y010324D03*
X003695Y010327D03*
X003690Y010329D03*
X003688Y010332D03*
X003683Y010334D03*
X003678Y010337D03*
X003675Y010339D03*
X003668Y010344D03*
X003660Y010347D03*
D52*
X003295Y010679D03*
X004563Y009527D03*
X004650Y008639D03*
X004613Y008139D03*
X005065Y007239D03*
X006043Y010217D03*
X006063Y010224D03*
X006065Y010219D03*
X006120Y010259D03*
X006143Y010267D03*
X006145Y010272D03*
X006170Y010284D03*
X006173Y010284D03*
X006433Y010469D03*
X006575Y010609D03*
X006715Y010834D03*
X006778Y010899D03*
X005225Y011157D03*
X005223Y011157D03*
D53*
X006775Y011120D03*
D54*
X006773Y011190D03*
X004208Y007940D03*
X004203Y007923D03*
D55*
X006770Y011152D03*
D56*
X006768Y011218D03*
X004283Y008248D03*
D57*
X006765Y011133D03*
D58*
X006763Y011253D03*
X004185Y007838D03*
D59*
X004643Y007627D03*
X004820Y007359D03*
X004835Y007344D03*
X004838Y007339D03*
X004840Y007337D03*
X004865Y007304D03*
X004868Y007299D03*
X004875Y007289D03*
X004825Y008104D03*
X005000Y008497D03*
X005038Y008764D03*
X004800Y008642D03*
X004798Y008642D03*
X004795Y008642D03*
X004793Y008642D03*
X004783Y008639D03*
X004780Y008639D03*
X004865Y009267D03*
X003320Y010672D03*
X006695Y011404D03*
X006763Y010947D03*
D60*
X006760Y011269D03*
X005133Y009612D03*
X004168Y007774D03*
X004155Y007724D03*
D61*
X004488Y007454D03*
X004628Y007642D03*
X004623Y007649D03*
X004888Y008037D03*
X004820Y008114D03*
X004818Y008117D03*
X004988Y008514D03*
X005045Y008767D03*
X004743Y008644D03*
X004740Y008644D03*
X004738Y008644D03*
X004835Y009264D03*
X005080Y009457D03*
X005075Y009747D03*
X004913Y007247D03*
X003413Y010549D03*
X003410Y010552D03*
X003395Y010572D03*
X006653Y011447D03*
X006660Y011439D03*
X006665Y011432D03*
X006668Y011432D03*
X006760Y010942D03*
D62*
X006758Y011289D03*
X004313Y008322D03*
D63*
X004563Y008947D03*
X004565Y008947D03*
X004568Y008947D03*
X004570Y008947D03*
X004693Y008649D03*
X004945Y008852D03*
X004948Y008852D03*
X004950Y008849D03*
X004780Y009257D03*
X004778Y009257D03*
X004775Y009257D03*
X004770Y009259D03*
X004768Y009259D03*
X004538Y009679D03*
X005065Y009759D03*
X005048Y009414D03*
X005040Y009407D03*
X005038Y009404D03*
X005028Y009392D03*
X005025Y009389D03*
X005020Y009387D03*
X004793Y008142D03*
X004948Y007224D03*
X005010Y007217D03*
X005015Y007222D03*
X005045Y007244D03*
X003465Y010497D03*
X003460Y010499D03*
X003458Y010502D03*
X003453Y010507D03*
X003450Y010509D03*
X006598Y011482D03*
X006605Y011477D03*
X006608Y011477D03*
X006610Y011474D03*
X006613Y011474D03*
X006758Y010939D03*
X006743Y010879D03*
D64*
X006755Y010932D03*
X006658Y011442D03*
X006650Y011447D03*
X006648Y011449D03*
X006645Y011449D03*
X006643Y011452D03*
X004820Y009262D03*
X004818Y009262D03*
X004815Y009262D03*
X004815Y008122D03*
X004615Y007654D03*
X004613Y007654D03*
X004610Y007654D03*
X004618Y007652D03*
X004620Y007652D03*
X004485Y007452D03*
X004923Y007239D03*
X004925Y007239D03*
X004928Y007239D03*
X005030Y007237D03*
X005035Y007242D03*
X005038Y007242D03*
X003420Y010539D03*
X003418Y010542D03*
D65*
X004523Y009617D03*
X004525Y009617D03*
X004985Y008777D03*
X004915Y008622D03*
X006753Y011302D03*
D66*
X006568Y011495D03*
X006563Y011498D03*
X006558Y011500D03*
X006555Y011500D03*
X006553Y011503D03*
X006543Y011508D03*
X006540Y011508D03*
X006538Y011508D03*
X006515Y011518D03*
X006493Y011525D03*
X006753Y010918D03*
X006653Y010683D03*
X005085Y009140D03*
X005080Y009143D03*
X005078Y009143D03*
X005065Y009153D03*
X004978Y009353D03*
X004995Y009365D03*
X004998Y009368D03*
X005000Y009370D03*
X005003Y009373D03*
X005008Y009375D03*
X005060Y009763D03*
X005058Y009765D03*
X004748Y009258D03*
X004745Y009258D03*
X004743Y009258D03*
X004728Y009258D03*
X004725Y009258D03*
X004723Y009258D03*
X004720Y009258D03*
X004635Y008930D03*
X004633Y008930D03*
X004613Y008935D03*
X004610Y008935D03*
X004608Y008935D03*
X004605Y008935D03*
X004600Y008938D03*
X004598Y008938D03*
X004595Y008940D03*
X004593Y008940D03*
X004590Y008940D03*
X004588Y008940D03*
X004585Y008940D03*
X004583Y008940D03*
X004685Y008648D03*
X004883Y008880D03*
X004905Y008870D03*
X004915Y008868D03*
X004925Y008865D03*
X004940Y008855D03*
X005080Y008413D03*
X004773Y008153D03*
X004770Y008155D03*
X004768Y008155D03*
X004765Y008158D03*
X004763Y008158D03*
X004758Y008160D03*
X005048Y007243D03*
X005005Y007213D03*
X005003Y007213D03*
X004988Y007210D03*
X004985Y007210D03*
X004983Y007210D03*
X004968Y007213D03*
X004965Y007213D03*
X004960Y007218D03*
X004545Y009688D03*
X003515Y010450D03*
X003510Y010455D03*
X003503Y010460D03*
X003500Y010463D03*
X003495Y010465D03*
X003490Y010470D03*
X003475Y010483D03*
D67*
X004520Y009618D03*
X004988Y008775D03*
X004913Y008623D03*
X004910Y008623D03*
X006750Y011313D03*
D68*
X006595Y011483D03*
X006593Y011485D03*
X006590Y011485D03*
X006578Y011490D03*
X006573Y011493D03*
X006750Y010908D03*
X005165Y009618D03*
X005063Y009760D03*
X005035Y009400D03*
X005033Y009400D03*
X005030Y009395D03*
X005023Y009388D03*
X005018Y009385D03*
X005015Y009383D03*
X005075Y009145D03*
X004933Y008860D03*
X004938Y008858D03*
X004943Y008853D03*
X004953Y008848D03*
X005053Y008763D03*
X004690Y008648D03*
X004580Y008943D03*
X004573Y008945D03*
X004560Y008948D03*
X004558Y008948D03*
X004763Y009260D03*
X004765Y009260D03*
X004773Y009258D03*
X004540Y009683D03*
X004778Y008150D03*
X004785Y008148D03*
X004788Y008145D03*
X004790Y008143D03*
X005013Y007220D03*
X004058Y007383D03*
X003485Y010473D03*
X003468Y010493D03*
D69*
X004503Y009610D03*
X004945Y009278D03*
X004948Y009278D03*
X004893Y008625D03*
X004325Y008338D03*
X006748Y011320D03*
X006745Y011325D03*
D70*
X006745Y010904D03*
X006728Y010854D03*
X006618Y010652D03*
X006615Y010647D03*
X006613Y010642D03*
X006598Y010627D03*
X006045Y010204D03*
X006005Y010189D03*
X005998Y010184D03*
X005965Y010167D03*
X005960Y010164D03*
X005905Y010142D03*
X005903Y010139D03*
X005900Y010139D03*
X005898Y010137D03*
X005855Y010122D03*
X005743Y010082D03*
X005738Y010079D03*
X005735Y010079D03*
X005650Y010059D03*
X005643Y010054D03*
X005595Y010042D03*
X005593Y010042D03*
X005528Y010027D03*
X005525Y010027D03*
X005523Y010027D03*
X005520Y010027D03*
X005480Y010019D03*
X005478Y010019D03*
X005475Y010019D03*
X005470Y010017D03*
X005468Y010017D03*
X005465Y010017D03*
X005463Y010017D03*
X005448Y010014D03*
X005445Y010014D03*
X005395Y010007D03*
X005393Y010007D03*
X005390Y010007D03*
X005280Y009997D03*
X005278Y009997D03*
X005275Y009997D03*
X005100Y009984D03*
X005098Y009984D03*
X005093Y009984D03*
X005088Y009984D03*
X004970Y009987D03*
X004885Y009989D03*
X005170Y009619D03*
X004553Y009537D03*
X004523Y008942D03*
X005060Y007247D03*
D71*
X004890Y008627D03*
X004888Y008627D03*
X004885Y008627D03*
X004883Y008627D03*
X005003Y008774D03*
X005153Y009617D03*
X004500Y009609D03*
X004095Y007504D03*
X006743Y011329D03*
D72*
X006740Y011334D03*
X005008Y008772D03*
X005025Y008449D03*
X005030Y008447D03*
X004940Y009277D03*
X004498Y009609D03*
X003368Y010629D03*
D73*
X003535Y010435D03*
X003545Y010428D03*
X003550Y010425D03*
X003585Y010398D03*
X003588Y010395D03*
X004555Y009693D03*
X004563Y009698D03*
X004565Y009698D03*
X004573Y009703D03*
X004595Y009263D03*
X004598Y009263D03*
X004600Y009263D03*
X004603Y009263D03*
X004590Y009260D03*
X004588Y009260D03*
X004585Y009260D03*
X004583Y009260D03*
X004620Y009263D03*
X004638Y009263D03*
X004640Y009260D03*
X004643Y009260D03*
X004645Y009260D03*
X004648Y009260D03*
X004650Y009260D03*
X004653Y009260D03*
X004668Y009260D03*
X004670Y009260D03*
X004673Y009260D03*
X004675Y009260D03*
X004688Y009258D03*
X004690Y009258D03*
X004693Y009258D03*
X004705Y009258D03*
X004708Y009258D03*
X004733Y009258D03*
X004735Y009258D03*
X004665Y008925D03*
X004675Y008923D03*
X004680Y008920D03*
X004683Y008920D03*
X004685Y008920D03*
X004688Y008920D03*
X004690Y008920D03*
X004693Y008920D03*
X004695Y008920D03*
X004700Y008918D03*
X004703Y008918D03*
X004705Y008915D03*
X004708Y008915D03*
X004710Y008915D03*
X004713Y008915D03*
X004725Y008913D03*
X004653Y008928D03*
X004650Y008928D03*
X004623Y008933D03*
X004620Y008933D03*
X004543Y008948D03*
X004680Y008648D03*
X004840Y008890D03*
X004843Y008890D03*
X004845Y008890D03*
X004848Y008890D03*
X004868Y008885D03*
X004875Y008880D03*
X004878Y008880D03*
X004885Y008878D03*
X004888Y008878D03*
X004890Y008878D03*
X004893Y008875D03*
X004895Y008875D03*
X004898Y008875D03*
X004900Y008875D03*
X005055Y008763D03*
X005090Y009138D03*
X005053Y009168D03*
X004745Y008165D03*
X004743Y008165D03*
X004740Y008165D03*
X004728Y008165D03*
X004725Y008165D03*
X004723Y008165D03*
X004720Y008165D03*
X004753Y008163D03*
X004678Y008160D03*
X004675Y008160D03*
X004663Y008155D03*
X004660Y008155D03*
X004658Y008155D03*
X004900Y008028D03*
X004995Y007213D03*
X004978Y007210D03*
X004975Y007210D03*
X004478Y007445D03*
X006365Y011550D03*
X006378Y011550D03*
X006380Y011548D03*
X006383Y011548D03*
X006385Y011545D03*
X006388Y011545D03*
X006423Y011543D03*
X006433Y011540D03*
X006435Y011540D03*
X006438Y011538D03*
X006463Y011533D03*
X006468Y011530D03*
X006470Y011530D03*
X006473Y011530D03*
X006475Y011530D03*
X006478Y011528D03*
X006485Y011525D03*
X006488Y011525D03*
X006495Y011523D03*
X006498Y011523D03*
X006500Y011523D03*
X006503Y011523D03*
X006525Y011513D03*
X006530Y011510D03*
X006740Y010880D03*
X006663Y010700D03*
D74*
X006738Y011340D03*
X005023Y008453D03*
X005028Y008448D03*
X004878Y008628D03*
X004875Y008628D03*
X004873Y008628D03*
X004938Y009278D03*
X004495Y009610D03*
X003373Y010623D03*
X003370Y010628D03*
X003363Y010635D03*
X003360Y010640D03*
D75*
X003540Y010432D03*
X003558Y010419D03*
X003565Y010412D03*
X003573Y010407D03*
X003575Y010404D03*
X003578Y010402D03*
X003580Y010402D03*
X003583Y010399D03*
X003590Y010394D03*
X004455Y009604D03*
X004558Y009694D03*
X004568Y009699D03*
X004570Y009702D03*
X004575Y009704D03*
X004578Y009707D03*
X004580Y009707D03*
X004590Y009714D03*
X004593Y009262D03*
X004605Y009262D03*
X004608Y009262D03*
X004610Y009262D03*
X004613Y009262D03*
X004623Y009262D03*
X004625Y009262D03*
X004628Y009262D03*
X004630Y009262D03*
X004633Y009262D03*
X004635Y009262D03*
X004655Y009262D03*
X004658Y009262D03*
X004660Y009262D03*
X004663Y009262D03*
X004665Y009262D03*
X004678Y009259D03*
X004680Y009259D03*
X004683Y009259D03*
X004685Y009259D03*
X004695Y009259D03*
X004698Y009259D03*
X004700Y009259D03*
X004703Y009259D03*
X004580Y009262D03*
X004578Y009262D03*
X004575Y009262D03*
X004715Y008914D03*
X004718Y008914D03*
X004720Y008914D03*
X004723Y008914D03*
X004728Y008912D03*
X004730Y008912D03*
X004733Y008912D03*
X004735Y008912D03*
X004738Y008912D03*
X004740Y008909D03*
X004743Y008909D03*
X004745Y008909D03*
X004748Y008909D03*
X004750Y008909D03*
X004753Y008909D03*
X004755Y008909D03*
X004758Y008909D03*
X004765Y008907D03*
X004778Y008904D03*
X004780Y008904D03*
X004783Y008904D03*
X004788Y008902D03*
X004790Y008902D03*
X004798Y008899D03*
X004800Y008899D03*
X004818Y008894D03*
X004820Y008894D03*
X004823Y008894D03*
X004825Y008894D03*
X004828Y008894D03*
X004835Y008892D03*
X004838Y008892D03*
X004850Y008889D03*
X004853Y008889D03*
X004863Y008884D03*
X004865Y008884D03*
X004678Y008647D03*
X004708Y008167D03*
X004710Y008167D03*
X004713Y008167D03*
X004715Y008167D03*
X004718Y008167D03*
X004730Y008167D03*
X004733Y008167D03*
X004735Y008167D03*
X004738Y008167D03*
X004748Y008164D03*
X004750Y008164D03*
X004703Y008164D03*
X004700Y008164D03*
X004698Y008164D03*
X004695Y008164D03*
X004693Y008164D03*
X004690Y008164D03*
X004688Y008162D03*
X004685Y008162D03*
X004683Y008162D03*
X004680Y008162D03*
X004673Y008159D03*
X004670Y008159D03*
X004665Y008157D03*
X004655Y008154D03*
X004653Y008154D03*
X004650Y008154D03*
X004648Y008154D03*
X005083Y008409D03*
X005100Y009127D03*
X005098Y009132D03*
X005095Y009134D03*
X005093Y009134D03*
X005043Y009177D03*
X005038Y009179D03*
X004963Y009342D03*
X005993Y011534D03*
X005995Y011534D03*
X005998Y011534D03*
X006000Y011534D03*
X006273Y011557D03*
X006275Y011557D03*
X006278Y011557D03*
X006315Y011554D03*
X006358Y011549D03*
X006360Y011549D03*
X006363Y011549D03*
X006368Y011549D03*
X006370Y011549D03*
X006373Y011549D03*
X006375Y011549D03*
X006390Y011547D03*
X006393Y011547D03*
X006395Y011547D03*
X006398Y011547D03*
X006403Y011544D03*
X006405Y011544D03*
X006408Y011544D03*
X006410Y011544D03*
X006415Y011542D03*
X006418Y011542D03*
X006420Y011542D03*
X006425Y011542D03*
X006428Y011542D03*
X006430Y011542D03*
X006440Y011537D03*
X006443Y011537D03*
X006450Y011534D03*
X006453Y011534D03*
X006455Y011534D03*
X006458Y011534D03*
X006460Y011534D03*
X006465Y011532D03*
X006528Y011512D03*
X006738Y010872D03*
D76*
X006735Y011343D03*
X005043Y008438D03*
X004863Y008630D03*
X004860Y008630D03*
X004840Y008073D03*
X004843Y008070D03*
X004540Y007530D03*
X004535Y007525D03*
X004530Y007515D03*
X004928Y009275D03*
X004490Y009610D03*
X003345Y010655D03*
D77*
X003775Y010279D03*
X003780Y010277D03*
X003788Y010274D03*
X003790Y010272D03*
X003793Y010269D03*
X003795Y010269D03*
X003800Y010267D03*
X003803Y010264D03*
X003808Y010262D03*
X003810Y010262D03*
X003813Y010259D03*
X003818Y010257D03*
X003823Y010254D03*
X003848Y010242D03*
X003850Y010239D03*
X003855Y010237D03*
X003930Y010202D03*
X004543Y009544D03*
X004688Y009754D03*
X004690Y009754D03*
X004698Y009757D03*
X004700Y009757D03*
X004703Y009757D03*
X004710Y009759D03*
X004713Y009759D03*
X004718Y009762D03*
X004720Y009762D03*
X004733Y009767D03*
X004735Y009767D03*
X004738Y009767D03*
X004740Y009767D03*
X004745Y009769D03*
X004748Y009769D03*
X004753Y009772D03*
X004755Y009772D03*
X004778Y009777D03*
X004780Y009777D03*
X004783Y009777D03*
X004785Y009777D03*
X004790Y009779D03*
X004793Y009779D03*
X004795Y009779D03*
X004798Y009779D03*
X004800Y009779D03*
X004808Y009782D03*
X004810Y009782D03*
X004820Y009784D03*
X004845Y009787D03*
X004863Y009787D03*
X004865Y009787D03*
X004868Y009792D03*
X004870Y009792D03*
X004873Y009792D03*
X004875Y009792D03*
X004878Y009792D03*
X004890Y009792D03*
X004893Y009792D03*
X004905Y009794D03*
X004908Y009794D03*
X004925Y009792D03*
X004948Y009792D03*
X004950Y009792D03*
X004953Y009792D03*
X004955Y009792D03*
X004958Y009792D03*
X004960Y009792D03*
X004970Y009792D03*
X004973Y009792D03*
X004975Y009792D03*
X004978Y009792D03*
X004980Y009792D03*
X005110Y009119D03*
X004940Y008694D03*
X004938Y008694D03*
X004928Y008692D03*
X004925Y008692D03*
X004923Y008692D03*
X004920Y008692D03*
X004638Y008152D03*
X005253Y011164D03*
X005273Y011179D03*
X005300Y011199D03*
X005320Y011214D03*
X005325Y011217D03*
X005330Y011222D03*
X005333Y011222D03*
X005348Y011234D03*
X005350Y011237D03*
X005353Y011239D03*
X005360Y011244D03*
X005363Y011247D03*
X005365Y011249D03*
X005370Y011252D03*
X005400Y011274D03*
X005413Y011282D03*
X005415Y011284D03*
X005425Y011289D03*
X005453Y011307D03*
X005468Y011317D03*
X005500Y011334D03*
X005503Y011337D03*
X005505Y011337D03*
X005508Y011339D03*
X005533Y011352D03*
X005538Y011354D03*
X005540Y011354D03*
X005545Y011359D03*
X005558Y011364D03*
X005578Y011377D03*
X005583Y011379D03*
X005595Y011384D03*
X005608Y011392D03*
X005610Y011392D03*
X005613Y011394D03*
X005615Y011394D03*
X005618Y011397D03*
X005623Y011399D03*
X005625Y011399D03*
X005658Y011417D03*
X005660Y011417D03*
X005665Y011419D03*
X005668Y011419D03*
X005710Y011437D03*
X005763Y011459D03*
X005830Y011484D03*
X005868Y011497D03*
X005870Y011497D03*
X005873Y011497D03*
X005955Y011519D03*
X005958Y011522D03*
X006655Y010689D03*
X006640Y010674D03*
X006735Y010869D03*
D78*
X006733Y011348D03*
X005035Y008443D03*
X004870Y008628D03*
X004868Y008628D03*
X004930Y009275D03*
X004933Y009275D03*
X004493Y009610D03*
X004328Y008345D03*
X004533Y007518D03*
X004523Y007500D03*
X004520Y007498D03*
X004088Y007473D03*
X003375Y010618D03*
X003353Y010645D03*
X003350Y010650D03*
D79*
X003828Y010252D03*
X003833Y010249D03*
X003838Y010247D03*
X003870Y010232D03*
X003873Y010229D03*
X003888Y010222D03*
X003893Y010219D03*
X003895Y010217D03*
X003898Y010217D03*
X003903Y010214D03*
X003905Y010214D03*
X003908Y010212D03*
X003913Y010209D03*
X003915Y010209D03*
X003918Y010209D03*
X003920Y010207D03*
X003925Y010204D03*
X003928Y010204D03*
X003940Y010199D03*
X003948Y010194D03*
X003950Y010194D03*
X003955Y010192D03*
X003968Y010187D03*
X003973Y010184D03*
X003985Y010179D03*
X003990Y010177D03*
X003993Y010174D03*
X003995Y010174D03*
X004000Y010172D03*
X004013Y010164D03*
X004015Y010164D03*
X004028Y010159D03*
X004030Y010159D03*
X004033Y010159D03*
X004558Y009257D03*
X004830Y009784D03*
X004833Y009784D03*
X004835Y009784D03*
X004850Y009787D03*
X004853Y009787D03*
X004930Y009792D03*
X004933Y009792D03*
X005113Y009114D03*
X005088Y008407D03*
X004903Y008024D03*
X004633Y008152D03*
X005243Y011154D03*
X005245Y011154D03*
X005265Y011174D03*
X005268Y011177D03*
X005290Y011192D03*
X005298Y011197D03*
X005308Y011204D03*
X005313Y011209D03*
X005315Y011209D03*
X005443Y011299D03*
X005445Y011299D03*
X005473Y011317D03*
X005485Y011324D03*
X005498Y011332D03*
X005563Y011367D03*
X006625Y010654D03*
X006733Y010864D03*
D80*
X006730Y011352D03*
X004920Y009274D03*
X004918Y009274D03*
X004915Y009274D03*
X004850Y008634D03*
X004848Y008634D03*
X004845Y008634D03*
X004545Y007544D03*
D81*
X004635Y008153D03*
X004668Y008640D03*
X005058Y008768D03*
X004563Y009258D03*
X004560Y009258D03*
X004715Y009760D03*
X004758Y009770D03*
X004760Y009770D03*
X004763Y009770D03*
X004765Y009770D03*
X004768Y009773D03*
X004770Y009773D03*
X004773Y009775D03*
X004775Y009775D03*
X004803Y009780D03*
X004805Y009780D03*
X004823Y009783D03*
X004825Y009783D03*
X004828Y009783D03*
X004838Y009785D03*
X004840Y009785D03*
X004843Y009785D03*
X004848Y009785D03*
X004855Y009788D03*
X004858Y009788D03*
X004860Y009788D03*
X004928Y009790D03*
X004935Y009793D03*
X004938Y009793D03*
X004940Y009793D03*
X004943Y009793D03*
X004945Y009793D03*
X005230Y011145D03*
X005233Y011148D03*
X005235Y011148D03*
X005238Y011150D03*
X005240Y011153D03*
X005255Y011165D03*
X005258Y011168D03*
X005260Y011168D03*
X005263Y011170D03*
X005270Y011178D03*
X005283Y011185D03*
X005285Y011188D03*
X005288Y011190D03*
X005293Y011193D03*
X005295Y011195D03*
X005303Y011203D03*
X005305Y011203D03*
X005310Y011208D03*
X005318Y011210D03*
X005323Y011215D03*
X005355Y011240D03*
X005428Y011290D03*
X005458Y011310D03*
X005470Y011315D03*
X005543Y011355D03*
X005560Y011365D03*
X005565Y011368D03*
X005568Y011370D03*
X005570Y011370D03*
X005573Y011370D03*
X005575Y011373D03*
X005580Y011378D03*
X005713Y011438D03*
X006730Y010850D03*
X006638Y010673D03*
X003945Y010195D03*
X003943Y010198D03*
X003938Y010200D03*
X003935Y010200D03*
X003933Y010200D03*
X003923Y010205D03*
X003910Y010210D03*
X003900Y010215D03*
X003890Y010220D03*
X003885Y010223D03*
X003883Y010225D03*
X003880Y010225D03*
X003878Y010225D03*
X003875Y010228D03*
X003868Y010233D03*
X003865Y010233D03*
X003863Y010235D03*
X003860Y010235D03*
X003858Y010235D03*
X003853Y010238D03*
X003845Y010243D03*
X003843Y010243D03*
X003840Y010245D03*
X003835Y010248D03*
X003830Y010250D03*
X003825Y010253D03*
X003820Y010255D03*
X003815Y010258D03*
X003805Y010263D03*
X003798Y010268D03*
D82*
X004483Y009610D03*
X004908Y009273D03*
X005158Y009615D03*
X004830Y008635D03*
X005058Y008425D03*
X004855Y008065D03*
X004860Y008060D03*
X004565Y007593D03*
X004563Y007588D03*
X004560Y007583D03*
X004335Y008350D03*
X006728Y011358D03*
D83*
X006725Y011359D03*
X005090Y009489D03*
X004905Y009272D03*
X004903Y009272D03*
X004900Y009272D03*
X005028Y008767D03*
X004828Y008637D03*
X004833Y008087D03*
X004865Y008054D03*
X004690Y007562D03*
X004693Y007559D03*
X004695Y007554D03*
X004555Y007572D03*
X004550Y007559D03*
X004505Y007474D03*
X004480Y009609D03*
X003333Y010664D03*
D84*
X003335Y010659D03*
X004485Y009612D03*
X004910Y009274D03*
X005090Y009714D03*
X005025Y008767D03*
X005015Y008474D03*
X005018Y008472D03*
X004835Y008634D03*
X004833Y008634D03*
X004835Y008084D03*
X004863Y008059D03*
X004558Y007577D03*
X004548Y007552D03*
X006723Y011364D03*
D85*
X006720Y011363D03*
X006698Y011400D03*
X006693Y011405D03*
X005085Y009470D03*
X004870Y009268D03*
X004868Y009268D03*
X004473Y009610D03*
X004785Y008640D03*
X004788Y008640D03*
X004790Y008640D03*
X004998Y008500D03*
X005003Y008495D03*
X004828Y008100D03*
X004880Y008043D03*
X004645Y007623D03*
X004650Y007618D03*
X004595Y007640D03*
X004593Y007638D03*
X004588Y007628D03*
X004495Y007465D03*
X004813Y007373D03*
X004815Y007368D03*
X004818Y007365D03*
X004828Y007353D03*
X004830Y007350D03*
X004845Y007328D03*
X004848Y007325D03*
X004850Y007320D03*
X004853Y007320D03*
X004855Y007315D03*
X003385Y010588D03*
D86*
X003383Y010592D03*
X003323Y010669D03*
X004873Y009269D03*
X004875Y009269D03*
X005005Y008492D03*
X005068Y008419D03*
X004648Y007619D03*
X004653Y007614D03*
X004590Y007632D03*
X004825Y007354D03*
X004843Y007332D03*
X004075Y007434D03*
X006718Y011367D03*
X006703Y011397D03*
X006700Y011397D03*
D87*
X006708Y011384D03*
X006715Y011377D03*
X005060Y008424D03*
X004820Y008637D03*
X004870Y008052D03*
X004873Y008052D03*
X004665Y007597D03*
X004675Y007587D03*
X004680Y007579D03*
X004683Y007574D03*
X004685Y007572D03*
X004698Y007549D03*
X004708Y007534D03*
X004713Y007524D03*
X004715Y007519D03*
X004730Y007497D03*
X004740Y007482D03*
X004750Y007464D03*
X004753Y007462D03*
X004755Y007459D03*
X004758Y007457D03*
X004770Y007437D03*
X004780Y007419D03*
X004500Y007469D03*
X004895Y009272D03*
X004478Y009609D03*
D88*
X004890Y009270D03*
X004893Y009270D03*
X005033Y008768D03*
X005013Y008483D03*
X004818Y008638D03*
X004815Y008638D03*
X004813Y008638D03*
X004810Y008638D03*
X004808Y008638D03*
X004875Y008050D03*
X004658Y007608D03*
X004660Y007605D03*
X004668Y007595D03*
X004670Y007590D03*
X004673Y007588D03*
X004705Y007538D03*
X004720Y007513D03*
X004723Y007508D03*
X004725Y007503D03*
X004728Y007500D03*
X004760Y007453D03*
X004765Y007443D03*
X004768Y007440D03*
X004775Y007428D03*
X004778Y007425D03*
X004783Y007415D03*
X004785Y007413D03*
X004573Y007605D03*
X004575Y007610D03*
X003378Y010600D03*
X003328Y010668D03*
X006705Y011390D03*
X006710Y011383D03*
X006713Y011380D03*
D89*
X006713Y010832D03*
X006708Y010819D03*
X006688Y010777D03*
X006680Y010767D03*
X006675Y010727D03*
X006578Y010617D03*
X006590Y010607D03*
X006483Y010517D03*
X006418Y010462D03*
X006415Y010459D03*
X006398Y010442D03*
X006378Y010429D03*
X006218Y010317D03*
X006080Y010242D03*
X006070Y010234D03*
X005213Y011149D03*
X005210Y011149D03*
X005203Y011144D03*
X005200Y011144D03*
X005198Y011142D03*
X004568Y009527D03*
X004363Y008379D03*
X004910Y008017D03*
D90*
X004883Y008040D03*
X005070Y008415D03*
X004778Y008640D03*
X004775Y008640D03*
X005083Y009463D03*
X005085Y009730D03*
X004470Y009610D03*
X004598Y007643D03*
X004493Y007463D03*
X004823Y007358D03*
X004833Y007345D03*
X004858Y007313D03*
X004860Y007308D03*
X004863Y007305D03*
X004880Y007283D03*
X004883Y007280D03*
X004898Y007263D03*
X004900Y007260D03*
X004073Y007428D03*
X004070Y007425D03*
X004065Y007405D03*
X006690Y011408D03*
X006688Y011410D03*
X006683Y011418D03*
D91*
X006685Y011414D03*
X005083Y009734D03*
X004863Y009267D03*
X004860Y009267D03*
X004858Y009267D03*
X004855Y009267D03*
X004853Y009267D03*
X004850Y009267D03*
X005040Y008764D03*
X004773Y008642D03*
X004770Y008642D03*
X004768Y008642D03*
X004823Y008109D03*
X004640Y007629D03*
X004600Y007644D03*
X004870Y007294D03*
X004873Y007292D03*
X004878Y007284D03*
X004885Y007279D03*
X004468Y009612D03*
X003390Y010582D03*
X003388Y010584D03*
D92*
X004765Y008643D03*
X004995Y008505D03*
X005073Y008413D03*
X005043Y008765D03*
X004885Y008038D03*
X004638Y007633D03*
X004603Y007648D03*
X004888Y007275D03*
X004890Y007273D03*
X004893Y007270D03*
X004895Y007268D03*
X005163Y009618D03*
X006680Y011420D03*
D93*
X006678Y011422D03*
X006675Y011424D03*
X006673Y011427D03*
X005080Y009739D03*
X004763Y008644D03*
X004990Y008512D03*
X004993Y008509D03*
X004605Y007649D03*
X004633Y007637D03*
X004903Y007257D03*
X004908Y007252D03*
X004340Y008357D03*
X004068Y007409D03*
X004465Y009612D03*
X003400Y010564D03*
X003398Y010567D03*
X003393Y010577D03*
X003318Y010674D03*
D94*
X003403Y010560D03*
X003405Y010558D03*
X003408Y010555D03*
X004745Y008645D03*
X004748Y008645D03*
X004750Y008643D03*
X004753Y008643D03*
X004755Y008643D03*
X004758Y008643D03*
X004760Y008643D03*
X004838Y009263D03*
X004840Y009265D03*
X004843Y009265D03*
X004845Y009265D03*
X004848Y009265D03*
X005078Y009743D03*
X004608Y007650D03*
X004630Y007638D03*
X004635Y007635D03*
X004490Y007458D03*
X004905Y007255D03*
X004910Y007250D03*
X006670Y011428D03*
D95*
X006668Y010692D03*
X006628Y010659D03*
X005778Y010094D03*
X005775Y010094D03*
X005705Y010072D03*
X005360Y010004D03*
X005358Y010004D03*
X005348Y010004D03*
X005335Y010002D03*
X005310Y009999D03*
X005300Y009999D03*
X005298Y009999D03*
X005190Y009989D03*
X005188Y009989D03*
X005130Y009987D03*
X005128Y009987D03*
X005108Y009987D03*
X004770Y009997D03*
X004768Y009997D03*
X004715Y010002D03*
X004713Y010002D03*
X004710Y010002D03*
X004708Y010002D03*
X004705Y010002D03*
X004695Y010004D03*
X004685Y010004D03*
X004633Y010012D03*
X004630Y010012D03*
X004443Y010042D03*
X004385Y010052D03*
X004370Y010057D03*
X004368Y010057D03*
X004340Y010064D03*
X004338Y010064D03*
X004335Y010064D03*
X004333Y010064D03*
X004330Y010064D03*
X004298Y010074D03*
X004295Y010074D03*
X004290Y010077D03*
X004288Y010077D03*
X004285Y010077D03*
X004283Y010077D03*
X004260Y010084D03*
X004258Y010084D03*
X004250Y010087D03*
X004245Y010089D03*
X004243Y010089D03*
X004240Y010089D03*
X004238Y010089D03*
X004235Y010092D03*
X004233Y010092D03*
X004220Y010094D03*
X004218Y010097D03*
X004215Y010097D03*
X004205Y010099D03*
X004193Y010104D03*
X004190Y010104D03*
X004163Y010112D03*
X004158Y010114D03*
X004155Y010114D03*
X004138Y010119D03*
X004133Y010122D03*
X004123Y010127D03*
X004120Y010127D03*
X004118Y010129D03*
X004115Y010129D03*
X004113Y010129D03*
X004110Y010132D03*
X004108Y010132D03*
X004105Y010132D03*
X004103Y010132D03*
X004100Y010132D03*
X004098Y010134D03*
X004095Y010134D03*
X004093Y010137D03*
X004090Y010137D03*
X004075Y010142D03*
X004070Y010144D03*
X004065Y010147D03*
X004058Y010149D03*
X004043Y010154D03*
X004040Y010154D03*
X004038Y010157D03*
X004035Y010157D03*
X004025Y010162D03*
X004548Y009539D03*
X004530Y008944D03*
X004663Y008644D03*
X004465Y007432D03*
X005058Y007244D03*
X005228Y011142D03*
X005250Y011157D03*
X005435Y011292D03*
X005478Y011319D03*
X005490Y011327D03*
X005493Y011327D03*
X005495Y011327D03*
D96*
X004833Y009263D03*
X004830Y009263D03*
X004828Y009263D03*
X004825Y009263D03*
X004823Y009263D03*
X004735Y008645D03*
X004733Y008645D03*
X004730Y008645D03*
X004985Y008515D03*
X005075Y008413D03*
X004625Y007645D03*
X004915Y007245D03*
X004918Y007245D03*
X004920Y007243D03*
X005028Y007235D03*
X005033Y007240D03*
X003415Y010545D03*
X003315Y010675D03*
X006655Y011443D03*
X006663Y011435D03*
D97*
X006658Y010698D03*
X006660Y010685D03*
X006648Y010685D03*
X006630Y010655D03*
X005953Y011518D03*
X005950Y011518D03*
X005945Y011518D03*
X005943Y011518D03*
X005940Y011518D03*
X005865Y011495D03*
X005828Y011483D03*
X005825Y011483D03*
X005765Y011460D03*
X005760Y011458D03*
X005758Y011458D03*
X005708Y011435D03*
X005705Y011435D03*
X005703Y011435D03*
X005700Y011435D03*
X005698Y011435D03*
X005695Y011433D03*
X005693Y011433D03*
X005690Y011430D03*
X005688Y011428D03*
X005685Y011428D03*
X005683Y011428D03*
X005680Y011425D03*
X005670Y011420D03*
X005663Y011418D03*
X005655Y011415D03*
X005638Y011408D03*
X005635Y011408D03*
X005620Y011398D03*
X005605Y011390D03*
X005598Y011385D03*
X005593Y011383D03*
X005585Y011380D03*
X005555Y011365D03*
X005548Y011360D03*
X005535Y011353D03*
X005530Y011348D03*
X005528Y011348D03*
X005525Y011348D03*
X005510Y011340D03*
X005465Y011318D03*
X005455Y011308D03*
X005450Y011305D03*
X005423Y011288D03*
X005420Y011288D03*
X005418Y011288D03*
X005410Y011280D03*
X005398Y011273D03*
X005368Y011250D03*
X005358Y011243D03*
X005345Y011233D03*
X005343Y011233D03*
X005328Y011218D03*
X005280Y011183D03*
X005278Y011183D03*
X005275Y011183D03*
X004968Y009793D03*
X004965Y009793D03*
X004923Y009793D03*
X004915Y009795D03*
X004913Y009795D03*
X004910Y009795D03*
X004903Y009793D03*
X004900Y009793D03*
X004898Y009793D03*
X004895Y009793D03*
X004888Y009790D03*
X004885Y009790D03*
X004883Y009790D03*
X004880Y009790D03*
X004818Y009783D03*
X004815Y009783D03*
X004813Y009783D03*
X004788Y009778D03*
X004750Y009770D03*
X004743Y009768D03*
X004730Y009765D03*
X004723Y009763D03*
X004708Y009760D03*
X004705Y009758D03*
X004695Y009755D03*
X004693Y009755D03*
X004685Y009753D03*
X004683Y009750D03*
X004680Y009750D03*
X004675Y009748D03*
X004673Y009748D03*
X004670Y009748D03*
X004658Y009743D03*
X004540Y009545D03*
X004565Y009260D03*
X004533Y008948D03*
X004670Y008640D03*
X004930Y008693D03*
X004933Y008693D03*
X004935Y008693D03*
X004945Y008698D03*
X005108Y009120D03*
X005008Y009198D03*
X005005Y009200D03*
X005003Y009200D03*
X005000Y009203D03*
X004985Y009208D03*
X004470Y007438D03*
X004055Y007370D03*
X003785Y010275D03*
X003783Y010275D03*
X003778Y010278D03*
X003773Y010280D03*
X003768Y010283D03*
X003750Y010293D03*
X003735Y010300D03*
X003733Y010303D03*
X003730Y010303D03*
X003728Y010308D03*
X003708Y010320D03*
X003703Y010323D03*
X003700Y010323D03*
X003693Y010328D03*
X003685Y010333D03*
X003680Y010335D03*
X003673Y010340D03*
X003670Y010343D03*
X003303Y010683D03*
D98*
X003555Y010420D03*
X003560Y010418D03*
X003563Y010418D03*
X003568Y010410D03*
X003570Y010410D03*
X003593Y010393D03*
X003595Y010390D03*
X003598Y010390D03*
X003600Y010388D03*
X003603Y010385D03*
X003605Y010385D03*
X003608Y010383D03*
X003610Y010380D03*
X003615Y010378D03*
X003618Y010375D03*
X003623Y010373D03*
X003625Y010370D03*
X003633Y010365D03*
X004560Y009695D03*
X004583Y009710D03*
X004585Y009713D03*
X004588Y009713D03*
X004593Y009715D03*
X004595Y009718D03*
X004598Y009718D03*
X004610Y009723D03*
X004573Y009263D03*
X004570Y009263D03*
X004540Y008948D03*
X004760Y008908D03*
X004763Y008908D03*
X004768Y008905D03*
X004770Y008905D03*
X004773Y008905D03*
X004775Y008905D03*
X004785Y008903D03*
X004793Y008900D03*
X004795Y008900D03*
X004803Y008898D03*
X004813Y008895D03*
X004815Y008895D03*
X004830Y008893D03*
X004833Y008893D03*
X004855Y008888D03*
X004858Y008885D03*
X004860Y008885D03*
X005045Y009173D03*
X005050Y009170D03*
X005040Y009178D03*
X005035Y009180D03*
X005033Y009183D03*
X004955Y009338D03*
X004958Y009340D03*
X004960Y009340D03*
X004965Y009343D03*
X004968Y009345D03*
X005043Y009778D03*
X005038Y009780D03*
X005035Y009780D03*
X005385Y011268D03*
X005718Y011448D03*
X005720Y011448D03*
X005728Y011450D03*
X005730Y011450D03*
X005768Y011465D03*
X005805Y011478D03*
X005980Y011530D03*
X005988Y011533D03*
X005990Y011533D03*
X006003Y011535D03*
X006058Y011543D03*
X006060Y011543D03*
X006063Y011543D03*
X006073Y011545D03*
X006093Y011548D03*
X006130Y011553D03*
X006133Y011553D03*
X006158Y011555D03*
X006178Y011555D03*
X006180Y011555D03*
X006183Y011555D03*
X006205Y011558D03*
X006215Y011558D03*
X006228Y011558D03*
X006230Y011558D03*
X006233Y011558D03*
X006235Y011558D03*
X006238Y011558D03*
X006240Y011558D03*
X006243Y011558D03*
X006245Y011558D03*
X006248Y011558D03*
X006250Y011558D03*
X006265Y011555D03*
X006268Y011555D03*
X006270Y011555D03*
X006280Y011555D03*
X006283Y011555D03*
X006308Y011555D03*
X006310Y011555D03*
X006313Y011555D03*
X006318Y011553D03*
X006320Y011553D03*
X006323Y011553D03*
X006325Y011553D03*
X006335Y011553D03*
X006338Y011553D03*
X006340Y011553D03*
X006343Y011553D03*
X006400Y011545D03*
X006413Y011543D03*
X006445Y011535D03*
X006448Y011535D03*
X006650Y010683D03*
X005050Y007245D03*
X004705Y008165D03*
X004668Y008158D03*
D99*
X004810Y008125D03*
X004813Y008123D03*
X004890Y008035D03*
X004980Y008520D03*
X004983Y008520D03*
X004978Y008523D03*
X004975Y008528D03*
X004973Y008528D03*
X004970Y008528D03*
X004728Y008645D03*
X004725Y008645D03*
X004723Y008645D03*
X004720Y008645D03*
X004808Y009260D03*
X004810Y009260D03*
X004813Y009260D03*
X005068Y009440D03*
X005070Y009443D03*
X005075Y009448D03*
X005078Y009453D03*
X005073Y009750D03*
X004463Y009608D03*
X003425Y010533D03*
X003423Y010535D03*
X004483Y007450D03*
X005025Y007233D03*
X005040Y007240D03*
X006640Y011453D03*
D100*
X006633Y011462D03*
X006625Y011464D03*
X006623Y011469D03*
X006620Y011469D03*
X006618Y011469D03*
X005060Y009429D03*
X005055Y009424D03*
X005053Y009422D03*
X004788Y009259D03*
X004785Y009259D03*
X004783Y009259D03*
X004955Y008844D03*
X004958Y008844D03*
X005048Y008764D03*
X004938Y008554D03*
X004945Y008549D03*
X004953Y008544D03*
X005078Y008412D03*
X004895Y008034D03*
X004803Y008134D03*
X004795Y008139D03*
X004710Y008647D03*
X004708Y008647D03*
X004345Y008367D03*
X004063Y007389D03*
X004060Y007387D03*
X004933Y007232D03*
X004935Y007229D03*
X004938Y007227D03*
X004940Y007227D03*
X005018Y007224D03*
X005020Y007224D03*
X003440Y010519D03*
X003438Y010522D03*
D101*
X003443Y010515D03*
X003445Y010515D03*
X003448Y010513D03*
X003455Y010503D03*
X003463Y010498D03*
X003310Y010678D03*
X004460Y009605D03*
X004695Y008648D03*
X004698Y008648D03*
X004700Y008648D03*
X004703Y008648D03*
X004705Y008648D03*
X004920Y008565D03*
X004923Y008563D03*
X004925Y008563D03*
X004928Y008563D03*
X004930Y008560D03*
X004933Y008558D03*
X004943Y008550D03*
X004948Y008548D03*
X004950Y008545D03*
X005050Y008765D03*
X004798Y008138D03*
X004800Y008135D03*
X004943Y007225D03*
X004945Y007225D03*
X005043Y009410D03*
X005045Y009413D03*
X005058Y009428D03*
X005068Y009755D03*
X006600Y011480D03*
X006603Y011480D03*
X006615Y011470D03*
D102*
X006610Y010645D03*
X006603Y010633D03*
X006058Y010215D03*
X006055Y010213D03*
X006038Y010205D03*
X006033Y010200D03*
X006028Y010195D03*
X006025Y010195D03*
X006015Y010190D03*
X005118Y009113D03*
X004618Y008145D03*
X004458Y007425D03*
X004550Y009258D03*
D103*
X005093Y008397D03*
X006040Y010212D03*
X006215Y010307D03*
X006225Y010312D03*
X006593Y010632D03*
X004048Y007332D03*
D104*
X004653Y008638D03*
X004518Y008935D03*
X004560Y009528D03*
X005065Y008760D03*
X006153Y010273D03*
X006163Y010280D03*
X006190Y010293D03*
X006213Y010305D03*
X006585Y010620D03*
D105*
X006565Y010600D03*
X006425Y010468D03*
X006420Y010460D03*
X006180Y010293D03*
X006175Y010290D03*
X006165Y010285D03*
X006160Y010283D03*
X006148Y010275D03*
X006140Y010265D03*
X006133Y010268D03*
X006068Y010230D03*
X006050Y010223D03*
X005215Y011150D03*
X005218Y011153D03*
X005170Y011120D03*
X005123Y009103D03*
D106*
X005088Y009139D03*
X005063Y009157D03*
X005060Y009162D03*
X005058Y009162D03*
X005055Y009164D03*
X004970Y009349D03*
X004973Y009352D03*
X004975Y009352D03*
X004980Y009354D03*
X004983Y009357D03*
X004985Y009359D03*
X004988Y009359D03*
X004990Y009362D03*
X004993Y009364D03*
X005055Y009767D03*
X005053Y009769D03*
X005050Y009772D03*
X005048Y009774D03*
X005045Y009774D03*
X004740Y009259D03*
X004738Y009259D03*
X004730Y009257D03*
X004718Y009259D03*
X004715Y009259D03*
X004713Y009259D03*
X004710Y009259D03*
X004618Y009262D03*
X004615Y009262D03*
X004603Y008937D03*
X004615Y008934D03*
X004618Y008934D03*
X004625Y008932D03*
X004628Y008932D03*
X004630Y008932D03*
X004638Y008929D03*
X004640Y008929D03*
X004643Y008929D03*
X004645Y008929D03*
X004648Y008929D03*
X004655Y008927D03*
X004658Y008927D03*
X004660Y008927D03*
X004663Y008927D03*
X004668Y008924D03*
X004670Y008924D03*
X004673Y008924D03*
X004678Y008922D03*
X004698Y008919D03*
X004870Y008882D03*
X004873Y008882D03*
X004880Y008879D03*
X004903Y008872D03*
X004918Y008867D03*
X004920Y008867D03*
X004923Y008867D03*
X004683Y008647D03*
X004755Y008162D03*
X004348Y008372D03*
X004963Y007217D03*
X004970Y007212D03*
X004973Y007212D03*
X004980Y007209D03*
X004990Y007212D03*
X004993Y007212D03*
X004998Y007214D03*
X005000Y007214D03*
X004458Y009604D03*
X004548Y009689D03*
X004550Y009692D03*
X004553Y009692D03*
X003553Y010424D03*
X003548Y010427D03*
X003543Y010429D03*
X003538Y010434D03*
X003533Y010437D03*
X003530Y010439D03*
X003528Y010439D03*
X003525Y010442D03*
X003523Y010444D03*
X003520Y010447D03*
X003518Y010449D03*
X003513Y010452D03*
X003508Y010457D03*
X003505Y010459D03*
X006480Y011527D03*
X006483Y011527D03*
X006490Y011527D03*
X006505Y011522D03*
X006508Y011522D03*
X006510Y011522D03*
X006513Y011519D03*
X006518Y011517D03*
X006520Y011517D03*
X006523Y011517D03*
X006533Y011509D03*
X006535Y011509D03*
X006545Y011507D03*
X006560Y011499D03*
D107*
X006355Y011549D03*
X006353Y011549D03*
X006345Y011552D03*
X006333Y011552D03*
X006330Y011552D03*
X006328Y011552D03*
X006305Y011554D03*
X006285Y011554D03*
X006263Y011554D03*
X006255Y011557D03*
X006253Y011557D03*
X006225Y011557D03*
X006223Y011557D03*
X006220Y011557D03*
X006218Y011557D03*
X006213Y011557D03*
X006210Y011557D03*
X006208Y011557D03*
X006190Y011554D03*
X006188Y011554D03*
X006185Y011554D03*
X006175Y011557D03*
X006173Y011557D03*
X006170Y011557D03*
X006168Y011557D03*
X006165Y011554D03*
X006163Y011554D03*
X006160Y011554D03*
X006155Y011554D03*
X006153Y011554D03*
X006150Y011554D03*
X006148Y011554D03*
X006128Y011552D03*
X006125Y011552D03*
X006123Y011552D03*
X006120Y011552D03*
X006090Y011547D03*
X006088Y011547D03*
X006085Y011547D03*
X006075Y011544D03*
X006070Y011544D03*
X006068Y011544D03*
X006065Y011544D03*
X006055Y011544D03*
X006048Y011542D03*
X006045Y011542D03*
X006043Y011542D03*
X006040Y011542D03*
X006038Y011542D03*
X006033Y011539D03*
X006030Y011537D03*
X006028Y011537D03*
X006025Y011537D03*
X006023Y011537D03*
X006020Y011537D03*
X006008Y011534D03*
X006005Y011534D03*
X005985Y011532D03*
X005983Y011532D03*
X005978Y011529D03*
X005975Y011529D03*
X005965Y011527D03*
X005913Y011512D03*
X005898Y011507D03*
X005883Y011504D03*
X005880Y011504D03*
X005878Y011504D03*
X005875Y011504D03*
X005858Y011497D03*
X005833Y011489D03*
X005808Y011479D03*
X005803Y011477D03*
X005800Y011477D03*
X005798Y011477D03*
X005795Y011477D03*
X005793Y011477D03*
X005788Y011472D03*
X005785Y011472D03*
X005783Y011469D03*
X005770Y011467D03*
X005750Y011457D03*
X005748Y011457D03*
X005743Y011454D03*
X005740Y011454D03*
X005738Y011454D03*
X005735Y011454D03*
X005733Y011454D03*
X005725Y011449D03*
X005723Y011449D03*
X005715Y011444D03*
X005648Y011414D03*
X005645Y011414D03*
X005643Y011412D03*
X005518Y011347D03*
X005515Y011347D03*
X005393Y011272D03*
X005388Y011269D03*
X005338Y011229D03*
X005025Y009784D03*
X005030Y009782D03*
X005033Y009782D03*
X005040Y009779D03*
X005168Y009614D03*
X004978Y009212D03*
X004975Y009212D03*
X004973Y009212D03*
X004990Y009204D03*
X005028Y009184D03*
X005030Y009184D03*
X005048Y009172D03*
X005103Y009124D03*
X004953Y008702D03*
X004810Y008897D03*
X004808Y008897D03*
X004805Y008897D03*
X004675Y008644D03*
X004645Y008154D03*
X004643Y008154D03*
X004568Y009262D03*
X004600Y009719D03*
X004603Y009719D03*
X004605Y009719D03*
X004608Y009722D03*
X004613Y009724D03*
X004615Y009724D03*
X004618Y009727D03*
X004640Y009734D03*
X003645Y010357D03*
X003643Y010359D03*
X003640Y010362D03*
X003635Y010364D03*
X003630Y010367D03*
X003628Y010369D03*
X003620Y010374D03*
X003613Y010379D03*
X003305Y010682D03*
D108*
X003638Y010363D03*
X003648Y010355D03*
X003650Y010353D03*
X003653Y010350D03*
X003655Y010350D03*
X003658Y010348D03*
X003663Y010345D03*
X003665Y010345D03*
X003713Y010315D03*
X003715Y010313D03*
X003718Y010310D03*
X003720Y010310D03*
X003755Y010290D03*
X004453Y009603D03*
X004620Y009728D03*
X004623Y009728D03*
X004625Y009730D03*
X004628Y009733D03*
X004630Y009733D03*
X004633Y009733D03*
X004635Y009733D03*
X004638Y009733D03*
X004643Y009735D03*
X004648Y009738D03*
X004955Y009218D03*
X004963Y009215D03*
X004970Y009213D03*
X004980Y009210D03*
X004988Y009205D03*
X005018Y009193D03*
X005020Y009190D03*
X005105Y009123D03*
X004960Y008703D03*
X004958Y008703D03*
X004955Y008703D03*
X005085Y008408D03*
X004673Y008643D03*
X004538Y008948D03*
X004535Y008948D03*
X004350Y008375D03*
X004640Y008153D03*
X004475Y007440D03*
X004983Y009793D03*
X004985Y009793D03*
X005008Y009788D03*
X005010Y009788D03*
X005013Y009788D03*
X005015Y009788D03*
X005018Y009788D03*
X005023Y009785D03*
X005028Y009783D03*
X005335Y011228D03*
X005340Y011230D03*
X005375Y011258D03*
X005383Y011265D03*
X005390Y011270D03*
X005405Y011278D03*
X005513Y011345D03*
X005520Y011348D03*
X005523Y011348D03*
X005630Y011405D03*
X005640Y011410D03*
X005650Y011415D03*
X005745Y011455D03*
X005753Y011458D03*
X005773Y011468D03*
X005775Y011468D03*
X005778Y011468D03*
X005780Y011468D03*
X005790Y011473D03*
X005810Y011480D03*
X005818Y011483D03*
X005820Y011483D03*
X005835Y011490D03*
X005838Y011490D03*
X005840Y011490D03*
X005843Y011490D03*
X005845Y011490D03*
X005860Y011495D03*
X005885Y011505D03*
X005888Y011505D03*
X005900Y011508D03*
X005903Y011508D03*
X005905Y011510D03*
X005908Y011510D03*
X005910Y011510D03*
X005915Y011513D03*
X005918Y011513D03*
X005920Y011513D03*
X005925Y011515D03*
X005928Y011518D03*
X005930Y011518D03*
X005933Y011518D03*
X005935Y011518D03*
X005948Y011520D03*
X005960Y011525D03*
X005963Y011525D03*
X005968Y011528D03*
X005970Y011528D03*
X005973Y011528D03*
X006018Y011535D03*
X006035Y011540D03*
X006053Y011543D03*
X006078Y011545D03*
X006080Y011545D03*
X006083Y011545D03*
X006095Y011548D03*
X006098Y011548D03*
X006100Y011548D03*
X006103Y011548D03*
X006113Y011548D03*
X006115Y011550D03*
X006118Y011550D03*
X006135Y011550D03*
X006138Y011550D03*
X006140Y011550D03*
X006145Y011553D03*
X006193Y011553D03*
X006195Y011553D03*
X006198Y011553D03*
X006200Y011555D03*
X006203Y011555D03*
X006258Y011555D03*
X006260Y011555D03*
X006288Y011553D03*
X006290Y011553D03*
X006293Y011553D03*
X006295Y011553D03*
X006298Y011553D03*
X006300Y011553D03*
X006303Y011553D03*
X006348Y011550D03*
X006350Y011550D03*
D109*
X006115Y010249D03*
X006053Y010214D03*
X006010Y010192D03*
D110*
X005438Y011293D03*
X005440Y011295D03*
X005433Y011290D03*
X005430Y011290D03*
X005448Y011300D03*
X005475Y011318D03*
X005480Y011320D03*
X005483Y011323D03*
X005488Y011325D03*
X005248Y011155D03*
X004798Y009990D03*
X004545Y009540D03*
X004160Y010113D03*
X004130Y010125D03*
X004128Y010125D03*
X004125Y010125D03*
X004073Y010143D03*
X004068Y010145D03*
X004063Y010148D03*
X004060Y010148D03*
X004055Y010150D03*
X004053Y010150D03*
X004050Y010150D03*
X004048Y010153D03*
X004045Y010153D03*
X004023Y010163D03*
X004020Y010163D03*
X004018Y010163D03*
X004010Y010165D03*
X004008Y010168D03*
X004005Y010170D03*
X004003Y010170D03*
X003998Y010173D03*
X003988Y010178D03*
X003983Y010180D03*
X003980Y010180D03*
X003978Y010180D03*
X003975Y010180D03*
X003970Y010185D03*
X003965Y010188D03*
X003963Y010188D03*
X003960Y010190D03*
X003958Y010190D03*
X003953Y010193D03*
X004665Y008643D03*
X004630Y008150D03*
X004353Y008378D03*
X004468Y007433D03*
X005060Y008765D03*
X005115Y009113D03*
D111*
X004898Y009270D03*
X005160Y009618D03*
X005030Y008768D03*
X004825Y008635D03*
X004823Y008635D03*
X004868Y008053D03*
X004678Y007580D03*
X004688Y007568D03*
X004700Y007545D03*
X004703Y007543D03*
X004710Y007530D03*
X004718Y007518D03*
X004568Y007595D03*
X004570Y007600D03*
X004553Y007565D03*
X004503Y007473D03*
X003330Y010665D03*
D112*
X003348Y010652D03*
X004865Y008629D03*
X005013Y008772D03*
X005015Y008772D03*
X005038Y008442D03*
X005040Y008442D03*
X004538Y007527D03*
X004513Y007487D03*
X004083Y007464D03*
X005155Y009617D03*
D113*
X005150Y009618D03*
X004993Y008775D03*
X004515Y009615D03*
D114*
X004965Y008778D03*
X005145Y009615D03*
D115*
X005143Y009614D03*
D116*
X005140Y009614D03*
X004120Y007589D03*
X004115Y007569D03*
X004110Y007547D03*
D117*
X004138Y007650D03*
X005138Y009613D03*
D118*
X005135Y009612D03*
X004170Y007787D03*
X004160Y007747D03*
D119*
X004180Y007815D03*
X005130Y009613D03*
D120*
X005128Y009609D03*
X004190Y007859D03*
D121*
X004188Y007854D03*
X005125Y009609D03*
D122*
X005123Y009609D03*
X004200Y007912D03*
D123*
X005120Y009608D03*
D124*
X005118Y009608D03*
D125*
X005115Y009605D03*
D126*
X005113Y009605D03*
X004290Y008265D03*
X004210Y007948D03*
D127*
X004215Y007975D03*
X005110Y009605D03*
D128*
X005108Y009605D03*
X004288Y008258D03*
D129*
X005105Y009604D03*
D130*
X005103Y009607D03*
D131*
X005100Y009607D03*
D132*
X005098Y009604D03*
X004223Y008019D03*
D133*
X005095Y009603D03*
D134*
X005093Y009603D03*
X004273Y008218D03*
D135*
X004578Y007614D03*
X004585Y007624D03*
X004663Y007602D03*
X004738Y007484D03*
X004743Y007477D03*
X004745Y007472D03*
X004748Y007469D03*
X004763Y007447D03*
X004773Y007434D03*
X004788Y007412D03*
X004878Y008049D03*
X004830Y008094D03*
X005063Y008422D03*
X004805Y008639D03*
X004803Y008639D03*
X004880Y009269D03*
X004883Y009269D03*
X004885Y009269D03*
X004888Y009269D03*
X005088Y009722D03*
X004475Y009607D03*
X003325Y010669D03*
D136*
X003380Y010595D03*
X004338Y008355D03*
X004583Y007618D03*
X004580Y007615D03*
X004655Y007610D03*
X004733Y007493D03*
X004735Y007488D03*
X004790Y007408D03*
X004793Y007403D03*
X004795Y007400D03*
X004798Y007398D03*
X004800Y007390D03*
X004803Y007388D03*
X004805Y007385D03*
X004808Y007380D03*
X004810Y007378D03*
X004498Y007468D03*
X005065Y008420D03*
X005010Y008485D03*
X005008Y008488D03*
X005035Y008768D03*
X004878Y009270D03*
X005088Y009478D03*
D137*
X004913Y009275D03*
X005023Y008768D03*
X004843Y008633D03*
X004840Y008633D03*
X004838Y008633D03*
X005050Y008433D03*
X005053Y008430D03*
X005055Y008428D03*
X004853Y008068D03*
X004850Y008068D03*
X004858Y008063D03*
X004543Y007543D03*
X004333Y008348D03*
X003340Y010658D03*
X003338Y010658D03*
D138*
X004488Y009610D03*
X005020Y008770D03*
X005020Y008463D03*
X005048Y008435D03*
X004853Y008633D03*
X004838Y008078D03*
X004848Y008070D03*
X004525Y007508D03*
X004510Y007480D03*
X004508Y007480D03*
X004080Y007455D03*
X004078Y007448D03*
X004330Y008348D03*
D139*
X004845Y008069D03*
X005045Y008437D03*
X004858Y008632D03*
X004855Y008632D03*
X005018Y008772D03*
X004925Y009274D03*
X004923Y009274D03*
X004528Y007512D03*
X004518Y007492D03*
X004515Y007489D03*
X003343Y010657D03*
D140*
X003355Y010644D03*
X003358Y010642D03*
X004935Y009277D03*
X005010Y008772D03*
X005033Y008444D03*
X004090Y007484D03*
X004085Y007467D03*
D141*
X004093Y007493D03*
X004098Y007508D03*
X004880Y008628D03*
X005005Y008773D03*
X004943Y009278D03*
X003365Y010633D03*
D142*
X004505Y009612D03*
X004950Y009279D03*
X004953Y009279D03*
X005000Y008774D03*
X004900Y008624D03*
X004898Y008624D03*
X004895Y008624D03*
D143*
X004903Y008625D03*
X004905Y008625D03*
X004998Y008775D03*
X004510Y009613D03*
X004508Y009613D03*
X004323Y008335D03*
D144*
X004320Y008334D03*
X004100Y007514D03*
X004995Y008774D03*
X004513Y009614D03*
D145*
X004518Y009617D03*
X004990Y008774D03*
X004908Y008624D03*
D146*
X004918Y008620D03*
X004983Y008775D03*
X004530Y009618D03*
X004528Y009618D03*
X004318Y008333D03*
X004103Y007520D03*
D147*
X004978Y008778D03*
D148*
X004975Y008777D03*
X004535Y009619D03*
X004315Y008329D03*
D149*
X004968Y008778D03*
X004970Y008778D03*
X004973Y008778D03*
D150*
X004308Y008305D03*
X004305Y008303D03*
X004173Y007795D03*
X004163Y007753D03*
X004153Y007713D03*
D151*
X004303Y008297D03*
D152*
X004300Y008292D03*
D153*
X004298Y008288D03*
D154*
X004295Y008283D03*
X004193Y007868D03*
D155*
X004293Y008277D03*
D156*
X004285Y008254D03*
X004220Y008004D03*
D157*
X004280Y008238D03*
D158*
X004278Y008234D03*
X004275Y008224D03*
X004230Y008059D03*
D159*
X004243Y008113D03*
X004248Y008133D03*
X004253Y008155D03*
X004258Y008173D03*
X004263Y008185D03*
X004270Y008208D03*
D160*
X004268Y008204D03*
D161*
X004265Y008189D03*
X004260Y008184D03*
X004238Y008094D03*
D162*
X004228Y008045D03*
X004255Y008160D03*
D163*
X004250Y008140D03*
X004240Y008105D03*
D164*
X004245Y008125D03*
D165*
X004235Y008084D03*
D166*
X004233Y008079D03*
X004225Y008034D03*
D167*
X004218Y007994D03*
X004213Y007959D03*
D168*
X004205Y007927D03*
D169*
X004198Y007892D03*
D170*
X004195Y007880D03*
D171*
X004183Y007828D03*
X004175Y007803D03*
D172*
X004165Y007768D03*
X004158Y007740D03*
X004140Y007655D03*
D173*
X004145Y007687D03*
X004150Y007702D03*
D174*
X004143Y007675D03*
X004133Y007630D03*
X004130Y007623D03*
X004128Y007618D03*
X004123Y007598D03*
D175*
X004113Y007559D03*
X004108Y007537D03*
D176*
X004105Y007530D03*
D177*
X007679Y007308D03*
X007719Y007308D03*
X007799Y007308D03*
X007809Y007308D03*
X007819Y007308D03*
X007829Y007308D03*
X007839Y007308D03*
X007849Y007308D03*
X007859Y007308D03*
X007869Y007308D03*
X007879Y007308D03*
X007889Y007308D03*
X007899Y007308D03*
X007909Y007308D03*
X007919Y007308D03*
X007929Y007308D03*
X007939Y007308D03*
X007949Y007308D03*
X007959Y007308D03*
X007969Y007308D03*
X007979Y007308D03*
X007989Y007308D03*
X007999Y007308D03*
X008009Y007308D03*
X008019Y007308D03*
X008029Y007308D03*
X008039Y007308D03*
X008049Y007308D03*
X008059Y007308D03*
X008069Y007308D03*
X008079Y007308D03*
X008089Y007308D03*
X008099Y007308D03*
X008109Y007308D03*
X008119Y007308D03*
X008129Y007308D03*
X008149Y007318D03*
X008049Y007168D03*
X008029Y007178D03*
X008019Y007178D03*
X008009Y007178D03*
X007969Y007148D03*
X008059Y007058D03*
X008019Y006988D03*
X008009Y006988D03*
X007999Y006988D03*
X007989Y006988D03*
X007979Y006988D03*
X007969Y006988D03*
X007959Y006988D03*
X007919Y006988D03*
X007909Y006988D03*
X007899Y006988D03*
X007889Y006988D03*
X007849Y006998D03*
X007839Y007008D03*
X007839Y007158D03*
X007859Y006848D03*
X007869Y006848D03*
X007879Y006848D03*
X007889Y006848D03*
X007899Y006848D03*
X007909Y006848D03*
X007919Y006848D03*
X007929Y006848D03*
X007939Y006848D03*
X007949Y006848D03*
X007959Y006848D03*
X007969Y006848D03*
X007979Y006848D03*
X007989Y006848D03*
X007999Y006848D03*
X008009Y006848D03*
X008019Y006848D03*
X008029Y006848D03*
X008039Y006848D03*
X008049Y006848D03*
X008059Y006848D03*
X008069Y006848D03*
X008079Y006848D03*
X008089Y006848D03*
X008089Y006658D03*
X008079Y006658D03*
X008069Y006658D03*
X008059Y006658D03*
X008049Y006658D03*
X008039Y006658D03*
X008029Y006658D03*
X008019Y006658D03*
X008009Y006658D03*
X007999Y006658D03*
X007989Y006658D03*
X007979Y006658D03*
X007969Y006658D03*
X007959Y006658D03*
X007949Y006658D03*
X007939Y006658D03*
X007929Y006658D03*
X007919Y006658D03*
X007909Y006658D03*
X007899Y006658D03*
X007889Y006658D03*
X007879Y006658D03*
X007869Y006658D03*
X007849Y006668D03*
X007839Y006668D03*
X007779Y006498D03*
X007769Y006488D03*
X007759Y006478D03*
X007759Y006388D03*
X007769Y006388D03*
X007779Y006388D03*
X007789Y006388D03*
X007799Y006388D03*
X007809Y006388D03*
X007819Y006388D03*
X007829Y006388D03*
X007839Y006388D03*
X007849Y006388D03*
X007859Y006388D03*
X007869Y006388D03*
X007879Y006388D03*
X007889Y006388D03*
X007899Y006388D03*
X007909Y006388D03*
X007919Y006388D03*
X007929Y006388D03*
X007939Y006388D03*
X007949Y006388D03*
X007959Y006388D03*
X007969Y006388D03*
X007979Y006388D03*
X007989Y006388D03*
X007999Y006388D03*
X008009Y006388D03*
X008019Y006388D03*
X008029Y006388D03*
X008039Y006388D03*
X008049Y006388D03*
X008049Y006058D03*
X008039Y006048D03*
X007999Y006038D03*
X007989Y006038D03*
X007979Y006048D03*
X007899Y006178D03*
X007879Y006188D03*
X007869Y006188D03*
X007829Y006168D03*
X007749Y006388D03*
X007739Y006388D03*
X007679Y006388D03*
X007869Y007668D03*
X007879Y007668D03*
X007889Y007668D03*
X007899Y007668D03*
X007909Y007668D03*
X007919Y007668D03*
X007929Y007668D03*
X007939Y007668D03*
X007949Y007668D03*
X007959Y007668D03*
X007969Y007668D03*
X007979Y007668D03*
X007989Y007668D03*
X007999Y007668D03*
X008009Y007668D03*
X008019Y007668D03*
X008029Y007668D03*
X008039Y007668D03*
X008049Y007668D03*
X008059Y007668D03*
X008069Y007668D03*
X008079Y007668D03*
X008089Y007668D03*
X008089Y007848D03*
X008079Y007848D03*
X008069Y007848D03*
X008059Y007848D03*
X008049Y007848D03*
X008039Y007848D03*
X008029Y007848D03*
X008019Y007848D03*
X008009Y007848D03*
X007999Y007848D03*
X007989Y007848D03*
X007979Y007848D03*
X007969Y007848D03*
X007959Y007848D03*
X007949Y007848D03*
X007939Y007848D03*
X007929Y007848D03*
X007919Y007848D03*
X007909Y007848D03*
X007899Y007848D03*
X007889Y007848D03*
X007879Y007848D03*
X007869Y007848D03*
X007869Y008018D03*
X007879Y008018D03*
X007889Y008018D03*
X007899Y008018D03*
X007909Y008018D03*
X007919Y008018D03*
X007929Y008018D03*
X007939Y008018D03*
X007949Y008018D03*
X007959Y008018D03*
X007969Y008018D03*
X007979Y008018D03*
X007989Y008018D03*
X007999Y008018D03*
X008009Y008018D03*
X008019Y008018D03*
X008029Y008018D03*
X008039Y008018D03*
X008049Y008018D03*
X008059Y008018D03*
X008069Y008018D03*
X008079Y008018D03*
X008089Y008018D03*
X008019Y008168D03*
X008029Y008178D03*
X008039Y008188D03*
X007999Y008158D03*
X007989Y008158D03*
X007949Y008148D03*
X007939Y008148D03*
X007929Y008148D03*
X007889Y008158D03*
X007879Y008158D03*
X007859Y008168D03*
X007849Y008178D03*
X007839Y008188D03*
X007839Y008348D03*
X007849Y008358D03*
X007859Y008368D03*
X007879Y008378D03*
X007889Y008378D03*
X007929Y008388D03*
X007939Y008388D03*
X007949Y008388D03*
X007989Y008378D03*
X007999Y008378D03*
X008019Y008368D03*
X008029Y008358D03*
X008039Y008348D03*
X008049Y008488D03*
X008019Y008648D03*
X007999Y008658D03*
X007949Y008668D03*
X007939Y008668D03*
X007929Y008668D03*
X007879Y008658D03*
X007859Y008648D03*
X007849Y008638D03*
X007829Y008488D03*
X008039Y008778D03*
X008079Y008778D03*
X008009Y008898D03*
X008029Y008908D03*
X008039Y008918D03*
X007979Y008888D03*
X007969Y008888D03*
X007959Y008888D03*
X007949Y008888D03*
X007939Y008888D03*
X007929Y008888D03*
X007919Y008888D03*
X007909Y008888D03*
X007899Y008888D03*
X007889Y008888D03*
X007869Y008898D03*
X007859Y008898D03*
X007849Y008908D03*
X007859Y009098D03*
X007869Y009098D03*
X007879Y009098D03*
X007889Y009098D03*
X007899Y009098D03*
X007909Y009098D03*
X007919Y009098D03*
X007929Y009098D03*
X007939Y009098D03*
X007949Y009098D03*
X007959Y009098D03*
X007969Y009098D03*
X007979Y009098D03*
X007989Y009098D03*
X007999Y009098D03*
X008009Y009098D03*
X008019Y009098D03*
X008029Y009098D03*
X008019Y009238D03*
X008009Y009238D03*
X007999Y009238D03*
X007989Y009238D03*
X007979Y009238D03*
X007969Y009238D03*
X007959Y009238D03*
X007949Y009238D03*
X007939Y009238D03*
X007929Y009238D03*
X007919Y009238D03*
X007909Y009238D03*
X007899Y009238D03*
X007889Y009238D03*
X007879Y009238D03*
X007869Y009238D03*
X007859Y009238D03*
X007849Y009238D03*
X007839Y009238D03*
X007829Y009238D03*
X007819Y009238D03*
X007809Y009238D03*
X007799Y009238D03*
X007799Y009098D03*
X007809Y009098D03*
X007819Y009098D03*
X007829Y009098D03*
X007789Y009098D03*
X007779Y009098D03*
X007769Y009098D03*
X007759Y009098D03*
X007749Y009098D03*
X007739Y009098D03*
X007729Y009098D03*
X007719Y009098D03*
X007709Y009098D03*
X007699Y009098D03*
X007689Y009098D03*
X007679Y009098D03*
X007669Y009098D03*
X007659Y009098D03*
X007799Y009438D03*
X007809Y009438D03*
X007819Y009438D03*
X007829Y009438D03*
X007839Y009438D03*
X007849Y009438D03*
X007859Y009438D03*
X007869Y009438D03*
X007879Y009438D03*
X007889Y009438D03*
X007899Y009438D03*
X007909Y009438D03*
X007919Y009438D03*
X007929Y009438D03*
X007939Y009438D03*
X007949Y009438D03*
X007959Y009438D03*
X007969Y009438D03*
X007979Y009438D03*
X007989Y009438D03*
X007999Y009438D03*
X008009Y009438D03*
X008029Y009428D03*
X008039Y009428D03*
X008039Y009578D03*
X008049Y009578D03*
X008059Y009578D03*
X008069Y009578D03*
X008079Y009578D03*
X008089Y009578D03*
X008029Y009578D03*
X008019Y009578D03*
X008009Y009578D03*
X007999Y009578D03*
X007989Y009578D03*
X007979Y009578D03*
X007969Y009578D03*
X007959Y009578D03*
X007949Y009578D03*
X007939Y009578D03*
X007929Y009578D03*
X007919Y009578D03*
X007909Y009578D03*
X007899Y009578D03*
X007889Y009578D03*
X007879Y009578D03*
X007869Y009578D03*
X007849Y009588D03*
X007839Y009588D03*
X007829Y009768D03*
X007819Y009768D03*
X007809Y009768D03*
X007799Y009768D03*
X007789Y009768D03*
X007779Y009768D03*
X007769Y009768D03*
X007759Y009768D03*
X007749Y009768D03*
X007739Y009768D03*
X007729Y009768D03*
X007719Y009768D03*
X007709Y009768D03*
X007699Y009768D03*
X007689Y009768D03*
X007679Y009768D03*
X007669Y009768D03*
X007659Y009768D03*
X007859Y009768D03*
X007869Y009768D03*
X007879Y009768D03*
X007889Y009768D03*
X007899Y009768D03*
X007909Y009768D03*
X007919Y009768D03*
X007929Y009768D03*
X007939Y009768D03*
X007949Y009768D03*
X007959Y009768D03*
X007969Y009768D03*
X007979Y009768D03*
X007989Y009768D03*
X007999Y009768D03*
X008009Y009768D03*
X008019Y009768D03*
X008029Y009768D03*
X008039Y009768D03*
X008049Y009768D03*
X008059Y009768D03*
X008069Y009768D03*
X008079Y009768D03*
X008089Y009768D03*
X008049Y009968D03*
X008019Y009978D03*
X008009Y009978D03*
X007999Y009978D03*
X007989Y009978D03*
X007979Y009978D03*
X007969Y009978D03*
X007959Y009978D03*
X007949Y009978D03*
X007939Y009978D03*
X007929Y009978D03*
X007919Y009978D03*
X007909Y009978D03*
X007899Y009978D03*
X007889Y009978D03*
X007879Y009978D03*
X007869Y009978D03*
X007859Y009978D03*
X007849Y009978D03*
X007839Y009978D03*
X007839Y010148D03*
X007849Y010148D03*
X007859Y010148D03*
X007869Y010148D03*
X007879Y010148D03*
X007889Y010148D03*
X007899Y010148D03*
X007909Y010148D03*
X007919Y010148D03*
X007929Y010148D03*
X007939Y010148D03*
X007949Y010148D03*
X007959Y010148D03*
X007969Y010148D03*
X007979Y010148D03*
X007989Y010148D03*
X007999Y010148D03*
X008009Y010148D03*
X008019Y010148D03*
X008029Y010148D03*
X008039Y010148D03*
X008049Y010148D03*
X008059Y010148D03*
X008069Y010148D03*
X008079Y010148D03*
X008089Y010148D03*
X008089Y010258D03*
X008099Y010258D03*
X008079Y010268D03*
X008149Y010288D03*
X008189Y010378D03*
X008139Y010478D03*
X008019Y010458D03*
X007889Y010468D03*
X007879Y010468D03*
X007829Y010448D03*
X007839Y010298D03*
X007829Y010148D03*
X007819Y010148D03*
X007809Y010148D03*
X007799Y010148D03*
X007719Y010148D03*
X007679Y010148D03*
X007819Y010968D03*
X007859Y010968D03*
X007989Y011098D03*
X007999Y011098D03*
X007979Y011108D03*
X008039Y011108D03*
X008049Y011118D03*
X008039Y010968D03*
X008079Y010968D03*
X007899Y011238D03*
X007879Y011248D03*
X007869Y011248D03*
X007829Y011228D03*
X007869Y011358D03*
X007879Y011358D03*
X007849Y011368D03*
X007839Y011378D03*
X007919Y011348D03*
X007929Y011348D03*
X007939Y011348D03*
X007949Y011348D03*
X007989Y011358D03*
X007999Y011358D03*
X008019Y011368D03*
X008029Y011378D03*
X008029Y011558D03*
X008019Y011558D03*
X008009Y011558D03*
X007999Y011558D03*
X007989Y011558D03*
X007979Y011558D03*
X007969Y011558D03*
X007959Y011558D03*
X007949Y011558D03*
X007939Y011558D03*
X007929Y011558D03*
X007919Y011558D03*
X007909Y011558D03*
X007899Y011558D03*
X007889Y011558D03*
X007879Y011558D03*
X007869Y011558D03*
X007859Y011558D03*
X007859Y011768D03*
X007869Y011768D03*
X007879Y011768D03*
X007889Y011768D03*
X007899Y011768D03*
X007909Y011768D03*
X007919Y011768D03*
X007929Y011768D03*
X007939Y011768D03*
X007949Y011768D03*
X007959Y011768D03*
X007969Y011768D03*
X007979Y011768D03*
X007989Y011768D03*
X007999Y011768D03*
X008009Y011768D03*
X008019Y011768D03*
X008049Y011758D03*
X008059Y011558D03*
X008069Y011558D03*
X008079Y011558D03*
X008089Y011558D03*
X008099Y011558D03*
X008109Y011558D03*
X008119Y011558D03*
X008129Y011558D03*
X008139Y011558D03*
X008149Y011558D03*
X008159Y011558D03*
X008169Y011558D03*
X008179Y011558D03*
X008189Y011558D03*
X008049Y011988D03*
X008019Y011998D03*
X008009Y011998D03*
X007999Y011998D03*
X007989Y011998D03*
X007979Y011998D03*
X007969Y011998D03*
X007959Y011998D03*
X007949Y011998D03*
X007939Y011998D03*
X007929Y011998D03*
X007919Y011998D03*
X007909Y011998D03*
X007899Y011998D03*
X007889Y011998D03*
X007879Y011998D03*
X007869Y011998D03*
X007859Y011998D03*
X007849Y011998D03*
X007839Y011998D03*
X007869Y012148D03*
X007879Y012148D03*
X007889Y012148D03*
X007899Y012148D03*
X007909Y012148D03*
X007919Y012148D03*
X007929Y012148D03*
X007939Y012148D03*
X007949Y012148D03*
X007959Y012148D03*
X007969Y012148D03*
X007979Y012148D03*
X007989Y012148D03*
X007999Y012148D03*
X008009Y012148D03*
X008019Y012148D03*
X008029Y012148D03*
X008039Y012148D03*
X008049Y012148D03*
X008059Y012148D03*
X008069Y012148D03*
X008079Y012148D03*
X008089Y012148D03*
X008089Y012338D03*
X008079Y012338D03*
X008069Y012338D03*
X008059Y012338D03*
X008049Y012338D03*
X008039Y012338D03*
X008029Y012338D03*
X008019Y012338D03*
X008009Y012338D03*
X007999Y012338D03*
X007989Y012338D03*
X007979Y012338D03*
X007969Y012338D03*
X007959Y012338D03*
X007949Y012338D03*
X007939Y012338D03*
X007929Y012338D03*
X007919Y012338D03*
X007909Y012338D03*
X007899Y012338D03*
X007889Y012338D03*
X007879Y012338D03*
X007869Y012338D03*
X007859Y012338D03*
X007829Y012338D03*
X007819Y012338D03*
X007809Y012338D03*
X007799Y012338D03*
X007789Y012338D03*
X007779Y012338D03*
X007769Y012338D03*
X007759Y012338D03*
X007749Y012338D03*
X007739Y012338D03*
X007729Y012338D03*
X007719Y012338D03*
X007709Y012338D03*
X007699Y012338D03*
X007689Y012338D03*
X007679Y012338D03*
X007669Y012338D03*
X007659Y012338D03*
X007839Y012158D03*
X007849Y012158D03*
X007849Y011768D03*
X007839Y011768D03*
X007859Y008018D03*
X007849Y007678D03*
X007839Y007678D03*
D178*
X007859Y007673D03*
X007829Y007803D03*
X007839Y007863D03*
X007849Y007863D03*
X007829Y007873D03*
X007829Y008023D03*
X007819Y008023D03*
X007809Y008023D03*
X007799Y008023D03*
X007869Y008163D03*
X007899Y008153D03*
X007909Y008153D03*
X007919Y008153D03*
X007959Y008153D03*
X007969Y008153D03*
X007979Y008153D03*
X008009Y008163D03*
X008009Y008373D03*
X007979Y008383D03*
X007969Y008383D03*
X007959Y008383D03*
X007919Y008383D03*
X007909Y008383D03*
X007899Y008383D03*
X007869Y008373D03*
X007789Y008553D03*
X007869Y008653D03*
X007889Y008663D03*
X007899Y008663D03*
X007909Y008663D03*
X007919Y008663D03*
X007959Y008663D03*
X007969Y008663D03*
X007979Y008663D03*
X007989Y008663D03*
X008009Y008653D03*
X008029Y008643D03*
X008029Y008783D03*
X007999Y008893D03*
X007989Y008893D03*
X008019Y008903D03*
X008059Y009103D03*
X008069Y009103D03*
X008079Y009103D03*
X008079Y009233D03*
X008069Y009233D03*
X008059Y009233D03*
X008049Y009233D03*
X008049Y009293D03*
X008019Y009433D03*
X007859Y009583D03*
X007799Y009973D03*
X007789Y009973D03*
X007779Y009973D03*
X007769Y009973D03*
X007759Y009973D03*
X007749Y009973D03*
X007739Y009973D03*
X007729Y009973D03*
X007849Y010293D03*
X007859Y010293D03*
X007879Y010283D03*
X007889Y010283D03*
X007909Y010293D03*
X007919Y010293D03*
X007929Y010303D03*
X007939Y010313D03*
X007939Y010443D03*
X007929Y010453D03*
X007919Y010463D03*
X007909Y010463D03*
X007899Y010463D03*
X007869Y010463D03*
X007859Y010463D03*
X007849Y010463D03*
X007839Y010453D03*
X007779Y010553D03*
X007799Y010563D03*
X007829Y010573D03*
X007849Y010583D03*
X007879Y010593D03*
X007929Y010613D03*
X007979Y010633D03*
X008029Y010653D03*
X008079Y010673D03*
X008029Y010833D03*
X008079Y010853D03*
X007979Y010813D03*
X007929Y010793D03*
X007879Y010773D03*
X007849Y010763D03*
X007829Y010753D03*
X007799Y010743D03*
X007779Y010733D03*
X007749Y010723D03*
X007699Y010703D03*
X007749Y010543D03*
X007699Y010523D03*
X008009Y010463D03*
X008079Y010473D03*
X008099Y010483D03*
X008109Y010483D03*
X008119Y010483D03*
X008129Y010483D03*
X008139Y010273D03*
X008129Y010263D03*
X008119Y010263D03*
X008109Y010263D03*
X008039Y009973D03*
X008029Y009973D03*
X007879Y008893D03*
X008079Y007563D03*
X008029Y007543D03*
X007979Y007523D03*
X007929Y007503D03*
X007879Y007483D03*
X007849Y007473D03*
X007829Y007463D03*
X007799Y007453D03*
X007779Y007443D03*
X007749Y007433D03*
X007699Y007413D03*
X007859Y006993D03*
X007869Y006993D03*
X007879Y006993D03*
X007829Y006853D03*
X007819Y006853D03*
X007809Y006853D03*
X007799Y006853D03*
X007859Y006663D03*
X007669Y006383D03*
X007839Y006183D03*
X007849Y006183D03*
X007859Y006183D03*
X007889Y006183D03*
X008049Y006193D03*
X008029Y006043D03*
X008019Y006043D03*
X008009Y006043D03*
X008049Y006983D03*
X008059Y006983D03*
X008069Y006983D03*
X008079Y006983D03*
X008039Y007173D03*
X007999Y007173D03*
X007989Y007173D03*
X007979Y007163D03*
X008139Y007313D03*
X008189Y007373D03*
X008029Y011103D03*
X008019Y011103D03*
X008009Y011103D03*
X008049Y011253D03*
X008009Y011363D03*
X007979Y011353D03*
X007969Y011353D03*
X007959Y011353D03*
X007909Y011353D03*
X007899Y011353D03*
X007889Y011353D03*
X007859Y011363D03*
X007859Y011243D03*
X007849Y011243D03*
X007839Y011243D03*
X007889Y011243D03*
X007829Y011563D03*
X007819Y011563D03*
X007809Y011563D03*
X007799Y011563D03*
X007799Y011763D03*
X007789Y011763D03*
X007779Y011763D03*
X007769Y011763D03*
X007759Y011763D03*
X007749Y011763D03*
X007739Y011763D03*
X007729Y011763D03*
X007729Y011993D03*
X007739Y011993D03*
X007749Y011993D03*
X007759Y011993D03*
X007769Y011993D03*
X007779Y011993D03*
X007789Y011993D03*
X007799Y011993D03*
X007859Y012153D03*
X008029Y011993D03*
X008039Y011993D03*
X008039Y011763D03*
X008029Y011763D03*
D179*
X008059Y011718D03*
X008059Y011948D03*
X008069Y011448D03*
X007809Y011438D03*
X007809Y011168D03*
X007959Y010378D03*
X007819Y010298D03*
X008059Y009928D03*
X008179Y010378D03*
X008069Y009358D03*
X008069Y008988D03*
X007809Y008978D03*
X007819Y007918D03*
X008069Y007108D03*
X007809Y006108D03*
D180*
X007959Y006068D03*
X007699Y006398D03*
X007839Y006838D03*
X007929Y006998D03*
X008039Y006998D03*
X007829Y007148D03*
X007699Y007308D03*
X007839Y008008D03*
X008179Y007358D03*
X008059Y008778D03*
X007839Y009758D03*
X007699Y010148D03*
X007819Y010428D03*
X008069Y010278D03*
X008059Y010968D03*
X007959Y011128D03*
X007839Y010968D03*
X007839Y011548D03*
X007839Y012328D03*
D181*
X007829Y011973D03*
X007819Y011973D03*
X007809Y011973D03*
X007809Y011743D03*
X007819Y011743D03*
X007829Y011743D03*
X008169Y010383D03*
X007829Y009953D03*
X007819Y009953D03*
X007809Y009953D03*
X007819Y008553D03*
X007949Y007053D03*
D182*
X008169Y007353D03*
X007799Y007913D03*
X007839Y009083D03*
X008049Y009083D03*
X008039Y009253D03*
X008059Y011233D03*
X008049Y011543D03*
X007709Y006403D03*
X008059Y006173D03*
D183*
X008159Y010378D03*
D184*
X008029Y010428D03*
X008079Y009928D03*
X007799Y009648D03*
X008079Y008988D03*
X008159Y007348D03*
X007959Y007118D03*
X007799Y006728D03*
X007919Y006148D03*
X007949Y006088D03*
X007799Y006108D03*
X007949Y011148D03*
X007919Y011208D03*
X007799Y011168D03*
X007799Y011438D03*
X008079Y011718D03*
X008079Y011948D03*
X007799Y012218D03*
D185*
X007829Y012173D03*
X007849Y012333D03*
X007849Y011553D03*
X007829Y011383D03*
X007909Y011223D03*
X007969Y011113D03*
X008059Y011133D03*
X008069Y010963D03*
X008049Y010963D03*
X007849Y010963D03*
X007829Y010963D03*
X008039Y011383D03*
X008049Y011393D03*
X008039Y011553D03*
X008149Y010463D03*
X007709Y010143D03*
X007689Y010143D03*
X007849Y009763D03*
X007829Y009603D03*
X008049Y009413D03*
X008029Y009243D03*
X008039Y009093D03*
X008049Y008933D03*
X008049Y008783D03*
X008069Y008783D03*
X008039Y008633D03*
X008049Y008623D03*
X008049Y008343D03*
X008049Y008193D03*
X007829Y008193D03*
X007829Y008343D03*
X007829Y008623D03*
X007839Y008633D03*
X007839Y008913D03*
X007829Y008923D03*
X007849Y009093D03*
X007849Y008013D03*
X007859Y007843D03*
X007829Y007693D03*
X007709Y007303D03*
X007689Y007303D03*
X007829Y007013D03*
X007849Y006843D03*
X007829Y006683D03*
X007749Y006463D03*
X007739Y006453D03*
X007689Y006393D03*
X007909Y006163D03*
X007969Y006053D03*
X008059Y006073D03*
X008029Y006993D03*
X008059Y007153D03*
D186*
X008119Y007588D03*
X007729Y007308D03*
X007659Y007388D03*
X007799Y006498D03*
X007839Y006038D03*
X008029Y008478D03*
X008089Y008778D03*
X007729Y010148D03*
X007789Y010378D03*
X007659Y010498D03*
X007659Y010678D03*
X007869Y010968D03*
X007839Y011098D03*
X008089Y010968D03*
X008119Y010878D03*
X008119Y010698D03*
D187*
X008109Y010688D03*
X008099Y010678D03*
X008089Y010678D03*
X008069Y010668D03*
X008059Y010668D03*
X008049Y010658D03*
X008039Y010658D03*
X008019Y010648D03*
X008009Y010648D03*
X007999Y010638D03*
X007989Y010638D03*
X007969Y010628D03*
X007959Y010628D03*
X007949Y010618D03*
X007939Y010618D03*
X007919Y010608D03*
X007909Y010608D03*
X007899Y010598D03*
X007889Y010598D03*
X007869Y010588D03*
X007859Y010588D03*
X007839Y010578D03*
X007819Y010568D03*
X007809Y010568D03*
X007789Y010558D03*
X007769Y010548D03*
X007759Y010548D03*
X007739Y010538D03*
X007729Y010538D03*
X007719Y010528D03*
X007709Y010528D03*
X007689Y010518D03*
X007679Y010518D03*
X007669Y010508D03*
X007669Y010688D03*
X007679Y010698D03*
X007689Y010698D03*
X007709Y010708D03*
X007719Y010708D03*
X007729Y010718D03*
X007739Y010718D03*
X007759Y010728D03*
X007769Y010728D03*
X007789Y010738D03*
X007809Y010748D03*
X007819Y010748D03*
X007839Y010758D03*
X007859Y010768D03*
X007869Y010768D03*
X007889Y010778D03*
X007899Y010778D03*
X007909Y010788D03*
X007919Y010788D03*
X007939Y010798D03*
X007949Y010798D03*
X007959Y010808D03*
X007969Y010808D03*
X007989Y010818D03*
X007999Y010818D03*
X008009Y010828D03*
X008019Y010828D03*
X008039Y010838D03*
X008049Y010838D03*
X008059Y010848D03*
X008069Y010848D03*
X008089Y010858D03*
X008099Y010858D03*
X008109Y010868D03*
X008029Y010968D03*
X007809Y010968D03*
X007829Y011108D03*
X007789Y011168D03*
X007789Y011438D03*
X007829Y011508D03*
X007719Y011758D03*
X007709Y011758D03*
X007699Y011758D03*
X007699Y011988D03*
X007709Y011988D03*
X007719Y011988D03*
X007789Y012218D03*
X007829Y012288D03*
X008089Y011948D03*
X008089Y011718D03*
X008089Y010478D03*
X008069Y010458D03*
X007999Y010458D03*
X007989Y010458D03*
X007979Y010448D03*
X007899Y010288D03*
X007869Y010288D03*
X007719Y009968D03*
X007709Y009968D03*
X007699Y009968D03*
X007669Y010148D03*
X007829Y009718D03*
X007789Y009648D03*
X008089Y009368D03*
X008089Y009228D03*
X008089Y009108D03*
X008089Y008988D03*
X007829Y009048D03*
X008089Y008558D03*
X008039Y008478D03*
X008089Y008268D03*
X007829Y007978D03*
X007839Y007818D03*
X007789Y007738D03*
X007909Y007498D03*
X007919Y007498D03*
X007939Y007508D03*
X007949Y007508D03*
X007959Y007518D03*
X007969Y007518D03*
X007989Y007528D03*
X007999Y007528D03*
X008009Y007538D03*
X008019Y007538D03*
X008039Y007548D03*
X008049Y007548D03*
X008059Y007558D03*
X008069Y007558D03*
X008089Y007568D03*
X008099Y007568D03*
X008109Y007578D03*
X007899Y007488D03*
X007889Y007488D03*
X007869Y007478D03*
X007859Y007478D03*
X007839Y007468D03*
X007819Y007458D03*
X007809Y007458D03*
X007789Y007448D03*
X007769Y007438D03*
X007759Y007438D03*
X007739Y007428D03*
X007729Y007428D03*
X007719Y007418D03*
X007709Y007418D03*
X007689Y007408D03*
X007679Y007408D03*
X007669Y007398D03*
X007669Y007308D03*
X007789Y007068D03*
X007829Y006798D03*
X007789Y006728D03*
X007789Y006498D03*
X007789Y006108D03*
X007829Y006048D03*
X008089Y006978D03*
X008049Y007038D03*
X008089Y007118D03*
X007789Y008268D03*
X008089Y009928D03*
D188*
X008049Y009883D03*
X007789Y008973D03*
X007839Y008483D03*
X007789Y007913D03*
X007849Y007823D03*
X007789Y007323D03*
X007849Y007163D03*
X008039Y006193D03*
X008089Y006123D03*
X008089Y011183D03*
X008039Y011253D03*
X008089Y011453D03*
X008049Y011673D03*
X008049Y011903D03*
D189*
X007809Y010343D03*
X008059Y006393D03*
X008069Y006393D03*
X008079Y006393D03*
X008089Y006393D03*
D190*
X008079Y006123D03*
X007929Y006123D03*
X007719Y006413D03*
X008079Y007113D03*
X007799Y007743D03*
X007809Y007913D03*
X007799Y008973D03*
X008079Y009363D03*
X007829Y010283D03*
X007969Y010393D03*
X007929Y011183D03*
X008079Y011183D03*
X008079Y011453D03*
D191*
X007939Y011168D03*
X007799Y010378D03*
X007799Y008558D03*
X007799Y008268D03*
X008079Y008268D03*
X008079Y008558D03*
X007799Y007078D03*
X007729Y006418D03*
X007939Y006108D03*
D192*
X007809Y006733D03*
X007809Y007743D03*
X007809Y009653D03*
X008069Y009923D03*
X008069Y011713D03*
X008069Y011943D03*
X007809Y012223D03*
D193*
X007819Y012223D03*
X008069Y011183D03*
X007819Y009653D03*
X007809Y008553D03*
X007819Y007743D03*
X007939Y007033D03*
X007819Y006733D03*
X008069Y006123D03*
D194*
X007809Y007078D03*
X007809Y008268D03*
X008069Y008268D03*
X008069Y008558D03*
X008059Y008988D03*
X007819Y008978D03*
X008059Y009358D03*
X007949Y010378D03*
X007819Y011438D03*
X008059Y011448D03*
D195*
X008059Y010353D03*
D196*
X008059Y008558D03*
X007819Y007078D03*
D197*
X007819Y008268D03*
X008059Y008268D03*
X008049Y010358D03*
X008039Y010378D03*
D198*
X007819Y011163D03*
X007819Y006103D03*
M02*
