G75*
G70*
%OFA0B0*%
%FSLAX24Y24*%
%IPPOS*%
%LPD*%
%AMOC8*
5,1,8,0,0,1.08239X$1,22.5*
%
%ADD10C,0.0000*%
%ADD11R,0.0433X0.0394*%
%ADD12R,0.0315X0.0315*%
%ADD13R,0.0433X0.0709*%
%ADD14R,0.0236X0.0472*%
%ADD15R,0.0984X0.0472*%
%ADD16R,0.0394X0.0433*%
%ADD17R,0.0860X0.0420*%
%ADD18R,0.0420X0.0860*%
%ADD19R,0.0787X0.0945*%
%ADD20R,0.0197X0.0909*%
%ADD21R,0.0217X0.0472*%
%ADD22R,0.0315X0.0531*%
%ADD23C,0.0100*%
%ADD24C,0.0246*%
%ADD25C,0.0160*%
%ADD26C,0.0120*%
%ADD27C,0.0320*%
D10*
X000944Y000912D02*
X008818Y000912D01*
X008818Y000913D02*
X008872Y000915D01*
X008925Y000920D01*
X008978Y000929D01*
X009030Y000942D01*
X009082Y000958D01*
X009132Y000978D01*
X009180Y001001D01*
X009227Y001028D01*
X009272Y001057D01*
X009315Y001090D01*
X009355Y001125D01*
X009393Y001163D01*
X009428Y001203D01*
X009461Y001246D01*
X009490Y001291D01*
X009517Y001338D01*
X009540Y001386D01*
X009560Y001436D01*
X009576Y001488D01*
X009589Y001540D01*
X009598Y001593D01*
X009603Y001646D01*
X009605Y001700D01*
X009605Y017842D01*
X009603Y017896D01*
X009598Y017949D01*
X009589Y018002D01*
X009576Y018054D01*
X009560Y018106D01*
X009540Y018156D01*
X009517Y018204D01*
X009490Y018251D01*
X009461Y018296D01*
X009428Y018339D01*
X009393Y018379D01*
X009355Y018417D01*
X009315Y018452D01*
X009272Y018485D01*
X009227Y018514D01*
X009180Y018541D01*
X009132Y018564D01*
X009082Y018584D01*
X009030Y018600D01*
X008978Y018613D01*
X008925Y018622D01*
X008872Y018627D01*
X008818Y018629D01*
X000944Y018629D01*
X000890Y018627D01*
X000837Y018622D01*
X000784Y018613D01*
X000732Y018600D01*
X000680Y018584D01*
X000630Y018564D01*
X000582Y018541D01*
X000535Y018514D01*
X000490Y018485D01*
X000447Y018452D01*
X000407Y018417D01*
X000369Y018379D01*
X000334Y018339D01*
X000301Y018296D01*
X000272Y018251D01*
X000245Y018204D01*
X000222Y018156D01*
X000202Y018106D01*
X000186Y018054D01*
X000173Y018002D01*
X000164Y017949D01*
X000159Y017896D01*
X000157Y017842D01*
X000156Y017842D02*
X000156Y001700D01*
X000157Y001700D02*
X000159Y001646D01*
X000164Y001593D01*
X000173Y001540D01*
X000186Y001488D01*
X000202Y001436D01*
X000222Y001386D01*
X000245Y001338D01*
X000272Y001291D01*
X000301Y001246D01*
X000334Y001203D01*
X000369Y001163D01*
X000407Y001125D01*
X000447Y001090D01*
X000490Y001057D01*
X000535Y001028D01*
X000582Y001001D01*
X000630Y000978D01*
X000680Y000958D01*
X000732Y000942D01*
X000784Y000929D01*
X000837Y000920D01*
X000890Y000915D01*
X000944Y000913D01*
X002617Y001542D02*
X002619Y001576D01*
X002625Y001610D01*
X002635Y001643D01*
X002648Y001674D01*
X002666Y001704D01*
X002686Y001732D01*
X002710Y001757D01*
X002736Y001779D01*
X002764Y001797D01*
X002795Y001813D01*
X002827Y001825D01*
X002861Y001833D01*
X002895Y001837D01*
X002929Y001837D01*
X002963Y001833D01*
X002997Y001825D01*
X003029Y001813D01*
X003059Y001797D01*
X003088Y001779D01*
X003114Y001757D01*
X003138Y001732D01*
X003158Y001704D01*
X003176Y001674D01*
X003189Y001643D01*
X003199Y001610D01*
X003205Y001576D01*
X003207Y001542D01*
X003205Y001508D01*
X003199Y001474D01*
X003189Y001441D01*
X003176Y001410D01*
X003158Y001380D01*
X003138Y001352D01*
X003114Y001327D01*
X003088Y001305D01*
X003060Y001287D01*
X003029Y001271D01*
X002997Y001259D01*
X002963Y001251D01*
X002929Y001247D01*
X002895Y001247D01*
X002861Y001251D01*
X002827Y001259D01*
X002795Y001271D01*
X002764Y001287D01*
X002736Y001305D01*
X002710Y001327D01*
X002686Y001352D01*
X002666Y001380D01*
X002648Y001410D01*
X002635Y001441D01*
X002625Y001474D01*
X002619Y001508D01*
X002617Y001542D01*
X002617Y003668D02*
X002619Y003702D01*
X002625Y003736D01*
X002635Y003769D01*
X002648Y003800D01*
X002666Y003830D01*
X002686Y003858D01*
X002710Y003883D01*
X002736Y003905D01*
X002764Y003923D01*
X002795Y003939D01*
X002827Y003951D01*
X002861Y003959D01*
X002895Y003963D01*
X002929Y003963D01*
X002963Y003959D01*
X002997Y003951D01*
X003029Y003939D01*
X003059Y003923D01*
X003088Y003905D01*
X003114Y003883D01*
X003138Y003858D01*
X003158Y003830D01*
X003176Y003800D01*
X003189Y003769D01*
X003199Y003736D01*
X003205Y003702D01*
X003207Y003668D01*
X003205Y003634D01*
X003199Y003600D01*
X003189Y003567D01*
X003176Y003536D01*
X003158Y003506D01*
X003138Y003478D01*
X003114Y003453D01*
X003088Y003431D01*
X003060Y003413D01*
X003029Y003397D01*
X002997Y003385D01*
X002963Y003377D01*
X002929Y003373D01*
X002895Y003373D01*
X002861Y003377D01*
X002827Y003385D01*
X002795Y003397D01*
X002764Y003413D01*
X002736Y003431D01*
X002710Y003453D01*
X002686Y003478D01*
X002666Y003506D01*
X002648Y003536D01*
X002635Y003567D01*
X002625Y003600D01*
X002619Y003634D01*
X002617Y003668D01*
X005688Y002684D02*
X005690Y002711D01*
X005696Y002738D01*
X005705Y002764D01*
X005718Y002788D01*
X005734Y002811D01*
X005753Y002830D01*
X005775Y002847D01*
X005799Y002861D01*
X005824Y002871D01*
X005851Y002878D01*
X005878Y002881D01*
X005906Y002880D01*
X005933Y002875D01*
X005959Y002867D01*
X005983Y002855D01*
X006006Y002839D01*
X006027Y002821D01*
X006044Y002800D01*
X006059Y002776D01*
X006070Y002751D01*
X006078Y002725D01*
X006082Y002698D01*
X006082Y002670D01*
X006078Y002643D01*
X006070Y002617D01*
X006059Y002592D01*
X006044Y002568D01*
X006027Y002547D01*
X006006Y002529D01*
X005984Y002513D01*
X005959Y002501D01*
X005933Y002493D01*
X005906Y002488D01*
X005878Y002487D01*
X005851Y002490D01*
X005824Y002497D01*
X005799Y002507D01*
X005775Y002521D01*
X005753Y002538D01*
X005734Y002557D01*
X005718Y002580D01*
X005705Y002604D01*
X005696Y002630D01*
X005690Y002657D01*
X005688Y002684D01*
X007420Y002684D02*
X007422Y002711D01*
X007428Y002738D01*
X007437Y002764D01*
X007450Y002788D01*
X007466Y002811D01*
X007485Y002830D01*
X007507Y002847D01*
X007531Y002861D01*
X007556Y002871D01*
X007583Y002878D01*
X007610Y002881D01*
X007638Y002880D01*
X007665Y002875D01*
X007691Y002867D01*
X007715Y002855D01*
X007738Y002839D01*
X007759Y002821D01*
X007776Y002800D01*
X007791Y002776D01*
X007802Y002751D01*
X007810Y002725D01*
X007814Y002698D01*
X007814Y002670D01*
X007810Y002643D01*
X007802Y002617D01*
X007791Y002592D01*
X007776Y002568D01*
X007759Y002547D01*
X007738Y002529D01*
X007716Y002513D01*
X007691Y002501D01*
X007665Y002493D01*
X007638Y002488D01*
X007610Y002487D01*
X007583Y002490D01*
X007556Y002497D01*
X007531Y002507D01*
X007507Y002521D01*
X007485Y002538D01*
X007466Y002557D01*
X007450Y002580D01*
X007437Y002604D01*
X007428Y002630D01*
X007422Y002657D01*
X007420Y002684D01*
D11*
X007243Y005597D03*
X007243Y006267D03*
X007833Y006267D03*
X007833Y005597D03*
X005904Y004849D03*
X005235Y004849D03*
X003444Y006818D03*
X002774Y006818D03*
X008129Y011011D03*
X008129Y011680D03*
D12*
X008719Y011641D03*
X008719Y011050D03*
D13*
X009152Y009613D03*
X009152Y007172D03*
X007696Y007172D03*
X007696Y009613D03*
D14*
X001416Y007034D03*
X001042Y007034D03*
X000668Y007034D03*
X000668Y006129D03*
X001042Y006129D03*
X001416Y006129D03*
D15*
X001633Y004928D03*
X001633Y003353D03*
X001633Y002172D03*
X004192Y005322D03*
D16*
X004487Y005893D03*
X004487Y006562D03*
X001278Y004357D03*
X001278Y003865D03*
X000609Y003865D03*
X000609Y004357D03*
X008089Y010361D03*
X008759Y010361D03*
D17*
X006751Y010558D03*
X006751Y009968D03*
X006751Y009377D03*
X006751Y008786D03*
X006751Y011149D03*
X006751Y011739D03*
X006751Y012330D03*
X006751Y012920D03*
X006751Y013511D03*
X006751Y014101D03*
X006751Y014692D03*
X006751Y015282D03*
X006751Y015873D03*
X001436Y015873D03*
X001436Y015282D03*
X001436Y014692D03*
X001436Y014101D03*
X001436Y013511D03*
X001436Y012920D03*
X001436Y012330D03*
X001436Y011739D03*
X001436Y011149D03*
X001436Y010558D03*
X001436Y009968D03*
X001436Y009377D03*
X001436Y008786D03*
D18*
X002026Y007999D03*
X002617Y007999D03*
X003207Y007999D03*
X003798Y007999D03*
X004389Y007999D03*
X004979Y007999D03*
X005570Y007999D03*
X006160Y007999D03*
D19*
X005019Y003668D03*
X005019Y001503D03*
X008483Y001503D03*
X008483Y003668D03*
D20*
X007381Y003890D03*
X007066Y003890D03*
X006751Y003890D03*
X006436Y003890D03*
X006121Y003890D03*
D21*
X006259Y005420D03*
X006633Y005420D03*
X006633Y006444D03*
X005885Y006444D03*
X005885Y005420D03*
D22*
X005176Y005432D03*
X005176Y006432D03*
D23*
X000654Y001132D02*
X000493Y001249D01*
X000376Y001410D01*
X000314Y001600D01*
X000306Y001700D01*
X000306Y003599D01*
X000367Y003539D01*
X000449Y003539D01*
X000449Y002362D01*
X000543Y002268D01*
X000799Y002012D01*
X001031Y002012D01*
X001031Y001890D01*
X001095Y001826D01*
X002170Y001826D01*
X002235Y001890D01*
X002235Y002454D01*
X002170Y002518D01*
X001095Y002518D01*
X001031Y002454D01*
X001031Y002332D01*
X000931Y002332D01*
X000769Y002494D01*
X000769Y003539D01*
X000851Y003539D01*
X000916Y003603D01*
X000916Y003765D01*
X000971Y003710D01*
X000971Y003603D01*
X000991Y003584D01*
X000991Y003403D01*
X001583Y003403D01*
X001583Y003303D01*
X001683Y003303D01*
X001683Y003403D01*
X002275Y003403D01*
X002275Y003609D01*
X002265Y003647D01*
X002245Y003682D01*
X002217Y003710D01*
X002183Y003729D01*
X002145Y003740D01*
X001683Y003740D01*
X001683Y003403D01*
X001583Y003403D01*
X001583Y003601D01*
X001585Y003603D01*
X001585Y004197D01*
X002486Y004197D01*
X003451Y005162D01*
X003590Y005162D01*
X003590Y005040D01*
X003654Y004976D01*
X004729Y004976D01*
X004794Y005040D01*
X004794Y005574D01*
X004804Y005584D01*
X004824Y005618D01*
X004834Y005656D01*
X004834Y005844D01*
X004535Y005844D01*
X004535Y005941D01*
X004834Y005941D01*
X004834Y006129D01*
X004824Y006167D01*
X004804Y006201D01*
X004776Y006229D01*
X004754Y006242D01*
X004909Y006242D01*
X004909Y006121D01*
X004973Y006056D01*
X005379Y006056D01*
X005443Y006121D01*
X005443Y006242D01*
X005666Y006242D01*
X005666Y006162D01*
X005731Y006098D01*
X006038Y006098D01*
X006103Y006162D01*
X006103Y006274D01*
X006152Y006274D01*
X006168Y006290D01*
X006257Y006290D01*
X006393Y006426D01*
X006393Y006619D01*
X006257Y006756D01*
X006073Y006756D01*
X006038Y006790D01*
X005731Y006790D01*
X005666Y006726D01*
X005666Y006634D01*
X005570Y006634D01*
X005558Y006622D01*
X005443Y006622D01*
X005443Y006743D01*
X005379Y006808D01*
X004973Y006808D01*
X004909Y006743D01*
X004909Y006622D01*
X004794Y006622D01*
X004794Y006824D01*
X004729Y006889D01*
X004245Y006889D01*
X004180Y006824D01*
X004180Y006622D01*
X003810Y006622D01*
X003810Y006769D01*
X003492Y006769D01*
X003492Y006866D01*
X003810Y006866D01*
X003810Y007035D01*
X003800Y007073D01*
X003780Y007107D01*
X003752Y007135D01*
X003718Y007155D01*
X003680Y007165D01*
X003492Y007165D01*
X003492Y006866D01*
X003395Y006866D01*
X003395Y007165D01*
X003207Y007165D01*
X003169Y007155D01*
X003135Y007135D01*
X003107Y007107D01*
X003088Y007073D01*
X003037Y007125D01*
X002541Y007125D01*
X002517Y007149D01*
X002324Y007149D01*
X002187Y007013D01*
X002187Y006820D01*
X002189Y006818D01*
X002187Y006816D01*
X002187Y006623D01*
X002324Y006486D01*
X002411Y006486D01*
X001849Y005925D01*
X001738Y005814D01*
X001738Y005274D01*
X001212Y005274D01*
X001212Y005531D01*
X001339Y005404D01*
X001532Y005404D01*
X001669Y005540D01*
X001669Y005733D01*
X001600Y005803D01*
X001644Y005847D01*
X001644Y006411D01*
X001580Y006475D01*
X001418Y006475D01*
X001508Y006565D01*
X001516Y006566D01*
X001554Y006611D01*
X001596Y006653D01*
X001596Y006662D01*
X001601Y006668D01*
X001598Y006706D01*
X001644Y006753D01*
X001644Y007316D01*
X001580Y007381D01*
X001262Y007381D01*
X001252Y007391D01*
X001218Y007410D01*
X001180Y007421D01*
X001051Y007421D01*
X001051Y007044D01*
X001033Y007044D01*
X001033Y007421D01*
X000904Y007421D01*
X000866Y007410D01*
X000832Y007391D01*
X000822Y007381D01*
X000710Y007381D01*
X000710Y010164D01*
X000896Y010164D01*
X000896Y009712D01*
X000936Y009672D01*
X000896Y009633D01*
X000896Y009121D01*
X000907Y009110D01*
X000886Y009089D01*
X000866Y009054D01*
X000856Y009016D01*
X000856Y008836D01*
X001386Y008836D01*
X001386Y008736D01*
X001486Y008736D01*
X001486Y008426D01*
X001666Y008426D01*
X001666Y008049D01*
X001976Y008049D01*
X001976Y007949D01*
X001666Y007949D01*
X001666Y007549D01*
X001677Y007511D01*
X001696Y007477D01*
X001724Y007449D01*
X001758Y007429D01*
X001797Y007419D01*
X001976Y007419D01*
X001976Y007949D01*
X002076Y007949D01*
X002076Y007419D01*
X002256Y007419D01*
X002294Y007429D01*
X002328Y007449D01*
X002350Y007470D01*
X002361Y007459D01*
X002457Y007459D01*
X002457Y007441D01*
X002551Y007347D01*
X002649Y007248D01*
X005208Y007248D01*
X005602Y006855D01*
X006685Y006855D01*
X006749Y006790D01*
X006479Y006790D01*
X006414Y006726D01*
X006414Y006162D01*
X006479Y006098D01*
X006787Y006098D01*
X006851Y006162D01*
X006851Y006688D01*
X006973Y006566D01*
X006916Y006509D01*
X006916Y006024D01*
X006981Y005960D01*
X007505Y005960D01*
X007538Y005993D01*
X007571Y005960D01*
X008096Y005960D01*
X008160Y006024D01*
X008160Y006509D01*
X008096Y006574D01*
X007993Y006574D01*
X007993Y006589D01*
X007900Y006683D01*
X007874Y006708D01*
X007958Y006708D01*
X008022Y006772D01*
X008022Y007572D01*
X007958Y007637D01*
X007856Y007637D01*
X007856Y008238D01*
X007934Y008160D01*
X008127Y008160D01*
X008263Y008296D01*
X008263Y008385D01*
X008790Y008912D01*
X008889Y009011D01*
X008889Y009116D01*
X008916Y009109D01*
X009102Y009109D01*
X009102Y009563D01*
X009202Y009563D01*
X009202Y009109D01*
X009389Y009109D01*
X009427Y009119D01*
X009455Y009135D01*
X009455Y007650D01*
X009427Y007666D01*
X009389Y007677D01*
X009202Y007677D01*
X009202Y007222D01*
X009102Y007222D01*
X009102Y007122D01*
X008786Y007122D01*
X008786Y006798D01*
X008796Y006760D01*
X008816Y006726D01*
X008844Y006698D01*
X008878Y006678D01*
X008916Y006668D01*
X009102Y006668D01*
X009102Y007122D01*
X009202Y007122D01*
X009202Y006668D01*
X009389Y006668D01*
X009427Y006678D01*
X009455Y006694D01*
X009455Y001700D01*
X009447Y001600D01*
X009386Y001410D01*
X009268Y001249D01*
X009107Y001132D01*
X008987Y001093D01*
X008987Y002021D01*
X008922Y002085D01*
X008044Y002085D01*
X007979Y002021D01*
X007979Y001062D01*
X005522Y001062D01*
X005522Y002021D01*
X005458Y002085D01*
X004579Y002085D01*
X004515Y002021D01*
X004515Y001062D01*
X000944Y001062D01*
X000844Y001070D01*
X000654Y001132D01*
X000723Y001109D02*
X002794Y001109D01*
X002824Y001097D02*
X003001Y001097D01*
X003164Y001165D01*
X003290Y001290D01*
X003357Y001454D01*
X003357Y001631D01*
X003290Y001795D01*
X003164Y001920D01*
X003001Y001988D01*
X002824Y001988D01*
X002660Y001920D01*
X002535Y001795D01*
X002467Y001631D01*
X002467Y001454D01*
X002535Y001290D01*
X002660Y001165D01*
X002824Y001097D01*
X002617Y001208D02*
X000550Y001208D01*
X000451Y001306D02*
X002528Y001306D01*
X002487Y001405D02*
X000380Y001405D01*
X000346Y001503D02*
X002467Y001503D01*
X002467Y001602D02*
X000314Y001602D01*
X000306Y001700D02*
X002496Y001700D01*
X002539Y001799D02*
X000306Y001799D01*
X000306Y001897D02*
X001031Y001897D01*
X001031Y001996D02*
X000306Y001996D01*
X000306Y002094D02*
X000717Y002094D01*
X000618Y002193D02*
X000306Y002193D01*
X000306Y002291D02*
X000520Y002291D01*
X000449Y002390D02*
X000306Y002390D01*
X000306Y002488D02*
X000449Y002488D01*
X000449Y002587D02*
X000306Y002587D01*
X000306Y002685D02*
X000449Y002685D01*
X000449Y002784D02*
X000306Y002784D01*
X000306Y002882D02*
X000449Y002882D01*
X000449Y002981D02*
X000306Y002981D01*
X000306Y003079D02*
X000449Y003079D01*
X000449Y003178D02*
X000306Y003178D01*
X000306Y003276D02*
X000449Y003276D01*
X000449Y003375D02*
X000306Y003375D01*
X000306Y003473D02*
X000449Y003473D01*
X000333Y003572D02*
X000306Y003572D01*
X000609Y003865D02*
X000609Y002428D01*
X000865Y002172D01*
X001633Y002172D01*
X001683Y002967D02*
X002145Y002967D01*
X002183Y002977D01*
X002217Y002997D01*
X002245Y003025D01*
X002265Y003059D01*
X002275Y003097D01*
X002275Y003303D01*
X001683Y003303D01*
X001683Y002967D01*
X001683Y002981D02*
X001583Y002981D01*
X001583Y002967D02*
X001583Y003303D01*
X000991Y003303D01*
X000991Y003097D01*
X001001Y003059D01*
X001021Y003025D01*
X001048Y002997D01*
X001083Y002977D01*
X001121Y002967D01*
X001583Y002967D01*
X001583Y003079D02*
X001683Y003079D01*
X001683Y003178D02*
X001583Y003178D01*
X001583Y003276D02*
X001683Y003276D01*
X001683Y003375D02*
X002576Y003375D01*
X002535Y003416D02*
X002660Y003291D01*
X002824Y003223D01*
X003001Y003223D01*
X003164Y003291D01*
X003290Y003416D01*
X003357Y003580D01*
X003357Y003757D01*
X003290Y003921D01*
X003164Y004046D01*
X003001Y004114D01*
X002824Y004114D01*
X002660Y004046D01*
X002535Y003921D01*
X002467Y003757D01*
X002467Y003580D01*
X002535Y003416D01*
X002511Y003473D02*
X002275Y003473D01*
X002275Y003572D02*
X002470Y003572D01*
X002467Y003670D02*
X002251Y003670D01*
X002472Y003769D02*
X001585Y003769D01*
X001585Y003867D02*
X002513Y003867D01*
X002580Y003966D02*
X001585Y003966D01*
X001585Y004064D02*
X002705Y004064D01*
X002550Y004261D02*
X005912Y004261D01*
X005912Y004163D02*
X005522Y004163D01*
X005522Y004186D02*
X005458Y004251D01*
X004579Y004251D01*
X004515Y004186D01*
X004515Y003150D01*
X004579Y003086D01*
X005458Y003086D01*
X005522Y003150D01*
X005522Y004186D01*
X005522Y004064D02*
X005912Y004064D01*
X005912Y003966D02*
X005522Y003966D01*
X005522Y003867D02*
X005912Y003867D01*
X005912Y003769D02*
X005522Y003769D01*
X005522Y003670D02*
X005912Y003670D01*
X005912Y003572D02*
X005522Y003572D01*
X005522Y003473D02*
X005912Y003473D01*
X005912Y003390D02*
X005977Y003326D01*
X006265Y003326D01*
X006278Y003340D01*
X006292Y003326D01*
X006580Y003326D01*
X006593Y003340D01*
X006607Y003326D01*
X006895Y003326D01*
X006908Y003340D01*
X006922Y003326D01*
X007180Y003326D01*
X007190Y003316D01*
X007224Y003296D01*
X007263Y003286D01*
X007381Y003286D01*
X007499Y003286D01*
X007537Y003296D01*
X007571Y003316D01*
X007599Y003344D01*
X007619Y003378D01*
X007629Y003416D01*
X007629Y003890D01*
X007381Y003890D01*
X007381Y003286D01*
X007381Y003890D01*
X007381Y003890D01*
X007381Y003890D01*
X007629Y003890D01*
X007629Y004364D01*
X007619Y004403D01*
X007599Y004437D01*
X007571Y004465D01*
X007537Y004484D01*
X007499Y004495D01*
X007381Y004495D01*
X007381Y003890D01*
X007381Y003890D01*
X007381Y004495D01*
X007263Y004495D01*
X007224Y004484D01*
X007190Y004465D01*
X007180Y004455D01*
X006976Y004455D01*
X007506Y004985D01*
X007703Y004985D01*
X007900Y005182D01*
X007993Y005275D01*
X007993Y005291D01*
X008096Y005291D01*
X008160Y005355D01*
X008160Y005840D01*
X008096Y005904D01*
X007571Y005904D01*
X007538Y005871D01*
X007505Y005904D01*
X006981Y005904D01*
X006916Y005840D01*
X006916Y005355D01*
X006981Y005291D01*
X007064Y005291D01*
X006311Y004537D01*
X006311Y004659D01*
X006337Y004659D01*
X006449Y004771D01*
X006752Y005074D01*
X006787Y005074D01*
X006851Y005138D01*
X006851Y005702D01*
X006787Y005766D01*
X006479Y005766D01*
X006474Y005762D01*
X006459Y005776D01*
X006425Y005796D01*
X006387Y005806D01*
X006263Y005806D01*
X006263Y005424D01*
X006255Y005424D01*
X006255Y005806D01*
X006131Y005806D01*
X006092Y005796D01*
X006058Y005776D01*
X006043Y005762D01*
X006038Y005766D01*
X005731Y005766D01*
X005666Y005702D01*
X005666Y005622D01*
X005443Y005622D01*
X005443Y005743D01*
X005379Y005808D01*
X004973Y005808D01*
X004909Y005743D01*
X004909Y005148D01*
X004898Y005138D01*
X004879Y005104D01*
X004869Y005066D01*
X004869Y004898D01*
X005187Y004898D01*
X005187Y004801D01*
X005283Y004801D01*
X005283Y004503D01*
X005471Y004503D01*
X005509Y004513D01*
X005544Y004533D01*
X005572Y004560D01*
X005591Y004594D01*
X005642Y004543D01*
X005931Y004543D01*
X005931Y004409D01*
X005912Y004390D01*
X005912Y003390D01*
X005928Y003375D02*
X005522Y003375D01*
X005522Y003276D02*
X007979Y003276D01*
X007979Y003178D02*
X005522Y003178D01*
X005688Y002978D02*
X005591Y002881D01*
X005538Y002753D01*
X005538Y002615D01*
X005591Y002488D01*
X005688Y002390D01*
X005816Y002337D01*
X005954Y002337D01*
X006081Y002390D01*
X006179Y002488D01*
X007323Y002488D01*
X007420Y002390D01*
X007548Y002337D01*
X007686Y002337D01*
X007813Y002390D01*
X009455Y002390D01*
X009455Y002488D02*
X007911Y002488D01*
X007964Y002615D01*
X007964Y002753D01*
X007911Y002881D01*
X007813Y002978D01*
X007686Y003031D01*
X007548Y003031D01*
X007420Y002978D01*
X007323Y002881D01*
X007270Y002753D01*
X007270Y002615D01*
X007323Y002488D01*
X007282Y002587D02*
X006220Y002587D01*
X006231Y002615D02*
X006179Y002488D01*
X006231Y002615D02*
X006231Y002753D01*
X006179Y002881D01*
X006081Y002978D01*
X005954Y003031D01*
X005816Y003031D01*
X005688Y002978D01*
X005695Y002981D02*
X002189Y002981D01*
X002270Y003079D02*
X009455Y003079D01*
X009455Y002981D02*
X007807Y002981D01*
X007909Y002882D02*
X009455Y002882D01*
X009455Y002784D02*
X007951Y002784D01*
X007964Y002685D02*
X009455Y002685D01*
X009455Y002587D02*
X007952Y002587D01*
X007911Y002488D02*
X007813Y002390D01*
X007979Y001996D02*
X005522Y001996D01*
X005522Y001897D02*
X007979Y001897D01*
X007979Y001799D02*
X005522Y001799D01*
X005522Y001700D02*
X007979Y001700D01*
X007979Y001602D02*
X005522Y001602D01*
X005522Y001503D02*
X007979Y001503D01*
X007979Y001405D02*
X005522Y001405D01*
X005522Y001306D02*
X007979Y001306D01*
X007979Y001208D02*
X005522Y001208D01*
X005522Y001109D02*
X007979Y001109D01*
X007421Y002390D02*
X006081Y002390D01*
X006231Y002685D02*
X007270Y002685D01*
X007283Y002784D02*
X006219Y002784D01*
X006177Y002882D02*
X007325Y002882D01*
X007427Y002981D02*
X006074Y002981D01*
X005688Y002390D02*
X002235Y002390D01*
X002235Y002291D02*
X009455Y002291D01*
X009455Y002193D02*
X002235Y002193D01*
X002235Y002094D02*
X009455Y002094D01*
X009455Y001996D02*
X008987Y001996D01*
X008987Y001897D02*
X009455Y001897D01*
X009455Y001799D02*
X008987Y001799D01*
X008987Y001700D02*
X009455Y001700D01*
X009447Y001602D02*
X008987Y001602D01*
X008987Y001503D02*
X009416Y001503D01*
X009382Y001405D02*
X008987Y001405D01*
X008987Y001306D02*
X009310Y001306D01*
X009212Y001208D02*
X008987Y001208D01*
X008987Y001109D02*
X009038Y001109D01*
X008922Y003086D02*
X008044Y003086D01*
X007979Y003150D01*
X007979Y004186D01*
X008044Y004251D01*
X008922Y004251D01*
X008987Y004186D01*
X008987Y003150D01*
X008922Y003086D01*
X008987Y003178D02*
X009455Y003178D01*
X009455Y003276D02*
X008987Y003276D01*
X008987Y003375D02*
X009455Y003375D01*
X009455Y003473D02*
X008987Y003473D01*
X008987Y003572D02*
X009455Y003572D01*
X009455Y003670D02*
X008987Y003670D01*
X008987Y003769D02*
X009455Y003769D01*
X009455Y003867D02*
X008987Y003867D01*
X008987Y003966D02*
X009455Y003966D01*
X009455Y004064D02*
X008987Y004064D01*
X008987Y004163D02*
X009455Y004163D01*
X009455Y004261D02*
X007629Y004261D01*
X007629Y004163D02*
X007979Y004163D01*
X007979Y004064D02*
X007629Y004064D01*
X007629Y003966D02*
X007979Y003966D01*
X007979Y003867D02*
X007629Y003867D01*
X007629Y003769D02*
X007979Y003769D01*
X007979Y003670D02*
X007629Y003670D01*
X007629Y003572D02*
X007979Y003572D01*
X007979Y003473D02*
X007629Y003473D01*
X007617Y003375D02*
X007979Y003375D01*
X007381Y003375D02*
X007381Y003375D01*
X007381Y003473D02*
X007381Y003473D01*
X007381Y003572D02*
X007381Y003572D01*
X007381Y003670D02*
X007381Y003670D01*
X007381Y003769D02*
X007381Y003769D01*
X007381Y003867D02*
X007381Y003867D01*
X007381Y003966D02*
X007381Y003966D01*
X007381Y004064D02*
X007381Y004064D01*
X007381Y004163D02*
X007381Y004163D01*
X007381Y004261D02*
X007381Y004261D01*
X007381Y004360D02*
X007381Y004360D01*
X007381Y004458D02*
X007381Y004458D01*
X007578Y004458D02*
X009455Y004458D01*
X009455Y004360D02*
X007629Y004360D01*
X007374Y004852D02*
X009455Y004852D01*
X009455Y004754D02*
X007275Y004754D01*
X007177Y004655D02*
X009455Y004655D01*
X009455Y004557D02*
X007078Y004557D01*
X006980Y004458D02*
X007184Y004458D01*
X007472Y004951D02*
X009455Y004951D01*
X009455Y005049D02*
X007768Y005049D01*
X007866Y005148D02*
X009455Y005148D01*
X009455Y005246D02*
X007965Y005246D01*
X007833Y005342D02*
X007833Y005597D01*
X007833Y005342D02*
X007637Y005145D01*
X007440Y005145D01*
X006751Y004456D01*
X006751Y003890D01*
X006436Y003890D02*
X006436Y004436D01*
X007243Y005243D01*
X007243Y005637D01*
X006926Y005345D02*
X006851Y005345D01*
X006851Y005443D02*
X006916Y005443D01*
X006916Y005542D02*
X006851Y005542D01*
X006851Y005640D02*
X006916Y005640D01*
X006916Y005739D02*
X006814Y005739D01*
X006916Y005837D02*
X004834Y005837D01*
X004834Y005739D02*
X004909Y005739D01*
X004909Y005640D02*
X004830Y005640D01*
X004794Y005542D02*
X004909Y005542D01*
X004909Y005443D02*
X004794Y005443D01*
X004794Y005345D02*
X004909Y005345D01*
X004909Y005246D02*
X004794Y005246D01*
X004794Y005148D02*
X004908Y005148D01*
X004869Y005049D02*
X004794Y005049D01*
X004869Y004951D02*
X003240Y004951D01*
X003338Y005049D02*
X003590Y005049D01*
X003590Y005148D02*
X003437Y005148D01*
X003385Y005322D02*
X004192Y005322D01*
X004140Y005668D02*
X003654Y005668D01*
X003590Y005604D01*
X003590Y005482D01*
X003318Y005482D01*
X003225Y005388D01*
X002354Y004517D01*
X001585Y004517D01*
X001585Y004582D01*
X002170Y004582D01*
X002235Y004646D01*
X002235Y005210D01*
X002170Y005274D01*
X002118Y005274D01*
X002118Y005657D01*
X002704Y006242D01*
X004220Y006242D01*
X004198Y006229D01*
X004170Y006201D01*
X004150Y006167D01*
X004140Y006129D01*
X004140Y005941D01*
X004439Y005941D01*
X004439Y005844D01*
X004140Y005844D01*
X004140Y005668D01*
X004140Y005739D02*
X002200Y005739D01*
X002118Y005640D02*
X003626Y005640D01*
X003590Y005542D02*
X002118Y005542D01*
X002118Y005443D02*
X003280Y005443D01*
X003181Y005345D02*
X002118Y005345D01*
X002198Y005246D02*
X003083Y005246D01*
X002984Y005148D02*
X002235Y005148D01*
X002235Y005049D02*
X002886Y005049D01*
X002787Y004951D02*
X002235Y004951D01*
X002235Y004852D02*
X002689Y004852D01*
X002590Y004754D02*
X002235Y004754D01*
X002235Y004655D02*
X002492Y004655D01*
X002393Y004557D02*
X001585Y004557D01*
X001585Y004163D02*
X004515Y004163D01*
X004515Y004064D02*
X003119Y004064D01*
X003244Y003966D02*
X004515Y003966D01*
X004515Y003867D02*
X003312Y003867D01*
X003352Y003769D02*
X004515Y003769D01*
X004515Y003670D02*
X003357Y003670D01*
X003354Y003572D02*
X004515Y003572D01*
X004515Y003473D02*
X003313Y003473D01*
X003249Y003375D02*
X004515Y003375D01*
X004515Y003276D02*
X003130Y003276D01*
X002695Y003276D02*
X002275Y003276D01*
X002275Y003178D02*
X004515Y003178D01*
X004515Y001996D02*
X002235Y001996D01*
X002235Y001897D02*
X002638Y001897D01*
X003187Y001897D02*
X004515Y001897D01*
X004515Y001799D02*
X003285Y001799D01*
X003329Y001700D02*
X004515Y001700D01*
X004515Y001602D02*
X003357Y001602D01*
X003357Y001503D02*
X004515Y001503D01*
X004515Y001405D02*
X003337Y001405D01*
X003296Y001306D02*
X004515Y001306D01*
X004515Y001208D02*
X003207Y001208D01*
X003031Y001109D02*
X004515Y001109D01*
X005549Y002587D02*
X000769Y002587D01*
X000769Y002685D02*
X005538Y002685D01*
X005551Y002784D02*
X000769Y002784D01*
X000769Y002882D02*
X005592Y002882D01*
X005590Y002488D02*
X002200Y002488D01*
X001683Y003473D02*
X001583Y003473D01*
X001583Y003375D02*
X000769Y003375D01*
X000769Y003473D02*
X000991Y003473D01*
X000991Y003572D02*
X000885Y003572D01*
X000916Y003670D02*
X000971Y003670D01*
X001042Y003865D02*
X001278Y003865D01*
X001042Y003865D02*
X000944Y003964D01*
X000944Y004751D01*
X000668Y005027D01*
X000668Y006129D01*
X000452Y006621D02*
X000353Y006719D01*
X000353Y015676D01*
X000550Y015873D01*
X001436Y015873D01*
X001436Y015282D02*
X000648Y015282D01*
X000550Y015184D01*
X000550Y007153D01*
X000668Y007034D01*
X000710Y007413D02*
X000877Y007413D01*
X000710Y007512D02*
X001676Y007512D01*
X001666Y007610D02*
X000710Y007610D01*
X000710Y007709D02*
X001666Y007709D01*
X001666Y007807D02*
X000710Y007807D01*
X000710Y007906D02*
X001666Y007906D01*
X001666Y008103D02*
X000710Y008103D01*
X000710Y008201D02*
X001666Y008201D01*
X001666Y008300D02*
X000710Y008300D01*
X000710Y008398D02*
X001666Y008398D01*
X001486Y008497D02*
X001386Y008497D01*
X001386Y008426D02*
X001386Y008736D01*
X000856Y008736D01*
X000856Y008557D01*
X000866Y008519D01*
X000886Y008484D01*
X000914Y008456D01*
X000948Y008437D01*
X000986Y008426D01*
X001386Y008426D01*
X001386Y008595D02*
X001486Y008595D01*
X001486Y008694D02*
X001386Y008694D01*
X001386Y008792D02*
X000710Y008792D01*
X000710Y008694D02*
X000856Y008694D01*
X000856Y008595D02*
X000710Y008595D01*
X000710Y008497D02*
X000879Y008497D01*
X000856Y008891D02*
X000710Y008891D01*
X000710Y008989D02*
X000856Y008989D01*
X000885Y009088D02*
X000710Y009088D01*
X000710Y009186D02*
X000896Y009186D01*
X000896Y009285D02*
X000710Y009285D01*
X000710Y009383D02*
X000896Y009383D01*
X000896Y009482D02*
X000710Y009482D01*
X000710Y009580D02*
X000896Y009580D01*
X000929Y009679D02*
X000710Y009679D01*
X000710Y009777D02*
X000896Y009777D01*
X000896Y009876D02*
X000710Y009876D01*
X000710Y009974D02*
X000896Y009974D01*
X000896Y010073D02*
X000710Y010073D01*
X001486Y008836D02*
X001486Y008736D01*
X002016Y008736D01*
X002016Y008557D01*
X002006Y008519D01*
X001986Y008484D01*
X001976Y008475D01*
X001976Y008049D01*
X002076Y008049D01*
X002076Y008579D01*
X002256Y008579D01*
X002294Y008569D01*
X002328Y008549D01*
X002350Y008528D01*
X002361Y008539D01*
X002872Y008539D01*
X002912Y008499D01*
X002952Y008539D01*
X003463Y008539D01*
X003503Y008499D01*
X003542Y008539D01*
X004054Y008539D01*
X004093Y008499D01*
X004133Y008539D01*
X004644Y008539D01*
X004684Y008499D01*
X004724Y008539D01*
X005235Y008539D01*
X005274Y008499D01*
X005314Y008539D01*
X005825Y008539D01*
X005837Y008528D01*
X005858Y008549D01*
X005892Y008569D01*
X005930Y008579D01*
X006110Y008579D01*
X006110Y008049D01*
X006210Y008049D01*
X006210Y008475D01*
X006201Y008484D01*
X006181Y008519D01*
X006171Y008557D01*
X006171Y008736D01*
X006701Y008736D01*
X006801Y008736D01*
X006801Y008426D01*
X007201Y008426D01*
X007239Y008437D01*
X007273Y008456D01*
X007301Y008484D01*
X007321Y008519D01*
X007331Y008557D01*
X007331Y008736D01*
X006801Y008736D01*
X006801Y008836D01*
X007331Y008836D01*
X007331Y009016D01*
X007321Y009054D01*
X007301Y009089D01*
X007279Y009110D01*
X007291Y009121D01*
X007291Y009217D01*
X007369Y009217D01*
X007369Y009213D01*
X007434Y009149D01*
X007536Y009149D01*
X007536Y007637D01*
X007434Y007637D01*
X007369Y007572D01*
X007369Y006918D01*
X007009Y007278D01*
X006915Y007372D01*
X005833Y007372D01*
X005745Y007459D01*
X005825Y007459D01*
X005837Y007470D01*
X005858Y007449D01*
X005892Y007429D01*
X005930Y007419D01*
X006110Y007419D01*
X006110Y007949D01*
X006210Y007949D01*
X006210Y007419D01*
X006390Y007419D01*
X006428Y007429D01*
X006462Y007449D01*
X006490Y007477D01*
X006510Y007511D01*
X006520Y007549D01*
X006520Y007949D01*
X006210Y007949D01*
X006210Y008049D01*
X006520Y008049D01*
X006520Y008426D01*
X006701Y008426D01*
X006701Y008736D01*
X006701Y008836D01*
X006171Y008836D01*
X006171Y009016D01*
X006181Y009054D01*
X006201Y009089D01*
X006222Y009110D01*
X006211Y009121D01*
X006211Y009633D01*
X006250Y009672D01*
X006211Y009712D01*
X006211Y010164D01*
X001976Y010164D01*
X001976Y009712D01*
X001936Y009672D01*
X001961Y009647D01*
X001967Y009647D01*
X002028Y009708D01*
X002221Y009708D01*
X002358Y009572D01*
X002358Y009520D01*
X002395Y009431D01*
X002395Y009323D01*
X002358Y009234D01*
X002358Y009182D01*
X002221Y009046D01*
X002028Y009046D01*
X001987Y009087D01*
X002006Y009054D01*
X002016Y009016D01*
X002016Y008836D01*
X001486Y008836D01*
X001486Y008792D02*
X006701Y008792D01*
X006701Y008694D02*
X006801Y008694D01*
X006801Y008792D02*
X007536Y008792D01*
X007536Y008694D02*
X007331Y008694D01*
X007331Y008595D02*
X007536Y008595D01*
X007536Y008497D02*
X007308Y008497D01*
X007331Y008891D02*
X007536Y008891D01*
X007536Y008989D02*
X007331Y008989D01*
X007301Y009088D02*
X007536Y009088D01*
X007637Y009377D02*
X006751Y009377D01*
X006701Y008595D02*
X006801Y008595D01*
X006801Y008497D02*
X006701Y008497D01*
X006520Y008398D02*
X007536Y008398D01*
X007536Y008300D02*
X006520Y008300D01*
X006520Y008201D02*
X007536Y008201D01*
X007536Y008103D02*
X006520Y008103D01*
X006520Y007906D02*
X007536Y007906D01*
X007536Y008004D02*
X006210Y008004D01*
X006210Y007906D02*
X006110Y007906D01*
X006110Y007807D02*
X006210Y007807D01*
X006210Y007709D02*
X006110Y007709D01*
X006110Y007610D02*
X006210Y007610D01*
X006210Y007512D02*
X006110Y007512D01*
X005791Y007413D02*
X007369Y007413D01*
X007369Y007315D02*
X006972Y007315D01*
X007009Y007278D02*
X007009Y007278D01*
X007071Y007216D02*
X007369Y007216D01*
X007369Y007118D02*
X007169Y007118D01*
X007268Y007019D02*
X007369Y007019D01*
X007366Y006921D02*
X007369Y006921D01*
X007440Y006621D02*
X007735Y006621D01*
X007833Y006523D01*
X007833Y006267D01*
X007957Y006625D02*
X009455Y006625D01*
X009455Y006527D02*
X008142Y006527D01*
X008160Y006428D02*
X009455Y006428D01*
X009455Y006330D02*
X008160Y006330D01*
X008160Y006231D02*
X009455Y006231D01*
X009455Y006133D02*
X008160Y006133D01*
X008160Y006034D02*
X009455Y006034D01*
X009455Y005936D02*
X004535Y005936D01*
X004439Y005936D02*
X002397Y005936D01*
X002299Y005837D02*
X004140Y005837D01*
X004140Y006034D02*
X002496Y006034D01*
X002594Y006133D02*
X004141Y006133D01*
X004202Y006231D02*
X002693Y006231D01*
X002352Y006428D02*
X001627Y006428D01*
X001644Y006330D02*
X002254Y006330D01*
X002155Y006231D02*
X001644Y006231D01*
X001644Y006133D02*
X002057Y006133D01*
X001958Y006034D02*
X001644Y006034D01*
X001644Y005936D02*
X001860Y005936D01*
X001761Y005837D02*
X001635Y005837D01*
X001663Y005739D02*
X001738Y005739D01*
X001738Y005640D02*
X001669Y005640D01*
X001669Y005542D02*
X001738Y005542D01*
X001738Y005443D02*
X001572Y005443D01*
X001738Y005345D02*
X001212Y005345D01*
X001212Y005443D02*
X001300Y005443D01*
X001436Y005637D02*
X001416Y005656D01*
X001416Y006129D01*
X001470Y006527D02*
X002283Y006527D01*
X002187Y006625D02*
X001568Y006625D01*
X001616Y006724D02*
X002187Y006724D01*
X002187Y006822D02*
X001644Y006822D01*
X001644Y006921D02*
X002187Y006921D01*
X002194Y007019D02*
X001644Y007019D01*
X001644Y007118D02*
X002292Y007118D01*
X002484Y007413D02*
X001207Y007413D01*
X001051Y007413D02*
X001033Y007413D01*
X001033Y007315D02*
X001051Y007315D01*
X001051Y007216D02*
X001033Y007216D01*
X001033Y007118D02*
X001051Y007118D01*
X001436Y006719D02*
X001337Y006621D01*
X000452Y006621D01*
X000710Y008004D02*
X001976Y008004D01*
X001976Y007906D02*
X002076Y007906D01*
X002076Y007807D02*
X001976Y007807D01*
X001976Y007709D02*
X002076Y007709D01*
X002076Y007610D02*
X001976Y007610D01*
X001976Y007512D02*
X002076Y007512D01*
X002076Y008103D02*
X001976Y008103D01*
X001976Y008201D02*
X002076Y008201D01*
X002076Y008300D02*
X001976Y008300D01*
X001976Y008398D02*
X002076Y008398D01*
X002076Y008497D02*
X001993Y008497D01*
X002016Y008595D02*
X006171Y008595D01*
X006171Y008694D02*
X002016Y008694D01*
X002016Y008891D02*
X006171Y008891D01*
X006171Y008989D02*
X002016Y008989D01*
X002264Y009088D02*
X006200Y009088D01*
X006211Y009186D02*
X002358Y009186D01*
X002379Y009285D02*
X006211Y009285D01*
X006211Y009383D02*
X002395Y009383D01*
X002374Y009482D02*
X006211Y009482D01*
X006211Y009580D02*
X002349Y009580D01*
X002251Y009679D02*
X006244Y009679D01*
X006211Y009777D02*
X001976Y009777D01*
X001976Y009876D02*
X006211Y009876D01*
X006211Y009974D02*
X001976Y009974D01*
X001976Y010073D02*
X006211Y010073D01*
X006193Y008497D02*
X006110Y008497D01*
X006110Y008398D02*
X006210Y008398D01*
X006210Y008300D02*
X006110Y008300D01*
X006110Y008201D02*
X006210Y008201D01*
X006210Y008103D02*
X006110Y008103D01*
X006520Y007807D02*
X007536Y007807D01*
X007536Y007709D02*
X006520Y007709D01*
X006520Y007610D02*
X007407Y007610D01*
X007369Y007512D02*
X006510Y007512D01*
X006751Y007015D02*
X005668Y007015D01*
X005274Y007408D01*
X002715Y007408D01*
X002617Y007507D01*
X002617Y007999D01*
X002583Y007315D02*
X001644Y007315D01*
X001644Y007216D02*
X005240Y007216D01*
X005339Y007118D02*
X003769Y007118D01*
X003810Y007019D02*
X005437Y007019D01*
X005536Y006921D02*
X003810Y006921D01*
X003810Y006724D02*
X004180Y006724D01*
X004180Y006822D02*
X003492Y006822D01*
X003492Y006921D02*
X003395Y006921D01*
X003395Y007019D02*
X003492Y007019D01*
X003492Y007118D02*
X003395Y007118D01*
X003118Y007118D02*
X003043Y007118D01*
X003810Y006625D02*
X004180Y006625D01*
X004772Y006231D02*
X004909Y006231D01*
X004909Y006133D02*
X004833Y006133D01*
X004834Y006034D02*
X006916Y006034D01*
X006916Y006133D02*
X006822Y006133D01*
X006851Y006231D02*
X006916Y006231D01*
X006916Y006330D02*
X006851Y006330D01*
X006851Y006428D02*
X006916Y006428D01*
X006934Y006527D02*
X006851Y006527D01*
X006851Y006625D02*
X006914Y006625D01*
X006717Y006822D02*
X004794Y006822D01*
X004794Y006724D02*
X004909Y006724D01*
X004909Y006625D02*
X004794Y006625D01*
X005443Y006625D02*
X005561Y006625D01*
X005666Y006724D02*
X005443Y006724D01*
X005443Y006231D02*
X005666Y006231D01*
X005696Y006133D02*
X005443Y006133D01*
X005443Y005739D02*
X005703Y005739D01*
X005666Y005640D02*
X005443Y005640D01*
X005187Y004852D02*
X003141Y004852D01*
X003043Y004754D02*
X004869Y004754D01*
X004869Y004801D02*
X004869Y004633D01*
X004879Y004595D01*
X004898Y004560D01*
X004926Y004533D01*
X004961Y004513D01*
X004999Y004503D01*
X005187Y004503D01*
X005187Y004801D01*
X004869Y004801D01*
X004869Y004655D02*
X002944Y004655D01*
X002846Y004557D02*
X004902Y004557D01*
X005187Y004557D02*
X005283Y004557D01*
X005283Y004655D02*
X005187Y004655D01*
X005187Y004754D02*
X005283Y004754D01*
X005568Y004557D02*
X005628Y004557D01*
X005931Y004458D02*
X002747Y004458D01*
X002649Y004360D02*
X005912Y004360D01*
X006311Y004557D02*
X006330Y004557D01*
X006311Y004655D02*
X006429Y004655D01*
X006432Y004754D02*
X006527Y004754D01*
X006530Y004852D02*
X006626Y004852D01*
X006629Y004951D02*
X006724Y004951D01*
X006727Y005049D02*
X006823Y005049D01*
X006851Y005148D02*
X006921Y005148D01*
X006851Y005246D02*
X007020Y005246D01*
X006444Y006133D02*
X006074Y006133D01*
X006103Y006231D02*
X006414Y006231D01*
X006414Y006330D02*
X006297Y006330D01*
X006393Y006428D02*
X006414Y006428D01*
X006414Y006527D02*
X006393Y006527D01*
X006387Y006625D02*
X006414Y006625D01*
X006414Y006724D02*
X006288Y006724D01*
X006751Y007015D02*
X007243Y006523D01*
X007243Y006267D01*
X007440Y006621D02*
X006849Y007212D01*
X005767Y007212D01*
X005570Y007408D01*
X005570Y007999D01*
X006255Y005739D02*
X006263Y005739D01*
X006255Y005640D02*
X006263Y005640D01*
X006255Y005542D02*
X006263Y005542D01*
X006255Y005443D02*
X006263Y005443D01*
X007696Y007172D02*
X007696Y009613D01*
X008089Y010007D01*
X008089Y010361D01*
X007396Y009186D02*
X007291Y009186D01*
X007856Y008201D02*
X007892Y008201D01*
X007856Y008103D02*
X009455Y008103D01*
X009455Y008201D02*
X008169Y008201D01*
X008263Y008300D02*
X009455Y008300D01*
X009455Y008398D02*
X008276Y008398D01*
X008375Y008497D02*
X009455Y008497D01*
X009455Y008595D02*
X008473Y008595D01*
X008572Y008694D02*
X009455Y008694D01*
X009455Y008792D02*
X008670Y008792D01*
X008769Y008891D02*
X009455Y008891D01*
X009455Y008989D02*
X008867Y008989D01*
X008889Y009088D02*
X009455Y009088D01*
X009202Y009186D02*
X009102Y009186D01*
X009102Y009285D02*
X009202Y009285D01*
X009202Y009383D02*
X009102Y009383D01*
X009102Y009482D02*
X009202Y009482D01*
X009202Y009663D02*
X009102Y009663D01*
X009102Y010118D01*
X009066Y010118D01*
X009066Y010164D01*
X009211Y010164D01*
X009258Y010118D01*
X009202Y010118D01*
X009202Y009663D01*
X009202Y009679D02*
X009102Y009679D01*
X009102Y009777D02*
X009202Y009777D01*
X009202Y009876D02*
X009102Y009876D01*
X009102Y009974D02*
X009202Y009974D01*
X009202Y010073D02*
X009102Y010073D01*
X009455Y008004D02*
X007856Y008004D01*
X007856Y007906D02*
X009455Y007906D01*
X009455Y007807D02*
X007856Y007807D01*
X007856Y007709D02*
X009455Y007709D01*
X009202Y007610D02*
X009102Y007610D01*
X009102Y007677D02*
X008916Y007677D01*
X008878Y007666D01*
X008844Y007647D01*
X008816Y007619D01*
X008796Y007584D01*
X008786Y007546D01*
X008786Y007222D01*
X009102Y007222D01*
X009102Y007677D01*
X009102Y007512D02*
X009202Y007512D01*
X009202Y007413D02*
X009102Y007413D01*
X009102Y007315D02*
X009202Y007315D01*
X009102Y007216D02*
X008022Y007216D01*
X008022Y007118D02*
X008786Y007118D01*
X008786Y007019D02*
X008022Y007019D01*
X008022Y006921D02*
X008786Y006921D01*
X008786Y006822D02*
X008022Y006822D01*
X007974Y006724D02*
X008818Y006724D01*
X009102Y006724D02*
X009202Y006724D01*
X009202Y006822D02*
X009102Y006822D01*
X009102Y006921D02*
X009202Y006921D01*
X009202Y007019D02*
X009102Y007019D01*
X009102Y007118D02*
X009202Y007118D01*
X008786Y007315D02*
X008022Y007315D01*
X008022Y007413D02*
X008786Y007413D01*
X008786Y007512D02*
X008022Y007512D01*
X007984Y007610D02*
X008811Y007610D01*
X009455Y005837D02*
X008160Y005837D01*
X008160Y005739D02*
X009455Y005739D01*
X009455Y005640D02*
X008160Y005640D01*
X008160Y005542D02*
X009455Y005542D01*
X009455Y005443D02*
X008160Y005443D01*
X008150Y005345D02*
X009455Y005345D01*
X003385Y005322D02*
X002420Y004357D01*
X001278Y004357D01*
X001585Y003670D02*
X001683Y003670D01*
X001683Y003572D02*
X001583Y003572D01*
X001076Y002981D02*
X000769Y002981D01*
X000769Y003079D02*
X000995Y003079D01*
X000991Y003178D02*
X000769Y003178D01*
X000769Y003276D02*
X000991Y003276D01*
X001065Y002488D02*
X000775Y002488D01*
X000874Y002390D02*
X001031Y002390D01*
X000747Y004200D02*
X000609Y004357D01*
X000648Y004416D01*
X000648Y004653D01*
X001436Y006719D02*
X001416Y006936D01*
X001416Y007034D01*
X001943Y009679D02*
X001999Y009679D01*
D24*
X002125Y009475D03*
X002125Y009279D03*
X002026Y008885D03*
X002026Y008688D03*
X001633Y007999D03*
X001436Y008393D03*
X001042Y007507D03*
X002026Y007310D03*
X002420Y006916D03*
X002420Y006719D03*
X001436Y005637D03*
X000648Y004653D03*
X000944Y003373D03*
X000944Y002881D03*
X000550Y001700D03*
X000944Y001306D03*
X001633Y002881D03*
X001731Y003964D03*
X002322Y003373D03*
X002125Y001306D03*
X004093Y001306D03*
X005274Y004456D03*
X004782Y004849D03*
X004881Y005932D03*
X004093Y005932D03*
X003896Y006818D03*
X003700Y008786D03*
X003700Y009968D03*
X004487Y009968D03*
X004487Y008786D03*
X005274Y008786D03*
X005274Y009968D03*
X006062Y009968D03*
X006062Y008786D03*
X006554Y007999D03*
X006751Y008393D03*
X006160Y006523D03*
X006259Y005834D03*
X007341Y004653D03*
X007735Y003865D03*
X007637Y001306D03*
X006751Y001306D03*
X005865Y001306D03*
X009211Y001700D03*
X009211Y002487D03*
X009211Y003275D03*
X009211Y004062D03*
X009211Y004849D03*
X009211Y005637D03*
X009211Y006424D03*
X009211Y007999D03*
X009211Y008786D03*
X008030Y008393D03*
X002912Y008786D03*
X002912Y009968D03*
X002125Y009968D03*
D25*
X002125Y009475D02*
X002125Y009377D01*
X002125Y009279D01*
X001633Y009377D02*
X001534Y009475D01*
X001436Y009377D01*
X002420Y006916D02*
X002519Y006818D01*
X002420Y006719D01*
X002519Y006818D02*
X002774Y006818D01*
X002774Y006491D01*
X002715Y006432D01*
X002625Y006432D01*
X001928Y005735D01*
X001928Y005145D01*
X001633Y004928D02*
X001633Y004849D01*
X002715Y006432D02*
X004487Y006432D01*
X004487Y006562D01*
X004487Y006432D02*
X005176Y006432D01*
X005873Y006432D01*
X005885Y006444D01*
X005648Y006444D01*
X005865Y006326D02*
X005885Y006345D01*
X005873Y005432D02*
X005885Y005420D01*
X005885Y004869D01*
X005904Y004849D01*
X006160Y004849D01*
X006121Y004810D01*
X006121Y003890D01*
X006160Y004849D02*
X006259Y004849D01*
X006633Y005223D01*
X006633Y005420D01*
X005873Y005432D02*
X005176Y005432D01*
X007637Y009377D02*
X007696Y009436D01*
X007696Y009613D01*
D26*
X007243Y009968D02*
X007538Y010263D01*
X007538Y010755D01*
X007794Y011011D01*
X008129Y011011D01*
X008168Y011641D02*
X008129Y011680D01*
X008168Y011641D02*
X008719Y011641D01*
X008719Y011050D02*
X008719Y010401D01*
X008759Y010361D01*
X008719Y010322D01*
X008719Y009082D01*
X008030Y008393D01*
X007243Y009968D02*
X006751Y009968D01*
X006160Y006523D02*
X006082Y006444D01*
X005885Y006444D01*
X001928Y005145D02*
X001711Y004928D01*
X001633Y004928D01*
X001160Y004928D01*
X001042Y005046D01*
X001042Y006129D01*
D27*
X001633Y009377D02*
X002125Y009377D01*
M02*
