G75*
G70*
%OFA0B0*%
%FSLAX24Y24*%
%IPPOS*%
%LPD*%
%AMOC8*
5,1,8,0,0,1.08239X$1,22.5*
%
%ADD10C,0.0000*%
%ADD11C,0.0100*%
%ADD12C,0.0246*%
%ADD13C,0.0120*%
%ADD14C,0.0320*%
%ADD15C,0.0160*%
D10*
X000944Y000912D02*
X008818Y000912D01*
X008818Y000913D02*
X008872Y000915D01*
X008925Y000920D01*
X008978Y000929D01*
X009030Y000942D01*
X009082Y000958D01*
X009132Y000978D01*
X009180Y001001D01*
X009227Y001028D01*
X009272Y001057D01*
X009315Y001090D01*
X009355Y001125D01*
X009393Y001163D01*
X009428Y001203D01*
X009461Y001246D01*
X009490Y001291D01*
X009517Y001338D01*
X009540Y001386D01*
X009560Y001436D01*
X009576Y001488D01*
X009589Y001540D01*
X009598Y001593D01*
X009603Y001646D01*
X009605Y001700D01*
X009605Y017842D01*
X009603Y017896D01*
X009598Y017949D01*
X009589Y018002D01*
X009576Y018054D01*
X009560Y018106D01*
X009540Y018156D01*
X009517Y018204D01*
X009490Y018251D01*
X009461Y018296D01*
X009428Y018339D01*
X009393Y018379D01*
X009355Y018417D01*
X009315Y018452D01*
X009272Y018485D01*
X009227Y018514D01*
X009180Y018541D01*
X009132Y018564D01*
X009082Y018584D01*
X009030Y018600D01*
X008978Y018613D01*
X008925Y018622D01*
X008872Y018627D01*
X008818Y018629D01*
X000944Y018629D01*
X000890Y018627D01*
X000837Y018622D01*
X000784Y018613D01*
X000732Y018600D01*
X000680Y018584D01*
X000630Y018564D01*
X000582Y018541D01*
X000535Y018514D01*
X000490Y018485D01*
X000447Y018452D01*
X000407Y018417D01*
X000369Y018379D01*
X000334Y018339D01*
X000301Y018296D01*
X000272Y018251D01*
X000245Y018204D01*
X000222Y018156D01*
X000202Y018106D01*
X000186Y018054D01*
X000173Y018002D01*
X000164Y017949D01*
X000159Y017896D01*
X000157Y017842D01*
X000156Y017842D02*
X000156Y001700D01*
X000157Y001700D02*
X000159Y001646D01*
X000164Y001593D01*
X000173Y001540D01*
X000186Y001488D01*
X000202Y001436D01*
X000222Y001386D01*
X000245Y001338D01*
X000272Y001291D01*
X000301Y001246D01*
X000334Y001203D01*
X000369Y001163D01*
X000407Y001125D01*
X000447Y001090D01*
X000490Y001057D01*
X000535Y001028D01*
X000582Y001001D01*
X000630Y000978D01*
X000680Y000958D01*
X000732Y000942D01*
X000784Y000929D01*
X000837Y000920D01*
X000890Y000915D01*
X000944Y000913D01*
X002617Y001542D02*
X002619Y001576D01*
X002625Y001610D01*
X002635Y001643D01*
X002648Y001674D01*
X002666Y001704D01*
X002686Y001732D01*
X002710Y001757D01*
X002736Y001779D01*
X002764Y001797D01*
X002795Y001813D01*
X002827Y001825D01*
X002861Y001833D01*
X002895Y001837D01*
X002929Y001837D01*
X002963Y001833D01*
X002997Y001825D01*
X003029Y001813D01*
X003059Y001797D01*
X003088Y001779D01*
X003114Y001757D01*
X003138Y001732D01*
X003158Y001704D01*
X003176Y001674D01*
X003189Y001643D01*
X003199Y001610D01*
X003205Y001576D01*
X003207Y001542D01*
X003205Y001508D01*
X003199Y001474D01*
X003189Y001441D01*
X003176Y001410D01*
X003158Y001380D01*
X003138Y001352D01*
X003114Y001327D01*
X003088Y001305D01*
X003060Y001287D01*
X003029Y001271D01*
X002997Y001259D01*
X002963Y001251D01*
X002929Y001247D01*
X002895Y001247D01*
X002861Y001251D01*
X002827Y001259D01*
X002795Y001271D01*
X002764Y001287D01*
X002736Y001305D01*
X002710Y001327D01*
X002686Y001352D01*
X002666Y001380D01*
X002648Y001410D01*
X002635Y001441D01*
X002625Y001474D01*
X002619Y001508D01*
X002617Y001542D01*
X002617Y003668D02*
X002619Y003702D01*
X002625Y003736D01*
X002635Y003769D01*
X002648Y003800D01*
X002666Y003830D01*
X002686Y003858D01*
X002710Y003883D01*
X002736Y003905D01*
X002764Y003923D01*
X002795Y003939D01*
X002827Y003951D01*
X002861Y003959D01*
X002895Y003963D01*
X002929Y003963D01*
X002963Y003959D01*
X002997Y003951D01*
X003029Y003939D01*
X003059Y003923D01*
X003088Y003905D01*
X003114Y003883D01*
X003138Y003858D01*
X003158Y003830D01*
X003176Y003800D01*
X003189Y003769D01*
X003199Y003736D01*
X003205Y003702D01*
X003207Y003668D01*
X003205Y003634D01*
X003199Y003600D01*
X003189Y003567D01*
X003176Y003536D01*
X003158Y003506D01*
X003138Y003478D01*
X003114Y003453D01*
X003088Y003431D01*
X003060Y003413D01*
X003029Y003397D01*
X002997Y003385D01*
X002963Y003377D01*
X002929Y003373D01*
X002895Y003373D01*
X002861Y003377D01*
X002827Y003385D01*
X002795Y003397D01*
X002764Y003413D01*
X002736Y003431D01*
X002710Y003453D01*
X002686Y003478D01*
X002666Y003506D01*
X002648Y003536D01*
X002635Y003567D01*
X002625Y003600D01*
X002619Y003634D01*
X002617Y003668D01*
X005688Y002684D02*
X005690Y002711D01*
X005696Y002738D01*
X005705Y002764D01*
X005718Y002788D01*
X005734Y002811D01*
X005753Y002830D01*
X005775Y002847D01*
X005799Y002861D01*
X005824Y002871D01*
X005851Y002878D01*
X005878Y002881D01*
X005906Y002880D01*
X005933Y002875D01*
X005959Y002867D01*
X005983Y002855D01*
X006006Y002839D01*
X006027Y002821D01*
X006044Y002800D01*
X006059Y002776D01*
X006070Y002751D01*
X006078Y002725D01*
X006082Y002698D01*
X006082Y002670D01*
X006078Y002643D01*
X006070Y002617D01*
X006059Y002592D01*
X006044Y002568D01*
X006027Y002547D01*
X006006Y002529D01*
X005984Y002513D01*
X005959Y002501D01*
X005933Y002493D01*
X005906Y002488D01*
X005878Y002487D01*
X005851Y002490D01*
X005824Y002497D01*
X005799Y002507D01*
X005775Y002521D01*
X005753Y002538D01*
X005734Y002557D01*
X005718Y002580D01*
X005705Y002604D01*
X005696Y002630D01*
X005690Y002657D01*
X005688Y002684D01*
X007420Y002684D02*
X007422Y002711D01*
X007428Y002738D01*
X007437Y002764D01*
X007450Y002788D01*
X007466Y002811D01*
X007485Y002830D01*
X007507Y002847D01*
X007531Y002861D01*
X007556Y002871D01*
X007583Y002878D01*
X007610Y002881D01*
X007638Y002880D01*
X007665Y002875D01*
X007691Y002867D01*
X007715Y002855D01*
X007738Y002839D01*
X007759Y002821D01*
X007776Y002800D01*
X007791Y002776D01*
X007802Y002751D01*
X007810Y002725D01*
X007814Y002698D01*
X007814Y002670D01*
X007810Y002643D01*
X007802Y002617D01*
X007791Y002592D01*
X007776Y002568D01*
X007759Y002547D01*
X007738Y002529D01*
X007716Y002513D01*
X007691Y002501D01*
X007665Y002493D01*
X007638Y002488D01*
X007610Y002487D01*
X007583Y002490D01*
X007556Y002497D01*
X007531Y002507D01*
X007507Y002521D01*
X007485Y002538D01*
X007466Y002557D01*
X007450Y002580D01*
X007437Y002604D01*
X007428Y002630D01*
X007422Y002657D01*
X007420Y002684D01*
D11*
X000654Y001132D02*
X000493Y001249D01*
X000376Y001410D01*
X000314Y001600D01*
X000306Y001700D01*
X000306Y009921D01*
X000550Y010164D01*
X009211Y010164D01*
X009455Y009921D01*
X009455Y001700D01*
X009447Y001600D01*
X009386Y001410D01*
X009268Y001249D01*
X009107Y001132D01*
X008917Y001070D01*
X008818Y001062D01*
X000944Y001062D01*
X000844Y001070D01*
X000654Y001132D01*
X000723Y001109D02*
X002794Y001109D01*
X002824Y001097D02*
X003001Y001097D01*
X003164Y001165D01*
X003290Y001290D01*
X003357Y001454D01*
X003357Y001631D01*
X003290Y001795D01*
X003164Y001920D01*
X003001Y001988D01*
X002824Y001988D01*
X002660Y001920D01*
X002535Y001795D01*
X002467Y001631D01*
X002467Y001454D01*
X002535Y001290D01*
X002660Y001165D01*
X002824Y001097D01*
X002617Y001208D02*
X000550Y001208D01*
X000451Y001306D02*
X002528Y001306D01*
X002487Y001405D02*
X000380Y001405D01*
X000346Y001503D02*
X002467Y001503D01*
X002467Y001602D02*
X000314Y001602D01*
X000306Y001700D02*
X002496Y001700D01*
X002539Y001799D02*
X000306Y001799D01*
X000306Y001897D02*
X002638Y001897D01*
X003187Y001897D02*
X009455Y001897D01*
X009455Y001799D02*
X003285Y001799D01*
X003329Y001700D02*
X009455Y001700D01*
X009447Y001602D02*
X003357Y001602D01*
X003357Y001503D02*
X009416Y001503D01*
X009382Y001405D02*
X003337Y001405D01*
X003296Y001306D02*
X009310Y001306D01*
X009212Y001208D02*
X003207Y001208D01*
X003031Y001109D02*
X009038Y001109D01*
X009455Y001996D02*
X000306Y001996D01*
X000306Y002094D02*
X009455Y002094D01*
X009455Y002193D02*
X000306Y002193D01*
X000306Y002291D02*
X009455Y002291D01*
X009455Y002390D02*
X007813Y002390D01*
X007911Y002488D01*
X007964Y002615D01*
X007964Y002753D01*
X007911Y002881D01*
X007813Y002978D01*
X007686Y003031D01*
X007548Y003031D01*
X007420Y002978D01*
X007323Y002881D01*
X007270Y002753D01*
X007270Y002615D01*
X007323Y002488D01*
X007420Y002390D01*
X007548Y002337D01*
X007686Y002337D01*
X007813Y002390D01*
X007911Y002488D02*
X009455Y002488D01*
X009455Y002587D02*
X007952Y002587D01*
X007964Y002685D02*
X009455Y002685D01*
X009455Y002784D02*
X007951Y002784D01*
X007909Y002882D02*
X009455Y002882D01*
X009455Y002981D02*
X007807Y002981D01*
X007427Y002981D02*
X006074Y002981D01*
X006081Y002978D02*
X005954Y003031D01*
X005816Y003031D01*
X005688Y002978D01*
X005591Y002881D01*
X005538Y002753D01*
X005538Y002615D01*
X005591Y002488D01*
X005688Y002390D01*
X005816Y002337D01*
X005954Y002337D01*
X006081Y002390D01*
X006179Y002488D01*
X007323Y002488D01*
X007282Y002587D02*
X006220Y002587D01*
X006231Y002615D02*
X006179Y002488D01*
X006231Y002615D02*
X006231Y002753D01*
X006179Y002881D01*
X006081Y002978D01*
X006177Y002882D02*
X007325Y002882D01*
X007283Y002784D02*
X006219Y002784D01*
X006231Y002685D02*
X007270Y002685D01*
X007421Y002390D02*
X006081Y002390D01*
X005688Y002390D02*
X000306Y002390D01*
X000306Y002488D02*
X005590Y002488D01*
X005549Y002587D02*
X000306Y002587D01*
X000306Y002685D02*
X005538Y002685D01*
X005551Y002784D02*
X000306Y002784D01*
X000306Y002882D02*
X005592Y002882D01*
X005695Y002981D02*
X000306Y002981D01*
X000306Y003079D02*
X009455Y003079D01*
X009455Y003178D02*
X000306Y003178D01*
X000306Y003276D02*
X002695Y003276D01*
X002660Y003291D02*
X002824Y003223D01*
X003001Y003223D01*
X003164Y003291D01*
X003290Y003416D01*
X003357Y003580D01*
X003357Y003757D01*
X003290Y003921D01*
X003164Y004046D01*
X003001Y004114D01*
X002824Y004114D01*
X002660Y004046D01*
X002535Y003921D01*
X002467Y003757D01*
X002467Y003580D01*
X002535Y003416D01*
X002660Y003291D01*
X002576Y003375D02*
X000306Y003375D01*
X000306Y003473D02*
X002511Y003473D01*
X002470Y003572D02*
X000306Y003572D01*
X000306Y003670D02*
X002467Y003670D01*
X002472Y003769D02*
X000306Y003769D01*
X000306Y003867D02*
X002513Y003867D01*
X002580Y003966D02*
X000306Y003966D01*
X000306Y004064D02*
X002705Y004064D01*
X003119Y004064D02*
X009455Y004064D01*
X009455Y003966D02*
X003244Y003966D01*
X003312Y003867D02*
X009455Y003867D01*
X009455Y003769D02*
X003352Y003769D01*
X003357Y003670D02*
X009455Y003670D01*
X009455Y003572D02*
X003354Y003572D01*
X003313Y003473D02*
X009455Y003473D01*
X009455Y003375D02*
X003249Y003375D01*
X003130Y003276D02*
X009455Y003276D01*
X009455Y004163D02*
X000306Y004163D01*
X000306Y004261D02*
X009455Y004261D01*
X009455Y004360D02*
X000306Y004360D01*
X000306Y004458D02*
X000513Y004458D01*
X000552Y004420D02*
X000745Y004420D01*
X000881Y004556D01*
X000881Y004659D01*
X001596Y005374D01*
X001596Y005467D01*
X001669Y005540D01*
X001669Y005733D01*
X001532Y005870D01*
X001339Y005870D01*
X001203Y005733D01*
X001203Y005540D01*
X001256Y005487D01*
X000655Y004886D01*
X000552Y004886D01*
X000415Y004749D01*
X000415Y004556D01*
X000552Y004420D01*
X000415Y004557D02*
X000306Y004557D01*
X000306Y004655D02*
X000415Y004655D01*
X000420Y004754D02*
X000306Y004754D01*
X000306Y004852D02*
X000519Y004852D01*
X000648Y004653D02*
X001436Y005440D01*
X001436Y005637D01*
X001203Y005640D02*
X000306Y005640D01*
X000306Y005542D02*
X001203Y005542D01*
X001213Y005443D02*
X000306Y005443D01*
X000306Y005345D02*
X001115Y005345D01*
X001016Y005246D02*
X000306Y005246D01*
X000306Y005148D02*
X000918Y005148D01*
X000819Y005049D02*
X000306Y005049D01*
X000306Y004951D02*
X000721Y004951D01*
X000881Y004655D02*
X009455Y004655D01*
X009455Y004557D02*
X000881Y004557D01*
X000784Y004458D02*
X009455Y004458D01*
X009455Y004754D02*
X000976Y004754D01*
X001075Y004852D02*
X009455Y004852D01*
X009455Y004951D02*
X001173Y004951D01*
X001272Y005049D02*
X009455Y005049D01*
X009455Y005148D02*
X001370Y005148D01*
X001469Y005246D02*
X009455Y005246D01*
X009455Y005345D02*
X001567Y005345D01*
X001596Y005443D02*
X009455Y005443D01*
X009455Y005542D02*
X001669Y005542D01*
X001669Y005640D02*
X009455Y005640D01*
X009455Y005739D02*
X001663Y005739D01*
X001565Y005837D02*
X009455Y005837D01*
X009455Y005936D02*
X000306Y005936D01*
X000306Y006034D02*
X009455Y006034D01*
X009455Y006133D02*
X000306Y006133D01*
X000306Y006231D02*
X009455Y006231D01*
X009455Y006330D02*
X006297Y006330D01*
X006257Y006290D02*
X006393Y006426D01*
X006393Y006515D01*
X008038Y008160D01*
X008127Y008160D01*
X008263Y008296D01*
X008263Y008489D01*
X008127Y008626D01*
X007934Y008626D01*
X007797Y008489D01*
X007797Y008400D01*
X006153Y006756D01*
X006064Y006756D01*
X005927Y006619D01*
X005927Y006426D01*
X006064Y006290D01*
X006257Y006290D01*
X006393Y006428D02*
X009455Y006428D01*
X009455Y006527D02*
X006405Y006527D01*
X006503Y006625D02*
X009455Y006625D01*
X009455Y006724D02*
X006602Y006724D01*
X006700Y006822D02*
X009455Y006822D01*
X009455Y006921D02*
X006799Y006921D01*
X006897Y007019D02*
X009455Y007019D01*
X009455Y007118D02*
X006996Y007118D01*
X007094Y007216D02*
X009455Y007216D01*
X009455Y007315D02*
X007193Y007315D01*
X007291Y007413D02*
X009455Y007413D01*
X009455Y007512D02*
X007390Y007512D01*
X007488Y007610D02*
X009455Y007610D01*
X009455Y007709D02*
X007587Y007709D01*
X007685Y007807D02*
X009455Y007807D01*
X009455Y007906D02*
X007784Y007906D01*
X007882Y008004D02*
X009455Y008004D01*
X009455Y008103D02*
X007981Y008103D01*
X008169Y008201D02*
X009455Y008201D01*
X009455Y008300D02*
X008263Y008300D01*
X008263Y008398D02*
X009455Y008398D01*
X009455Y008497D02*
X008256Y008497D01*
X008157Y008595D02*
X009455Y008595D01*
X009455Y008694D02*
X002690Y008694D01*
X002690Y008792D02*
X009455Y008792D01*
X009455Y008891D02*
X002690Y008891D01*
X002690Y008989D02*
X009455Y008989D01*
X009455Y009088D02*
X002690Y009088D01*
X002690Y009135D02*
X002649Y009235D01*
X002358Y009526D01*
X002358Y009572D01*
X002221Y009708D01*
X002028Y009708D01*
X001892Y009572D01*
X001892Y009520D01*
X001855Y009431D01*
X001855Y009323D01*
X001892Y009234D01*
X001892Y009182D01*
X002028Y009046D01*
X002074Y009046D01*
X002150Y008970D01*
X002150Y006666D01*
X002191Y006567D01*
X002267Y006491D01*
X002366Y006449D01*
X002474Y006449D01*
X002573Y006491D01*
X002649Y006567D01*
X002690Y006666D01*
X002690Y006970D01*
X002690Y009028D01*
X002690Y009135D01*
X002669Y009186D02*
X009455Y009186D01*
X009455Y009285D02*
X002599Y009285D01*
X002500Y009383D02*
X009455Y009383D01*
X009455Y009482D02*
X002402Y009482D01*
X002349Y009580D02*
X009455Y009580D01*
X009455Y009679D02*
X002251Y009679D01*
X001999Y009679D02*
X000306Y009679D01*
X000306Y009777D02*
X009455Y009777D01*
X009455Y009876D02*
X000306Y009876D01*
X000360Y009974D02*
X009401Y009974D01*
X009303Y010073D02*
X000459Y010073D01*
X000306Y009580D02*
X001900Y009580D01*
X001876Y009482D02*
X000306Y009482D01*
X000306Y009383D02*
X001855Y009383D01*
X001871Y009285D02*
X000306Y009285D01*
X000306Y009186D02*
X001892Y009186D01*
X001986Y009088D02*
X000306Y009088D01*
X000306Y008989D02*
X002131Y008989D01*
X002150Y008891D02*
X000306Y008891D01*
X000306Y008792D02*
X002150Y008792D01*
X002150Y008694D02*
X000306Y008694D01*
X000306Y008595D02*
X002150Y008595D01*
X002150Y008497D02*
X000306Y008497D01*
X000306Y008398D02*
X002150Y008398D01*
X002150Y008300D02*
X000306Y008300D01*
X000306Y008201D02*
X002150Y008201D01*
X002150Y008103D02*
X000306Y008103D01*
X000306Y008004D02*
X002150Y008004D01*
X002150Y007906D02*
X000306Y007906D01*
X000306Y007807D02*
X002150Y007807D01*
X002150Y007709D02*
X000306Y007709D01*
X000306Y007610D02*
X002150Y007610D01*
X002150Y007512D02*
X000306Y007512D01*
X000306Y007413D02*
X002150Y007413D01*
X002150Y007315D02*
X000306Y007315D01*
X000306Y007216D02*
X002150Y007216D01*
X002150Y007118D02*
X000306Y007118D01*
X000306Y007019D02*
X002150Y007019D01*
X002150Y006921D02*
X000306Y006921D01*
X000306Y006822D02*
X002150Y006822D01*
X002150Y006724D02*
X000306Y006724D01*
X000306Y006625D02*
X002167Y006625D01*
X002231Y006527D02*
X000306Y006527D01*
X000306Y006428D02*
X005927Y006428D01*
X005927Y006527D02*
X002609Y006527D01*
X002673Y006625D02*
X005934Y006625D01*
X006032Y006724D02*
X002690Y006724D01*
X002690Y006822D02*
X006220Y006822D01*
X006318Y006921D02*
X002690Y006921D01*
X002690Y007019D02*
X006417Y007019D01*
X006515Y007118D02*
X002690Y007118D01*
X002690Y007216D02*
X006614Y007216D01*
X006712Y007315D02*
X002690Y007315D01*
X002690Y007413D02*
X006811Y007413D01*
X006909Y007512D02*
X002690Y007512D01*
X002690Y007610D02*
X007008Y007610D01*
X007106Y007709D02*
X002690Y007709D01*
X002690Y007807D02*
X007205Y007807D01*
X007303Y007906D02*
X002690Y007906D01*
X002690Y008004D02*
X007402Y008004D01*
X007500Y008103D02*
X002690Y008103D01*
X002690Y008201D02*
X007599Y008201D01*
X007697Y008300D02*
X002690Y008300D01*
X002690Y008398D02*
X007796Y008398D01*
X007805Y008497D02*
X002690Y008497D01*
X002690Y008595D02*
X007904Y008595D01*
X006023Y006330D02*
X000306Y006330D01*
X000306Y005837D02*
X001307Y005837D01*
X001208Y005739D02*
X000306Y005739D01*
D12*
X000648Y004653D03*
X000944Y003373D03*
X000944Y002881D03*
X000550Y001700D03*
X000944Y001306D03*
X001633Y002881D03*
X001731Y003964D03*
X002322Y003373D03*
X002125Y001306D03*
X004093Y001306D03*
X005274Y004456D03*
X004782Y004849D03*
X004881Y005932D03*
X004093Y005932D03*
X003896Y006818D03*
X003700Y008786D03*
X003700Y009968D03*
X004487Y009968D03*
X004487Y008786D03*
X005274Y008786D03*
X005274Y009968D03*
X006062Y009968D03*
X006062Y008786D03*
X006554Y007999D03*
X006751Y008393D03*
X006160Y006523D03*
X006259Y005834D03*
X007341Y004653D03*
X007735Y003865D03*
X007637Y001306D03*
X006751Y001306D03*
X005865Y001306D03*
X009211Y001700D03*
X009211Y002487D03*
X009211Y003275D03*
X009211Y004062D03*
X009211Y004849D03*
X009211Y005637D03*
X009211Y006424D03*
X009211Y007999D03*
X009211Y008786D03*
X008030Y008393D03*
X002912Y008786D03*
X002912Y009968D03*
X002125Y009968D03*
X002125Y009475D03*
X002125Y009279D03*
X002026Y008885D03*
X002026Y008688D03*
X001633Y007999D03*
X001436Y008393D03*
X001042Y007507D03*
X002026Y007310D03*
X002420Y006916D03*
X002420Y006719D03*
X001436Y005637D03*
D13*
X006160Y006523D02*
X008030Y008393D01*
D14*
X002420Y009082D02*
X002420Y006916D01*
X002420Y006719D01*
X002420Y009082D02*
X002125Y009377D01*
D15*
X002125Y009279D01*
X002125Y009377D02*
X002125Y009475D01*
M02*
