%
M48
M72
T01C0.0126
T02C0.0394
T03C0.0591
%
T01
X944Y1306
X9211Y1700
X9211Y2487
X9211Y3275
X9211Y4062
X9211Y4849
X9211Y5637
X9211Y6424
X9211Y7999
X9211Y8786
X8030Y8393
X6751Y8393
X6554Y7999
X6062Y8786
X6062Y9968
X5274Y9968
X5274Y8786
X4487Y8786
X4487Y9968
X3700Y9968
X3700Y8786
X2912Y8786
X2912Y9968
X2125Y9968
X2125Y9475
X2125Y9279
X2026Y8885
X2026Y8688
X1633Y7999
X1436Y8393
X1042Y7507
X2026Y7310
X2420Y6916
X2420Y6719
X1436Y5637
X648Y4653
X944Y3373
X944Y2881
X550Y1700
X1633Y2881
X1731Y3964
X2322Y3373
X2125Y1306
X4093Y1306
X5274Y4456
X4782Y4849
X4881Y5932
X4093Y5932
X3896Y6818
X5865Y1306
X6751Y1306
X7637Y1306
X7735Y3865
X7341Y4653
X6259Y5834
X6160Y6523
T02
X7617Y2684
X5885Y2684
T03
X2912Y1542
X2912Y3668
M30
