%
M48
M72
T01C0.0126
T02C0.0157
T03C0.0236
T04C0.0276
T05C0.1260
%
T01
X5987Y2050
X5200Y2444
X5495Y2641
X4904Y2247
X7070Y3330
X8251Y3920
X11007Y3330
X12188Y3920
X14944Y3330
X13369Y2641
X13074Y2444
X12778Y2247
X12483Y2050
X13861Y2050
X17208Y2739
X17404Y2444
X18389Y1853
X18881Y3133
X24393Y3920
X27149Y3330
X28330Y3920
X31086Y3330
X32267Y3920
X34826Y3330
X33448Y2641
X33152Y2444
X32857Y2247
X32562Y2050
X33940Y2050
X30003Y2050
X29215Y2444
X28920Y2247
X28625Y2050
X29511Y2641
X26066Y2050
X25278Y2444
X24983Y2247
X24688Y2050
X25574Y2641
X25672Y5692
X25278Y5692
X24885Y5692
X24491Y5692
X26066Y5692
X26460Y5692
X26853Y5692
X27247Y5692
X28428Y5692
X28822Y5692
X29215Y5692
X29609Y5692
X30003Y5692
X30397Y5692
X30790Y5692
X31184Y5692
X32365Y5692
X32759Y5692
X33152Y5692
X33546Y5692
X33940Y5692
X34334Y5692
X34727Y5692
X35121Y5692
X36400Y7365
X36105Y9038
X36007Y10416
X36007Y11794
X36007Y13172
X32463Y13566
X30495Y13960
X29511Y13172
X28526Y13172
X30495Y12582
X28526Y11794
X30397Y11204
X28526Y10416
X30200Y9530
X28625Y9038
X30003Y8152
X29511Y7365
X28920Y7365
X22719Y9530
X21046Y10810
X22916Y11204
X21243Y11991
X19668Y11991
X18684Y10810
X16715Y10416
X16715Y11794
X16715Y13172
X13172Y13566
X11204Y13960
X10219Y13172
X9235Y13172
X11204Y12582
X9235Y11794
X11105Y11204
X9235Y10416
X10908Y9530
X9235Y9038
X10711Y8152
X10219Y7365
X9629Y7365
X9530Y5692
X9137Y5692
X8743Y5692
X8349Y5692
X7168Y5692
X6774Y5692
X6381Y5692
X5987Y5692
X5593Y5692
X5200Y5692
X4314Y3920
X8546Y2050
X8841Y2247
X9137Y2444
X9432Y2641
X9924Y2050
X9924Y5692
X10318Y5692
X10711Y5692
X11105Y5692
X12286Y5692
X12680Y5692
X13074Y5692
X13467Y5692
X13861Y5692
X14255Y5692
X14649Y5692
X15042Y5692
X18684Y6086
X21046Y6086
X22621Y6086
X21046Y7660
X22523Y8152
X18684Y7660
X16715Y7463
X16814Y9038
X23015Y12582
X24983Y13566
X23015Y13960
X5692Y13566
X3723Y13960
X3723Y12582
X3625Y11204
X3428Y9530
X3231Y8152
T02
X36400Y574
X35613Y574
X34826Y574
X34038Y574
X33251Y574
X32463Y574
X31676Y574
X30889Y574
X30101Y574
X29314Y574
X28526Y574
X27739Y574
X26952Y574
X26164Y574
X25377Y574
X24589Y574
X23802Y574
X23015Y574
X22227Y574
X21440Y574
X20652Y574
X19865Y574
X19078Y574
X18290Y574
X17503Y574
X16715Y574
X15928Y574
X15141Y574
X14353Y574
X13566Y574
X12778Y574
X11991Y574
X11204Y574
X10416Y574
X9629Y574
X8841Y574
X8054Y574
X7267Y574
X6479Y574
X5692Y574
X4904Y574
X4117Y574
X3330Y574
X36400Y15928
X35613Y15928
X34826Y15928
X34038Y15928
X33251Y15928
X32463Y15928
X31676Y15928
X30889Y15928
X30101Y15928
X29314Y15928
X28526Y15928
X27739Y15928
X26952Y15928
X26164Y15928
X25377Y15928
X24589Y15928
X23802Y15928
X23015Y15928
X22227Y15928
X21440Y15928
X20652Y15928
X19865Y15928
X19078Y15928
X18290Y15928
X17503Y15928
X16715Y15928
X15928Y15928
X15141Y15928
X14353Y15928
X13566Y15928
X12778Y15928
X11991Y15928
X11204Y15928
X10416Y15928
X9629Y15928
X8841Y15928
X8054Y15928
X7267Y15928
X6479Y15928
X5692Y15928
X4904Y15928
X4117Y15928
X3330Y15928
X967Y13566
X967Y12778
X967Y11991
X967Y11204
X967Y10416
X967Y9629
X967Y8841
X967Y8054
X967Y7267
X967Y6479
X967Y5692
X967Y4904
X967Y4117
X967Y3330
X38763Y13566
X38763Y12778
X38763Y11991
X38763Y11204
X38763Y10416
X38763Y9629
X38763Y8841
X38763Y8054
X38763Y7267
X38763Y6479
X38763Y5692
X38763Y4904
X38763Y4117
X38763Y3330
T03
X33251Y8645
X33940Y8841
X34432Y9334
X34629Y10023
X34432Y10711
X33940Y11204
X33251Y11400
X32562Y11204
X32070Y10711
X31873Y10023
X32070Y9334
X32562Y8841
X27149Y10023
X26952Y10711
X26460Y11204
X25771Y11400
X25082Y11204
X24589Y10711
X24393Y10023
X24589Y9334
X25082Y8841
X25771Y8645
X26460Y8841
X26952Y9334
X15337Y10023
X15141Y10711
X14649Y11204
X13960Y11400
X13271Y11204
X12778Y10711
X12582Y10023
X12778Y9334
X13271Y8841
X13960Y8645
X14649Y8841
X15141Y9334
X7857Y10023
X7660Y10711
X7168Y11204
X6479Y11400
X5790Y11204
X5298Y10711
X5101Y10023
X5298Y9334
X5790Y8841
X6479Y8645
X7168Y8841
X7660Y9334
T04
X19471Y9523
X20259Y9523
X20259Y10523
X19471Y10523
T05
X37975Y1755
X37975Y15141
X1755Y15141
X1755Y1755
M30
