G75*
G70*
%OFA0B0*%
%FSLAX24Y24*%
%IPPOS*%
%LPD*%
%AMOC8*
5,1,8,0,0,1.08239X$1,22.5*
%
%ADD10C,0.0000*%
%ADD11C,0.0060*%
%ADD12R,0.0003X0.0003*%
%ADD13R,0.0008X0.0003*%
%ADD14R,0.0005X0.0003*%
%ADD15R,0.0015X0.0003*%
%ADD16R,0.0020X0.0003*%
%ADD17R,0.0010X0.0003*%
%ADD18R,0.0018X0.0003*%
%ADD19R,0.0067X0.0003*%
%ADD20R,0.0013X0.0003*%
%ADD21R,0.0045X0.0003*%
%ADD22R,0.0077X0.0003*%
%ADD23R,0.0030X0.0003*%
%ADD24R,0.0032X0.0003*%
%ADD25R,0.0022X0.0003*%
%ADD26R,0.0127X0.0003*%
%ADD27R,0.0140X0.0003*%
%ADD28R,0.0025X0.0003*%
%ADD29R,0.0043X0.0003*%
%ADD30R,0.0053X0.0003*%
%ADD31R,0.0088X0.0003*%
%ADD32R,0.0035X0.0003*%
%ADD33R,0.0055X0.0003*%
%ADD34R,0.0040X0.0003*%
%ADD35R,0.0080X0.0003*%
%ADD36R,0.0065X0.0003*%
%ADD37R,0.0090X0.0003*%
%ADD38R,0.0143X0.0003*%
%ADD39R,0.0248X0.0003*%
%ADD40R,0.0293X0.0003*%
%ADD41R,0.0257X0.0003*%
%ADD42R,0.0037X0.0003*%
%ADD43R,0.0262X0.0003*%
%ADD44R,0.0027X0.0003*%
%ADD45R,0.0280X0.0003*%
%ADD46R,0.0070X0.0003*%
%ADD47R,0.0440X0.0003*%
%ADD48R,0.0315X0.0003*%
%ADD49R,0.0085X0.0003*%
%ADD50R,0.0330X0.0003*%
%ADD51R,0.0323X0.0003*%
%ADD52R,0.0107X0.0003*%
%ADD53R,0.0057X0.0003*%
%ADD54R,0.0490X0.0003*%
%ADD55R,0.0360X0.0003*%
%ADD56R,0.0512X0.0003*%
%ADD57R,0.0390X0.0003*%
%ADD58R,0.0565X0.0003*%
%ADD59R,0.0325X0.0003*%
%ADD60R,0.0168X0.0003*%
%ADD61R,0.0307X0.0003*%
%ADD62R,0.0152X0.0003*%
%ADD63R,0.0272X0.0003*%
%ADD64R,0.0132X0.0003*%
%ADD65R,0.0147X0.0003*%
%ADD66R,0.0243X0.0003*%
%ADD67R,0.0125X0.0003*%
%ADD68R,0.0240X0.0003*%
%ADD69R,0.0130X0.0003*%
%ADD70R,0.0225X0.0003*%
%ADD71R,0.0083X0.0003*%
%ADD72R,0.0222X0.0003*%
%ADD73R,0.0217X0.0003*%
%ADD74R,0.0120X0.0003*%
%ADD75R,0.0215X0.0003*%
%ADD76R,0.0118X0.0003*%
%ADD77R,0.0205X0.0003*%
%ADD78R,0.0103X0.0003*%
%ADD79R,0.0210X0.0003*%
%ADD80R,0.0097X0.0003*%
%ADD81R,0.0198X0.0003*%
%ADD82R,0.0100X0.0003*%
%ADD83R,0.0190X0.0003*%
%ADD84R,0.0187X0.0003*%
%ADD85R,0.0192X0.0003*%
%ADD86R,0.0170X0.0003*%
%ADD87R,0.0173X0.0003*%
%ADD88R,0.0182X0.0003*%
%ADD89R,0.0180X0.0003*%
%ADD90R,0.0047X0.0003*%
%ADD91R,0.0165X0.0003*%
%ADD92R,0.0163X0.0003*%
%ADD93R,0.0160X0.0003*%
%ADD94R,0.0158X0.0003*%
%ADD95R,0.0155X0.0003*%
%ADD96R,0.0092X0.0003*%
%ADD97R,0.0150X0.0003*%
%ADD98R,0.0105X0.0003*%
%ADD99R,0.0115X0.0003*%
%ADD100R,0.0145X0.0003*%
%ADD101R,0.0138X0.0003*%
%ADD102R,0.0135X0.0003*%
%ADD103R,0.0075X0.0003*%
%ADD104R,0.0063X0.0003*%
%ADD105R,0.0060X0.0003*%
%ADD106R,0.0050X0.0003*%
%ADD107R,0.0123X0.0003*%
%ADD108R,0.0112X0.0003*%
%ADD109R,0.0110X0.0003*%
%ADD110R,0.0073X0.0003*%
%ADD111R,0.0095X0.0003*%
%ADD112R,0.0185X0.0003*%
%ADD113R,0.0208X0.0003*%
%ADD114R,0.0235X0.0003*%
%ADD115R,0.0260X0.0003*%
%ADD116R,0.0267X0.0003*%
%ADD117R,0.0283X0.0003*%
%ADD118R,0.0295X0.0003*%
%ADD119R,0.0302X0.0003*%
%ADD120R,0.0320X0.0003*%
%ADD121R,0.0333X0.0003*%
%ADD122R,0.0338X0.0003*%
%ADD123R,0.0343X0.0003*%
%ADD124R,0.0350X0.0003*%
%ADD125R,0.0355X0.0003*%
%ADD126R,0.0365X0.0003*%
%ADD127R,0.0370X0.0003*%
%ADD128R,0.0375X0.0003*%
%ADD129R,0.0380X0.0003*%
%ADD130R,0.0382X0.0003*%
%ADD131R,0.0393X0.0003*%
%ADD132R,0.0398X0.0003*%
%ADD133R,0.0403X0.0003*%
%ADD134R,0.0405X0.0003*%
%ADD135R,0.0415X0.0003*%
%ADD136R,0.0177X0.0003*%
%ADD137R,0.0175X0.0003*%
%ADD138R,0.0195X0.0003*%
%ADD139R,0.0200X0.0003*%
%ADD140R,0.0203X0.0003*%
%ADD141R,0.0213X0.0003*%
%ADD142R,0.0220X0.0003*%
%ADD143R,0.0227X0.0003*%
%ADD144R,0.0230X0.0003*%
%ADD145R,0.0232X0.0003*%
%ADD146R,0.0238X0.0003*%
%ADD147R,0.0245X0.0003*%
%ADD148R,0.0250X0.0003*%
%ADD149R,0.0253X0.0003*%
%ADD150R,0.0255X0.0003*%
%ADD151R,0.0305X0.0003*%
%ADD152R,0.0318X0.0003*%
%ADD153R,0.0328X0.0003*%
%ADD154R,0.0335X0.0003*%
%ADD155R,0.0340X0.0003*%
%ADD156R,0.0352X0.0003*%
%ADD157R,0.0387X0.0003*%
%ADD158R,0.0410X0.0003*%
%ADD159R,0.0413X0.0003*%
%ADD160R,0.0430X0.0003*%
%ADD161R,0.0432X0.0003*%
%ADD162R,0.0428X0.0003*%
%ADD163R,0.0420X0.0003*%
%ADD164R,0.0435X0.0003*%
%ADD165R,0.0425X0.0003*%
%ADD166R,0.0423X0.0003*%
%ADD167R,0.0418X0.0003*%
%ADD168R,0.0372X0.0003*%
%ADD169R,0.0362X0.0003*%
%ADD170R,0.0348X0.0003*%
%ADD171R,0.0345X0.0003*%
%ADD172R,0.0310X0.0003*%
%ADD173R,0.0300X0.0003*%
%ADD174R,0.0297X0.0003*%
%ADD175R,0.0285X0.0003*%
%ADD176R,0.0278X0.0003*%
%ADD177R,0.0265X0.0003*%
%ADD178R,0.0050X0.0010*%
%ADD179R,0.0040X0.0010*%
%ADD180R,0.0130X0.0010*%
%ADD181R,0.0070X0.0010*%
%ADD182R,0.0180X0.0010*%
%ADD183R,0.0080X0.0010*%
%ADD184R,0.0210X0.0010*%
%ADD185R,0.0090X0.0010*%
%ADD186R,0.0060X0.0010*%
%ADD187R,0.0010X0.0010*%
%ADD188R,0.0030X0.0010*%
%ADD189R,0.0020X0.0010*%
%ADD190R,0.0220X0.0010*%
%ADD191R,0.0100X0.0010*%
%ADD192R,0.0110X0.0010*%
%ADD193R,0.0120X0.0010*%
%ADD194R,0.0140X0.0010*%
%ADD195R,0.0150X0.0010*%
%ADD196R,0.0200X0.0010*%
%ADD197R,0.0170X0.0010*%
%ADD198R,0.0190X0.0010*%
%ADD199R,0.0160X0.0010*%
D10*
X001725Y000937D02*
X057630Y000937D01*
X057000Y002512D02*
X057002Y002562D01*
X057008Y002612D01*
X057018Y002661D01*
X057032Y002709D01*
X057049Y002756D01*
X057070Y002801D01*
X057095Y002845D01*
X057123Y002886D01*
X057155Y002925D01*
X057189Y002962D01*
X057226Y002996D01*
X057266Y003026D01*
X057308Y003053D01*
X057352Y003077D01*
X057398Y003098D01*
X057445Y003114D01*
X057493Y003127D01*
X057543Y003136D01*
X057592Y003141D01*
X057643Y003142D01*
X057693Y003139D01*
X057742Y003132D01*
X057791Y003121D01*
X057839Y003106D01*
X057885Y003088D01*
X057930Y003066D01*
X057973Y003040D01*
X058014Y003011D01*
X058053Y002979D01*
X058089Y002944D01*
X058121Y002906D01*
X058151Y002866D01*
X058178Y002823D01*
X058201Y002779D01*
X058220Y002733D01*
X058236Y002685D01*
X058248Y002636D01*
X058256Y002587D01*
X058260Y002537D01*
X058260Y002487D01*
X058256Y002437D01*
X058248Y002388D01*
X058236Y002339D01*
X058220Y002291D01*
X058201Y002245D01*
X058178Y002201D01*
X058151Y002158D01*
X058121Y002118D01*
X058089Y002080D01*
X058053Y002045D01*
X058014Y002013D01*
X057973Y001984D01*
X057930Y001958D01*
X057885Y001936D01*
X057839Y001918D01*
X057791Y001903D01*
X057742Y001892D01*
X057693Y001885D01*
X057643Y001882D01*
X057592Y001883D01*
X057543Y001888D01*
X057493Y001897D01*
X057445Y001910D01*
X057398Y001926D01*
X057352Y001947D01*
X057308Y001971D01*
X057266Y001998D01*
X057226Y002028D01*
X057189Y002062D01*
X057155Y002099D01*
X057123Y002138D01*
X057095Y002179D01*
X057070Y002223D01*
X057049Y002268D01*
X057032Y002315D01*
X057018Y002363D01*
X057008Y002412D01*
X057002Y002462D01*
X057000Y002512D01*
X057630Y000937D02*
X057707Y000939D01*
X057784Y000945D01*
X057861Y000954D01*
X057937Y000967D01*
X058013Y000984D01*
X058087Y001005D01*
X058161Y001029D01*
X058233Y001057D01*
X058303Y001088D01*
X058372Y001123D01*
X058440Y001161D01*
X058505Y001202D01*
X058568Y001247D01*
X058629Y001295D01*
X058688Y001345D01*
X058744Y001398D01*
X058797Y001454D01*
X058847Y001513D01*
X058895Y001574D01*
X058940Y001637D01*
X058981Y001702D01*
X059019Y001770D01*
X059054Y001839D01*
X059085Y001909D01*
X059113Y001981D01*
X059137Y002055D01*
X059158Y002129D01*
X059175Y002205D01*
X059188Y002281D01*
X059197Y002358D01*
X059203Y002435D01*
X059205Y002512D01*
X059205Y015898D01*
X057000Y015898D02*
X057002Y015948D01*
X057008Y015998D01*
X057018Y016047D01*
X057032Y016095D01*
X057049Y016142D01*
X057070Y016187D01*
X057095Y016231D01*
X057123Y016272D01*
X057155Y016311D01*
X057189Y016348D01*
X057226Y016382D01*
X057266Y016412D01*
X057308Y016439D01*
X057352Y016463D01*
X057398Y016484D01*
X057445Y016500D01*
X057493Y016513D01*
X057543Y016522D01*
X057592Y016527D01*
X057643Y016528D01*
X057693Y016525D01*
X057742Y016518D01*
X057791Y016507D01*
X057839Y016492D01*
X057885Y016474D01*
X057930Y016452D01*
X057973Y016426D01*
X058014Y016397D01*
X058053Y016365D01*
X058089Y016330D01*
X058121Y016292D01*
X058151Y016252D01*
X058178Y016209D01*
X058201Y016165D01*
X058220Y016119D01*
X058236Y016071D01*
X058248Y016022D01*
X058256Y015973D01*
X058260Y015923D01*
X058260Y015873D01*
X058256Y015823D01*
X058248Y015774D01*
X058236Y015725D01*
X058220Y015677D01*
X058201Y015631D01*
X058178Y015587D01*
X058151Y015544D01*
X058121Y015504D01*
X058089Y015466D01*
X058053Y015431D01*
X058014Y015399D01*
X057973Y015370D01*
X057930Y015344D01*
X057885Y015322D01*
X057839Y015304D01*
X057791Y015289D01*
X057742Y015278D01*
X057693Y015271D01*
X057643Y015268D01*
X057592Y015269D01*
X057543Y015274D01*
X057493Y015283D01*
X057445Y015296D01*
X057398Y015312D01*
X057352Y015333D01*
X057308Y015357D01*
X057266Y015384D01*
X057226Y015414D01*
X057189Y015448D01*
X057155Y015485D01*
X057123Y015524D01*
X057095Y015565D01*
X057070Y015609D01*
X057049Y015654D01*
X057032Y015701D01*
X057018Y015749D01*
X057008Y015798D01*
X057002Y015848D01*
X057000Y015898D01*
X057630Y017473D02*
X057707Y017471D01*
X057784Y017465D01*
X057861Y017456D01*
X057937Y017443D01*
X058013Y017426D01*
X058087Y017405D01*
X058161Y017381D01*
X058233Y017353D01*
X058303Y017322D01*
X058372Y017287D01*
X058440Y017249D01*
X058505Y017208D01*
X058568Y017163D01*
X058629Y017115D01*
X058688Y017065D01*
X058744Y017012D01*
X058797Y016956D01*
X058847Y016897D01*
X058895Y016836D01*
X058940Y016773D01*
X058981Y016708D01*
X059019Y016640D01*
X059054Y016571D01*
X059085Y016501D01*
X059113Y016429D01*
X059137Y016355D01*
X059158Y016281D01*
X059175Y016205D01*
X059188Y016129D01*
X059197Y016052D01*
X059203Y015975D01*
X059205Y015898D01*
X057630Y017473D02*
X001725Y017473D01*
X001095Y015898D02*
X001097Y015948D01*
X001103Y015998D01*
X001113Y016047D01*
X001127Y016095D01*
X001144Y016142D01*
X001165Y016187D01*
X001190Y016231D01*
X001218Y016272D01*
X001250Y016311D01*
X001284Y016348D01*
X001321Y016382D01*
X001361Y016412D01*
X001403Y016439D01*
X001447Y016463D01*
X001493Y016484D01*
X001540Y016500D01*
X001588Y016513D01*
X001638Y016522D01*
X001687Y016527D01*
X001738Y016528D01*
X001788Y016525D01*
X001837Y016518D01*
X001886Y016507D01*
X001934Y016492D01*
X001980Y016474D01*
X002025Y016452D01*
X002068Y016426D01*
X002109Y016397D01*
X002148Y016365D01*
X002184Y016330D01*
X002216Y016292D01*
X002246Y016252D01*
X002273Y016209D01*
X002296Y016165D01*
X002315Y016119D01*
X002331Y016071D01*
X002343Y016022D01*
X002351Y015973D01*
X002355Y015923D01*
X002355Y015873D01*
X002351Y015823D01*
X002343Y015774D01*
X002331Y015725D01*
X002315Y015677D01*
X002296Y015631D01*
X002273Y015587D01*
X002246Y015544D01*
X002216Y015504D01*
X002184Y015466D01*
X002148Y015431D01*
X002109Y015399D01*
X002068Y015370D01*
X002025Y015344D01*
X001980Y015322D01*
X001934Y015304D01*
X001886Y015289D01*
X001837Y015278D01*
X001788Y015271D01*
X001738Y015268D01*
X001687Y015269D01*
X001638Y015274D01*
X001588Y015283D01*
X001540Y015296D01*
X001493Y015312D01*
X001447Y015333D01*
X001403Y015357D01*
X001361Y015384D01*
X001321Y015414D01*
X001284Y015448D01*
X001250Y015485D01*
X001218Y015524D01*
X001190Y015565D01*
X001165Y015609D01*
X001144Y015654D01*
X001127Y015701D01*
X001113Y015749D01*
X001103Y015798D01*
X001097Y015848D01*
X001095Y015898D01*
X000150Y015898D02*
X000152Y015975D01*
X000158Y016052D01*
X000167Y016129D01*
X000180Y016205D01*
X000197Y016281D01*
X000218Y016355D01*
X000242Y016429D01*
X000270Y016501D01*
X000301Y016571D01*
X000336Y016640D01*
X000374Y016708D01*
X000415Y016773D01*
X000460Y016836D01*
X000508Y016897D01*
X000558Y016956D01*
X000611Y017012D01*
X000667Y017065D01*
X000726Y017115D01*
X000787Y017163D01*
X000850Y017208D01*
X000915Y017249D01*
X000983Y017287D01*
X001052Y017322D01*
X001122Y017353D01*
X001194Y017381D01*
X001268Y017405D01*
X001342Y017426D01*
X001418Y017443D01*
X001494Y017456D01*
X001571Y017465D01*
X001648Y017471D01*
X001725Y017473D01*
X000150Y015898D02*
X000150Y002512D01*
X001095Y002512D02*
X001097Y002562D01*
X001103Y002612D01*
X001113Y002661D01*
X001127Y002709D01*
X001144Y002756D01*
X001165Y002801D01*
X001190Y002845D01*
X001218Y002886D01*
X001250Y002925D01*
X001284Y002962D01*
X001321Y002996D01*
X001361Y003026D01*
X001403Y003053D01*
X001447Y003077D01*
X001493Y003098D01*
X001540Y003114D01*
X001588Y003127D01*
X001638Y003136D01*
X001687Y003141D01*
X001738Y003142D01*
X001788Y003139D01*
X001837Y003132D01*
X001886Y003121D01*
X001934Y003106D01*
X001980Y003088D01*
X002025Y003066D01*
X002068Y003040D01*
X002109Y003011D01*
X002148Y002979D01*
X002184Y002944D01*
X002216Y002906D01*
X002246Y002866D01*
X002273Y002823D01*
X002296Y002779D01*
X002315Y002733D01*
X002331Y002685D01*
X002343Y002636D01*
X002351Y002587D01*
X002355Y002537D01*
X002355Y002487D01*
X002351Y002437D01*
X002343Y002388D01*
X002331Y002339D01*
X002315Y002291D01*
X002296Y002245D01*
X002273Y002201D01*
X002246Y002158D01*
X002216Y002118D01*
X002184Y002080D01*
X002148Y002045D01*
X002109Y002013D01*
X002068Y001984D01*
X002025Y001958D01*
X001980Y001936D01*
X001934Y001918D01*
X001886Y001903D01*
X001837Y001892D01*
X001788Y001885D01*
X001738Y001882D01*
X001687Y001883D01*
X001638Y001888D01*
X001588Y001897D01*
X001540Y001910D01*
X001493Y001926D01*
X001447Y001947D01*
X001403Y001971D01*
X001361Y001998D01*
X001321Y002028D01*
X001284Y002062D01*
X001250Y002099D01*
X001218Y002138D01*
X001190Y002179D01*
X001165Y002223D01*
X001144Y002268D01*
X001127Y002315D01*
X001113Y002363D01*
X001103Y002412D01*
X001097Y002462D01*
X001095Y002512D01*
X000150Y002512D02*
X000152Y002435D01*
X000158Y002358D01*
X000167Y002281D01*
X000180Y002205D01*
X000197Y002129D01*
X000218Y002055D01*
X000242Y001981D01*
X000270Y001909D01*
X000301Y001839D01*
X000336Y001770D01*
X000374Y001702D01*
X000415Y001637D01*
X000460Y001574D01*
X000508Y001513D01*
X000558Y001454D01*
X000611Y001398D01*
X000667Y001345D01*
X000726Y001295D01*
X000787Y001247D01*
X000850Y001202D01*
X000915Y001161D01*
X000983Y001123D01*
X001052Y001088D01*
X001122Y001057D01*
X001194Y001029D01*
X001268Y001005D01*
X001342Y000984D01*
X001418Y000967D01*
X001494Y000954D01*
X001571Y000945D01*
X001648Y000939D01*
X001725Y000937D01*
X047493Y001567D02*
X047495Y001601D01*
X047501Y001635D01*
X047511Y001668D01*
X047524Y001699D01*
X047542Y001729D01*
X047562Y001757D01*
X047586Y001782D01*
X047612Y001804D01*
X047640Y001822D01*
X047671Y001838D01*
X047703Y001850D01*
X047737Y001858D01*
X047771Y001862D01*
X047805Y001862D01*
X047839Y001858D01*
X047873Y001850D01*
X047905Y001838D01*
X047935Y001822D01*
X047964Y001804D01*
X047990Y001782D01*
X048014Y001757D01*
X048034Y001729D01*
X048052Y001699D01*
X048065Y001668D01*
X048075Y001635D01*
X048081Y001601D01*
X048083Y001567D01*
X048081Y001533D01*
X048075Y001499D01*
X048065Y001466D01*
X048052Y001435D01*
X048034Y001405D01*
X048014Y001377D01*
X047990Y001352D01*
X047964Y001330D01*
X047936Y001312D01*
X047905Y001296D01*
X047873Y001284D01*
X047839Y001276D01*
X047805Y001272D01*
X047771Y001272D01*
X047737Y001276D01*
X047703Y001284D01*
X047671Y001296D01*
X047640Y001312D01*
X047612Y001330D01*
X047586Y001352D01*
X047562Y001377D01*
X047542Y001405D01*
X047524Y001435D01*
X047511Y001466D01*
X047501Y001499D01*
X047495Y001533D01*
X047493Y001567D01*
X051075Y002807D02*
X051077Y002833D01*
X051083Y002859D01*
X051093Y002884D01*
X051106Y002907D01*
X051122Y002927D01*
X051142Y002945D01*
X051164Y002960D01*
X051187Y002972D01*
X051213Y002980D01*
X051239Y002984D01*
X051265Y002984D01*
X051291Y002980D01*
X051317Y002972D01*
X051341Y002960D01*
X051362Y002945D01*
X051382Y002927D01*
X051398Y002907D01*
X051411Y002884D01*
X051421Y002859D01*
X051427Y002833D01*
X051429Y002807D01*
X051427Y002781D01*
X051421Y002755D01*
X051411Y002730D01*
X051398Y002707D01*
X051382Y002687D01*
X051362Y002669D01*
X051340Y002654D01*
X051317Y002642D01*
X051291Y002634D01*
X051265Y002630D01*
X051239Y002630D01*
X051213Y002634D01*
X051187Y002642D01*
X051163Y002654D01*
X051142Y002669D01*
X051122Y002687D01*
X051106Y002707D01*
X051093Y002730D01*
X051083Y002755D01*
X051077Y002781D01*
X051075Y002807D01*
X052808Y002807D02*
X052810Y002833D01*
X052816Y002859D01*
X052826Y002884D01*
X052839Y002907D01*
X052855Y002927D01*
X052875Y002945D01*
X052897Y002960D01*
X052920Y002972D01*
X052946Y002980D01*
X052972Y002984D01*
X052998Y002984D01*
X053024Y002980D01*
X053050Y002972D01*
X053074Y002960D01*
X053095Y002945D01*
X053115Y002927D01*
X053131Y002907D01*
X053144Y002884D01*
X053154Y002859D01*
X053160Y002833D01*
X053162Y002807D01*
X053160Y002781D01*
X053154Y002755D01*
X053144Y002730D01*
X053131Y002707D01*
X053115Y002687D01*
X053095Y002669D01*
X053073Y002654D01*
X053050Y002642D01*
X053024Y002634D01*
X052998Y002630D01*
X052972Y002630D01*
X052946Y002634D01*
X052920Y002642D01*
X052896Y002654D01*
X052875Y002669D01*
X052855Y002687D01*
X052839Y002707D01*
X052826Y002730D01*
X052816Y002755D01*
X052810Y002781D01*
X052808Y002807D01*
X047493Y004323D02*
X047495Y004357D01*
X047501Y004391D01*
X047511Y004424D01*
X047524Y004455D01*
X047542Y004485D01*
X047562Y004513D01*
X047586Y004538D01*
X047612Y004560D01*
X047640Y004578D01*
X047671Y004594D01*
X047703Y004606D01*
X047737Y004614D01*
X047771Y004618D01*
X047805Y004618D01*
X047839Y004614D01*
X047873Y004606D01*
X047905Y004594D01*
X047935Y004578D01*
X047964Y004560D01*
X047990Y004538D01*
X048014Y004513D01*
X048034Y004485D01*
X048052Y004455D01*
X048065Y004424D01*
X048075Y004391D01*
X048081Y004357D01*
X048083Y004323D01*
X048081Y004289D01*
X048075Y004255D01*
X048065Y004222D01*
X048052Y004191D01*
X048034Y004161D01*
X048014Y004133D01*
X047990Y004108D01*
X047964Y004086D01*
X047936Y004068D01*
X047905Y004052D01*
X047873Y004040D01*
X047839Y004032D01*
X047805Y004028D01*
X047771Y004028D01*
X047737Y004032D01*
X047703Y004040D01*
X047671Y004052D01*
X047640Y004068D01*
X047612Y004086D01*
X047586Y004108D01*
X047562Y004133D01*
X047542Y004161D01*
X047524Y004191D01*
X047511Y004222D01*
X047501Y004255D01*
X047495Y004289D01*
X047493Y004323D01*
D11*
X034894Y003227D02*
X034894Y002967D01*
X034594Y002917D01*
X034573Y002926D02*
X034114Y002926D01*
X034094Y002868D02*
X034524Y002868D01*
X034544Y002917D02*
X034844Y003017D01*
X034844Y002967D01*
X034844Y003217D01*
X034544Y003267D01*
X034444Y003567D01*
X034644Y003767D01*
X034494Y003917D01*
X034194Y003767D01*
X033894Y003917D01*
X033944Y003917D01*
X033894Y004167D01*
X033644Y004167D01*
X033644Y003867D01*
X033344Y003767D01*
X033094Y003917D01*
X032944Y003817D01*
X033094Y003517D01*
X032994Y003267D01*
X032694Y003217D01*
X032694Y002967D01*
X032994Y002967D01*
X033094Y002617D01*
X032944Y002417D01*
X033094Y002267D01*
X033294Y002417D01*
X033394Y002367D01*
X033594Y002767D01*
X033394Y002967D01*
X033394Y003217D01*
X033544Y003467D01*
X033794Y003517D01*
X034094Y003417D01*
X034044Y003417D01*
X034194Y003167D01*
X034094Y002867D01*
X033994Y002767D01*
X034144Y002367D01*
X034244Y002417D01*
X034444Y002267D01*
X034594Y002417D01*
X034444Y002667D01*
X034544Y002917D01*
X034501Y002809D02*
X034037Y002809D01*
X034000Y002751D02*
X034478Y002751D01*
X034454Y002692D02*
X034022Y002692D01*
X034044Y002634D02*
X034464Y002634D01*
X034494Y002647D02*
X034654Y002407D01*
X034474Y002217D01*
X034234Y002387D01*
X034134Y002327D01*
X033934Y002777D01*
X034066Y002575D02*
X034499Y002575D01*
X034534Y002517D02*
X034088Y002517D01*
X034110Y002458D02*
X034569Y002458D01*
X034577Y002400D02*
X034267Y002400D01*
X034210Y002400D02*
X034132Y002400D01*
X034345Y002341D02*
X034519Y002341D01*
X034460Y002283D02*
X034423Y002283D01*
X033614Y002777D02*
X033424Y002327D01*
X033324Y002387D01*
X033084Y002217D01*
X032894Y002407D01*
X033064Y002647D01*
X033089Y002634D02*
X033528Y002634D01*
X033557Y002692D02*
X033073Y002692D01*
X033056Y002751D02*
X033586Y002751D01*
X033552Y002809D02*
X033039Y002809D01*
X033022Y002868D02*
X033493Y002868D01*
X033435Y002926D02*
X033006Y002926D01*
X032964Y002917D02*
X032664Y002967D01*
X032664Y003227D01*
X032964Y003287D01*
X032998Y003277D02*
X033430Y003277D01*
X033395Y003219D02*
X032706Y003219D01*
X032694Y003160D02*
X033394Y003160D01*
X033394Y003102D02*
X032694Y003102D01*
X032694Y003043D02*
X033394Y003043D01*
X033394Y002985D02*
X032694Y002985D01*
X032965Y003287D02*
X032980Y003339D01*
X032999Y003390D01*
X033021Y003440D01*
X033046Y003488D01*
X033075Y003535D01*
X033074Y003537D02*
X032894Y003797D01*
X033084Y003977D01*
X033344Y003797D01*
X033282Y003804D02*
X032951Y003804D01*
X032980Y003745D02*
X034623Y003745D01*
X034607Y003804D02*
X034268Y003804D01*
X034214Y003797D02*
X034474Y003977D01*
X034664Y003797D01*
X034484Y003537D01*
X034463Y003511D02*
X033811Y003511D01*
X033767Y003511D02*
X033092Y003511D01*
X033068Y003453D02*
X033536Y003453D01*
X033501Y003394D02*
X033045Y003394D01*
X033022Y003336D02*
X033465Y003336D01*
X033614Y002787D02*
X033581Y002805D01*
X033551Y002826D01*
X033522Y002850D01*
X033496Y002877D01*
X033474Y002906D01*
X033454Y002938D01*
X033437Y002971D01*
X033424Y003006D01*
X033415Y003042D01*
X033409Y003079D01*
X033407Y003116D01*
X033409Y003153D01*
X033414Y003190D01*
X033424Y003226D01*
X033436Y003261D01*
X033453Y003295D01*
X033472Y003326D01*
X033495Y003356D01*
X033521Y003383D01*
X033549Y003407D01*
X033580Y003428D01*
X033612Y003446D01*
X033646Y003461D01*
X033682Y003472D01*
X033718Y003480D01*
X033755Y003484D01*
X033793Y003484D01*
X033830Y003480D01*
X033866Y003472D01*
X033902Y003461D01*
X033936Y003446D01*
X033968Y003428D01*
X033999Y003407D01*
X034027Y003383D01*
X034053Y003356D01*
X034076Y003326D01*
X034095Y003295D01*
X034112Y003261D01*
X034124Y003226D01*
X034134Y003190D01*
X034139Y003153D01*
X034141Y003116D01*
X034139Y003079D01*
X034133Y003042D01*
X034124Y003006D01*
X034111Y002971D01*
X034094Y002938D01*
X034074Y002906D01*
X034052Y002877D01*
X034026Y002850D01*
X033997Y002826D01*
X033967Y002805D01*
X033934Y002787D01*
X034133Y002985D02*
X034748Y002985D01*
X034844Y003043D02*
X034153Y003043D01*
X034172Y003102D02*
X034844Y003102D01*
X034844Y003160D02*
X034192Y003160D01*
X034163Y003219D02*
X034832Y003219D01*
X034894Y003227D02*
X034594Y003287D01*
X034541Y003277D02*
X034128Y003277D01*
X034093Y003336D02*
X034521Y003336D01*
X034502Y003394D02*
X034058Y003394D01*
X033986Y003453D02*
X034482Y003453D01*
X034447Y003570D02*
X033068Y003570D01*
X033038Y003628D02*
X034506Y003628D01*
X034564Y003687D02*
X033009Y003687D01*
X033012Y003862D02*
X033185Y003862D01*
X033455Y003804D02*
X034120Y003804D01*
X034003Y003862D02*
X033631Y003862D01*
X033594Y003897D02*
X033644Y004217D01*
X033914Y004217D01*
X033964Y003897D01*
X033943Y003921D02*
X033644Y003921D01*
X033644Y003979D02*
X033932Y003979D01*
X033920Y004038D02*
X033644Y004038D01*
X033644Y004096D02*
X033908Y004096D01*
X033896Y004155D02*
X033644Y004155D01*
X034385Y003862D02*
X034549Y003862D01*
X034211Y003800D02*
X034166Y003825D01*
X034119Y003848D01*
X034071Y003867D01*
X034022Y003884D01*
X033972Y003897D01*
X034483Y003532D02*
X034510Y003485D01*
X034534Y003438D01*
X034555Y003389D01*
X034573Y003338D01*
X034587Y003287D01*
X034593Y002916D02*
X034580Y002860D01*
X034563Y002805D01*
X034542Y002752D01*
X034518Y002700D01*
X034490Y002650D01*
X033589Y003899D02*
X033537Y003885D01*
X033486Y003868D01*
X033436Y003848D01*
X033387Y003825D01*
X033340Y003798D01*
X032964Y002914D02*
X032974Y002867D01*
X032987Y002821D01*
X033002Y002776D01*
X033020Y002731D01*
X033041Y002688D01*
X033064Y002647D01*
X033063Y002575D02*
X033498Y002575D01*
X033469Y002517D02*
X033019Y002517D01*
X032975Y002458D02*
X033440Y002458D01*
X033411Y002400D02*
X033328Y002400D01*
X033271Y002400D02*
X032961Y002400D01*
X033020Y002341D02*
X033193Y002341D01*
X033115Y002283D02*
X033078Y002283D01*
D12*
X031460Y003846D03*
X031460Y003848D03*
X031453Y003848D03*
X031448Y003841D03*
X031440Y003836D03*
X031440Y003833D03*
X031418Y003831D03*
X031403Y003828D03*
X031405Y003821D03*
X031400Y003818D03*
X031395Y003816D03*
X031388Y003816D03*
X031383Y003816D03*
X031383Y003821D03*
X031375Y003811D03*
X031370Y003811D03*
X031363Y003808D03*
X031355Y003811D03*
X031350Y003811D03*
X031355Y003801D03*
X031340Y003803D03*
X031338Y003806D03*
X031335Y003803D03*
X031333Y003798D03*
X031328Y003801D03*
X031325Y003803D03*
X031320Y003801D03*
X031310Y003801D03*
X031308Y003803D03*
X031303Y003803D03*
X031303Y003796D03*
X031295Y003801D03*
X031288Y003803D03*
X031288Y003806D03*
X031290Y003808D03*
X031283Y003811D03*
X031278Y003803D03*
X031273Y003801D03*
X031265Y003806D03*
X031260Y003803D03*
X031260Y003811D03*
X031255Y003813D03*
X031253Y003818D03*
X031253Y003821D03*
X031258Y003821D03*
X031258Y003818D03*
X031248Y003816D03*
X031248Y003821D03*
X031238Y003811D03*
X031233Y003813D03*
X031230Y003816D03*
X031223Y003823D03*
X031218Y003821D03*
X031213Y003821D03*
X031210Y003823D03*
X031205Y003821D03*
X031198Y003813D03*
X031200Y003811D03*
X031200Y003808D03*
X031203Y003801D03*
X031193Y003813D03*
X031193Y003816D03*
X031188Y003823D03*
X031188Y003826D03*
X031183Y003821D03*
X031178Y003823D03*
X031175Y003818D03*
X031170Y003811D03*
X031163Y003811D03*
X031160Y003816D03*
X031160Y003823D03*
X031155Y003823D03*
X031148Y003823D03*
X031145Y003826D03*
X031150Y003831D03*
X031143Y003833D03*
X031143Y003836D03*
X031135Y003836D03*
X031130Y003831D03*
X031123Y003831D03*
X031128Y003838D03*
X031143Y003846D03*
X031143Y003848D03*
X031163Y003833D03*
X031168Y003833D03*
X031173Y003831D03*
X031165Y003823D03*
X031150Y003808D03*
X031140Y003813D03*
X031138Y003811D03*
X031135Y003813D03*
X031130Y003813D03*
X031130Y003816D03*
X031135Y003818D03*
X031115Y003826D03*
X031110Y003826D03*
X031105Y003823D03*
X031103Y003821D03*
X031100Y003831D03*
X031108Y003836D03*
X031093Y003843D03*
X031090Y003838D03*
X031085Y003838D03*
X031083Y003836D03*
X031078Y003833D03*
X031080Y003828D03*
X031080Y003826D03*
X031085Y003821D03*
X031078Y003816D03*
X031073Y003831D03*
X031065Y003831D03*
X031055Y003831D03*
X031055Y003836D03*
X031053Y003838D03*
X031045Y003841D03*
X031040Y003838D03*
X031040Y003831D03*
X031033Y003831D03*
X031025Y003826D03*
X031023Y003828D03*
X031020Y003833D03*
X031023Y003836D03*
X031018Y003838D03*
X031015Y003843D03*
X031010Y003843D03*
X031010Y003838D03*
X031010Y003836D03*
X031013Y003833D03*
X031015Y003831D03*
X031003Y003833D03*
X031000Y003836D03*
X030990Y003838D03*
X030988Y003841D03*
X030983Y003838D03*
X030970Y003841D03*
X030968Y003846D03*
X030970Y003853D03*
X030970Y003856D03*
X030968Y003858D03*
X030963Y003858D03*
X030965Y003853D03*
X030955Y003856D03*
X030955Y003858D03*
X030950Y003861D03*
X030948Y003863D03*
X030945Y003866D03*
X030943Y003868D03*
X030943Y003871D03*
X030940Y003873D03*
X030938Y003871D03*
X030933Y003871D03*
X030940Y003866D03*
X030953Y003871D03*
X030968Y003866D03*
X030978Y003861D03*
X030978Y003851D03*
X030998Y003848D03*
X031003Y003846D03*
X031023Y003846D03*
X031028Y003841D03*
X031048Y003828D03*
X031050Y003826D03*
X031065Y003841D03*
X031063Y003848D03*
X031098Y003811D03*
X031110Y003813D03*
X031115Y003883D03*
X031130Y003881D03*
X031138Y003878D03*
X031173Y003881D03*
X031185Y003881D03*
X031215Y003816D03*
X031220Y003811D03*
X031223Y003806D03*
X031235Y003801D03*
X031243Y003801D03*
X031243Y003798D03*
X031243Y003796D03*
X031250Y003796D03*
X031250Y003793D03*
X031250Y003791D03*
X031250Y003801D03*
X031250Y003806D03*
X031290Y003791D03*
X031330Y003806D03*
X031340Y003796D03*
X031348Y003836D03*
X031470Y003863D03*
X031473Y003861D03*
X031473Y003866D03*
X031498Y003863D03*
X030965Y003881D03*
X030945Y003888D03*
X030943Y003891D03*
X030923Y003883D03*
X030923Y003881D03*
X030920Y003886D03*
X030918Y003888D03*
X030915Y003886D03*
X030910Y003886D03*
X030903Y003893D03*
X030900Y003896D03*
X030908Y003898D03*
X030915Y003901D03*
X030910Y003906D03*
X030908Y003908D03*
X030903Y003908D03*
X030898Y003911D03*
X030895Y003913D03*
X030893Y003916D03*
X030893Y003918D03*
X030888Y003918D03*
X030888Y003913D03*
X030890Y003911D03*
X030890Y003908D03*
X030888Y003906D03*
X030885Y003908D03*
X030880Y003908D03*
X030875Y003911D03*
X030875Y003896D03*
X030885Y003891D03*
X030895Y003906D03*
X030898Y003921D03*
X030903Y003921D03*
X030908Y003921D03*
X030903Y003928D03*
X030910Y003931D03*
X030905Y003936D03*
X030893Y003938D03*
X030885Y003928D03*
X030885Y003926D03*
X030885Y003923D03*
X030875Y003931D03*
X030873Y003928D03*
X030868Y003928D03*
X030868Y003933D03*
X030863Y003933D03*
X030858Y003933D03*
X030853Y003926D03*
X030848Y003923D03*
X030850Y003921D03*
X030843Y003923D03*
X030843Y003926D03*
X030843Y003928D03*
X030838Y003921D03*
X030833Y003921D03*
X030833Y003918D03*
X030828Y003916D03*
X030828Y003923D03*
X030828Y003926D03*
X030835Y003933D03*
X030835Y003936D03*
X030825Y003943D03*
X030820Y003941D03*
X030823Y003936D03*
X030818Y003933D03*
X030810Y003936D03*
X030810Y003938D03*
X030805Y003941D03*
X030803Y003943D03*
X030803Y003948D03*
X030798Y003948D03*
X030793Y003948D03*
X030808Y003951D03*
X030810Y003948D03*
X030815Y003951D03*
X030823Y003951D03*
X030830Y003956D03*
X030838Y003958D03*
X030858Y003966D03*
X030865Y003966D03*
X030873Y003956D03*
X030878Y003968D03*
X030888Y003966D03*
X030898Y003956D03*
X030903Y003956D03*
X030913Y003951D03*
X030913Y003948D03*
X030918Y003948D03*
X030930Y003943D03*
X030933Y003941D03*
X030945Y003936D03*
X030923Y003873D03*
X030853Y003906D03*
X030848Y003936D03*
X030808Y003931D03*
X030778Y003963D03*
X030770Y003971D03*
X030758Y003971D03*
X030753Y003971D03*
X030755Y003966D03*
X030758Y003963D03*
X030768Y003958D03*
X030743Y003971D03*
X030738Y003983D03*
X030733Y003983D03*
X030723Y004001D03*
X030718Y003998D03*
X030713Y003998D03*
X030710Y004003D03*
X030708Y004008D03*
X030703Y004008D03*
X030703Y004013D03*
X030698Y004018D03*
X030700Y004021D03*
X030700Y004026D03*
X030705Y004026D03*
X030698Y004041D03*
X030685Y004036D03*
X030683Y004028D03*
X030683Y004026D03*
X030685Y004023D03*
X030673Y004033D03*
X030675Y004043D03*
X030680Y004046D03*
X030680Y004048D03*
X030678Y004051D03*
X030673Y004061D03*
X030668Y004061D03*
X030668Y004058D03*
X030665Y004053D03*
X030665Y004063D03*
X030660Y004063D03*
X030660Y004066D03*
X030655Y004066D03*
X030660Y004073D03*
X030663Y004076D03*
X030665Y004073D03*
X030665Y004071D03*
X030670Y004073D03*
X030673Y004083D03*
X030665Y004086D03*
X030660Y004088D03*
X030660Y004083D03*
X030658Y004081D03*
X030653Y004091D03*
X030648Y004093D03*
X030645Y004101D03*
X030653Y004108D03*
X030650Y004111D03*
X030650Y004113D03*
X030655Y004113D03*
X030660Y004118D03*
X030665Y004118D03*
X030668Y004121D03*
X030668Y004123D03*
X030670Y004118D03*
X030670Y004131D03*
X030665Y004131D03*
X030658Y004138D03*
X030650Y004131D03*
X030645Y004138D03*
X030638Y004141D03*
X030633Y004141D03*
X030630Y004138D03*
X030630Y004136D03*
X030630Y004133D03*
X030630Y004131D03*
X030635Y004133D03*
X030640Y004123D03*
X030640Y004116D03*
X030635Y004111D03*
X030628Y004111D03*
X030628Y004113D03*
X030628Y004116D03*
X030630Y004121D03*
X030620Y004111D03*
X030625Y004103D03*
X030630Y004103D03*
X030633Y004096D03*
X030630Y004091D03*
X030620Y004086D03*
X030610Y004118D03*
X030613Y004123D03*
X030618Y004128D03*
X030623Y004133D03*
X030610Y004133D03*
X030605Y004133D03*
X030603Y004131D03*
X030603Y004128D03*
X030595Y004131D03*
X030593Y004128D03*
X030593Y004141D03*
X030593Y004143D03*
X030588Y004143D03*
X030583Y004146D03*
X030575Y004141D03*
X030573Y004143D03*
X030568Y004153D03*
X030573Y004156D03*
X030575Y004158D03*
X030570Y004161D03*
X030570Y004163D03*
X030570Y004166D03*
X030568Y004173D03*
X030573Y004181D03*
X030573Y004188D03*
X030570Y004198D03*
X030553Y004196D03*
X030543Y004196D03*
X030543Y004198D03*
X030538Y004198D03*
X030540Y004193D03*
X030543Y004191D03*
X030543Y004186D03*
X030540Y004183D03*
X030533Y004183D03*
X030530Y004191D03*
X030530Y004193D03*
X030533Y004196D03*
X030538Y004206D03*
X030543Y004206D03*
X030543Y004216D03*
X030535Y004213D03*
X030530Y004213D03*
X030530Y004211D03*
X030533Y004218D03*
X030533Y004228D03*
X030533Y004231D03*
X030533Y004236D03*
X030528Y004233D03*
X030528Y004231D03*
X030520Y004231D03*
X030520Y004226D03*
X030520Y004221D03*
X030513Y004228D03*
X030510Y004231D03*
X030505Y004226D03*
X030513Y004238D03*
X030515Y004241D03*
X030515Y004243D03*
X030513Y004246D03*
X030510Y004243D03*
X030503Y004243D03*
X030498Y004246D03*
X030503Y004253D03*
X030510Y004256D03*
X030513Y004251D03*
X030520Y004256D03*
X030523Y004251D03*
X030523Y004246D03*
X030535Y004266D03*
X030540Y004266D03*
X030523Y004278D03*
X030518Y004288D03*
X030518Y004291D03*
X030513Y004291D03*
X030508Y004293D03*
X030505Y004296D03*
X030500Y004303D03*
X030498Y004306D03*
X030490Y004303D03*
X030485Y004303D03*
X030483Y004308D03*
X030478Y004303D03*
X030478Y004298D03*
X030473Y004306D03*
X030465Y004303D03*
X030458Y004313D03*
X030453Y004311D03*
X030463Y004316D03*
X030468Y004318D03*
X030470Y004323D03*
X030460Y004323D03*
X030465Y004333D03*
X030460Y004338D03*
X030468Y004343D03*
X030473Y004341D03*
X030478Y004341D03*
X030483Y004341D03*
X030475Y004336D03*
X030480Y004321D03*
X030485Y004323D03*
X030490Y004323D03*
X030490Y004318D03*
X030498Y004328D03*
X030505Y004336D03*
X030498Y004341D03*
X030490Y004351D03*
X030488Y004358D03*
X030480Y004363D03*
X030480Y004366D03*
X030475Y004366D03*
X030475Y004356D03*
X030463Y004358D03*
X030458Y004358D03*
X030458Y004356D03*
X030460Y004351D03*
X030450Y004346D03*
X030448Y004341D03*
X030445Y004338D03*
X030448Y004336D03*
X030445Y004333D03*
X030438Y004326D03*
X030430Y004348D03*
X030428Y004351D03*
X030423Y004348D03*
X030435Y004353D03*
X030440Y004353D03*
X030445Y004353D03*
X030445Y004351D03*
X030440Y004361D03*
X030438Y004366D03*
X030433Y004366D03*
X030443Y004368D03*
X030440Y004381D03*
X030448Y004383D03*
X030465Y004381D03*
X030470Y004381D03*
X030475Y004378D03*
X030465Y004391D03*
X030455Y004401D03*
X030453Y004408D03*
X030425Y004391D03*
X030425Y004388D03*
X030420Y004388D03*
X030415Y004388D03*
X030415Y004383D03*
X030408Y004386D03*
X030405Y004383D03*
X030400Y004383D03*
X030398Y004388D03*
X030395Y004393D03*
X030398Y004396D03*
X030400Y004401D03*
X030398Y004403D03*
X030398Y004406D03*
X030403Y004406D03*
X030405Y004403D03*
X030410Y004403D03*
X030405Y004411D03*
X030393Y004403D03*
X030383Y004403D03*
X030383Y004406D03*
X030380Y004408D03*
X030378Y004406D03*
X030373Y004406D03*
X030368Y004408D03*
X030375Y004418D03*
X030380Y004418D03*
X030380Y004421D03*
X030378Y004423D03*
X030383Y004423D03*
X030380Y004413D03*
X030383Y004411D03*
X030373Y004426D03*
X030365Y004423D03*
X030358Y004433D03*
X030360Y004441D03*
X030358Y004443D03*
X030355Y004448D03*
X030358Y004451D03*
X030355Y004453D03*
X030348Y004453D03*
X030348Y004451D03*
X030348Y004458D03*
X030353Y004466D03*
X030353Y004471D03*
X030348Y004471D03*
X030343Y004471D03*
X030340Y004478D03*
X030345Y004486D03*
X030340Y004488D03*
X030338Y004491D03*
X030335Y004496D03*
X030330Y004501D03*
X030333Y004503D03*
X030333Y004511D03*
X030330Y004513D03*
X030338Y004513D03*
X030338Y004511D03*
X030350Y004513D03*
X030353Y004506D03*
X030345Y004493D03*
X030355Y004481D03*
X030328Y004488D03*
X030325Y004493D03*
X030318Y004498D03*
X030320Y004501D03*
X030318Y004503D03*
X030315Y004506D03*
X030320Y004508D03*
X030323Y004506D03*
X030320Y004516D03*
X030315Y004521D03*
X030313Y004518D03*
X030313Y004516D03*
X030300Y004536D03*
X030300Y004538D03*
X030298Y004543D03*
X030300Y004551D03*
X030298Y004553D03*
X030293Y004553D03*
X030293Y004561D03*
X030298Y004563D03*
X030288Y004566D03*
X030283Y004568D03*
X030283Y004571D03*
X030283Y004578D03*
X030275Y004581D03*
X030275Y004586D03*
X030270Y004586D03*
X030278Y004593D03*
X030260Y004601D03*
X030260Y004603D03*
X030263Y004606D03*
X030263Y004608D03*
X030255Y004631D03*
X030248Y004631D03*
X030248Y004633D03*
X030245Y004636D03*
X030243Y004641D03*
X030238Y004651D03*
X030335Y004626D03*
X030355Y004576D03*
X030338Y004568D03*
X030320Y004541D03*
X030330Y004533D03*
X030335Y004533D03*
X030360Y004538D03*
X030305Y004548D03*
X030285Y004558D03*
X030363Y004451D03*
X030365Y004443D03*
X030370Y004441D03*
X030375Y004441D03*
X030368Y004436D03*
X030393Y004378D03*
X030408Y004378D03*
X030408Y004376D03*
X030413Y004366D03*
X030420Y004371D03*
X030405Y004361D03*
X030405Y004358D03*
X030403Y004353D03*
X030415Y004393D03*
X030405Y004491D03*
X030493Y004298D03*
X030493Y004293D03*
X030488Y004293D03*
X030488Y004283D03*
X030483Y004276D03*
X030490Y004266D03*
X030485Y004261D03*
X030500Y004276D03*
X030498Y004281D03*
X030498Y004286D03*
X030508Y004271D03*
X030533Y004293D03*
X030523Y004303D03*
X030470Y004281D03*
X030575Y004238D03*
X030548Y004183D03*
X030550Y004176D03*
X030555Y004178D03*
X030543Y004173D03*
X030565Y004158D03*
X030580Y004168D03*
X030583Y004163D03*
X030588Y004163D03*
X030588Y004161D03*
X030593Y004163D03*
X030593Y004158D03*
X030603Y004156D03*
X030605Y004146D03*
X030605Y004141D03*
X030600Y004141D03*
X030610Y004141D03*
X030610Y004138D03*
X030623Y004156D03*
X030620Y004173D03*
X030645Y004148D03*
X030650Y004148D03*
X030650Y004146D03*
X030650Y004153D03*
X030665Y004101D03*
X030660Y004096D03*
X030673Y004101D03*
X030695Y004106D03*
X030693Y004063D03*
X030688Y004063D03*
X030683Y004063D03*
X030690Y004058D03*
X030728Y004008D03*
X030845Y003981D03*
X029810Y005478D03*
X029720Y005468D03*
X029240Y005516D03*
X028270Y006031D03*
X028133Y005728D03*
X027555Y006188D03*
X028473Y006276D03*
X027903Y006423D03*
X027833Y006441D03*
X027690Y006553D03*
X027518Y006588D03*
X027458Y006596D03*
X027390Y006596D03*
X029055Y006131D03*
X029080Y006121D03*
X029330Y006103D03*
X029670Y006198D03*
D13*
X029330Y006101D03*
X028118Y005728D03*
X029703Y005551D03*
X031195Y005508D03*
X031198Y005501D03*
X031203Y005493D03*
X031203Y005491D03*
X031203Y005488D03*
X030380Y004533D03*
X030340Y004528D03*
X030330Y004541D03*
X030323Y004538D03*
X030318Y004531D03*
X030313Y004538D03*
X030313Y004541D03*
X030305Y004543D03*
X030305Y004546D03*
X030298Y004568D03*
X030290Y004571D03*
X030290Y004573D03*
X030323Y004521D03*
X030323Y004513D03*
X030323Y004511D03*
X030340Y004508D03*
X030345Y004506D03*
X030348Y004478D03*
X030345Y004473D03*
X030353Y004461D03*
X030355Y004458D03*
X030365Y004453D03*
X030390Y004423D03*
X030388Y004408D03*
X030418Y004391D03*
X030425Y004386D03*
X030430Y004383D03*
X030428Y004378D03*
X030428Y004376D03*
X030433Y004371D03*
X030433Y004361D03*
X030443Y004363D03*
X030440Y004383D03*
X030430Y004401D03*
X030460Y004343D03*
X030468Y004338D03*
X030475Y004343D03*
X030480Y004338D03*
X030493Y004338D03*
X030495Y004333D03*
X030498Y004336D03*
X030490Y004328D03*
X030493Y004308D03*
X030485Y004298D03*
X030488Y004296D03*
X030505Y004306D03*
X030510Y004303D03*
X030513Y004298D03*
X030513Y004296D03*
X030515Y004293D03*
X030523Y004296D03*
X030525Y004293D03*
X030525Y004291D03*
X030530Y004276D03*
X030538Y004281D03*
X030540Y004278D03*
X030513Y004268D03*
X030510Y004266D03*
X030538Y004233D03*
X030535Y004223D03*
X030555Y004193D03*
X030555Y004191D03*
X030555Y004183D03*
X030563Y004198D03*
X030580Y004188D03*
X030613Y004173D03*
X030615Y004166D03*
X030628Y004171D03*
X030638Y004148D03*
X030638Y004138D03*
X030638Y004136D03*
X030643Y004126D03*
X030658Y004131D03*
X030660Y004136D03*
X030623Y004138D03*
X030620Y004131D03*
X030608Y004143D03*
X030605Y004151D03*
X030595Y004151D03*
X030593Y004146D03*
X030600Y004138D03*
X030673Y004098D03*
X030680Y004096D03*
X030680Y004091D03*
X030683Y004083D03*
X030688Y004088D03*
X030693Y004096D03*
X030675Y004071D03*
X030665Y004081D03*
X030683Y004056D03*
X030680Y004053D03*
X030705Y004031D03*
X030718Y004003D03*
X030723Y003991D03*
X030765Y003961D03*
X030778Y003958D03*
X030783Y003951D03*
X030810Y003946D03*
X030810Y003943D03*
X030818Y003938D03*
X030820Y003953D03*
X030853Y003941D03*
X030875Y003938D03*
X030875Y003933D03*
X030885Y003933D03*
X030885Y003938D03*
X030890Y003946D03*
X030900Y003938D03*
X030903Y003951D03*
X030885Y003963D03*
X030850Y003986D03*
X030880Y003916D03*
X030910Y003913D03*
X030915Y003921D03*
X030908Y003903D03*
X030918Y003893D03*
X030938Y003876D03*
X030950Y003873D03*
X030965Y003871D03*
X030965Y003863D03*
X030978Y003858D03*
X030990Y003848D03*
X030988Y003843D03*
X030998Y003843D03*
X030995Y003853D03*
X031010Y003858D03*
X031033Y003838D03*
X031038Y003841D03*
X031053Y003851D03*
X031075Y003851D03*
X031098Y003838D03*
X031110Y003833D03*
X031110Y003831D03*
X031110Y003828D03*
X031120Y003838D03*
X031135Y003846D03*
X031143Y003841D03*
X031143Y003853D03*
X031155Y003841D03*
X031158Y003826D03*
X031140Y003828D03*
X031180Y003836D03*
X031203Y003823D03*
X031210Y003811D03*
X031223Y003816D03*
X031225Y003818D03*
X031228Y003826D03*
X031218Y003826D03*
X031255Y003816D03*
X031263Y003813D03*
X031260Y003808D03*
X031270Y003803D03*
X031273Y003816D03*
X031258Y003836D03*
X031295Y003803D03*
X031303Y003793D03*
X031315Y003803D03*
X031363Y003803D03*
X031365Y003806D03*
X031363Y003811D03*
X031368Y003816D03*
X031428Y003828D03*
X031428Y003831D03*
X031440Y003831D03*
X031138Y003881D03*
X030505Y004313D03*
D14*
X030507Y004316D03*
X030507Y004323D03*
X030502Y004326D03*
X030497Y004331D03*
X030492Y004341D03*
X030494Y004348D03*
X030479Y004361D03*
X030474Y004363D03*
X030477Y004371D03*
X030467Y004383D03*
X030449Y004368D03*
X030447Y004366D03*
X030442Y004371D03*
X030439Y004373D03*
X030437Y004378D03*
X030432Y004388D03*
X030424Y004396D03*
X030414Y004396D03*
X030407Y004391D03*
X030404Y004393D03*
X030404Y004396D03*
X030397Y004398D03*
X030394Y004401D03*
X030389Y004406D03*
X030394Y004411D03*
X030387Y004418D03*
X030374Y004428D03*
X030369Y004431D03*
X030367Y004446D03*
X030357Y004446D03*
X030362Y004463D03*
X030364Y004466D03*
X030359Y004473D03*
X030349Y004483D03*
X030347Y004481D03*
X030339Y004493D03*
X030344Y004511D03*
X030324Y004518D03*
X030319Y004528D03*
X030304Y004541D03*
X030304Y004553D03*
X030302Y004558D03*
X030289Y004556D03*
X030289Y004568D03*
X030287Y004576D03*
X030282Y004573D03*
X030279Y004576D03*
X030277Y004583D03*
X030272Y004593D03*
X030267Y004603D03*
X030257Y004616D03*
X030287Y004598D03*
X030232Y004668D03*
X030369Y004556D03*
X030369Y004541D03*
X030352Y004536D03*
X030399Y004501D03*
X030332Y004476D03*
X030404Y004408D03*
X030422Y004383D03*
X030419Y004376D03*
X030419Y004373D03*
X030439Y004356D03*
X030449Y004356D03*
X030462Y004353D03*
X030467Y004341D03*
X030452Y004343D03*
X030479Y004323D03*
X030484Y004318D03*
X030487Y004321D03*
X030492Y004313D03*
X030492Y004306D03*
X030499Y004298D03*
X030507Y004301D03*
X030514Y004313D03*
X030499Y004288D03*
X030507Y004283D03*
X030522Y004276D03*
X030529Y004273D03*
X030532Y004278D03*
X030532Y004286D03*
X030527Y004266D03*
X030519Y004266D03*
X030512Y004253D03*
X030504Y004256D03*
X030499Y004251D03*
X030504Y004263D03*
X030484Y004268D03*
X030512Y004236D03*
X030534Y004238D03*
X030537Y004216D03*
X030542Y004211D03*
X030544Y004203D03*
X030554Y004198D03*
X030564Y004191D03*
X030567Y004186D03*
X030567Y004183D03*
X030564Y004181D03*
X030564Y004178D03*
X030564Y004176D03*
X030557Y004176D03*
X030562Y004168D03*
X030572Y004168D03*
X030577Y004166D03*
X030587Y004168D03*
X030587Y004158D03*
X030587Y004153D03*
X030584Y004151D03*
X030584Y004138D03*
X030592Y004136D03*
X030602Y004136D03*
X030612Y004128D03*
X030627Y004118D03*
X030637Y004118D03*
X030634Y004126D03*
X030637Y004131D03*
X030642Y004128D03*
X030652Y004128D03*
X030652Y004136D03*
X030652Y004138D03*
X030657Y004141D03*
X030657Y004146D03*
X030662Y004133D03*
X030674Y004123D03*
X030674Y004121D03*
X030677Y004118D03*
X030689Y004108D03*
X030689Y004091D03*
X030679Y004088D03*
X030672Y004088D03*
X030672Y004086D03*
X030672Y004091D03*
X030669Y004093D03*
X030672Y004096D03*
X030662Y004098D03*
X030657Y004101D03*
X030662Y004106D03*
X030652Y004106D03*
X030647Y004116D03*
X030637Y004108D03*
X030637Y004106D03*
X030629Y004108D03*
X030652Y004086D03*
X030662Y004091D03*
X030667Y004083D03*
X030664Y004078D03*
X030674Y004063D03*
X030679Y004066D03*
X030674Y004056D03*
X030689Y004053D03*
X030684Y004043D03*
X030689Y004041D03*
X030697Y004031D03*
X030707Y004021D03*
X030709Y004023D03*
X030714Y004018D03*
X030712Y004013D03*
X030724Y003993D03*
X030732Y003993D03*
X030744Y003983D03*
X030749Y003976D03*
X030764Y003971D03*
X030764Y003963D03*
X030772Y003963D03*
X030787Y003943D03*
X030812Y003953D03*
X030819Y003948D03*
X030824Y003956D03*
X030829Y003951D03*
X030832Y003953D03*
X030839Y003956D03*
X030842Y003946D03*
X030839Y003943D03*
X030839Y003941D03*
X030842Y003936D03*
X030842Y003933D03*
X030839Y003931D03*
X030849Y003933D03*
X030854Y003951D03*
X030874Y003941D03*
X030884Y003931D03*
X030879Y003923D03*
X030869Y003918D03*
X030867Y003923D03*
X030882Y003911D03*
X030892Y003923D03*
X030894Y003933D03*
X030899Y003946D03*
X030922Y003943D03*
X030917Y003931D03*
X030902Y003913D03*
X030917Y003896D03*
X030917Y003891D03*
X030929Y003886D03*
X030939Y003886D03*
X030952Y003888D03*
X030949Y003876D03*
X030949Y003868D03*
X030959Y003861D03*
X030962Y003848D03*
X030977Y003848D03*
X030982Y003846D03*
X030989Y003846D03*
X030997Y003846D03*
X030997Y003841D03*
X030987Y003853D03*
X030984Y003861D03*
X030992Y003861D03*
X030977Y003856D03*
X030974Y003866D03*
X030934Y003868D03*
X030929Y003866D03*
X030929Y003873D03*
X030927Y003876D03*
X031017Y003841D03*
X031022Y003843D03*
X031024Y003838D03*
X031032Y003833D03*
X031039Y003833D03*
X031042Y003836D03*
X031047Y003838D03*
X031047Y003831D03*
X031042Y003828D03*
X031059Y003833D03*
X031059Y003838D03*
X031064Y003836D03*
X031069Y003838D03*
X031072Y003841D03*
X031077Y003838D03*
X031077Y003836D03*
X031082Y003831D03*
X031087Y003833D03*
X031089Y003826D03*
X031074Y003828D03*
X031069Y003833D03*
X031062Y003851D03*
X031044Y003858D03*
X031089Y003846D03*
X031112Y003838D03*
X031129Y003826D03*
X031147Y003818D03*
X031162Y003818D03*
X031162Y003821D03*
X031167Y003826D03*
X031167Y003831D03*
X031172Y003836D03*
X031179Y003831D03*
X031177Y003826D03*
X031187Y003831D03*
X031182Y003838D03*
X031199Y003821D03*
X031197Y003818D03*
X031204Y003818D03*
X031217Y003823D03*
X031229Y003821D03*
X031242Y003816D03*
X031244Y003813D03*
X031244Y003811D03*
X031242Y003803D03*
X031249Y003823D03*
X031264Y003818D03*
X031264Y003816D03*
X031269Y003811D03*
X031269Y003808D03*
X031277Y003806D03*
X031277Y003811D03*
X031314Y003806D03*
X031322Y003806D03*
X031332Y003816D03*
X031339Y003808D03*
X031344Y003806D03*
X031352Y003803D03*
X031354Y003808D03*
X031357Y003816D03*
X031377Y003816D03*
X031377Y003813D03*
X031389Y003821D03*
X031392Y003826D03*
X031399Y003823D03*
X031407Y003823D03*
X031412Y003826D03*
X031409Y003828D03*
X031417Y003828D03*
X031429Y003833D03*
X031434Y003836D03*
X031452Y003851D03*
X031467Y003848D03*
X031532Y003888D03*
X031384Y003826D03*
X031337Y003801D03*
X031217Y003806D03*
X030832Y003943D03*
X030822Y003963D03*
X030707Y004093D03*
X030702Y004096D03*
X030639Y004163D03*
X030622Y004143D03*
X030614Y004146D03*
X030607Y004166D03*
X030579Y004181D03*
X030574Y004183D03*
X030574Y004186D03*
X030582Y004186D03*
X030577Y004196D03*
X030532Y004206D03*
X030524Y004213D03*
X030524Y004216D03*
X031202Y005496D03*
X031199Y005498D03*
X029242Y005518D03*
X029207Y005508D03*
X028849Y005568D03*
X028812Y005583D03*
X028102Y005728D03*
X028229Y006033D03*
X028742Y005998D03*
X028389Y006298D03*
X028484Y006386D03*
X028277Y006426D03*
X027637Y006566D03*
X027432Y006598D03*
X027509Y006188D03*
X027527Y006191D03*
X027537Y006098D03*
X029702Y006201D03*
D15*
X028744Y005996D03*
X031164Y005468D03*
X031179Y005448D03*
X031182Y005446D03*
X031184Y005441D03*
X031184Y005438D03*
X031189Y005436D03*
X030274Y004598D03*
X030304Y004571D03*
X030314Y004558D03*
X030314Y004533D03*
X030334Y004531D03*
X030344Y004523D03*
X030337Y004518D03*
X030394Y004421D03*
X030444Y004401D03*
X030452Y004381D03*
X030464Y004378D03*
X030519Y004301D03*
X030547Y004213D03*
X030599Y004173D03*
X030599Y004153D03*
X030649Y004118D03*
X030657Y004126D03*
X030682Y004093D03*
X030684Y004078D03*
X030684Y004073D03*
X030769Y003966D03*
X030782Y003968D03*
X030827Y003958D03*
X030849Y003958D03*
X030862Y003936D03*
X030904Y003941D03*
X030912Y003946D03*
X030922Y003941D03*
X030932Y003936D03*
X030932Y003891D03*
X031057Y003846D03*
X031077Y003846D03*
X031159Y003843D03*
X031159Y003836D03*
X031209Y003813D03*
X031212Y003808D03*
X031242Y003818D03*
X031297Y003811D03*
X031299Y003806D03*
X031344Y003816D03*
X031369Y003818D03*
X031462Y003858D03*
X031562Y003921D03*
D16*
X031487Y003861D03*
X031484Y003863D03*
X031367Y003821D03*
X031317Y003811D03*
X031317Y003808D03*
X031172Y003841D03*
X031164Y003828D03*
X031159Y003853D03*
X031037Y003846D03*
X030994Y003858D03*
X030969Y003873D03*
X030917Y003938D03*
X030899Y003948D03*
X030809Y003956D03*
X030704Y004088D03*
X030704Y004091D03*
X030692Y004101D03*
X030654Y004123D03*
X030622Y004148D03*
X030617Y004181D03*
X030609Y004186D03*
X030594Y004181D03*
X030559Y004203D03*
X030522Y004281D03*
X030477Y004351D03*
X030462Y004366D03*
X030459Y004363D03*
X030462Y004371D03*
X030439Y004411D03*
X030384Y004431D03*
X030347Y004538D03*
X030362Y004553D03*
X030352Y004568D03*
X030322Y004546D03*
X031207Y005418D03*
X031209Y005416D03*
X031202Y005426D03*
X031169Y005461D03*
D17*
X029359Y006106D03*
X028867Y005568D03*
X030292Y004578D03*
X030302Y004573D03*
X030329Y004528D03*
X030332Y004516D03*
X030347Y004516D03*
X030359Y004518D03*
X030372Y004538D03*
X030377Y004536D03*
X030342Y004536D03*
X030364Y004461D03*
X030364Y004456D03*
X030377Y004456D03*
X030432Y004438D03*
X030422Y004403D03*
X030414Y004401D03*
X030429Y004373D03*
X030439Y004376D03*
X030447Y004378D03*
X030457Y004383D03*
X030467Y004356D03*
X030472Y004346D03*
X030467Y004336D03*
X030457Y004341D03*
X030459Y004346D03*
X030484Y004356D03*
X030487Y004336D03*
X030484Y004331D03*
X030494Y004316D03*
X030507Y004318D03*
X030517Y004306D03*
X030509Y004288D03*
X030517Y004283D03*
X030514Y004278D03*
X030512Y004276D03*
X030529Y004283D03*
X030532Y004288D03*
X030542Y004276D03*
X030542Y004271D03*
X030549Y004266D03*
X030549Y004188D03*
X030562Y004188D03*
X030577Y004171D03*
X030584Y004173D03*
X030592Y004186D03*
X030592Y004188D03*
X030629Y004173D03*
X030624Y004141D03*
X030647Y004141D03*
X030657Y004116D03*
X030672Y004126D03*
X030697Y004093D03*
X030682Y004086D03*
X030682Y004061D03*
X030682Y004058D03*
X030699Y004023D03*
X030767Y003968D03*
X030799Y003966D03*
X030799Y003946D03*
X030799Y003938D03*
X030834Y003948D03*
X030839Y003951D03*
X030864Y003941D03*
X030872Y003971D03*
X030894Y003928D03*
X030934Y003938D03*
X030954Y003886D03*
X030974Y003868D03*
X030969Y003861D03*
X031002Y003861D03*
X031012Y003848D03*
X031014Y003846D03*
X031007Y003841D03*
X031002Y003838D03*
X031032Y003836D03*
X031057Y003841D03*
X031122Y003833D03*
X031124Y003836D03*
X031134Y003833D03*
X031144Y003843D03*
X031152Y003848D03*
X031159Y003838D03*
X031164Y003848D03*
X031172Y003838D03*
X031177Y003833D03*
X031177Y003851D03*
X031152Y003821D03*
X031204Y003816D03*
X031239Y003821D03*
X031274Y003818D03*
X031299Y003808D03*
X031364Y003813D03*
X031402Y003826D03*
X031409Y003831D03*
X031469Y003851D03*
X031564Y003923D03*
D18*
X031480Y003858D03*
X031470Y003853D03*
X031415Y003833D03*
X031338Y003841D03*
X031338Y003811D03*
X031235Y003823D03*
X031130Y003848D03*
X031078Y003848D03*
X031078Y003843D03*
X031020Y003856D03*
X030933Y003888D03*
X030898Y003931D03*
X030885Y003956D03*
X030858Y003943D03*
X030860Y003938D03*
X030845Y003953D03*
X030693Y004048D03*
X030653Y004103D03*
X030648Y004133D03*
X030633Y004161D03*
X030630Y004166D03*
X030593Y004166D03*
X030590Y004148D03*
X030570Y004201D03*
X030550Y004201D03*
X030555Y004251D03*
X030535Y004251D03*
X030533Y004256D03*
X030525Y004271D03*
X030510Y004308D03*
X030480Y004333D03*
X030490Y004343D03*
X030488Y004346D03*
X030475Y004358D03*
X030410Y004398D03*
X030418Y004411D03*
X030313Y004536D03*
X030273Y004601D03*
X031195Y005428D03*
X031183Y005443D03*
X031178Y005451D03*
X031178Y005453D03*
X031178Y005456D03*
X031168Y005463D03*
X031168Y005466D03*
X029633Y006066D03*
X027530Y006188D03*
X027488Y006591D03*
X027395Y006598D03*
D19*
X029360Y006096D03*
X029635Y006083D03*
X029213Y005521D03*
X030338Y004551D03*
X030788Y003976D03*
X031220Y003838D03*
X031323Y003813D03*
X030785Y007343D03*
D20*
X029630Y006063D03*
X029210Y005511D03*
X031175Y005458D03*
X031190Y005433D03*
X031190Y005431D03*
X031195Y005503D03*
X031195Y005506D03*
X030273Y004588D03*
X030340Y004546D03*
X030363Y004536D03*
X030350Y004503D03*
X030355Y004476D03*
X030373Y004448D03*
X030393Y004413D03*
X030418Y004438D03*
X030438Y004386D03*
X030425Y004381D03*
X030433Y004368D03*
X030445Y004358D03*
X030475Y004328D03*
X030500Y004321D03*
X030488Y004301D03*
X030525Y004298D03*
X030518Y004273D03*
X030540Y004273D03*
X030550Y004256D03*
X030548Y004236D03*
X030563Y004196D03*
X030568Y004193D03*
X030575Y004191D03*
X030590Y004183D03*
X030598Y004168D03*
X030593Y004156D03*
X030613Y004156D03*
X030643Y004121D03*
X030658Y004121D03*
X030663Y004128D03*
X030720Y004081D03*
X030690Y004046D03*
X030718Y004008D03*
X030733Y003986D03*
X030785Y003966D03*
X030790Y003958D03*
X030798Y003951D03*
X030805Y003958D03*
X030823Y003946D03*
X030850Y003973D03*
X030855Y003981D03*
X030865Y003973D03*
X030875Y003966D03*
X030878Y003943D03*
X030878Y003936D03*
X030875Y003926D03*
X030888Y003941D03*
X030895Y003936D03*
X030898Y003926D03*
X030915Y003936D03*
X031038Y003856D03*
X031085Y003841D03*
X031093Y003836D03*
X031145Y003838D03*
X031183Y003848D03*
X031200Y003826D03*
X031243Y003826D03*
X031275Y003813D03*
X031148Y003878D03*
X031483Y003866D03*
X031498Y003866D03*
X030553Y004186D03*
X030323Y004523D03*
D21*
X030347Y004558D03*
X030372Y004511D03*
X030407Y004448D03*
X030424Y004413D03*
X030429Y004406D03*
X030539Y004253D03*
X030547Y004241D03*
X030562Y004228D03*
X030969Y003916D03*
X031304Y003816D03*
X031249Y005436D03*
X031222Y005473D03*
X031222Y005476D03*
X031219Y005478D03*
X029207Y005516D03*
X029704Y006198D03*
X030789Y007348D03*
D22*
X029363Y006088D03*
X028748Y005986D03*
X028250Y006021D03*
X028128Y005736D03*
X028865Y005578D03*
X027528Y006181D03*
X030293Y004633D03*
X030293Y004628D03*
X031298Y003833D03*
X031320Y003818D03*
X031390Y003836D03*
D23*
X031337Y003821D03*
X031112Y003846D03*
X031104Y003848D03*
X031032Y003851D03*
X030912Y003918D03*
X030792Y003953D03*
X030787Y003961D03*
X030712Y004078D03*
X030707Y004083D03*
X030704Y004086D03*
X030632Y004153D03*
X030622Y004168D03*
X030607Y004161D03*
X030589Y004203D03*
X030459Y004361D03*
X030407Y004458D03*
X030319Y004568D03*
D24*
X030308Y004566D03*
X030295Y004581D03*
X030438Y004398D03*
X030453Y004388D03*
X030535Y004268D03*
X030555Y004238D03*
X030598Y004196D03*
X030633Y004151D03*
X030695Y004081D03*
X030938Y003931D03*
X030945Y003881D03*
X031110Y003841D03*
X031113Y003843D03*
X031303Y003821D03*
X031493Y003868D03*
X029203Y005513D03*
X028745Y005993D03*
D25*
X028233Y006031D03*
X029633Y006068D03*
X031203Y005423D03*
X031205Y005421D03*
X030308Y004561D03*
X030323Y004543D03*
X030375Y004473D03*
X030373Y004458D03*
X030383Y004446D03*
X030458Y004386D03*
X030480Y004353D03*
X030483Y004326D03*
X030515Y004286D03*
X030568Y004236D03*
X030610Y004188D03*
X030638Y004156D03*
X030675Y004116D03*
X030678Y004106D03*
X030748Y004051D03*
X030718Y004006D03*
X030868Y003963D03*
X030985Y003871D03*
X031028Y003858D03*
X031053Y003853D03*
X031180Y003843D03*
X031273Y003821D03*
X030783Y007351D03*
D26*
X030783Y007333D03*
X030593Y007171D03*
X030590Y007168D03*
X030585Y007163D03*
X030583Y007161D03*
X030580Y007158D03*
X030575Y007153D03*
X030570Y007148D03*
X030568Y007143D03*
X029788Y006098D03*
X029363Y005891D03*
X029363Y005888D03*
X029363Y005886D03*
X029363Y005883D03*
X029363Y005881D03*
X029048Y006063D03*
X029048Y006066D03*
X029053Y006086D03*
X029053Y006088D03*
X029053Y006091D03*
X029053Y006093D03*
X029053Y006096D03*
X028750Y005953D03*
X028973Y005733D03*
X028973Y005731D03*
X028973Y005728D03*
X028965Y005713D03*
X028965Y005711D03*
X028963Y005706D03*
X029243Y005558D03*
X029250Y005568D03*
X029253Y005571D03*
X029255Y005573D03*
X029478Y005636D03*
X029480Y005631D03*
X029483Y005628D03*
X028263Y005881D03*
X028255Y005866D03*
X028253Y005861D03*
X028253Y005858D03*
X028133Y005743D03*
X027325Y005691D03*
X027325Y005688D03*
X027323Y005686D03*
X027323Y005683D03*
X027318Y005633D03*
X027550Y006161D03*
X031608Y004093D03*
X031608Y004091D03*
X031600Y004076D03*
X031598Y004071D03*
X031595Y004066D03*
X031593Y004061D03*
X031593Y004058D03*
X031590Y004056D03*
X031590Y004053D03*
X031073Y003861D03*
X031048Y003868D03*
X031315Y003826D03*
X031318Y003823D03*
D27*
X031329Y003828D03*
X031564Y004006D03*
X031567Y004011D03*
X031567Y004013D03*
X030994Y003893D03*
X029857Y005571D03*
X029542Y005576D03*
X029534Y005578D03*
X029522Y005591D03*
X029364Y005836D03*
X029364Y005838D03*
X029364Y005841D03*
X029364Y005843D03*
X029364Y005846D03*
X029364Y005848D03*
X029364Y005851D03*
X028944Y005681D03*
X028659Y005706D03*
X028657Y005701D03*
X028647Y005686D03*
X028644Y005683D03*
X028642Y005681D03*
X028234Y005833D03*
X028139Y005748D03*
X028749Y005928D03*
X028469Y006298D03*
X027339Y005711D03*
X027334Y005618D03*
X027347Y005598D03*
X030627Y007206D03*
X030629Y007208D03*
X030779Y007328D03*
D28*
X029364Y006103D03*
X030287Y004591D03*
X030359Y004548D03*
X030362Y004546D03*
X030379Y004518D03*
X030402Y004473D03*
X030382Y004443D03*
X030427Y004436D03*
X030442Y004403D03*
X030499Y004311D03*
X030594Y004201D03*
X030612Y004183D03*
X030634Y004146D03*
X030672Y004108D03*
X030677Y004113D03*
X030842Y003963D03*
X030857Y003956D03*
X030904Y003943D03*
X030997Y003856D03*
X031204Y003831D03*
X031239Y003833D03*
X031244Y003828D03*
D29*
X031208Y003828D03*
X030953Y003883D03*
X030943Y003896D03*
X030865Y003948D03*
X030853Y003968D03*
X030605Y004178D03*
X030560Y004231D03*
X030548Y004246D03*
X030548Y004248D03*
X030418Y004431D03*
X030388Y004438D03*
X030380Y004503D03*
X030378Y004506D03*
X030335Y004581D03*
X031250Y005433D03*
X031238Y005448D03*
X031238Y005451D03*
X031238Y005453D03*
X031218Y005481D03*
X027340Y005573D03*
D30*
X028865Y005573D03*
X031225Y005468D03*
X030375Y004491D03*
X030383Y004483D03*
X030568Y004218D03*
X030573Y004211D03*
X030603Y004176D03*
X030955Y003918D03*
X031373Y003831D03*
D31*
X031300Y003831D03*
X031300Y003838D03*
X031125Y003851D03*
X030778Y004006D03*
X030775Y004008D03*
X030755Y004021D03*
X030290Y004638D03*
X030285Y004646D03*
X030280Y004656D03*
X030278Y004661D03*
X030275Y004663D03*
X030275Y004666D03*
X030273Y004671D03*
X030270Y004673D03*
X030260Y004696D03*
X030250Y004721D03*
X030250Y004723D03*
X030248Y004731D03*
X030245Y004733D03*
X030233Y004761D03*
X030233Y004763D03*
X030233Y004766D03*
X030233Y004768D03*
X030230Y004776D03*
X030228Y004781D03*
X030223Y004788D03*
X030218Y004803D03*
X030218Y004806D03*
X030215Y004816D03*
X030208Y004828D03*
X030208Y004831D03*
X030208Y004833D03*
X030208Y004836D03*
X030205Y004841D03*
X030203Y004846D03*
X030200Y004853D03*
X030200Y004856D03*
X030195Y004871D03*
X030195Y004873D03*
X030188Y004886D03*
X030188Y004888D03*
X030188Y004891D03*
X030188Y004893D03*
X030180Y004913D03*
X030180Y004916D03*
X030180Y004918D03*
X030180Y004921D03*
X030180Y004923D03*
X030178Y004928D03*
X030178Y004931D03*
X030173Y004938D03*
X030173Y004941D03*
X030173Y004943D03*
X030173Y004946D03*
X030173Y004948D03*
X030170Y004951D03*
X030168Y004956D03*
X030168Y004958D03*
X030168Y004961D03*
X030168Y004963D03*
X030168Y004966D03*
X030165Y004971D03*
X030165Y004973D03*
X030163Y004976D03*
X030163Y004978D03*
X030163Y004981D03*
X030163Y004983D03*
X030160Y004986D03*
X030155Y005008D03*
X030153Y005013D03*
X030153Y005016D03*
X030153Y005026D03*
X030148Y005038D03*
X030140Y005068D03*
X030140Y005071D03*
X030140Y005073D03*
X030140Y005076D03*
X030140Y005078D03*
X030135Y005096D03*
X030135Y005098D03*
X030135Y005101D03*
X030133Y005103D03*
X030128Y005128D03*
X030130Y005136D03*
X030128Y005138D03*
X030128Y005141D03*
X030128Y005143D03*
X030125Y005151D03*
X030125Y005153D03*
X030125Y005156D03*
X030115Y005201D03*
X030115Y005203D03*
X030115Y005206D03*
X030115Y005208D03*
X030115Y005211D03*
X030115Y005213D03*
X030115Y005216D03*
X030115Y005226D03*
X030113Y005228D03*
X030113Y005231D03*
X030113Y005233D03*
X030110Y005256D03*
X030110Y005258D03*
X030110Y005261D03*
X030110Y005263D03*
X030110Y005266D03*
X030110Y005268D03*
X030110Y005271D03*
X030103Y005311D03*
X030103Y005313D03*
X030103Y005316D03*
X030103Y005318D03*
X030100Y005353D03*
X030100Y005356D03*
X030098Y005373D03*
X030098Y005386D03*
X030098Y005388D03*
X030095Y005408D03*
X030093Y005413D03*
X030093Y005416D03*
X030093Y005418D03*
X030093Y005421D03*
X030093Y005423D03*
X030093Y005426D03*
X030093Y005428D03*
X030093Y005433D03*
X030093Y005436D03*
X030093Y005441D03*
X030093Y005443D03*
X030093Y005446D03*
X030093Y005463D03*
X030093Y005466D03*
X030093Y005468D03*
X030093Y005471D03*
X030090Y005486D03*
X030090Y005488D03*
X030090Y005498D03*
X030090Y005501D03*
X030090Y005503D03*
X030090Y005506D03*
X030090Y005516D03*
X030090Y005518D03*
X030090Y005521D03*
X030090Y005536D03*
X030088Y005561D03*
X030088Y005563D03*
X030088Y005566D03*
X030090Y005571D03*
X030090Y005573D03*
X030090Y005576D03*
X030088Y005581D03*
X030088Y005583D03*
X030088Y005586D03*
X030088Y005588D03*
X030088Y005591D03*
X030088Y005593D03*
X030088Y005596D03*
X030088Y005598D03*
X030088Y005601D03*
X030088Y005603D03*
X030088Y005606D03*
X030088Y005618D03*
X030088Y005621D03*
X030088Y005623D03*
X030088Y005626D03*
X030088Y005628D03*
X030088Y005631D03*
X030088Y005633D03*
X030088Y005651D03*
X030088Y005653D03*
X030088Y005663D03*
X030088Y005666D03*
X030088Y005668D03*
X030093Y005681D03*
X030093Y005683D03*
X030090Y005686D03*
X030090Y005691D03*
X030090Y005693D03*
X030090Y005696D03*
X030090Y005698D03*
X030090Y005701D03*
X030090Y005703D03*
X030090Y005706D03*
X030090Y005708D03*
X030090Y005713D03*
X030090Y005716D03*
X030090Y005718D03*
X030090Y005721D03*
X030090Y005723D03*
X030090Y005726D03*
X030090Y005728D03*
X030090Y005731D03*
X030093Y005743D03*
X030093Y005746D03*
X030093Y005748D03*
X030093Y005763D03*
X030095Y005771D03*
X030093Y005793D03*
X030093Y005796D03*
X030093Y005798D03*
X030093Y005801D03*
X030093Y005803D03*
X030095Y005828D03*
X030098Y005836D03*
X030098Y005846D03*
X030098Y005858D03*
X030098Y005861D03*
X030098Y005863D03*
X030100Y005876D03*
X030100Y005878D03*
X030100Y005881D03*
X030100Y005883D03*
X030100Y005886D03*
X030103Y005891D03*
X030103Y005893D03*
X030103Y005908D03*
X030103Y005911D03*
X030103Y005913D03*
X030103Y005916D03*
X030103Y005918D03*
X030108Y005961D03*
X030108Y005963D03*
X030110Y005968D03*
X030110Y005971D03*
X030110Y005973D03*
X030110Y005986D03*
X030110Y005988D03*
X030118Y006031D03*
X030118Y006033D03*
X030118Y006036D03*
X030120Y006053D03*
X030120Y006056D03*
X030123Y006071D03*
X030123Y006073D03*
X030123Y006076D03*
X030123Y006078D03*
X030123Y006081D03*
X030125Y006086D03*
X030125Y006088D03*
X030125Y006091D03*
X030125Y006093D03*
X030125Y006096D03*
X030128Y006101D03*
X030128Y006103D03*
X030130Y006118D03*
X030130Y006121D03*
X030130Y006123D03*
X030133Y006136D03*
X030135Y006151D03*
X030138Y006158D03*
X030140Y006171D03*
X030140Y006173D03*
X030143Y006188D03*
X030145Y006211D03*
X030148Y006218D03*
X030148Y006221D03*
X030148Y006223D03*
X030150Y006233D03*
X030153Y006241D03*
X030153Y006243D03*
X030153Y006246D03*
X030158Y006263D03*
X030175Y006338D03*
X030183Y006368D03*
X030185Y006376D03*
X030210Y006458D03*
X030213Y006468D03*
X030213Y006471D03*
X030213Y006473D03*
X030220Y006493D03*
X029698Y006191D03*
X029048Y006116D03*
X028253Y006016D03*
X028253Y006013D03*
D32*
X029039Y006128D03*
X029362Y006101D03*
X027417Y006596D03*
X030327Y004548D03*
X030357Y004533D03*
X030414Y004446D03*
X030424Y004421D03*
X030462Y004373D03*
X030602Y004191D03*
X030604Y004171D03*
X030682Y004103D03*
X030799Y003963D03*
X030867Y003946D03*
X031049Y003843D03*
X031174Y003878D03*
X031237Y003831D03*
D33*
X031369Y003833D03*
X030949Y003921D03*
X030722Y004058D03*
X030719Y004061D03*
X030712Y004071D03*
X030577Y004206D03*
X030527Y004258D03*
X030529Y004261D03*
X030419Y004418D03*
X030409Y004441D03*
X030399Y004453D03*
X030394Y004463D03*
X030382Y004486D03*
X031259Y005421D03*
X029629Y006076D03*
X029354Y006098D03*
X029039Y006126D03*
X027444Y006591D03*
D34*
X028864Y005571D03*
X031232Y005466D03*
X031232Y005463D03*
X031234Y005458D03*
X031237Y005456D03*
X031239Y005446D03*
X030357Y004543D03*
X030364Y004531D03*
X030367Y004528D03*
X030374Y004516D03*
X030329Y004553D03*
X030392Y004436D03*
X030429Y004408D03*
X030597Y004193D03*
X030824Y003961D03*
X030844Y003976D03*
X030924Y003916D03*
X031204Y003833D03*
D35*
X031304Y003836D03*
X030307Y004606D03*
X030302Y004611D03*
X030297Y004618D03*
X030277Y004668D03*
X030267Y004686D03*
X030264Y004688D03*
X030162Y004993D03*
X030162Y004996D03*
X030122Y005168D03*
X030094Y005641D03*
X030094Y005643D03*
X030094Y005646D03*
X030092Y005648D03*
X028507Y005551D03*
X029642Y006086D03*
X028484Y006286D03*
D36*
X028489Y006281D03*
X029039Y006121D03*
X029699Y006196D03*
X027524Y006186D03*
X030317Y004593D03*
X030334Y004563D03*
X030332Y004556D03*
X030709Y004068D03*
X030727Y004053D03*
X030737Y004046D03*
X030939Y003923D03*
X031219Y003836D03*
D37*
X031392Y003838D03*
X031394Y003841D03*
X030819Y003971D03*
X030282Y004653D03*
X030279Y004658D03*
X030232Y004771D03*
X030232Y004773D03*
X030229Y004778D03*
X030217Y004808D03*
X030217Y004811D03*
X030217Y004813D03*
X030207Y004838D03*
X030204Y004843D03*
X030202Y004848D03*
X030202Y004851D03*
X030199Y004858D03*
X030199Y004861D03*
X030197Y004868D03*
X030179Y004926D03*
X030177Y004933D03*
X030154Y005011D03*
X030109Y005273D03*
X030109Y005276D03*
X030109Y005278D03*
X030107Y005286D03*
X030107Y005288D03*
X030107Y005291D03*
X030107Y005296D03*
X030107Y005298D03*
X030107Y005301D03*
X030107Y005303D03*
X030104Y005308D03*
X030104Y005333D03*
X030104Y005336D03*
X030104Y005338D03*
X030102Y005346D03*
X030102Y005348D03*
X030102Y005351D03*
X030097Y005391D03*
X030097Y005393D03*
X030097Y005396D03*
X030097Y005398D03*
X030097Y005401D03*
X030097Y005403D03*
X030097Y005406D03*
X030092Y005431D03*
X030094Y005438D03*
X030094Y005448D03*
X030092Y005473D03*
X030092Y005476D03*
X030092Y005478D03*
X030092Y005481D03*
X030092Y005483D03*
X030092Y005508D03*
X030089Y005523D03*
X030092Y005526D03*
X030092Y005528D03*
X030092Y005531D03*
X030089Y005578D03*
X030089Y005608D03*
X030089Y005611D03*
X030089Y005613D03*
X030089Y005616D03*
X030089Y005656D03*
X030089Y005658D03*
X030089Y005661D03*
X030089Y005688D03*
X030089Y005711D03*
X030092Y005733D03*
X030092Y005736D03*
X030092Y005738D03*
X030092Y005741D03*
X030094Y005766D03*
X030094Y005768D03*
X030094Y005806D03*
X030097Y005838D03*
X030097Y005841D03*
X030099Y005848D03*
X030099Y005851D03*
X030099Y005853D03*
X030099Y005856D03*
X030099Y005866D03*
X030099Y005868D03*
X030104Y005906D03*
X030104Y005921D03*
X030104Y005923D03*
X030107Y005938D03*
X030107Y005941D03*
X030107Y005943D03*
X030109Y005948D03*
X030109Y005951D03*
X030109Y005953D03*
X030109Y005958D03*
X030109Y005976D03*
X030109Y005978D03*
X030112Y005981D03*
X030112Y005983D03*
X030114Y006003D03*
X030114Y006006D03*
X030117Y006013D03*
X030117Y006016D03*
X030117Y006018D03*
X030117Y006021D03*
X030117Y006023D03*
X030117Y006026D03*
X030117Y006028D03*
X030119Y006038D03*
X030119Y006041D03*
X030119Y006043D03*
X030119Y006046D03*
X030119Y006048D03*
X030119Y006051D03*
X030122Y006058D03*
X030122Y006061D03*
X030122Y006063D03*
X030122Y006066D03*
X030122Y006068D03*
X030124Y006083D03*
X030127Y006098D03*
X030129Y006106D03*
X030129Y006108D03*
X030129Y006111D03*
X030129Y006113D03*
X030129Y006116D03*
X030132Y006126D03*
X030132Y006128D03*
X030132Y006131D03*
X030132Y006133D03*
X030134Y006138D03*
X030134Y006141D03*
X030134Y006143D03*
X030134Y006146D03*
X030134Y006148D03*
X030137Y006153D03*
X030137Y006156D03*
X030139Y006161D03*
X030139Y006163D03*
X030139Y006166D03*
X030139Y006168D03*
X030142Y006176D03*
X030142Y006178D03*
X030142Y006181D03*
X030142Y006183D03*
X030142Y006186D03*
X030144Y006191D03*
X030144Y006193D03*
X030144Y006196D03*
X030147Y006201D03*
X030147Y006203D03*
X030147Y006206D03*
X030147Y006208D03*
X030149Y006226D03*
X030149Y006228D03*
X030149Y006231D03*
X030152Y006236D03*
X030152Y006238D03*
X030154Y006248D03*
X030154Y006251D03*
X030154Y006253D03*
X030157Y006258D03*
X030157Y006261D03*
X030159Y006266D03*
X030159Y006268D03*
X030162Y006276D03*
X030162Y006278D03*
X030162Y006281D03*
X030162Y006283D03*
X030162Y006286D03*
X030164Y006288D03*
X030164Y006291D03*
X030167Y006293D03*
X030167Y006296D03*
X030167Y006298D03*
X030169Y006313D03*
X030169Y006316D03*
X030169Y006318D03*
X030172Y006321D03*
X030172Y006323D03*
X030174Y006326D03*
X030174Y006328D03*
X030174Y006331D03*
X030174Y006333D03*
X030174Y006336D03*
X030177Y006341D03*
X030179Y006348D03*
X030182Y006361D03*
X030182Y006363D03*
X030182Y006366D03*
X030184Y006371D03*
X030184Y006373D03*
X030187Y006378D03*
X030189Y006386D03*
X030189Y006388D03*
X030192Y006393D03*
X030197Y006411D03*
X030197Y006413D03*
X030197Y006416D03*
X030197Y006418D03*
X030202Y006428D03*
X030202Y006431D03*
X030202Y006433D03*
X030204Y006438D03*
X030207Y006441D03*
X030207Y006443D03*
X030207Y006446D03*
X030209Y006453D03*
X030209Y006456D03*
X030212Y006461D03*
X030212Y006463D03*
X030212Y006466D03*
X030214Y006476D03*
X030219Y006488D03*
X030219Y006491D03*
X030222Y006496D03*
X030222Y006498D03*
X030222Y006501D03*
X030224Y006506D03*
X030242Y006553D03*
X030242Y006556D03*
X030242Y006558D03*
X030244Y006561D03*
X030244Y006563D03*
X029359Y006086D03*
X029049Y006113D03*
X028749Y005981D03*
X027534Y006178D03*
X030789Y007341D03*
D38*
X030633Y007213D03*
X030630Y007211D03*
X028750Y005926D03*
X028750Y005923D03*
X028235Y005836D03*
X028635Y005673D03*
X028638Y005676D03*
X028640Y005678D03*
X029550Y005568D03*
X031053Y003873D03*
X031255Y003841D03*
X031560Y004003D03*
D39*
X031318Y003843D03*
X029723Y005493D03*
X028880Y005661D03*
X029720Y006108D03*
D40*
X027803Y006493D03*
X027748Y006506D03*
X027708Y006516D03*
X031295Y003846D03*
D41*
X031320Y003848D03*
D42*
X031040Y003848D03*
X031020Y003853D03*
X030878Y003951D03*
X030878Y003958D03*
X030810Y003968D03*
X030715Y004073D03*
X030615Y004163D03*
X030593Y004198D03*
X030575Y004213D03*
X030563Y004233D03*
X030440Y004393D03*
X030415Y004443D03*
X030403Y004456D03*
X030375Y004513D03*
X030373Y004523D03*
X030345Y004566D03*
X031233Y005461D03*
D43*
X028883Y005678D03*
X031315Y003851D03*
X031400Y003886D03*
D44*
X031000Y003851D03*
X030948Y003878D03*
X030783Y003956D03*
X030693Y004098D03*
X030675Y004111D03*
X030640Y004143D03*
X030473Y004348D03*
X030468Y004368D03*
X030463Y004376D03*
X030445Y004391D03*
X030445Y004396D03*
X030350Y004541D03*
X031208Y005483D03*
X031205Y005486D03*
X029633Y006071D03*
X028498Y005546D03*
D45*
X028422Y006331D03*
X027679Y006523D03*
X031312Y003853D03*
D46*
X031102Y003853D03*
X030737Y004041D03*
X030404Y004433D03*
X027344Y005578D03*
X028129Y005733D03*
X028247Y006026D03*
X028487Y006283D03*
X029362Y006093D03*
X029699Y006193D03*
D47*
X031267Y003856D03*
D48*
X031294Y003858D03*
X027914Y006463D03*
D49*
X027464Y006588D03*
X028254Y006018D03*
X028749Y005983D03*
X029642Y006091D03*
X030112Y005993D03*
X030112Y005991D03*
X030114Y005996D03*
X030114Y005998D03*
X030114Y006001D03*
X030109Y005966D03*
X030102Y005903D03*
X030102Y005901D03*
X030102Y005898D03*
X030102Y005896D03*
X030102Y005888D03*
X030097Y005833D03*
X030097Y005831D03*
X030097Y005826D03*
X030097Y005823D03*
X030097Y005821D03*
X030097Y005818D03*
X030097Y005816D03*
X030097Y005813D03*
X030097Y005811D03*
X030097Y005808D03*
X030094Y005791D03*
X030094Y005788D03*
X030094Y005786D03*
X030094Y005783D03*
X030094Y005781D03*
X030094Y005778D03*
X030094Y005776D03*
X030094Y005773D03*
X030094Y005761D03*
X030094Y005758D03*
X030092Y005753D03*
X030092Y005751D03*
X030092Y005678D03*
X030092Y005676D03*
X030092Y005673D03*
X030092Y005638D03*
X030089Y005636D03*
X030089Y005568D03*
X030087Y005558D03*
X030087Y005556D03*
X030089Y005551D03*
X030087Y005546D03*
X030089Y005538D03*
X030089Y005496D03*
X030089Y005493D03*
X030089Y005491D03*
X030092Y005461D03*
X030092Y005458D03*
X030092Y005456D03*
X030094Y005411D03*
X030099Y005383D03*
X030099Y005381D03*
X030099Y005378D03*
X030099Y005376D03*
X030099Y005371D03*
X030099Y005368D03*
X030102Y005358D03*
X030104Y005328D03*
X030104Y005326D03*
X030104Y005323D03*
X030104Y005321D03*
X030109Y005253D03*
X030112Y005243D03*
X030112Y005241D03*
X030112Y005238D03*
X030112Y005236D03*
X030117Y005223D03*
X030117Y005221D03*
X030117Y005218D03*
X030117Y005198D03*
X030119Y005191D03*
X030119Y005188D03*
X030119Y005186D03*
X030119Y005183D03*
X030119Y005181D03*
X030124Y005158D03*
X030127Y005148D03*
X030127Y005146D03*
X030129Y005133D03*
X030129Y005131D03*
X030129Y005126D03*
X030129Y005123D03*
X030132Y005111D03*
X030132Y005108D03*
X030132Y005106D03*
X030137Y005093D03*
X030137Y005091D03*
X030137Y005088D03*
X030139Y005086D03*
X030139Y005083D03*
X030139Y005081D03*
X030142Y005066D03*
X030142Y005063D03*
X030142Y005061D03*
X030142Y005058D03*
X030144Y005056D03*
X030144Y005053D03*
X030144Y005051D03*
X030147Y005043D03*
X030147Y005041D03*
X030149Y005036D03*
X030149Y005033D03*
X030149Y005031D03*
X030149Y005028D03*
X030152Y005023D03*
X030152Y005021D03*
X030152Y005018D03*
X030157Y005006D03*
X030157Y005003D03*
X030157Y005001D03*
X030162Y004988D03*
X030167Y004968D03*
X030169Y004953D03*
X030182Y004911D03*
X030182Y004908D03*
X030184Y004901D03*
X030187Y004896D03*
X030189Y004883D03*
X030192Y004881D03*
X030192Y004878D03*
X030194Y004876D03*
X030209Y004826D03*
X030212Y004823D03*
X030214Y004821D03*
X030214Y004818D03*
X030219Y004801D03*
X030222Y004798D03*
X030222Y004796D03*
X030222Y004793D03*
X030222Y004791D03*
X030227Y004783D03*
X030234Y004758D03*
X030237Y004756D03*
X030239Y004753D03*
X030239Y004751D03*
X030239Y004748D03*
X030239Y004746D03*
X030249Y004728D03*
X030249Y004726D03*
X030252Y004718D03*
X030252Y004716D03*
X030254Y004713D03*
X030254Y004711D03*
X030254Y004708D03*
X030257Y004706D03*
X030257Y004703D03*
X030257Y004701D03*
X030259Y004698D03*
X030262Y004693D03*
X030262Y004691D03*
X030264Y004683D03*
X030267Y004678D03*
X030284Y004651D03*
X030287Y004648D03*
X030289Y004641D03*
X030297Y004623D03*
X030297Y004621D03*
X030737Y004036D03*
X030739Y004033D03*
X030762Y004018D03*
X031092Y003858D03*
X030147Y006213D03*
X030147Y006216D03*
D50*
X031304Y003861D03*
D51*
X031305Y003863D03*
D52*
X031088Y003863D03*
X030783Y003996D03*
X030778Y003998D03*
X031655Y004498D03*
X031650Y004531D03*
X031650Y004533D03*
X031650Y004536D03*
X031645Y004591D03*
X031638Y004626D03*
X031638Y004628D03*
X031638Y004631D03*
X031623Y004703D03*
X031618Y004718D03*
X031608Y004746D03*
X031608Y004748D03*
X031608Y004751D03*
X031598Y004778D03*
X031598Y004786D03*
X031598Y004788D03*
X031598Y004791D03*
X031595Y004793D03*
X031588Y004818D03*
X031585Y004826D03*
X031585Y004828D03*
X031560Y004886D03*
X031528Y004963D03*
X031528Y004966D03*
X031525Y004968D03*
X031518Y004988D03*
X031510Y005008D03*
X031508Y005013D03*
X031493Y005038D03*
X031493Y005041D03*
X031485Y005051D03*
X031485Y005053D03*
X031468Y005088D03*
X031465Y005091D03*
X031420Y005178D03*
X031418Y005181D03*
X031383Y005233D03*
X031380Y005238D03*
X031375Y005246D03*
X031365Y005261D03*
X031363Y005263D03*
X031358Y005268D03*
X029890Y005621D03*
X029893Y005636D03*
X029893Y005638D03*
X029893Y005641D03*
X029893Y005643D03*
X029895Y005646D03*
X029895Y005648D03*
X029895Y005651D03*
X029895Y005653D03*
X029898Y005678D03*
X029898Y005721D03*
X029898Y005723D03*
X029868Y005913D03*
X029868Y005916D03*
X029853Y005963D03*
X029848Y005973D03*
X029848Y005976D03*
X029848Y005978D03*
X029848Y005981D03*
X029845Y005986D03*
X029843Y005988D03*
X029843Y005991D03*
X029840Y005996D03*
X029650Y006103D03*
X029320Y005683D03*
X029320Y005681D03*
X029318Y005676D03*
X029318Y005673D03*
X029313Y005658D03*
X029308Y005648D03*
X029308Y005646D03*
X029308Y005643D03*
X029300Y005631D03*
X029300Y005628D03*
X029298Y005626D03*
X029293Y005618D03*
X029290Y005616D03*
X028803Y005691D03*
X028803Y005693D03*
X028800Y005698D03*
X027543Y006168D03*
X027348Y005588D03*
X027348Y005586D03*
X030385Y006871D03*
X030388Y006876D03*
X030390Y006878D03*
X030390Y006881D03*
X030393Y006883D03*
X030395Y006888D03*
X030398Y006893D03*
X030400Y006896D03*
X030400Y006898D03*
X030403Y006901D03*
X030403Y006903D03*
X030413Y006916D03*
X030413Y006918D03*
X030423Y006931D03*
X030425Y006936D03*
X030428Y006943D03*
X030430Y006946D03*
X030433Y006951D03*
X030435Y006953D03*
X030438Y006958D03*
X030440Y006963D03*
X030443Y006966D03*
X030448Y006973D03*
X030450Y006981D03*
D53*
X030783Y007346D03*
X029630Y006078D03*
X028743Y005991D03*
X028243Y006028D03*
X027343Y005576D03*
X030320Y004598D03*
X030328Y004578D03*
X030323Y004576D03*
X030363Y004521D03*
X030370Y004498D03*
X030375Y004496D03*
X030388Y004471D03*
X030388Y004468D03*
X030573Y004208D03*
X030713Y004066D03*
X030938Y003926D03*
X031003Y003863D03*
X031260Y005416D03*
X031260Y005418D03*
D54*
X031224Y003866D03*
D55*
X031294Y003868D03*
X028044Y006433D03*
X028027Y006438D03*
D56*
X031255Y003871D03*
D57*
X031322Y003873D03*
X028352Y006358D03*
D58*
X031237Y003876D03*
D59*
X031357Y003878D03*
X027942Y006456D03*
D60*
X027730Y005998D03*
X027463Y005821D03*
X027448Y005806D03*
X027443Y005803D03*
X027440Y005801D03*
X027408Y005776D03*
X027403Y005773D03*
X027393Y005766D03*
X028208Y005816D03*
X028600Y005641D03*
X028745Y005841D03*
X028745Y005843D03*
X028745Y005846D03*
X028745Y005848D03*
X028743Y005858D03*
X028743Y005861D03*
X028868Y005603D03*
X029370Y005776D03*
X030775Y007321D03*
X031050Y003878D03*
X031508Y003946D03*
D61*
X031373Y003881D03*
X029715Y005508D03*
X027878Y006473D03*
X027828Y006486D03*
D62*
X027558Y006153D03*
X027745Y006013D03*
X027753Y006018D03*
X028140Y005753D03*
X028218Y005821D03*
X028220Y005823D03*
X028618Y005653D03*
X028870Y005596D03*
X029368Y005806D03*
X029560Y005561D03*
X029850Y005566D03*
X028748Y005898D03*
X028748Y005901D03*
X028748Y005903D03*
X027350Y005728D03*
X030653Y007228D03*
X030655Y007231D03*
X030675Y007246D03*
X031550Y003988D03*
X031543Y003981D03*
X031535Y003976D03*
X031535Y003973D03*
X031045Y003881D03*
D63*
X031393Y003883D03*
X028425Y006328D03*
D64*
X029050Y006078D03*
X029050Y006076D03*
X029050Y006073D03*
X029050Y006071D03*
X028753Y005948D03*
X028955Y005696D03*
X028955Y005693D03*
X028953Y005691D03*
X029360Y005861D03*
X029360Y005863D03*
X029360Y005866D03*
X029363Y005871D03*
X029363Y005873D03*
X029783Y006103D03*
X029863Y005576D03*
X029518Y005593D03*
X029510Y005601D03*
X029508Y005603D03*
X029495Y005613D03*
X029493Y005616D03*
X029490Y005621D03*
X028245Y005848D03*
X027328Y005693D03*
X027320Y005631D03*
X027325Y005626D03*
X027348Y005596D03*
X031580Y004036D03*
X031580Y004033D03*
X031578Y004031D03*
X031578Y004028D03*
X031585Y004043D03*
X031043Y003883D03*
X030983Y003898D03*
X030600Y007176D03*
X030603Y007181D03*
X030605Y007183D03*
X030610Y007188D03*
X030613Y007191D03*
D65*
X030643Y007221D03*
X030645Y007223D03*
X027555Y006156D03*
X027758Y006031D03*
X027758Y006028D03*
X027758Y006026D03*
X027755Y006023D03*
X027755Y006021D03*
X028225Y005826D03*
X027343Y005718D03*
X027343Y005716D03*
X027343Y005713D03*
X027340Y005611D03*
X027345Y005606D03*
X027345Y005603D03*
X029365Y005821D03*
X029365Y005823D03*
X029365Y005826D03*
X031035Y003886D03*
X031545Y003983D03*
X031550Y003991D03*
X031553Y003993D03*
X031553Y003996D03*
X031555Y003998D03*
D66*
X031405Y003888D03*
X028880Y005656D03*
X028725Y005726D03*
X029720Y006116D03*
X029720Y006118D03*
D67*
X029792Y006096D03*
X029362Y005921D03*
X029362Y005918D03*
X029362Y005916D03*
X029362Y005913D03*
X029362Y005898D03*
X029362Y005896D03*
X029362Y005893D03*
X029034Y006006D03*
X029034Y006008D03*
X029039Y006028D03*
X029039Y006031D03*
X029039Y006033D03*
X029039Y006036D03*
X029042Y006041D03*
X029042Y006043D03*
X029044Y006046D03*
X029044Y006048D03*
X029044Y006051D03*
X029044Y006053D03*
X029044Y006056D03*
X029044Y006058D03*
X028752Y005956D03*
X028984Y005758D03*
X028974Y005736D03*
X028972Y005726D03*
X028969Y005716D03*
X028959Y005701D03*
X029247Y005563D03*
X029247Y005561D03*
X029244Y005556D03*
X029257Y005576D03*
X029457Y005663D03*
X029469Y005646D03*
X029472Y005643D03*
X029474Y005641D03*
X029477Y005638D03*
X029479Y005633D03*
X029867Y005581D03*
X029869Y005583D03*
X028517Y005561D03*
X028257Y005868D03*
X028259Y005871D03*
X028259Y005873D03*
X028262Y005876D03*
X028262Y005878D03*
X028264Y005883D03*
X027347Y005593D03*
X027317Y005636D03*
X027317Y005638D03*
X027314Y005653D03*
X027314Y005656D03*
X027314Y005658D03*
X027317Y005673D03*
X027317Y005676D03*
X027322Y005681D03*
X030554Y007126D03*
X030559Y007131D03*
X030564Y007138D03*
X030567Y007141D03*
X030569Y007146D03*
X030574Y007151D03*
X030587Y007166D03*
X031629Y004148D03*
X031622Y004126D03*
X031612Y004103D03*
X031612Y004101D03*
X031612Y004098D03*
X031607Y004088D03*
X031604Y004086D03*
X031604Y004083D03*
X031602Y004078D03*
X031599Y004073D03*
X031022Y003888D03*
X030787Y003988D03*
D68*
X031417Y003891D03*
X028879Y005653D03*
X028727Y005728D03*
X028727Y005731D03*
X029722Y006121D03*
D69*
X029787Y006101D03*
X029364Y005878D03*
X029364Y005876D03*
X029362Y005868D03*
X029047Y006061D03*
X029049Y006068D03*
X029052Y006081D03*
X029052Y006083D03*
X028752Y005951D03*
X028964Y005708D03*
X028962Y005703D03*
X028957Y005698D03*
X028952Y005688D03*
X028867Y005588D03*
X029249Y005566D03*
X029487Y005626D03*
X029489Y005623D03*
X029492Y005618D03*
X029499Y005611D03*
X029504Y005608D03*
X029504Y005606D03*
X029722Y005476D03*
X029864Y005578D03*
X028254Y005863D03*
X028252Y005856D03*
X028249Y005853D03*
X028247Y005851D03*
X027324Y005628D03*
X027487Y006583D03*
X030577Y007156D03*
X030597Y007173D03*
X031597Y004068D03*
X031594Y004063D03*
X031589Y004051D03*
X031589Y004048D03*
X031587Y004046D03*
X031012Y003891D03*
D70*
X031424Y003893D03*
X031429Y003896D03*
X029382Y005693D03*
X029382Y005696D03*
X028729Y005748D03*
X029714Y006138D03*
X028442Y006316D03*
D71*
X029045Y006118D03*
X029640Y006088D03*
X030093Y005756D03*
X030090Y005671D03*
X030088Y005553D03*
X030088Y005548D03*
X030088Y005543D03*
X030088Y005541D03*
X030100Y005366D03*
X030100Y005363D03*
X030100Y005361D03*
X030110Y005251D03*
X030110Y005248D03*
X030110Y005246D03*
X030118Y005196D03*
X030118Y005193D03*
X030120Y005178D03*
X030120Y005176D03*
X030120Y005173D03*
X030120Y005171D03*
X030123Y005166D03*
X030123Y005163D03*
X030123Y005161D03*
X030130Y005121D03*
X030130Y005118D03*
X030130Y005116D03*
X030130Y005113D03*
X030145Y005048D03*
X030145Y005046D03*
X030158Y004998D03*
X030163Y004991D03*
X030183Y004906D03*
X030183Y004903D03*
X030185Y004898D03*
X030225Y004786D03*
X030240Y004743D03*
X030243Y004741D03*
X030243Y004738D03*
X030245Y004736D03*
X030268Y004681D03*
X030270Y004676D03*
X030288Y004643D03*
X030293Y004636D03*
X030308Y004596D03*
X030730Y004043D03*
X030745Y004028D03*
X030750Y004026D03*
X030755Y004023D03*
X030958Y003913D03*
X031008Y003896D03*
X029723Y005471D03*
X027350Y005581D03*
D72*
X028730Y005751D03*
X028730Y005753D03*
X028730Y005756D03*
X028730Y005758D03*
X028878Y005638D03*
X029720Y005488D03*
X029713Y006141D03*
X027608Y006546D03*
X031433Y003898D03*
D73*
X031438Y003901D03*
X028875Y005633D03*
X028553Y005616D03*
X028550Y005611D03*
X029380Y005701D03*
X029713Y006143D03*
X030733Y007273D03*
D74*
X030539Y007106D03*
X030532Y007096D03*
X030529Y007091D03*
X030502Y007056D03*
X030499Y007053D03*
X029797Y006086D03*
X029802Y006078D03*
X029802Y006076D03*
X029807Y006068D03*
X029367Y006046D03*
X029367Y006043D03*
X029367Y006041D03*
X029367Y006038D03*
X029364Y006051D03*
X029364Y006053D03*
X029364Y006056D03*
X029364Y006058D03*
X029367Y006021D03*
X029367Y006003D03*
X029364Y006001D03*
X029364Y005998D03*
X029364Y005996D03*
X029364Y005993D03*
X029364Y005991D03*
X029364Y005988D03*
X029364Y005973D03*
X029364Y005971D03*
X029364Y005968D03*
X029364Y005966D03*
X029362Y005953D03*
X029362Y005951D03*
X029362Y005948D03*
X029362Y005936D03*
X029362Y005933D03*
X029362Y005908D03*
X029362Y005906D03*
X029029Y005976D03*
X029027Y005966D03*
X029024Y005961D03*
X029024Y005958D03*
X029024Y005956D03*
X029024Y005953D03*
X029024Y005951D03*
X029024Y005948D03*
X029024Y005946D03*
X029022Y005941D03*
X029022Y005938D03*
X029019Y005936D03*
X029019Y005933D03*
X029019Y005931D03*
X029019Y005928D03*
X029017Y005916D03*
X029032Y005988D03*
X029032Y005991D03*
X029037Y006018D03*
X029037Y006021D03*
X029052Y006098D03*
X028752Y005961D03*
X028994Y005801D03*
X028994Y005798D03*
X028994Y005796D03*
X028994Y005793D03*
X028989Y005773D03*
X028984Y005766D03*
X028984Y005763D03*
X028982Y005756D03*
X028982Y005753D03*
X028982Y005751D03*
X028979Y005748D03*
X028979Y005746D03*
X028979Y005743D03*
X028979Y005741D03*
X028867Y005586D03*
X029242Y005551D03*
X029272Y005588D03*
X028269Y005896D03*
X028269Y005898D03*
X028269Y005901D03*
X028269Y005913D03*
X028269Y005916D03*
X028269Y005918D03*
X028269Y005921D03*
X028267Y005888D03*
X028264Y005963D03*
X028264Y005966D03*
X028259Y005978D03*
X028259Y005981D03*
X028259Y005983D03*
X028132Y005741D03*
X027317Y005646D03*
X027314Y005663D03*
X027314Y005666D03*
X027549Y006163D03*
X031654Y004276D03*
X031654Y004263D03*
X031652Y004261D03*
X031652Y004258D03*
X031649Y004256D03*
X031649Y004253D03*
X031647Y004218D03*
X031644Y004208D03*
X031644Y004206D03*
X031642Y004203D03*
X031637Y004178D03*
X031634Y004173D03*
X031634Y004171D03*
X031634Y004168D03*
X031634Y004166D03*
X031632Y004163D03*
X031629Y004156D03*
X031629Y004153D03*
X031627Y004146D03*
X031627Y004143D03*
X031627Y004141D03*
X031627Y004138D03*
X031617Y004116D03*
X031614Y004111D03*
X030984Y003901D03*
X030804Y003978D03*
D75*
X031444Y003903D03*
X028557Y005618D03*
X028552Y005613D03*
X028732Y005763D03*
X028732Y005766D03*
X028732Y005768D03*
X029382Y005703D03*
X029714Y006146D03*
X030727Y007268D03*
X030732Y007271D03*
X030739Y007278D03*
X030744Y007281D03*
D76*
X030535Y007101D03*
X030523Y007083D03*
X030515Y007076D03*
X030510Y007068D03*
X030508Y007066D03*
X030505Y007063D03*
X030505Y007061D03*
X030503Y007058D03*
X030498Y007051D03*
X029708Y006186D03*
X029798Y006083D03*
X029803Y006073D03*
X029805Y006071D03*
X029808Y006066D03*
X029810Y006063D03*
X029810Y006061D03*
X029818Y006051D03*
X029365Y006048D03*
X029365Y006036D03*
X029365Y006033D03*
X029365Y006031D03*
X029365Y006028D03*
X029365Y006018D03*
X029365Y006016D03*
X029365Y006013D03*
X029365Y006011D03*
X029365Y006008D03*
X029365Y006006D03*
X029365Y005986D03*
X029365Y005983D03*
X029365Y005981D03*
X029365Y005978D03*
X029365Y005976D03*
X029363Y005963D03*
X029363Y005961D03*
X029363Y005958D03*
X029363Y005956D03*
X029363Y005946D03*
X029363Y005943D03*
X029363Y005941D03*
X029363Y005938D03*
X029365Y006061D03*
X029365Y006063D03*
X029365Y006066D03*
X029018Y005926D03*
X029018Y005923D03*
X029018Y005921D03*
X029018Y005918D03*
X029015Y005913D03*
X029015Y005911D03*
X029015Y005908D03*
X029015Y005906D03*
X029015Y005903D03*
X029013Y005901D03*
X029013Y005898D03*
X029013Y005896D03*
X029013Y005893D03*
X029013Y005891D03*
X029013Y005888D03*
X029013Y005886D03*
X029013Y005883D03*
X029010Y005876D03*
X029008Y005863D03*
X029008Y005861D03*
X029008Y005858D03*
X029005Y005853D03*
X029005Y005851D03*
X029003Y005843D03*
X029003Y005841D03*
X028998Y005823D03*
X028998Y005821D03*
X028998Y005818D03*
X028998Y005816D03*
X028998Y005813D03*
X028995Y005806D03*
X028995Y005803D03*
X028993Y005791D03*
X028993Y005788D03*
X028988Y005778D03*
X028988Y005776D03*
X028750Y005963D03*
X028270Y005933D03*
X028270Y005931D03*
X028270Y005928D03*
X028270Y005926D03*
X028270Y005923D03*
X028270Y005911D03*
X028270Y005908D03*
X028270Y005906D03*
X028270Y005903D03*
X028268Y005893D03*
X028268Y005891D03*
X028268Y005938D03*
X028268Y005941D03*
X028268Y005943D03*
X028268Y005946D03*
X028268Y005948D03*
X028268Y005951D03*
X028265Y005953D03*
X028265Y005956D03*
X028265Y005958D03*
X028265Y005961D03*
X028263Y005968D03*
X028263Y005971D03*
X028260Y005976D03*
X028258Y005986D03*
X028258Y005988D03*
X028258Y005991D03*
X028258Y005993D03*
X028513Y005558D03*
X029230Y005541D03*
X029235Y005543D03*
X029238Y005546D03*
X029238Y005548D03*
X029280Y005598D03*
X029283Y005603D03*
X029445Y005678D03*
X031638Y004648D03*
X031638Y004646D03*
X031638Y004643D03*
X031638Y004641D03*
X031660Y004368D03*
X031660Y004366D03*
X031660Y004363D03*
X031658Y004326D03*
X031653Y004283D03*
X031653Y004281D03*
X031653Y004278D03*
X031653Y004273D03*
X031653Y004271D03*
X031653Y004268D03*
X031653Y004266D03*
X031650Y004251D03*
X031650Y004248D03*
X031650Y004246D03*
X031650Y004243D03*
X031648Y004238D03*
X031648Y004236D03*
X031648Y004233D03*
X031648Y004231D03*
X031645Y004226D03*
X031645Y004223D03*
X031645Y004221D03*
X031645Y004216D03*
X031645Y004213D03*
X031645Y004211D03*
X031640Y004201D03*
X031640Y004198D03*
X031638Y004191D03*
X031638Y004188D03*
X031638Y004186D03*
X031638Y004183D03*
X031638Y004181D03*
X031635Y004176D03*
X031615Y004113D03*
X030975Y003903D03*
D77*
X031447Y003906D03*
X028542Y005598D03*
X028734Y005778D03*
X028734Y005781D03*
X028177Y005801D03*
X028174Y005798D03*
X027634Y006101D03*
X027629Y006106D03*
X027619Y006111D03*
X029379Y005713D03*
X029714Y006151D03*
X030759Y007296D03*
D78*
X030383Y006866D03*
X030380Y006861D03*
X030378Y006853D03*
X030375Y006851D03*
X030373Y006848D03*
X030373Y006846D03*
X030370Y006841D03*
X030368Y006838D03*
X030365Y006833D03*
X030365Y006831D03*
X030363Y006828D03*
X030360Y006823D03*
X030358Y006818D03*
X030345Y006793D03*
X030343Y006791D03*
X030340Y006786D03*
X030305Y006711D03*
X029648Y006098D03*
X029858Y005953D03*
X029858Y005951D03*
X029860Y005943D03*
X029860Y005941D03*
X029860Y005938D03*
X029863Y005931D03*
X029863Y005928D03*
X029865Y005923D03*
X029865Y005921D03*
X029870Y005908D03*
X029870Y005906D03*
X029870Y005903D03*
X029870Y005901D03*
X029873Y005896D03*
X029873Y005893D03*
X029875Y005888D03*
X029875Y005886D03*
X029880Y005863D03*
X029880Y005861D03*
X029880Y005858D03*
X029880Y005856D03*
X029883Y005851D03*
X029883Y005848D03*
X029883Y005846D03*
X029883Y005843D03*
X029883Y005841D03*
X029885Y005833D03*
X029885Y005831D03*
X029888Y005821D03*
X029890Y005796D03*
X029890Y005778D03*
X029890Y005776D03*
X029895Y005773D03*
X029895Y005771D03*
X029895Y005768D03*
X029895Y005766D03*
X029895Y005763D03*
X029895Y005751D03*
X029895Y005748D03*
X029898Y005736D03*
X029898Y005733D03*
X029895Y005716D03*
X029895Y005693D03*
X029895Y005691D03*
X029895Y005688D03*
X029895Y005686D03*
X029895Y005683D03*
X029895Y005681D03*
X029895Y005671D03*
X029895Y005668D03*
X029895Y005666D03*
X029895Y005663D03*
X029895Y005661D03*
X029223Y005531D03*
X028798Y005701D03*
X028798Y005703D03*
X028795Y005713D03*
X028795Y005716D03*
X028795Y005718D03*
X028795Y005721D03*
X028255Y006003D03*
X031268Y005388D03*
X031283Y005368D03*
X031303Y005341D03*
X031318Y005321D03*
X031320Y005316D03*
X031325Y005311D03*
X031325Y005308D03*
X031338Y005293D03*
X031340Y005291D03*
X031343Y005288D03*
X031348Y005281D03*
X031350Y005278D03*
X031353Y005276D03*
X031355Y005271D03*
X031378Y005241D03*
X031385Y005228D03*
X031388Y005226D03*
X031393Y005216D03*
X031410Y005188D03*
X031420Y005173D03*
X031438Y005141D03*
X031440Y005138D03*
X031440Y005136D03*
X031443Y005133D03*
X031455Y005108D03*
X031458Y005103D03*
X031458Y005101D03*
X031463Y005096D03*
X031468Y005083D03*
X031480Y005063D03*
X031483Y005058D03*
X031488Y005046D03*
X031495Y005033D03*
X031495Y005031D03*
X031498Y005028D03*
X031498Y005026D03*
X031500Y005023D03*
X031503Y005018D03*
X031503Y005016D03*
X031520Y004983D03*
X031520Y004981D03*
X031523Y004976D03*
X031523Y004973D03*
X031540Y004931D03*
X031563Y004878D03*
X031588Y004811D03*
X031600Y004773D03*
X031600Y004771D03*
X031600Y004768D03*
X031623Y004686D03*
X031625Y004683D03*
X030973Y003906D03*
X030793Y003986D03*
X030778Y004001D03*
D79*
X031452Y003908D03*
X028547Y005606D03*
X028732Y005771D03*
X028732Y005773D03*
X029379Y005711D03*
X029379Y005708D03*
X029714Y006148D03*
X028449Y006313D03*
X027622Y006108D03*
X027604Y006118D03*
X027602Y006121D03*
X027577Y006553D03*
X030722Y007266D03*
X030749Y007288D03*
X030754Y007291D03*
D80*
X030355Y006813D03*
X030353Y006808D03*
X030350Y006803D03*
X030335Y006771D03*
X030333Y006768D03*
X030325Y006753D03*
X030323Y006748D03*
X030320Y006746D03*
X030320Y006743D03*
X030318Y006738D03*
X030318Y006736D03*
X030315Y006733D03*
X030313Y006728D03*
X030313Y006726D03*
X030313Y006723D03*
X030310Y006721D03*
X030308Y006716D03*
X030308Y006713D03*
X030303Y006701D03*
X030298Y006693D03*
X030298Y006691D03*
X030295Y006686D03*
X030290Y006673D03*
X030288Y006668D03*
X030283Y006656D03*
X030280Y006651D03*
X030278Y006648D03*
X030278Y006646D03*
X030275Y006641D03*
X030268Y006628D03*
X030268Y006626D03*
X030263Y006613D03*
X030263Y006611D03*
X030263Y006608D03*
X029360Y006083D03*
X029888Y005811D03*
X029888Y005808D03*
X029888Y005806D03*
X029890Y005791D03*
X029890Y005788D03*
X029895Y005711D03*
X029895Y005708D03*
X029218Y005528D03*
X028510Y005553D03*
X028128Y005738D03*
X028255Y006008D03*
X031258Y005398D03*
X031258Y005396D03*
X031278Y005376D03*
X031280Y005373D03*
X031295Y005351D03*
X031300Y005343D03*
X031308Y005333D03*
X031313Y005328D03*
X031313Y005326D03*
X031403Y005198D03*
X031403Y005196D03*
X031420Y005168D03*
X031428Y005156D03*
X031435Y005143D03*
X031470Y005078D03*
X030968Y003908D03*
X030758Y004016D03*
D81*
X031455Y003911D03*
X029378Y005721D03*
X029378Y005723D03*
X029378Y005726D03*
X028738Y005791D03*
X028738Y005793D03*
X028738Y005796D03*
X027648Y006096D03*
D82*
X028257Y006006D03*
X028744Y005973D03*
X029362Y006078D03*
X029362Y006081D03*
X029864Y005926D03*
X029874Y005883D03*
X029874Y005881D03*
X029874Y005878D03*
X029874Y005876D03*
X029877Y005873D03*
X029877Y005871D03*
X029879Y005868D03*
X029879Y005866D03*
X029884Y005838D03*
X029884Y005836D03*
X029887Y005818D03*
X029887Y005816D03*
X029887Y005813D03*
X029889Y005803D03*
X029889Y005801D03*
X029889Y005798D03*
X029889Y005793D03*
X029892Y005786D03*
X029892Y005783D03*
X029892Y005781D03*
X029894Y005713D03*
X029897Y005706D03*
X029897Y005703D03*
X029897Y005701D03*
X029897Y005698D03*
X029897Y005696D03*
X028872Y005583D03*
X031249Y005411D03*
X031252Y005408D03*
X031252Y005406D03*
X031254Y005403D03*
X031257Y005401D03*
X031269Y005386D03*
X031272Y005383D03*
X031272Y005381D03*
X031274Y005378D03*
X031282Y005371D03*
X031289Y005358D03*
X031292Y005356D03*
X031294Y005353D03*
X031297Y005348D03*
X031299Y005346D03*
X031307Y005338D03*
X031307Y005336D03*
X031312Y005331D03*
X031314Y005323D03*
X031319Y005318D03*
X031344Y005286D03*
X031394Y005213D03*
X031414Y005183D03*
X031419Y005171D03*
X031459Y005098D03*
X031469Y005081D03*
X031472Y005076D03*
X031474Y005073D03*
X031474Y005071D03*
X031474Y005068D03*
X031477Y005066D03*
X031482Y005061D03*
X031542Y004928D03*
X030954Y003911D03*
X030777Y004003D03*
X030299Y006696D03*
X030302Y006698D03*
X030304Y006703D03*
X030304Y006706D03*
X030304Y006708D03*
X030309Y006718D03*
X030314Y006731D03*
X030319Y006741D03*
X030324Y006751D03*
X030327Y006756D03*
X030329Y006758D03*
X030329Y006761D03*
X030329Y006763D03*
X030332Y006766D03*
X030337Y006773D03*
X030337Y006776D03*
X030339Y006778D03*
X030339Y006781D03*
X030339Y006783D03*
X030342Y006788D03*
X030347Y006796D03*
X030347Y006798D03*
X030349Y006801D03*
X030352Y006806D03*
X030354Y006811D03*
X030357Y006816D03*
X030359Y006821D03*
X030362Y006826D03*
X030367Y006836D03*
X030372Y006843D03*
D83*
X029714Y006158D03*
X029377Y005733D03*
X028739Y005811D03*
X028529Y005583D03*
X028169Y005786D03*
X028164Y005781D03*
X027697Y006076D03*
X027692Y006078D03*
X027687Y006081D03*
X028454Y006306D03*
X029719Y005483D03*
X031462Y003913D03*
D84*
X031463Y003916D03*
X029593Y005551D03*
X029375Y005736D03*
X029375Y005738D03*
X029375Y005741D03*
X028870Y005613D03*
X028740Y005813D03*
X028190Y005808D03*
X028158Y005776D03*
X027665Y005951D03*
X027663Y005948D03*
X027658Y005946D03*
X027675Y006086D03*
X027663Y006091D03*
X027578Y006136D03*
X029713Y006161D03*
X030768Y007308D03*
D85*
X030763Y007306D03*
X029715Y006156D03*
X029378Y005731D03*
X029818Y005551D03*
X028870Y005616D03*
X028738Y005806D03*
X028738Y005808D03*
X028578Y005626D03*
X028575Y005623D03*
X028188Y005806D03*
X028163Y005778D03*
X027680Y006083D03*
X027655Y006093D03*
X031468Y003918D03*
D86*
X031467Y003921D03*
X031504Y003943D03*
X031509Y003948D03*
X029574Y005556D03*
X029372Y005771D03*
X029372Y005773D03*
X028744Y005851D03*
X028744Y005853D03*
X028744Y005856D03*
X028604Y005643D03*
X028599Y005638D03*
X028204Y005813D03*
X028147Y005761D03*
X027727Y005996D03*
X027722Y005991D03*
X027744Y006046D03*
X027742Y006048D03*
X027732Y006053D03*
X027569Y006146D03*
X027477Y005828D03*
X027472Y005826D03*
X027469Y005823D03*
X027457Y005813D03*
X027454Y005811D03*
X027432Y005796D03*
X027429Y005793D03*
X027424Y005791D03*
X027424Y005788D03*
X027419Y005786D03*
X029714Y006168D03*
X030692Y007256D03*
D87*
X030695Y007258D03*
X030773Y007318D03*
X027538Y006566D03*
X027735Y006051D03*
X027723Y005993D03*
X027718Y005988D03*
X027458Y005816D03*
X027435Y005798D03*
X028523Y005573D03*
X028595Y005636D03*
X029373Y005766D03*
X029373Y005768D03*
X031470Y003923D03*
X031500Y003938D03*
X031500Y003941D03*
D88*
X031488Y003933D03*
X031480Y003926D03*
X028528Y005581D03*
X028740Y005821D03*
X028155Y005771D03*
X028155Y005768D03*
X027700Y005976D03*
X027690Y005966D03*
X027683Y005961D03*
X027678Y005958D03*
X027675Y005956D03*
X027653Y005943D03*
X027638Y005933D03*
X027628Y005928D03*
X027623Y005926D03*
X027600Y005911D03*
X027585Y005901D03*
X027568Y005891D03*
X027565Y005888D03*
X027563Y005886D03*
X027560Y005883D03*
X027540Y005871D03*
X027523Y005861D03*
X027573Y006141D03*
X029375Y005746D03*
X029713Y006163D03*
D89*
X029374Y005751D03*
X029374Y005748D03*
X028872Y005608D03*
X028742Y005823D03*
X028742Y005826D03*
X028742Y005828D03*
X028742Y005831D03*
X028742Y005833D03*
X028587Y005628D03*
X028154Y005766D03*
X027712Y005983D03*
X027709Y005981D03*
X027699Y005973D03*
X027694Y005971D03*
X027692Y005968D03*
X027642Y005936D03*
X027617Y005921D03*
X027612Y005918D03*
X027607Y005916D03*
X027604Y005913D03*
X027557Y005881D03*
X027547Y005876D03*
X027544Y005873D03*
X027532Y005866D03*
X027529Y005863D03*
X027519Y005858D03*
X027517Y005856D03*
X027709Y006068D03*
X027714Y006066D03*
X030704Y007263D03*
X030772Y007313D03*
X031494Y003936D03*
X031487Y003931D03*
X031484Y003928D03*
D90*
X030935Y003928D03*
X030923Y003933D03*
X030880Y003953D03*
X030870Y003961D03*
X030830Y003966D03*
X030720Y004063D03*
X030710Y004051D03*
X030620Y004158D03*
X030565Y004223D03*
X030563Y004226D03*
X030545Y004243D03*
X030533Y004263D03*
X030420Y004423D03*
X030345Y004561D03*
X030338Y004571D03*
X031253Y005428D03*
X031253Y005431D03*
X031248Y005438D03*
X031248Y005441D03*
X031245Y005443D03*
X029630Y006073D03*
X028483Y006278D03*
X028120Y005731D03*
D91*
X028144Y005758D03*
X028519Y005571D03*
X028744Y005863D03*
X028744Y005866D03*
X029567Y005558D03*
X029834Y005556D03*
X029714Y006171D03*
X027747Y006043D03*
X027567Y006148D03*
X027462Y005818D03*
X027449Y005808D03*
X027417Y005783D03*
X027412Y005781D03*
X027409Y005778D03*
X027387Y005761D03*
X027384Y005758D03*
X027367Y005743D03*
X027364Y005741D03*
X027532Y006568D03*
X027529Y006571D03*
X027509Y006576D03*
X031512Y003951D03*
X031514Y003953D03*
X031522Y003958D03*
D92*
X031518Y003956D03*
X029838Y005558D03*
X029370Y005778D03*
X029370Y005781D03*
X029370Y005783D03*
X029370Y005786D03*
X029370Y005788D03*
X029370Y005791D03*
X028868Y005601D03*
X028213Y005818D03*
X027733Y006001D03*
X027748Y006041D03*
X027398Y005771D03*
X027395Y005768D03*
X027388Y005763D03*
X027383Y005756D03*
X028745Y005868D03*
X028745Y005871D03*
X028745Y005873D03*
X029715Y006173D03*
X030685Y007251D03*
X030688Y007253D03*
D93*
X028747Y005876D03*
X028142Y005756D03*
X028517Y005568D03*
X028609Y005646D03*
X028869Y005598D03*
X029722Y005478D03*
X027752Y006038D03*
X027737Y006003D03*
X027379Y005753D03*
X027377Y005751D03*
X027374Y005748D03*
X027372Y005746D03*
X031524Y003961D03*
D94*
X031525Y003963D03*
X031528Y003966D03*
X031530Y003968D03*
X029843Y005561D03*
X028748Y005878D03*
X028615Y005651D03*
X028613Y005648D03*
X027753Y006036D03*
X027740Y006008D03*
X027360Y005738D03*
X027355Y005733D03*
X028460Y006301D03*
X027513Y006573D03*
X029715Y006176D03*
X030668Y007241D03*
X030670Y007243D03*
X030680Y007248D03*
X030778Y007323D03*
D95*
X030664Y007238D03*
X030662Y007236D03*
X030659Y007233D03*
X027562Y006151D03*
X027754Y006033D03*
X027742Y006011D03*
X027739Y006006D03*
X027359Y005736D03*
X027354Y005731D03*
X028747Y005881D03*
X028747Y005883D03*
X028747Y005886D03*
X028747Y005888D03*
X028747Y005891D03*
X028749Y005893D03*
X028749Y005896D03*
X029367Y005803D03*
X029369Y005801D03*
X029369Y005798D03*
X029369Y005796D03*
X029369Y005793D03*
X029847Y005563D03*
X031532Y003971D03*
D96*
X030795Y003973D03*
X030763Y004013D03*
X030198Y004863D03*
X030198Y004866D03*
X030175Y004936D03*
X030108Y005281D03*
X030108Y005283D03*
X030108Y005293D03*
X030105Y005306D03*
X030103Y005331D03*
X030103Y005341D03*
X030103Y005343D03*
X030093Y005451D03*
X030093Y005453D03*
X030090Y005511D03*
X030090Y005513D03*
X030090Y005533D03*
X030100Y005871D03*
X030100Y005873D03*
X030105Y005926D03*
X030105Y005928D03*
X030105Y005931D03*
X030105Y005933D03*
X030105Y005936D03*
X030108Y005946D03*
X030108Y005956D03*
X030115Y006008D03*
X030115Y006011D03*
X030145Y006198D03*
X030155Y006256D03*
X030160Y006271D03*
X030160Y006273D03*
X030168Y006301D03*
X030168Y006303D03*
X030168Y006306D03*
X030168Y006308D03*
X030168Y006311D03*
X030178Y006343D03*
X030178Y006346D03*
X030180Y006351D03*
X030180Y006353D03*
X030180Y006356D03*
X030180Y006358D03*
X030188Y006381D03*
X030188Y006383D03*
X030190Y006391D03*
X030193Y006396D03*
X030193Y006398D03*
X030193Y006401D03*
X030193Y006403D03*
X030195Y006406D03*
X030195Y006408D03*
X030198Y006421D03*
X030200Y006423D03*
X030200Y006426D03*
X030203Y006436D03*
X030208Y006448D03*
X030208Y006451D03*
X030215Y006478D03*
X030218Y006483D03*
X030218Y006486D03*
X030223Y006503D03*
X030225Y006508D03*
X030230Y006518D03*
X030230Y006521D03*
X030233Y006523D03*
X030233Y006526D03*
X030233Y006528D03*
X030235Y006531D03*
X030235Y006533D03*
X030235Y006536D03*
X030235Y006538D03*
X030235Y006541D03*
X030238Y006543D03*
X030238Y006546D03*
X030240Y006548D03*
X030240Y006551D03*
X030245Y006566D03*
X030248Y006571D03*
X030250Y006576D03*
X030253Y006583D03*
X030258Y006598D03*
X030258Y006601D03*
X030260Y006603D03*
X030260Y006606D03*
X030265Y006616D03*
X029643Y006093D03*
X029048Y006111D03*
X028748Y005978D03*
X027535Y006176D03*
X027348Y005583D03*
X031245Y005413D03*
X031260Y005391D03*
X031395Y005206D03*
X031423Y005163D03*
X031430Y005151D03*
X031430Y005148D03*
X031430Y005146D03*
D97*
X029367Y005808D03*
X029367Y005811D03*
X029367Y005813D03*
X029367Y005816D03*
X029367Y005818D03*
X028749Y005906D03*
X028749Y005908D03*
X028749Y005911D03*
X028619Y005656D03*
X028517Y005566D03*
X027749Y006016D03*
X027349Y005726D03*
X027349Y005723D03*
X027347Y005721D03*
X027339Y005613D03*
X027344Y005608D03*
X030649Y007226D03*
X030779Y007326D03*
X031547Y003986D03*
X031539Y003978D03*
D98*
X030802Y003983D03*
X030789Y003981D03*
X030789Y003993D03*
X030759Y004011D03*
X031622Y004688D03*
X031622Y004691D03*
X031622Y004696D03*
X031622Y004698D03*
X031622Y004701D03*
X031599Y004776D03*
X031587Y004813D03*
X031587Y004816D03*
X031564Y004876D03*
X031562Y004881D03*
X031562Y004883D03*
X031539Y004933D03*
X031539Y004936D03*
X031539Y004938D03*
X031539Y004941D03*
X031539Y004943D03*
X031537Y004946D03*
X031537Y004948D03*
X031534Y004951D03*
X031532Y004953D03*
X031532Y004956D03*
X031532Y004958D03*
X031529Y004961D03*
X031524Y004971D03*
X031522Y004978D03*
X031519Y004986D03*
X031512Y005003D03*
X031512Y005006D03*
X031502Y005021D03*
X031494Y005036D03*
X031489Y005043D03*
X031487Y005048D03*
X031484Y005056D03*
X031469Y005086D03*
X031464Y005093D03*
X031457Y005106D03*
X031452Y005111D03*
X031452Y005113D03*
X031452Y005116D03*
X031444Y005131D03*
X031422Y005176D03*
X031412Y005186D03*
X031409Y005191D03*
X031392Y005218D03*
X031392Y005221D03*
X031392Y005223D03*
X031384Y005231D03*
X031377Y005243D03*
X031354Y005273D03*
X031347Y005283D03*
X031337Y005296D03*
X031337Y005298D03*
X031322Y005313D03*
X031287Y005361D03*
X031287Y005363D03*
X031287Y005366D03*
X029897Y005673D03*
X029897Y005676D03*
X029897Y005718D03*
X029899Y005726D03*
X029899Y005728D03*
X029899Y005731D03*
X029897Y005738D03*
X029897Y005741D03*
X029897Y005743D03*
X029897Y005746D03*
X029894Y005753D03*
X029894Y005756D03*
X029894Y005758D03*
X029894Y005761D03*
X029887Y005823D03*
X029887Y005826D03*
X029887Y005828D03*
X029882Y005853D03*
X029874Y005891D03*
X029872Y005898D03*
X029869Y005911D03*
X029867Y005918D03*
X029864Y005933D03*
X029862Y005936D03*
X029859Y005946D03*
X029859Y005948D03*
X029857Y005956D03*
X029854Y005958D03*
X029854Y005961D03*
X029852Y005966D03*
X029852Y005968D03*
X029852Y005971D03*
X029847Y005983D03*
X029649Y006101D03*
X029364Y006076D03*
X029052Y006108D03*
X028744Y005971D03*
X028797Y005711D03*
X028797Y005708D03*
X028797Y005706D03*
X028802Y005696D03*
X029224Y005533D03*
X029302Y005633D03*
X029304Y005636D03*
X029304Y005638D03*
X029307Y005641D03*
X029312Y005656D03*
X027542Y006171D03*
X027474Y006586D03*
X030379Y006856D03*
X030379Y006858D03*
X030382Y006863D03*
X030384Y006868D03*
X030387Y006873D03*
X030397Y006891D03*
X030404Y006906D03*
X030407Y006908D03*
X030407Y006911D03*
X030412Y006913D03*
X030424Y006933D03*
X030427Y006938D03*
X030427Y006941D03*
X030432Y006948D03*
X030437Y006956D03*
X030439Y006961D03*
X030444Y006968D03*
X030447Y006971D03*
X030787Y007338D03*
D99*
X030524Y007086D03*
X030522Y007081D03*
X030522Y007078D03*
X030514Y007073D03*
X030514Y007071D03*
X030497Y007048D03*
X030494Y007046D03*
X030494Y007043D03*
X030492Y007041D03*
X030489Y007038D03*
X030489Y007036D03*
X030487Y007033D03*
X030484Y007031D03*
X030482Y007026D03*
X030479Y007023D03*
X030477Y007018D03*
X030474Y007016D03*
X030469Y007008D03*
X029799Y006081D03*
X029814Y006058D03*
X029817Y006056D03*
X029817Y006053D03*
X029819Y006048D03*
X029822Y006046D03*
X029822Y006043D03*
X029827Y006031D03*
X029367Y006068D03*
X029367Y006071D03*
X029052Y006101D03*
X029012Y005881D03*
X029012Y005878D03*
X029009Y005873D03*
X029009Y005871D03*
X029009Y005868D03*
X029009Y005866D03*
X029007Y005856D03*
X029004Y005848D03*
X029004Y005846D03*
X029002Y005838D03*
X028999Y005828D03*
X028999Y005826D03*
X028997Y005811D03*
X028997Y005808D03*
X028992Y005786D03*
X028989Y005783D03*
X028989Y005781D03*
X029277Y005596D03*
X029274Y005591D03*
X029282Y005601D03*
X029284Y005606D03*
X029287Y005608D03*
X029442Y005686D03*
X029444Y005683D03*
X029444Y005681D03*
X029447Y005676D03*
X029449Y005673D03*
X029882Y005598D03*
X029884Y005603D03*
X029884Y005606D03*
X031372Y005256D03*
X031552Y004923D03*
X031552Y004921D03*
X031554Y004913D03*
X031554Y004911D03*
X031569Y004873D03*
X031582Y004836D03*
X031634Y004661D03*
X031637Y004653D03*
X031637Y004651D03*
X031639Y004638D03*
X031647Y004583D03*
X031647Y004581D03*
X031647Y004578D03*
X031649Y004568D03*
X031652Y004548D03*
X031657Y004511D03*
X031657Y004508D03*
X031659Y004483D03*
X031659Y004463D03*
X031659Y004461D03*
X031659Y004458D03*
X031662Y004436D03*
X031662Y004426D03*
X031662Y004413D03*
X031662Y004411D03*
X031662Y004408D03*
X031662Y004406D03*
X031662Y004403D03*
X031662Y004401D03*
X031662Y004398D03*
X031662Y004396D03*
X031662Y004393D03*
X031662Y004391D03*
X031659Y004376D03*
X031659Y004373D03*
X031659Y004371D03*
X031659Y004361D03*
X031659Y004358D03*
X031659Y004333D03*
X031659Y004331D03*
X031659Y004328D03*
X031657Y004323D03*
X031657Y004321D03*
X031657Y004318D03*
X031657Y004316D03*
X031657Y004306D03*
X031657Y004303D03*
X031657Y004301D03*
X031657Y004298D03*
X031649Y004241D03*
X031647Y004228D03*
X031639Y004196D03*
X031639Y004193D03*
X030787Y003991D03*
X027349Y005591D03*
X028269Y005936D03*
X028262Y005973D03*
D100*
X028229Y005831D03*
X028227Y005828D03*
X028139Y005751D03*
X028624Y005661D03*
X028624Y005658D03*
X028627Y005663D03*
X028632Y005666D03*
X028632Y005668D03*
X028632Y005671D03*
X029364Y005828D03*
X029364Y005831D03*
X029364Y005833D03*
X029544Y005573D03*
X029547Y005571D03*
X029552Y005566D03*
X029557Y005563D03*
X029854Y005568D03*
X028749Y005913D03*
X028749Y005916D03*
X028749Y005918D03*
X028749Y005921D03*
X029712Y006178D03*
X027554Y006158D03*
X027337Y005616D03*
X027344Y005601D03*
X030637Y007216D03*
X030639Y007218D03*
X031557Y004001D03*
D101*
X031565Y004008D03*
X031568Y004016D03*
X031573Y004018D03*
X031573Y004021D03*
X031573Y004023D03*
X029533Y005581D03*
X029528Y005586D03*
X029525Y005588D03*
X029363Y005853D03*
X029363Y005856D03*
X029363Y005858D03*
X028948Y005686D03*
X028948Y005683D03*
X028868Y005593D03*
X028658Y005703D03*
X028653Y005696D03*
X028648Y005688D03*
X028515Y005563D03*
X028238Y005838D03*
X028243Y005846D03*
X028138Y005746D03*
X028750Y005931D03*
X028750Y005933D03*
X028470Y006296D03*
X027493Y006578D03*
X027490Y006581D03*
X027335Y005708D03*
X027333Y005706D03*
X027330Y005703D03*
X027330Y005701D03*
X027328Y005623D03*
X027328Y005621D03*
X030623Y007201D03*
X030625Y007203D03*
D102*
X030619Y007198D03*
X030619Y007196D03*
X030617Y007193D03*
X030607Y007186D03*
X030602Y007178D03*
X030782Y007331D03*
X029709Y006181D03*
X028752Y005946D03*
X028752Y005943D03*
X028752Y005941D03*
X028752Y005938D03*
X028752Y005936D03*
X028669Y005721D03*
X028667Y005718D03*
X028667Y005716D03*
X028667Y005713D03*
X028664Y005711D03*
X028662Y005708D03*
X028654Y005698D03*
X028652Y005693D03*
X028649Y005691D03*
X028869Y005591D03*
X029514Y005598D03*
X029517Y005596D03*
X029532Y005583D03*
X029859Y005573D03*
X028242Y005843D03*
X028239Y005841D03*
X027329Y005698D03*
X027329Y005696D03*
X031584Y004041D03*
X031584Y004038D03*
X031574Y004026D03*
D103*
X030749Y004031D03*
X030737Y004038D03*
X030319Y004583D03*
X030317Y004586D03*
X030309Y004603D03*
X030304Y004608D03*
X030299Y004613D03*
X030299Y004616D03*
X030294Y004626D03*
X029217Y005523D03*
X028249Y006023D03*
X027529Y006183D03*
X029362Y006091D03*
D104*
X028500Y005548D03*
X027435Y006593D03*
X030315Y004601D03*
X030410Y004426D03*
X030415Y004416D03*
X030735Y004048D03*
D105*
X030724Y004056D03*
X030409Y004428D03*
X030397Y004451D03*
X030384Y004478D03*
X030377Y004488D03*
X028864Y005576D03*
X028742Y005988D03*
X029039Y006123D03*
X029632Y006081D03*
D106*
X029207Y005518D03*
X031224Y005471D03*
X031254Y005426D03*
X031257Y005423D03*
X030327Y004591D03*
X030334Y004573D03*
X030372Y004508D03*
X030369Y004501D03*
X030379Y004493D03*
X030387Y004481D03*
X030389Y004476D03*
X030394Y004466D03*
X030397Y004461D03*
X030564Y004221D03*
X030572Y004216D03*
X030704Y004076D03*
D107*
X031603Y004081D03*
X031610Y004096D03*
X031613Y004106D03*
X031613Y004108D03*
X031620Y004118D03*
X031620Y004121D03*
X031620Y004123D03*
X031623Y004128D03*
X031625Y004131D03*
X031625Y004133D03*
X031625Y004136D03*
X031630Y004151D03*
X031630Y004158D03*
X031630Y004161D03*
X029878Y005593D03*
X029878Y005596D03*
X029875Y005591D03*
X029873Y005588D03*
X029870Y005586D03*
X029468Y005648D03*
X029465Y005651D03*
X029463Y005653D03*
X029463Y005656D03*
X029460Y005658D03*
X029458Y005661D03*
X029455Y005666D03*
X029455Y005668D03*
X029453Y005671D03*
X029268Y005586D03*
X029265Y005583D03*
X029265Y005581D03*
X029260Y005578D03*
X029243Y005553D03*
X028970Y005718D03*
X028970Y005721D03*
X028970Y005723D03*
X028975Y005738D03*
X028983Y005761D03*
X028985Y005768D03*
X028985Y005771D03*
X029023Y005943D03*
X029025Y005963D03*
X029028Y005968D03*
X029028Y005971D03*
X029028Y005973D03*
X029030Y005978D03*
X029030Y005981D03*
X029030Y005983D03*
X029030Y005986D03*
X029033Y005993D03*
X029033Y005996D03*
X029033Y005998D03*
X029033Y006001D03*
X029033Y006003D03*
X029035Y006011D03*
X029035Y006013D03*
X029035Y006016D03*
X029038Y006023D03*
X029038Y006026D03*
X029040Y006038D03*
X028750Y005958D03*
X028265Y005886D03*
X028475Y006293D03*
X029365Y006026D03*
X029365Y006023D03*
X029363Y005931D03*
X029363Y005928D03*
X029363Y005926D03*
X029363Y005923D03*
X029360Y005911D03*
X029363Y005903D03*
X029363Y005901D03*
X029708Y006183D03*
X029793Y006093D03*
X029795Y006091D03*
X029795Y006088D03*
X027320Y005678D03*
X027315Y005671D03*
X027315Y005668D03*
X027313Y005661D03*
X027315Y005651D03*
X027315Y005648D03*
X027318Y005643D03*
X027318Y005641D03*
X030528Y007088D03*
X030530Y007093D03*
X030533Y007098D03*
X030538Y007103D03*
X030540Y007108D03*
X030543Y007111D03*
X030543Y007113D03*
X030545Y007116D03*
X030548Y007118D03*
X030550Y007121D03*
X030553Y007123D03*
X030555Y007128D03*
X030560Y007133D03*
X030563Y007136D03*
D108*
X030483Y007028D03*
X030478Y007021D03*
X030473Y007013D03*
X030470Y007011D03*
X030468Y007006D03*
X030465Y007001D03*
X030463Y006998D03*
X030460Y006996D03*
X030785Y007336D03*
X029365Y006073D03*
X029823Y006041D03*
X029823Y006038D03*
X029823Y006036D03*
X029825Y006033D03*
X029828Y006028D03*
X029828Y006026D03*
X029830Y006023D03*
X029838Y006001D03*
X029888Y005616D03*
X029885Y005611D03*
X029885Y005608D03*
X029883Y005601D03*
X029718Y005473D03*
X029315Y005663D03*
X029315Y005666D03*
X029315Y005668D03*
X029308Y005651D03*
X029288Y005613D03*
X029288Y005611D03*
X029275Y005593D03*
X029228Y005538D03*
X029000Y005831D03*
X029000Y005833D03*
X029000Y005836D03*
X028805Y005688D03*
X028748Y005966D03*
X028258Y005996D03*
X028258Y005998D03*
X031333Y005303D03*
X031373Y005253D03*
X031375Y005248D03*
X031450Y005126D03*
X031450Y005123D03*
X031515Y004998D03*
X031518Y004996D03*
X031518Y004993D03*
X031548Y004926D03*
X031553Y004918D03*
X031553Y004916D03*
X031558Y004908D03*
X031558Y004906D03*
X031558Y004903D03*
X031558Y004901D03*
X031558Y004898D03*
X031560Y004893D03*
X031560Y004891D03*
X031570Y004871D03*
X031573Y004858D03*
X031575Y004856D03*
X031575Y004853D03*
X031580Y004848D03*
X031580Y004846D03*
X031580Y004843D03*
X031580Y004841D03*
X031580Y004838D03*
X031583Y004833D03*
X031593Y004808D03*
X031600Y004783D03*
X031608Y004766D03*
X031608Y004763D03*
X031608Y004761D03*
X031608Y004758D03*
X031610Y004743D03*
X031615Y004728D03*
X031630Y004676D03*
X031633Y004666D03*
X031633Y004663D03*
X031635Y004658D03*
X031635Y004656D03*
X031638Y004636D03*
X031638Y004633D03*
X031640Y004621D03*
X031640Y004618D03*
X031640Y004616D03*
X031640Y004613D03*
X031640Y004611D03*
X031643Y004608D03*
X031645Y004603D03*
X031645Y004601D03*
X031645Y004598D03*
X031645Y004596D03*
X031645Y004593D03*
X031648Y004586D03*
X031648Y004576D03*
X031648Y004573D03*
X031648Y004571D03*
X031648Y004566D03*
X031650Y004556D03*
X031650Y004553D03*
X031650Y004551D03*
X031655Y004521D03*
X031655Y004518D03*
X031655Y004516D03*
X031655Y004513D03*
X031658Y004493D03*
X031658Y004491D03*
X031658Y004488D03*
X031658Y004486D03*
X031658Y004481D03*
X031658Y004478D03*
X031658Y004476D03*
X031660Y004473D03*
X031660Y004471D03*
X031660Y004468D03*
X031660Y004466D03*
X031658Y004456D03*
X031658Y004453D03*
X031658Y004451D03*
X031660Y004433D03*
X031660Y004431D03*
X031660Y004428D03*
X031660Y004423D03*
X031660Y004421D03*
X031660Y004418D03*
X031660Y004416D03*
X031660Y004388D03*
X031660Y004386D03*
X031658Y004378D03*
X031658Y004356D03*
X031658Y004336D03*
X031655Y004313D03*
X031655Y004311D03*
X031655Y004308D03*
X031655Y004296D03*
X031653Y004288D03*
X031653Y004286D03*
D109*
X031654Y004291D03*
X031654Y004293D03*
X031657Y004338D03*
X031657Y004341D03*
X031657Y004343D03*
X031657Y004346D03*
X031657Y004348D03*
X031657Y004351D03*
X031657Y004353D03*
X031659Y004381D03*
X031659Y004383D03*
X031659Y004438D03*
X031659Y004441D03*
X031657Y004443D03*
X031657Y004446D03*
X031657Y004448D03*
X031657Y004496D03*
X031654Y004501D03*
X031654Y004503D03*
X031654Y004506D03*
X031654Y004523D03*
X031654Y004526D03*
X031652Y004528D03*
X031652Y004538D03*
X031652Y004541D03*
X031652Y004543D03*
X031652Y004546D03*
X031649Y004558D03*
X031649Y004561D03*
X031649Y004563D03*
X031647Y004588D03*
X031644Y004606D03*
X031639Y004623D03*
X031632Y004668D03*
X031632Y004671D03*
X031632Y004673D03*
X031629Y004678D03*
X031629Y004681D03*
X031624Y004693D03*
X031622Y004706D03*
X031622Y004708D03*
X031622Y004711D03*
X031622Y004713D03*
X031619Y004716D03*
X031617Y004721D03*
X031617Y004723D03*
X031617Y004726D03*
X031614Y004731D03*
X031614Y004733D03*
X031614Y004736D03*
X031612Y004738D03*
X031612Y004741D03*
X031609Y004753D03*
X031609Y004756D03*
X031599Y004781D03*
X031594Y004796D03*
X031594Y004798D03*
X031594Y004801D03*
X031594Y004803D03*
X031594Y004806D03*
X031587Y004821D03*
X031587Y004823D03*
X031584Y004831D03*
X031577Y004851D03*
X031572Y004861D03*
X031572Y004863D03*
X031572Y004866D03*
X031572Y004868D03*
X031562Y004888D03*
X031559Y004896D03*
X031519Y004991D03*
X031514Y005001D03*
X031509Y005011D03*
X031452Y005118D03*
X031452Y005121D03*
X031449Y005128D03*
X031382Y005236D03*
X031374Y005251D03*
X031369Y005258D03*
X031362Y005266D03*
X031334Y005301D03*
X031332Y005306D03*
X029892Y005623D03*
X029892Y005626D03*
X029892Y005628D03*
X029892Y005631D03*
X029892Y005633D03*
X029889Y005618D03*
X029887Y005613D03*
X029897Y005656D03*
X029897Y005658D03*
X029322Y005686D03*
X029319Y005678D03*
X029317Y005671D03*
X029314Y005661D03*
X029309Y005653D03*
X029297Y005623D03*
X029294Y005621D03*
X029227Y005536D03*
X028807Y005681D03*
X028807Y005683D03*
X028807Y005686D03*
X028747Y005968D03*
X029052Y006103D03*
X029052Y006106D03*
X028479Y006291D03*
X027544Y006166D03*
X028257Y006001D03*
X028512Y005556D03*
X029837Y006003D03*
X029837Y006006D03*
X029837Y006008D03*
X029837Y006011D03*
X029837Y006013D03*
X029834Y006016D03*
X029832Y006018D03*
X029832Y006021D03*
X029839Y005998D03*
X029842Y005993D03*
X029707Y006188D03*
X030394Y006886D03*
X030414Y006921D03*
X030414Y006923D03*
X030417Y006926D03*
X030419Y006928D03*
X030449Y006976D03*
X030449Y006978D03*
X030452Y006983D03*
X030454Y006986D03*
X030454Y006988D03*
X030457Y006991D03*
X030459Y006993D03*
X030467Y007003D03*
D110*
X030295Y004631D03*
X030318Y004588D03*
X030353Y004526D03*
D111*
X031397Y005203D03*
X031399Y005201D03*
X031394Y005208D03*
X031394Y005211D03*
X031404Y005193D03*
X031422Y005166D03*
X031424Y005161D03*
X031427Y005158D03*
X031429Y005153D03*
X031259Y005393D03*
X030094Y005843D03*
X029217Y005526D03*
X028869Y005581D03*
X028747Y005976D03*
X028254Y006011D03*
X027537Y006173D03*
X028482Y006288D03*
X029644Y006096D03*
X030217Y006481D03*
X030229Y006511D03*
X030229Y006513D03*
X030229Y006516D03*
X030247Y006568D03*
X030249Y006573D03*
X030252Y006578D03*
X030252Y006581D03*
X030254Y006586D03*
X030254Y006588D03*
X030254Y006591D03*
X030257Y006593D03*
X030257Y006596D03*
X030267Y006618D03*
X030267Y006621D03*
X030267Y006623D03*
X030269Y006631D03*
X030272Y006633D03*
X030274Y006636D03*
X030274Y006638D03*
X030277Y006643D03*
X030282Y006653D03*
X030284Y006658D03*
X030284Y006661D03*
X030284Y006663D03*
X030284Y006666D03*
X030289Y006671D03*
X030292Y006676D03*
X030292Y006678D03*
X030294Y006681D03*
X030294Y006683D03*
X030297Y006688D03*
D112*
X030769Y007311D03*
X027704Y006071D03*
X027699Y006073D03*
X027669Y006088D03*
X027577Y006138D03*
X027684Y005963D03*
X027672Y005953D03*
X027649Y005941D03*
X027647Y005938D03*
X027634Y005931D03*
X027622Y005923D03*
X028157Y005773D03*
X028739Y005816D03*
X028739Y005818D03*
X028872Y005611D03*
X029374Y005743D03*
X029722Y005481D03*
D113*
X029720Y005486D03*
X028875Y005626D03*
X028875Y005628D03*
X028733Y005776D03*
X028545Y005603D03*
X028545Y005601D03*
X027630Y006103D03*
X027590Y006128D03*
X027568Y006558D03*
X030755Y007293D03*
D114*
X029719Y006126D03*
X028879Y005648D03*
X029722Y005491D03*
D115*
X029719Y005496D03*
X028882Y005676D03*
D116*
X029718Y005498D03*
D117*
X029718Y005501D03*
X027693Y006521D03*
X027673Y006526D03*
X027650Y006531D03*
D118*
X027754Y006503D03*
X029717Y005503D03*
D119*
X029715Y005506D03*
X027890Y006471D03*
X027850Y006481D03*
D120*
X027919Y006461D03*
X029717Y005511D03*
D121*
X029713Y005513D03*
X027963Y006451D03*
D122*
X027958Y006453D03*
X029713Y005516D03*
D123*
X029713Y005518D03*
X028015Y006441D03*
D124*
X029712Y005521D03*
D125*
X029712Y005523D03*
D126*
X029709Y005526D03*
D127*
X029709Y005528D03*
X028369Y006351D03*
X028052Y006431D03*
D128*
X028079Y006426D03*
X029709Y005531D03*
D129*
X029709Y005533D03*
X028362Y006353D03*
D130*
X029708Y005536D03*
D131*
X029710Y005538D03*
D132*
X029710Y005541D03*
D133*
X029708Y005543D03*
X028123Y006418D03*
D134*
X029707Y005546D03*
D135*
X029707Y005548D03*
X028322Y006368D03*
D136*
X027728Y006056D03*
X027718Y006063D03*
X027705Y005978D03*
X027588Y005903D03*
X027580Y005898D03*
X027575Y005896D03*
X027573Y005893D03*
X027550Y005878D03*
X027538Y005868D03*
X027515Y005853D03*
X028153Y005763D03*
X028198Y005811D03*
X028525Y005578D03*
X028743Y005836D03*
X028743Y005838D03*
X029373Y005761D03*
X029373Y005758D03*
X029373Y005756D03*
X029373Y005753D03*
X029825Y005553D03*
X029710Y006166D03*
X030773Y007316D03*
D137*
X030699Y007261D03*
X028459Y006303D03*
X027722Y006058D03*
X027719Y006061D03*
X027714Y005986D03*
X027597Y005908D03*
X027592Y005906D03*
X027512Y005851D03*
X027507Y005848D03*
X027504Y005846D03*
X027502Y005843D03*
X027494Y005841D03*
X027492Y005838D03*
X027489Y005836D03*
X027484Y005833D03*
X027482Y005831D03*
X027572Y006143D03*
X028524Y005576D03*
X028589Y005631D03*
X028592Y005633D03*
X028872Y005606D03*
X029374Y005763D03*
X029582Y005553D03*
D138*
X029379Y005728D03*
X028872Y005618D03*
X028737Y005798D03*
X028737Y005801D03*
X028737Y005803D03*
X028537Y005591D03*
X028534Y005588D03*
X028532Y005586D03*
X028172Y005788D03*
X028172Y005791D03*
X028167Y005783D03*
X027647Y006098D03*
X028452Y006308D03*
X030762Y007301D03*
X030762Y007303D03*
D139*
X028452Y006311D03*
X027612Y006116D03*
X027584Y006131D03*
X027584Y006133D03*
X027559Y006561D03*
X027552Y006563D03*
X028182Y005803D03*
X028174Y005793D03*
X028539Y005593D03*
X028567Y005621D03*
X028737Y005788D03*
X028874Y005621D03*
X029714Y006153D03*
D140*
X029378Y005718D03*
X029378Y005716D03*
X028875Y005623D03*
X028735Y005783D03*
X028735Y005786D03*
X028540Y005596D03*
X028173Y005796D03*
X027615Y006113D03*
X027595Y006123D03*
X027593Y006126D03*
X030760Y007298D03*
D141*
X030748Y007286D03*
X030745Y007283D03*
X027588Y006551D03*
X027570Y006556D03*
X029380Y005706D03*
X028875Y005631D03*
X028548Y005608D03*
D142*
X028732Y005761D03*
X028877Y005636D03*
X029382Y005698D03*
X027612Y006543D03*
X027597Y006548D03*
X030737Y007276D03*
D143*
X029715Y006136D03*
X029383Y005691D03*
X029383Y005688D03*
X028878Y005641D03*
X028728Y005741D03*
X028728Y005743D03*
X028728Y005746D03*
D144*
X028729Y005738D03*
X028729Y005736D03*
X028879Y005643D03*
X029717Y006131D03*
X029717Y006133D03*
X028439Y006318D03*
D145*
X028438Y006321D03*
X027618Y006541D03*
X029718Y006128D03*
X028878Y005646D03*
D146*
X028878Y005651D03*
X028728Y005733D03*
X029720Y006123D03*
D147*
X029722Y006113D03*
X029722Y006111D03*
X028724Y005723D03*
X028879Y005658D03*
X028437Y006323D03*
X027624Y006538D03*
D148*
X028882Y005663D03*
D149*
X028880Y005666D03*
X029723Y006106D03*
X028433Y006326D03*
D150*
X028882Y005673D03*
X028882Y005671D03*
X028882Y005668D03*
D151*
X028409Y006333D03*
X028407Y006336D03*
X027899Y006468D03*
X027857Y006478D03*
X027817Y006488D03*
D152*
X028400Y006338D03*
D153*
X028395Y006341D03*
D154*
X028392Y006343D03*
D155*
X028387Y006346D03*
X027972Y006448D03*
D156*
X028380Y006348D03*
D157*
X028358Y006356D03*
X028108Y006421D03*
D158*
X028342Y006361D03*
D159*
X028338Y006363D03*
X028328Y006366D03*
X028163Y006411D03*
D160*
X028217Y006398D03*
X028237Y006393D03*
X028259Y006388D03*
X028277Y006383D03*
X028289Y006378D03*
X028312Y006371D03*
D161*
X028308Y006373D03*
D162*
X028293Y006376D03*
X028288Y006381D03*
X028198Y006403D03*
D163*
X028149Y006413D03*
X028264Y006386D03*
D164*
X028244Y006391D03*
X028209Y006401D03*
D165*
X028229Y006396D03*
D166*
X028188Y006406D03*
D167*
X028183Y006408D03*
X028138Y006416D03*
D168*
X028098Y006423D03*
X028063Y006428D03*
D169*
X028030Y006436D03*
D170*
X027995Y006443D03*
D171*
X027984Y006446D03*
D172*
X027932Y006458D03*
X027907Y006466D03*
D173*
X027872Y006476D03*
X027844Y006483D03*
X027759Y006501D03*
D174*
X027790Y006496D03*
X027805Y006491D03*
D175*
X027779Y006498D03*
X027734Y006508D03*
X027727Y006511D03*
X027722Y006513D03*
X027702Y006518D03*
D176*
X027663Y006528D03*
X027640Y006533D03*
D177*
X027634Y006536D03*
D178*
X027215Y003356D03*
X027215Y003316D03*
X027215Y003236D03*
X027215Y003226D03*
X027215Y003216D03*
X027215Y003206D03*
X027215Y003196D03*
X027215Y003186D03*
X027215Y003176D03*
X027215Y003166D03*
X027215Y003156D03*
X027215Y003146D03*
X027215Y003136D03*
X027215Y003126D03*
X027215Y003116D03*
X027215Y003106D03*
X027215Y003096D03*
X027215Y003086D03*
X027215Y003076D03*
X027215Y003066D03*
X027215Y003056D03*
X027215Y003046D03*
X027215Y003036D03*
X027215Y003026D03*
X027215Y003016D03*
X027215Y003006D03*
X027215Y002996D03*
X027215Y002986D03*
X027215Y002976D03*
X027215Y002966D03*
X027215Y002956D03*
X027215Y002946D03*
X027215Y002936D03*
X027215Y002926D03*
X027215Y002916D03*
X027215Y002906D03*
X027225Y002886D03*
X027075Y002986D03*
X027085Y003006D03*
X027085Y003016D03*
X027085Y003026D03*
X027055Y003066D03*
X026965Y002976D03*
X026895Y003016D03*
X026895Y003026D03*
X026895Y003036D03*
X026895Y003046D03*
X026895Y003056D03*
X026895Y003066D03*
X026895Y003076D03*
X026895Y003116D03*
X026895Y003126D03*
X026895Y003136D03*
X026895Y003146D03*
X026905Y003186D03*
X026915Y003196D03*
X027065Y003196D03*
X026755Y003176D03*
X026755Y003166D03*
X026755Y003156D03*
X026755Y003146D03*
X026755Y003136D03*
X026755Y003126D03*
X026755Y003116D03*
X026755Y003106D03*
X026755Y003096D03*
X026755Y003086D03*
X026755Y003076D03*
X026755Y003066D03*
X026755Y003056D03*
X026755Y003046D03*
X026755Y003036D03*
X026755Y003026D03*
X026755Y003016D03*
X026755Y003006D03*
X026755Y002996D03*
X026755Y002986D03*
X026755Y002976D03*
X026755Y002966D03*
X026755Y002956D03*
X026755Y002946D03*
X026565Y002946D03*
X026565Y002956D03*
X026565Y002966D03*
X026565Y002976D03*
X026565Y002986D03*
X026565Y002996D03*
X026565Y003006D03*
X026565Y003016D03*
X026565Y003026D03*
X026565Y003036D03*
X026565Y003046D03*
X026565Y003056D03*
X026565Y003066D03*
X026565Y003076D03*
X026565Y003086D03*
X026565Y003096D03*
X026565Y003106D03*
X026565Y003116D03*
X026565Y003126D03*
X026565Y003136D03*
X026565Y003146D03*
X026565Y003156D03*
X026565Y003166D03*
X026575Y003186D03*
X026575Y003196D03*
X026405Y003256D03*
X026395Y003266D03*
X026385Y003276D03*
X026295Y003276D03*
X026295Y003286D03*
X026295Y003296D03*
X026295Y003266D03*
X026295Y003256D03*
X026295Y003246D03*
X026295Y003236D03*
X026295Y003226D03*
X026295Y003216D03*
X026295Y003206D03*
X026295Y003196D03*
X026295Y003186D03*
X026295Y003176D03*
X026295Y003166D03*
X026295Y003156D03*
X026295Y003146D03*
X026295Y003136D03*
X026295Y003126D03*
X026295Y003116D03*
X026295Y003106D03*
X026295Y003096D03*
X026295Y003086D03*
X026295Y003076D03*
X026295Y003066D03*
X026295Y003056D03*
X026295Y003046D03*
X026295Y003036D03*
X026295Y003026D03*
X026295Y003016D03*
X026295Y003006D03*
X026295Y002996D03*
X026295Y002986D03*
X026085Y003136D03*
X026095Y003156D03*
X026095Y003166D03*
X026075Y003206D03*
X025955Y003056D03*
X025945Y003046D03*
X025945Y003036D03*
X025955Y002996D03*
X025965Y002986D03*
X026295Y003356D03*
X027575Y003166D03*
X027575Y003156D03*
X027575Y003146D03*
X027575Y003136D03*
X027575Y003126D03*
X027575Y003116D03*
X027575Y003106D03*
X027575Y003096D03*
X027575Y003086D03*
X027575Y003076D03*
X027575Y003066D03*
X027575Y003056D03*
X027575Y003046D03*
X027575Y003036D03*
X027575Y003026D03*
X027575Y003016D03*
X027575Y003006D03*
X027575Y002996D03*
X027575Y002986D03*
X027575Y002976D03*
X027575Y002966D03*
X027575Y002956D03*
X027575Y002946D03*
X027755Y002946D03*
X027755Y002956D03*
X027755Y002966D03*
X027755Y002976D03*
X027755Y002986D03*
X027755Y002996D03*
X027755Y003006D03*
X027755Y003016D03*
X027755Y003026D03*
X027755Y003036D03*
X027755Y003046D03*
X027755Y003056D03*
X027755Y003066D03*
X027755Y003076D03*
X027755Y003086D03*
X027755Y003096D03*
X027755Y003106D03*
X027755Y003116D03*
X027755Y003126D03*
X027755Y003136D03*
X027755Y003146D03*
X027755Y003156D03*
X027755Y003166D03*
X027925Y003166D03*
X027925Y003176D03*
X027925Y003156D03*
X027925Y003146D03*
X027925Y003136D03*
X027925Y003126D03*
X027925Y003116D03*
X027925Y003106D03*
X027925Y003096D03*
X027925Y003086D03*
X027925Y003076D03*
X027925Y003066D03*
X027925Y003056D03*
X027925Y003046D03*
X027925Y003036D03*
X027925Y003026D03*
X027925Y003016D03*
X027925Y003006D03*
X027925Y002996D03*
X027925Y002986D03*
X027925Y002976D03*
X027925Y002966D03*
X027925Y002956D03*
X027925Y002946D03*
X028075Y003016D03*
X028085Y003006D03*
X028095Y002996D03*
X028065Y003036D03*
X028065Y003046D03*
X028055Y003086D03*
X028055Y003096D03*
X028055Y003106D03*
X028065Y003146D03*
X028065Y003156D03*
X028075Y003176D03*
X028085Y003186D03*
X028095Y003196D03*
X028255Y003196D03*
X028265Y003186D03*
X028275Y003176D03*
X028285Y003156D03*
X028285Y003146D03*
X028295Y003106D03*
X028295Y003096D03*
X028295Y003086D03*
X028285Y003046D03*
X028285Y003036D03*
X028275Y003016D03*
X028265Y003006D03*
X028255Y002996D03*
X028395Y002986D03*
X028555Y003016D03*
X028565Y003036D03*
X028575Y003086D03*
X028575Y003096D03*
X028575Y003106D03*
X028565Y003156D03*
X028555Y003176D03*
X028545Y003186D03*
X028395Y003206D03*
X028685Y002996D03*
X028685Y002956D03*
X028805Y003026D03*
X028815Y003006D03*
X028825Y002996D03*
X028795Y003056D03*
X028795Y003066D03*
X028795Y003076D03*
X028795Y003086D03*
X028795Y003096D03*
X028795Y003106D03*
X028795Y003116D03*
X028795Y003126D03*
X028795Y003136D03*
X028795Y003146D03*
X028805Y003166D03*
X028805Y003176D03*
X028815Y003186D03*
X029005Y003176D03*
X029005Y003166D03*
X029005Y003156D03*
X029005Y003146D03*
X029005Y003136D03*
X029005Y003126D03*
X029005Y003116D03*
X029005Y003106D03*
X029005Y003096D03*
X029005Y003086D03*
X029005Y003076D03*
X029005Y003066D03*
X029005Y003056D03*
X029005Y003046D03*
X029005Y003036D03*
X029005Y003026D03*
X029005Y003016D03*
X029005Y003006D03*
X029145Y003016D03*
X029145Y003026D03*
X029145Y003036D03*
X029145Y003046D03*
X029145Y003056D03*
X029145Y003066D03*
X029145Y003076D03*
X029145Y003086D03*
X029145Y003096D03*
X029145Y003106D03*
X029145Y003116D03*
X029145Y003126D03*
X029145Y003136D03*
X029145Y003146D03*
X029145Y003156D03*
X029145Y003166D03*
X029145Y003176D03*
X029145Y003186D03*
X029145Y003196D03*
X029145Y003206D03*
X029145Y003216D03*
X029145Y003226D03*
X029145Y003236D03*
X029005Y003236D03*
X029005Y003246D03*
X029005Y003256D03*
X029005Y003266D03*
X029005Y003276D03*
X029005Y003286D03*
X029005Y003296D03*
X029005Y003306D03*
X029005Y003316D03*
X029005Y003326D03*
X029005Y003336D03*
X029005Y003346D03*
X029005Y003356D03*
X029005Y003366D03*
X029005Y003376D03*
X029005Y003226D03*
X029005Y003216D03*
X029005Y003206D03*
X029345Y003206D03*
X029345Y003216D03*
X029345Y003226D03*
X029345Y003236D03*
X029345Y003196D03*
X029345Y003186D03*
X029345Y003176D03*
X029345Y003166D03*
X029345Y003156D03*
X029345Y003146D03*
X029345Y003136D03*
X029345Y003126D03*
X029345Y003116D03*
X029345Y003106D03*
X029345Y003096D03*
X029345Y003086D03*
X029345Y003076D03*
X029345Y003066D03*
X029345Y003056D03*
X029345Y003046D03*
X029345Y003036D03*
X029345Y003026D03*
X029335Y003006D03*
X029335Y002996D03*
X029485Y002996D03*
X029485Y003006D03*
X029485Y003016D03*
X029485Y003026D03*
X029485Y003036D03*
X029485Y003046D03*
X029485Y003056D03*
X029485Y003066D03*
X029485Y003076D03*
X029485Y003086D03*
X029485Y003096D03*
X029485Y003106D03*
X029485Y003116D03*
X029485Y003126D03*
X029485Y003136D03*
X029485Y003146D03*
X029485Y003156D03*
X029485Y003166D03*
X029495Y003186D03*
X029495Y003196D03*
X029675Y003206D03*
X029675Y003216D03*
X029675Y003226D03*
X029675Y003236D03*
X029675Y003246D03*
X029675Y003256D03*
X029675Y003266D03*
X029675Y003276D03*
X029675Y003286D03*
X029675Y003296D03*
X029675Y003306D03*
X029675Y003316D03*
X029675Y003326D03*
X029675Y003336D03*
X029675Y003346D03*
X029675Y003356D03*
X029675Y003366D03*
X029675Y003376D03*
X029675Y003176D03*
X029675Y003166D03*
X029675Y003156D03*
X029675Y003146D03*
X029675Y003136D03*
X029675Y003126D03*
X029675Y003116D03*
X029675Y003106D03*
X029675Y003096D03*
X029675Y003086D03*
X029675Y003076D03*
X029675Y003066D03*
X029675Y003056D03*
X029675Y003046D03*
X029675Y003036D03*
X029675Y003026D03*
X029675Y003016D03*
X029675Y003006D03*
X029675Y002996D03*
X029675Y002986D03*
X029675Y002976D03*
X029675Y002966D03*
X029675Y002956D03*
X029675Y002946D03*
X029485Y002946D03*
X029485Y002956D03*
X029485Y002966D03*
X029485Y002976D03*
X029485Y002986D03*
X029875Y002986D03*
X029885Y003016D03*
X029885Y003026D03*
X029885Y003036D03*
X029885Y003046D03*
X029885Y003056D03*
X029885Y003066D03*
X029885Y003076D03*
X029885Y003086D03*
X029885Y003096D03*
X029885Y003106D03*
X029885Y003116D03*
X029885Y003126D03*
X029885Y003136D03*
X029885Y003146D03*
X029885Y003156D03*
X029885Y003166D03*
X029885Y003176D03*
X029885Y003186D03*
X029885Y003196D03*
X030055Y003196D03*
X030055Y003206D03*
X030055Y003216D03*
X030055Y003226D03*
X030055Y003236D03*
X030055Y003186D03*
X030055Y003176D03*
X030055Y003166D03*
X030055Y003156D03*
X030055Y003146D03*
X030055Y003136D03*
X030055Y003126D03*
X030055Y003116D03*
X030055Y003106D03*
X030055Y003096D03*
X030055Y003086D03*
X030055Y003076D03*
X030055Y003066D03*
X030055Y003056D03*
X030055Y003046D03*
X030055Y003036D03*
X030055Y003026D03*
X030055Y003016D03*
X030055Y003006D03*
X030055Y002996D03*
X030055Y002986D03*
X030055Y002976D03*
X030055Y002966D03*
X030055Y002956D03*
X030055Y002946D03*
X030165Y002946D03*
X030165Y002936D03*
X030175Y002956D03*
X030195Y002886D03*
X030285Y002846D03*
X030385Y002896D03*
X030365Y003016D03*
X030375Y003146D03*
X030375Y003156D03*
X030355Y003206D03*
X030205Y003196D03*
X030055Y003316D03*
X030055Y003356D03*
X030875Y003216D03*
X030875Y003176D03*
X030875Y002996D03*
X030875Y002956D03*
X031015Y002996D03*
X031025Y002986D03*
X031005Y003036D03*
X031005Y003046D03*
X031015Y003056D03*
X031145Y003136D03*
X031155Y003156D03*
X031155Y003166D03*
X031135Y003206D03*
X031265Y003166D03*
X031265Y003156D03*
X031275Y003186D03*
X031285Y003196D03*
X031255Y003116D03*
X031255Y003106D03*
X031255Y003096D03*
X031255Y003086D03*
X031265Y003046D03*
X031265Y003036D03*
X031275Y003016D03*
X031285Y003006D03*
X031465Y003006D03*
X031465Y003016D03*
X031465Y003026D03*
X031465Y003036D03*
X031465Y003046D03*
X031465Y003056D03*
X031465Y003066D03*
X031465Y003076D03*
X031465Y003086D03*
X031465Y003096D03*
X031465Y003106D03*
X031465Y003116D03*
X031465Y003126D03*
X031465Y003136D03*
X031465Y003146D03*
X031465Y003156D03*
X031465Y003166D03*
X031465Y003176D03*
X031465Y002976D03*
X031465Y002966D03*
X031465Y002956D03*
X031465Y002946D03*
X031465Y002936D03*
X031465Y002926D03*
X031465Y002916D03*
X031465Y002906D03*
X031465Y002896D03*
X031465Y002886D03*
X031465Y002876D03*
X031465Y002866D03*
X031465Y002856D03*
X031465Y002846D03*
X031665Y002986D03*
X031675Y003016D03*
X031675Y003026D03*
X031675Y003036D03*
X031675Y003046D03*
X031675Y003056D03*
X031675Y003066D03*
X031675Y003076D03*
X031675Y003086D03*
X031675Y003096D03*
X031675Y003106D03*
X031675Y003116D03*
X031675Y003126D03*
X031675Y003136D03*
X031675Y003146D03*
X031675Y003156D03*
X031675Y003166D03*
X031675Y003176D03*
X031675Y003186D03*
X031675Y003196D03*
X031905Y003196D03*
X031905Y003186D03*
X031905Y003176D03*
X031905Y003166D03*
X031905Y003156D03*
X031905Y003146D03*
X031905Y003136D03*
X031905Y003126D03*
X031905Y003116D03*
X031905Y003106D03*
X031905Y003096D03*
X031905Y003086D03*
X031905Y003076D03*
X031905Y003066D03*
X031905Y003056D03*
X031905Y003046D03*
X031905Y003036D03*
X031905Y003026D03*
X031905Y003016D03*
X031895Y002986D03*
X032055Y002986D03*
X032055Y002996D03*
X032055Y003006D03*
X032055Y003016D03*
X032055Y003026D03*
X032055Y003036D03*
X032055Y003046D03*
X032055Y003056D03*
X032055Y003066D03*
X032055Y003076D03*
X032055Y003086D03*
X032055Y003096D03*
X032055Y003106D03*
X032055Y003116D03*
X032055Y003126D03*
X032055Y003136D03*
X032055Y003146D03*
X032055Y003156D03*
X032055Y003166D03*
X032065Y003186D03*
X032065Y003196D03*
X032245Y003206D03*
X032245Y003216D03*
X032245Y003226D03*
X032245Y003236D03*
X032245Y003246D03*
X032245Y003256D03*
X032245Y003266D03*
X032245Y003276D03*
X032245Y003286D03*
X032245Y003296D03*
X032245Y003306D03*
X032245Y003316D03*
X032245Y003326D03*
X032245Y003336D03*
X032245Y003346D03*
X032245Y003356D03*
X032245Y003366D03*
X032245Y003376D03*
X032245Y003176D03*
X032245Y003166D03*
X032245Y003156D03*
X032245Y003146D03*
X032245Y003136D03*
X032245Y003126D03*
X032245Y003116D03*
X032245Y003106D03*
X032245Y003096D03*
X032245Y003086D03*
X032245Y003076D03*
X032245Y003066D03*
X032245Y003056D03*
X032245Y003046D03*
X032245Y003036D03*
X032245Y003026D03*
X032245Y003016D03*
X032245Y003006D03*
X032245Y002996D03*
X032245Y002986D03*
X032245Y002976D03*
X032245Y002966D03*
X032245Y002956D03*
X032245Y002946D03*
X032055Y002946D03*
X032055Y002956D03*
X032055Y002966D03*
X032055Y002976D03*
X027585Y003186D03*
X027585Y003196D03*
D179*
X027580Y003176D03*
X027710Y003206D03*
X027770Y003196D03*
X027770Y003186D03*
X027780Y003206D03*
X027930Y003206D03*
X027930Y003216D03*
X027930Y003226D03*
X027930Y003236D03*
X028070Y003166D03*
X028060Y003136D03*
X028060Y003126D03*
X028060Y003116D03*
X028060Y003076D03*
X028060Y003066D03*
X028060Y003056D03*
X028070Y003026D03*
X028280Y003026D03*
X028290Y003056D03*
X028290Y003066D03*
X028290Y003076D03*
X028290Y003116D03*
X028290Y003126D03*
X028290Y003136D03*
X028280Y003166D03*
X028460Y003246D03*
X028560Y003166D03*
X028570Y003146D03*
X028570Y003136D03*
X028570Y003126D03*
X028570Y003116D03*
X028570Y003076D03*
X028570Y003066D03*
X028570Y003056D03*
X028570Y003046D03*
X028560Y003026D03*
X028550Y003006D03*
X028690Y003006D03*
X028800Y003036D03*
X028800Y003046D03*
X028810Y003016D03*
X028800Y003156D03*
X029010Y002976D03*
X029010Y002966D03*
X029010Y002956D03*
X029140Y002956D03*
X029140Y002966D03*
X029140Y002976D03*
X029140Y002986D03*
X029200Y002986D03*
X029340Y003016D03*
X029490Y003176D03*
X029880Y003236D03*
X029880Y003246D03*
X029880Y003256D03*
X029880Y003266D03*
X029880Y003276D03*
X029880Y003286D03*
X029880Y003296D03*
X029880Y003306D03*
X030200Y003186D03*
X030200Y003176D03*
X030190Y003156D03*
X030190Y003146D03*
X030200Y003126D03*
X030200Y003116D03*
X030210Y003106D03*
X030220Y003096D03*
X030350Y003096D03*
X030360Y003106D03*
X030370Y003116D03*
X030370Y003126D03*
X030370Y003136D03*
X030370Y003166D03*
X030370Y003176D03*
X030370Y003186D03*
X030360Y003196D03*
X030460Y003256D03*
X030470Y003236D03*
X030480Y003206D03*
X030490Y003186D03*
X030500Y003156D03*
X030520Y003106D03*
X030540Y003056D03*
X030560Y003006D03*
X030580Y002956D03*
X030740Y003006D03*
X030720Y003056D03*
X030700Y003106D03*
X030680Y003156D03*
X030670Y003186D03*
X030660Y003206D03*
X030650Y003236D03*
X030640Y003256D03*
X030630Y003286D03*
X030610Y003336D03*
X030450Y003286D03*
X030430Y003336D03*
X031150Y003196D03*
X031150Y003186D03*
X031150Y003176D03*
X031150Y003146D03*
X031260Y003146D03*
X031260Y003136D03*
X031260Y003126D03*
X031260Y003076D03*
X031260Y003066D03*
X031260Y003056D03*
X031270Y003026D03*
X031160Y002986D03*
X031010Y003006D03*
X031010Y003016D03*
X031010Y003026D03*
X030760Y002956D03*
X030390Y002936D03*
X030390Y002926D03*
X030390Y002916D03*
X030390Y002906D03*
X030380Y002956D03*
X030370Y003026D03*
X030170Y002926D03*
X030170Y002916D03*
X030170Y002906D03*
X030180Y002896D03*
X029880Y002996D03*
X029880Y003006D03*
X031270Y003176D03*
X031470Y003206D03*
X031470Y003216D03*
X031470Y003226D03*
X031470Y003236D03*
X031670Y003236D03*
X031670Y003246D03*
X031670Y003256D03*
X031670Y003266D03*
X031670Y003276D03*
X031670Y003286D03*
X031670Y003296D03*
X031670Y003306D03*
X031900Y003306D03*
X031900Y003296D03*
X031900Y003286D03*
X031900Y003276D03*
X031900Y003266D03*
X031900Y003256D03*
X031900Y003246D03*
X031900Y003236D03*
X032060Y003176D03*
X031900Y003006D03*
X031900Y002996D03*
X031670Y002996D03*
X031670Y003006D03*
X027470Y002956D03*
X027450Y003006D03*
X027430Y003056D03*
X027410Y003106D03*
X027390Y003156D03*
X027380Y003186D03*
X027370Y003206D03*
X027360Y003236D03*
X027350Y003256D03*
X027340Y003286D03*
X027320Y003336D03*
X026900Y003176D03*
X026900Y003166D03*
X026900Y003156D03*
X026760Y003206D03*
X026760Y003216D03*
X026760Y003226D03*
X026760Y003236D03*
X026570Y003176D03*
X026290Y003366D03*
X026090Y003196D03*
X026090Y003186D03*
X026090Y003176D03*
X026090Y003146D03*
X026100Y002986D03*
X025950Y003006D03*
X025950Y003016D03*
X025950Y003026D03*
X026890Y002986D03*
X026890Y002976D03*
X026890Y002966D03*
X026890Y002956D03*
X027080Y002996D03*
X027080Y003036D03*
X027080Y003046D03*
X027070Y003056D03*
X027220Y002896D03*
X027280Y002846D03*
D180*
X027015Y002966D03*
X027825Y003216D03*
X028885Y003226D03*
X028895Y002966D03*
X029265Y002966D03*
X029835Y002976D03*
X030205Y003216D03*
X030285Y003076D03*
X030285Y002856D03*
X031355Y002966D03*
X031345Y003226D03*
X031075Y003226D03*
X031625Y002976D03*
X031855Y002976D03*
X026015Y003226D03*
D181*
X025975Y003076D03*
X026305Y003336D03*
X026745Y003196D03*
X026905Y003106D03*
X026905Y002996D03*
X027055Y003206D03*
X027215Y003336D03*
X027915Y003196D03*
X028685Y002976D03*
X029665Y003196D03*
X030055Y003336D03*
X030335Y003216D03*
X030185Y002966D03*
X030875Y002976D03*
X031035Y003076D03*
X030875Y003196D03*
X031455Y003196D03*
X032235Y003196D03*
X027265Y002856D03*
D182*
X026960Y003086D03*
X028460Y003216D03*
X029860Y003216D03*
X029860Y003226D03*
X029860Y003206D03*
X030290Y002866D03*
X031650Y003206D03*
X031650Y003216D03*
X031650Y003226D03*
X031880Y003226D03*
X031880Y003216D03*
X031880Y003206D03*
D183*
X031450Y002986D03*
X031140Y002976D03*
X029160Y002996D03*
X028990Y002986D03*
X028990Y003196D03*
X027820Y003236D03*
X027260Y002866D03*
X026080Y002976D03*
X026310Y003326D03*
D184*
X030285Y002876D03*
D185*
X030335Y003006D03*
X029835Y002956D03*
X029555Y003236D03*
X028895Y002956D03*
X027255Y002876D03*
X027025Y003076D03*
X026635Y003236D03*
X026055Y003116D03*
X025995Y003086D03*
X026015Y003236D03*
X031055Y003086D03*
X031115Y003116D03*
X031075Y003236D03*
X031345Y003236D03*
X031625Y002956D03*
X031855Y002956D03*
X032125Y003236D03*
D186*
X032080Y003206D03*
X032240Y003186D03*
X031460Y003186D03*
X031290Y003206D03*
X031130Y003126D03*
X031020Y003066D03*
X031040Y002976D03*
X030870Y002986D03*
X030870Y002966D03*
X030870Y003186D03*
X030870Y003206D03*
X031290Y002996D03*
X031300Y002986D03*
X031460Y002996D03*
X030370Y002886D03*
X029670Y003186D03*
X029510Y003206D03*
X029320Y002986D03*
X029150Y003006D03*
X029000Y002996D03*
X028840Y002986D03*
X028690Y002986D03*
X028690Y002966D03*
X028540Y002996D03*
X028530Y002986D03*
X028540Y003196D03*
X028530Y003206D03*
X028250Y003206D03*
X028100Y003206D03*
X027920Y003186D03*
X027750Y003176D03*
X027600Y003206D03*
X027210Y003326D03*
X027210Y003346D03*
X026920Y003206D03*
X026750Y003186D03*
X026590Y003206D03*
X026370Y003286D03*
X026360Y003296D03*
X026300Y003346D03*
X026070Y003126D03*
X025960Y003066D03*
X025980Y002976D03*
X026900Y003006D03*
X027060Y002976D03*
X028100Y002986D03*
X028250Y002986D03*
X028820Y003196D03*
X028830Y003206D03*
X029000Y003186D03*
X030050Y003326D03*
X030050Y003346D03*
D187*
X030055Y003306D03*
X030285Y003246D03*
X030405Y003376D03*
X030585Y003376D03*
X030875Y003166D03*
X031005Y003196D03*
X030875Y002946D03*
X030785Y002916D03*
X030605Y002916D03*
X028685Y002946D03*
X028385Y003006D03*
X027495Y002916D03*
X026405Y003236D03*
X025945Y003196D03*
X027215Y003306D03*
X027295Y003376D03*
D188*
X027305Y003366D03*
X027315Y003356D03*
X027315Y003346D03*
X027325Y003326D03*
X027325Y003316D03*
X027335Y003306D03*
X027335Y003296D03*
X027345Y003276D03*
X027345Y003266D03*
X027355Y003246D03*
X027365Y003226D03*
X027365Y003216D03*
X027375Y003196D03*
X027385Y003176D03*
X027385Y003166D03*
X027395Y003146D03*
X027395Y003136D03*
X027405Y003126D03*
X027405Y003116D03*
X027415Y003096D03*
X027415Y003086D03*
X027425Y003076D03*
X027425Y003066D03*
X027435Y003046D03*
X027435Y003036D03*
X027445Y003026D03*
X027445Y003016D03*
X027455Y002996D03*
X027455Y002986D03*
X027465Y002976D03*
X027465Y002966D03*
X027475Y002946D03*
X027475Y002936D03*
X027485Y002926D03*
X027025Y002946D03*
X026945Y002986D03*
X026885Y002946D03*
X026975Y003246D03*
X027215Y003366D03*
X027645Y003246D03*
X027725Y003196D03*
X027885Y003206D03*
X028175Y003246D03*
X028175Y002946D03*
X028385Y002996D03*
X028465Y002946D03*
X028895Y002946D03*
X029015Y002946D03*
X029135Y002946D03*
X029275Y002946D03*
X029555Y003246D03*
X029625Y003206D03*
X029875Y003316D03*
X029875Y003326D03*
X029875Y003336D03*
X030055Y003366D03*
X030195Y003166D03*
X030195Y003136D03*
X030355Y003056D03*
X030365Y003046D03*
X030365Y003036D03*
X030365Y002966D03*
X030385Y002946D03*
X030545Y003036D03*
X030545Y003046D03*
X030535Y003066D03*
X030535Y003076D03*
X030525Y003086D03*
X030525Y003096D03*
X030515Y003116D03*
X030515Y003126D03*
X030505Y003136D03*
X030505Y003146D03*
X030495Y003166D03*
X030495Y003176D03*
X030485Y003196D03*
X030475Y003216D03*
X030475Y003226D03*
X030465Y003246D03*
X030455Y003266D03*
X030455Y003276D03*
X030445Y003296D03*
X030445Y003306D03*
X030435Y003316D03*
X030435Y003326D03*
X030425Y003346D03*
X030425Y003356D03*
X030415Y003366D03*
X030595Y003366D03*
X030605Y003356D03*
X030605Y003346D03*
X030615Y003326D03*
X030615Y003316D03*
X030625Y003306D03*
X030625Y003296D03*
X030635Y003276D03*
X030635Y003266D03*
X030645Y003246D03*
X030655Y003226D03*
X030655Y003216D03*
X030665Y003196D03*
X030675Y003176D03*
X030675Y003166D03*
X030685Y003146D03*
X030685Y003136D03*
X030695Y003126D03*
X030695Y003116D03*
X030705Y003096D03*
X030705Y003086D03*
X030715Y003076D03*
X030715Y003066D03*
X030725Y003046D03*
X030725Y003036D03*
X030735Y003026D03*
X030735Y003016D03*
X030745Y002996D03*
X030745Y002986D03*
X030755Y002976D03*
X030755Y002966D03*
X030765Y002946D03*
X030765Y002936D03*
X030775Y002926D03*
X030875Y003006D03*
X030875Y003226D03*
X031015Y003206D03*
X031075Y003246D03*
X031345Y003246D03*
X031415Y003206D03*
X031665Y003316D03*
X031665Y003326D03*
X031665Y003336D03*
X031895Y003336D03*
X031895Y003326D03*
X031895Y003316D03*
X032125Y003246D03*
X032195Y003206D03*
X031855Y002946D03*
X031625Y002946D03*
X030595Y002926D03*
X030585Y002936D03*
X030585Y002946D03*
X030575Y002966D03*
X030575Y002976D03*
X030565Y002986D03*
X030565Y002996D03*
X030555Y003016D03*
X030555Y003026D03*
X029835Y002946D03*
X028955Y003206D03*
X026705Y003206D03*
X026635Y003246D03*
X026405Y003246D03*
X026015Y003246D03*
X025955Y003206D03*
D189*
X026100Y002996D03*
X026030Y002946D03*
X027070Y003186D03*
X027230Y003246D03*
X027730Y003186D03*
X027820Y003246D03*
X028390Y003196D03*
X028880Y003246D03*
X029790Y002986D03*
X031090Y002946D03*
X031160Y002996D03*
X031360Y002946D03*
X031580Y002986D03*
X031810Y002986D03*
D190*
X030250Y003226D03*
X026300Y002976D03*
X026300Y002966D03*
X026300Y002956D03*
X026300Y002946D03*
D191*
X026030Y002956D03*
X026030Y003106D03*
X026320Y003316D03*
X027020Y002956D03*
X027650Y003236D03*
X027820Y003226D03*
X028880Y003236D03*
X029270Y002956D03*
X030190Y003206D03*
X030300Y003066D03*
X031090Y003106D03*
X031090Y002956D03*
X031360Y002956D03*
D192*
X031075Y003096D03*
X030285Y003236D03*
X028465Y003236D03*
X028465Y002956D03*
X028175Y002956D03*
X028175Y003236D03*
X026985Y003236D03*
X026325Y003306D03*
X026015Y003096D03*
D193*
X026640Y003226D03*
X027650Y003226D03*
X029560Y003226D03*
X029830Y002966D03*
X031620Y002966D03*
X031850Y002966D03*
X032130Y003226D03*
D194*
X032130Y003216D03*
X031090Y002966D03*
X029560Y003216D03*
X028460Y003226D03*
X027650Y003216D03*
X026940Y003096D03*
X026640Y003216D03*
X026030Y002966D03*
D195*
X026985Y003226D03*
X028175Y003226D03*
X028175Y002966D03*
X028465Y002966D03*
X028895Y002976D03*
X028885Y003216D03*
X029265Y002976D03*
X030285Y003086D03*
X031345Y003216D03*
X031355Y002976D03*
D196*
X030260Y002976D03*
D197*
X028465Y002976D03*
X026985Y003216D03*
D198*
X028175Y003216D03*
X028175Y002976D03*
X030265Y002986D03*
X030285Y002996D03*
D199*
X031070Y003216D03*
X026010Y003216D03*
M02*
