G75*
G70*
%OFA0B0*%
%FSLAX24Y24*%
%IPPOS*%
%LPD*%
%AMOC8*
5,1,8,0,0,1.08239X$1,22.5*
%
%ADD10C,0.0000*%
%ADD11R,0.0433X0.0394*%
%ADD12R,0.0394X0.0433*%
%ADD13R,0.0315X0.0315*%
%ADD14R,0.0787X0.0984*%
%ADD15R,0.0787X0.1299*%
%ADD16R,0.0197X0.1220*%
%ADD17R,0.0472X0.0217*%
%ADD18R,0.1181X0.1181*%
%ADD19R,0.0236X0.0866*%
%ADD20R,0.0394X0.0551*%
%ADD21R,0.0630X0.0710*%
%ADD22C,0.0787*%
%ADD23R,0.0906X0.0984*%
%ADD24R,0.2165X0.0728*%
%ADD25R,0.0630X0.1063*%
%ADD26R,0.0787X0.0630*%
%ADD27R,0.0709X0.0433*%
%ADD28R,0.0118X0.0472*%
%ADD29R,0.0472X0.0118*%
%ADD30C,0.0660*%
%ADD31R,0.0236X0.0472*%
%ADD32R,0.0472X0.0236*%
%ADD33R,0.1102X0.0591*%
%ADD34R,0.0787X0.0945*%
%ADD35R,0.0217X0.0472*%
%ADD36R,0.0394X0.0709*%
%ADD37R,0.0400X0.1300*%
%ADD38R,0.0394X0.0787*%
%ADD39R,0.0984X0.0394*%
%ADD40R,0.1181X0.0394*%
%ADD41R,0.1417X0.1024*%
%ADD42R,0.0768X0.0433*%
%ADD43C,0.0100*%
%ADD44C,0.0246*%
%ADD45C,0.0120*%
%ADD46C,0.0160*%
%ADD47C,0.0320*%
%ADD48C,0.0560*%
%ADD49C,0.0240*%
D10*
X001725Y000937D02*
X057630Y000937D01*
X057000Y002512D02*
X057002Y002562D01*
X057008Y002612D01*
X057018Y002661D01*
X057032Y002709D01*
X057049Y002756D01*
X057070Y002801D01*
X057095Y002845D01*
X057123Y002886D01*
X057155Y002925D01*
X057189Y002962D01*
X057226Y002996D01*
X057266Y003026D01*
X057308Y003053D01*
X057352Y003077D01*
X057398Y003098D01*
X057445Y003114D01*
X057493Y003127D01*
X057543Y003136D01*
X057592Y003141D01*
X057643Y003142D01*
X057693Y003139D01*
X057742Y003132D01*
X057791Y003121D01*
X057839Y003106D01*
X057885Y003088D01*
X057930Y003066D01*
X057973Y003040D01*
X058014Y003011D01*
X058053Y002979D01*
X058089Y002944D01*
X058121Y002906D01*
X058151Y002866D01*
X058178Y002823D01*
X058201Y002779D01*
X058220Y002733D01*
X058236Y002685D01*
X058248Y002636D01*
X058256Y002587D01*
X058260Y002537D01*
X058260Y002487D01*
X058256Y002437D01*
X058248Y002388D01*
X058236Y002339D01*
X058220Y002291D01*
X058201Y002245D01*
X058178Y002201D01*
X058151Y002158D01*
X058121Y002118D01*
X058089Y002080D01*
X058053Y002045D01*
X058014Y002013D01*
X057973Y001984D01*
X057930Y001958D01*
X057885Y001936D01*
X057839Y001918D01*
X057791Y001903D01*
X057742Y001892D01*
X057693Y001885D01*
X057643Y001882D01*
X057592Y001883D01*
X057543Y001888D01*
X057493Y001897D01*
X057445Y001910D01*
X057398Y001926D01*
X057352Y001947D01*
X057308Y001971D01*
X057266Y001998D01*
X057226Y002028D01*
X057189Y002062D01*
X057155Y002099D01*
X057123Y002138D01*
X057095Y002179D01*
X057070Y002223D01*
X057049Y002268D01*
X057032Y002315D01*
X057018Y002363D01*
X057008Y002412D01*
X057002Y002462D01*
X057000Y002512D01*
X057630Y000937D02*
X057707Y000939D01*
X057784Y000945D01*
X057861Y000954D01*
X057937Y000967D01*
X058013Y000984D01*
X058087Y001005D01*
X058161Y001029D01*
X058233Y001057D01*
X058303Y001088D01*
X058372Y001123D01*
X058440Y001161D01*
X058505Y001202D01*
X058568Y001247D01*
X058629Y001295D01*
X058688Y001345D01*
X058744Y001398D01*
X058797Y001454D01*
X058847Y001513D01*
X058895Y001574D01*
X058940Y001637D01*
X058981Y001702D01*
X059019Y001770D01*
X059054Y001839D01*
X059085Y001909D01*
X059113Y001981D01*
X059137Y002055D01*
X059158Y002129D01*
X059175Y002205D01*
X059188Y002281D01*
X059197Y002358D01*
X059203Y002435D01*
X059205Y002512D01*
X059205Y015898D01*
X057000Y015898D02*
X057002Y015948D01*
X057008Y015998D01*
X057018Y016047D01*
X057032Y016095D01*
X057049Y016142D01*
X057070Y016187D01*
X057095Y016231D01*
X057123Y016272D01*
X057155Y016311D01*
X057189Y016348D01*
X057226Y016382D01*
X057266Y016412D01*
X057308Y016439D01*
X057352Y016463D01*
X057398Y016484D01*
X057445Y016500D01*
X057493Y016513D01*
X057543Y016522D01*
X057592Y016527D01*
X057643Y016528D01*
X057693Y016525D01*
X057742Y016518D01*
X057791Y016507D01*
X057839Y016492D01*
X057885Y016474D01*
X057930Y016452D01*
X057973Y016426D01*
X058014Y016397D01*
X058053Y016365D01*
X058089Y016330D01*
X058121Y016292D01*
X058151Y016252D01*
X058178Y016209D01*
X058201Y016165D01*
X058220Y016119D01*
X058236Y016071D01*
X058248Y016022D01*
X058256Y015973D01*
X058260Y015923D01*
X058260Y015873D01*
X058256Y015823D01*
X058248Y015774D01*
X058236Y015725D01*
X058220Y015677D01*
X058201Y015631D01*
X058178Y015587D01*
X058151Y015544D01*
X058121Y015504D01*
X058089Y015466D01*
X058053Y015431D01*
X058014Y015399D01*
X057973Y015370D01*
X057930Y015344D01*
X057885Y015322D01*
X057839Y015304D01*
X057791Y015289D01*
X057742Y015278D01*
X057693Y015271D01*
X057643Y015268D01*
X057592Y015269D01*
X057543Y015274D01*
X057493Y015283D01*
X057445Y015296D01*
X057398Y015312D01*
X057352Y015333D01*
X057308Y015357D01*
X057266Y015384D01*
X057226Y015414D01*
X057189Y015448D01*
X057155Y015485D01*
X057123Y015524D01*
X057095Y015565D01*
X057070Y015609D01*
X057049Y015654D01*
X057032Y015701D01*
X057018Y015749D01*
X057008Y015798D01*
X057002Y015848D01*
X057000Y015898D01*
X057630Y017473D02*
X057707Y017471D01*
X057784Y017465D01*
X057861Y017456D01*
X057937Y017443D01*
X058013Y017426D01*
X058087Y017405D01*
X058161Y017381D01*
X058233Y017353D01*
X058303Y017322D01*
X058372Y017287D01*
X058440Y017249D01*
X058505Y017208D01*
X058568Y017163D01*
X058629Y017115D01*
X058688Y017065D01*
X058744Y017012D01*
X058797Y016956D01*
X058847Y016897D01*
X058895Y016836D01*
X058940Y016773D01*
X058981Y016708D01*
X059019Y016640D01*
X059054Y016571D01*
X059085Y016501D01*
X059113Y016429D01*
X059137Y016355D01*
X059158Y016281D01*
X059175Y016205D01*
X059188Y016129D01*
X059197Y016052D01*
X059203Y015975D01*
X059205Y015898D01*
X057630Y017473D02*
X001725Y017473D01*
X001095Y015898D02*
X001097Y015948D01*
X001103Y015998D01*
X001113Y016047D01*
X001127Y016095D01*
X001144Y016142D01*
X001165Y016187D01*
X001190Y016231D01*
X001218Y016272D01*
X001250Y016311D01*
X001284Y016348D01*
X001321Y016382D01*
X001361Y016412D01*
X001403Y016439D01*
X001447Y016463D01*
X001493Y016484D01*
X001540Y016500D01*
X001588Y016513D01*
X001638Y016522D01*
X001687Y016527D01*
X001738Y016528D01*
X001788Y016525D01*
X001837Y016518D01*
X001886Y016507D01*
X001934Y016492D01*
X001980Y016474D01*
X002025Y016452D01*
X002068Y016426D01*
X002109Y016397D01*
X002148Y016365D01*
X002184Y016330D01*
X002216Y016292D01*
X002246Y016252D01*
X002273Y016209D01*
X002296Y016165D01*
X002315Y016119D01*
X002331Y016071D01*
X002343Y016022D01*
X002351Y015973D01*
X002355Y015923D01*
X002355Y015873D01*
X002351Y015823D01*
X002343Y015774D01*
X002331Y015725D01*
X002315Y015677D01*
X002296Y015631D01*
X002273Y015587D01*
X002246Y015544D01*
X002216Y015504D01*
X002184Y015466D01*
X002148Y015431D01*
X002109Y015399D01*
X002068Y015370D01*
X002025Y015344D01*
X001980Y015322D01*
X001934Y015304D01*
X001886Y015289D01*
X001837Y015278D01*
X001788Y015271D01*
X001738Y015268D01*
X001687Y015269D01*
X001638Y015274D01*
X001588Y015283D01*
X001540Y015296D01*
X001493Y015312D01*
X001447Y015333D01*
X001403Y015357D01*
X001361Y015384D01*
X001321Y015414D01*
X001284Y015448D01*
X001250Y015485D01*
X001218Y015524D01*
X001190Y015565D01*
X001165Y015609D01*
X001144Y015654D01*
X001127Y015701D01*
X001113Y015749D01*
X001103Y015798D01*
X001097Y015848D01*
X001095Y015898D01*
X000150Y015898D02*
X000152Y015975D01*
X000158Y016052D01*
X000167Y016129D01*
X000180Y016205D01*
X000197Y016281D01*
X000218Y016355D01*
X000242Y016429D01*
X000270Y016501D01*
X000301Y016571D01*
X000336Y016640D01*
X000374Y016708D01*
X000415Y016773D01*
X000460Y016836D01*
X000508Y016897D01*
X000558Y016956D01*
X000611Y017012D01*
X000667Y017065D01*
X000726Y017115D01*
X000787Y017163D01*
X000850Y017208D01*
X000915Y017249D01*
X000983Y017287D01*
X001052Y017322D01*
X001122Y017353D01*
X001194Y017381D01*
X001268Y017405D01*
X001342Y017426D01*
X001418Y017443D01*
X001494Y017456D01*
X001571Y017465D01*
X001648Y017471D01*
X001725Y017473D01*
X000150Y015898D02*
X000150Y002512D01*
X001095Y002512D02*
X001097Y002562D01*
X001103Y002612D01*
X001113Y002661D01*
X001127Y002709D01*
X001144Y002756D01*
X001165Y002801D01*
X001190Y002845D01*
X001218Y002886D01*
X001250Y002925D01*
X001284Y002962D01*
X001321Y002996D01*
X001361Y003026D01*
X001403Y003053D01*
X001447Y003077D01*
X001493Y003098D01*
X001540Y003114D01*
X001588Y003127D01*
X001638Y003136D01*
X001687Y003141D01*
X001738Y003142D01*
X001788Y003139D01*
X001837Y003132D01*
X001886Y003121D01*
X001934Y003106D01*
X001980Y003088D01*
X002025Y003066D01*
X002068Y003040D01*
X002109Y003011D01*
X002148Y002979D01*
X002184Y002944D01*
X002216Y002906D01*
X002246Y002866D01*
X002273Y002823D01*
X002296Y002779D01*
X002315Y002733D01*
X002331Y002685D01*
X002343Y002636D01*
X002351Y002587D01*
X002355Y002537D01*
X002355Y002487D01*
X002351Y002437D01*
X002343Y002388D01*
X002331Y002339D01*
X002315Y002291D01*
X002296Y002245D01*
X002273Y002201D01*
X002246Y002158D01*
X002216Y002118D01*
X002184Y002080D01*
X002148Y002045D01*
X002109Y002013D01*
X002068Y001984D01*
X002025Y001958D01*
X001980Y001936D01*
X001934Y001918D01*
X001886Y001903D01*
X001837Y001892D01*
X001788Y001885D01*
X001738Y001882D01*
X001687Y001883D01*
X001638Y001888D01*
X001588Y001897D01*
X001540Y001910D01*
X001493Y001926D01*
X001447Y001947D01*
X001403Y001971D01*
X001361Y001998D01*
X001321Y002028D01*
X001284Y002062D01*
X001250Y002099D01*
X001218Y002138D01*
X001190Y002179D01*
X001165Y002223D01*
X001144Y002268D01*
X001127Y002315D01*
X001113Y002363D01*
X001103Y002412D01*
X001097Y002462D01*
X001095Y002512D01*
X000150Y002512D02*
X000152Y002435D01*
X000158Y002358D01*
X000167Y002281D01*
X000180Y002205D01*
X000197Y002129D01*
X000218Y002055D01*
X000242Y001981D01*
X000270Y001909D01*
X000301Y001839D01*
X000336Y001770D01*
X000374Y001702D01*
X000415Y001637D01*
X000460Y001574D01*
X000508Y001513D01*
X000558Y001454D01*
X000611Y001398D01*
X000667Y001345D01*
X000726Y001295D01*
X000787Y001247D01*
X000850Y001202D01*
X000915Y001161D01*
X000983Y001123D01*
X001052Y001088D01*
X001122Y001057D01*
X001194Y001029D01*
X001268Y001005D01*
X001342Y000984D01*
X001418Y000967D01*
X001494Y000954D01*
X001571Y000945D01*
X001648Y000939D01*
X001725Y000937D01*
X047493Y001567D02*
X047495Y001601D01*
X047501Y001635D01*
X047511Y001668D01*
X047524Y001699D01*
X047542Y001729D01*
X047562Y001757D01*
X047586Y001782D01*
X047612Y001804D01*
X047640Y001822D01*
X047671Y001838D01*
X047703Y001850D01*
X047737Y001858D01*
X047771Y001862D01*
X047805Y001862D01*
X047839Y001858D01*
X047873Y001850D01*
X047905Y001838D01*
X047935Y001822D01*
X047964Y001804D01*
X047990Y001782D01*
X048014Y001757D01*
X048034Y001729D01*
X048052Y001699D01*
X048065Y001668D01*
X048075Y001635D01*
X048081Y001601D01*
X048083Y001567D01*
X048081Y001533D01*
X048075Y001499D01*
X048065Y001466D01*
X048052Y001435D01*
X048034Y001405D01*
X048014Y001377D01*
X047990Y001352D01*
X047964Y001330D01*
X047936Y001312D01*
X047905Y001296D01*
X047873Y001284D01*
X047839Y001276D01*
X047805Y001272D01*
X047771Y001272D01*
X047737Y001276D01*
X047703Y001284D01*
X047671Y001296D01*
X047640Y001312D01*
X047612Y001330D01*
X047586Y001352D01*
X047562Y001377D01*
X047542Y001405D01*
X047524Y001435D01*
X047511Y001466D01*
X047501Y001499D01*
X047495Y001533D01*
X047493Y001567D01*
X051075Y002807D02*
X051077Y002833D01*
X051083Y002859D01*
X051093Y002884D01*
X051106Y002907D01*
X051122Y002927D01*
X051142Y002945D01*
X051164Y002960D01*
X051187Y002972D01*
X051213Y002980D01*
X051239Y002984D01*
X051265Y002984D01*
X051291Y002980D01*
X051317Y002972D01*
X051341Y002960D01*
X051362Y002945D01*
X051382Y002927D01*
X051398Y002907D01*
X051411Y002884D01*
X051421Y002859D01*
X051427Y002833D01*
X051429Y002807D01*
X051427Y002781D01*
X051421Y002755D01*
X051411Y002730D01*
X051398Y002707D01*
X051382Y002687D01*
X051362Y002669D01*
X051340Y002654D01*
X051317Y002642D01*
X051291Y002634D01*
X051265Y002630D01*
X051239Y002630D01*
X051213Y002634D01*
X051187Y002642D01*
X051163Y002654D01*
X051142Y002669D01*
X051122Y002687D01*
X051106Y002707D01*
X051093Y002730D01*
X051083Y002755D01*
X051077Y002781D01*
X051075Y002807D01*
X052808Y002807D02*
X052810Y002833D01*
X052816Y002859D01*
X052826Y002884D01*
X052839Y002907D01*
X052855Y002927D01*
X052875Y002945D01*
X052897Y002960D01*
X052920Y002972D01*
X052946Y002980D01*
X052972Y002984D01*
X052998Y002984D01*
X053024Y002980D01*
X053050Y002972D01*
X053074Y002960D01*
X053095Y002945D01*
X053115Y002927D01*
X053131Y002907D01*
X053144Y002884D01*
X053154Y002859D01*
X053160Y002833D01*
X053162Y002807D01*
X053160Y002781D01*
X053154Y002755D01*
X053144Y002730D01*
X053131Y002707D01*
X053115Y002687D01*
X053095Y002669D01*
X053073Y002654D01*
X053050Y002642D01*
X053024Y002634D01*
X052998Y002630D01*
X052972Y002630D01*
X052946Y002634D01*
X052920Y002642D01*
X052896Y002654D01*
X052875Y002669D01*
X052855Y002687D01*
X052839Y002707D01*
X052826Y002730D01*
X052816Y002755D01*
X052810Y002781D01*
X052808Y002807D01*
X047493Y004323D02*
X047495Y004357D01*
X047501Y004391D01*
X047511Y004424D01*
X047524Y004455D01*
X047542Y004485D01*
X047562Y004513D01*
X047586Y004538D01*
X047612Y004560D01*
X047640Y004578D01*
X047671Y004594D01*
X047703Y004606D01*
X047737Y004614D01*
X047771Y004618D01*
X047805Y004618D01*
X047839Y004614D01*
X047873Y004606D01*
X047905Y004594D01*
X047935Y004578D01*
X047964Y004560D01*
X047990Y004538D01*
X048014Y004513D01*
X048034Y004485D01*
X048052Y004455D01*
X048065Y004424D01*
X048075Y004391D01*
X048081Y004357D01*
X048083Y004323D01*
X048081Y004289D01*
X048075Y004255D01*
X048065Y004222D01*
X048052Y004191D01*
X048034Y004161D01*
X048014Y004133D01*
X047990Y004108D01*
X047964Y004086D01*
X047936Y004068D01*
X047905Y004052D01*
X047873Y004040D01*
X047839Y004032D01*
X047805Y004028D01*
X047771Y004028D01*
X047737Y004032D01*
X047703Y004040D01*
X047671Y004052D01*
X047640Y004068D01*
X047612Y004086D01*
X047586Y004108D01*
X047562Y004133D01*
X047542Y004161D01*
X047524Y004191D01*
X047511Y004222D01*
X047501Y004255D01*
X047495Y004289D01*
X047493Y004323D01*
D11*
X052414Y005229D03*
X053004Y005229D03*
X053595Y005229D03*
X053595Y005898D03*
X053004Y005898D03*
X052414Y005898D03*
X051666Y006449D03*
X050996Y006449D03*
X050996Y007040D03*
X051666Y007040D03*
X051666Y008910D03*
X050996Y008910D03*
X050288Y009993D03*
X049619Y009993D03*
X054284Y009737D03*
X054284Y009067D03*
X054146Y013044D03*
X054815Y013044D03*
X054815Y013536D03*
X054146Y013536D03*
X049894Y013044D03*
X049225Y013044D03*
X050209Y015504D03*
X050878Y015504D03*
X051489Y015504D03*
X052158Y015504D03*
X022197Y012886D03*
X022197Y012217D03*
X022197Y011311D03*
X022197Y010642D03*
X022197Y009835D03*
X022197Y009166D03*
X007729Y014579D03*
X007729Y015248D03*
D12*
X008319Y015248D03*
X007138Y015248D03*
X007138Y014579D03*
X008319Y014579D03*
X008221Y010426D03*
X008811Y010426D03*
X008811Y009756D03*
X008221Y009756D03*
X014382Y007040D03*
X015052Y007040D03*
X022493Y007374D03*
X022493Y006705D03*
X030721Y008221D03*
X031390Y008221D03*
X031390Y010583D03*
X030721Y010583D03*
X030721Y011370D03*
X031390Y011370D03*
X047158Y008811D03*
X047827Y008811D03*
X047827Y008221D03*
X047158Y008221D03*
X047099Y007374D03*
X049067Y007374D03*
X049658Y007374D03*
X049658Y006705D03*
X049067Y006705D03*
X047099Y006705D03*
X050996Y005859D03*
X051666Y005859D03*
X051666Y005268D03*
X050996Y005268D03*
X053693Y009067D03*
X053693Y009737D03*
X054737Y011666D03*
X055406Y011666D03*
X055406Y012256D03*
X054737Y012256D03*
X053989Y014874D03*
X053004Y014874D03*
X053004Y015544D03*
X053989Y015544D03*
D13*
X056056Y012256D03*
X056646Y012256D03*
X056646Y011666D03*
X056056Y011666D03*
X032630Y011370D03*
X032040Y011370D03*
X032040Y010583D03*
X032630Y010583D03*
D14*
X050367Y001626D03*
X053870Y001626D03*
D15*
X053870Y003949D03*
X050367Y003949D03*
D16*
X051489Y003989D03*
X051804Y003989D03*
X052119Y003989D03*
X052433Y003989D03*
X052748Y003989D03*
D17*
X051843Y007650D03*
X050819Y007650D03*
X050819Y008024D03*
X050819Y008398D03*
X051843Y008398D03*
D18*
X009717Y006252D03*
X003575Y006252D03*
D19*
X004715Y011528D03*
X005215Y011528D03*
X005715Y011528D03*
X006215Y011528D03*
X007274Y011528D03*
X007774Y011528D03*
X008274Y011528D03*
X008774Y011528D03*
X008774Y013575D03*
X008274Y013575D03*
X007774Y013575D03*
X007274Y013575D03*
X006215Y013575D03*
X005715Y013575D03*
X005215Y013575D03*
X004715Y013575D03*
D20*
X009796Y012000D03*
X010170Y011134D03*
X009422Y011134D03*
D21*
X006025Y014914D03*
X004905Y014914D03*
D22*
X005465Y010386D03*
X003300Y010386D03*
X009796Y010091D03*
X009993Y003693D03*
D23*
X011115Y005465D03*
X012807Y005465D03*
D24*
X014914Y005485D03*
X014914Y003477D03*
D25*
X012709Y003595D03*
X011607Y003595D03*
D26*
X016489Y005504D03*
X016489Y006607D03*
D27*
X017827Y011626D03*
X020268Y011626D03*
X020268Y013083D03*
X017827Y013083D03*
X054343Y007178D03*
X056784Y007178D03*
X056784Y005721D03*
X054343Y005721D03*
D28*
X053201Y009894D03*
X053004Y009894D03*
X052807Y009894D03*
X052611Y009894D03*
X052414Y009894D03*
X052217Y009894D03*
X052020Y009894D03*
X051823Y009894D03*
X051626Y009894D03*
X051430Y009894D03*
X051233Y009894D03*
X051036Y009894D03*
X051036Y013241D03*
X051233Y013241D03*
X051430Y013241D03*
X051626Y013241D03*
X051823Y013241D03*
X052020Y013241D03*
X052217Y013241D03*
X052414Y013241D03*
X052611Y013241D03*
X052807Y013241D03*
X053004Y013241D03*
X053201Y013241D03*
D29*
X053792Y012650D03*
X053792Y012453D03*
X053792Y012256D03*
X053792Y012059D03*
X053792Y011863D03*
X053792Y011666D03*
X053792Y011469D03*
X053792Y011272D03*
X053792Y011075D03*
X053792Y010878D03*
X053792Y010681D03*
X053792Y010485D03*
X050445Y010485D03*
X050445Y010681D03*
X050445Y010878D03*
X050445Y011075D03*
X050445Y011272D03*
X050445Y011469D03*
X050445Y011666D03*
X050445Y011863D03*
X050445Y012059D03*
X050445Y012256D03*
X050445Y012453D03*
X050445Y012650D03*
D30*
X057630Y011205D03*
X057630Y010205D03*
X057630Y009205D03*
X057630Y008205D03*
X057630Y007205D03*
X030678Y002512D03*
X029678Y002512D03*
X028678Y002512D03*
D31*
X052335Y006528D03*
X052709Y006528D03*
X053083Y006528D03*
X053083Y007433D03*
X052709Y007433D03*
X052335Y007433D03*
D32*
X049382Y008241D03*
X049382Y008615D03*
X048477Y008615D03*
X048477Y008241D03*
X048477Y008989D03*
X049382Y008989D03*
D33*
X049126Y005347D03*
X046449Y004953D03*
X046449Y003378D03*
X046449Y002197D03*
D34*
X050445Y014520D03*
X052020Y014520D03*
D35*
X048457Y007552D03*
X047709Y007552D03*
X047709Y006528D03*
X048083Y006528D03*
X048457Y006528D03*
D36*
X053004Y014225D03*
X053989Y014225D03*
D37*
X040520Y004890D03*
X039520Y004890D03*
X038520Y004890D03*
X038520Y002890D03*
X039520Y002890D03*
X040520Y002890D03*
X020835Y002890D03*
X019835Y002890D03*
X018835Y002890D03*
X018835Y004890D03*
X019835Y004890D03*
X020835Y004890D03*
D38*
X024559Y006843D03*
X025347Y006843D03*
X026134Y006843D03*
X026922Y006843D03*
X027709Y006843D03*
X028496Y006843D03*
D39*
X029579Y007433D03*
X023477Y007433D03*
D40*
X023575Y008221D03*
X023575Y009008D03*
X023575Y009796D03*
X023575Y010583D03*
X023575Y011370D03*
X023575Y012158D03*
X023575Y012945D03*
X029481Y012945D03*
X029481Y012158D03*
X029481Y011370D03*
X029481Y010583D03*
X029481Y009796D03*
X029481Y009008D03*
X029481Y008221D03*
D41*
G36*
X038532Y006036D02*
X037532Y007036D01*
X038256Y007760D01*
X039256Y006760D01*
X038532Y006036D01*
G37*
G36*
X046689Y014193D02*
X045689Y015193D01*
X046413Y015917D01*
X047413Y014917D01*
X046689Y014193D01*
G37*
D42*
X036489Y011764D03*
X034284Y011764D03*
X034284Y010780D03*
X036489Y010780D03*
X036489Y009796D03*
X034284Y009796D03*
D43*
X001539Y001100D02*
X001180Y001196D01*
X000927Y001342D01*
X000554Y001714D01*
X000408Y001967D01*
X000312Y002326D01*
X000300Y002512D01*
X000300Y015898D01*
X000312Y016084D01*
X000408Y016443D01*
X000554Y016696D01*
X000927Y017068D01*
X001180Y017214D01*
X001539Y017311D01*
X001725Y017323D01*
X012111Y017323D01*
X012748Y016685D01*
X012748Y013930D01*
X013142Y013536D01*
X028481Y013536D01*
X026663Y011717D01*
X024720Y011717D01*
X024513Y011925D01*
X024513Y012811D01*
X024266Y013057D01*
X024266Y013184D01*
X024207Y013242D01*
X022943Y013242D01*
X022885Y013184D01*
X022885Y013095D01*
X022514Y013095D01*
X022514Y013124D01*
X022455Y013183D01*
X021939Y013183D01*
X021881Y013124D01*
X021881Y012648D01*
X021939Y012589D01*
X022455Y012589D01*
X022514Y012648D01*
X022514Y012795D01*
X022885Y012795D01*
X022885Y012707D01*
X022943Y012648D01*
X024207Y012648D01*
X024213Y012654D01*
X024213Y012449D01*
X024207Y012455D01*
X022943Y012455D01*
X022885Y012396D01*
X022885Y011920D01*
X022943Y011861D01*
X024207Y011861D01*
X024213Y011866D01*
X024213Y011800D01*
X024300Y011713D01*
X024493Y011520D01*
X024266Y011520D01*
X024266Y011609D01*
X024207Y011667D01*
X022943Y011667D01*
X022885Y011609D01*
X022885Y011520D01*
X022514Y011520D01*
X022514Y011550D01*
X022455Y011608D01*
X021939Y011608D01*
X021881Y011550D01*
X021881Y011073D01*
X021939Y011015D01*
X022455Y011015D01*
X022514Y011073D01*
X022514Y011220D01*
X022885Y011220D01*
X022885Y011132D01*
X022943Y011074D01*
X024207Y011074D01*
X024266Y011132D01*
X024266Y011220D01*
X026885Y011220D01*
X028790Y013125D01*
X028790Y012707D01*
X028849Y012648D01*
X030113Y012648D01*
X030171Y012707D01*
X030171Y012795D01*
X030206Y012795D01*
X030610Y012391D01*
X030647Y012355D01*
X030610Y012318D01*
X030600Y012308D01*
X030171Y012308D01*
X030171Y012396D01*
X030113Y012455D01*
X028849Y012455D01*
X028790Y012396D01*
X028790Y011920D01*
X028849Y011861D01*
X030113Y011861D01*
X030171Y011920D01*
X030171Y012008D01*
X030724Y012008D01*
X030822Y012106D01*
X033257Y012106D01*
X033366Y011997D01*
X033366Y010915D01*
X033563Y010718D01*
X033651Y010630D01*
X033800Y010630D01*
X033800Y010536D01*
X033454Y010536D01*
X032863Y009946D01*
X030171Y009946D01*
X030171Y010034D01*
X030113Y010093D01*
X028849Y010093D01*
X028790Y010034D01*
X028790Y009946D01*
X024720Y009946D01*
X024326Y010339D01*
X024260Y010339D01*
X024266Y010345D01*
X024266Y010821D01*
X024207Y010880D01*
X022943Y010880D01*
X022885Y010821D01*
X022885Y010345D01*
X022890Y010339D01*
X022824Y010339D01*
X022736Y010252D01*
X022736Y010252D01*
X022514Y010029D01*
X022514Y010073D01*
X022455Y010132D01*
X021939Y010132D01*
X021881Y010073D01*
X021881Y009985D01*
X021728Y009985D01*
X021560Y010153D01*
X021560Y010713D01*
X021781Y010492D01*
X021881Y010492D01*
X021560Y010492D01*
X021560Y010590D02*
X021682Y010590D01*
X021584Y010689D02*
X021560Y010689D01*
X021705Y010780D02*
X021705Y012217D01*
X017433Y012217D01*
X017079Y011863D01*
X017079Y011370D01*
X017473Y010977D01*
X020918Y010977D01*
X021115Y010780D01*
X021115Y009993D01*
X021941Y009166D01*
X022197Y009166D01*
X022197Y008910D01*
X022493Y008615D01*
X022493Y007374D01*
X022552Y007433D01*
X022789Y007273D02*
X022885Y007273D01*
X022885Y007195D01*
X022943Y007137D01*
X024010Y007137D01*
X024069Y007195D01*
X024069Y007273D01*
X024232Y007273D01*
X024724Y007766D01*
X024818Y007859D01*
X024818Y008844D01*
X025216Y009242D01*
X028790Y009242D01*
X028790Y008770D01*
X028849Y008711D01*
X030113Y008711D01*
X030171Y008770D01*
X030171Y009242D01*
X032893Y009242D01*
X032987Y009336D01*
X033681Y010029D01*
X033800Y010029D01*
X033800Y009538D01*
X033807Y009531D01*
X033760Y009484D01*
X033760Y005626D01*
X033356Y005221D01*
X030304Y005221D01*
X030009Y004926D01*
X029921Y004838D01*
X029921Y002968D01*
X029857Y002903D01*
X029763Y002942D01*
X029592Y002942D01*
X029434Y002877D01*
X029313Y002756D01*
X029248Y002598D01*
X029248Y002427D01*
X029313Y002269D01*
X029434Y002148D01*
X029592Y002082D01*
X029763Y002082D01*
X029921Y002148D01*
X030042Y002269D01*
X030108Y002427D01*
X030108Y002598D01*
X030069Y002691D01*
X030170Y002792D01*
X030282Y002680D01*
X030248Y002598D01*
X030248Y002427D01*
X030313Y002269D01*
X030434Y002148D01*
X030592Y002082D01*
X030763Y002082D01*
X030921Y002148D01*
X031042Y002269D01*
X031108Y002427D01*
X031108Y002598D01*
X031042Y002756D01*
X030921Y002877D01*
X030763Y002942D01*
X030592Y002942D01*
X030487Y002899D01*
X030418Y002968D01*
X030418Y004615D01*
X030527Y004724D01*
X033578Y004724D01*
X033666Y004812D01*
X034169Y005315D01*
X034257Y005403D01*
X034257Y009143D01*
X034366Y009252D01*
X036039Y009252D01*
X036127Y009340D01*
X036266Y009479D01*
X036914Y009479D01*
X036972Y009538D01*
X036972Y010029D01*
X037126Y010029D01*
X037219Y010123D01*
X038012Y010915D01*
X038085Y010915D01*
X038148Y010852D01*
X038333Y010852D01*
X038464Y010983D01*
X038464Y011168D01*
X038411Y011220D01*
X045596Y011220D01*
X045596Y011180D01*
X045727Y011049D01*
X045778Y011049D01*
X040836Y006107D01*
X038817Y006107D01*
X038966Y006256D01*
X038394Y006828D01*
X037962Y006395D01*
X038442Y005915D01*
X038476Y005896D01*
X038514Y005885D01*
X038547Y005885D01*
X038458Y005796D01*
X038458Y005796D01*
X038370Y005708D01*
X038370Y005640D01*
X038279Y005640D01*
X038220Y005582D01*
X038220Y004199D01*
X038279Y004140D01*
X038761Y004140D01*
X038820Y004199D01*
X038820Y005582D01*
X038761Y005640D01*
X038726Y005640D01*
X038893Y005807D01*
X039453Y005807D01*
X039370Y005724D01*
X039370Y005640D01*
X039279Y005640D01*
X039220Y005582D01*
X039220Y004199D01*
X039279Y004140D01*
X039761Y004140D01*
X039820Y004199D01*
X039820Y005582D01*
X039791Y005610D01*
X040249Y005610D01*
X040220Y005582D01*
X040220Y004199D01*
X040279Y004140D01*
X040761Y004140D01*
X040820Y004199D01*
X040820Y005429D01*
X041044Y005429D01*
X041033Y005418D01*
X040945Y005330D01*
X040945Y004248D01*
X040737Y004040D01*
X039655Y004040D01*
X039458Y003843D01*
X039370Y003755D01*
X039370Y003640D01*
X039279Y003640D01*
X039220Y003582D01*
X039220Y002199D01*
X039279Y002140D01*
X039761Y002140D01*
X039820Y002199D01*
X039820Y003582D01*
X039761Y003640D01*
X039679Y003640D01*
X039779Y003740D01*
X040862Y003740D01*
X040950Y003828D01*
X041245Y004123D01*
X041245Y005206D01*
X042028Y005989D01*
X042028Y005926D01*
X041955Y005853D01*
X041955Y005668D01*
X042085Y005537D01*
X042270Y005537D01*
X042401Y005668D01*
X042401Y005853D01*
X042328Y005926D01*
X042328Y005993D01*
X046767Y010433D01*
X047322Y010433D01*
X047270Y010380D01*
X047270Y010195D01*
X047400Y010065D01*
X047585Y010065D01*
X047716Y010195D01*
X047716Y010236D01*
X048834Y010236D01*
X048922Y010324D01*
X049720Y011122D01*
X050109Y011122D01*
X050109Y010853D01*
X050089Y010833D01*
X050069Y010798D01*
X050059Y010760D01*
X050059Y010682D01*
X050445Y010682D01*
X050445Y010681D01*
X050059Y010681D01*
X050059Y010603D01*
X050069Y010565D01*
X050089Y010530D01*
X050109Y010510D01*
X050109Y010384D01*
X050168Y010326D01*
X050285Y010326D01*
X050285Y010289D01*
X050030Y010289D01*
X049978Y010237D01*
X049975Y010247D01*
X049955Y010281D01*
X049927Y010309D01*
X049893Y010329D01*
X049855Y010339D01*
X049667Y010339D01*
X049667Y010041D01*
X049570Y010041D01*
X049570Y009944D01*
X049667Y009944D01*
X049667Y009646D01*
X049855Y009646D01*
X049893Y009656D01*
X049927Y009676D01*
X049955Y009704D01*
X050022Y009704D01*
X050030Y009696D02*
X050546Y009696D01*
X050604Y009754D01*
X050604Y010083D01*
X050605Y010084D01*
X050605Y010325D01*
X050679Y010325D01*
X050679Y010320D01*
X050871Y010128D01*
X050877Y010128D01*
X050877Y009650D01*
X050186Y009650D01*
X049701Y009165D01*
X049660Y009207D01*
X049105Y009207D01*
X049046Y009148D01*
X049046Y008845D01*
X049026Y008825D01*
X049006Y008791D01*
X048996Y008752D01*
X048996Y008624D01*
X049373Y008624D01*
X049373Y008606D01*
X049007Y008606D01*
X048932Y008681D01*
X048838Y008775D01*
X048813Y008775D01*
X048786Y008802D01*
X048813Y008829D01*
X048813Y009148D01*
X048754Y009207D01*
X048199Y009207D01*
X048141Y009148D01*
X048141Y009139D01*
X048100Y009139D01*
X048077Y009116D01*
X048065Y009128D01*
X047589Y009128D01*
X047530Y009069D01*
X047530Y008553D01*
X047568Y008516D01*
X047530Y008479D01*
X047530Y007963D01*
X047589Y007904D01*
X047934Y007904D01*
X047888Y007858D01*
X047859Y007888D01*
X047559Y007888D01*
X047501Y007829D01*
X047501Y007598D01*
X047457Y007554D01*
X047396Y007554D01*
X047396Y007632D01*
X047337Y007691D01*
X046861Y007691D01*
X046802Y007632D01*
X046802Y007554D01*
X046670Y007554D01*
X046532Y007417D01*
X046461Y007346D01*
X046461Y007568D01*
X046861Y007968D01*
X046861Y007963D01*
X046920Y007904D01*
X047396Y007904D01*
X047455Y007963D01*
X047455Y008479D01*
X047417Y008516D01*
X047455Y008553D01*
X047455Y009069D01*
X047396Y009128D01*
X046920Y009128D01*
X046861Y009069D01*
X046861Y008961D01*
X046840Y008961D01*
X046752Y008874D01*
X046654Y008775D01*
X046654Y008480D01*
X045965Y007791D01*
X045965Y006118D01*
X045374Y005527D01*
X045374Y002352D01*
X045591Y002135D01*
X045678Y002047D01*
X045798Y002047D01*
X045798Y001861D01*
X045857Y001802D01*
X047042Y001802D01*
X047100Y001861D01*
X047100Y002534D01*
X047042Y002593D01*
X045857Y002593D01*
X045798Y002534D01*
X045798Y002352D01*
X045674Y002476D01*
X045674Y004414D01*
X045757Y004331D01*
X047161Y004331D01*
X047259Y004429D01*
X047347Y004517D01*
X047347Y005009D01*
X047535Y005197D01*
X048475Y005197D01*
X048475Y005010D01*
X048534Y004952D01*
X049719Y004952D01*
X049778Y005010D01*
X049778Y005681D01*
X049872Y005587D01*
X049977Y005482D01*
X050421Y005482D01*
X050520Y005580D01*
X050612Y005672D01*
X050628Y005664D01*
X050671Y005679D01*
X050700Y005679D01*
X050700Y005601D01*
X050737Y005563D01*
X050700Y005526D01*
X050700Y005010D01*
X050758Y004952D01*
X051235Y004952D01*
X051293Y005010D01*
X051293Y005271D01*
X051369Y005347D01*
X051369Y005226D01*
X051309Y005166D01*
X051309Y004659D01*
X051290Y004640D01*
X051290Y003337D01*
X051349Y003278D01*
X051628Y003278D01*
X051646Y003296D01*
X051664Y003278D01*
X051943Y003278D01*
X051961Y003296D01*
X051979Y003278D01*
X052258Y003278D01*
X052276Y003296D01*
X052294Y003278D01*
X052538Y003278D01*
X052558Y003258D01*
X052592Y003239D01*
X052630Y003228D01*
X052748Y003228D01*
X052748Y003989D01*
X052748Y003989D01*
X052997Y003989D01*
X052997Y004619D01*
X052987Y004657D01*
X052967Y004691D01*
X052939Y004719D01*
X052929Y004724D01*
X052968Y004724D01*
X053066Y004823D01*
X053154Y004911D01*
X053154Y004932D01*
X053262Y004932D01*
X053300Y004969D01*
X053337Y004932D01*
X053853Y004932D01*
X053911Y004990D01*
X053911Y005376D01*
X053931Y005365D01*
X053969Y005354D01*
X054293Y005354D01*
X054293Y005671D01*
X054393Y005671D01*
X054393Y005771D01*
X054293Y005771D01*
X054293Y006087D01*
X053969Y006087D01*
X053931Y006077D01*
X053911Y006066D01*
X053911Y006136D01*
X053853Y006195D01*
X053745Y006195D01*
X053745Y006708D01*
X053351Y007102D01*
X053299Y007154D01*
X053301Y007156D01*
X053301Y007711D01*
X053243Y007770D01*
X053233Y007770D01*
X053233Y007811D01*
X052761Y008283D01*
X052761Y008449D01*
X052953Y008257D01*
X053041Y008169D01*
X054543Y008169D01*
X054838Y008465D01*
X054926Y008552D01*
X054926Y009438D01*
X055035Y009547D01*
X057076Y009547D01*
X057239Y009384D01*
X057200Y009291D01*
X057200Y009120D01*
X057266Y008962D01*
X057387Y008841D01*
X057545Y008775D01*
X057716Y008775D01*
X057874Y008841D01*
X057962Y008929D01*
X057962Y008764D01*
X057799Y008600D01*
X057716Y008635D01*
X057545Y008635D01*
X057387Y008570D01*
X057266Y008449D01*
X057200Y008291D01*
X057200Y008120D01*
X057266Y007962D01*
X057387Y007841D01*
X057545Y007775D01*
X057716Y007775D01*
X057874Y007841D01*
X057995Y007962D01*
X058060Y008120D01*
X058060Y008291D01*
X058026Y008374D01*
X058169Y008518D01*
X058169Y007956D01*
X057809Y007596D01*
X057716Y007635D01*
X057545Y007635D01*
X057387Y007570D01*
X057266Y007449D01*
X057238Y007382D01*
X057238Y007436D01*
X057180Y007494D01*
X056388Y007494D01*
X056330Y007436D01*
X056330Y007328D01*
X054797Y007328D01*
X054797Y007436D01*
X054739Y007494D01*
X053947Y007494D01*
X053889Y007436D01*
X053889Y006920D01*
X053947Y006861D01*
X054739Y006861D01*
X054797Y006920D01*
X054797Y007028D01*
X056330Y007028D01*
X056330Y006920D01*
X056388Y006861D01*
X057180Y006861D01*
X057238Y006920D01*
X057238Y007028D01*
X057238Y007028D01*
X057266Y006962D01*
X057387Y006841D01*
X057545Y006775D01*
X057716Y006775D01*
X057874Y006841D01*
X057995Y006962D01*
X058060Y007120D01*
X058060Y007291D01*
X058022Y007384D01*
X058469Y007832D01*
X058469Y009563D01*
X058381Y009650D01*
X058272Y009759D01*
X058272Y010448D01*
X058185Y010536D01*
X057908Y010813D01*
X057943Y010839D01*
X057996Y010892D01*
X058041Y010954D01*
X058075Y011021D01*
X058098Y011093D01*
X058109Y011157D01*
X057679Y011157D01*
X057679Y011254D01*
X057582Y011254D01*
X057582Y011683D01*
X057518Y011673D01*
X057446Y011650D01*
X057379Y011616D01*
X057318Y011571D01*
X057264Y011518D01*
X057220Y011457D01*
X057185Y011389D01*
X057162Y011318D01*
X057152Y011254D01*
X057582Y011254D01*
X057582Y011157D01*
X057152Y011157D01*
X057162Y011093D01*
X057185Y011021D01*
X057220Y010954D01*
X057264Y010892D01*
X057318Y010839D01*
X057353Y010813D01*
X057283Y010744D01*
X056978Y010438D01*
X054740Y010438D01*
X054498Y010679D01*
X054507Y010688D01*
X054507Y010872D01*
X054376Y011003D01*
X054191Y011003D01*
X054128Y010939D01*
X054128Y011691D01*
X054148Y011711D01*
X054168Y011746D01*
X054178Y011784D01*
X054178Y011863D01*
X054178Y011909D01*
X054222Y011909D01*
X054440Y011691D01*
X054440Y011408D01*
X054498Y011349D01*
X054975Y011349D01*
X055033Y011408D01*
X055033Y011924D01*
X054996Y011961D01*
X055033Y011998D01*
X055033Y012490D01*
X055109Y012490D01*
X055109Y011998D01*
X055146Y011961D01*
X055109Y011924D01*
X055109Y011408D01*
X055168Y011349D01*
X055644Y011349D01*
X055703Y011408D01*
X055703Y011516D01*
X055798Y011516D01*
X055798Y011467D01*
X055857Y011408D01*
X056254Y011408D01*
X056313Y011467D01*
X056313Y011865D01*
X056254Y011923D01*
X055857Y011923D01*
X055798Y011865D01*
X055798Y011816D01*
X055703Y011816D01*
X055703Y011924D01*
X055665Y011961D01*
X055703Y011998D01*
X055703Y012106D01*
X055798Y012106D01*
X055798Y012057D01*
X055857Y011999D01*
X056254Y011999D01*
X056313Y012057D01*
X056313Y012455D01*
X056278Y012490D01*
X056383Y012490D01*
X056403Y012470D01*
X056389Y012455D01*
X056389Y012057D01*
X056447Y011999D01*
X056486Y011999D01*
X056486Y011923D01*
X056447Y011923D01*
X056389Y011865D01*
X056389Y011467D01*
X056447Y011408D01*
X056845Y011408D01*
X056904Y011467D01*
X056904Y011865D01*
X056845Y011923D01*
X056806Y011923D01*
X056806Y011999D01*
X056845Y011999D01*
X056904Y012057D01*
X056904Y012455D01*
X056845Y012514D01*
X056806Y012514D01*
X056806Y012519D01*
X056609Y012716D01*
X056515Y012810D01*
X055177Y012810D01*
X055182Y012827D01*
X055182Y012995D01*
X054864Y012995D01*
X054864Y013092D01*
X055182Y013092D01*
X055182Y013260D01*
X055174Y013290D01*
X055182Y013319D01*
X055182Y013487D01*
X054864Y013487D01*
X054864Y013092D01*
X054767Y013092D01*
X054767Y013189D01*
X054767Y013487D01*
X054864Y013487D01*
X054864Y013584D01*
X055182Y013584D01*
X055182Y013752D01*
X055172Y013791D01*
X055152Y013825D01*
X055124Y013853D01*
X055090Y013872D01*
X055052Y013883D01*
X054864Y013883D01*
X054864Y013584D01*
X054767Y013584D01*
X054767Y013883D01*
X054579Y013883D01*
X054541Y013872D01*
X054507Y013853D01*
X054479Y013825D01*
X054459Y013791D01*
X054456Y013780D01*
X054404Y013833D01*
X054285Y013833D01*
X054285Y015132D01*
X054233Y015185D01*
X054243Y015187D01*
X054278Y015207D01*
X054305Y015235D01*
X054325Y015269D01*
X054335Y015307D01*
X054335Y015495D01*
X054037Y015495D01*
X054037Y015592D01*
X054335Y015592D01*
X054335Y015780D01*
X054325Y015818D01*
X054305Y015852D01*
X054278Y015880D01*
X054243Y015900D01*
X054205Y015910D01*
X054037Y015910D01*
X054037Y015592D01*
X053940Y015592D01*
X053940Y015495D01*
X053642Y015495D01*
X053642Y015307D01*
X053652Y015269D01*
X053672Y015235D01*
X053700Y015207D01*
X053734Y015187D01*
X053744Y015185D01*
X053692Y015132D01*
X053692Y013943D01*
X053631Y013883D01*
X053301Y013883D01*
X053301Y015132D01*
X053249Y015185D01*
X053259Y015187D01*
X053293Y015207D01*
X053321Y015235D01*
X053341Y015269D01*
X053351Y015307D01*
X053351Y015495D01*
X053053Y015495D01*
X053053Y015592D01*
X053351Y015592D01*
X053351Y015780D01*
X053341Y015818D01*
X053321Y015852D01*
X053293Y015880D01*
X053259Y015900D01*
X053221Y015910D01*
X053053Y015910D01*
X053053Y015592D01*
X052956Y015592D01*
X052956Y015495D01*
X052657Y015495D01*
X052657Y015307D01*
X052668Y015269D01*
X052687Y015235D01*
X052715Y015207D01*
X052750Y015187D01*
X052760Y015185D01*
X052707Y015132D01*
X052707Y013943D01*
X052564Y013800D01*
X052564Y013893D01*
X052482Y013975D01*
X052514Y014006D01*
X052514Y015034D01*
X052455Y015093D01*
X051955Y015093D01*
X051875Y015173D01*
X051883Y015168D01*
X051922Y015157D01*
X052109Y015157D01*
X052109Y015456D01*
X052206Y015456D01*
X052206Y015157D01*
X052394Y015157D01*
X052432Y015168D01*
X052467Y015187D01*
X052494Y015215D01*
X052514Y015250D01*
X052524Y015288D01*
X052524Y015456D01*
X052206Y015456D01*
X052206Y015553D01*
X052109Y015553D01*
X052109Y015851D01*
X051922Y015851D01*
X051883Y015841D01*
X051849Y015821D01*
X051821Y015793D01*
X051802Y015759D01*
X051799Y015749D01*
X051747Y015801D01*
X051231Y015801D01*
X051183Y015754D01*
X051136Y015801D01*
X050620Y015801D01*
X050568Y015749D01*
X050565Y015759D01*
X050546Y015793D01*
X050518Y015821D01*
X050483Y015841D01*
X050445Y015851D01*
X050257Y015851D01*
X050257Y015553D01*
X050161Y015553D01*
X050161Y015851D01*
X049973Y015851D01*
X049935Y015841D01*
X049900Y015821D01*
X049872Y015793D01*
X049853Y015759D01*
X049843Y015721D01*
X049843Y015553D01*
X050161Y015553D01*
X050161Y015456D01*
X050257Y015456D01*
X050257Y015157D01*
X050445Y015157D01*
X050483Y015168D01*
X050518Y015187D01*
X050546Y015215D01*
X050565Y015250D01*
X050568Y015260D01*
X050620Y015207D01*
X050625Y015207D01*
X050510Y015093D01*
X050010Y015093D01*
X049952Y015034D01*
X049952Y014006D01*
X049977Y013981D01*
X048415Y013981D01*
X048021Y013587D01*
X047933Y013500D01*
X047933Y012712D01*
X047726Y012505D01*
X038992Y012505D01*
X038587Y012909D01*
X038500Y012997D01*
X031019Y012997D01*
X030480Y013536D01*
X041489Y013536D01*
X041882Y013930D01*
X041882Y016685D01*
X042520Y017323D01*
X057630Y017323D01*
X057816Y017311D01*
X058176Y017214D01*
X058429Y017068D01*
X058801Y016696D01*
X058947Y016443D01*
X059043Y016084D01*
X059055Y015898D01*
X059055Y002512D01*
X059043Y002326D01*
X058947Y001967D01*
X058947Y001967D01*
X058801Y001714D01*
X058429Y001342D01*
X058176Y001196D01*
X057816Y001100D01*
X057630Y001087D01*
X054407Y001087D01*
X054414Y001115D01*
X054414Y001576D01*
X053920Y001576D01*
X053920Y001676D01*
X053820Y001676D01*
X053820Y001576D01*
X053327Y001576D01*
X053327Y001115D01*
X053334Y001087D01*
X050903Y001087D01*
X050910Y001115D01*
X050910Y001576D01*
X050417Y001576D01*
X050417Y001676D01*
X050910Y001676D01*
X050910Y002138D01*
X050900Y002176D01*
X050880Y002211D01*
X050852Y002239D01*
X050818Y002258D01*
X050780Y002269D01*
X050417Y002269D01*
X050417Y001676D01*
X050317Y001676D01*
X050317Y001576D01*
X049823Y001576D01*
X049823Y001115D01*
X049830Y001087D01*
X019638Y001087D01*
X019638Y002090D01*
X019785Y002090D01*
X019785Y002840D01*
X019885Y002840D01*
X019885Y002090D01*
X020055Y002090D01*
X020093Y002100D01*
X020127Y002120D01*
X020155Y002148D01*
X020175Y002182D01*
X020185Y002220D01*
X020185Y002840D01*
X019885Y002840D01*
X019885Y002940D01*
X020185Y002940D01*
X020185Y003560D01*
X020175Y003598D01*
X020155Y003632D01*
X020127Y003660D01*
X020093Y003680D01*
X020055Y003690D01*
X019885Y003690D01*
X019885Y002940D01*
X019785Y002940D01*
X019785Y003690D01*
X019638Y003690D01*
X019638Y004090D01*
X019785Y004090D01*
X019785Y004840D01*
X019885Y004840D01*
X019885Y004090D01*
X020055Y004090D01*
X020093Y004100D01*
X020127Y004120D01*
X020155Y004148D01*
X020175Y004182D01*
X020185Y004220D01*
X020185Y004840D01*
X019885Y004840D01*
X019885Y004940D01*
X020185Y004940D01*
X020185Y005560D01*
X020175Y005598D01*
X020155Y005632D01*
X020127Y005660D01*
X020093Y005680D01*
X020055Y005690D01*
X019885Y005690D01*
X019885Y004940D01*
X019785Y004940D01*
X019785Y005690D01*
X019638Y005690D01*
X019638Y006449D01*
X019441Y006646D01*
X016982Y006646D01*
X016982Y006963D01*
X016924Y007022D01*
X016318Y007022D01*
X016318Y007132D01*
X016187Y007263D01*
X016003Y007263D01*
X015930Y007190D01*
X015348Y007190D01*
X015348Y007298D01*
X015290Y007356D01*
X014813Y007356D01*
X014755Y007298D01*
X014755Y006782D01*
X014813Y006723D01*
X015290Y006723D01*
X015348Y006782D01*
X015348Y006890D01*
X015930Y006890D01*
X015995Y006824D01*
X015995Y006646D01*
X011567Y006646D01*
X010780Y007433D01*
X008811Y007433D01*
X008418Y007040D01*
X008418Y005071D01*
X009205Y004284D01*
X016882Y004284D01*
X017670Y003496D01*
X017670Y001087D01*
X001725Y001087D01*
X001539Y001100D01*
X001409Y001134D02*
X017670Y001134D01*
X017670Y001233D02*
X001115Y001233D01*
X000945Y001331D02*
X017670Y001331D01*
X017670Y001430D02*
X000839Y001430D01*
X000740Y001528D02*
X017670Y001528D01*
X017670Y001627D02*
X000642Y001627D01*
X000548Y001725D02*
X017670Y001725D01*
X017670Y001824D02*
X002101Y001824D01*
X002167Y001851D02*
X001880Y001732D01*
X001570Y001732D01*
X001283Y001851D01*
X001064Y002070D01*
X000945Y002357D01*
X000945Y002667D01*
X001064Y002954D01*
X001283Y003173D01*
X001570Y003292D01*
X001880Y003292D01*
X002167Y003173D01*
X002386Y002954D01*
X002505Y002667D01*
X002505Y002357D01*
X002386Y002070D01*
X002167Y001851D01*
X002238Y001922D02*
X017670Y001922D01*
X017670Y002021D02*
X002336Y002021D01*
X002406Y002119D02*
X017670Y002119D01*
X017670Y002218D02*
X012231Y002218D01*
X012207Y002193D02*
X012280Y002267D01*
X012319Y002362D01*
X012319Y002761D01*
X012280Y002856D01*
X012207Y002929D01*
X012111Y002969D01*
X012024Y002969D01*
X012024Y003489D01*
X012022Y003495D01*
X012022Y004168D01*
X011963Y004226D01*
X011250Y004226D01*
X011192Y004168D01*
X011192Y003975D01*
X010409Y003975D01*
X010272Y004112D01*
X010091Y004187D01*
X009894Y004187D01*
X009713Y004112D01*
X009574Y003973D01*
X009499Y003792D01*
X009499Y003595D01*
X009574Y003414D01*
X009713Y003275D01*
X009894Y003200D01*
X010091Y003200D01*
X010128Y003215D01*
X011192Y003215D01*
X011192Y003022D01*
X011250Y002963D01*
X011504Y002963D01*
X011504Y002362D01*
X011544Y002267D01*
X011617Y002193D01*
X011712Y002154D01*
X012111Y002154D01*
X012207Y002193D01*
X012301Y002316D02*
X017670Y002316D01*
X017670Y002415D02*
X012319Y002415D01*
X012319Y002513D02*
X017670Y002513D01*
X017670Y002612D02*
X012319Y002612D01*
X012319Y002710D02*
X017670Y002710D01*
X017670Y002809D02*
X012300Y002809D01*
X012336Y002924D02*
X012374Y002913D01*
X012659Y002913D01*
X012659Y003545D01*
X012244Y003545D01*
X012244Y003044D01*
X012254Y003005D01*
X012274Y002971D01*
X012302Y002943D01*
X012336Y002924D01*
X012229Y002907D02*
X017670Y002907D01*
X017670Y003006D02*
X016102Y003006D01*
X016089Y002993D02*
X016116Y003020D01*
X016136Y003055D01*
X016146Y003093D01*
X016146Y003427D01*
X014964Y003427D01*
X014964Y003527D01*
X014864Y003527D01*
X014864Y003991D01*
X013811Y003991D01*
X013174Y003991D01*
X013174Y004089D02*
X017077Y004089D01*
X017175Y003991D02*
X016016Y003991D01*
X014964Y003991D01*
X014964Y003527D01*
X016146Y003527D01*
X016146Y003861D01*
X016136Y003899D01*
X016116Y003933D01*
X016089Y003961D01*
X016054Y003981D01*
X016016Y003991D01*
X016138Y003892D02*
X017274Y003892D01*
X017372Y003794D02*
X016146Y003794D01*
X016146Y003695D02*
X017471Y003695D01*
X017569Y003597D02*
X016146Y003597D01*
X016146Y003400D02*
X017670Y003400D01*
X017668Y003498D02*
X014964Y003498D01*
X014964Y003427D02*
X014964Y002963D01*
X016016Y002963D01*
X016054Y002973D01*
X016089Y002993D01*
X016146Y003104D02*
X017670Y003104D01*
X017670Y003203D02*
X016146Y003203D01*
X016146Y003301D02*
X017670Y003301D01*
X016978Y004188D02*
X013162Y004188D01*
X013164Y004184D02*
X013144Y004218D01*
X013116Y004246D01*
X013082Y004266D01*
X013044Y004276D01*
X012759Y004276D01*
X012759Y003645D01*
X012659Y003645D01*
X012659Y004276D01*
X012374Y004276D01*
X012336Y004266D01*
X012302Y004246D01*
X012274Y004218D01*
X012254Y004184D01*
X012244Y004146D01*
X012244Y003645D01*
X012659Y003645D01*
X012659Y003545D01*
X012759Y003545D01*
X012759Y003645D01*
X013174Y003645D01*
X013174Y004146D01*
X013164Y004184D01*
X013174Y003892D02*
X013690Y003892D01*
X013691Y003899D02*
X013681Y003861D01*
X013681Y003527D01*
X014864Y003527D01*
X014864Y003427D01*
X014964Y003427D01*
X014964Y003400D02*
X014864Y003400D01*
X014864Y003427D02*
X014864Y002963D01*
X013811Y002963D01*
X013773Y002973D01*
X013739Y002993D01*
X013711Y003020D01*
X013691Y003055D01*
X013681Y003093D01*
X013681Y003427D01*
X014864Y003427D01*
X014864Y003498D02*
X013174Y003498D01*
X013174Y003545D02*
X012759Y003545D01*
X012759Y002913D01*
X013044Y002913D01*
X013082Y002924D01*
X013116Y002943D01*
X013144Y002971D01*
X013164Y003005D01*
X013174Y003044D01*
X013174Y003545D01*
X013174Y003400D02*
X013681Y003400D01*
X013681Y003301D02*
X013174Y003301D01*
X013174Y003203D02*
X013681Y003203D01*
X013681Y003104D02*
X013174Y003104D01*
X013164Y003006D02*
X013726Y003006D01*
X012759Y003006D02*
X012659Y003006D01*
X012659Y003104D02*
X012759Y003104D01*
X012759Y003203D02*
X012659Y003203D01*
X012659Y003301D02*
X012759Y003301D01*
X012759Y003400D02*
X012659Y003400D01*
X012659Y003498D02*
X012759Y003498D01*
X012759Y003597D02*
X013681Y003597D01*
X013681Y003695D02*
X013174Y003695D01*
X013174Y003794D02*
X013681Y003794D01*
X013691Y003899D02*
X013711Y003933D01*
X013739Y003961D01*
X013773Y003981D01*
X013811Y003991D01*
X012759Y003991D02*
X012659Y003991D01*
X012659Y004089D02*
X012759Y004089D01*
X012759Y004188D02*
X012659Y004188D01*
X012659Y003892D02*
X012759Y003892D01*
X012759Y003794D02*
X012659Y003794D01*
X012659Y003695D02*
X012759Y003695D01*
X012659Y003597D02*
X012022Y003597D01*
X012022Y003695D02*
X012244Y003695D01*
X012244Y003794D02*
X012022Y003794D01*
X012022Y003892D02*
X012244Y003892D01*
X012244Y003991D02*
X012022Y003991D01*
X012022Y004089D02*
X012244Y004089D01*
X012256Y004188D02*
X012002Y004188D01*
X011212Y004188D02*
X000300Y004188D01*
X000300Y004286D02*
X009203Y004286D01*
X009104Y004385D02*
X000300Y004385D01*
X000300Y004483D02*
X009006Y004483D01*
X008907Y004582D02*
X000300Y004582D01*
X000300Y004680D02*
X008809Y004680D01*
X008710Y004779D02*
X000300Y004779D01*
X000300Y004877D02*
X008612Y004877D01*
X008513Y004976D02*
X000300Y004976D01*
X000300Y005074D02*
X008418Y005074D01*
X008418Y005173D02*
X000300Y005173D01*
X000300Y005271D02*
X008418Y005271D01*
X008418Y005370D02*
X000300Y005370D01*
X000300Y005468D02*
X008418Y005468D01*
X008418Y005567D02*
X004283Y005567D01*
X004286Y005570D02*
X004306Y005604D01*
X004316Y005642D01*
X004316Y006202D01*
X003625Y006202D01*
X003625Y005512D01*
X004185Y005512D01*
X004224Y005522D01*
X004258Y005542D01*
X004286Y005570D01*
X004316Y005665D02*
X008418Y005665D01*
X008418Y005764D02*
X004316Y005764D01*
X004316Y005862D02*
X008418Y005862D01*
X008418Y005961D02*
X004316Y005961D01*
X004316Y006059D02*
X008418Y006059D01*
X008418Y006158D02*
X004316Y006158D01*
X004316Y006302D02*
X003625Y006302D01*
X003625Y006202D01*
X003525Y006202D01*
X003525Y005512D01*
X002965Y005512D01*
X002927Y005522D01*
X002893Y005542D01*
X002865Y005570D01*
X002845Y005604D01*
X002835Y005642D01*
X002835Y006202D01*
X003525Y006202D01*
X003525Y006302D01*
X002835Y006302D01*
X002835Y006863D01*
X002845Y006901D01*
X002865Y006935D01*
X002893Y006963D01*
X002927Y006983D01*
X002965Y006993D01*
X003525Y006993D01*
X003525Y006302D01*
X003625Y006302D01*
X003625Y006993D01*
X004185Y006993D01*
X004224Y006983D01*
X004258Y006963D01*
X004286Y006935D01*
X004306Y006901D01*
X004316Y006863D01*
X004316Y006302D01*
X004316Y006355D02*
X008418Y006355D01*
X008418Y006453D02*
X004316Y006453D01*
X004316Y006552D02*
X008418Y006552D01*
X008418Y006650D02*
X004316Y006650D01*
X004316Y006749D02*
X008418Y006749D01*
X008418Y006847D02*
X004316Y006847D01*
X004275Y006946D02*
X008418Y006946D01*
X008422Y007044D02*
X000300Y007044D01*
X000300Y006946D02*
X002876Y006946D01*
X002835Y006847D02*
X000300Y006847D01*
X000300Y006749D02*
X002835Y006749D01*
X002835Y006650D02*
X000300Y006650D01*
X000300Y006552D02*
X002835Y006552D01*
X002835Y006453D02*
X000300Y006453D01*
X000300Y006355D02*
X002835Y006355D01*
X002835Y006158D02*
X000300Y006158D01*
X000300Y006256D02*
X003525Y006256D01*
X003525Y006158D02*
X003625Y006158D01*
X003625Y006256D02*
X008418Y006256D01*
X008521Y007143D02*
X000300Y007143D01*
X000300Y007241D02*
X008619Y007241D01*
X008718Y007340D02*
X000300Y007340D01*
X000300Y007438D02*
X019280Y007438D01*
X019268Y007450D02*
X020246Y006473D01*
X020246Y002648D01*
X020203Y002605D01*
X020203Y002420D01*
X020333Y002289D01*
X020518Y002289D01*
X020535Y002306D01*
X020535Y002199D01*
X020594Y002140D01*
X021076Y002140D01*
X021135Y002199D01*
X021135Y003582D01*
X021076Y003640D01*
X020606Y003640D01*
X020606Y004093D01*
X020615Y004090D01*
X020785Y004090D01*
X020785Y004840D01*
X020885Y004840D01*
X020885Y004090D01*
X021055Y004090D01*
X021093Y004100D01*
X021127Y004120D01*
X021155Y004148D01*
X021175Y004182D01*
X021185Y004220D01*
X021185Y004840D01*
X020885Y004840D01*
X020885Y004940D01*
X021185Y004940D01*
X021185Y005560D01*
X021175Y005598D01*
X021155Y005632D01*
X021127Y005660D01*
X021093Y005680D01*
X021055Y005690D01*
X020885Y005690D01*
X020885Y004940D01*
X020785Y004940D01*
X020785Y005690D01*
X020615Y005690D01*
X020606Y005688D01*
X020606Y006622D01*
X019452Y007776D01*
X019478Y007776D01*
X020793Y006460D01*
X020793Y006357D01*
X020924Y006226D01*
X021109Y006226D01*
X021239Y006357D01*
X021239Y006542D01*
X021109Y006672D01*
X021005Y006672D01*
X019602Y008076D01*
X012515Y008076D01*
X012111Y008480D01*
X012111Y011334D01*
X012023Y011422D01*
X011433Y012013D01*
X010547Y012013D01*
X010438Y012122D01*
X010438Y012417D01*
X010350Y012505D01*
X010241Y012614D01*
X010153Y012702D01*
X009759Y012702D01*
X009563Y012898D01*
X009070Y012898D01*
X008927Y013042D01*
X008934Y013042D01*
X008992Y013101D01*
X008992Y014050D01*
X008934Y014108D01*
X008614Y014108D01*
X008556Y014050D01*
X008556Y013101D01*
X008614Y013042D01*
X008624Y013042D01*
X008624Y012921D01*
X008712Y012833D01*
X008858Y012686D01*
X008946Y012598D01*
X009438Y012598D01*
X009502Y012535D01*
X008343Y012535D01*
X008238Y012429D01*
X008094Y012286D01*
X008094Y012041D01*
X008056Y012002D01*
X008056Y011053D01*
X008094Y011015D01*
X008094Y010742D01*
X007983Y010742D01*
X007924Y010684D01*
X007924Y010168D01*
X007976Y010115D01*
X007966Y010113D01*
X007932Y010093D01*
X007904Y010065D01*
X007884Y010031D01*
X007874Y009993D01*
X007874Y009805D01*
X008172Y009805D01*
X008172Y009708D01*
X007874Y009708D01*
X007874Y009520D01*
X007884Y009482D01*
X007904Y009448D01*
X007932Y009420D01*
X007966Y009400D01*
X008004Y009390D01*
X008172Y009390D01*
X008172Y009708D01*
X008269Y009708D01*
X008269Y009390D01*
X008437Y009390D01*
X008476Y009400D01*
X008510Y009420D01*
X008516Y009426D01*
X008522Y009420D01*
X008557Y009400D01*
X008595Y009390D01*
X008763Y009390D01*
X008763Y009708D01*
X008269Y009708D01*
X008269Y009805D01*
X008465Y009805D01*
X008763Y009805D01*
X008763Y009708D01*
X008860Y009708D01*
X008860Y009805D01*
X009158Y009805D01*
X009158Y009993D01*
X009148Y010031D01*
X009128Y010065D01*
X009100Y010093D01*
X009066Y010113D01*
X009056Y010115D01*
X009108Y010168D01*
X009108Y010684D01*
X009050Y010742D01*
X008954Y010742D01*
X008954Y011015D01*
X008992Y011053D01*
X008992Y011387D01*
X009125Y011387D01*
X009125Y010817D01*
X009183Y010759D01*
X009242Y010759D01*
X009242Y010390D01*
X009343Y010289D01*
X009302Y010189D01*
X009302Y009993D01*
X009377Y009811D01*
X009516Y009672D01*
X009697Y009597D01*
X009894Y009597D01*
X010075Y009672D01*
X010214Y009811D01*
X010289Y009993D01*
X010289Y010189D01*
X010214Y010371D01*
X010075Y010509D01*
X009894Y010585D01*
X009697Y010585D01*
X009602Y010545D01*
X009602Y010759D01*
X009660Y010759D01*
X009719Y010817D01*
X009719Y011387D01*
X009873Y011387D01*
X009873Y010817D01*
X009931Y010759D01*
X010408Y010759D01*
X010467Y010817D01*
X010467Y011387D01*
X011197Y011387D01*
X011486Y011099D01*
X011486Y008245D01*
X011591Y008139D01*
X012280Y007450D01*
X019268Y007450D01*
X019379Y007340D02*
X015306Y007340D01*
X015348Y007241D02*
X015981Y007241D01*
X016209Y007241D02*
X019477Y007241D01*
X019576Y007143D02*
X016307Y007143D01*
X016318Y007044D02*
X019674Y007044D01*
X019773Y006946D02*
X016982Y006946D01*
X016982Y006847D02*
X019871Y006847D01*
X019970Y006749D02*
X016982Y006749D01*
X016982Y006650D02*
X020068Y006650D01*
X020167Y006552D02*
X019535Y006552D01*
X019634Y006453D02*
X020246Y006453D01*
X020246Y006355D02*
X019638Y006355D01*
X019638Y006256D02*
X020246Y006256D01*
X020246Y006158D02*
X019638Y006158D01*
X019638Y006059D02*
X020246Y006059D01*
X020246Y005961D02*
X019638Y005961D01*
X019638Y005862D02*
X020246Y005862D01*
X020246Y005764D02*
X019638Y005764D01*
X019785Y005665D02*
X019885Y005665D01*
X019885Y005567D02*
X019785Y005567D01*
X019785Y005468D02*
X019885Y005468D01*
X019885Y005370D02*
X019785Y005370D01*
X019785Y005271D02*
X019885Y005271D01*
X019885Y005173D02*
X019785Y005173D01*
X019785Y005074D02*
X019885Y005074D01*
X019885Y004976D02*
X019785Y004976D01*
X019885Y004877D02*
X020246Y004877D01*
X020246Y004779D02*
X020185Y004779D01*
X020185Y004680D02*
X020246Y004680D01*
X020246Y004582D02*
X020185Y004582D01*
X020185Y004483D02*
X020246Y004483D01*
X020246Y004385D02*
X020185Y004385D01*
X020185Y004286D02*
X020246Y004286D01*
X020246Y004188D02*
X020176Y004188D01*
X020246Y004089D02*
X019638Y004089D01*
X019638Y003991D02*
X020246Y003991D01*
X020246Y003892D02*
X019638Y003892D01*
X019638Y003794D02*
X020246Y003794D01*
X020246Y003695D02*
X019638Y003695D01*
X019785Y003597D02*
X019885Y003597D01*
X019885Y003498D02*
X019785Y003498D01*
X019785Y003400D02*
X019885Y003400D01*
X019885Y003301D02*
X019785Y003301D01*
X019785Y003203D02*
X019885Y003203D01*
X019885Y003104D02*
X019785Y003104D01*
X019785Y003006D02*
X019885Y003006D01*
X019885Y002907D02*
X020246Y002907D01*
X020246Y002809D02*
X020185Y002809D01*
X020185Y002710D02*
X020246Y002710D01*
X020210Y002612D02*
X020185Y002612D01*
X020185Y002513D02*
X020203Y002513D01*
X020208Y002415D02*
X020185Y002415D01*
X020185Y002316D02*
X020306Y002316D01*
X020184Y002218D02*
X020535Y002218D01*
X020126Y002119D02*
X028402Y002119D01*
X028426Y002102D02*
X028493Y002067D01*
X028565Y002044D01*
X028629Y002034D01*
X028629Y002464D01*
X028199Y002464D01*
X028209Y002400D01*
X028233Y002328D01*
X028267Y002261D01*
X028311Y002200D01*
X028365Y002146D01*
X028426Y002102D01*
X028298Y002218D02*
X021135Y002218D01*
X021135Y002316D02*
X028239Y002316D01*
X028207Y002415D02*
X021135Y002415D01*
X021135Y002513D02*
X028629Y002513D01*
X028629Y002561D02*
X028629Y002464D01*
X028726Y002464D01*
X028726Y002561D01*
X028629Y002561D01*
X028629Y002991D01*
X028565Y002980D01*
X028493Y002957D01*
X028426Y002923D01*
X028365Y002878D01*
X028311Y002825D01*
X028267Y002764D01*
X028233Y002696D01*
X028209Y002625D01*
X028199Y002561D01*
X028629Y002561D01*
X028629Y002612D02*
X028726Y002612D01*
X028726Y002561D02*
X028726Y002991D01*
X028790Y002980D01*
X028862Y002957D01*
X028929Y002923D01*
X028990Y002878D01*
X029044Y002825D01*
X029088Y002764D01*
X029122Y002696D01*
X029146Y002625D01*
X029156Y002561D01*
X028726Y002561D01*
X028726Y002513D02*
X029248Y002513D01*
X029252Y002415D02*
X029148Y002415D01*
X029146Y002400D02*
X029156Y002464D01*
X028726Y002464D01*
X028726Y002034D01*
X028790Y002044D01*
X028862Y002067D01*
X028929Y002102D01*
X028990Y002146D01*
X029044Y002200D01*
X029088Y002261D01*
X029122Y002328D01*
X029146Y002400D01*
X029117Y002316D02*
X029293Y002316D01*
X029364Y002218D02*
X029057Y002218D01*
X028954Y002119D02*
X029502Y002119D01*
X029853Y002119D02*
X030502Y002119D01*
X030364Y002218D02*
X029991Y002218D01*
X030062Y002316D02*
X030293Y002316D01*
X030252Y002415D02*
X030103Y002415D01*
X030108Y002513D02*
X030248Y002513D01*
X030253Y002612D02*
X030102Y002612D01*
X030088Y002710D02*
X030251Y002710D01*
X030268Y002906D02*
X030465Y002709D01*
X030481Y002709D01*
X030678Y002512D01*
X031108Y002513D02*
X038220Y002513D01*
X038220Y002415D02*
X031103Y002415D01*
X031062Y002316D02*
X038220Y002316D01*
X038220Y002218D02*
X030991Y002218D01*
X030853Y002119D02*
X040229Y002119D01*
X040228Y002120D02*
X040262Y002100D01*
X040300Y002090D01*
X040470Y002090D01*
X040470Y002840D01*
X040570Y002840D01*
X040570Y002090D01*
X040740Y002090D01*
X040778Y002100D01*
X040812Y002120D01*
X040840Y002148D01*
X040860Y002182D01*
X040870Y002220D01*
X040870Y002840D01*
X040570Y002840D01*
X040570Y002940D01*
X040870Y002940D01*
X040870Y003560D01*
X040860Y003598D01*
X040840Y003632D01*
X040812Y003660D01*
X040778Y003680D01*
X040740Y003690D01*
X040570Y003690D01*
X040570Y002940D01*
X040470Y002940D01*
X040470Y002840D01*
X040170Y002840D01*
X040170Y002220D01*
X040180Y002182D01*
X040200Y002148D01*
X040228Y002120D01*
X040171Y002218D02*
X039820Y002218D01*
X039820Y002316D02*
X040170Y002316D01*
X040170Y002415D02*
X039820Y002415D01*
X039820Y002513D02*
X040170Y002513D01*
X040170Y002612D02*
X039820Y002612D01*
X039820Y002710D02*
X040170Y002710D01*
X040170Y002809D02*
X039820Y002809D01*
X039820Y002907D02*
X040470Y002907D01*
X040470Y002940D02*
X040170Y002940D01*
X040170Y003560D01*
X040180Y003598D01*
X040200Y003632D01*
X040228Y003660D01*
X040262Y003680D01*
X040300Y003690D01*
X040470Y003690D01*
X040470Y002940D01*
X040470Y003006D02*
X040570Y003006D01*
X040570Y003104D02*
X040470Y003104D01*
X040470Y003203D02*
X040570Y003203D01*
X040570Y003301D02*
X040470Y003301D01*
X040470Y003400D02*
X040570Y003400D01*
X040570Y003498D02*
X040470Y003498D01*
X040470Y003597D02*
X040570Y003597D01*
X040860Y003597D02*
X045374Y003597D01*
X045374Y003695D02*
X039734Y003695D01*
X039805Y003597D02*
X040180Y003597D01*
X040170Y003498D02*
X039820Y003498D01*
X039820Y003400D02*
X040170Y003400D01*
X040170Y003301D02*
X039820Y003301D01*
X039820Y003203D02*
X040170Y003203D01*
X040170Y003104D02*
X039820Y003104D01*
X039820Y003006D02*
X040170Y003006D01*
X040470Y002809D02*
X040570Y002809D01*
X040570Y002907D02*
X045374Y002907D01*
X045374Y002809D02*
X040870Y002809D01*
X040870Y002710D02*
X045374Y002710D01*
X045374Y002612D02*
X040870Y002612D01*
X040870Y002513D02*
X045374Y002513D01*
X045374Y002415D02*
X040870Y002415D01*
X040870Y002316D02*
X045409Y002316D01*
X045508Y002218D02*
X040869Y002218D01*
X040811Y002119D02*
X045606Y002119D01*
X045741Y002197D02*
X046449Y002197D01*
X047100Y002218D02*
X049860Y002218D01*
X049853Y002211D02*
X049881Y002239D01*
X049915Y002258D01*
X049953Y002269D01*
X050317Y002269D01*
X050317Y001676D01*
X049823Y001676D01*
X049823Y002138D01*
X049833Y002176D01*
X049853Y002211D01*
X049823Y002119D02*
X047100Y002119D01*
X047100Y002021D02*
X049823Y002021D01*
X049823Y001922D02*
X048062Y001922D01*
X048040Y001945D02*
X047876Y002013D01*
X047699Y002013D01*
X047536Y001945D01*
X047410Y001820D01*
X047343Y001656D01*
X047343Y001479D01*
X047410Y001315D01*
X047536Y001190D01*
X047699Y001122D01*
X047876Y001122D01*
X048040Y001190D01*
X048165Y001315D01*
X048233Y001479D01*
X048233Y001656D01*
X048165Y001820D01*
X048040Y001945D01*
X048161Y001824D02*
X049823Y001824D01*
X049823Y001725D02*
X048204Y001725D01*
X048233Y001627D02*
X050317Y001627D01*
X050317Y001725D02*
X050417Y001725D01*
X050417Y001627D02*
X053820Y001627D01*
X053820Y001676D02*
X053327Y001676D01*
X053327Y002138D01*
X053337Y002176D01*
X053357Y002211D01*
X053385Y002239D01*
X053419Y002258D01*
X053457Y002269D01*
X053820Y002269D01*
X053820Y001676D01*
X053820Y001725D02*
X053920Y001725D01*
X053920Y001676D02*
X053920Y002269D01*
X054284Y002269D01*
X054322Y002258D01*
X054356Y002239D01*
X054384Y002211D01*
X054404Y002176D01*
X054414Y002138D01*
X054414Y001676D01*
X053920Y001676D01*
X053920Y001627D02*
X058714Y001627D01*
X058807Y001725D02*
X054414Y001725D01*
X054414Y001824D02*
X057254Y001824D01*
X057189Y001851D02*
X057475Y001732D01*
X057785Y001732D01*
X058072Y001851D01*
X058291Y002070D01*
X058410Y002357D01*
X058410Y002667D01*
X058291Y002954D01*
X058072Y003173D01*
X057785Y003292D01*
X057475Y003292D01*
X057189Y003173D01*
X056969Y002954D01*
X056850Y002667D01*
X056850Y002357D01*
X056969Y002070D01*
X057189Y001851D01*
X057117Y001922D02*
X054414Y001922D01*
X054414Y002021D02*
X057019Y002021D01*
X056949Y002119D02*
X054414Y002119D01*
X054377Y002218D02*
X056908Y002218D01*
X056867Y002316D02*
X047100Y002316D01*
X047100Y002415D02*
X056850Y002415D01*
X056850Y002513D02*
X053130Y002513D01*
X053170Y002530D02*
X053262Y002622D01*
X053312Y002742D01*
X053312Y002873D01*
X053262Y002993D01*
X053170Y003085D01*
X053050Y003135D01*
X052920Y003135D01*
X052799Y003085D01*
X052707Y002993D01*
X052657Y002873D01*
X052657Y002742D01*
X052707Y002622D01*
X052799Y002530D01*
X052920Y002480D01*
X053050Y002480D01*
X053170Y002530D01*
X053252Y002612D02*
X056850Y002612D01*
X056868Y002710D02*
X053299Y002710D01*
X053312Y002809D02*
X056909Y002809D01*
X056950Y002907D02*
X053297Y002907D01*
X053249Y003006D02*
X057021Y003006D01*
X057120Y003104D02*
X053123Y003104D01*
X052967Y003286D02*
X052987Y003320D01*
X052997Y003359D01*
X052997Y003989D01*
X052748Y003989D01*
X052748Y003989D01*
X052748Y003228D01*
X052867Y003228D01*
X052905Y003239D01*
X052939Y003258D01*
X052967Y003286D01*
X052976Y003301D02*
X053327Y003301D01*
X053327Y003280D02*
X053337Y003242D01*
X053357Y003208D01*
X053385Y003180D01*
X053419Y003160D01*
X053457Y003150D01*
X053820Y003150D01*
X053820Y003899D01*
X053327Y003899D01*
X053327Y003280D01*
X053361Y003203D02*
X050876Y003203D01*
X050880Y003208D02*
X050900Y003242D01*
X050910Y003280D01*
X050910Y003899D01*
X050417Y003899D01*
X050417Y003999D01*
X050910Y003999D01*
X050910Y004619D01*
X050900Y004657D01*
X050880Y004691D01*
X050852Y004719D01*
X050818Y004739D01*
X050780Y004749D01*
X050417Y004749D01*
X050417Y003999D01*
X050317Y003999D01*
X050317Y004749D01*
X049953Y004749D01*
X049915Y004739D01*
X049881Y004719D01*
X049853Y004691D01*
X049833Y004657D01*
X049823Y004619D01*
X049823Y003999D01*
X050317Y003999D01*
X050317Y003899D01*
X050417Y003899D01*
X050417Y003150D01*
X050780Y003150D01*
X050818Y003160D01*
X050852Y003180D01*
X050880Y003208D01*
X050910Y003301D02*
X051326Y003301D01*
X051290Y003400D02*
X050910Y003400D01*
X050910Y003498D02*
X051290Y003498D01*
X051290Y003597D02*
X050910Y003597D01*
X050910Y003695D02*
X051290Y003695D01*
X051290Y003794D02*
X050910Y003794D01*
X050910Y003892D02*
X051290Y003892D01*
X051290Y003991D02*
X050417Y003991D01*
X050417Y004089D02*
X050317Y004089D01*
X050317Y003991D02*
X048085Y003991D01*
X048040Y003946D02*
X048165Y004071D01*
X048233Y004235D01*
X048233Y004412D01*
X048165Y004575D01*
X048040Y004701D01*
X047876Y004769D01*
X047699Y004769D01*
X047536Y004701D01*
X047410Y004575D01*
X047343Y004412D01*
X047343Y004235D01*
X047410Y004071D01*
X047536Y003946D01*
X047699Y003878D01*
X047876Y003878D01*
X048040Y003946D01*
X047911Y003892D02*
X049823Y003892D01*
X049823Y003899D02*
X049823Y003280D01*
X049833Y003242D01*
X049853Y003208D01*
X049881Y003180D01*
X049915Y003160D01*
X049953Y003150D01*
X050317Y003150D01*
X050317Y003899D01*
X049823Y003899D01*
X049823Y003794D02*
X047092Y003794D01*
X047058Y003813D01*
X047020Y003824D01*
X046499Y003824D01*
X046499Y003428D01*
X047150Y003428D01*
X047150Y003693D01*
X047140Y003732D01*
X047120Y003766D01*
X047092Y003794D01*
X047150Y003695D02*
X049823Y003695D01*
X049823Y003597D02*
X047150Y003597D01*
X047150Y003498D02*
X049823Y003498D01*
X049823Y003400D02*
X046499Y003400D01*
X046499Y003428D02*
X046499Y003328D01*
X046499Y002933D01*
X047020Y002933D01*
X047058Y002943D01*
X047092Y002963D01*
X047120Y002991D01*
X047140Y003025D01*
X047150Y003063D01*
X047150Y003328D01*
X046499Y003328D01*
X046399Y003328D01*
X046399Y002933D01*
X045878Y002933D01*
X045840Y002943D01*
X045806Y002963D01*
X045778Y002991D01*
X045758Y003025D01*
X045748Y003063D01*
X045748Y003328D01*
X046399Y003328D01*
X046399Y003428D01*
X045748Y003428D01*
X045748Y003693D01*
X045758Y003732D01*
X045778Y003766D01*
X045806Y003794D01*
X045840Y003813D01*
X045878Y003824D01*
X046399Y003824D01*
X046399Y003428D01*
X046499Y003428D01*
X046499Y003498D02*
X046399Y003498D01*
X046399Y003400D02*
X045674Y003400D01*
X045674Y003498D02*
X045748Y003498D01*
X045748Y003597D02*
X045674Y003597D01*
X045674Y003695D02*
X045749Y003695D01*
X045806Y003794D02*
X045674Y003794D01*
X045674Y003892D02*
X047664Y003892D01*
X047490Y003991D02*
X045674Y003991D01*
X045674Y004089D02*
X047403Y004089D01*
X047362Y004188D02*
X045674Y004188D01*
X045674Y004286D02*
X047343Y004286D01*
X047343Y004385D02*
X047215Y004385D01*
X047314Y004483D02*
X047372Y004483D01*
X047347Y004582D02*
X047417Y004582D01*
X047347Y004680D02*
X047515Y004680D01*
X047347Y004779D02*
X051309Y004779D01*
X051309Y004877D02*
X047347Y004877D01*
X047347Y004976D02*
X048509Y004976D01*
X048475Y005074D02*
X047413Y005074D01*
X047511Y005173D02*
X048475Y005173D01*
X048475Y005497D02*
X047411Y005497D01*
X047323Y005409D01*
X047100Y005187D01*
X047100Y005290D01*
X047042Y005348D01*
X046787Y005348D01*
X046787Y006392D01*
X046810Y006369D01*
X046844Y006349D01*
X046882Y006339D01*
X047050Y006339D01*
X047050Y006657D01*
X047147Y006657D01*
X047147Y006754D01*
X047446Y006754D01*
X047446Y006941D01*
X047435Y006980D01*
X047416Y007014D01*
X047388Y007042D01*
X047354Y007061D01*
X047343Y007064D01*
X047396Y007116D01*
X047396Y007194D01*
X047606Y007194D01*
X047627Y007215D01*
X047859Y007215D01*
X047917Y007274D01*
X047917Y007435D01*
X048248Y007766D01*
X048249Y007766D01*
X048249Y007274D01*
X048277Y007246D01*
X048277Y007121D01*
X047812Y007121D01*
X047706Y007016D01*
X047529Y006839D01*
X047529Y006834D01*
X047501Y006806D01*
X047501Y006250D01*
X047559Y006192D01*
X047859Y006192D01*
X047861Y006194D01*
X047883Y006172D01*
X047917Y006152D01*
X047955Y006142D01*
X048079Y006142D01*
X048079Y006524D01*
X048087Y006524D01*
X048087Y006142D01*
X048211Y006142D01*
X048249Y006152D01*
X048283Y006172D01*
X048305Y006194D01*
X048307Y006192D01*
X048480Y006192D01*
X048599Y006072D01*
X049634Y006072D01*
X049732Y006171D01*
X049838Y006276D01*
X049838Y006389D01*
X049896Y006389D01*
X049955Y006447D01*
X049955Y006525D01*
X050410Y006525D01*
X050469Y006466D01*
X050666Y006269D01*
X050680Y006269D01*
X050680Y006211D01*
X050737Y006154D01*
X050700Y006117D01*
X050700Y006039D01*
X050685Y006039D01*
X050625Y006068D01*
X050625Y006130D01*
X050527Y006228D01*
X050421Y006334D01*
X049977Y006334D01*
X049773Y006130D01*
X049773Y005688D01*
X049719Y005742D01*
X048534Y005742D01*
X048475Y005684D01*
X048475Y005497D01*
X048475Y005567D02*
X046787Y005567D01*
X046787Y005665D02*
X048475Y005665D01*
X049126Y005347D02*
X047473Y005347D01*
X047197Y005071D01*
X047197Y004579D01*
X047099Y004481D01*
X045819Y004481D01*
X045721Y004579D01*
X045721Y005367D01*
X046311Y005957D01*
X046311Y007630D01*
X046902Y008221D01*
X047158Y008221D01*
X047455Y008226D02*
X047530Y008226D01*
X047530Y008128D02*
X047455Y008128D01*
X047455Y008029D02*
X047530Y008029D01*
X047562Y007931D02*
X047423Y007931D01*
X047504Y007832D02*
X046726Y007832D01*
X046627Y007734D02*
X047501Y007734D01*
X047501Y007635D02*
X047393Y007635D01*
X047921Y007438D02*
X048249Y007438D01*
X048249Y007340D02*
X047917Y007340D01*
X047885Y007241D02*
X048277Y007241D01*
X048277Y007143D02*
X047396Y007143D01*
X047383Y007044D02*
X047735Y007044D01*
X047636Y006946D02*
X047444Y006946D01*
X047446Y006847D02*
X047538Y006847D01*
X047501Y006749D02*
X047147Y006749D01*
X047147Y006657D02*
X047446Y006657D01*
X047446Y006469D01*
X047435Y006431D01*
X047416Y006396D01*
X047388Y006369D01*
X047354Y006349D01*
X047315Y006339D01*
X047147Y006339D01*
X047147Y006657D01*
X047147Y006650D02*
X047050Y006650D01*
X047050Y006552D02*
X047147Y006552D01*
X047147Y006453D02*
X047050Y006453D01*
X047050Y006355D02*
X047147Y006355D01*
X047364Y006355D02*
X047501Y006355D01*
X047501Y006453D02*
X047442Y006453D01*
X047446Y006552D02*
X047501Y006552D01*
X047501Y006650D02*
X047446Y006650D01*
X047501Y006256D02*
X046787Y006256D01*
X046787Y006158D02*
X047907Y006158D01*
X048079Y006158D02*
X048087Y006158D01*
X048079Y006256D02*
X048087Y006256D01*
X048079Y006355D02*
X048087Y006355D01*
X048079Y006453D02*
X048087Y006453D01*
X048260Y006158D02*
X048514Y006158D01*
X049720Y006158D02*
X049801Y006158D01*
X049818Y006256D02*
X049899Y006256D01*
X049838Y006355D02*
X050580Y006355D01*
X050499Y006256D02*
X050680Y006256D01*
X050733Y006158D02*
X050597Y006158D01*
X050643Y006059D02*
X050700Y006059D01*
X050482Y006453D02*
X049955Y006453D01*
X049955Y006885D02*
X049955Y006963D01*
X049902Y007015D01*
X049913Y007018D01*
X049947Y007038D01*
X049975Y007066D01*
X049995Y007100D01*
X050005Y007138D01*
X050005Y007326D01*
X049706Y007326D01*
X049706Y007423D01*
X049609Y007423D01*
X049609Y007326D01*
X049116Y007326D01*
X049116Y007423D01*
X049414Y007423D01*
X049609Y007423D01*
X049609Y007741D01*
X049441Y007741D01*
X049403Y007731D01*
X049369Y007711D01*
X049363Y007705D01*
X049356Y007711D01*
X049322Y007731D01*
X049284Y007741D01*
X049116Y007741D01*
X049116Y007423D01*
X049019Y007423D01*
X049019Y007741D01*
X048851Y007741D01*
X048813Y007731D01*
X048778Y007711D01*
X048750Y007683D01*
X048731Y007649D01*
X048720Y007611D01*
X048720Y007423D01*
X049019Y007423D01*
X049019Y007326D01*
X048720Y007326D01*
X048720Y007149D01*
X048637Y007232D01*
X048637Y007246D01*
X048665Y007274D01*
X048665Y007766D01*
X048838Y007766D01*
X048937Y007864D01*
X049030Y007958D01*
X049030Y008400D01*
X049046Y008384D01*
X049046Y008081D01*
X049105Y008022D01*
X049660Y008022D01*
X049719Y008081D01*
X049719Y008091D01*
X050035Y008091D01*
X050123Y008178D01*
X050300Y008356D01*
X050300Y009045D01*
X050409Y009154D01*
X050637Y009154D01*
X050630Y009126D01*
X050630Y008958D01*
X050948Y008958D01*
X050948Y008861D01*
X050630Y008861D01*
X050630Y008693D01*
X050640Y008655D01*
X050660Y008621D01*
X050674Y008606D01*
X050542Y008606D01*
X050483Y008548D01*
X050483Y008248D01*
X050485Y008246D01*
X050463Y008224D01*
X050443Y008190D01*
X050433Y008152D01*
X050433Y008028D01*
X050815Y008028D01*
X050815Y008020D01*
X050433Y008020D01*
X050433Y007896D01*
X050443Y007858D01*
X050463Y007824D01*
X050485Y007802D01*
X050483Y007800D01*
X050483Y007627D01*
X050364Y007508D01*
X050364Y006885D01*
X049955Y006885D01*
X049955Y006946D02*
X050364Y006946D01*
X050364Y007044D02*
X049953Y007044D01*
X050005Y007143D02*
X050364Y007143D01*
X050364Y007241D02*
X050005Y007241D01*
X050005Y007423D02*
X049706Y007423D01*
X049706Y007741D01*
X049874Y007741D01*
X049913Y007731D01*
X049947Y007711D01*
X049975Y007683D01*
X049995Y007649D01*
X050005Y007611D01*
X050005Y007423D01*
X050005Y007438D02*
X050364Y007438D01*
X050364Y007340D02*
X049706Y007340D01*
X049609Y007340D02*
X049116Y007340D01*
X049019Y007340D02*
X048665Y007340D01*
X048665Y007438D02*
X048720Y007438D01*
X048720Y007537D02*
X048665Y007537D01*
X048665Y007635D02*
X048727Y007635D01*
X048665Y007734D02*
X048825Y007734D01*
X048905Y007832D02*
X050458Y007832D01*
X050483Y007734D02*
X049901Y007734D01*
X049998Y007635D02*
X050483Y007635D01*
X050393Y007537D02*
X050005Y007537D01*
X049706Y007537D02*
X049609Y007537D01*
X049609Y007635D02*
X049706Y007635D01*
X049706Y007734D02*
X049609Y007734D01*
X049415Y007734D02*
X049310Y007734D01*
X049116Y007734D02*
X049019Y007734D01*
X049019Y007635D02*
X049116Y007635D01*
X049116Y007537D02*
X049019Y007537D01*
X049019Y007438D02*
X049116Y007438D01*
X048720Y007241D02*
X048637Y007241D01*
X048249Y007537D02*
X048019Y007537D01*
X048118Y007635D02*
X048249Y007635D01*
X048249Y007734D02*
X048216Y007734D01*
X049004Y007931D02*
X050433Y007931D01*
X050433Y008029D02*
X049667Y008029D01*
X049382Y008241D02*
X049973Y008241D01*
X050150Y008418D01*
X050150Y009107D01*
X050347Y009304D01*
X052119Y009304D01*
X052217Y009402D01*
X052217Y009894D01*
X052414Y009894D02*
X052414Y008221D01*
X052335Y008142D01*
X052335Y007433D01*
X052117Y007438D02*
X051492Y007438D01*
X051524Y007470D02*
X051537Y007470D01*
X051565Y007442D01*
X052117Y007442D01*
X052117Y007156D01*
X052176Y007097D01*
X052495Y007097D01*
X052522Y007125D01*
X052550Y007097D01*
X052636Y007097D01*
X052819Y006914D01*
X052718Y006914D01*
X052718Y006537D01*
X052700Y006537D01*
X052700Y006914D01*
X052571Y006914D01*
X052533Y006904D01*
X052499Y006884D01*
X052479Y006864D01*
X052176Y006864D01*
X052117Y006806D01*
X052117Y006250D01*
X052172Y006195D01*
X052156Y006195D01*
X052097Y006136D01*
X052097Y005660D01*
X052156Y005601D01*
X052672Y005601D01*
X052709Y005639D01*
X052746Y005601D01*
X053010Y005601D01*
X053086Y005526D01*
X052746Y005526D01*
X052709Y005488D01*
X052672Y005526D01*
X052156Y005526D01*
X052097Y005467D01*
X052097Y005065D01*
X051731Y004699D01*
X051669Y004699D01*
X051669Y004952D01*
X051904Y004952D01*
X051963Y005010D01*
X051963Y005526D01*
X051925Y005563D01*
X051963Y005601D01*
X051963Y006117D01*
X051957Y006122D01*
X051974Y006132D01*
X052002Y006160D01*
X052022Y006194D01*
X052032Y006233D01*
X052032Y006401D01*
X051714Y006401D01*
X051714Y006498D01*
X051617Y006498D01*
X051617Y006796D01*
X051617Y006991D01*
X051714Y006991D01*
X051714Y006498D01*
X052032Y006498D01*
X052032Y006666D01*
X052022Y006704D01*
X052002Y006738D01*
X051996Y006744D01*
X052002Y006751D01*
X052022Y006785D01*
X052032Y006823D01*
X052032Y006991D01*
X051714Y006991D01*
X051714Y007088D01*
X052032Y007088D01*
X052032Y007256D01*
X052022Y007295D01*
X052002Y007329D01*
X051974Y007357D01*
X051940Y007376D01*
X051902Y007387D01*
X051714Y007387D01*
X051714Y007088D01*
X051617Y007088D01*
X051617Y007387D01*
X051440Y007387D01*
X051524Y007470D01*
X051617Y007340D02*
X051714Y007340D01*
X051714Y007241D02*
X051617Y007241D01*
X051617Y007143D02*
X051714Y007143D01*
X051714Y007044D02*
X052689Y007044D01*
X052788Y006946D02*
X052032Y006946D01*
X052032Y006847D02*
X052159Y006847D01*
X052117Y006749D02*
X052000Y006749D01*
X052032Y006650D02*
X052117Y006650D01*
X052117Y006552D02*
X052032Y006552D01*
X052117Y006453D02*
X051714Y006453D01*
X051714Y006552D02*
X051617Y006552D01*
X051617Y006650D02*
X051714Y006650D01*
X051714Y006749D02*
X051617Y006749D01*
X051617Y006847D02*
X051714Y006847D01*
X051714Y006946D02*
X051617Y006946D01*
X052032Y007143D02*
X052130Y007143D01*
X052117Y007241D02*
X052032Y007241D01*
X051991Y007340D02*
X052117Y007340D01*
X052709Y007433D02*
X052709Y007237D01*
X052906Y007040D01*
X053201Y007040D01*
X053595Y006646D01*
X053595Y005898D01*
X053890Y006158D02*
X059055Y006158D01*
X059055Y006256D02*
X053745Y006256D01*
X053745Y006355D02*
X059055Y006355D01*
X059055Y006453D02*
X053745Y006453D01*
X053745Y006552D02*
X059055Y006552D01*
X059055Y006650D02*
X053745Y006650D01*
X053704Y006749D02*
X059055Y006749D01*
X059055Y006847D02*
X057881Y006847D01*
X057979Y006946D02*
X059055Y006946D01*
X059055Y007044D02*
X058029Y007044D01*
X058060Y007143D02*
X059055Y007143D01*
X059055Y007241D02*
X058060Y007241D01*
X058040Y007340D02*
X059055Y007340D01*
X059055Y007438D02*
X058076Y007438D01*
X058174Y007537D02*
X059055Y007537D01*
X059055Y007635D02*
X058273Y007635D01*
X058371Y007734D02*
X059055Y007734D01*
X059055Y007832D02*
X058469Y007832D01*
X058469Y007931D02*
X059055Y007931D01*
X059055Y008029D02*
X058469Y008029D01*
X058469Y008128D02*
X059055Y008128D01*
X059055Y008226D02*
X058469Y008226D01*
X058469Y008325D02*
X059055Y008325D01*
X059055Y008423D02*
X058469Y008423D01*
X058469Y008522D02*
X059055Y008522D01*
X059055Y008620D02*
X058469Y008620D01*
X058469Y008719D02*
X059055Y008719D01*
X059055Y008817D02*
X058469Y008817D01*
X058469Y008916D02*
X059055Y008916D01*
X059055Y009014D02*
X058469Y009014D01*
X058469Y009113D02*
X059055Y009113D01*
X059055Y009211D02*
X058469Y009211D01*
X058469Y009310D02*
X059055Y009310D01*
X059055Y009408D02*
X058469Y009408D01*
X058469Y009507D02*
X059055Y009507D01*
X059055Y009605D02*
X058426Y009605D01*
X058328Y009704D02*
X059055Y009704D01*
X059055Y009802D02*
X058272Y009802D01*
X058272Y009901D02*
X059055Y009901D01*
X059055Y009999D02*
X058272Y009999D01*
X058272Y010098D02*
X059055Y010098D01*
X059055Y010196D02*
X058272Y010196D01*
X058272Y010295D02*
X059055Y010295D01*
X059055Y010393D02*
X058272Y010393D01*
X058229Y010492D02*
X059055Y010492D01*
X059055Y010590D02*
X058130Y010590D01*
X058032Y010689D02*
X059055Y010689D01*
X059055Y010787D02*
X057933Y010787D01*
X057990Y010886D02*
X059055Y010886D01*
X059055Y010984D02*
X058057Y010984D01*
X058095Y011083D02*
X059055Y011083D01*
X059055Y011181D02*
X057679Y011181D01*
X057679Y011254D02*
X058109Y011254D01*
X058098Y011318D01*
X058075Y011389D01*
X058041Y011457D01*
X057996Y011518D01*
X057943Y011571D01*
X057882Y011616D01*
X057815Y011650D01*
X057743Y011673D01*
X057679Y011683D01*
X057679Y011254D01*
X057679Y011280D02*
X057582Y011280D01*
X057582Y011378D02*
X057679Y011378D01*
X057679Y011477D02*
X057582Y011477D01*
X057582Y011575D02*
X057679Y011575D01*
X057679Y011674D02*
X057582Y011674D01*
X057522Y011674D02*
X056904Y011674D01*
X056904Y011772D02*
X059055Y011772D01*
X059055Y011674D02*
X057739Y011674D01*
X057937Y011575D02*
X059055Y011575D01*
X059055Y011477D02*
X058026Y011477D01*
X058079Y011378D02*
X059055Y011378D01*
X059055Y011280D02*
X058104Y011280D01*
X057582Y011181D02*
X054128Y011181D01*
X054128Y011083D02*
X057165Y011083D01*
X057204Y010984D02*
X054395Y010984D01*
X054493Y010886D02*
X057271Y010886D01*
X057327Y010787D02*
X054507Y010787D01*
X054507Y010689D02*
X057229Y010689D01*
X057130Y010590D02*
X054587Y010590D01*
X054686Y010492D02*
X057032Y010492D01*
X057040Y010288D02*
X057433Y010681D01*
X057827Y010681D01*
X058122Y010386D01*
X058122Y009697D01*
X058319Y009500D01*
X058319Y007894D01*
X057630Y007205D01*
X057603Y007178D01*
X056784Y007178D01*
X054343Y007178D01*
X053889Y007143D02*
X053310Y007143D01*
X053301Y007241D02*
X053889Y007241D01*
X053889Y007340D02*
X053301Y007340D01*
X053301Y007438D02*
X053891Y007438D01*
X053301Y007537D02*
X057354Y007537D01*
X057262Y007438D02*
X057235Y007438D01*
X057848Y007635D02*
X053301Y007635D01*
X053278Y007734D02*
X057947Y007734D01*
X057854Y007832D02*
X058045Y007832D01*
X057964Y007931D02*
X058144Y007931D01*
X058169Y008029D02*
X058023Y008029D01*
X058060Y008128D02*
X058169Y008128D01*
X058169Y008226D02*
X058060Y008226D01*
X058046Y008325D02*
X058169Y008325D01*
X058169Y008423D02*
X058075Y008423D01*
X057339Y008522D02*
X054895Y008522D01*
X054926Y008620D02*
X057509Y008620D01*
X057443Y008817D02*
X054926Y008817D01*
X054926Y008719D02*
X057918Y008719D01*
X057962Y008817D02*
X057818Y008817D01*
X057949Y008916D02*
X057962Y008916D01*
X057819Y008620D02*
X057751Y008620D01*
X057311Y008916D02*
X054926Y008916D01*
X054926Y009014D02*
X057244Y009014D01*
X057203Y009113D02*
X054926Y009113D01*
X054926Y009211D02*
X057200Y009211D01*
X057208Y009310D02*
X054926Y009310D01*
X054926Y009408D02*
X057215Y009408D01*
X057116Y009507D02*
X054995Y009507D01*
X054973Y009697D02*
X054776Y009500D01*
X054776Y008615D01*
X054481Y008319D01*
X053103Y008319D01*
X052807Y008615D01*
X052807Y009894D01*
X052611Y009894D02*
X052611Y008221D01*
X053083Y007748D01*
X053083Y007433D01*
X053211Y007832D02*
X057406Y007832D01*
X057296Y007931D02*
X053113Y007931D01*
X053014Y008029D02*
X057238Y008029D01*
X057200Y008128D02*
X052916Y008128D01*
X052983Y008226D02*
X052817Y008226D01*
X052761Y008325D02*
X052885Y008325D01*
X052786Y008423D02*
X052761Y008423D01*
X052957Y008677D02*
X053165Y008469D01*
X054419Y008469D01*
X054626Y008677D01*
X054626Y009563D01*
X054640Y009577D01*
X054600Y009577D01*
X054600Y009498D01*
X054542Y009440D01*
X054177Y009440D01*
X054253Y009364D01*
X054542Y009364D01*
X054600Y009306D01*
X054600Y008829D01*
X054542Y008770D01*
X054026Y008770D01*
X054020Y008776D01*
X054010Y008759D01*
X053982Y008731D01*
X053948Y008711D01*
X053910Y008701D01*
X053742Y008701D01*
X053742Y009019D01*
X053645Y009019D01*
X053645Y008701D01*
X053477Y008701D01*
X053439Y008711D01*
X053404Y008731D01*
X053376Y008759D01*
X053357Y008793D01*
X053346Y008831D01*
X053346Y009019D01*
X053645Y009019D01*
X053645Y009116D01*
X053346Y009116D01*
X053346Y009304D01*
X053357Y009342D01*
X053376Y009376D01*
X053404Y009404D01*
X053439Y009424D01*
X053449Y009426D01*
X053396Y009479D01*
X053396Y009734D01*
X053360Y009734D01*
X053360Y009616D01*
X053302Y009558D01*
X053176Y009558D01*
X053155Y009538D01*
X053121Y009518D01*
X053083Y009508D01*
X053004Y009508D01*
X053004Y009894D01*
X053004Y009894D01*
X053004Y009508D01*
X052957Y009508D01*
X052957Y008677D01*
X052957Y008719D02*
X053425Y008719D01*
X053350Y008817D02*
X052957Y008817D01*
X052957Y008916D02*
X053346Y008916D01*
X053346Y009014D02*
X052957Y009014D01*
X052957Y009113D02*
X053645Y009113D01*
X053645Y009014D02*
X053742Y009014D01*
X053742Y008916D02*
X053645Y008916D01*
X053645Y008817D02*
X053742Y008817D01*
X053742Y008719D02*
X053645Y008719D01*
X053962Y008719D02*
X054626Y008719D01*
X054626Y008817D02*
X054589Y008817D01*
X054600Y008916D02*
X054626Y008916D01*
X054626Y009014D02*
X054600Y009014D01*
X054600Y009113D02*
X054626Y009113D01*
X054626Y009211D02*
X054600Y009211D01*
X054596Y009310D02*
X054626Y009310D01*
X054626Y009408D02*
X054208Y009408D01*
X054600Y009507D02*
X054626Y009507D01*
X054973Y009697D02*
X057138Y009697D01*
X057630Y009205D01*
X057255Y008423D02*
X054797Y008423D01*
X054698Y008325D02*
X057215Y008325D01*
X057200Y008226D02*
X054600Y008226D01*
X054471Y008522D02*
X053112Y008522D01*
X053014Y008620D02*
X054570Y008620D01*
X053346Y009211D02*
X052957Y009211D01*
X052957Y009310D02*
X053348Y009310D01*
X053412Y009408D02*
X052957Y009408D01*
X052957Y009507D02*
X053396Y009507D01*
X053396Y009605D02*
X053349Y009605D01*
X053360Y009704D02*
X053396Y009704D01*
X053004Y009704D02*
X053004Y009704D01*
X053004Y009802D02*
X053004Y009802D01*
X053004Y009605D02*
X053004Y009605D01*
X052020Y009599D02*
X051922Y009500D01*
X050248Y009500D01*
X049737Y008989D01*
X049382Y008989D01*
X049046Y009014D02*
X048813Y009014D01*
X048813Y008916D02*
X049046Y008916D01*
X049022Y008817D02*
X048801Y008817D01*
X048894Y008719D02*
X048996Y008719D01*
X048992Y008620D02*
X049373Y008620D01*
X049391Y008620D02*
X050000Y008620D01*
X050000Y008522D02*
X049769Y008522D01*
X049769Y008477D02*
X049769Y008606D01*
X049391Y008606D01*
X049391Y008624D01*
X049769Y008624D01*
X049769Y008752D01*
X049758Y008791D01*
X049739Y008825D01*
X049725Y008839D01*
X049799Y008839D01*
X049887Y008926D01*
X050000Y009040D01*
X050000Y008480D01*
X049911Y008391D01*
X049725Y008391D01*
X049739Y008404D01*
X049758Y008439D01*
X049769Y008477D01*
X049750Y008423D02*
X049944Y008423D01*
X050171Y008226D02*
X050465Y008226D01*
X050483Y008325D02*
X050269Y008325D01*
X050300Y008423D02*
X050483Y008423D01*
X050483Y008522D02*
X050300Y008522D01*
X050300Y008620D02*
X050660Y008620D01*
X050630Y008719D02*
X050300Y008719D01*
X050300Y008817D02*
X050630Y008817D01*
X050630Y009014D02*
X050300Y009014D01*
X050300Y008916D02*
X050948Y008916D01*
X050630Y009113D02*
X050368Y009113D01*
X050000Y009014D02*
X049975Y009014D01*
X050000Y008916D02*
X049876Y008916D01*
X050000Y008817D02*
X049743Y008817D01*
X049769Y008719D02*
X050000Y008719D01*
X049046Y009113D02*
X048813Y009113D01*
X048477Y008989D02*
X048162Y008989D01*
X047985Y008811D01*
X047827Y008811D01*
X047530Y008817D02*
X047455Y008817D01*
X047455Y008719D02*
X047530Y008719D01*
X047530Y008620D02*
X047455Y008620D01*
X047423Y008522D02*
X047562Y008522D01*
X047530Y008423D02*
X047455Y008423D01*
X047455Y008325D02*
X047530Y008325D01*
X047827Y008221D02*
X047847Y008241D01*
X048477Y008241D01*
X049030Y008226D02*
X049046Y008226D01*
X049046Y008128D02*
X049030Y008128D01*
X049030Y008029D02*
X049098Y008029D01*
X049046Y008325D02*
X049030Y008325D01*
X050072Y008128D02*
X050433Y008128D01*
X049706Y007438D02*
X049609Y007438D01*
X046893Y007931D02*
X046824Y007931D01*
X046804Y008418D02*
X046115Y007729D01*
X046115Y006056D01*
X045524Y005465D01*
X045524Y002414D01*
X045741Y002197D01*
X045798Y002021D02*
X019638Y002021D01*
X019638Y001922D02*
X045798Y001922D01*
X045835Y001824D02*
X019638Y001824D01*
X019638Y001725D02*
X047371Y001725D01*
X047343Y001627D02*
X019638Y001627D01*
X019638Y001528D02*
X047343Y001528D01*
X047363Y001430D02*
X019638Y001430D01*
X019638Y001331D02*
X047404Y001331D01*
X047493Y001233D02*
X019638Y001233D01*
X019638Y001134D02*
X047669Y001134D01*
X047906Y001134D02*
X049823Y001134D01*
X049823Y001233D02*
X048083Y001233D01*
X048172Y001331D02*
X049823Y001331D01*
X049823Y001430D02*
X048213Y001430D01*
X048233Y001528D02*
X049823Y001528D01*
X050317Y001824D02*
X050417Y001824D01*
X050417Y001922D02*
X050317Y001922D01*
X050317Y002021D02*
X050417Y002021D01*
X050417Y002119D02*
X050317Y002119D01*
X050317Y002218D02*
X050417Y002218D01*
X050873Y002218D02*
X053364Y002218D01*
X053327Y002119D02*
X050910Y002119D01*
X050910Y002021D02*
X053327Y002021D01*
X053327Y001922D02*
X050910Y001922D01*
X050910Y001824D02*
X053327Y001824D01*
X053327Y001725D02*
X050910Y001725D01*
X050910Y001528D02*
X053327Y001528D01*
X053327Y001430D02*
X050910Y001430D01*
X050910Y001331D02*
X053327Y001331D01*
X053327Y001233D02*
X050910Y001233D01*
X050910Y001134D02*
X053327Y001134D01*
X054414Y001134D02*
X057946Y001134D01*
X058240Y001233D02*
X054414Y001233D01*
X054414Y001331D02*
X058410Y001331D01*
X058517Y001430D02*
X054414Y001430D01*
X054414Y001528D02*
X058615Y001528D01*
X058864Y001824D02*
X058007Y001824D01*
X058143Y001922D02*
X058921Y001922D01*
X058961Y002021D02*
X058242Y002021D01*
X058312Y002119D02*
X058988Y002119D01*
X059014Y002218D02*
X058353Y002218D01*
X058393Y002316D02*
X059040Y002316D01*
X059049Y002415D02*
X058410Y002415D01*
X058410Y002513D02*
X059055Y002513D01*
X059055Y002612D02*
X058410Y002612D01*
X058392Y002710D02*
X059055Y002710D01*
X059055Y002809D02*
X058352Y002809D01*
X058311Y002907D02*
X059055Y002907D01*
X059055Y003006D02*
X058240Y003006D01*
X058141Y003104D02*
X059055Y003104D01*
X059055Y003203D02*
X058001Y003203D01*
X057260Y003203D02*
X054380Y003203D01*
X054384Y003208D02*
X054404Y003242D01*
X054414Y003280D01*
X054414Y003899D01*
X053920Y003899D01*
X053920Y003150D01*
X054284Y003150D01*
X054322Y003160D01*
X054356Y003180D01*
X054384Y003208D01*
X054414Y003301D02*
X059055Y003301D01*
X059055Y003400D02*
X054414Y003400D01*
X054414Y003498D02*
X059055Y003498D01*
X059055Y003597D02*
X054414Y003597D01*
X054414Y003695D02*
X059055Y003695D01*
X059055Y003794D02*
X054414Y003794D01*
X054414Y003892D02*
X059055Y003892D01*
X059055Y003991D02*
X053920Y003991D01*
X053920Y003999D02*
X054414Y003999D01*
X054414Y004619D01*
X054404Y004657D01*
X054384Y004691D01*
X054356Y004719D01*
X054322Y004739D01*
X054284Y004749D01*
X053920Y004749D01*
X053920Y003999D01*
X053820Y003999D01*
X053820Y003899D01*
X053920Y003899D01*
X053920Y003999D01*
X053920Y004089D02*
X053820Y004089D01*
X053820Y003999D02*
X053820Y004749D01*
X053457Y004749D01*
X053419Y004739D01*
X053385Y004719D01*
X053357Y004691D01*
X053337Y004657D01*
X053327Y004619D01*
X053327Y003999D01*
X053820Y003999D01*
X053820Y003991D02*
X052997Y003991D01*
X052997Y004089D02*
X053327Y004089D01*
X053327Y004188D02*
X052997Y004188D01*
X052997Y004286D02*
X053327Y004286D01*
X053327Y004385D02*
X052997Y004385D01*
X052997Y004483D02*
X053327Y004483D01*
X053327Y004582D02*
X052997Y004582D01*
X052973Y004680D02*
X053351Y004680D01*
X053121Y004877D02*
X059055Y004877D01*
X059055Y004779D02*
X053023Y004779D01*
X052906Y004874D02*
X053004Y004973D01*
X053004Y005229D01*
X052414Y005229D02*
X052414Y005170D01*
X051804Y004559D01*
X051804Y003989D01*
X052119Y003989D02*
X052119Y004579D01*
X052414Y004874D01*
X052906Y004874D01*
X053820Y004680D02*
X053920Y004680D01*
X053920Y004582D02*
X053820Y004582D01*
X053820Y004483D02*
X053920Y004483D01*
X053920Y004385D02*
X053820Y004385D01*
X053820Y004286D02*
X053920Y004286D01*
X053920Y004188D02*
X053820Y004188D01*
X053820Y003892D02*
X053920Y003892D01*
X053920Y003794D02*
X053820Y003794D01*
X053820Y003695D02*
X053920Y003695D01*
X053920Y003597D02*
X053820Y003597D01*
X053820Y003498D02*
X053920Y003498D01*
X053920Y003400D02*
X053820Y003400D01*
X053820Y003301D02*
X053920Y003301D01*
X053920Y003203D02*
X053820Y003203D01*
X053327Y003400D02*
X052997Y003400D01*
X052997Y003498D02*
X053327Y003498D01*
X053327Y003597D02*
X052997Y003597D01*
X052997Y003695D02*
X053327Y003695D01*
X053327Y003794D02*
X052997Y003794D01*
X052997Y003892D02*
X053327Y003892D01*
X052748Y003892D02*
X052748Y003892D01*
X052748Y003794D02*
X052748Y003794D01*
X052748Y003695D02*
X052748Y003695D01*
X052748Y003597D02*
X052748Y003597D01*
X052748Y003498D02*
X052748Y003498D01*
X052748Y003400D02*
X052748Y003400D01*
X052748Y003301D02*
X052748Y003301D01*
X052847Y003104D02*
X051390Y003104D01*
X051438Y003085D02*
X051317Y003135D01*
X051187Y003135D01*
X051067Y003085D01*
X050975Y002993D01*
X050925Y002873D01*
X050925Y002742D01*
X050975Y002622D01*
X051067Y002530D01*
X051187Y002480D01*
X051317Y002480D01*
X051438Y002530D01*
X051530Y002622D01*
X051580Y002742D01*
X051580Y002873D01*
X051530Y002993D01*
X051438Y003085D01*
X051517Y003006D02*
X052720Y003006D01*
X052672Y002907D02*
X051565Y002907D01*
X051580Y002809D02*
X052657Y002809D01*
X052671Y002710D02*
X051566Y002710D01*
X051519Y002612D02*
X052718Y002612D01*
X052840Y002513D02*
X051397Y002513D01*
X051107Y002513D02*
X047100Y002513D01*
X045798Y002513D02*
X045674Y002513D01*
X045674Y002612D02*
X050985Y002612D01*
X050938Y002710D02*
X045674Y002710D01*
X045674Y002809D02*
X050925Y002809D01*
X050940Y002907D02*
X045674Y002907D01*
X045674Y003006D02*
X045769Y003006D01*
X045748Y003104D02*
X045674Y003104D01*
X045674Y003203D02*
X045748Y003203D01*
X045748Y003301D02*
X045674Y003301D01*
X045374Y003301D02*
X040870Y003301D01*
X040870Y003203D02*
X045374Y003203D01*
X045374Y003104D02*
X040870Y003104D01*
X040870Y003006D02*
X045374Y003006D01*
X045374Y003400D02*
X040870Y003400D01*
X040870Y003498D02*
X045374Y003498D01*
X045374Y003794D02*
X040915Y003794D01*
X041014Y003892D02*
X045374Y003892D01*
X045374Y003991D02*
X041112Y003991D01*
X041211Y004089D02*
X045374Y004089D01*
X045374Y004188D02*
X041245Y004188D01*
X041245Y004286D02*
X045374Y004286D01*
X045374Y004385D02*
X041245Y004385D01*
X041245Y004483D02*
X045374Y004483D01*
X045374Y004582D02*
X041245Y004582D01*
X041245Y004680D02*
X045374Y004680D01*
X045374Y004779D02*
X041245Y004779D01*
X041245Y004877D02*
X045374Y004877D01*
X045374Y004976D02*
X041245Y004976D01*
X041245Y005074D02*
X045374Y005074D01*
X045374Y005173D02*
X041245Y005173D01*
X041310Y005271D02*
X045374Y005271D01*
X045374Y005370D02*
X041409Y005370D01*
X041507Y005468D02*
X045374Y005468D01*
X045414Y005567D02*
X042300Y005567D01*
X042398Y005665D02*
X045512Y005665D01*
X045611Y005764D02*
X042401Y005764D01*
X042391Y005862D02*
X045709Y005862D01*
X045808Y005961D02*
X042328Y005961D01*
X042394Y006059D02*
X045906Y006059D01*
X045965Y006158D02*
X042492Y006158D01*
X042591Y006256D02*
X045965Y006256D01*
X045965Y006355D02*
X042689Y006355D01*
X042788Y006453D02*
X045965Y006453D01*
X045965Y006552D02*
X042886Y006552D01*
X042985Y006650D02*
X045965Y006650D01*
X045965Y006749D02*
X043083Y006749D01*
X043182Y006847D02*
X045965Y006847D01*
X045965Y006946D02*
X043280Y006946D01*
X043379Y007044D02*
X045965Y007044D01*
X045965Y007143D02*
X043477Y007143D01*
X043576Y007241D02*
X045965Y007241D01*
X045965Y007340D02*
X043674Y007340D01*
X043773Y007438D02*
X045965Y007438D01*
X045965Y007537D02*
X043871Y007537D01*
X043970Y007635D02*
X045965Y007635D01*
X045965Y007734D02*
X044068Y007734D01*
X044167Y007832D02*
X046006Y007832D01*
X046105Y007931D02*
X044265Y007931D01*
X044364Y008029D02*
X046203Y008029D01*
X046302Y008128D02*
X044462Y008128D01*
X044561Y008226D02*
X046400Y008226D01*
X046499Y008325D02*
X044659Y008325D01*
X044758Y008423D02*
X046597Y008423D01*
X046654Y008522D02*
X044856Y008522D01*
X044955Y008620D02*
X046654Y008620D01*
X046654Y008719D02*
X045053Y008719D01*
X045152Y008817D02*
X046696Y008817D01*
X046794Y008916D02*
X045250Y008916D01*
X045349Y009014D02*
X046861Y009014D01*
X046905Y009113D02*
X045447Y009113D01*
X045546Y009211D02*
X049747Y009211D01*
X049846Y009310D02*
X045644Y009310D01*
X045743Y009408D02*
X049944Y009408D01*
X050043Y009507D02*
X045841Y009507D01*
X045940Y009605D02*
X050141Y009605D01*
X050030Y009696D02*
X049978Y009748D01*
X049975Y009738D01*
X049955Y009704D01*
X049667Y009704D02*
X049570Y009704D01*
X049570Y009646D02*
X049570Y009944D01*
X049252Y009944D01*
X049252Y009776D01*
X049262Y009738D01*
X049282Y009704D01*
X046038Y009704D01*
X046137Y009802D02*
X049252Y009802D01*
X049252Y009901D02*
X046235Y009901D01*
X046334Y009999D02*
X049570Y009999D01*
X049570Y010041D02*
X049252Y010041D01*
X049252Y010209D01*
X049262Y010247D01*
X049282Y010281D01*
X049310Y010309D01*
X049344Y010329D01*
X049382Y010339D01*
X049570Y010339D01*
X049570Y010041D01*
X049570Y010098D02*
X049667Y010098D01*
X049667Y010196D02*
X049570Y010196D01*
X049570Y010295D02*
X049667Y010295D01*
X049942Y010295D02*
X050285Y010295D01*
X050109Y010393D02*
X048991Y010393D01*
X048893Y010295D02*
X049295Y010295D01*
X049252Y010196D02*
X047716Y010196D01*
X047618Y010098D02*
X049252Y010098D01*
X049570Y009901D02*
X049667Y009901D01*
X049667Y009802D02*
X049570Y009802D01*
X049570Y009646D02*
X049382Y009646D01*
X049344Y009656D01*
X049310Y009676D01*
X049282Y009704D01*
X050554Y009704D02*
X050877Y009704D01*
X050877Y009802D02*
X050604Y009802D01*
X050604Y009901D02*
X050877Y009901D01*
X050877Y009999D02*
X050604Y009999D01*
X050605Y010098D02*
X050877Y010098D01*
X050802Y010196D02*
X050605Y010196D01*
X050605Y010295D02*
X050704Y010295D01*
X050999Y010452D02*
X051004Y010448D01*
X051797Y010448D01*
X051797Y010577D01*
X051928Y010708D01*
X052112Y010708D01*
X052243Y010577D01*
X052243Y010448D01*
X053135Y010448D01*
X053238Y010551D01*
X053238Y010600D01*
X053195Y010557D01*
X053010Y010557D01*
X052880Y010688D01*
X052880Y010872D01*
X053010Y011003D01*
X053051Y011003D01*
X053051Y011407D01*
X052657Y011800D01*
X052657Y012096D01*
X051899Y012854D01*
X051823Y012854D01*
X051823Y013241D01*
X051823Y013627D01*
X051744Y013627D01*
X051706Y013617D01*
X051672Y013597D01*
X051652Y013577D01*
X051580Y013577D01*
X051580Y013696D01*
X051496Y013780D01*
X051958Y013780D01*
X052067Y013671D01*
X052067Y013577D01*
X051994Y013577D01*
X051974Y013597D01*
X051940Y013617D01*
X051902Y013627D01*
X051823Y013627D01*
X051823Y013241D01*
X051823Y013241D01*
X051823Y013241D01*
X051823Y012854D01*
X051762Y012854D01*
X051688Y012781D01*
X051594Y012687D01*
X051004Y012687D01*
X050999Y012682D01*
X050999Y010452D01*
X050999Y010492D02*
X051797Y010492D01*
X051811Y010590D02*
X050999Y010590D01*
X050999Y010689D02*
X051909Y010689D01*
X052131Y010689D02*
X052880Y010689D01*
X052880Y010787D02*
X050999Y010787D01*
X050999Y010886D02*
X052893Y010886D01*
X052992Y010984D02*
X050999Y010984D01*
X050999Y011083D02*
X053051Y011083D01*
X053051Y011181D02*
X050999Y011181D01*
X050999Y011280D02*
X053051Y011280D01*
X053051Y011378D02*
X050999Y011378D01*
X050999Y011477D02*
X052981Y011477D01*
X052883Y011575D02*
X050999Y011575D01*
X050999Y011674D02*
X052784Y011674D01*
X052686Y011772D02*
X050999Y011772D01*
X050999Y011871D02*
X052657Y011871D01*
X052657Y011969D02*
X050999Y011969D01*
X050999Y012068D02*
X052657Y012068D01*
X052587Y012166D02*
X050999Y012166D01*
X050999Y012265D02*
X052488Y012265D01*
X052390Y012363D02*
X050999Y012363D01*
X050999Y012462D02*
X052291Y012462D01*
X052193Y012560D02*
X050999Y012560D01*
X050999Y012659D02*
X052094Y012659D01*
X051996Y012757D02*
X051665Y012757D01*
X051823Y012856D02*
X051823Y012856D01*
X051823Y012954D02*
X051823Y012954D01*
X051823Y013053D02*
X051823Y013053D01*
X051823Y013151D02*
X051823Y013151D01*
X051823Y013250D02*
X051823Y013250D01*
X051823Y013348D02*
X051823Y013348D01*
X051823Y013447D02*
X051823Y013447D01*
X051823Y013545D02*
X051823Y013545D01*
X051995Y013742D02*
X051533Y013742D01*
X051580Y013644D02*
X052067Y013644D01*
X052217Y013733D02*
X052020Y013930D01*
X051430Y013930D01*
X051134Y014225D01*
X050741Y014225D01*
X050642Y014323D01*
X050642Y014422D01*
X050445Y014520D01*
X050544Y014914D01*
X050878Y015248D01*
X050878Y015504D01*
X050608Y015220D02*
X050548Y015220D01*
X050539Y015121D02*
X047350Y015121D01*
X047449Y015023D02*
X047778Y015023D01*
X047794Y015038D02*
X047731Y014975D01*
X047496Y014975D01*
X046453Y016018D01*
X046371Y016018D01*
X045588Y015236D01*
X045588Y015153D01*
X046649Y014092D01*
X046732Y014092D01*
X047295Y014655D01*
X047731Y014655D01*
X047794Y014592D01*
X047979Y014592D01*
X048109Y014723D01*
X048109Y014908D01*
X047979Y015038D01*
X047794Y015038D01*
X047994Y015023D02*
X049952Y015023D01*
X049952Y014924D02*
X048092Y014924D01*
X048109Y014826D02*
X049952Y014826D01*
X049952Y014727D02*
X048109Y014727D01*
X048015Y014629D02*
X049952Y014629D01*
X049952Y014530D02*
X047170Y014530D01*
X047072Y014432D02*
X049952Y014432D01*
X049952Y014333D02*
X046973Y014333D01*
X046875Y014235D02*
X049952Y014235D01*
X049952Y014136D02*
X046776Y014136D01*
X046605Y014136D02*
X041882Y014136D01*
X041882Y014038D02*
X049952Y014038D01*
X051134Y013634D02*
X048575Y013634D01*
X048280Y013339D01*
X048280Y012552D01*
X047886Y012158D01*
X038831Y012158D01*
X038339Y012650D01*
X030859Y012650D01*
X030170Y013339D01*
X028792Y013339D01*
X026823Y011370D01*
X023575Y011370D01*
X022256Y011370D01*
X022197Y011311D01*
X021881Y011280D02*
X021855Y011280D01*
X021855Y011378D02*
X021881Y011378D01*
X021881Y011477D02*
X021855Y011477D01*
X021855Y011575D02*
X021906Y011575D01*
X021855Y011674D02*
X024339Y011674D01*
X024266Y011575D02*
X024438Y011575D01*
X024658Y011567D02*
X024363Y011863D01*
X024363Y012748D01*
X024166Y012945D01*
X023575Y012945D01*
X022256Y012945D01*
X022197Y012886D01*
X021881Y012856D02*
X020772Y012856D01*
X020772Y012847D02*
X020772Y013033D01*
X020318Y013033D01*
X020318Y012717D01*
X020642Y012717D01*
X020680Y012727D01*
X020715Y012747D01*
X020742Y012774D01*
X020762Y012809D01*
X020772Y012847D01*
X020725Y012757D02*
X021881Y012757D01*
X021881Y012659D02*
X010196Y012659D01*
X010241Y012614D02*
X010241Y012614D01*
X010294Y012560D02*
X024213Y012560D01*
X024213Y012462D02*
X022507Y012462D01*
X022514Y012455D02*
X022455Y012514D01*
X021939Y012514D01*
X021881Y012455D01*
X021881Y012367D01*
X017371Y012367D01*
X016929Y011925D01*
X016929Y011308D01*
X017323Y010915D01*
X017323Y010915D01*
X017411Y010827D01*
X020856Y010827D01*
X020965Y010718D01*
X020965Y009930D01*
X021791Y009104D01*
X021879Y009016D01*
X021881Y009016D01*
X021881Y008927D01*
X021939Y008869D01*
X022047Y008869D01*
X022047Y008848D01*
X022343Y008552D01*
X022343Y007691D01*
X022254Y007691D01*
X022196Y007632D01*
X022196Y007116D01*
X022248Y007064D01*
X022238Y007061D01*
X022204Y007042D01*
X022176Y007014D01*
X022156Y006980D01*
X022146Y006941D01*
X022146Y006754D01*
X022444Y006754D01*
X022444Y006657D01*
X022146Y006657D01*
X022146Y006469D01*
X022156Y006431D01*
X022176Y006396D01*
X022204Y006369D01*
X022238Y006349D01*
X022276Y006339D01*
X022444Y006339D01*
X022444Y006657D01*
X022541Y006657D01*
X022541Y006754D01*
X022839Y006754D01*
X022839Y006941D01*
X022829Y006980D01*
X022809Y007014D01*
X022781Y007042D01*
X022747Y007061D01*
X022737Y007064D01*
X022789Y007116D01*
X022789Y007273D01*
X022789Y007241D02*
X022885Y007241D01*
X022937Y007143D02*
X022789Y007143D01*
X022777Y007044D02*
X024263Y007044D01*
X024263Y006946D02*
X022838Y006946D01*
X022839Y006847D02*
X024263Y006847D01*
X024263Y006749D02*
X022541Y006749D01*
X022541Y006657D02*
X022839Y006657D01*
X022839Y006469D01*
X022829Y006431D01*
X022809Y006396D01*
X022781Y006369D01*
X022747Y006349D01*
X022709Y006339D01*
X022541Y006339D01*
X022541Y006657D01*
X022541Y006650D02*
X022444Y006650D01*
X022444Y006552D02*
X022541Y006552D01*
X022541Y006453D02*
X022444Y006453D01*
X022444Y006355D02*
X022541Y006355D01*
X022758Y006355D02*
X024315Y006355D01*
X024321Y006349D02*
X024798Y006349D01*
X024856Y006408D01*
X024856Y007278D01*
X024798Y007337D01*
X024321Y007337D01*
X024263Y007278D01*
X024263Y006408D01*
X024321Y006349D01*
X024263Y006453D02*
X022835Y006453D01*
X022839Y006552D02*
X024263Y006552D01*
X024263Y006650D02*
X022839Y006650D01*
X022444Y006749D02*
X020929Y006749D01*
X020830Y006847D02*
X022146Y006847D01*
X022147Y006946D02*
X020732Y006946D01*
X020633Y007044D02*
X022208Y007044D01*
X022196Y007143D02*
X020535Y007143D01*
X020436Y007241D02*
X022196Y007241D01*
X022196Y007340D02*
X020338Y007340D01*
X020239Y007438D02*
X022196Y007438D01*
X022196Y007537D02*
X020141Y007537D01*
X020042Y007635D02*
X022199Y007635D01*
X022343Y007734D02*
X019944Y007734D01*
X019845Y007832D02*
X022343Y007832D01*
X022343Y007931D02*
X019747Y007931D01*
X019648Y008029D02*
X022343Y008029D01*
X022343Y008128D02*
X012463Y008128D01*
X012364Y008226D02*
X022343Y008226D01*
X022343Y008325D02*
X012266Y008325D01*
X012167Y008423D02*
X022343Y008423D01*
X022343Y008522D02*
X012111Y008522D01*
X012111Y008620D02*
X022275Y008620D01*
X022176Y008719D02*
X012111Y008719D01*
X012111Y008817D02*
X022078Y008817D01*
X021892Y008916D02*
X012111Y008916D01*
X012111Y009014D02*
X021881Y009014D01*
X021782Y009113D02*
X012111Y009113D01*
X012111Y009211D02*
X021684Y009211D01*
X021585Y009310D02*
X012111Y009310D01*
X012111Y009408D02*
X021487Y009408D01*
X021388Y009507D02*
X012111Y009507D01*
X012111Y009605D02*
X021290Y009605D01*
X021191Y009704D02*
X012111Y009704D01*
X012111Y009802D02*
X021093Y009802D01*
X020994Y009901D02*
X012111Y009901D01*
X012111Y009999D02*
X020965Y009999D01*
X020965Y010098D02*
X012111Y010098D01*
X012111Y010196D02*
X020965Y010196D01*
X020965Y010295D02*
X012111Y010295D01*
X012111Y010393D02*
X020965Y010393D01*
X020965Y010492D02*
X012111Y010492D01*
X012111Y010590D02*
X020965Y010590D01*
X020965Y010689D02*
X012111Y010689D01*
X012111Y010787D02*
X020895Y010787D01*
X021705Y010780D02*
X021843Y010642D01*
X022197Y010642D01*
X022514Y010689D02*
X022885Y010689D01*
X022885Y010787D02*
X022514Y010787D01*
X022514Y010880D02*
X022455Y010939D01*
X021939Y010939D01*
X021881Y010880D01*
X021881Y010816D01*
X021855Y010842D01*
X021855Y012067D01*
X021881Y012067D01*
X021881Y011979D01*
X021939Y011920D01*
X022455Y011920D01*
X022514Y011979D01*
X022514Y012455D01*
X022514Y012363D02*
X022885Y012363D01*
X022885Y012265D02*
X022514Y012265D01*
X022514Y012166D02*
X022885Y012166D01*
X022885Y012068D02*
X022514Y012068D01*
X022505Y011969D02*
X022885Y011969D01*
X022933Y011871D02*
X021855Y011871D01*
X021855Y011969D02*
X021890Y011969D01*
X021855Y011772D02*
X024241Y011772D01*
X024513Y011969D02*
X026915Y011969D01*
X026816Y011871D02*
X024566Y011871D01*
X024665Y011772D02*
X026718Y011772D01*
X026725Y011567D02*
X024658Y011567D01*
X024513Y012068D02*
X027013Y012068D01*
X027112Y012166D02*
X024513Y012166D01*
X024513Y012265D02*
X027210Y012265D01*
X027309Y012363D02*
X024513Y012363D01*
X024513Y012462D02*
X027407Y012462D01*
X027506Y012560D02*
X024513Y012560D01*
X024513Y012659D02*
X027604Y012659D01*
X027703Y012757D02*
X024513Y012757D01*
X024467Y012856D02*
X027801Y012856D01*
X027900Y012954D02*
X024369Y012954D01*
X024270Y013053D02*
X027998Y013053D01*
X028097Y013151D02*
X024266Y013151D01*
X022885Y013151D02*
X022487Y013151D01*
X021908Y013151D02*
X020772Y013151D01*
X020772Y013133D02*
X020772Y013319D01*
X020762Y013358D01*
X020742Y013392D01*
X020715Y013420D01*
X020680Y013439D01*
X020642Y013450D01*
X020318Y013450D01*
X020318Y013133D01*
X020218Y013133D01*
X020218Y013033D01*
X019764Y013033D01*
X019764Y012847D01*
X019774Y012809D01*
X019794Y012774D01*
X019822Y012747D01*
X019856Y012727D01*
X019894Y012717D01*
X020218Y012717D01*
X020218Y013033D01*
X020318Y013033D01*
X020318Y013133D01*
X020772Y013133D01*
X020772Y013250D02*
X028195Y013250D01*
X028294Y013348D02*
X020765Y013348D01*
X020652Y013447D02*
X028392Y013447D01*
X028693Y013536D02*
X026725Y011567D01*
X027043Y011378D02*
X028790Y011378D01*
X028790Y011280D02*
X026945Y011280D01*
X027142Y011477D02*
X028790Y011477D01*
X028790Y011575D02*
X027240Y011575D01*
X027339Y011674D02*
X030470Y011674D01*
X030483Y011687D02*
X030424Y011628D01*
X030424Y011520D01*
X030171Y011520D01*
X030171Y011609D01*
X030113Y011667D01*
X028849Y011667D01*
X028790Y011609D01*
X028790Y011132D01*
X028849Y011074D01*
X030113Y011074D01*
X030171Y011132D01*
X030171Y011220D01*
X030424Y011220D01*
X030424Y011113D01*
X030483Y011054D01*
X030959Y011054D01*
X031018Y011113D01*
X031018Y011628D01*
X030959Y011687D01*
X030483Y011687D01*
X030424Y011575D02*
X030171Y011575D01*
X030123Y011871D02*
X033366Y011871D01*
X033366Y011969D02*
X030171Y011969D01*
X030662Y012158D02*
X029481Y012158D01*
X028790Y012166D02*
X027831Y012166D01*
X027733Y012068D02*
X028790Y012068D01*
X028790Y011969D02*
X027634Y011969D01*
X027536Y011871D02*
X028839Y011871D01*
X028790Y012265D02*
X027930Y012265D01*
X028028Y012363D02*
X028790Y012363D01*
X028225Y012560D02*
X030441Y012560D01*
X030539Y012462D02*
X028127Y012462D01*
X028324Y012659D02*
X028838Y012659D01*
X028790Y012757D02*
X028422Y012757D01*
X028521Y012856D02*
X028790Y012856D01*
X028790Y012954D02*
X028619Y012954D01*
X028718Y013053D02*
X028790Y013053D01*
X029481Y012945D02*
X030268Y012945D01*
X030760Y012453D01*
X035583Y012453D01*
X035780Y012256D01*
X035780Y010977D01*
X035977Y010780D01*
X036489Y010780D01*
X036961Y010386D02*
X033516Y010386D01*
X032926Y009796D01*
X029481Y009796D01*
X024658Y009796D01*
X024264Y010189D01*
X022886Y010189D01*
X022532Y009835D01*
X022197Y009835D01*
X021666Y009835D01*
X021410Y010091D01*
X021410Y011469D01*
X021252Y011626D01*
X020268Y011626D01*
X017827Y011626D01*
X017072Y012068D02*
X010491Y012068D01*
X010438Y012166D02*
X017171Y012166D01*
X017269Y012265D02*
X010438Y012265D01*
X010438Y012363D02*
X017368Y012363D01*
X017453Y012717D02*
X017777Y012717D01*
X017777Y013033D01*
X017323Y013033D01*
X017323Y012847D01*
X017333Y012809D01*
X017353Y012774D01*
X017381Y012747D01*
X017415Y012727D01*
X017453Y012717D01*
X017370Y012757D02*
X009704Y012757D01*
X009605Y012856D02*
X017323Y012856D01*
X017323Y012954D02*
X009014Y012954D01*
X008944Y013053D02*
X017777Y013053D01*
X017777Y013033D02*
X017777Y013133D01*
X017323Y013133D01*
X017323Y013319D01*
X017333Y013358D01*
X017353Y013392D01*
X017381Y013420D01*
X017415Y013439D01*
X017453Y013450D01*
X017777Y013450D01*
X017777Y013133D01*
X017877Y013133D01*
X017877Y013450D01*
X018201Y013450D01*
X018239Y013439D01*
X018274Y013420D01*
X018302Y013392D01*
X018321Y013358D01*
X018331Y013319D01*
X018331Y013133D01*
X017877Y013133D01*
X017877Y013033D01*
X017877Y012717D01*
X018201Y012717D01*
X018239Y012727D01*
X018274Y012747D01*
X018302Y012774D01*
X018321Y012809D01*
X018331Y012847D01*
X018331Y013033D01*
X017877Y013033D01*
X017777Y013033D01*
X017777Y012954D02*
X017877Y012954D01*
X017877Y012856D02*
X017777Y012856D01*
X017777Y012757D02*
X017877Y012757D01*
X018285Y012757D02*
X019811Y012757D01*
X019764Y012856D02*
X018331Y012856D01*
X018331Y012954D02*
X019764Y012954D01*
X019764Y013133D02*
X020218Y013133D01*
X020218Y013450D01*
X019894Y013450D01*
X019856Y013439D01*
X019822Y013420D01*
X019794Y013392D01*
X019774Y013358D01*
X019764Y013319D01*
X019764Y013133D01*
X019764Y013151D02*
X018331Y013151D01*
X018331Y013250D02*
X019764Y013250D01*
X019772Y013348D02*
X018324Y013348D01*
X018211Y013447D02*
X019884Y013447D01*
X020218Y013447D02*
X020318Y013447D01*
X020318Y013348D02*
X020218Y013348D01*
X020218Y013250D02*
X020318Y013250D01*
X020318Y013151D02*
X020218Y013151D01*
X020218Y013053D02*
X017877Y013053D01*
X017877Y013151D02*
X017777Y013151D01*
X017777Y013250D02*
X017877Y013250D01*
X017877Y013348D02*
X017777Y013348D01*
X017777Y013447D02*
X017877Y013447D01*
X017443Y013447D02*
X008992Y013447D01*
X008992Y013545D02*
X013133Y013545D01*
X013034Y013644D02*
X008992Y013644D01*
X008992Y013742D02*
X012936Y013742D01*
X012837Y013841D02*
X008992Y013841D01*
X008992Y013939D02*
X012748Y013939D01*
X012748Y014038D02*
X008992Y014038D01*
X008556Y014038D02*
X008492Y014038D01*
X008492Y014050D02*
X008434Y014108D01*
X008114Y014108D01*
X008056Y014050D01*
X008056Y013101D01*
X008058Y013098D01*
X007998Y013038D01*
X007998Y012853D01*
X008128Y012722D01*
X008313Y012722D01*
X008444Y012853D01*
X008444Y013038D01*
X008436Y013045D01*
X008492Y013101D01*
X008492Y014050D01*
X008492Y013939D02*
X008556Y013939D01*
X008556Y013841D02*
X008492Y013841D01*
X008492Y013742D02*
X008556Y013742D01*
X008556Y013644D02*
X008492Y013644D01*
X008492Y013545D02*
X008556Y013545D01*
X008556Y013447D02*
X008492Y013447D01*
X008492Y013348D02*
X008556Y013348D01*
X008556Y013250D02*
X008492Y013250D01*
X008492Y013151D02*
X008556Y013151D01*
X008604Y013053D02*
X008444Y013053D01*
X008444Y012954D02*
X008624Y012954D01*
X008689Y012856D02*
X008444Y012856D01*
X008348Y012757D02*
X008787Y012757D01*
X008886Y012659D02*
X007341Y012659D01*
X007424Y012576D02*
X006435Y013565D01*
X006435Y013666D01*
X006433Y013668D01*
X006433Y014050D01*
X006374Y014108D01*
X006217Y014108D01*
X006217Y014459D01*
X006381Y014459D01*
X006440Y014517D01*
X006440Y015310D01*
X006381Y015369D01*
X005668Y015369D01*
X005610Y015310D01*
X005610Y014517D01*
X005668Y014459D01*
X005697Y014459D01*
X005697Y014108D01*
X005555Y014108D01*
X005497Y014050D01*
X005497Y013795D01*
X005433Y013795D01*
X005433Y014050D01*
X005374Y014108D01*
X005055Y014108D01*
X004997Y014050D01*
X004997Y013668D01*
X004995Y013666D01*
X004995Y013484D01*
X004997Y013482D01*
X004997Y013101D01*
X005055Y013042D01*
X005374Y013042D01*
X005433Y013101D01*
X005433Y013355D01*
X005497Y013355D01*
X005497Y013101D01*
X005555Y013042D01*
X005874Y013042D01*
X005933Y013101D01*
X005933Y013330D01*
X005997Y013330D01*
X005997Y013101D01*
X006055Y013042D01*
X006374Y013042D01*
X006433Y013101D01*
X006433Y013143D01*
X007124Y012452D01*
X007124Y012061D01*
X007114Y012061D01*
X007056Y012002D01*
X007056Y011053D01*
X007114Y010995D01*
X007434Y010995D01*
X007492Y011053D01*
X007492Y012002D01*
X007434Y012061D01*
X007424Y012061D01*
X007424Y012576D01*
X007424Y012560D02*
X009476Y012560D01*
X009500Y012748D02*
X009008Y012748D01*
X008774Y012983D01*
X008774Y013575D01*
X008274Y013575D02*
X008274Y012998D01*
X008221Y012945D01*
X007998Y012954D02*
X007046Y012954D01*
X007064Y013022D02*
X007098Y013002D01*
X007136Y012992D01*
X007265Y012992D01*
X007265Y013566D01*
X007283Y013566D01*
X007283Y012992D01*
X007412Y012992D01*
X007450Y013002D01*
X007484Y013022D01*
X007512Y013050D01*
X007532Y013084D01*
X007542Y013122D01*
X007542Y013566D01*
X007283Y013566D01*
X007283Y013584D01*
X007542Y013584D01*
X007542Y014028D01*
X007532Y014066D01*
X007512Y014100D01*
X007484Y014128D01*
X007450Y014148D01*
X007412Y014158D01*
X007283Y014158D01*
X007283Y013584D01*
X007265Y013584D01*
X007265Y013566D01*
X007006Y013566D01*
X007006Y013122D01*
X007016Y013084D01*
X007036Y013050D01*
X007064Y013022D01*
X007034Y013053D02*
X006947Y013053D01*
X007006Y013151D02*
X006849Y013151D01*
X006750Y013250D02*
X007006Y013250D01*
X007006Y013348D02*
X006652Y013348D01*
X006553Y013447D02*
X007006Y013447D01*
X007006Y013545D02*
X006455Y013545D01*
X006435Y013644D02*
X007006Y013644D01*
X007006Y013584D02*
X007265Y013584D01*
X007265Y014158D01*
X007136Y014158D01*
X007098Y014148D01*
X007064Y014128D01*
X007036Y014100D01*
X007016Y014066D01*
X007006Y014028D01*
X007006Y013584D01*
X007006Y013742D02*
X006433Y013742D01*
X006433Y013841D02*
X007006Y013841D01*
X007006Y013939D02*
X006433Y013939D01*
X006433Y014038D02*
X007009Y014038D01*
X007078Y014136D02*
X006217Y014136D01*
X006217Y014235D02*
X006862Y014235D01*
X006849Y014243D02*
X006883Y014223D01*
X006922Y014213D01*
X007090Y014213D01*
X007090Y014531D01*
X007187Y014531D01*
X007187Y014213D01*
X007355Y014213D01*
X007393Y014223D01*
X007427Y014243D01*
X007455Y014270D01*
X007465Y014288D01*
X007471Y014282D01*
X007624Y014282D01*
X007624Y014108D01*
X007614Y014108D01*
X007556Y014050D01*
X007556Y013101D01*
X007614Y013042D01*
X007934Y013042D01*
X007992Y013101D01*
X007992Y014050D01*
X007934Y014108D01*
X007924Y014108D01*
X007924Y014282D01*
X007987Y014282D01*
X008024Y014320D01*
X008081Y014263D01*
X008558Y014263D01*
X008616Y014321D01*
X008616Y014837D01*
X008564Y014889D01*
X008574Y014892D01*
X008608Y014912D01*
X008636Y014940D01*
X008656Y014974D01*
X008666Y015012D01*
X008666Y015200D01*
X008368Y015200D01*
X008368Y015297D01*
X008666Y015297D01*
X008666Y015485D01*
X008656Y015523D01*
X008636Y015557D01*
X008608Y015585D01*
X008574Y015605D01*
X008536Y015615D01*
X008368Y015615D01*
X008368Y015297D01*
X008271Y015297D01*
X008271Y015615D01*
X008103Y015615D01*
X008065Y015605D01*
X008030Y015585D01*
X008002Y015557D01*
X007992Y015540D01*
X007987Y015545D01*
X007471Y015545D01*
X007433Y015508D01*
X007376Y015565D01*
X006900Y015565D01*
X006841Y015506D01*
X006841Y014990D01*
X006894Y014938D01*
X006883Y014935D01*
X006849Y014916D01*
X006821Y014888D01*
X006802Y014854D01*
X006791Y014815D01*
X006791Y014628D01*
X007090Y014628D01*
X007090Y014531D01*
X006791Y014531D01*
X006791Y014343D01*
X006802Y014305D01*
X006821Y014270D01*
X006849Y014243D01*
X006794Y014333D02*
X006217Y014333D01*
X006217Y014432D02*
X006791Y014432D01*
X006791Y014530D02*
X006440Y014530D01*
X006440Y014629D02*
X006791Y014629D01*
X006791Y014727D02*
X006440Y014727D01*
X006440Y014826D02*
X006794Y014826D01*
X006864Y014924D02*
X006440Y014924D01*
X006440Y015023D02*
X006841Y015023D01*
X006841Y015121D02*
X006440Y015121D01*
X006440Y015220D02*
X006841Y015220D01*
X006841Y015318D02*
X006431Y015318D01*
X006841Y015417D02*
X005246Y015417D01*
X005240Y015419D02*
X004955Y015419D01*
X004955Y014964D01*
X004855Y014964D01*
X004855Y015419D01*
X004570Y015419D01*
X004532Y015408D01*
X004498Y015389D01*
X004470Y015361D01*
X004450Y015327D01*
X004440Y015288D01*
X004440Y014964D01*
X004855Y014964D01*
X004855Y014864D01*
X004440Y014864D01*
X004440Y014539D01*
X004450Y014501D01*
X004470Y014467D01*
X004498Y014439D01*
X004532Y014419D01*
X004570Y014409D01*
X004855Y014409D01*
X004855Y014864D01*
X004955Y014864D01*
X004955Y014964D01*
X005370Y014964D01*
X005370Y015288D01*
X005360Y015327D01*
X005340Y015361D01*
X005312Y015389D01*
X005278Y015408D01*
X005240Y015419D01*
X005362Y015318D02*
X005618Y015318D01*
X005610Y015220D02*
X005370Y015220D01*
X005370Y015121D02*
X005610Y015121D01*
X005610Y015023D02*
X005370Y015023D01*
X005370Y014864D02*
X004955Y014864D01*
X004955Y014409D01*
X005240Y014409D01*
X005278Y014419D01*
X005312Y014439D01*
X005340Y014467D01*
X005360Y014501D01*
X005370Y014539D01*
X005370Y014864D01*
X005370Y014826D02*
X005610Y014826D01*
X005610Y014924D02*
X004955Y014924D01*
X004955Y014826D02*
X004855Y014826D01*
X004855Y014924D02*
X000300Y014924D01*
X000300Y014826D02*
X004440Y014826D01*
X004440Y014727D02*
X000300Y014727D01*
X000300Y014629D02*
X004440Y014629D01*
X004442Y014530D02*
X000300Y014530D01*
X000300Y014432D02*
X004510Y014432D01*
X004855Y014432D02*
X004955Y014432D01*
X004955Y014530D02*
X004855Y014530D01*
X004855Y014629D02*
X004955Y014629D01*
X004955Y014727D02*
X004855Y014727D01*
X004855Y015023D02*
X004955Y015023D01*
X004955Y015121D02*
X004855Y015121D01*
X004855Y015220D02*
X004955Y015220D01*
X004955Y015318D02*
X004855Y015318D01*
X004855Y015417D02*
X004955Y015417D01*
X004564Y015417D02*
X002347Y015417D01*
X002386Y015456D02*
X002167Y015237D01*
X001880Y015118D01*
X001570Y015118D01*
X001283Y015237D01*
X001064Y015456D01*
X000945Y015743D01*
X000945Y016053D01*
X001064Y016340D01*
X001283Y016559D01*
X001570Y016678D01*
X001880Y016678D01*
X002167Y016559D01*
X002386Y016340D01*
X002505Y016053D01*
X002505Y015743D01*
X002386Y015456D01*
X002411Y015515D02*
X006850Y015515D01*
X007426Y015515D02*
X007441Y015515D01*
X008099Y015614D02*
X002451Y015614D01*
X002492Y015712D02*
X012748Y015712D01*
X012748Y015614D02*
X008540Y015614D01*
X008658Y015515D02*
X012748Y015515D01*
X012748Y015417D02*
X008666Y015417D01*
X008666Y015318D02*
X012748Y015318D01*
X012748Y015220D02*
X008368Y015220D01*
X008368Y015318D02*
X008271Y015318D01*
X008271Y015417D02*
X008368Y015417D01*
X008368Y015515D02*
X008271Y015515D01*
X008271Y015614D02*
X008368Y015614D01*
X008666Y015121D02*
X012748Y015121D01*
X012748Y015023D02*
X008666Y015023D01*
X008621Y014924D02*
X012748Y014924D01*
X012748Y014826D02*
X008616Y014826D01*
X008616Y014727D02*
X012748Y014727D01*
X012748Y014629D02*
X008616Y014629D01*
X008616Y014530D02*
X012748Y014530D01*
X012748Y014432D02*
X008616Y014432D01*
X008616Y014333D02*
X012748Y014333D01*
X012748Y014235D02*
X007924Y014235D01*
X007924Y014136D02*
X012748Y014136D01*
X008992Y013348D02*
X017331Y013348D01*
X017323Y013250D02*
X008992Y013250D01*
X008992Y013151D02*
X017323Y013151D01*
X020218Y012954D02*
X020318Y012954D01*
X020318Y012856D02*
X020218Y012856D01*
X020218Y012757D02*
X020318Y012757D01*
X020772Y012954D02*
X021881Y012954D01*
X021881Y013053D02*
X020318Y013053D01*
X022514Y012757D02*
X022885Y012757D01*
X022933Y012659D02*
X022514Y012659D01*
X021887Y012462D02*
X010393Y012462D01*
X010350Y012505D02*
X010350Y012505D01*
X010288Y012355D02*
X010091Y012552D01*
X009697Y012552D01*
X009500Y012748D01*
X010288Y012355D02*
X010288Y012059D01*
X010485Y011863D01*
X011370Y011863D01*
X011961Y011272D01*
X011961Y008418D01*
X012453Y007926D01*
X019540Y007926D01*
X021016Y006449D01*
X020793Y006453D02*
X020606Y006453D01*
X020606Y006355D02*
X020795Y006355D01*
X020894Y006256D02*
X020606Y006256D01*
X020606Y006158D02*
X033760Y006158D01*
X033760Y006256D02*
X021139Y006256D01*
X021237Y006355D02*
X022227Y006355D01*
X022150Y006453D02*
X021239Y006453D01*
X021229Y006552D02*
X022146Y006552D01*
X022146Y006650D02*
X021130Y006650D01*
X020701Y006552D02*
X020606Y006552D01*
X020603Y006650D02*
X020577Y006650D01*
X020504Y006749D02*
X020479Y006749D01*
X020406Y006847D02*
X020380Y006847D01*
X020307Y006946D02*
X020282Y006946D01*
X020209Y007044D02*
X020183Y007044D01*
X020110Y007143D02*
X020085Y007143D01*
X020012Y007241D02*
X019986Y007241D01*
X019913Y007340D02*
X019888Y007340D01*
X019815Y007438D02*
X019789Y007438D01*
X019716Y007537D02*
X019691Y007537D01*
X019618Y007635D02*
X019592Y007635D01*
X019519Y007734D02*
X019494Y007734D01*
X016489Y006607D02*
X016095Y007040D01*
X015052Y007040D01*
X014755Y007044D02*
X014431Y007044D01*
X014431Y007088D02*
X014729Y007088D01*
X014729Y007276D01*
X014719Y007314D01*
X014699Y007348D01*
X014671Y007376D01*
X014637Y007396D01*
X014599Y007406D01*
X014431Y007406D01*
X014431Y007088D01*
X014431Y006991D01*
X014729Y006991D01*
X014729Y006803D01*
X014719Y006765D01*
X014699Y006731D01*
X014671Y006703D01*
X014637Y006683D01*
X014599Y006673D01*
X014431Y006673D01*
X014431Y006991D01*
X014334Y006991D01*
X014334Y006673D01*
X014166Y006673D01*
X014128Y006683D01*
X014093Y006703D01*
X014065Y006731D01*
X014046Y006765D01*
X014035Y006803D01*
X014035Y006991D01*
X014334Y006991D01*
X014334Y007088D01*
X014035Y007088D01*
X014035Y007276D01*
X014046Y007314D01*
X014065Y007348D01*
X014093Y007376D01*
X014128Y007396D01*
X014166Y007406D01*
X014334Y007406D01*
X014334Y007088D01*
X014431Y007088D01*
X014431Y007143D02*
X014334Y007143D01*
X014334Y007241D02*
X014431Y007241D01*
X014431Y007340D02*
X014334Y007340D01*
X014061Y007340D02*
X010873Y007340D01*
X010972Y007241D02*
X014035Y007241D01*
X014035Y007143D02*
X011070Y007143D01*
X011169Y007044D02*
X014334Y007044D01*
X014334Y006946D02*
X014431Y006946D01*
X014431Y006847D02*
X014334Y006847D01*
X014334Y006749D02*
X014431Y006749D01*
X014709Y006749D02*
X014788Y006749D01*
X014755Y006847D02*
X014729Y006847D01*
X014729Y006946D02*
X014755Y006946D01*
X014755Y007143D02*
X014729Y007143D01*
X014729Y007241D02*
X014755Y007241D01*
X014797Y007340D02*
X014704Y007340D01*
X014035Y006946D02*
X011267Y006946D01*
X011366Y006847D02*
X014035Y006847D01*
X014055Y006749D02*
X011464Y006749D01*
X011563Y006650D02*
X015995Y006650D01*
X015995Y006749D02*
X015316Y006749D01*
X015348Y006847D02*
X015972Y006847D01*
X012194Y007537D02*
X000300Y007537D01*
X000300Y007635D02*
X012095Y007635D01*
X011997Y007734D02*
X000300Y007734D01*
X000300Y007832D02*
X011898Y007832D01*
X011800Y007931D02*
X000300Y007931D01*
X000300Y008029D02*
X011701Y008029D01*
X011603Y008128D02*
X000300Y008128D01*
X000300Y008226D02*
X011504Y008226D01*
X011486Y008325D02*
X000300Y008325D01*
X000300Y008423D02*
X011486Y008423D01*
X011486Y008522D02*
X000300Y008522D01*
X000300Y008620D02*
X011486Y008620D01*
X011486Y008719D02*
X000300Y008719D01*
X000300Y008817D02*
X011486Y008817D01*
X011486Y008916D02*
X000300Y008916D01*
X000300Y009014D02*
X011486Y009014D01*
X011486Y009113D02*
X000300Y009113D01*
X000300Y009211D02*
X011486Y009211D01*
X011486Y009310D02*
X000300Y009310D01*
X000300Y009408D02*
X007952Y009408D01*
X007878Y009507D02*
X000300Y009507D01*
X000300Y009605D02*
X007874Y009605D01*
X007874Y009704D02*
X000300Y009704D01*
X000300Y009802D02*
X008172Y009802D01*
X008269Y009802D02*
X008763Y009802D01*
X008860Y009802D02*
X009386Y009802D01*
X009340Y009901D02*
X009158Y009901D01*
X009156Y009999D02*
X009302Y009999D01*
X009302Y010098D02*
X009092Y010098D01*
X009108Y010196D02*
X009305Y010196D01*
X009337Y010295D02*
X009108Y010295D01*
X009108Y010393D02*
X009242Y010393D01*
X009242Y010492D02*
X009108Y010492D01*
X009108Y010590D02*
X009242Y010590D01*
X009242Y010689D02*
X009103Y010689D01*
X009155Y010787D02*
X008954Y010787D01*
X008954Y010886D02*
X009125Y010886D01*
X009125Y010984D02*
X008954Y010984D01*
X008992Y011083D02*
X009125Y011083D01*
X009125Y011181D02*
X008992Y011181D01*
X008992Y011280D02*
X009125Y011280D01*
X009125Y011378D02*
X008992Y011378D01*
X009719Y011378D02*
X009873Y011378D01*
X009873Y011280D02*
X009719Y011280D01*
X009719Y011181D02*
X009873Y011181D01*
X009873Y011083D02*
X009719Y011083D01*
X009719Y010984D02*
X009873Y010984D01*
X009873Y010886D02*
X009719Y010886D01*
X009689Y010787D02*
X009903Y010787D01*
X009602Y010689D02*
X011486Y010689D01*
X011486Y010787D02*
X010437Y010787D01*
X010467Y010886D02*
X011486Y010886D01*
X011486Y010984D02*
X010467Y010984D01*
X010467Y011083D02*
X011486Y011083D01*
X011403Y011181D02*
X010467Y011181D01*
X010467Y011280D02*
X011305Y011280D01*
X011206Y011378D02*
X010467Y011378D01*
X011574Y011871D02*
X016929Y011871D01*
X016929Y011772D02*
X011673Y011772D01*
X011771Y011674D02*
X016929Y011674D01*
X016929Y011575D02*
X011870Y011575D01*
X011968Y011477D02*
X016929Y011477D01*
X016929Y011378D02*
X012067Y011378D01*
X012111Y011280D02*
X016958Y011280D01*
X017056Y011181D02*
X012111Y011181D01*
X012111Y011083D02*
X017155Y011083D01*
X017253Y010984D02*
X012111Y010984D01*
X012111Y010886D02*
X017352Y010886D01*
X016974Y011969D02*
X011476Y011969D01*
X008270Y012462D02*
X007424Y012462D01*
X007424Y012363D02*
X008172Y012363D01*
X008094Y012265D02*
X007424Y012265D01*
X007424Y012166D02*
X008094Y012166D01*
X008094Y012068D02*
X007424Y012068D01*
X007492Y011969D02*
X007556Y011969D01*
X007556Y012002D02*
X007614Y012061D01*
X007934Y012061D01*
X007992Y012002D01*
X007992Y011053D01*
X007954Y011015D01*
X007954Y010849D01*
X007810Y010705D01*
X007705Y010600D01*
X006965Y010600D01*
X006860Y010705D01*
X006860Y010705D01*
X006663Y010902D01*
X006663Y011886D01*
X006375Y012175D01*
X004997Y012175D01*
X004891Y012280D01*
X004535Y012636D01*
X004535Y013063D01*
X004497Y013101D01*
X004497Y014050D01*
X004555Y014108D01*
X004874Y014108D01*
X004933Y014050D01*
X004933Y013101D01*
X004895Y013063D01*
X004895Y012786D01*
X005146Y012535D01*
X006524Y012535D01*
X006629Y012429D01*
X006629Y012429D01*
X006917Y012141D01*
X006917Y012141D01*
X007023Y012036D01*
X007023Y011051D01*
X007114Y010960D01*
X007556Y010960D01*
X007594Y010998D01*
X007594Y011015D01*
X007556Y011053D01*
X007556Y012002D01*
X007556Y011871D02*
X007492Y011871D01*
X007492Y011772D02*
X007556Y011772D01*
X007556Y011674D02*
X007492Y011674D01*
X007492Y011575D02*
X007556Y011575D01*
X007556Y011477D02*
X007492Y011477D01*
X007492Y011378D02*
X007556Y011378D01*
X007556Y011280D02*
X007492Y011280D01*
X007492Y011181D02*
X007556Y011181D01*
X007556Y011083D02*
X007492Y011083D01*
X007580Y010984D02*
X007090Y010984D01*
X007056Y011083D02*
X007023Y011083D01*
X007023Y011181D02*
X007056Y011181D01*
X007056Y011280D02*
X007023Y011280D01*
X007023Y011378D02*
X007056Y011378D01*
X007056Y011477D02*
X007023Y011477D01*
X007023Y011575D02*
X007056Y011575D01*
X007056Y011674D02*
X007023Y011674D01*
X007023Y011772D02*
X007056Y011772D01*
X007056Y011871D02*
X007023Y011871D01*
X007023Y011969D02*
X007056Y011969D01*
X006991Y012068D02*
X007124Y012068D01*
X007124Y012166D02*
X006892Y012166D01*
X006794Y012265D02*
X007124Y012265D01*
X007124Y012363D02*
X006695Y012363D01*
X006597Y012462D02*
X007114Y012462D01*
X007016Y012560D02*
X005120Y012560D01*
X005022Y012659D02*
X006917Y012659D01*
X006819Y012757D02*
X004923Y012757D01*
X004895Y012856D02*
X006720Y012856D01*
X006622Y012954D02*
X004895Y012954D01*
X004895Y013053D02*
X005045Y013053D01*
X004997Y013151D02*
X004933Y013151D01*
X004933Y013250D02*
X004997Y013250D01*
X004997Y013348D02*
X004933Y013348D01*
X004933Y013447D02*
X004997Y013447D01*
X004995Y013545D02*
X004933Y013545D01*
X004933Y013644D02*
X004995Y013644D01*
X004997Y013742D02*
X004933Y013742D01*
X004933Y013841D02*
X004997Y013841D01*
X004997Y013939D02*
X004933Y013939D01*
X004933Y014038D02*
X004997Y014038D01*
X005433Y014038D02*
X005497Y014038D01*
X005497Y013939D02*
X005433Y013939D01*
X005433Y013841D02*
X005497Y013841D01*
X006215Y013575D02*
X006215Y013573D01*
X007274Y012514D01*
X007274Y011528D01*
X006663Y011575D02*
X006435Y011575D01*
X006435Y011619D02*
X006433Y011621D01*
X006433Y012002D01*
X006374Y012061D01*
X006055Y012061D01*
X005997Y012002D01*
X005997Y011748D01*
X005933Y011748D01*
X005933Y012002D01*
X005874Y012061D01*
X005555Y012061D01*
X005497Y012002D01*
X005497Y011748D01*
X005433Y011748D01*
X005433Y012002D01*
X005374Y012061D01*
X005055Y012061D01*
X004997Y012002D01*
X004997Y011748D01*
X004933Y011748D01*
X004933Y012002D01*
X004874Y012061D01*
X004555Y012061D01*
X004497Y012002D01*
X004497Y011621D01*
X004495Y011619D01*
X004495Y011437D01*
X004497Y011435D01*
X004497Y011053D01*
X004555Y010995D01*
X004874Y010995D01*
X004933Y011053D01*
X004933Y011308D01*
X004997Y011308D01*
X004997Y011053D01*
X005055Y010995D01*
X005205Y010995D01*
X005205Y010813D01*
X005185Y010805D01*
X005046Y010666D01*
X004971Y010484D01*
X004971Y010288D01*
X005046Y010107D01*
X005185Y009968D01*
X005367Y009893D01*
X005563Y009893D01*
X005745Y009968D01*
X005883Y010107D01*
X005959Y010288D01*
X005959Y010484D01*
X005883Y010666D01*
X005745Y010805D01*
X005725Y010813D01*
X005725Y010995D01*
X005874Y010995D01*
X005933Y011053D01*
X005933Y011308D01*
X005997Y011308D01*
X005997Y011053D01*
X006055Y010995D01*
X006374Y010995D01*
X006433Y011053D01*
X006433Y011435D01*
X006435Y011437D01*
X006435Y011619D01*
X006433Y011674D02*
X006663Y011674D01*
X006663Y011772D02*
X006433Y011772D01*
X006433Y011871D02*
X006663Y011871D01*
X006580Y011969D02*
X006433Y011969D01*
X006481Y012068D02*
X000300Y012068D01*
X000300Y012166D02*
X006383Y012166D01*
X005997Y011969D02*
X005933Y011969D01*
X005933Y011871D02*
X005997Y011871D01*
X005997Y011772D02*
X005933Y011772D01*
X005497Y011772D02*
X005433Y011772D01*
X005433Y011871D02*
X005497Y011871D01*
X005497Y011969D02*
X005433Y011969D01*
X004997Y011969D02*
X004933Y011969D01*
X004933Y011871D02*
X004997Y011871D01*
X004997Y011772D02*
X004933Y011772D01*
X004497Y011772D02*
X000300Y011772D01*
X000300Y011674D02*
X004497Y011674D01*
X004495Y011575D02*
X000300Y011575D01*
X000300Y011477D02*
X004495Y011477D01*
X004497Y011378D02*
X000300Y011378D01*
X000300Y011280D02*
X004497Y011280D01*
X004497Y011181D02*
X000300Y011181D01*
X000300Y011083D02*
X004497Y011083D01*
X004933Y011083D02*
X004997Y011083D01*
X004997Y011181D02*
X004933Y011181D01*
X004933Y011280D02*
X004997Y011280D01*
X005933Y011280D02*
X005997Y011280D01*
X005997Y011181D02*
X005933Y011181D01*
X005933Y011083D02*
X005997Y011083D01*
X005725Y010984D02*
X006663Y010984D01*
X006663Y011083D02*
X006433Y011083D01*
X006433Y011181D02*
X006663Y011181D01*
X006663Y011280D02*
X006433Y011280D01*
X006433Y011378D02*
X006663Y011378D01*
X006663Y011477D02*
X006435Y011477D01*
X006679Y010886D02*
X005725Y010886D01*
X005762Y010787D02*
X006778Y010787D01*
X006876Y010689D02*
X005860Y010689D01*
X005915Y010590D02*
X007924Y010590D01*
X007924Y010492D02*
X005956Y010492D01*
X005959Y010393D02*
X007924Y010393D01*
X007924Y010295D02*
X005959Y010295D01*
X005921Y010196D02*
X007924Y010196D01*
X007941Y010098D02*
X005875Y010098D01*
X005776Y009999D02*
X007876Y009999D01*
X007874Y009901D02*
X005583Y009901D01*
X005346Y009901D02*
X003545Y009901D01*
X003508Y009882D02*
X003585Y009921D01*
X003654Y009972D01*
X003714Y010032D01*
X003765Y010101D01*
X003803Y010178D01*
X003830Y010259D01*
X003842Y010336D01*
X003350Y010336D01*
X003350Y010436D01*
X003842Y010436D01*
X003830Y010514D01*
X003803Y010595D01*
X003765Y010671D01*
X003714Y010740D01*
X003654Y010801D01*
X003585Y010851D01*
X003508Y010890D01*
X003427Y010917D01*
X003350Y010929D01*
X003350Y010436D01*
X003250Y010436D01*
X003250Y010929D01*
X003172Y010917D01*
X003091Y010890D01*
X003015Y010851D01*
X002945Y010801D01*
X002885Y010740D01*
X002835Y010671D01*
X002796Y010595D01*
X002769Y010514D01*
X002757Y010436D01*
X003250Y010436D01*
X003250Y010336D01*
X003350Y010336D01*
X003350Y009844D01*
X003427Y009856D01*
X003508Y009882D01*
X003350Y009901D02*
X003250Y009901D01*
X003250Y009844D02*
X003250Y010336D01*
X002757Y010336D01*
X002769Y010259D01*
X002796Y010178D01*
X002835Y010101D01*
X002885Y010032D01*
X002945Y009972D01*
X003015Y009921D01*
X003091Y009882D01*
X003172Y009856D01*
X003250Y009844D01*
X003250Y009999D02*
X003350Y009999D01*
X003350Y010098D02*
X003250Y010098D01*
X003250Y010196D02*
X003350Y010196D01*
X003350Y010295D02*
X003250Y010295D01*
X003250Y010393D02*
X000300Y010393D01*
X000300Y010295D02*
X002764Y010295D01*
X002790Y010196D02*
X000300Y010196D01*
X000300Y010098D02*
X002837Y010098D01*
X002917Y009999D02*
X000300Y009999D01*
X000300Y009901D02*
X003054Y009901D01*
X003682Y009999D02*
X005154Y009999D01*
X005055Y010098D02*
X003762Y010098D01*
X003810Y010196D02*
X005009Y010196D01*
X004971Y010295D02*
X003836Y010295D01*
X003833Y010492D02*
X004974Y010492D01*
X004971Y010393D02*
X003350Y010393D01*
X003350Y010492D02*
X003250Y010492D01*
X003250Y010590D02*
X003350Y010590D01*
X003350Y010689D02*
X003250Y010689D01*
X003250Y010787D02*
X003350Y010787D01*
X003350Y010886D02*
X003250Y010886D01*
X003083Y010886D02*
X000300Y010886D01*
X000300Y010984D02*
X005205Y010984D01*
X005205Y010886D02*
X003516Y010886D01*
X003667Y010787D02*
X005168Y010787D01*
X005069Y010689D02*
X003752Y010689D01*
X003805Y010590D02*
X005015Y010590D01*
X002932Y010787D02*
X000300Y010787D01*
X000300Y010689D02*
X002847Y010689D01*
X002794Y010590D02*
X000300Y010590D01*
X000300Y010492D02*
X002766Y010492D01*
X004497Y011871D02*
X000300Y011871D01*
X000300Y011969D02*
X004497Y011969D01*
X004906Y012265D02*
X000300Y012265D01*
X000300Y012363D02*
X004808Y012363D01*
X004709Y012462D02*
X000300Y012462D01*
X000300Y012560D02*
X004611Y012560D01*
X004535Y012659D02*
X000300Y012659D01*
X000300Y012757D02*
X004535Y012757D01*
X004535Y012856D02*
X000300Y012856D01*
X000300Y012954D02*
X004535Y012954D01*
X004535Y013053D02*
X000300Y013053D01*
X000300Y013151D02*
X004497Y013151D01*
X004497Y013250D02*
X000300Y013250D01*
X000300Y013348D02*
X004497Y013348D01*
X004497Y013447D02*
X000300Y013447D01*
X000300Y013545D02*
X004497Y013545D01*
X004497Y013644D02*
X000300Y013644D01*
X000300Y013742D02*
X004497Y013742D01*
X004497Y013841D02*
X000300Y013841D01*
X000300Y013939D02*
X004497Y013939D01*
X004497Y014038D02*
X000300Y014038D01*
X000300Y014136D02*
X005697Y014136D01*
X005697Y014235D02*
X000300Y014235D01*
X000300Y014333D02*
X005697Y014333D01*
X005697Y014432D02*
X005300Y014432D01*
X005368Y014530D02*
X005610Y014530D01*
X005610Y014629D02*
X005370Y014629D01*
X005370Y014727D02*
X005610Y014727D01*
X004440Y015023D02*
X000300Y015023D01*
X000300Y015121D02*
X001562Y015121D01*
X001324Y015220D02*
X000300Y015220D01*
X000300Y015318D02*
X001201Y015318D01*
X001103Y015417D02*
X000300Y015417D01*
X000300Y015515D02*
X001039Y015515D01*
X000998Y015614D02*
X000300Y015614D01*
X000300Y015712D02*
X000957Y015712D01*
X000945Y015811D02*
X000300Y015811D01*
X000301Y015909D02*
X000945Y015909D01*
X000945Y016008D02*
X000307Y016008D01*
X000318Y016106D02*
X000967Y016106D01*
X001008Y016205D02*
X000345Y016205D01*
X000371Y016303D02*
X001049Y016303D01*
X001126Y016402D02*
X000397Y016402D01*
X000441Y016500D02*
X001224Y016500D01*
X001379Y016599D02*
X000498Y016599D01*
X000556Y016697D02*
X012736Y016697D01*
X012748Y016599D02*
X002071Y016599D01*
X002225Y016500D02*
X012748Y016500D01*
X012748Y016402D02*
X002324Y016402D01*
X002401Y016303D02*
X012748Y016303D01*
X012748Y016205D02*
X002442Y016205D01*
X002483Y016106D02*
X012748Y016106D01*
X012748Y016008D02*
X002505Y016008D01*
X002505Y015909D02*
X012748Y015909D01*
X012748Y015811D02*
X002505Y015811D01*
X002248Y015318D02*
X004448Y015318D01*
X004440Y015220D02*
X002126Y015220D01*
X001888Y015121D02*
X004440Y015121D01*
X007090Y014530D02*
X007187Y014530D01*
X007187Y014432D02*
X007090Y014432D01*
X007090Y014333D02*
X007187Y014333D01*
X007187Y014235D02*
X007090Y014235D01*
X007265Y014136D02*
X007283Y014136D01*
X007283Y014038D02*
X007265Y014038D01*
X007265Y013939D02*
X007283Y013939D01*
X007283Y013841D02*
X007265Y013841D01*
X007265Y013742D02*
X007283Y013742D01*
X007283Y013644D02*
X007265Y013644D01*
X007265Y013545D02*
X007283Y013545D01*
X007283Y013447D02*
X007265Y013447D01*
X007265Y013348D02*
X007283Y013348D01*
X007283Y013250D02*
X007265Y013250D01*
X007265Y013151D02*
X007283Y013151D01*
X007283Y013053D02*
X007265Y013053D01*
X007144Y012856D02*
X007998Y012856D01*
X008093Y012757D02*
X007243Y012757D01*
X007514Y013053D02*
X007604Y013053D01*
X007556Y013151D02*
X007542Y013151D01*
X007542Y013250D02*
X007556Y013250D01*
X007542Y013348D02*
X007556Y013348D01*
X007542Y013447D02*
X007556Y013447D01*
X007542Y013545D02*
X007556Y013545D01*
X007542Y013644D02*
X007556Y013644D01*
X007542Y013742D02*
X007556Y013742D01*
X007542Y013841D02*
X007556Y013841D01*
X007542Y013939D02*
X007556Y013939D01*
X007556Y014038D02*
X007539Y014038D01*
X007470Y014136D02*
X007624Y014136D01*
X007624Y014235D02*
X007414Y014235D01*
X007729Y014520D02*
X007774Y014467D01*
X007774Y013575D01*
X007992Y013545D02*
X008056Y013545D01*
X008056Y013447D02*
X007992Y013447D01*
X007992Y013348D02*
X008056Y013348D01*
X008056Y013250D02*
X007992Y013250D01*
X007992Y013151D02*
X008056Y013151D01*
X008013Y013053D02*
X007944Y013053D01*
X007992Y013644D02*
X008056Y013644D01*
X008056Y013742D02*
X007992Y013742D01*
X007992Y013841D02*
X008056Y013841D01*
X008056Y013939D02*
X007992Y013939D01*
X007992Y014038D02*
X008056Y014038D01*
X007729Y014520D02*
X007729Y014579D01*
X008319Y014579D01*
X005997Y013250D02*
X005933Y013250D01*
X005933Y013151D02*
X005997Y013151D01*
X006045Y013053D02*
X005885Y013053D01*
X005545Y013053D02*
X005385Y013053D01*
X005433Y013151D02*
X005497Y013151D01*
X005497Y013250D02*
X005433Y013250D01*
X005433Y013348D02*
X005497Y013348D01*
X006385Y013053D02*
X006523Y013053D01*
X007992Y011969D02*
X008056Y011969D01*
X008056Y011871D02*
X007992Y011871D01*
X007992Y011772D02*
X008056Y011772D01*
X008056Y011674D02*
X007992Y011674D01*
X007992Y011575D02*
X008056Y011575D01*
X008056Y011477D02*
X007992Y011477D01*
X007992Y011378D02*
X008056Y011378D01*
X008056Y011280D02*
X007992Y011280D01*
X007992Y011181D02*
X008056Y011181D01*
X008056Y011083D02*
X007992Y011083D01*
X007954Y010984D02*
X008094Y010984D01*
X008094Y010886D02*
X007954Y010886D01*
X007892Y010787D02*
X008094Y010787D01*
X007929Y010689D02*
X007794Y010689D01*
X009602Y010590D02*
X011486Y010590D01*
X011486Y010492D02*
X010093Y010492D01*
X010191Y010393D02*
X011486Y010393D01*
X011486Y010295D02*
X010246Y010295D01*
X010286Y010196D02*
X011486Y010196D01*
X011486Y010098D02*
X010289Y010098D01*
X010289Y009999D02*
X011486Y009999D01*
X011486Y009901D02*
X010251Y009901D01*
X010205Y009802D02*
X011486Y009802D01*
X011486Y009704D02*
X010107Y009704D01*
X009914Y009605D02*
X011486Y009605D01*
X011486Y009507D02*
X009155Y009507D01*
X009158Y009520D02*
X009158Y009708D01*
X008860Y009708D01*
X008860Y009390D01*
X009028Y009390D01*
X009066Y009400D01*
X009100Y009420D01*
X009128Y009448D01*
X009148Y009482D01*
X009158Y009520D01*
X009158Y009605D02*
X009678Y009605D01*
X009484Y009704D02*
X009158Y009704D01*
X008860Y009704D02*
X008763Y009704D01*
X008763Y009605D02*
X008860Y009605D01*
X008860Y009507D02*
X008763Y009507D01*
X008763Y009408D02*
X008860Y009408D01*
X009081Y009408D02*
X011486Y009408D01*
X008542Y009408D02*
X008490Y009408D01*
X008269Y009408D02*
X008172Y009408D01*
X008172Y009507D02*
X008269Y009507D01*
X008269Y009605D02*
X008172Y009605D01*
X008172Y009704D02*
X008269Y009704D01*
X003625Y006946D02*
X003525Y006946D01*
X003525Y006847D02*
X003625Y006847D01*
X003625Y006749D02*
X003525Y006749D01*
X003525Y006650D02*
X003625Y006650D01*
X003625Y006552D02*
X003525Y006552D01*
X003525Y006453D02*
X003625Y006453D01*
X003625Y006355D02*
X003525Y006355D01*
X003525Y006059D02*
X003625Y006059D01*
X003625Y005961D02*
X003525Y005961D01*
X003525Y005862D02*
X003625Y005862D01*
X003625Y005764D02*
X003525Y005764D01*
X003525Y005665D02*
X003625Y005665D01*
X003625Y005567D02*
X003525Y005567D01*
X002867Y005567D02*
X000300Y005567D01*
X000300Y005665D02*
X002835Y005665D01*
X002835Y005764D02*
X000300Y005764D01*
X000300Y005862D02*
X002835Y005862D01*
X002835Y005961D02*
X000300Y005961D01*
X000300Y006059D02*
X002835Y006059D01*
X000300Y004089D02*
X009690Y004089D01*
X009592Y003991D02*
X000300Y003991D01*
X000300Y003892D02*
X009541Y003892D01*
X009500Y003794D02*
X000300Y003794D01*
X000300Y003695D02*
X009499Y003695D01*
X009499Y003597D02*
X000300Y003597D01*
X000300Y003498D02*
X009539Y003498D01*
X009588Y003400D02*
X000300Y003400D01*
X000300Y003301D02*
X009686Y003301D01*
X009886Y003203D02*
X002095Y003203D01*
X002236Y003104D02*
X011192Y003104D01*
X011192Y003203D02*
X010099Y003203D01*
X011208Y003006D02*
X002334Y003006D01*
X002405Y002907D02*
X011504Y002907D01*
X011504Y002809D02*
X002446Y002809D01*
X002487Y002710D02*
X011504Y002710D01*
X011504Y002612D02*
X002505Y002612D01*
X002505Y002513D02*
X011504Y002513D01*
X011504Y002415D02*
X002505Y002415D01*
X002488Y002316D02*
X011523Y002316D01*
X011592Y002218D02*
X002447Y002218D01*
X001212Y001922D02*
X000434Y001922D01*
X000394Y002021D02*
X001113Y002021D01*
X001043Y002119D02*
X000368Y002119D01*
X000341Y002218D02*
X001003Y002218D01*
X000962Y002316D02*
X000315Y002316D01*
X000306Y002415D02*
X000945Y002415D01*
X000945Y002513D02*
X000300Y002513D01*
X000300Y002612D02*
X000945Y002612D01*
X000963Y002710D02*
X000300Y002710D01*
X000300Y002809D02*
X001004Y002809D01*
X001044Y002907D02*
X000300Y002907D01*
X000300Y003006D02*
X001116Y003006D01*
X001214Y003104D02*
X000300Y003104D01*
X000300Y003203D02*
X001354Y003203D01*
X001348Y001824D02*
X000491Y001824D01*
X010295Y004089D02*
X011192Y004089D01*
X011192Y003991D02*
X010393Y003991D01*
X012022Y003498D02*
X012244Y003498D01*
X012244Y003400D02*
X012024Y003400D01*
X012024Y003301D02*
X012244Y003301D01*
X012244Y003203D02*
X012024Y003203D01*
X012024Y003104D02*
X012244Y003104D01*
X012254Y003006D02*
X012024Y003006D01*
X014864Y003006D02*
X014964Y003006D01*
X014964Y003104D02*
X014864Y003104D01*
X014864Y003203D02*
X014964Y003203D01*
X014964Y003301D02*
X014864Y003301D01*
X014864Y003597D02*
X014964Y003597D01*
X014964Y003695D02*
X014864Y003695D01*
X014864Y003794D02*
X014964Y003794D01*
X014964Y003892D02*
X014864Y003892D01*
X014864Y003991D02*
X014964Y003991D01*
X015307Y005465D02*
X015347Y005504D01*
X016489Y005504D01*
X019785Y004779D02*
X019885Y004779D01*
X019885Y004680D02*
X019785Y004680D01*
X019785Y004582D02*
X019885Y004582D01*
X019885Y004483D02*
X019785Y004483D01*
X019785Y004385D02*
X019885Y004385D01*
X019885Y004286D02*
X019785Y004286D01*
X019785Y004188D02*
X019885Y004188D01*
X020606Y004089D02*
X029921Y004089D01*
X029921Y003991D02*
X020606Y003991D01*
X020606Y003892D02*
X029921Y003892D01*
X029921Y003794D02*
X020606Y003794D01*
X020606Y003695D02*
X029921Y003695D01*
X029921Y003597D02*
X021120Y003597D01*
X021135Y003498D02*
X029921Y003498D01*
X029921Y003400D02*
X021135Y003400D01*
X021135Y003301D02*
X029921Y003301D01*
X029921Y003203D02*
X021135Y003203D01*
X021135Y003104D02*
X029921Y003104D01*
X029921Y003006D02*
X021135Y003006D01*
X021135Y002907D02*
X028405Y002907D01*
X028300Y002809D02*
X021135Y002809D01*
X021135Y002710D02*
X028240Y002710D01*
X028207Y002612D02*
X021135Y002612D01*
X020246Y003006D02*
X020185Y003006D01*
X020185Y003104D02*
X020246Y003104D01*
X020246Y003203D02*
X020185Y003203D01*
X020185Y003301D02*
X020246Y003301D01*
X020246Y003400D02*
X020185Y003400D01*
X020185Y003498D02*
X020246Y003498D01*
X020246Y003597D02*
X020175Y003597D01*
X020785Y004188D02*
X020885Y004188D01*
X020885Y004286D02*
X020785Y004286D01*
X020785Y004385D02*
X020885Y004385D01*
X020885Y004483D02*
X020785Y004483D01*
X020785Y004582D02*
X020885Y004582D01*
X020885Y004680D02*
X020785Y004680D01*
X020785Y004779D02*
X020885Y004779D01*
X020885Y004877D02*
X029961Y004877D01*
X029921Y004779D02*
X021185Y004779D01*
X021185Y004680D02*
X029921Y004680D01*
X029921Y004582D02*
X021185Y004582D01*
X021185Y004483D02*
X029921Y004483D01*
X029921Y004385D02*
X021185Y004385D01*
X021185Y004286D02*
X029921Y004286D01*
X029921Y004188D02*
X021176Y004188D01*
X021185Y004976D02*
X030059Y004976D01*
X030158Y005074D02*
X021185Y005074D01*
X021185Y005173D02*
X030256Y005173D01*
X030367Y005071D02*
X030071Y004776D01*
X030071Y002906D01*
X029678Y002512D01*
X029294Y002710D02*
X029115Y002710D01*
X029148Y002612D02*
X029253Y002612D01*
X029366Y002809D02*
X029055Y002809D01*
X028950Y002907D02*
X029508Y002907D01*
X029847Y002907D02*
X029861Y002907D01*
X030268Y002906D02*
X030268Y004678D01*
X030465Y004874D01*
X033516Y004874D01*
X034107Y005465D01*
X034107Y009205D01*
X034304Y009402D01*
X035977Y009402D01*
X036370Y009796D01*
X036489Y009796D01*
X036972Y009802D02*
X044531Y009802D01*
X044433Y009704D02*
X036972Y009704D01*
X036972Y009605D02*
X044334Y009605D01*
X044236Y009507D02*
X036942Y009507D01*
X036195Y009408D02*
X044137Y009408D01*
X044039Y009310D02*
X036097Y009310D01*
X036127Y009340D02*
X036127Y009340D01*
X034325Y009211D02*
X043940Y009211D01*
X043842Y009113D02*
X034257Y009113D01*
X034257Y009014D02*
X043743Y009014D01*
X043645Y008916D02*
X034257Y008916D01*
X034257Y008817D02*
X043546Y008817D01*
X043448Y008719D02*
X034257Y008719D01*
X034257Y008620D02*
X043349Y008620D01*
X043251Y008522D02*
X034257Y008522D01*
X034257Y008423D02*
X043152Y008423D01*
X043054Y008325D02*
X034257Y008325D01*
X034257Y008226D02*
X042955Y008226D01*
X042857Y008128D02*
X034257Y008128D01*
X034257Y008029D02*
X042758Y008029D01*
X042660Y007931D02*
X034257Y007931D01*
X034257Y007832D02*
X038114Y007832D01*
X038163Y007881D02*
X037823Y007541D01*
X038394Y006969D01*
X038324Y006898D01*
X038394Y006828D01*
X038465Y006898D01*
X039037Y006327D01*
X039377Y006667D01*
X039397Y006701D01*
X039407Y006739D01*
X039407Y006779D01*
X039397Y006817D01*
X039377Y006851D01*
X038898Y007331D01*
X038465Y006898D01*
X038394Y006969D01*
X038827Y007402D01*
X038347Y007881D01*
X038313Y007901D01*
X038275Y007911D01*
X038235Y007911D01*
X038197Y007901D01*
X038163Y007881D01*
X038016Y007734D02*
X034257Y007734D01*
X034257Y007635D02*
X037917Y007635D01*
X037827Y007537D02*
X034257Y007537D01*
X034257Y007438D02*
X037720Y007438D01*
X037752Y007470D02*
X037411Y007130D01*
X037392Y007095D01*
X037381Y007057D01*
X037381Y007018D01*
X037392Y006980D01*
X037411Y006945D01*
X037891Y006466D01*
X038324Y006898D01*
X037752Y007470D01*
X037784Y007438D02*
X037925Y007438D01*
X037882Y007340D02*
X038024Y007340D01*
X037981Y007241D02*
X038122Y007241D01*
X038079Y007143D02*
X038221Y007143D01*
X038178Y007044D02*
X038319Y007044D01*
X038276Y006946D02*
X038371Y006946D01*
X038418Y006946D02*
X038513Y006946D01*
X038516Y006847D02*
X038414Y006847D01*
X038375Y006847D02*
X038273Y006847D01*
X038316Y006749D02*
X038174Y006749D01*
X038217Y006650D02*
X038076Y006650D01*
X038119Y006552D02*
X037977Y006552D01*
X038020Y006453D02*
X034257Y006453D01*
X034257Y006355D02*
X038002Y006355D01*
X038100Y006256D02*
X034257Y006256D01*
X034257Y006158D02*
X038199Y006158D01*
X038297Y006059D02*
X034257Y006059D01*
X034257Y005961D02*
X038396Y005961D01*
X038524Y005862D02*
X034257Y005862D01*
X034257Y005764D02*
X038426Y005764D01*
X038370Y005665D02*
X034257Y005665D01*
X034257Y005567D02*
X038220Y005567D01*
X038220Y005468D02*
X034257Y005468D01*
X034224Y005370D02*
X038220Y005370D01*
X038220Y005271D02*
X034125Y005271D01*
X034027Y005173D02*
X038220Y005173D01*
X038220Y005074D02*
X033928Y005074D01*
X033830Y004976D02*
X038220Y004976D01*
X038220Y004877D02*
X033731Y004877D01*
X033633Y004779D02*
X038220Y004779D01*
X038220Y004680D02*
X030483Y004680D01*
X030418Y004582D02*
X038220Y004582D01*
X038220Y004483D02*
X030418Y004483D01*
X030418Y004385D02*
X038220Y004385D01*
X038220Y004286D02*
X030418Y004286D01*
X030418Y004188D02*
X038231Y004188D01*
X038809Y004188D02*
X039231Y004188D01*
X039220Y004286D02*
X038820Y004286D01*
X038820Y004385D02*
X039220Y004385D01*
X039220Y004483D02*
X038820Y004483D01*
X038820Y004582D02*
X039220Y004582D01*
X039220Y004680D02*
X038820Y004680D01*
X038820Y004779D02*
X039220Y004779D01*
X039220Y004877D02*
X038820Y004877D01*
X038820Y004976D02*
X039220Y004976D01*
X039220Y005074D02*
X038820Y005074D01*
X038820Y005173D02*
X039220Y005173D01*
X039220Y005271D02*
X038820Y005271D01*
X038820Y005370D02*
X039220Y005370D01*
X039220Y005468D02*
X038820Y005468D01*
X038820Y005567D02*
X039220Y005567D01*
X039370Y005665D02*
X038752Y005665D01*
X038850Y005764D02*
X039410Y005764D01*
X039520Y005662D02*
X039619Y005760D01*
X040996Y005760D01*
X046410Y011174D01*
X048378Y011174D01*
X049461Y012256D01*
X050445Y012256D01*
X050445Y012059D02*
X049559Y012059D01*
X048477Y010977D01*
X046508Y010977D01*
X041111Y005579D01*
X040619Y005579D01*
X040504Y005465D01*
X040520Y005449D01*
X040520Y004890D01*
X040220Y004877D02*
X039820Y004877D01*
X039820Y004779D02*
X040220Y004779D01*
X040220Y004680D02*
X039820Y004680D01*
X039820Y004582D02*
X040220Y004582D01*
X040220Y004483D02*
X039820Y004483D01*
X039820Y004385D02*
X040220Y004385D01*
X040220Y004286D02*
X039820Y004286D01*
X039809Y004188D02*
X040231Y004188D01*
X040787Y004089D02*
X030418Y004089D01*
X030418Y003991D02*
X039606Y003991D01*
X039507Y003892D02*
X030418Y003892D01*
X030418Y003794D02*
X039409Y003794D01*
X039370Y003695D02*
X030418Y003695D01*
X030418Y003597D02*
X038235Y003597D01*
X038220Y003582D02*
X038220Y003143D01*
X038136Y003227D01*
X037951Y003227D01*
X037821Y003097D01*
X037821Y002912D01*
X037951Y002781D01*
X038055Y002781D01*
X038096Y002740D01*
X038220Y002740D01*
X038220Y002199D01*
X038279Y002140D01*
X038761Y002140D01*
X038820Y002199D01*
X038820Y003582D01*
X038761Y003640D01*
X038279Y003640D01*
X038220Y003582D01*
X038220Y003498D02*
X030418Y003498D01*
X030418Y003400D02*
X038220Y003400D01*
X038220Y003301D02*
X030418Y003301D01*
X030418Y003203D02*
X037927Y003203D01*
X037828Y003104D02*
X030418Y003104D01*
X030418Y003006D02*
X037821Y003006D01*
X037825Y002907D02*
X030847Y002907D01*
X030989Y002809D02*
X037924Y002809D01*
X038044Y003004D02*
X038158Y002890D01*
X038520Y002890D01*
X038820Y002907D02*
X039220Y002907D01*
X039220Y002809D02*
X038820Y002809D01*
X038820Y002710D02*
X039220Y002710D01*
X039220Y002612D02*
X038820Y002612D01*
X038820Y002513D02*
X039220Y002513D01*
X039220Y002415D02*
X038820Y002415D01*
X038820Y002316D02*
X039220Y002316D01*
X039220Y002218D02*
X038820Y002218D01*
X038220Y002612D02*
X031102Y002612D01*
X031061Y002710D02*
X038220Y002710D01*
X038820Y003006D02*
X039220Y003006D01*
X039220Y003104D02*
X038820Y003104D01*
X038820Y003203D02*
X039220Y003203D01*
X039220Y003301D02*
X038820Y003301D01*
X038820Y003400D02*
X039220Y003400D01*
X039220Y003498D02*
X038820Y003498D01*
X038805Y003597D02*
X039235Y003597D01*
X039520Y003693D02*
X039520Y002890D01*
X040470Y002710D02*
X040570Y002710D01*
X040570Y002612D02*
X040470Y002612D01*
X040470Y002513D02*
X040570Y002513D01*
X040570Y002415D02*
X040470Y002415D01*
X040470Y002316D02*
X040570Y002316D01*
X040570Y002218D02*
X040470Y002218D01*
X040470Y002119D02*
X040570Y002119D01*
X038220Y003203D02*
X038160Y003203D01*
X039520Y003693D02*
X039717Y003890D01*
X040800Y003890D01*
X041095Y004185D01*
X041095Y005268D01*
X046607Y010780D01*
X048575Y010780D01*
X049658Y011863D01*
X050445Y011863D01*
X050445Y011666D02*
X049756Y011666D01*
X048674Y010583D01*
X046705Y010583D01*
X042178Y006056D01*
X042178Y005760D01*
X041955Y005764D02*
X041803Y005764D01*
X041901Y005862D02*
X041964Y005862D01*
X042000Y005961D02*
X042028Y005961D01*
X041957Y005665D02*
X041704Y005665D01*
X041606Y005567D02*
X042056Y005567D01*
X040985Y005370D02*
X040820Y005370D01*
X040820Y005271D02*
X040945Y005271D01*
X040945Y005173D02*
X040820Y005173D01*
X040820Y005074D02*
X040945Y005074D01*
X040945Y004976D02*
X040820Y004976D01*
X040820Y004877D02*
X040945Y004877D01*
X040945Y004779D02*
X040820Y004779D01*
X040820Y004680D02*
X040945Y004680D01*
X040945Y004582D02*
X040820Y004582D01*
X040820Y004483D02*
X040945Y004483D01*
X040945Y004385D02*
X040820Y004385D01*
X040820Y004286D02*
X040945Y004286D01*
X040885Y004188D02*
X040809Y004188D01*
X039520Y004890D02*
X039520Y005662D01*
X039820Y005567D02*
X040220Y005567D01*
X040220Y005468D02*
X039820Y005468D01*
X039820Y005370D02*
X040220Y005370D01*
X040220Y005271D02*
X039820Y005271D01*
X039820Y005173D02*
X040220Y005173D01*
X040220Y005074D02*
X039820Y005074D01*
X039820Y004976D02*
X040220Y004976D01*
X038831Y005957D02*
X038520Y005646D01*
X038520Y004890D01*
X038831Y005957D02*
X040898Y005957D01*
X046311Y011370D01*
X048280Y011370D01*
X049363Y012453D01*
X050445Y012453D01*
X050445Y012650D02*
X049264Y012650D01*
X048181Y011567D01*
X038044Y011567D01*
X037847Y011764D01*
X036489Y011764D01*
X036961Y010386D02*
X037945Y011370D01*
X045721Y011370D01*
X045819Y011272D01*
X045693Y011083D02*
X038464Y011083D01*
X038464Y010984D02*
X045713Y010984D01*
X045615Y010886D02*
X038367Y010886D01*
X038114Y010886D02*
X037982Y010886D01*
X037884Y010787D02*
X045516Y010787D01*
X045418Y010689D02*
X037785Y010689D01*
X037687Y010590D02*
X045319Y010590D01*
X045221Y010492D02*
X037588Y010492D01*
X037490Y010393D02*
X045122Y010393D01*
X045024Y010295D02*
X037391Y010295D01*
X037293Y010196D02*
X044925Y010196D01*
X044827Y010098D02*
X037194Y010098D01*
X036972Y009999D02*
X044728Y009999D01*
X044630Y009901D02*
X036972Y009901D01*
X034284Y009796D02*
X033910Y009422D01*
X033910Y005563D01*
X033418Y005071D01*
X030367Y005071D01*
X033406Y005271D02*
X021185Y005271D01*
X021185Y005370D02*
X033504Y005370D01*
X033603Y005468D02*
X021185Y005468D01*
X021183Y005567D02*
X033701Y005567D01*
X033760Y005665D02*
X021118Y005665D01*
X020885Y005665D02*
X020785Y005665D01*
X020785Y005567D02*
X020885Y005567D01*
X020885Y005468D02*
X020785Y005468D01*
X020785Y005370D02*
X020885Y005370D01*
X020885Y005271D02*
X020785Y005271D01*
X020785Y005173D02*
X020885Y005173D01*
X020885Y005074D02*
X020785Y005074D01*
X020785Y004976D02*
X020885Y004976D01*
X020246Y004976D02*
X020185Y004976D01*
X020185Y005074D02*
X020246Y005074D01*
X020246Y005173D02*
X020185Y005173D01*
X020185Y005271D02*
X020246Y005271D01*
X020246Y005370D02*
X020185Y005370D01*
X020185Y005468D02*
X020246Y005468D01*
X020246Y005567D02*
X020183Y005567D01*
X020246Y005665D02*
X020118Y005665D01*
X020606Y005764D02*
X033760Y005764D01*
X033760Y005862D02*
X020606Y005862D01*
X020606Y005961D02*
X033760Y005961D01*
X033760Y006059D02*
X020606Y006059D01*
X024017Y007143D02*
X024263Y007143D01*
X024263Y007241D02*
X024069Y007241D01*
X024298Y007340D02*
X028937Y007340D01*
X028937Y007385D02*
X028937Y007217D01*
X028947Y007179D01*
X028967Y007145D01*
X028995Y007117D01*
X029029Y007097D01*
X029067Y007087D01*
X029531Y007087D01*
X029531Y007385D01*
X029628Y007385D01*
X029628Y007482D01*
X030221Y007482D01*
X030221Y007650D01*
X030211Y007688D01*
X030191Y007722D01*
X030163Y007750D01*
X030129Y007770D01*
X030091Y007780D01*
X029628Y007780D01*
X029628Y007482D01*
X029531Y007482D01*
X029531Y007780D01*
X029067Y007780D01*
X029029Y007770D01*
X028995Y007750D01*
X028967Y007722D01*
X028947Y007688D01*
X028937Y007650D01*
X028937Y007482D01*
X029531Y007482D01*
X029531Y007385D01*
X028937Y007385D01*
X028937Y007241D02*
X028793Y007241D01*
X028793Y007278D02*
X028735Y007337D01*
X028258Y007337D01*
X028200Y007278D01*
X028200Y006408D01*
X028258Y006349D01*
X028735Y006349D01*
X028793Y006408D01*
X028793Y007278D01*
X028793Y007143D02*
X028969Y007143D01*
X028793Y007044D02*
X033760Y007044D01*
X033760Y006946D02*
X028793Y006946D01*
X028793Y006847D02*
X033760Y006847D01*
X033760Y006749D02*
X028793Y006749D01*
X028793Y006650D02*
X033760Y006650D01*
X033760Y006552D02*
X028793Y006552D01*
X028793Y006453D02*
X033760Y006453D01*
X033760Y006355D02*
X028740Y006355D01*
X028252Y006355D02*
X027953Y006355D01*
X027947Y006349D02*
X028006Y006408D01*
X028006Y007278D01*
X027947Y007337D01*
X027471Y007337D01*
X027412Y007278D01*
X027412Y006408D01*
X027471Y006349D01*
X027947Y006349D01*
X028006Y006453D02*
X028200Y006453D01*
X028200Y006552D02*
X028006Y006552D01*
X028006Y006650D02*
X028200Y006650D01*
X028200Y006749D02*
X028006Y006749D01*
X028006Y006847D02*
X028200Y006847D01*
X028200Y006946D02*
X028006Y006946D01*
X028006Y007044D02*
X028200Y007044D01*
X028200Y007143D02*
X028006Y007143D01*
X028006Y007241D02*
X028200Y007241D01*
X027412Y007241D02*
X027219Y007241D01*
X027219Y007278D02*
X027160Y007337D01*
X026683Y007337D01*
X026625Y007278D01*
X026625Y006408D01*
X026683Y006349D01*
X027160Y006349D01*
X027219Y006408D01*
X027219Y007278D01*
X027219Y007143D02*
X027412Y007143D01*
X027412Y007044D02*
X027219Y007044D01*
X027219Y006946D02*
X027412Y006946D01*
X027412Y006847D02*
X027219Y006847D01*
X027219Y006749D02*
X027412Y006749D01*
X027412Y006650D02*
X027219Y006650D01*
X027219Y006552D02*
X027412Y006552D01*
X027412Y006453D02*
X027219Y006453D01*
X027166Y006355D02*
X027465Y006355D01*
X026678Y006355D02*
X026378Y006355D01*
X026373Y006349D02*
X026431Y006408D01*
X026431Y007278D01*
X026373Y007337D01*
X025896Y007337D01*
X025837Y007278D01*
X025837Y006408D01*
X025896Y006349D01*
X026373Y006349D01*
X026431Y006453D02*
X026625Y006453D01*
X026625Y006552D02*
X026431Y006552D01*
X026431Y006650D02*
X026625Y006650D01*
X026625Y006749D02*
X026431Y006749D01*
X026431Y006847D02*
X026625Y006847D01*
X026625Y006946D02*
X026431Y006946D01*
X026431Y007044D02*
X026625Y007044D01*
X026625Y007143D02*
X026431Y007143D01*
X026431Y007241D02*
X026625Y007241D01*
X025837Y007241D02*
X025644Y007241D01*
X025644Y007278D02*
X025585Y007337D01*
X025109Y007337D01*
X025050Y007278D01*
X025050Y006408D01*
X025109Y006349D01*
X025585Y006349D01*
X025644Y006408D01*
X025644Y007278D01*
X025644Y007143D02*
X025837Y007143D01*
X025837Y007044D02*
X025644Y007044D01*
X025644Y006946D02*
X025837Y006946D01*
X025837Y006847D02*
X025644Y006847D01*
X025644Y006749D02*
X025837Y006749D01*
X025837Y006650D02*
X025644Y006650D01*
X025644Y006552D02*
X025837Y006552D01*
X025837Y006453D02*
X025644Y006453D01*
X025591Y006355D02*
X025890Y006355D01*
X025103Y006355D02*
X024803Y006355D01*
X024856Y006453D02*
X025050Y006453D01*
X025050Y006552D02*
X024856Y006552D01*
X024856Y006650D02*
X025050Y006650D01*
X025050Y006749D02*
X024856Y006749D01*
X024856Y006847D02*
X025050Y006847D01*
X025050Y006946D02*
X024856Y006946D01*
X024856Y007044D02*
X025050Y007044D01*
X025050Y007143D02*
X024856Y007143D01*
X024856Y007241D02*
X025050Y007241D01*
X024397Y007438D02*
X029531Y007438D01*
X029628Y007438D02*
X033760Y007438D01*
X033760Y007340D02*
X030221Y007340D01*
X030221Y007385D02*
X029628Y007385D01*
X029628Y007087D01*
X030091Y007087D01*
X030129Y007097D01*
X030163Y007117D01*
X030191Y007145D01*
X030211Y007179D01*
X030221Y007217D01*
X030221Y007385D01*
X030221Y007241D02*
X033760Y007241D01*
X033760Y007143D02*
X030190Y007143D01*
X029628Y007143D02*
X029531Y007143D01*
X029531Y007241D02*
X029628Y007241D01*
X029628Y007340D02*
X029531Y007340D01*
X029531Y007537D02*
X029628Y007537D01*
X029628Y007635D02*
X029531Y007635D01*
X029531Y007734D02*
X029628Y007734D01*
X030113Y007924D02*
X028849Y007924D01*
X028790Y007983D01*
X028790Y008459D01*
X028849Y008518D01*
X030113Y008518D01*
X030171Y008459D01*
X030171Y008371D01*
X030424Y008371D01*
X030424Y008479D01*
X030483Y008537D01*
X030959Y008537D01*
X031018Y008479D01*
X031018Y007963D01*
X030959Y007904D01*
X030483Y007904D01*
X030424Y007963D01*
X030424Y008071D01*
X030171Y008071D01*
X030171Y007983D01*
X030113Y007924D01*
X030120Y007931D02*
X030456Y007931D01*
X030424Y008029D02*
X030171Y008029D01*
X030180Y007734D02*
X033760Y007734D01*
X033760Y007832D02*
X024791Y007832D01*
X024818Y007931D02*
X028842Y007931D01*
X028790Y008029D02*
X024818Y008029D01*
X024818Y008128D02*
X028790Y008128D01*
X028790Y008226D02*
X024818Y008226D01*
X024818Y008325D02*
X028790Y008325D01*
X028790Y008423D02*
X024818Y008423D01*
X024818Y008522D02*
X030467Y008522D01*
X030424Y008423D02*
X030171Y008423D01*
X030721Y008221D02*
X029481Y008221D01*
X028978Y007734D02*
X024692Y007734D01*
X024594Y007635D02*
X028937Y007635D01*
X028937Y007537D02*
X024495Y007537D01*
X024818Y008620D02*
X033760Y008620D01*
X033760Y008522D02*
X031711Y008522D01*
X031707Y008530D02*
X031679Y008557D01*
X031645Y008577D01*
X031607Y008587D01*
X031439Y008587D01*
X031439Y008269D01*
X031737Y008269D01*
X031737Y008457D01*
X031727Y008495D01*
X031707Y008530D01*
X031737Y008423D02*
X033760Y008423D01*
X033760Y008325D02*
X031737Y008325D01*
X031737Y008172D02*
X031439Y008172D01*
X031439Y008269D01*
X031342Y008269D01*
X031342Y008172D01*
X031439Y008172D01*
X031439Y007854D01*
X031607Y007854D01*
X031645Y007865D01*
X031679Y007884D01*
X031707Y007912D01*
X031727Y007946D01*
X031737Y007985D01*
X031737Y008172D01*
X031737Y008128D02*
X033760Y008128D01*
X033760Y008226D02*
X031439Y008226D01*
X031342Y008226D02*
X031018Y008226D01*
X031043Y008269D02*
X031342Y008269D01*
X031342Y008587D01*
X031174Y008587D01*
X031135Y008577D01*
X031101Y008557D01*
X031073Y008530D01*
X031054Y008495D01*
X031043Y008457D01*
X031043Y008269D01*
X031043Y008325D02*
X031018Y008325D01*
X031018Y008423D02*
X031043Y008423D01*
X031069Y008522D02*
X030975Y008522D01*
X031342Y008522D02*
X031439Y008522D01*
X031439Y008423D02*
X031342Y008423D01*
X031342Y008325D02*
X031439Y008325D01*
X031342Y008172D02*
X031043Y008172D01*
X031043Y007985D01*
X031054Y007946D01*
X031073Y007912D01*
X031101Y007884D01*
X031135Y007865D01*
X031174Y007854D01*
X031342Y007854D01*
X031342Y008172D01*
X031342Y008128D02*
X031439Y008128D01*
X031439Y008029D02*
X031342Y008029D01*
X031342Y007931D02*
X031439Y007931D01*
X031718Y007931D02*
X033760Y007931D01*
X033760Y008029D02*
X031737Y008029D01*
X031062Y007931D02*
X030986Y007931D01*
X031018Y008029D02*
X031043Y008029D01*
X031043Y008128D02*
X031018Y008128D01*
X030221Y007635D02*
X033760Y007635D01*
X033760Y007537D02*
X030221Y007537D01*
X030120Y008719D02*
X033760Y008719D01*
X033760Y008817D02*
X030171Y008817D01*
X030171Y008916D02*
X033760Y008916D01*
X033760Y009014D02*
X030171Y009014D01*
X030171Y009113D02*
X033760Y009113D01*
X033760Y009211D02*
X030171Y009211D01*
X028790Y009211D02*
X025186Y009211D01*
X025087Y009113D02*
X028790Y009113D01*
X028790Y009014D02*
X024989Y009014D01*
X024890Y008916D02*
X028790Y008916D01*
X028790Y008817D02*
X024818Y008817D01*
X024818Y008719D02*
X028841Y008719D01*
X028790Y009999D02*
X024666Y009999D01*
X024568Y010098D02*
X033016Y010098D01*
X033114Y010196D02*
X024469Y010196D01*
X024371Y010295D02*
X028840Y010295D01*
X028849Y010286D02*
X030113Y010286D01*
X030171Y010345D01*
X030171Y010433D01*
X030424Y010433D01*
X030424Y010325D01*
X030483Y010267D01*
X030959Y010267D01*
X031018Y010325D01*
X031018Y010841D01*
X030959Y010900D01*
X030483Y010900D01*
X030424Y010841D01*
X030424Y010733D01*
X030171Y010733D01*
X030171Y010821D01*
X030113Y010880D01*
X028849Y010880D01*
X028790Y010821D01*
X028790Y010345D01*
X028849Y010286D01*
X028790Y010393D02*
X024266Y010393D01*
X024266Y010492D02*
X028790Y010492D01*
X028790Y010590D02*
X024266Y010590D01*
X024266Y010689D02*
X028790Y010689D01*
X028790Y010787D02*
X024266Y010787D01*
X024216Y011083D02*
X028839Y011083D01*
X028790Y011181D02*
X024266Y011181D01*
X022934Y011083D02*
X022514Y011083D01*
X022514Y011181D02*
X022885Y011181D01*
X022514Y010880D02*
X022514Y010404D01*
X022455Y010345D01*
X021939Y010345D01*
X021881Y010404D01*
X021881Y010492D01*
X021891Y010393D02*
X021560Y010393D01*
X021560Y010295D02*
X022780Y010295D01*
X022681Y010196D02*
X021560Y010196D01*
X021615Y010098D02*
X021905Y010098D01*
X021881Y009999D02*
X021713Y009999D01*
X022489Y010098D02*
X022583Y010098D01*
X022503Y010393D02*
X022885Y010393D01*
X022885Y010492D02*
X022514Y010492D01*
X022514Y010590D02*
X022885Y010590D01*
X022508Y010886D02*
X030469Y010886D01*
X030424Y010787D02*
X030171Y010787D01*
X030721Y010583D02*
X029481Y010583D01*
X030121Y010295D02*
X030454Y010295D01*
X030424Y010393D02*
X030171Y010393D01*
X030171Y009999D02*
X032917Y009999D01*
X033454Y009802D02*
X033800Y009802D01*
X033800Y009704D02*
X033355Y009704D01*
X033257Y009605D02*
X033800Y009605D01*
X033783Y009507D02*
X033158Y009507D01*
X033060Y009408D02*
X033760Y009408D01*
X033760Y009310D02*
X032961Y009310D01*
X033552Y009901D02*
X033800Y009901D01*
X033800Y009999D02*
X033651Y009999D01*
X033311Y010393D02*
X032934Y010393D01*
X032938Y010406D02*
X032938Y010554D01*
X032659Y010554D01*
X032659Y010276D01*
X032808Y010276D01*
X032846Y010286D01*
X032880Y010306D01*
X032908Y010333D01*
X032928Y010368D01*
X032938Y010406D01*
X032938Y010492D02*
X033410Y010492D01*
X033592Y010689D02*
X032938Y010689D01*
X032938Y010760D02*
X032928Y010798D01*
X032908Y010833D01*
X032880Y010861D01*
X032846Y010880D01*
X032808Y010891D01*
X032659Y010891D01*
X032659Y010612D01*
X032602Y010612D01*
X032602Y010891D01*
X032453Y010891D01*
X032415Y010880D01*
X032381Y010861D01*
X032353Y010833D01*
X032333Y010798D01*
X032323Y010760D01*
X032323Y010612D01*
X032602Y010612D01*
X032602Y010554D01*
X032659Y010554D01*
X032659Y010612D01*
X032938Y010612D01*
X032938Y010760D01*
X032931Y010787D02*
X033493Y010787D01*
X033395Y010886D02*
X032825Y010886D01*
X032659Y010886D02*
X032602Y010886D01*
X032602Y010787D02*
X032659Y010787D01*
X032659Y010689D02*
X032602Y010689D01*
X032602Y010590D02*
X032297Y010590D01*
X032323Y010554D02*
X032323Y010406D01*
X032333Y010368D01*
X032353Y010333D01*
X032381Y010306D01*
X032415Y010286D01*
X032453Y010276D01*
X032602Y010276D01*
X032602Y010554D01*
X032323Y010554D01*
X032323Y010492D02*
X032297Y010492D01*
X032297Y010393D02*
X032326Y010393D01*
X032297Y010384D02*
X032297Y010782D01*
X032239Y010841D01*
X031841Y010841D01*
X031782Y010782D01*
X031782Y010733D01*
X031687Y010733D01*
X031687Y010841D01*
X031628Y010900D01*
X031152Y010900D01*
X031093Y010841D01*
X031093Y010325D01*
X031152Y010267D01*
X031628Y010267D01*
X031687Y010325D01*
X031687Y010433D01*
X031782Y010433D01*
X031782Y010384D01*
X031841Y010326D01*
X032239Y010326D01*
X032297Y010384D01*
X032399Y010295D02*
X031657Y010295D01*
X031687Y010393D02*
X031782Y010393D01*
X032040Y010583D02*
X031390Y010583D01*
X031093Y010590D02*
X031018Y010590D01*
X031018Y010492D02*
X031093Y010492D01*
X031093Y010393D02*
X031018Y010393D01*
X030988Y010295D02*
X031123Y010295D01*
X031093Y010689D02*
X031018Y010689D01*
X031018Y010787D02*
X031093Y010787D01*
X031138Y010886D02*
X030973Y010886D01*
X030988Y011083D02*
X031123Y011083D01*
X031152Y011054D02*
X031628Y011054D01*
X031687Y011113D01*
X031687Y011220D01*
X031782Y011220D01*
X031782Y011172D01*
X031841Y011113D01*
X032239Y011113D01*
X032297Y011172D01*
X032297Y011569D01*
X032239Y011628D01*
X031841Y011628D01*
X031782Y011569D01*
X031782Y011520D01*
X031687Y011520D01*
X031687Y011628D01*
X031628Y011687D01*
X031152Y011687D01*
X031093Y011628D01*
X031093Y011113D01*
X031152Y011054D01*
X031093Y011181D02*
X031018Y011181D01*
X031018Y011280D02*
X031093Y011280D01*
X031093Y011378D02*
X031018Y011378D01*
X031018Y011477D02*
X031093Y011477D01*
X031093Y011575D02*
X031018Y011575D01*
X030972Y011674D02*
X031139Y011674D01*
X031390Y011370D02*
X032040Y011370D01*
X032297Y011378D02*
X032602Y011378D01*
X032602Y011399D02*
X032602Y011342D01*
X032659Y011342D01*
X032659Y011399D01*
X032938Y011399D01*
X032938Y011548D01*
X032928Y011586D01*
X032908Y011620D01*
X032880Y011648D01*
X032846Y011668D01*
X032808Y011678D01*
X032659Y011678D01*
X032659Y011399D01*
X032602Y011399D01*
X032602Y011678D01*
X032453Y011678D01*
X032415Y011668D01*
X032381Y011648D01*
X032353Y011620D01*
X032333Y011586D01*
X032323Y011548D01*
X032323Y011399D01*
X032602Y011399D01*
X032602Y011342D02*
X032323Y011342D01*
X032323Y011193D01*
X032333Y011155D01*
X032353Y011121D01*
X032381Y011093D01*
X032415Y011073D01*
X032453Y011063D01*
X032602Y011063D01*
X032602Y011342D01*
X032659Y011342D02*
X032659Y011063D01*
X032808Y011063D01*
X032846Y011073D01*
X032880Y011093D01*
X032908Y011121D01*
X032928Y011155D01*
X032938Y011193D01*
X032938Y011342D01*
X032659Y011342D01*
X032659Y011378D02*
X033366Y011378D01*
X033366Y011280D02*
X032938Y011280D01*
X032935Y011181D02*
X033366Y011181D01*
X033366Y011083D02*
X032863Y011083D01*
X032659Y011083D02*
X032602Y011083D01*
X032602Y011181D02*
X032659Y011181D01*
X032659Y011280D02*
X032602Y011280D01*
X032602Y011477D02*
X032659Y011477D01*
X032659Y011575D02*
X032602Y011575D01*
X032602Y011674D02*
X032659Y011674D01*
X032823Y011674D02*
X033366Y011674D01*
X033366Y011772D02*
X027437Y011772D01*
X029481Y011370D02*
X030721Y011370D01*
X030424Y011181D02*
X030171Y011181D01*
X030122Y011083D02*
X030454Y011083D01*
X031657Y011083D02*
X032398Y011083D01*
X032326Y011181D02*
X032297Y011181D01*
X032297Y011280D02*
X032323Y011280D01*
X032323Y011477D02*
X032297Y011477D01*
X032291Y011575D02*
X032330Y011575D01*
X032438Y011674D02*
X031642Y011674D01*
X031687Y011575D02*
X031788Y011575D01*
X030784Y012068D02*
X033296Y012068D01*
X033319Y012256D02*
X033516Y012059D01*
X033516Y010977D01*
X033713Y010780D01*
X034284Y010780D01*
X033800Y010590D02*
X032659Y010590D01*
X032659Y010492D02*
X032602Y010492D01*
X032602Y010393D02*
X032659Y010393D01*
X032659Y010295D02*
X032602Y010295D01*
X032861Y010295D02*
X033213Y010295D01*
X032323Y010689D02*
X032297Y010689D01*
X032292Y010787D02*
X032330Y010787D01*
X032436Y010886D02*
X031642Y010886D01*
X031687Y010787D02*
X031788Y010787D01*
X031782Y011181D02*
X031687Y011181D01*
X032938Y011477D02*
X033366Y011477D01*
X033366Y011575D02*
X032930Y011575D01*
X034284Y011764D02*
X034894Y011764D01*
X033319Y012256D02*
X030760Y012256D01*
X030662Y012158D01*
X030638Y012363D02*
X030171Y012363D01*
X030123Y012659D02*
X030342Y012659D01*
X030244Y012757D02*
X030171Y012757D01*
X030268Y013536D02*
X030957Y012847D01*
X038437Y012847D01*
X038930Y012355D01*
X047788Y012355D01*
X048083Y012650D01*
X048083Y013437D01*
X048477Y013831D01*
X051233Y013831D01*
X051430Y013634D01*
X051430Y013241D01*
X051233Y013241D02*
X051233Y013536D01*
X051134Y013634D01*
X052217Y013733D02*
X052217Y013241D01*
X052414Y013241D02*
X052414Y013831D01*
X052020Y014225D01*
X052020Y014520D01*
X052119Y014717D01*
X051489Y015347D01*
X051489Y015504D01*
X052109Y015417D02*
X052206Y015417D01*
X052206Y015515D02*
X052956Y015515D01*
X052956Y015592D02*
X052657Y015592D01*
X052657Y015780D01*
X052668Y015818D01*
X052687Y015852D01*
X052715Y015880D01*
X052750Y015900D01*
X052788Y015910D01*
X052956Y015910D01*
X052956Y015592D01*
X052956Y015614D02*
X053053Y015614D01*
X053053Y015712D02*
X052956Y015712D01*
X052956Y015811D02*
X053053Y015811D01*
X053053Y015909D02*
X052956Y015909D01*
X052785Y015909D02*
X046562Y015909D01*
X046661Y015811D02*
X049890Y015811D01*
X049843Y015712D02*
X046759Y015712D01*
X046858Y015614D02*
X049843Y015614D01*
X049843Y015456D02*
X049843Y015288D01*
X049853Y015250D01*
X049872Y015215D01*
X049900Y015187D01*
X049935Y015168D01*
X049973Y015157D01*
X050161Y015157D01*
X050161Y015456D01*
X049843Y015456D01*
X049843Y015417D02*
X047055Y015417D01*
X047153Y015318D02*
X049843Y015318D01*
X049870Y015220D02*
X047252Y015220D01*
X046956Y015515D02*
X050161Y015515D01*
X050161Y015417D02*
X050257Y015417D01*
X050257Y015318D02*
X050161Y015318D01*
X050161Y015220D02*
X050257Y015220D01*
X050257Y015614D02*
X050161Y015614D01*
X050161Y015712D02*
X050257Y015712D01*
X050257Y015811D02*
X050161Y015811D01*
X050528Y015811D02*
X051839Y015811D01*
X052109Y015811D02*
X052206Y015811D01*
X052206Y015851D02*
X052206Y015553D01*
X052524Y015553D01*
X052524Y015721D01*
X052514Y015759D01*
X052494Y015793D01*
X052467Y015821D01*
X052432Y015841D01*
X052394Y015851D01*
X052206Y015851D01*
X052206Y015712D02*
X052109Y015712D01*
X052109Y015614D02*
X052206Y015614D01*
X052524Y015614D02*
X052657Y015614D01*
X052657Y015712D02*
X052524Y015712D01*
X052477Y015811D02*
X052666Y015811D01*
X053224Y015909D02*
X053769Y015909D01*
X053772Y015910D02*
X053734Y015900D01*
X053700Y015880D01*
X053672Y015852D01*
X053652Y015818D01*
X053642Y015780D01*
X053642Y015592D01*
X053940Y015592D01*
X053940Y015910D01*
X053772Y015910D01*
X053650Y015811D02*
X053343Y015811D01*
X053351Y015712D02*
X053642Y015712D01*
X053642Y015614D02*
X053351Y015614D01*
X053351Y015417D02*
X053642Y015417D01*
X053642Y015318D02*
X053351Y015318D01*
X053306Y015220D02*
X053687Y015220D01*
X053692Y015121D02*
X053301Y015121D01*
X053301Y015023D02*
X053692Y015023D01*
X053692Y014924D02*
X053301Y014924D01*
X053301Y014826D02*
X053692Y014826D01*
X053692Y014727D02*
X053301Y014727D01*
X053301Y014629D02*
X053692Y014629D01*
X053692Y014530D02*
X053301Y014530D01*
X053301Y014432D02*
X053692Y014432D01*
X053692Y014333D02*
X053301Y014333D01*
X053301Y014235D02*
X053692Y014235D01*
X053692Y014136D02*
X053301Y014136D01*
X053301Y014038D02*
X053692Y014038D01*
X053688Y013939D02*
X053301Y013939D01*
X053004Y014028D02*
X053004Y014225D01*
X053004Y014874D01*
X052707Y014826D02*
X052514Y014826D01*
X052514Y014924D02*
X052707Y014924D01*
X052707Y015023D02*
X052514Y015023D01*
X052707Y015121D02*
X051926Y015121D01*
X052109Y015220D02*
X052206Y015220D01*
X052206Y015318D02*
X052109Y015318D01*
X052497Y015220D02*
X052703Y015220D01*
X052657Y015318D02*
X052524Y015318D01*
X052524Y015417D02*
X052657Y015417D01*
X053053Y015515D02*
X053940Y015515D01*
X054037Y015515D02*
X056945Y015515D01*
X056969Y015456D02*
X057189Y015237D01*
X057475Y015118D01*
X057785Y015118D01*
X058072Y015237D01*
X058291Y015456D01*
X058410Y015743D01*
X058410Y016053D01*
X058291Y016340D01*
X058072Y016559D01*
X057785Y016678D01*
X057475Y016678D01*
X057189Y016559D01*
X056969Y016340D01*
X056850Y016053D01*
X056850Y015743D01*
X056969Y015456D01*
X057008Y015417D02*
X054335Y015417D01*
X054335Y015318D02*
X057107Y015318D01*
X057229Y015220D02*
X054290Y015220D01*
X054285Y015121D02*
X057467Y015121D01*
X057793Y015121D02*
X059055Y015121D01*
X059055Y015023D02*
X054285Y015023D01*
X054285Y014924D02*
X059055Y014924D01*
X059055Y014826D02*
X054285Y014826D01*
X054285Y014727D02*
X059055Y014727D01*
X059055Y014629D02*
X054285Y014629D01*
X054285Y014530D02*
X059055Y014530D01*
X059055Y014432D02*
X054285Y014432D01*
X054285Y014333D02*
X059055Y014333D01*
X059055Y014235D02*
X054285Y014235D01*
X054285Y014136D02*
X059055Y014136D01*
X059055Y014038D02*
X054285Y014038D01*
X054285Y013939D02*
X059055Y013939D01*
X059055Y013841D02*
X055136Y013841D01*
X055182Y013742D02*
X059055Y013742D01*
X059055Y013644D02*
X055182Y013644D01*
X055182Y013447D02*
X059055Y013447D01*
X059055Y013545D02*
X054864Y013545D01*
X054864Y013447D02*
X054767Y013447D01*
X054767Y013348D02*
X054864Y013348D01*
X054864Y013250D02*
X054767Y013250D01*
X054767Y013151D02*
X054864Y013151D01*
X054864Y013053D02*
X059055Y013053D01*
X059055Y013151D02*
X055182Y013151D01*
X055182Y013250D02*
X059055Y013250D01*
X059055Y013348D02*
X055182Y013348D01*
X055182Y012954D02*
X059055Y012954D01*
X059055Y012856D02*
X055182Y012856D01*
X054440Y012490D02*
X054440Y012406D01*
X054178Y012406D01*
X054178Y012453D01*
X053792Y012453D01*
X053792Y012453D01*
X054178Y012453D01*
X054178Y012490D01*
X054440Y012490D01*
X054440Y012462D02*
X054178Y012462D01*
X053792Y012453D02*
X053406Y012453D01*
X053406Y012374D01*
X053416Y012336D01*
X053435Y012302D01*
X053456Y012282D01*
X053456Y012034D01*
X053435Y012014D01*
X053416Y011980D01*
X053406Y011941D01*
X053406Y011863D01*
X053792Y011863D01*
X054178Y011863D01*
X053792Y011863D01*
X053792Y011863D01*
X053792Y011863D01*
X053406Y011863D01*
X053406Y011786D01*
X053164Y012027D01*
X053164Y012387D01*
X053267Y012490D01*
X053406Y012490D01*
X053406Y012453D01*
X053792Y012453D01*
X053792Y012453D01*
X053792Y012256D02*
X054737Y012256D01*
X055033Y012265D02*
X055109Y012265D01*
X055109Y012363D02*
X055033Y012363D01*
X055033Y012462D02*
X055109Y012462D01*
X055109Y012166D02*
X055033Y012166D01*
X055033Y012068D02*
X055109Y012068D01*
X055138Y011969D02*
X055005Y011969D01*
X055033Y011871D02*
X055109Y011871D01*
X055109Y011772D02*
X055033Y011772D01*
X055033Y011674D02*
X055109Y011674D01*
X055109Y011575D02*
X055033Y011575D01*
X055033Y011477D02*
X055109Y011477D01*
X055138Y011378D02*
X055004Y011378D01*
X054737Y011666D02*
X054678Y011666D01*
X054284Y012059D01*
X053792Y012059D01*
X053456Y012068D02*
X053164Y012068D01*
X053164Y012166D02*
X053456Y012166D01*
X053456Y012265D02*
X053164Y012265D01*
X053164Y012363D02*
X053408Y012363D01*
X053406Y012462D02*
X053239Y012462D01*
X052807Y012158D02*
X052807Y011863D01*
X053201Y011469D01*
X053201Y010878D01*
X053103Y010780D01*
X053229Y010590D02*
X053238Y010590D01*
X053179Y010492D02*
X052243Y010492D01*
X052230Y010590D02*
X052977Y010590D01*
X053792Y010485D02*
X054185Y010485D01*
X054579Y010091D01*
X057532Y010091D01*
X057630Y010189D01*
X057630Y010205D01*
X057040Y010288D02*
X054678Y010288D01*
X054284Y010681D01*
X054284Y010780D01*
X054173Y010984D02*
X054128Y010984D01*
X054128Y011280D02*
X057156Y011280D01*
X057182Y011378D02*
X055673Y011378D01*
X055703Y011477D02*
X055798Y011477D01*
X056056Y011666D02*
X055406Y011666D01*
X055703Y011871D02*
X055804Y011871D01*
X055674Y011969D02*
X056486Y011969D01*
X056395Y011871D02*
X056307Y011871D01*
X056313Y011772D02*
X056389Y011772D01*
X056389Y011674D02*
X056313Y011674D01*
X056313Y011575D02*
X056389Y011575D01*
X056389Y011477D02*
X056313Y011477D01*
X056904Y011477D02*
X057234Y011477D01*
X057323Y011575D02*
X056904Y011575D01*
X056897Y011871D02*
X059055Y011871D01*
X059055Y011969D02*
X056806Y011969D01*
X056904Y012068D02*
X059055Y012068D01*
X059055Y012166D02*
X056904Y012166D01*
X056904Y012265D02*
X059055Y012265D01*
X059055Y012363D02*
X056904Y012363D01*
X056897Y012462D02*
X059055Y012462D01*
X059055Y012560D02*
X056765Y012560D01*
X056667Y012659D02*
X059055Y012659D01*
X059055Y012757D02*
X056568Y012757D01*
X056395Y012462D02*
X056306Y012462D01*
X056313Y012363D02*
X056389Y012363D01*
X056389Y012265D02*
X056313Y012265D01*
X056313Y012166D02*
X056389Y012166D01*
X056389Y012068D02*
X056313Y012068D01*
X056056Y012256D02*
X055406Y012256D01*
X055703Y012068D02*
X055798Y012068D01*
X054440Y011674D02*
X054128Y011674D01*
X054128Y011575D02*
X054440Y011575D01*
X054440Y011477D02*
X054128Y011477D01*
X054128Y011378D02*
X054469Y011378D01*
X054359Y011772D02*
X054175Y011772D01*
X054178Y011871D02*
X054260Y011871D01*
X053413Y011969D02*
X053222Y011969D01*
X053321Y011871D02*
X053406Y011871D01*
X052807Y012158D02*
X052020Y012945D01*
X052020Y013241D01*
X052611Y013241D02*
X052611Y013634D01*
X053004Y014028D01*
X052707Y014038D02*
X052514Y014038D01*
X052514Y014136D02*
X052707Y014136D01*
X052707Y014235D02*
X052514Y014235D01*
X052514Y014333D02*
X052707Y014333D01*
X052707Y014432D02*
X052514Y014432D01*
X052514Y014530D02*
X052707Y014530D01*
X052707Y014629D02*
X052514Y014629D01*
X052514Y014727D02*
X052707Y014727D01*
X053989Y014874D02*
X053989Y014225D01*
X053989Y014028D01*
X053693Y013733D01*
X053004Y013733D01*
X052807Y013536D01*
X052807Y013241D01*
X053201Y013241D02*
X053398Y013241D01*
X052605Y013841D02*
X052564Y013841D01*
X052518Y013939D02*
X052704Y013939D01*
X054285Y013841D02*
X054495Y013841D01*
X054767Y013841D02*
X054864Y013841D01*
X054864Y013742D02*
X054767Y013742D01*
X054767Y013644D02*
X054864Y013644D01*
X051036Y013241D02*
X050445Y013241D01*
X050347Y013339D01*
X049176Y013092D02*
X049176Y012995D01*
X048858Y012995D01*
X048858Y012873D01*
X048778Y012873D01*
X048647Y012742D01*
X048647Y012558D01*
X048656Y012549D01*
X048637Y012530D01*
X048637Y013174D01*
X048740Y013277D01*
X048863Y013277D01*
X048858Y013260D01*
X048858Y013092D01*
X049176Y013092D01*
X049176Y013053D02*
X048637Y013053D01*
X048637Y013151D02*
X048858Y013151D01*
X048858Y013250D02*
X048712Y013250D01*
X048637Y012954D02*
X048858Y012954D01*
X048761Y012856D02*
X048637Y012856D01*
X048637Y012757D02*
X048663Y012757D01*
X048647Y012659D02*
X048637Y012659D01*
X048637Y012560D02*
X048647Y012560D01*
X048870Y012552D02*
X048870Y012650D01*
X048870Y012552D02*
X048083Y011764D01*
X038142Y011764D01*
X037552Y012355D01*
X036370Y012355D01*
X038542Y012954D02*
X047933Y012954D01*
X047933Y012856D02*
X038640Y012856D01*
X038739Y012757D02*
X047933Y012757D01*
X047880Y012659D02*
X038837Y012659D01*
X038936Y012560D02*
X047781Y012560D01*
X047933Y013053D02*
X030963Y013053D01*
X030865Y013151D02*
X047933Y013151D01*
X047933Y013250D02*
X030766Y013250D01*
X030668Y013348D02*
X047933Y013348D01*
X047933Y013447D02*
X030569Y013447D01*
X030268Y013536D02*
X028693Y013536D01*
X022885Y011575D02*
X022488Y011575D01*
X022197Y012217D02*
X021705Y012217D01*
X021855Y011181D02*
X021881Y011181D01*
X021881Y011083D02*
X021855Y011083D01*
X021855Y010984D02*
X033366Y010984D01*
X038450Y011181D02*
X045596Y011181D01*
X046629Y010295D02*
X047270Y010295D01*
X047270Y010196D02*
X046531Y010196D01*
X046432Y010098D02*
X047367Y010098D01*
X047493Y010288D02*
X047591Y010386D01*
X048772Y010386D01*
X049658Y011272D01*
X050445Y011272D01*
X050109Y011083D02*
X049681Y011083D01*
X049582Y010984D02*
X050109Y010984D01*
X050109Y010886D02*
X049484Y010886D01*
X049385Y010787D02*
X050066Y010787D01*
X050059Y010689D02*
X049287Y010689D01*
X049188Y010590D02*
X050062Y010590D01*
X050109Y010492D02*
X049090Y010492D01*
X047283Y010393D02*
X046728Y010393D01*
X047411Y009113D02*
X047574Y009113D01*
X047530Y009014D02*
X047455Y009014D01*
X047455Y008916D02*
X047530Y008916D01*
X047158Y008811D02*
X046902Y008811D01*
X046804Y008713D01*
X046804Y008418D01*
X046805Y007635D02*
X046529Y007635D01*
X046461Y007537D02*
X046652Y007537D01*
X046554Y007438D02*
X046461Y007438D01*
X046787Y006355D02*
X046833Y006355D01*
X046787Y006059D02*
X049773Y006059D01*
X049773Y005961D02*
X046787Y005961D01*
X046787Y005862D02*
X049773Y005862D01*
X049773Y005764D02*
X046787Y005764D01*
X046787Y005468D02*
X047382Y005468D01*
X047284Y005370D02*
X046787Y005370D01*
X047100Y005271D02*
X047185Y005271D01*
X048060Y004680D02*
X049847Y004680D01*
X049823Y004582D02*
X048159Y004582D01*
X048203Y004483D02*
X049823Y004483D01*
X049823Y004385D02*
X048233Y004385D01*
X048233Y004286D02*
X049823Y004286D01*
X049823Y004188D02*
X048214Y004188D01*
X048173Y004089D02*
X049823Y004089D01*
X050317Y004188D02*
X050417Y004188D01*
X050417Y004286D02*
X050317Y004286D01*
X050317Y004385D02*
X050417Y004385D01*
X050417Y004483D02*
X050317Y004483D01*
X050317Y004582D02*
X050417Y004582D01*
X050417Y004680D02*
X050317Y004680D01*
X050886Y004680D02*
X051309Y004680D01*
X051290Y004582D02*
X050910Y004582D01*
X050910Y004483D02*
X051290Y004483D01*
X051290Y004385D02*
X050910Y004385D01*
X050910Y004286D02*
X051290Y004286D01*
X051290Y004188D02*
X050910Y004188D01*
X050910Y004089D02*
X051290Y004089D01*
X050417Y003892D02*
X050317Y003892D01*
X050317Y003794D02*
X050417Y003794D01*
X050417Y003695D02*
X050317Y003695D01*
X050317Y003597D02*
X050417Y003597D01*
X050417Y003498D02*
X050317Y003498D01*
X050317Y003400D02*
X050417Y003400D01*
X050417Y003301D02*
X050317Y003301D01*
X050317Y003203D02*
X050417Y003203D01*
X049857Y003203D02*
X047150Y003203D01*
X047150Y003301D02*
X049823Y003301D01*
X050988Y003006D02*
X047129Y003006D01*
X047150Y003104D02*
X051114Y003104D01*
X053820Y002218D02*
X053920Y002218D01*
X053920Y002119D02*
X053820Y002119D01*
X053820Y002021D02*
X053920Y002021D01*
X053920Y001922D02*
X053820Y001922D01*
X053820Y001824D02*
X053920Y001824D01*
X047513Y001922D02*
X047100Y001922D01*
X047064Y001824D02*
X047415Y001824D01*
X045798Y002415D02*
X045735Y002415D01*
X046399Y003006D02*
X046499Y003006D01*
X046499Y003104D02*
X046399Y003104D01*
X046399Y003203D02*
X046499Y003203D01*
X046499Y003301D02*
X046399Y003301D01*
X046399Y003597D02*
X046499Y003597D01*
X046499Y003695D02*
X046399Y003695D01*
X046399Y003794D02*
X046499Y003794D01*
X045703Y004385D02*
X045674Y004385D01*
X049743Y004976D02*
X050734Y004976D01*
X050700Y005074D02*
X049778Y005074D01*
X049778Y005173D02*
X050700Y005173D01*
X050700Y005271D02*
X049778Y005271D01*
X049778Y005370D02*
X050700Y005370D01*
X050700Y005468D02*
X049778Y005468D01*
X049778Y005567D02*
X049892Y005567D01*
X049793Y005665D02*
X049778Y005665D01*
X050507Y005567D02*
X050733Y005567D01*
X050700Y005665D02*
X050632Y005665D01*
X050626Y005665D02*
X050605Y005665D01*
X051294Y005271D02*
X051369Y005271D01*
X051316Y005173D02*
X051293Y005173D01*
X051293Y005074D02*
X051309Y005074D01*
X051309Y004976D02*
X051259Y004976D01*
X051669Y004877D02*
X051909Y004877D01*
X051928Y004976D02*
X052008Y004976D01*
X051963Y005074D02*
X052097Y005074D01*
X052097Y005173D02*
X051963Y005173D01*
X051963Y005271D02*
X052097Y005271D01*
X052097Y005370D02*
X051963Y005370D01*
X051963Y005468D02*
X052099Y005468D01*
X051929Y005567D02*
X053045Y005567D01*
X053004Y005819D02*
X053595Y005229D01*
X053911Y005271D02*
X059055Y005271D01*
X059055Y005173D02*
X053911Y005173D01*
X053911Y005074D02*
X059055Y005074D01*
X059055Y004976D02*
X053897Y004976D01*
X053911Y005370D02*
X053921Y005370D01*
X054293Y005370D02*
X054393Y005370D01*
X054393Y005354D02*
X054717Y005354D01*
X054755Y005365D01*
X054789Y005384D01*
X054817Y005412D01*
X054837Y005446D01*
X054847Y005485D01*
X054847Y005671D01*
X054393Y005671D01*
X054393Y005354D01*
X054393Y005468D02*
X054293Y005468D01*
X054293Y005567D02*
X054393Y005567D01*
X054393Y005665D02*
X054293Y005665D01*
X054393Y005764D02*
X056734Y005764D01*
X056734Y005771D02*
X056734Y005671D01*
X056280Y005671D01*
X056280Y005485D01*
X056290Y005446D01*
X056309Y005412D01*
X056337Y005384D01*
X056372Y005365D01*
X056410Y005354D01*
X056734Y005354D01*
X056734Y005671D01*
X056834Y005671D01*
X056834Y005771D01*
X056734Y005771D01*
X056734Y006087D01*
X056410Y006087D01*
X056372Y006077D01*
X056337Y006057D01*
X056309Y006030D01*
X056290Y005995D01*
X056280Y005957D01*
X056280Y005771D01*
X056734Y005771D01*
X056734Y005862D02*
X056834Y005862D01*
X056834Y005771D02*
X056834Y006087D01*
X057158Y006087D01*
X057196Y006077D01*
X057230Y006057D01*
X057258Y006030D01*
X057278Y005995D01*
X057288Y005957D01*
X057288Y005771D01*
X056834Y005771D01*
X056834Y005764D02*
X059055Y005764D01*
X059055Y005862D02*
X057288Y005862D01*
X057287Y005961D02*
X059055Y005961D01*
X059055Y006059D02*
X057227Y006059D01*
X056834Y006059D02*
X056734Y006059D01*
X056734Y005961D02*
X056834Y005961D01*
X056341Y006059D02*
X054786Y006059D01*
X054789Y006057D02*
X054755Y006077D01*
X054717Y006087D01*
X054393Y006087D01*
X054393Y005771D01*
X054847Y005771D01*
X054847Y005957D01*
X054837Y005995D01*
X054817Y006030D01*
X054789Y006057D01*
X054846Y005961D02*
X056281Y005961D01*
X056280Y005862D02*
X054847Y005862D01*
X054847Y005665D02*
X056280Y005665D01*
X056280Y005567D02*
X054847Y005567D01*
X054843Y005468D02*
X056284Y005468D01*
X056362Y005370D02*
X054764Y005370D01*
X054393Y005862D02*
X054293Y005862D01*
X054293Y005961D02*
X054393Y005961D01*
X054393Y006059D02*
X054293Y006059D01*
X053083Y005977D02*
X053083Y006528D01*
X052718Y006552D02*
X052700Y006552D01*
X052700Y006650D02*
X052718Y006650D01*
X052718Y006749D02*
X052700Y006749D01*
X052700Y006847D02*
X052718Y006847D01*
X053409Y007044D02*
X053889Y007044D01*
X053889Y006946D02*
X053507Y006946D01*
X053606Y006847D02*
X057380Y006847D01*
X057281Y006946D02*
X057238Y006946D01*
X056330Y006946D02*
X054797Y006946D01*
X054797Y007340D02*
X056330Y007340D01*
X056332Y007438D02*
X054794Y007438D01*
X052335Y006528D02*
X052335Y005977D01*
X052414Y005898D01*
X052097Y005862D02*
X051963Y005862D01*
X051963Y005764D02*
X052097Y005764D01*
X052097Y005665D02*
X051963Y005665D01*
X051963Y005961D02*
X052097Y005961D01*
X052097Y006059D02*
X051963Y006059D01*
X052000Y006158D02*
X052119Y006158D01*
X052117Y006256D02*
X052032Y006256D01*
X052032Y006355D02*
X052117Y006355D01*
X053004Y005898D02*
X053004Y005819D01*
X053004Y005898D02*
X053083Y005977D01*
X051811Y004779D02*
X051669Y004779D01*
X054390Y004680D02*
X059055Y004680D01*
X059055Y004582D02*
X054414Y004582D01*
X054414Y004483D02*
X059055Y004483D01*
X059055Y004385D02*
X054414Y004385D01*
X054414Y004286D02*
X059055Y004286D01*
X059055Y004188D02*
X054414Y004188D01*
X054414Y004089D02*
X059055Y004089D01*
X059055Y005370D02*
X057205Y005370D01*
X057196Y005365D02*
X057230Y005384D01*
X057258Y005412D01*
X057278Y005446D01*
X057288Y005485D01*
X057288Y005671D01*
X056834Y005671D01*
X056834Y005354D01*
X057158Y005354D01*
X057196Y005365D01*
X057284Y005468D02*
X059055Y005468D01*
X059055Y005567D02*
X057288Y005567D01*
X057288Y005665D02*
X059055Y005665D01*
X056834Y005665D02*
X056734Y005665D01*
X056734Y005567D02*
X056834Y005567D01*
X056834Y005468D02*
X056734Y005468D01*
X056734Y005370D02*
X056834Y005370D01*
X052020Y009599D02*
X052020Y009894D01*
X042561Y007832D02*
X038396Y007832D01*
X038495Y007734D02*
X042463Y007734D01*
X042364Y007635D02*
X038593Y007635D01*
X038692Y007537D02*
X042266Y007537D01*
X042167Y007438D02*
X038790Y007438D01*
X038765Y007340D02*
X042069Y007340D01*
X041970Y007241D02*
X038987Y007241D01*
X039086Y007143D02*
X041872Y007143D01*
X041773Y007044D02*
X039184Y007044D01*
X039283Y006946D02*
X041675Y006946D01*
X041576Y006847D02*
X039380Y006847D01*
X039407Y006749D02*
X041478Y006749D01*
X041379Y006650D02*
X039361Y006650D01*
X039262Y006552D02*
X041281Y006552D01*
X041182Y006453D02*
X039164Y006453D01*
X039065Y006355D02*
X041084Y006355D01*
X040985Y006256D02*
X038966Y006256D01*
X039009Y006355D02*
X038867Y006355D01*
X038910Y006453D02*
X038769Y006453D01*
X038812Y006552D02*
X038670Y006552D01*
X038713Y006650D02*
X038572Y006650D01*
X038615Y006749D02*
X038473Y006749D01*
X037805Y006552D02*
X034257Y006552D01*
X034257Y006650D02*
X037706Y006650D01*
X037608Y006749D02*
X034257Y006749D01*
X034257Y006847D02*
X037509Y006847D01*
X037411Y006946D02*
X034257Y006946D01*
X034257Y007044D02*
X037381Y007044D01*
X037425Y007143D02*
X034257Y007143D01*
X034257Y007241D02*
X037523Y007241D01*
X037622Y007340D02*
X034257Y007340D01*
X038470Y007044D02*
X038611Y007044D01*
X038568Y007143D02*
X038710Y007143D01*
X038667Y007241D02*
X038808Y007241D01*
X038868Y006158D02*
X040887Y006158D01*
X030508Y002907D02*
X030479Y002907D01*
X028726Y002907D02*
X028629Y002907D01*
X028629Y002809D02*
X028726Y002809D01*
X028726Y002710D02*
X028629Y002710D01*
X028629Y002415D02*
X028726Y002415D01*
X028726Y002316D02*
X028629Y002316D01*
X028629Y002218D02*
X028726Y002218D01*
X028726Y002119D02*
X028629Y002119D01*
X019885Y002119D02*
X019785Y002119D01*
X019785Y002218D02*
X019885Y002218D01*
X019885Y002316D02*
X019785Y002316D01*
X019785Y002415D02*
X019885Y002415D01*
X019885Y002513D02*
X019785Y002513D01*
X019785Y002612D02*
X019885Y002612D01*
X019885Y002710D02*
X019785Y002710D01*
X019785Y002809D02*
X019885Y002809D01*
X021855Y010886D02*
X021886Y010886D01*
X012638Y016796D02*
X000654Y016796D01*
X000753Y016894D02*
X012539Y016894D01*
X012441Y016993D02*
X000851Y016993D01*
X000967Y017091D02*
X012342Y017091D01*
X012244Y017190D02*
X001137Y017190D01*
X001456Y017288D02*
X012145Y017288D01*
X041498Y013545D02*
X047979Y013545D01*
X048077Y013644D02*
X041597Y013644D01*
X041695Y013742D02*
X048176Y013742D01*
X048274Y013841D02*
X041794Y013841D01*
X041882Y013939D02*
X048373Y013939D01*
X047757Y014629D02*
X047269Y014629D01*
X046408Y014333D02*
X041882Y014333D01*
X041882Y014235D02*
X046506Y014235D01*
X046309Y014432D02*
X041882Y014432D01*
X041882Y014530D02*
X046211Y014530D01*
X046112Y014629D02*
X041882Y014629D01*
X041882Y014727D02*
X046014Y014727D01*
X045915Y014826D02*
X041882Y014826D01*
X041882Y014924D02*
X045817Y014924D01*
X045718Y015023D02*
X041882Y015023D01*
X041882Y015121D02*
X045620Y015121D01*
X045588Y015220D02*
X041882Y015220D01*
X041882Y015318D02*
X045671Y015318D01*
X045769Y015417D02*
X041882Y015417D01*
X041882Y015515D02*
X045868Y015515D01*
X045966Y015614D02*
X041882Y015614D01*
X041882Y015712D02*
X046065Y015712D01*
X046163Y015811D02*
X041882Y015811D01*
X041882Y015909D02*
X046262Y015909D01*
X046360Y016008D02*
X041882Y016008D01*
X041882Y016106D02*
X056872Y016106D01*
X056850Y016008D02*
X046464Y016008D01*
X042485Y017288D02*
X057899Y017288D01*
X058218Y017190D02*
X042387Y017190D01*
X042288Y017091D02*
X058388Y017091D01*
X058504Y016993D02*
X042190Y016993D01*
X042091Y016894D02*
X058602Y016894D01*
X058701Y016796D02*
X041993Y016796D01*
X041894Y016697D02*
X058799Y016697D01*
X058857Y016599D02*
X057976Y016599D01*
X058131Y016500D02*
X058914Y016500D01*
X058958Y016402D02*
X058229Y016402D01*
X058307Y016303D02*
X058984Y016303D01*
X059011Y016205D02*
X058347Y016205D01*
X058388Y016106D02*
X059037Y016106D01*
X059048Y016008D02*
X058410Y016008D01*
X058410Y015909D02*
X059054Y015909D01*
X059055Y015811D02*
X058410Y015811D01*
X058398Y015712D02*
X059055Y015712D01*
X059055Y015614D02*
X058357Y015614D01*
X058316Y015515D02*
X059055Y015515D01*
X059055Y015417D02*
X058252Y015417D01*
X058154Y015318D02*
X059055Y015318D01*
X059055Y015220D02*
X058031Y015220D01*
X056904Y015614D02*
X054335Y015614D01*
X054335Y015712D02*
X056863Y015712D01*
X056850Y015811D02*
X054327Y015811D01*
X054208Y015909D02*
X056850Y015909D01*
X056913Y016205D02*
X041882Y016205D01*
X041882Y016303D02*
X056954Y016303D01*
X057031Y016402D02*
X041882Y016402D01*
X041882Y016500D02*
X057130Y016500D01*
X057284Y016599D02*
X041882Y016599D01*
X053940Y015909D02*
X054037Y015909D01*
X054037Y015811D02*
X053940Y015811D01*
X053940Y015712D02*
X054037Y015712D01*
X054037Y015614D02*
X053940Y015614D01*
D44*
X053496Y015504D03*
X054481Y015504D03*
X054481Y015209D03*
X054481Y014914D03*
X053496Y014914D03*
X053496Y015209D03*
X052611Y015209D03*
X052611Y014914D03*
X052611Y014619D03*
X052611Y014323D03*
X052611Y014028D03*
X051823Y013634D03*
X053398Y013241D03*
X051823Y012748D03*
X051331Y012355D03*
X053300Y012355D03*
X053300Y012059D03*
X054284Y011666D03*
X054284Y011370D03*
X054284Y010780D03*
X053103Y010780D03*
X052512Y010780D03*
X052020Y010485D03*
X051331Y010780D03*
X049953Y010681D03*
X049166Y009993D03*
X047493Y010288D03*
X046607Y009993D03*
X044638Y010386D03*
X044638Y010780D03*
X045032Y010780D03*
X045819Y011272D03*
X043063Y010780D03*
X041882Y010780D03*
X040701Y010386D03*
X039126Y010386D03*
X038241Y011075D03*
X038241Y012158D03*
X036370Y012355D03*
X034894Y011764D03*
X035189Y013142D03*
X035977Y013142D03*
X036764Y013142D03*
X037552Y013142D03*
X038339Y013142D03*
X039126Y013142D03*
X039914Y013142D03*
X040701Y013142D03*
X041489Y013142D03*
X041882Y012748D03*
X043063Y012748D03*
X044244Y012748D03*
X043457Y013536D03*
X042276Y013930D03*
X041882Y013536D03*
X045032Y013536D03*
X046607Y013142D03*
X046607Y012748D03*
X047788Y012748D03*
X048772Y013044D03*
X048870Y012650D03*
X050347Y013339D03*
X047788Y013536D03*
X048870Y014225D03*
X049756Y014225D03*
X049756Y014815D03*
X048181Y015111D03*
X047886Y014815D03*
X049756Y015504D03*
X052611Y015504D03*
X052611Y015800D03*
X052611Y016095D03*
X052906Y016095D03*
X053201Y016095D03*
X053496Y016095D03*
X053496Y015800D03*
X053792Y016095D03*
X054185Y016095D03*
X054481Y016095D03*
X054481Y015800D03*
X056056Y015504D03*
X054481Y014619D03*
X054481Y014323D03*
X053496Y014323D03*
X053496Y014619D03*
X053496Y014028D03*
X054481Y014028D03*
X055268Y013536D03*
X055268Y013044D03*
X058418Y012748D03*
X058418Y011961D03*
X058418Y011174D03*
X058418Y010386D03*
X058615Y009599D03*
X056843Y009205D03*
X055268Y009205D03*
X053693Y008615D03*
X053300Y008024D03*
X052611Y007827D03*
X051922Y008122D03*
X050347Y008024D03*
X049658Y007827D03*
X049067Y007827D03*
X049855Y008615D03*
X050544Y008910D03*
X052020Y008910D03*
X053103Y009402D03*
X058615Y008811D03*
X058615Y008024D03*
X058418Y007237D03*
X058418Y006449D03*
X058418Y005662D03*
X058418Y004874D03*
X058418Y004087D03*
X057237Y004087D03*
X056056Y004087D03*
X053103Y004185D03*
X053103Y003792D03*
X053693Y002906D03*
X054087Y002906D03*
X054087Y002512D03*
X053693Y002512D03*
X055268Y001725D03*
X056056Y001725D03*
X056056Y002906D03*
X050544Y002906D03*
X050150Y002906D03*
X050150Y002512D03*
X050544Y002512D03*
X048969Y001626D03*
X046607Y001626D03*
X045819Y001626D03*
X045032Y001725D03*
X044244Y001725D03*
X043457Y001725D03*
X042670Y001725D03*
X041882Y001725D03*
X040701Y001725D03*
X039914Y001725D03*
X039126Y001725D03*
X038339Y001725D03*
X037552Y001725D03*
X036764Y001725D03*
X035977Y001725D03*
X035189Y001725D03*
X034402Y001725D03*
X033615Y001725D03*
X032827Y001725D03*
X032040Y001725D03*
X031252Y001725D03*
X030465Y001725D03*
X029678Y001725D03*
X028890Y001725D03*
X028103Y001725D03*
X027315Y001725D03*
X026528Y001725D03*
X025741Y001725D03*
X024953Y001725D03*
X024166Y001725D03*
X023378Y001725D03*
X022591Y001725D03*
X021804Y001725D03*
X021016Y001725D03*
X020229Y001725D03*
X019441Y001725D03*
X018654Y001725D03*
X020426Y002512D03*
X019343Y003201D03*
X019835Y003890D03*
X020819Y003890D03*
X021804Y004087D03*
X023378Y004087D03*
X024953Y004087D03*
X026528Y004087D03*
X028103Y004087D03*
X029678Y004087D03*
X031252Y004087D03*
X032827Y004087D03*
X034402Y004087D03*
X035977Y004087D03*
X037552Y004087D03*
X038044Y003004D03*
X042670Y004087D03*
X044244Y004087D03*
X046213Y004087D03*
X046607Y004087D03*
X047000Y004087D03*
X044244Y005662D03*
X042670Y006056D03*
X042178Y005760D03*
X043457Y006843D03*
X044244Y007630D03*
X042276Y008024D03*
X040701Y007237D03*
X039126Y007237D03*
X037552Y007237D03*
X035977Y007237D03*
X034402Y007237D03*
X032827Y007237D03*
X031252Y007237D03*
X030071Y006843D03*
X029284Y006843D03*
X029678Y005662D03*
X031252Y005662D03*
X032827Y005662D03*
X034402Y005662D03*
X035977Y005662D03*
X037552Y005662D03*
X045032Y008418D03*
X043063Y008811D03*
X043851Y009599D03*
X045819Y009205D03*
X040701Y008811D03*
X037552Y008811D03*
X035977Y008811D03*
X034402Y008811D03*
X032827Y008811D03*
X031252Y008811D03*
X028103Y008811D03*
X026528Y008811D03*
X024953Y008811D03*
X021804Y008811D03*
X020229Y008811D03*
X018654Y008811D03*
X017079Y008811D03*
X015504Y008811D03*
X012748Y008811D03*
X011174Y008811D03*
X009599Y008811D03*
X008811Y009304D03*
X008221Y009304D03*
X008024Y008811D03*
X006449Y008811D03*
X004874Y008811D03*
X003300Y008811D03*
X000937Y008811D03*
X000937Y009599D03*
X000937Y010386D03*
X000937Y011174D03*
X000937Y011961D03*
X000937Y012748D03*
X000937Y013536D03*
X000937Y014323D03*
X002119Y014323D03*
X003300Y014323D03*
X004284Y014520D03*
X004284Y014914D03*
X004284Y015307D03*
X004284Y015701D03*
X004678Y015701D03*
X005071Y015701D03*
X003300Y015504D03*
X003300Y016685D03*
X004087Y016685D03*
X004874Y016685D03*
X005662Y016685D03*
X006449Y016685D03*
X007237Y016685D03*
X008024Y016685D03*
X008811Y016685D03*
X009599Y016685D03*
X010386Y016685D03*
X011174Y016685D03*
X011961Y016685D03*
X012355Y016292D03*
X012355Y015504D03*
X012355Y014717D03*
X012355Y013930D03*
X012748Y013536D03*
X013142Y013142D03*
X013930Y013142D03*
X014717Y013142D03*
X015504Y013142D03*
X016292Y013142D03*
X017079Y013142D03*
X018654Y013142D03*
X019441Y013142D03*
X021016Y013142D03*
X024953Y013142D03*
X025741Y013142D03*
X026528Y013142D03*
X027315Y013142D03*
X026528Y011961D03*
X024953Y011961D03*
X028103Y011961D03*
X031252Y013142D03*
X032040Y013142D03*
X032827Y013142D03*
X033615Y013142D03*
X034402Y013142D03*
X042276Y014717D03*
X043457Y015111D03*
X042276Y015504D03*
X042276Y016292D03*
X042670Y016685D03*
X043457Y016685D03*
X044244Y016685D03*
X045032Y016685D03*
X045819Y016685D03*
X046607Y016685D03*
X047394Y016685D03*
X048181Y016685D03*
X048969Y016685D03*
X049756Y016685D03*
X050544Y016685D03*
X051331Y016685D03*
X052119Y016685D03*
X052906Y016685D03*
X053693Y016685D03*
X054481Y016685D03*
X055268Y016685D03*
X056056Y016685D03*
X056056Y014323D03*
X057237Y014323D03*
X058418Y014323D03*
X058418Y013536D03*
X045032Y015111D03*
X028103Y010386D03*
X026528Y010386D03*
X024953Y010386D03*
X020229Y010386D03*
X018654Y010386D03*
X017079Y010386D03*
X015504Y010386D03*
X012748Y010386D03*
X011174Y010386D03*
X007532Y010386D03*
X006252Y010386D03*
X004678Y010386D03*
X003300Y011961D03*
X006843Y013536D03*
X006843Y013930D03*
X008221Y012945D03*
X012748Y011961D03*
X015504Y011961D03*
X008319Y015701D03*
X000937Y008024D03*
X000937Y007237D03*
X000937Y006449D03*
X003300Y007237D03*
X004874Y007237D03*
X006449Y007237D03*
X008024Y007237D03*
X009008Y007827D03*
X010189Y007827D03*
X011370Y007827D03*
X011961Y007237D03*
X012945Y006843D03*
X013536Y006843D03*
X013930Y006843D03*
X013930Y007237D03*
X013536Y007237D03*
X016095Y007040D03*
X019835Y005859D03*
X020819Y005859D03*
X021804Y005662D03*
X023378Y005662D03*
X024953Y005662D03*
X026528Y005662D03*
X028103Y005662D03*
X021804Y007237D03*
X021016Y006449D03*
X016292Y004087D03*
X015898Y004087D03*
X016292Y003693D03*
X016292Y003300D03*
X013930Y004087D03*
X013536Y004087D03*
X013536Y003693D03*
X013536Y003300D03*
X012059Y002709D03*
X011764Y002709D03*
X011764Y002414D03*
X012059Y002414D03*
X011174Y001725D03*
X010386Y001725D03*
X009599Y001725D03*
X008811Y001725D03*
X008024Y001725D03*
X007237Y001725D03*
X006449Y001725D03*
X005662Y001725D03*
X004874Y001725D03*
X004087Y001725D03*
X003300Y001725D03*
X003300Y002906D03*
X004874Y002906D03*
X006449Y002906D03*
X008024Y002906D03*
X009599Y002906D03*
X008024Y004087D03*
X006449Y004087D03*
X004874Y004087D03*
X003300Y004087D03*
X002119Y004087D03*
X000937Y004087D03*
X000937Y004874D03*
X000937Y005662D03*
X004874Y005662D03*
X006449Y005662D03*
X008024Y005662D03*
X047099Y006252D03*
X048083Y006056D03*
X050052Y006056D03*
X050347Y006056D03*
X050347Y005760D03*
X050052Y005760D03*
X052611Y006941D03*
X052119Y007040D03*
D45*
X048870Y008024D02*
X048870Y008516D01*
X048772Y008615D01*
X048477Y008615D01*
X048870Y008024D02*
X048772Y007926D01*
X048181Y007926D01*
X047808Y007552D01*
X047709Y007552D01*
X053693Y009697D02*
X054284Y009107D01*
X054284Y009067D01*
X053693Y009697D02*
X053693Y009737D01*
X053536Y009894D01*
X053201Y009894D01*
X053201Y010288D01*
X053398Y010485D01*
X053398Y011567D01*
X053004Y011961D01*
X053004Y012453D01*
X053201Y012650D01*
X053792Y012650D01*
X054087Y012650D01*
X054146Y012709D01*
X054146Y013044D01*
X054087Y012650D02*
X056449Y012650D01*
X056646Y012453D01*
X056646Y012256D01*
X056646Y011666D01*
X053201Y010288D02*
X052020Y010288D01*
X052020Y010485D01*
X052020Y010288D02*
X050937Y010288D01*
X050839Y010386D01*
X050839Y010485D01*
X050445Y010485D01*
X050445Y010150D01*
X050288Y009993D01*
X050839Y010485D02*
X050839Y012748D01*
X050937Y012847D01*
X050741Y013044D01*
X049894Y013044D01*
X049894Y013300D01*
X049756Y013437D01*
X048674Y013437D01*
X048477Y013241D01*
X048477Y012453D01*
X047985Y011961D01*
X038437Y011961D01*
X038241Y012158D01*
X038241Y011075D02*
X037945Y011075D01*
X037059Y010189D01*
X033615Y010189D01*
X032827Y009402D01*
X025150Y009402D01*
X024658Y008910D01*
X024658Y007926D01*
X024166Y007433D01*
X023477Y007433D01*
X022552Y007433D01*
X019475Y003496D02*
X019475Y002930D01*
X019638Y002930D01*
X019638Y002850D01*
X019475Y002850D01*
X019475Y002219D01*
X019486Y002178D01*
X019507Y002142D01*
X019537Y002112D01*
X019573Y002091D01*
X019614Y002080D01*
X019638Y002080D01*
X019638Y001097D01*
X017276Y001097D01*
X017276Y003496D01*
X018475Y003496D01*
X018475Y002930D01*
X018795Y002930D01*
X018795Y002850D01*
X018875Y002850D01*
X018875Y002080D01*
X019056Y002080D01*
X019097Y002091D01*
X019133Y002112D01*
X019163Y002142D01*
X019184Y002178D01*
X019195Y002219D01*
X019195Y002850D01*
X018875Y002850D01*
X018875Y002930D01*
X019195Y002930D01*
X019195Y003496D01*
X019475Y003496D01*
X019475Y003426D02*
X019195Y003426D01*
X019195Y003307D02*
X019475Y003307D01*
X019475Y003189D02*
X019195Y003189D01*
X019195Y003070D02*
X019475Y003070D01*
X019475Y002952D02*
X019195Y002952D01*
X019195Y002833D02*
X019475Y002833D01*
X019475Y002715D02*
X019195Y002715D01*
X019195Y002596D02*
X019475Y002596D01*
X019475Y002478D02*
X019195Y002478D01*
X019195Y002359D02*
X019475Y002359D01*
X019475Y002241D02*
X019195Y002241D01*
X019144Y002122D02*
X019527Y002122D01*
X019638Y002004D02*
X017276Y002004D01*
X017276Y002122D02*
X018527Y002122D01*
X018537Y002112D02*
X018573Y002091D01*
X018614Y002080D01*
X018795Y002080D01*
X018795Y002850D01*
X018475Y002850D01*
X018475Y002219D01*
X018486Y002178D01*
X018507Y002142D01*
X018537Y002112D01*
X018475Y002241D02*
X017276Y002241D01*
X017276Y002359D02*
X018475Y002359D01*
X018475Y002478D02*
X017276Y002478D01*
X017276Y002596D02*
X018475Y002596D01*
X018475Y002715D02*
X017276Y002715D01*
X017276Y002833D02*
X018475Y002833D01*
X018475Y002952D02*
X017276Y002952D01*
X017276Y003070D02*
X018475Y003070D01*
X018475Y003189D02*
X017276Y003189D01*
X017276Y003307D02*
X018475Y003307D01*
X018475Y003426D02*
X017276Y003426D01*
X018795Y002833D02*
X018875Y002833D01*
X018875Y002715D02*
X018795Y002715D01*
X018795Y002596D02*
X018875Y002596D01*
X018875Y002478D02*
X018795Y002478D01*
X018795Y002359D02*
X018875Y002359D01*
X018875Y002241D02*
X018795Y002241D01*
X018795Y002122D02*
X018875Y002122D01*
X019638Y001885D02*
X017276Y001885D01*
X017276Y001767D02*
X019638Y001767D01*
X019638Y001648D02*
X017276Y001648D01*
X017276Y001530D02*
X019638Y001530D01*
X019638Y001411D02*
X017276Y001411D01*
X017276Y001293D02*
X019638Y001293D01*
X019638Y001174D02*
X017276Y001174D01*
X054284Y009737D02*
X054619Y009737D01*
X054776Y009894D01*
X057237Y009894D01*
X057433Y009697D01*
X057827Y009697D01*
X058122Y009402D01*
X058122Y008697D01*
X057630Y008205D01*
X051626Y012945D02*
X051528Y012847D01*
X050937Y012847D01*
X051626Y012945D02*
X051626Y013241D01*
X053398Y013241D02*
X053693Y013536D01*
X054146Y013536D01*
X047886Y014815D02*
X047296Y014815D01*
X046859Y015252D01*
X046551Y015055D01*
X007729Y015248D02*
X007138Y015248D01*
D46*
X004715Y013575D02*
X004715Y012711D01*
X005071Y012355D01*
X006449Y012355D01*
X006843Y011961D01*
X006843Y010977D01*
X007040Y010780D01*
X007630Y010780D01*
X007774Y010924D01*
X007774Y011528D01*
X008274Y011528D02*
X008274Y012211D01*
X008418Y012355D01*
X009441Y012355D01*
X009796Y012000D01*
X010189Y011567D02*
X008811Y011567D01*
X008774Y011530D01*
X008774Y011528D01*
X008774Y010721D01*
X008811Y010426D01*
X008221Y010426D02*
X008274Y010721D01*
X008274Y011528D01*
X009422Y011134D02*
X009422Y010465D01*
X009796Y010091D01*
X010170Y011134D02*
X010170Y011548D01*
X010189Y011567D01*
X011272Y011567D01*
X011666Y011174D01*
X011666Y008319D01*
X012355Y007630D01*
X019343Y007630D01*
X020426Y006548D01*
X020426Y002906D01*
X020441Y002890D01*
X020835Y002890D01*
X020426Y002906D02*
X020426Y002512D01*
X018835Y004890D02*
X018638Y004890D01*
X018063Y005465D01*
X016587Y005465D01*
X016489Y005367D01*
X016489Y005268D01*
X016469Y005288D01*
X016469Y005485D01*
X016489Y005504D01*
X015288Y005465D02*
X014914Y005485D01*
X015288Y005465D02*
X012807Y005465D01*
X011115Y005465D02*
X010504Y005465D01*
X009717Y006252D01*
X005465Y011475D02*
X005268Y011475D01*
X005215Y011528D01*
X046607Y007237D02*
X046607Y005071D01*
X046508Y004973D01*
X046449Y004953D02*
X046607Y005052D01*
X046607Y005071D01*
X049953Y005760D02*
X049953Y006056D01*
X050052Y006154D01*
X050347Y006154D01*
X050445Y006056D01*
X050445Y005760D01*
X050347Y005662D01*
X050052Y005662D01*
X049953Y005760D01*
X049953Y005851D02*
X050445Y005851D01*
X050445Y005957D02*
X050642Y005859D01*
X051036Y005859D01*
X050996Y005859D02*
X050996Y006449D01*
X050741Y006449D01*
X050544Y006646D01*
X050485Y006705D01*
X049658Y006705D01*
X049658Y006744D01*
X049756Y006843D01*
X049658Y006705D02*
X049658Y006351D01*
X049559Y006252D01*
X048674Y006252D01*
X048457Y006469D01*
X048457Y006528D01*
X048457Y006764D01*
X048280Y006941D01*
X047886Y006941D01*
X047709Y006764D01*
X047709Y006528D01*
X048457Y007158D02*
X048910Y006705D01*
X049067Y006705D01*
X048457Y007158D02*
X048457Y007552D01*
X047709Y007552D02*
X047532Y007374D01*
X047099Y007374D01*
X046744Y007374D01*
X046607Y007237D01*
X049953Y006009D02*
X050445Y006009D01*
X050445Y005957D02*
X050248Y005957D01*
X050377Y005692D02*
X050021Y005692D01*
X051036Y005268D02*
X051626Y005859D01*
X051666Y005859D01*
X051666Y005268D02*
X051489Y005091D01*
X051489Y003989D01*
X051036Y005268D02*
X050996Y005268D01*
X050544Y006646D02*
X050544Y007433D01*
X050760Y007650D01*
X050819Y007650D01*
X051056Y007650D01*
X051233Y007827D01*
X051233Y008221D01*
X051056Y008398D01*
X050819Y008398D01*
X051666Y008575D02*
X051843Y008398D01*
X051922Y008319D01*
X051922Y008122D01*
X051666Y008575D02*
X051666Y008910D01*
X052020Y008910D01*
X052611Y007827D02*
X052709Y007729D01*
X052709Y007433D01*
X051843Y007650D02*
X051449Y007650D01*
X050996Y007197D01*
X050996Y007040D01*
D47*
X012059Y002709D02*
X012059Y002414D01*
X011764Y002414D01*
X011764Y002709D01*
X012059Y002709D01*
X011764Y002709D02*
X011764Y003437D01*
X011607Y003595D01*
X005465Y010386D02*
X005465Y011475D01*
X005957Y013590D02*
X005957Y014914D01*
X006025Y014914D01*
D48*
X009993Y003693D02*
X010091Y003595D01*
X011607Y003595D01*
D49*
X006215Y011528D02*
X005715Y011528D01*
X005215Y011528D01*
X005229Y011528D01*
X005268Y011567D01*
X005215Y011528D02*
X004715Y011528D01*
X005215Y013575D02*
X005715Y013575D01*
X005943Y013575D01*
X005957Y013590D01*
X005715Y013575D02*
X006215Y013575D01*
M02*
