G75*
G70*
%OFA0B0*%
%FSLAX24Y24*%
%IPPOS*%
%LPD*%
%AMOC8*
5,1,8,0,0,1.08239X$1,22.5*
%
%ADD10C,0.0000*%
%ADD11C,0.0040*%
%ADD12C,0.0030*%
%ADD13R,0.0118X0.0059*%
%ADD14R,0.0118X0.0118*%
%ADD15R,0.0050X0.0010*%
%ADD16R,0.0040X0.0010*%
%ADD17R,0.0130X0.0010*%
%ADD18R,0.0070X0.0010*%
%ADD19R,0.0180X0.0010*%
%ADD20R,0.0080X0.0010*%
%ADD21R,0.0210X0.0010*%
%ADD22R,0.0090X0.0010*%
%ADD23R,0.0060X0.0010*%
%ADD24R,0.0010X0.0010*%
%ADD25R,0.0030X0.0010*%
%ADD26R,0.0020X0.0010*%
%ADD27R,0.0220X0.0010*%
%ADD28R,0.0100X0.0010*%
%ADD29R,0.0110X0.0010*%
%ADD30R,0.0120X0.0010*%
%ADD31R,0.0140X0.0010*%
%ADD32R,0.0150X0.0010*%
%ADD33R,0.0200X0.0010*%
%ADD34R,0.0170X0.0010*%
%ADD35R,0.0190X0.0010*%
%ADD36R,0.0160X0.0010*%
%ADD37C,0.0060*%
%ADD38C,0.0080*%
%ADD39R,0.0197X0.0984*%
%ADD40C,0.0050*%
%ADD41R,0.0003X0.0003*%
%ADD42R,0.0008X0.0003*%
%ADD43R,0.0005X0.0003*%
%ADD44R,0.0015X0.0003*%
%ADD45R,0.0020X0.0003*%
%ADD46R,0.0010X0.0003*%
%ADD47R,0.0018X0.0003*%
%ADD48R,0.0067X0.0003*%
%ADD49R,0.0013X0.0003*%
%ADD50R,0.0045X0.0003*%
%ADD51R,0.0077X0.0003*%
%ADD52R,0.0030X0.0003*%
%ADD53R,0.0032X0.0003*%
%ADD54R,0.0022X0.0003*%
%ADD55R,0.0127X0.0003*%
%ADD56R,0.0140X0.0003*%
%ADD57R,0.0025X0.0003*%
%ADD58R,0.0043X0.0003*%
%ADD59R,0.0053X0.0003*%
%ADD60R,0.0088X0.0003*%
%ADD61R,0.0035X0.0003*%
%ADD62R,0.0055X0.0003*%
%ADD63R,0.0040X0.0003*%
%ADD64R,0.0080X0.0003*%
%ADD65R,0.0065X0.0003*%
%ADD66R,0.0090X0.0003*%
%ADD67R,0.0143X0.0003*%
%ADD68R,0.0248X0.0003*%
%ADD69R,0.0293X0.0003*%
%ADD70R,0.0257X0.0003*%
%ADD71R,0.0037X0.0003*%
%ADD72R,0.0262X0.0003*%
%ADD73R,0.0027X0.0003*%
%ADD74R,0.0280X0.0003*%
%ADD75R,0.0070X0.0003*%
%ADD76R,0.0440X0.0003*%
%ADD77R,0.0315X0.0003*%
%ADD78R,0.0085X0.0003*%
%ADD79R,0.0330X0.0003*%
%ADD80R,0.0323X0.0003*%
%ADD81R,0.0107X0.0003*%
%ADD82R,0.0057X0.0003*%
%ADD83R,0.0490X0.0003*%
%ADD84R,0.0360X0.0003*%
%ADD85R,0.0512X0.0003*%
%ADD86R,0.0390X0.0003*%
%ADD87R,0.0565X0.0003*%
%ADD88R,0.0325X0.0003*%
%ADD89R,0.0168X0.0003*%
%ADD90R,0.0307X0.0003*%
%ADD91R,0.0152X0.0003*%
%ADD92R,0.0272X0.0003*%
%ADD93R,0.0132X0.0003*%
%ADD94R,0.0147X0.0003*%
%ADD95R,0.0243X0.0003*%
%ADD96R,0.0125X0.0003*%
%ADD97R,0.0240X0.0003*%
%ADD98R,0.0130X0.0003*%
%ADD99R,0.0225X0.0003*%
%ADD100R,0.0083X0.0003*%
%ADD101R,0.0222X0.0003*%
%ADD102R,0.0217X0.0003*%
%ADD103R,0.0120X0.0003*%
%ADD104R,0.0215X0.0003*%
%ADD105R,0.0118X0.0003*%
%ADD106R,0.0205X0.0003*%
%ADD107R,0.0103X0.0003*%
%ADD108R,0.0210X0.0003*%
%ADD109R,0.0097X0.0003*%
%ADD110R,0.0198X0.0003*%
%ADD111R,0.0100X0.0003*%
%ADD112R,0.0190X0.0003*%
%ADD113R,0.0187X0.0003*%
%ADD114R,0.0192X0.0003*%
%ADD115R,0.0170X0.0003*%
%ADD116R,0.0173X0.0003*%
%ADD117R,0.0182X0.0003*%
%ADD118R,0.0180X0.0003*%
%ADD119R,0.0047X0.0003*%
%ADD120R,0.0165X0.0003*%
%ADD121R,0.0163X0.0003*%
%ADD122R,0.0160X0.0003*%
%ADD123R,0.0158X0.0003*%
%ADD124R,0.0155X0.0003*%
%ADD125R,0.0092X0.0003*%
%ADD126R,0.0150X0.0003*%
%ADD127R,0.0105X0.0003*%
%ADD128R,0.0115X0.0003*%
%ADD129R,0.0145X0.0003*%
%ADD130R,0.0138X0.0003*%
%ADD131R,0.0135X0.0003*%
%ADD132R,0.0075X0.0003*%
%ADD133R,0.0063X0.0003*%
%ADD134R,0.0060X0.0003*%
%ADD135R,0.0050X0.0003*%
%ADD136R,0.0123X0.0003*%
%ADD137R,0.0112X0.0003*%
%ADD138R,0.0110X0.0003*%
%ADD139R,0.0073X0.0003*%
%ADD140R,0.0095X0.0003*%
%ADD141R,0.0185X0.0003*%
%ADD142R,0.0208X0.0003*%
%ADD143R,0.0235X0.0003*%
%ADD144R,0.0260X0.0003*%
%ADD145R,0.0267X0.0003*%
%ADD146R,0.0283X0.0003*%
%ADD147R,0.0295X0.0003*%
%ADD148R,0.0302X0.0003*%
%ADD149R,0.0320X0.0003*%
%ADD150R,0.0333X0.0003*%
%ADD151R,0.0338X0.0003*%
%ADD152R,0.0343X0.0003*%
%ADD153R,0.0350X0.0003*%
%ADD154R,0.0355X0.0003*%
%ADD155R,0.0365X0.0003*%
%ADD156R,0.0370X0.0003*%
%ADD157R,0.0375X0.0003*%
%ADD158R,0.0380X0.0003*%
%ADD159R,0.0382X0.0003*%
%ADD160R,0.0393X0.0003*%
%ADD161R,0.0398X0.0003*%
%ADD162R,0.0403X0.0003*%
%ADD163R,0.0405X0.0003*%
%ADD164R,0.0415X0.0003*%
%ADD165R,0.0177X0.0003*%
%ADD166R,0.0175X0.0003*%
%ADD167R,0.0195X0.0003*%
%ADD168R,0.0200X0.0003*%
%ADD169R,0.0203X0.0003*%
%ADD170R,0.0213X0.0003*%
%ADD171R,0.0220X0.0003*%
%ADD172R,0.0227X0.0003*%
%ADD173R,0.0230X0.0003*%
%ADD174R,0.0232X0.0003*%
%ADD175R,0.0238X0.0003*%
%ADD176R,0.0245X0.0003*%
%ADD177R,0.0250X0.0003*%
%ADD178R,0.0253X0.0003*%
%ADD179R,0.0255X0.0003*%
%ADD180R,0.0305X0.0003*%
%ADD181R,0.0318X0.0003*%
%ADD182R,0.0328X0.0003*%
%ADD183R,0.0335X0.0003*%
%ADD184R,0.0340X0.0003*%
%ADD185R,0.0352X0.0003*%
%ADD186R,0.0387X0.0003*%
%ADD187R,0.0410X0.0003*%
%ADD188R,0.0413X0.0003*%
%ADD189R,0.0430X0.0003*%
%ADD190R,0.0432X0.0003*%
%ADD191R,0.0428X0.0003*%
%ADD192R,0.0420X0.0003*%
%ADD193R,0.0435X0.0003*%
%ADD194R,0.0425X0.0003*%
%ADD195R,0.0423X0.0003*%
%ADD196R,0.0418X0.0003*%
%ADD197R,0.0372X0.0003*%
%ADD198R,0.0362X0.0003*%
%ADD199R,0.0348X0.0003*%
%ADD200R,0.0345X0.0003*%
%ADD201R,0.0310X0.0003*%
%ADD202R,0.0300X0.0003*%
%ADD203R,0.0297X0.0003*%
%ADD204R,0.0285X0.0003*%
%ADD205R,0.0278X0.0003*%
%ADD206R,0.0265X0.0003*%
%ADD207C,0.0098*%
%ADD208C,0.0090*%
D10*
X001725Y000937D02*
X057630Y000937D01*
X057000Y002512D02*
X057002Y002562D01*
X057008Y002612D01*
X057018Y002661D01*
X057032Y002709D01*
X057049Y002756D01*
X057070Y002801D01*
X057095Y002845D01*
X057123Y002886D01*
X057155Y002925D01*
X057189Y002962D01*
X057226Y002996D01*
X057266Y003026D01*
X057308Y003053D01*
X057352Y003077D01*
X057398Y003098D01*
X057445Y003114D01*
X057493Y003127D01*
X057543Y003136D01*
X057592Y003141D01*
X057643Y003142D01*
X057693Y003139D01*
X057742Y003132D01*
X057791Y003121D01*
X057839Y003106D01*
X057885Y003088D01*
X057930Y003066D01*
X057973Y003040D01*
X058014Y003011D01*
X058053Y002979D01*
X058089Y002944D01*
X058121Y002906D01*
X058151Y002866D01*
X058178Y002823D01*
X058201Y002779D01*
X058220Y002733D01*
X058236Y002685D01*
X058248Y002636D01*
X058256Y002587D01*
X058260Y002537D01*
X058260Y002487D01*
X058256Y002437D01*
X058248Y002388D01*
X058236Y002339D01*
X058220Y002291D01*
X058201Y002245D01*
X058178Y002201D01*
X058151Y002158D01*
X058121Y002118D01*
X058089Y002080D01*
X058053Y002045D01*
X058014Y002013D01*
X057973Y001984D01*
X057930Y001958D01*
X057885Y001936D01*
X057839Y001918D01*
X057791Y001903D01*
X057742Y001892D01*
X057693Y001885D01*
X057643Y001882D01*
X057592Y001883D01*
X057543Y001888D01*
X057493Y001897D01*
X057445Y001910D01*
X057398Y001926D01*
X057352Y001947D01*
X057308Y001971D01*
X057266Y001998D01*
X057226Y002028D01*
X057189Y002062D01*
X057155Y002099D01*
X057123Y002138D01*
X057095Y002179D01*
X057070Y002223D01*
X057049Y002268D01*
X057032Y002315D01*
X057018Y002363D01*
X057008Y002412D01*
X057002Y002462D01*
X057000Y002512D01*
X057630Y000937D02*
X057707Y000939D01*
X057784Y000945D01*
X057861Y000954D01*
X057937Y000967D01*
X058013Y000984D01*
X058087Y001005D01*
X058161Y001029D01*
X058233Y001057D01*
X058303Y001088D01*
X058372Y001123D01*
X058440Y001161D01*
X058505Y001202D01*
X058568Y001247D01*
X058629Y001295D01*
X058688Y001345D01*
X058744Y001398D01*
X058797Y001454D01*
X058847Y001513D01*
X058895Y001574D01*
X058940Y001637D01*
X058981Y001702D01*
X059019Y001770D01*
X059054Y001839D01*
X059085Y001909D01*
X059113Y001981D01*
X059137Y002055D01*
X059158Y002129D01*
X059175Y002205D01*
X059188Y002281D01*
X059197Y002358D01*
X059203Y002435D01*
X059205Y002512D01*
X059205Y015898D01*
X057000Y015898D02*
X057002Y015948D01*
X057008Y015998D01*
X057018Y016047D01*
X057032Y016095D01*
X057049Y016142D01*
X057070Y016187D01*
X057095Y016231D01*
X057123Y016272D01*
X057155Y016311D01*
X057189Y016348D01*
X057226Y016382D01*
X057266Y016412D01*
X057308Y016439D01*
X057352Y016463D01*
X057398Y016484D01*
X057445Y016500D01*
X057493Y016513D01*
X057543Y016522D01*
X057592Y016527D01*
X057643Y016528D01*
X057693Y016525D01*
X057742Y016518D01*
X057791Y016507D01*
X057839Y016492D01*
X057885Y016474D01*
X057930Y016452D01*
X057973Y016426D01*
X058014Y016397D01*
X058053Y016365D01*
X058089Y016330D01*
X058121Y016292D01*
X058151Y016252D01*
X058178Y016209D01*
X058201Y016165D01*
X058220Y016119D01*
X058236Y016071D01*
X058248Y016022D01*
X058256Y015973D01*
X058260Y015923D01*
X058260Y015873D01*
X058256Y015823D01*
X058248Y015774D01*
X058236Y015725D01*
X058220Y015677D01*
X058201Y015631D01*
X058178Y015587D01*
X058151Y015544D01*
X058121Y015504D01*
X058089Y015466D01*
X058053Y015431D01*
X058014Y015399D01*
X057973Y015370D01*
X057930Y015344D01*
X057885Y015322D01*
X057839Y015304D01*
X057791Y015289D01*
X057742Y015278D01*
X057693Y015271D01*
X057643Y015268D01*
X057592Y015269D01*
X057543Y015274D01*
X057493Y015283D01*
X057445Y015296D01*
X057398Y015312D01*
X057352Y015333D01*
X057308Y015357D01*
X057266Y015384D01*
X057226Y015414D01*
X057189Y015448D01*
X057155Y015485D01*
X057123Y015524D01*
X057095Y015565D01*
X057070Y015609D01*
X057049Y015654D01*
X057032Y015701D01*
X057018Y015749D01*
X057008Y015798D01*
X057002Y015848D01*
X057000Y015898D01*
X057630Y017473D02*
X057707Y017471D01*
X057784Y017465D01*
X057861Y017456D01*
X057937Y017443D01*
X058013Y017426D01*
X058087Y017405D01*
X058161Y017381D01*
X058233Y017353D01*
X058303Y017322D01*
X058372Y017287D01*
X058440Y017249D01*
X058505Y017208D01*
X058568Y017163D01*
X058629Y017115D01*
X058688Y017065D01*
X058744Y017012D01*
X058797Y016956D01*
X058847Y016897D01*
X058895Y016836D01*
X058940Y016773D01*
X058981Y016708D01*
X059019Y016640D01*
X059054Y016571D01*
X059085Y016501D01*
X059113Y016429D01*
X059137Y016355D01*
X059158Y016281D01*
X059175Y016205D01*
X059188Y016129D01*
X059197Y016052D01*
X059203Y015975D01*
X059205Y015898D01*
X057630Y017473D02*
X001725Y017473D01*
X001095Y015898D02*
X001097Y015948D01*
X001103Y015998D01*
X001113Y016047D01*
X001127Y016095D01*
X001144Y016142D01*
X001165Y016187D01*
X001190Y016231D01*
X001218Y016272D01*
X001250Y016311D01*
X001284Y016348D01*
X001321Y016382D01*
X001361Y016412D01*
X001403Y016439D01*
X001447Y016463D01*
X001493Y016484D01*
X001540Y016500D01*
X001588Y016513D01*
X001638Y016522D01*
X001687Y016527D01*
X001738Y016528D01*
X001788Y016525D01*
X001837Y016518D01*
X001886Y016507D01*
X001934Y016492D01*
X001980Y016474D01*
X002025Y016452D01*
X002068Y016426D01*
X002109Y016397D01*
X002148Y016365D01*
X002184Y016330D01*
X002216Y016292D01*
X002246Y016252D01*
X002273Y016209D01*
X002296Y016165D01*
X002315Y016119D01*
X002331Y016071D01*
X002343Y016022D01*
X002351Y015973D01*
X002355Y015923D01*
X002355Y015873D01*
X002351Y015823D01*
X002343Y015774D01*
X002331Y015725D01*
X002315Y015677D01*
X002296Y015631D01*
X002273Y015587D01*
X002246Y015544D01*
X002216Y015504D01*
X002184Y015466D01*
X002148Y015431D01*
X002109Y015399D01*
X002068Y015370D01*
X002025Y015344D01*
X001980Y015322D01*
X001934Y015304D01*
X001886Y015289D01*
X001837Y015278D01*
X001788Y015271D01*
X001738Y015268D01*
X001687Y015269D01*
X001638Y015274D01*
X001588Y015283D01*
X001540Y015296D01*
X001493Y015312D01*
X001447Y015333D01*
X001403Y015357D01*
X001361Y015384D01*
X001321Y015414D01*
X001284Y015448D01*
X001250Y015485D01*
X001218Y015524D01*
X001190Y015565D01*
X001165Y015609D01*
X001144Y015654D01*
X001127Y015701D01*
X001113Y015749D01*
X001103Y015798D01*
X001097Y015848D01*
X001095Y015898D01*
X000150Y015898D02*
X000152Y015975D01*
X000158Y016052D01*
X000167Y016129D01*
X000180Y016205D01*
X000197Y016281D01*
X000218Y016355D01*
X000242Y016429D01*
X000270Y016501D01*
X000301Y016571D01*
X000336Y016640D01*
X000374Y016708D01*
X000415Y016773D01*
X000460Y016836D01*
X000508Y016897D01*
X000558Y016956D01*
X000611Y017012D01*
X000667Y017065D01*
X000726Y017115D01*
X000787Y017163D01*
X000850Y017208D01*
X000915Y017249D01*
X000983Y017287D01*
X001052Y017322D01*
X001122Y017353D01*
X001194Y017381D01*
X001268Y017405D01*
X001342Y017426D01*
X001418Y017443D01*
X001494Y017456D01*
X001571Y017465D01*
X001648Y017471D01*
X001725Y017473D01*
X000150Y015898D02*
X000150Y002512D01*
X001095Y002512D02*
X001097Y002562D01*
X001103Y002612D01*
X001113Y002661D01*
X001127Y002709D01*
X001144Y002756D01*
X001165Y002801D01*
X001190Y002845D01*
X001218Y002886D01*
X001250Y002925D01*
X001284Y002962D01*
X001321Y002996D01*
X001361Y003026D01*
X001403Y003053D01*
X001447Y003077D01*
X001493Y003098D01*
X001540Y003114D01*
X001588Y003127D01*
X001638Y003136D01*
X001687Y003141D01*
X001738Y003142D01*
X001788Y003139D01*
X001837Y003132D01*
X001886Y003121D01*
X001934Y003106D01*
X001980Y003088D01*
X002025Y003066D01*
X002068Y003040D01*
X002109Y003011D01*
X002148Y002979D01*
X002184Y002944D01*
X002216Y002906D01*
X002246Y002866D01*
X002273Y002823D01*
X002296Y002779D01*
X002315Y002733D01*
X002331Y002685D01*
X002343Y002636D01*
X002351Y002587D01*
X002355Y002537D01*
X002355Y002487D01*
X002351Y002437D01*
X002343Y002388D01*
X002331Y002339D01*
X002315Y002291D01*
X002296Y002245D01*
X002273Y002201D01*
X002246Y002158D01*
X002216Y002118D01*
X002184Y002080D01*
X002148Y002045D01*
X002109Y002013D01*
X002068Y001984D01*
X002025Y001958D01*
X001980Y001936D01*
X001934Y001918D01*
X001886Y001903D01*
X001837Y001892D01*
X001788Y001885D01*
X001738Y001882D01*
X001687Y001883D01*
X001638Y001888D01*
X001588Y001897D01*
X001540Y001910D01*
X001493Y001926D01*
X001447Y001947D01*
X001403Y001971D01*
X001361Y001998D01*
X001321Y002028D01*
X001284Y002062D01*
X001250Y002099D01*
X001218Y002138D01*
X001190Y002179D01*
X001165Y002223D01*
X001144Y002268D01*
X001127Y002315D01*
X001113Y002363D01*
X001103Y002412D01*
X001097Y002462D01*
X001095Y002512D01*
X000150Y002512D02*
X000152Y002435D01*
X000158Y002358D01*
X000167Y002281D01*
X000180Y002205D01*
X000197Y002129D01*
X000218Y002055D01*
X000242Y001981D01*
X000270Y001909D01*
X000301Y001839D01*
X000336Y001770D01*
X000374Y001702D01*
X000415Y001637D01*
X000460Y001574D01*
X000508Y001513D01*
X000558Y001454D01*
X000611Y001398D01*
X000667Y001345D01*
X000726Y001295D01*
X000787Y001247D01*
X000850Y001202D01*
X000915Y001161D01*
X000983Y001123D01*
X001052Y001088D01*
X001122Y001057D01*
X001194Y001029D01*
X001268Y001005D01*
X001342Y000984D01*
X001418Y000967D01*
X001494Y000954D01*
X001571Y000945D01*
X001648Y000939D01*
X001725Y000937D01*
X047493Y001567D02*
X047495Y001601D01*
X047501Y001635D01*
X047511Y001668D01*
X047524Y001699D01*
X047542Y001729D01*
X047562Y001757D01*
X047586Y001782D01*
X047612Y001804D01*
X047640Y001822D01*
X047671Y001838D01*
X047703Y001850D01*
X047737Y001858D01*
X047771Y001862D01*
X047805Y001862D01*
X047839Y001858D01*
X047873Y001850D01*
X047905Y001838D01*
X047935Y001822D01*
X047964Y001804D01*
X047990Y001782D01*
X048014Y001757D01*
X048034Y001729D01*
X048052Y001699D01*
X048065Y001668D01*
X048075Y001635D01*
X048081Y001601D01*
X048083Y001567D01*
X048081Y001533D01*
X048075Y001499D01*
X048065Y001466D01*
X048052Y001435D01*
X048034Y001405D01*
X048014Y001377D01*
X047990Y001352D01*
X047964Y001330D01*
X047936Y001312D01*
X047905Y001296D01*
X047873Y001284D01*
X047839Y001276D01*
X047805Y001272D01*
X047771Y001272D01*
X047737Y001276D01*
X047703Y001284D01*
X047671Y001296D01*
X047640Y001312D01*
X047612Y001330D01*
X047586Y001352D01*
X047562Y001377D01*
X047542Y001405D01*
X047524Y001435D01*
X047511Y001466D01*
X047501Y001499D01*
X047495Y001533D01*
X047493Y001567D01*
X051075Y002807D02*
X051077Y002833D01*
X051083Y002859D01*
X051093Y002884D01*
X051106Y002907D01*
X051122Y002927D01*
X051142Y002945D01*
X051164Y002960D01*
X051187Y002972D01*
X051213Y002980D01*
X051239Y002984D01*
X051265Y002984D01*
X051291Y002980D01*
X051317Y002972D01*
X051341Y002960D01*
X051362Y002945D01*
X051382Y002927D01*
X051398Y002907D01*
X051411Y002884D01*
X051421Y002859D01*
X051427Y002833D01*
X051429Y002807D01*
X051427Y002781D01*
X051421Y002755D01*
X051411Y002730D01*
X051398Y002707D01*
X051382Y002687D01*
X051362Y002669D01*
X051340Y002654D01*
X051317Y002642D01*
X051291Y002634D01*
X051265Y002630D01*
X051239Y002630D01*
X051213Y002634D01*
X051187Y002642D01*
X051163Y002654D01*
X051142Y002669D01*
X051122Y002687D01*
X051106Y002707D01*
X051093Y002730D01*
X051083Y002755D01*
X051077Y002781D01*
X051075Y002807D01*
X052808Y002807D02*
X052810Y002833D01*
X052816Y002859D01*
X052826Y002884D01*
X052839Y002907D01*
X052855Y002927D01*
X052875Y002945D01*
X052897Y002960D01*
X052920Y002972D01*
X052946Y002980D01*
X052972Y002984D01*
X052998Y002984D01*
X053024Y002980D01*
X053050Y002972D01*
X053074Y002960D01*
X053095Y002945D01*
X053115Y002927D01*
X053131Y002907D01*
X053144Y002884D01*
X053154Y002859D01*
X053160Y002833D01*
X053162Y002807D01*
X053160Y002781D01*
X053154Y002755D01*
X053144Y002730D01*
X053131Y002707D01*
X053115Y002687D01*
X053095Y002669D01*
X053073Y002654D01*
X053050Y002642D01*
X053024Y002634D01*
X052998Y002630D01*
X052972Y002630D01*
X052946Y002634D01*
X052920Y002642D01*
X052896Y002654D01*
X052875Y002669D01*
X052855Y002687D01*
X052839Y002707D01*
X052826Y002730D01*
X052816Y002755D01*
X052810Y002781D01*
X052808Y002807D01*
X047493Y004323D02*
X047495Y004357D01*
X047501Y004391D01*
X047511Y004424D01*
X047524Y004455D01*
X047542Y004485D01*
X047562Y004513D01*
X047586Y004538D01*
X047612Y004560D01*
X047640Y004578D01*
X047671Y004594D01*
X047703Y004606D01*
X047737Y004614D01*
X047771Y004618D01*
X047805Y004618D01*
X047839Y004614D01*
X047873Y004606D01*
X047905Y004594D01*
X047935Y004578D01*
X047964Y004560D01*
X047990Y004538D01*
X048014Y004513D01*
X048034Y004485D01*
X048052Y004455D01*
X048065Y004424D01*
X048075Y004391D01*
X048081Y004357D01*
X048083Y004323D01*
X048081Y004289D01*
X048075Y004255D01*
X048065Y004222D01*
X048052Y004191D01*
X048034Y004161D01*
X048014Y004133D01*
X047990Y004108D01*
X047964Y004086D01*
X047936Y004068D01*
X047905Y004052D01*
X047873Y004040D01*
X047839Y004032D01*
X047805Y004028D01*
X047771Y004028D01*
X047737Y004032D01*
X047703Y004040D01*
X047671Y004052D01*
X047640Y004068D01*
X047612Y004086D01*
X047586Y004108D01*
X047562Y004133D01*
X047542Y004161D01*
X047524Y004191D01*
X047511Y004222D01*
X047501Y004255D01*
X047495Y004289D01*
X047493Y004323D01*
D11*
X050933Y004177D02*
X051321Y004177D01*
X051321Y004156D02*
X051321Y003421D01*
X051403Y003216D02*
X052834Y003216D01*
X052850Y003214D01*
X052865Y003210D01*
X052880Y003202D01*
X052892Y003192D01*
X052902Y003180D01*
X052910Y003165D01*
X052914Y003150D01*
X052916Y003134D01*
X052915Y003135D02*
X052913Y003115D01*
X052907Y003096D01*
X052898Y003078D01*
X052885Y003063D01*
X052870Y003050D01*
X052852Y003041D01*
X052833Y003035D01*
X052813Y003033D01*
X052813Y003032D02*
X051424Y003032D01*
X051404Y003034D01*
X051385Y003040D01*
X051367Y003049D01*
X051352Y003062D01*
X051339Y003077D01*
X051330Y003095D01*
X051324Y003114D01*
X051322Y003134D01*
X051321Y003134D02*
X051321Y003134D01*
X051323Y003150D01*
X051327Y003165D01*
X051335Y003180D01*
X051345Y003192D01*
X051357Y003202D01*
X051372Y003210D01*
X051387Y003214D01*
X051403Y003216D01*
X050606Y003094D02*
X050606Y002184D01*
X050954Y002092D02*
X051035Y002092D01*
X051137Y001152D01*
X051342Y001152D01*
X051444Y002092D01*
X051526Y002092D01*
X051424Y001009D01*
X051420Y000990D01*
X051414Y000971D01*
X051404Y000954D01*
X051392Y000938D01*
X051377Y000925D01*
X051360Y000914D01*
X051342Y000907D01*
X051117Y000907D02*
X051099Y000914D01*
X051082Y000925D01*
X051067Y000938D01*
X051055Y000954D01*
X051045Y000971D01*
X051039Y000990D01*
X051035Y001009D01*
X050954Y002092D01*
X051873Y002358D02*
X052364Y002358D01*
X052445Y001009D01*
X052447Y000993D01*
X052451Y000978D01*
X052459Y000963D01*
X052469Y000951D01*
X052481Y000941D01*
X052496Y000933D01*
X052511Y000929D01*
X052527Y000927D01*
X052543Y000929D01*
X052558Y000933D01*
X052573Y000941D01*
X052585Y000951D01*
X052595Y000963D01*
X052603Y000978D01*
X052607Y000993D01*
X052609Y001009D01*
X052527Y002603D01*
X052528Y002603D02*
X052525Y002621D01*
X052518Y002638D01*
X052509Y002653D01*
X052496Y002666D01*
X052481Y002675D01*
X052464Y002682D01*
X052446Y002685D01*
X052445Y002685D02*
X051791Y002685D01*
X051773Y002682D01*
X051756Y002675D01*
X051741Y002666D01*
X051728Y002653D01*
X051719Y002638D01*
X051712Y002621D01*
X051709Y002603D01*
X051710Y002603D02*
X051628Y001009D01*
X051630Y000993D01*
X051634Y000978D01*
X051642Y000963D01*
X051652Y000951D01*
X051664Y000941D01*
X051679Y000933D01*
X051694Y000929D01*
X051710Y000927D01*
X051710Y000927D01*
X051726Y000929D01*
X051741Y000933D01*
X051756Y000941D01*
X051768Y000951D01*
X051778Y000963D01*
X051786Y000978D01*
X051790Y000993D01*
X051792Y001009D01*
X051791Y001009D02*
X051873Y002358D01*
X052711Y002092D02*
X052793Y002092D01*
X052895Y001152D01*
X053099Y001152D01*
X053202Y002092D01*
X053283Y002092D01*
X053202Y001009D01*
X053198Y000990D01*
X053192Y000971D01*
X053182Y000954D01*
X053170Y000938D01*
X053155Y000925D01*
X053138Y000914D01*
X053120Y000907D01*
X052895Y000907D02*
X052877Y000914D01*
X052860Y000925D01*
X052845Y000938D01*
X052833Y000954D01*
X052823Y000971D01*
X052817Y000990D01*
X052813Y001009D01*
X052711Y002092D01*
X053631Y002184D02*
X053631Y003094D01*
X053633Y003078D01*
X053637Y003063D01*
X053645Y003048D01*
X053655Y003036D01*
X053667Y003026D01*
X053682Y003018D01*
X053697Y003014D01*
X053713Y003012D01*
X053774Y003012D01*
X052916Y003421D02*
X052916Y004156D01*
X052916Y004177D02*
X053304Y004177D01*
X053304Y004156D02*
X053304Y004013D01*
X050933Y004013D02*
X050933Y004156D01*
X050606Y003094D02*
X050604Y003078D01*
X050600Y003063D01*
X050592Y003048D01*
X050582Y003036D01*
X050570Y003026D01*
X050555Y003018D01*
X050540Y003014D01*
X050524Y003012D01*
X050463Y003012D01*
X051117Y000907D02*
X051154Y000898D01*
X051191Y000892D01*
X051229Y000890D01*
X051267Y000892D01*
X051304Y000898D01*
X051341Y000907D01*
X050606Y001069D02*
X050606Y000477D01*
X053631Y000477D01*
X053631Y000477D01*
X053631Y001069D01*
X053120Y000907D02*
X053083Y000898D01*
X053046Y000892D01*
X053008Y000890D01*
X052970Y000892D01*
X052933Y000898D01*
X052896Y000907D01*
X033701Y008495D02*
X033471Y008188D01*
X033240Y008495D01*
X033471Y008648D02*
X033471Y008955D01*
X033471Y009109D02*
X033471Y009416D01*
X033471Y010029D02*
X033471Y010183D01*
X033701Y010029D02*
X033240Y010029D01*
X033240Y010336D01*
X033240Y010490D02*
X033240Y010566D01*
X033701Y010566D01*
X033701Y010490D02*
X033701Y010643D01*
X033624Y010797D02*
X033547Y010873D01*
X033547Y011104D01*
X033471Y011104D02*
X033701Y011104D01*
X033701Y010873D01*
X033624Y010797D01*
X033394Y010873D02*
X033394Y011027D01*
X033471Y011104D01*
X033471Y011257D02*
X033394Y011334D01*
X033394Y011564D01*
X033547Y011487D02*
X033624Y011564D01*
X033701Y011487D01*
X033701Y011257D01*
X033547Y011334D02*
X033471Y011257D01*
X033547Y011334D02*
X033547Y011487D01*
X033471Y011717D02*
X033394Y011794D01*
X033394Y011948D01*
X033471Y012024D01*
X033701Y012024D01*
X033701Y011717D02*
X033240Y011717D01*
D12*
X032893Y011750D02*
X032844Y011701D01*
X032747Y011701D01*
X032699Y011750D01*
X032598Y011750D02*
X032550Y011701D01*
X032404Y011701D01*
X032404Y011992D01*
X032550Y011992D01*
X032598Y011943D01*
X032598Y011750D01*
X032699Y011943D02*
X032747Y011992D01*
X032844Y011992D01*
X032893Y011943D01*
X032893Y011895D01*
X032844Y011846D01*
X032893Y011798D01*
X032893Y011750D01*
X032844Y011846D02*
X032796Y011846D01*
X032303Y011701D02*
X032110Y011701D01*
X032110Y011992D01*
X032303Y011992D01*
X032207Y011846D02*
X032110Y011846D01*
X032009Y011701D02*
X031815Y011701D01*
X031815Y011992D01*
X031221Y011992D02*
X031124Y011895D01*
X031221Y011992D02*
X031221Y011701D01*
X031124Y011701D02*
X031318Y011701D01*
X031023Y011701D02*
X030830Y011701D01*
X030926Y011701D02*
X030926Y011992D01*
X030830Y011895D01*
X030728Y011943D02*
X030728Y011846D01*
X030680Y011798D01*
X030535Y011798D01*
X030535Y011701D02*
X030535Y011992D01*
X030680Y011992D01*
X030728Y011943D01*
X030632Y011798D02*
X030728Y011701D01*
X030731Y010220D02*
X030876Y010220D01*
X030925Y010172D01*
X030925Y010075D01*
X030876Y010026D01*
X030731Y010026D01*
X030731Y009930D02*
X030731Y010220D01*
X030828Y010026D02*
X030925Y009930D01*
X031026Y009930D02*
X031026Y009978D01*
X031219Y010172D01*
X031219Y010220D01*
X031026Y010220D01*
X031815Y010220D02*
X031815Y009930D01*
X032009Y009930D01*
X032110Y009930D02*
X032110Y010220D01*
X032303Y010220D01*
X032404Y010220D02*
X032550Y010220D01*
X032598Y010172D01*
X032598Y009978D01*
X032550Y009930D01*
X032404Y009930D01*
X032404Y010220D01*
X032207Y010075D02*
X032110Y010075D01*
X032110Y009930D02*
X032303Y009930D01*
X032699Y010075D02*
X032844Y010220D01*
X032844Y009930D01*
X032893Y010075D02*
X032699Y010075D01*
X035108Y008748D02*
X035108Y008700D01*
X035156Y008652D01*
X035253Y008652D01*
X035301Y008603D01*
X035301Y008555D01*
X035253Y008506D01*
X035156Y008506D01*
X035108Y008555D01*
X035108Y008748D02*
X035156Y008797D01*
X035253Y008797D01*
X035301Y008748D01*
X035402Y008797D02*
X035402Y008506D01*
X035499Y008603D01*
X035596Y008506D01*
X035596Y008797D01*
X035697Y008700D02*
X035794Y008797D01*
X035794Y008506D01*
X035697Y008506D02*
X035891Y008506D01*
X032489Y008237D02*
X032296Y008237D01*
X032441Y008382D01*
X032441Y008092D01*
X032194Y008092D02*
X032001Y008092D01*
X032098Y008092D02*
X032098Y008382D01*
X032001Y008286D01*
X031900Y008334D02*
X031900Y008237D01*
X031851Y008189D01*
X031706Y008189D01*
X031706Y008092D02*
X031706Y008382D01*
X031851Y008382D01*
X031900Y008334D01*
X031803Y008189D02*
X031900Y008092D01*
X025359Y008034D02*
X025262Y008034D01*
X025310Y008034D02*
X025310Y007744D01*
X025262Y007744D02*
X025359Y007744D01*
X025064Y007889D02*
X024967Y007889D01*
X024967Y008034D02*
X025161Y008034D01*
X024967Y008034D02*
X024967Y007744D01*
X024867Y007744D02*
X024771Y007744D01*
X024819Y007744D02*
X024819Y008034D01*
X024771Y008034D02*
X024867Y008034D01*
X024670Y008034D02*
X024670Y007744D01*
X024573Y007840D01*
X024476Y007744D01*
X024476Y008034D01*
X022129Y007342D02*
X022129Y007246D01*
X022081Y007197D01*
X022129Y007096D02*
X022129Y006903D01*
X021936Y007096D01*
X021887Y007096D01*
X021839Y007048D01*
X021839Y006951D01*
X021887Y006903D01*
X021887Y006801D02*
X021839Y006753D01*
X021839Y006656D01*
X021887Y006608D01*
X022081Y006608D01*
X022129Y006656D01*
X022129Y006753D01*
X022081Y006801D01*
X021887Y007197D02*
X021839Y007246D01*
X021839Y007342D01*
X021887Y007391D01*
X021936Y007391D01*
X021984Y007342D01*
X022032Y007391D01*
X022081Y007391D01*
X022129Y007342D01*
X021984Y007342D02*
X021984Y007294D01*
X017286Y006807D02*
X017286Y006710D01*
X017237Y006662D01*
X017141Y006710D02*
X017141Y006855D01*
X017237Y006855D02*
X017044Y006855D01*
X016995Y006807D01*
X016995Y006710D01*
X017044Y006662D01*
X017092Y006662D01*
X017141Y006710D01*
X017237Y006855D02*
X017286Y006807D01*
X017286Y006561D02*
X017286Y006367D01*
X017286Y006464D02*
X016995Y006464D01*
X017092Y006367D01*
X017044Y006266D02*
X017141Y006266D01*
X017189Y006218D01*
X017189Y006072D01*
X017286Y006072D02*
X016995Y006072D01*
X016995Y006218D01*
X017044Y006266D01*
X017189Y006169D02*
X017286Y006266D01*
X014040Y006980D02*
X013992Y006932D01*
X013895Y006932D01*
X013847Y006980D01*
X014040Y007173D01*
X014040Y006980D01*
X013847Y006980D02*
X013847Y007173D01*
X013895Y007222D01*
X013992Y007222D01*
X014040Y007173D01*
X013746Y007173D02*
X013697Y007222D01*
X013600Y007222D01*
X013552Y007173D01*
X013451Y007173D02*
X013451Y007077D01*
X013403Y007028D01*
X013257Y007028D01*
X013257Y006932D02*
X013257Y007222D01*
X013403Y007222D01*
X013451Y007173D01*
X013354Y007028D02*
X013451Y006932D01*
X013552Y006932D02*
X013746Y007125D01*
X013746Y007173D01*
X013746Y006932D02*
X013552Y006932D01*
X012169Y006608D02*
X012169Y006559D01*
X012121Y006511D01*
X012169Y006463D01*
X012169Y006414D01*
X012121Y006366D01*
X012024Y006366D01*
X011975Y006414D01*
X011874Y006414D02*
X011874Y006608D01*
X011826Y006656D01*
X011681Y006656D01*
X011681Y006366D01*
X011826Y006366D01*
X011874Y006414D01*
X012072Y006511D02*
X012121Y006511D01*
X012169Y006608D02*
X012121Y006656D01*
X012024Y006656D01*
X011975Y006608D01*
X004038Y008233D02*
X003902Y008096D01*
X003970Y008165D02*
X003765Y008370D01*
X003765Y008233D01*
X003625Y008230D02*
X003488Y008093D01*
X003556Y008162D02*
X003762Y007956D01*
X007153Y009664D02*
X007201Y009616D01*
X007395Y009616D01*
X007443Y009664D01*
X007443Y009761D01*
X007395Y009809D01*
X007443Y009910D02*
X007443Y010104D01*
X007443Y010007D02*
X007153Y010007D01*
X007250Y009910D01*
X007201Y009809D02*
X007153Y009761D01*
X007153Y009664D01*
X007547Y009664D02*
X007595Y009616D01*
X007789Y009616D01*
X007837Y009664D01*
X007837Y009761D01*
X007789Y009809D01*
X007837Y009910D02*
X007837Y010104D01*
X007837Y010007D02*
X007547Y010007D01*
X007643Y009910D01*
X007595Y009809D02*
X007547Y009761D01*
X007547Y009664D01*
X007547Y010205D02*
X007692Y010205D01*
X007643Y010302D01*
X007643Y010350D01*
X007692Y010398D01*
X007789Y010398D01*
X007837Y010350D01*
X007837Y010253D01*
X007789Y010205D01*
X007547Y010205D02*
X007547Y010398D01*
X007443Y010350D02*
X007395Y010398D01*
X007346Y010398D01*
X007298Y010350D01*
X007298Y010205D01*
X007395Y010205D01*
X007443Y010253D01*
X007443Y010350D01*
X007298Y010205D02*
X007201Y010302D01*
X007153Y010398D01*
X006926Y012173D02*
X006926Y012270D01*
X006926Y012221D02*
X006636Y012221D01*
X006636Y012173D02*
X006636Y012270D01*
X006684Y012369D02*
X006878Y012369D01*
X006926Y012418D01*
X006926Y012514D01*
X006878Y012563D01*
X006878Y012664D02*
X006926Y012712D01*
X006926Y012809D01*
X006878Y012857D01*
X006781Y012857D01*
X006733Y012809D01*
X006733Y012761D01*
X006781Y012664D01*
X006636Y012664D01*
X006636Y012857D01*
X006684Y012563D02*
X006636Y012514D01*
X006636Y012418D01*
X006684Y012369D01*
X004367Y012368D02*
X004367Y012271D01*
X004367Y012320D02*
X004077Y012320D01*
X004077Y012368D02*
X004077Y012271D01*
X004125Y012468D02*
X004319Y012468D01*
X004367Y012516D01*
X004367Y012613D01*
X004319Y012661D01*
X004319Y012762D02*
X004367Y012762D01*
X004319Y012762D02*
X004125Y012956D01*
X004077Y012956D01*
X004077Y012762D01*
X004125Y012661D02*
X004077Y012613D01*
X004077Y012516D01*
X004125Y012468D01*
X009687Y012515D02*
X009687Y012370D01*
X009978Y012370D01*
X009978Y012515D01*
X009929Y012563D01*
X009736Y012563D01*
X009687Y012515D01*
X009736Y012664D02*
X009687Y012713D01*
X009687Y012809D01*
X009736Y012858D01*
X009784Y012858D01*
X009978Y012664D01*
X009978Y012858D01*
X016208Y014190D02*
X016257Y014141D01*
X016402Y014141D01*
X016503Y014141D02*
X016696Y014141D01*
X016600Y014141D02*
X016600Y014432D01*
X016503Y014335D01*
X016402Y014335D02*
X016257Y014335D01*
X016208Y014287D01*
X016208Y014190D01*
X016798Y014190D02*
X016846Y014141D01*
X016943Y014141D01*
X016991Y014190D01*
X016991Y014287D01*
X016943Y014335D01*
X016894Y014335D01*
X016798Y014287D01*
X016798Y014432D01*
X016991Y014432D01*
X017092Y014383D02*
X017141Y014432D01*
X017237Y014432D01*
X017286Y014383D01*
X017092Y014190D01*
X017141Y014141D01*
X017237Y014141D01*
X017286Y014190D01*
X017286Y014383D01*
X017092Y014383D02*
X017092Y014190D01*
X017387Y014093D02*
X017580Y014093D01*
X017682Y014141D02*
X017682Y014335D01*
X017778Y014335D02*
X017827Y014335D01*
X017778Y014335D02*
X017682Y014238D01*
X017927Y014238D02*
X018121Y014238D01*
X018121Y014287D01*
X018072Y014335D01*
X017975Y014335D01*
X017927Y014287D01*
X017927Y014190D01*
X017975Y014141D01*
X018072Y014141D01*
X018222Y014335D02*
X018319Y014141D01*
X018415Y014335D01*
X018811Y014335D02*
X018956Y014335D01*
X019005Y014287D01*
X019005Y014190D01*
X018956Y014141D01*
X018811Y014141D01*
X018811Y014432D01*
X018710Y014093D02*
X018516Y014093D01*
X021544Y012658D02*
X021544Y012561D01*
X021592Y012513D01*
X021640Y012513D01*
X021689Y012561D01*
X021689Y012706D01*
X021785Y012706D02*
X021592Y012706D01*
X021544Y012658D01*
X021785Y012706D02*
X021834Y012658D01*
X021834Y012561D01*
X021785Y012513D01*
X021834Y012412D02*
X021737Y012315D01*
X021737Y012363D02*
X021737Y012218D01*
X021834Y012218D02*
X021544Y012218D01*
X021544Y012363D01*
X021592Y012412D01*
X021689Y012412D01*
X021737Y012363D01*
X021737Y011131D02*
X021785Y011131D01*
X021834Y011083D01*
X021834Y010986D01*
X021785Y010938D01*
X021737Y010938D01*
X021689Y010986D01*
X021689Y011083D01*
X021737Y011131D01*
X021689Y011083D02*
X021640Y011131D01*
X021592Y011131D01*
X021544Y011083D01*
X021544Y010986D01*
X021592Y010938D01*
X021640Y010938D01*
X021689Y010986D01*
X021689Y010837D02*
X021737Y010788D01*
X021737Y010643D01*
X021834Y010643D02*
X021544Y010643D01*
X021544Y010788D01*
X021592Y010837D01*
X021689Y010837D01*
X021737Y010740D02*
X021834Y010837D01*
X021785Y009950D02*
X021834Y009901D01*
X021834Y009805D01*
X021785Y009756D01*
X021592Y009950D01*
X021785Y009950D01*
X021592Y009950D02*
X021544Y009901D01*
X021544Y009805D01*
X021592Y009756D01*
X021785Y009756D01*
X021834Y009655D02*
X021834Y009462D01*
X021834Y009558D02*
X021544Y009558D01*
X021640Y009462D01*
X021592Y009360D02*
X021689Y009360D01*
X021737Y009312D01*
X021737Y009167D01*
X021737Y009264D02*
X021834Y009360D01*
X021834Y009167D02*
X021544Y009167D01*
X021544Y009312D01*
X021592Y009360D01*
X018821Y010815D02*
X018821Y011105D01*
X018821Y010960D02*
X018627Y010960D01*
X018526Y010911D02*
X018526Y010863D01*
X018478Y010815D01*
X018381Y010815D01*
X018332Y010863D01*
X018381Y010960D02*
X018478Y010960D01*
X018526Y010911D01*
X018627Y010815D02*
X018627Y011105D01*
X018526Y011056D02*
X018478Y011105D01*
X018381Y011105D01*
X018332Y011056D01*
X018332Y011008D01*
X018381Y010960D01*
X018231Y010960D02*
X018038Y010960D01*
X018038Y011008D02*
X018038Y010815D01*
X017937Y010815D02*
X017743Y010815D01*
X017743Y011105D01*
X017642Y011105D02*
X017448Y011105D01*
X017448Y010815D01*
X017448Y010960D02*
X017545Y010960D01*
X018038Y011008D02*
X018135Y011105D01*
X018231Y011008D01*
X018231Y010815D01*
X005869Y015469D02*
X005821Y015421D01*
X005724Y015421D01*
X005676Y015469D01*
X005574Y015421D02*
X005381Y015421D01*
X005574Y015614D01*
X005574Y015663D01*
X005526Y015711D01*
X005429Y015711D01*
X005381Y015663D01*
X005280Y015663D02*
X005280Y015566D01*
X005231Y015518D01*
X005086Y015518D01*
X005183Y015518D02*
X005280Y015421D01*
X005086Y015421D02*
X005086Y015711D01*
X005231Y015711D01*
X005280Y015663D01*
X005676Y015663D02*
X005724Y015711D01*
X005821Y015711D01*
X005869Y015663D01*
X005869Y015614D01*
X005821Y015566D01*
X005869Y015518D01*
X005869Y015469D01*
X005821Y015566D02*
X005772Y015566D01*
X007030Y015765D02*
X007030Y015861D01*
X007078Y015910D01*
X007078Y016011D02*
X007127Y016011D01*
X007175Y016059D01*
X007175Y016204D01*
X007272Y016204D02*
X007078Y016204D01*
X007030Y016156D01*
X007030Y016059D01*
X007078Y016011D01*
X007272Y016011D02*
X007320Y016059D01*
X007320Y016156D01*
X007272Y016204D01*
X007620Y016108D02*
X007911Y016108D01*
X007911Y016204D02*
X007911Y016011D01*
X007911Y015910D02*
X007814Y015813D01*
X007814Y015861D02*
X007814Y015716D01*
X007911Y015716D02*
X007620Y015716D01*
X007620Y015861D01*
X007669Y015910D01*
X007765Y015910D01*
X007814Y015861D01*
X007717Y016011D02*
X007620Y016108D01*
X007669Y016305D02*
X007717Y016305D01*
X007765Y016354D01*
X007765Y016451D01*
X007814Y016499D01*
X007862Y016499D01*
X007911Y016451D01*
X007911Y016354D01*
X007862Y016305D01*
X007814Y016305D01*
X007765Y016354D01*
X007765Y016451D02*
X007717Y016499D01*
X007669Y016499D01*
X007620Y016451D01*
X007620Y016354D01*
X007669Y016305D01*
X008211Y016354D02*
X008259Y016305D01*
X008211Y016354D02*
X008211Y016451D01*
X008259Y016499D01*
X008308Y016499D01*
X008501Y016305D01*
X008501Y016499D01*
X008501Y016204D02*
X008501Y016011D01*
X008501Y016108D02*
X008211Y016108D01*
X008308Y016011D01*
X008259Y015910D02*
X008211Y015861D01*
X008211Y015765D01*
X008259Y015716D01*
X008453Y015716D01*
X008501Y015765D01*
X008501Y015861D01*
X008453Y015910D01*
X007320Y015861D02*
X007320Y015765D01*
X007272Y015716D01*
X007078Y015716D01*
X007030Y015765D01*
X007272Y015910D02*
X007320Y015861D01*
X041874Y005546D02*
X042079Y005341D01*
X042182Y005444D01*
X042182Y005512D01*
X042148Y005546D01*
X042079Y005546D01*
X041977Y005444D01*
X042079Y005546D02*
X042079Y005615D01*
X042045Y005649D01*
X041977Y005649D01*
X041874Y005546D01*
X042082Y005755D02*
X042219Y005892D01*
X042151Y005823D02*
X042356Y005618D01*
X042496Y005758D02*
X042633Y005895D01*
X042564Y005826D02*
X042359Y006031D01*
X042359Y005895D01*
X046445Y006656D02*
X046494Y006608D01*
X046687Y006608D01*
X046735Y006656D01*
X046735Y006753D01*
X046687Y006801D01*
X046735Y006903D02*
X046735Y007096D01*
X046735Y006999D02*
X046445Y006999D01*
X046542Y006903D01*
X046494Y006801D02*
X046445Y006753D01*
X046445Y006656D01*
X046494Y007197D02*
X046445Y007246D01*
X046445Y007342D01*
X046494Y007391D01*
X046687Y007197D01*
X046735Y007246D01*
X046735Y007342D01*
X046687Y007391D01*
X046494Y007391D01*
X046494Y007197D02*
X046687Y007197D01*
X046722Y008060D02*
X046625Y008060D01*
X046577Y008108D01*
X046476Y008060D02*
X046379Y008156D01*
X046428Y008156D02*
X046282Y008156D01*
X046282Y008060D02*
X046282Y008350D01*
X046428Y008350D01*
X046476Y008301D01*
X046476Y008205D01*
X046428Y008156D01*
X046577Y008301D02*
X046625Y008350D01*
X046722Y008350D01*
X046771Y008301D01*
X046771Y008253D01*
X046722Y008205D01*
X046771Y008156D01*
X046771Y008108D01*
X046722Y008060D01*
X046722Y008205D02*
X046674Y008205D01*
X046722Y008650D02*
X046722Y008940D01*
X046577Y008795D01*
X046771Y008795D01*
X046476Y008795D02*
X046428Y008747D01*
X046282Y008747D01*
X046282Y008650D02*
X046282Y008940D01*
X046428Y008940D01*
X046476Y008892D01*
X046476Y008795D01*
X046379Y008747D02*
X046476Y008650D01*
X048556Y009300D02*
X048652Y009300D01*
X048604Y009300D02*
X048604Y009590D01*
X048556Y009590D02*
X048652Y009590D01*
X048752Y009542D02*
X048752Y009348D01*
X048801Y009300D01*
X048897Y009300D01*
X048946Y009348D01*
X049047Y009445D02*
X049240Y009445D01*
X049192Y009590D02*
X049047Y009445D01*
X048946Y009542D02*
X048897Y009590D01*
X048801Y009590D01*
X048752Y009542D01*
X049192Y009590D02*
X049192Y009300D01*
X049433Y009387D02*
X049481Y009339D01*
X049578Y009339D01*
X049626Y009387D01*
X049727Y009339D02*
X049921Y009533D01*
X049921Y009581D01*
X049872Y009629D01*
X049776Y009629D01*
X049727Y009581D01*
X049626Y009581D02*
X049578Y009629D01*
X049481Y009629D01*
X049433Y009581D01*
X049433Y009387D01*
X049727Y009339D02*
X049921Y009339D01*
X050022Y009387D02*
X050070Y009339D01*
X050167Y009339D01*
X050215Y009387D01*
X050215Y009581D01*
X050022Y009387D01*
X050022Y009581D01*
X050070Y009629D01*
X050167Y009629D01*
X050215Y009581D01*
X050213Y009092D02*
X050116Y009092D01*
X050068Y009044D01*
X050068Y008850D01*
X050116Y008802D01*
X050213Y008802D01*
X050261Y008850D01*
X050362Y008850D02*
X050411Y008802D01*
X050508Y008802D01*
X050556Y008850D01*
X050556Y008898D01*
X050508Y008947D01*
X050362Y008947D01*
X050362Y008850D01*
X050362Y008947D02*
X050459Y009044D01*
X050556Y009092D01*
X050261Y009044D02*
X050213Y009092D01*
X051678Y009254D02*
X051775Y009254D01*
X051727Y009254D02*
X051727Y009545D01*
X051775Y009545D02*
X051678Y009545D01*
X051875Y009496D02*
X051923Y009545D01*
X052020Y009545D01*
X052068Y009496D01*
X052170Y009448D02*
X052266Y009545D01*
X052266Y009254D01*
X052170Y009254D02*
X052363Y009254D01*
X052068Y009303D02*
X052020Y009254D01*
X051923Y009254D01*
X051875Y009303D01*
X051875Y009496D01*
X053855Y008483D02*
X053855Y008290D01*
X053855Y008386D02*
X053564Y008386D01*
X053661Y008290D01*
X053661Y008188D02*
X053613Y008188D01*
X053564Y008140D01*
X053564Y008043D01*
X053613Y007995D01*
X053613Y007894D02*
X053564Y007845D01*
X053564Y007749D01*
X053613Y007700D01*
X053806Y007700D01*
X053855Y007749D01*
X053855Y007845D01*
X053806Y007894D01*
X053855Y007995D02*
X053661Y008188D01*
X053855Y008188D02*
X053855Y007995D01*
X054155Y007995D02*
X054155Y008140D01*
X054203Y008188D01*
X054300Y008188D01*
X054348Y008140D01*
X054348Y007995D01*
X054348Y008092D02*
X054445Y008188D01*
X054397Y008290D02*
X054445Y008338D01*
X054445Y008435D01*
X054397Y008483D01*
X054300Y008483D01*
X054252Y008435D01*
X054252Y008386D01*
X054300Y008290D01*
X054155Y008290D01*
X054155Y008483D01*
X053079Y008065D02*
X053031Y008114D01*
X052934Y008114D01*
X052885Y008065D01*
X052784Y008065D02*
X052736Y008114D01*
X052639Y008114D01*
X052591Y008065D01*
X052591Y007872D01*
X052639Y007823D01*
X052736Y007823D01*
X052784Y007872D01*
X052885Y007872D02*
X052934Y007823D01*
X053031Y007823D01*
X053079Y007872D01*
X053079Y007920D01*
X053031Y007969D01*
X052982Y007969D01*
X053031Y007969D02*
X053079Y008017D01*
X053079Y008065D01*
X052491Y008114D02*
X052394Y008114D01*
X052443Y008114D02*
X052443Y007823D01*
X052491Y007823D02*
X052394Y007823D01*
X054155Y007995D02*
X054445Y007995D01*
X050556Y007222D02*
X050556Y007173D01*
X050362Y006980D01*
X050362Y006932D01*
X050261Y006980D02*
X050213Y006932D01*
X050116Y006932D01*
X050068Y006980D01*
X050068Y007173D01*
X050116Y007222D01*
X050213Y007222D01*
X050261Y007173D01*
X050362Y007222D02*
X050556Y007222D01*
X050430Y007744D02*
X050430Y007840D01*
X050430Y007792D02*
X050140Y007792D01*
X050140Y007744D02*
X050140Y007840D01*
X050188Y007940D02*
X050382Y007940D01*
X050430Y007989D01*
X050430Y008085D01*
X050382Y008134D01*
X050430Y008235D02*
X050237Y008428D01*
X050188Y008428D01*
X050140Y008380D01*
X050140Y008283D01*
X050188Y008235D01*
X050188Y008134D02*
X050140Y008085D01*
X050140Y007989D01*
X050188Y007940D01*
X050430Y008235D02*
X050430Y008428D01*
X050362Y006631D02*
X050362Y006486D01*
X050459Y006535D01*
X050508Y006535D01*
X050556Y006486D01*
X050556Y006389D01*
X050508Y006341D01*
X050411Y006341D01*
X050362Y006389D01*
X050261Y006389D02*
X050213Y006341D01*
X050116Y006341D01*
X050068Y006389D01*
X050068Y006583D01*
X050116Y006631D01*
X050213Y006631D01*
X050261Y006583D01*
X050362Y006631D02*
X050556Y006631D01*
X049721Y006269D02*
X049721Y006173D01*
X049672Y006124D01*
X049672Y006023D02*
X049721Y005975D01*
X049721Y005878D01*
X049672Y005830D01*
X049479Y005830D01*
X049431Y005878D01*
X049431Y005975D01*
X049479Y006023D01*
X049479Y006124D02*
X049431Y006173D01*
X049431Y006269D01*
X049479Y006318D01*
X049527Y006318D01*
X049576Y006269D01*
X049624Y006318D01*
X049672Y006318D01*
X049721Y006269D01*
X049576Y006269D02*
X049576Y006221D01*
X049773Y006041D02*
X049967Y006041D01*
X050068Y006041D02*
X050213Y006041D01*
X050261Y005992D01*
X050261Y005944D01*
X050213Y005896D01*
X050068Y005896D01*
X050068Y005751D02*
X050068Y006041D01*
X050213Y005896D02*
X050261Y005847D01*
X050261Y005799D01*
X050213Y005751D01*
X050068Y005751D01*
X049870Y005896D02*
X049773Y005896D01*
X049773Y005751D02*
X049773Y006041D01*
X049229Y005975D02*
X049180Y006023D01*
X049229Y005975D02*
X049229Y005878D01*
X049180Y005830D01*
X048987Y005830D01*
X048938Y005878D01*
X048938Y005975D01*
X048987Y006023D01*
X048987Y006124D02*
X049035Y006124D01*
X049083Y006173D01*
X049083Y006269D01*
X049132Y006318D01*
X049180Y006318D01*
X049229Y006269D01*
X049229Y006173D01*
X049180Y006124D01*
X049132Y006124D01*
X049083Y006173D01*
X049083Y006269D02*
X049035Y006318D01*
X048987Y006318D01*
X048938Y006269D01*
X048938Y006173D01*
X048987Y006124D01*
X048426Y006127D02*
X048330Y006078D01*
X048233Y005981D01*
X048378Y005981D01*
X048426Y005933D01*
X048426Y005885D01*
X048378Y005836D01*
X048281Y005836D01*
X048233Y005885D01*
X048233Y005981D01*
X048132Y005885D02*
X048083Y005836D01*
X047987Y005836D01*
X047938Y005885D01*
X047938Y006078D01*
X047987Y006127D01*
X048083Y006127D01*
X048132Y006078D01*
X047839Y006127D02*
X047742Y006127D01*
X047790Y006127D02*
X047790Y005836D01*
X047742Y005836D02*
X047839Y005836D01*
X050068Y005450D02*
X050068Y005160D01*
X050068Y005305D02*
X050165Y005305D01*
X050261Y005450D02*
X050068Y005450D01*
X050362Y005353D02*
X050459Y005450D01*
X050459Y005160D01*
X050362Y005160D02*
X050556Y005160D01*
X050556Y005751D02*
X050362Y005751D01*
X050459Y005751D02*
X050459Y006041D01*
X050362Y005944D01*
X054024Y005178D02*
X054024Y005081D01*
X054072Y005032D01*
X054072Y004931D02*
X054169Y004931D01*
X054217Y004883D01*
X054217Y004738D01*
X054217Y004835D02*
X054314Y004931D01*
X054314Y005032D02*
X054121Y005226D01*
X054072Y005226D01*
X054024Y005178D01*
X054314Y005226D02*
X054314Y005032D01*
X054418Y005129D02*
X054708Y005129D01*
X054708Y005032D02*
X054708Y005226D01*
X054811Y005226D02*
X054860Y005129D01*
X054956Y005032D01*
X054956Y005178D01*
X055005Y005226D01*
X055053Y005226D01*
X055102Y005178D01*
X055102Y005081D01*
X055053Y005032D01*
X054956Y005032D01*
X054956Y004931D02*
X055005Y004883D01*
X055005Y004738D01*
X055102Y004738D02*
X054811Y004738D01*
X054811Y004883D01*
X054860Y004931D01*
X054956Y004931D01*
X055005Y004835D02*
X055102Y004931D01*
X054708Y004931D02*
X054611Y004835D01*
X054611Y004883D02*
X054611Y004738D01*
X054708Y004738D02*
X054418Y004738D01*
X054418Y004883D01*
X054466Y004931D01*
X054563Y004931D01*
X054611Y004883D01*
X054514Y005032D02*
X054418Y005129D01*
X054072Y004931D02*
X054024Y004883D01*
X054024Y004738D01*
X054314Y004738D01*
X054693Y010696D02*
X054693Y010987D01*
X054838Y010987D01*
X054886Y010938D01*
X054886Y010842D01*
X054838Y010793D01*
X054693Y010793D01*
X054789Y010793D02*
X054886Y010696D01*
X054987Y010696D02*
X055181Y010696D01*
X055084Y010696D02*
X055084Y010987D01*
X054987Y010890D01*
X054987Y011090D02*
X055181Y011090D01*
X055084Y011090D02*
X055084Y011380D01*
X054987Y011284D01*
X054886Y011332D02*
X054886Y011235D01*
X054838Y011187D01*
X054693Y011187D01*
X054789Y011187D02*
X054886Y011090D01*
X054693Y011090D02*
X054693Y011380D01*
X054838Y011380D01*
X054886Y011332D01*
X055282Y011332D02*
X055330Y011380D01*
X055427Y011380D01*
X055475Y011332D01*
X055475Y011284D01*
X055427Y011235D01*
X055475Y011187D01*
X055475Y011139D01*
X055427Y011090D01*
X055330Y011090D01*
X055282Y011139D01*
X055379Y011235D02*
X055427Y011235D01*
X055775Y011090D02*
X055969Y011090D01*
X056070Y011090D02*
X056263Y011090D01*
X056365Y011090D02*
X056510Y011090D01*
X056558Y011139D01*
X056558Y011332D01*
X056510Y011380D01*
X056365Y011380D01*
X056365Y011090D01*
X056365Y010987D02*
X056510Y010987D01*
X056558Y010938D01*
X056558Y010745D01*
X056510Y010696D01*
X056365Y010696D01*
X056365Y010987D01*
X056263Y010987D02*
X056070Y010987D01*
X056070Y010696D01*
X056263Y010696D01*
X056167Y010842D02*
X056070Y010842D01*
X055969Y010696D02*
X055775Y010696D01*
X055775Y010987D01*
X055775Y011090D02*
X055775Y011380D01*
X056070Y011380D02*
X056070Y011090D01*
X056070Y011235D02*
X056167Y011235D01*
X056263Y011380D02*
X056070Y011380D01*
X056659Y011332D02*
X056708Y011380D01*
X056804Y011380D01*
X056853Y011332D01*
X056853Y011284D01*
X056659Y011090D01*
X056853Y011090D01*
X056756Y010987D02*
X056756Y010696D01*
X056659Y010696D02*
X056853Y010696D01*
X056659Y010890D02*
X056756Y010987D01*
X055475Y010938D02*
X055427Y010987D01*
X055330Y010987D01*
X055282Y010938D01*
X055475Y010938D02*
X055475Y010890D01*
X055282Y010696D01*
X055475Y010696D01*
X049625Y012439D02*
X049625Y012487D01*
X049576Y012535D01*
X049480Y012535D01*
X049431Y012584D01*
X049431Y012632D01*
X049480Y012681D01*
X049576Y012681D01*
X049625Y012632D01*
X049625Y012584D01*
X049576Y012535D01*
X049480Y012535D02*
X049431Y012487D01*
X049431Y012439D01*
X049480Y012390D01*
X049576Y012390D01*
X049625Y012439D01*
X049330Y012390D02*
X049137Y012390D01*
X049233Y012390D02*
X049233Y012681D01*
X049137Y012584D01*
X049036Y012632D02*
X048987Y012681D01*
X048890Y012681D01*
X048842Y012632D01*
X048842Y012439D01*
X048890Y012390D01*
X048987Y012390D01*
X049036Y012439D01*
X049885Y013497D02*
X049885Y013642D01*
X049982Y013738D01*
X049982Y013787D01*
X050083Y013690D02*
X050180Y013787D01*
X050180Y013497D01*
X050276Y013497D02*
X050083Y013497D01*
X049885Y013642D02*
X049788Y013738D01*
X049788Y013787D01*
X053368Y014737D02*
X053416Y014689D01*
X053609Y014689D01*
X053658Y014737D01*
X053658Y014834D01*
X053609Y014882D01*
X053658Y014983D02*
X053658Y015177D01*
X053658Y015080D02*
X053368Y015080D01*
X053464Y014983D01*
X053416Y014882D02*
X053368Y014834D01*
X053368Y014737D01*
X054299Y014432D02*
X054299Y014383D01*
X054396Y014287D01*
X054396Y014141D01*
X054396Y014287D02*
X054492Y014383D01*
X054492Y014432D01*
X054594Y014383D02*
X054642Y014432D01*
X054739Y014432D01*
X054787Y014383D01*
X054787Y014335D01*
X054594Y014141D01*
X054787Y014141D01*
X054594Y014689D02*
X054642Y014737D01*
X054642Y014834D01*
X054594Y014882D01*
X054642Y014983D02*
X054642Y015177D01*
X054642Y015080D02*
X054352Y015080D01*
X054449Y014983D01*
X054400Y014882D02*
X054352Y014834D01*
X054352Y014737D01*
X054400Y014689D01*
X054594Y014689D01*
X054497Y015278D02*
X054497Y015471D01*
X054642Y015423D02*
X054352Y015423D01*
X054497Y015278D01*
X053658Y015326D02*
X053658Y015423D01*
X053609Y015471D01*
X053561Y015471D01*
X053513Y015423D01*
X053513Y015375D01*
X053513Y015423D02*
X053464Y015471D01*
X053416Y015471D01*
X053368Y015423D01*
X053368Y015326D01*
X053416Y015278D01*
X053609Y015278D02*
X053658Y015326D01*
X052031Y015913D02*
X051838Y015913D01*
X052031Y016107D01*
X052031Y016155D01*
X051983Y016203D01*
X051886Y016203D01*
X051838Y016155D01*
X051736Y016155D02*
X051688Y016203D01*
X051591Y016203D01*
X051543Y016155D01*
X051543Y015961D01*
X051591Y015913D01*
X051688Y015913D01*
X051736Y015961D01*
X050752Y015913D02*
X050558Y015913D01*
X050655Y015913D02*
X050655Y016203D01*
X050558Y016107D01*
X050457Y016155D02*
X050409Y016203D01*
X050312Y016203D01*
X050263Y016155D01*
X050263Y015961D01*
X050312Y015913D01*
X050409Y015913D01*
X050457Y015961D01*
X055230Y013649D02*
X055230Y013455D01*
X055278Y013407D01*
X055375Y013407D01*
X055423Y013455D01*
X055525Y013407D02*
X055718Y013407D01*
X055621Y013407D02*
X055621Y013697D01*
X055525Y013601D01*
X055423Y013649D02*
X055375Y013697D01*
X055278Y013697D01*
X055230Y013649D01*
X055819Y013601D02*
X055916Y013697D01*
X055916Y013407D01*
X055819Y013407D02*
X056013Y013407D01*
X055964Y013205D02*
X055868Y013205D01*
X055819Y013157D01*
X055819Y013108D01*
X055868Y013060D01*
X056013Y013060D01*
X056013Y012963D02*
X056013Y013157D01*
X055964Y013205D01*
X055621Y013205D02*
X055525Y013108D01*
X055423Y013157D02*
X055375Y013205D01*
X055278Y013205D01*
X055230Y013157D01*
X055230Y012963D01*
X055278Y012915D01*
X055375Y012915D01*
X055423Y012963D01*
X055525Y012915D02*
X055718Y012915D01*
X055621Y012915D02*
X055621Y013205D01*
X055819Y012963D02*
X055868Y012915D01*
X055964Y012915D01*
X056013Y012963D01*
X015024Y002746D02*
X014831Y002746D01*
X014976Y002891D01*
X014976Y002601D01*
X014730Y002649D02*
X014681Y002601D01*
X014585Y002601D01*
X014536Y002649D01*
X014536Y002843D01*
X014585Y002891D01*
X014681Y002891D01*
X014730Y002843D01*
X012465Y002843D02*
X012272Y002649D01*
X012272Y002601D01*
X012171Y002601D02*
X011977Y002601D01*
X012074Y002601D02*
X012074Y002891D01*
X011977Y002794D01*
X011876Y002843D02*
X011828Y002891D01*
X011731Y002891D01*
X011683Y002843D01*
X011683Y002649D01*
X011731Y002601D01*
X011828Y002601D01*
X011876Y002649D01*
X012272Y002891D02*
X012465Y002891D01*
X012465Y002843D01*
D13*
X032394Y010435D03*
X032394Y010731D03*
X032394Y011223D03*
X032394Y011518D03*
X056292Y011518D03*
X056292Y011813D03*
X056292Y012109D03*
X056292Y012404D03*
D14*
X056292Y012256D03*
X056292Y011666D03*
X032394Y011370D03*
X032394Y010583D03*
D15*
X022573Y014807D03*
X022563Y014797D03*
X022583Y014847D03*
X022583Y014857D03*
X022573Y014867D03*
X022443Y014947D03*
X022433Y014967D03*
X022433Y014977D03*
X022453Y015017D03*
X022233Y015017D03*
X022233Y015027D03*
X022233Y015037D03*
X022233Y015047D03*
X022233Y015057D03*
X022233Y015067D03*
X022233Y015077D03*
X022233Y015087D03*
X022233Y015097D03*
X022233Y015107D03*
X022233Y015167D03*
X022143Y015087D03*
X022133Y015077D03*
X022123Y015067D03*
X022233Y015007D03*
X022233Y014997D03*
X022233Y014987D03*
X022233Y014977D03*
X022233Y014967D03*
X022233Y014957D03*
X022233Y014947D03*
X022233Y014937D03*
X022233Y014927D03*
X022233Y014917D03*
X022233Y014907D03*
X022233Y014897D03*
X022233Y014887D03*
X022233Y014877D03*
X022233Y014867D03*
X022233Y014857D03*
X022233Y014847D03*
X022233Y014837D03*
X022233Y014827D03*
X022233Y014817D03*
X022233Y014807D03*
X022233Y014797D03*
X021963Y014797D03*
X021963Y014807D03*
X021963Y014817D03*
X021963Y014827D03*
X021963Y014837D03*
X021963Y014847D03*
X021963Y014857D03*
X021963Y014867D03*
X021963Y014877D03*
X021963Y014887D03*
X021963Y014897D03*
X021963Y014907D03*
X021963Y014917D03*
X021963Y014927D03*
X021963Y014937D03*
X021963Y014947D03*
X021963Y014957D03*
X021963Y014967D03*
X021963Y014977D03*
X021953Y014997D03*
X021953Y015007D03*
X021773Y014987D03*
X021773Y014977D03*
X021773Y014967D03*
X021773Y014957D03*
X021773Y014947D03*
X021773Y014937D03*
X021773Y014927D03*
X021773Y014917D03*
X021773Y014907D03*
X021773Y014897D03*
X021773Y014887D03*
X021773Y014877D03*
X021773Y014867D03*
X021773Y014857D03*
X021773Y014847D03*
X021773Y014837D03*
X021773Y014827D03*
X021773Y014817D03*
X021773Y014807D03*
X021773Y014797D03*
X021773Y014787D03*
X021773Y014777D03*
X021773Y014767D03*
X021773Y014757D03*
X021633Y014827D03*
X021633Y014837D03*
X021633Y014847D03*
X021633Y014857D03*
X021633Y014867D03*
X021633Y014877D03*
X021633Y014887D03*
X021633Y014927D03*
X021633Y014937D03*
X021633Y014947D03*
X021633Y014957D03*
X021623Y014997D03*
X021613Y015007D03*
X021463Y015007D03*
X021473Y014877D03*
X021443Y014837D03*
X021443Y014827D03*
X021443Y014817D03*
X021453Y014797D03*
X021563Y014787D03*
X021313Y014787D03*
X021313Y014797D03*
X021313Y014807D03*
X021313Y014817D03*
X021313Y014827D03*
X021313Y014837D03*
X021313Y014847D03*
X021313Y014857D03*
X021313Y014867D03*
X021313Y014877D03*
X021313Y014887D03*
X021313Y014897D03*
X021313Y014907D03*
X021313Y014917D03*
X021313Y014927D03*
X021313Y014937D03*
X021313Y014947D03*
X021313Y014957D03*
X021313Y014967D03*
X021313Y014977D03*
X021313Y014987D03*
X021313Y014997D03*
X021313Y015007D03*
X021313Y015017D03*
X021313Y015027D03*
X021313Y015037D03*
X021313Y015047D03*
X021313Y015127D03*
X021313Y015167D03*
X020943Y015007D03*
X020943Y014997D03*
X020953Y014977D03*
X020953Y014967D03*
X020953Y014957D03*
X020953Y014947D03*
X020953Y014937D03*
X020953Y014927D03*
X020953Y014917D03*
X020953Y014907D03*
X020953Y014897D03*
X020953Y014887D03*
X020953Y014877D03*
X020953Y014867D03*
X020953Y014857D03*
X020953Y014847D03*
X020953Y014837D03*
X020953Y014827D03*
X020953Y014817D03*
X020953Y014807D03*
X020953Y014797D03*
X020953Y014787D03*
X020953Y014777D03*
X020953Y014767D03*
X020953Y014757D03*
X020773Y014757D03*
X020773Y014767D03*
X020773Y014777D03*
X020773Y014787D03*
X020773Y014797D03*
X020773Y014807D03*
X020773Y014817D03*
X020773Y014827D03*
X020773Y014837D03*
X020773Y014847D03*
X020773Y014857D03*
X020773Y014867D03*
X020773Y014877D03*
X020773Y014887D03*
X020773Y014897D03*
X020773Y014907D03*
X020773Y014917D03*
X020773Y014927D03*
X020773Y014937D03*
X020773Y014947D03*
X020773Y014957D03*
X020773Y014967D03*
X020773Y014977D03*
X020603Y014977D03*
X020603Y014987D03*
X020603Y014967D03*
X020603Y014957D03*
X020603Y014947D03*
X020603Y014937D03*
X020603Y014927D03*
X020603Y014917D03*
X020603Y014907D03*
X020603Y014897D03*
X020603Y014887D03*
X020603Y014877D03*
X020603Y014867D03*
X020603Y014857D03*
X020603Y014847D03*
X020603Y014837D03*
X020603Y014827D03*
X020603Y014817D03*
X020603Y014807D03*
X020603Y014797D03*
X020603Y014787D03*
X020603Y014777D03*
X020603Y014767D03*
X020603Y014757D03*
X020453Y014827D03*
X020443Y014817D03*
X020433Y014807D03*
X020463Y014847D03*
X020463Y014857D03*
X020473Y014897D03*
X020473Y014907D03*
X020473Y014917D03*
X020463Y014957D03*
X020463Y014967D03*
X020453Y014987D03*
X020443Y014997D03*
X020433Y015007D03*
X020273Y015007D03*
X020263Y014997D03*
X020253Y014987D03*
X020243Y014967D03*
X020243Y014957D03*
X020233Y014917D03*
X020233Y014907D03*
X020233Y014897D03*
X020243Y014857D03*
X020243Y014847D03*
X020253Y014827D03*
X020263Y014817D03*
X020273Y014807D03*
X020133Y014797D03*
X019973Y014827D03*
X019963Y014847D03*
X019953Y014897D03*
X019953Y014907D03*
X019953Y014917D03*
X019963Y014967D03*
X019973Y014987D03*
X019983Y014997D03*
X020133Y015017D03*
X019843Y014807D03*
X019843Y014767D03*
X019723Y014837D03*
X019713Y014817D03*
X019703Y014807D03*
X019733Y014867D03*
X019733Y014877D03*
X019733Y014887D03*
X019733Y014897D03*
X019733Y014907D03*
X019733Y014917D03*
X019733Y014927D03*
X019733Y014937D03*
X019733Y014947D03*
X019733Y014957D03*
X019723Y014977D03*
X019723Y014987D03*
X019713Y014997D03*
X019523Y014987D03*
X019523Y014977D03*
X019523Y014967D03*
X019523Y014957D03*
X019523Y014947D03*
X019523Y014937D03*
X019523Y014927D03*
X019523Y014917D03*
X019523Y014907D03*
X019523Y014897D03*
X019523Y014887D03*
X019523Y014877D03*
X019523Y014867D03*
X019523Y014857D03*
X019523Y014847D03*
X019523Y014837D03*
X019523Y014827D03*
X019523Y014817D03*
X019383Y014827D03*
X019383Y014837D03*
X019383Y014847D03*
X019383Y014857D03*
X019383Y014867D03*
X019383Y014877D03*
X019383Y014887D03*
X019383Y014897D03*
X019383Y014907D03*
X019383Y014917D03*
X019383Y014927D03*
X019383Y014937D03*
X019383Y014947D03*
X019383Y014957D03*
X019383Y014967D03*
X019383Y014977D03*
X019383Y014987D03*
X019383Y014997D03*
X019383Y015007D03*
X019383Y015017D03*
X019383Y015027D03*
X019383Y015037D03*
X019383Y015047D03*
X019523Y015047D03*
X019523Y015057D03*
X019523Y015067D03*
X019523Y015077D03*
X019523Y015087D03*
X019523Y015097D03*
X019523Y015107D03*
X019523Y015117D03*
X019523Y015127D03*
X019523Y015137D03*
X019523Y015147D03*
X019523Y015157D03*
X019523Y015167D03*
X019523Y015177D03*
X019523Y015187D03*
X019523Y015037D03*
X019523Y015027D03*
X019523Y015017D03*
X019183Y015017D03*
X019183Y015027D03*
X019183Y015037D03*
X019183Y015047D03*
X019183Y015007D03*
X019183Y014997D03*
X019183Y014987D03*
X019183Y014977D03*
X019183Y014967D03*
X019183Y014957D03*
X019183Y014947D03*
X019183Y014937D03*
X019183Y014927D03*
X019183Y014917D03*
X019183Y014907D03*
X019183Y014897D03*
X019183Y014887D03*
X019183Y014877D03*
X019183Y014867D03*
X019183Y014857D03*
X019183Y014847D03*
X019183Y014837D03*
X019193Y014817D03*
X019193Y014807D03*
X019043Y014807D03*
X019043Y014817D03*
X019043Y014827D03*
X019043Y014837D03*
X019043Y014847D03*
X019043Y014857D03*
X019043Y014867D03*
X019043Y014877D03*
X019043Y014887D03*
X019043Y014897D03*
X019043Y014907D03*
X019043Y014917D03*
X019043Y014927D03*
X019043Y014937D03*
X019043Y014947D03*
X019043Y014957D03*
X019043Y014967D03*
X019043Y014977D03*
X019033Y014997D03*
X019033Y015007D03*
X018853Y015017D03*
X018853Y015027D03*
X018853Y015037D03*
X018853Y015047D03*
X018853Y015057D03*
X018853Y015067D03*
X018853Y015077D03*
X018853Y015087D03*
X018853Y015097D03*
X018853Y015107D03*
X018853Y015117D03*
X018853Y015127D03*
X018853Y015137D03*
X018853Y015147D03*
X018853Y015157D03*
X018853Y015167D03*
X018853Y015177D03*
X018853Y015187D03*
X018853Y014987D03*
X018853Y014977D03*
X018853Y014967D03*
X018853Y014957D03*
X018853Y014947D03*
X018853Y014937D03*
X018853Y014927D03*
X018853Y014917D03*
X018853Y014907D03*
X018853Y014897D03*
X018853Y014887D03*
X018853Y014877D03*
X018853Y014867D03*
X018853Y014857D03*
X018853Y014847D03*
X018853Y014837D03*
X018853Y014827D03*
X018853Y014817D03*
X018853Y014807D03*
X018853Y014797D03*
X018853Y014787D03*
X018853Y014777D03*
X018853Y014767D03*
X018853Y014757D03*
X019043Y014757D03*
X019043Y014767D03*
X019043Y014777D03*
X019043Y014787D03*
X019043Y014797D03*
X018653Y014797D03*
X018643Y014827D03*
X018643Y014837D03*
X018643Y014847D03*
X018643Y014857D03*
X018643Y014867D03*
X018643Y014877D03*
X018643Y014887D03*
X018643Y014897D03*
X018643Y014907D03*
X018643Y014917D03*
X018643Y014927D03*
X018643Y014937D03*
X018643Y014947D03*
X018643Y014957D03*
X018643Y014967D03*
X018643Y014977D03*
X018643Y014987D03*
X018643Y014997D03*
X018643Y015007D03*
X018473Y015007D03*
X018473Y015017D03*
X018473Y015027D03*
X018473Y015037D03*
X018473Y015047D03*
X018473Y014997D03*
X018473Y014987D03*
X018473Y014977D03*
X018473Y014967D03*
X018473Y014957D03*
X018473Y014947D03*
X018473Y014937D03*
X018473Y014927D03*
X018473Y014917D03*
X018473Y014907D03*
X018473Y014897D03*
X018473Y014887D03*
X018473Y014877D03*
X018473Y014867D03*
X018473Y014857D03*
X018473Y014847D03*
X018473Y014837D03*
X018473Y014827D03*
X018473Y014817D03*
X018473Y014807D03*
X018473Y014797D03*
X018473Y014787D03*
X018473Y014777D03*
X018473Y014767D03*
X018473Y014757D03*
X018363Y014757D03*
X018363Y014747D03*
X018353Y014767D03*
X018333Y014697D03*
X018243Y014657D03*
X018143Y014707D03*
X018163Y014827D03*
X018153Y014957D03*
X018153Y014967D03*
X018173Y015017D03*
X018323Y015007D03*
X018473Y015127D03*
X018473Y015167D03*
X017653Y015027D03*
X017653Y014987D03*
X017653Y014807D03*
X017653Y014767D03*
X017513Y014807D03*
X017503Y014797D03*
X017523Y014847D03*
X017523Y014857D03*
X017513Y014867D03*
X017383Y014947D03*
X017373Y014967D03*
X017373Y014977D03*
X017393Y015017D03*
X017263Y014977D03*
X017263Y014967D03*
X017253Y014997D03*
X017243Y015007D03*
X017273Y014927D03*
X017273Y014917D03*
X017273Y014907D03*
X017273Y014897D03*
X017263Y014857D03*
X017263Y014847D03*
X017253Y014827D03*
X017243Y014817D03*
X017063Y014817D03*
X017063Y014827D03*
X017063Y014837D03*
X017063Y014847D03*
X017063Y014857D03*
X017063Y014867D03*
X017063Y014877D03*
X017063Y014887D03*
X017063Y014897D03*
X017063Y014907D03*
X017063Y014917D03*
X017063Y014927D03*
X017063Y014937D03*
X017063Y014947D03*
X017063Y014957D03*
X017063Y014967D03*
X017063Y014977D03*
X017063Y014987D03*
X017063Y014787D03*
X017063Y014777D03*
X017063Y014767D03*
X017063Y014757D03*
X017063Y014747D03*
X017063Y014737D03*
X017063Y014727D03*
X017063Y014717D03*
X017063Y014707D03*
X017063Y014697D03*
X017063Y014687D03*
X017063Y014677D03*
X017063Y014667D03*
X017063Y014657D03*
X016863Y014797D03*
X016853Y014827D03*
X016853Y014837D03*
X016853Y014847D03*
X016853Y014857D03*
X016853Y014867D03*
X016853Y014877D03*
X016853Y014887D03*
X016853Y014897D03*
X016853Y014907D03*
X016853Y014917D03*
X016853Y014927D03*
X016853Y014937D03*
X016853Y014947D03*
X016853Y014957D03*
X016853Y014967D03*
X016853Y014977D03*
X016853Y014987D03*
X016853Y014997D03*
X016853Y015007D03*
X016623Y015007D03*
X016623Y014997D03*
X016623Y014987D03*
X016623Y014977D03*
X016623Y014967D03*
X016623Y014957D03*
X016623Y014947D03*
X016623Y014937D03*
X016623Y014927D03*
X016623Y014917D03*
X016623Y014907D03*
X016623Y014897D03*
X016623Y014887D03*
X016623Y014877D03*
X016623Y014867D03*
X016623Y014857D03*
X016623Y014847D03*
X016623Y014837D03*
X016623Y014827D03*
X016633Y014797D03*
X016473Y014797D03*
X016473Y014807D03*
X016473Y014817D03*
X016473Y014827D03*
X016473Y014837D03*
X016473Y014847D03*
X016473Y014857D03*
X016473Y014867D03*
X016473Y014877D03*
X016473Y014887D03*
X016473Y014897D03*
X016473Y014907D03*
X016473Y014917D03*
X016473Y014927D03*
X016473Y014937D03*
X016473Y014947D03*
X016473Y014957D03*
X016473Y014967D03*
X016473Y014977D03*
X016463Y014997D03*
X016463Y015007D03*
X016283Y015017D03*
X016283Y015027D03*
X016283Y015037D03*
X016283Y015047D03*
X016283Y015057D03*
X016283Y015067D03*
X016283Y015077D03*
X016283Y015087D03*
X016283Y015097D03*
X016283Y015107D03*
X016283Y015117D03*
X016283Y015127D03*
X016283Y015137D03*
X016283Y015147D03*
X016283Y015157D03*
X016283Y015167D03*
X016283Y015177D03*
X016283Y015187D03*
X016283Y014987D03*
X016283Y014977D03*
X016283Y014967D03*
X016283Y014957D03*
X016283Y014947D03*
X016283Y014937D03*
X016283Y014927D03*
X016283Y014917D03*
X016283Y014907D03*
X016283Y014897D03*
X016283Y014887D03*
X016283Y014877D03*
X016283Y014867D03*
X016283Y014857D03*
X016283Y014847D03*
X016283Y014837D03*
X016283Y014827D03*
X016283Y014817D03*
X016283Y014807D03*
X016283Y014797D03*
X016283Y014787D03*
X016283Y014777D03*
X016283Y014767D03*
X016283Y014757D03*
X016473Y014757D03*
X016473Y014767D03*
X016473Y014777D03*
X016473Y014787D03*
X021303Y014697D03*
X021313Y014717D03*
X021313Y014727D03*
X021313Y014737D03*
X021313Y014747D03*
X021313Y014757D03*
X021313Y014767D03*
X021313Y014777D03*
X021963Y014777D03*
X021963Y014787D03*
X021963Y014767D03*
X021963Y014757D03*
D16*
X021958Y014987D03*
X021768Y015017D03*
X021768Y015027D03*
X021768Y015037D03*
X021768Y015047D03*
X021628Y014987D03*
X021628Y014977D03*
X021628Y014967D03*
X021638Y014797D03*
X021638Y014787D03*
X021638Y014777D03*
X021638Y014767D03*
X021448Y014807D03*
X021448Y014847D03*
X021448Y014857D03*
X021458Y014867D03*
X021308Y014707D03*
X021248Y014657D03*
X021058Y014767D03*
X021078Y014817D03*
X021098Y014867D03*
X021118Y014917D03*
X021138Y014967D03*
X021148Y014997D03*
X021158Y015017D03*
X021168Y015047D03*
X021178Y015067D03*
X021188Y015097D03*
X021208Y015147D03*
X020948Y014987D03*
X020818Y015017D03*
X020758Y015007D03*
X020758Y014997D03*
X020748Y015017D03*
X020598Y015017D03*
X020598Y015027D03*
X020598Y015037D03*
X020598Y015047D03*
X020458Y014977D03*
X020468Y014947D03*
X020468Y014937D03*
X020468Y014927D03*
X020468Y014887D03*
X020468Y014877D03*
X020468Y014867D03*
X020458Y014837D03*
X020248Y014837D03*
X020238Y014867D03*
X020238Y014877D03*
X020238Y014887D03*
X020238Y014927D03*
X020238Y014937D03*
X020238Y014947D03*
X020248Y014977D03*
X020068Y015057D03*
X019968Y014977D03*
X019958Y014957D03*
X019958Y014947D03*
X019958Y014937D03*
X019958Y014927D03*
X019958Y014887D03*
X019958Y014877D03*
X019958Y014867D03*
X019958Y014857D03*
X019968Y014837D03*
X019978Y014817D03*
X019838Y014817D03*
X019728Y014847D03*
X019728Y014857D03*
X019718Y014827D03*
X019728Y014967D03*
X019518Y014787D03*
X019518Y014777D03*
X019518Y014767D03*
X019388Y014767D03*
X019388Y014777D03*
X019388Y014787D03*
X019388Y014797D03*
X019328Y014797D03*
X019188Y014827D03*
X019038Y014987D03*
X018648Y015047D03*
X018648Y015057D03*
X018648Y015067D03*
X018648Y015077D03*
X018648Y015087D03*
X018648Y015097D03*
X018648Y015107D03*
X018648Y015117D03*
X018328Y014997D03*
X018328Y014987D03*
X018338Y014967D03*
X018338Y014957D03*
X018328Y014937D03*
X018328Y014927D03*
X018318Y014917D03*
X018308Y014907D03*
X018178Y014907D03*
X018168Y014917D03*
X018158Y014927D03*
X018158Y014937D03*
X018158Y014947D03*
X018158Y014977D03*
X018158Y014987D03*
X018158Y014997D03*
X018168Y015007D03*
X018068Y015067D03*
X018058Y015047D03*
X018048Y015017D03*
X018038Y014997D03*
X018028Y014967D03*
X018008Y014917D03*
X017988Y014867D03*
X017968Y014817D03*
X017948Y014767D03*
X017788Y014817D03*
X017768Y014767D03*
X017808Y014867D03*
X017828Y014917D03*
X017848Y014967D03*
X017858Y014997D03*
X017868Y015017D03*
X017878Y015047D03*
X017888Y015067D03*
X017898Y015097D03*
X017918Y015147D03*
X018078Y015097D03*
X018098Y015147D03*
X017378Y015007D03*
X017378Y014997D03*
X017378Y014987D03*
X017378Y014957D03*
X017268Y014957D03*
X017268Y014947D03*
X017268Y014937D03*
X017268Y014887D03*
X017268Y014877D03*
X017268Y014867D03*
X017258Y014837D03*
X017368Y014797D03*
X017518Y014817D03*
X017518Y014827D03*
X017518Y014837D03*
X017258Y014987D03*
X017058Y015017D03*
X017058Y015027D03*
X017058Y015037D03*
X017058Y015047D03*
X016858Y015047D03*
X016858Y015057D03*
X016858Y015067D03*
X016858Y015077D03*
X016858Y015087D03*
X016858Y015097D03*
X016858Y015107D03*
X016858Y015117D03*
X016628Y015117D03*
X016628Y015107D03*
X016628Y015097D03*
X016628Y015087D03*
X016628Y015077D03*
X016628Y015067D03*
X016628Y015057D03*
X016628Y015047D03*
X016468Y014987D03*
X016628Y014817D03*
X016628Y014807D03*
X016858Y014807D03*
X016858Y014817D03*
X018138Y014747D03*
X018138Y014737D03*
X018138Y014727D03*
X018138Y014717D03*
X018148Y014767D03*
X018158Y014837D03*
X018358Y014737D03*
X018358Y014727D03*
X018358Y014717D03*
X018348Y014707D03*
X018648Y014807D03*
X018648Y014817D03*
X022238Y015177D03*
X022438Y015007D03*
X022438Y014997D03*
X022438Y014987D03*
X022438Y014957D03*
X022428Y014797D03*
X022578Y014817D03*
X022578Y014827D03*
X022578Y014837D03*
D17*
X022513Y015037D03*
X021513Y014777D03*
X020703Y015027D03*
X019643Y015037D03*
X019633Y014777D03*
X019263Y014777D03*
X018693Y014787D03*
X018323Y015027D03*
X018243Y014887D03*
X018243Y014667D03*
X017453Y015037D03*
X017183Y015037D03*
X017173Y014777D03*
X016903Y014787D03*
X016673Y014787D03*
D18*
X016293Y015007D03*
X017073Y015007D03*
X017493Y014887D03*
X017653Y014787D03*
X017653Y015007D03*
X018193Y015027D03*
X018343Y014777D03*
X018863Y015007D03*
X018473Y015147D03*
X019843Y014787D03*
X020613Y015007D03*
X021313Y015147D03*
X021473Y015017D03*
X021623Y014917D03*
X021623Y014807D03*
X021783Y015007D03*
X022223Y015147D03*
X022553Y014887D03*
X021263Y014667D03*
D19*
X021568Y014897D03*
X020068Y015027D03*
X018668Y015027D03*
X018668Y015037D03*
X018668Y015017D03*
X018238Y014677D03*
X016878Y015017D03*
X016878Y015027D03*
X016878Y015037D03*
X016648Y015037D03*
X016648Y015027D03*
X016648Y015017D03*
D20*
X017078Y014797D03*
X017388Y014787D03*
X019368Y014807D03*
X019538Y014797D03*
X019538Y015007D03*
X020708Y015047D03*
X021268Y014677D03*
X022218Y015137D03*
X022448Y014787D03*
D21*
X018243Y014687D03*
D22*
X018193Y014817D03*
X018693Y014767D03*
X018973Y015047D03*
X019633Y014767D03*
X021273Y014687D03*
X021503Y014887D03*
X021893Y015047D03*
X022473Y014927D03*
X022533Y014897D03*
X022513Y015047D03*
X017473Y014897D03*
X017413Y014927D03*
X017453Y015047D03*
X017183Y015047D03*
X016403Y015047D03*
X016673Y014767D03*
X016903Y014767D03*
D23*
X017068Y014807D03*
X017228Y014797D03*
X017238Y014807D03*
X017398Y014937D03*
X017508Y014877D03*
X017488Y014787D03*
X017658Y014797D03*
X017658Y014777D03*
X017658Y014997D03*
X017658Y015017D03*
X017238Y015017D03*
X017068Y014997D03*
X016448Y015017D03*
X016288Y014997D03*
X018158Y014697D03*
X018858Y014997D03*
X019018Y015017D03*
X019208Y014797D03*
X019378Y014817D03*
X019528Y014807D03*
X019688Y014797D03*
X019838Y014797D03*
X019838Y014777D03*
X019988Y014807D03*
X019998Y014797D03*
X019988Y015007D03*
X019998Y015017D03*
X020278Y015017D03*
X020428Y015017D03*
X020608Y014997D03*
X020778Y014987D03*
X020928Y015017D03*
X021318Y015137D03*
X021318Y015157D03*
X021608Y015017D03*
X021778Y014997D03*
X021938Y015017D03*
X022158Y015097D03*
X022168Y015107D03*
X022228Y015157D03*
X022458Y014937D03*
X022568Y014877D03*
X022548Y014787D03*
X021628Y014817D03*
X021468Y014787D03*
X020428Y014797D03*
X020278Y014797D03*
X019708Y015007D03*
X019698Y015017D03*
X019528Y014997D03*
X018478Y015137D03*
X018478Y015157D03*
D24*
X018473Y015117D03*
X018243Y015057D03*
X018123Y015187D03*
X017943Y015187D03*
X017653Y014977D03*
X017523Y015007D03*
X017653Y014757D03*
X017743Y014727D03*
X017923Y014727D03*
X019843Y014757D03*
X020143Y014817D03*
X021033Y014727D03*
X021313Y015117D03*
X021233Y015187D03*
X022123Y015047D03*
X022583Y015007D03*
D25*
X022573Y015017D03*
X022513Y015057D03*
X022123Y015057D03*
X021893Y015057D03*
X021823Y015017D03*
X021553Y015057D03*
X021313Y015177D03*
X021223Y015177D03*
X021213Y015167D03*
X021213Y015157D03*
X021203Y015137D03*
X021203Y015127D03*
X021193Y015117D03*
X021193Y015107D03*
X021183Y015087D03*
X021183Y015077D03*
X021173Y015057D03*
X021163Y015037D03*
X021163Y015027D03*
X021153Y015007D03*
X021143Y014987D03*
X021143Y014977D03*
X021133Y014957D03*
X021133Y014947D03*
X021123Y014937D03*
X021123Y014927D03*
X021113Y014907D03*
X021113Y014897D03*
X021103Y014887D03*
X021103Y014877D03*
X021093Y014857D03*
X021093Y014847D03*
X021083Y014837D03*
X021083Y014827D03*
X021073Y014807D03*
X021073Y014797D03*
X021063Y014787D03*
X021063Y014777D03*
X021053Y014757D03*
X021053Y014747D03*
X021043Y014737D03*
X020803Y015007D03*
X020883Y015057D03*
X020643Y015017D03*
X020353Y015057D03*
X020353Y014757D03*
X020143Y014807D03*
X020063Y014757D03*
X019633Y014757D03*
X019513Y014757D03*
X019393Y014757D03*
X019253Y014757D03*
X019573Y015017D03*
X018973Y015057D03*
X018903Y015017D03*
X018653Y015127D03*
X018653Y015137D03*
X018653Y015147D03*
X018473Y015177D03*
X018333Y014977D03*
X018333Y014947D03*
X018173Y014867D03*
X018163Y014857D03*
X018163Y014847D03*
X018163Y014777D03*
X018143Y014757D03*
X017983Y014847D03*
X017983Y014857D03*
X017973Y014837D03*
X017973Y014827D03*
X017963Y014807D03*
X017963Y014797D03*
X017953Y014787D03*
X017953Y014777D03*
X017943Y014757D03*
X017943Y014747D03*
X017933Y014737D03*
X017993Y014877D03*
X017993Y014887D03*
X018003Y014897D03*
X018003Y014907D03*
X018013Y014927D03*
X018013Y014937D03*
X018023Y014947D03*
X018023Y014957D03*
X018033Y014977D03*
X018033Y014987D03*
X018043Y015007D03*
X018053Y015027D03*
X018053Y015037D03*
X018063Y015057D03*
X018073Y015077D03*
X018073Y015087D03*
X018083Y015107D03*
X018083Y015117D03*
X018093Y015127D03*
X018093Y015137D03*
X018103Y015157D03*
X018103Y015167D03*
X018113Y015177D03*
X017933Y015177D03*
X017923Y015167D03*
X017923Y015157D03*
X017913Y015137D03*
X017913Y015127D03*
X017903Y015117D03*
X017903Y015107D03*
X017893Y015087D03*
X017893Y015077D03*
X017883Y015057D03*
X017873Y015037D03*
X017873Y015027D03*
X017863Y015007D03*
X017853Y014987D03*
X017853Y014977D03*
X017843Y014957D03*
X017843Y014947D03*
X017833Y014937D03*
X017833Y014927D03*
X017823Y014907D03*
X017823Y014897D03*
X017813Y014887D03*
X017813Y014877D03*
X017803Y014857D03*
X017803Y014847D03*
X017793Y014837D03*
X017793Y014827D03*
X017783Y014807D03*
X017783Y014797D03*
X017773Y014787D03*
X017773Y014777D03*
X017763Y014757D03*
X017763Y014747D03*
X017753Y014737D03*
X017653Y014817D03*
X017513Y015017D03*
X017453Y015057D03*
X017653Y015037D03*
X017183Y015057D03*
X017113Y015017D03*
X016863Y015127D03*
X016863Y015137D03*
X016863Y015147D03*
X016633Y015147D03*
X016633Y015137D03*
X016633Y015127D03*
X016403Y015057D03*
X016333Y015017D03*
X016673Y014757D03*
X016903Y014757D03*
X018693Y014757D03*
X021503Y014757D03*
X021583Y014797D03*
X021643Y014757D03*
D26*
X021458Y014997D03*
X021298Y015057D03*
X020798Y014997D03*
X020708Y015057D03*
X020138Y015007D03*
X019648Y015057D03*
X018738Y014797D03*
X017438Y014757D03*
X017368Y014807D03*
X017168Y014757D03*
X016948Y014797D03*
X016718Y014797D03*
X022428Y014807D03*
X022498Y014757D03*
D27*
X022228Y014757D03*
X022228Y014767D03*
X022228Y014777D03*
X022228Y014787D03*
X018278Y015037D03*
D28*
X018338Y015017D03*
X018228Y014877D03*
X017438Y014917D03*
X017438Y014767D03*
X017168Y014767D03*
X019258Y014767D03*
X019648Y015047D03*
X020708Y015037D03*
X020878Y015047D03*
X021508Y014767D03*
X022498Y014767D03*
X022498Y014917D03*
X022208Y015127D03*
D29*
X022203Y015117D03*
X022513Y014907D03*
X021543Y015047D03*
X020353Y015047D03*
X020063Y015047D03*
X020063Y014767D03*
X020353Y014767D03*
X018243Y015047D03*
X017453Y014907D03*
D30*
X016908Y014777D03*
X016678Y014777D03*
X016398Y015037D03*
X018698Y014777D03*
X018968Y015037D03*
X020878Y015037D03*
X021888Y015037D03*
D31*
X021888Y015027D03*
X021588Y014907D03*
X020878Y015027D03*
X020068Y015037D03*
X018968Y015027D03*
X017438Y014777D03*
X016398Y015027D03*
X022498Y014777D03*
D32*
X021543Y015037D03*
X020353Y015037D03*
X019643Y015027D03*
X019633Y014787D03*
X019263Y014787D03*
X020063Y014777D03*
X020353Y014777D03*
X018243Y014897D03*
X017183Y015027D03*
X017173Y014787D03*
D33*
X018268Y014787D03*
D34*
X020063Y014787D03*
X021543Y015027D03*
D35*
X020353Y015027D03*
X020353Y014787D03*
X018263Y014797D03*
X018243Y014807D03*
D36*
X017458Y015027D03*
X022518Y015027D03*
D37*
X015471Y015038D02*
X015471Y014778D01*
X015171Y014728D01*
X015131Y014743D02*
X014706Y014743D01*
X014741Y014778D02*
X014741Y015028D01*
X014591Y015278D01*
X014341Y015328D01*
X014041Y015228D01*
X014091Y015228D01*
X013941Y014978D01*
X014041Y014678D01*
X014141Y014578D01*
X013991Y014178D01*
X013891Y014228D01*
X013691Y014078D01*
X013541Y014228D01*
X013691Y014478D01*
X013591Y014728D01*
X013291Y014828D01*
X013291Y014778D01*
X013291Y015028D01*
X013591Y015078D01*
X013691Y015378D01*
X013491Y015578D01*
X013641Y015728D01*
X013941Y015578D01*
X014241Y015728D01*
X014191Y015728D01*
X014241Y015978D01*
X014491Y015978D01*
X014491Y015678D01*
X014791Y015578D01*
X015041Y015728D01*
X015191Y015628D01*
X015041Y015328D01*
X015141Y015078D01*
X015441Y015028D01*
X015441Y014778D01*
X015141Y014778D01*
X015041Y014428D01*
X015191Y014228D01*
X015041Y014078D01*
X014841Y014228D01*
X014741Y014178D01*
X014541Y014578D01*
X014741Y014778D01*
X014741Y014802D02*
X015441Y014802D01*
X015441Y014860D02*
X014741Y014860D01*
X014741Y014919D02*
X015441Y014919D01*
X015441Y014977D02*
X014741Y014977D01*
X014736Y015036D02*
X015393Y015036D01*
X015471Y015038D02*
X015171Y015098D01*
X015134Y015094D02*
X014701Y015094D01*
X014666Y015153D02*
X015111Y015153D01*
X015087Y015211D02*
X014630Y015211D01*
X014595Y015270D02*
X015064Y015270D01*
X015041Y015328D02*
X013674Y015328D01*
X013651Y015348D02*
X013471Y015608D01*
X013661Y015788D01*
X013921Y015608D01*
X013855Y015621D02*
X013534Y015621D01*
X013506Y015562D02*
X015158Y015562D01*
X015129Y015504D02*
X013565Y015504D01*
X013623Y015445D02*
X015099Y015445D01*
X015070Y015387D02*
X013682Y015387D01*
X013655Y015270D02*
X014167Y015270D01*
X014081Y015211D02*
X013635Y015211D01*
X013616Y015153D02*
X014046Y015153D01*
X014010Y015094D02*
X013596Y015094D01*
X013541Y015098D02*
X013241Y015038D01*
X013241Y014778D01*
X013541Y014728D01*
X013544Y014743D02*
X014019Y014743D01*
X014038Y014685D02*
X013608Y014685D01*
X013631Y014626D02*
X014092Y014626D01*
X014137Y014568D02*
X013655Y014568D01*
X013678Y014509D02*
X014115Y014509D01*
X014093Y014451D02*
X013674Y014451D01*
X013641Y014458D02*
X013481Y014218D01*
X013661Y014028D01*
X013901Y014198D01*
X014001Y014138D01*
X014201Y014588D01*
X014071Y014392D02*
X013639Y014392D01*
X013604Y014334D02*
X014049Y014334D01*
X014027Y014275D02*
X013569Y014275D01*
X013552Y014217D02*
X013876Y014217D01*
X013913Y014217D02*
X014005Y014217D01*
X013798Y014158D02*
X013610Y014158D01*
X013669Y014100D02*
X013720Y014100D01*
X014521Y014588D02*
X014711Y014138D01*
X014811Y014198D01*
X015051Y014028D01*
X015241Y014218D01*
X015071Y014458D01*
X015047Y014451D02*
X014604Y014451D01*
X014575Y014509D02*
X015064Y014509D01*
X015081Y014568D02*
X014546Y014568D01*
X014589Y014626D02*
X015097Y014626D01*
X015114Y014685D02*
X014648Y014685D01*
X015071Y014458D02*
X015094Y014499D01*
X015115Y014542D01*
X015133Y014587D01*
X015148Y014632D01*
X015161Y014678D01*
X015171Y014725D01*
X015169Y015098D02*
X015154Y015150D01*
X015135Y015201D01*
X015113Y015251D01*
X015088Y015299D01*
X015059Y015346D01*
X015061Y015348D02*
X015241Y015608D01*
X015051Y015788D01*
X014791Y015608D01*
X014862Y015621D02*
X015187Y015621D01*
X015113Y015679D02*
X014960Y015679D01*
X014662Y015621D02*
X014027Y015621D01*
X014144Y015679D02*
X014491Y015679D01*
X014541Y015708D02*
X014491Y016028D01*
X014221Y016028D01*
X014171Y015708D01*
X014193Y015738D02*
X014491Y015738D01*
X014491Y015796D02*
X014204Y015796D01*
X014216Y015855D02*
X014491Y015855D01*
X014491Y015913D02*
X014228Y015913D01*
X014239Y015972D02*
X014491Y015972D01*
X013738Y015679D02*
X013592Y015679D01*
X013339Y015036D02*
X013975Y015036D01*
X013941Y014977D02*
X013291Y014977D01*
X013291Y014919D02*
X013960Y014919D01*
X013980Y014860D02*
X013291Y014860D01*
X013369Y014802D02*
X013999Y014802D01*
X013924Y015611D02*
X013969Y015636D01*
X014016Y015659D01*
X014064Y015678D01*
X014113Y015695D01*
X014163Y015708D01*
X014201Y014598D02*
X014168Y014616D01*
X014138Y014637D01*
X014109Y014661D01*
X014083Y014688D01*
X014061Y014717D01*
X014041Y014749D01*
X014024Y014782D01*
X014011Y014817D01*
X014002Y014853D01*
X013996Y014890D01*
X013994Y014927D01*
X013996Y014964D01*
X014001Y015001D01*
X014011Y015037D01*
X014023Y015072D01*
X014040Y015106D01*
X014059Y015137D01*
X014082Y015167D01*
X014108Y015194D01*
X014136Y015218D01*
X014167Y015239D01*
X014199Y015257D01*
X014233Y015272D01*
X014269Y015283D01*
X014305Y015291D01*
X014342Y015295D01*
X014380Y015295D01*
X014417Y015291D01*
X014453Y015283D01*
X014489Y015272D01*
X014523Y015257D01*
X014555Y015239D01*
X014586Y015218D01*
X014614Y015194D01*
X014640Y015167D01*
X014663Y015137D01*
X014682Y015106D01*
X014699Y015072D01*
X014711Y015037D01*
X014721Y015001D01*
X014726Y014964D01*
X014728Y014927D01*
X014726Y014890D01*
X014720Y014853D01*
X014711Y014817D01*
X014698Y014782D01*
X014681Y014749D01*
X014661Y014717D01*
X014639Y014688D01*
X014613Y014661D01*
X014584Y014637D01*
X014554Y014616D01*
X014521Y014598D01*
X014633Y014392D02*
X015067Y014392D01*
X015111Y014334D02*
X014663Y014334D01*
X014692Y014275D02*
X015155Y014275D01*
X015180Y014217D02*
X014855Y014217D01*
X014819Y014217D02*
X014721Y014217D01*
X014933Y014158D02*
X015121Y014158D01*
X015063Y014100D02*
X015011Y014100D01*
X013644Y014461D02*
X013616Y014511D01*
X013592Y014563D01*
X013571Y014616D01*
X013554Y014671D01*
X013541Y014727D01*
X013547Y015098D02*
X013561Y015149D01*
X013579Y015200D01*
X013600Y015249D01*
X013624Y015296D01*
X013651Y015343D01*
X014546Y015710D02*
X014598Y015696D01*
X014649Y015679D01*
X014699Y015659D01*
X014748Y015636D01*
X014795Y015609D01*
X010356Y011827D02*
X010136Y011827D01*
X010356Y011827D02*
X010356Y011507D01*
X009456Y011827D02*
X009236Y011827D01*
X009236Y011507D01*
X018335Y004640D02*
X018585Y004890D01*
X019085Y004890D01*
X019335Y004640D01*
X019585Y004890D01*
X020085Y004890D01*
X020335Y004640D01*
X020585Y004890D01*
X021085Y004890D01*
X021335Y004640D01*
X021335Y004140D01*
X021085Y003890D01*
X020585Y003890D01*
X020335Y004140D01*
X020085Y003890D01*
X019585Y003890D01*
X019335Y004140D01*
X019085Y003890D01*
X019335Y003640D01*
X019585Y003890D01*
X019335Y004140D02*
X019335Y004640D01*
X018335Y004640D02*
X018335Y004140D01*
X018585Y003890D01*
X018335Y003640D01*
X018335Y003140D01*
X018585Y002890D01*
X019085Y002890D01*
X019335Y003140D01*
X019585Y002890D01*
X020085Y002890D01*
X020335Y003140D01*
X020585Y002890D01*
X021085Y002890D01*
X021335Y003140D01*
X021335Y003640D01*
X021085Y003890D01*
X020585Y003890D02*
X020335Y003640D01*
X020085Y003890D01*
X020335Y004140D02*
X020335Y004640D01*
X019085Y003890D02*
X018585Y003890D01*
X019335Y003640D02*
X019335Y003140D01*
X020335Y003140D02*
X020335Y003640D01*
X038020Y003640D02*
X038020Y003140D01*
X038270Y002890D01*
X038770Y002890D01*
X039020Y003140D01*
X039270Y002890D01*
X039770Y002890D01*
X040020Y003140D01*
X040270Y002890D01*
X040770Y002890D01*
X041020Y003140D01*
X041020Y003640D01*
X040770Y003890D01*
X040270Y003890D01*
X040020Y004140D01*
X039770Y003890D01*
X039270Y003890D01*
X039020Y004140D01*
X038770Y003890D01*
X039020Y003640D01*
X039270Y003890D01*
X039020Y004140D02*
X039020Y004640D01*
X039270Y004890D01*
X039770Y004890D01*
X040020Y004640D01*
X040270Y004890D01*
X040770Y004890D01*
X041020Y004640D01*
X041020Y004140D01*
X040770Y003890D01*
X040270Y003890D02*
X040020Y003640D01*
X039770Y003890D01*
X040020Y004140D02*
X040020Y004640D01*
X039020Y004640D02*
X038770Y004890D01*
X038270Y004890D01*
X038020Y004640D01*
X038020Y004140D01*
X038270Y003890D01*
X038020Y003640D01*
X039020Y003640D02*
X039020Y003140D01*
X040020Y003140D02*
X040020Y003640D01*
X038770Y003890D02*
X038270Y003890D01*
X047523Y006721D02*
X047560Y006721D01*
X047523Y006721D02*
X047523Y007359D01*
X047560Y007359D01*
X047877Y007359D02*
X048289Y007359D01*
X048606Y007359D02*
X048643Y007359D01*
X048643Y006721D01*
X048606Y006721D01*
X048289Y006721D02*
X048251Y006721D01*
X047915Y006721D02*
X047877Y006721D01*
X051012Y007464D02*
X051012Y007501D01*
X051012Y007464D02*
X051650Y007464D01*
X051650Y007501D01*
X052119Y007317D02*
X052119Y006629D01*
X053300Y006629D01*
X053300Y007317D01*
X052119Y007317D01*
X051650Y007818D02*
X051650Y008230D01*
X051650Y008547D02*
X051650Y008584D01*
X051012Y008584D01*
X051012Y008547D01*
X051012Y008230D02*
X051012Y008192D01*
X051012Y007856D02*
X051012Y007818D01*
X049393Y007990D02*
X049395Y008003D01*
X049400Y008015D01*
X049409Y008025D01*
X049420Y008032D01*
X049432Y008036D01*
X049446Y008036D01*
X049458Y008032D01*
X049469Y008025D01*
X049478Y008015D01*
X049483Y008003D01*
X049485Y007990D01*
X049483Y007977D01*
X049478Y007965D01*
X049469Y007955D01*
X049458Y007948D01*
X049446Y007944D01*
X049432Y007944D01*
X049420Y007948D01*
X049409Y007955D01*
X049400Y007965D01*
X049395Y007977D01*
X049393Y007990D01*
X049281Y008024D02*
X048594Y008024D01*
X048594Y009205D01*
X049281Y009205D01*
X049281Y008024D01*
X052038Y006471D02*
X052040Y006484D01*
X052045Y006496D01*
X052054Y006506D01*
X052065Y006513D01*
X052077Y006517D01*
X052091Y006517D01*
X052103Y006513D01*
X052114Y006506D01*
X052123Y006496D01*
X052128Y006484D01*
X052130Y006471D01*
X052128Y006458D01*
X052123Y006446D01*
X052114Y006436D01*
X052103Y006429D01*
X052091Y006425D01*
X052077Y006425D01*
X052065Y006429D01*
X052054Y006436D01*
X052045Y006446D01*
X052040Y006458D01*
X052038Y006471D01*
X058195Y008815D02*
X058238Y008772D01*
X058282Y008772D01*
X058325Y008815D01*
X058325Y008902D01*
X058368Y008946D01*
X058412Y008946D01*
X058455Y008902D01*
X058455Y008815D01*
X058412Y008772D01*
X058195Y008815D02*
X058195Y008902D01*
X058238Y008946D01*
X058195Y009067D02*
X058455Y009067D01*
X058368Y009153D01*
X058455Y009240D01*
X058195Y009240D01*
X058195Y009361D02*
X058195Y009491D01*
X058238Y009535D01*
X058412Y009535D01*
X058455Y009491D01*
X058455Y009361D01*
X058195Y009361D01*
D38*
X009283Y010091D02*
X009285Y010136D01*
X009291Y010180D01*
X009300Y010224D01*
X009314Y010266D01*
X009331Y010308D01*
X009352Y010347D01*
X009376Y010385D01*
X009403Y010421D01*
X009433Y010454D01*
X009466Y010484D01*
X009502Y010511D01*
X009539Y010535D01*
X009579Y010556D01*
X009621Y010573D01*
X009663Y010587D01*
X009707Y010596D01*
X009751Y010602D01*
X009796Y010604D01*
X009841Y010602D01*
X009885Y010596D01*
X009929Y010587D01*
X009971Y010573D01*
X010013Y010556D01*
X010052Y010535D01*
X010090Y010511D01*
X010126Y010484D01*
X010159Y010454D01*
X010189Y010421D01*
X010216Y010385D01*
X010240Y010347D01*
X010261Y010308D01*
X010278Y010266D01*
X010292Y010224D01*
X010301Y010180D01*
X010307Y010136D01*
X010309Y010091D01*
X010307Y010046D01*
X010301Y010002D01*
X010292Y009958D01*
X010278Y009916D01*
X010261Y009874D01*
X010240Y009835D01*
X010216Y009797D01*
X010189Y009761D01*
X010159Y009728D01*
X010126Y009698D01*
X010090Y009671D01*
X010053Y009647D01*
X010013Y009626D01*
X009971Y009609D01*
X009929Y009595D01*
X009885Y009586D01*
X009841Y009580D01*
X009796Y009578D01*
X009751Y009580D01*
X009707Y009586D01*
X009663Y009595D01*
X009621Y009609D01*
X009579Y009626D01*
X009539Y009647D01*
X009502Y009671D01*
X009466Y009698D01*
X009433Y009728D01*
X009403Y009761D01*
X009376Y009797D01*
X009352Y009834D01*
X009331Y009874D01*
X009314Y009916D01*
X009300Y009958D01*
X009291Y010002D01*
X009285Y010046D01*
X009283Y010091D01*
X004952Y010386D02*
X004954Y010431D01*
X004960Y010475D01*
X004969Y010519D01*
X004983Y010561D01*
X005000Y010603D01*
X005021Y010642D01*
X005045Y010680D01*
X005072Y010716D01*
X005102Y010749D01*
X005135Y010779D01*
X005171Y010806D01*
X005208Y010830D01*
X005248Y010851D01*
X005290Y010868D01*
X005332Y010882D01*
X005376Y010891D01*
X005420Y010897D01*
X005465Y010899D01*
X005510Y010897D01*
X005554Y010891D01*
X005598Y010882D01*
X005640Y010868D01*
X005682Y010851D01*
X005721Y010830D01*
X005759Y010806D01*
X005795Y010779D01*
X005828Y010749D01*
X005858Y010716D01*
X005885Y010680D01*
X005909Y010642D01*
X005930Y010603D01*
X005947Y010561D01*
X005961Y010519D01*
X005970Y010475D01*
X005976Y010431D01*
X005978Y010386D01*
X005976Y010341D01*
X005970Y010297D01*
X005961Y010253D01*
X005947Y010211D01*
X005930Y010169D01*
X005909Y010130D01*
X005885Y010092D01*
X005858Y010056D01*
X005828Y010023D01*
X005795Y009993D01*
X005759Y009966D01*
X005722Y009942D01*
X005682Y009921D01*
X005640Y009904D01*
X005598Y009890D01*
X005554Y009881D01*
X005510Y009875D01*
X005465Y009873D01*
X005420Y009875D01*
X005376Y009881D01*
X005332Y009890D01*
X005290Y009904D01*
X005248Y009921D01*
X005208Y009942D01*
X005171Y009966D01*
X005135Y009993D01*
X005102Y010023D01*
X005072Y010056D01*
X005045Y010092D01*
X005021Y010129D01*
X005000Y010169D01*
X004983Y010211D01*
X004969Y010253D01*
X004960Y010297D01*
X004954Y010341D01*
X004952Y010386D01*
X002787Y010386D02*
X002789Y010431D01*
X002795Y010475D01*
X002804Y010519D01*
X002818Y010561D01*
X002835Y010603D01*
X002856Y010642D01*
X002880Y010680D01*
X002907Y010716D01*
X002937Y010749D01*
X002970Y010779D01*
X003006Y010806D01*
X003043Y010830D01*
X003083Y010851D01*
X003125Y010868D01*
X003167Y010882D01*
X003211Y010891D01*
X003255Y010897D01*
X003300Y010899D01*
X003345Y010897D01*
X003389Y010891D01*
X003433Y010882D01*
X003475Y010868D01*
X003517Y010851D01*
X003556Y010830D01*
X003594Y010806D01*
X003630Y010779D01*
X003663Y010749D01*
X003693Y010716D01*
X003720Y010680D01*
X003744Y010642D01*
X003765Y010603D01*
X003782Y010561D01*
X003796Y010519D01*
X003805Y010475D01*
X003811Y010431D01*
X003813Y010386D01*
X003811Y010341D01*
X003805Y010297D01*
X003796Y010253D01*
X003782Y010211D01*
X003765Y010169D01*
X003744Y010130D01*
X003720Y010092D01*
X003693Y010056D01*
X003663Y010023D01*
X003630Y009993D01*
X003594Y009966D01*
X003557Y009942D01*
X003517Y009921D01*
X003475Y009904D01*
X003433Y009890D01*
X003389Y009881D01*
X003345Y009875D01*
X003300Y009873D01*
X003255Y009875D01*
X003211Y009881D01*
X003167Y009890D01*
X003125Y009904D01*
X003083Y009921D01*
X003043Y009942D01*
X003006Y009966D01*
X002970Y009993D01*
X002937Y010023D01*
X002907Y010056D01*
X002880Y010092D01*
X002856Y010129D01*
X002835Y010169D01*
X002818Y010211D01*
X002804Y010253D01*
X002795Y010297D01*
X002789Y010341D01*
X002787Y010386D01*
X004520Y013103D02*
X006410Y013103D01*
X007079Y013103D02*
X008969Y013103D01*
X009480Y003693D02*
X009482Y003738D01*
X009488Y003782D01*
X009497Y003826D01*
X009511Y003868D01*
X009528Y003910D01*
X009549Y003949D01*
X009573Y003987D01*
X009600Y004023D01*
X009630Y004056D01*
X009663Y004086D01*
X009699Y004113D01*
X009736Y004137D01*
X009776Y004158D01*
X009818Y004175D01*
X009860Y004189D01*
X009904Y004198D01*
X009948Y004204D01*
X009993Y004206D01*
X010038Y004204D01*
X010082Y004198D01*
X010126Y004189D01*
X010168Y004175D01*
X010210Y004158D01*
X010249Y004137D01*
X010287Y004113D01*
X010323Y004086D01*
X010356Y004056D01*
X010386Y004023D01*
X010413Y003987D01*
X010437Y003949D01*
X010458Y003910D01*
X010475Y003868D01*
X010489Y003826D01*
X010498Y003782D01*
X010504Y003738D01*
X010506Y003693D01*
X010504Y003648D01*
X010498Y003604D01*
X010489Y003560D01*
X010475Y003518D01*
X010458Y003476D01*
X010437Y003437D01*
X010413Y003399D01*
X010386Y003363D01*
X010356Y003330D01*
X010323Y003300D01*
X010287Y003273D01*
X010250Y003249D01*
X010210Y003228D01*
X010168Y003211D01*
X010126Y003197D01*
X010082Y003188D01*
X010038Y003182D01*
X009993Y003180D01*
X009948Y003182D01*
X009904Y003188D01*
X009860Y003197D01*
X009818Y003211D01*
X009776Y003228D01*
X009736Y003249D01*
X009699Y003273D01*
X009663Y003300D01*
X009630Y003330D01*
X009600Y003363D01*
X009573Y003399D01*
X009549Y003436D01*
X009528Y003476D01*
X009511Y003518D01*
X009497Y003560D01*
X009488Y003604D01*
X009482Y003648D01*
X009480Y003693D01*
D39*
X012217Y005465D03*
D40*
X019175Y002055D02*
X019325Y002055D01*
X019250Y002055D02*
X019250Y001680D01*
X019175Y001605D01*
X019100Y001605D01*
X019025Y001680D01*
X019485Y001755D02*
X019710Y001755D01*
X019785Y001830D01*
X019785Y001980D01*
X019710Y002055D01*
X019485Y002055D01*
X019485Y001605D01*
X019945Y001605D02*
X020246Y001605D01*
X020096Y001605D02*
X020096Y002055D01*
X019945Y001905D01*
X038710Y001680D02*
X038785Y001605D01*
X038860Y001605D01*
X038935Y001680D01*
X038935Y002055D01*
X038860Y002055D02*
X039010Y002055D01*
X039170Y002055D02*
X039395Y002055D01*
X039470Y001980D01*
X039470Y001830D01*
X039395Y001755D01*
X039170Y001755D01*
X039170Y001605D02*
X039170Y002055D01*
X039630Y001980D02*
X039705Y002055D01*
X039856Y002055D01*
X039931Y001980D01*
X039931Y001905D01*
X039630Y001605D01*
X039931Y001605D01*
X046607Y001882D02*
X046607Y000937D01*
X048969Y000937D01*
X048969Y005032D01*
X048969Y005701D02*
X046607Y005701D01*
X046607Y005268D01*
X046607Y004638D02*
X046607Y003693D01*
X046607Y003024D02*
X046607Y002512D01*
X054776Y005622D02*
X054973Y005426D01*
X056154Y005426D01*
X056351Y005622D01*
X056587Y006016D02*
X056587Y006882D01*
X056351Y007276D02*
X056154Y007473D01*
X054973Y007473D01*
X054776Y007276D01*
X054540Y006882D02*
X054540Y006016D01*
X046370Y010420D02*
X043030Y007079D01*
X041638Y005687D01*
X040524Y006801D01*
X039689Y005966D01*
X039411Y006244D01*
X039828Y006662D01*
X038158Y008332D01*
X037740Y007914D01*
X037462Y008193D01*
X038297Y009028D01*
X037183Y010142D01*
X038575Y011534D01*
X041916Y014874D01*
X042890Y015849D01*
X043726Y015849D01*
X044422Y015153D01*
X045257Y015988D01*
X045535Y015709D01*
X045118Y015292D01*
X046788Y013621D01*
X047205Y014039D01*
X047484Y013761D01*
X046649Y012925D01*
X047762Y011812D01*
X046370Y010420D01*
X043030Y007079D02*
X042843Y007058D01*
X042656Y007046D01*
X042468Y007043D01*
X042280Y007049D01*
X042093Y007064D01*
X041907Y007088D01*
X041722Y007120D01*
X041539Y007162D01*
X041357Y007212D01*
X041179Y007271D01*
X041004Y007338D01*
X040832Y007413D01*
X040663Y007497D01*
X040524Y007358D01*
X038854Y009028D01*
X038158Y008332D01*
X038854Y009028D02*
X038993Y009167D01*
X039967Y010142D02*
X043308Y013482D01*
X044978Y011812D01*
X041638Y008471D01*
X039967Y010142D01*
X037625Y010142D02*
X037627Y010181D01*
X037633Y010220D01*
X037643Y010258D01*
X037656Y010295D01*
X037673Y010330D01*
X037693Y010364D01*
X037717Y010395D01*
X037744Y010424D01*
X037773Y010450D01*
X037805Y010473D01*
X037839Y010493D01*
X037875Y010509D01*
X037912Y010521D01*
X037951Y010530D01*
X037990Y010535D01*
X038029Y010536D01*
X038068Y010533D01*
X038107Y010526D01*
X038144Y010515D01*
X038181Y010501D01*
X038216Y010483D01*
X038249Y010462D01*
X038280Y010437D01*
X038308Y010410D01*
X038333Y010380D01*
X038355Y010347D01*
X038374Y010313D01*
X038389Y010277D01*
X038401Y010239D01*
X038409Y010201D01*
X038413Y010162D01*
X038413Y010122D01*
X038409Y010083D01*
X038401Y010045D01*
X038389Y010007D01*
X038374Y009971D01*
X038355Y009937D01*
X038333Y009904D01*
X038308Y009874D01*
X038280Y009847D01*
X038249Y009822D01*
X038216Y009801D01*
X038181Y009783D01*
X038144Y009769D01*
X038107Y009758D01*
X038068Y009751D01*
X038029Y009748D01*
X037990Y009749D01*
X037951Y009754D01*
X037912Y009763D01*
X037875Y009775D01*
X037839Y009791D01*
X037805Y009811D01*
X037773Y009834D01*
X037744Y009860D01*
X037717Y009889D01*
X037693Y009920D01*
X037673Y009954D01*
X037656Y009989D01*
X037643Y010026D01*
X037633Y010064D01*
X037627Y010103D01*
X037625Y010142D01*
X045953Y012787D02*
X046036Y012618D01*
X046111Y012446D01*
X046177Y012271D01*
X046236Y012092D01*
X046286Y011911D01*
X046327Y011728D01*
X046360Y011543D01*
X046383Y011357D01*
X046399Y011170D01*
X046405Y010982D01*
X046402Y010794D01*
X046391Y010607D01*
X046371Y010420D01*
X038993Y009167D02*
X038909Y009336D01*
X038834Y009508D01*
X038767Y009683D01*
X038708Y009861D01*
X038658Y010043D01*
X038616Y010226D01*
X038584Y010411D01*
X038560Y010597D01*
X038545Y010784D01*
X038539Y010972D01*
X038542Y011160D01*
X038554Y011347D01*
X038575Y011534D01*
X041916Y014875D02*
X042103Y014897D01*
X042290Y014909D01*
X042478Y014913D01*
X042666Y014907D01*
X042854Y014893D01*
X043040Y014869D01*
X043225Y014837D01*
X043408Y014795D01*
X043589Y014745D01*
X043768Y014685D01*
X043943Y014618D01*
X044115Y014542D01*
X044283Y014457D01*
X044282Y014457D02*
X044422Y014596D01*
X046092Y012925D01*
X046788Y013621D01*
X046092Y012925D02*
X045953Y012786D01*
X046533Y011812D02*
X046535Y011851D01*
X046541Y011890D01*
X046551Y011928D01*
X046564Y011965D01*
X046581Y012000D01*
X046601Y012034D01*
X046625Y012065D01*
X046652Y012094D01*
X046681Y012120D01*
X046713Y012143D01*
X046747Y012163D01*
X046783Y012179D01*
X046820Y012191D01*
X046859Y012200D01*
X046898Y012205D01*
X046937Y012206D01*
X046976Y012203D01*
X047015Y012196D01*
X047052Y012185D01*
X047089Y012171D01*
X047124Y012153D01*
X047157Y012132D01*
X047188Y012107D01*
X047216Y012080D01*
X047241Y012050D01*
X047263Y012017D01*
X047282Y011983D01*
X047297Y011947D01*
X047309Y011909D01*
X047317Y011871D01*
X047321Y011832D01*
X047321Y011792D01*
X047317Y011753D01*
X047309Y011715D01*
X047297Y011677D01*
X047282Y011641D01*
X047263Y011607D01*
X047241Y011574D01*
X047216Y011544D01*
X047188Y011517D01*
X047157Y011492D01*
X047124Y011471D01*
X047089Y011453D01*
X047052Y011439D01*
X047015Y011428D01*
X046976Y011421D01*
X046937Y011418D01*
X046898Y011419D01*
X046859Y011424D01*
X046820Y011433D01*
X046783Y011445D01*
X046747Y011461D01*
X046713Y011481D01*
X046681Y011504D01*
X046652Y011530D01*
X046625Y011559D01*
X046601Y011590D01*
X046581Y011624D01*
X046564Y011659D01*
X046551Y011696D01*
X046541Y011734D01*
X046535Y011773D01*
X046533Y011812D01*
X050741Y012945D02*
X053496Y012945D01*
X053496Y012863D01*
X053496Y012859D02*
X053496Y010189D01*
X050741Y010189D01*
X050741Y012945D01*
X053151Y012725D02*
X053153Y012747D01*
X053159Y012768D01*
X053168Y012787D01*
X053181Y012805D01*
X053197Y012820D01*
X053215Y012832D01*
X053235Y012840D01*
X053256Y012845D01*
X053277Y012846D01*
X053299Y012843D01*
X053320Y012836D01*
X053339Y012826D01*
X053356Y012812D01*
X053370Y012796D01*
X053381Y012777D01*
X053389Y012757D01*
X053393Y012736D01*
X053393Y012714D01*
X053389Y012693D01*
X053381Y012673D01*
X053370Y012654D01*
X053356Y012638D01*
X053339Y012624D01*
X053320Y012614D01*
X053299Y012607D01*
X053277Y012604D01*
X053256Y012605D01*
X053235Y012610D01*
X053215Y012618D01*
X053197Y012630D01*
X053181Y012645D01*
X053168Y012663D01*
X053159Y012682D01*
X053153Y012703D01*
X053151Y012725D01*
X052178Y013890D02*
X050288Y013890D01*
X050288Y015150D02*
X052178Y015150D01*
X045118Y015292D02*
X044422Y014596D01*
X040524Y007358D02*
X039828Y006662D01*
X020071Y011922D02*
X020071Y012788D01*
X019835Y013181D02*
X019638Y013378D01*
X018457Y013378D01*
X018260Y013181D01*
X018024Y012788D02*
X018024Y011922D01*
X018260Y011528D02*
X018457Y011331D01*
X019638Y011331D01*
X019835Y011528D01*
D41*
X015461Y012488D03*
X015184Y012740D03*
X015114Y012723D03*
X015326Y012853D03*
X015499Y012888D03*
X015559Y012895D03*
X015626Y012895D03*
X014544Y012575D03*
X014746Y012330D03*
X013961Y012430D03*
X013936Y012420D03*
X013686Y012403D03*
X013346Y012498D03*
X014884Y012028D03*
X013776Y011815D03*
X013296Y011768D03*
X013206Y011778D03*
X012779Y010950D03*
X012774Y010940D03*
X012771Y010935D03*
X012769Y010933D03*
X012769Y010930D03*
X012761Y010930D03*
X012754Y010908D03*
X012754Y010905D03*
X012756Y010903D03*
X012756Y010900D03*
X012746Y010885D03*
X012741Y010885D03*
X012741Y010880D03*
X012734Y010878D03*
X012734Y010870D03*
X012734Y010868D03*
X012729Y010865D03*
X012724Y010860D03*
X012719Y010863D03*
X012719Y010853D03*
X012716Y010850D03*
X012711Y010848D03*
X012719Y010843D03*
X012716Y010838D03*
X012716Y010835D03*
X012724Y010853D03*
X012731Y010858D03*
X012739Y010893D03*
X012679Y010868D03*
X012661Y010875D03*
X012656Y010838D03*
X012681Y010833D03*
X012686Y010833D03*
X012696Y010840D03*
X012701Y010820D03*
X012704Y010818D03*
X012704Y010815D03*
X012696Y010815D03*
X012696Y010808D03*
X012694Y010805D03*
X012699Y010803D03*
X012701Y010805D03*
X012696Y010800D03*
X012699Y010798D03*
X012691Y010793D03*
X012689Y010788D03*
X012681Y010795D03*
X012679Y010790D03*
X012676Y010788D03*
X012671Y010785D03*
X012671Y010793D03*
X012664Y010805D03*
X012666Y010813D03*
X012679Y010813D03*
X012679Y010810D03*
X012684Y010810D03*
X012686Y010813D03*
X012684Y010803D03*
X012686Y010800D03*
X012676Y010778D03*
X012674Y010770D03*
X012669Y010770D03*
X012664Y010770D03*
X012664Y010765D03*
X012669Y010758D03*
X012669Y010753D03*
X012669Y010750D03*
X012661Y010748D03*
X012659Y010750D03*
X012661Y010753D03*
X012654Y010750D03*
X012651Y010743D03*
X012646Y010740D03*
X012641Y010740D03*
X012649Y010735D03*
X012656Y010740D03*
X012659Y010743D03*
X012659Y010733D03*
X012651Y010723D03*
X012644Y010725D03*
X012639Y010723D03*
X012636Y010720D03*
X012636Y010718D03*
X012634Y010723D03*
X012641Y010718D03*
X012636Y010713D03*
X012634Y010710D03*
X012636Y010708D03*
X012634Y010705D03*
X012634Y010703D03*
X012639Y010705D03*
X012644Y010705D03*
X012649Y010708D03*
X012624Y010703D03*
X012619Y010703D03*
X012619Y010705D03*
X012614Y010705D03*
X012611Y010703D03*
X012606Y010703D03*
X012611Y010710D03*
X012616Y010700D03*
X012619Y010695D03*
X012621Y010693D03*
X012619Y010688D03*
X012616Y010683D03*
X012611Y010683D03*
X012609Y010685D03*
X012609Y010678D03*
X012609Y010675D03*
X012601Y010683D03*
X012601Y010688D03*
X012601Y010693D03*
X012596Y010688D03*
X012591Y010688D03*
X012591Y010690D03*
X012576Y010680D03*
X012569Y010683D03*
X012574Y010668D03*
X012579Y010665D03*
X012584Y010665D03*
X012576Y010660D03*
X012576Y010653D03*
X012571Y010653D03*
X012571Y010650D03*
X012566Y010645D03*
X012569Y010640D03*
X012571Y010638D03*
X012569Y010635D03*
X012571Y010633D03*
X012579Y010625D03*
X012564Y010610D03*
X012559Y010613D03*
X012554Y010615D03*
X012549Y010618D03*
X012546Y010623D03*
X012556Y010623D03*
X012551Y010633D03*
X012556Y010638D03*
X012549Y010643D03*
X012544Y010640D03*
X012539Y010640D03*
X012534Y010640D03*
X012541Y010635D03*
X012536Y010620D03*
X012531Y010623D03*
X012526Y010623D03*
X012526Y010618D03*
X012519Y010628D03*
X012511Y010635D03*
X012519Y010640D03*
X012526Y010650D03*
X012529Y010658D03*
X012536Y010663D03*
X012536Y010665D03*
X012541Y010665D03*
X012541Y010655D03*
X012554Y010658D03*
X012559Y010658D03*
X012559Y010655D03*
X012556Y010650D03*
X012581Y010653D03*
X012586Y010648D03*
X012589Y010650D03*
X012594Y010648D03*
X012604Y010665D03*
X012611Y010660D03*
X012611Y010658D03*
X012614Y010653D03*
X012596Y010670D03*
X012624Y010678D03*
X012561Y010700D03*
X012564Y010708D03*
X012551Y010690D03*
X012551Y010680D03*
X012546Y010680D03*
X012541Y010678D03*
X012534Y010608D03*
X012531Y010603D03*
X012526Y010603D03*
X012524Y010598D03*
X012524Y010593D03*
X012529Y010593D03*
X012529Y010583D03*
X012534Y010575D03*
X012526Y010565D03*
X012531Y010560D03*
X012514Y010553D03*
X012506Y010555D03*
X012504Y010550D03*
X012504Y010545D03*
X012506Y010543D03*
X012501Y010543D03*
X012501Y010540D03*
X012504Y010538D03*
X012506Y010530D03*
X012504Y010528D03*
X012511Y010525D03*
X012496Y010525D03*
X012496Y010520D03*
X012496Y010530D03*
X012489Y010530D03*
X012489Y010533D03*
X012484Y010535D03*
X012484Y010530D03*
X012484Y010528D03*
X012484Y010518D03*
X012486Y010513D03*
X012486Y010510D03*
X012481Y010513D03*
X012474Y010515D03*
X012474Y010505D03*
X012479Y010505D03*
X012479Y010498D03*
X012474Y010498D03*
X012474Y010495D03*
X012476Y010493D03*
X012474Y010490D03*
X012474Y010485D03*
X012476Y010483D03*
X012469Y010483D03*
X012466Y010475D03*
X012461Y010478D03*
X012449Y010473D03*
X012446Y010465D03*
X012446Y010463D03*
X012446Y010460D03*
X012441Y010458D03*
X012444Y010455D03*
X012449Y010453D03*
X012451Y010458D03*
X012444Y010443D03*
X012441Y010440D03*
X012434Y010445D03*
X012429Y010443D03*
X012424Y010443D03*
X012424Y010440D03*
X012416Y010440D03*
X012411Y010440D03*
X012406Y010440D03*
X012406Y010438D03*
X012406Y010433D03*
X012411Y010433D03*
X012414Y010430D03*
X012414Y010428D03*
X012421Y010430D03*
X012424Y010428D03*
X012406Y010418D03*
X012404Y010423D03*
X012399Y010428D03*
X012394Y010433D03*
X012386Y010433D03*
X012386Y010435D03*
X012386Y010438D03*
X012384Y010440D03*
X012379Y010440D03*
X012381Y010433D03*
X012386Y010430D03*
X012386Y010420D03*
X012389Y010415D03*
X012389Y010413D03*
X012389Y010410D03*
X012396Y010410D03*
X012391Y010403D03*
X012386Y010403D03*
X012384Y010395D03*
X012386Y010390D03*
X012396Y010385D03*
X012369Y010393D03*
X012364Y010390D03*
X012356Y010388D03*
X012356Y010383D03*
X012359Y010380D03*
X012354Y010375D03*
X012356Y010373D03*
X012351Y010373D03*
X012351Y010370D03*
X012346Y010373D03*
X012344Y010383D03*
X012351Y010385D03*
X012356Y010395D03*
X012351Y010400D03*
X012344Y010400D03*
X012346Y010418D03*
X012349Y010420D03*
X012349Y010423D03*
X012351Y010418D03*
X012356Y010418D03*
X012361Y010413D03*
X012366Y010413D03*
X012366Y010410D03*
X012364Y010408D03*
X012371Y010400D03*
X012381Y010410D03*
X012376Y010415D03*
X012376Y010423D03*
X012366Y010430D03*
X012371Y010438D03*
X012366Y010445D03*
X012366Y010448D03*
X012366Y010453D03*
X012371Y010448D03*
X012359Y010438D03*
X012351Y010430D03*
X012346Y010430D03*
X012321Y010405D03*
X012324Y010363D03*
X012329Y010363D03*
X012334Y010363D03*
X012326Y010358D03*
X012336Y010348D03*
X012336Y010345D03*
X012339Y010350D03*
X012341Y010343D03*
X012344Y010333D03*
X012334Y010328D03*
X012334Y010325D03*
X012331Y010323D03*
X012331Y010335D03*
X012319Y010340D03*
X012316Y010325D03*
X012311Y010325D03*
X012316Y010320D03*
X012319Y010318D03*
X012314Y010313D03*
X012314Y010308D03*
X012309Y010308D03*
X012306Y010303D03*
X012304Y010298D03*
X012299Y010298D03*
X012294Y010300D03*
X012289Y010308D03*
X012284Y010283D03*
X012279Y010283D03*
X012274Y010270D03*
X012264Y010270D03*
X012259Y010270D03*
X012261Y010265D03*
X012259Y010263D03*
X012249Y010258D03*
X012239Y010263D03*
X012246Y010270D03*
X012224Y010248D03*
X012219Y010248D03*
X012214Y010248D03*
X012214Y010243D03*
X012211Y010240D03*
X012206Y010238D03*
X012206Y010235D03*
X012209Y010230D03*
X012199Y010233D03*
X012194Y010235D03*
X012196Y010240D03*
X012191Y010243D03*
X012194Y010250D03*
X012201Y010250D03*
X012206Y010248D03*
X012209Y010250D03*
X012186Y010255D03*
X012179Y010258D03*
X012159Y010265D03*
X012151Y010265D03*
X012144Y010255D03*
X012139Y010268D03*
X012129Y010265D03*
X012119Y010255D03*
X012114Y010255D03*
X012104Y010250D03*
X012104Y010248D03*
X012099Y010248D03*
X012086Y010243D03*
X012084Y010240D03*
X012071Y010235D03*
X012106Y010230D03*
X012111Y010235D03*
X012114Y010228D03*
X012114Y010220D03*
X012119Y010220D03*
X012124Y010218D03*
X012124Y010215D03*
X012121Y010213D03*
X012119Y010210D03*
X012121Y010205D03*
X012126Y010208D03*
X012126Y010210D03*
X012129Y010213D03*
X012129Y010218D03*
X012131Y010223D03*
X012131Y010225D03*
X012131Y010228D03*
X012141Y010230D03*
X012144Y010228D03*
X012149Y010228D03*
X012149Y010233D03*
X012154Y010233D03*
X012159Y010233D03*
X012164Y010225D03*
X012169Y010223D03*
X012166Y010220D03*
X012174Y010223D03*
X012174Y010225D03*
X012174Y010228D03*
X012181Y010233D03*
X012181Y010235D03*
X012169Y010235D03*
X012179Y010220D03*
X012184Y010220D03*
X012184Y010218D03*
X012189Y010215D03*
X012189Y010223D03*
X012189Y010225D03*
X012164Y010205D03*
X012141Y010210D03*
X012136Y010208D03*
X012131Y010208D03*
X012129Y010205D03*
X012131Y010190D03*
X012141Y010195D03*
X012116Y010195D03*
X012114Y010193D03*
X012109Y010198D03*
X012106Y010205D03*
X012109Y010208D03*
X012114Y010208D03*
X012109Y010220D03*
X012101Y010200D03*
X012099Y010188D03*
X012101Y010185D03*
X012096Y010185D03*
X012094Y010183D03*
X012094Y010180D03*
X012094Y010173D03*
X012084Y010170D03*
X012079Y010170D03*
X012076Y010173D03*
X012074Y010170D03*
X012074Y010168D03*
X012076Y010165D03*
X012071Y010165D03*
X012069Y010163D03*
X012066Y010160D03*
X012061Y010158D03*
X012061Y010155D03*
X012054Y010158D03*
X012049Y010158D03*
X012046Y010155D03*
X012046Y010153D03*
X012051Y010153D03*
X012049Y010145D03*
X012046Y010140D03*
X012039Y010150D03*
X012039Y010160D03*
X012049Y010165D03*
X012051Y010180D03*
X012064Y010170D03*
X012071Y010188D03*
X012074Y010190D03*
X012106Y010185D03*
X012124Y010238D03*
X012171Y010280D03*
X012344Y010360D03*
X012349Y010360D03*
X012349Y010358D03*
X012351Y010363D03*
X012356Y010363D03*
X012356Y010365D03*
X012361Y010365D03*
X012351Y010353D03*
X012411Y010445D03*
X012414Y010455D03*
X012424Y010458D03*
X012424Y010463D03*
X012429Y010463D03*
X012429Y010460D03*
X012434Y010463D03*
X012436Y010468D03*
X012444Y010480D03*
X012444Y010488D03*
X012446Y010498D03*
X012464Y010495D03*
X012484Y010495D03*
X012486Y010493D03*
X012486Y010490D03*
X012484Y010483D03*
X012474Y010473D03*
X012441Y010538D03*
X012476Y010565D03*
X012481Y010565D03*
X012494Y010578D03*
X012499Y010588D03*
X012499Y010590D03*
X012504Y010590D03*
X012509Y010593D03*
X012511Y010595D03*
X012516Y010603D03*
X012519Y010605D03*
X012539Y010603D03*
X012544Y010605D03*
X012551Y010603D03*
X012539Y010598D03*
X012546Y010580D03*
X012519Y010580D03*
X012519Y010585D03*
X012516Y010575D03*
X012509Y010570D03*
X012496Y010555D03*
X012494Y010550D03*
X012494Y010545D03*
X012514Y010543D03*
X012519Y010545D03*
X012484Y010593D03*
X012494Y010603D03*
X012396Y010473D03*
X012394Y010455D03*
X012611Y010790D03*
X012661Y010780D03*
X012681Y010925D03*
X012034Y010138D03*
X012029Y010140D03*
X012026Y010138D03*
X012016Y010135D03*
X012014Y010133D03*
X012006Y010135D03*
X012006Y010138D03*
X012006Y010143D03*
X012001Y010143D03*
X011999Y010138D03*
X011994Y010135D03*
X011996Y010133D03*
X012001Y010130D03*
X012004Y010133D03*
X011994Y010128D03*
X011991Y010125D03*
X011984Y010130D03*
X011976Y010130D03*
X011976Y010138D03*
X011971Y010140D03*
X011964Y010138D03*
X011961Y010135D03*
X011961Y010130D03*
X011966Y010125D03*
X011969Y010128D03*
X011951Y010130D03*
X011944Y010130D03*
X011939Y010133D03*
X011934Y010135D03*
X011931Y010138D03*
X011926Y010138D03*
X011924Y010143D03*
X011916Y010130D03*
X011909Y010135D03*
X011906Y010125D03*
X011901Y010125D03*
X011894Y010130D03*
X011886Y010130D03*
X011881Y010135D03*
X011874Y010135D03*
X011874Y010133D03*
X011866Y010130D03*
X011871Y010125D03*
X011869Y010123D03*
X011861Y010123D03*
X011856Y010123D03*
X011851Y010123D03*
X011856Y010115D03*
X011854Y010110D03*
X011846Y010110D03*
X011841Y010118D03*
X011839Y010123D03*
X011834Y010120D03*
X011829Y010123D03*
X011829Y010125D03*
X011824Y010115D03*
X011824Y010113D03*
X011819Y010113D03*
X011816Y010110D03*
X011816Y010108D03*
X011814Y010100D03*
X011801Y010115D03*
X011799Y010120D03*
X011804Y010120D03*
X011806Y010123D03*
X011811Y010120D03*
X011794Y010123D03*
X011786Y010115D03*
X011784Y010113D03*
X011779Y010110D03*
X011781Y010100D03*
X011774Y010100D03*
X011774Y010098D03*
X011774Y010095D03*
X011766Y010095D03*
X011766Y010093D03*
X011766Y010090D03*
X011766Y010100D03*
X011766Y010105D03*
X011761Y010113D03*
X011759Y010118D03*
X011759Y010120D03*
X011764Y010120D03*
X011764Y010118D03*
X011769Y010120D03*
X011769Y010115D03*
X011756Y010110D03*
X011751Y010105D03*
X011756Y010103D03*
X011744Y010100D03*
X011739Y010103D03*
X011734Y010110D03*
X011729Y010105D03*
X011729Y010103D03*
X011726Y010108D03*
X011721Y010100D03*
X011714Y010103D03*
X011709Y010103D03*
X011706Y010100D03*
X011714Y010095D03*
X011726Y010090D03*
X011696Y010100D03*
X011691Y010103D03*
X011689Y010100D03*
X011686Y010105D03*
X011681Y010103D03*
X011679Y010105D03*
X011676Y010103D03*
X011676Y010095D03*
X011684Y010098D03*
X011666Y010110D03*
X011661Y010110D03*
X011654Y010108D03*
X011646Y010110D03*
X011641Y010110D03*
X011634Y010115D03*
X011634Y010120D03*
X011629Y010115D03*
X011621Y010115D03*
X011616Y010118D03*
X011611Y010120D03*
X011614Y010128D03*
X011599Y010130D03*
X011576Y010133D03*
X011576Y010135D03*
X011569Y010140D03*
X011564Y010148D03*
X011556Y010148D03*
X011556Y010145D03*
X011544Y010160D03*
X011546Y010163D03*
X011544Y010165D03*
X011519Y010163D03*
X011669Y010135D03*
X011661Y010100D03*
X011794Y010105D03*
X011796Y010110D03*
X011844Y010130D03*
X011849Y010133D03*
X011854Y010133D03*
X011874Y010145D03*
X011874Y010148D03*
X011889Y010138D03*
X011881Y010118D03*
X011881Y010113D03*
X011879Y010110D03*
X011876Y010113D03*
X011886Y010113D03*
X011886Y010115D03*
X011906Y010113D03*
X011914Y010120D03*
X011911Y010123D03*
X011919Y010110D03*
X011931Y010120D03*
X011936Y010125D03*
X011936Y010128D03*
X011939Y010115D03*
X011951Y010140D03*
X011954Y010148D03*
X011989Y010140D03*
X011994Y010145D03*
X012014Y010145D03*
X012019Y010148D03*
X011901Y010183D03*
X011886Y010180D03*
X011879Y010178D03*
X011844Y010180D03*
X011831Y010180D03*
X011866Y010108D03*
D42*
X011859Y010125D03*
X011861Y010140D03*
X011874Y010140D03*
X011881Y010145D03*
X011874Y010153D03*
X011876Y010128D03*
X011896Y010138D03*
X011906Y010133D03*
X011906Y010130D03*
X011906Y010128D03*
X011919Y010138D03*
X011941Y010150D03*
X011964Y010150D03*
X011979Y010140D03*
X011984Y010138D03*
X012006Y010158D03*
X012021Y010153D03*
X012026Y010148D03*
X012029Y010143D03*
X012019Y010143D03*
X012039Y010158D03*
X012051Y010163D03*
X012051Y010170D03*
X012066Y010173D03*
X012079Y010175D03*
X012099Y010193D03*
X012109Y010203D03*
X012106Y010213D03*
X012101Y010220D03*
X012116Y010238D03*
X012114Y010250D03*
X012126Y010245D03*
X012131Y010238D03*
X012131Y010233D03*
X012141Y010233D03*
X012141Y010238D03*
X012164Y010240D03*
X012196Y010253D03*
X012206Y010245D03*
X012206Y010243D03*
X012199Y010238D03*
X012234Y010250D03*
X012239Y010258D03*
X012251Y010260D03*
X012294Y010290D03*
X012299Y010303D03*
X012311Y010330D03*
X012334Y010355D03*
X012336Y010353D03*
X012341Y010370D03*
X012351Y010380D03*
X012334Y010383D03*
X012329Y010388D03*
X012336Y010390D03*
X012336Y010395D03*
X012344Y010398D03*
X012324Y010395D03*
X012359Y010430D03*
X012356Y010435D03*
X012374Y010425D03*
X012379Y010435D03*
X012379Y010438D03*
X012379Y010448D03*
X012394Y010438D03*
X012396Y010430D03*
X012409Y010443D03*
X012411Y010450D03*
X012421Y010450D03*
X012424Y010445D03*
X012416Y010438D03*
X012401Y010465D03*
X012404Y010473D03*
X012389Y010470D03*
X012436Y010488D03*
X012454Y010498D03*
X012461Y010493D03*
X012461Y010490D03*
X012461Y010483D03*
X012481Y010523D03*
X012479Y010533D03*
X012506Y010565D03*
X012504Y010568D03*
X012486Y010575D03*
X012479Y010580D03*
X012476Y010578D03*
X012491Y010590D03*
X012491Y010593D03*
X012494Y010595D03*
X012501Y010593D03*
X012504Y010595D03*
X012504Y010598D03*
X012506Y010603D03*
X012511Y010605D03*
X012511Y010613D03*
X012524Y010608D03*
X012531Y010598D03*
X012529Y010595D03*
X012526Y010628D03*
X012521Y010633D03*
X012519Y010635D03*
X012524Y010638D03*
X012536Y010638D03*
X012541Y010643D03*
X012549Y010638D03*
X012556Y010643D03*
X012574Y010663D03*
X012584Y010660D03*
X012584Y010670D03*
X012589Y010675D03*
X012589Y010678D03*
X012586Y010683D03*
X012591Y010685D03*
X012599Y010690D03*
X012586Y010700D03*
X012576Y010683D03*
X012629Y010708D03*
X012626Y010723D03*
X012651Y010753D03*
X012661Y010758D03*
X012664Y010760D03*
X012671Y010773D03*
X012669Y010778D03*
X012671Y010805D03*
X012676Y010808D03*
X012694Y010810D03*
X012694Y010813D03*
X012694Y010820D03*
X012699Y010830D03*
X012704Y010838D03*
X012704Y010840D03*
X012711Y010843D03*
X012711Y010845D03*
X012694Y010838D03*
X012686Y010840D03*
X012676Y010828D03*
X012636Y010833D03*
X012719Y010868D03*
X012726Y010870D03*
X012726Y010873D03*
X012166Y010285D03*
X012131Y010263D03*
X012136Y010215D03*
X011879Y010180D03*
X011836Y010135D03*
X011814Y010123D03*
X011806Y010110D03*
X011794Y010115D03*
X011791Y010118D03*
X011789Y010125D03*
X011799Y010125D03*
X011761Y010115D03*
X011754Y010113D03*
X011756Y010108D03*
X011746Y010103D03*
X011744Y010115D03*
X011759Y010135D03*
X011721Y010103D03*
X011714Y010093D03*
X011701Y010103D03*
X011654Y010103D03*
X011651Y010105D03*
X011654Y010110D03*
X011649Y010115D03*
X011589Y010128D03*
X011589Y010130D03*
X011576Y010130D03*
X011814Y011788D03*
X011814Y011790D03*
X011814Y011793D03*
X011819Y011800D03*
X011821Y011808D03*
X013314Y011850D03*
X013686Y012400D03*
X014899Y012028D03*
D43*
X014915Y012028D03*
X014787Y012333D03*
X014627Y012598D03*
X014532Y012685D03*
X014740Y012725D03*
X015380Y012865D03*
X015585Y012898D03*
X015507Y012488D03*
X015490Y012490D03*
X015480Y012398D03*
X014275Y012298D03*
X013315Y012500D03*
X013775Y011818D03*
X013810Y011808D03*
X014167Y011868D03*
X014205Y011883D03*
X011817Y011798D03*
X011815Y011795D03*
X012647Y010855D03*
X012647Y010840D03*
X012665Y010835D03*
X012672Y010810D03*
X012677Y010793D03*
X012667Y010783D03*
X012670Y010780D03*
X012657Y010773D03*
X012652Y010765D03*
X012655Y010763D03*
X012660Y010745D03*
X012650Y010745D03*
X012647Y010730D03*
X012642Y010728D03*
X012630Y010718D03*
X012622Y010710D03*
X012627Y010705D03*
X012622Y010700D03*
X012620Y010698D03*
X012612Y010695D03*
X012612Y010693D03*
X012610Y010690D03*
X012602Y010695D03*
X012592Y010695D03*
X012585Y010688D03*
X012595Y010683D03*
X012597Y010675D03*
X012597Y010673D03*
X012580Y010678D03*
X012577Y010673D03*
X012575Y010670D03*
X012570Y010665D03*
X012567Y010668D03*
X012567Y010655D03*
X012577Y010655D03*
X012565Y010643D03*
X012555Y010653D03*
X012550Y010640D03*
X012537Y010623D03*
X012532Y010618D03*
X012530Y010620D03*
X012525Y010613D03*
X012525Y010605D03*
X012517Y010598D03*
X012510Y010600D03*
X012517Y010588D03*
X012510Y010583D03*
X012495Y010575D03*
X012487Y010573D03*
X012485Y010578D03*
X012485Y010585D03*
X012490Y010565D03*
X012497Y010565D03*
X012505Y010553D03*
X012512Y010555D03*
X012517Y010550D03*
X012512Y010563D03*
X012532Y010568D03*
X012505Y010535D03*
X012482Y010538D03*
X012480Y010515D03*
X012475Y010510D03*
X012472Y010503D03*
X012462Y010498D03*
X012452Y010490D03*
X012450Y010485D03*
X012450Y010483D03*
X012452Y010480D03*
X012452Y010478D03*
X012452Y010475D03*
X012460Y010475D03*
X012455Y010468D03*
X012445Y010468D03*
X012440Y010465D03*
X012430Y010468D03*
X012430Y010458D03*
X012430Y010453D03*
X012432Y010450D03*
X012432Y010438D03*
X012425Y010435D03*
X012415Y010435D03*
X012405Y010428D03*
X012402Y010445D03*
X012395Y010443D03*
X012380Y010430D03*
X012382Y010425D03*
X012375Y010428D03*
X012365Y010428D03*
X012365Y010435D03*
X012365Y010438D03*
X012360Y010440D03*
X012360Y010445D03*
X012355Y010433D03*
X012342Y010423D03*
X012342Y010420D03*
X012340Y010418D03*
X012327Y010408D03*
X012315Y010395D03*
X012310Y010393D03*
X012327Y010390D03*
X012337Y010388D03*
X012345Y010388D03*
X012345Y010390D03*
X012347Y010393D03*
X012345Y010395D03*
X012345Y010385D03*
X012350Y010383D03*
X012352Y010378D03*
X012355Y010390D03*
X012355Y010398D03*
X012360Y010400D03*
X012365Y010405D03*
X012355Y010405D03*
X012370Y010415D03*
X012380Y010418D03*
X012390Y010418D03*
X012387Y010408D03*
X012380Y010408D03*
X012380Y010405D03*
X012365Y010385D03*
X012342Y010363D03*
X012337Y010365D03*
X012342Y010355D03*
X012327Y010353D03*
X012332Y010343D03*
X012327Y010340D03*
X012320Y010330D03*
X012310Y010320D03*
X012307Y010323D03*
X012302Y010318D03*
X012305Y010313D03*
X012292Y010293D03*
X012285Y010293D03*
X012272Y010283D03*
X012267Y010275D03*
X012252Y010270D03*
X012252Y010263D03*
X012245Y010263D03*
X012230Y010243D03*
X012205Y010253D03*
X012197Y010248D03*
X012192Y010255D03*
X012187Y010250D03*
X012185Y010253D03*
X012177Y010255D03*
X012175Y010245D03*
X012177Y010243D03*
X012177Y010240D03*
X012175Y010235D03*
X012175Y010233D03*
X012177Y010230D03*
X012167Y010233D03*
X012162Y010250D03*
X012142Y010240D03*
X012132Y010230D03*
X012137Y010223D03*
X012147Y010218D03*
X012150Y010223D03*
X012135Y010210D03*
X012125Y010223D03*
X012122Y010233D03*
X012117Y010245D03*
X012095Y010243D03*
X012100Y010230D03*
X012115Y010213D03*
X012100Y010195D03*
X012100Y010190D03*
X012087Y010185D03*
X012077Y010185D03*
X012065Y010188D03*
X012067Y010175D03*
X012067Y010168D03*
X012057Y010160D03*
X012055Y010148D03*
X012040Y010148D03*
X012035Y010145D03*
X012027Y010145D03*
X012020Y010145D03*
X012020Y010140D03*
X012030Y010153D03*
X012032Y010160D03*
X012025Y010160D03*
X012040Y010155D03*
X012042Y010165D03*
X012082Y010168D03*
X012087Y010165D03*
X012087Y010173D03*
X012090Y010175D03*
X012000Y010140D03*
X011995Y010143D03*
X011992Y010138D03*
X011985Y010133D03*
X011977Y010133D03*
X011975Y010135D03*
X011970Y010138D03*
X011970Y010130D03*
X011975Y010128D03*
X011957Y010133D03*
X011957Y010138D03*
X011952Y010135D03*
X011947Y010133D03*
X011947Y010138D03*
X011945Y010140D03*
X011940Y010138D03*
X011940Y010135D03*
X011935Y010130D03*
X011930Y010133D03*
X011927Y010125D03*
X011942Y010128D03*
X011927Y010145D03*
X011905Y010138D03*
X011887Y010125D03*
X011870Y010118D03*
X011855Y010118D03*
X011855Y010120D03*
X011850Y010125D03*
X011850Y010130D03*
X011845Y010135D03*
X011837Y010130D03*
X011840Y010125D03*
X011830Y010130D03*
X011835Y010138D03*
X011817Y010120D03*
X011820Y010118D03*
X011812Y010118D03*
X011800Y010123D03*
X011787Y010120D03*
X011775Y010115D03*
X011772Y010113D03*
X011772Y010110D03*
X011775Y010103D03*
X011767Y010123D03*
X011752Y010118D03*
X011752Y010115D03*
X011747Y010110D03*
X011747Y010108D03*
X011740Y010110D03*
X011740Y010105D03*
X011702Y010105D03*
X011695Y010105D03*
X011685Y010115D03*
X011677Y010108D03*
X011672Y010105D03*
X011665Y010103D03*
X011662Y010108D03*
X011660Y010115D03*
X011640Y010115D03*
X011640Y010113D03*
X011632Y010125D03*
X011627Y010120D03*
X011625Y010125D03*
X011617Y010123D03*
X011610Y010123D03*
X011607Y010128D03*
X011605Y010125D03*
X011600Y010128D03*
X011587Y010133D03*
X011582Y010135D03*
X011565Y010150D03*
X011550Y010148D03*
X011485Y010188D03*
X011680Y010100D03*
X011800Y010105D03*
X011955Y010150D03*
X011972Y010158D03*
X012185Y010243D03*
X012195Y010263D03*
X012377Y010463D03*
X012410Y010465D03*
X012437Y010480D03*
X012435Y010485D03*
X012442Y010485D03*
X012442Y010483D03*
X012440Y010495D03*
X012485Y010505D03*
X012492Y010513D03*
X012492Y010515D03*
X012502Y010613D03*
X012510Y010615D03*
X012510Y010623D03*
X012515Y010625D03*
X012520Y010630D03*
X012525Y010640D03*
X012522Y010648D03*
X012537Y010660D03*
X012542Y010663D03*
X012540Y010670D03*
X012550Y010683D03*
X012612Y010708D03*
X012617Y010800D03*
X012685Y010775D03*
X012692Y010818D03*
X012697Y010828D03*
X012712Y010840D03*
X012712Y010853D03*
X012715Y010858D03*
X012727Y010855D03*
X012727Y010868D03*
X012730Y010875D03*
X012735Y010873D03*
X012737Y010875D03*
X012740Y010883D03*
X012745Y010893D03*
X012750Y010903D03*
X012760Y010915D03*
X012730Y010898D03*
X012785Y010968D03*
D44*
X012742Y010898D03*
X012712Y010870D03*
X012702Y010858D03*
X012702Y010833D03*
X012682Y010830D03*
X012672Y010823D03*
X012680Y010818D03*
X012622Y010720D03*
X012572Y010700D03*
X012565Y010680D03*
X012552Y010678D03*
X012497Y010600D03*
X012470Y010513D03*
X012417Y010473D03*
X012417Y010453D03*
X012367Y010418D03*
X012360Y010425D03*
X012335Y010393D03*
X012332Y010378D03*
X012332Y010373D03*
X012247Y010265D03*
X012235Y010268D03*
X012190Y010258D03*
X012167Y010258D03*
X012155Y010235D03*
X012112Y010240D03*
X012105Y010245D03*
X012095Y010240D03*
X012085Y010235D03*
X012085Y010190D03*
X011960Y010145D03*
X011940Y010145D03*
X011857Y010143D03*
X011857Y010135D03*
X011807Y010113D03*
X011805Y010108D03*
X011775Y010118D03*
X011720Y010110D03*
X011717Y010105D03*
X011672Y010115D03*
X011647Y010118D03*
X011555Y010158D03*
X011455Y010220D03*
X011827Y011735D03*
X011832Y011738D03*
X011832Y011740D03*
X011835Y011745D03*
X011837Y011748D03*
X011852Y011768D03*
X014272Y012295D03*
D45*
X011847Y011760D03*
X011815Y011725D03*
X011810Y011718D03*
X011807Y011715D03*
X012665Y010868D03*
X012655Y010853D03*
X012670Y010838D03*
X012695Y010845D03*
X012632Y010730D03*
X012577Y010710D03*
X012555Y010670D03*
X012555Y010665D03*
X012557Y010663D03*
X012540Y010650D03*
X012495Y010580D03*
X012457Y010503D03*
X012422Y010480D03*
X012407Y010485D03*
X012400Y010480D03*
X012395Y010448D03*
X012362Y010423D03*
X012325Y010400D03*
X012312Y010390D03*
X012312Y010388D03*
X012207Y010255D03*
X012117Y010248D03*
X012100Y010238D03*
X012047Y010173D03*
X012022Y010158D03*
X011980Y010145D03*
X011857Y010153D03*
X011845Y010140D03*
X011852Y010128D03*
X011700Y010110D03*
X011700Y010108D03*
X011650Y010120D03*
X011532Y010163D03*
X011530Y010160D03*
D46*
X011547Y010150D03*
X011607Y010130D03*
X011615Y010125D03*
X011652Y010113D03*
X011717Y010108D03*
X011742Y010118D03*
X011777Y010120D03*
X011812Y010115D03*
X011840Y010133D03*
X011845Y010138D03*
X011852Y010148D03*
X011857Y010138D03*
X011865Y010148D03*
X011872Y010143D03*
X011882Y010133D03*
X011892Y010135D03*
X011895Y010133D03*
X011865Y010120D03*
X011840Y010150D03*
X011960Y010140D03*
X011985Y010135D03*
X012002Y010145D03*
X012005Y010148D03*
X012010Y010140D03*
X012015Y010138D03*
X012015Y010160D03*
X012042Y010168D03*
X012047Y010160D03*
X012062Y010185D03*
X012082Y010238D03*
X012122Y010228D03*
X012152Y010240D03*
X012177Y010250D03*
X012182Y010248D03*
X012217Y010245D03*
X012217Y010238D03*
X012217Y010265D03*
X012250Y010268D03*
X012317Y010323D03*
X012335Y010358D03*
X012335Y010360D03*
X012335Y010385D03*
X012320Y010393D03*
X012345Y010425D03*
X012360Y010415D03*
X012370Y010440D03*
X012392Y010440D03*
X012387Y010473D03*
X012425Y010485D03*
X012425Y010488D03*
X012432Y010473D03*
X012440Y010470D03*
X012455Y010488D03*
X012467Y010488D03*
X012467Y010565D03*
X012475Y010570D03*
X012475Y010575D03*
X012487Y010583D03*
X012485Y010588D03*
X012500Y010583D03*
X012502Y010578D03*
X012505Y010575D03*
X012507Y010588D03*
X012500Y010605D03*
X012510Y010618D03*
X012522Y010615D03*
X012532Y010630D03*
X012530Y010635D03*
X012545Y010645D03*
X012550Y010635D03*
X012560Y010640D03*
X012557Y010645D03*
X012550Y010655D03*
X012532Y010655D03*
X012560Y010683D03*
X012570Y010678D03*
X012577Y010675D03*
X012587Y010673D03*
X012595Y010703D03*
X012602Y010700D03*
X012585Y010738D03*
X012640Y010755D03*
X012652Y010755D03*
X012652Y010760D03*
X012657Y010818D03*
X012670Y010815D03*
X012685Y010815D03*
X012687Y010828D03*
X012675Y010835D03*
X012645Y010838D03*
X012640Y010835D03*
X012715Y010873D03*
X012725Y010878D03*
X012145Y010270D03*
X011452Y010223D03*
X014150Y011868D03*
X013657Y012405D03*
D47*
X013384Y012365D03*
X011849Y011765D03*
X011849Y011763D03*
X011839Y011755D03*
X011839Y011753D03*
X011839Y011750D03*
X011834Y011743D03*
X011821Y011728D03*
X012744Y010900D03*
X012704Y010835D03*
X012599Y010710D03*
X012606Y010698D03*
X012541Y010658D03*
X012529Y010645D03*
X012526Y010643D03*
X012536Y010633D03*
X012506Y010608D03*
X012491Y010570D03*
X012484Y010555D03*
X012481Y010550D03*
X012461Y010550D03*
X012466Y010500D03*
X012446Y010500D03*
X012424Y010465D03*
X012426Y010448D03*
X012386Y010465D03*
X012384Y010460D03*
X012369Y010433D03*
X012364Y010403D03*
X012324Y010348D03*
X012171Y010253D03*
X012159Y010243D03*
X012156Y010238D03*
X012131Y010255D03*
X012119Y010230D03*
X012084Y010188D03*
X011996Y010155D03*
X011939Y010148D03*
X011939Y010143D03*
X011886Y010148D03*
X011781Y010123D03*
X011679Y010110D03*
X011679Y010140D03*
X011601Y010133D03*
X011546Y010153D03*
X011536Y010158D03*
X015486Y012488D03*
X015529Y012890D03*
X015621Y012898D03*
D48*
X013656Y012395D03*
X013381Y012383D03*
X013804Y011820D03*
X012679Y010850D03*
X012229Y010275D03*
X011796Y010138D03*
X011694Y010113D03*
X012231Y013643D03*
D49*
X013386Y012363D03*
X013806Y011810D03*
X011841Y011758D03*
X011826Y011733D03*
X011826Y011730D03*
X011821Y011803D03*
X011821Y011805D03*
X012654Y010835D03*
X012676Y010845D03*
X012694Y010823D03*
X012666Y010803D03*
X012661Y010775D03*
X012644Y010748D03*
X012624Y010713D03*
X012599Y010738D03*
X012579Y010685D03*
X012591Y010680D03*
X012584Y010668D03*
X012571Y010658D03*
X012541Y010628D03*
X012516Y010620D03*
X012529Y010600D03*
X012491Y010598D03*
X012499Y010573D03*
X012476Y010573D03*
X012466Y010555D03*
X012469Y010535D03*
X012454Y010495D03*
X012449Y010493D03*
X012441Y010490D03*
X012426Y010483D03*
X012419Y010468D03*
X012424Y010455D03*
X012404Y010455D03*
X012374Y010420D03*
X012359Y010420D03*
X012354Y010428D03*
X012296Y010380D03*
X012326Y010345D03*
X012299Y010308D03*
X012284Y010285D03*
X012231Y010265D03*
X012226Y010258D03*
X012219Y010250D03*
X012211Y010258D03*
X012194Y010245D03*
X012166Y010273D03*
X012161Y010280D03*
X012151Y010273D03*
X012141Y010265D03*
X012139Y010243D03*
X012139Y010235D03*
X012141Y010225D03*
X012129Y010240D03*
X012121Y010235D03*
X012119Y010225D03*
X012101Y010235D03*
X011979Y010155D03*
X011931Y010140D03*
X011924Y010135D03*
X011871Y010138D03*
X011834Y010148D03*
X011816Y010125D03*
X011774Y010125D03*
X011741Y010113D03*
X011869Y010178D03*
X011534Y010165D03*
X011519Y010165D03*
X012464Y010485D03*
X012744Y010888D03*
D50*
X012670Y010858D03*
X012645Y010810D03*
X012610Y010748D03*
X012592Y010713D03*
X012587Y010705D03*
X012477Y010553D03*
X012470Y010540D03*
X012455Y010528D03*
X012047Y010215D03*
X011712Y010115D03*
X011767Y011735D03*
X011795Y011773D03*
X011795Y011775D03*
X011797Y011778D03*
X013312Y012498D03*
X013810Y011815D03*
X012227Y013648D03*
D51*
X015489Y012480D03*
X014766Y012320D03*
X014269Y012285D03*
X013654Y012388D03*
X014889Y012035D03*
X014151Y011878D03*
X012724Y010933D03*
X012724Y010928D03*
X011719Y010133D03*
X011696Y010118D03*
X011626Y010135D03*
D52*
X011680Y010120D03*
X011905Y010145D03*
X011912Y010148D03*
X011985Y010150D03*
X012105Y010218D03*
X012225Y010253D03*
X012230Y010260D03*
X012305Y010378D03*
X012310Y010383D03*
X012312Y010385D03*
X012385Y010453D03*
X012395Y010468D03*
X012410Y010460D03*
X012427Y010503D03*
X012557Y010660D03*
X012610Y010758D03*
X012697Y010868D03*
D53*
X012709Y010865D03*
X012721Y010880D03*
X012579Y010698D03*
X012564Y010688D03*
X012481Y010568D03*
X012461Y010538D03*
X012419Y010495D03*
X012384Y010450D03*
X012321Y010380D03*
X012079Y010230D03*
X012071Y010180D03*
X011906Y010140D03*
X011904Y010143D03*
X011714Y010120D03*
X011524Y010168D03*
X013814Y011813D03*
X014271Y012293D03*
D54*
X014784Y012330D03*
X013384Y012368D03*
X011814Y011723D03*
X011811Y011720D03*
X012709Y010860D03*
X012694Y010843D03*
X012641Y010773D03*
X012644Y010758D03*
X012634Y010745D03*
X012559Y010685D03*
X012536Y010653D03*
X012534Y010625D03*
X012501Y010585D03*
X012449Y010535D03*
X012406Y010488D03*
X012379Y010455D03*
X012341Y010415D03*
X012339Y010405D03*
X012269Y010350D03*
X012299Y010305D03*
X012149Y010263D03*
X012031Y010170D03*
X011989Y010158D03*
X011964Y010153D03*
X011836Y010143D03*
X011744Y010120D03*
X012234Y013650D03*
D55*
X012234Y013633D03*
X012424Y013470D03*
X012426Y013468D03*
X012431Y013463D03*
X012434Y013460D03*
X012436Y013458D03*
X012441Y013453D03*
X012446Y013448D03*
X012449Y013443D03*
X013229Y012398D03*
X013654Y012190D03*
X013654Y012188D03*
X013654Y012185D03*
X013654Y012183D03*
X013654Y012180D03*
X013539Y011935D03*
X013536Y011930D03*
X013534Y011928D03*
X013761Y011873D03*
X013764Y011870D03*
X013766Y011868D03*
X013774Y011858D03*
X014054Y012005D03*
X014051Y012010D03*
X014051Y012013D03*
X014044Y012028D03*
X014044Y012030D03*
X014044Y012033D03*
X014266Y012253D03*
X013969Y012363D03*
X013969Y012365D03*
X013964Y012385D03*
X013964Y012388D03*
X013964Y012390D03*
X013964Y012393D03*
X013964Y012395D03*
X014754Y012180D03*
X014761Y012165D03*
X014764Y012160D03*
X014764Y012158D03*
X014884Y012043D03*
X015691Y011990D03*
X015691Y011988D03*
X015694Y011985D03*
X015694Y011983D03*
X015699Y011933D03*
X015466Y012460D03*
X011409Y010393D03*
X011409Y010390D03*
X011416Y010375D03*
X011419Y010370D03*
X011421Y010365D03*
X011424Y010360D03*
X011424Y010358D03*
X011426Y010355D03*
X011426Y010353D03*
X011699Y010123D03*
X011701Y010125D03*
X011944Y010160D03*
X011969Y010168D03*
D56*
X012022Y010193D03*
X011687Y010128D03*
X011452Y010305D03*
X011450Y010310D03*
X011450Y010313D03*
X013160Y011870D03*
X013475Y011875D03*
X013482Y011878D03*
X013495Y011890D03*
X014072Y011980D03*
X014357Y012005D03*
X014360Y012000D03*
X014370Y011985D03*
X014372Y011983D03*
X014375Y011980D03*
X014267Y012228D03*
X014782Y012133D03*
X014877Y012048D03*
X015677Y012010D03*
X015682Y011918D03*
X015670Y011898D03*
X013652Y012135D03*
X013652Y012138D03*
X013652Y012140D03*
X013652Y012143D03*
X013652Y012145D03*
X013652Y012148D03*
X013652Y012150D03*
X014547Y012598D03*
X012390Y013505D03*
X012387Y013508D03*
X012237Y013628D03*
D57*
X013652Y012403D03*
X012730Y010890D03*
X012657Y010848D03*
X012655Y010845D03*
X012637Y010818D03*
X012615Y010773D03*
X012635Y010743D03*
X012590Y010735D03*
X012575Y010703D03*
X012517Y010610D03*
X012422Y010500D03*
X012405Y010483D03*
X012382Y010445D03*
X012345Y010408D03*
X012340Y010413D03*
X012175Y010263D03*
X012160Y010255D03*
X012112Y010243D03*
X012020Y010155D03*
X011812Y010130D03*
X011777Y010133D03*
X011772Y010128D03*
D58*
X011809Y010128D03*
X012064Y010183D03*
X012074Y010195D03*
X012151Y010248D03*
X012164Y010268D03*
X012411Y010478D03*
X012456Y010530D03*
X012469Y010545D03*
X012469Y010548D03*
X012599Y010730D03*
X012629Y010738D03*
X012636Y010803D03*
X012639Y010805D03*
X012681Y010880D03*
X011766Y011733D03*
X011779Y011748D03*
X011779Y011750D03*
X011779Y011753D03*
X011799Y011780D03*
X015676Y011873D03*
D59*
X014151Y011873D03*
X011791Y011768D03*
X012641Y010790D03*
X012634Y010783D03*
X012449Y010518D03*
X012444Y010510D03*
X012414Y010475D03*
X012061Y010218D03*
X011644Y010130D03*
D60*
X011716Y010130D03*
X011716Y010138D03*
X011891Y010150D03*
X012239Y010305D03*
X012241Y010308D03*
X012261Y010320D03*
X012726Y010938D03*
X012731Y010945D03*
X012736Y010955D03*
X012739Y010960D03*
X012741Y010963D03*
X012741Y010965D03*
X012744Y010970D03*
X012746Y010973D03*
X012756Y010995D03*
X012766Y011020D03*
X012766Y011023D03*
X012769Y011030D03*
X012771Y011033D03*
X012784Y011060D03*
X012784Y011063D03*
X012784Y011065D03*
X012784Y011068D03*
X012786Y011075D03*
X012789Y011080D03*
X012794Y011088D03*
X012799Y011103D03*
X012799Y011105D03*
X012801Y011115D03*
X012809Y011128D03*
X012809Y011130D03*
X012809Y011133D03*
X012809Y011135D03*
X012811Y011140D03*
X012814Y011145D03*
X012816Y011153D03*
X012816Y011155D03*
X012821Y011170D03*
X012821Y011173D03*
X012829Y011185D03*
X012829Y011188D03*
X012829Y011190D03*
X012829Y011193D03*
X012836Y011213D03*
X012836Y011215D03*
X012836Y011218D03*
X012836Y011220D03*
X012836Y011223D03*
X012839Y011228D03*
X012839Y011230D03*
X012844Y011238D03*
X012844Y011240D03*
X012844Y011243D03*
X012844Y011245D03*
X012844Y011248D03*
X012846Y011250D03*
X012849Y011255D03*
X012849Y011258D03*
X012849Y011260D03*
X012849Y011263D03*
X012849Y011265D03*
X012851Y011270D03*
X012851Y011273D03*
X012854Y011275D03*
X012854Y011278D03*
X012854Y011280D03*
X012854Y011283D03*
X012856Y011285D03*
X012861Y011308D03*
X012864Y011313D03*
X012864Y011315D03*
X012864Y011325D03*
X012869Y011338D03*
X012876Y011368D03*
X012876Y011370D03*
X012876Y011373D03*
X012876Y011375D03*
X012876Y011378D03*
X012881Y011395D03*
X012881Y011398D03*
X012881Y011400D03*
X012884Y011403D03*
X012889Y011428D03*
X012886Y011435D03*
X012889Y011438D03*
X012889Y011440D03*
X012889Y011443D03*
X012891Y011450D03*
X012891Y011453D03*
X012891Y011455D03*
X012901Y011500D03*
X012901Y011503D03*
X012901Y011505D03*
X012901Y011508D03*
X012901Y011510D03*
X012901Y011513D03*
X012901Y011515D03*
X012901Y011525D03*
X012904Y011528D03*
X012904Y011530D03*
X012904Y011533D03*
X012906Y011555D03*
X012906Y011558D03*
X012906Y011560D03*
X012906Y011563D03*
X012906Y011565D03*
X012906Y011568D03*
X012906Y011570D03*
X012914Y011610D03*
X012914Y011613D03*
X012914Y011615D03*
X012914Y011618D03*
X012916Y011653D03*
X012916Y011655D03*
X012919Y011673D03*
X012919Y011685D03*
X012919Y011688D03*
X012921Y011708D03*
X012924Y011713D03*
X012924Y011715D03*
X012924Y011718D03*
X012924Y011720D03*
X012924Y011723D03*
X012924Y011725D03*
X012924Y011728D03*
X012924Y011733D03*
X012924Y011735D03*
X012924Y011740D03*
X012924Y011743D03*
X012924Y011745D03*
X012924Y011763D03*
X012924Y011765D03*
X012924Y011768D03*
X012924Y011770D03*
X012926Y011785D03*
X012926Y011788D03*
X012926Y011798D03*
X012926Y011800D03*
X012926Y011803D03*
X012926Y011805D03*
X012926Y011815D03*
X012926Y011818D03*
X012926Y011820D03*
X012926Y011835D03*
X012929Y011860D03*
X012929Y011863D03*
X012929Y011865D03*
X012926Y011870D03*
X012926Y011873D03*
X012926Y011875D03*
X012929Y011880D03*
X012929Y011883D03*
X012929Y011885D03*
X012929Y011888D03*
X012929Y011890D03*
X012929Y011893D03*
X012929Y011895D03*
X012929Y011898D03*
X012929Y011900D03*
X012929Y011903D03*
X012929Y011905D03*
X012929Y011918D03*
X012929Y011920D03*
X012929Y011923D03*
X012929Y011925D03*
X012929Y011928D03*
X012929Y011930D03*
X012929Y011933D03*
X012929Y011950D03*
X012929Y011953D03*
X012929Y011963D03*
X012929Y011965D03*
X012929Y011968D03*
X012924Y011980D03*
X012924Y011983D03*
X012926Y011985D03*
X012926Y011990D03*
X012926Y011993D03*
X012926Y011995D03*
X012926Y011998D03*
X012926Y012000D03*
X012926Y012003D03*
X012926Y012005D03*
X012926Y012008D03*
X012926Y012013D03*
X012926Y012015D03*
X012926Y012018D03*
X012926Y012020D03*
X012926Y012023D03*
X012926Y012025D03*
X012926Y012028D03*
X012926Y012030D03*
X012924Y012043D03*
X012924Y012045D03*
X012924Y012048D03*
X012924Y012063D03*
X012921Y012070D03*
X012924Y012093D03*
X012924Y012095D03*
X012924Y012098D03*
X012924Y012100D03*
X012924Y012103D03*
X012921Y012128D03*
X012919Y012135D03*
X012919Y012145D03*
X012919Y012158D03*
X012919Y012160D03*
X012919Y012163D03*
X012916Y012175D03*
X012916Y012178D03*
X012916Y012180D03*
X012916Y012183D03*
X012916Y012185D03*
X012914Y012190D03*
X012914Y012193D03*
X012914Y012208D03*
X012914Y012210D03*
X012914Y012213D03*
X012914Y012215D03*
X012914Y012218D03*
X012909Y012260D03*
X012909Y012263D03*
X012906Y012268D03*
X012906Y012270D03*
X012906Y012273D03*
X012906Y012285D03*
X012906Y012288D03*
X012899Y012330D03*
X012899Y012333D03*
X012899Y012335D03*
X012896Y012353D03*
X012896Y012355D03*
X012894Y012370D03*
X012894Y012373D03*
X012894Y012375D03*
X012894Y012378D03*
X012894Y012380D03*
X012891Y012385D03*
X012891Y012388D03*
X012891Y012390D03*
X012891Y012393D03*
X012891Y012395D03*
X012889Y012400D03*
X012889Y012403D03*
X012886Y012418D03*
X012886Y012420D03*
X012886Y012423D03*
X012884Y012435D03*
X012881Y012450D03*
X012879Y012458D03*
X012876Y012470D03*
X012876Y012473D03*
X012874Y012488D03*
X012871Y012510D03*
X012869Y012518D03*
X012869Y012520D03*
X012869Y012523D03*
X012866Y012533D03*
X012864Y012540D03*
X012864Y012543D03*
X012864Y012545D03*
X012859Y012563D03*
X012841Y012638D03*
X012834Y012668D03*
X012831Y012675D03*
X012806Y012758D03*
X012804Y012768D03*
X012804Y012770D03*
X012804Y012773D03*
X012796Y012793D03*
X013319Y012490D03*
X013969Y012415D03*
X014764Y012315D03*
X014764Y012313D03*
D61*
X013977Y012428D03*
X013655Y012400D03*
X015600Y012895D03*
X012690Y010848D03*
X012660Y010833D03*
X012602Y010745D03*
X012592Y010720D03*
X012555Y010673D03*
X012415Y010490D03*
X012412Y010470D03*
X012335Y010403D03*
X012217Y010263D03*
X012150Y010245D03*
X011967Y010143D03*
X011842Y010178D03*
X011780Y010130D03*
D62*
X011647Y010133D03*
X012067Y010220D03*
X012295Y010358D03*
X012297Y010360D03*
X012305Y010370D03*
X012440Y010505D03*
X012490Y010558D03*
X012487Y010560D03*
X012597Y010718D03*
X012607Y010740D03*
X012617Y010753D03*
X012622Y010763D03*
X012635Y010785D03*
X011757Y011720D03*
X013387Y012375D03*
X013662Y012398D03*
X013977Y012425D03*
X015572Y012890D03*
D63*
X014152Y011870D03*
X011785Y011765D03*
X011785Y011763D03*
X011782Y011758D03*
X011780Y011755D03*
X011777Y011745D03*
X012660Y010843D03*
X012652Y010830D03*
X012650Y010828D03*
X012642Y010815D03*
X012687Y010853D03*
X012625Y010735D03*
X012587Y010708D03*
X012420Y010493D03*
X012172Y010275D03*
X012192Y010260D03*
X012092Y010215D03*
X011812Y010133D03*
D64*
X011712Y010135D03*
X012710Y010905D03*
X012715Y010910D03*
X012720Y010918D03*
X012740Y010968D03*
X012750Y010985D03*
X012752Y010988D03*
X012855Y011293D03*
X012855Y011295D03*
X012895Y011468D03*
X012922Y011940D03*
X012922Y011943D03*
X012922Y011945D03*
X012925Y011948D03*
X013375Y012385D03*
X014532Y012585D03*
X014510Y011850D03*
D65*
X013977Y012420D03*
X014527Y012580D03*
X015492Y012485D03*
X013317Y012495D03*
X012700Y010893D03*
X012682Y010863D03*
X012685Y010855D03*
X012307Y010368D03*
X012290Y010353D03*
X012280Y010345D03*
X012077Y010223D03*
X011797Y010135D03*
D66*
X011625Y010138D03*
X011622Y010140D03*
X012197Y010270D03*
X012735Y010953D03*
X012737Y010958D03*
X012785Y011070D03*
X012785Y011073D03*
X012787Y011078D03*
X012800Y011108D03*
X012800Y011110D03*
X012800Y011113D03*
X012810Y011138D03*
X012812Y011143D03*
X012815Y011148D03*
X012815Y011150D03*
X012817Y011158D03*
X012817Y011160D03*
X012820Y011168D03*
X012837Y011225D03*
X012840Y011233D03*
X012862Y011310D03*
X012907Y011573D03*
X012907Y011575D03*
X012907Y011578D03*
X012910Y011585D03*
X012910Y011588D03*
X012910Y011590D03*
X012910Y011595D03*
X012910Y011598D03*
X012910Y011600D03*
X012910Y011603D03*
X012912Y011608D03*
X012912Y011633D03*
X012912Y011635D03*
X012912Y011638D03*
X012915Y011645D03*
X012915Y011648D03*
X012915Y011650D03*
X012920Y011690D03*
X012920Y011693D03*
X012920Y011695D03*
X012920Y011698D03*
X012920Y011700D03*
X012920Y011703D03*
X012920Y011705D03*
X012925Y011730D03*
X012922Y011738D03*
X012922Y011748D03*
X012925Y011773D03*
X012925Y011775D03*
X012925Y011778D03*
X012925Y011780D03*
X012925Y011783D03*
X012925Y011808D03*
X012927Y011823D03*
X012925Y011825D03*
X012925Y011828D03*
X012925Y011830D03*
X012927Y011878D03*
X012927Y011908D03*
X012927Y011910D03*
X012927Y011913D03*
X012927Y011915D03*
X012927Y011955D03*
X012927Y011958D03*
X012927Y011960D03*
X012927Y011988D03*
X012927Y012010D03*
X012925Y012033D03*
X012925Y012035D03*
X012925Y012038D03*
X012925Y012040D03*
X012922Y012065D03*
X012922Y012068D03*
X012922Y012105D03*
X012920Y012138D03*
X012920Y012140D03*
X012917Y012148D03*
X012917Y012150D03*
X012917Y012153D03*
X012917Y012155D03*
X012917Y012165D03*
X012917Y012168D03*
X012912Y012205D03*
X012912Y012220D03*
X012912Y012223D03*
X012910Y012238D03*
X012910Y012240D03*
X012910Y012243D03*
X012907Y012248D03*
X012907Y012250D03*
X012907Y012253D03*
X012907Y012258D03*
X012907Y012275D03*
X012907Y012278D03*
X012905Y012280D03*
X012905Y012283D03*
X012902Y012303D03*
X012902Y012305D03*
X012900Y012313D03*
X012900Y012315D03*
X012900Y012318D03*
X012900Y012320D03*
X012900Y012323D03*
X012900Y012325D03*
X012900Y012328D03*
X012897Y012338D03*
X012897Y012340D03*
X012897Y012343D03*
X012897Y012345D03*
X012897Y012348D03*
X012897Y012350D03*
X012895Y012358D03*
X012895Y012360D03*
X012895Y012363D03*
X012895Y012365D03*
X012895Y012368D03*
X012892Y012383D03*
X012890Y012398D03*
X012887Y012405D03*
X012887Y012408D03*
X012887Y012410D03*
X012887Y012413D03*
X012887Y012415D03*
X012885Y012425D03*
X012885Y012428D03*
X012885Y012430D03*
X012885Y012433D03*
X012882Y012438D03*
X012882Y012440D03*
X012882Y012443D03*
X012882Y012445D03*
X012882Y012448D03*
X012880Y012453D03*
X012880Y012455D03*
X012877Y012460D03*
X012877Y012463D03*
X012877Y012465D03*
X012877Y012468D03*
X012875Y012475D03*
X012875Y012478D03*
X012875Y012480D03*
X012875Y012483D03*
X012875Y012485D03*
X012872Y012490D03*
X012872Y012493D03*
X012872Y012495D03*
X012870Y012500D03*
X012870Y012503D03*
X012870Y012505D03*
X012870Y012508D03*
X012867Y012525D03*
X012867Y012528D03*
X012867Y012530D03*
X012865Y012535D03*
X012865Y012538D03*
X012862Y012548D03*
X012862Y012550D03*
X012862Y012553D03*
X012860Y012558D03*
X012860Y012560D03*
X012857Y012565D03*
X012857Y012568D03*
X012855Y012575D03*
X012855Y012578D03*
X012855Y012580D03*
X012855Y012583D03*
X012855Y012585D03*
X012852Y012588D03*
X012852Y012590D03*
X012850Y012593D03*
X012850Y012595D03*
X012850Y012598D03*
X012847Y012613D03*
X012847Y012615D03*
X012847Y012618D03*
X012845Y012620D03*
X012845Y012623D03*
X012842Y012625D03*
X012842Y012628D03*
X012842Y012630D03*
X012842Y012633D03*
X012842Y012635D03*
X012840Y012640D03*
X012837Y012648D03*
X012835Y012660D03*
X012835Y012663D03*
X012835Y012665D03*
X012832Y012670D03*
X012832Y012673D03*
X012830Y012678D03*
X012827Y012685D03*
X012827Y012688D03*
X012825Y012693D03*
X012820Y012710D03*
X012820Y012713D03*
X012820Y012715D03*
X012820Y012718D03*
X012815Y012728D03*
X012815Y012730D03*
X012815Y012733D03*
X012812Y012738D03*
X012810Y012740D03*
X012810Y012743D03*
X012810Y012745D03*
X012807Y012753D03*
X012807Y012755D03*
X012805Y012760D03*
X012805Y012763D03*
X012805Y012765D03*
X012802Y012775D03*
X012797Y012788D03*
X012797Y012790D03*
X012795Y012795D03*
X012795Y012798D03*
X012795Y012800D03*
X012792Y012805D03*
X012775Y012853D03*
X012775Y012855D03*
X012775Y012858D03*
X012772Y012860D03*
X012772Y012863D03*
X013657Y012385D03*
X013967Y012413D03*
X014267Y012280D03*
X015482Y012478D03*
X012227Y013640D03*
D67*
X012384Y013513D03*
X012386Y013510D03*
X014266Y012225D03*
X014266Y012223D03*
X014376Y011978D03*
X014379Y011975D03*
X014381Y011973D03*
X014781Y012135D03*
X013466Y011868D03*
X011456Y010303D03*
X011761Y010140D03*
X011964Y010173D03*
D68*
X011699Y010143D03*
X013294Y011793D03*
X014136Y011960D03*
X013296Y012408D03*
D69*
X015214Y012793D03*
X015269Y012805D03*
X015309Y012815D03*
X011721Y010145D03*
D70*
X011696Y010148D03*
D71*
X011976Y010148D03*
X011996Y010153D03*
X012139Y010250D03*
X012139Y010258D03*
X012206Y010268D03*
X012301Y010373D03*
X012401Y010463D03*
X012424Y010498D03*
X012441Y010513D03*
X012454Y010533D03*
X012576Y010693D03*
X012601Y010743D03*
X012614Y010755D03*
X012641Y010813D03*
X012644Y010823D03*
X012671Y010865D03*
X011784Y011760D03*
D72*
X014134Y011978D03*
X011701Y010150D03*
X011616Y010185D03*
D73*
X012016Y010150D03*
X012069Y010178D03*
X012234Y010255D03*
X012324Y010398D03*
X012341Y010410D03*
X012376Y010443D03*
X012544Y010648D03*
X012549Y010668D03*
X012554Y010675D03*
X012571Y010690D03*
X012571Y010695D03*
X012666Y010840D03*
X011809Y011783D03*
X011811Y011785D03*
X013384Y012370D03*
X014519Y011845D03*
D74*
X014595Y012630D03*
X015337Y012823D03*
X011705Y010153D03*
D75*
X011915Y010153D03*
X012280Y010340D03*
X012612Y010733D03*
X015672Y011878D03*
X014887Y012033D03*
X014770Y012325D03*
X014530Y012583D03*
X013655Y012393D03*
X013317Y012493D03*
D76*
X011750Y010155D03*
D77*
X011722Y010158D03*
X015102Y012763D03*
D78*
X015552Y012888D03*
X014762Y012318D03*
X014267Y012283D03*
X013375Y012390D03*
X012905Y012293D03*
X012905Y012290D03*
X012902Y012295D03*
X012902Y012298D03*
X012902Y012300D03*
X012907Y012265D03*
X012915Y012203D03*
X012915Y012200D03*
X012915Y012198D03*
X012915Y012195D03*
X012915Y012188D03*
X012920Y012133D03*
X012920Y012130D03*
X012920Y012125D03*
X012920Y012123D03*
X012920Y012120D03*
X012920Y012118D03*
X012920Y012115D03*
X012920Y012113D03*
X012920Y012110D03*
X012920Y012108D03*
X012922Y012090D03*
X012922Y012088D03*
X012922Y012085D03*
X012922Y012083D03*
X012922Y012080D03*
X012922Y012078D03*
X012922Y012075D03*
X012922Y012073D03*
X012922Y012060D03*
X012922Y012058D03*
X012925Y012053D03*
X012925Y012050D03*
X012925Y011978D03*
X012925Y011975D03*
X012925Y011973D03*
X012925Y011938D03*
X012927Y011935D03*
X012927Y011868D03*
X012930Y011858D03*
X012930Y011855D03*
X012927Y011850D03*
X012930Y011845D03*
X012927Y011838D03*
X012927Y011795D03*
X012927Y011793D03*
X012927Y011790D03*
X012925Y011760D03*
X012925Y011758D03*
X012925Y011755D03*
X012922Y011710D03*
X012917Y011683D03*
X012917Y011680D03*
X012917Y011678D03*
X012917Y011675D03*
X012917Y011670D03*
X012917Y011668D03*
X012915Y011658D03*
X012912Y011628D03*
X012912Y011625D03*
X012912Y011623D03*
X012912Y011620D03*
X012907Y011553D03*
X012905Y011543D03*
X012905Y011540D03*
X012905Y011538D03*
X012905Y011535D03*
X012900Y011523D03*
X012900Y011520D03*
X012900Y011518D03*
X012900Y011498D03*
X012897Y011490D03*
X012897Y011488D03*
X012897Y011485D03*
X012897Y011483D03*
X012897Y011480D03*
X012892Y011458D03*
X012890Y011448D03*
X012890Y011445D03*
X012887Y011433D03*
X012887Y011430D03*
X012887Y011425D03*
X012887Y011423D03*
X012885Y011410D03*
X012885Y011408D03*
X012885Y011405D03*
X012880Y011393D03*
X012880Y011390D03*
X012880Y011388D03*
X012877Y011385D03*
X012877Y011383D03*
X012877Y011380D03*
X012875Y011365D03*
X012875Y011363D03*
X012875Y011360D03*
X012875Y011358D03*
X012872Y011355D03*
X012872Y011353D03*
X012872Y011350D03*
X012870Y011343D03*
X012870Y011340D03*
X012867Y011335D03*
X012867Y011333D03*
X012867Y011330D03*
X012867Y011328D03*
X012865Y011323D03*
X012865Y011320D03*
X012865Y011318D03*
X012860Y011305D03*
X012860Y011303D03*
X012860Y011300D03*
X012855Y011288D03*
X012850Y011268D03*
X012847Y011253D03*
X012835Y011210D03*
X012835Y011208D03*
X012832Y011200D03*
X012830Y011195D03*
X012827Y011183D03*
X012825Y011180D03*
X012825Y011178D03*
X012822Y011175D03*
X012807Y011125D03*
X012805Y011123D03*
X012802Y011120D03*
X012802Y011118D03*
X012797Y011100D03*
X012795Y011098D03*
X012795Y011095D03*
X012795Y011093D03*
X012795Y011090D03*
X012790Y011083D03*
X012782Y011058D03*
X012780Y011055D03*
X012777Y011053D03*
X012777Y011050D03*
X012777Y011048D03*
X012777Y011045D03*
X012767Y011028D03*
X012767Y011025D03*
X012765Y011018D03*
X012765Y011015D03*
X012762Y011013D03*
X012762Y011010D03*
X012762Y011008D03*
X012760Y011005D03*
X012760Y011003D03*
X012760Y011000D03*
X012757Y010998D03*
X012755Y010993D03*
X012755Y010990D03*
X012752Y010983D03*
X012750Y010978D03*
X012732Y010950D03*
X012730Y010948D03*
X012727Y010940D03*
X012720Y010923D03*
X012720Y010920D03*
X012280Y010335D03*
X012277Y010333D03*
X012255Y010318D03*
X011925Y010158D03*
X012870Y012513D03*
X012870Y012515D03*
D79*
X011712Y010160D03*
D80*
X011711Y010163D03*
D81*
X011929Y010163D03*
X012234Y010295D03*
X012239Y010298D03*
X011361Y010798D03*
X011366Y010830D03*
X011366Y010833D03*
X011366Y010835D03*
X011371Y010890D03*
X011379Y010925D03*
X011379Y010928D03*
X011379Y010930D03*
X011394Y011003D03*
X011399Y011018D03*
X011409Y011045D03*
X011409Y011048D03*
X011409Y011050D03*
X011419Y011078D03*
X011419Y011085D03*
X011419Y011088D03*
X011419Y011090D03*
X011421Y011093D03*
X011429Y011118D03*
X011431Y011125D03*
X011431Y011128D03*
X011456Y011185D03*
X011489Y011263D03*
X011489Y011265D03*
X011491Y011268D03*
X011499Y011288D03*
X011506Y011308D03*
X011509Y011313D03*
X011524Y011338D03*
X011524Y011340D03*
X011531Y011350D03*
X011531Y011353D03*
X011549Y011388D03*
X011551Y011390D03*
X011596Y011478D03*
X011599Y011480D03*
X011634Y011533D03*
X011636Y011538D03*
X011641Y011545D03*
X011651Y011560D03*
X011654Y011563D03*
X011659Y011568D03*
X013126Y011920D03*
X013124Y011935D03*
X013124Y011938D03*
X013124Y011940D03*
X013124Y011943D03*
X013121Y011945D03*
X013121Y011948D03*
X013121Y011950D03*
X013121Y011953D03*
X013119Y011978D03*
X013119Y012020D03*
X013119Y012023D03*
X013149Y012213D03*
X013149Y012215D03*
X013164Y012263D03*
X013169Y012273D03*
X013169Y012275D03*
X013169Y012278D03*
X013169Y012280D03*
X013171Y012285D03*
X013174Y012288D03*
X013174Y012290D03*
X013176Y012295D03*
X013366Y012403D03*
X013696Y011983D03*
X013696Y011980D03*
X013699Y011975D03*
X013699Y011973D03*
X013704Y011958D03*
X013709Y011948D03*
X013709Y011945D03*
X013709Y011943D03*
X013716Y011930D03*
X013716Y011928D03*
X013719Y011925D03*
X013724Y011918D03*
X013726Y011915D03*
X014214Y011990D03*
X014214Y011993D03*
X014216Y011998D03*
X015474Y012468D03*
X015669Y011888D03*
X015669Y011885D03*
X012631Y013170D03*
X012629Y013175D03*
X012626Y013178D03*
X012626Y013180D03*
X012624Y013183D03*
X012621Y013188D03*
X012619Y013193D03*
X012616Y013195D03*
X012616Y013198D03*
X012614Y013200D03*
X012614Y013203D03*
X012604Y013215D03*
X012604Y013218D03*
X012594Y013230D03*
X012591Y013235D03*
X012589Y013243D03*
X012586Y013245D03*
X012584Y013250D03*
X012581Y013253D03*
X012579Y013258D03*
X012576Y013263D03*
X012574Y013265D03*
X012569Y013273D03*
X012566Y013280D03*
D82*
X012234Y013645D03*
X013386Y012378D03*
X014274Y012290D03*
X014774Y012328D03*
X015674Y011875D03*
X012696Y010898D03*
X012689Y010878D03*
X012694Y010875D03*
X012654Y010820D03*
X012646Y010798D03*
X012641Y010795D03*
X012629Y010770D03*
X012629Y010768D03*
X012444Y010508D03*
X012304Y010365D03*
X012079Y010225D03*
X012014Y010163D03*
X011756Y011715D03*
X011756Y011718D03*
D83*
X011792Y010165D03*
D84*
X011722Y010168D03*
X014972Y012733D03*
X014990Y012738D03*
D85*
X011761Y010170D03*
D86*
X011695Y010173D03*
X014665Y012658D03*
D87*
X011780Y010175D03*
D88*
X011660Y010178D03*
X015075Y012755D03*
D89*
X015286Y012298D03*
X015554Y012120D03*
X015569Y012105D03*
X015574Y012103D03*
X015576Y012100D03*
X015609Y012075D03*
X015614Y012073D03*
X015624Y012065D03*
X014809Y012115D03*
X014416Y011940D03*
X014271Y012140D03*
X014271Y012143D03*
X014271Y012145D03*
X014271Y012148D03*
X014274Y012158D03*
X014274Y012160D03*
X014149Y011903D03*
X013646Y012075D03*
X012241Y013620D03*
X011966Y010178D03*
X011509Y010245D03*
D90*
X011644Y010180D03*
X013301Y011808D03*
X015139Y012773D03*
X015189Y012785D03*
D91*
X015459Y012453D03*
X015271Y012313D03*
X015264Y012318D03*
X014799Y012120D03*
X014796Y012123D03*
X014876Y012053D03*
X014399Y011953D03*
X014146Y011895D03*
X013456Y011860D03*
X013166Y011865D03*
X013649Y012105D03*
X014269Y012198D03*
X014269Y012200D03*
X014269Y012203D03*
X015666Y012028D03*
X012364Y013528D03*
X012361Y013530D03*
X012341Y013545D03*
X011466Y010288D03*
X011474Y010280D03*
X011481Y010275D03*
X011481Y010273D03*
X011971Y010180D03*
D92*
X011624Y010183D03*
X014591Y012628D03*
D93*
X013966Y012378D03*
X013966Y012375D03*
X013966Y012373D03*
X013966Y012370D03*
X014264Y012248D03*
X014061Y011995D03*
X014061Y011993D03*
X014064Y011990D03*
X013656Y012160D03*
X013656Y012163D03*
X013656Y012165D03*
X013654Y012170D03*
X013654Y012173D03*
X013526Y011920D03*
X013524Y011915D03*
X013521Y011913D03*
X013509Y011903D03*
X013506Y011900D03*
X013499Y011893D03*
X013154Y011875D03*
X014771Y012148D03*
X015689Y011993D03*
X015696Y011930D03*
X015691Y011925D03*
X015669Y011895D03*
X013234Y012403D03*
X012416Y013475D03*
X012414Y013480D03*
X012411Y013483D03*
X012406Y013488D03*
X012404Y013490D03*
X011431Y010343D03*
X011436Y010335D03*
X011436Y010333D03*
X011439Y010330D03*
X011439Y010328D03*
X011974Y010183D03*
X012034Y010198D03*
D94*
X011981Y010185D03*
X011471Y010283D03*
X011466Y010290D03*
X011464Y010293D03*
X011464Y010295D03*
X011461Y010298D03*
X015671Y011903D03*
X015671Y011905D03*
X015676Y011910D03*
X015674Y012013D03*
X015674Y012015D03*
X015674Y012018D03*
X015461Y012455D03*
X015259Y012330D03*
X015259Y012328D03*
X015259Y012325D03*
X015261Y012323D03*
X015261Y012320D03*
X014791Y012125D03*
X013651Y012125D03*
X013651Y012123D03*
X013651Y012120D03*
X012374Y013520D03*
X012371Y013523D03*
D95*
X013296Y012418D03*
X013296Y012415D03*
X014136Y011955D03*
X014291Y012025D03*
X011611Y010188D03*
D96*
X011417Y010373D03*
X011415Y010378D03*
X011412Y010383D03*
X011412Y010385D03*
X011410Y010388D03*
X011405Y010398D03*
X011405Y010400D03*
X011405Y010403D03*
X011395Y010425D03*
X011387Y010448D03*
X011995Y010188D03*
X012230Y010288D03*
X013150Y011880D03*
X013147Y011883D03*
X013537Y011933D03*
X013540Y011938D03*
X013542Y011940D03*
X013545Y011943D03*
X013547Y011945D03*
X013560Y011963D03*
X013760Y011875D03*
X013770Y011863D03*
X013770Y011860D03*
X013772Y011855D03*
X014047Y012015D03*
X014045Y012025D03*
X014042Y012035D03*
X014032Y012058D03*
X014057Y012000D03*
X014265Y012255D03*
X013982Y012305D03*
X013982Y012308D03*
X013977Y012328D03*
X013977Y012330D03*
X013977Y012333D03*
X013977Y012335D03*
X013975Y012340D03*
X013975Y012343D03*
X013972Y012345D03*
X013972Y012348D03*
X013972Y012350D03*
X013972Y012353D03*
X013972Y012355D03*
X013972Y012358D03*
X013655Y012220D03*
X013655Y012218D03*
X013655Y012215D03*
X013655Y012213D03*
X013655Y012198D03*
X013655Y012195D03*
X013655Y012193D03*
X013225Y012395D03*
X014752Y012183D03*
X014755Y012178D03*
X014755Y012175D03*
X014757Y012173D03*
X014757Y012170D03*
X014760Y012168D03*
X014500Y011860D03*
X015670Y011893D03*
X015700Y011935D03*
X015700Y011938D03*
X015702Y011953D03*
X015702Y011955D03*
X015702Y011958D03*
X015700Y011973D03*
X015700Y011975D03*
X015695Y011980D03*
X012462Y013425D03*
X012457Y013430D03*
X012452Y013438D03*
X012450Y013440D03*
X012447Y013445D03*
X012442Y013450D03*
X012430Y013465D03*
D97*
X013295Y012420D03*
X014137Y011953D03*
X014290Y012028D03*
X014290Y012030D03*
X011600Y010190D03*
D98*
X011430Y010345D03*
X011427Y010348D03*
X011427Y010350D03*
X011422Y010363D03*
X011420Y010368D03*
X012005Y010190D03*
X013152Y011878D03*
X013295Y011775D03*
X013512Y011905D03*
X013512Y011908D03*
X013517Y011910D03*
X013525Y011918D03*
X013527Y011923D03*
X013530Y011925D03*
X013767Y011865D03*
X014052Y012008D03*
X014055Y012003D03*
X014060Y011998D03*
X014065Y011988D03*
X014150Y011888D03*
X014265Y012250D03*
X013970Y012360D03*
X013967Y012368D03*
X013965Y012380D03*
X013965Y012383D03*
X013652Y012178D03*
X013652Y012175D03*
X013655Y012168D03*
X013230Y012400D03*
X014762Y012163D03*
X014765Y012155D03*
X014767Y012153D03*
X014770Y012150D03*
X015692Y011928D03*
X015530Y012883D03*
X012440Y013455D03*
X012420Y013473D03*
D99*
X014575Y012615D03*
X013302Y012438D03*
X013635Y011995D03*
X013635Y011993D03*
X014287Y012048D03*
X011592Y010193D03*
X011587Y010195D03*
D100*
X012009Y010195D03*
X012059Y010213D03*
X012261Y010323D03*
X012266Y010325D03*
X012271Y010328D03*
X012286Y010343D03*
X012709Y010895D03*
X012724Y010935D03*
X012729Y010943D03*
X012746Y010975D03*
X012749Y010980D03*
X012771Y011035D03*
X012774Y011038D03*
X012774Y011040D03*
X012776Y011043D03*
X012791Y011085D03*
X012831Y011198D03*
X012834Y011203D03*
X012834Y011205D03*
X012854Y011290D03*
X012859Y011298D03*
X012871Y011345D03*
X012871Y011348D03*
X012886Y011413D03*
X012886Y011415D03*
X012886Y011418D03*
X012886Y011420D03*
X012894Y011460D03*
X012894Y011463D03*
X012894Y011465D03*
X012896Y011470D03*
X012896Y011473D03*
X012896Y011475D03*
X012896Y011478D03*
X012899Y011493D03*
X012899Y011495D03*
X012906Y011545D03*
X012906Y011548D03*
X012906Y011550D03*
X012916Y011660D03*
X012916Y011663D03*
X012916Y011665D03*
X012929Y011840D03*
X012929Y011843D03*
X012929Y011848D03*
X012929Y011853D03*
X012926Y011970D03*
X012924Y012055D03*
X013294Y011770D03*
X013376Y012388D03*
X013971Y012418D03*
X015666Y011880D03*
D101*
X014286Y012050D03*
X014286Y012053D03*
X014286Y012055D03*
X014286Y012058D03*
X014139Y011938D03*
X013296Y011788D03*
X013304Y012440D03*
X015409Y012845D03*
X011584Y010198D03*
D102*
X011579Y010200D03*
X014466Y011910D03*
X014464Y011915D03*
X014141Y011933D03*
X013636Y012000D03*
X013304Y012443D03*
X012284Y013573D03*
D103*
X012477Y013405D03*
X012485Y013395D03*
X012487Y013390D03*
X012515Y013355D03*
X012517Y013353D03*
X013220Y012385D03*
X013215Y012378D03*
X013215Y012375D03*
X013210Y012368D03*
X013650Y012345D03*
X013650Y012343D03*
X013650Y012340D03*
X013650Y012338D03*
X013652Y012350D03*
X013652Y012353D03*
X013652Y012355D03*
X013652Y012358D03*
X013650Y012320D03*
X013650Y012303D03*
X013652Y012300D03*
X013652Y012298D03*
X013652Y012295D03*
X013652Y012293D03*
X013652Y012290D03*
X013652Y012288D03*
X013652Y012273D03*
X013652Y012270D03*
X013652Y012268D03*
X013652Y012265D03*
X013655Y012253D03*
X013655Y012250D03*
X013655Y012248D03*
X013655Y012235D03*
X013655Y012233D03*
X013655Y012208D03*
X013655Y012205D03*
X013987Y012275D03*
X013990Y012265D03*
X013992Y012260D03*
X013992Y012258D03*
X013992Y012255D03*
X013992Y012253D03*
X013992Y012250D03*
X013992Y012248D03*
X013992Y012245D03*
X013995Y012240D03*
X013995Y012238D03*
X013997Y012235D03*
X013997Y012233D03*
X013997Y012230D03*
X013997Y012228D03*
X014000Y012215D03*
X013985Y012288D03*
X013985Y012290D03*
X013980Y012318D03*
X013980Y012320D03*
X013965Y012398D03*
X014022Y012100D03*
X014022Y012098D03*
X014022Y012095D03*
X014022Y012093D03*
X014027Y012073D03*
X014032Y012065D03*
X014032Y012063D03*
X014035Y012055D03*
X014035Y012053D03*
X014035Y012050D03*
X014037Y012048D03*
X014037Y012045D03*
X014037Y012043D03*
X014037Y012040D03*
X014150Y011885D03*
X013775Y011850D03*
X013745Y011888D03*
X014265Y012260D03*
X014747Y012220D03*
X014747Y012218D03*
X014747Y012215D03*
X014747Y012213D03*
X014747Y012200D03*
X014747Y012198D03*
X014747Y012195D03*
X014750Y012188D03*
X014752Y012263D03*
X014752Y012265D03*
X014757Y012278D03*
X014757Y012280D03*
X014757Y012283D03*
X014885Y012040D03*
X015700Y011945D03*
X015702Y011963D03*
X015702Y011965D03*
X015467Y012463D03*
X011362Y010575D03*
X011362Y010563D03*
X011365Y010560D03*
X011365Y010558D03*
X011367Y010555D03*
X011367Y010553D03*
X011370Y010518D03*
X011372Y010508D03*
X011372Y010505D03*
X011375Y010503D03*
X011380Y010478D03*
X011382Y010473D03*
X011382Y010470D03*
X011382Y010468D03*
X011382Y010465D03*
X011385Y010463D03*
X011387Y010455D03*
X011387Y010453D03*
X011390Y010445D03*
X011390Y010443D03*
X011390Y010440D03*
X011390Y010438D03*
X011400Y010415D03*
X011402Y010410D03*
X012032Y010200D03*
X012212Y010278D03*
D104*
X011572Y010203D03*
X014465Y011913D03*
X014460Y011918D03*
X014285Y012063D03*
X014285Y012065D03*
X014285Y012068D03*
X013635Y012003D03*
X013302Y012445D03*
X012290Y013568D03*
X012285Y013570D03*
X012277Y013578D03*
X012272Y013580D03*
D105*
X012481Y013400D03*
X012494Y013383D03*
X012501Y013375D03*
X012506Y013368D03*
X012509Y013365D03*
X012511Y013363D03*
X012511Y013360D03*
X012514Y013358D03*
X012519Y013350D03*
X013309Y012485D03*
X013219Y012383D03*
X013214Y012373D03*
X013211Y012370D03*
X013209Y012365D03*
X013206Y012363D03*
X013206Y012360D03*
X013199Y012350D03*
X013651Y012348D03*
X013651Y012360D03*
X013651Y012363D03*
X013651Y012365D03*
X013651Y012335D03*
X013651Y012333D03*
X013651Y012330D03*
X013651Y012328D03*
X013651Y012318D03*
X013651Y012315D03*
X013651Y012313D03*
X013651Y012310D03*
X013651Y012308D03*
X013651Y012305D03*
X013651Y012285D03*
X013651Y012283D03*
X013651Y012280D03*
X013651Y012278D03*
X013651Y012275D03*
X013654Y012263D03*
X013654Y012260D03*
X013654Y012258D03*
X013654Y012255D03*
X013654Y012245D03*
X013654Y012243D03*
X013654Y012240D03*
X013654Y012238D03*
X013571Y011978D03*
X013734Y011903D03*
X013736Y011898D03*
X013779Y011848D03*
X013779Y011845D03*
X013781Y011843D03*
X013786Y011840D03*
X014029Y012075D03*
X014029Y012078D03*
X014024Y012088D03*
X014024Y012090D03*
X014021Y012103D03*
X014021Y012105D03*
X014019Y012113D03*
X014019Y012115D03*
X014019Y012118D03*
X014019Y012120D03*
X014019Y012123D03*
X014014Y012140D03*
X014014Y012143D03*
X014011Y012150D03*
X014011Y012153D03*
X014009Y012158D03*
X014009Y012160D03*
X014009Y012163D03*
X014006Y012175D03*
X014004Y012183D03*
X014004Y012185D03*
X014004Y012188D03*
X014004Y012190D03*
X014004Y012193D03*
X014004Y012195D03*
X014004Y012198D03*
X014004Y012200D03*
X014001Y012203D03*
X014001Y012205D03*
X014001Y012208D03*
X014001Y012210D03*
X014001Y012213D03*
X013999Y012218D03*
X013999Y012220D03*
X013999Y012223D03*
X013999Y012225D03*
X014266Y012263D03*
X014746Y012233D03*
X014746Y012230D03*
X014746Y012228D03*
X014746Y012225D03*
X014746Y012223D03*
X014746Y012210D03*
X014746Y012208D03*
X014746Y012205D03*
X014746Y012203D03*
X014749Y012193D03*
X014749Y012190D03*
X014749Y012238D03*
X014749Y012240D03*
X014749Y012243D03*
X014749Y012245D03*
X014749Y012248D03*
X014749Y012250D03*
X014751Y012253D03*
X014751Y012255D03*
X014751Y012258D03*
X014751Y012260D03*
X014754Y012268D03*
X014754Y012270D03*
X014756Y012275D03*
X014759Y012285D03*
X014759Y012288D03*
X014759Y012290D03*
X014759Y012293D03*
X014504Y011858D03*
X011379Y010948D03*
X011379Y010945D03*
X011379Y010943D03*
X011379Y010940D03*
X011356Y010668D03*
X011356Y010665D03*
X011356Y010663D03*
X011359Y010625D03*
X011364Y010583D03*
X011364Y010580D03*
X011364Y010578D03*
X011364Y010573D03*
X011364Y010570D03*
X011364Y010568D03*
X011364Y010565D03*
X011366Y010550D03*
X011366Y010548D03*
X011366Y010545D03*
X011366Y010543D03*
X011369Y010538D03*
X011369Y010535D03*
X011369Y010533D03*
X011369Y010530D03*
X011371Y010525D03*
X011371Y010523D03*
X011371Y010520D03*
X011371Y010515D03*
X011371Y010513D03*
X011371Y010510D03*
X011376Y010500D03*
X011376Y010498D03*
X011379Y010490D03*
X011379Y010488D03*
X011379Y010485D03*
X011379Y010483D03*
X011379Y010480D03*
X011381Y010475D03*
X011401Y010413D03*
X012041Y010203D03*
D106*
X011570Y010205D03*
X014475Y011898D03*
X014282Y012078D03*
X014282Y012080D03*
X014840Y012100D03*
X014842Y012098D03*
X015382Y012400D03*
X015387Y012405D03*
X015397Y012410D03*
X013637Y012013D03*
X013302Y012450D03*
X012257Y013595D03*
D107*
X012634Y013165D03*
X012636Y013160D03*
X012639Y013153D03*
X012641Y013150D03*
X012644Y013148D03*
X012644Y013145D03*
X012646Y013140D03*
X012649Y013138D03*
X012651Y013133D03*
X012651Y013130D03*
X012654Y013128D03*
X012656Y013123D03*
X012659Y013118D03*
X012671Y013093D03*
X012674Y013090D03*
X012676Y013085D03*
X012711Y013010D03*
X013369Y012398D03*
X013159Y012253D03*
X013159Y012250D03*
X013156Y012243D03*
X013156Y012240D03*
X013156Y012238D03*
X013154Y012230D03*
X013154Y012228D03*
X013151Y012223D03*
X013151Y012220D03*
X013146Y012208D03*
X013146Y012205D03*
X013146Y012203D03*
X013146Y012200D03*
X013144Y012195D03*
X013144Y012193D03*
X013141Y012188D03*
X013141Y012185D03*
X013136Y012163D03*
X013136Y012160D03*
X013136Y012158D03*
X013136Y012155D03*
X013134Y012150D03*
X013134Y012148D03*
X013134Y012145D03*
X013134Y012143D03*
X013134Y012140D03*
X013131Y012133D03*
X013131Y012130D03*
X013129Y012120D03*
X013126Y012095D03*
X013126Y012078D03*
X013126Y012075D03*
X013121Y012073D03*
X013121Y012070D03*
X013121Y012068D03*
X013121Y012065D03*
X013121Y012063D03*
X013121Y012050D03*
X013121Y012048D03*
X013119Y012035D03*
X013119Y012033D03*
X013121Y012015D03*
X013121Y011993D03*
X013121Y011990D03*
X013121Y011988D03*
X013121Y011985D03*
X013121Y011983D03*
X013121Y011980D03*
X013121Y011970D03*
X013121Y011968D03*
X013121Y011965D03*
X013121Y011963D03*
X013121Y011960D03*
X013794Y011830D03*
X014219Y012000D03*
X014219Y012003D03*
X014221Y012013D03*
X014221Y012015D03*
X014221Y012018D03*
X014221Y012020D03*
X014761Y012303D03*
X011749Y011688D03*
X011734Y011668D03*
X011714Y011640D03*
X011699Y011620D03*
X011696Y011615D03*
X011691Y011610D03*
X011691Y011608D03*
X011679Y011593D03*
X011676Y011590D03*
X011674Y011588D03*
X011669Y011580D03*
X011666Y011578D03*
X011664Y011575D03*
X011661Y011570D03*
X011639Y011540D03*
X011631Y011528D03*
X011629Y011525D03*
X011624Y011515D03*
X011606Y011488D03*
X011596Y011473D03*
X011579Y011440D03*
X011576Y011438D03*
X011576Y011435D03*
X011574Y011433D03*
X011561Y011408D03*
X011559Y011403D03*
X011559Y011400D03*
X011554Y011395D03*
X011549Y011383D03*
X011536Y011363D03*
X011534Y011358D03*
X011529Y011345D03*
X011521Y011333D03*
X011521Y011330D03*
X011519Y011328D03*
X011519Y011325D03*
X011516Y011323D03*
X011514Y011318D03*
X011514Y011315D03*
X011496Y011283D03*
X011496Y011280D03*
X011494Y011275D03*
X011494Y011273D03*
X011476Y011230D03*
X011454Y011178D03*
X011429Y011110D03*
X011416Y011073D03*
X011416Y011070D03*
X011416Y011068D03*
X011394Y010985D03*
X011391Y010983D03*
X012224Y010285D03*
X012239Y010300D03*
X012044Y010205D03*
D108*
X011565Y010208D03*
X014470Y011905D03*
X014285Y012070D03*
X014285Y012073D03*
X013637Y012010D03*
X013637Y012008D03*
X013302Y012448D03*
X014567Y012613D03*
X015395Y012408D03*
X015412Y012418D03*
X015415Y012420D03*
X015440Y012853D03*
X012295Y013565D03*
X012267Y013588D03*
X012262Y013590D03*
D109*
X012661Y013113D03*
X012664Y013108D03*
X012666Y013103D03*
X012681Y013070D03*
X012684Y013068D03*
X012691Y013053D03*
X012694Y013048D03*
X012696Y013045D03*
X012696Y013043D03*
X012699Y013038D03*
X012699Y013035D03*
X012701Y013033D03*
X012704Y013028D03*
X012704Y013025D03*
X012704Y013023D03*
X012706Y013020D03*
X012709Y013015D03*
X012709Y013013D03*
X012714Y013000D03*
X012719Y012993D03*
X012719Y012990D03*
X012721Y012985D03*
X012726Y012973D03*
X012729Y012968D03*
X012734Y012955D03*
X012736Y012950D03*
X012739Y012948D03*
X012739Y012945D03*
X012741Y012940D03*
X012749Y012928D03*
X012749Y012925D03*
X012754Y012913D03*
X012754Y012910D03*
X012754Y012908D03*
X013656Y012383D03*
X013129Y012110D03*
X013129Y012108D03*
X013129Y012105D03*
X013126Y012090D03*
X013126Y012088D03*
X013121Y012010D03*
X013121Y012008D03*
X013799Y011828D03*
X014506Y011853D03*
X014889Y012038D03*
X014761Y012308D03*
X011759Y011698D03*
X011759Y011695D03*
X011739Y011675D03*
X011736Y011673D03*
X011721Y011650D03*
X011716Y011643D03*
X011709Y011633D03*
X011704Y011628D03*
X011704Y011625D03*
X011614Y011498D03*
X011614Y011495D03*
X011596Y011468D03*
X011589Y011455D03*
X011581Y011443D03*
X011546Y011378D03*
X012259Y010315D03*
X012049Y010208D03*
D110*
X011561Y010210D03*
X013639Y012020D03*
X013639Y012023D03*
X013639Y012025D03*
X014279Y012090D03*
X014279Y012093D03*
X014279Y012095D03*
X015369Y012395D03*
D111*
X014760Y012305D03*
X014272Y012273D03*
X013655Y012378D03*
X013655Y012380D03*
X013152Y012225D03*
X013142Y012183D03*
X013142Y012180D03*
X013142Y012178D03*
X013142Y012175D03*
X013140Y012173D03*
X013140Y012170D03*
X013137Y012168D03*
X013137Y012165D03*
X013132Y012138D03*
X013132Y012135D03*
X013130Y012118D03*
X013130Y012115D03*
X013130Y012113D03*
X013127Y012103D03*
X013127Y012100D03*
X013127Y012098D03*
X013127Y012093D03*
X013125Y012085D03*
X013125Y012083D03*
X013125Y012080D03*
X013122Y012013D03*
X013120Y012005D03*
X013120Y012003D03*
X013120Y012000D03*
X013120Y011998D03*
X013120Y011995D03*
X014145Y011883D03*
X011767Y011710D03*
X011765Y011708D03*
X011765Y011705D03*
X011762Y011703D03*
X011760Y011700D03*
X011747Y011685D03*
X011745Y011683D03*
X011745Y011680D03*
X011742Y011678D03*
X011735Y011670D03*
X011727Y011658D03*
X011725Y011655D03*
X011722Y011653D03*
X011720Y011648D03*
X011717Y011645D03*
X011710Y011638D03*
X011710Y011635D03*
X011705Y011630D03*
X011702Y011623D03*
X011697Y011618D03*
X011672Y011585D03*
X011622Y011513D03*
X011602Y011483D03*
X011597Y011470D03*
X011557Y011398D03*
X011547Y011380D03*
X011545Y011375D03*
X011542Y011373D03*
X011542Y011370D03*
X011542Y011368D03*
X011540Y011365D03*
X011535Y011360D03*
X011475Y011228D03*
X012240Y010303D03*
X012062Y010210D03*
X012717Y012995D03*
X012715Y012998D03*
X012712Y013003D03*
X012712Y013005D03*
X012712Y013008D03*
X012707Y013018D03*
X012702Y013030D03*
X012697Y013040D03*
X012692Y013050D03*
X012690Y013055D03*
X012687Y013058D03*
X012687Y013060D03*
X012687Y013063D03*
X012685Y013065D03*
X012680Y013073D03*
X012680Y013075D03*
X012677Y013078D03*
X012677Y013080D03*
X012677Y013083D03*
X012675Y013088D03*
X012670Y013095D03*
X012670Y013098D03*
X012667Y013100D03*
X012665Y013105D03*
X012662Y013110D03*
X012660Y013115D03*
X012657Y013120D03*
X012655Y013125D03*
X012650Y013135D03*
X012645Y013143D03*
D112*
X014562Y012605D03*
X015320Y012375D03*
X015325Y012378D03*
X015330Y012380D03*
X014277Y012110D03*
X014847Y012085D03*
X014852Y012080D03*
X014487Y011883D03*
X013640Y012033D03*
X013297Y011783D03*
X013302Y012458D03*
X011555Y010213D03*
D113*
X011554Y010215D03*
X013424Y011850D03*
X013641Y012035D03*
X013641Y012038D03*
X013641Y012040D03*
X014146Y011913D03*
X014276Y012113D03*
X014826Y012108D03*
X014859Y012075D03*
X015351Y012250D03*
X015354Y012248D03*
X015359Y012245D03*
X015341Y012385D03*
X015354Y012390D03*
X015439Y012435D03*
X013304Y012460D03*
X012249Y013608D03*
D114*
X012254Y013605D03*
X013301Y012455D03*
X013639Y012030D03*
X013199Y011850D03*
X014146Y011915D03*
X014439Y011925D03*
X014441Y011923D03*
X014279Y012105D03*
X014279Y012108D03*
X014829Y012105D03*
X014854Y012078D03*
X015336Y012383D03*
X015361Y012393D03*
X011549Y010218D03*
D115*
X011550Y010220D03*
X011512Y010243D03*
X011507Y010248D03*
X013442Y011855D03*
X013645Y012070D03*
X013645Y012073D03*
X014272Y012150D03*
X014272Y012153D03*
X014272Y012155D03*
X014412Y011943D03*
X014417Y011938D03*
X014812Y012113D03*
X014870Y012060D03*
X015540Y012128D03*
X015545Y012125D03*
X015547Y012123D03*
X015560Y012113D03*
X015562Y012110D03*
X015585Y012095D03*
X015587Y012093D03*
X015592Y012090D03*
X015592Y012088D03*
X015597Y012085D03*
X015295Y012290D03*
X015290Y012295D03*
X015272Y012345D03*
X015275Y012348D03*
X015285Y012353D03*
X015447Y012445D03*
X013302Y012468D03*
X012325Y013555D03*
D116*
X012321Y013558D03*
X012244Y013618D03*
X015479Y012865D03*
X015281Y012350D03*
X015294Y012293D03*
X015299Y012288D03*
X015559Y012115D03*
X015581Y012098D03*
X014494Y011873D03*
X014421Y011935D03*
X013644Y012065D03*
X013644Y012068D03*
X011546Y010223D03*
X011516Y010238D03*
X011516Y010240D03*
D117*
X011529Y010233D03*
X011536Y010225D03*
X014489Y011880D03*
X014861Y012068D03*
X014861Y012070D03*
X015316Y012275D03*
X015326Y012265D03*
X015334Y012260D03*
X015339Y012258D03*
X015341Y012255D03*
X015364Y012243D03*
X015379Y012233D03*
X015389Y012228D03*
X015394Y012225D03*
X015416Y012210D03*
X015431Y012200D03*
X015449Y012190D03*
X015451Y012188D03*
X015454Y012185D03*
X015456Y012183D03*
X015476Y012170D03*
X015494Y012160D03*
X015444Y012440D03*
X014276Y012120D03*
X013641Y012045D03*
X013304Y012463D03*
D118*
X013642Y012050D03*
X013642Y012048D03*
X014145Y011908D03*
X014430Y011928D03*
X014275Y012123D03*
X014275Y012125D03*
X014275Y012128D03*
X014275Y012130D03*
X014275Y012133D03*
X014862Y012065D03*
X015305Y012283D03*
X015307Y012280D03*
X015317Y012273D03*
X015322Y012270D03*
X015325Y012268D03*
X015375Y012235D03*
X015400Y012220D03*
X015405Y012218D03*
X015410Y012215D03*
X015412Y012213D03*
X015460Y012180D03*
X015470Y012175D03*
X015472Y012173D03*
X015485Y012165D03*
X015487Y012163D03*
X015497Y012158D03*
X015500Y012155D03*
X015307Y012368D03*
X015302Y012365D03*
X012312Y013563D03*
X012245Y013613D03*
X011522Y010235D03*
X011530Y010230D03*
X011532Y010228D03*
D119*
X012081Y010228D03*
X012094Y010233D03*
X012136Y010253D03*
X012146Y010260D03*
X012186Y010265D03*
X012296Y010363D03*
X012306Y010350D03*
X012396Y010458D03*
X012451Y010523D03*
X012454Y010525D03*
X012471Y010543D03*
X012484Y010563D03*
X012596Y010723D03*
X012671Y010860D03*
X012679Y010870D03*
X011764Y011728D03*
X011764Y011730D03*
X011769Y011738D03*
X011769Y011740D03*
X011771Y011743D03*
X013386Y012373D03*
X014534Y012578D03*
X014896Y012030D03*
D120*
X014872Y012058D03*
X014497Y011870D03*
X014272Y012163D03*
X014272Y012165D03*
X015270Y012343D03*
X015450Y012448D03*
X015555Y012118D03*
X015567Y012108D03*
X015600Y012083D03*
X015605Y012080D03*
X015607Y012078D03*
X015630Y012060D03*
X015632Y012058D03*
X015650Y012043D03*
X015652Y012040D03*
X013450Y011858D03*
X013182Y011855D03*
X013302Y012470D03*
X015485Y012868D03*
X015487Y012870D03*
X015507Y012875D03*
X011505Y010250D03*
X011502Y010253D03*
X011495Y010258D03*
D121*
X011499Y010255D03*
X013179Y011858D03*
X013646Y012078D03*
X013646Y012080D03*
X013646Y012083D03*
X013646Y012085D03*
X013646Y012088D03*
X013646Y012090D03*
X014149Y011900D03*
X014271Y012168D03*
X014271Y012170D03*
X014271Y012173D03*
X014804Y012118D03*
X015284Y012300D03*
X015269Y012340D03*
X015619Y012070D03*
X015621Y012068D03*
X015629Y012063D03*
X015634Y012055D03*
X013301Y012473D03*
X012331Y013550D03*
X012329Y013553D03*
D122*
X015265Y012338D03*
X015280Y012303D03*
X014270Y012175D03*
X014407Y011945D03*
X014500Y011868D03*
X014147Y011898D03*
X013295Y011778D03*
X014875Y012055D03*
X015637Y012053D03*
X015640Y012050D03*
X015642Y012048D03*
X015645Y012045D03*
X011492Y010260D03*
D123*
X011491Y010263D03*
X011489Y010265D03*
X011486Y010268D03*
X013174Y011860D03*
X014269Y012178D03*
X014401Y011950D03*
X014404Y011948D03*
X015264Y012335D03*
X015276Y012308D03*
X014556Y012600D03*
X015504Y012873D03*
X013301Y012475D03*
X015656Y012038D03*
X015661Y012033D03*
X012349Y013540D03*
X012346Y013543D03*
X012336Y013548D03*
X012239Y013623D03*
D124*
X012352Y013538D03*
X012355Y013535D03*
X012357Y013533D03*
X015262Y012333D03*
X015275Y012310D03*
X015277Y012305D03*
X015455Y012450D03*
X015657Y012035D03*
X015662Y012030D03*
X014270Y012180D03*
X014270Y012183D03*
X014270Y012185D03*
X014270Y012188D03*
X014270Y012190D03*
X014267Y012193D03*
X014267Y012195D03*
X013650Y012103D03*
X013647Y012100D03*
X013647Y012098D03*
X013647Y012095D03*
X013647Y012093D03*
X013170Y011863D03*
X011485Y010270D03*
D125*
X012221Y010273D03*
X012254Y010313D03*
X012819Y011163D03*
X012819Y011165D03*
X012841Y011235D03*
X012909Y011580D03*
X012909Y011583D03*
X012909Y011593D03*
X012911Y011605D03*
X012914Y011630D03*
X012914Y011640D03*
X012914Y011643D03*
X012924Y011750D03*
X012924Y011753D03*
X012926Y011810D03*
X012926Y011813D03*
X012926Y011833D03*
X012916Y012170D03*
X012916Y012173D03*
X012911Y012225D03*
X012911Y012228D03*
X012911Y012230D03*
X012911Y012233D03*
X012911Y012235D03*
X012909Y012245D03*
X012909Y012255D03*
X012901Y012308D03*
X012901Y012310D03*
X012871Y012498D03*
X012861Y012555D03*
X012856Y012570D03*
X012856Y012573D03*
X012849Y012600D03*
X012849Y012603D03*
X012849Y012605D03*
X012849Y012608D03*
X012849Y012610D03*
X012839Y012643D03*
X012839Y012645D03*
X012836Y012650D03*
X012836Y012653D03*
X012836Y012655D03*
X012836Y012658D03*
X012829Y012680D03*
X012829Y012683D03*
X012826Y012690D03*
X012824Y012695D03*
X012824Y012698D03*
X012824Y012700D03*
X012824Y012703D03*
X012821Y012705D03*
X012821Y012708D03*
X012819Y012720D03*
X012816Y012723D03*
X012816Y012725D03*
X012814Y012735D03*
X012809Y012748D03*
X012809Y012750D03*
X012801Y012778D03*
X012799Y012783D03*
X012799Y012785D03*
X012794Y012803D03*
X012791Y012808D03*
X012786Y012818D03*
X012786Y012820D03*
X012784Y012823D03*
X012784Y012825D03*
X012784Y012828D03*
X012781Y012830D03*
X012781Y012833D03*
X012781Y012835D03*
X012781Y012838D03*
X012781Y012840D03*
X012779Y012843D03*
X012779Y012845D03*
X012776Y012848D03*
X012776Y012850D03*
X012771Y012865D03*
X012769Y012870D03*
X012766Y012875D03*
X012764Y012883D03*
X012759Y012898D03*
X012759Y012900D03*
X012756Y012903D03*
X012756Y012905D03*
X012751Y012915D03*
X013374Y012393D03*
X013969Y012410D03*
X014269Y012278D03*
X015481Y012475D03*
X015669Y011883D03*
X011771Y011713D03*
X011756Y011690D03*
X011621Y011505D03*
X011594Y011463D03*
X011586Y011450D03*
X011586Y011448D03*
X011586Y011445D03*
D126*
X013650Y012108D03*
X013650Y012110D03*
X013650Y012113D03*
X013650Y012115D03*
X013650Y012118D03*
X014267Y012205D03*
X014267Y012208D03*
X014267Y012210D03*
X014397Y011955D03*
X014500Y011865D03*
X015672Y011908D03*
X015677Y011913D03*
X015670Y012020D03*
X015667Y012023D03*
X015667Y012025D03*
X015267Y012315D03*
X012367Y013525D03*
X012237Y013625D03*
X011470Y010285D03*
X011477Y010278D03*
D127*
X012215Y010283D03*
X012227Y010280D03*
X012227Y010293D03*
X012257Y010310D03*
X011395Y010988D03*
X011395Y010990D03*
X011395Y010995D03*
X011395Y010998D03*
X011395Y011000D03*
X011417Y011075D03*
X011430Y011113D03*
X011430Y011115D03*
X011452Y011175D03*
X011455Y011180D03*
X011455Y011183D03*
X011477Y011233D03*
X011477Y011235D03*
X011477Y011238D03*
X011477Y011240D03*
X011477Y011243D03*
X011480Y011245D03*
X011480Y011248D03*
X011482Y011250D03*
X011485Y011253D03*
X011485Y011255D03*
X011485Y011258D03*
X011487Y011260D03*
X011492Y011270D03*
X011495Y011278D03*
X011497Y011285D03*
X011505Y011303D03*
X011505Y011305D03*
X011515Y011320D03*
X011522Y011335D03*
X011527Y011343D03*
X011530Y011348D03*
X011532Y011355D03*
X011547Y011385D03*
X011552Y011393D03*
X011560Y011405D03*
X011565Y011410D03*
X011565Y011413D03*
X011565Y011415D03*
X011572Y011430D03*
X011595Y011475D03*
X011605Y011485D03*
X011607Y011490D03*
X011625Y011518D03*
X011625Y011520D03*
X011625Y011523D03*
X011632Y011530D03*
X011640Y011543D03*
X011662Y011573D03*
X011670Y011583D03*
X011680Y011595D03*
X011680Y011598D03*
X011695Y011613D03*
X011730Y011660D03*
X011730Y011663D03*
X011730Y011665D03*
X013120Y011973D03*
X013120Y011975D03*
X013120Y012018D03*
X013117Y012025D03*
X013117Y012028D03*
X013117Y012030D03*
X013120Y012038D03*
X013120Y012040D03*
X013120Y012043D03*
X013120Y012045D03*
X013122Y012053D03*
X013122Y012055D03*
X013122Y012058D03*
X013122Y012060D03*
X013130Y012123D03*
X013130Y012125D03*
X013130Y012128D03*
X013135Y012153D03*
X013142Y012190D03*
X013145Y012198D03*
X013147Y012210D03*
X013150Y012218D03*
X013152Y012233D03*
X013155Y012235D03*
X013157Y012245D03*
X013157Y012248D03*
X013160Y012255D03*
X013162Y012258D03*
X013162Y012260D03*
X013165Y012265D03*
X013165Y012268D03*
X013165Y012270D03*
X013170Y012283D03*
X013367Y012400D03*
X013652Y012375D03*
X013965Y012408D03*
X014272Y012270D03*
X014220Y012010D03*
X014220Y012008D03*
X014220Y012005D03*
X014215Y011995D03*
X013792Y011833D03*
X013715Y011933D03*
X013712Y011935D03*
X013712Y011938D03*
X013710Y011940D03*
X013705Y011955D03*
X015475Y012470D03*
X015542Y012885D03*
X012637Y013155D03*
X012637Y013158D03*
X012635Y013163D03*
X012632Y013168D03*
X012630Y013173D03*
X012620Y013190D03*
X012612Y013205D03*
X012610Y013208D03*
X012610Y013210D03*
X012605Y013213D03*
X012592Y013233D03*
X012590Y013238D03*
X012590Y013240D03*
X012585Y013248D03*
X012580Y013255D03*
X012577Y013260D03*
X012572Y013268D03*
X012570Y013270D03*
X012230Y013638D03*
D128*
X012492Y013385D03*
X012495Y013380D03*
X012495Y013378D03*
X012502Y013373D03*
X012502Y013370D03*
X012520Y013348D03*
X012522Y013345D03*
X012522Y013343D03*
X012525Y013340D03*
X012527Y013338D03*
X012527Y013335D03*
X012530Y013333D03*
X012532Y013330D03*
X012535Y013325D03*
X012537Y013323D03*
X012540Y013318D03*
X012542Y013315D03*
X012547Y013308D03*
X013217Y012380D03*
X013202Y012358D03*
X013200Y012355D03*
X013200Y012353D03*
X013197Y012348D03*
X013195Y012345D03*
X013195Y012343D03*
X013190Y012330D03*
X013650Y012368D03*
X013650Y012370D03*
X013965Y012400D03*
X014005Y012180D03*
X014005Y012178D03*
X014007Y012173D03*
X014007Y012170D03*
X014007Y012168D03*
X014007Y012165D03*
X014010Y012155D03*
X014012Y012148D03*
X014012Y012145D03*
X014015Y012138D03*
X014017Y012128D03*
X014017Y012125D03*
X014020Y012110D03*
X014020Y012108D03*
X014025Y012085D03*
X014027Y012083D03*
X014027Y012080D03*
X013740Y011895D03*
X013742Y011890D03*
X013735Y011900D03*
X013732Y011905D03*
X013730Y011908D03*
X013575Y011985D03*
X013572Y011983D03*
X013572Y011980D03*
X013570Y011975D03*
X013567Y011973D03*
X013135Y011898D03*
X013132Y011903D03*
X013132Y011905D03*
X014747Y012235D03*
X014755Y012273D03*
X015667Y011890D03*
X011645Y011555D03*
X011465Y011223D03*
X011465Y011220D03*
X011462Y011213D03*
X011462Y011210D03*
X011447Y011173D03*
X011435Y011135D03*
X011382Y010960D03*
X011380Y010953D03*
X011380Y010950D03*
X011377Y010938D03*
X011370Y010883D03*
X011370Y010880D03*
X011370Y010878D03*
X011367Y010868D03*
X011365Y010848D03*
X011360Y010810D03*
X011360Y010808D03*
X011357Y010783D03*
X011357Y010763D03*
X011357Y010760D03*
X011357Y010758D03*
X011355Y010735D03*
X011355Y010725D03*
X011355Y010713D03*
X011355Y010710D03*
X011355Y010708D03*
X011355Y010705D03*
X011355Y010703D03*
X011355Y010700D03*
X011355Y010698D03*
X011355Y010695D03*
X011355Y010693D03*
X011355Y010690D03*
X011357Y010675D03*
X011357Y010673D03*
X011357Y010670D03*
X011357Y010660D03*
X011357Y010658D03*
X011357Y010633D03*
X011357Y010630D03*
X011357Y010628D03*
X011360Y010623D03*
X011360Y010620D03*
X011360Y010618D03*
X011360Y010615D03*
X011360Y010605D03*
X011360Y010603D03*
X011360Y010600D03*
X011360Y010598D03*
X011367Y010540D03*
X011370Y010528D03*
X011377Y010495D03*
X011377Y010493D03*
X012230Y010290D03*
D129*
X011460Y010300D03*
X013162Y011868D03*
X013460Y011863D03*
X013465Y011865D03*
X013470Y011870D03*
X013472Y011873D03*
X013652Y012128D03*
X013652Y012130D03*
X013652Y012133D03*
X014267Y012213D03*
X014267Y012215D03*
X014267Y012218D03*
X014267Y012220D03*
X014385Y011970D03*
X014385Y011968D03*
X014385Y011965D03*
X014390Y011963D03*
X014392Y011960D03*
X014392Y011958D03*
X014787Y012130D03*
X014790Y012128D03*
X014877Y012050D03*
X015672Y011900D03*
X015680Y011915D03*
X015462Y012458D03*
X013305Y012478D03*
X012380Y013515D03*
X012377Y013518D03*
D130*
X012391Y013503D03*
X012394Y013500D03*
X014546Y012595D03*
X014266Y012233D03*
X014266Y012230D03*
X014359Y012003D03*
X014364Y011995D03*
X014369Y011988D03*
X014501Y011863D03*
X014149Y011893D03*
X014069Y011983D03*
X014069Y011985D03*
X013654Y012153D03*
X013654Y012155D03*
X013654Y012158D03*
X014774Y012145D03*
X014779Y012138D03*
X014879Y012045D03*
X015681Y012008D03*
X015684Y012005D03*
X015686Y012003D03*
X015686Y012000D03*
X015689Y011923D03*
X015689Y011920D03*
X013491Y011888D03*
X013489Y011885D03*
X013484Y011880D03*
X015524Y012878D03*
X015526Y012880D03*
X011449Y010315D03*
X011444Y010318D03*
X011444Y010320D03*
X011444Y010323D03*
X011451Y010308D03*
D131*
X011442Y010325D03*
X011432Y010338D03*
X011432Y010340D03*
X013157Y011873D03*
X013485Y011883D03*
X013500Y011895D03*
X013502Y011898D03*
X014147Y011890D03*
X014350Y012013D03*
X014350Y012015D03*
X014350Y012018D03*
X014347Y012020D03*
X014352Y012010D03*
X014355Y012008D03*
X014362Y011998D03*
X014365Y011993D03*
X014367Y011990D03*
X014265Y012235D03*
X014265Y012238D03*
X014265Y012240D03*
X014265Y012243D03*
X014265Y012245D03*
X014775Y012143D03*
X014777Y012140D03*
X015687Y011998D03*
X015687Y011995D03*
X013307Y012480D03*
X012415Y013478D03*
X012410Y013485D03*
X012400Y013493D03*
X012397Y013495D03*
X012397Y013498D03*
X012235Y013630D03*
D132*
X015487Y012483D03*
X014767Y012323D03*
X013655Y012390D03*
X013800Y011823D03*
X012722Y010925D03*
X012717Y010915D03*
X012717Y010913D03*
X012712Y010908D03*
X012707Y010903D03*
X012700Y010885D03*
X012697Y010883D03*
X012280Y010338D03*
X012267Y010330D03*
D133*
X012281Y010348D03*
X012601Y010715D03*
X012606Y010725D03*
X012701Y010900D03*
X014516Y011848D03*
X015581Y012893D03*
D134*
X014275Y012288D03*
X013977Y012423D03*
X013385Y012380D03*
X014152Y011875D03*
X012640Y010788D03*
X012632Y010778D03*
X012620Y010750D03*
X012607Y010728D03*
X012292Y010355D03*
D135*
X012312Y010375D03*
X012445Y010515D03*
X012452Y010520D03*
X012620Y010760D03*
X012622Y010765D03*
X012627Y010775D03*
X012630Y010780D03*
X012637Y010793D03*
X012647Y010800D03*
X012645Y010808D03*
X012682Y010873D03*
X012690Y010890D03*
X011762Y011725D03*
X011760Y011723D03*
X011792Y011770D03*
X013810Y011818D03*
D136*
X013774Y011853D03*
X013756Y011878D03*
X013751Y011880D03*
X013751Y011883D03*
X013749Y011885D03*
X013564Y011970D03*
X013561Y011968D03*
X013561Y011965D03*
X013559Y011960D03*
X013556Y011958D03*
X013554Y011955D03*
X013554Y011953D03*
X013551Y011950D03*
X013549Y011948D03*
X013654Y012200D03*
X013654Y012203D03*
X013656Y012210D03*
X013654Y012223D03*
X013654Y012225D03*
X013654Y012228D03*
X013654Y012230D03*
X013651Y012323D03*
X013651Y012325D03*
X013976Y012338D03*
X013979Y012325D03*
X013979Y012323D03*
X013981Y012315D03*
X013981Y012313D03*
X013981Y012310D03*
X013984Y012303D03*
X013984Y012300D03*
X013984Y012298D03*
X013984Y012295D03*
X013984Y012293D03*
X013986Y012285D03*
X013986Y012283D03*
X013986Y012280D03*
X013986Y012278D03*
X013989Y012273D03*
X013989Y012270D03*
X013989Y012268D03*
X013991Y012263D03*
X013994Y012243D03*
X014031Y012070D03*
X014031Y012068D03*
X014034Y012060D03*
X014041Y012038D03*
X014046Y012023D03*
X014046Y012020D03*
X014046Y012018D03*
X014266Y012258D03*
X014751Y012185D03*
X014541Y012593D03*
X013309Y012483D03*
X013224Y012393D03*
X013221Y012390D03*
X013221Y012388D03*
X013139Y011895D03*
X013139Y011893D03*
X013141Y011890D03*
X013144Y011888D03*
X013146Y011885D03*
X015696Y011978D03*
X015701Y011970D03*
X015701Y011968D03*
X015704Y011960D03*
X015701Y011950D03*
X015701Y011948D03*
X015699Y011943D03*
X015699Y011940D03*
X012489Y013388D03*
X012486Y013393D03*
X012484Y013398D03*
X012479Y013403D03*
X012476Y013408D03*
X012474Y013410D03*
X012474Y013413D03*
X012471Y013415D03*
X012469Y013418D03*
X012466Y013420D03*
X012464Y013423D03*
X012461Y013428D03*
X012456Y013433D03*
X012454Y013435D03*
X011386Y010460D03*
X011386Y010458D03*
X011386Y010450D03*
X011391Y010435D03*
X011391Y010433D03*
X011391Y010430D03*
X011394Y010428D03*
X011396Y010423D03*
X011396Y010420D03*
X011396Y010418D03*
X011404Y010408D03*
X011404Y010405D03*
X011406Y010395D03*
X011414Y010380D03*
D137*
X011364Y010585D03*
X011364Y010588D03*
X011361Y010595D03*
X011361Y010608D03*
X011361Y010610D03*
X011361Y010613D03*
X011359Y010635D03*
X011359Y010655D03*
X011359Y010678D03*
X011356Y010685D03*
X011356Y010688D03*
X011356Y010715D03*
X011356Y010718D03*
X011356Y010720D03*
X011356Y010723D03*
X011356Y010728D03*
X011356Y010730D03*
X011356Y010733D03*
X011359Y010750D03*
X011359Y010753D03*
X011359Y010755D03*
X011356Y010765D03*
X011356Y010768D03*
X011356Y010770D03*
X011356Y010773D03*
X011359Y010775D03*
X011359Y010778D03*
X011359Y010780D03*
X011359Y010785D03*
X011359Y010788D03*
X011359Y010790D03*
X011359Y010793D03*
X011361Y010813D03*
X011361Y010815D03*
X011361Y010818D03*
X011361Y010820D03*
X011366Y010850D03*
X011366Y010853D03*
X011366Y010855D03*
X011369Y010865D03*
X011369Y010870D03*
X011369Y010873D03*
X011369Y010875D03*
X011369Y010885D03*
X011371Y010893D03*
X011371Y010895D03*
X011371Y010898D03*
X011371Y010900D03*
X011371Y010903D03*
X011374Y010908D03*
X011376Y010910D03*
X011376Y010913D03*
X011376Y010915D03*
X011376Y010918D03*
X011376Y010920D03*
X011379Y010933D03*
X011379Y010935D03*
X011381Y010955D03*
X011381Y010958D03*
X011384Y010963D03*
X011384Y010965D03*
X011386Y010975D03*
X011401Y011028D03*
X011406Y011043D03*
X011409Y011058D03*
X011409Y011060D03*
X011409Y011063D03*
X011409Y011065D03*
X011416Y011083D03*
X011424Y011108D03*
X011434Y011133D03*
X011436Y011138D03*
X011436Y011140D03*
X011436Y011143D03*
X011436Y011145D03*
X011436Y011148D03*
X011441Y011153D03*
X011441Y011155D03*
X011444Y011158D03*
X011446Y011170D03*
X011456Y011190D03*
X011456Y011193D03*
X011459Y011198D03*
X011459Y011200D03*
X011459Y011203D03*
X011459Y011205D03*
X011459Y011208D03*
X011464Y011215D03*
X011464Y011218D03*
X011469Y011225D03*
X011499Y011293D03*
X011499Y011295D03*
X011501Y011298D03*
X011566Y011423D03*
X011566Y011425D03*
X011641Y011548D03*
X011644Y011553D03*
X011684Y011603D03*
X013129Y011915D03*
X013131Y011910D03*
X013131Y011908D03*
X013134Y011900D03*
X013299Y011773D03*
X013701Y011963D03*
X013701Y011965D03*
X013701Y011968D03*
X013709Y011950D03*
X013729Y011913D03*
X013729Y011910D03*
X013741Y011893D03*
X013789Y011838D03*
X014211Y011988D03*
X014016Y012130D03*
X014016Y012133D03*
X014016Y012135D03*
X014269Y012265D03*
X014759Y012295D03*
X014759Y012298D03*
X013651Y012373D03*
X013194Y012340D03*
X013194Y012338D03*
X013194Y012335D03*
X013191Y012333D03*
X013189Y012328D03*
X013189Y012325D03*
X013186Y012323D03*
X013179Y012300D03*
X012556Y013295D03*
X012554Y013298D03*
X012551Y013300D03*
X012549Y013305D03*
X012546Y013310D03*
X012544Y013313D03*
X012539Y013320D03*
X012534Y013328D03*
X012231Y013635D03*
D138*
X012550Y013303D03*
X012557Y013293D03*
X012560Y013290D03*
X012562Y013288D03*
X012562Y013285D03*
X012565Y013283D03*
X012567Y013278D03*
X012567Y013275D03*
X012597Y013228D03*
X012600Y013225D03*
X012602Y013223D03*
X012602Y013220D03*
X012622Y013185D03*
X013310Y012488D03*
X013185Y012320D03*
X013185Y012318D03*
X013182Y012315D03*
X013180Y012313D03*
X013180Y012310D03*
X013180Y012308D03*
X013180Y012305D03*
X013180Y012303D03*
X013177Y012298D03*
X013175Y012293D03*
X013965Y012403D03*
X013965Y012405D03*
X014270Y012268D03*
X014210Y011985D03*
X014210Y011983D03*
X014210Y011980D03*
X014505Y011855D03*
X013790Y011835D03*
X013722Y011920D03*
X013720Y011923D03*
X013707Y011953D03*
X013702Y011960D03*
X013700Y011970D03*
X013697Y011978D03*
X013695Y011985D03*
X013130Y011913D03*
X013127Y011918D03*
X013125Y011923D03*
X013125Y011925D03*
X013125Y011928D03*
X013125Y011930D03*
X013125Y011933D03*
X013120Y011955D03*
X013120Y011958D03*
X014760Y012300D03*
X014537Y012590D03*
X015472Y012465D03*
X011685Y011605D03*
X011682Y011600D03*
X011655Y011565D03*
X011647Y011558D03*
X011642Y011550D03*
X011635Y011535D03*
X011567Y011428D03*
X011565Y011420D03*
X011565Y011418D03*
X011507Y011310D03*
X011502Y011300D03*
X011497Y011290D03*
X011457Y011195D03*
X011455Y011188D03*
X011445Y011168D03*
X011445Y011165D03*
X011445Y011163D03*
X011445Y011160D03*
X011440Y011150D03*
X011432Y011130D03*
X011430Y011123D03*
X011430Y011120D03*
X011422Y011105D03*
X011422Y011103D03*
X011422Y011100D03*
X011422Y011098D03*
X011422Y011095D03*
X011417Y011080D03*
X011407Y011055D03*
X011407Y011053D03*
X011405Y011040D03*
X011405Y011038D03*
X011402Y011035D03*
X011402Y011033D03*
X011402Y011030D03*
X011400Y011025D03*
X011400Y011023D03*
X011400Y011020D03*
X011397Y011015D03*
X011395Y011013D03*
X011395Y011010D03*
X011395Y011008D03*
X011395Y011005D03*
X011392Y010993D03*
X011387Y010980D03*
X011387Y010978D03*
X011385Y010973D03*
X011385Y010970D03*
X011385Y010968D03*
X011377Y010923D03*
X011372Y010905D03*
X011370Y010888D03*
X011367Y010863D03*
X011367Y010860D03*
X011367Y010858D03*
X011365Y010845D03*
X011365Y010843D03*
X011365Y010840D03*
X011365Y010838D03*
X011365Y010828D03*
X011362Y010825D03*
X011362Y010823D03*
X011362Y010805D03*
X011362Y010803D03*
X011362Y010800D03*
X011360Y010795D03*
X011360Y010748D03*
X011360Y010745D03*
X011360Y010743D03*
X011357Y010740D03*
X011357Y010738D03*
X011357Y010683D03*
X011357Y010680D03*
X011360Y010653D03*
X011360Y010650D03*
X011360Y010648D03*
X011360Y010645D03*
X011360Y010643D03*
X011360Y010640D03*
X011360Y010638D03*
X011362Y010593D03*
X011362Y010590D03*
D139*
X012664Y010825D03*
X012699Y010888D03*
X012721Y010930D03*
D140*
X011620Y011503D03*
X011617Y011500D03*
X011612Y011493D03*
X011622Y011508D03*
X011622Y011510D03*
X011595Y011465D03*
X011592Y011460D03*
X011590Y011458D03*
X011587Y011453D03*
X011757Y011693D03*
X012922Y012143D03*
X013372Y012395D03*
X012800Y012780D03*
X012787Y012810D03*
X012787Y012813D03*
X012787Y012815D03*
X012770Y012868D03*
X012767Y012873D03*
X012765Y012878D03*
X012765Y012880D03*
X012762Y012885D03*
X012762Y012888D03*
X012762Y012890D03*
X012760Y012893D03*
X012760Y012895D03*
X012750Y012918D03*
X012750Y012920D03*
X012750Y012923D03*
X012747Y012930D03*
X012745Y012933D03*
X012742Y012935D03*
X012742Y012938D03*
X012740Y012943D03*
X012735Y012953D03*
X012732Y012958D03*
X012732Y012960D03*
X012732Y012963D03*
X012732Y012965D03*
X012727Y012970D03*
X012725Y012975D03*
X012725Y012978D03*
X012722Y012980D03*
X012722Y012983D03*
X012720Y012988D03*
X014535Y012588D03*
X014762Y012310D03*
X014270Y012275D03*
X014147Y011880D03*
X013800Y011825D03*
X015480Y012473D03*
D141*
X015440Y012438D03*
X015347Y012388D03*
X015317Y012373D03*
X015312Y012370D03*
X015332Y012263D03*
X015345Y012253D03*
X015367Y012240D03*
X015370Y012238D03*
X015382Y012230D03*
X015395Y012223D03*
X014860Y012073D03*
X014277Y012115D03*
X014277Y012118D03*
X014145Y011910D03*
X013642Y012043D03*
X013295Y011780D03*
X012247Y013610D03*
D142*
X012261Y013593D03*
X015449Y012858D03*
X015426Y012428D03*
X015386Y012403D03*
X014284Y012075D03*
X014141Y011928D03*
X014141Y011925D03*
X014471Y011903D03*
X014471Y011900D03*
X013296Y011785D03*
D143*
X013295Y011790D03*
X014137Y011948D03*
X013297Y012425D03*
D144*
X014135Y011975D03*
X013297Y011795D03*
D145*
X013299Y011798D03*
D146*
X013299Y011800D03*
X015324Y012820D03*
X015344Y012825D03*
X015366Y012830D03*
D147*
X015262Y012803D03*
X013300Y011803D03*
D148*
X013301Y011805D03*
X015126Y012770D03*
X015166Y012780D03*
D149*
X015097Y012760D03*
X013300Y011810D03*
D150*
X013304Y011813D03*
X015054Y012750D03*
D151*
X015059Y012753D03*
X013304Y011815D03*
D152*
X013304Y011818D03*
X015001Y012740D03*
D153*
X013305Y011820D03*
D154*
X013305Y011823D03*
D155*
X013307Y011825D03*
D156*
X013307Y011828D03*
X014647Y012650D03*
X014965Y012730D03*
D157*
X014937Y012725D03*
X013307Y011830D03*
D158*
X013307Y011833D03*
X014655Y012653D03*
D159*
X013309Y011835D03*
D160*
X013306Y011838D03*
D161*
X013306Y011840D03*
D162*
X013309Y011843D03*
X014894Y012718D03*
D163*
X013310Y011845D03*
D164*
X013310Y011848D03*
X014695Y012668D03*
D165*
X015289Y012355D03*
X015299Y012363D03*
X015311Y012278D03*
X015429Y012203D03*
X015436Y012198D03*
X015441Y012195D03*
X015444Y012193D03*
X015466Y012178D03*
X015479Y012168D03*
X015501Y012153D03*
X014864Y012063D03*
X014819Y012110D03*
X014274Y012135D03*
X014274Y012138D03*
X014491Y011878D03*
X013644Y012053D03*
X013644Y012055D03*
X013644Y012058D03*
X013644Y012060D03*
X013191Y011853D03*
X013306Y012465D03*
X012244Y013615D03*
D166*
X012317Y013560D03*
X014557Y012603D03*
X015295Y012358D03*
X015297Y012360D03*
X015302Y012285D03*
X015420Y012208D03*
X015425Y012205D03*
X015505Y012150D03*
X015510Y012148D03*
X015512Y012145D03*
X015515Y012143D03*
X015522Y012140D03*
X015525Y012138D03*
X015527Y012135D03*
X015532Y012133D03*
X015535Y012130D03*
X015445Y012443D03*
X014427Y011930D03*
X014425Y011933D03*
X014492Y011875D03*
X014145Y011905D03*
X013642Y012063D03*
X013435Y011853D03*
D167*
X013637Y012028D03*
X014145Y011918D03*
X014280Y012098D03*
X014280Y012100D03*
X014280Y012103D03*
X014845Y012090D03*
X014845Y012088D03*
X014850Y012083D03*
X014485Y011885D03*
X014482Y011888D03*
X014480Y011890D03*
X015370Y012398D03*
X014565Y012608D03*
X012255Y013600D03*
X012255Y013603D03*
D168*
X014565Y012610D03*
X015405Y012415D03*
X015432Y012430D03*
X015432Y012433D03*
X014835Y012103D03*
X014842Y012093D03*
X014477Y011893D03*
X014450Y011920D03*
X014280Y012088D03*
X014142Y011920D03*
X013302Y012453D03*
X015457Y012860D03*
X015465Y012863D03*
D169*
X015424Y012425D03*
X015421Y012423D03*
X015401Y012413D03*
X014844Y012095D03*
X014476Y011895D03*
X014281Y012083D03*
X014281Y012085D03*
X014141Y011923D03*
X013639Y012015D03*
X013639Y012018D03*
X012256Y013598D03*
D170*
X012269Y013585D03*
X012271Y013583D03*
X015429Y012850D03*
X015446Y012855D03*
X014141Y011930D03*
X014469Y011908D03*
X013636Y012005D03*
D171*
X013635Y011998D03*
X014140Y011935D03*
X014285Y012060D03*
X015405Y012843D03*
X015420Y012848D03*
X012280Y013575D03*
D172*
X013301Y012435D03*
X013634Y011990D03*
X013634Y011988D03*
X014139Y011940D03*
X014289Y012040D03*
X014289Y012043D03*
X014289Y012045D03*
D173*
X014287Y012038D03*
X014287Y012035D03*
X014137Y011943D03*
X013300Y012430D03*
X013300Y012433D03*
X014577Y012618D03*
D174*
X014579Y012620D03*
X015399Y012840D03*
X013299Y012428D03*
X014139Y011945D03*
D175*
X014139Y011950D03*
X014289Y012033D03*
X013296Y012423D03*
D176*
X013295Y012413D03*
X013295Y012410D03*
X014137Y011958D03*
X014292Y012023D03*
X014580Y012623D03*
X015392Y012838D03*
D177*
X014135Y011963D03*
D178*
X014136Y011965D03*
X013294Y012405D03*
X014584Y012625D03*
D179*
X014135Y011973D03*
X014135Y011970D03*
X014135Y011968D03*
D180*
X014607Y012633D03*
X014610Y012635D03*
X015117Y012768D03*
X015160Y012778D03*
X015200Y012788D03*
D181*
X014616Y012638D03*
D182*
X014621Y012640D03*
D183*
X014625Y012643D03*
D184*
X014630Y012645D03*
X015045Y012748D03*
D185*
X014636Y012648D03*
D186*
X014659Y012655D03*
X014909Y012720D03*
D187*
X014675Y012660D03*
D188*
X014679Y012663D03*
X014689Y012665D03*
X014854Y012710D03*
D189*
X014800Y012698D03*
X014780Y012693D03*
X014757Y012688D03*
X014740Y012683D03*
X014727Y012678D03*
X014705Y012670D03*
D190*
X014709Y012673D03*
D191*
X014724Y012675D03*
X014729Y012680D03*
X014819Y012703D03*
D192*
X014867Y012713D03*
X014752Y012685D03*
D193*
X014772Y012690D03*
X014807Y012700D03*
D194*
X014787Y012695D03*
D195*
X014829Y012705D03*
D196*
X014834Y012708D03*
X014879Y012715D03*
D197*
X014919Y012723D03*
X014954Y012728D03*
D198*
X014986Y012735D03*
D199*
X015021Y012743D03*
D200*
X015032Y012745D03*
D201*
X015085Y012758D03*
X015110Y012765D03*
D202*
X015145Y012775D03*
X015172Y012783D03*
X015257Y012800D03*
D203*
X015226Y012795D03*
X015211Y012790D03*
D204*
X015237Y012798D03*
X015282Y012808D03*
X015290Y012810D03*
X015295Y012813D03*
X015315Y012818D03*
D205*
X015354Y012828D03*
X015376Y012833D03*
D206*
X015382Y012835D03*
D207*
X037879Y010281D02*
X038158Y010002D01*
X046788Y011673D02*
X047066Y011951D01*
X046788Y011951D02*
X047066Y011673D01*
D208*
X030180Y001876D02*
X030180Y001739D01*
X030112Y001671D01*
X029906Y001671D01*
X029906Y001534D02*
X029906Y001944D01*
X030112Y001944D01*
X030180Y001876D01*
X029720Y001876D02*
X029651Y001944D01*
X029514Y001944D01*
X029446Y001876D01*
X029446Y001808D01*
X029514Y001739D01*
X029651Y001739D01*
X029720Y001671D01*
X029720Y001602D01*
X029651Y001534D01*
X029514Y001534D01*
X029446Y001602D01*
X029259Y001534D02*
X028986Y001534D01*
X028986Y001944D01*
X029259Y001944D01*
X029122Y001739D02*
X028986Y001739D01*
M02*
