%
M48
M72
T01C0.0126
T02C0.0354
T03C0.0394
T04C0.0591
T05C0.1260
%
T01
X3300Y1725
X4087Y1725
X4874Y1725
X5662Y1725
X6449Y1725
X7237Y1725
X8024Y1725
X8811Y1725
X9599Y1725
X10386Y1725
X11174Y1725
X11764Y2414
X11764Y2709
X12059Y2709
X12059Y2414
X13536Y3300
X13536Y3693
X13536Y4087
X13930Y4087
X15898Y4087
X16292Y4087
X16292Y3693
X16292Y3300
X19343Y3201
X19835Y3890
X20819Y3890
X21804Y4087
X23378Y4087
X24953Y4087
X26528Y4087
X28103Y4087
X29678Y4087
X31252Y4087
X32827Y4087
X34402Y4087
X35977Y4087
X37552Y4087
X38044Y3004
X38339Y1725
X39126Y1725
X39914Y1725
X40701Y1725
X41882Y1725
X42670Y1725
X43457Y1725
X44244Y1725
X45032Y1725
X45819Y1626
X46607Y1626
X48969Y1626
X50150Y2512
X50544Y2512
X50544Y2906
X50150Y2906
X53693Y2906
X54087Y2906
X54087Y2512
X53693Y2512
X55268Y1725
X56056Y1725
X56056Y15504
X54481Y15504
X53496Y15504
X53496Y15209
X53496Y14914
X54481Y14914
X54481Y15209
X54481Y14619
X54481Y14323
X53496Y14323
X53496Y14619
X52611Y14619
X52611Y14323
X52611Y14028
X51823Y13634
X53398Y13241
X51823Y12748
X51331Y12355
X53300Y12355
X53300Y12059
X54284Y11666
X54284Y11370
X54284Y10780
X53103Y10780
X52512Y10780
X52020Y10485
X51331Y10780
X49953Y10681
X49166Y9993
X47493Y10288
X46607Y9993
X44638Y10386
X44638Y10780
X45032Y10780
X45819Y11272
X43063Y10780
X41882Y10780
X40701Y10386
X39126Y10386
X38241Y11075
X38241Y12158
X36370Y12355
X34894Y11764
X35189Y13142
X35977Y13142
X36764Y13142
X37552Y13142
X38339Y13142
X39126Y13142
X39914Y13142
X40701Y13142
X41489Y13142
X41882Y12748
X43063Y12748
X44244Y12748
X43457Y13536
X42276Y13930
X41882Y13536
X45032Y13536
X46607Y13142
X46607Y12748
X47788Y12748
X48772Y13044
X48870Y12650
X50347Y13339
X47788Y13536
X48870Y14225
X49756Y14225
X49756Y14815
X48181Y15111
X47886Y14815
X49756Y15504
X52611Y15504
X52611Y15209
X52611Y14914
X52611Y15800
X52611Y16095
X52906Y16095
X53201Y16095
X53496Y16095
X53496Y15800
X53792Y16095
X54185Y16095
X54481Y16095
X54481Y15800
X54481Y16685
X53693Y16685
X52906Y16685
X52119Y16685
X51331Y16685
X50544Y16685
X49756Y16685
X48969Y16685
X48181Y16685
X47394Y16685
X46607Y16685
X45819Y16685
X45032Y16685
X44244Y16685
X43457Y16685
X42670Y16685
X42276Y16292
X42276Y15504
X43457Y15111
X42276Y14717
X45032Y15111
X53496Y14028
X54481Y14028
X55268Y13536
X55268Y13044
X58418Y12748
X58418Y11961
X58418Y11174
X58418Y10386
X58615Y9599
X56843Y9205
X55268Y9205
X53693Y8615
X53300Y8024
X52611Y7827
X51922Y8122
X50347Y8024
X49658Y7827
X49067Y7827
X49855Y8615
X50544Y8910
X52020Y8910
X53103Y9402
X58615Y8811
X58615Y8024
X58418Y7237
X58418Y6449
X58418Y5662
X58418Y4874
X58418Y4087
X57237Y4087
X56056Y4087
X53103Y4185
X53103Y3792
X56056Y2906
X47000Y4087
X46607Y4087
X46213Y4087
X44244Y4087
X42670Y4087
X44244Y5662
X42670Y6056
X42178Y5760
X43457Y6843
X44244Y7630
X42276Y8024
X40701Y7237
X39126Y7237
X37552Y7237
X35977Y7237
X34402Y7237
X32827Y7237
X31252Y7237
X30071Y6843
X29284Y6843
X29678Y5662
X31252Y5662
X32827Y5662
X34402Y5662
X35977Y5662
X37552Y5662
X45032Y8418
X43063Y8811
X43851Y9599
X45819Y9205
X40701Y8811
X37552Y8811
X35977Y8811
X34402Y8811
X32827Y8811
X31252Y8811
X28103Y8811
X26528Y8811
X24953Y8811
X21804Y8811
X20229Y8811
X18654Y8811
X17079Y8811
X15504Y8811
X12748Y8811
X11174Y8811
X9599Y8811
X8811Y9304
X8221Y9304
X8024Y8811
X6449Y8811
X4874Y8811
X3300Y8811
X937Y8811
X937Y9599
X937Y10386
X937Y11174
X937Y11961
X937Y12748
X937Y13536
X937Y14323
X2119Y14323
X3300Y14323
X4284Y14520
X4284Y14914
X4284Y15307
X4284Y15701
X4678Y15701
X5071Y15701
X3300Y15504
X56056Y16685
X55268Y16685
X56056Y14323
X57237Y14323
X58418Y14323
X58418Y13536
X52119Y7040
X52611Y6941
X50347Y6056
X50052Y6056
X50052Y5760
X50347Y5760
X48083Y6056
X47099Y6252
X37552Y1725
X36764Y1725
X35977Y1725
X35189Y1725
X34402Y1725
X33615Y1725
X32827Y1725
X32040Y1725
X31252Y1725
X30465Y1725
X29678Y1725
X28890Y1725
X28103Y1725
X27315Y1725
X26528Y1725
X25741Y1725
X24953Y1725
X24166Y1725
X23378Y1725
X22591Y1725
X21804Y1725
X21016Y1725
X20229Y1725
X19441Y1725
X18654Y1725
X20426Y2512
X21804Y5662
X20819Y5859
X19835Y5859
X21016Y6449
X21804Y7237
X23378Y5662
X24953Y5662
X26528Y5662
X28103Y5662
X16095Y7040
X13930Y7237
X13536Y7237
X13536Y6843
X13930Y6843
X12945Y6843
X11961Y7237
X11370Y7827
X10189Y7827
X9008Y7827
X8024Y7237
X6449Y7237
X4874Y7237
X3300Y7237
X937Y7237
X937Y8024
X937Y6449
X937Y5662
X937Y4874
X937Y4087
X2119Y4087
X3300Y4087
X4874Y4087
X6449Y4087
X8024Y4087
X8024Y2906
X6449Y2906
X4874Y2906
X3300Y2906
X3300Y16685
X4087Y16685
X4874Y16685
X5662Y16685
X6449Y16685
X7237Y16685
X8024Y16685
X8811Y16685
X9599Y16685
X10386Y16685
X11174Y16685
X11961Y16685
X12355Y16292
X12355Y15504
X12355Y14717
X12355Y13930
X12748Y13536
X13142Y13142
X13930Y13142
X14717Y13142
X15504Y13142
X16292Y13142
X17079Y13142
X18654Y13142
X19441Y13142
X21016Y13142
X24953Y13142
X25741Y13142
X26528Y13142
X27315Y13142
X26528Y11961
X24953Y11961
X28103Y11961
X31252Y13142
X32040Y13142
X32827Y13142
X33615Y13142
X34402Y13142
X28103Y10386
X26528Y10386
X24953Y10386
X20229Y10386
X18654Y10386
X17079Y10386
X15504Y10386
X12748Y10386
X11174Y10386
X7532Y10386
X6252Y10386
X4678Y10386
X3300Y11961
X6843Y13536
X6843Y13930
X8221Y12945
X12748Y11961
X15504Y11961
X8319Y15701
X8024Y5662
X6449Y5662
X4874Y5662
X9599Y2906
T02
X51252Y2807
X52985Y2807
T03
X57630Y7205
X57630Y8205
X57630Y9205
X57630Y10205
X57630Y11205
X30678Y2512
X29678Y2512
X28678Y2512
T04
X47788Y1567
X47788Y4323
T05
X1725Y2512
X1725Y15898
X57630Y15898
X57630Y2512
M30
