G75*
G70*
%OFA0B0*%
%FSLAX24Y24*%
%IPPOS*%
%LPD*%
%AMOC8*
5,1,8,0,0,1.08239X$1,22.5*
%
%ADD10C,0.0000*%
%ADD11C,0.1300*%
%ADD12R,0.0434X0.0591*%
%ADD13R,0.0591X0.0434*%
%ADD14R,0.0236X0.0394*%
%ADD15OC8,0.0600*%
%ADD16R,0.0473X0.0434*%
%ADD17R,0.0434X0.0473*%
%ADD18R,0.0160X0.0430*%
%ADD19R,0.0440X0.1340*%
%ADD20C,0.0396*%
D10*
X001755Y000180D02*
X037975Y000180D01*
X037345Y001755D02*
X037347Y001805D01*
X037353Y001855D01*
X037363Y001904D01*
X037377Y001952D01*
X037394Y001999D01*
X037415Y002044D01*
X037440Y002088D01*
X037468Y002129D01*
X037500Y002168D01*
X037534Y002205D01*
X037571Y002239D01*
X037611Y002269D01*
X037653Y002296D01*
X037697Y002320D01*
X037743Y002341D01*
X037790Y002357D01*
X037838Y002370D01*
X037888Y002379D01*
X037937Y002384D01*
X037988Y002385D01*
X038038Y002382D01*
X038087Y002375D01*
X038136Y002364D01*
X038184Y002349D01*
X038230Y002331D01*
X038275Y002309D01*
X038318Y002283D01*
X038359Y002254D01*
X038398Y002222D01*
X038434Y002187D01*
X038466Y002149D01*
X038496Y002109D01*
X038523Y002066D01*
X038546Y002022D01*
X038565Y001976D01*
X038581Y001928D01*
X038593Y001879D01*
X038601Y001830D01*
X038605Y001780D01*
X038605Y001730D01*
X038601Y001680D01*
X038593Y001631D01*
X038581Y001582D01*
X038565Y001534D01*
X038546Y001488D01*
X038523Y001444D01*
X038496Y001401D01*
X038466Y001361D01*
X038434Y001323D01*
X038398Y001288D01*
X038359Y001256D01*
X038318Y001227D01*
X038275Y001201D01*
X038230Y001179D01*
X038184Y001161D01*
X038136Y001146D01*
X038087Y001135D01*
X038038Y001128D01*
X037988Y001125D01*
X037937Y001126D01*
X037888Y001131D01*
X037838Y001140D01*
X037790Y001153D01*
X037743Y001169D01*
X037697Y001190D01*
X037653Y001214D01*
X037611Y001241D01*
X037571Y001271D01*
X037534Y001305D01*
X037500Y001342D01*
X037468Y001381D01*
X037440Y001422D01*
X037415Y001466D01*
X037394Y001511D01*
X037377Y001558D01*
X037363Y001606D01*
X037353Y001655D01*
X037347Y001705D01*
X037345Y001755D01*
X037975Y000180D02*
X038052Y000182D01*
X038129Y000188D01*
X038206Y000197D01*
X038282Y000210D01*
X038358Y000227D01*
X038432Y000248D01*
X038506Y000272D01*
X038578Y000300D01*
X038648Y000331D01*
X038717Y000366D01*
X038785Y000404D01*
X038850Y000445D01*
X038913Y000490D01*
X038974Y000538D01*
X039033Y000588D01*
X039089Y000641D01*
X039142Y000697D01*
X039192Y000756D01*
X039240Y000817D01*
X039285Y000880D01*
X039326Y000945D01*
X039364Y001013D01*
X039399Y001082D01*
X039430Y001152D01*
X039458Y001224D01*
X039482Y001298D01*
X039503Y001372D01*
X039520Y001448D01*
X039533Y001524D01*
X039542Y001601D01*
X039548Y001678D01*
X039550Y001755D01*
X039550Y015141D01*
X037345Y015141D02*
X037347Y015191D01*
X037353Y015241D01*
X037363Y015290D01*
X037377Y015338D01*
X037394Y015385D01*
X037415Y015430D01*
X037440Y015474D01*
X037468Y015515D01*
X037500Y015554D01*
X037534Y015591D01*
X037571Y015625D01*
X037611Y015655D01*
X037653Y015682D01*
X037697Y015706D01*
X037743Y015727D01*
X037790Y015743D01*
X037838Y015756D01*
X037888Y015765D01*
X037937Y015770D01*
X037988Y015771D01*
X038038Y015768D01*
X038087Y015761D01*
X038136Y015750D01*
X038184Y015735D01*
X038230Y015717D01*
X038275Y015695D01*
X038318Y015669D01*
X038359Y015640D01*
X038398Y015608D01*
X038434Y015573D01*
X038466Y015535D01*
X038496Y015495D01*
X038523Y015452D01*
X038546Y015408D01*
X038565Y015362D01*
X038581Y015314D01*
X038593Y015265D01*
X038601Y015216D01*
X038605Y015166D01*
X038605Y015116D01*
X038601Y015066D01*
X038593Y015017D01*
X038581Y014968D01*
X038565Y014920D01*
X038546Y014874D01*
X038523Y014830D01*
X038496Y014787D01*
X038466Y014747D01*
X038434Y014709D01*
X038398Y014674D01*
X038359Y014642D01*
X038318Y014613D01*
X038275Y014587D01*
X038230Y014565D01*
X038184Y014547D01*
X038136Y014532D01*
X038087Y014521D01*
X038038Y014514D01*
X037988Y014511D01*
X037937Y014512D01*
X037888Y014517D01*
X037838Y014526D01*
X037790Y014539D01*
X037743Y014555D01*
X037697Y014576D01*
X037653Y014600D01*
X037611Y014627D01*
X037571Y014657D01*
X037534Y014691D01*
X037500Y014728D01*
X037468Y014767D01*
X037440Y014808D01*
X037415Y014852D01*
X037394Y014897D01*
X037377Y014944D01*
X037363Y014992D01*
X037353Y015041D01*
X037347Y015091D01*
X037345Y015141D01*
X037975Y016716D02*
X038052Y016714D01*
X038129Y016708D01*
X038206Y016699D01*
X038282Y016686D01*
X038358Y016669D01*
X038432Y016648D01*
X038506Y016624D01*
X038578Y016596D01*
X038648Y016565D01*
X038717Y016530D01*
X038785Y016492D01*
X038850Y016451D01*
X038913Y016406D01*
X038974Y016358D01*
X039033Y016308D01*
X039089Y016255D01*
X039142Y016199D01*
X039192Y016140D01*
X039240Y016079D01*
X039285Y016016D01*
X039326Y015951D01*
X039364Y015883D01*
X039399Y015814D01*
X039430Y015744D01*
X039458Y015672D01*
X039482Y015598D01*
X039503Y015524D01*
X039520Y015448D01*
X039533Y015372D01*
X039542Y015295D01*
X039548Y015218D01*
X039550Y015141D01*
X037975Y016715D02*
X001755Y016715D01*
X001125Y015141D02*
X001127Y015191D01*
X001133Y015241D01*
X001143Y015290D01*
X001157Y015338D01*
X001174Y015385D01*
X001195Y015430D01*
X001220Y015474D01*
X001248Y015515D01*
X001280Y015554D01*
X001314Y015591D01*
X001351Y015625D01*
X001391Y015655D01*
X001433Y015682D01*
X001477Y015706D01*
X001523Y015727D01*
X001570Y015743D01*
X001618Y015756D01*
X001668Y015765D01*
X001717Y015770D01*
X001768Y015771D01*
X001818Y015768D01*
X001867Y015761D01*
X001916Y015750D01*
X001964Y015735D01*
X002010Y015717D01*
X002055Y015695D01*
X002098Y015669D01*
X002139Y015640D01*
X002178Y015608D01*
X002214Y015573D01*
X002246Y015535D01*
X002276Y015495D01*
X002303Y015452D01*
X002326Y015408D01*
X002345Y015362D01*
X002361Y015314D01*
X002373Y015265D01*
X002381Y015216D01*
X002385Y015166D01*
X002385Y015116D01*
X002381Y015066D01*
X002373Y015017D01*
X002361Y014968D01*
X002345Y014920D01*
X002326Y014874D01*
X002303Y014830D01*
X002276Y014787D01*
X002246Y014747D01*
X002214Y014709D01*
X002178Y014674D01*
X002139Y014642D01*
X002098Y014613D01*
X002055Y014587D01*
X002010Y014565D01*
X001964Y014547D01*
X001916Y014532D01*
X001867Y014521D01*
X001818Y014514D01*
X001768Y014511D01*
X001717Y014512D01*
X001668Y014517D01*
X001618Y014526D01*
X001570Y014539D01*
X001523Y014555D01*
X001477Y014576D01*
X001433Y014600D01*
X001391Y014627D01*
X001351Y014657D01*
X001314Y014691D01*
X001280Y014728D01*
X001248Y014767D01*
X001220Y014808D01*
X001195Y014852D01*
X001174Y014897D01*
X001157Y014944D01*
X001143Y014992D01*
X001133Y015041D01*
X001127Y015091D01*
X001125Y015141D01*
X000180Y015141D02*
X000182Y015218D01*
X000188Y015295D01*
X000197Y015372D01*
X000210Y015448D01*
X000227Y015524D01*
X000248Y015598D01*
X000272Y015672D01*
X000300Y015744D01*
X000331Y015814D01*
X000366Y015883D01*
X000404Y015951D01*
X000445Y016016D01*
X000490Y016079D01*
X000538Y016140D01*
X000588Y016199D01*
X000641Y016255D01*
X000697Y016308D01*
X000756Y016358D01*
X000817Y016406D01*
X000880Y016451D01*
X000945Y016492D01*
X001013Y016530D01*
X001082Y016565D01*
X001152Y016596D01*
X001224Y016624D01*
X001298Y016648D01*
X001372Y016669D01*
X001448Y016686D01*
X001524Y016699D01*
X001601Y016708D01*
X001678Y016714D01*
X001755Y016716D01*
X000180Y015141D02*
X000180Y001755D01*
X001125Y001755D02*
X001127Y001805D01*
X001133Y001855D01*
X001143Y001904D01*
X001157Y001952D01*
X001174Y001999D01*
X001195Y002044D01*
X001220Y002088D01*
X001248Y002129D01*
X001280Y002168D01*
X001314Y002205D01*
X001351Y002239D01*
X001391Y002269D01*
X001433Y002296D01*
X001477Y002320D01*
X001523Y002341D01*
X001570Y002357D01*
X001618Y002370D01*
X001668Y002379D01*
X001717Y002384D01*
X001768Y002385D01*
X001818Y002382D01*
X001867Y002375D01*
X001916Y002364D01*
X001964Y002349D01*
X002010Y002331D01*
X002055Y002309D01*
X002098Y002283D01*
X002139Y002254D01*
X002178Y002222D01*
X002214Y002187D01*
X002246Y002149D01*
X002276Y002109D01*
X002303Y002066D01*
X002326Y002022D01*
X002345Y001976D01*
X002361Y001928D01*
X002373Y001879D01*
X002381Y001830D01*
X002385Y001780D01*
X002385Y001730D01*
X002381Y001680D01*
X002373Y001631D01*
X002361Y001582D01*
X002345Y001534D01*
X002326Y001488D01*
X002303Y001444D01*
X002276Y001401D01*
X002246Y001361D01*
X002214Y001323D01*
X002178Y001288D01*
X002139Y001256D01*
X002098Y001227D01*
X002055Y001201D01*
X002010Y001179D01*
X001964Y001161D01*
X001916Y001146D01*
X001867Y001135D01*
X001818Y001128D01*
X001768Y001125D01*
X001717Y001126D01*
X001668Y001131D01*
X001618Y001140D01*
X001570Y001153D01*
X001523Y001169D01*
X001477Y001190D01*
X001433Y001214D01*
X001391Y001241D01*
X001351Y001271D01*
X001314Y001305D01*
X001280Y001342D01*
X001248Y001381D01*
X001220Y001422D01*
X001195Y001466D01*
X001174Y001511D01*
X001157Y001558D01*
X001143Y001606D01*
X001133Y001655D01*
X001127Y001705D01*
X001125Y001755D01*
X000180Y001755D02*
X000182Y001678D01*
X000188Y001601D01*
X000197Y001524D01*
X000210Y001448D01*
X000227Y001372D01*
X000248Y001298D01*
X000272Y001224D01*
X000300Y001152D01*
X000331Y001082D01*
X000366Y001013D01*
X000404Y000945D01*
X000445Y000880D01*
X000490Y000817D01*
X000538Y000756D01*
X000588Y000697D01*
X000641Y000641D01*
X000697Y000588D01*
X000756Y000538D01*
X000817Y000490D01*
X000880Y000445D01*
X000945Y000404D01*
X001013Y000366D01*
X001082Y000331D01*
X001152Y000300D01*
X001224Y000272D01*
X001298Y000248D01*
X001372Y000227D01*
X001448Y000210D01*
X001524Y000197D01*
X001601Y000188D01*
X001678Y000182D01*
X001755Y000180D01*
D11*
X001755Y001755D03*
X001755Y015141D03*
X037975Y015141D03*
X037975Y001755D03*
D12*
X020652Y011952D03*
X019078Y011952D03*
X019452Y012818D03*
X018704Y012818D03*
X020278Y012818D03*
X021026Y012818D03*
X025397Y013999D03*
X026145Y013999D03*
X025771Y013133D03*
X032877Y013999D03*
X033625Y013999D03*
X033251Y013133D03*
X014334Y013999D03*
X013586Y013999D03*
X013960Y013133D03*
X006853Y013999D03*
X006105Y013999D03*
X006479Y013133D03*
D13*
X004156Y013566D03*
X003290Y013940D03*
X003290Y013192D03*
X003290Y012562D03*
X004156Y012188D03*
X003290Y011814D03*
X003290Y011184D03*
X004156Y010810D03*
X003290Y010436D03*
X003290Y009806D03*
X004156Y009432D03*
X003290Y009058D03*
X003290Y008428D03*
X004156Y008054D03*
X003290Y007680D03*
X008802Y008054D03*
X009668Y007680D03*
X010771Y007680D03*
X011637Y008054D03*
X010771Y008428D03*
X009668Y008428D03*
X009668Y009058D03*
X008802Y009432D03*
X009668Y009806D03*
X009668Y010436D03*
X008802Y010810D03*
X009668Y011184D03*
X009668Y011814D03*
X008802Y012188D03*
X009668Y012562D03*
X010771Y012562D03*
X011637Y012188D03*
X010771Y011814D03*
X010771Y011184D03*
X011637Y010810D03*
X010771Y010436D03*
X010771Y009806D03*
X011637Y009432D03*
X010771Y009058D03*
X016282Y009432D03*
X017149Y009806D03*
X017149Y010436D03*
X016282Y010810D03*
X017149Y011184D03*
X017149Y011814D03*
X016282Y012188D03*
X017149Y012562D03*
X017149Y013192D03*
X016282Y013566D03*
X017149Y013940D03*
X022582Y013940D03*
X023448Y013566D03*
X022582Y013192D03*
X022582Y012562D03*
X023448Y012188D03*
X022582Y011814D03*
X022582Y011184D03*
X023448Y010810D03*
X022582Y010436D03*
X022582Y009806D03*
X023448Y009432D03*
X022582Y009058D03*
X022582Y008428D03*
X023448Y008054D03*
X022582Y007680D03*
X017149Y007680D03*
X016282Y008054D03*
X017149Y008428D03*
X017149Y009058D03*
X010771Y013192D03*
X011637Y013566D03*
X010771Y013940D03*
X009668Y013940D03*
X008802Y013566D03*
X009668Y013192D03*
X028093Y013566D03*
X028960Y013940D03*
X030062Y013940D03*
X030928Y013566D03*
X030062Y013192D03*
X028960Y013192D03*
X028960Y012562D03*
X028093Y012188D03*
X028960Y011814D03*
X028960Y011184D03*
X028093Y010810D03*
X028960Y010436D03*
X028960Y009806D03*
X028093Y009432D03*
X028960Y009058D03*
X030062Y009058D03*
X030928Y009432D03*
X030062Y009806D03*
X030062Y010436D03*
X030928Y010810D03*
X030062Y011184D03*
X030062Y011814D03*
X030928Y012188D03*
X030062Y012562D03*
X035574Y012188D03*
X036440Y012562D03*
X036440Y013192D03*
X035574Y013566D03*
X036440Y013940D03*
X036440Y011814D03*
X036440Y011184D03*
X035574Y010810D03*
X036440Y010436D03*
X036440Y009806D03*
X035574Y009432D03*
X036440Y009058D03*
X036440Y008428D03*
X035574Y008054D03*
X036440Y007680D03*
X030928Y008054D03*
X030062Y007680D03*
X028960Y007680D03*
X028093Y008054D03*
X028960Y008428D03*
X030062Y008428D03*
D14*
X030121Y005219D03*
X030436Y005219D03*
X030751Y005219D03*
X031066Y005219D03*
X031066Y004589D03*
X030751Y004589D03*
X030436Y004589D03*
X030121Y004589D03*
X029491Y004589D03*
X029176Y004589D03*
X028861Y004589D03*
X028546Y004589D03*
X028546Y005219D03*
X028861Y005219D03*
X029176Y005219D03*
X029491Y005219D03*
X027129Y005219D03*
X026814Y005219D03*
X026499Y005219D03*
X026184Y005219D03*
X025554Y005219D03*
X025239Y005219D03*
X024924Y005219D03*
X024609Y005219D03*
X024609Y004589D03*
X024924Y004589D03*
X025239Y004589D03*
X025554Y004589D03*
X026184Y004589D03*
X026499Y004589D03*
X026814Y004589D03*
X027129Y004589D03*
X032483Y004589D03*
X032798Y004589D03*
X033113Y004589D03*
X033428Y004589D03*
X034058Y004589D03*
X034373Y004589D03*
X034688Y004589D03*
X035003Y004589D03*
X035003Y005219D03*
X034688Y005219D03*
X034373Y005219D03*
X034058Y005219D03*
X033428Y005219D03*
X033113Y005219D03*
X032798Y005219D03*
X032483Y005219D03*
X014924Y005219D03*
X014609Y005219D03*
X014294Y005219D03*
X013979Y005219D03*
X013349Y005219D03*
X013034Y005219D03*
X012719Y005219D03*
X012404Y005219D03*
X012404Y004589D03*
X012719Y004589D03*
X013034Y004589D03*
X013349Y004589D03*
X013979Y004589D03*
X014294Y004589D03*
X014609Y004589D03*
X014924Y004589D03*
X010987Y004589D03*
X010672Y004589D03*
X010357Y004589D03*
X010042Y004589D03*
X009412Y004589D03*
X009097Y004589D03*
X008782Y004589D03*
X008467Y004589D03*
X008467Y005219D03*
X008782Y005219D03*
X009097Y005219D03*
X009412Y005219D03*
X010042Y005219D03*
X010357Y005219D03*
X010672Y005219D03*
X010987Y005219D03*
X007050Y005219D03*
X006735Y005219D03*
X006420Y005219D03*
X006105Y005219D03*
X005475Y005219D03*
X005160Y005219D03*
X004845Y005219D03*
X004530Y005219D03*
X004530Y004589D03*
X004845Y004589D03*
X005160Y004589D03*
X005475Y004589D03*
X006105Y004589D03*
X006420Y004589D03*
X006735Y004589D03*
X007050Y004589D03*
D15*
X019471Y009523D03*
X020259Y009523D03*
X020259Y010523D03*
X019471Y010523D03*
D16*
X019471Y008586D03*
X020259Y008586D03*
X020259Y007916D03*
X019471Y007916D03*
X025377Y007995D03*
X025377Y007326D03*
X032857Y007326D03*
X032857Y007995D03*
X013566Y007995D03*
X013566Y007326D03*
X006086Y007326D03*
X006086Y007995D03*
D17*
X006873Y002286D03*
X006873Y001617D03*
X010810Y001617D03*
X010810Y002286D03*
X014747Y002286D03*
X014747Y001617D03*
X026952Y001617D03*
X026952Y002286D03*
X030889Y002286D03*
X030889Y001617D03*
X034826Y001617D03*
X034826Y002286D03*
D18*
X034343Y001590D03*
X034087Y001590D03*
X033832Y001590D03*
X033576Y001590D03*
X033320Y001590D03*
X033064Y001590D03*
X032808Y001590D03*
X032552Y001590D03*
X030406Y001590D03*
X030150Y001590D03*
X029895Y001590D03*
X029639Y001590D03*
X029383Y001590D03*
X029127Y001590D03*
X028871Y001590D03*
X028615Y001590D03*
X026469Y001590D03*
X026213Y001590D03*
X025958Y001590D03*
X025702Y001590D03*
X025446Y001590D03*
X025190Y001590D03*
X024934Y001590D03*
X024678Y001590D03*
X024678Y003888D03*
X024934Y003888D03*
X025190Y003888D03*
X025446Y003888D03*
X025702Y003888D03*
X025958Y003888D03*
X026213Y003888D03*
X026469Y003888D03*
X028615Y003888D03*
X028871Y003888D03*
X029127Y003888D03*
X029383Y003888D03*
X029639Y003888D03*
X029895Y003888D03*
X030150Y003888D03*
X030406Y003888D03*
X032552Y003888D03*
X032808Y003888D03*
X033064Y003888D03*
X033320Y003888D03*
X033576Y003888D03*
X033832Y003888D03*
X034087Y003888D03*
X034343Y003888D03*
X014265Y003888D03*
X014009Y003888D03*
X013753Y003888D03*
X013497Y003888D03*
X013241Y003888D03*
X012985Y003888D03*
X012729Y003888D03*
X012473Y003888D03*
X010328Y003888D03*
X010072Y003888D03*
X009816Y003888D03*
X009560Y003888D03*
X009304Y003888D03*
X009048Y003888D03*
X008792Y003888D03*
X008536Y003888D03*
X006391Y003888D03*
X006135Y003888D03*
X005879Y003888D03*
X005623Y003888D03*
X005367Y003888D03*
X005111Y003888D03*
X004855Y003888D03*
X004599Y003888D03*
X004599Y001590D03*
X004855Y001590D03*
X005111Y001590D03*
X005367Y001590D03*
X005623Y001590D03*
X005879Y001590D03*
X006135Y001590D03*
X006391Y001590D03*
X008536Y001590D03*
X008792Y001590D03*
X009048Y001590D03*
X009304Y001590D03*
X009560Y001590D03*
X009816Y001590D03*
X010072Y001590D03*
X010328Y001590D03*
X012473Y001590D03*
X012729Y001590D03*
X012985Y001590D03*
X013241Y001590D03*
X013497Y001590D03*
X013753Y001590D03*
X014009Y001590D03*
X014265Y001590D03*
D19*
X017861Y002141D03*
X018861Y002141D03*
X019861Y002141D03*
X020861Y002141D03*
X021861Y002141D03*
X021861Y004141D03*
X020861Y004141D03*
X019861Y004141D03*
X018861Y004141D03*
X017861Y004141D03*
D20*
X013960Y008645D03*
X014649Y008841D03*
X015141Y009334D03*
X015337Y010023D03*
X015141Y010711D03*
X014649Y011204D03*
X013960Y011400D03*
X013271Y011204D03*
X012778Y010711D03*
X012582Y010023D03*
X012778Y009334D03*
X013271Y008841D03*
X007857Y010023D03*
X007660Y010711D03*
X007168Y011204D03*
X006479Y011400D03*
X005790Y011204D03*
X005298Y010711D03*
X005101Y010023D03*
X005298Y009334D03*
X005790Y008841D03*
X006479Y008645D03*
X007168Y008841D03*
X007660Y009334D03*
X024393Y010023D03*
X024589Y010711D03*
X025082Y011204D03*
X025771Y011400D03*
X026460Y011204D03*
X026952Y010711D03*
X027149Y010023D03*
X026952Y009334D03*
X026460Y008841D03*
X025771Y008645D03*
X025082Y008841D03*
X024589Y009334D03*
X031873Y010023D03*
X032070Y010711D03*
X032562Y011204D03*
X033251Y011400D03*
X033940Y011204D03*
X034432Y010711D03*
X034629Y010023D03*
X034432Y009334D03*
X033940Y008841D03*
X033251Y008645D03*
X032562Y008841D03*
X032070Y009334D03*
M02*
