G75*
G70*
%OFA0B0*%
%FSLAX24Y24*%
%IPPOS*%
%LPD*%
%AMOC8*
5,1,8,0,0,1.08239X$1,22.5*
%
%ADD10C,0.0000*%
%ADD11C,0.0040*%
%ADD12C,0.0030*%
%ADD13R,0.0010X0.0050*%
%ADD14R,0.0010X0.0040*%
%ADD15R,0.0010X0.0130*%
%ADD16R,0.0010X0.0070*%
%ADD17R,0.0010X0.0180*%
%ADD18R,0.0010X0.0080*%
%ADD19R,0.0010X0.0210*%
%ADD20R,0.0010X0.0090*%
%ADD21R,0.0010X0.0060*%
%ADD22R,0.0010X0.0010*%
%ADD23R,0.0010X0.0030*%
%ADD24R,0.0010X0.0020*%
%ADD25R,0.0010X0.0220*%
%ADD26R,0.0010X0.0100*%
%ADD27R,0.0010X0.0110*%
%ADD28R,0.0010X0.0120*%
%ADD29R,0.0010X0.0140*%
%ADD30R,0.0010X0.0150*%
%ADD31R,0.0010X0.0200*%
%ADD32R,0.0010X0.0170*%
%ADD33R,0.0010X0.0190*%
%ADD34R,0.0010X0.0160*%
%ADD35R,0.0003X0.0003*%
%ADD36R,0.0008X0.0003*%
%ADD37R,0.0005X0.0003*%
%ADD38R,0.0015X0.0003*%
%ADD39R,0.0020X0.0003*%
%ADD40R,0.0010X0.0003*%
%ADD41R,0.0018X0.0003*%
%ADD42R,0.0067X0.0003*%
%ADD43R,0.0013X0.0003*%
%ADD44R,0.0045X0.0003*%
%ADD45R,0.0077X0.0003*%
%ADD46R,0.0030X0.0003*%
%ADD47R,0.0032X0.0003*%
%ADD48R,0.0022X0.0003*%
%ADD49R,0.0127X0.0003*%
%ADD50R,0.0140X0.0003*%
%ADD51R,0.0025X0.0003*%
%ADD52R,0.0043X0.0003*%
%ADD53R,0.0053X0.0003*%
%ADD54R,0.0088X0.0003*%
%ADD55R,0.0035X0.0003*%
%ADD56R,0.0055X0.0003*%
%ADD57R,0.0040X0.0003*%
%ADD58R,0.0080X0.0003*%
%ADD59R,0.0065X0.0003*%
%ADD60R,0.0090X0.0003*%
%ADD61R,0.0143X0.0003*%
%ADD62R,0.0248X0.0003*%
%ADD63R,0.0293X0.0003*%
%ADD64R,0.0257X0.0003*%
%ADD65R,0.0037X0.0003*%
%ADD66R,0.0262X0.0003*%
%ADD67R,0.0027X0.0003*%
%ADD68R,0.0280X0.0003*%
%ADD69R,0.0070X0.0003*%
%ADD70R,0.0440X0.0003*%
%ADD71R,0.0315X0.0003*%
%ADD72R,0.0085X0.0003*%
%ADD73R,0.0330X0.0003*%
%ADD74R,0.0323X0.0003*%
%ADD75R,0.0107X0.0003*%
%ADD76R,0.0057X0.0003*%
%ADD77R,0.0490X0.0003*%
%ADD78R,0.0360X0.0003*%
%ADD79R,0.0512X0.0003*%
%ADD80R,0.0390X0.0003*%
%ADD81R,0.0565X0.0003*%
%ADD82R,0.0325X0.0003*%
%ADD83R,0.0168X0.0003*%
%ADD84R,0.0307X0.0003*%
%ADD85R,0.0152X0.0003*%
%ADD86R,0.0272X0.0003*%
%ADD87R,0.0132X0.0003*%
%ADD88R,0.0147X0.0003*%
%ADD89R,0.0243X0.0003*%
%ADD90R,0.0125X0.0003*%
%ADD91R,0.0240X0.0003*%
%ADD92R,0.0130X0.0003*%
%ADD93R,0.0225X0.0003*%
%ADD94R,0.0083X0.0003*%
%ADD95R,0.0222X0.0003*%
%ADD96R,0.0217X0.0003*%
%ADD97R,0.0120X0.0003*%
%ADD98R,0.0215X0.0003*%
%ADD99R,0.0118X0.0003*%
%ADD100R,0.0205X0.0003*%
%ADD101R,0.0103X0.0003*%
%ADD102R,0.0210X0.0003*%
%ADD103R,0.0097X0.0003*%
%ADD104R,0.0198X0.0003*%
%ADD105R,0.0100X0.0003*%
%ADD106R,0.0190X0.0003*%
%ADD107R,0.0187X0.0003*%
%ADD108R,0.0192X0.0003*%
%ADD109R,0.0170X0.0003*%
%ADD110R,0.0173X0.0003*%
%ADD111R,0.0182X0.0003*%
%ADD112R,0.0180X0.0003*%
%ADD113R,0.0047X0.0003*%
%ADD114R,0.0165X0.0003*%
%ADD115R,0.0163X0.0003*%
%ADD116R,0.0160X0.0003*%
%ADD117R,0.0158X0.0003*%
%ADD118R,0.0155X0.0003*%
%ADD119R,0.0092X0.0003*%
%ADD120R,0.0150X0.0003*%
%ADD121R,0.0105X0.0003*%
%ADD122R,0.0115X0.0003*%
%ADD123R,0.0145X0.0003*%
%ADD124R,0.0138X0.0003*%
%ADD125R,0.0135X0.0003*%
%ADD126R,0.0075X0.0003*%
%ADD127R,0.0063X0.0003*%
%ADD128R,0.0060X0.0003*%
%ADD129R,0.0050X0.0003*%
%ADD130R,0.0123X0.0003*%
%ADD131R,0.0112X0.0003*%
%ADD132R,0.0110X0.0003*%
%ADD133R,0.0073X0.0003*%
%ADD134R,0.0095X0.0003*%
%ADD135R,0.0185X0.0003*%
%ADD136R,0.0208X0.0003*%
%ADD137R,0.0235X0.0003*%
%ADD138R,0.0260X0.0003*%
%ADD139R,0.0267X0.0003*%
%ADD140R,0.0283X0.0003*%
%ADD141R,0.0295X0.0003*%
%ADD142R,0.0302X0.0003*%
%ADD143R,0.0320X0.0003*%
%ADD144R,0.0333X0.0003*%
%ADD145R,0.0338X0.0003*%
%ADD146R,0.0343X0.0003*%
%ADD147R,0.0350X0.0003*%
%ADD148R,0.0355X0.0003*%
%ADD149R,0.0365X0.0003*%
%ADD150R,0.0370X0.0003*%
%ADD151R,0.0375X0.0003*%
%ADD152R,0.0380X0.0003*%
%ADD153R,0.0382X0.0003*%
%ADD154R,0.0393X0.0003*%
%ADD155R,0.0398X0.0003*%
%ADD156R,0.0403X0.0003*%
%ADD157R,0.0405X0.0003*%
%ADD158R,0.0415X0.0003*%
%ADD159R,0.0177X0.0003*%
%ADD160R,0.0175X0.0003*%
%ADD161R,0.0195X0.0003*%
%ADD162R,0.0200X0.0003*%
%ADD163R,0.0203X0.0003*%
%ADD164R,0.0213X0.0003*%
%ADD165R,0.0220X0.0003*%
%ADD166R,0.0227X0.0003*%
%ADD167R,0.0230X0.0003*%
%ADD168R,0.0232X0.0003*%
%ADD169R,0.0238X0.0003*%
%ADD170R,0.0245X0.0003*%
%ADD171R,0.0250X0.0003*%
%ADD172R,0.0253X0.0003*%
%ADD173R,0.0255X0.0003*%
%ADD174R,0.0305X0.0003*%
%ADD175R,0.0318X0.0003*%
%ADD176R,0.0328X0.0003*%
%ADD177R,0.0335X0.0003*%
%ADD178R,0.0340X0.0003*%
%ADD179R,0.0352X0.0003*%
%ADD180R,0.0387X0.0003*%
%ADD181R,0.0410X0.0003*%
%ADD182R,0.0413X0.0003*%
%ADD183R,0.0430X0.0003*%
%ADD184R,0.0432X0.0003*%
%ADD185R,0.0428X0.0003*%
%ADD186R,0.0420X0.0003*%
%ADD187R,0.0435X0.0003*%
%ADD188R,0.0425X0.0003*%
%ADD189R,0.0423X0.0003*%
%ADD190R,0.0418X0.0003*%
%ADD191R,0.0372X0.0003*%
%ADD192R,0.0362X0.0003*%
%ADD193R,0.0348X0.0003*%
%ADD194R,0.0345X0.0003*%
%ADD195R,0.0310X0.0003*%
%ADD196R,0.0300X0.0003*%
%ADD197R,0.0297X0.0003*%
%ADD198R,0.0285X0.0003*%
%ADD199R,0.0278X0.0003*%
%ADD200R,0.0265X0.0003*%
%ADD201C,0.0060*%
%ADD202C,0.0080*%
D10*
X001755Y000180D02*
X037975Y000180D01*
X037345Y001755D02*
X037347Y001805D01*
X037353Y001855D01*
X037363Y001904D01*
X037377Y001952D01*
X037394Y001999D01*
X037415Y002044D01*
X037440Y002088D01*
X037468Y002129D01*
X037500Y002168D01*
X037534Y002205D01*
X037571Y002239D01*
X037611Y002269D01*
X037653Y002296D01*
X037697Y002320D01*
X037743Y002341D01*
X037790Y002357D01*
X037838Y002370D01*
X037888Y002379D01*
X037937Y002384D01*
X037988Y002385D01*
X038038Y002382D01*
X038087Y002375D01*
X038136Y002364D01*
X038184Y002349D01*
X038230Y002331D01*
X038275Y002309D01*
X038318Y002283D01*
X038359Y002254D01*
X038398Y002222D01*
X038434Y002187D01*
X038466Y002149D01*
X038496Y002109D01*
X038523Y002066D01*
X038546Y002022D01*
X038565Y001976D01*
X038581Y001928D01*
X038593Y001879D01*
X038601Y001830D01*
X038605Y001780D01*
X038605Y001730D01*
X038601Y001680D01*
X038593Y001631D01*
X038581Y001582D01*
X038565Y001534D01*
X038546Y001488D01*
X038523Y001444D01*
X038496Y001401D01*
X038466Y001361D01*
X038434Y001323D01*
X038398Y001288D01*
X038359Y001256D01*
X038318Y001227D01*
X038275Y001201D01*
X038230Y001179D01*
X038184Y001161D01*
X038136Y001146D01*
X038087Y001135D01*
X038038Y001128D01*
X037988Y001125D01*
X037937Y001126D01*
X037888Y001131D01*
X037838Y001140D01*
X037790Y001153D01*
X037743Y001169D01*
X037697Y001190D01*
X037653Y001214D01*
X037611Y001241D01*
X037571Y001271D01*
X037534Y001305D01*
X037500Y001342D01*
X037468Y001381D01*
X037440Y001422D01*
X037415Y001466D01*
X037394Y001511D01*
X037377Y001558D01*
X037363Y001606D01*
X037353Y001655D01*
X037347Y001705D01*
X037345Y001755D01*
X037975Y000180D02*
X038052Y000182D01*
X038129Y000188D01*
X038206Y000197D01*
X038282Y000210D01*
X038358Y000227D01*
X038432Y000248D01*
X038506Y000272D01*
X038578Y000300D01*
X038648Y000331D01*
X038717Y000366D01*
X038785Y000404D01*
X038850Y000445D01*
X038913Y000490D01*
X038974Y000538D01*
X039033Y000588D01*
X039089Y000641D01*
X039142Y000697D01*
X039192Y000756D01*
X039240Y000817D01*
X039285Y000880D01*
X039326Y000945D01*
X039364Y001013D01*
X039399Y001082D01*
X039430Y001152D01*
X039458Y001224D01*
X039482Y001298D01*
X039503Y001372D01*
X039520Y001448D01*
X039533Y001524D01*
X039542Y001601D01*
X039548Y001678D01*
X039550Y001755D01*
X039550Y015141D01*
X037345Y015141D02*
X037347Y015191D01*
X037353Y015241D01*
X037363Y015290D01*
X037377Y015338D01*
X037394Y015385D01*
X037415Y015430D01*
X037440Y015474D01*
X037468Y015515D01*
X037500Y015554D01*
X037534Y015591D01*
X037571Y015625D01*
X037611Y015655D01*
X037653Y015682D01*
X037697Y015706D01*
X037743Y015727D01*
X037790Y015743D01*
X037838Y015756D01*
X037888Y015765D01*
X037937Y015770D01*
X037988Y015771D01*
X038038Y015768D01*
X038087Y015761D01*
X038136Y015750D01*
X038184Y015735D01*
X038230Y015717D01*
X038275Y015695D01*
X038318Y015669D01*
X038359Y015640D01*
X038398Y015608D01*
X038434Y015573D01*
X038466Y015535D01*
X038496Y015495D01*
X038523Y015452D01*
X038546Y015408D01*
X038565Y015362D01*
X038581Y015314D01*
X038593Y015265D01*
X038601Y015216D01*
X038605Y015166D01*
X038605Y015116D01*
X038601Y015066D01*
X038593Y015017D01*
X038581Y014968D01*
X038565Y014920D01*
X038546Y014874D01*
X038523Y014830D01*
X038496Y014787D01*
X038466Y014747D01*
X038434Y014709D01*
X038398Y014674D01*
X038359Y014642D01*
X038318Y014613D01*
X038275Y014587D01*
X038230Y014565D01*
X038184Y014547D01*
X038136Y014532D01*
X038087Y014521D01*
X038038Y014514D01*
X037988Y014511D01*
X037937Y014512D01*
X037888Y014517D01*
X037838Y014526D01*
X037790Y014539D01*
X037743Y014555D01*
X037697Y014576D01*
X037653Y014600D01*
X037611Y014627D01*
X037571Y014657D01*
X037534Y014691D01*
X037500Y014728D01*
X037468Y014767D01*
X037440Y014808D01*
X037415Y014852D01*
X037394Y014897D01*
X037377Y014944D01*
X037363Y014992D01*
X037353Y015041D01*
X037347Y015091D01*
X037345Y015141D01*
X037975Y016716D02*
X038052Y016714D01*
X038129Y016708D01*
X038206Y016699D01*
X038282Y016686D01*
X038358Y016669D01*
X038432Y016648D01*
X038506Y016624D01*
X038578Y016596D01*
X038648Y016565D01*
X038717Y016530D01*
X038785Y016492D01*
X038850Y016451D01*
X038913Y016406D01*
X038974Y016358D01*
X039033Y016308D01*
X039089Y016255D01*
X039142Y016199D01*
X039192Y016140D01*
X039240Y016079D01*
X039285Y016016D01*
X039326Y015951D01*
X039364Y015883D01*
X039399Y015814D01*
X039430Y015744D01*
X039458Y015672D01*
X039482Y015598D01*
X039503Y015524D01*
X039520Y015448D01*
X039533Y015372D01*
X039542Y015295D01*
X039548Y015218D01*
X039550Y015141D01*
X037975Y016715D02*
X001755Y016715D01*
X001125Y015141D02*
X001127Y015191D01*
X001133Y015241D01*
X001143Y015290D01*
X001157Y015338D01*
X001174Y015385D01*
X001195Y015430D01*
X001220Y015474D01*
X001248Y015515D01*
X001280Y015554D01*
X001314Y015591D01*
X001351Y015625D01*
X001391Y015655D01*
X001433Y015682D01*
X001477Y015706D01*
X001523Y015727D01*
X001570Y015743D01*
X001618Y015756D01*
X001668Y015765D01*
X001717Y015770D01*
X001768Y015771D01*
X001818Y015768D01*
X001867Y015761D01*
X001916Y015750D01*
X001964Y015735D01*
X002010Y015717D01*
X002055Y015695D01*
X002098Y015669D01*
X002139Y015640D01*
X002178Y015608D01*
X002214Y015573D01*
X002246Y015535D01*
X002276Y015495D01*
X002303Y015452D01*
X002326Y015408D01*
X002345Y015362D01*
X002361Y015314D01*
X002373Y015265D01*
X002381Y015216D01*
X002385Y015166D01*
X002385Y015116D01*
X002381Y015066D01*
X002373Y015017D01*
X002361Y014968D01*
X002345Y014920D01*
X002326Y014874D01*
X002303Y014830D01*
X002276Y014787D01*
X002246Y014747D01*
X002214Y014709D01*
X002178Y014674D01*
X002139Y014642D01*
X002098Y014613D01*
X002055Y014587D01*
X002010Y014565D01*
X001964Y014547D01*
X001916Y014532D01*
X001867Y014521D01*
X001818Y014514D01*
X001768Y014511D01*
X001717Y014512D01*
X001668Y014517D01*
X001618Y014526D01*
X001570Y014539D01*
X001523Y014555D01*
X001477Y014576D01*
X001433Y014600D01*
X001391Y014627D01*
X001351Y014657D01*
X001314Y014691D01*
X001280Y014728D01*
X001248Y014767D01*
X001220Y014808D01*
X001195Y014852D01*
X001174Y014897D01*
X001157Y014944D01*
X001143Y014992D01*
X001133Y015041D01*
X001127Y015091D01*
X001125Y015141D01*
X000180Y015141D02*
X000182Y015218D01*
X000188Y015295D01*
X000197Y015372D01*
X000210Y015448D01*
X000227Y015524D01*
X000248Y015598D01*
X000272Y015672D01*
X000300Y015744D01*
X000331Y015814D01*
X000366Y015883D01*
X000404Y015951D01*
X000445Y016016D01*
X000490Y016079D01*
X000538Y016140D01*
X000588Y016199D01*
X000641Y016255D01*
X000697Y016308D01*
X000756Y016358D01*
X000817Y016406D01*
X000880Y016451D01*
X000945Y016492D01*
X001013Y016530D01*
X001082Y016565D01*
X001152Y016596D01*
X001224Y016624D01*
X001298Y016648D01*
X001372Y016669D01*
X001448Y016686D01*
X001524Y016699D01*
X001601Y016708D01*
X001678Y016714D01*
X001755Y016716D01*
X000180Y015141D02*
X000180Y001755D01*
X001125Y001755D02*
X001127Y001805D01*
X001133Y001855D01*
X001143Y001904D01*
X001157Y001952D01*
X001174Y001999D01*
X001195Y002044D01*
X001220Y002088D01*
X001248Y002129D01*
X001280Y002168D01*
X001314Y002205D01*
X001351Y002239D01*
X001391Y002269D01*
X001433Y002296D01*
X001477Y002320D01*
X001523Y002341D01*
X001570Y002357D01*
X001618Y002370D01*
X001668Y002379D01*
X001717Y002384D01*
X001768Y002385D01*
X001818Y002382D01*
X001867Y002375D01*
X001916Y002364D01*
X001964Y002349D01*
X002010Y002331D01*
X002055Y002309D01*
X002098Y002283D01*
X002139Y002254D01*
X002178Y002222D01*
X002214Y002187D01*
X002246Y002149D01*
X002276Y002109D01*
X002303Y002066D01*
X002326Y002022D01*
X002345Y001976D01*
X002361Y001928D01*
X002373Y001879D01*
X002381Y001830D01*
X002385Y001780D01*
X002385Y001730D01*
X002381Y001680D01*
X002373Y001631D01*
X002361Y001582D01*
X002345Y001534D01*
X002326Y001488D01*
X002303Y001444D01*
X002276Y001401D01*
X002246Y001361D01*
X002214Y001323D01*
X002178Y001288D01*
X002139Y001256D01*
X002098Y001227D01*
X002055Y001201D01*
X002010Y001179D01*
X001964Y001161D01*
X001916Y001146D01*
X001867Y001135D01*
X001818Y001128D01*
X001768Y001125D01*
X001717Y001126D01*
X001668Y001131D01*
X001618Y001140D01*
X001570Y001153D01*
X001523Y001169D01*
X001477Y001190D01*
X001433Y001214D01*
X001391Y001241D01*
X001351Y001271D01*
X001314Y001305D01*
X001280Y001342D01*
X001248Y001381D01*
X001220Y001422D01*
X001195Y001466D01*
X001174Y001511D01*
X001157Y001558D01*
X001143Y001606D01*
X001133Y001655D01*
X001127Y001705D01*
X001125Y001755D01*
X000180Y001755D02*
X000182Y001678D01*
X000188Y001601D01*
X000197Y001524D01*
X000210Y001448D01*
X000227Y001372D01*
X000248Y001298D01*
X000272Y001224D01*
X000300Y001152D01*
X000331Y001082D01*
X000366Y001013D01*
X000404Y000945D01*
X000445Y000880D01*
X000490Y000817D01*
X000538Y000756D01*
X000588Y000697D01*
X000641Y000641D01*
X000697Y000588D01*
X000756Y000538D01*
X000817Y000490D01*
X000880Y000445D01*
X000945Y000404D01*
X001013Y000366D01*
X001082Y000331D01*
X001152Y000300D01*
X001224Y000272D01*
X001298Y000248D01*
X001372Y000227D01*
X001448Y000210D01*
X001524Y000197D01*
X001601Y000188D01*
X001678Y000182D01*
X001755Y000180D01*
D11*
X004393Y004609D02*
X004393Y005200D01*
X005613Y005200D02*
X005613Y004609D01*
X005967Y004609D02*
X005967Y005200D01*
X007188Y005200D02*
X007188Y004609D01*
X008330Y004609D02*
X008330Y005200D01*
X009550Y005200D02*
X009550Y004609D01*
X009904Y004609D02*
X009904Y005200D01*
X011125Y005200D02*
X011125Y004609D01*
X012267Y004609D02*
X012267Y005200D01*
X013487Y005200D02*
X013487Y004609D01*
X013841Y004609D02*
X013841Y005200D01*
X015062Y005200D02*
X015062Y004609D01*
X024471Y004609D02*
X024471Y005200D01*
X025692Y005200D02*
X025692Y004609D01*
X026046Y004609D02*
X026046Y005200D01*
X027267Y005200D02*
X027267Y004609D01*
X028408Y004609D02*
X028408Y005200D01*
X029629Y005200D02*
X029629Y004609D01*
X029983Y004609D02*
X029983Y005200D01*
X031204Y005200D02*
X031204Y004609D01*
X032345Y004609D02*
X032345Y005200D01*
X033566Y005200D02*
X033566Y004609D01*
X033920Y004609D02*
X033920Y005200D01*
X035141Y005200D02*
X035141Y004609D01*
D12*
X034874Y005519D02*
X034778Y005519D01*
X034729Y005568D01*
X034923Y005761D01*
X034923Y005568D01*
X034874Y005519D01*
X034729Y005568D02*
X034729Y005761D01*
X034778Y005810D01*
X034874Y005810D01*
X034923Y005761D01*
X034531Y005810D02*
X034435Y005713D01*
X034531Y005810D02*
X034531Y005519D01*
X034435Y005519D02*
X034628Y005519D01*
X034334Y005519D02*
X034334Y005810D01*
X034140Y005810D02*
X034334Y005519D01*
X034140Y005519D02*
X034140Y005810D01*
X034039Y005761D02*
X034039Y005665D01*
X033991Y005616D01*
X033845Y005616D01*
X033845Y005519D02*
X033845Y005810D01*
X033991Y005810D01*
X034039Y005761D01*
X033942Y005616D02*
X034039Y005519D01*
X033348Y005519D02*
X033155Y005519D01*
X033251Y005519D02*
X033251Y005810D01*
X033155Y005713D01*
X033053Y005519D02*
X032860Y005519D01*
X032957Y005519D02*
X032957Y005810D01*
X032860Y005713D01*
X032759Y005810D02*
X032759Y005519D01*
X032565Y005810D01*
X032565Y005519D01*
X032464Y005519D02*
X032367Y005616D01*
X032416Y005616D02*
X032271Y005616D01*
X032271Y005519D02*
X032271Y005810D01*
X032416Y005810D01*
X032464Y005761D01*
X032464Y005665D01*
X032416Y005616D01*
X030986Y005568D02*
X030937Y005519D01*
X030841Y005519D01*
X030792Y005568D01*
X030986Y005761D01*
X030986Y005568D01*
X030792Y005568D02*
X030792Y005761D01*
X030841Y005810D01*
X030937Y005810D01*
X030986Y005761D01*
X030691Y005761D02*
X030643Y005810D01*
X030546Y005810D01*
X030498Y005761D01*
X030397Y005810D02*
X030397Y005519D01*
X030203Y005810D01*
X030203Y005519D01*
X030102Y005519D02*
X030005Y005616D01*
X030054Y005616D02*
X029908Y005616D01*
X029908Y005519D02*
X029908Y005810D01*
X030054Y005810D01*
X030102Y005761D01*
X030102Y005665D01*
X030054Y005616D01*
X030498Y005519D02*
X030691Y005713D01*
X030691Y005761D01*
X030691Y005519D02*
X030498Y005519D01*
X029411Y005519D02*
X029218Y005519D01*
X029314Y005519D02*
X029314Y005810D01*
X029218Y005713D01*
X029116Y005713D02*
X029116Y005761D01*
X029068Y005810D01*
X028971Y005810D01*
X028923Y005761D01*
X028822Y005810D02*
X028822Y005519D01*
X028628Y005810D01*
X028628Y005519D01*
X028527Y005519D02*
X028430Y005616D01*
X028479Y005616D02*
X028334Y005616D01*
X028334Y005519D02*
X028334Y005810D01*
X028479Y005810D01*
X028527Y005761D01*
X028527Y005665D01*
X028479Y005616D01*
X028923Y005519D02*
X029116Y005713D01*
X029116Y005519D02*
X028923Y005519D01*
X027049Y005568D02*
X027000Y005519D01*
X026904Y005519D01*
X026855Y005568D01*
X027049Y005761D01*
X027049Y005568D01*
X026855Y005568D02*
X026855Y005761D01*
X026904Y005810D01*
X027000Y005810D01*
X027049Y005761D01*
X026754Y005761D02*
X026754Y005713D01*
X026706Y005665D01*
X026754Y005616D01*
X026754Y005568D01*
X026706Y005519D01*
X026609Y005519D01*
X026561Y005568D01*
X026460Y005519D02*
X026460Y005810D01*
X026561Y005761D02*
X026609Y005810D01*
X026706Y005810D01*
X026754Y005761D01*
X026706Y005665D02*
X026657Y005665D01*
X026460Y005519D02*
X026266Y005810D01*
X026266Y005519D01*
X026165Y005519D02*
X026068Y005616D01*
X026117Y005616D02*
X025971Y005616D01*
X025971Y005519D02*
X025971Y005810D01*
X026117Y005810D01*
X026165Y005761D01*
X026165Y005665D01*
X026117Y005616D01*
X025474Y005519D02*
X025281Y005519D01*
X025377Y005519D02*
X025377Y005810D01*
X025281Y005713D01*
X025179Y005713D02*
X025131Y005665D01*
X025179Y005616D01*
X025179Y005568D01*
X025131Y005519D01*
X025034Y005519D01*
X024986Y005568D01*
X024885Y005519D02*
X024885Y005810D01*
X024986Y005761D02*
X025034Y005810D01*
X025131Y005810D01*
X025179Y005761D01*
X025179Y005713D01*
X025131Y005665D02*
X025083Y005665D01*
X024885Y005519D02*
X024691Y005810D01*
X024691Y005519D01*
X024590Y005519D02*
X024493Y005616D01*
X024542Y005616D02*
X024397Y005616D01*
X024397Y005519D02*
X024397Y005810D01*
X024542Y005810D01*
X024590Y005761D01*
X024590Y005665D01*
X024542Y005616D01*
X024137Y006888D02*
X023890Y006888D01*
X024137Y007135D01*
X024137Y007197D01*
X024075Y007258D01*
X023952Y007258D01*
X023890Y007197D01*
X023769Y007258D02*
X023769Y006888D01*
X023522Y007258D01*
X023522Y006888D01*
X025732Y007335D02*
X025732Y007625D01*
X025878Y007625D01*
X025926Y007577D01*
X025926Y007480D01*
X025878Y007432D01*
X025732Y007432D01*
X025829Y007432D02*
X025926Y007335D01*
X026027Y007335D02*
X026221Y007528D01*
X026221Y007577D01*
X026172Y007625D01*
X026075Y007625D01*
X026027Y007577D01*
X026027Y007335D02*
X026221Y007335D01*
X026322Y007383D02*
X026515Y007577D01*
X026515Y007383D01*
X026467Y007335D01*
X026370Y007335D01*
X026322Y007383D01*
X026322Y007577D01*
X026370Y007625D01*
X026467Y007625D01*
X026515Y007577D01*
X031002Y007258D02*
X031249Y006888D01*
X031249Y007258D01*
X031370Y007135D02*
X031494Y007258D01*
X031494Y006888D01*
X031617Y006888D02*
X031370Y006888D01*
X031002Y006888D02*
X031002Y007258D01*
X033213Y007335D02*
X033213Y007625D01*
X033358Y007625D01*
X033406Y007577D01*
X033406Y007480D01*
X033358Y007432D01*
X033213Y007432D01*
X033309Y007432D02*
X033406Y007335D01*
X033507Y007335D02*
X033701Y007335D01*
X033604Y007335D02*
X033604Y007625D01*
X033507Y007528D01*
X033802Y007577D02*
X033802Y007383D01*
X033996Y007577D01*
X033996Y007383D01*
X033947Y007335D01*
X033850Y007335D01*
X033802Y007383D01*
X033802Y007577D02*
X033850Y007625D01*
X033947Y007625D01*
X033996Y007577D01*
X034954Y003189D02*
X034954Y002996D01*
X034954Y003092D02*
X034664Y003092D01*
X034761Y002996D01*
X034712Y002894D02*
X034664Y002846D01*
X034664Y002749D01*
X034712Y002701D01*
X034906Y002701D01*
X034954Y002749D01*
X034954Y002846D01*
X034906Y002894D01*
X031017Y002846D02*
X030969Y002894D01*
X031017Y002846D02*
X031017Y002749D01*
X030969Y002701D01*
X030775Y002701D01*
X030727Y002749D01*
X030727Y002846D01*
X030775Y002894D01*
X030775Y002996D02*
X030727Y003044D01*
X030727Y003141D01*
X030775Y003189D01*
X030824Y003189D01*
X031017Y002996D01*
X031017Y003189D01*
X027080Y003141D02*
X027080Y003044D01*
X027032Y002996D01*
X027032Y002894D02*
X027080Y002846D01*
X027080Y002749D01*
X027032Y002701D01*
X026838Y002701D01*
X026790Y002749D01*
X026790Y002846D01*
X026838Y002894D01*
X026838Y002996D02*
X026790Y003044D01*
X026790Y003141D01*
X026838Y003189D01*
X026887Y003189D01*
X026935Y003141D01*
X026984Y003189D01*
X027032Y003189D01*
X027080Y003141D01*
X026935Y003141D02*
X026935Y003092D01*
X020420Y006942D02*
X020130Y006942D01*
X020130Y007087D01*
X020178Y007136D01*
X020275Y007136D01*
X020323Y007087D01*
X020323Y006942D01*
X020323Y007039D02*
X020420Y007136D01*
X020420Y007237D02*
X020420Y007430D01*
X020420Y007334D02*
X020130Y007334D01*
X020227Y007237D01*
X019633Y007237D02*
X019633Y007430D01*
X019633Y007237D02*
X019439Y007430D01*
X019391Y007430D01*
X019342Y007382D01*
X019342Y007285D01*
X019391Y007237D01*
X019391Y007136D02*
X019488Y007136D01*
X019536Y007087D01*
X019536Y006942D01*
X019633Y006942D02*
X019342Y006942D01*
X019342Y007087D01*
X019391Y007136D01*
X019536Y007039D02*
X019633Y007136D01*
X014704Y007383D02*
X014656Y007335D01*
X014559Y007335D01*
X014511Y007383D01*
X014704Y007577D01*
X014704Y007383D01*
X014511Y007383D02*
X014511Y007577D01*
X014559Y007625D01*
X014656Y007625D01*
X014704Y007577D01*
X014410Y007577D02*
X014361Y007625D01*
X014264Y007625D01*
X014216Y007577D01*
X014115Y007577D02*
X014115Y007480D01*
X014067Y007432D01*
X013921Y007432D01*
X014018Y007432D02*
X014115Y007335D01*
X014216Y007383D02*
X014264Y007335D01*
X014361Y007335D01*
X014410Y007383D01*
X014410Y007432D01*
X014361Y007480D01*
X014313Y007480D01*
X014361Y007480D02*
X014410Y007528D01*
X014410Y007577D01*
X014115Y007577D02*
X014067Y007625D01*
X013921Y007625D01*
X013921Y007335D01*
X012326Y007197D02*
X012326Y007135D01*
X012264Y007073D01*
X012326Y007011D01*
X012326Y006950D01*
X012264Y006888D01*
X012141Y006888D01*
X012079Y006950D01*
X011958Y006888D02*
X011711Y007258D01*
X011711Y006888D01*
X011958Y006888D02*
X011958Y007258D01*
X012079Y007197D02*
X012141Y007258D01*
X012264Y007258D01*
X012326Y007197D01*
X012264Y007073D02*
X012203Y007073D01*
X012192Y005810D02*
X012337Y005810D01*
X012385Y005761D01*
X012385Y005665D01*
X012337Y005616D01*
X012192Y005616D01*
X012192Y005519D02*
X012192Y005810D01*
X012289Y005616D02*
X012385Y005519D01*
X012487Y005519D02*
X012487Y005810D01*
X012680Y005519D01*
X012680Y005810D01*
X012781Y005665D02*
X012975Y005665D01*
X013076Y005713D02*
X013173Y005810D01*
X013173Y005519D01*
X013269Y005519D02*
X013076Y005519D01*
X012926Y005519D02*
X012926Y005810D01*
X012781Y005665D01*
X013767Y005616D02*
X013912Y005616D01*
X013960Y005665D01*
X013960Y005761D01*
X013912Y005810D01*
X013767Y005810D01*
X013767Y005519D01*
X013863Y005616D02*
X013960Y005519D01*
X014061Y005519D02*
X014061Y005810D01*
X014255Y005519D01*
X014255Y005810D01*
X014356Y005665D02*
X014549Y005665D01*
X014651Y005568D02*
X014651Y005761D01*
X014699Y005810D01*
X014796Y005810D01*
X014844Y005761D01*
X014651Y005568D01*
X014699Y005519D01*
X014796Y005519D01*
X014844Y005568D01*
X014844Y005761D01*
X014501Y005810D02*
X014356Y005665D01*
X014501Y005519D02*
X014501Y005810D01*
X010907Y005761D02*
X010907Y005568D01*
X010859Y005519D01*
X010762Y005519D01*
X010714Y005568D01*
X010907Y005761D01*
X010859Y005810D01*
X010762Y005810D01*
X010714Y005761D01*
X010714Y005568D01*
X010612Y005568D02*
X010564Y005519D01*
X010467Y005519D01*
X010419Y005568D01*
X010419Y005665D02*
X010516Y005713D01*
X010564Y005713D01*
X010612Y005665D01*
X010612Y005568D01*
X010419Y005665D02*
X010419Y005810D01*
X010612Y005810D01*
X010318Y005810D02*
X010318Y005519D01*
X010124Y005810D01*
X010124Y005519D01*
X010023Y005519D02*
X009926Y005616D01*
X009975Y005616D02*
X009830Y005616D01*
X009830Y005519D02*
X009830Y005810D01*
X009975Y005810D01*
X010023Y005761D01*
X010023Y005665D01*
X009975Y005616D01*
X009332Y005519D02*
X009139Y005519D01*
X009236Y005519D02*
X009236Y005810D01*
X009139Y005713D01*
X009038Y005665D02*
X009038Y005568D01*
X008989Y005519D01*
X008893Y005519D01*
X008844Y005568D01*
X008844Y005665D02*
X008941Y005713D01*
X008989Y005713D01*
X009038Y005665D01*
X009038Y005810D02*
X008844Y005810D01*
X008844Y005665D01*
X008743Y005810D02*
X008743Y005519D01*
X008549Y005810D01*
X008549Y005519D01*
X008448Y005519D02*
X008352Y005616D01*
X008400Y005616D02*
X008255Y005616D01*
X008255Y005519D02*
X008255Y005810D01*
X008400Y005810D01*
X008448Y005761D01*
X008448Y005665D01*
X008400Y005616D01*
X006970Y005568D02*
X006922Y005519D01*
X006825Y005519D01*
X006777Y005568D01*
X006970Y005761D01*
X006970Y005568D01*
X006777Y005568D02*
X006777Y005761D01*
X006825Y005810D01*
X006922Y005810D01*
X006970Y005761D01*
X006675Y005810D02*
X006579Y005761D01*
X006482Y005665D01*
X006627Y005665D01*
X006675Y005616D01*
X006675Y005568D01*
X006627Y005519D01*
X006530Y005519D01*
X006482Y005568D01*
X006482Y005665D01*
X006381Y005810D02*
X006381Y005519D01*
X006187Y005810D01*
X006187Y005519D01*
X006086Y005519D02*
X005989Y005616D01*
X006038Y005616D02*
X005893Y005616D01*
X005893Y005519D02*
X005893Y005810D01*
X006038Y005810D01*
X006086Y005761D01*
X006086Y005665D01*
X006038Y005616D01*
X005395Y005519D02*
X005202Y005519D01*
X005299Y005519D02*
X005299Y005810D01*
X005202Y005713D01*
X005101Y005810D02*
X005004Y005761D01*
X004907Y005665D01*
X005052Y005665D01*
X005101Y005616D01*
X005101Y005568D01*
X005052Y005519D01*
X004956Y005519D01*
X004907Y005568D01*
X004907Y005665D01*
X004806Y005810D02*
X004806Y005519D01*
X004612Y005810D01*
X004612Y005519D01*
X004511Y005519D02*
X004415Y005616D01*
X004463Y005616D02*
X004318Y005616D01*
X004318Y005519D02*
X004318Y005810D01*
X004463Y005810D01*
X004511Y005761D01*
X004511Y005665D01*
X004463Y005616D01*
X004477Y006888D02*
X004477Y007258D01*
X004599Y007073D02*
X004846Y007073D01*
X004784Y006888D02*
X004784Y007258D01*
X004599Y007073D01*
X004477Y006888D02*
X004230Y007258D01*
X004230Y006888D01*
X006441Y007335D02*
X006441Y007625D01*
X006586Y007625D01*
X006635Y007577D01*
X006635Y007480D01*
X006586Y007432D01*
X006441Y007432D01*
X006538Y007432D02*
X006635Y007335D01*
X006736Y007480D02*
X006929Y007480D01*
X007030Y007577D02*
X007079Y007625D01*
X007175Y007625D01*
X007224Y007577D01*
X007030Y007383D01*
X007079Y007335D01*
X007175Y007335D01*
X007224Y007383D01*
X007224Y007577D01*
X007030Y007577D02*
X007030Y007383D01*
X006881Y007335D02*
X006881Y007625D01*
X006736Y007480D01*
X006711Y003189D02*
X006760Y003092D01*
X006856Y002996D01*
X006856Y003141D01*
X006905Y003189D01*
X006953Y003189D01*
X007002Y003141D01*
X007002Y003044D01*
X006953Y002996D01*
X006856Y002996D01*
X006760Y002894D02*
X006711Y002846D01*
X006711Y002749D01*
X006760Y002701D01*
X006953Y002701D01*
X007002Y002749D01*
X007002Y002846D01*
X006953Y002894D01*
X010648Y002846D02*
X010648Y002749D01*
X010697Y002701D01*
X010890Y002701D01*
X010939Y002749D01*
X010939Y002846D01*
X010890Y002894D01*
X010890Y002996D02*
X010939Y003044D01*
X010939Y003141D01*
X010890Y003189D01*
X010793Y003189D01*
X010745Y003141D01*
X010745Y003092D01*
X010793Y002996D01*
X010648Y002996D01*
X010648Y003189D01*
X010697Y002894D02*
X010648Y002846D01*
X014585Y002846D02*
X014585Y002749D01*
X014634Y002701D01*
X014827Y002701D01*
X014876Y002749D01*
X014876Y002846D01*
X014827Y002894D01*
X014731Y002996D02*
X014731Y003189D01*
X014876Y003141D02*
X014585Y003141D01*
X014731Y002996D01*
X014634Y002894D02*
X014585Y002846D01*
X018932Y013347D02*
X018932Y013637D01*
X019028Y013637D02*
X018835Y013637D01*
X019129Y013588D02*
X019178Y013637D01*
X019275Y013637D01*
X019323Y013588D01*
X019323Y013540D01*
X019129Y013347D01*
X019323Y013347D01*
X020410Y013637D02*
X020603Y013637D01*
X020506Y013637D02*
X020506Y013347D01*
X020704Y013347D02*
X020898Y013347D01*
X020801Y013347D02*
X020801Y013637D01*
X020704Y013540D01*
D13*
X037821Y012618D03*
X037881Y012618D03*
X037891Y012618D03*
X037901Y012618D03*
X037911Y012618D03*
X037921Y012618D03*
X037931Y012618D03*
X037941Y012618D03*
X037951Y012618D03*
X037961Y012618D03*
X037971Y012618D03*
X037981Y012618D03*
X037991Y012618D03*
X038001Y012618D03*
X038011Y012618D03*
X038021Y012618D03*
X038031Y012618D03*
X038041Y012618D03*
X038051Y012618D03*
X038061Y012618D03*
X038071Y012618D03*
X038081Y012618D03*
X038091Y012618D03*
X038101Y012618D03*
X038111Y012618D03*
X038121Y012618D03*
X038131Y012618D03*
X038141Y012618D03*
X038151Y012618D03*
X038161Y012618D03*
X038171Y012618D03*
X038181Y012618D03*
X038191Y012618D03*
X038041Y012828D03*
X038021Y012818D03*
X038011Y012818D03*
X037971Y012838D03*
X038121Y012958D03*
X038131Y012968D03*
X038141Y012968D03*
X038181Y012958D03*
X038191Y012948D03*
X037901Y012528D03*
X037911Y012518D03*
X037921Y012508D03*
X037981Y012338D03*
X037991Y012338D03*
X038011Y012348D03*
X038021Y012348D03*
X038031Y012348D03*
X038041Y012348D03*
X038051Y012348D03*
X038061Y012348D03*
X038071Y012348D03*
X038081Y012348D03*
X038091Y012348D03*
X038101Y012348D03*
X038111Y012348D03*
X038121Y012348D03*
X038131Y012348D03*
X038141Y012348D03*
X038151Y012348D03*
X038161Y012348D03*
X038171Y012348D03*
X038181Y012348D03*
X038191Y012348D03*
X038201Y012348D03*
X038211Y012348D03*
X038221Y012348D03*
X038231Y012348D03*
X038231Y012158D03*
X038221Y012158D03*
X038211Y012158D03*
X038201Y012158D03*
X038191Y012158D03*
X038181Y012158D03*
X038171Y012158D03*
X038161Y012158D03*
X038151Y012158D03*
X038141Y012158D03*
X038131Y012158D03*
X038121Y012158D03*
X038111Y012158D03*
X038101Y012158D03*
X038091Y012158D03*
X038081Y012158D03*
X038071Y012158D03*
X038061Y012158D03*
X038051Y012158D03*
X038041Y012158D03*
X038031Y012158D03*
X038021Y012158D03*
X038011Y012158D03*
X038001Y012158D03*
X038031Y012018D03*
X038041Y012018D03*
X038051Y012018D03*
X038061Y012018D03*
X038101Y012018D03*
X038111Y012018D03*
X038121Y012018D03*
X038131Y012018D03*
X038141Y012018D03*
X038151Y012018D03*
X038161Y012018D03*
X038201Y011948D03*
X038191Y011838D03*
X038171Y011828D03*
X038161Y011828D03*
X038151Y011828D03*
X038111Y011858D03*
X037981Y011848D03*
X037981Y011998D03*
X037991Y012008D03*
X037991Y011698D03*
X038001Y011698D03*
X038011Y011698D03*
X038021Y011698D03*
X038031Y011698D03*
X038041Y011698D03*
X038051Y011698D03*
X038061Y011698D03*
X038071Y011698D03*
X038081Y011698D03*
X038091Y011698D03*
X038101Y011698D03*
X038111Y011698D03*
X038121Y011698D03*
X038131Y011698D03*
X038141Y011698D03*
X038151Y011698D03*
X038161Y011698D03*
X038171Y011698D03*
X038181Y011698D03*
X038191Y011698D03*
X038201Y011698D03*
X038211Y011698D03*
X038221Y011698D03*
X038231Y011698D03*
X038241Y011698D03*
X038251Y011698D03*
X038261Y011698D03*
X038271Y011698D03*
X038291Y011688D03*
X037981Y011698D03*
X037971Y011698D03*
X037961Y011698D03*
X037951Y011698D03*
X037941Y011698D03*
X037861Y011698D03*
X037821Y011698D03*
X037981Y011328D03*
X037991Y011328D03*
X038011Y011338D03*
X038021Y011338D03*
X038031Y011338D03*
X038041Y011338D03*
X038051Y011338D03*
X038061Y011338D03*
X038071Y011338D03*
X038081Y011338D03*
X038091Y011338D03*
X038101Y011338D03*
X038111Y011338D03*
X038121Y011338D03*
X038131Y011338D03*
X038141Y011338D03*
X038151Y011338D03*
X038161Y011338D03*
X038171Y011338D03*
X038181Y011338D03*
X038191Y011338D03*
X038201Y011338D03*
X038211Y011338D03*
X038221Y011338D03*
X038231Y011338D03*
X038231Y011158D03*
X038221Y011158D03*
X038211Y011158D03*
X038201Y011158D03*
X038191Y011158D03*
X038181Y011158D03*
X038171Y011158D03*
X038161Y011158D03*
X038151Y011158D03*
X038141Y011158D03*
X038131Y011158D03*
X038121Y011158D03*
X038111Y011158D03*
X038101Y011158D03*
X038091Y011158D03*
X038081Y011158D03*
X038071Y011158D03*
X038061Y011158D03*
X038051Y011158D03*
X038041Y011158D03*
X038031Y011158D03*
X038021Y011158D03*
X038011Y011158D03*
X038011Y010988D03*
X038021Y010988D03*
X038031Y010988D03*
X038041Y010988D03*
X038051Y010988D03*
X038061Y010988D03*
X038071Y010988D03*
X038081Y010988D03*
X038091Y010988D03*
X038101Y010988D03*
X038111Y010988D03*
X038121Y010988D03*
X038131Y010988D03*
X038141Y010988D03*
X038151Y010988D03*
X038161Y010988D03*
X038171Y010988D03*
X038181Y010988D03*
X038191Y010988D03*
X038201Y010988D03*
X038211Y010988D03*
X038221Y010988D03*
X038231Y010988D03*
X038161Y010838D03*
X038171Y010828D03*
X038181Y010818D03*
X038141Y010848D03*
X038131Y010848D03*
X038091Y010858D03*
X038081Y010858D03*
X038071Y010858D03*
X038031Y010848D03*
X038021Y010848D03*
X038001Y010838D03*
X037991Y010828D03*
X037981Y010818D03*
X037981Y010658D03*
X037991Y010648D03*
X038001Y010638D03*
X038021Y010628D03*
X038031Y010628D03*
X038071Y010618D03*
X038081Y010618D03*
X038091Y010618D03*
X038131Y010628D03*
X038141Y010628D03*
X038161Y010638D03*
X038171Y010648D03*
X038181Y010658D03*
X038191Y010518D03*
X038161Y010358D03*
X038141Y010348D03*
X038091Y010338D03*
X038081Y010338D03*
X038071Y010338D03*
X038021Y010348D03*
X038001Y010358D03*
X037991Y010368D03*
X037971Y010518D03*
X038181Y010228D03*
X038221Y010228D03*
X038151Y010108D03*
X038171Y010098D03*
X038181Y010088D03*
X038121Y010118D03*
X038111Y010118D03*
X038101Y010118D03*
X038091Y010118D03*
X038081Y010118D03*
X038071Y010118D03*
X038061Y010118D03*
X038051Y010118D03*
X038041Y010118D03*
X038031Y010118D03*
X038011Y010108D03*
X038001Y010108D03*
X037991Y010098D03*
X038001Y009908D03*
X038011Y009908D03*
X038021Y009908D03*
X038031Y009908D03*
X038041Y009908D03*
X038051Y009908D03*
X038061Y009908D03*
X038071Y009908D03*
X038081Y009908D03*
X038091Y009908D03*
X038101Y009908D03*
X038111Y009908D03*
X038121Y009908D03*
X038131Y009908D03*
X038141Y009908D03*
X038151Y009908D03*
X038161Y009908D03*
X038171Y009908D03*
X038161Y009768D03*
X038151Y009768D03*
X038141Y009768D03*
X038131Y009768D03*
X038121Y009768D03*
X038111Y009768D03*
X038101Y009768D03*
X038091Y009768D03*
X038081Y009768D03*
X038071Y009768D03*
X038061Y009768D03*
X038051Y009768D03*
X038041Y009768D03*
X038031Y009768D03*
X038021Y009768D03*
X038011Y009768D03*
X038001Y009768D03*
X037991Y009768D03*
X037981Y009768D03*
X037971Y009768D03*
X037961Y009768D03*
X037951Y009768D03*
X037941Y009768D03*
X037941Y009908D03*
X037951Y009908D03*
X037961Y009908D03*
X037971Y009908D03*
X037931Y009908D03*
X037921Y009908D03*
X037911Y009908D03*
X037901Y009908D03*
X037891Y009908D03*
X037881Y009908D03*
X037871Y009908D03*
X037861Y009908D03*
X037851Y009908D03*
X037841Y009908D03*
X037831Y009908D03*
X037821Y009908D03*
X037811Y009908D03*
X037801Y009908D03*
X037941Y009568D03*
X037951Y009568D03*
X037961Y009568D03*
X037971Y009568D03*
X037981Y009568D03*
X037991Y009568D03*
X038001Y009568D03*
X038011Y009568D03*
X038021Y009568D03*
X038031Y009568D03*
X038041Y009568D03*
X038051Y009568D03*
X038061Y009568D03*
X038071Y009568D03*
X038081Y009568D03*
X038091Y009568D03*
X038101Y009568D03*
X038111Y009568D03*
X038121Y009568D03*
X038131Y009568D03*
X038141Y009568D03*
X038151Y009568D03*
X038171Y009578D03*
X038181Y009578D03*
X038181Y009428D03*
X038191Y009428D03*
X038201Y009428D03*
X038211Y009428D03*
X038221Y009428D03*
X038231Y009428D03*
X038171Y009428D03*
X038161Y009428D03*
X038151Y009428D03*
X038141Y009428D03*
X038131Y009428D03*
X038121Y009428D03*
X038111Y009428D03*
X038101Y009428D03*
X038091Y009428D03*
X038081Y009428D03*
X038071Y009428D03*
X038061Y009428D03*
X038051Y009428D03*
X038041Y009428D03*
X038031Y009428D03*
X038021Y009428D03*
X038011Y009428D03*
X037991Y009418D03*
X037981Y009418D03*
X037971Y009238D03*
X037961Y009238D03*
X037951Y009238D03*
X037941Y009238D03*
X037931Y009238D03*
X037921Y009238D03*
X037911Y009238D03*
X037901Y009238D03*
X037891Y009238D03*
X037881Y009238D03*
X037871Y009238D03*
X037861Y009238D03*
X037851Y009238D03*
X037841Y009238D03*
X037831Y009238D03*
X037821Y009238D03*
X037811Y009238D03*
X037801Y009238D03*
X038001Y009238D03*
X038011Y009238D03*
X038021Y009238D03*
X038031Y009238D03*
X038041Y009238D03*
X038051Y009238D03*
X038061Y009238D03*
X038071Y009238D03*
X038081Y009238D03*
X038091Y009238D03*
X038101Y009238D03*
X038111Y009238D03*
X038121Y009238D03*
X038131Y009238D03*
X038141Y009238D03*
X038151Y009238D03*
X038161Y009238D03*
X038171Y009238D03*
X038181Y009238D03*
X038191Y009238D03*
X038201Y009238D03*
X038211Y009238D03*
X038221Y009238D03*
X038231Y009238D03*
X038191Y009038D03*
X038161Y009028D03*
X038151Y009028D03*
X038141Y009028D03*
X038131Y009028D03*
X038121Y009028D03*
X038111Y009028D03*
X038101Y009028D03*
X038091Y009028D03*
X038081Y009028D03*
X038071Y009028D03*
X038061Y009028D03*
X038051Y009028D03*
X038041Y009028D03*
X038031Y009028D03*
X038021Y009028D03*
X038011Y009028D03*
X038001Y009028D03*
X037991Y009028D03*
X037981Y009028D03*
X037981Y008858D03*
X037991Y008858D03*
X038001Y008858D03*
X038011Y008858D03*
X038021Y008858D03*
X038031Y008858D03*
X038041Y008858D03*
X038051Y008858D03*
X038061Y008858D03*
X038071Y008858D03*
X038081Y008858D03*
X038091Y008858D03*
X038101Y008858D03*
X038111Y008858D03*
X038121Y008858D03*
X038131Y008858D03*
X038141Y008858D03*
X038151Y008858D03*
X038161Y008858D03*
X038171Y008858D03*
X038181Y008858D03*
X038191Y008858D03*
X038201Y008858D03*
X038211Y008858D03*
X038221Y008858D03*
X038231Y008858D03*
X038231Y008748D03*
X038241Y008748D03*
X038221Y008738D03*
X038291Y008718D03*
X038331Y008628D03*
X038281Y008528D03*
X038161Y008548D03*
X038031Y008538D03*
X038021Y008538D03*
X037971Y008558D03*
X037981Y008708D03*
X037971Y008858D03*
X037961Y008858D03*
X037951Y008858D03*
X037941Y008858D03*
X037861Y008858D03*
X037821Y008858D03*
X037961Y008038D03*
X038001Y008038D03*
X038181Y008038D03*
X038221Y008038D03*
X038181Y007898D03*
X038191Y007888D03*
X038141Y007908D03*
X038131Y007908D03*
X038121Y007898D03*
X038041Y007768D03*
X038021Y007758D03*
X038011Y007758D03*
X037971Y007778D03*
X038011Y007648D03*
X038021Y007648D03*
X037991Y007638D03*
X037981Y007628D03*
X038061Y007658D03*
X038071Y007658D03*
X038081Y007658D03*
X038091Y007658D03*
X038131Y007648D03*
X038141Y007648D03*
X038161Y007638D03*
X038171Y007628D03*
X038171Y007448D03*
X038161Y007448D03*
X038151Y007448D03*
X038141Y007448D03*
X038131Y007448D03*
X038121Y007448D03*
X038111Y007448D03*
X038101Y007448D03*
X038091Y007448D03*
X038081Y007448D03*
X038071Y007448D03*
X038061Y007448D03*
X038051Y007448D03*
X038041Y007448D03*
X038031Y007448D03*
X038021Y007448D03*
X038011Y007448D03*
X038001Y007448D03*
X038201Y007448D03*
X038211Y007448D03*
X038221Y007448D03*
X038231Y007448D03*
X038241Y007448D03*
X038251Y007448D03*
X038261Y007448D03*
X038271Y007448D03*
X038281Y007448D03*
X038291Y007448D03*
X038301Y007448D03*
X038311Y007448D03*
X038321Y007448D03*
X038331Y007448D03*
X038191Y007248D03*
X038161Y007238D03*
X038151Y007238D03*
X038141Y007238D03*
X038131Y007238D03*
X038121Y007238D03*
X038111Y007238D03*
X038101Y007238D03*
X038091Y007238D03*
X038081Y007238D03*
X038071Y007238D03*
X038061Y007238D03*
X038051Y007238D03*
X038041Y007238D03*
X038031Y007238D03*
X038021Y007238D03*
X038011Y007238D03*
X038001Y007238D03*
X037991Y007238D03*
X037981Y007238D03*
X037981Y007008D03*
X037991Y007008D03*
X038001Y007008D03*
X038011Y007008D03*
X038021Y007008D03*
X038031Y007008D03*
X038041Y007008D03*
X038051Y007008D03*
X038061Y007008D03*
X038071Y007008D03*
X038081Y007008D03*
X038091Y007008D03*
X038101Y007008D03*
X038111Y007008D03*
X038121Y007008D03*
X038131Y007008D03*
X038141Y007008D03*
X038151Y007008D03*
X038161Y007008D03*
X038191Y007018D03*
X038191Y006858D03*
X038201Y006858D03*
X038211Y006858D03*
X038221Y006858D03*
X038231Y006858D03*
X038181Y006858D03*
X038171Y006858D03*
X038161Y006858D03*
X038151Y006858D03*
X038141Y006858D03*
X038131Y006858D03*
X038121Y006858D03*
X038111Y006858D03*
X038101Y006858D03*
X038091Y006858D03*
X038081Y006858D03*
X038071Y006858D03*
X038061Y006858D03*
X038051Y006858D03*
X038041Y006858D03*
X038031Y006858D03*
X038021Y006858D03*
X038011Y006858D03*
X037991Y006848D03*
X037981Y006848D03*
X037971Y006668D03*
X037961Y006668D03*
X037951Y006668D03*
X037941Y006668D03*
X037931Y006668D03*
X037921Y006668D03*
X037911Y006668D03*
X037901Y006668D03*
X037891Y006668D03*
X037881Y006668D03*
X037871Y006668D03*
X037861Y006668D03*
X037851Y006668D03*
X037841Y006668D03*
X037831Y006668D03*
X037821Y006668D03*
X037811Y006668D03*
X037801Y006668D03*
X038001Y006668D03*
X038011Y006668D03*
X038021Y006668D03*
X038031Y006668D03*
X038041Y006668D03*
X038051Y006668D03*
X038061Y006668D03*
X038071Y006668D03*
X038081Y006668D03*
X038091Y006668D03*
X038101Y006668D03*
X038111Y006668D03*
X038121Y006668D03*
X038131Y006668D03*
X038141Y006668D03*
X038151Y006668D03*
X038161Y006668D03*
X038171Y006668D03*
X038181Y006668D03*
X038191Y006668D03*
X038201Y006668D03*
X038211Y006668D03*
X038221Y006668D03*
X038231Y006668D03*
X038001Y010988D03*
D14*
X037971Y010983D03*
X037961Y010983D03*
X037951Y010983D03*
X037941Y010983D03*
X037971Y011133D03*
X037981Y011143D03*
X037991Y011143D03*
X037971Y011203D03*
X038001Y011333D03*
X038071Y011503D03*
X038121Y011483D03*
X038171Y011463D03*
X038221Y011443D03*
X038021Y011523D03*
X037991Y011533D03*
X037971Y011543D03*
X037941Y011553D03*
X037921Y011563D03*
X037891Y011573D03*
X037841Y011593D03*
X038281Y011693D03*
X038331Y011633D03*
X038181Y011833D03*
X038141Y011833D03*
X038131Y011833D03*
X038121Y011843D03*
X038191Y012023D03*
X038201Y012023D03*
X038211Y012023D03*
X038221Y012023D03*
X038021Y012013D03*
X038011Y012013D03*
X038001Y012013D03*
X037971Y012153D03*
X037961Y012153D03*
X037951Y012153D03*
X037941Y012153D03*
X038001Y012343D03*
X037811Y012623D03*
X037981Y012823D03*
X037991Y012823D03*
X038001Y012823D03*
X038031Y012823D03*
X038191Y012813D03*
X038171Y012963D03*
X038161Y012963D03*
X038151Y012963D03*
X038121Y010853D03*
X038111Y010853D03*
X038101Y010853D03*
X038061Y010853D03*
X038051Y010853D03*
X038041Y010853D03*
X038011Y010843D03*
X038151Y010843D03*
X038151Y010633D03*
X038121Y010623D03*
X038111Y010623D03*
X038101Y010623D03*
X038061Y010623D03*
X038051Y010623D03*
X038041Y010623D03*
X038011Y010633D03*
X037931Y010453D03*
X038011Y010353D03*
X038031Y010343D03*
X038041Y010343D03*
X038051Y010343D03*
X038061Y010343D03*
X038101Y010343D03*
X038111Y010343D03*
X038121Y010343D03*
X038131Y010343D03*
X038151Y010353D03*
X038171Y010363D03*
X038171Y010223D03*
X038141Y010113D03*
X038131Y010113D03*
X038161Y010103D03*
X038021Y010113D03*
X038201Y009903D03*
X038211Y009903D03*
X038221Y009903D03*
X038221Y009773D03*
X038211Y009773D03*
X038201Y009773D03*
X038191Y009773D03*
X038191Y009713D03*
X038161Y009573D03*
X038001Y009423D03*
X037941Y009033D03*
X037931Y009033D03*
X037921Y009033D03*
X037911Y009033D03*
X037901Y009033D03*
X037891Y009033D03*
X037881Y009033D03*
X037871Y009033D03*
X038171Y009033D03*
X038181Y009033D03*
X038251Y008743D03*
X038261Y008743D03*
X038271Y008743D03*
X038281Y008733D03*
X038081Y008693D03*
X038071Y008703D03*
X038061Y008713D03*
X038051Y008713D03*
X038031Y008723D03*
X038021Y008723D03*
X038001Y008713D03*
X037991Y008713D03*
X037981Y008553D03*
X037991Y008543D03*
X038001Y008543D03*
X038011Y008543D03*
X038041Y008543D03*
X038051Y008543D03*
X038061Y008543D03*
X038071Y008553D03*
X038081Y008563D03*
X038151Y008543D03*
X038221Y008533D03*
X038241Y008523D03*
X038251Y008523D03*
X038261Y008523D03*
X038271Y008523D03*
X038221Y008333D03*
X038171Y008353D03*
X038121Y008373D03*
X038071Y008393D03*
X038021Y008413D03*
X037991Y008423D03*
X037971Y008433D03*
X037941Y008443D03*
X037921Y008453D03*
X037891Y008463D03*
X037841Y008483D03*
X037841Y008303D03*
X037891Y008283D03*
X037921Y008273D03*
X037941Y008263D03*
X037971Y008253D03*
X037991Y008243D03*
X038021Y008233D03*
X038071Y008213D03*
X038121Y008193D03*
X038171Y008173D03*
X038221Y008153D03*
X038171Y007903D03*
X038161Y007903D03*
X038151Y007903D03*
X038191Y007753D03*
X038151Y007643D03*
X038121Y007653D03*
X038111Y007653D03*
X038101Y007653D03*
X038051Y007653D03*
X038041Y007653D03*
X038031Y007653D03*
X038001Y007643D03*
X038001Y007763D03*
X037991Y007763D03*
X037981Y007763D03*
X038031Y007763D03*
X037971Y007443D03*
X037961Y007443D03*
X037951Y007443D03*
X037941Y007443D03*
X037941Y007243D03*
X037931Y007243D03*
X037921Y007243D03*
X037911Y007243D03*
X037901Y007243D03*
X037891Y007243D03*
X037881Y007243D03*
X037871Y007243D03*
X037871Y007013D03*
X037881Y007013D03*
X037891Y007013D03*
X037901Y007013D03*
X037911Y007013D03*
X037921Y007013D03*
X037931Y007013D03*
X037941Y007013D03*
X038001Y006853D03*
X038171Y007013D03*
X038181Y007013D03*
X038181Y007243D03*
X038171Y007243D03*
D15*
X038201Y007288D03*
X038211Y007558D03*
X037951Y007568D03*
X037951Y007838D03*
X038101Y008628D03*
X037961Y008708D03*
X038321Y008628D03*
X038201Y009078D03*
X038211Y009648D03*
X038211Y010018D03*
X037951Y010028D03*
X037961Y011088D03*
X038211Y011898D03*
X037951Y012898D03*
X038201Y007058D03*
D16*
X037981Y006678D03*
X037981Y007458D03*
X038101Y007878D03*
X038201Y008038D03*
X037981Y008038D03*
X037961Y008578D03*
X038211Y008728D03*
X037841Y008858D03*
X037981Y009248D03*
X038201Y010228D03*
X037981Y010998D03*
X038321Y011648D03*
X037841Y011698D03*
X037971Y011858D03*
X038071Y012008D03*
X038181Y012008D03*
X037981Y012168D03*
X037841Y012608D03*
X038101Y012938D03*
D17*
X038091Y011953D03*
X037961Y010453D03*
X037961Y009053D03*
X037971Y009053D03*
X037951Y009053D03*
X038311Y008623D03*
X037971Y007263D03*
X037961Y007263D03*
X037951Y007263D03*
X037951Y007033D03*
X037961Y007033D03*
X037971Y007033D03*
D18*
X038191Y007463D03*
X038201Y007773D03*
X038181Y009753D03*
X038191Y009923D03*
X037981Y009923D03*
X037941Y011093D03*
X038311Y011653D03*
X037851Y012603D03*
X038201Y012833D03*
D19*
X038301Y008628D03*
D20*
X038171Y008578D03*
X038221Y009078D03*
X037941Y009358D03*
X038221Y010018D03*
X038301Y011658D03*
X038101Y011888D03*
X037941Y012278D03*
X038061Y012858D03*
X038091Y012918D03*
X037941Y012898D03*
X038091Y007858D03*
X038061Y007798D03*
X037941Y007838D03*
X037941Y007568D03*
X038221Y007288D03*
X038221Y007058D03*
X037941Y006788D03*
D21*
X037971Y006833D03*
X037991Y006673D03*
X037991Y007453D03*
X037971Y007623D03*
X038051Y007783D03*
X038111Y007893D03*
X038201Y007873D03*
X038211Y008043D03*
X038191Y008043D03*
X037991Y008043D03*
X037971Y008043D03*
X038181Y007623D03*
X038191Y007613D03*
X038181Y007453D03*
X038291Y008543D03*
X037851Y008863D03*
X037831Y008863D03*
X037991Y009243D03*
X037971Y009403D03*
X038191Y009593D03*
X038171Y009763D03*
X038181Y009913D03*
X038191Y010073D03*
X038191Y010223D03*
X038211Y010223D03*
X038181Y010373D03*
X038191Y010383D03*
X037981Y010373D03*
X037971Y010383D03*
X037971Y010663D03*
X037971Y010813D03*
X038191Y010813D03*
X038191Y010663D03*
X037991Y010993D03*
X038001Y011163D03*
X037971Y011313D03*
X037851Y011703D03*
X037831Y011703D03*
X037971Y011993D03*
X037991Y012163D03*
X037971Y012323D03*
X038171Y012013D03*
X038201Y011853D03*
X037891Y012543D03*
X037881Y012553D03*
X037831Y012613D03*
X038051Y012843D03*
X038111Y012953D03*
X038201Y012933D03*
X037981Y010093D03*
X037971Y010083D03*
X037991Y009913D03*
D22*
X038231Y010228D03*
X038171Y010528D03*
X038261Y011418D03*
X037801Y011618D03*
X037871Y011698D03*
X037941Y012508D03*
X037981Y012968D03*
X037871Y008858D03*
X037931Y008628D03*
X037801Y008508D03*
X037801Y008328D03*
X038261Y008308D03*
X038261Y008128D03*
X038231Y008038D03*
X038011Y008038D03*
X037981Y007908D03*
D23*
X037971Y007898D03*
X037931Y007838D03*
X037951Y008038D03*
X038051Y008218D03*
X038061Y008218D03*
X038081Y008208D03*
X038091Y008208D03*
X038101Y008198D03*
X038111Y008198D03*
X038131Y008188D03*
X038141Y008188D03*
X038151Y008178D03*
X038161Y008178D03*
X038181Y008168D03*
X038191Y008168D03*
X038201Y008158D03*
X038211Y008158D03*
X038231Y008148D03*
X038241Y008148D03*
X038251Y008138D03*
X038171Y008038D03*
X038041Y008228D03*
X038031Y008228D03*
X038011Y008238D03*
X038001Y008238D03*
X037981Y008248D03*
X037961Y008258D03*
X037951Y008258D03*
X037931Y008268D03*
X037911Y008278D03*
X037901Y008278D03*
X037881Y008288D03*
X037871Y008288D03*
X037861Y008298D03*
X037851Y008298D03*
X037831Y008308D03*
X037821Y008308D03*
X037811Y008318D03*
X037871Y008468D03*
X037881Y008468D03*
X037901Y008458D03*
X037911Y008458D03*
X037931Y008448D03*
X037951Y008438D03*
X037961Y008438D03*
X037981Y008428D03*
X038001Y008418D03*
X038011Y008418D03*
X038031Y008408D03*
X038041Y008408D03*
X038051Y008398D03*
X038061Y008398D03*
X038081Y008388D03*
X038091Y008388D03*
X038101Y008378D03*
X038111Y008378D03*
X038131Y008368D03*
X038141Y008368D03*
X038151Y008358D03*
X038161Y008358D03*
X038181Y008348D03*
X038191Y008348D03*
X038201Y008338D03*
X038211Y008338D03*
X038231Y008328D03*
X038241Y008328D03*
X038251Y008318D03*
X038231Y008528D03*
X038211Y008548D03*
X038141Y008548D03*
X038131Y008548D03*
X038121Y008558D03*
X038041Y008718D03*
X038011Y008718D03*
X037811Y008858D03*
X037841Y009038D03*
X037851Y009038D03*
X037861Y009038D03*
X037971Y009288D03*
X037931Y009358D03*
X038231Y009638D03*
X038231Y009778D03*
X038231Y009898D03*
X038231Y010018D03*
X037971Y009958D03*
X038231Y010448D03*
X038181Y010528D03*
X038231Y010738D03*
X037931Y010738D03*
X037971Y011028D03*
X037981Y011188D03*
X037931Y011268D03*
X038101Y011488D03*
X038111Y011488D03*
X038131Y011478D03*
X038141Y011478D03*
X038151Y011468D03*
X038161Y011468D03*
X038181Y011458D03*
X038191Y011458D03*
X038201Y011448D03*
X038211Y011448D03*
X038231Y011438D03*
X038241Y011438D03*
X038251Y011428D03*
X038091Y011498D03*
X038081Y011498D03*
X038061Y011508D03*
X038051Y011508D03*
X038041Y011518D03*
X038031Y011518D03*
X038011Y011528D03*
X038001Y011528D03*
X037981Y011538D03*
X037961Y011548D03*
X037951Y011548D03*
X037931Y011558D03*
X037911Y011568D03*
X037901Y011568D03*
X037881Y011578D03*
X037871Y011578D03*
X037861Y011588D03*
X037851Y011588D03*
X037831Y011598D03*
X037821Y011598D03*
X037811Y011608D03*
X037811Y011698D03*
X037931Y011938D03*
X038191Y011968D03*
X038231Y012028D03*
X038231Y011888D03*
X037971Y012208D03*
X037931Y012278D03*
X037931Y012508D03*
X037931Y012898D03*
X037971Y012958D03*
X038231Y009078D03*
X037861Y008478D03*
X037851Y008478D03*
X037831Y008488D03*
X037821Y008488D03*
X037811Y008498D03*
X037931Y007568D03*
X037971Y007498D03*
X038231Y007288D03*
X037861Y007248D03*
X037851Y007248D03*
X037841Y007248D03*
X037841Y007018D03*
X037851Y007018D03*
X037861Y007018D03*
X037931Y006788D03*
X037971Y006718D03*
X038231Y007058D03*
D24*
X038191Y007103D03*
X038191Y007333D03*
X038231Y007553D03*
X038181Y007753D03*
X038231Y007823D03*
X038191Y009123D03*
X037931Y010033D03*
X037981Y010523D03*
X037931Y011093D03*
X037991Y011183D03*
X037931Y011683D03*
X037991Y011843D03*
X038181Y012813D03*
X038231Y012883D03*
D25*
X038231Y012613D03*
X038221Y012613D03*
X038211Y012613D03*
X038201Y012613D03*
X037951Y008663D03*
D26*
X037971Y008723D03*
X038111Y008613D03*
X038071Y007823D03*
X038221Y007823D03*
X038221Y007553D03*
X038221Y009643D03*
X037941Y010033D03*
X037951Y011093D03*
X037941Y011263D03*
X038221Y011893D03*
X037861Y012593D03*
X038071Y012883D03*
X038221Y012883D03*
D27*
X038081Y012898D03*
X037871Y012588D03*
X037941Y011928D03*
X037941Y010738D03*
X038221Y010738D03*
X038221Y010448D03*
X037941Y010448D03*
X037941Y008628D03*
X038081Y007838D03*
D28*
X038211Y007293D03*
X038211Y007063D03*
X037951Y006783D03*
X038211Y009083D03*
X037951Y009353D03*
X037951Y011263D03*
X037951Y012273D03*
D29*
X037961Y012273D03*
X038081Y011973D03*
X037961Y011263D03*
X037951Y010453D03*
X037961Y009353D03*
X038211Y007823D03*
X037961Y006783D03*
X038211Y012883D03*
D30*
X037951Y011928D03*
X037951Y010738D03*
X038211Y010738D03*
X038211Y010448D03*
X038201Y010018D03*
X037961Y010028D03*
X038201Y009648D03*
X038091Y008628D03*
X037961Y007568D03*
X038201Y007558D03*
D31*
X038201Y008653D03*
D32*
X038201Y010448D03*
X037961Y011928D03*
D33*
X037961Y010738D03*
X038201Y010738D03*
X038191Y008648D03*
X038181Y008628D03*
D34*
X037961Y007843D03*
X037961Y012903D03*
D35*
X019987Y006429D03*
X019919Y006429D03*
X019859Y006421D03*
X019687Y006386D03*
X019544Y006274D03*
X019474Y006256D03*
X019822Y006021D03*
X019107Y005864D03*
X018904Y006109D03*
X018322Y005964D03*
X018297Y005954D03*
X018047Y005936D03*
X017707Y006031D03*
X017657Y005301D03*
X017567Y005311D03*
X018137Y005349D03*
X019244Y005561D03*
X017139Y004484D03*
X017134Y004474D03*
X017132Y004469D03*
X017129Y004466D03*
X017129Y004464D03*
X017122Y004464D03*
X017114Y004441D03*
X017114Y004439D03*
X017117Y004436D03*
X017117Y004434D03*
X017107Y004419D03*
X017102Y004419D03*
X017102Y004414D03*
X017094Y004411D03*
X017094Y004404D03*
X017094Y004401D03*
X017089Y004399D03*
X017084Y004394D03*
X017079Y004396D03*
X017079Y004386D03*
X017077Y004384D03*
X017072Y004381D03*
X017079Y004376D03*
X017077Y004371D03*
X017077Y004369D03*
X017084Y004386D03*
X017092Y004391D03*
X017099Y004426D03*
X017039Y004401D03*
X017022Y004409D03*
X017017Y004371D03*
X017042Y004366D03*
X017047Y004366D03*
X017057Y004374D03*
X017062Y004354D03*
X017064Y004351D03*
X017064Y004349D03*
X017057Y004349D03*
X017057Y004341D03*
X017054Y004339D03*
X017057Y004334D03*
X017059Y004336D03*
X017062Y004339D03*
X017059Y004331D03*
X017052Y004326D03*
X017049Y004321D03*
X017039Y004324D03*
X017037Y004321D03*
X017032Y004319D03*
X017032Y004326D03*
X017042Y004329D03*
X017047Y004334D03*
X017044Y004336D03*
X017044Y004344D03*
X017047Y004346D03*
X017039Y004346D03*
X017039Y004344D03*
X017027Y004346D03*
X017024Y004339D03*
X017022Y004314D03*
X017024Y004304D03*
X017024Y004299D03*
X017029Y004304D03*
X017034Y004304D03*
X017037Y004311D03*
X017029Y004291D03*
X017029Y004286D03*
X017029Y004284D03*
X017022Y004286D03*
X017019Y004284D03*
X017022Y004281D03*
X017019Y004276D03*
X017017Y004274D03*
X017012Y004276D03*
X017007Y004274D03*
X017002Y004274D03*
X017009Y004269D03*
X017019Y004266D03*
X017012Y004256D03*
X017004Y004259D03*
X016999Y004256D03*
X016997Y004254D03*
X016997Y004251D03*
X016997Y004246D03*
X016994Y004244D03*
X016997Y004241D03*
X016999Y004239D03*
X016994Y004239D03*
X016994Y004236D03*
X016984Y004236D03*
X016979Y004236D03*
X016979Y004239D03*
X016974Y004239D03*
X016972Y004236D03*
X016967Y004236D03*
X016972Y004244D03*
X016977Y004234D03*
X016979Y004229D03*
X016982Y004226D03*
X016979Y004221D03*
X016977Y004216D03*
X016972Y004216D03*
X016969Y004219D03*
X016969Y004211D03*
X016969Y004209D03*
X016962Y004216D03*
X016962Y004221D03*
X016957Y004221D03*
X016952Y004221D03*
X016952Y004224D03*
X016962Y004226D03*
X016957Y004204D03*
X016964Y004199D03*
X016972Y004194D03*
X016972Y004191D03*
X016974Y004186D03*
X016954Y004181D03*
X016949Y004184D03*
X016947Y004181D03*
X016942Y004186D03*
X016937Y004186D03*
X016932Y004186D03*
X016932Y004184D03*
X016927Y004179D03*
X016929Y004174D03*
X016932Y004171D03*
X016929Y004169D03*
X016932Y004166D03*
X016939Y004159D03*
X016924Y004144D03*
X016919Y004146D03*
X016914Y004149D03*
X016909Y004151D03*
X016907Y004156D03*
X016917Y004156D03*
X016912Y004166D03*
X016917Y004171D03*
X016909Y004176D03*
X016904Y004174D03*
X016899Y004174D03*
X016894Y004174D03*
X016902Y004169D03*
X016897Y004154D03*
X016892Y004156D03*
X016887Y004156D03*
X016887Y004151D03*
X016894Y004141D03*
X016892Y004136D03*
X016887Y004136D03*
X016884Y004131D03*
X016884Y004126D03*
X016889Y004126D03*
X016889Y004116D03*
X016894Y004109D03*
X016887Y004099D03*
X016892Y004094D03*
X016874Y004086D03*
X016867Y004089D03*
X016864Y004084D03*
X016864Y004079D03*
X016862Y004076D03*
X016862Y004074D03*
X016864Y004071D03*
X016867Y004076D03*
X016874Y004076D03*
X016879Y004079D03*
X016867Y004064D03*
X016864Y004061D03*
X016857Y004059D03*
X016857Y004064D03*
X016849Y004064D03*
X016849Y004066D03*
X016844Y004064D03*
X016844Y004061D03*
X016844Y004069D03*
X016854Y004079D03*
X016854Y004084D03*
X016857Y004089D03*
X016842Y004099D03*
X016837Y004099D03*
X016854Y004111D03*
X016859Y004121D03*
X016859Y004124D03*
X016864Y004124D03*
X016869Y004126D03*
X016872Y004129D03*
X016877Y004136D03*
X016879Y004139D03*
X016879Y004119D03*
X016879Y004114D03*
X016877Y004109D03*
X016869Y004104D03*
X016844Y004126D03*
X016854Y004136D03*
X016879Y004161D03*
X016872Y004169D03*
X016879Y004174D03*
X016887Y004184D03*
X016889Y004191D03*
X016897Y004196D03*
X016897Y004199D03*
X016902Y004199D03*
X016902Y004189D03*
X016914Y004191D03*
X016919Y004191D03*
X016919Y004189D03*
X016917Y004184D03*
X016937Y004194D03*
X016939Y004199D03*
X016934Y004201D03*
X016944Y004199D03*
X016937Y004214D03*
X016929Y004216D03*
X016912Y004214D03*
X016907Y004214D03*
X016902Y004211D03*
X016912Y004224D03*
X016922Y004234D03*
X016924Y004241D03*
X016984Y004211D03*
X017004Y004239D03*
X017009Y004241D03*
X017002Y004251D03*
X016994Y004256D03*
X017014Y004284D03*
X016972Y004324D03*
X017042Y004459D03*
X016912Y004136D03*
X016904Y004139D03*
X016899Y004136D03*
X016899Y004131D03*
X016907Y004114D03*
X016872Y004059D03*
X016857Y004054D03*
X016847Y004046D03*
X016847Y004044D03*
X016842Y004046D03*
X016844Y004051D03*
X016834Y004049D03*
X016834Y004039D03*
X016839Y004039D03*
X016839Y004031D03*
X016834Y004031D03*
X016834Y004029D03*
X016837Y004026D03*
X016834Y004024D03*
X016834Y004019D03*
X016837Y004016D03*
X016844Y004016D03*
X016847Y004024D03*
X016847Y004026D03*
X016844Y004029D03*
X016829Y004016D03*
X016827Y004009D03*
X016822Y004011D03*
X016834Y004006D03*
X016809Y004006D03*
X016807Y003999D03*
X016807Y003996D03*
X016807Y003994D03*
X016812Y003991D03*
X016809Y003986D03*
X016804Y003989D03*
X016802Y003991D03*
X016794Y003996D03*
X016789Y003996D03*
X016789Y003994D03*
X016784Y003996D03*
X016784Y003991D03*
X016774Y003989D03*
X016772Y003979D03*
X016772Y003974D03*
X016777Y003974D03*
X016784Y003974D03*
X016784Y003976D03*
X016789Y003976D03*
X016794Y003979D03*
X016802Y003974D03*
X016804Y003976D03*
X016784Y003961D03*
X016782Y003964D03*
X016774Y003964D03*
X016774Y003961D03*
X016772Y003966D03*
X016767Y003966D03*
X016767Y003971D03*
X016767Y003974D03*
X016759Y003961D03*
X016764Y003956D03*
X016767Y003951D03*
X016757Y003944D03*
X016749Y003944D03*
X016749Y003946D03*
X016749Y003949D03*
X016747Y003954D03*
X016747Y003964D03*
X016747Y003966D03*
X016747Y003969D03*
X016747Y003971D03*
X016744Y003974D03*
X016739Y003974D03*
X016732Y003971D03*
X016727Y003964D03*
X016719Y003971D03*
X016712Y003964D03*
X016707Y003964D03*
X016709Y003956D03*
X016709Y003954D03*
X016707Y003951D03*
X016712Y003951D03*
X016717Y003951D03*
X016722Y003946D03*
X016727Y003946D03*
X016727Y003944D03*
X016724Y003941D03*
X016732Y003934D03*
X016729Y003926D03*
X016724Y003924D03*
X016717Y003921D03*
X016717Y003916D03*
X016719Y003914D03*
X016714Y003909D03*
X016712Y003906D03*
X016712Y003904D03*
X016717Y003906D03*
X016717Y003899D03*
X016717Y003896D03*
X016712Y003896D03*
X016709Y003894D03*
X016709Y003891D03*
X016712Y003886D03*
X016704Y003894D03*
X016694Y003896D03*
X016689Y003896D03*
X016684Y003896D03*
X016687Y003891D03*
X016697Y003881D03*
X016697Y003879D03*
X016702Y003876D03*
X016699Y003884D03*
X016692Y003869D03*
X016694Y003861D03*
X016694Y003859D03*
X016692Y003856D03*
X016679Y003851D03*
X016677Y003854D03*
X016677Y003859D03*
X016672Y003859D03*
X016674Y003846D03*
X016674Y003841D03*
X016669Y003841D03*
X016667Y003836D03*
X016664Y003831D03*
X016659Y003831D03*
X016654Y003834D03*
X016649Y003841D03*
X016644Y003816D03*
X016639Y003816D03*
X016634Y003804D03*
X016624Y003804D03*
X016619Y003804D03*
X016622Y003799D03*
X016619Y003796D03*
X016609Y003791D03*
X016599Y003796D03*
X016607Y003804D03*
X016584Y003781D03*
X016579Y003781D03*
X016574Y003781D03*
X016574Y003776D03*
X016572Y003774D03*
X016567Y003771D03*
X016567Y003769D03*
X016569Y003764D03*
X016559Y003766D03*
X016554Y003769D03*
X016557Y003774D03*
X016552Y003776D03*
X016554Y003784D03*
X016562Y003784D03*
X016567Y003781D03*
X016569Y003784D03*
X016547Y003789D03*
X016539Y003791D03*
X016519Y003799D03*
X016512Y003799D03*
X016504Y003789D03*
X016499Y003801D03*
X016489Y003799D03*
X016479Y003789D03*
X016474Y003789D03*
X016464Y003784D03*
X016464Y003781D03*
X016459Y003781D03*
X016447Y003776D03*
X016444Y003774D03*
X016432Y003769D03*
X016467Y003764D03*
X016472Y003769D03*
X016474Y003761D03*
X016474Y003754D03*
X016469Y003754D03*
X016479Y003754D03*
X016484Y003751D03*
X016484Y003749D03*
X016482Y003746D03*
X016479Y003744D03*
X016474Y003741D03*
X016469Y003741D03*
X016467Y003739D03*
X016462Y003734D03*
X016469Y003731D03*
X016474Y003726D03*
X016477Y003729D03*
X016482Y003739D03*
X016487Y003741D03*
X016487Y003744D03*
X016489Y003746D03*
X016492Y003741D03*
X016489Y003739D03*
X016497Y003741D03*
X016502Y003744D03*
X016489Y003751D03*
X016492Y003756D03*
X016492Y003759D03*
X016492Y003761D03*
X016502Y003764D03*
X016504Y003761D03*
X016509Y003761D03*
X016509Y003766D03*
X016514Y003766D03*
X016519Y003766D03*
X016524Y003759D03*
X016527Y003754D03*
X016529Y003756D03*
X016534Y003756D03*
X016534Y003759D03*
X016534Y003761D03*
X016539Y003754D03*
X016544Y003754D03*
X016544Y003751D03*
X016549Y003749D03*
X016549Y003756D03*
X016549Y003759D03*
X016542Y003766D03*
X016542Y003769D03*
X016529Y003769D03*
X016524Y003739D03*
X016502Y003729D03*
X016492Y003724D03*
X016467Y003719D03*
X016462Y003719D03*
X016459Y003721D03*
X016457Y003719D03*
X016454Y003716D03*
X016454Y003714D03*
X016454Y003706D03*
X016444Y003704D03*
X016439Y003704D03*
X016437Y003706D03*
X016434Y003704D03*
X016434Y003701D03*
X016432Y003699D03*
X016429Y003696D03*
X016427Y003694D03*
X016422Y003691D03*
X016422Y003689D03*
X016414Y003691D03*
X016409Y003691D03*
X016407Y003689D03*
X016407Y003686D03*
X016412Y003686D03*
X016409Y003679D03*
X016407Y003674D03*
X016399Y003684D03*
X016399Y003694D03*
X016409Y003699D03*
X016412Y003714D03*
X016424Y003704D03*
X016437Y003699D03*
X016432Y003721D03*
X016434Y003724D03*
X016394Y003671D03*
X016389Y003674D03*
X016387Y003671D03*
X016377Y003669D03*
X016374Y003666D03*
X016367Y003669D03*
X016367Y003671D03*
X016364Y003666D03*
X016362Y003664D03*
X016357Y003666D03*
X016354Y003669D03*
X016359Y003671D03*
X016362Y003676D03*
X016367Y003676D03*
X016374Y003679D03*
X016379Y003681D03*
X016354Y003679D03*
X016349Y003674D03*
X016344Y003664D03*
X016337Y003664D03*
X016337Y003671D03*
X016332Y003674D03*
X016324Y003671D03*
X016322Y003669D03*
X016322Y003664D03*
X016327Y003659D03*
X016329Y003661D03*
X016312Y003664D03*
X016304Y003664D03*
X016299Y003666D03*
X016297Y003661D03*
X016297Y003659D03*
X016292Y003654D03*
X016299Y003649D03*
X016279Y003644D03*
X016274Y003654D03*
X016272Y003656D03*
X016267Y003659D03*
X016262Y003659D03*
X016254Y003664D03*
X016247Y003664D03*
X016242Y003669D03*
X016234Y003669D03*
X016234Y003666D03*
X016232Y003659D03*
X016229Y003656D03*
X016222Y003656D03*
X016217Y003656D03*
X016212Y003656D03*
X016217Y003649D03*
X016214Y003644D03*
X016207Y003644D03*
X016202Y003651D03*
X016199Y003656D03*
X016194Y003654D03*
X016189Y003656D03*
X016189Y003659D03*
X016184Y003649D03*
X016184Y003646D03*
X016179Y003646D03*
X016177Y003644D03*
X016177Y003641D03*
X016174Y003634D03*
X016162Y003649D03*
X016164Y003654D03*
X016167Y003656D03*
X016172Y003654D03*
X016159Y003654D03*
X016154Y003656D03*
X016147Y003649D03*
X016144Y003646D03*
X016139Y003644D03*
X016142Y003634D03*
X016134Y003634D03*
X016134Y003631D03*
X016134Y003629D03*
X016127Y003629D03*
X016127Y003626D03*
X016127Y003624D03*
X016127Y003634D03*
X016127Y003639D03*
X016122Y003646D03*
X016117Y003644D03*
X016112Y003639D03*
X016117Y003636D03*
X016104Y003634D03*
X016099Y003636D03*
X016094Y003644D03*
X016089Y003639D03*
X016089Y003636D03*
X016087Y003641D03*
X016082Y003634D03*
X016074Y003636D03*
X016069Y003636D03*
X016067Y003634D03*
X016074Y003629D03*
X016087Y003624D03*
X016057Y003634D03*
X016052Y003636D03*
X016049Y003634D03*
X016044Y003631D03*
X016042Y003636D03*
X016039Y003639D03*
X016037Y003636D03*
X016037Y003629D03*
X016047Y003639D03*
X016027Y003644D03*
X016022Y003644D03*
X016014Y003641D03*
X016007Y003644D03*
X016002Y003644D03*
X015994Y003649D03*
X015989Y003649D03*
X015982Y003649D03*
X015977Y003651D03*
X015972Y003654D03*
X015974Y003661D03*
X015959Y003664D03*
X015937Y003666D03*
X015937Y003669D03*
X015929Y003674D03*
X015924Y003681D03*
X015917Y003681D03*
X015917Y003679D03*
X015904Y003694D03*
X015907Y003696D03*
X015904Y003699D03*
X015879Y003696D03*
X015994Y003654D03*
X016022Y003634D03*
X016029Y003669D03*
X016119Y003654D03*
X016119Y003651D03*
X016124Y003651D03*
X016124Y003654D03*
X016129Y003654D03*
X016129Y003649D03*
X016154Y003639D03*
X016157Y003644D03*
X016204Y003664D03*
X016209Y003666D03*
X016214Y003666D03*
X016227Y003664D03*
X016234Y003679D03*
X016234Y003681D03*
X016249Y003671D03*
X016269Y003669D03*
X016277Y003664D03*
X016287Y003671D03*
X016292Y003671D03*
X016294Y003669D03*
X016284Y003676D03*
X016312Y003674D03*
X016314Y003681D03*
X016352Y003659D03*
X016354Y003661D03*
X016267Y003646D03*
X016247Y003646D03*
X016247Y003649D03*
X016242Y003651D03*
X016242Y003646D03*
X016239Y003644D03*
X016237Y003646D03*
X016227Y003641D03*
X016239Y003711D03*
X016247Y003714D03*
X016262Y003716D03*
X016204Y003714D03*
X016192Y003714D03*
X016484Y003771D03*
X016532Y003814D03*
X016679Y003874D03*
X016704Y003866D03*
X016722Y003899D03*
X016707Y003906D03*
X016704Y003916D03*
X016712Y003919D03*
X016717Y003929D03*
X016712Y003934D03*
X016704Y003934D03*
X016682Y003939D03*
X016737Y003949D03*
X016742Y003944D03*
X016747Y003936D03*
X016752Y003936D03*
X016744Y003929D03*
X016747Y003924D03*
X016757Y003919D03*
X016737Y003956D03*
X016742Y003966D03*
X016754Y003966D03*
X016754Y003989D03*
X016757Y004006D03*
X016732Y003981D03*
X016727Y003981D03*
X016727Y003979D03*
X016727Y003986D03*
X016797Y004001D03*
X016804Y004014D03*
X016804Y004021D03*
X016807Y004031D03*
X016824Y004029D03*
X016802Y004071D03*
D36*
X016839Y004066D03*
X016842Y004056D03*
X016822Y004026D03*
X016822Y004024D03*
X016822Y004016D03*
X016814Y004031D03*
X016797Y004021D03*
X016764Y004006D03*
X016762Y003999D03*
X016749Y004004D03*
X016739Y003981D03*
X016739Y003971D03*
X016739Y003969D03*
X016734Y003959D03*
X016719Y003964D03*
X016717Y003969D03*
X016754Y003971D03*
X016757Y003964D03*
X016769Y003976D03*
X016772Y003984D03*
X016782Y003984D03*
X016784Y003979D03*
X016777Y003971D03*
X016704Y003931D03*
X016697Y003929D03*
X016697Y003924D03*
X016694Y003916D03*
X016689Y003921D03*
X016684Y003929D03*
X016702Y003904D03*
X016712Y003914D03*
X016694Y003889D03*
X016697Y003886D03*
X016672Y003864D03*
X016659Y003836D03*
X016654Y003824D03*
X016612Y003794D03*
X016599Y003791D03*
X016594Y003784D03*
X016567Y003779D03*
X016567Y003776D03*
X016559Y003771D03*
X016557Y003786D03*
X016524Y003774D03*
X016502Y003771D03*
X016502Y003766D03*
X016492Y003766D03*
X016492Y003771D03*
X016487Y003779D03*
X016477Y003771D03*
X016474Y003784D03*
X016492Y003796D03*
X016527Y003819D03*
X016497Y003749D03*
X016467Y003746D03*
X016462Y003754D03*
X016469Y003736D03*
X016459Y003726D03*
X016439Y003709D03*
X016427Y003706D03*
X016412Y003704D03*
X016412Y003696D03*
X016399Y003691D03*
X016387Y003681D03*
X016389Y003676D03*
X016379Y003676D03*
X016382Y003686D03*
X016367Y003691D03*
X016344Y003671D03*
X016339Y003674D03*
X016324Y003684D03*
X016302Y003684D03*
X016279Y003671D03*
X016267Y003666D03*
X016267Y003664D03*
X016267Y003661D03*
X016257Y003671D03*
X016242Y003679D03*
X016234Y003674D03*
X016222Y003674D03*
X016219Y003659D03*
X016237Y003661D03*
X016234Y003686D03*
X016239Y003714D03*
X016197Y003669D03*
X016174Y003656D03*
X016167Y003644D03*
X016154Y003649D03*
X016152Y003651D03*
X016149Y003659D03*
X016159Y003659D03*
X016122Y003649D03*
X016114Y003646D03*
X016117Y003641D03*
X016107Y003636D03*
X016104Y003649D03*
X016119Y003669D03*
X016082Y003636D03*
X016074Y003626D03*
X016062Y003636D03*
X016014Y003636D03*
X016012Y003639D03*
X016014Y003644D03*
X016009Y003649D03*
X015949Y003661D03*
X015949Y003664D03*
X015937Y003664D03*
X016837Y004111D03*
X016839Y004114D03*
X016847Y004109D03*
X016852Y004124D03*
X016852Y004126D03*
X016854Y004129D03*
X016862Y004126D03*
X016864Y004129D03*
X016864Y004131D03*
X016867Y004136D03*
X016872Y004139D03*
X016872Y004146D03*
X016884Y004141D03*
X016892Y004131D03*
X016889Y004129D03*
X016887Y004161D03*
X016882Y004166D03*
X016879Y004169D03*
X016884Y004171D03*
X016897Y004171D03*
X016902Y004176D03*
X016909Y004171D03*
X016917Y004176D03*
X016934Y004196D03*
X016944Y004194D03*
X016944Y004204D03*
X016949Y004209D03*
X016949Y004211D03*
X016947Y004216D03*
X016952Y004219D03*
X016959Y004224D03*
X016947Y004234D03*
X016937Y004216D03*
X016989Y004241D03*
X016987Y004256D03*
X017012Y004286D03*
X017022Y004291D03*
X017024Y004294D03*
X017032Y004306D03*
X017029Y004311D03*
X017032Y004339D03*
X017037Y004341D03*
X017054Y004344D03*
X017054Y004346D03*
X017054Y004354D03*
X017059Y004364D03*
X017054Y004371D03*
X017047Y004374D03*
X017037Y004361D03*
X017064Y004371D03*
X017064Y004374D03*
X017072Y004376D03*
X017072Y004379D03*
X017079Y004401D03*
X017087Y004404D03*
X017087Y004406D03*
X016997Y004366D03*
X016864Y004101D03*
X016867Y004099D03*
X016174Y005321D03*
X016174Y005324D03*
X016174Y005326D03*
X016179Y005334D03*
X016182Y005341D03*
X017674Y005384D03*
X018047Y005934D03*
X019259Y005561D03*
D37*
X019276Y005561D03*
X019148Y005866D03*
X019841Y005931D03*
X019851Y006024D03*
X019868Y006021D03*
X019741Y006399D03*
X019946Y006431D03*
X019101Y006259D03*
X018988Y006131D03*
X018893Y006219D03*
X018636Y005831D03*
X018566Y005416D03*
X018528Y005401D03*
X018171Y005341D03*
X018136Y005351D03*
X017676Y006034D03*
X016178Y005331D03*
X016176Y005329D03*
X017146Y004501D03*
X017121Y004449D03*
X017111Y004436D03*
X017106Y004426D03*
X017101Y004416D03*
X017098Y004409D03*
X017096Y004406D03*
X017091Y004409D03*
X017088Y004401D03*
X017088Y004389D03*
X017076Y004391D03*
X017073Y004386D03*
X017073Y004374D03*
X017058Y004361D03*
X017053Y004351D03*
X017033Y004344D03*
X017038Y004326D03*
X017028Y004316D03*
X017031Y004314D03*
X017018Y004306D03*
X017013Y004299D03*
X017016Y004296D03*
X017021Y004279D03*
X017011Y004279D03*
X017008Y004264D03*
X017003Y004261D03*
X016991Y004251D03*
X016983Y004244D03*
X016988Y004239D03*
X016983Y004234D03*
X016981Y004231D03*
X016973Y004229D03*
X016973Y004226D03*
X016971Y004224D03*
X016963Y004229D03*
X016953Y004229D03*
X016946Y004221D03*
X016956Y004216D03*
X016958Y004209D03*
X016958Y004206D03*
X016941Y004211D03*
X016938Y004206D03*
X016936Y004204D03*
X016931Y004199D03*
X016928Y004201D03*
X016928Y004189D03*
X016938Y004189D03*
X016926Y004176D03*
X016916Y004186D03*
X016911Y004174D03*
X016898Y004156D03*
X016893Y004151D03*
X016891Y004154D03*
X016886Y004146D03*
X016886Y004139D03*
X016878Y004131D03*
X016871Y004134D03*
X016878Y004121D03*
X016871Y004116D03*
X016856Y004109D03*
X016848Y004106D03*
X016846Y004111D03*
X016846Y004119D03*
X016851Y004099D03*
X016858Y004099D03*
X016866Y004086D03*
X016873Y004089D03*
X016878Y004084D03*
X016873Y004096D03*
X016893Y004101D03*
X016866Y004069D03*
X016843Y004071D03*
X016841Y004049D03*
X016836Y004044D03*
X016833Y004036D03*
X016823Y004031D03*
X016813Y004024D03*
X016811Y004019D03*
X016811Y004016D03*
X016813Y004014D03*
X016813Y004011D03*
X016813Y004009D03*
X016821Y004009D03*
X016816Y004001D03*
X016806Y004001D03*
X016801Y003999D03*
X016791Y004001D03*
X016791Y003991D03*
X016791Y003986D03*
X016793Y003984D03*
X016793Y003971D03*
X016786Y003969D03*
X016776Y003969D03*
X016766Y003961D03*
X016751Y003951D03*
X016748Y003941D03*
X016741Y003941D03*
X016741Y003939D03*
X016741Y003951D03*
X016743Y003959D03*
X016741Y003964D03*
X016736Y003961D03*
X016726Y003961D03*
X016726Y003969D03*
X016726Y003971D03*
X016721Y003974D03*
X016721Y003979D03*
X016716Y003966D03*
X016703Y003956D03*
X016703Y003954D03*
X016701Y003951D03*
X016688Y003941D03*
X016688Y003924D03*
X016698Y003921D03*
X016706Y003921D03*
X016706Y003919D03*
X016706Y003924D03*
X016708Y003926D03*
X016706Y003929D03*
X016716Y003931D03*
X016721Y003934D03*
X016726Y003939D03*
X016716Y003939D03*
X016716Y003924D03*
X016711Y003916D03*
X016713Y003911D03*
X016726Y003919D03*
X016731Y003949D03*
X016756Y003976D03*
X016763Y003979D03*
X016771Y003999D03*
X016798Y004014D03*
X016796Y004019D03*
X016803Y004019D03*
X016803Y004016D03*
X016801Y004029D03*
X016846Y004039D03*
X016853Y004046D03*
X016853Y004049D03*
X016863Y004146D03*
X016871Y004149D03*
X016871Y004156D03*
X016876Y004159D03*
X016881Y004164D03*
X016886Y004174D03*
X016883Y004181D03*
X016898Y004194D03*
X016903Y004196D03*
X016901Y004204D03*
X016911Y004216D03*
X016973Y004241D03*
X016978Y004334D03*
X017008Y004374D03*
X017008Y004389D03*
X017026Y004369D03*
X017046Y004309D03*
X017091Y004431D03*
X016738Y003996D03*
X016676Y003929D03*
X016671Y003926D03*
X016698Y003899D03*
X016703Y003896D03*
X016703Y003889D03*
X016688Y003886D03*
X016693Y003876D03*
X016688Y003874D03*
X016681Y003864D03*
X016671Y003854D03*
X016668Y003856D03*
X016663Y003851D03*
X016666Y003846D03*
X016653Y003826D03*
X016646Y003826D03*
X016633Y003816D03*
X016628Y003809D03*
X016613Y003804D03*
X016613Y003796D03*
X016606Y003796D03*
X016591Y003776D03*
X016566Y003786D03*
X016558Y003781D03*
X016553Y003789D03*
X016548Y003784D03*
X016546Y003786D03*
X016538Y003789D03*
X016536Y003779D03*
X016538Y003776D03*
X016538Y003774D03*
X016536Y003769D03*
X016536Y003766D03*
X016538Y003764D03*
X016528Y003766D03*
X016523Y003784D03*
X016503Y003774D03*
X016493Y003764D03*
X016498Y003756D03*
X016508Y003751D03*
X016511Y003756D03*
X016496Y003744D03*
X016486Y003756D03*
X016483Y003766D03*
X016478Y003779D03*
X016456Y003776D03*
X016461Y003764D03*
X016476Y003746D03*
X016461Y003729D03*
X016461Y003724D03*
X016448Y003719D03*
X016438Y003719D03*
X016426Y003721D03*
X016428Y003709D03*
X016428Y003701D03*
X016418Y003694D03*
X016416Y003681D03*
X016401Y003681D03*
X016396Y003679D03*
X016388Y003679D03*
X016381Y003679D03*
X016381Y003674D03*
X016391Y003686D03*
X016393Y003694D03*
X016386Y003694D03*
X016401Y003689D03*
X016403Y003699D03*
X016443Y003701D03*
X016448Y003699D03*
X016448Y003706D03*
X016451Y003709D03*
X016361Y003674D03*
X016356Y003676D03*
X016353Y003671D03*
X016346Y003666D03*
X016338Y003666D03*
X016336Y003669D03*
X016331Y003671D03*
X016331Y003664D03*
X016336Y003661D03*
X016318Y003666D03*
X016318Y003671D03*
X016313Y003669D03*
X016308Y003671D03*
X016306Y003674D03*
X016301Y003671D03*
X016301Y003669D03*
X016296Y003664D03*
X016291Y003666D03*
X016288Y003659D03*
X016303Y003661D03*
X016308Y003666D03*
X016316Y003684D03*
X016333Y003691D03*
X016288Y003679D03*
X016266Y003671D03*
X016248Y003659D03*
X016231Y003651D03*
X016216Y003651D03*
X016216Y003654D03*
X016211Y003659D03*
X016211Y003664D03*
X016206Y003669D03*
X016198Y003664D03*
X016201Y003659D03*
X016191Y003664D03*
X016196Y003671D03*
X016178Y003654D03*
X016181Y003651D03*
X016173Y003651D03*
X016161Y003656D03*
X016148Y003654D03*
X016136Y003649D03*
X016133Y003646D03*
X016133Y003644D03*
X016136Y003636D03*
X016128Y003656D03*
X016113Y003651D03*
X016113Y003649D03*
X016108Y003644D03*
X016108Y003641D03*
X016101Y003639D03*
X016101Y003644D03*
X016063Y003639D03*
X016056Y003639D03*
X016046Y003649D03*
X016038Y003641D03*
X016033Y003639D03*
X016026Y003636D03*
X016023Y003641D03*
X016021Y003649D03*
X016001Y003649D03*
X016001Y003646D03*
X015988Y003654D03*
X015986Y003659D03*
X015993Y003659D03*
X015978Y003656D03*
X015971Y003656D03*
X015966Y003659D03*
X015968Y003661D03*
X015961Y003661D03*
X015948Y003666D03*
X015943Y003669D03*
X015926Y003684D03*
X015911Y003681D03*
X015846Y003721D03*
X016041Y003634D03*
X016161Y003639D03*
X016546Y003776D03*
X016556Y003796D03*
D38*
X016551Y003791D03*
X016528Y003791D03*
X016516Y003769D03*
X016473Y003774D03*
X016466Y003779D03*
X016456Y003774D03*
X016446Y003769D03*
X016446Y003724D03*
X016321Y003679D03*
X016301Y003679D03*
X016218Y003676D03*
X016218Y003669D03*
X016168Y003646D03*
X016166Y003641D03*
X016136Y003651D03*
X016081Y003644D03*
X016078Y003639D03*
X016033Y003649D03*
X016008Y003651D03*
X015916Y003691D03*
X015816Y003754D03*
X016596Y003801D03*
X016608Y003799D03*
X016693Y003906D03*
X016693Y003911D03*
X016696Y003926D03*
X016728Y003951D03*
X016721Y003959D03*
X016778Y003986D03*
X016778Y004006D03*
X016831Y004046D03*
X016858Y004134D03*
X016913Y004211D03*
X016926Y004214D03*
X016933Y004234D03*
X016983Y004254D03*
X017041Y004351D03*
X017033Y004356D03*
X017043Y004364D03*
X017063Y004366D03*
X017063Y004391D03*
X017073Y004404D03*
X017103Y004431D03*
X016193Y005271D03*
X016193Y005274D03*
X016196Y005279D03*
X016198Y005281D03*
X016188Y005269D03*
X016213Y005301D03*
X018633Y005829D03*
D39*
X016208Y005294D03*
X016176Y005259D03*
X016171Y005251D03*
X016168Y005249D03*
X017026Y004401D03*
X017016Y004386D03*
X017031Y004371D03*
X017056Y004379D03*
X016993Y004264D03*
X016938Y004244D03*
X016916Y004204D03*
X016916Y004199D03*
X016918Y004196D03*
X016901Y004184D03*
X016856Y004114D03*
X016818Y004036D03*
X016783Y004014D03*
X016768Y004019D03*
X016761Y004014D03*
X016756Y003981D03*
X016723Y003956D03*
X016686Y003934D03*
X016673Y003924D03*
X016673Y003921D03*
X016568Y003789D03*
X016478Y003781D03*
X016461Y003771D03*
X016408Y003706D03*
X016383Y003691D03*
X016341Y003679D03*
X016218Y003686D03*
X016206Y003674D03*
X016213Y003661D03*
X016061Y003644D03*
X016061Y003641D03*
X016011Y003654D03*
X015893Y003696D03*
X015891Y003694D03*
D40*
X015908Y003684D03*
X015968Y003664D03*
X015976Y003659D03*
X016013Y003646D03*
X016078Y003641D03*
X016103Y003651D03*
X016138Y003654D03*
X016173Y003649D03*
X016201Y003666D03*
X016206Y003671D03*
X016218Y003671D03*
X016213Y003681D03*
X016226Y003681D03*
X016233Y003676D03*
X016243Y003666D03*
X016253Y003669D03*
X016256Y003666D03*
X016226Y003654D03*
X016201Y003684D03*
X016321Y003674D03*
X016346Y003669D03*
X016363Y003679D03*
X016366Y003681D03*
X016371Y003674D03*
X016376Y003671D03*
X016376Y003694D03*
X016403Y003701D03*
X016408Y003694D03*
X016423Y003719D03*
X016443Y003771D03*
X016483Y003761D03*
X016513Y003774D03*
X016538Y003784D03*
X016543Y003781D03*
X016578Y003779D03*
X016578Y003771D03*
X016578Y003799D03*
X016611Y003801D03*
X016678Y003856D03*
X016696Y003891D03*
X016696Y003894D03*
X016696Y003919D03*
X016681Y003926D03*
X016706Y003959D03*
X016721Y003949D03*
X016731Y003974D03*
X016753Y003974D03*
X016748Y004006D03*
X016786Y004019D03*
X016786Y004021D03*
X016793Y004006D03*
X016801Y004004D03*
X016816Y004021D03*
X016828Y004021D03*
X016828Y004099D03*
X016836Y004104D03*
X016836Y004109D03*
X016848Y004116D03*
X016846Y004121D03*
X016861Y004116D03*
X016863Y004111D03*
X016866Y004109D03*
X016868Y004121D03*
X016861Y004139D03*
X016871Y004151D03*
X016883Y004149D03*
X016893Y004164D03*
X016891Y004169D03*
X016906Y004179D03*
X016911Y004189D03*
X016918Y004179D03*
X016921Y004174D03*
X016911Y004169D03*
X016893Y004189D03*
X016921Y004216D03*
X016931Y004211D03*
X016938Y004209D03*
X016948Y004206D03*
X016956Y004236D03*
X016963Y004234D03*
X016946Y004271D03*
X017001Y004289D03*
X017013Y004289D03*
X017013Y004294D03*
X017018Y004351D03*
X017031Y004349D03*
X017046Y004349D03*
X017048Y004361D03*
X017036Y004369D03*
X017006Y004371D03*
X017001Y004369D03*
X017076Y004406D03*
X017086Y004411D03*
X016506Y003804D03*
X015813Y003756D03*
X018511Y005401D03*
X018018Y005939D03*
D41*
X017744Y005899D03*
X016209Y005299D03*
X016209Y005296D03*
X016199Y005289D03*
X016199Y005286D03*
X016199Y005284D03*
X016194Y005276D03*
X016182Y005261D03*
X017104Y004434D03*
X017064Y004369D03*
X016959Y004244D03*
X016967Y004231D03*
X016902Y004191D03*
X016889Y004179D03*
X016887Y004176D03*
X016897Y004166D03*
X016867Y004141D03*
X016852Y004104D03*
X016844Y004089D03*
X016842Y004084D03*
X016822Y004084D03*
X016827Y004034D03*
X016807Y004034D03*
X016784Y003999D03*
X016787Y003981D03*
X016747Y003999D03*
X016744Y003994D03*
X016729Y003966D03*
X016724Y003936D03*
X016684Y003881D03*
X016532Y003786D03*
X016519Y003776D03*
X016517Y003771D03*
X016492Y003789D03*
X016479Y003764D03*
X016444Y003721D03*
X016357Y003689D03*
X016299Y003681D03*
X016299Y003676D03*
X016247Y003681D03*
X016142Y003656D03*
X016039Y003644D03*
X016039Y003674D03*
X015962Y003666D03*
X015907Y003686D03*
X015897Y003691D03*
X019847Y006021D03*
X019889Y006424D03*
X019982Y006431D03*
D42*
X018017Y005929D03*
X017742Y005916D03*
X018164Y005354D03*
X017039Y004384D03*
X016589Y003809D03*
X016157Y003671D03*
X016054Y003646D03*
X016592Y007176D03*
D43*
X017747Y005896D03*
X018167Y005344D03*
X017104Y004421D03*
X017037Y004379D03*
X017014Y004369D03*
X017027Y004336D03*
X017022Y004309D03*
X017004Y004281D03*
X016984Y004246D03*
X016959Y004271D03*
X016939Y004219D03*
X016952Y004214D03*
X016944Y004201D03*
X016932Y004191D03*
X016902Y004161D03*
X016877Y004154D03*
X016889Y004134D03*
X016852Y004131D03*
X016859Y004106D03*
X016837Y004106D03*
X016827Y004089D03*
X016829Y004069D03*
X016814Y004029D03*
X016809Y004026D03*
X016802Y004024D03*
X016787Y004016D03*
X016779Y004001D03*
X016784Y003989D03*
X016764Y003989D03*
X016734Y003954D03*
X016719Y003954D03*
X016714Y003961D03*
X016657Y003914D03*
X016687Y003879D03*
X016659Y003841D03*
X016644Y003819D03*
X016592Y003799D03*
X016587Y003791D03*
X016579Y003784D03*
X016572Y003791D03*
X016554Y003779D03*
X016527Y003806D03*
X016522Y003814D03*
X016512Y003806D03*
X016502Y003799D03*
X016499Y003776D03*
X016499Y003769D03*
X016502Y003759D03*
X016489Y003774D03*
X016482Y003769D03*
X016479Y003759D03*
X016462Y003769D03*
X016339Y003689D03*
X016292Y003674D03*
X016284Y003669D03*
X016232Y003671D03*
X016194Y003681D03*
X016177Y003659D03*
X016134Y003659D03*
X016102Y003646D03*
X016229Y003711D03*
X015894Y003699D03*
X015879Y003699D03*
X016824Y004019D03*
X017054Y004356D03*
X016187Y005264D03*
X016187Y005266D03*
X016202Y005291D03*
X016182Y005336D03*
X016182Y005339D03*
D44*
X016158Y005311D03*
X016156Y005309D03*
X016156Y005306D03*
X016128Y005269D03*
X017673Y006031D03*
X018171Y005349D03*
X017031Y004391D03*
X017006Y004344D03*
X016971Y004281D03*
X016953Y004246D03*
X016948Y004239D03*
X016838Y004086D03*
X016831Y004074D03*
X016816Y004061D03*
X016408Y003749D03*
X016073Y003649D03*
X016588Y007181D03*
D45*
X018014Y005921D03*
X018629Y005819D03*
X018512Y005411D03*
X019249Y005569D03*
X019127Y005854D03*
X019849Y006014D03*
X017084Y004466D03*
X017084Y004461D03*
X016079Y003666D03*
X016057Y003651D03*
X015987Y003669D03*
D46*
X016041Y003654D03*
X016266Y003679D03*
X016273Y003681D03*
X016346Y003684D03*
X016466Y003751D03*
X016586Y003786D03*
X016591Y003794D03*
X016666Y003911D03*
X016671Y003916D03*
X016673Y003919D03*
X016746Y003986D03*
X016756Y004001D03*
X016771Y003994D03*
X016788Y004036D03*
X016918Y004194D03*
X016971Y004291D03*
X017058Y004401D03*
D47*
X017069Y004399D03*
X017082Y004414D03*
X016939Y004231D03*
X016924Y004221D03*
X016842Y004101D03*
X016822Y004071D03*
X016779Y004029D03*
X016744Y003984D03*
X016682Y003914D03*
X016439Y003764D03*
X016432Y003714D03*
X016267Y003674D03*
X016264Y003676D03*
X016074Y003654D03*
X015884Y003701D03*
X018174Y005346D03*
X018632Y005826D03*
D48*
X019144Y005864D03*
X017744Y005901D03*
X016174Y005256D03*
X016172Y005254D03*
X017069Y004394D03*
X017054Y004376D03*
X017002Y004306D03*
X017004Y004291D03*
X016994Y004279D03*
X016919Y004219D03*
X016897Y004186D03*
X016894Y004159D03*
X016862Y004119D03*
X016809Y004069D03*
X016767Y004021D03*
X016739Y003989D03*
X016702Y003949D03*
X016699Y003939D03*
X016629Y003884D03*
X016659Y003839D03*
X016509Y003796D03*
X016392Y003704D03*
X016349Y003691D03*
X016324Y003686D03*
X016197Y003676D03*
X016104Y003654D03*
X016594Y007184D03*
D49*
X016594Y007166D03*
X016784Y007004D03*
X016787Y007001D03*
X016792Y006996D03*
X016794Y006994D03*
X016797Y006991D03*
X016802Y006986D03*
X016807Y006981D03*
X016809Y006976D03*
X017589Y005931D03*
X018014Y005724D03*
X018014Y005721D03*
X018014Y005719D03*
X018014Y005716D03*
X018014Y005714D03*
X017899Y005469D03*
X017897Y005464D03*
X017894Y005461D03*
X018122Y005406D03*
X018124Y005404D03*
X018127Y005401D03*
X018134Y005391D03*
X018414Y005539D03*
X018412Y005544D03*
X018412Y005546D03*
X018404Y005561D03*
X018404Y005564D03*
X018404Y005566D03*
X018627Y005786D03*
X018329Y005896D03*
X018329Y005899D03*
X018324Y005919D03*
X018324Y005921D03*
X018324Y005924D03*
X018324Y005926D03*
X018324Y005929D03*
X019114Y005714D03*
X019122Y005699D03*
X019124Y005694D03*
X019124Y005691D03*
X019244Y005576D03*
X019827Y005994D03*
X020052Y005524D03*
X020052Y005521D03*
X020054Y005519D03*
X020054Y005516D03*
X020059Y005466D03*
X016329Y003701D03*
X016304Y003694D03*
X016062Y003659D03*
X016059Y003656D03*
X015787Y003886D03*
X015787Y003889D03*
X015784Y003891D03*
X015784Y003894D03*
X015782Y003899D03*
X015779Y003904D03*
X015777Y003909D03*
X015769Y003924D03*
X015769Y003926D03*
D50*
X015811Y003846D03*
X015811Y003844D03*
X015813Y003839D03*
X016048Y003661D03*
X016383Y003726D03*
X017521Y005404D03*
X017836Y005409D03*
X017843Y005411D03*
X017856Y005424D03*
X018013Y005669D03*
X018013Y005671D03*
X018013Y005674D03*
X018013Y005676D03*
X018013Y005679D03*
X018013Y005681D03*
X018013Y005684D03*
X018433Y005514D03*
X018718Y005539D03*
X018721Y005534D03*
X018731Y005519D03*
X018733Y005516D03*
X018736Y005514D03*
X019143Y005666D03*
X019238Y005581D03*
X018628Y005761D03*
X018908Y006131D03*
X020038Y005544D03*
X020043Y005451D03*
X020031Y005431D03*
X016751Y007039D03*
X016748Y007041D03*
X016598Y007161D03*
D51*
X018013Y005936D03*
X017091Y004424D03*
X017018Y004381D03*
X017016Y004379D03*
X016998Y004351D03*
X016976Y004306D03*
X016996Y004276D03*
X016951Y004269D03*
X016936Y004236D03*
X016878Y004144D03*
X016783Y004034D03*
X016766Y004016D03*
X016743Y003979D03*
X016706Y003941D03*
X016701Y003946D03*
X016536Y003796D03*
X016521Y003789D03*
X016473Y003776D03*
X016381Y003689D03*
X016173Y003664D03*
X016138Y003666D03*
X016133Y003661D03*
D52*
X016169Y003661D03*
X016424Y003716D03*
X016434Y003729D03*
X016512Y003781D03*
X016524Y003801D03*
X016772Y004011D03*
X016817Y004064D03*
X016829Y004079D03*
X016829Y004081D03*
X016959Y004264D03*
X016989Y004271D03*
X016997Y004336D03*
X016999Y004339D03*
X017042Y004414D03*
X016127Y005266D03*
X016139Y005281D03*
X016139Y005284D03*
X016139Y005286D03*
X016159Y005314D03*
X020037Y005406D03*
D53*
X018512Y005406D03*
X017002Y004324D03*
X016994Y004316D03*
X016809Y004051D03*
X016804Y004044D03*
X016774Y004009D03*
X016422Y003751D03*
X016004Y003664D03*
X016152Y005301D03*
D54*
X017279Y005221D03*
X017279Y005219D03*
X017279Y005206D03*
X017277Y005189D03*
X017277Y005186D03*
X017274Y005151D03*
X017274Y005149D03*
X017274Y005146D03*
X017274Y005144D03*
X017267Y005104D03*
X017267Y005101D03*
X017267Y005099D03*
X017267Y005096D03*
X017267Y005094D03*
X017267Y005091D03*
X017267Y005089D03*
X017264Y005066D03*
X017264Y005064D03*
X017264Y005061D03*
X017262Y005059D03*
X017262Y005049D03*
X017262Y005046D03*
X017262Y005044D03*
X017262Y005041D03*
X017262Y005039D03*
X017262Y005036D03*
X017262Y005034D03*
X017252Y004989D03*
X017252Y004986D03*
X017252Y004984D03*
X017249Y004976D03*
X017249Y004974D03*
X017249Y004971D03*
X017247Y004969D03*
X017249Y004961D03*
X017244Y004936D03*
X017242Y004934D03*
X017242Y004931D03*
X017242Y004929D03*
X017237Y004911D03*
X017237Y004909D03*
X017237Y004906D03*
X017237Y004904D03*
X017237Y004901D03*
X017229Y004871D03*
X017224Y004859D03*
X017224Y004849D03*
X017224Y004846D03*
X017222Y004841D03*
X017217Y004819D03*
X017214Y004816D03*
X017214Y004814D03*
X017214Y004811D03*
X017214Y004809D03*
X017212Y004806D03*
X017212Y004804D03*
X017209Y004799D03*
X017209Y004796D03*
X017209Y004794D03*
X017209Y004791D03*
X017209Y004789D03*
X017207Y004784D03*
X017204Y004781D03*
X017204Y004779D03*
X017204Y004776D03*
X017204Y004774D03*
X017204Y004771D03*
X017199Y004764D03*
X017199Y004761D03*
X017197Y004756D03*
X017197Y004754D03*
X017197Y004751D03*
X017197Y004749D03*
X017197Y004746D03*
X017189Y004726D03*
X017189Y004724D03*
X017189Y004721D03*
X017189Y004719D03*
X017182Y004706D03*
X017182Y004704D03*
X017177Y004689D03*
X017177Y004686D03*
X017174Y004679D03*
X017172Y004674D03*
X017169Y004669D03*
X017169Y004666D03*
X017169Y004664D03*
X017169Y004661D03*
X017162Y004649D03*
X017159Y004639D03*
X017159Y004636D03*
X017154Y004621D03*
X017149Y004614D03*
X017147Y004609D03*
X017144Y004601D03*
X017144Y004599D03*
X017144Y004596D03*
X017144Y004594D03*
X017132Y004566D03*
X017129Y004564D03*
X017127Y004556D03*
X017127Y004554D03*
X017117Y004529D03*
X017107Y004506D03*
X017104Y004504D03*
X017102Y004499D03*
X017102Y004496D03*
X017099Y004494D03*
X017097Y004489D03*
X017092Y004479D03*
X017087Y004471D03*
X016622Y003854D03*
X016602Y003841D03*
X016599Y003839D03*
X016252Y003684D03*
X016077Y003671D03*
X016077Y003664D03*
X017282Y005241D03*
X017284Y005246D03*
X017284Y005249D03*
X017284Y005251D03*
X017284Y005254D03*
X017284Y005256D03*
X017284Y005259D03*
X017284Y005261D03*
X017284Y005266D03*
X017284Y005269D03*
X017284Y005274D03*
X017284Y005276D03*
X017284Y005279D03*
X017284Y005296D03*
X017284Y005299D03*
X017284Y005301D03*
X017284Y005304D03*
X017287Y005319D03*
X017287Y005321D03*
X017287Y005331D03*
X017287Y005334D03*
X017287Y005336D03*
X017287Y005339D03*
X017287Y005349D03*
X017287Y005351D03*
X017287Y005354D03*
X017287Y005369D03*
X017289Y005394D03*
X017289Y005396D03*
X017289Y005399D03*
X017287Y005404D03*
X017287Y005406D03*
X017287Y005409D03*
X017289Y005414D03*
X017289Y005416D03*
X017289Y005419D03*
X017289Y005421D03*
X017289Y005424D03*
X017289Y005426D03*
X017289Y005429D03*
X017289Y005431D03*
X017289Y005434D03*
X017289Y005436D03*
X017289Y005439D03*
X017289Y005451D03*
X017289Y005454D03*
X017289Y005456D03*
X017289Y005459D03*
X017289Y005461D03*
X017289Y005464D03*
X017289Y005466D03*
X017289Y005484D03*
X017289Y005486D03*
X017289Y005496D03*
X017289Y005499D03*
X017289Y005501D03*
X017284Y005514D03*
X017284Y005516D03*
X017287Y005519D03*
X017287Y005524D03*
X017287Y005526D03*
X017287Y005529D03*
X017287Y005531D03*
X017287Y005534D03*
X017287Y005536D03*
X017287Y005539D03*
X017287Y005541D03*
X017287Y005546D03*
X017287Y005549D03*
X017287Y005551D03*
X017287Y005554D03*
X017287Y005556D03*
X017287Y005559D03*
X017287Y005561D03*
X017287Y005564D03*
X017284Y005576D03*
X017284Y005579D03*
X017284Y005581D03*
X017284Y005596D03*
X017282Y005604D03*
X017284Y005626D03*
X017284Y005629D03*
X017284Y005631D03*
X017284Y005634D03*
X017284Y005636D03*
X017282Y005661D03*
X017279Y005669D03*
X017279Y005679D03*
X017279Y005691D03*
X017279Y005694D03*
X017279Y005696D03*
X017277Y005709D03*
X017277Y005711D03*
X017277Y005714D03*
X017277Y005716D03*
X017277Y005719D03*
X017274Y005724D03*
X017274Y005726D03*
X017274Y005741D03*
X017274Y005744D03*
X017274Y005746D03*
X017274Y005749D03*
X017274Y005751D03*
X017269Y005794D03*
X017269Y005796D03*
X017267Y005801D03*
X017267Y005804D03*
X017267Y005806D03*
X017267Y005819D03*
X017267Y005821D03*
X017259Y005864D03*
X017259Y005866D03*
X017259Y005869D03*
X017257Y005886D03*
X017257Y005889D03*
X017254Y005904D03*
X017254Y005906D03*
X017254Y005909D03*
X017254Y005911D03*
X017254Y005914D03*
X017252Y005919D03*
X017252Y005921D03*
X017252Y005924D03*
X017252Y005926D03*
X017252Y005929D03*
X017249Y005934D03*
X017249Y005936D03*
X017247Y005951D03*
X017247Y005954D03*
X017247Y005956D03*
X017244Y005969D03*
X017242Y005984D03*
X017239Y005991D03*
X017237Y006004D03*
X017237Y006006D03*
X017234Y006021D03*
X017232Y006044D03*
X017229Y006051D03*
X017229Y006054D03*
X017229Y006056D03*
X017227Y006066D03*
X017224Y006074D03*
X017224Y006076D03*
X017224Y006079D03*
X017219Y006096D03*
X017202Y006171D03*
X017194Y006201D03*
X017192Y006209D03*
X017167Y006291D03*
X017164Y006301D03*
X017164Y006304D03*
X017164Y006306D03*
X017157Y006326D03*
X017679Y006024D03*
X018329Y005949D03*
X019124Y005849D03*
X019124Y005846D03*
D55*
X018338Y005961D03*
X018016Y005934D03*
X019961Y006429D03*
X017051Y004381D03*
X017021Y004366D03*
X016963Y004279D03*
X016953Y004254D03*
X016916Y004206D03*
X016776Y004024D03*
X016773Y004004D03*
X016696Y003936D03*
X016578Y003796D03*
X016511Y003779D03*
X016328Y003676D03*
X016203Y003711D03*
X016141Y003664D03*
D56*
X016008Y003666D03*
X016428Y003754D03*
X016656Y003891D03*
X016658Y003894D03*
X016666Y003904D03*
X016801Y004039D03*
X016851Y004091D03*
X016848Y004094D03*
X016958Y004251D03*
X016968Y004274D03*
X016978Y004286D03*
X016983Y004296D03*
X016996Y004319D03*
X016118Y005254D03*
X017748Y005909D03*
X018023Y005931D03*
X018338Y005959D03*
X019933Y006424D03*
D57*
X018513Y005404D03*
X017048Y004386D03*
X017021Y004376D03*
X017013Y004364D03*
X017011Y004361D03*
X017003Y004349D03*
X016986Y004269D03*
X016948Y004241D03*
X016781Y004026D03*
X016553Y003794D03*
X016533Y003809D03*
X016453Y003749D03*
X016173Y003666D03*
X016138Y005279D03*
X016141Y005289D03*
X016143Y005291D03*
X016146Y005296D03*
X016146Y005299D03*
D58*
X017256Y005001D03*
X017216Y004829D03*
X017216Y004826D03*
X017113Y004521D03*
X017111Y004519D03*
X017101Y004501D03*
X017081Y004451D03*
X017076Y004444D03*
X017071Y004439D03*
X016073Y003669D03*
X018871Y005384D03*
X017736Y005919D03*
X017286Y005481D03*
X017283Y005479D03*
X017283Y005476D03*
X017283Y005474D03*
X018893Y006119D03*
D59*
X018888Y006114D03*
X018338Y005954D03*
X017678Y006029D03*
X019853Y006019D03*
X017061Y004426D03*
X017043Y004396D03*
X017046Y004389D03*
X016668Y003901D03*
X016651Y003886D03*
X016641Y003879D03*
X016438Y003756D03*
X016158Y003669D03*
D60*
X015986Y003671D03*
X015983Y003674D03*
X016558Y003804D03*
X017096Y004486D03*
X017098Y004491D03*
X017146Y004604D03*
X017146Y004606D03*
X017148Y004611D03*
X017161Y004641D03*
X017161Y004644D03*
X017161Y004646D03*
X017171Y004671D03*
X017173Y004676D03*
X017176Y004681D03*
X017176Y004684D03*
X017178Y004691D03*
X017178Y004694D03*
X017181Y004701D03*
X017198Y004759D03*
X017201Y004766D03*
X017223Y004844D03*
X017268Y005106D03*
X017268Y005109D03*
X017268Y005111D03*
X017271Y005119D03*
X017271Y005121D03*
X017271Y005124D03*
X017271Y005129D03*
X017271Y005131D03*
X017271Y005134D03*
X017271Y005136D03*
X017273Y005141D03*
X017273Y005166D03*
X017273Y005169D03*
X017273Y005171D03*
X017276Y005179D03*
X017276Y005181D03*
X017276Y005184D03*
X017281Y005224D03*
X017281Y005226D03*
X017281Y005229D03*
X017281Y005231D03*
X017281Y005234D03*
X017281Y005236D03*
X017281Y005239D03*
X017286Y005264D03*
X017283Y005271D03*
X017283Y005281D03*
X017286Y005306D03*
X017286Y005309D03*
X017286Y005311D03*
X017286Y005314D03*
X017286Y005316D03*
X017286Y005341D03*
X017288Y005356D03*
X017286Y005359D03*
X017286Y005361D03*
X017286Y005364D03*
X017288Y005411D03*
X017288Y005441D03*
X017288Y005444D03*
X017288Y005446D03*
X017288Y005449D03*
X017288Y005489D03*
X017288Y005491D03*
X017288Y005494D03*
X017288Y005521D03*
X017288Y005544D03*
X017286Y005566D03*
X017286Y005569D03*
X017286Y005571D03*
X017286Y005574D03*
X017283Y005599D03*
X017283Y005601D03*
X017283Y005639D03*
X017281Y005671D03*
X017281Y005674D03*
X017278Y005681D03*
X017278Y005684D03*
X017278Y005686D03*
X017278Y005689D03*
X017278Y005699D03*
X017278Y005701D03*
X017273Y005739D03*
X017273Y005754D03*
X017273Y005756D03*
X017271Y005771D03*
X017271Y005774D03*
X017271Y005776D03*
X017268Y005781D03*
X017268Y005784D03*
X017268Y005786D03*
X017268Y005791D03*
X017268Y005809D03*
X017268Y005811D03*
X017266Y005814D03*
X017266Y005816D03*
X017263Y005836D03*
X017263Y005839D03*
X017261Y005846D03*
X017261Y005849D03*
X017261Y005851D03*
X017261Y005854D03*
X017261Y005856D03*
X017261Y005859D03*
X017261Y005861D03*
X017258Y005871D03*
X017258Y005874D03*
X017258Y005876D03*
X017258Y005879D03*
X017258Y005881D03*
X017258Y005884D03*
X017256Y005891D03*
X017256Y005894D03*
X017256Y005896D03*
X017256Y005899D03*
X017256Y005901D03*
X017253Y005916D03*
X017251Y005931D03*
X017248Y005939D03*
X017248Y005941D03*
X017248Y005944D03*
X017248Y005946D03*
X017248Y005949D03*
X017246Y005959D03*
X017246Y005961D03*
X017246Y005964D03*
X017246Y005966D03*
X017243Y005971D03*
X017243Y005974D03*
X017243Y005976D03*
X017243Y005979D03*
X017243Y005981D03*
X017241Y005986D03*
X017241Y005989D03*
X017238Y005994D03*
X017238Y005996D03*
X017238Y005999D03*
X017238Y006001D03*
X017236Y006009D03*
X017236Y006011D03*
X017236Y006014D03*
X017236Y006016D03*
X017236Y006019D03*
X017233Y006024D03*
X017233Y006026D03*
X017233Y006029D03*
X017231Y006034D03*
X017231Y006036D03*
X017231Y006039D03*
X017231Y006041D03*
X017228Y006059D03*
X017228Y006061D03*
X017228Y006064D03*
X017226Y006069D03*
X017226Y006071D03*
X017223Y006081D03*
X017223Y006084D03*
X017223Y006086D03*
X017221Y006091D03*
X017221Y006094D03*
X017218Y006099D03*
X017218Y006101D03*
X017216Y006109D03*
X017216Y006111D03*
X017216Y006114D03*
X017216Y006116D03*
X017216Y006119D03*
X017213Y006121D03*
X017213Y006124D03*
X017211Y006126D03*
X017211Y006129D03*
X017211Y006131D03*
X017208Y006146D03*
X017208Y006149D03*
X017208Y006151D03*
X017206Y006154D03*
X017206Y006156D03*
X017203Y006159D03*
X017203Y006161D03*
X017203Y006164D03*
X017203Y006166D03*
X017203Y006169D03*
X017201Y006174D03*
X017198Y006181D03*
X017196Y006194D03*
X017196Y006196D03*
X017196Y006199D03*
X017193Y006204D03*
X017193Y006206D03*
X017191Y006211D03*
X017188Y006219D03*
X017188Y006221D03*
X017186Y006226D03*
X017181Y006244D03*
X017181Y006246D03*
X017181Y006249D03*
X017181Y006251D03*
X017176Y006261D03*
X017176Y006264D03*
X017176Y006266D03*
X017173Y006271D03*
X017171Y006274D03*
X017171Y006276D03*
X017171Y006279D03*
X017168Y006286D03*
X017168Y006289D03*
X017166Y006294D03*
X017166Y006296D03*
X017166Y006299D03*
X017163Y006309D03*
X017158Y006321D03*
X017158Y006324D03*
X017156Y006329D03*
X017156Y006331D03*
X017156Y006334D03*
X017153Y006339D03*
X017136Y006386D03*
X017136Y006389D03*
X017136Y006391D03*
X017133Y006394D03*
X017133Y006396D03*
X018018Y005919D03*
X018328Y005946D03*
X018628Y005814D03*
X019843Y006011D03*
X016588Y007174D03*
D61*
X016744Y007046D03*
X016747Y007044D03*
X018627Y005759D03*
X018627Y005756D03*
X018737Y005511D03*
X018739Y005509D03*
X018742Y005506D03*
X019142Y005669D03*
X017827Y005401D03*
X015817Y003836D03*
X016122Y003674D03*
X016324Y003706D03*
D62*
X016059Y003676D03*
X017654Y005326D03*
X018497Y005494D03*
X017657Y005941D03*
D63*
X019574Y006326D03*
X019629Y006339D03*
X019669Y006349D03*
X016082Y003679D03*
D64*
X016057Y003681D03*
D65*
X016337Y003681D03*
X016357Y003686D03*
X016499Y003784D03*
X016499Y003791D03*
X016567Y003801D03*
X016662Y003906D03*
X016762Y003996D03*
X016784Y004031D03*
X016802Y004046D03*
X016814Y004066D03*
X016937Y004226D03*
X016962Y004276D03*
X016974Y004289D03*
X017002Y004346D03*
X017004Y004356D03*
X017032Y004399D03*
X016144Y005294D03*
D66*
X018494Y005511D03*
X015977Y003719D03*
X016062Y003684D03*
D67*
X016377Y003684D03*
X016429Y003711D03*
X016594Y003789D03*
X016684Y003931D03*
X016702Y003944D03*
X016737Y003976D03*
X016904Y004181D03*
X016909Y004201D03*
X016914Y004209D03*
X016932Y004224D03*
X016932Y004229D03*
X017027Y004374D03*
X016169Y005316D03*
X016172Y005319D03*
X017744Y005904D03*
X018879Y005379D03*
D68*
X018956Y006164D03*
X019698Y006356D03*
X016066Y003686D03*
D69*
X016276Y003686D03*
X016641Y003874D03*
X016973Y004266D03*
X019248Y005566D03*
X019131Y005859D03*
X018891Y006116D03*
X018016Y005926D03*
X017678Y006026D03*
X020033Y005411D03*
D70*
X016111Y003689D03*
D71*
X016083Y003691D03*
X019463Y006296D03*
D72*
X019913Y006421D03*
X019123Y005851D03*
X018628Y005816D03*
X017736Y005924D03*
X017266Y005826D03*
X017266Y005824D03*
X017263Y005829D03*
X017263Y005831D03*
X017263Y005834D03*
X017268Y005799D03*
X017276Y005736D03*
X017276Y005734D03*
X017276Y005731D03*
X017276Y005729D03*
X017276Y005721D03*
X017281Y005666D03*
X017281Y005664D03*
X017281Y005659D03*
X017281Y005656D03*
X017281Y005654D03*
X017281Y005651D03*
X017281Y005649D03*
X017281Y005646D03*
X017281Y005644D03*
X017281Y005641D03*
X017283Y005624D03*
X017283Y005621D03*
X017283Y005619D03*
X017283Y005616D03*
X017283Y005614D03*
X017283Y005611D03*
X017283Y005609D03*
X017283Y005606D03*
X017283Y005594D03*
X017283Y005591D03*
X017286Y005586D03*
X017286Y005584D03*
X017286Y005511D03*
X017286Y005509D03*
X017286Y005506D03*
X017286Y005471D03*
X017288Y005469D03*
X017288Y005401D03*
X017291Y005391D03*
X017291Y005389D03*
X017288Y005384D03*
X017291Y005379D03*
X017288Y005371D03*
X017288Y005329D03*
X017288Y005326D03*
X017288Y005324D03*
X017286Y005294D03*
X017286Y005291D03*
X017286Y005289D03*
X017283Y005244D03*
X017278Y005216D03*
X017278Y005214D03*
X017278Y005211D03*
X017278Y005209D03*
X017278Y005204D03*
X017278Y005201D03*
X017276Y005191D03*
X017273Y005161D03*
X017273Y005159D03*
X017273Y005156D03*
X017273Y005154D03*
X017268Y005086D03*
X017266Y005076D03*
X017266Y005074D03*
X017266Y005071D03*
X017266Y005069D03*
X017261Y005056D03*
X017261Y005054D03*
X017261Y005051D03*
X017261Y005031D03*
X017258Y005024D03*
X017258Y005021D03*
X017258Y005019D03*
X017258Y005016D03*
X017258Y005014D03*
X017253Y004991D03*
X017251Y004981D03*
X017251Y004979D03*
X017248Y004966D03*
X017248Y004964D03*
X017248Y004959D03*
X017248Y004956D03*
X017246Y004944D03*
X017246Y004941D03*
X017246Y004939D03*
X017241Y004926D03*
X017241Y004924D03*
X017241Y004921D03*
X017238Y004919D03*
X017238Y004916D03*
X017238Y004914D03*
X017236Y004899D03*
X017236Y004896D03*
X017236Y004894D03*
X017236Y004891D03*
X017233Y004889D03*
X017233Y004886D03*
X017233Y004884D03*
X017231Y004876D03*
X017231Y004874D03*
X017228Y004869D03*
X017228Y004866D03*
X017228Y004864D03*
X017228Y004861D03*
X017226Y004856D03*
X017226Y004854D03*
X017226Y004851D03*
X017221Y004839D03*
X017221Y004836D03*
X017221Y004834D03*
X017216Y004821D03*
X017211Y004801D03*
X017208Y004786D03*
X017196Y004744D03*
X017196Y004741D03*
X017193Y004734D03*
X017191Y004729D03*
X017188Y004716D03*
X017186Y004714D03*
X017186Y004711D03*
X017183Y004709D03*
X017168Y004659D03*
X017166Y004656D03*
X017163Y004654D03*
X017163Y004651D03*
X017158Y004634D03*
X017156Y004631D03*
X017156Y004629D03*
X017156Y004626D03*
X017156Y004624D03*
X017151Y004616D03*
X017143Y004591D03*
X017141Y004589D03*
X017138Y004586D03*
X017138Y004584D03*
X017138Y004581D03*
X017138Y004579D03*
X017128Y004561D03*
X017128Y004559D03*
X017126Y004551D03*
X017126Y004549D03*
X017123Y004546D03*
X017123Y004544D03*
X017123Y004541D03*
X017121Y004539D03*
X017121Y004536D03*
X017121Y004534D03*
X017118Y004531D03*
X017116Y004526D03*
X017116Y004524D03*
X017113Y004516D03*
X017111Y004511D03*
X017093Y004484D03*
X017091Y004481D03*
X017088Y004474D03*
X017081Y004456D03*
X017081Y004454D03*
X016641Y003869D03*
X016638Y003866D03*
X016616Y003851D03*
X016286Y003691D03*
X017231Y006046D03*
X017231Y006049D03*
D73*
X016073Y003694D03*
D74*
X016072Y003696D03*
D75*
X016289Y003696D03*
X016594Y003829D03*
X016599Y003831D03*
X015722Y004331D03*
X015727Y004364D03*
X015727Y004366D03*
X015727Y004369D03*
X015732Y004424D03*
X015739Y004459D03*
X015739Y004461D03*
X015739Y004464D03*
X015754Y004536D03*
X015759Y004551D03*
X015769Y004579D03*
X015769Y004581D03*
X015769Y004584D03*
X015779Y004611D03*
X015779Y004619D03*
X015779Y004621D03*
X015779Y004624D03*
X015782Y004626D03*
X015789Y004651D03*
X015792Y004659D03*
X015792Y004661D03*
X015817Y004719D03*
X015849Y004796D03*
X015849Y004799D03*
X015852Y004801D03*
X015859Y004821D03*
X015867Y004841D03*
X015869Y004846D03*
X015884Y004871D03*
X015884Y004874D03*
X015892Y004884D03*
X015892Y004886D03*
X015909Y004921D03*
X015912Y004924D03*
X015957Y005011D03*
X015959Y005014D03*
X015994Y005066D03*
X015997Y005071D03*
X016002Y005079D03*
X016012Y005094D03*
X016014Y005096D03*
X016019Y005101D03*
X017479Y005511D03*
X017482Y005486D03*
X017482Y005484D03*
X017482Y005481D03*
X017482Y005479D03*
X017484Y005476D03*
X017484Y005474D03*
X017484Y005471D03*
X017484Y005469D03*
X017487Y005454D03*
X017479Y005554D03*
X017479Y005556D03*
X017509Y005746D03*
X017509Y005749D03*
X017524Y005796D03*
X017529Y005806D03*
X017529Y005809D03*
X017529Y005811D03*
X017529Y005814D03*
X017532Y005819D03*
X017534Y005821D03*
X017534Y005824D03*
X017537Y005829D03*
X017727Y005936D03*
X018057Y005516D03*
X018057Y005514D03*
X018059Y005509D03*
X018059Y005506D03*
X018064Y005491D03*
X018069Y005481D03*
X018069Y005479D03*
X018069Y005476D03*
X018077Y005464D03*
X018077Y005461D03*
X018079Y005459D03*
X018084Y005451D03*
X018087Y005449D03*
X018574Y005524D03*
X018574Y005526D03*
X018577Y005531D03*
X019834Y006001D03*
X020029Y005421D03*
X020029Y005419D03*
X016992Y006704D03*
X016989Y006709D03*
X016987Y006711D03*
X016987Y006714D03*
X016984Y006716D03*
X016982Y006721D03*
X016979Y006726D03*
X016977Y006729D03*
X016977Y006731D03*
X016974Y006734D03*
X016974Y006736D03*
X016964Y006749D03*
X016964Y006751D03*
X016954Y006764D03*
X016952Y006769D03*
X016949Y006776D03*
X016947Y006779D03*
X016944Y006784D03*
X016942Y006786D03*
X016939Y006791D03*
X016937Y006796D03*
X016934Y006799D03*
X016929Y006806D03*
X016927Y006814D03*
D76*
X016594Y007179D03*
X017747Y005911D03*
X018634Y005824D03*
X019134Y005861D03*
X020034Y005409D03*
X017057Y004431D03*
X017049Y004411D03*
X017054Y004409D03*
X017014Y004354D03*
X017007Y004331D03*
X017002Y004329D03*
X016989Y004304D03*
X016989Y004301D03*
X016804Y004041D03*
X016664Y003899D03*
X016439Y003759D03*
X016374Y003696D03*
X016117Y005249D03*
X016117Y005251D03*
D77*
X016153Y003699D03*
D78*
X016083Y003701D03*
X019333Y006266D03*
X019351Y006271D03*
D79*
X016122Y003704D03*
D80*
X016056Y003706D03*
X019026Y006191D03*
D81*
X016141Y003709D03*
D82*
X016021Y003711D03*
X019436Y006289D03*
D83*
X019647Y005831D03*
X019914Y005654D03*
X019929Y005639D03*
X019934Y005636D03*
X019937Y005634D03*
X019969Y005609D03*
X019974Y005606D03*
X019984Y005599D03*
X019169Y005649D03*
X018777Y005474D03*
X018632Y005674D03*
X018632Y005676D03*
X018632Y005679D03*
X018632Y005681D03*
X018634Y005691D03*
X018634Y005694D03*
X018509Y005436D03*
X018007Y005609D03*
X016602Y007154D03*
X015869Y003779D03*
X016327Y003711D03*
D84*
X016004Y003714D03*
X017662Y005341D03*
X019499Y006306D03*
X019549Y006319D03*
D85*
X019819Y005986D03*
X019632Y005846D03*
X019624Y005851D03*
X019237Y005586D03*
X019159Y005654D03*
X019157Y005656D03*
X018759Y005486D03*
X018507Y005429D03*
X018629Y005731D03*
X018629Y005734D03*
X018629Y005736D03*
X018009Y005639D03*
X017817Y005394D03*
X017527Y005399D03*
X020027Y005561D03*
X016724Y007061D03*
X016722Y007064D03*
X016702Y007079D03*
X015827Y003821D03*
X015834Y003814D03*
X015842Y003809D03*
X015842Y003806D03*
X016332Y003714D03*
D86*
X015984Y003716D03*
X018952Y006161D03*
D87*
X018624Y005781D03*
X018327Y005904D03*
X018327Y005906D03*
X018327Y005909D03*
X018327Y005911D03*
X018014Y005706D03*
X018014Y005704D03*
X018017Y005699D03*
X018017Y005696D03*
X018017Y005694D03*
X017887Y005454D03*
X017884Y005449D03*
X017882Y005446D03*
X017869Y005436D03*
X017867Y005434D03*
X017859Y005426D03*
X017514Y005409D03*
X018422Y005526D03*
X018422Y005529D03*
X018424Y005524D03*
X019132Y005681D03*
X020049Y005526D03*
X020057Y005464D03*
X020052Y005459D03*
X020029Y005429D03*
X017594Y005936D03*
X016777Y007009D03*
X016774Y007014D03*
X016772Y007016D03*
X016767Y007021D03*
X016764Y007024D03*
X015792Y003876D03*
X015797Y003869D03*
X015797Y003866D03*
X015799Y003864D03*
X015799Y003861D03*
X016334Y003716D03*
X016394Y003731D03*
D88*
X016342Y003719D03*
X015832Y003816D03*
X015827Y003824D03*
X015824Y003826D03*
X015824Y003829D03*
X015822Y003831D03*
X018012Y005654D03*
X018012Y005656D03*
X018012Y005659D03*
X019152Y005659D03*
X019619Y005859D03*
X019619Y005861D03*
X019619Y005864D03*
X019622Y005856D03*
X019622Y005854D03*
X019822Y005989D03*
X020034Y005551D03*
X020034Y005549D03*
X020034Y005546D03*
X020037Y005444D03*
X020032Y005439D03*
X020032Y005436D03*
X016734Y007054D03*
X016732Y007056D03*
D89*
X017657Y005951D03*
X017657Y005949D03*
X018497Y005489D03*
X018652Y005559D03*
X015972Y003721D03*
D90*
X015778Y003906D03*
X015776Y003911D03*
X015773Y003916D03*
X015773Y003919D03*
X015771Y003921D03*
X015766Y003931D03*
X015766Y003934D03*
X015766Y003936D03*
X015756Y003959D03*
X015748Y003981D03*
X016356Y003721D03*
X016591Y003821D03*
X018133Y005389D03*
X018131Y005394D03*
X018131Y005396D03*
X018121Y005409D03*
X017921Y005496D03*
X017908Y005479D03*
X017906Y005476D03*
X017903Y005474D03*
X017901Y005471D03*
X017898Y005466D03*
X018016Y005726D03*
X018016Y005729D03*
X018016Y005731D03*
X018016Y005746D03*
X018016Y005749D03*
X018016Y005751D03*
X018016Y005754D03*
X018343Y005839D03*
X018343Y005841D03*
X018338Y005861D03*
X018338Y005864D03*
X018338Y005866D03*
X018338Y005869D03*
X018336Y005874D03*
X018336Y005876D03*
X018333Y005879D03*
X018333Y005881D03*
X018333Y005884D03*
X018333Y005886D03*
X018333Y005889D03*
X018333Y005891D03*
X018393Y005591D03*
X018403Y005569D03*
X018406Y005559D03*
X018408Y005549D03*
X018418Y005534D03*
X018861Y005394D03*
X019121Y005701D03*
X019118Y005704D03*
X019118Y005706D03*
X019116Y005709D03*
X019116Y005711D03*
X019113Y005716D03*
X018626Y005789D03*
X017586Y005929D03*
X017508Y005416D03*
X017511Y005414D03*
X020031Y005426D03*
X020061Y005469D03*
X020061Y005471D03*
X020063Y005486D03*
X020063Y005489D03*
X020063Y005491D03*
X020061Y005506D03*
X020061Y005509D03*
X020056Y005514D03*
X016823Y006959D03*
X016818Y006964D03*
X016813Y006971D03*
X016811Y006974D03*
X016808Y006979D03*
X016803Y006984D03*
X016791Y006999D03*
D91*
X017656Y005954D03*
X018498Y005486D03*
X018651Y005561D03*
X018651Y005564D03*
X015961Y003724D03*
D92*
X015791Y003879D03*
X015788Y003881D03*
X015788Y003884D03*
X015783Y003896D03*
X015781Y003901D03*
X016366Y003724D03*
X017656Y005309D03*
X017513Y005411D03*
X017873Y005439D03*
X017873Y005441D03*
X017878Y005444D03*
X017886Y005451D03*
X017888Y005456D03*
X017891Y005459D03*
X018128Y005399D03*
X018413Y005541D03*
X018416Y005536D03*
X018421Y005531D03*
X018426Y005521D03*
X018511Y005421D03*
X018016Y005701D03*
X018013Y005709D03*
X018013Y005711D03*
X018331Y005894D03*
X018328Y005901D03*
X018326Y005914D03*
X018326Y005916D03*
X018626Y005784D03*
X019123Y005696D03*
X019126Y005689D03*
X019128Y005686D03*
X019131Y005684D03*
X020053Y005461D03*
X019891Y006416D03*
X017591Y005934D03*
X016801Y006989D03*
X016781Y007006D03*
D93*
X018936Y006149D03*
X018648Y005581D03*
X017996Y005529D03*
X017996Y005526D03*
X017663Y005971D03*
X015953Y003726D03*
X015948Y003729D03*
D94*
X016369Y003729D03*
X016419Y003746D03*
X016622Y003856D03*
X016627Y003859D03*
X016632Y003861D03*
X016647Y003876D03*
X017069Y004429D03*
X017084Y004469D03*
X017089Y004476D03*
X017107Y004509D03*
X017109Y004514D03*
X017132Y004569D03*
X017134Y004571D03*
X017134Y004574D03*
X017137Y004576D03*
X017152Y004619D03*
X017192Y004731D03*
X017194Y004736D03*
X017194Y004739D03*
X017214Y004824D03*
X017219Y004831D03*
X017232Y004879D03*
X017232Y004881D03*
X017247Y004946D03*
X017247Y004949D03*
X017247Y004951D03*
X017247Y004954D03*
X017254Y004994D03*
X017254Y004996D03*
X017254Y004999D03*
X017257Y005004D03*
X017257Y005006D03*
X017257Y005009D03*
X017257Y005011D03*
X017259Y005026D03*
X017259Y005029D03*
X017267Y005079D03*
X017267Y005081D03*
X017267Y005084D03*
X017277Y005194D03*
X017277Y005196D03*
X017277Y005199D03*
X017289Y005374D03*
X017289Y005376D03*
X017289Y005381D03*
X017289Y005386D03*
X017287Y005504D03*
X017284Y005589D03*
X017654Y005304D03*
X017737Y005921D03*
X018332Y005951D03*
X020027Y005414D03*
D95*
X018647Y005584D03*
X018647Y005586D03*
X018647Y005589D03*
X018647Y005591D03*
X018499Y005471D03*
X017657Y005321D03*
X017664Y005974D03*
X019769Y006379D03*
X015944Y003731D03*
D96*
X015939Y003734D03*
X017997Y005534D03*
X018502Y005466D03*
X018824Y005449D03*
X018827Y005444D03*
X017664Y005976D03*
X016644Y007106D03*
D97*
X016838Y006939D03*
X016846Y006929D03*
X016848Y006924D03*
X016876Y006889D03*
X016878Y006886D03*
X017581Y005919D03*
X017576Y005911D03*
X017576Y005909D03*
X017571Y005901D03*
X018011Y005879D03*
X018011Y005876D03*
X018011Y005874D03*
X018011Y005871D03*
X018013Y005884D03*
X018013Y005886D03*
X018013Y005889D03*
X018013Y005891D03*
X018011Y005854D03*
X018011Y005836D03*
X018013Y005834D03*
X018013Y005831D03*
X018013Y005829D03*
X018013Y005826D03*
X018013Y005824D03*
X018013Y005821D03*
X018013Y005806D03*
X018013Y005804D03*
X018013Y005801D03*
X018013Y005799D03*
X018016Y005786D03*
X018016Y005784D03*
X018016Y005781D03*
X018016Y005769D03*
X018016Y005766D03*
X018016Y005741D03*
X018016Y005739D03*
X018106Y005421D03*
X018136Y005384D03*
X018398Y005574D03*
X018398Y005576D03*
X018398Y005579D03*
X018398Y005581D03*
X018396Y005584D03*
X018396Y005586D03*
X018396Y005589D03*
X018393Y005596D03*
X018393Y005599D03*
X018388Y005606D03*
X018383Y005626D03*
X018383Y005629D03*
X018383Y005631D03*
X018383Y005634D03*
X018361Y005749D03*
X018358Y005761D03*
X018358Y005764D03*
X018358Y005766D03*
X018358Y005769D03*
X018356Y005771D03*
X018356Y005774D03*
X018353Y005779D03*
X018353Y005781D03*
X018353Y005784D03*
X018353Y005786D03*
X018353Y005789D03*
X018353Y005791D03*
X018353Y005794D03*
X018351Y005799D03*
X018348Y005809D03*
X018346Y005821D03*
X018346Y005824D03*
X018341Y005851D03*
X018341Y005854D03*
X018326Y005931D03*
X018626Y005794D03*
X018511Y005419D03*
X019111Y005721D03*
X019108Y005729D03*
X019108Y005731D03*
X019108Y005734D03*
X019108Y005746D03*
X019108Y005749D03*
X019108Y005751D03*
X019108Y005754D03*
X019113Y005796D03*
X019113Y005799D03*
X019118Y005811D03*
X019118Y005814D03*
X019118Y005816D03*
X019828Y005996D03*
X020063Y005499D03*
X020063Y005496D03*
X020061Y005479D03*
X019246Y005574D03*
X015723Y004109D03*
X015723Y004096D03*
X015726Y004094D03*
X015726Y004091D03*
X015728Y004089D03*
X015728Y004086D03*
X015731Y004051D03*
X015733Y004041D03*
X015733Y004039D03*
X015736Y004036D03*
X015741Y004011D03*
X015743Y004006D03*
X015743Y004004D03*
X015743Y004001D03*
X015743Y003999D03*
X015746Y003996D03*
X015748Y003989D03*
X015748Y003986D03*
X015751Y003979D03*
X015751Y003976D03*
X015751Y003974D03*
X015751Y003971D03*
X015761Y003949D03*
X015763Y003944D03*
X016393Y003734D03*
X016573Y003811D03*
D98*
X015933Y003736D03*
X017996Y005536D03*
X018646Y005596D03*
X018646Y005599D03*
X018646Y005601D03*
X018821Y005451D03*
X018826Y005446D03*
X017663Y005979D03*
X016651Y007101D03*
X016646Y007104D03*
X016638Y007111D03*
X016633Y007114D03*
D99*
X016842Y006934D03*
X016854Y006916D03*
X016862Y006909D03*
X016867Y006901D03*
X016869Y006899D03*
X016872Y006896D03*
X016872Y006894D03*
X016874Y006891D03*
X016879Y006884D03*
X017669Y006019D03*
X017579Y005916D03*
X017574Y005906D03*
X017572Y005904D03*
X017569Y005899D03*
X017567Y005896D03*
X017567Y005894D03*
X017559Y005884D03*
X018012Y005881D03*
X018012Y005869D03*
X018012Y005866D03*
X018012Y005864D03*
X018012Y005861D03*
X018012Y005851D03*
X018012Y005849D03*
X018012Y005846D03*
X018012Y005844D03*
X018012Y005841D03*
X018012Y005839D03*
X018012Y005819D03*
X018012Y005816D03*
X018012Y005814D03*
X018012Y005811D03*
X018012Y005809D03*
X018014Y005796D03*
X018014Y005794D03*
X018014Y005791D03*
X018014Y005789D03*
X018014Y005779D03*
X018014Y005776D03*
X018014Y005774D03*
X018014Y005771D03*
X018012Y005894D03*
X018012Y005896D03*
X018012Y005899D03*
X018359Y005759D03*
X018359Y005756D03*
X018359Y005754D03*
X018359Y005751D03*
X018362Y005746D03*
X018362Y005744D03*
X018362Y005741D03*
X018362Y005739D03*
X018362Y005736D03*
X018364Y005734D03*
X018364Y005731D03*
X018364Y005729D03*
X018364Y005726D03*
X018364Y005724D03*
X018364Y005721D03*
X018364Y005719D03*
X018364Y005716D03*
X018367Y005709D03*
X018369Y005696D03*
X018369Y005694D03*
X018369Y005691D03*
X018372Y005686D03*
X018372Y005684D03*
X018374Y005676D03*
X018374Y005674D03*
X018379Y005656D03*
X018379Y005654D03*
X018379Y005651D03*
X018379Y005649D03*
X018379Y005646D03*
X018382Y005639D03*
X018382Y005636D03*
X018384Y005624D03*
X018384Y005621D03*
X018389Y005611D03*
X018389Y005609D03*
X018627Y005796D03*
X019107Y005766D03*
X019107Y005764D03*
X019107Y005761D03*
X019107Y005759D03*
X019107Y005756D03*
X019107Y005744D03*
X019107Y005741D03*
X019107Y005739D03*
X019107Y005736D03*
X019109Y005726D03*
X019109Y005724D03*
X019109Y005771D03*
X019109Y005774D03*
X019109Y005776D03*
X019109Y005779D03*
X019109Y005781D03*
X019109Y005784D03*
X019112Y005786D03*
X019112Y005789D03*
X019112Y005791D03*
X019112Y005794D03*
X019114Y005801D03*
X019114Y005804D03*
X019117Y005809D03*
X019119Y005819D03*
X019119Y005821D03*
X019119Y005824D03*
X019119Y005826D03*
X018864Y005391D03*
X018147Y005374D03*
X018142Y005376D03*
X018139Y005379D03*
X018139Y005381D03*
X018097Y005431D03*
X018094Y005436D03*
X017932Y005511D03*
X015739Y004481D03*
X015739Y004479D03*
X015739Y004476D03*
X015739Y004474D03*
X015717Y004201D03*
X015717Y004199D03*
X015717Y004196D03*
X015719Y004159D03*
X015724Y004116D03*
X015724Y004114D03*
X015724Y004111D03*
X015724Y004106D03*
X015724Y004104D03*
X015724Y004101D03*
X015724Y004099D03*
X015727Y004084D03*
X015727Y004081D03*
X015727Y004079D03*
X015727Y004076D03*
X015729Y004071D03*
X015729Y004069D03*
X015729Y004066D03*
X015729Y004064D03*
X015732Y004059D03*
X015732Y004056D03*
X015732Y004054D03*
X015732Y004049D03*
X015732Y004046D03*
X015732Y004044D03*
X015737Y004034D03*
X015737Y004031D03*
X015739Y004024D03*
X015739Y004021D03*
X015739Y004019D03*
X015739Y004016D03*
X015739Y004014D03*
X015742Y004009D03*
X015762Y003946D03*
X016402Y003736D03*
D100*
X015931Y003739D03*
X017998Y005546D03*
X018643Y005611D03*
X018643Y005614D03*
X018836Y005431D03*
X019201Y005634D03*
X019203Y005631D03*
X019743Y005934D03*
X019748Y005939D03*
X019758Y005944D03*
X017663Y005984D03*
X016618Y007129D03*
D101*
X016994Y006699D03*
X016997Y006694D03*
X016999Y006686D03*
X017002Y006684D03*
X017004Y006681D03*
X017004Y006679D03*
X017007Y006674D03*
X017009Y006671D03*
X017012Y006666D03*
X017012Y006664D03*
X017014Y006661D03*
X017017Y006656D03*
X017019Y006651D03*
X017032Y006626D03*
X017034Y006624D03*
X017037Y006619D03*
X017072Y006544D03*
X017729Y005931D03*
X017519Y005786D03*
X017519Y005784D03*
X017517Y005776D03*
X017517Y005774D03*
X017517Y005771D03*
X017514Y005764D03*
X017514Y005761D03*
X017512Y005756D03*
X017512Y005754D03*
X017507Y005741D03*
X017507Y005739D03*
X017507Y005736D03*
X017507Y005734D03*
X017504Y005729D03*
X017504Y005726D03*
X017502Y005721D03*
X017502Y005719D03*
X017497Y005696D03*
X017497Y005694D03*
X017497Y005691D03*
X017497Y005689D03*
X017494Y005684D03*
X017494Y005681D03*
X017494Y005679D03*
X017494Y005676D03*
X017494Y005674D03*
X017492Y005666D03*
X017492Y005664D03*
X017489Y005654D03*
X017487Y005629D03*
X017487Y005611D03*
X017487Y005609D03*
X017482Y005606D03*
X017482Y005604D03*
X017482Y005601D03*
X017482Y005599D03*
X017482Y005596D03*
X017482Y005584D03*
X017482Y005581D03*
X017479Y005569D03*
X017479Y005566D03*
X017482Y005549D03*
X017482Y005526D03*
X017482Y005524D03*
X017482Y005521D03*
X017482Y005519D03*
X017482Y005516D03*
X017482Y005514D03*
X017482Y005504D03*
X017482Y005501D03*
X017482Y005499D03*
X017482Y005496D03*
X017482Y005494D03*
X018154Y005364D03*
X018579Y005534D03*
X018579Y005536D03*
X018582Y005546D03*
X018582Y005549D03*
X018582Y005551D03*
X018582Y005554D03*
X019122Y005836D03*
X016109Y005221D03*
X016094Y005201D03*
X016074Y005174D03*
X016059Y005154D03*
X016057Y005149D03*
X016052Y005144D03*
X016052Y005141D03*
X016039Y005126D03*
X016037Y005124D03*
X016034Y005121D03*
X016029Y005114D03*
X016027Y005111D03*
X016024Y005109D03*
X016022Y005104D03*
X015999Y005074D03*
X015992Y005061D03*
X015989Y005059D03*
X015984Y005049D03*
X015967Y005021D03*
X015957Y005006D03*
X015939Y004974D03*
X015937Y004971D03*
X015937Y004969D03*
X015934Y004966D03*
X015922Y004941D03*
X015919Y004936D03*
X015919Y004934D03*
X015914Y004929D03*
X015909Y004916D03*
X015897Y004896D03*
X015894Y004891D03*
X015889Y004879D03*
X015882Y004866D03*
X015882Y004864D03*
X015879Y004861D03*
X015879Y004859D03*
X015877Y004856D03*
X015874Y004851D03*
X015874Y004849D03*
X015857Y004816D03*
X015857Y004814D03*
X015854Y004809D03*
X015854Y004806D03*
X015837Y004764D03*
X015814Y004711D03*
X015789Y004644D03*
X015777Y004606D03*
X015777Y004604D03*
X015777Y004601D03*
X015754Y004519D03*
X015752Y004516D03*
X016404Y003739D03*
X016584Y003819D03*
X016599Y003834D03*
D102*
X015926Y003741D03*
X017998Y005541D03*
X017998Y005544D03*
X018646Y005604D03*
X018646Y005606D03*
X018831Y005439D03*
X019756Y005941D03*
X019773Y005951D03*
X019776Y005954D03*
X019801Y006386D03*
X018928Y006146D03*
X017663Y005981D03*
X016656Y007099D03*
X016628Y007121D03*
X016623Y007124D03*
D103*
X017022Y006646D03*
X017024Y006641D03*
X017027Y006636D03*
X017042Y006604D03*
X017044Y006601D03*
X017052Y006586D03*
X017054Y006581D03*
X017057Y006579D03*
X017057Y006576D03*
X017059Y006571D03*
X017059Y006569D03*
X017062Y006566D03*
X017064Y006561D03*
X017064Y006559D03*
X017064Y006556D03*
X017067Y006554D03*
X017069Y006549D03*
X017069Y006546D03*
X017074Y006534D03*
X017079Y006526D03*
X017079Y006524D03*
X017082Y006519D03*
X017087Y006506D03*
X017089Y006501D03*
X017094Y006489D03*
X017097Y006484D03*
X017099Y006481D03*
X017099Y006479D03*
X017102Y006474D03*
X017109Y006461D03*
X017109Y006459D03*
X017114Y006446D03*
X017114Y006444D03*
X017114Y006441D03*
X018017Y005916D03*
X017489Y005644D03*
X017489Y005641D03*
X017489Y005639D03*
X017487Y005624D03*
X017487Y005621D03*
X017482Y005544D03*
X017482Y005541D03*
X018159Y005361D03*
X018867Y005386D03*
X019249Y005571D03*
X019122Y005841D03*
X016119Y005231D03*
X016119Y005229D03*
X016099Y005209D03*
X016097Y005206D03*
X016082Y005184D03*
X016077Y005176D03*
X016069Y005166D03*
X016064Y005161D03*
X016064Y005159D03*
X015974Y005031D03*
X015974Y005029D03*
X015957Y005001D03*
X015949Y004989D03*
X015942Y004976D03*
X015907Y004911D03*
X016409Y003741D03*
X016619Y003849D03*
D104*
X015922Y003744D03*
X017999Y005554D03*
X017999Y005556D03*
X017999Y005559D03*
X018639Y005624D03*
X018639Y005626D03*
X018639Y005629D03*
X019729Y005929D03*
D105*
X019121Y005839D03*
X018633Y005806D03*
X018016Y005911D03*
X018016Y005914D03*
X017513Y005759D03*
X017503Y005716D03*
X017503Y005714D03*
X017503Y005711D03*
X017503Y005709D03*
X017501Y005706D03*
X017501Y005704D03*
X017498Y005701D03*
X017498Y005699D03*
X017493Y005671D03*
X017493Y005669D03*
X017491Y005651D03*
X017491Y005649D03*
X017491Y005646D03*
X017488Y005636D03*
X017488Y005634D03*
X017488Y005631D03*
X017488Y005626D03*
X017486Y005619D03*
X017486Y005616D03*
X017486Y005614D03*
X017483Y005546D03*
X017481Y005539D03*
X017481Y005536D03*
X017481Y005534D03*
X017481Y005531D03*
X017481Y005529D03*
X018506Y005416D03*
X017078Y006529D03*
X017076Y006531D03*
X017073Y006536D03*
X017073Y006539D03*
X017073Y006541D03*
X017068Y006551D03*
X017063Y006564D03*
X017058Y006574D03*
X017053Y006584D03*
X017051Y006589D03*
X017048Y006591D03*
X017048Y006594D03*
X017048Y006596D03*
X017046Y006599D03*
X017041Y006606D03*
X017041Y006609D03*
X017038Y006611D03*
X017038Y006614D03*
X017038Y006616D03*
X017036Y006621D03*
X017031Y006629D03*
X017031Y006631D03*
X017028Y006634D03*
X017026Y006639D03*
X017023Y006644D03*
X017021Y006649D03*
X017018Y006654D03*
X017016Y006659D03*
X017011Y006669D03*
X017006Y006676D03*
X016128Y005244D03*
X016126Y005241D03*
X016126Y005239D03*
X016123Y005236D03*
X016121Y005234D03*
X016108Y005219D03*
X016106Y005216D03*
X016106Y005214D03*
X016103Y005211D03*
X016096Y005204D03*
X016088Y005191D03*
X016086Y005189D03*
X016083Y005186D03*
X016081Y005181D03*
X016078Y005179D03*
X016071Y005171D03*
X016071Y005169D03*
X016066Y005164D03*
X016063Y005156D03*
X016058Y005151D03*
X016033Y005119D03*
X015983Y005046D03*
X015963Y005016D03*
X015958Y005004D03*
X015918Y004931D03*
X015908Y004914D03*
X015906Y004909D03*
X015903Y004906D03*
X015903Y004904D03*
X015903Y004901D03*
X015901Y004899D03*
X015896Y004894D03*
X015836Y004761D03*
X016423Y003744D03*
X016601Y003836D03*
D106*
X015916Y003746D03*
X017658Y005316D03*
X018001Y005566D03*
X018638Y005644D03*
X018848Y005416D03*
X019208Y005619D03*
X019213Y005614D03*
X019681Y005909D03*
X019686Y005911D03*
X019691Y005914D03*
X018923Y006139D03*
X017663Y005991D03*
D107*
X017664Y005994D03*
X018637Y005646D03*
X018507Y005446D03*
X018002Y005569D03*
X018002Y005571D03*
X018002Y005574D03*
X017784Y005384D03*
X019187Y005641D03*
X019219Y005609D03*
X019712Y005784D03*
X019714Y005781D03*
X019719Y005779D03*
X019702Y005919D03*
X019714Y005924D03*
X019799Y005969D03*
X016609Y007141D03*
X015914Y003749D03*
D108*
X015909Y003751D03*
X017559Y005384D03*
X017999Y005564D03*
X018507Y005449D03*
X018639Y005639D03*
X018639Y005641D03*
X018799Y005459D03*
X018802Y005456D03*
X019189Y005639D03*
X019214Y005611D03*
X019697Y005916D03*
X019722Y005926D03*
X017662Y005989D03*
X016614Y007139D03*
D109*
X016686Y007089D03*
X017663Y006001D03*
X018006Y005606D03*
X018006Y005604D03*
X018633Y005684D03*
X018633Y005686D03*
X018633Y005689D03*
X018773Y005476D03*
X018778Y005471D03*
X019173Y005646D03*
X019231Y005594D03*
X019651Y005829D03*
X019656Y005824D03*
X019633Y005879D03*
X019636Y005881D03*
X019646Y005886D03*
X019808Y005979D03*
X019901Y005661D03*
X019906Y005659D03*
X019908Y005656D03*
X019921Y005646D03*
X019923Y005644D03*
X019946Y005629D03*
X019948Y005626D03*
X019953Y005624D03*
X019953Y005621D03*
X019958Y005619D03*
X017803Y005389D03*
X015911Y003754D03*
X015873Y003776D03*
X015868Y003781D03*
D110*
X015877Y003774D03*
X015877Y003771D03*
X015907Y003756D03*
X018854Y005406D03*
X018782Y005469D03*
X018004Y005599D03*
X018004Y005601D03*
X019642Y005884D03*
X019654Y005826D03*
X019659Y005821D03*
X019919Y005649D03*
X019942Y005631D03*
X019839Y006399D03*
X016682Y007091D03*
X016604Y007151D03*
D111*
X017664Y005996D03*
X018002Y005579D03*
X018637Y005654D03*
X018849Y005414D03*
X019222Y005601D03*
X019222Y005604D03*
X019677Y005809D03*
X019687Y005799D03*
X019694Y005794D03*
X019699Y005791D03*
X019702Y005789D03*
X019724Y005776D03*
X019739Y005766D03*
X019749Y005761D03*
X019754Y005759D03*
X019777Y005744D03*
X019792Y005734D03*
X019809Y005724D03*
X019812Y005721D03*
X019814Y005719D03*
X019817Y005716D03*
X019837Y005704D03*
X019854Y005694D03*
X019804Y005974D03*
X015897Y003759D03*
X015889Y003766D03*
D112*
X015891Y003764D03*
X015893Y003761D03*
X015883Y003769D03*
X018506Y005441D03*
X018636Y005656D03*
X018636Y005659D03*
X018636Y005661D03*
X018636Y005664D03*
X018636Y005666D03*
X018791Y005461D03*
X019223Y005599D03*
X019666Y005816D03*
X019668Y005814D03*
X019678Y005806D03*
X019683Y005804D03*
X019686Y005801D03*
X019736Y005769D03*
X019761Y005754D03*
X019766Y005751D03*
X019771Y005749D03*
X019773Y005746D03*
X019821Y005714D03*
X019831Y005709D03*
X019833Y005706D03*
X019846Y005699D03*
X019848Y005696D03*
X019858Y005691D03*
X019861Y005689D03*
X019668Y005901D03*
X019663Y005899D03*
X018003Y005584D03*
X018003Y005581D03*
X016673Y007096D03*
X016606Y007146D03*
D113*
X018894Y006111D03*
X017747Y005906D03*
X019257Y005564D03*
X017039Y004404D03*
X017032Y004394D03*
X016957Y004256D03*
X016844Y004096D03*
X016832Y004076D03*
X016814Y004059D03*
X016812Y004056D03*
X016757Y003991D03*
X016657Y003896D03*
X016667Y003884D03*
X016547Y003799D03*
X016507Y003794D03*
X016497Y003786D03*
X016454Y003766D03*
X016442Y003761D03*
X016124Y005261D03*
X016124Y005264D03*
X016129Y005271D03*
X016129Y005274D03*
X016132Y005276D03*
D114*
X017543Y005389D03*
X017811Y005391D03*
X018633Y005696D03*
X018633Y005699D03*
X018858Y005404D03*
X019233Y005591D03*
X019631Y005876D03*
X019811Y005981D03*
X019916Y005651D03*
X019928Y005641D03*
X019961Y005616D03*
X019966Y005614D03*
X019968Y005611D03*
X019991Y005594D03*
X019993Y005591D03*
X020011Y005576D03*
X020013Y005574D03*
X019846Y006401D03*
X019848Y006404D03*
X019868Y006409D03*
X017663Y006004D03*
X015863Y003786D03*
X015866Y003784D03*
X015856Y003791D03*
D115*
X015859Y003789D03*
X017539Y005391D03*
X018007Y005611D03*
X018007Y005614D03*
X018007Y005616D03*
X018007Y005619D03*
X018007Y005621D03*
X018007Y005624D03*
X018509Y005434D03*
X018632Y005701D03*
X018632Y005704D03*
X018632Y005706D03*
X019164Y005651D03*
X019644Y005834D03*
X019629Y005874D03*
X019979Y005604D03*
X019982Y005601D03*
X019989Y005596D03*
X019994Y005589D03*
X017662Y006006D03*
X016692Y007084D03*
X016689Y007086D03*
D116*
X019626Y005871D03*
X019641Y005836D03*
X019998Y005586D03*
X020001Y005584D03*
X020003Y005581D03*
X020006Y005579D03*
X019236Y005589D03*
X018768Y005479D03*
X018861Y005401D03*
X018508Y005431D03*
X018631Y005709D03*
X017656Y005311D03*
X015853Y003794D03*
D117*
X015852Y003796D03*
X015849Y003799D03*
X015847Y003801D03*
X017534Y005394D03*
X018629Y005711D03*
X018762Y005484D03*
X018764Y005481D03*
X019624Y005869D03*
X019637Y005841D03*
X020017Y005571D03*
X020022Y005566D03*
X018917Y006134D03*
X019864Y006406D03*
X017662Y006009D03*
X016709Y007074D03*
X016707Y007076D03*
X016697Y007081D03*
X016599Y007156D03*
D118*
X016713Y007071D03*
X016716Y007069D03*
X016718Y007066D03*
X019623Y005866D03*
X019636Y005844D03*
X019638Y005839D03*
X019816Y005984D03*
X020018Y005569D03*
X020023Y005564D03*
X018631Y005714D03*
X018631Y005716D03*
X018631Y005719D03*
X018631Y005721D03*
X018631Y005724D03*
X018628Y005726D03*
X018628Y005729D03*
X018011Y005636D03*
X018008Y005634D03*
X018008Y005631D03*
X018008Y005629D03*
X018008Y005626D03*
X017531Y005396D03*
X015846Y003804D03*
D119*
X016582Y003806D03*
X016614Y003846D03*
X017179Y004696D03*
X017179Y004699D03*
X017202Y004769D03*
X017269Y005114D03*
X017269Y005116D03*
X017269Y005126D03*
X017272Y005139D03*
X017274Y005164D03*
X017274Y005174D03*
X017274Y005176D03*
X017284Y005284D03*
X017284Y005286D03*
X017287Y005344D03*
X017287Y005346D03*
X017287Y005366D03*
X017277Y005704D03*
X017277Y005706D03*
X017272Y005759D03*
X017272Y005761D03*
X017272Y005764D03*
X017272Y005766D03*
X017272Y005769D03*
X017269Y005779D03*
X017269Y005789D03*
X017262Y005841D03*
X017262Y005844D03*
X017232Y006031D03*
X017222Y006089D03*
X017217Y006104D03*
X017217Y006106D03*
X017209Y006134D03*
X017209Y006136D03*
X017209Y006139D03*
X017209Y006141D03*
X017209Y006144D03*
X017199Y006176D03*
X017199Y006179D03*
X017197Y006184D03*
X017197Y006186D03*
X017197Y006189D03*
X017197Y006191D03*
X017189Y006214D03*
X017189Y006216D03*
X017187Y006224D03*
X017184Y006229D03*
X017184Y006231D03*
X017184Y006234D03*
X017184Y006236D03*
X017182Y006239D03*
X017182Y006241D03*
X017179Y006254D03*
X017177Y006256D03*
X017177Y006259D03*
X017174Y006269D03*
X017169Y006281D03*
X017169Y006284D03*
X017162Y006311D03*
X017159Y006316D03*
X017159Y006319D03*
X017154Y006336D03*
X017152Y006341D03*
X017147Y006351D03*
X017147Y006354D03*
X017144Y006356D03*
X017144Y006359D03*
X017144Y006361D03*
X017142Y006364D03*
X017142Y006366D03*
X017142Y006369D03*
X017142Y006371D03*
X017142Y006374D03*
X017139Y006376D03*
X017139Y006379D03*
X017137Y006381D03*
X017137Y006384D03*
X017132Y006399D03*
X017129Y006404D03*
X017127Y006409D03*
X017124Y006416D03*
X017119Y006431D03*
X017119Y006434D03*
X017117Y006436D03*
X017117Y006439D03*
X017112Y006449D03*
X017734Y005926D03*
X018329Y005944D03*
X018629Y005811D03*
X019842Y006009D03*
X020029Y005416D03*
X016132Y005246D03*
X016117Y005224D03*
X015982Y005039D03*
X015954Y004996D03*
X015947Y004984D03*
X015947Y004981D03*
X015947Y004979D03*
D120*
X018011Y005641D03*
X018011Y005644D03*
X018011Y005646D03*
X018011Y005649D03*
X018011Y005651D03*
X018628Y005739D03*
X018628Y005741D03*
X018628Y005744D03*
X018758Y005489D03*
X018861Y005399D03*
X019628Y005849D03*
X020028Y005559D03*
X020028Y005556D03*
X020031Y005554D03*
X020038Y005446D03*
X020033Y005441D03*
X016728Y007059D03*
X016598Y007159D03*
X015831Y003819D03*
X015838Y003811D03*
D121*
X016576Y003816D03*
X016588Y003814D03*
X016588Y003826D03*
X016618Y003844D03*
X015756Y004521D03*
X015756Y004524D03*
X015756Y004529D03*
X015756Y004531D03*
X015756Y004534D03*
X015778Y004609D03*
X015791Y004646D03*
X015791Y004649D03*
X015813Y004709D03*
X015816Y004714D03*
X015816Y004716D03*
X015838Y004766D03*
X015838Y004769D03*
X015838Y004771D03*
X015838Y004774D03*
X015838Y004776D03*
X015841Y004779D03*
X015841Y004781D03*
X015843Y004784D03*
X015846Y004786D03*
X015846Y004789D03*
X015846Y004791D03*
X015848Y004794D03*
X015853Y004804D03*
X015856Y004811D03*
X015858Y004819D03*
X015866Y004836D03*
X015866Y004839D03*
X015876Y004854D03*
X015883Y004869D03*
X015888Y004876D03*
X015891Y004881D03*
X015893Y004889D03*
X015908Y004919D03*
X015913Y004926D03*
X015921Y004939D03*
X015926Y004944D03*
X015926Y004946D03*
X015926Y004949D03*
X015933Y004964D03*
X015956Y005009D03*
X015966Y005019D03*
X015968Y005024D03*
X015986Y005051D03*
X015986Y005054D03*
X015986Y005056D03*
X015993Y005064D03*
X016001Y005076D03*
X016023Y005106D03*
X016031Y005116D03*
X016041Y005129D03*
X016041Y005131D03*
X016056Y005146D03*
X016091Y005194D03*
X016091Y005196D03*
X016091Y005199D03*
X017481Y005506D03*
X017481Y005509D03*
X017481Y005551D03*
X017478Y005559D03*
X017478Y005561D03*
X017478Y005564D03*
X017481Y005571D03*
X017481Y005574D03*
X017481Y005576D03*
X017481Y005579D03*
X017483Y005586D03*
X017483Y005589D03*
X017483Y005591D03*
X017483Y005594D03*
X017491Y005656D03*
X017491Y005659D03*
X017491Y005661D03*
X017496Y005686D03*
X017503Y005724D03*
X017506Y005731D03*
X017508Y005744D03*
X017511Y005751D03*
X017513Y005766D03*
X017516Y005769D03*
X017518Y005779D03*
X017518Y005781D03*
X017521Y005789D03*
X017523Y005791D03*
X017523Y005794D03*
X017526Y005799D03*
X017526Y005801D03*
X017526Y005804D03*
X017531Y005816D03*
X017728Y005934D03*
X018013Y005909D03*
X018326Y005941D03*
X018633Y005804D03*
X018581Y005544D03*
X018581Y005541D03*
X018581Y005539D03*
X018576Y005529D03*
X018153Y005366D03*
X018076Y005466D03*
X018073Y005469D03*
X018073Y005471D03*
X018071Y005474D03*
X018066Y005489D03*
X019836Y006004D03*
X019903Y006419D03*
X016998Y006689D03*
X016998Y006691D03*
X016996Y006696D03*
X016993Y006701D03*
X016991Y006706D03*
X016981Y006724D03*
X016973Y006739D03*
X016971Y006741D03*
X016971Y006744D03*
X016966Y006746D03*
X016953Y006766D03*
X016951Y006771D03*
X016951Y006774D03*
X016946Y006781D03*
X016941Y006789D03*
X016938Y006794D03*
X016933Y006801D03*
X016931Y006804D03*
X016591Y007171D03*
D122*
X016853Y006919D03*
X016856Y006914D03*
X016856Y006911D03*
X016863Y006906D03*
X016863Y006904D03*
X016881Y006881D03*
X016883Y006879D03*
X016883Y006876D03*
X016886Y006874D03*
X016888Y006871D03*
X016888Y006869D03*
X016891Y006866D03*
X016893Y006864D03*
X016896Y006859D03*
X016898Y006856D03*
X016901Y006851D03*
X016903Y006849D03*
X016908Y006841D03*
X017578Y005914D03*
X017563Y005891D03*
X017561Y005889D03*
X017561Y005886D03*
X017558Y005881D03*
X017556Y005879D03*
X017556Y005876D03*
X017551Y005864D03*
X018011Y005901D03*
X018011Y005904D03*
X018326Y005934D03*
X018366Y005714D03*
X018366Y005711D03*
X018368Y005706D03*
X018368Y005704D03*
X018368Y005701D03*
X018368Y005699D03*
X018371Y005689D03*
X018373Y005681D03*
X018373Y005679D03*
X018376Y005671D03*
X018378Y005661D03*
X018378Y005659D03*
X018381Y005644D03*
X018381Y005641D03*
X018386Y005619D03*
X018388Y005616D03*
X018388Y005614D03*
X018101Y005429D03*
X018103Y005424D03*
X018096Y005434D03*
X018093Y005439D03*
X018091Y005441D03*
X017936Y005519D03*
X017933Y005516D03*
X017933Y005514D03*
X017931Y005509D03*
X017928Y005506D03*
X017496Y005431D03*
X017493Y005436D03*
X017493Y005439D03*
X016006Y005089D03*
X015826Y004756D03*
X015826Y004754D03*
X015823Y004746D03*
X015823Y004744D03*
X015808Y004706D03*
X015796Y004669D03*
X015743Y004494D03*
X015741Y004486D03*
X015741Y004484D03*
X015738Y004471D03*
X015731Y004416D03*
X015731Y004414D03*
X015731Y004411D03*
X015728Y004401D03*
X015726Y004381D03*
X015721Y004344D03*
X015721Y004341D03*
X015718Y004316D03*
X015718Y004296D03*
X015718Y004294D03*
X015718Y004291D03*
X015716Y004269D03*
X015716Y004259D03*
X015716Y004246D03*
X015716Y004244D03*
X015716Y004241D03*
X015716Y004239D03*
X015716Y004236D03*
X015716Y004234D03*
X015716Y004231D03*
X015716Y004229D03*
X015716Y004226D03*
X015716Y004224D03*
X015718Y004209D03*
X015718Y004206D03*
X015718Y004204D03*
X015718Y004194D03*
X015718Y004191D03*
X015718Y004166D03*
X015718Y004164D03*
X015718Y004161D03*
X015721Y004156D03*
X015721Y004154D03*
X015721Y004151D03*
X015721Y004149D03*
X015721Y004139D03*
X015721Y004136D03*
X015721Y004134D03*
X015721Y004131D03*
X015728Y004074D03*
X015731Y004061D03*
X015738Y004029D03*
X015738Y004026D03*
X016591Y003824D03*
X020028Y005424D03*
X019108Y005769D03*
X019116Y005806D03*
D123*
X019148Y005664D03*
X019151Y005661D03*
X019238Y005584D03*
X018753Y005494D03*
X018753Y005491D03*
X018751Y005496D03*
X018746Y005499D03*
X018746Y005501D03*
X018746Y005504D03*
X018628Y005746D03*
X018628Y005749D03*
X018628Y005751D03*
X018628Y005754D03*
X018013Y005666D03*
X018013Y005664D03*
X018013Y005661D03*
X017833Y005406D03*
X017831Y005404D03*
X017826Y005399D03*
X017821Y005396D03*
X017523Y005401D03*
X017666Y006011D03*
X019823Y005991D03*
X020041Y005449D03*
X020033Y005434D03*
X016741Y007049D03*
X016738Y007051D03*
X015821Y003834D03*
D124*
X015812Y003841D03*
X015809Y003849D03*
X015804Y003851D03*
X015804Y003854D03*
X015804Y003856D03*
X018862Y005396D03*
X018729Y005521D03*
X018724Y005529D03*
X018719Y005536D03*
X018509Y005426D03*
X018429Y005516D03*
X018429Y005519D03*
X018014Y005686D03*
X018014Y005689D03*
X018014Y005691D03*
X017852Y005421D03*
X017849Y005419D03*
X017844Y005414D03*
X018627Y005764D03*
X018627Y005766D03*
X018907Y006129D03*
X019134Y005679D03*
X019139Y005671D03*
X019239Y005579D03*
X020042Y005541D03*
X020044Y005539D03*
X020047Y005536D03*
X020047Y005534D03*
X020049Y005456D03*
X020049Y005454D03*
X019884Y006411D03*
X019887Y006414D03*
X016754Y007034D03*
X016752Y007036D03*
D125*
X016758Y007031D03*
X016758Y007029D03*
X016761Y007026D03*
X016771Y007019D03*
X016776Y007011D03*
X016596Y007164D03*
X017668Y006014D03*
X018626Y005779D03*
X018626Y005776D03*
X018626Y005774D03*
X018626Y005771D03*
X018626Y005769D03*
X018708Y005554D03*
X018711Y005551D03*
X018711Y005549D03*
X018711Y005546D03*
X018713Y005544D03*
X018716Y005541D03*
X018723Y005531D03*
X018726Y005526D03*
X018728Y005524D03*
X018508Y005424D03*
X017863Y005431D03*
X017861Y005429D03*
X017846Y005416D03*
X017518Y005406D03*
X019136Y005676D03*
X019138Y005674D03*
X020048Y005531D03*
X020048Y005529D03*
X015803Y003859D03*
X015793Y003871D03*
X015793Y003874D03*
D126*
X016628Y003864D03*
X016641Y003871D03*
X017058Y004416D03*
X017061Y004419D03*
X017068Y004436D03*
X017073Y004441D03*
X017078Y004446D03*
X017078Y004449D03*
X017083Y004459D03*
X018161Y005356D03*
X019128Y005856D03*
X019848Y006016D03*
X018016Y005924D03*
D127*
X018877Y005381D03*
X017062Y004434D03*
X016967Y004259D03*
X016962Y004249D03*
X016642Y003881D03*
X019942Y006426D03*
D128*
X018636Y005821D03*
X018338Y005956D03*
X017746Y005914D03*
X018513Y005409D03*
X017001Y004321D03*
X016993Y004311D03*
X016981Y004284D03*
X016968Y004261D03*
X016653Y003889D03*
D129*
X016673Y003909D03*
X016806Y004049D03*
X016813Y004054D03*
X016981Y004294D03*
X016983Y004299D03*
X016988Y004309D03*
X016991Y004314D03*
X016998Y004326D03*
X017008Y004334D03*
X017006Y004341D03*
X017043Y004406D03*
X017051Y004424D03*
X016123Y005259D03*
X016121Y005256D03*
X016153Y005304D03*
X018171Y005351D03*
D130*
X018134Y005386D03*
X018117Y005411D03*
X018112Y005414D03*
X018112Y005416D03*
X018109Y005419D03*
X017924Y005504D03*
X017922Y005501D03*
X017922Y005499D03*
X017919Y005494D03*
X017917Y005491D03*
X017914Y005489D03*
X017914Y005486D03*
X017912Y005484D03*
X017909Y005481D03*
X018014Y005734D03*
X018014Y005736D03*
X018017Y005744D03*
X018014Y005756D03*
X018014Y005759D03*
X018014Y005761D03*
X018014Y005764D03*
X018012Y005856D03*
X018012Y005859D03*
X018337Y005871D03*
X018339Y005859D03*
X018339Y005856D03*
X018342Y005849D03*
X018342Y005846D03*
X018342Y005844D03*
X018344Y005836D03*
X018344Y005834D03*
X018344Y005831D03*
X018344Y005829D03*
X018344Y005826D03*
X018347Y005819D03*
X018347Y005816D03*
X018347Y005814D03*
X018347Y005811D03*
X018349Y005806D03*
X018349Y005804D03*
X018349Y005801D03*
X018352Y005796D03*
X018354Y005776D03*
X018392Y005604D03*
X018392Y005601D03*
X018394Y005594D03*
X018402Y005571D03*
X018407Y005556D03*
X018407Y005554D03*
X018407Y005551D03*
X018627Y005791D03*
X018902Y006126D03*
X019112Y005719D03*
X020057Y005511D03*
X020062Y005504D03*
X020062Y005501D03*
X020064Y005494D03*
X020062Y005484D03*
X020062Y005481D03*
X020059Y005476D03*
X020059Y005474D03*
X017669Y006016D03*
X017584Y005926D03*
X017582Y005924D03*
X017582Y005921D03*
X017499Y005429D03*
X017499Y005426D03*
X017502Y005424D03*
X017504Y005421D03*
X017507Y005419D03*
X016849Y006921D03*
X016847Y006926D03*
X016844Y006931D03*
X016839Y006936D03*
X016837Y006941D03*
X016834Y006944D03*
X016834Y006946D03*
X016832Y006949D03*
X016829Y006951D03*
X016827Y006954D03*
X016824Y006956D03*
X016822Y006961D03*
X016817Y006966D03*
X016814Y006969D03*
X015747Y003994D03*
X015747Y003991D03*
X015747Y003984D03*
X015752Y003969D03*
X015752Y003966D03*
X015752Y003964D03*
X015754Y003961D03*
X015757Y003956D03*
X015757Y003954D03*
X015757Y003951D03*
X015764Y003941D03*
X015764Y003939D03*
X015767Y003929D03*
X015774Y003914D03*
D131*
X015724Y004119D03*
X015724Y004121D03*
X015722Y004129D03*
X015722Y004141D03*
X015722Y004144D03*
X015722Y004146D03*
X015719Y004169D03*
X015719Y004189D03*
X015719Y004211D03*
X015717Y004219D03*
X015717Y004221D03*
X015717Y004249D03*
X015717Y004251D03*
X015717Y004254D03*
X015717Y004256D03*
X015717Y004261D03*
X015717Y004264D03*
X015717Y004266D03*
X015719Y004284D03*
X015719Y004286D03*
X015719Y004289D03*
X015717Y004299D03*
X015717Y004301D03*
X015717Y004304D03*
X015717Y004306D03*
X015719Y004309D03*
X015719Y004311D03*
X015719Y004314D03*
X015719Y004319D03*
X015719Y004321D03*
X015719Y004324D03*
X015719Y004326D03*
X015722Y004346D03*
X015722Y004349D03*
X015722Y004351D03*
X015722Y004354D03*
X015727Y004384D03*
X015727Y004386D03*
X015727Y004389D03*
X015729Y004399D03*
X015729Y004404D03*
X015729Y004406D03*
X015729Y004409D03*
X015729Y004419D03*
X015732Y004426D03*
X015732Y004429D03*
X015732Y004431D03*
X015732Y004434D03*
X015732Y004436D03*
X015734Y004441D03*
X015737Y004444D03*
X015737Y004446D03*
X015737Y004449D03*
X015737Y004451D03*
X015737Y004454D03*
X015739Y004466D03*
X015739Y004469D03*
X015742Y004489D03*
X015742Y004491D03*
X015744Y004496D03*
X015744Y004499D03*
X015747Y004509D03*
X015762Y004561D03*
X015767Y004576D03*
X015769Y004591D03*
X015769Y004594D03*
X015769Y004596D03*
X015769Y004599D03*
X015777Y004616D03*
X015784Y004641D03*
X015794Y004666D03*
X015797Y004671D03*
X015797Y004674D03*
X015797Y004676D03*
X015797Y004679D03*
X015797Y004681D03*
X015802Y004686D03*
X015802Y004689D03*
X015804Y004691D03*
X015807Y004704D03*
X015817Y004724D03*
X015817Y004726D03*
X015819Y004731D03*
X015819Y004734D03*
X015819Y004736D03*
X015819Y004739D03*
X015819Y004741D03*
X015824Y004749D03*
X015824Y004751D03*
X015829Y004759D03*
X015859Y004826D03*
X015859Y004829D03*
X015862Y004831D03*
X015927Y004956D03*
X015927Y004959D03*
X016002Y005081D03*
X016004Y005086D03*
X016044Y005136D03*
X017489Y005449D03*
X017492Y005444D03*
X017492Y005441D03*
X017494Y005434D03*
X017659Y005306D03*
X018062Y005496D03*
X018062Y005499D03*
X018062Y005501D03*
X018069Y005484D03*
X018089Y005446D03*
X018089Y005444D03*
X018102Y005426D03*
X018149Y005371D03*
X018572Y005521D03*
X018377Y005664D03*
X018377Y005666D03*
X018377Y005669D03*
X018629Y005799D03*
X018012Y005906D03*
X017554Y005874D03*
X017554Y005871D03*
X017554Y005869D03*
X017552Y005866D03*
X017549Y005861D03*
X017549Y005859D03*
X017547Y005856D03*
X017539Y005834D03*
X019119Y005831D03*
X019119Y005829D03*
X016917Y006829D03*
X016914Y006831D03*
X016912Y006834D03*
X016909Y006839D03*
X016907Y006844D03*
X016904Y006846D03*
X016899Y006854D03*
X016894Y006861D03*
X016592Y007169D03*
D132*
X016911Y006836D03*
X016918Y006826D03*
X016921Y006824D03*
X016923Y006821D03*
X016923Y006819D03*
X016926Y006816D03*
X016928Y006811D03*
X016928Y006809D03*
X016958Y006761D03*
X016961Y006759D03*
X016963Y006756D03*
X016963Y006754D03*
X016983Y006719D03*
X017671Y006021D03*
X017546Y005854D03*
X017546Y005851D03*
X017543Y005849D03*
X017541Y005846D03*
X017541Y005844D03*
X017541Y005841D03*
X017541Y005839D03*
X017541Y005836D03*
X017538Y005831D03*
X017536Y005826D03*
X017481Y005491D03*
X017481Y005489D03*
X017486Y005466D03*
X017486Y005464D03*
X017486Y005461D03*
X017486Y005459D03*
X017486Y005456D03*
X017488Y005451D03*
X017491Y005446D03*
X018056Y005519D03*
X018058Y005511D03*
X018061Y005504D03*
X018063Y005494D03*
X018068Y005486D03*
X018081Y005456D03*
X018083Y005454D03*
X018151Y005369D03*
X018571Y005514D03*
X018571Y005516D03*
X018571Y005519D03*
X018866Y005389D03*
X018631Y005801D03*
X018326Y005936D03*
X018326Y005939D03*
X018898Y006124D03*
X019121Y005834D03*
X019833Y005999D03*
X016046Y005139D03*
X016043Y005134D03*
X016016Y005099D03*
X016008Y005091D03*
X016003Y005084D03*
X015996Y005069D03*
X015928Y004961D03*
X015926Y004954D03*
X015926Y004951D03*
X015868Y004844D03*
X015863Y004834D03*
X015858Y004824D03*
X015818Y004729D03*
X015816Y004721D03*
X015806Y004701D03*
X015806Y004699D03*
X015806Y004696D03*
X015806Y004694D03*
X015801Y004684D03*
X015793Y004664D03*
X015791Y004656D03*
X015791Y004654D03*
X015783Y004639D03*
X015783Y004636D03*
X015783Y004634D03*
X015783Y004631D03*
X015783Y004629D03*
X015778Y004614D03*
X015768Y004589D03*
X015768Y004586D03*
X015766Y004574D03*
X015766Y004571D03*
X015763Y004569D03*
X015763Y004566D03*
X015763Y004564D03*
X015761Y004559D03*
X015761Y004556D03*
X015761Y004554D03*
X015758Y004549D03*
X015756Y004546D03*
X015756Y004544D03*
X015756Y004541D03*
X015756Y004539D03*
X015753Y004526D03*
X015748Y004514D03*
X015748Y004511D03*
X015746Y004506D03*
X015746Y004504D03*
X015746Y004501D03*
X015738Y004456D03*
X015733Y004439D03*
X015731Y004421D03*
X015728Y004396D03*
X015728Y004394D03*
X015728Y004391D03*
X015726Y004379D03*
X015726Y004376D03*
X015726Y004374D03*
X015726Y004371D03*
X015726Y004361D03*
X015723Y004359D03*
X015723Y004356D03*
X015723Y004339D03*
X015723Y004336D03*
X015723Y004334D03*
X015721Y004329D03*
X015721Y004281D03*
X015721Y004279D03*
X015721Y004276D03*
X015718Y004274D03*
X015718Y004271D03*
X015718Y004216D03*
X015718Y004214D03*
X015721Y004186D03*
X015721Y004184D03*
X015721Y004181D03*
X015721Y004179D03*
X015721Y004176D03*
X015721Y004174D03*
X015721Y004171D03*
X015723Y004126D03*
X015723Y004124D03*
D133*
X017024Y004359D03*
X017059Y004421D03*
X017082Y004464D03*
D134*
X015981Y005036D03*
X015978Y005034D03*
X015973Y005026D03*
X015983Y005041D03*
X015983Y005044D03*
X015956Y004999D03*
X015953Y004994D03*
X015951Y004991D03*
X015948Y004986D03*
X016118Y005226D03*
X017283Y005676D03*
X017733Y005929D03*
X017161Y006314D03*
X017148Y006344D03*
X017148Y006346D03*
X017148Y006349D03*
X017131Y006401D03*
X017128Y006406D03*
X017126Y006411D03*
X017126Y006414D03*
X017123Y006419D03*
X017123Y006421D03*
X017123Y006424D03*
X017121Y006426D03*
X017121Y006429D03*
X017111Y006451D03*
X017111Y006454D03*
X017111Y006456D03*
X017108Y006464D03*
X017106Y006466D03*
X017103Y006469D03*
X017103Y006471D03*
X017101Y006476D03*
X017096Y006486D03*
X017093Y006491D03*
X017093Y006494D03*
X017093Y006496D03*
X017093Y006499D03*
X017088Y006504D03*
X017086Y006509D03*
X017086Y006511D03*
X017083Y006514D03*
X017083Y006516D03*
X017081Y006521D03*
X018631Y005809D03*
X018896Y006121D03*
X019123Y005844D03*
X019841Y006006D03*
X018508Y005414D03*
X018161Y005359D03*
D135*
X018506Y005444D03*
X018638Y005649D03*
X018638Y005651D03*
X018003Y005576D03*
X017656Y005314D03*
X019221Y005606D03*
X019693Y005796D03*
X019706Y005786D03*
X019728Y005774D03*
X019731Y005771D03*
X019743Y005764D03*
X019756Y005756D03*
X019678Y005906D03*
X019673Y005904D03*
X019708Y005921D03*
X019801Y005971D03*
X016608Y007144D03*
D136*
X016622Y007126D03*
X019809Y006391D03*
X019787Y005961D03*
X019747Y005936D03*
X018832Y005436D03*
X018832Y005434D03*
X018644Y005609D03*
X018502Y005461D03*
X018502Y005459D03*
X017657Y005319D03*
D137*
X017656Y005324D03*
X018498Y005481D03*
X017658Y005959D03*
D138*
X018496Y005509D03*
X017658Y005329D03*
D139*
X017659Y005331D03*
D140*
X017659Y005334D03*
X019684Y006354D03*
X019704Y006359D03*
X019727Y006364D03*
D141*
X019623Y006336D03*
X017661Y005336D03*
D142*
X017662Y005339D03*
X019487Y006304D03*
X019527Y006314D03*
D143*
X019458Y006294D03*
X017661Y005344D03*
D144*
X017664Y005346D03*
X019414Y006284D03*
D145*
X019419Y006286D03*
X017664Y005349D03*
D146*
X017664Y005351D03*
X019362Y006274D03*
D147*
X017666Y005354D03*
D148*
X017666Y005356D03*
D149*
X017668Y005359D03*
D150*
X017668Y005361D03*
X019008Y006184D03*
X019326Y006264D03*
D151*
X019298Y006259D03*
X017668Y005364D03*
D152*
X017668Y005366D03*
X019016Y006186D03*
D153*
X017669Y005369D03*
D154*
X017667Y005371D03*
D155*
X017667Y005374D03*
D156*
X017669Y005376D03*
X019254Y006251D03*
D157*
X017671Y005379D03*
D158*
X017671Y005381D03*
X019056Y006201D03*
D159*
X019649Y005889D03*
X019659Y005896D03*
X019672Y005811D03*
X019789Y005736D03*
X019797Y005731D03*
X019802Y005729D03*
X019804Y005726D03*
X019827Y005711D03*
X019839Y005701D03*
X019862Y005686D03*
X019224Y005596D03*
X019179Y005644D03*
X018852Y005411D03*
X018634Y005669D03*
X018634Y005671D03*
X018004Y005594D03*
X018004Y005591D03*
X018004Y005589D03*
X018004Y005586D03*
X017552Y005386D03*
X017667Y005999D03*
X016604Y007149D03*
D160*
X016678Y007094D03*
X018918Y006136D03*
X019656Y005891D03*
X019658Y005894D03*
X019663Y005819D03*
X019781Y005741D03*
X019786Y005739D03*
X019866Y005684D03*
X019871Y005681D03*
X019873Y005679D03*
X019876Y005676D03*
X019883Y005674D03*
X019886Y005671D03*
X019888Y005669D03*
X019893Y005666D03*
X019896Y005664D03*
X019806Y005976D03*
X018853Y005409D03*
X018788Y005464D03*
X018786Y005466D03*
X018506Y005439D03*
X018003Y005596D03*
X017796Y005386D03*
D161*
X017998Y005561D03*
X018506Y005451D03*
X018641Y005631D03*
X018641Y005634D03*
X018641Y005636D03*
X018841Y005424D03*
X018843Y005421D03*
X018846Y005419D03*
X019206Y005621D03*
X019206Y005624D03*
X019211Y005616D03*
X019731Y005931D03*
X018926Y006141D03*
X016616Y007134D03*
X016616Y007136D03*
D162*
X018926Y006144D03*
X019766Y005949D03*
X019793Y005964D03*
X019793Y005966D03*
X019818Y006394D03*
X019826Y006396D03*
X019196Y005636D03*
X019203Y005626D03*
X018838Y005426D03*
X018811Y005454D03*
X018641Y005621D03*
X018503Y005454D03*
X017663Y005986D03*
D163*
X018642Y005619D03*
X018642Y005616D03*
X018502Y005456D03*
X018837Y005429D03*
X019204Y005629D03*
X019762Y005946D03*
X019782Y005956D03*
X019784Y005959D03*
X017999Y005551D03*
X017999Y005549D03*
X016617Y007131D03*
D164*
X016629Y007119D03*
X016632Y007116D03*
X019789Y006384D03*
X019807Y006389D03*
X018829Y005441D03*
X018502Y005464D03*
X017997Y005539D03*
D165*
X017996Y005531D03*
X018501Y005469D03*
X018646Y005594D03*
X019766Y006376D03*
X019781Y006381D03*
X016641Y007109D03*
D166*
X017662Y005969D03*
X018649Y005579D03*
X018649Y005576D03*
X018649Y005574D03*
X018499Y005474D03*
X017994Y005521D03*
X017994Y005524D03*
D167*
X018498Y005476D03*
X018648Y005569D03*
X018648Y005571D03*
X017661Y005964D03*
X017661Y005966D03*
X018938Y006151D03*
D168*
X018939Y006154D03*
X019759Y006374D03*
X018499Y005479D03*
X017659Y005961D03*
D169*
X017657Y005956D03*
X018499Y005484D03*
X018649Y005566D03*
D170*
X018653Y005556D03*
X018498Y005491D03*
X017656Y005944D03*
X017656Y005946D03*
X018941Y006156D03*
X019753Y006371D03*
D171*
X018496Y005496D03*
D172*
X018497Y005499D03*
X017654Y005939D03*
X018944Y006159D03*
D173*
X018496Y005506D03*
X018496Y005504D03*
X018496Y005501D03*
D174*
X018968Y006166D03*
X018971Y006169D03*
X019478Y006301D03*
X019521Y006311D03*
X019561Y006321D03*
D175*
X018977Y006171D03*
D176*
X018982Y006174D03*
D177*
X018986Y006176D03*
D178*
X018991Y006179D03*
X019406Y006281D03*
D179*
X018997Y006181D03*
D180*
X019019Y006189D03*
X019269Y006254D03*
D181*
X019036Y006194D03*
D182*
X019039Y006196D03*
X019049Y006199D03*
X019214Y006244D03*
D183*
X019161Y006231D03*
X019141Y006226D03*
X019118Y006221D03*
X019101Y006216D03*
X019088Y006211D03*
X019066Y006204D03*
D184*
X019069Y006206D03*
D185*
X019084Y006209D03*
X019089Y006214D03*
X019179Y006236D03*
D186*
X019228Y006246D03*
X019113Y006219D03*
D187*
X019133Y006224D03*
X019168Y006234D03*
D188*
X019148Y006229D03*
D189*
X019189Y006239D03*
D190*
X019194Y006241D03*
X019239Y006249D03*
D191*
X019279Y006256D03*
X019314Y006261D03*
D192*
X019347Y006269D03*
D193*
X019382Y006276D03*
D194*
X019393Y006279D03*
D195*
X019446Y006291D03*
X019471Y006299D03*
D196*
X019506Y006309D03*
X019533Y006316D03*
X019618Y006334D03*
D197*
X019587Y006329D03*
X019572Y006324D03*
D198*
X019598Y006331D03*
X019643Y006341D03*
X019651Y006344D03*
X019656Y006346D03*
X019676Y006351D03*
D199*
X019714Y006361D03*
X019737Y006366D03*
D200*
X019743Y006369D03*
D201*
X019611Y004141D02*
X020111Y004141D01*
X020361Y003891D01*
X020611Y004141D01*
X021111Y004141D01*
X021361Y003891D01*
X021611Y004141D01*
X022111Y004141D01*
X022361Y003891D01*
X022361Y003391D01*
X022111Y003141D01*
X021611Y003141D01*
X021361Y003391D01*
X021111Y003141D01*
X021361Y002891D01*
X021611Y003141D01*
X021361Y002891D02*
X021361Y002391D01*
X021111Y002141D01*
X020611Y002141D01*
X020361Y002391D01*
X020111Y002141D01*
X019611Y002141D01*
X019361Y002391D01*
X019111Y002141D01*
X018611Y002141D01*
X018361Y002391D01*
X018111Y002141D01*
X017611Y002141D01*
X017361Y002391D01*
X017361Y002891D01*
X017611Y003141D01*
X017361Y003391D01*
X017361Y003891D01*
X017611Y004141D01*
X018111Y004141D01*
X018361Y003891D01*
X018611Y004141D01*
X019111Y004141D01*
X019361Y003891D01*
X019611Y004141D01*
X019361Y003891D02*
X019361Y003391D01*
X019111Y003141D01*
X019361Y002891D01*
X019611Y003141D01*
X020111Y003141D01*
X020361Y002891D01*
X020611Y003141D01*
X021111Y003141D01*
X021361Y003391D02*
X021361Y003891D01*
X020361Y003891D02*
X020361Y003391D01*
X020111Y003141D01*
X020361Y003391D02*
X020611Y003141D01*
X020361Y002891D02*
X020361Y002391D01*
X021361Y002391D02*
X021611Y002141D01*
X022111Y002141D01*
X022361Y002391D01*
X022361Y002891D01*
X022111Y003141D01*
X024143Y002570D02*
X024143Y002484D01*
X024187Y002440D01*
X024187Y002319D02*
X024143Y002276D01*
X024143Y002189D01*
X024187Y002145D01*
X024360Y002145D01*
X024404Y002189D01*
X024404Y002276D01*
X024360Y002319D01*
X024360Y002440D02*
X024404Y002484D01*
X024404Y002570D01*
X024360Y002614D01*
X024317Y002614D01*
X024274Y002570D01*
X024274Y002527D01*
X024274Y002570D02*
X024230Y002614D01*
X024187Y002614D01*
X024143Y002570D01*
X024143Y002036D02*
X024143Y001949D01*
X024143Y001992D02*
X024404Y001992D01*
X024404Y001949D02*
X024404Y002036D01*
X028080Y002036D02*
X028080Y001949D01*
X028080Y001992D02*
X028341Y001992D01*
X028341Y001949D02*
X028341Y002036D01*
X028297Y002145D02*
X028341Y002189D01*
X028341Y002276D01*
X028297Y002319D01*
X028341Y002440D02*
X028167Y002614D01*
X028124Y002614D01*
X028080Y002570D01*
X028080Y002484D01*
X028124Y002440D01*
X028124Y002319D02*
X028080Y002276D01*
X028080Y002189D01*
X028124Y002145D01*
X028297Y002145D01*
X028341Y002440D02*
X028341Y002614D01*
X032017Y002527D02*
X032278Y002527D01*
X032278Y002440D02*
X032278Y002614D01*
X032104Y002440D02*
X032017Y002527D01*
X032061Y002319D02*
X032017Y002276D01*
X032017Y002189D01*
X032061Y002145D01*
X032234Y002145D01*
X032278Y002189D01*
X032278Y002276D01*
X032234Y002319D01*
X032278Y002036D02*
X032278Y001949D01*
X032278Y001992D02*
X032017Y001992D01*
X032017Y001949D02*
X032017Y002036D01*
X036609Y003946D02*
X036789Y004206D01*
X036814Y004217D02*
X038189Y004217D01*
X038199Y004186D02*
X038369Y003946D01*
X038179Y003766D01*
X037939Y003926D01*
X037919Y003976D02*
X037669Y003876D01*
X037569Y003576D01*
X037619Y003576D01*
X037369Y003576D01*
X037319Y003876D01*
X037019Y003976D01*
X036819Y003776D01*
X036669Y003926D01*
X036819Y004226D01*
X036669Y004526D01*
X036669Y004476D01*
X036419Y004526D01*
X036419Y004776D01*
X036719Y004776D01*
X036819Y005076D01*
X036669Y005326D01*
X036769Y005476D01*
X037069Y005326D01*
X037319Y005426D01*
X037369Y005726D01*
X037619Y005726D01*
X037619Y005426D01*
X037969Y005326D01*
X038169Y005476D01*
X038319Y005326D01*
X038169Y005126D01*
X038219Y005026D01*
X037819Y004826D01*
X037619Y005026D01*
X037369Y005026D01*
X037119Y004876D01*
X037069Y004626D01*
X036419Y004626D01*
X036419Y004568D02*
X037089Y004568D01*
X037069Y004626D02*
X037169Y004326D01*
X037169Y004376D01*
X037419Y004226D01*
X037719Y004326D01*
X037819Y004426D01*
X038219Y004276D01*
X038169Y004176D01*
X038319Y003976D01*
X038169Y003826D01*
X037919Y003976D01*
X038006Y003924D02*
X038267Y003924D01*
X038314Y003983D02*
X036697Y003983D01*
X036671Y003924D02*
X036967Y003924D01*
X037049Y003936D02*
X036789Y003756D01*
X036609Y003946D01*
X036730Y003866D02*
X036908Y003866D01*
X036850Y003807D02*
X036788Y003807D01*
X036726Y004041D02*
X038271Y004041D01*
X038227Y004100D02*
X036756Y004100D01*
X036785Y004158D02*
X038183Y004158D01*
X038199Y004186D02*
X038259Y004286D01*
X037809Y004486D01*
X037785Y004392D02*
X037911Y004392D01*
X038067Y004334D02*
X037726Y004334D01*
X037565Y004275D02*
X038218Y004275D01*
X037788Y003924D02*
X037176Y003924D01*
X037321Y003866D02*
X037665Y003866D01*
X037669Y003826D02*
X037619Y003526D01*
X037359Y003526D01*
X037299Y003826D01*
X037331Y003807D02*
X037646Y003807D01*
X037626Y003749D02*
X037340Y003749D01*
X037350Y003690D02*
X037607Y003690D01*
X037587Y003632D02*
X037360Y003632D01*
X038104Y003866D02*
X038208Y003866D01*
X037338Y004275D02*
X036795Y004275D01*
X036765Y004334D02*
X037167Y004334D01*
X037169Y004334D02*
X037241Y004334D01*
X037147Y004392D02*
X036736Y004392D01*
X036707Y004451D02*
X037128Y004451D01*
X037108Y004509D02*
X036678Y004509D01*
X036669Y004509D02*
X036506Y004509D01*
X036369Y004506D02*
X036369Y004776D01*
X036689Y004826D01*
X036727Y004802D02*
X037104Y004802D01*
X037116Y004860D02*
X036747Y004860D01*
X036766Y004919D02*
X037189Y004919D01*
X037287Y004977D02*
X036786Y004977D01*
X036805Y005036D02*
X038214Y005036D01*
X038259Y004996D02*
X037809Y004806D01*
X037785Y004860D02*
X037886Y004860D01*
X038003Y004919D02*
X037727Y004919D01*
X037668Y004977D02*
X038120Y004977D01*
X038185Y005094D02*
X036808Y005094D01*
X036789Y005076D02*
X036609Y005336D01*
X036789Y005526D01*
X037049Y005346D01*
X037066Y005328D02*
X036670Y005328D01*
X036703Y005270D02*
X038276Y005270D01*
X038317Y005328D02*
X037971Y005328D01*
X037963Y005328D02*
X037073Y005328D01*
X036949Y005387D02*
X036709Y005387D01*
X036748Y005445D02*
X036832Y005445D01*
X037219Y005387D02*
X037759Y005387D01*
X037669Y005456D02*
X037619Y005756D01*
X037359Y005756D01*
X037299Y005456D01*
X037322Y005445D02*
X037619Y005445D01*
X037619Y005504D02*
X037332Y005504D01*
X037342Y005562D02*
X037619Y005562D01*
X037619Y005621D02*
X037351Y005621D01*
X037361Y005679D02*
X037619Y005679D01*
X038127Y005445D02*
X038200Y005445D01*
X038259Y005387D02*
X038049Y005387D01*
X037939Y005356D02*
X038179Y005526D01*
X038369Y005336D01*
X038199Y005096D01*
X038259Y004996D01*
X038189Y005153D02*
X036773Y005153D01*
X036738Y005211D02*
X038232Y005211D01*
X037939Y005357D02*
X037898Y005380D01*
X037855Y005401D01*
X037810Y005419D01*
X037765Y005434D01*
X037719Y005447D01*
X037672Y005457D01*
X037092Y004743D02*
X036419Y004743D01*
X036419Y004685D02*
X037081Y004685D01*
X037799Y004806D02*
X037781Y004839D01*
X037760Y004869D01*
X037736Y004898D01*
X037709Y004924D01*
X037680Y004946D01*
X037648Y004966D01*
X037615Y004983D01*
X037580Y004996D01*
X037544Y005005D01*
X037507Y005011D01*
X037470Y005013D01*
X037433Y005011D01*
X037396Y005006D01*
X037360Y004996D01*
X037325Y004984D01*
X037291Y004967D01*
X037260Y004948D01*
X037230Y004925D01*
X037203Y004899D01*
X037179Y004871D01*
X037158Y004840D01*
X037140Y004808D01*
X037125Y004774D01*
X037114Y004738D01*
X037106Y004702D01*
X037102Y004665D01*
X037102Y004627D01*
X037106Y004590D01*
X037114Y004554D01*
X037125Y004518D01*
X037140Y004484D01*
X037158Y004452D01*
X037179Y004421D01*
X037203Y004393D01*
X037230Y004367D01*
X037260Y004344D01*
X037291Y004325D01*
X037325Y004308D01*
X037360Y004296D01*
X037396Y004286D01*
X037433Y004281D01*
X037470Y004279D01*
X037507Y004281D01*
X037544Y004287D01*
X037580Y004296D01*
X037615Y004309D01*
X037648Y004326D01*
X037680Y004346D01*
X037709Y004368D01*
X037736Y004394D01*
X037760Y004423D01*
X037781Y004453D01*
X037799Y004486D01*
X037936Y003930D02*
X037886Y003902D01*
X037834Y003878D01*
X037781Y003857D01*
X037726Y003840D01*
X037670Y003827D01*
X036689Y004456D02*
X036369Y004506D01*
X036689Y004449D02*
X036702Y004399D01*
X036719Y004350D01*
X036738Y004302D01*
X036761Y004255D01*
X036786Y004210D01*
X037054Y003937D02*
X037101Y003910D01*
X037148Y003886D01*
X037197Y003865D01*
X037248Y003847D01*
X037299Y003833D01*
X036687Y004832D02*
X036701Y004884D01*
X036718Y004935D01*
X036738Y004985D01*
X036761Y005034D01*
X036788Y005081D01*
X037051Y005345D02*
X037098Y005374D01*
X037146Y005399D01*
X037196Y005421D01*
X037247Y005440D01*
X037299Y005455D01*
X019611Y003141D02*
X019361Y003391D01*
X019111Y003141D02*
X018611Y003141D01*
X018361Y002891D01*
X018111Y003141D01*
X018361Y003391D01*
X018611Y003141D01*
X018361Y002891D02*
X018361Y002391D01*
X019361Y002391D02*
X019361Y002891D01*
X018361Y003391D02*
X018361Y003891D01*
X018111Y003141D02*
X017611Y003141D01*
X012199Y002570D02*
X011939Y002570D01*
X012069Y002440D01*
X012069Y002614D01*
X012156Y002319D02*
X012199Y002276D01*
X012199Y002189D01*
X012156Y002145D01*
X011982Y002145D01*
X011939Y002189D01*
X011939Y002276D01*
X011982Y002319D01*
X011939Y002036D02*
X011939Y001949D01*
X011939Y001992D02*
X012199Y001992D01*
X012199Y001949D02*
X012199Y002036D01*
X008262Y001949D02*
X008262Y002036D01*
X008262Y001992D02*
X008002Y001992D01*
X008002Y001949D02*
X008002Y002036D01*
X008045Y002145D02*
X008219Y002145D01*
X008262Y002189D01*
X008262Y002276D01*
X008219Y002319D01*
X008219Y002440D02*
X008262Y002484D01*
X008262Y002570D01*
X008219Y002614D01*
X008132Y002614D01*
X008088Y002570D01*
X008088Y002527D01*
X008132Y002440D01*
X008002Y002440D01*
X008002Y002614D01*
X008045Y002319D02*
X008002Y002276D01*
X008002Y002189D01*
X008045Y002145D01*
X004325Y002189D02*
X004325Y002276D01*
X004282Y002319D01*
X004282Y002440D02*
X004325Y002484D01*
X004325Y002570D01*
X004282Y002614D01*
X004238Y002614D01*
X004195Y002570D01*
X004195Y002440D01*
X004282Y002440D01*
X004195Y002440D02*
X004108Y002527D01*
X004065Y002614D01*
X004108Y002319D02*
X004065Y002276D01*
X004065Y002189D01*
X004108Y002145D01*
X004282Y002145D01*
X004325Y002189D01*
X004325Y002036D02*
X004325Y001949D01*
X004325Y001992D02*
X004065Y001992D01*
X004065Y001949D02*
X004065Y002036D01*
D202*
X004505Y001840D02*
X004505Y003638D01*
X005955Y003219D02*
X005957Y003245D01*
X005963Y003271D01*
X005972Y003295D01*
X005985Y003318D01*
X006001Y003339D01*
X006020Y003357D01*
X006041Y003373D01*
X006065Y003385D01*
X006089Y003393D01*
X006115Y003398D01*
X006142Y003399D01*
X006168Y003396D01*
X006193Y003389D01*
X006217Y003379D01*
X006240Y003365D01*
X006260Y003349D01*
X006277Y003329D01*
X006292Y003307D01*
X006303Y003283D01*
X006311Y003258D01*
X006315Y003232D01*
X006315Y003206D01*
X006311Y003180D01*
X006303Y003155D01*
X006292Y003131D01*
X006277Y003109D01*
X006260Y003089D01*
X006240Y003073D01*
X006217Y003059D01*
X006193Y003049D01*
X006168Y003042D01*
X006142Y003039D01*
X006115Y003040D01*
X006089Y003045D01*
X006065Y003053D01*
X006041Y003065D01*
X006020Y003081D01*
X006001Y003099D01*
X005985Y003120D01*
X005972Y003143D01*
X005963Y003167D01*
X005957Y003193D01*
X005955Y003219D01*
X006485Y003638D02*
X006485Y001840D01*
X008442Y001840D02*
X008442Y003638D01*
X009892Y003219D02*
X009894Y003245D01*
X009900Y003271D01*
X009909Y003295D01*
X009922Y003318D01*
X009938Y003339D01*
X009957Y003357D01*
X009978Y003373D01*
X010002Y003385D01*
X010026Y003393D01*
X010052Y003398D01*
X010079Y003399D01*
X010105Y003396D01*
X010130Y003389D01*
X010154Y003379D01*
X010177Y003365D01*
X010197Y003349D01*
X010214Y003329D01*
X010229Y003307D01*
X010240Y003283D01*
X010248Y003258D01*
X010252Y003232D01*
X010252Y003206D01*
X010248Y003180D01*
X010240Y003155D01*
X010229Y003131D01*
X010214Y003109D01*
X010197Y003089D01*
X010177Y003073D01*
X010154Y003059D01*
X010130Y003049D01*
X010105Y003042D01*
X010079Y003039D01*
X010052Y003040D01*
X010026Y003045D01*
X010002Y003053D01*
X009978Y003065D01*
X009957Y003081D01*
X009938Y003099D01*
X009922Y003120D01*
X009909Y003143D01*
X009900Y003167D01*
X009894Y003193D01*
X009892Y003219D01*
X010422Y003638D02*
X010422Y001840D01*
X012379Y001840D02*
X012379Y003638D01*
X013829Y003219D02*
X013831Y003245D01*
X013837Y003271D01*
X013846Y003295D01*
X013859Y003318D01*
X013875Y003339D01*
X013894Y003357D01*
X013915Y003373D01*
X013939Y003385D01*
X013963Y003393D01*
X013989Y003398D01*
X014016Y003399D01*
X014042Y003396D01*
X014067Y003389D01*
X014091Y003379D01*
X014114Y003365D01*
X014134Y003349D01*
X014151Y003329D01*
X014166Y003307D01*
X014177Y003283D01*
X014185Y003258D01*
X014189Y003232D01*
X014189Y003206D01*
X014185Y003180D01*
X014177Y003155D01*
X014166Y003131D01*
X014151Y003109D01*
X014134Y003089D01*
X014114Y003073D01*
X014091Y003059D01*
X014067Y003049D01*
X014042Y003042D01*
X014016Y003039D01*
X013989Y003040D01*
X013963Y003045D01*
X013939Y003053D01*
X013915Y003065D01*
X013894Y003081D01*
X013875Y003099D01*
X013859Y003120D01*
X013846Y003143D01*
X013837Y003167D01*
X013831Y003193D01*
X013829Y003219D01*
X014359Y003638D02*
X014359Y001840D01*
X024584Y001840D02*
X024584Y003638D01*
X026034Y003219D02*
X026036Y003245D01*
X026042Y003271D01*
X026051Y003295D01*
X026064Y003318D01*
X026080Y003339D01*
X026099Y003357D01*
X026120Y003373D01*
X026144Y003385D01*
X026168Y003393D01*
X026194Y003398D01*
X026221Y003399D01*
X026247Y003396D01*
X026272Y003389D01*
X026296Y003379D01*
X026319Y003365D01*
X026339Y003349D01*
X026356Y003329D01*
X026371Y003307D01*
X026382Y003283D01*
X026390Y003258D01*
X026394Y003232D01*
X026394Y003206D01*
X026390Y003180D01*
X026382Y003155D01*
X026371Y003131D01*
X026356Y003109D01*
X026339Y003089D01*
X026319Y003073D01*
X026296Y003059D01*
X026272Y003049D01*
X026247Y003042D01*
X026221Y003039D01*
X026194Y003040D01*
X026168Y003045D01*
X026144Y003053D01*
X026120Y003065D01*
X026099Y003081D01*
X026080Y003099D01*
X026064Y003120D01*
X026051Y003143D01*
X026042Y003167D01*
X026036Y003193D01*
X026034Y003219D01*
X026564Y003638D02*
X026564Y001840D01*
X028521Y001840D02*
X028521Y003638D01*
X029971Y003219D02*
X029973Y003245D01*
X029979Y003271D01*
X029988Y003295D01*
X030001Y003318D01*
X030017Y003339D01*
X030036Y003357D01*
X030057Y003373D01*
X030081Y003385D01*
X030105Y003393D01*
X030131Y003398D01*
X030158Y003399D01*
X030184Y003396D01*
X030209Y003389D01*
X030233Y003379D01*
X030256Y003365D01*
X030276Y003349D01*
X030293Y003329D01*
X030308Y003307D01*
X030319Y003283D01*
X030327Y003258D01*
X030331Y003232D01*
X030331Y003206D01*
X030327Y003180D01*
X030319Y003155D01*
X030308Y003131D01*
X030293Y003109D01*
X030276Y003089D01*
X030256Y003073D01*
X030233Y003059D01*
X030209Y003049D01*
X030184Y003042D01*
X030158Y003039D01*
X030131Y003040D01*
X030105Y003045D01*
X030081Y003053D01*
X030057Y003065D01*
X030036Y003081D01*
X030017Y003099D01*
X030001Y003120D01*
X029988Y003143D01*
X029979Y003167D01*
X029973Y003193D01*
X029971Y003219D01*
X030501Y003638D02*
X030501Y001840D01*
X032458Y001840D02*
X032458Y003638D01*
X033908Y003219D02*
X033910Y003245D01*
X033916Y003271D01*
X033925Y003295D01*
X033938Y003318D01*
X033954Y003339D01*
X033973Y003357D01*
X033994Y003373D01*
X034018Y003385D01*
X034042Y003393D01*
X034068Y003398D01*
X034095Y003399D01*
X034121Y003396D01*
X034146Y003389D01*
X034170Y003379D01*
X034193Y003365D01*
X034213Y003349D01*
X034230Y003329D01*
X034245Y003307D01*
X034256Y003283D01*
X034264Y003258D01*
X034268Y003232D01*
X034268Y003206D01*
X034264Y003180D01*
X034256Y003155D01*
X034245Y003131D01*
X034230Y003109D01*
X034213Y003089D01*
X034193Y003073D01*
X034170Y003059D01*
X034146Y003049D01*
X034121Y003042D01*
X034095Y003039D01*
X034068Y003040D01*
X034042Y003045D01*
X034018Y003053D01*
X033994Y003065D01*
X033973Y003081D01*
X033954Y003099D01*
X033938Y003120D01*
X033925Y003143D01*
X033916Y003167D01*
X033910Y003193D01*
X033908Y003219D01*
X034438Y003638D02*
X034438Y001840D01*
M02*
