G04 #@! TF.GenerationSoftware,KiCad,Pcbnew,(5.1.5-0-10_14)*
G04 #@! TF.CreationDate,2020-02-05T18:18:06+01:00*
G04 #@! TF.ProjectId,c100_rev_e,63313030-5f72-4657-965f-652e6b696361,rev?*
G04 #@! TF.SameCoordinates,Original*
G04 #@! TF.FileFunction,Soldermask,Bot*
G04 #@! TF.FilePolarity,Negative*
%FSLAX46Y46*%
G04 Gerber Fmt 4.6, Leading zero omitted, Abs format (unit mm)*
G04 Created by KiCad (PCBNEW (5.1.5-0-10_14)) date 2020-02-05 18:18:06*
%MOMM*%
%LPD*%
G04 APERTURE LIST*
%ADD10C,0.150000*%
G04 APERTURE END LIST*
D10*
G36*
X71233642Y2245219D02*
G01*
X71379414Y2184838D01*
X71379416Y2184837D01*
X71510608Y2097178D01*
X71622178Y1985608D01*
X71709837Y1854416D01*
X71709838Y1854414D01*
X71770219Y1708642D01*
X71801000Y1553893D01*
X71801000Y1396107D01*
X71770219Y1241358D01*
X71711252Y1099000D01*
X71709837Y1095584D01*
X71622178Y964392D01*
X71510608Y852822D01*
X71379416Y765163D01*
X71379415Y765162D01*
X71379414Y765162D01*
X71233642Y704781D01*
X71078893Y674000D01*
X70921107Y674000D01*
X70766358Y704781D01*
X70620586Y765162D01*
X70620585Y765162D01*
X70620584Y765163D01*
X70489392Y852822D01*
X70377822Y964392D01*
X70290163Y1095584D01*
X70288748Y1099000D01*
X70229781Y1241358D01*
X70199000Y1396107D01*
X70199000Y1553893D01*
X70229781Y1708642D01*
X70290162Y1854414D01*
X70290163Y1854416D01*
X70377822Y1985608D01*
X70489392Y2097178D01*
X70620584Y2184837D01*
X70620586Y2184838D01*
X70766358Y2245219D01*
X70921107Y2276000D01*
X71078893Y2276000D01*
X71233642Y2245219D01*
G37*
G36*
X77788014Y2793027D02*
G01*
X77891878Y2761521D01*
X77935907Y2737987D01*
X77987599Y2710357D01*
X77987601Y2710356D01*
X77987600Y2710356D01*
X78071501Y2641501D01*
X78140356Y2557600D01*
X78191521Y2461879D01*
X78223027Y2358015D01*
X78231000Y2277067D01*
X78231000Y1622933D01*
X78223027Y1541985D01*
X78191521Y1438121D01*
X78191519Y1438118D01*
X78140357Y1342400D01*
X78071501Y1258499D01*
X77987600Y1189643D01*
X77919055Y1153005D01*
X77891879Y1138479D01*
X77788015Y1106973D01*
X77680000Y1096334D01*
X77571986Y1106973D01*
X77468122Y1138479D01*
X77440946Y1153005D01*
X77372401Y1189643D01*
X77288500Y1258499D01*
X77219645Y1342399D01*
X77168480Y1438121D01*
X77161690Y1460505D01*
X77136973Y1541985D01*
X77129000Y1622933D01*
X77129000Y2277066D01*
X77136973Y2358014D01*
X77168479Y2461878D01*
X77219644Y2557600D01*
X77288499Y2641501D01*
X77372400Y2710356D01*
X77372399Y2710356D01*
X77372401Y2710357D01*
X77424093Y2737987D01*
X77468121Y2761521D01*
X77571985Y2793027D01*
X77680000Y2803666D01*
X77788014Y2793027D01*
G37*
G36*
X86428014Y2793027D02*
G01*
X86531878Y2761521D01*
X86575907Y2737987D01*
X86627599Y2710357D01*
X86627601Y2710356D01*
X86627600Y2710356D01*
X86711501Y2641501D01*
X86780356Y2557600D01*
X86831521Y2461879D01*
X86863027Y2358015D01*
X86871000Y2277067D01*
X86871000Y1622933D01*
X86863027Y1541985D01*
X86831521Y1438121D01*
X86831519Y1438118D01*
X86780357Y1342400D01*
X86711501Y1258499D01*
X86627600Y1189643D01*
X86559055Y1153005D01*
X86531879Y1138479D01*
X86428015Y1106973D01*
X86320000Y1096334D01*
X86211986Y1106973D01*
X86108122Y1138479D01*
X86080946Y1153005D01*
X86012401Y1189643D01*
X85928500Y1258499D01*
X85859645Y1342399D01*
X85808480Y1438121D01*
X85801690Y1460505D01*
X85776973Y1541985D01*
X85769000Y1622933D01*
X85769000Y2277066D01*
X85776973Y2358014D01*
X85808479Y2461878D01*
X85859644Y2557600D01*
X85928499Y2641501D01*
X86012400Y2710356D01*
X86012399Y2710356D01*
X86012401Y2710357D01*
X86064093Y2737987D01*
X86108121Y2761521D01*
X86211985Y2793027D01*
X86320000Y2803666D01*
X86428014Y2793027D01*
G37*
G36*
X91178231Y1893295D02*
G01*
X91216967Y1885590D01*
X91247195Y1873069D01*
X91289944Y1855362D01*
X91355622Y1811477D01*
X91411477Y1755622D01*
X91455362Y1689944D01*
X91473069Y1647195D01*
X91483119Y1622933D01*
X91485590Y1616966D01*
X91500505Y1541987D01*
X91501000Y1539495D01*
X91501000Y1460505D01*
X91488191Y1396107D01*
X91485590Y1383034D01*
X91455362Y1310056D01*
X91411477Y1244378D01*
X91355622Y1188523D01*
X91289944Y1144638D01*
X91247195Y1126931D01*
X91216967Y1114410D01*
X91179578Y1106973D01*
X91139496Y1099000D01*
X91060504Y1099000D01*
X91020422Y1106973D01*
X90983033Y1114410D01*
X90952805Y1126931D01*
X90910056Y1144638D01*
X90844378Y1188523D01*
X90788523Y1244378D01*
X90744638Y1310056D01*
X90714410Y1383034D01*
X90711810Y1396107D01*
X90699000Y1460505D01*
X90699000Y1539495D01*
X90699496Y1541987D01*
X90714410Y1616966D01*
X90716882Y1622933D01*
X90726931Y1647195D01*
X90744638Y1689944D01*
X90788523Y1755622D01*
X90844378Y1811477D01*
X90910056Y1855362D01*
X90952805Y1873069D01*
X90983033Y1885590D01*
X91021769Y1893295D01*
X91060504Y1901000D01*
X91139496Y1901000D01*
X91178231Y1893295D01*
G37*
G36*
X89478231Y1893295D02*
G01*
X89516967Y1885590D01*
X89547195Y1873069D01*
X89589944Y1855362D01*
X89655622Y1811477D01*
X89711477Y1755622D01*
X89755362Y1689944D01*
X89773069Y1647195D01*
X89783119Y1622933D01*
X89785590Y1616966D01*
X89800505Y1541987D01*
X89801000Y1539495D01*
X89801000Y1460505D01*
X89788191Y1396107D01*
X89785590Y1383034D01*
X89755362Y1310056D01*
X89711477Y1244378D01*
X89655622Y1188523D01*
X89589944Y1144638D01*
X89547195Y1126931D01*
X89516967Y1114410D01*
X89479578Y1106973D01*
X89439496Y1099000D01*
X89360504Y1099000D01*
X89320422Y1106973D01*
X89283033Y1114410D01*
X89252805Y1126931D01*
X89210056Y1144638D01*
X89144378Y1188523D01*
X89088523Y1244378D01*
X89044638Y1310056D01*
X89014410Y1383034D01*
X89011810Y1396107D01*
X88999000Y1460505D01*
X88999000Y1539495D01*
X88999496Y1541987D01*
X89014410Y1616966D01*
X89016882Y1622933D01*
X89026931Y1647195D01*
X89044638Y1689944D01*
X89088523Y1755622D01*
X89144378Y1811477D01*
X89210056Y1855362D01*
X89252805Y1873069D01*
X89283033Y1885590D01*
X89321769Y1893295D01*
X89360504Y1901000D01*
X89439496Y1901000D01*
X89478231Y1893295D01*
G37*
G36*
X86428014Y7223027D02*
G01*
X86531878Y7191521D01*
X86575907Y7167987D01*
X86627599Y7140357D01*
X86627601Y7140356D01*
X86627600Y7140356D01*
X86711501Y7071501D01*
X86780356Y6987600D01*
X86831521Y6891879D01*
X86863027Y6788015D01*
X86871000Y6707067D01*
X86871000Y5552933D01*
X86863027Y5471985D01*
X86831521Y5368121D01*
X86827348Y5360314D01*
X86780357Y5272400D01*
X86711501Y5188499D01*
X86627600Y5119643D01*
X86559055Y5083005D01*
X86531879Y5068479D01*
X86428015Y5036973D01*
X86320000Y5026334D01*
X86211986Y5036973D01*
X86108122Y5068479D01*
X86080946Y5083005D01*
X86012401Y5119643D01*
X85928500Y5188499D01*
X85859644Y5272400D01*
X85812653Y5360314D01*
X85808480Y5368121D01*
X85776974Y5471985D01*
X85769001Y5552933D01*
X85769000Y6707066D01*
X85776973Y6788014D01*
X85808479Y6891878D01*
X85859644Y6987600D01*
X85928499Y7071501D01*
X86012400Y7140356D01*
X86012399Y7140356D01*
X86012401Y7140357D01*
X86064093Y7167987D01*
X86108121Y7191521D01*
X86211985Y7223027D01*
X86320000Y7233666D01*
X86428014Y7223027D01*
G37*
G36*
X77788014Y7223027D02*
G01*
X77891878Y7191521D01*
X77935907Y7167987D01*
X77987599Y7140357D01*
X77987601Y7140356D01*
X77987600Y7140356D01*
X78071501Y7071501D01*
X78140356Y6987600D01*
X78191521Y6891879D01*
X78223027Y6788015D01*
X78231000Y6707067D01*
X78231000Y5552933D01*
X78223027Y5471985D01*
X78191521Y5368121D01*
X78187348Y5360314D01*
X78140357Y5272400D01*
X78071501Y5188499D01*
X77987600Y5119643D01*
X77919055Y5083005D01*
X77891879Y5068479D01*
X77788015Y5036973D01*
X77680000Y5026334D01*
X77571986Y5036973D01*
X77468122Y5068479D01*
X77440946Y5083005D01*
X77372401Y5119643D01*
X77288500Y5188499D01*
X77219644Y5272400D01*
X77172653Y5360314D01*
X77168480Y5368121D01*
X77136974Y5471985D01*
X77129001Y5552933D01*
X77129000Y6707066D01*
X77136973Y6788014D01*
X77168479Y6891878D01*
X77219644Y6987600D01*
X77288499Y7071501D01*
X77372400Y7140356D01*
X77372399Y7140356D01*
X77372401Y7140357D01*
X77424093Y7167987D01*
X77468121Y7191521D01*
X77571985Y7223027D01*
X77680000Y7233666D01*
X77788014Y7223027D01*
G37*
G36*
X84999672Y5961551D02*
G01*
X84999674Y5961550D01*
X84999675Y5961550D01*
X85068103Y5933207D01*
X85129686Y5892058D01*
X85182058Y5839686D01*
X85223207Y5778103D01*
X85251550Y5709675D01*
X85266000Y5637033D01*
X85266000Y5562967D01*
X85251550Y5490325D01*
X85223207Y5421897D01*
X85182058Y5360314D01*
X85129686Y5307942D01*
X85068103Y5266793D01*
X84999675Y5238450D01*
X84999674Y5238450D01*
X84999672Y5238449D01*
X84927034Y5224000D01*
X84852966Y5224000D01*
X84780328Y5238449D01*
X84780326Y5238450D01*
X84780325Y5238450D01*
X84711897Y5266793D01*
X84650314Y5307942D01*
X84597942Y5360314D01*
X84556793Y5421897D01*
X84528450Y5490325D01*
X84514000Y5562967D01*
X84514000Y5637033D01*
X84528450Y5709675D01*
X84556793Y5778103D01*
X84597942Y5839686D01*
X84650314Y5892058D01*
X84711897Y5933207D01*
X84780325Y5961550D01*
X84780326Y5961550D01*
X84780328Y5961551D01*
X84852966Y5976000D01*
X84927034Y5976000D01*
X84999672Y5961551D01*
G37*
G36*
X79219672Y5961551D02*
G01*
X79219674Y5961550D01*
X79219675Y5961550D01*
X79288103Y5933207D01*
X79349686Y5892058D01*
X79402058Y5839686D01*
X79443207Y5778103D01*
X79471550Y5709675D01*
X79486000Y5637033D01*
X79486000Y5562967D01*
X79471550Y5490325D01*
X79443207Y5421897D01*
X79402058Y5360314D01*
X79349686Y5307942D01*
X79288103Y5266793D01*
X79219675Y5238450D01*
X79219674Y5238450D01*
X79219672Y5238449D01*
X79147034Y5224000D01*
X79072966Y5224000D01*
X79000328Y5238449D01*
X79000326Y5238450D01*
X79000325Y5238450D01*
X78931897Y5266793D01*
X78870314Y5307942D01*
X78817942Y5360314D01*
X78776793Y5421897D01*
X78748450Y5490325D01*
X78734000Y5562967D01*
X78734000Y5637033D01*
X78748450Y5709675D01*
X78776793Y5778103D01*
X78817942Y5839686D01*
X78870314Y5892058D01*
X78931897Y5933207D01*
X79000325Y5961550D01*
X79000326Y5961550D01*
X79000328Y5961551D01*
X79072966Y5976000D01*
X79147034Y5976000D01*
X79219672Y5961551D01*
G37*
G36*
X71233642Y9245219D02*
G01*
X71379414Y9184838D01*
X71379416Y9184837D01*
X71510608Y9097178D01*
X71622178Y8985608D01*
X71630185Y8973624D01*
X71709838Y8854414D01*
X71770219Y8708642D01*
X71801000Y8553893D01*
X71801000Y8396107D01*
X71770219Y8241358D01*
X71709838Y8095586D01*
X71709837Y8095584D01*
X71622178Y7964392D01*
X71510608Y7852822D01*
X71379416Y7765163D01*
X71379415Y7765162D01*
X71379414Y7765162D01*
X71233642Y7704781D01*
X71078893Y7674000D01*
X70921107Y7674000D01*
X70766358Y7704781D01*
X70620586Y7765162D01*
X70620585Y7765162D01*
X70620584Y7765163D01*
X70489392Y7852822D01*
X70377822Y7964392D01*
X70290163Y8095584D01*
X70290162Y8095586D01*
X70229781Y8241358D01*
X70199000Y8396107D01*
X70199000Y8553893D01*
X70229781Y8708642D01*
X70290162Y8854414D01*
X70369815Y8973624D01*
X70377822Y8985608D01*
X70489392Y9097178D01*
X70620584Y9184837D01*
X70620586Y9184838D01*
X70766358Y9245219D01*
X70921107Y9276000D01*
X71078893Y9276000D01*
X71233642Y9245219D01*
G37*
G36*
X96113512Y10736073D02*
G01*
X96262812Y10706376D01*
X96426784Y10638456D01*
X96574354Y10539853D01*
X96699853Y10414354D01*
X96798456Y10266784D01*
X96866376Y10102812D01*
X96901000Y9928741D01*
X96901000Y9751259D01*
X96866376Y9577188D01*
X96798456Y9413216D01*
X96699853Y9265646D01*
X96574354Y9140147D01*
X96426784Y9041544D01*
X96262812Y8973624D01*
X96113512Y8943927D01*
X96088742Y8939000D01*
X95911258Y8939000D01*
X95886488Y8943927D01*
X95737188Y8973624D01*
X95573216Y9041544D01*
X95425646Y9140147D01*
X95300147Y9265646D01*
X95201544Y9413216D01*
X95133624Y9577188D01*
X95099000Y9751259D01*
X95099000Y9928741D01*
X95133624Y10102812D01*
X95201544Y10266784D01*
X95300147Y10414354D01*
X95425646Y10539853D01*
X95573216Y10638456D01*
X95737188Y10706376D01*
X95886488Y10736073D01*
X95911258Y10741000D01*
X96088742Y10741000D01*
X96113512Y10736073D01*
G37*
G36*
X96113512Y13276073D02*
G01*
X96262812Y13246376D01*
X96426784Y13178456D01*
X96574354Y13079853D01*
X96699853Y12954354D01*
X96798456Y12806784D01*
X96866376Y12642812D01*
X96901000Y12468741D01*
X96901000Y12291259D01*
X96866376Y12117188D01*
X96798456Y11953216D01*
X96699853Y11805646D01*
X96574354Y11680147D01*
X96426784Y11581544D01*
X96262812Y11513624D01*
X96113512Y11483927D01*
X96088742Y11479000D01*
X95911258Y11479000D01*
X95886488Y11483927D01*
X95737188Y11513624D01*
X95573216Y11581544D01*
X95425646Y11680147D01*
X95300147Y11805646D01*
X95201544Y11953216D01*
X95133624Y12117188D01*
X95099000Y12291259D01*
X95099000Y12468741D01*
X95133624Y12642812D01*
X95201544Y12806784D01*
X95300147Y12954354D01*
X95425646Y13079853D01*
X95573216Y13178456D01*
X95737188Y13246376D01*
X95886488Y13276073D01*
X95911258Y13281000D01*
X96088742Y13281000D01*
X96113512Y13276073D01*
G37*
G36*
X96113512Y15816073D02*
G01*
X96262812Y15786376D01*
X96426784Y15718456D01*
X96574354Y15619853D01*
X96699853Y15494354D01*
X96798456Y15346784D01*
X96866376Y15182812D01*
X96901000Y15008741D01*
X96901000Y14831259D01*
X96866376Y14657188D01*
X96798456Y14493216D01*
X96699853Y14345646D01*
X96574354Y14220147D01*
X96426784Y14121544D01*
X96262812Y14053624D01*
X96113512Y14023927D01*
X96088742Y14019000D01*
X95911258Y14019000D01*
X95886488Y14023927D01*
X95737188Y14053624D01*
X95573216Y14121544D01*
X95425646Y14220147D01*
X95300147Y14345646D01*
X95201544Y14493216D01*
X95133624Y14657188D01*
X95099000Y14831259D01*
X95099000Y15008741D01*
X95133624Y15182812D01*
X95201544Y15346784D01*
X95300147Y15494354D01*
X95425646Y15619853D01*
X95573216Y15718456D01*
X95737188Y15786376D01*
X95886488Y15816073D01*
X95911258Y15821000D01*
X96088742Y15821000D01*
X96113512Y15816073D01*
G37*
G36*
X96113512Y18356073D02*
G01*
X96262812Y18326376D01*
X96426784Y18258456D01*
X96574354Y18159853D01*
X96699853Y18034354D01*
X96798456Y17886784D01*
X96866376Y17722812D01*
X96901000Y17548741D01*
X96901000Y17371259D01*
X96866376Y17197188D01*
X96798456Y17033216D01*
X96699853Y16885646D01*
X96574354Y16760147D01*
X96426784Y16661544D01*
X96262812Y16593624D01*
X96113512Y16563927D01*
X96088742Y16559000D01*
X95911258Y16559000D01*
X95886488Y16563927D01*
X95737188Y16593624D01*
X95573216Y16661544D01*
X95425646Y16760147D01*
X95300147Y16885646D01*
X95201544Y17033216D01*
X95133624Y17197188D01*
X95099000Y17371259D01*
X95099000Y17548741D01*
X95133624Y17722812D01*
X95201544Y17886784D01*
X95300147Y18034354D01*
X95425646Y18159853D01*
X95573216Y18258456D01*
X95737188Y18326376D01*
X95886488Y18356073D01*
X95911258Y18361000D01*
X96088742Y18361000D01*
X96113512Y18356073D01*
G37*
G36*
X96901000Y19099000D02*
G01*
X95099000Y19099000D01*
X95099000Y20901000D01*
X96901000Y20901000D01*
X96901000Y19099000D01*
G37*
M02*
