G04 #@! TF.GenerationSoftware,KiCad,Pcbnew,(5.1.5-0-10_14)*
G04 #@! TF.CreationDate,2020-02-05T18:18:06+01:00*
G04 #@! TF.ProjectId,c100_rev_e,63313030-5f72-4657-965f-652e6b696361,rev?*
G04 #@! TF.SameCoordinates,Original*
G04 #@! TF.FileFunction,Copper,L2,Bot*
G04 #@! TF.FilePolarity,Positive*
%FSLAX46Y46*%
G04 Gerber Fmt 4.6, Leading zero omitted, Abs format (unit mm)*
G04 Created by KiCad (PCBNEW (5.1.5-0-10_14)) date 2020-02-05 18:18:06*
%MOMM*%
%LPD*%
G04 APERTURE LIST*
%ADD10O,1.700000X1.700000*%
%ADD11R,1.700000X1.700000*%
%ADD12O,1.000000X2.100000*%
%ADD13O,1.000000X1.600000*%
%ADD14C,0.600000*%
%ADD15C,0.406400*%
%ADD16C,0.203200*%
%ADD17C,0.254000*%
G04 APERTURE END LIST*
D10*
X96000000Y9840000D03*
X96000000Y12380000D03*
X96000000Y14920000D03*
X96000000Y17460000D03*
D11*
X96000000Y20000000D03*
D12*
X86320000Y6130000D03*
X77680000Y6130000D03*
D13*
X77680000Y1950000D03*
X86320000Y1950000D03*
D14*
X93750000Y31750000D03*
X81750000Y36750000D03*
X81750000Y35750000D03*
X82750000Y28250000D03*
X80750000Y29250000D03*
X72000000Y14000000D03*
X79000000Y14000000D03*
X75500000Y16250000D03*
X70500000Y16250000D03*
X86500000Y16250000D03*
X89000000Y15750000D03*
X91250000Y16750000D03*
X91250000Y18000000D03*
X90000000Y21500000D03*
X84500000Y8500000D03*
X85250000Y8500000D03*
X82750000Y9000000D03*
X84250000Y10500000D03*
X85000000Y11250000D03*
X83500000Y9750000D03*
X85750000Y12000000D03*
X84500000Y13250000D03*
X83750000Y12500000D03*
X83000000Y11750000D03*
X82250000Y11000000D03*
X81500000Y10250000D03*
X81500000Y21250000D03*
X84000000Y21250000D03*
X76000000Y24500000D03*
X78750000Y24500000D03*
X75000000Y29750000D03*
X86500000Y34500000D03*
X93750000Y29250000D03*
X8750000Y6500000D03*
X11000000Y8250000D03*
X6500000Y8250000D03*
X38250000Y8250000D03*
X40500000Y10000000D03*
X42750000Y8250000D03*
X47500000Y7500000D03*
X50000000Y7500000D03*
X4000000Y1000000D03*
X1000000Y4000000D03*
X6000000Y1000000D03*
X8000000Y1000000D03*
X10000000Y1000000D03*
X12000000Y1000000D03*
X14000000Y1000000D03*
X16000000Y1000000D03*
X18000000Y1000000D03*
X20000000Y1000000D03*
X22000000Y1000000D03*
X24000000Y1000000D03*
X26000000Y1000000D03*
X28000000Y1000000D03*
X30000000Y1000000D03*
X32000000Y1000000D03*
X34000000Y1000000D03*
X36000000Y1000000D03*
X1000000Y6000000D03*
X1000000Y8000000D03*
X1000000Y10000000D03*
X1000000Y12000000D03*
X1000000Y14000000D03*
X1000000Y16000000D03*
X1000000Y18000000D03*
X1000000Y20000000D03*
X1000000Y22000000D03*
X1000000Y24000000D03*
X1000000Y26000000D03*
X1000000Y28000000D03*
X1000000Y38000000D03*
X1000000Y36000000D03*
X1000000Y34000000D03*
X1000000Y32000000D03*
X1000000Y30000000D03*
X4000000Y41000000D03*
X6000000Y41000000D03*
X8000000Y41000000D03*
X10000000Y41000000D03*
X12000000Y41000000D03*
X14000000Y41000000D03*
X16000000Y41000000D03*
X18000000Y41000000D03*
X20000000Y41000000D03*
X22000000Y41000000D03*
X24000000Y41000000D03*
X26000000Y41000000D03*
X96000000Y41000000D03*
X99000000Y38000000D03*
X99000000Y36000000D03*
X28000000Y41000000D03*
X30000000Y41000000D03*
X38000000Y1000000D03*
X40000000Y1000000D03*
X42000000Y1000000D03*
X44000000Y1000000D03*
X46000000Y1000000D03*
X48000000Y1000000D03*
X50000000Y1000000D03*
X52000000Y1000000D03*
X54000000Y1000000D03*
X56000000Y1000000D03*
X58000000Y1000000D03*
X66000000Y1000000D03*
X68000000Y1000000D03*
X74000000Y1000000D03*
X76000000Y1000000D03*
X80000000Y1000000D03*
X82000000Y1000000D03*
X84000000Y1000000D03*
X94000000Y1000000D03*
X96000000Y1000000D03*
X99000000Y4000000D03*
X99000000Y6000000D03*
X94000000Y41000000D03*
X92000000Y41000000D03*
X90000000Y41000000D03*
X88000000Y41000000D03*
X86000000Y41000000D03*
X84000000Y41000000D03*
X82000000Y41000000D03*
X80000000Y41000000D03*
X78000000Y41000000D03*
X76000000Y41000000D03*
X74000000Y41000000D03*
X72000000Y41000000D03*
X70000000Y41000000D03*
X68000000Y41000000D03*
X66000000Y41000000D03*
X64000000Y41000000D03*
X32000000Y41000000D03*
X34000000Y41000000D03*
X36000000Y41000000D03*
X38000000Y41000000D03*
X40000000Y41000000D03*
X42000000Y41000000D03*
X44000000Y41000000D03*
X46000000Y41000000D03*
X48000000Y41000000D03*
X50000000Y41000000D03*
X52000000Y41000000D03*
X54000000Y41000000D03*
X56000000Y41000000D03*
X58000000Y41000000D03*
X60000000Y41000000D03*
X62000000Y41000000D03*
X2000000Y40000000D03*
X2000000Y2000000D03*
X98000000Y40000000D03*
X98000000Y2000000D03*
X6000000Y12750000D03*
X7500000Y12750000D03*
X8500000Y18000000D03*
X8500000Y19500000D03*
X17250000Y18000000D03*
X17250000Y19500000D03*
X78000000Y22250000D03*
X85250000Y9500000D03*
X86000000Y10250000D03*
X86750000Y11000000D03*
X63750000Y16250000D03*
X90250000Y1000000D03*
X89000000Y750000D03*
X91500000Y750000D03*
X78750000Y29250000D03*
X82500000Y24000000D03*
X84250000Y24750000D03*
X89750000Y27250000D03*
X90750000Y34750000D03*
X80000000Y34750000D03*
X81750000Y39000000D03*
X84000000Y32750000D03*
X84250000Y35750000D03*
X84250000Y36750000D03*
X79250000Y36750000D03*
X79250000Y35750000D03*
X69750000Y10750000D03*
X24000000Y18000000D03*
X24000000Y19500000D03*
X37750000Y19500000D03*
X37750000Y18000000D03*
X31250000Y19500000D03*
X31250000Y18000000D03*
X51000000Y18000000D03*
X51000000Y19500000D03*
X33500000Y28000000D03*
X37250000Y28000000D03*
X60000000Y1000000D03*
X62000000Y1000000D03*
X64000000Y1000000D03*
X99000000Y8000000D03*
X99000000Y10000000D03*
X99000000Y34000000D03*
X65750000Y37750000D03*
X67250000Y37750000D03*
X65750000Y31250000D03*
X67250000Y31250000D03*
X63250000Y21250000D03*
X69750000Y27750000D03*
X54750000Y16750000D03*
X58250000Y15750000D03*
X78750000Y12250000D03*
X78750000Y10500000D03*
X90250000Y7750000D03*
X89500000Y5000000D03*
X92000000Y7000000D03*
X71750000Y10250000D03*
X77500000Y19000000D03*
X89000000Y19000000D03*
X40000000Y3750000D03*
X40750000Y3750000D03*
X41500000Y3750000D03*
X40000000Y3000000D03*
X40750000Y3000000D03*
X41500000Y3000000D03*
X80000000Y3750000D03*
X80000000Y4500000D03*
X80750000Y3750000D03*
X80750000Y4500000D03*
X84000000Y3750000D03*
X83250000Y3750000D03*
X83250000Y4500000D03*
X84000000Y4500000D03*
X49500000Y2750000D03*
X50500000Y2750000D03*
X90085509Y29914491D03*
X89500000Y28648400D03*
X86500000Y20000000D03*
X80065687Y25148400D03*
X74502982Y24991052D03*
X79500000Y25750000D03*
X74250000Y25750000D03*
X81750000Y29500000D03*
X91210509Y33995189D03*
X92000022Y21000000D03*
X96750000Y22500000D03*
X57500000Y11750000D03*
X53500000Y16250000D03*
X90351600Y32750000D03*
X78250000Y32000000D03*
X94250000Y33000000D03*
X76000000Y29750000D03*
X87091978Y27500000D03*
X92250000Y34795179D03*
D15*
X77500000Y19000000D02*
X88250000Y19000000D01*
X88250000Y19000000D02*
X89000000Y19000000D01*
D16*
X90085509Y29914491D02*
X89500000Y29328982D01*
X89500000Y29328982D02*
X89500000Y28648400D01*
X90750000Y20000000D02*
X92000000Y20000000D01*
X86500000Y20000000D02*
X90750000Y20000000D01*
X90750000Y20000000D02*
X90920000Y20000000D01*
X92000000Y20000000D02*
X92500000Y19500000D01*
X92500000Y19500000D02*
X92500000Y15500000D01*
X93080000Y14920000D02*
X96000000Y14920000D01*
X92500000Y15500000D02*
X93080000Y14920000D01*
X80065687Y25148400D02*
X74648400Y25148400D01*
X74648400Y25148400D02*
X74502982Y25002982D01*
X74502982Y25002982D02*
X74502982Y24991052D01*
X79500000Y25750000D02*
X74250000Y25750000D01*
X88500000Y33500000D02*
X84500000Y29500000D01*
X84500000Y29500000D02*
X81500000Y29500000D01*
X90715320Y33500000D02*
X88500000Y33500000D01*
X91210509Y33995189D02*
X90715320Y33500000D01*
X93500022Y22500000D02*
X92000022Y21000000D01*
X96750000Y22500000D02*
X93500022Y22500000D01*
X57500000Y12174264D02*
X57500000Y11750000D01*
X57500000Y12674264D02*
X57500000Y12174264D01*
X53924264Y16250000D02*
X57500000Y12674264D01*
X53500000Y16250000D02*
X53924264Y16250000D01*
X90101600Y33000000D02*
X90351600Y32750000D01*
X88570224Y33000000D02*
X90101600Y33000000D01*
X84667015Y29096790D02*
X88570224Y33000000D01*
X82237160Y29096790D02*
X84667015Y29096790D01*
X82038769Y28898399D02*
X82237160Y29096790D01*
X78250000Y32000000D02*
X78250000Y30859630D01*
X81461231Y28898399D02*
X82038769Y28898399D01*
X78250000Y30859630D02*
X80461231Y28648399D01*
X81211231Y28648399D02*
X81461231Y28898399D01*
X80461231Y28648399D02*
X81211231Y28648399D01*
X91491970Y33000000D02*
X94250000Y33000000D01*
X90640369Y32148399D02*
X91491970Y33000000D01*
X88288847Y32148399D02*
X90640369Y32148399D01*
X84635638Y28495189D02*
X88288847Y32148399D01*
X83158021Y27648399D02*
X84004811Y28495189D01*
X78101601Y27648399D02*
X83158021Y27648399D01*
X84004811Y28495189D02*
X84635638Y28495189D01*
X76000000Y29750000D02*
X78101601Y27648399D01*
X94538769Y32398399D02*
X91460593Y32398399D01*
X94851601Y32711231D02*
X94538769Y32398399D01*
X92250000Y34795179D02*
X93345191Y34795179D01*
X94851601Y33288769D02*
X94851601Y32711231D01*
X91460593Y32398399D02*
X90807384Y31745189D01*
X93345191Y34795179D02*
X94851601Y33288769D01*
X87091978Y27500000D02*
X87091978Y30337167D01*
X88500000Y31745189D02*
X90807384Y31745189D01*
X87091978Y30337167D02*
X88500000Y31745189D01*
D17*
G36*
X84234800Y5535468D02*
G01*
X84259979Y5408885D01*
X84309369Y5289647D01*
X84381073Y5182334D01*
X84472334Y5091073D01*
X84579647Y5019369D01*
X84698885Y4969979D01*
X84825468Y4944800D01*
X84873000Y4944800D01*
X84873000Y3552606D01*
X84447394Y3127000D01*
X77000000Y3127000D01*
X76975224Y3124560D01*
X76951399Y3117333D01*
X76929443Y3105597D01*
X76910197Y3089803D01*
X76197394Y2377000D01*
X71594371Y2377000D01*
X71511667Y2432261D01*
X71315083Y2513689D01*
X71106390Y2555200D01*
X70893610Y2555200D01*
X70684917Y2513689D01*
X70488333Y2432261D01*
X70405629Y2377000D01*
X39302606Y2377000D01*
X39127000Y2552606D01*
X39127000Y3947394D01*
X39302606Y4123000D01*
X78000000Y4123000D01*
X78024776Y4125440D01*
X78048601Y4132667D01*
X78070557Y4144403D01*
X78089803Y4160197D01*
X78905238Y4975632D01*
X78918885Y4969979D01*
X79045468Y4944800D01*
X79174532Y4944800D01*
X79301115Y4969979D01*
X79420353Y5019369D01*
X79527666Y5091073D01*
X79618927Y5182334D01*
X79690631Y5289647D01*
X79740021Y5408885D01*
X79765200Y5535468D01*
X79765200Y5623000D01*
X84234800Y5623000D01*
X84234800Y5535468D01*
G37*
X84234800Y5535468D02*
X84259979Y5408885D01*
X84309369Y5289647D01*
X84381073Y5182334D01*
X84472334Y5091073D01*
X84579647Y5019369D01*
X84698885Y4969979D01*
X84825468Y4944800D01*
X84873000Y4944800D01*
X84873000Y3552606D01*
X84447394Y3127000D01*
X77000000Y3127000D01*
X76975224Y3124560D01*
X76951399Y3117333D01*
X76929443Y3105597D01*
X76910197Y3089803D01*
X76197394Y2377000D01*
X71594371Y2377000D01*
X71511667Y2432261D01*
X71315083Y2513689D01*
X71106390Y2555200D01*
X70893610Y2555200D01*
X70684917Y2513689D01*
X70488333Y2432261D01*
X70405629Y2377000D01*
X39302606Y2377000D01*
X39127000Y2552606D01*
X39127000Y3947394D01*
X39302606Y4123000D01*
X78000000Y4123000D01*
X78024776Y4125440D01*
X78048601Y4132667D01*
X78070557Y4144403D01*
X78089803Y4160197D01*
X78905238Y4975632D01*
X78918885Y4969979D01*
X79045468Y4944800D01*
X79174532Y4944800D01*
X79301115Y4969979D01*
X79420353Y5019369D01*
X79527666Y5091073D01*
X79618927Y5182334D01*
X79690631Y5289647D01*
X79740021Y5408885D01*
X79765200Y5535468D01*
X79765200Y5623000D01*
X84234800Y5623000D01*
X84234800Y5535468D01*
D16*
G36*
X96712570Y41598751D02*
G01*
X97398003Y41391806D01*
X98030180Y41055672D01*
X98585036Y40603143D01*
X99041423Y40051465D01*
X99381964Y39421647D01*
X99593688Y38737677D01*
X99670163Y38010072D01*
X99670201Y37999143D01*
X99670200Y4016130D01*
X99598751Y3287429D01*
X99391806Y2601997D01*
X99055670Y1969818D01*
X98603145Y1414967D01*
X98051468Y958579D01*
X97421648Y618036D01*
X96737676Y406312D01*
X96010072Y329837D01*
X95999430Y329800D01*
X4016130Y329800D01*
X3287429Y401249D01*
X2601997Y608194D01*
X1969818Y944330D01*
X1414967Y1396855D01*
X958579Y1948532D01*
X618036Y2578352D01*
X406312Y3262324D01*
X329837Y3989928D01*
X329800Y4000570D01*
X329800Y4181312D01*
X2159107Y4181312D01*
X2159107Y3818688D01*
X2229852Y3463031D01*
X2368622Y3128010D01*
X2570085Y2826499D01*
X2826499Y2570085D01*
X3128010Y2368622D01*
X3463031Y2229852D01*
X3818688Y2159107D01*
X4181312Y2159107D01*
X4536969Y2229852D01*
X4871990Y2368622D01*
X5173501Y2570085D01*
X5429915Y2826499D01*
X5631378Y3128010D01*
X5770148Y3463031D01*
X5840893Y3818688D01*
X5840893Y4000000D01*
X38695200Y4000000D01*
X38695200Y2500000D01*
X38701057Y2440536D01*
X38718402Y2383358D01*
X38746568Y2330662D01*
X38784474Y2284474D01*
X39034474Y2034474D01*
X39080662Y1996568D01*
X39133358Y1968402D01*
X39190536Y1951057D01*
X39250000Y1945200D01*
X70053056Y1945200D01*
X69985735Y1782674D01*
X69945200Y1578889D01*
X69945200Y1371111D01*
X69985735Y1167326D01*
X70065248Y975365D01*
X70180683Y802604D01*
X70327604Y655683D01*
X70500365Y540248D01*
X70692326Y460735D01*
X70896111Y420200D01*
X71103889Y420200D01*
X71307674Y460735D01*
X71499635Y540248D01*
X71672396Y655683D01*
X71819317Y802604D01*
X71934752Y975365D01*
X72014265Y1167326D01*
X72054800Y1371111D01*
X72054800Y1578889D01*
X72037131Y1667718D01*
X76848343Y1667718D01*
X76860866Y1505129D01*
X76904868Y1348108D01*
X76978658Y1202688D01*
X77079400Y1074458D01*
X77203223Y968346D01*
X77405856Y893331D01*
X77527600Y937517D01*
X77527600Y1797600D01*
X77832400Y1797600D01*
X77832400Y937517D01*
X77954144Y893331D01*
X78156777Y968346D01*
X78280600Y1074458D01*
X78381342Y1202688D01*
X78455132Y1348108D01*
X78499134Y1505129D01*
X78511657Y1667718D01*
X85488343Y1667718D01*
X85500866Y1505129D01*
X85544868Y1348108D01*
X85618658Y1202688D01*
X85719400Y1074458D01*
X85843223Y968346D01*
X86045856Y893331D01*
X86167600Y937517D01*
X86167600Y1797600D01*
X86472400Y1797600D01*
X86472400Y937517D01*
X86594144Y893331D01*
X86796777Y968346D01*
X86920600Y1074458D01*
X87021342Y1202688D01*
X87095132Y1348108D01*
X87139134Y1505129D01*
X87143706Y1564492D01*
X88745200Y1564492D01*
X88745200Y1435508D01*
X88770364Y1309002D01*
X88819724Y1189836D01*
X88891384Y1082590D01*
X88982590Y991384D01*
X89089836Y919724D01*
X89209002Y870364D01*
X89335508Y845200D01*
X89464492Y845200D01*
X89590998Y870364D01*
X89710164Y919724D01*
X89817410Y991384D01*
X89908616Y1082590D01*
X89980276Y1189836D01*
X90029636Y1309002D01*
X90054800Y1435508D01*
X90054800Y1564492D01*
X90445200Y1564492D01*
X90445200Y1435508D01*
X90470364Y1309002D01*
X90519724Y1189836D01*
X90591384Y1082590D01*
X90682590Y991384D01*
X90789836Y919724D01*
X90909002Y870364D01*
X91035508Y845200D01*
X91164492Y845200D01*
X91290998Y870364D01*
X91410164Y919724D01*
X91517410Y991384D01*
X91608616Y1082590D01*
X91680276Y1189836D01*
X91729636Y1309002D01*
X91754800Y1435508D01*
X91754800Y1564492D01*
X91729636Y1690998D01*
X91680276Y1810164D01*
X91608616Y1917410D01*
X91517410Y2008616D01*
X91410164Y2080276D01*
X91290998Y2129636D01*
X91164492Y2154800D01*
X91035508Y2154800D01*
X90909002Y2129636D01*
X90789836Y2080276D01*
X90682590Y2008616D01*
X90591384Y1917410D01*
X90519724Y1810164D01*
X90470364Y1690998D01*
X90445200Y1564492D01*
X90054800Y1564492D01*
X90029636Y1690998D01*
X89980276Y1810164D01*
X89908616Y1917410D01*
X89817410Y2008616D01*
X89710164Y2080276D01*
X89590998Y2129636D01*
X89464492Y2154800D01*
X89335508Y2154800D01*
X89209002Y2129636D01*
X89089836Y2080276D01*
X88982590Y2008616D01*
X88891384Y1917410D01*
X88819724Y1810164D01*
X88770364Y1690998D01*
X88745200Y1564492D01*
X87143706Y1564492D01*
X87151657Y1667718D01*
X87062446Y1797600D01*
X86472400Y1797600D01*
X86167600Y1797600D01*
X85577554Y1797600D01*
X85488343Y1667718D01*
X78511657Y1667718D01*
X78422446Y1797600D01*
X77832400Y1797600D01*
X77527600Y1797600D01*
X76937554Y1797600D01*
X76848343Y1667718D01*
X72037131Y1667718D01*
X72014265Y1782674D01*
X71946944Y1945200D01*
X76250000Y1945200D01*
X76309464Y1951057D01*
X76366642Y1968402D01*
X76419338Y1996568D01*
X76465526Y2034474D01*
X76874470Y2443418D01*
X76860866Y2394871D01*
X76848343Y2232282D01*
X76937554Y2102400D01*
X77527600Y2102400D01*
X77527600Y2122400D01*
X77832400Y2122400D01*
X77832400Y2102400D01*
X78422446Y2102400D01*
X78511657Y2232282D01*
X85488343Y2232282D01*
X85577554Y2102400D01*
X86167600Y2102400D01*
X86167600Y2962483D01*
X86472400Y2962483D01*
X86472400Y2102400D01*
X87062446Y2102400D01*
X87151657Y2232282D01*
X87139134Y2394871D01*
X87095132Y2551892D01*
X87021342Y2697312D01*
X86920600Y2825542D01*
X86796777Y2931654D01*
X86594144Y3006669D01*
X86472400Y2962483D01*
X86167600Y2962483D01*
X86045856Y3006669D01*
X85843223Y2931654D01*
X85719400Y2825542D01*
X85618658Y2697312D01*
X85544868Y2551892D01*
X85500866Y2394871D01*
X85488343Y2232282D01*
X78511657Y2232282D01*
X78499134Y2394871D01*
X78455132Y2551892D01*
X78382414Y2695200D01*
X84500000Y2695200D01*
X84559464Y2701057D01*
X84616642Y2718402D01*
X84669338Y2746568D01*
X84715526Y2784474D01*
X85215526Y3284474D01*
X85253432Y3330662D01*
X85281598Y3383358D01*
X85298943Y3440536D01*
X85304800Y3500000D01*
X85304800Y4181312D01*
X94159107Y4181312D01*
X94159107Y3818688D01*
X94229852Y3463031D01*
X94368622Y3128010D01*
X94570085Y2826499D01*
X94826499Y2570085D01*
X95128010Y2368622D01*
X95463031Y2229852D01*
X95818688Y2159107D01*
X96181312Y2159107D01*
X96536969Y2229852D01*
X96871990Y2368622D01*
X97173501Y2570085D01*
X97429915Y2826499D01*
X97631378Y3128010D01*
X97770148Y3463031D01*
X97840893Y3818688D01*
X97840893Y4181312D01*
X97770148Y4536969D01*
X97631378Y4871990D01*
X97429915Y5173501D01*
X97173501Y5429915D01*
X96871990Y5631378D01*
X96536969Y5770148D01*
X96181312Y5840893D01*
X95818688Y5840893D01*
X95463031Y5770148D01*
X95128010Y5631378D01*
X94826499Y5429915D01*
X94570085Y5173501D01*
X94368622Y4871990D01*
X94229852Y4536969D01*
X94159107Y4181312D01*
X85304800Y4181312D01*
X85304800Y5124129D01*
X85379197Y5198526D01*
X85448121Y5301678D01*
X85495597Y5416294D01*
X85515200Y5514844D01*
X85515200Y5427600D01*
X85560396Y5273520D01*
X85634783Y5131218D01*
X85735502Y5006162D01*
X85858683Y4903158D01*
X85999592Y4826165D01*
X86045856Y4823331D01*
X86167600Y4867517D01*
X86167600Y5977600D01*
X86472400Y5977600D01*
X86472400Y4867517D01*
X86594144Y4823331D01*
X86640408Y4826165D01*
X86781317Y4903158D01*
X86904498Y5006162D01*
X87005217Y5131218D01*
X87079604Y5273520D01*
X87124800Y5427600D01*
X87124800Y5977600D01*
X86472400Y5977600D01*
X86167600Y5977600D01*
X85515200Y5977600D01*
X85515200Y5685156D01*
X85495597Y5783706D01*
X85448121Y5898322D01*
X85379197Y6001474D01*
X85291474Y6089197D01*
X85188322Y6158121D01*
X85073706Y6205597D01*
X84952030Y6229800D01*
X84827970Y6229800D01*
X84706294Y6205597D01*
X84591678Y6158121D01*
X84488526Y6089197D01*
X84454129Y6054800D01*
X79545871Y6054800D01*
X79511474Y6089197D01*
X79408322Y6158121D01*
X79293706Y6205597D01*
X79172030Y6229800D01*
X79047970Y6229800D01*
X78926294Y6205597D01*
X78811678Y6158121D01*
X78708526Y6089197D01*
X78620803Y6001474D01*
X78551879Y5898322D01*
X78504403Y5783706D01*
X78484800Y5685156D01*
X78484800Y5977600D01*
X77832400Y5977600D01*
X77832400Y4867517D01*
X77954144Y4823331D01*
X78000408Y4826165D01*
X78141317Y4903158D01*
X78264498Y5006162D01*
X78365217Y5131218D01*
X78439604Y5273520D01*
X78484800Y5427600D01*
X78484800Y5514844D01*
X78504403Y5416294D01*
X78551879Y5301678D01*
X78579415Y5260467D01*
X77873748Y4554800D01*
X39250000Y4554800D01*
X39190536Y4548943D01*
X39133358Y4531598D01*
X39080662Y4503432D01*
X39034474Y4465526D01*
X38784474Y4215526D01*
X38746568Y4169338D01*
X38718402Y4116642D01*
X38701057Y4059464D01*
X38695200Y4000000D01*
X5840893Y4000000D01*
X5840893Y4181312D01*
X5770148Y4536969D01*
X5631378Y4871990D01*
X5429915Y5173501D01*
X5173501Y5429915D01*
X4871990Y5631378D01*
X4536969Y5770148D01*
X4181312Y5840893D01*
X3818688Y5840893D01*
X3463031Y5770148D01*
X3128010Y5631378D01*
X2826499Y5429915D01*
X2570085Y5173501D01*
X2368622Y4871990D01*
X2229852Y4536969D01*
X2159107Y4181312D01*
X329800Y4181312D01*
X329800Y5977600D01*
X76875200Y5977600D01*
X76875200Y5427600D01*
X76920396Y5273520D01*
X76994783Y5131218D01*
X77095502Y5006162D01*
X77218683Y4903158D01*
X77359592Y4826165D01*
X77405856Y4823331D01*
X77527600Y4867517D01*
X77527600Y5977600D01*
X76875200Y5977600D01*
X329800Y5977600D01*
X329800Y6832400D01*
X76875200Y6832400D01*
X76875200Y6282400D01*
X77527600Y6282400D01*
X77527600Y7392483D01*
X77832400Y7392483D01*
X77832400Y6282400D01*
X78484800Y6282400D01*
X78484800Y6832400D01*
X85515200Y6832400D01*
X85515200Y6282400D01*
X86167600Y6282400D01*
X86167600Y7392483D01*
X86472400Y7392483D01*
X86472400Y6282400D01*
X87124800Y6282400D01*
X87124800Y6832400D01*
X87079604Y6986480D01*
X87005217Y7128782D01*
X86904498Y7253838D01*
X86781317Y7356842D01*
X86640408Y7433835D01*
X86594144Y7436669D01*
X86472400Y7392483D01*
X86167600Y7392483D01*
X86045856Y7436669D01*
X85999592Y7433835D01*
X85858683Y7356842D01*
X85735502Y7253838D01*
X85634783Y7128782D01*
X85560396Y6986480D01*
X85515200Y6832400D01*
X78484800Y6832400D01*
X78439604Y6986480D01*
X78365217Y7128782D01*
X78264498Y7253838D01*
X78141317Y7356842D01*
X78000408Y7433835D01*
X77954144Y7436669D01*
X77832400Y7392483D01*
X77527600Y7392483D01*
X77405856Y7436669D01*
X77359592Y7433835D01*
X77218683Y7356842D01*
X77095502Y7253838D01*
X76994783Y7128782D01*
X76920396Y6986480D01*
X76875200Y6832400D01*
X329800Y6832400D01*
X329800Y8578889D01*
X69945200Y8578889D01*
X69945200Y8371111D01*
X69985735Y8167326D01*
X70065248Y7975365D01*
X70180683Y7802604D01*
X70327604Y7655683D01*
X70500365Y7540248D01*
X70692326Y7460735D01*
X70896111Y7420200D01*
X71103889Y7420200D01*
X71307674Y7460735D01*
X71499635Y7540248D01*
X71672396Y7655683D01*
X71819317Y7802604D01*
X71934752Y7975365D01*
X72014265Y8167326D01*
X72054800Y8371111D01*
X72054800Y8578889D01*
X72014265Y8782674D01*
X71934752Y8974635D01*
X71819317Y9147396D01*
X71672396Y9294317D01*
X71499635Y9409752D01*
X71307674Y9489265D01*
X71103889Y9529800D01*
X70896111Y9529800D01*
X70692326Y9489265D01*
X70500365Y9409752D01*
X70327604Y9294317D01*
X70180683Y9147396D01*
X70065248Y8974635D01*
X69985735Y8782674D01*
X69945200Y8578889D01*
X329800Y8578889D01*
X329800Y9953738D01*
X94845200Y9953738D01*
X94845200Y9726262D01*
X94889578Y9503157D01*
X94976629Y9292997D01*
X95103008Y9103858D01*
X95263858Y8943008D01*
X95452997Y8816629D01*
X95663157Y8729578D01*
X95886262Y8685200D01*
X96113738Y8685200D01*
X96336843Y8729578D01*
X96547003Y8816629D01*
X96736142Y8943008D01*
X96896992Y9103858D01*
X97023371Y9292997D01*
X97110422Y9503157D01*
X97154800Y9726262D01*
X97154800Y9953738D01*
X97110422Y10176843D01*
X97023371Y10387003D01*
X96896992Y10576142D01*
X96736142Y10736992D01*
X96547003Y10863371D01*
X96336843Y10950422D01*
X96113738Y10994800D01*
X95886262Y10994800D01*
X95663157Y10950422D01*
X95452997Y10863371D01*
X95263858Y10736992D01*
X95103008Y10576142D01*
X94976629Y10387003D01*
X94889578Y10176843D01*
X94845200Y9953738D01*
X329800Y9953738D01*
X329800Y16309568D01*
X52895200Y16309568D01*
X52895200Y16190432D01*
X52918442Y16073586D01*
X52964034Y15963520D01*
X53030221Y15864463D01*
X53114463Y15780221D01*
X53213520Y15714034D01*
X53323586Y15668442D01*
X53440432Y15645200D01*
X53559568Y15645200D01*
X53676414Y15668442D01*
X53786480Y15714034D01*
X53845835Y15753693D01*
X57093600Y12505928D01*
X57093601Y12198917D01*
X57030221Y12135537D01*
X56964034Y12036480D01*
X56918442Y11926414D01*
X56895200Y11809568D01*
X56895200Y11690432D01*
X56918442Y11573586D01*
X56964034Y11463520D01*
X57030221Y11364463D01*
X57114463Y11280221D01*
X57213520Y11214034D01*
X57323586Y11168442D01*
X57440432Y11145200D01*
X57559568Y11145200D01*
X57676414Y11168442D01*
X57786480Y11214034D01*
X57885537Y11280221D01*
X57969779Y11364463D01*
X58035966Y11463520D01*
X58081558Y11573586D01*
X58104800Y11690432D01*
X58104800Y11809568D01*
X58081558Y11926414D01*
X58035966Y12036480D01*
X57969779Y12135537D01*
X57906400Y12198916D01*
X57906400Y12493738D01*
X94845200Y12493738D01*
X94845200Y12266262D01*
X94889578Y12043157D01*
X94976629Y11832997D01*
X95103008Y11643858D01*
X95263858Y11483008D01*
X95452997Y11356629D01*
X95663157Y11269578D01*
X95886262Y11225200D01*
X96113738Y11225200D01*
X96336843Y11269578D01*
X96547003Y11356629D01*
X96736142Y11483008D01*
X96896992Y11643858D01*
X97023371Y11832997D01*
X97110422Y12043157D01*
X97154800Y12266262D01*
X97154800Y12493738D01*
X97110422Y12716843D01*
X97023371Y12927003D01*
X96896992Y13116142D01*
X96736142Y13276992D01*
X96547003Y13403371D01*
X96336843Y13490422D01*
X96113738Y13534800D01*
X95886262Y13534800D01*
X95663157Y13490422D01*
X95452997Y13403371D01*
X95263858Y13276992D01*
X95103008Y13116142D01*
X94976629Y12927003D01*
X94889578Y12716843D01*
X94845200Y12493738D01*
X57906400Y12493738D01*
X57906400Y12654312D01*
X57908365Y12674265D01*
X57906400Y12694218D01*
X57906400Y12694224D01*
X57900519Y12753932D01*
X57877281Y12830539D01*
X57839544Y12901140D01*
X57788758Y12963022D01*
X57773255Y12975745D01*
X54225746Y16523254D01*
X54213022Y16538758D01*
X54151140Y16589544D01*
X54080539Y16627281D01*
X54003932Y16650519D01*
X53949429Y16655887D01*
X53885537Y16719779D01*
X53786480Y16785966D01*
X53676414Y16831558D01*
X53559568Y16854800D01*
X53440432Y16854800D01*
X53323586Y16831558D01*
X53213520Y16785966D01*
X53114463Y16719779D01*
X53030221Y16635537D01*
X52964034Y16536480D01*
X52918442Y16426414D01*
X52895200Y16309568D01*
X329800Y16309568D01*
X329800Y19059568D01*
X76895200Y19059568D01*
X76895200Y18940432D01*
X76918442Y18823586D01*
X76964034Y18713520D01*
X77030221Y18614463D01*
X77114463Y18530221D01*
X77213520Y18464034D01*
X77323586Y18418442D01*
X77440432Y18395200D01*
X77559568Y18395200D01*
X77676414Y18418442D01*
X77786480Y18464034D01*
X77828335Y18492000D01*
X88671665Y18492000D01*
X88713520Y18464034D01*
X88823586Y18418442D01*
X88940432Y18395200D01*
X89059568Y18395200D01*
X89176414Y18418442D01*
X89286480Y18464034D01*
X89385537Y18530221D01*
X89469779Y18614463D01*
X89535966Y18713520D01*
X89581558Y18823586D01*
X89604800Y18940432D01*
X89604800Y19059568D01*
X89581558Y19176414D01*
X89535966Y19286480D01*
X89469779Y19385537D01*
X89385537Y19469779D01*
X89286480Y19535966D01*
X89176414Y19581558D01*
X89115874Y19593600D01*
X91831664Y19593600D01*
X92093600Y19331663D01*
X92093601Y15519963D01*
X92091635Y15500000D01*
X92099481Y15420332D01*
X92122719Y15343726D01*
X92122720Y15343725D01*
X92160457Y15273124D01*
X92171602Y15259544D01*
X92198518Y15226746D01*
X92198524Y15226740D01*
X92211243Y15211242D01*
X92226741Y15198523D01*
X92778522Y14646741D01*
X92791242Y14631242D01*
X92806740Y14618523D01*
X92806745Y14618518D01*
X92827746Y14601283D01*
X92853124Y14580456D01*
X92923725Y14542719D01*
X93000331Y14519481D01*
X93007604Y14518765D01*
X93060040Y14513600D01*
X93060047Y14513600D01*
X93080000Y14511635D01*
X93099953Y14513600D01*
X94918389Y14513600D01*
X94976629Y14372997D01*
X95103008Y14183858D01*
X95263858Y14023008D01*
X95452997Y13896629D01*
X95663157Y13809578D01*
X95886262Y13765200D01*
X96113738Y13765200D01*
X96336843Y13809578D01*
X96547003Y13896629D01*
X96736142Y14023008D01*
X96896992Y14183858D01*
X97023371Y14372997D01*
X97110422Y14583157D01*
X97154800Y14806262D01*
X97154800Y15033738D01*
X97110422Y15256843D01*
X97023371Y15467003D01*
X96896992Y15656142D01*
X96736142Y15816992D01*
X96547003Y15943371D01*
X96336843Y16030422D01*
X96113738Y16074800D01*
X95886262Y16074800D01*
X95663157Y16030422D01*
X95452997Y15943371D01*
X95263858Y15816992D01*
X95103008Y15656142D01*
X94976629Y15467003D01*
X94918389Y15326400D01*
X93248337Y15326400D01*
X92906400Y15668336D01*
X92906400Y17573738D01*
X94845200Y17573738D01*
X94845200Y17346262D01*
X94889578Y17123157D01*
X94976629Y16912997D01*
X95103008Y16723858D01*
X95263858Y16563008D01*
X95452997Y16436629D01*
X95663157Y16349578D01*
X95886262Y16305200D01*
X96113738Y16305200D01*
X96336843Y16349578D01*
X96547003Y16436629D01*
X96736142Y16563008D01*
X96896992Y16723858D01*
X97023371Y16912997D01*
X97110422Y17123157D01*
X97154800Y17346262D01*
X97154800Y17573738D01*
X97110422Y17796843D01*
X97023371Y18007003D01*
X96896992Y18196142D01*
X96736142Y18356992D01*
X96547003Y18483371D01*
X96336843Y18570422D01*
X96113738Y18614800D01*
X95886262Y18614800D01*
X95663157Y18570422D01*
X95452997Y18483371D01*
X95263858Y18356992D01*
X95103008Y18196142D01*
X94976629Y18007003D01*
X94889578Y17796843D01*
X94845200Y17573738D01*
X92906400Y17573738D01*
X92906400Y19150000D01*
X94843725Y19150000D01*
X94849610Y19090249D01*
X94867039Y19032794D01*
X94895342Y18979843D01*
X94933431Y18933431D01*
X94979843Y18895342D01*
X95032794Y18867039D01*
X95090249Y18849610D01*
X95150000Y18843725D01*
X95771400Y18845200D01*
X95847600Y18921400D01*
X95847600Y19847600D01*
X96152400Y19847600D01*
X96152400Y18921400D01*
X96228600Y18845200D01*
X96850000Y18843725D01*
X96909751Y18849610D01*
X96967206Y18867039D01*
X97020157Y18895342D01*
X97066569Y18933431D01*
X97104658Y18979843D01*
X97132961Y19032794D01*
X97150390Y19090249D01*
X97156275Y19150000D01*
X97154800Y19771400D01*
X97078600Y19847600D01*
X96152400Y19847600D01*
X95847600Y19847600D01*
X94921400Y19847600D01*
X94845200Y19771400D01*
X94843725Y19150000D01*
X92906400Y19150000D01*
X92906400Y19480047D01*
X92908365Y19500000D01*
X92906400Y19519953D01*
X92906400Y19519960D01*
X92900519Y19579668D01*
X92892896Y19604800D01*
X92877281Y19656275D01*
X92875046Y19660456D01*
X92839544Y19726876D01*
X92803004Y19771400D01*
X92801482Y19773255D01*
X92801477Y19773260D01*
X92788758Y19788758D01*
X92773260Y19801476D01*
X92301482Y20273254D01*
X92288758Y20288758D01*
X92226876Y20339544D01*
X92156275Y20377281D01*
X92082307Y20399719D01*
X92176436Y20418442D01*
X92286502Y20464034D01*
X92385559Y20530221D01*
X92469801Y20614463D01*
X92535988Y20713520D01*
X92581580Y20823586D01*
X92586834Y20850000D01*
X94843725Y20850000D01*
X94845200Y20228600D01*
X94921400Y20152400D01*
X95847600Y20152400D01*
X95847600Y21078600D01*
X96152400Y21078600D01*
X96152400Y20152400D01*
X97078600Y20152400D01*
X97154800Y20228600D01*
X97156275Y20850000D01*
X97150390Y20909751D01*
X97132961Y20967206D01*
X97104658Y21020157D01*
X97066569Y21066569D01*
X97020157Y21104658D01*
X96967206Y21132961D01*
X96909751Y21150390D01*
X96850000Y21156275D01*
X96228600Y21154800D01*
X96152400Y21078600D01*
X95847600Y21078600D01*
X95771400Y21154800D01*
X95150000Y21156275D01*
X95090249Y21150390D01*
X95032794Y21132961D01*
X94979843Y21104658D01*
X94933431Y21066569D01*
X94895342Y21020157D01*
X94867039Y20967206D01*
X94849610Y20909751D01*
X94843725Y20850000D01*
X92586834Y20850000D01*
X92604822Y20940432D01*
X92604822Y21030064D01*
X93668358Y22093600D01*
X96301084Y22093600D01*
X96364463Y22030221D01*
X96463520Y21964034D01*
X96573586Y21918442D01*
X96690432Y21895200D01*
X96809568Y21895200D01*
X96926414Y21918442D01*
X97036480Y21964034D01*
X97135537Y22030221D01*
X97219779Y22114463D01*
X97285966Y22213520D01*
X97331558Y22323586D01*
X97354800Y22440432D01*
X97354800Y22559568D01*
X97331558Y22676414D01*
X97285966Y22786480D01*
X97219779Y22885537D01*
X97135537Y22969779D01*
X97036480Y23035966D01*
X96926414Y23081558D01*
X96809568Y23104800D01*
X96690432Y23104800D01*
X96573586Y23081558D01*
X96463520Y23035966D01*
X96364463Y22969779D01*
X96301084Y22906400D01*
X93519974Y22906400D01*
X93500021Y22908365D01*
X93480068Y22906400D01*
X93480062Y22906400D01*
X93428357Y22901307D01*
X93420353Y22900519D01*
X93397115Y22893470D01*
X93343747Y22877281D01*
X93273146Y22839544D01*
X93211264Y22788758D01*
X93198540Y22773254D01*
X92030086Y21604800D01*
X91940454Y21604800D01*
X91823608Y21581558D01*
X91713542Y21535966D01*
X91614485Y21469779D01*
X91530243Y21385537D01*
X91464056Y21286480D01*
X91418464Y21176414D01*
X91395222Y21059568D01*
X91395222Y20940432D01*
X91418464Y20823586D01*
X91464056Y20713520D01*
X91530243Y20614463D01*
X91614485Y20530221D01*
X91713542Y20464034D01*
X91823608Y20418442D01*
X91884148Y20406400D01*
X86948916Y20406400D01*
X86885537Y20469779D01*
X86786480Y20535966D01*
X86676414Y20581558D01*
X86559568Y20604800D01*
X86440432Y20604800D01*
X86323586Y20581558D01*
X86213520Y20535966D01*
X86114463Y20469779D01*
X86030221Y20385537D01*
X85964034Y20286480D01*
X85918442Y20176414D01*
X85895200Y20059568D01*
X85895200Y19940432D01*
X85918442Y19823586D01*
X85964034Y19713520D01*
X86030221Y19614463D01*
X86114463Y19530221D01*
X86147719Y19508000D01*
X77828335Y19508000D01*
X77786480Y19535966D01*
X77676414Y19581558D01*
X77559568Y19604800D01*
X77440432Y19604800D01*
X77323586Y19581558D01*
X77213520Y19535966D01*
X77114463Y19469779D01*
X77030221Y19385537D01*
X76964034Y19286480D01*
X76918442Y19176414D01*
X76895200Y19059568D01*
X329800Y19059568D01*
X329800Y25809568D01*
X73645200Y25809568D01*
X73645200Y25690432D01*
X73668442Y25573586D01*
X73714034Y25463520D01*
X73780221Y25364463D01*
X73864463Y25280221D01*
X73945657Y25225969D01*
X73921424Y25167466D01*
X73898182Y25050620D01*
X73898182Y24931484D01*
X73921424Y24814638D01*
X73967016Y24704572D01*
X74033203Y24605515D01*
X74117445Y24521273D01*
X74216502Y24455086D01*
X74326568Y24409494D01*
X74443414Y24386252D01*
X74562550Y24386252D01*
X74679396Y24409494D01*
X74789462Y24455086D01*
X74888519Y24521273D01*
X74972761Y24605515D01*
X75038948Y24704572D01*
X75054452Y24742000D01*
X79616771Y24742000D01*
X79680150Y24678621D01*
X79779207Y24612434D01*
X79889273Y24566842D01*
X80006119Y24543600D01*
X80125255Y24543600D01*
X80242101Y24566842D01*
X80352167Y24612434D01*
X80451224Y24678621D01*
X80535466Y24762863D01*
X80601653Y24861920D01*
X80647245Y24971986D01*
X80670487Y25088832D01*
X80670487Y25207968D01*
X80647245Y25324814D01*
X80601653Y25434880D01*
X80535466Y25533937D01*
X80451224Y25618179D01*
X80352167Y25684366D01*
X80242101Y25729958D01*
X80125255Y25753200D01*
X80104800Y25753200D01*
X80104800Y25809568D01*
X80081558Y25926414D01*
X80035966Y26036480D01*
X79969779Y26135537D01*
X79885537Y26219779D01*
X79786480Y26285966D01*
X79676414Y26331558D01*
X79559568Y26354800D01*
X79440432Y26354800D01*
X79323586Y26331558D01*
X79213520Y26285966D01*
X79114463Y26219779D01*
X79051084Y26156400D01*
X74698916Y26156400D01*
X74635537Y26219779D01*
X74536480Y26285966D01*
X74426414Y26331558D01*
X74309568Y26354800D01*
X74190432Y26354800D01*
X74073586Y26331558D01*
X73963520Y26285966D01*
X73864463Y26219779D01*
X73780221Y26135537D01*
X73714034Y26036480D01*
X73668442Y25926414D01*
X73645200Y25809568D01*
X329800Y25809568D01*
X329800Y29809568D01*
X75395200Y29809568D01*
X75395200Y29690432D01*
X75418442Y29573586D01*
X75464034Y29463520D01*
X75530221Y29364463D01*
X75614463Y29280221D01*
X75713520Y29214034D01*
X75823586Y29168442D01*
X75940432Y29145200D01*
X76030064Y29145200D01*
X77800124Y27375139D01*
X77812843Y27359641D01*
X77828341Y27346922D01*
X77828346Y27346917D01*
X77832236Y27343725D01*
X77874725Y27308855D01*
X77941571Y27273125D01*
X77945326Y27271118D01*
X78021932Y27247880D01*
X78029205Y27247164D01*
X78081641Y27241999D01*
X78081648Y27241999D01*
X78101601Y27240034D01*
X78121554Y27241999D01*
X83138068Y27241999D01*
X83158021Y27240034D01*
X83177974Y27241999D01*
X83177981Y27241999D01*
X83237689Y27247880D01*
X83314296Y27271118D01*
X83384897Y27308855D01*
X83446779Y27359641D01*
X83459503Y27375145D01*
X84173148Y28088789D01*
X84615685Y28088789D01*
X84635638Y28086824D01*
X84655591Y28088789D01*
X84655598Y28088789D01*
X84715306Y28094670D01*
X84791913Y28117908D01*
X84862514Y28155645D01*
X84924396Y28206431D01*
X84937120Y28221935D01*
X86685579Y29970394D01*
X86685578Y27948916D01*
X86622199Y27885537D01*
X86556012Y27786480D01*
X86510420Y27676414D01*
X86487178Y27559568D01*
X86487178Y27440432D01*
X86510420Y27323586D01*
X86556012Y27213520D01*
X86622199Y27114463D01*
X86706441Y27030221D01*
X86805498Y26964034D01*
X86915564Y26918442D01*
X87032410Y26895200D01*
X87151546Y26895200D01*
X87268392Y26918442D01*
X87378458Y26964034D01*
X87477515Y27030221D01*
X87561757Y27114463D01*
X87627944Y27213520D01*
X87673536Y27323586D01*
X87696778Y27440432D01*
X87696778Y27559568D01*
X87673536Y27676414D01*
X87627944Y27786480D01*
X87561757Y27885537D01*
X87498378Y27948916D01*
X87498378Y28707968D01*
X88895200Y28707968D01*
X88895200Y28588832D01*
X88918442Y28471986D01*
X88964034Y28361920D01*
X89030221Y28262863D01*
X89114463Y28178621D01*
X89213520Y28112434D01*
X89323586Y28066842D01*
X89440432Y28043600D01*
X89559568Y28043600D01*
X89676414Y28066842D01*
X89786480Y28112434D01*
X89885537Y28178621D01*
X89969779Y28262863D01*
X90035966Y28361920D01*
X90081558Y28471986D01*
X90104800Y28588832D01*
X90104800Y28707968D01*
X90081558Y28824814D01*
X90035966Y28934880D01*
X89969779Y29033937D01*
X89906400Y29097316D01*
X89906400Y29160646D01*
X90055445Y29309691D01*
X90145077Y29309691D01*
X90261923Y29332933D01*
X90371989Y29378525D01*
X90471046Y29444712D01*
X90555288Y29528954D01*
X90621475Y29628011D01*
X90667067Y29738077D01*
X90690309Y29854923D01*
X90690309Y29974059D01*
X90667067Y30090905D01*
X90621475Y30200971D01*
X90555288Y30300028D01*
X90471046Y30384270D01*
X90371989Y30450457D01*
X90261923Y30496049D01*
X90145077Y30519291D01*
X90025941Y30519291D01*
X89909095Y30496049D01*
X89799029Y30450457D01*
X89699972Y30384270D01*
X89615730Y30300028D01*
X89549543Y30200971D01*
X89503951Y30090905D01*
X89480709Y29974059D01*
X89480709Y29884427D01*
X89226746Y29630464D01*
X89211242Y29617740D01*
X89160456Y29555857D01*
X89122720Y29485257D01*
X89122719Y29485256D01*
X89107879Y29436333D01*
X89099481Y29408649D01*
X89093600Y29348941D01*
X89093600Y29348935D01*
X89091635Y29328982D01*
X89093600Y29309029D01*
X89093600Y29097316D01*
X89030221Y29033937D01*
X88964034Y28934880D01*
X88918442Y28824814D01*
X88895200Y28707968D01*
X87498378Y28707968D01*
X87498378Y30168831D01*
X88668337Y31338789D01*
X90787431Y31338789D01*
X90807384Y31336824D01*
X90827337Y31338789D01*
X90827344Y31338789D01*
X90887052Y31344670D01*
X90963659Y31367908D01*
X91034260Y31405645D01*
X91096142Y31456431D01*
X91108871Y31471941D01*
X91628929Y31991999D01*
X94518816Y31991999D01*
X94538769Y31990034D01*
X94558722Y31991999D01*
X94558729Y31991999D01*
X94618437Y31997880D01*
X94695044Y32021118D01*
X94765645Y32058855D01*
X94827527Y32109641D01*
X94840251Y32125145D01*
X95124855Y32409749D01*
X95140359Y32422473D01*
X95191145Y32484355D01*
X95228882Y32554956D01*
X95249437Y32622719D01*
X95252120Y32631562D01*
X95254966Y32660456D01*
X95258001Y32691271D01*
X95258001Y32691277D01*
X95259966Y32711230D01*
X95258001Y32731183D01*
X95258001Y33268817D01*
X95259966Y33288770D01*
X95258001Y33308723D01*
X95258001Y33308729D01*
X95252120Y33368437D01*
X95228882Y33445044D01*
X95191145Y33515645D01*
X95140359Y33577527D01*
X95124856Y33590250D01*
X93646673Y35068433D01*
X93633949Y35083937D01*
X93572067Y35134723D01*
X93501466Y35172460D01*
X93424859Y35195698D01*
X93365151Y35201579D01*
X93365144Y35201579D01*
X93345191Y35203544D01*
X93325238Y35201579D01*
X92698916Y35201579D01*
X92635537Y35264958D01*
X92536480Y35331145D01*
X92426414Y35376737D01*
X92309568Y35399979D01*
X92190432Y35399979D01*
X92073586Y35376737D01*
X91963520Y35331145D01*
X91864463Y35264958D01*
X91780221Y35180716D01*
X91714034Y35081659D01*
X91668442Y34971593D01*
X91645200Y34854747D01*
X91645200Y34735611D01*
X91668442Y34618765D01*
X91714034Y34508699D01*
X91780221Y34409642D01*
X91864463Y34325400D01*
X91963520Y34259213D01*
X92073586Y34213621D01*
X92190432Y34190379D01*
X92309568Y34190379D01*
X92426414Y34213621D01*
X92536480Y34259213D01*
X92635537Y34325400D01*
X92698916Y34388779D01*
X93176855Y34388779D01*
X94010293Y33555341D01*
X93963520Y33535966D01*
X93864463Y33469779D01*
X93801084Y33406400D01*
X91511923Y33406400D01*
X91491970Y33408365D01*
X91472017Y33406400D01*
X91472010Y33406400D01*
X91419574Y33401235D01*
X91412301Y33400519D01*
X91378907Y33390389D01*
X91335695Y33377281D01*
X91265094Y33339544D01*
X91239716Y33318717D01*
X91218715Y33301482D01*
X91218710Y33301477D01*
X91203212Y33288758D01*
X91190492Y33273259D01*
X90906940Y32989707D01*
X90887566Y33036480D01*
X90836963Y33112214D01*
X90871595Y33122719D01*
X90942196Y33160456D01*
X91004078Y33211242D01*
X91016802Y33226746D01*
X91180445Y33390389D01*
X91270077Y33390389D01*
X91386923Y33413631D01*
X91496989Y33459223D01*
X91596046Y33525410D01*
X91680288Y33609652D01*
X91746475Y33708709D01*
X91792067Y33818775D01*
X91815309Y33935621D01*
X91815309Y34054757D01*
X91792067Y34171603D01*
X91746475Y34281669D01*
X91680288Y34380726D01*
X91596046Y34464968D01*
X91496989Y34531155D01*
X91386923Y34576747D01*
X91270077Y34599989D01*
X91150941Y34599989D01*
X91034095Y34576747D01*
X90924029Y34531155D01*
X90824972Y34464968D01*
X90740730Y34380726D01*
X90674543Y34281669D01*
X90628951Y34171603D01*
X90605709Y34054757D01*
X90605709Y33965125D01*
X90546984Y33906400D01*
X88519952Y33906400D01*
X88499999Y33908365D01*
X88480046Y33906400D01*
X88480040Y33906400D01*
X88428335Y33901307D01*
X88420331Y33900519D01*
X88397093Y33893470D01*
X88343725Y33877281D01*
X88273124Y33839544D01*
X88211242Y33788758D01*
X88198518Y33773254D01*
X84331664Y29906400D01*
X82198916Y29906400D01*
X82135537Y29969779D01*
X82036480Y30035966D01*
X81926414Y30081558D01*
X81809568Y30104800D01*
X81690432Y30104800D01*
X81573586Y30081558D01*
X81463520Y30035966D01*
X81364463Y29969779D01*
X81280221Y29885537D01*
X81220794Y29796597D01*
X81211242Y29788758D01*
X81160456Y29726876D01*
X81122719Y29656275D01*
X81099481Y29579668D01*
X81091634Y29500000D01*
X81099481Y29420332D01*
X81122719Y29343725D01*
X81160456Y29273124D01*
X81207450Y29215862D01*
X81172473Y29187157D01*
X81159745Y29171648D01*
X81042895Y29054799D01*
X80629568Y29054799D01*
X78656400Y31027966D01*
X78656400Y31551084D01*
X78719779Y31614463D01*
X78785966Y31713520D01*
X78831558Y31823586D01*
X78854800Y31940432D01*
X78854800Y32059568D01*
X78831558Y32176414D01*
X78785966Y32286480D01*
X78719779Y32385537D01*
X78635537Y32469779D01*
X78536480Y32535966D01*
X78426414Y32581558D01*
X78309568Y32604800D01*
X78190432Y32604800D01*
X78073586Y32581558D01*
X77963520Y32535966D01*
X77864463Y32469779D01*
X77780221Y32385537D01*
X77714034Y32286480D01*
X77668442Y32176414D01*
X77645200Y32059568D01*
X77645200Y31940432D01*
X77668442Y31823586D01*
X77714034Y31713520D01*
X77780221Y31614463D01*
X77843600Y31551084D01*
X77843601Y30879592D01*
X77841635Y30859630D01*
X77849481Y30779962D01*
X77872719Y30703356D01*
X77890286Y30670492D01*
X77910457Y30632754D01*
X77927549Y30611928D01*
X77948518Y30586376D01*
X77948524Y30586370D01*
X77961243Y30570872D01*
X77976741Y30558153D01*
X80159754Y28375139D01*
X80172473Y28359641D01*
X80187971Y28346922D01*
X80187976Y28346917D01*
X80208977Y28329682D01*
X80234355Y28308855D01*
X80304954Y28271119D01*
X80304956Y28271118D01*
X80381562Y28247880D01*
X80388835Y28247164D01*
X80441271Y28241999D01*
X80441278Y28241999D01*
X80461231Y28240034D01*
X80481184Y28241999D01*
X81191278Y28241999D01*
X81211231Y28240034D01*
X81231184Y28241999D01*
X81231191Y28241999D01*
X81290899Y28247880D01*
X81367506Y28271118D01*
X81438107Y28308855D01*
X81499989Y28359641D01*
X81512713Y28375146D01*
X81629566Y28491999D01*
X82018816Y28491999D01*
X82038769Y28490034D01*
X82058722Y28491999D01*
X82058729Y28491999D01*
X82118437Y28497880D01*
X82195044Y28521118D01*
X82265645Y28558855D01*
X82327527Y28609641D01*
X82340252Y28625146D01*
X82405496Y28690390D01*
X83625275Y28690390D01*
X82989685Y28054799D01*
X78269938Y28054799D01*
X76604800Y29719936D01*
X76604800Y29809568D01*
X76581558Y29926414D01*
X76535966Y30036480D01*
X76469779Y30135537D01*
X76385537Y30219779D01*
X76286480Y30285966D01*
X76176414Y30331558D01*
X76059568Y30354800D01*
X75940432Y30354800D01*
X75823586Y30331558D01*
X75713520Y30285966D01*
X75614463Y30219779D01*
X75530221Y30135537D01*
X75464034Y30036480D01*
X75418442Y29926414D01*
X75395200Y29809568D01*
X329800Y29809568D01*
X329800Y37983870D01*
X349159Y38181312D01*
X2159107Y38181312D01*
X2159107Y37818688D01*
X2229852Y37463031D01*
X2368622Y37128010D01*
X2570085Y36826499D01*
X2826499Y36570085D01*
X3128010Y36368622D01*
X3463031Y36229852D01*
X3818688Y36159107D01*
X4181312Y36159107D01*
X4536969Y36229852D01*
X4871990Y36368622D01*
X5173501Y36570085D01*
X5429915Y36826499D01*
X5631378Y37128010D01*
X5770148Y37463031D01*
X5840893Y37818688D01*
X5840893Y38181312D01*
X94159107Y38181312D01*
X94159107Y37818688D01*
X94229852Y37463031D01*
X94368622Y37128010D01*
X94570085Y36826499D01*
X94826499Y36570085D01*
X95128010Y36368622D01*
X95463031Y36229852D01*
X95818688Y36159107D01*
X96181312Y36159107D01*
X96536969Y36229852D01*
X96871990Y36368622D01*
X97173501Y36570085D01*
X97429915Y36826499D01*
X97631378Y37128010D01*
X97770148Y37463031D01*
X97840893Y37818688D01*
X97840893Y38181312D01*
X97770148Y38536969D01*
X97631378Y38871990D01*
X97429915Y39173501D01*
X97173501Y39429915D01*
X96871990Y39631378D01*
X96536969Y39770148D01*
X96181312Y39840893D01*
X95818688Y39840893D01*
X95463031Y39770148D01*
X95128010Y39631378D01*
X94826499Y39429915D01*
X94570085Y39173501D01*
X94368622Y38871990D01*
X94229852Y38536969D01*
X94159107Y38181312D01*
X5840893Y38181312D01*
X5770148Y38536969D01*
X5631378Y38871990D01*
X5429915Y39173501D01*
X5173501Y39429915D01*
X4871990Y39631378D01*
X4536969Y39770148D01*
X4181312Y39840893D01*
X3818688Y39840893D01*
X3463031Y39770148D01*
X3128010Y39631378D01*
X2826499Y39429915D01*
X2570085Y39173501D01*
X2368622Y38871990D01*
X2229852Y38536969D01*
X2159107Y38181312D01*
X349159Y38181312D01*
X401249Y38712570D01*
X608194Y39398003D01*
X944328Y40030180D01*
X1396857Y40585036D01*
X1948535Y41041423D01*
X2578353Y41381964D01*
X3262323Y41593688D01*
X3989928Y41670163D01*
X4000569Y41670200D01*
X95983870Y41670200D01*
X96712570Y41598751D01*
G37*
X96712570Y41598751D02*
X97398003Y41391806D01*
X98030180Y41055672D01*
X98585036Y40603143D01*
X99041423Y40051465D01*
X99381964Y39421647D01*
X99593688Y38737677D01*
X99670163Y38010072D01*
X99670201Y37999143D01*
X99670200Y4016130D01*
X99598751Y3287429D01*
X99391806Y2601997D01*
X99055670Y1969818D01*
X98603145Y1414967D01*
X98051468Y958579D01*
X97421648Y618036D01*
X96737676Y406312D01*
X96010072Y329837D01*
X95999430Y329800D01*
X4016130Y329800D01*
X3287429Y401249D01*
X2601997Y608194D01*
X1969818Y944330D01*
X1414967Y1396855D01*
X958579Y1948532D01*
X618036Y2578352D01*
X406312Y3262324D01*
X329837Y3989928D01*
X329800Y4000570D01*
X329800Y4181312D01*
X2159107Y4181312D01*
X2159107Y3818688D01*
X2229852Y3463031D01*
X2368622Y3128010D01*
X2570085Y2826499D01*
X2826499Y2570085D01*
X3128010Y2368622D01*
X3463031Y2229852D01*
X3818688Y2159107D01*
X4181312Y2159107D01*
X4536969Y2229852D01*
X4871990Y2368622D01*
X5173501Y2570085D01*
X5429915Y2826499D01*
X5631378Y3128010D01*
X5770148Y3463031D01*
X5840893Y3818688D01*
X5840893Y4000000D01*
X38695200Y4000000D01*
X38695200Y2500000D01*
X38701057Y2440536D01*
X38718402Y2383358D01*
X38746568Y2330662D01*
X38784474Y2284474D01*
X39034474Y2034474D01*
X39080662Y1996568D01*
X39133358Y1968402D01*
X39190536Y1951057D01*
X39250000Y1945200D01*
X70053056Y1945200D01*
X69985735Y1782674D01*
X69945200Y1578889D01*
X69945200Y1371111D01*
X69985735Y1167326D01*
X70065248Y975365D01*
X70180683Y802604D01*
X70327604Y655683D01*
X70500365Y540248D01*
X70692326Y460735D01*
X70896111Y420200D01*
X71103889Y420200D01*
X71307674Y460735D01*
X71499635Y540248D01*
X71672396Y655683D01*
X71819317Y802604D01*
X71934752Y975365D01*
X72014265Y1167326D01*
X72054800Y1371111D01*
X72054800Y1578889D01*
X72037131Y1667718D01*
X76848343Y1667718D01*
X76860866Y1505129D01*
X76904868Y1348108D01*
X76978658Y1202688D01*
X77079400Y1074458D01*
X77203223Y968346D01*
X77405856Y893331D01*
X77527600Y937517D01*
X77527600Y1797600D01*
X77832400Y1797600D01*
X77832400Y937517D01*
X77954144Y893331D01*
X78156777Y968346D01*
X78280600Y1074458D01*
X78381342Y1202688D01*
X78455132Y1348108D01*
X78499134Y1505129D01*
X78511657Y1667718D01*
X85488343Y1667718D01*
X85500866Y1505129D01*
X85544868Y1348108D01*
X85618658Y1202688D01*
X85719400Y1074458D01*
X85843223Y968346D01*
X86045856Y893331D01*
X86167600Y937517D01*
X86167600Y1797600D01*
X86472400Y1797600D01*
X86472400Y937517D01*
X86594144Y893331D01*
X86796777Y968346D01*
X86920600Y1074458D01*
X87021342Y1202688D01*
X87095132Y1348108D01*
X87139134Y1505129D01*
X87143706Y1564492D01*
X88745200Y1564492D01*
X88745200Y1435508D01*
X88770364Y1309002D01*
X88819724Y1189836D01*
X88891384Y1082590D01*
X88982590Y991384D01*
X89089836Y919724D01*
X89209002Y870364D01*
X89335508Y845200D01*
X89464492Y845200D01*
X89590998Y870364D01*
X89710164Y919724D01*
X89817410Y991384D01*
X89908616Y1082590D01*
X89980276Y1189836D01*
X90029636Y1309002D01*
X90054800Y1435508D01*
X90054800Y1564492D01*
X90445200Y1564492D01*
X90445200Y1435508D01*
X90470364Y1309002D01*
X90519724Y1189836D01*
X90591384Y1082590D01*
X90682590Y991384D01*
X90789836Y919724D01*
X90909002Y870364D01*
X91035508Y845200D01*
X91164492Y845200D01*
X91290998Y870364D01*
X91410164Y919724D01*
X91517410Y991384D01*
X91608616Y1082590D01*
X91680276Y1189836D01*
X91729636Y1309002D01*
X91754800Y1435508D01*
X91754800Y1564492D01*
X91729636Y1690998D01*
X91680276Y1810164D01*
X91608616Y1917410D01*
X91517410Y2008616D01*
X91410164Y2080276D01*
X91290998Y2129636D01*
X91164492Y2154800D01*
X91035508Y2154800D01*
X90909002Y2129636D01*
X90789836Y2080276D01*
X90682590Y2008616D01*
X90591384Y1917410D01*
X90519724Y1810164D01*
X90470364Y1690998D01*
X90445200Y1564492D01*
X90054800Y1564492D01*
X90029636Y1690998D01*
X89980276Y1810164D01*
X89908616Y1917410D01*
X89817410Y2008616D01*
X89710164Y2080276D01*
X89590998Y2129636D01*
X89464492Y2154800D01*
X89335508Y2154800D01*
X89209002Y2129636D01*
X89089836Y2080276D01*
X88982590Y2008616D01*
X88891384Y1917410D01*
X88819724Y1810164D01*
X88770364Y1690998D01*
X88745200Y1564492D01*
X87143706Y1564492D01*
X87151657Y1667718D01*
X87062446Y1797600D01*
X86472400Y1797600D01*
X86167600Y1797600D01*
X85577554Y1797600D01*
X85488343Y1667718D01*
X78511657Y1667718D01*
X78422446Y1797600D01*
X77832400Y1797600D01*
X77527600Y1797600D01*
X76937554Y1797600D01*
X76848343Y1667718D01*
X72037131Y1667718D01*
X72014265Y1782674D01*
X71946944Y1945200D01*
X76250000Y1945200D01*
X76309464Y1951057D01*
X76366642Y1968402D01*
X76419338Y1996568D01*
X76465526Y2034474D01*
X76874470Y2443418D01*
X76860866Y2394871D01*
X76848343Y2232282D01*
X76937554Y2102400D01*
X77527600Y2102400D01*
X77527600Y2122400D01*
X77832400Y2122400D01*
X77832400Y2102400D01*
X78422446Y2102400D01*
X78511657Y2232282D01*
X85488343Y2232282D01*
X85577554Y2102400D01*
X86167600Y2102400D01*
X86167600Y2962483D01*
X86472400Y2962483D01*
X86472400Y2102400D01*
X87062446Y2102400D01*
X87151657Y2232282D01*
X87139134Y2394871D01*
X87095132Y2551892D01*
X87021342Y2697312D01*
X86920600Y2825542D01*
X86796777Y2931654D01*
X86594144Y3006669D01*
X86472400Y2962483D01*
X86167600Y2962483D01*
X86045856Y3006669D01*
X85843223Y2931654D01*
X85719400Y2825542D01*
X85618658Y2697312D01*
X85544868Y2551892D01*
X85500866Y2394871D01*
X85488343Y2232282D01*
X78511657Y2232282D01*
X78499134Y2394871D01*
X78455132Y2551892D01*
X78382414Y2695200D01*
X84500000Y2695200D01*
X84559464Y2701057D01*
X84616642Y2718402D01*
X84669338Y2746568D01*
X84715526Y2784474D01*
X85215526Y3284474D01*
X85253432Y3330662D01*
X85281598Y3383358D01*
X85298943Y3440536D01*
X85304800Y3500000D01*
X85304800Y4181312D01*
X94159107Y4181312D01*
X94159107Y3818688D01*
X94229852Y3463031D01*
X94368622Y3128010D01*
X94570085Y2826499D01*
X94826499Y2570085D01*
X95128010Y2368622D01*
X95463031Y2229852D01*
X95818688Y2159107D01*
X96181312Y2159107D01*
X96536969Y2229852D01*
X96871990Y2368622D01*
X97173501Y2570085D01*
X97429915Y2826499D01*
X97631378Y3128010D01*
X97770148Y3463031D01*
X97840893Y3818688D01*
X97840893Y4181312D01*
X97770148Y4536969D01*
X97631378Y4871990D01*
X97429915Y5173501D01*
X97173501Y5429915D01*
X96871990Y5631378D01*
X96536969Y5770148D01*
X96181312Y5840893D01*
X95818688Y5840893D01*
X95463031Y5770148D01*
X95128010Y5631378D01*
X94826499Y5429915D01*
X94570085Y5173501D01*
X94368622Y4871990D01*
X94229852Y4536969D01*
X94159107Y4181312D01*
X85304800Y4181312D01*
X85304800Y5124129D01*
X85379197Y5198526D01*
X85448121Y5301678D01*
X85495597Y5416294D01*
X85515200Y5514844D01*
X85515200Y5427600D01*
X85560396Y5273520D01*
X85634783Y5131218D01*
X85735502Y5006162D01*
X85858683Y4903158D01*
X85999592Y4826165D01*
X86045856Y4823331D01*
X86167600Y4867517D01*
X86167600Y5977600D01*
X86472400Y5977600D01*
X86472400Y4867517D01*
X86594144Y4823331D01*
X86640408Y4826165D01*
X86781317Y4903158D01*
X86904498Y5006162D01*
X87005217Y5131218D01*
X87079604Y5273520D01*
X87124800Y5427600D01*
X87124800Y5977600D01*
X86472400Y5977600D01*
X86167600Y5977600D01*
X85515200Y5977600D01*
X85515200Y5685156D01*
X85495597Y5783706D01*
X85448121Y5898322D01*
X85379197Y6001474D01*
X85291474Y6089197D01*
X85188322Y6158121D01*
X85073706Y6205597D01*
X84952030Y6229800D01*
X84827970Y6229800D01*
X84706294Y6205597D01*
X84591678Y6158121D01*
X84488526Y6089197D01*
X84454129Y6054800D01*
X79545871Y6054800D01*
X79511474Y6089197D01*
X79408322Y6158121D01*
X79293706Y6205597D01*
X79172030Y6229800D01*
X79047970Y6229800D01*
X78926294Y6205597D01*
X78811678Y6158121D01*
X78708526Y6089197D01*
X78620803Y6001474D01*
X78551879Y5898322D01*
X78504403Y5783706D01*
X78484800Y5685156D01*
X78484800Y5977600D01*
X77832400Y5977600D01*
X77832400Y4867517D01*
X77954144Y4823331D01*
X78000408Y4826165D01*
X78141317Y4903158D01*
X78264498Y5006162D01*
X78365217Y5131218D01*
X78439604Y5273520D01*
X78484800Y5427600D01*
X78484800Y5514844D01*
X78504403Y5416294D01*
X78551879Y5301678D01*
X78579415Y5260467D01*
X77873748Y4554800D01*
X39250000Y4554800D01*
X39190536Y4548943D01*
X39133358Y4531598D01*
X39080662Y4503432D01*
X39034474Y4465526D01*
X38784474Y4215526D01*
X38746568Y4169338D01*
X38718402Y4116642D01*
X38701057Y4059464D01*
X38695200Y4000000D01*
X5840893Y4000000D01*
X5840893Y4181312D01*
X5770148Y4536969D01*
X5631378Y4871990D01*
X5429915Y5173501D01*
X5173501Y5429915D01*
X4871990Y5631378D01*
X4536969Y5770148D01*
X4181312Y5840893D01*
X3818688Y5840893D01*
X3463031Y5770148D01*
X3128010Y5631378D01*
X2826499Y5429915D01*
X2570085Y5173501D01*
X2368622Y4871990D01*
X2229852Y4536969D01*
X2159107Y4181312D01*
X329800Y4181312D01*
X329800Y5977600D01*
X76875200Y5977600D01*
X76875200Y5427600D01*
X76920396Y5273520D01*
X76994783Y5131218D01*
X77095502Y5006162D01*
X77218683Y4903158D01*
X77359592Y4826165D01*
X77405856Y4823331D01*
X77527600Y4867517D01*
X77527600Y5977600D01*
X76875200Y5977600D01*
X329800Y5977600D01*
X329800Y6832400D01*
X76875200Y6832400D01*
X76875200Y6282400D01*
X77527600Y6282400D01*
X77527600Y7392483D01*
X77832400Y7392483D01*
X77832400Y6282400D01*
X78484800Y6282400D01*
X78484800Y6832400D01*
X85515200Y6832400D01*
X85515200Y6282400D01*
X86167600Y6282400D01*
X86167600Y7392483D01*
X86472400Y7392483D01*
X86472400Y6282400D01*
X87124800Y6282400D01*
X87124800Y6832400D01*
X87079604Y6986480D01*
X87005217Y7128782D01*
X86904498Y7253838D01*
X86781317Y7356842D01*
X86640408Y7433835D01*
X86594144Y7436669D01*
X86472400Y7392483D01*
X86167600Y7392483D01*
X86045856Y7436669D01*
X85999592Y7433835D01*
X85858683Y7356842D01*
X85735502Y7253838D01*
X85634783Y7128782D01*
X85560396Y6986480D01*
X85515200Y6832400D01*
X78484800Y6832400D01*
X78439604Y6986480D01*
X78365217Y7128782D01*
X78264498Y7253838D01*
X78141317Y7356842D01*
X78000408Y7433835D01*
X77954144Y7436669D01*
X77832400Y7392483D01*
X77527600Y7392483D01*
X77405856Y7436669D01*
X77359592Y7433835D01*
X77218683Y7356842D01*
X77095502Y7253838D01*
X76994783Y7128782D01*
X76920396Y6986480D01*
X76875200Y6832400D01*
X329800Y6832400D01*
X329800Y8578889D01*
X69945200Y8578889D01*
X69945200Y8371111D01*
X69985735Y8167326D01*
X70065248Y7975365D01*
X70180683Y7802604D01*
X70327604Y7655683D01*
X70500365Y7540248D01*
X70692326Y7460735D01*
X70896111Y7420200D01*
X71103889Y7420200D01*
X71307674Y7460735D01*
X71499635Y7540248D01*
X71672396Y7655683D01*
X71819317Y7802604D01*
X71934752Y7975365D01*
X72014265Y8167326D01*
X72054800Y8371111D01*
X72054800Y8578889D01*
X72014265Y8782674D01*
X71934752Y8974635D01*
X71819317Y9147396D01*
X71672396Y9294317D01*
X71499635Y9409752D01*
X71307674Y9489265D01*
X71103889Y9529800D01*
X70896111Y9529800D01*
X70692326Y9489265D01*
X70500365Y9409752D01*
X70327604Y9294317D01*
X70180683Y9147396D01*
X70065248Y8974635D01*
X69985735Y8782674D01*
X69945200Y8578889D01*
X329800Y8578889D01*
X329800Y9953738D01*
X94845200Y9953738D01*
X94845200Y9726262D01*
X94889578Y9503157D01*
X94976629Y9292997D01*
X95103008Y9103858D01*
X95263858Y8943008D01*
X95452997Y8816629D01*
X95663157Y8729578D01*
X95886262Y8685200D01*
X96113738Y8685200D01*
X96336843Y8729578D01*
X96547003Y8816629D01*
X96736142Y8943008D01*
X96896992Y9103858D01*
X97023371Y9292997D01*
X97110422Y9503157D01*
X97154800Y9726262D01*
X97154800Y9953738D01*
X97110422Y10176843D01*
X97023371Y10387003D01*
X96896992Y10576142D01*
X96736142Y10736992D01*
X96547003Y10863371D01*
X96336843Y10950422D01*
X96113738Y10994800D01*
X95886262Y10994800D01*
X95663157Y10950422D01*
X95452997Y10863371D01*
X95263858Y10736992D01*
X95103008Y10576142D01*
X94976629Y10387003D01*
X94889578Y10176843D01*
X94845200Y9953738D01*
X329800Y9953738D01*
X329800Y16309568D01*
X52895200Y16309568D01*
X52895200Y16190432D01*
X52918442Y16073586D01*
X52964034Y15963520D01*
X53030221Y15864463D01*
X53114463Y15780221D01*
X53213520Y15714034D01*
X53323586Y15668442D01*
X53440432Y15645200D01*
X53559568Y15645200D01*
X53676414Y15668442D01*
X53786480Y15714034D01*
X53845835Y15753693D01*
X57093600Y12505928D01*
X57093601Y12198917D01*
X57030221Y12135537D01*
X56964034Y12036480D01*
X56918442Y11926414D01*
X56895200Y11809568D01*
X56895200Y11690432D01*
X56918442Y11573586D01*
X56964034Y11463520D01*
X57030221Y11364463D01*
X57114463Y11280221D01*
X57213520Y11214034D01*
X57323586Y11168442D01*
X57440432Y11145200D01*
X57559568Y11145200D01*
X57676414Y11168442D01*
X57786480Y11214034D01*
X57885537Y11280221D01*
X57969779Y11364463D01*
X58035966Y11463520D01*
X58081558Y11573586D01*
X58104800Y11690432D01*
X58104800Y11809568D01*
X58081558Y11926414D01*
X58035966Y12036480D01*
X57969779Y12135537D01*
X57906400Y12198916D01*
X57906400Y12493738D01*
X94845200Y12493738D01*
X94845200Y12266262D01*
X94889578Y12043157D01*
X94976629Y11832997D01*
X95103008Y11643858D01*
X95263858Y11483008D01*
X95452997Y11356629D01*
X95663157Y11269578D01*
X95886262Y11225200D01*
X96113738Y11225200D01*
X96336843Y11269578D01*
X96547003Y11356629D01*
X96736142Y11483008D01*
X96896992Y11643858D01*
X97023371Y11832997D01*
X97110422Y12043157D01*
X97154800Y12266262D01*
X97154800Y12493738D01*
X97110422Y12716843D01*
X97023371Y12927003D01*
X96896992Y13116142D01*
X96736142Y13276992D01*
X96547003Y13403371D01*
X96336843Y13490422D01*
X96113738Y13534800D01*
X95886262Y13534800D01*
X95663157Y13490422D01*
X95452997Y13403371D01*
X95263858Y13276992D01*
X95103008Y13116142D01*
X94976629Y12927003D01*
X94889578Y12716843D01*
X94845200Y12493738D01*
X57906400Y12493738D01*
X57906400Y12654312D01*
X57908365Y12674265D01*
X57906400Y12694218D01*
X57906400Y12694224D01*
X57900519Y12753932D01*
X57877281Y12830539D01*
X57839544Y12901140D01*
X57788758Y12963022D01*
X57773255Y12975745D01*
X54225746Y16523254D01*
X54213022Y16538758D01*
X54151140Y16589544D01*
X54080539Y16627281D01*
X54003932Y16650519D01*
X53949429Y16655887D01*
X53885537Y16719779D01*
X53786480Y16785966D01*
X53676414Y16831558D01*
X53559568Y16854800D01*
X53440432Y16854800D01*
X53323586Y16831558D01*
X53213520Y16785966D01*
X53114463Y16719779D01*
X53030221Y16635537D01*
X52964034Y16536480D01*
X52918442Y16426414D01*
X52895200Y16309568D01*
X329800Y16309568D01*
X329800Y19059568D01*
X76895200Y19059568D01*
X76895200Y18940432D01*
X76918442Y18823586D01*
X76964034Y18713520D01*
X77030221Y18614463D01*
X77114463Y18530221D01*
X77213520Y18464034D01*
X77323586Y18418442D01*
X77440432Y18395200D01*
X77559568Y18395200D01*
X77676414Y18418442D01*
X77786480Y18464034D01*
X77828335Y18492000D01*
X88671665Y18492000D01*
X88713520Y18464034D01*
X88823586Y18418442D01*
X88940432Y18395200D01*
X89059568Y18395200D01*
X89176414Y18418442D01*
X89286480Y18464034D01*
X89385537Y18530221D01*
X89469779Y18614463D01*
X89535966Y18713520D01*
X89581558Y18823586D01*
X89604800Y18940432D01*
X89604800Y19059568D01*
X89581558Y19176414D01*
X89535966Y19286480D01*
X89469779Y19385537D01*
X89385537Y19469779D01*
X89286480Y19535966D01*
X89176414Y19581558D01*
X89115874Y19593600D01*
X91831664Y19593600D01*
X92093600Y19331663D01*
X92093601Y15519963D01*
X92091635Y15500000D01*
X92099481Y15420332D01*
X92122719Y15343726D01*
X92122720Y15343725D01*
X92160457Y15273124D01*
X92171602Y15259544D01*
X92198518Y15226746D01*
X92198524Y15226740D01*
X92211243Y15211242D01*
X92226741Y15198523D01*
X92778522Y14646741D01*
X92791242Y14631242D01*
X92806740Y14618523D01*
X92806745Y14618518D01*
X92827746Y14601283D01*
X92853124Y14580456D01*
X92923725Y14542719D01*
X93000331Y14519481D01*
X93007604Y14518765D01*
X93060040Y14513600D01*
X93060047Y14513600D01*
X93080000Y14511635D01*
X93099953Y14513600D01*
X94918389Y14513600D01*
X94976629Y14372997D01*
X95103008Y14183858D01*
X95263858Y14023008D01*
X95452997Y13896629D01*
X95663157Y13809578D01*
X95886262Y13765200D01*
X96113738Y13765200D01*
X96336843Y13809578D01*
X96547003Y13896629D01*
X96736142Y14023008D01*
X96896992Y14183858D01*
X97023371Y14372997D01*
X97110422Y14583157D01*
X97154800Y14806262D01*
X97154800Y15033738D01*
X97110422Y15256843D01*
X97023371Y15467003D01*
X96896992Y15656142D01*
X96736142Y15816992D01*
X96547003Y15943371D01*
X96336843Y16030422D01*
X96113738Y16074800D01*
X95886262Y16074800D01*
X95663157Y16030422D01*
X95452997Y15943371D01*
X95263858Y15816992D01*
X95103008Y15656142D01*
X94976629Y15467003D01*
X94918389Y15326400D01*
X93248337Y15326400D01*
X92906400Y15668336D01*
X92906400Y17573738D01*
X94845200Y17573738D01*
X94845200Y17346262D01*
X94889578Y17123157D01*
X94976629Y16912997D01*
X95103008Y16723858D01*
X95263858Y16563008D01*
X95452997Y16436629D01*
X95663157Y16349578D01*
X95886262Y16305200D01*
X96113738Y16305200D01*
X96336843Y16349578D01*
X96547003Y16436629D01*
X96736142Y16563008D01*
X96896992Y16723858D01*
X97023371Y16912997D01*
X97110422Y17123157D01*
X97154800Y17346262D01*
X97154800Y17573738D01*
X97110422Y17796843D01*
X97023371Y18007003D01*
X96896992Y18196142D01*
X96736142Y18356992D01*
X96547003Y18483371D01*
X96336843Y18570422D01*
X96113738Y18614800D01*
X95886262Y18614800D01*
X95663157Y18570422D01*
X95452997Y18483371D01*
X95263858Y18356992D01*
X95103008Y18196142D01*
X94976629Y18007003D01*
X94889578Y17796843D01*
X94845200Y17573738D01*
X92906400Y17573738D01*
X92906400Y19150000D01*
X94843725Y19150000D01*
X94849610Y19090249D01*
X94867039Y19032794D01*
X94895342Y18979843D01*
X94933431Y18933431D01*
X94979843Y18895342D01*
X95032794Y18867039D01*
X95090249Y18849610D01*
X95150000Y18843725D01*
X95771400Y18845200D01*
X95847600Y18921400D01*
X95847600Y19847600D01*
X96152400Y19847600D01*
X96152400Y18921400D01*
X96228600Y18845200D01*
X96850000Y18843725D01*
X96909751Y18849610D01*
X96967206Y18867039D01*
X97020157Y18895342D01*
X97066569Y18933431D01*
X97104658Y18979843D01*
X97132961Y19032794D01*
X97150390Y19090249D01*
X97156275Y19150000D01*
X97154800Y19771400D01*
X97078600Y19847600D01*
X96152400Y19847600D01*
X95847600Y19847600D01*
X94921400Y19847600D01*
X94845200Y19771400D01*
X94843725Y19150000D01*
X92906400Y19150000D01*
X92906400Y19480047D01*
X92908365Y19500000D01*
X92906400Y19519953D01*
X92906400Y19519960D01*
X92900519Y19579668D01*
X92892896Y19604800D01*
X92877281Y19656275D01*
X92875046Y19660456D01*
X92839544Y19726876D01*
X92803004Y19771400D01*
X92801482Y19773255D01*
X92801477Y19773260D01*
X92788758Y19788758D01*
X92773260Y19801476D01*
X92301482Y20273254D01*
X92288758Y20288758D01*
X92226876Y20339544D01*
X92156275Y20377281D01*
X92082307Y20399719D01*
X92176436Y20418442D01*
X92286502Y20464034D01*
X92385559Y20530221D01*
X92469801Y20614463D01*
X92535988Y20713520D01*
X92581580Y20823586D01*
X92586834Y20850000D01*
X94843725Y20850000D01*
X94845200Y20228600D01*
X94921400Y20152400D01*
X95847600Y20152400D01*
X95847600Y21078600D01*
X96152400Y21078600D01*
X96152400Y20152400D01*
X97078600Y20152400D01*
X97154800Y20228600D01*
X97156275Y20850000D01*
X97150390Y20909751D01*
X97132961Y20967206D01*
X97104658Y21020157D01*
X97066569Y21066569D01*
X97020157Y21104658D01*
X96967206Y21132961D01*
X96909751Y21150390D01*
X96850000Y21156275D01*
X96228600Y21154800D01*
X96152400Y21078600D01*
X95847600Y21078600D01*
X95771400Y21154800D01*
X95150000Y21156275D01*
X95090249Y21150390D01*
X95032794Y21132961D01*
X94979843Y21104658D01*
X94933431Y21066569D01*
X94895342Y21020157D01*
X94867039Y20967206D01*
X94849610Y20909751D01*
X94843725Y20850000D01*
X92586834Y20850000D01*
X92604822Y20940432D01*
X92604822Y21030064D01*
X93668358Y22093600D01*
X96301084Y22093600D01*
X96364463Y22030221D01*
X96463520Y21964034D01*
X96573586Y21918442D01*
X96690432Y21895200D01*
X96809568Y21895200D01*
X96926414Y21918442D01*
X97036480Y21964034D01*
X97135537Y22030221D01*
X97219779Y22114463D01*
X97285966Y22213520D01*
X97331558Y22323586D01*
X97354800Y22440432D01*
X97354800Y22559568D01*
X97331558Y22676414D01*
X97285966Y22786480D01*
X97219779Y22885537D01*
X97135537Y22969779D01*
X97036480Y23035966D01*
X96926414Y23081558D01*
X96809568Y23104800D01*
X96690432Y23104800D01*
X96573586Y23081558D01*
X96463520Y23035966D01*
X96364463Y22969779D01*
X96301084Y22906400D01*
X93519974Y22906400D01*
X93500021Y22908365D01*
X93480068Y22906400D01*
X93480062Y22906400D01*
X93428357Y22901307D01*
X93420353Y22900519D01*
X93397115Y22893470D01*
X93343747Y22877281D01*
X93273146Y22839544D01*
X93211264Y22788758D01*
X93198540Y22773254D01*
X92030086Y21604800D01*
X91940454Y21604800D01*
X91823608Y21581558D01*
X91713542Y21535966D01*
X91614485Y21469779D01*
X91530243Y21385537D01*
X91464056Y21286480D01*
X91418464Y21176414D01*
X91395222Y21059568D01*
X91395222Y20940432D01*
X91418464Y20823586D01*
X91464056Y20713520D01*
X91530243Y20614463D01*
X91614485Y20530221D01*
X91713542Y20464034D01*
X91823608Y20418442D01*
X91884148Y20406400D01*
X86948916Y20406400D01*
X86885537Y20469779D01*
X86786480Y20535966D01*
X86676414Y20581558D01*
X86559568Y20604800D01*
X86440432Y20604800D01*
X86323586Y20581558D01*
X86213520Y20535966D01*
X86114463Y20469779D01*
X86030221Y20385537D01*
X85964034Y20286480D01*
X85918442Y20176414D01*
X85895200Y20059568D01*
X85895200Y19940432D01*
X85918442Y19823586D01*
X85964034Y19713520D01*
X86030221Y19614463D01*
X86114463Y19530221D01*
X86147719Y19508000D01*
X77828335Y19508000D01*
X77786480Y19535966D01*
X77676414Y19581558D01*
X77559568Y19604800D01*
X77440432Y19604800D01*
X77323586Y19581558D01*
X77213520Y19535966D01*
X77114463Y19469779D01*
X77030221Y19385537D01*
X76964034Y19286480D01*
X76918442Y19176414D01*
X76895200Y19059568D01*
X329800Y19059568D01*
X329800Y25809568D01*
X73645200Y25809568D01*
X73645200Y25690432D01*
X73668442Y25573586D01*
X73714034Y25463520D01*
X73780221Y25364463D01*
X73864463Y25280221D01*
X73945657Y25225969D01*
X73921424Y25167466D01*
X73898182Y25050620D01*
X73898182Y24931484D01*
X73921424Y24814638D01*
X73967016Y24704572D01*
X74033203Y24605515D01*
X74117445Y24521273D01*
X74216502Y24455086D01*
X74326568Y24409494D01*
X74443414Y24386252D01*
X74562550Y24386252D01*
X74679396Y24409494D01*
X74789462Y24455086D01*
X74888519Y24521273D01*
X74972761Y24605515D01*
X75038948Y24704572D01*
X75054452Y24742000D01*
X79616771Y24742000D01*
X79680150Y24678621D01*
X79779207Y24612434D01*
X79889273Y24566842D01*
X80006119Y24543600D01*
X80125255Y24543600D01*
X80242101Y24566842D01*
X80352167Y24612434D01*
X80451224Y24678621D01*
X80535466Y24762863D01*
X80601653Y24861920D01*
X80647245Y24971986D01*
X80670487Y25088832D01*
X80670487Y25207968D01*
X80647245Y25324814D01*
X80601653Y25434880D01*
X80535466Y25533937D01*
X80451224Y25618179D01*
X80352167Y25684366D01*
X80242101Y25729958D01*
X80125255Y25753200D01*
X80104800Y25753200D01*
X80104800Y25809568D01*
X80081558Y25926414D01*
X80035966Y26036480D01*
X79969779Y26135537D01*
X79885537Y26219779D01*
X79786480Y26285966D01*
X79676414Y26331558D01*
X79559568Y26354800D01*
X79440432Y26354800D01*
X79323586Y26331558D01*
X79213520Y26285966D01*
X79114463Y26219779D01*
X79051084Y26156400D01*
X74698916Y26156400D01*
X74635537Y26219779D01*
X74536480Y26285966D01*
X74426414Y26331558D01*
X74309568Y26354800D01*
X74190432Y26354800D01*
X74073586Y26331558D01*
X73963520Y26285966D01*
X73864463Y26219779D01*
X73780221Y26135537D01*
X73714034Y26036480D01*
X73668442Y25926414D01*
X73645200Y25809568D01*
X329800Y25809568D01*
X329800Y29809568D01*
X75395200Y29809568D01*
X75395200Y29690432D01*
X75418442Y29573586D01*
X75464034Y29463520D01*
X75530221Y29364463D01*
X75614463Y29280221D01*
X75713520Y29214034D01*
X75823586Y29168442D01*
X75940432Y29145200D01*
X76030064Y29145200D01*
X77800124Y27375139D01*
X77812843Y27359641D01*
X77828341Y27346922D01*
X77828346Y27346917D01*
X77832236Y27343725D01*
X77874725Y27308855D01*
X77941571Y27273125D01*
X77945326Y27271118D01*
X78021932Y27247880D01*
X78029205Y27247164D01*
X78081641Y27241999D01*
X78081648Y27241999D01*
X78101601Y27240034D01*
X78121554Y27241999D01*
X83138068Y27241999D01*
X83158021Y27240034D01*
X83177974Y27241999D01*
X83177981Y27241999D01*
X83237689Y27247880D01*
X83314296Y27271118D01*
X83384897Y27308855D01*
X83446779Y27359641D01*
X83459503Y27375145D01*
X84173148Y28088789D01*
X84615685Y28088789D01*
X84635638Y28086824D01*
X84655591Y28088789D01*
X84655598Y28088789D01*
X84715306Y28094670D01*
X84791913Y28117908D01*
X84862514Y28155645D01*
X84924396Y28206431D01*
X84937120Y28221935D01*
X86685579Y29970394D01*
X86685578Y27948916D01*
X86622199Y27885537D01*
X86556012Y27786480D01*
X86510420Y27676414D01*
X86487178Y27559568D01*
X86487178Y27440432D01*
X86510420Y27323586D01*
X86556012Y27213520D01*
X86622199Y27114463D01*
X86706441Y27030221D01*
X86805498Y26964034D01*
X86915564Y26918442D01*
X87032410Y26895200D01*
X87151546Y26895200D01*
X87268392Y26918442D01*
X87378458Y26964034D01*
X87477515Y27030221D01*
X87561757Y27114463D01*
X87627944Y27213520D01*
X87673536Y27323586D01*
X87696778Y27440432D01*
X87696778Y27559568D01*
X87673536Y27676414D01*
X87627944Y27786480D01*
X87561757Y27885537D01*
X87498378Y27948916D01*
X87498378Y28707968D01*
X88895200Y28707968D01*
X88895200Y28588832D01*
X88918442Y28471986D01*
X88964034Y28361920D01*
X89030221Y28262863D01*
X89114463Y28178621D01*
X89213520Y28112434D01*
X89323586Y28066842D01*
X89440432Y28043600D01*
X89559568Y28043600D01*
X89676414Y28066842D01*
X89786480Y28112434D01*
X89885537Y28178621D01*
X89969779Y28262863D01*
X90035966Y28361920D01*
X90081558Y28471986D01*
X90104800Y28588832D01*
X90104800Y28707968D01*
X90081558Y28824814D01*
X90035966Y28934880D01*
X89969779Y29033937D01*
X89906400Y29097316D01*
X89906400Y29160646D01*
X90055445Y29309691D01*
X90145077Y29309691D01*
X90261923Y29332933D01*
X90371989Y29378525D01*
X90471046Y29444712D01*
X90555288Y29528954D01*
X90621475Y29628011D01*
X90667067Y29738077D01*
X90690309Y29854923D01*
X90690309Y29974059D01*
X90667067Y30090905D01*
X90621475Y30200971D01*
X90555288Y30300028D01*
X90471046Y30384270D01*
X90371989Y30450457D01*
X90261923Y30496049D01*
X90145077Y30519291D01*
X90025941Y30519291D01*
X89909095Y30496049D01*
X89799029Y30450457D01*
X89699972Y30384270D01*
X89615730Y30300028D01*
X89549543Y30200971D01*
X89503951Y30090905D01*
X89480709Y29974059D01*
X89480709Y29884427D01*
X89226746Y29630464D01*
X89211242Y29617740D01*
X89160456Y29555857D01*
X89122720Y29485257D01*
X89122719Y29485256D01*
X89107879Y29436333D01*
X89099481Y29408649D01*
X89093600Y29348941D01*
X89093600Y29348935D01*
X89091635Y29328982D01*
X89093600Y29309029D01*
X89093600Y29097316D01*
X89030221Y29033937D01*
X88964034Y28934880D01*
X88918442Y28824814D01*
X88895200Y28707968D01*
X87498378Y28707968D01*
X87498378Y30168831D01*
X88668337Y31338789D01*
X90787431Y31338789D01*
X90807384Y31336824D01*
X90827337Y31338789D01*
X90827344Y31338789D01*
X90887052Y31344670D01*
X90963659Y31367908D01*
X91034260Y31405645D01*
X91096142Y31456431D01*
X91108871Y31471941D01*
X91628929Y31991999D01*
X94518816Y31991999D01*
X94538769Y31990034D01*
X94558722Y31991999D01*
X94558729Y31991999D01*
X94618437Y31997880D01*
X94695044Y32021118D01*
X94765645Y32058855D01*
X94827527Y32109641D01*
X94840251Y32125145D01*
X95124855Y32409749D01*
X95140359Y32422473D01*
X95191145Y32484355D01*
X95228882Y32554956D01*
X95249437Y32622719D01*
X95252120Y32631562D01*
X95254966Y32660456D01*
X95258001Y32691271D01*
X95258001Y32691277D01*
X95259966Y32711230D01*
X95258001Y32731183D01*
X95258001Y33268817D01*
X95259966Y33288770D01*
X95258001Y33308723D01*
X95258001Y33308729D01*
X95252120Y33368437D01*
X95228882Y33445044D01*
X95191145Y33515645D01*
X95140359Y33577527D01*
X95124856Y33590250D01*
X93646673Y35068433D01*
X93633949Y35083937D01*
X93572067Y35134723D01*
X93501466Y35172460D01*
X93424859Y35195698D01*
X93365151Y35201579D01*
X93365144Y35201579D01*
X93345191Y35203544D01*
X93325238Y35201579D01*
X92698916Y35201579D01*
X92635537Y35264958D01*
X92536480Y35331145D01*
X92426414Y35376737D01*
X92309568Y35399979D01*
X92190432Y35399979D01*
X92073586Y35376737D01*
X91963520Y35331145D01*
X91864463Y35264958D01*
X91780221Y35180716D01*
X91714034Y35081659D01*
X91668442Y34971593D01*
X91645200Y34854747D01*
X91645200Y34735611D01*
X91668442Y34618765D01*
X91714034Y34508699D01*
X91780221Y34409642D01*
X91864463Y34325400D01*
X91963520Y34259213D01*
X92073586Y34213621D01*
X92190432Y34190379D01*
X92309568Y34190379D01*
X92426414Y34213621D01*
X92536480Y34259213D01*
X92635537Y34325400D01*
X92698916Y34388779D01*
X93176855Y34388779D01*
X94010293Y33555341D01*
X93963520Y33535966D01*
X93864463Y33469779D01*
X93801084Y33406400D01*
X91511923Y33406400D01*
X91491970Y33408365D01*
X91472017Y33406400D01*
X91472010Y33406400D01*
X91419574Y33401235D01*
X91412301Y33400519D01*
X91378907Y33390389D01*
X91335695Y33377281D01*
X91265094Y33339544D01*
X91239716Y33318717D01*
X91218715Y33301482D01*
X91218710Y33301477D01*
X91203212Y33288758D01*
X91190492Y33273259D01*
X90906940Y32989707D01*
X90887566Y33036480D01*
X90836963Y33112214D01*
X90871595Y33122719D01*
X90942196Y33160456D01*
X91004078Y33211242D01*
X91016802Y33226746D01*
X91180445Y33390389D01*
X91270077Y33390389D01*
X91386923Y33413631D01*
X91496989Y33459223D01*
X91596046Y33525410D01*
X91680288Y33609652D01*
X91746475Y33708709D01*
X91792067Y33818775D01*
X91815309Y33935621D01*
X91815309Y34054757D01*
X91792067Y34171603D01*
X91746475Y34281669D01*
X91680288Y34380726D01*
X91596046Y34464968D01*
X91496989Y34531155D01*
X91386923Y34576747D01*
X91270077Y34599989D01*
X91150941Y34599989D01*
X91034095Y34576747D01*
X90924029Y34531155D01*
X90824972Y34464968D01*
X90740730Y34380726D01*
X90674543Y34281669D01*
X90628951Y34171603D01*
X90605709Y34054757D01*
X90605709Y33965125D01*
X90546984Y33906400D01*
X88519952Y33906400D01*
X88499999Y33908365D01*
X88480046Y33906400D01*
X88480040Y33906400D01*
X88428335Y33901307D01*
X88420331Y33900519D01*
X88397093Y33893470D01*
X88343725Y33877281D01*
X88273124Y33839544D01*
X88211242Y33788758D01*
X88198518Y33773254D01*
X84331664Y29906400D01*
X82198916Y29906400D01*
X82135537Y29969779D01*
X82036480Y30035966D01*
X81926414Y30081558D01*
X81809568Y30104800D01*
X81690432Y30104800D01*
X81573586Y30081558D01*
X81463520Y30035966D01*
X81364463Y29969779D01*
X81280221Y29885537D01*
X81220794Y29796597D01*
X81211242Y29788758D01*
X81160456Y29726876D01*
X81122719Y29656275D01*
X81099481Y29579668D01*
X81091634Y29500000D01*
X81099481Y29420332D01*
X81122719Y29343725D01*
X81160456Y29273124D01*
X81207450Y29215862D01*
X81172473Y29187157D01*
X81159745Y29171648D01*
X81042895Y29054799D01*
X80629568Y29054799D01*
X78656400Y31027966D01*
X78656400Y31551084D01*
X78719779Y31614463D01*
X78785966Y31713520D01*
X78831558Y31823586D01*
X78854800Y31940432D01*
X78854800Y32059568D01*
X78831558Y32176414D01*
X78785966Y32286480D01*
X78719779Y32385537D01*
X78635537Y32469779D01*
X78536480Y32535966D01*
X78426414Y32581558D01*
X78309568Y32604800D01*
X78190432Y32604800D01*
X78073586Y32581558D01*
X77963520Y32535966D01*
X77864463Y32469779D01*
X77780221Y32385537D01*
X77714034Y32286480D01*
X77668442Y32176414D01*
X77645200Y32059568D01*
X77645200Y31940432D01*
X77668442Y31823586D01*
X77714034Y31713520D01*
X77780221Y31614463D01*
X77843600Y31551084D01*
X77843601Y30879592D01*
X77841635Y30859630D01*
X77849481Y30779962D01*
X77872719Y30703356D01*
X77890286Y30670492D01*
X77910457Y30632754D01*
X77927549Y30611928D01*
X77948518Y30586376D01*
X77948524Y30586370D01*
X77961243Y30570872D01*
X77976741Y30558153D01*
X80159754Y28375139D01*
X80172473Y28359641D01*
X80187971Y28346922D01*
X80187976Y28346917D01*
X80208977Y28329682D01*
X80234355Y28308855D01*
X80304954Y28271119D01*
X80304956Y28271118D01*
X80381562Y28247880D01*
X80388835Y28247164D01*
X80441271Y28241999D01*
X80441278Y28241999D01*
X80461231Y28240034D01*
X80481184Y28241999D01*
X81191278Y28241999D01*
X81211231Y28240034D01*
X81231184Y28241999D01*
X81231191Y28241999D01*
X81290899Y28247880D01*
X81367506Y28271118D01*
X81438107Y28308855D01*
X81499989Y28359641D01*
X81512713Y28375146D01*
X81629566Y28491999D01*
X82018816Y28491999D01*
X82038769Y28490034D01*
X82058722Y28491999D01*
X82058729Y28491999D01*
X82118437Y28497880D01*
X82195044Y28521118D01*
X82265645Y28558855D01*
X82327527Y28609641D01*
X82340252Y28625146D01*
X82405496Y28690390D01*
X83625275Y28690390D01*
X82989685Y28054799D01*
X78269938Y28054799D01*
X76604800Y29719936D01*
X76604800Y29809568D01*
X76581558Y29926414D01*
X76535966Y30036480D01*
X76469779Y30135537D01*
X76385537Y30219779D01*
X76286480Y30285966D01*
X76176414Y30331558D01*
X76059568Y30354800D01*
X75940432Y30354800D01*
X75823586Y30331558D01*
X75713520Y30285966D01*
X75614463Y30219779D01*
X75530221Y30135537D01*
X75464034Y30036480D01*
X75418442Y29926414D01*
X75395200Y29809568D01*
X329800Y29809568D01*
X329800Y37983870D01*
X349159Y38181312D01*
X2159107Y38181312D01*
X2159107Y37818688D01*
X2229852Y37463031D01*
X2368622Y37128010D01*
X2570085Y36826499D01*
X2826499Y36570085D01*
X3128010Y36368622D01*
X3463031Y36229852D01*
X3818688Y36159107D01*
X4181312Y36159107D01*
X4536969Y36229852D01*
X4871990Y36368622D01*
X5173501Y36570085D01*
X5429915Y36826499D01*
X5631378Y37128010D01*
X5770148Y37463031D01*
X5840893Y37818688D01*
X5840893Y38181312D01*
X94159107Y38181312D01*
X94159107Y37818688D01*
X94229852Y37463031D01*
X94368622Y37128010D01*
X94570085Y36826499D01*
X94826499Y36570085D01*
X95128010Y36368622D01*
X95463031Y36229852D01*
X95818688Y36159107D01*
X96181312Y36159107D01*
X96536969Y36229852D01*
X96871990Y36368622D01*
X97173501Y36570085D01*
X97429915Y36826499D01*
X97631378Y37128010D01*
X97770148Y37463031D01*
X97840893Y37818688D01*
X97840893Y38181312D01*
X97770148Y38536969D01*
X97631378Y38871990D01*
X97429915Y39173501D01*
X97173501Y39429915D01*
X96871990Y39631378D01*
X96536969Y39770148D01*
X96181312Y39840893D01*
X95818688Y39840893D01*
X95463031Y39770148D01*
X95128010Y39631378D01*
X94826499Y39429915D01*
X94570085Y39173501D01*
X94368622Y38871990D01*
X94229852Y38536969D01*
X94159107Y38181312D01*
X5840893Y38181312D01*
X5770148Y38536969D01*
X5631378Y38871990D01*
X5429915Y39173501D01*
X5173501Y39429915D01*
X4871990Y39631378D01*
X4536969Y39770148D01*
X4181312Y39840893D01*
X3818688Y39840893D01*
X3463031Y39770148D01*
X3128010Y39631378D01*
X2826499Y39429915D01*
X2570085Y39173501D01*
X2368622Y38871990D01*
X2229852Y38536969D01*
X2159107Y38181312D01*
X349159Y38181312D01*
X401249Y38712570D01*
X608194Y39398003D01*
X944328Y40030180D01*
X1396857Y40585036D01*
X1948535Y41041423D01*
X2578353Y41381964D01*
X3262323Y41593688D01*
X3989928Y41670163D01*
X4000569Y41670200D01*
X95983870Y41670200D01*
X96712570Y41598751D01*
M02*
