M48
; DRILL file {KiCad (5.1.5-0-10_14)} date 2020 February 05, Wednesday 18:18:09
; FORMAT={-:-/ absolute / inch / decimal}
; #@! TF.CreationDate,2020-02-05T18:18:09+01:00
; #@! TF.GenerationSoftware,Kicad,Pcbnew,(5.1.5-0-10_14)
; #@! TF.FileFunction,Plated,1,2,PTH
FMAT,2
INCH
T1C0.0118
T2C0.0236
T3C0.0394
%
G90
G05
T1
X0.0394Y1.4961
X0.0394Y1.4173
X0.0394Y1.3386
X0.0394Y1.2598
X0.0394Y1.1811
X0.0394Y1.1024
X0.0394Y1.0236
X0.0394Y0.9449
X0.0394Y0.8661
X0.0394Y0.7874
X0.0394Y0.7087
X0.0394Y0.6299
X0.0394Y0.5512
X0.0394Y0.4724
X0.0394Y0.3937
X0.0394Y0.315
X0.0394Y0.2362
X0.0394Y0.1575
X0.0787Y1.5748
X0.0787Y0.0787
X0.1575Y1.6142
X0.1575Y0.0394
X0.2362Y1.6142
X0.2362Y0.502
X0.2362Y0.0394
X0.2559Y0.3248
X0.2953Y0.502
X0.315Y1.6142
X0.315Y0.0394
X0.3346Y0.7677
X0.3346Y0.7087
X0.3445Y0.2559
X0.3937Y1.6142
X0.3937Y0.0394
X0.4331Y0.3248
X0.4724Y1.6142
X0.4724Y0.0394
X0.5512Y1.6142
X0.5512Y0.0394
X0.6299Y1.6142
X0.6299Y0.0394
X0.6791Y0.7677
X0.6791Y0.7087
X0.7087Y1.6142
X0.7087Y0.0394
X0.7874Y1.6142
X0.7874Y0.0394
X0.8661Y1.6142
X0.8661Y0.0394
X0.9449Y1.6142
X0.9449Y0.7677
X0.9449Y0.7087
X0.9449Y0.0394
X1.0236Y1.6142
X1.0236Y0.0394
X1.1024Y1.6142
X1.1024Y0.0394
X1.1811Y1.6142
X1.1811Y0.0394
X1.2303Y0.7677
X1.2303Y0.7087
X1.2598Y1.6142
X1.2598Y0.0394
X1.3189Y1.1024
X1.3386Y1.6142
X1.3386Y0.0394
X1.4173Y1.6142
X1.4173Y0.0394
X1.4665Y1.1024
X1.4862Y0.7677
X1.4862Y0.7087
X1.4961Y1.6142
X1.4961Y0.0394
X1.5059Y0.3248
X1.5748Y1.6142
X1.5748Y0.1476
X1.5748Y0.1181
X1.5748Y0.0394
X1.5945Y0.3937
X1.6043Y0.1476
X1.6043Y0.1181
X1.6339Y0.1476
X1.6339Y0.1181
X1.6535Y1.6142
X1.6535Y0.0394
X1.6831Y0.3248
X1.7323Y1.6142
X1.7323Y0.0394
X1.811Y1.6142
X1.811Y0.0394
X1.8701Y0.2953
X1.8898Y1.6142
X1.8898Y0.0394
X1.9488Y0.1083
X1.9685Y1.6142
X1.9685Y0.2953
X1.9685Y0.0394
X1.9882Y0.1083
X2.0079Y0.7677
X2.0079Y0.7087
X2.0472Y1.6142
X2.0472Y0.0394
X2.1063Y0.6398
X2.126Y1.6142
X2.126Y0.0394
X2.1555Y0.6594
X2.2047Y1.6142
X2.2047Y0.0394
X2.2638Y0.4626
X2.2835Y1.6142
X2.2835Y0.0394
X2.2933Y0.6201
X2.3622Y1.6142
X2.3622Y0.0394
X2.4409Y1.6142
X2.4409Y0.0394
X2.4902Y0.8366
X2.5098Y0.6398
X2.5197Y1.6142
X2.5197Y0.0394
X2.5886Y1.4862
X2.5886Y1.2303
X2.5984Y1.6142
X2.5984Y0.0394
X2.6476Y1.4862
X2.6476Y1.2303
X2.6772Y1.6142
X2.6772Y0.0394
X2.7461Y1.0925
X2.7461Y0.4232
X2.7559Y1.6142
X2.7756Y0.6398
X2.8248Y0.4035
X2.8346Y1.6142
X2.8346Y0.5512
X2.9134Y1.6142
X2.9134Y0.0394
X2.9232Y1.0138
X2.9332Y0.9839
X2.9528Y1.1713
X2.9724Y0.6398
X2.9921Y1.6142
X2.9921Y1.1713
X2.9921Y0.9646
X2.9921Y0.0394
X3.0512Y0.748
X3.0709Y1.6142
X3.0709Y0.876
X3.0807Y1.2598
X3.1004Y1.1516
X3.1004Y0.9646
X3.1004Y0.4823
X3.1004Y0.4134
X3.1102Y0.5512
X3.1201Y1.4469
X3.1201Y1.4075
X3.1299Y1.0138
X3.1496Y1.6142
X3.1496Y1.3681
X3.1496Y0.1772
X3.1496Y0.1476
X3.1496Y0.0394
X3.1522Y0.9901
X3.1791Y1.1516
X3.1791Y0.1772
X3.1791Y0.1476
X3.2087Y0.8366
X3.2087Y0.4035
X3.2185Y1.5354
X3.2185Y1.4469
X3.2185Y1.4075
X3.2185Y1.1614
X3.2283Y1.6142
X3.2283Y0.0394
X3.2382Y0.4331
X3.248Y0.9449
X3.2579Y1.1122
X3.2579Y0.3543
X3.2677Y0.4626
X3.2776Y0.1772
X3.2776Y0.1476
X3.2874Y0.3839
X3.2972Y0.4921
X3.3071Y1.6142
X3.3071Y1.2894
X3.3071Y0.8366
X3.3071Y0.1772
X3.3071Y0.1476
X3.3071Y0.0394
X3.3169Y1.4469
X3.3169Y1.4075
X3.3169Y0.9744
X3.3169Y0.4134
X3.3268Y0.5217
X3.3268Y0.3346
X3.3465Y0.4429
X3.3563Y0.374
X3.3563Y0.3346
X3.376Y0.4724
X3.3858Y1.6142
X3.3858Y0.4035
X3.4055Y1.3583
X3.4055Y0.7874
X3.4055Y0.6398
X3.4154Y0.4331
X3.4288Y1.0827
X3.4646Y1.6142
X3.5039Y0.748
X3.5039Y0.6201
X3.5039Y0.0295
X3.5236Y1.1279
X3.5236Y0.1969
X3.5335Y1.0728
X3.5433Y1.6142
X3.5433Y0.8465
X3.5467Y1.1777
X3.5531Y0.3051
X3.5531Y0.0394
X3.5571Y1.2894
X3.5728Y1.3681
X3.591Y1.3384
X3.5925Y0.7087
X3.5925Y0.6594
X3.6024Y0.0295
X3.622Y1.6142
X3.622Y0.2756
X3.622Y0.8268
X3.6319Y1.3699
X3.6909Y1.25
X3.6909Y1.1516
X3.7008Y1.6142
X3.7008Y0.0394
X3.7106Y1.2992
X3.7795Y1.6142
X3.7795Y0.0394
X3.8091Y0.8858
X3.8583Y1.5748
X3.8583Y0.0787
X3.8976Y1.4961
X3.8976Y1.4173
X3.8976Y1.3386
X3.8976Y0.3937
X3.8976Y0.315
X3.8976Y0.2362
X3.8976Y0.1575
T3
X3.7795Y0.7874
X3.7795Y0.6874
X3.7795Y0.5874
X3.7795Y0.4874
X3.7795Y0.3874
T2
G00X3.0583Y0.263
M15
G01X3.0583Y0.2197
M16
G05
G00X3.0583Y0.0886
M15
G01X3.0583Y0.065
M16
G05
G00X3.3984Y0.263
M15
G01X3.3984Y0.2197
M16
G05
G00X3.3984Y0.0886
M15
G01X3.3984Y0.065
M16
G05
T0
M30
