G04 #@! TF.GenerationSoftware,KiCad,Pcbnew,(5.1.5-0-10_14)*
G04 #@! TF.CreationDate,2020-02-05T18:18:06+01:00*
G04 #@! TF.ProjectId,c100_rev_e,63313030-5f72-4657-965f-652e6b696361,rev?*
G04 #@! TF.SameCoordinates,Original*
G04 #@! TF.FileFunction,Paste,Top*
G04 #@! TF.FilePolarity,Positive*
%FSLAX46Y46*%
G04 Gerber Fmt 4.6, Leading zero omitted, Abs format (unit mm)*
G04 Created by KiCad (PCBNEW (5.1.5-0-10_14)) date 2020-02-05 18:18:06*
%MOMM*%
%LPD*%
G04 APERTURE LIST*
%ADD10C,0.150000*%
%ADD11R,0.650000X1.060000*%
%ADD12R,1.000000X3.000000*%
%ADD13R,2.500000X1.200000*%
%ADD14R,2.400000X0.740000*%
%ADD15R,0.600000X1.450000*%
%ADD16R,0.300000X1.450000*%
%ADD17R,1.000000X1.800000*%
%ADD18R,2.600000X3.600000*%
G04 APERTURE END LIST*
D10*
G36*
X88195881Y1499711D02*
G01*
X88201705Y1498847D01*
X88207417Y1497416D01*
X88212961Y1495433D01*
X88218284Y1492915D01*
X88223334Y1489888D01*
X88228064Y1486381D01*
X88232426Y1482426D01*
X88236381Y1478064D01*
X88239888Y1473334D01*
X88242915Y1468284D01*
X88245433Y1462961D01*
X88247416Y1457417D01*
X88248847Y1451705D01*
X88249711Y1445881D01*
X88250000Y1440000D01*
X88250000Y360000D01*
X88249711Y354119D01*
X88248847Y348295D01*
X88247416Y342583D01*
X88245433Y337039D01*
X88242915Y331716D01*
X88239888Y326666D01*
X88236381Y321936D01*
X88232426Y317574D01*
X88228064Y313619D01*
X88223334Y310112D01*
X88218284Y307085D01*
X88212961Y304567D01*
X88207417Y302584D01*
X88201705Y301153D01*
X88195881Y300289D01*
X88190000Y300000D01*
X87710000Y300000D01*
X87704119Y300289D01*
X87698295Y301153D01*
X87692583Y302584D01*
X87687039Y304567D01*
X87681716Y307085D01*
X87676666Y310112D01*
X87671936Y313619D01*
X87667574Y317574D01*
X87663619Y321936D01*
X87660112Y326666D01*
X87657085Y331716D01*
X87654567Y337039D01*
X87652584Y342583D01*
X87651153Y348295D01*
X87650289Y354119D01*
X87650000Y360000D01*
X87650000Y1440000D01*
X87650289Y1445881D01*
X87651153Y1451705D01*
X87652584Y1457417D01*
X87654567Y1462961D01*
X87657085Y1468284D01*
X87660112Y1473334D01*
X87663619Y1478064D01*
X87667574Y1482426D01*
X87671936Y1486381D01*
X87676666Y1489888D01*
X87681716Y1492915D01*
X87687039Y1495433D01*
X87692583Y1497416D01*
X87698295Y1498847D01*
X87704119Y1499711D01*
X87710000Y1500000D01*
X88190000Y1500000D01*
X88195881Y1499711D01*
G37*
G36*
X92795881Y1499711D02*
G01*
X92801705Y1498847D01*
X92807417Y1497416D01*
X92812961Y1495433D01*
X92818284Y1492915D01*
X92823334Y1489888D01*
X92828064Y1486381D01*
X92832426Y1482426D01*
X92836381Y1478064D01*
X92839888Y1473334D01*
X92842915Y1468284D01*
X92845433Y1462961D01*
X92847416Y1457417D01*
X92848847Y1451705D01*
X92849711Y1445881D01*
X92850000Y1440000D01*
X92850000Y360000D01*
X92849711Y354119D01*
X92848847Y348295D01*
X92847416Y342583D01*
X92845433Y337039D01*
X92842915Y331716D01*
X92839888Y326666D01*
X92836381Y321936D01*
X92832426Y317574D01*
X92828064Y313619D01*
X92823334Y310112D01*
X92818284Y307085D01*
X92812961Y304567D01*
X92807417Y302584D01*
X92801705Y301153D01*
X92795881Y300289D01*
X92790000Y300000D01*
X92310000Y300000D01*
X92304119Y300289D01*
X92298295Y301153D01*
X92292583Y302584D01*
X92287039Y304567D01*
X92281716Y307085D01*
X92276666Y310112D01*
X92271936Y313619D01*
X92267574Y317574D01*
X92263619Y321936D01*
X92260112Y326666D01*
X92257085Y331716D01*
X92254567Y337039D01*
X92252584Y342583D01*
X92251153Y348295D01*
X92250289Y354119D01*
X92250000Y360000D01*
X92250000Y1440000D01*
X92250289Y1445881D01*
X92251153Y1451705D01*
X92252584Y1457417D01*
X92254567Y1462961D01*
X92257085Y1468284D01*
X92260112Y1473334D01*
X92263619Y1478064D01*
X92267574Y1482426D01*
X92271936Y1486381D01*
X92276666Y1489888D01*
X92281716Y1492915D01*
X92287039Y1495433D01*
X92292583Y1497416D01*
X92298295Y1498847D01*
X92304119Y1499711D01*
X92310000Y1500000D01*
X92790000Y1500000D01*
X92795881Y1499711D01*
G37*
G36*
X92327841Y3299615D02*
G01*
X92335607Y3298463D01*
X92343223Y3296555D01*
X92350615Y3293910D01*
X92357712Y3290554D01*
X92364446Y3286518D01*
X92370751Y3281841D01*
X92376569Y3276569D01*
X92381841Y3270751D01*
X92386518Y3264446D01*
X92390554Y3257712D01*
X92393910Y3250615D01*
X92396555Y3243223D01*
X92398463Y3235607D01*
X92399615Y3227841D01*
X92400000Y3220000D01*
X92400000Y2580000D01*
X92399615Y2572159D01*
X92398463Y2564393D01*
X92396555Y2556777D01*
X92393910Y2549385D01*
X92390554Y2542288D01*
X92386518Y2535554D01*
X92381841Y2529249D01*
X92376569Y2523431D01*
X92370751Y2518159D01*
X92364446Y2513482D01*
X92357712Y2509446D01*
X92350615Y2506090D01*
X92343223Y2503445D01*
X92335607Y2501537D01*
X92327841Y2500385D01*
X92320000Y2500000D01*
X91580000Y2500000D01*
X91572159Y2500385D01*
X91564393Y2501537D01*
X91556777Y2503445D01*
X91549385Y2506090D01*
X91542288Y2509446D01*
X91535554Y2513482D01*
X91529249Y2518159D01*
X91523431Y2523431D01*
X91518159Y2529249D01*
X91513482Y2535554D01*
X91509446Y2542288D01*
X91506090Y2549385D01*
X91503445Y2556777D01*
X91501537Y2564393D01*
X91500385Y2572159D01*
X91500000Y2580000D01*
X91500000Y3220000D01*
X91500385Y3227841D01*
X91501537Y3235607D01*
X91503445Y3243223D01*
X91506090Y3250615D01*
X91509446Y3257712D01*
X91513482Y3264446D01*
X91518159Y3270751D01*
X91523431Y3276569D01*
X91529249Y3281841D01*
X91535554Y3286518D01*
X91542288Y3290554D01*
X91549385Y3293910D01*
X91556777Y3296555D01*
X91564393Y3298463D01*
X91572159Y3299615D01*
X91580000Y3300000D01*
X92320000Y3300000D01*
X92327841Y3299615D01*
G37*
G36*
X88927841Y3299615D02*
G01*
X88935607Y3298463D01*
X88943223Y3296555D01*
X88950615Y3293910D01*
X88957712Y3290554D01*
X88964446Y3286518D01*
X88970751Y3281841D01*
X88976569Y3276569D01*
X88981841Y3270751D01*
X88986518Y3264446D01*
X88990554Y3257712D01*
X88993910Y3250615D01*
X88996555Y3243223D01*
X88998463Y3235607D01*
X88999615Y3227841D01*
X89000000Y3220000D01*
X89000000Y2580000D01*
X88999615Y2572159D01*
X88998463Y2564393D01*
X88996555Y2556777D01*
X88993910Y2549385D01*
X88990554Y2542288D01*
X88986518Y2535554D01*
X88981841Y2529249D01*
X88976569Y2523431D01*
X88970751Y2518159D01*
X88964446Y2513482D01*
X88957712Y2509446D01*
X88950615Y2506090D01*
X88943223Y2503445D01*
X88935607Y2501537D01*
X88927841Y2500385D01*
X88920000Y2500000D01*
X88180000Y2500000D01*
X88172159Y2500385D01*
X88164393Y2501537D01*
X88156777Y2503445D01*
X88149385Y2506090D01*
X88142288Y2509446D01*
X88135554Y2513482D01*
X88129249Y2518159D01*
X88123431Y2523431D01*
X88118159Y2529249D01*
X88113482Y2535554D01*
X88109446Y2542288D01*
X88106090Y2549385D01*
X88103445Y2556777D01*
X88101537Y2564393D01*
X88100385Y2572159D01*
X88100000Y2580000D01*
X88100000Y3220000D01*
X88100385Y3227841D01*
X88101537Y3235607D01*
X88103445Y3243223D01*
X88106090Y3250615D01*
X88109446Y3257712D01*
X88113482Y3264446D01*
X88118159Y3270751D01*
X88123431Y3276569D01*
X88129249Y3281841D01*
X88135554Y3286518D01*
X88142288Y3290554D01*
X88149385Y3293910D01*
X88156777Y3296555D01*
X88164393Y3298463D01*
X88172159Y3299615D01*
X88180000Y3300000D01*
X88920000Y3300000D01*
X88927841Y3299615D01*
G37*
G36*
X91186958Y6309290D02*
G01*
X91201276Y6307166D01*
X91215317Y6303649D01*
X91228946Y6298772D01*
X91242031Y6292583D01*
X91254447Y6285142D01*
X91266073Y6276519D01*
X91276798Y6266798D01*
X91286519Y6256073D01*
X91295142Y6244447D01*
X91302583Y6232031D01*
X91308772Y6218946D01*
X91313649Y6205317D01*
X91317166Y6191276D01*
X91319290Y6176958D01*
X91320000Y6162500D01*
X91320000Y5867500D01*
X91319290Y5853042D01*
X91317166Y5838724D01*
X91313649Y5824683D01*
X91308772Y5811054D01*
X91302583Y5797969D01*
X91295142Y5785553D01*
X91286519Y5773927D01*
X91276798Y5763202D01*
X91266073Y5753481D01*
X91254447Y5744858D01*
X91242031Y5737417D01*
X91228946Y5731228D01*
X91215317Y5726351D01*
X91201276Y5722834D01*
X91186958Y5720710D01*
X91172500Y5720000D01*
X90827500Y5720000D01*
X90813042Y5720710D01*
X90798724Y5722834D01*
X90784683Y5726351D01*
X90771054Y5731228D01*
X90757969Y5737417D01*
X90745553Y5744858D01*
X90733927Y5753481D01*
X90723202Y5763202D01*
X90713481Y5773927D01*
X90704858Y5785553D01*
X90697417Y5797969D01*
X90691228Y5811054D01*
X90686351Y5824683D01*
X90682834Y5838724D01*
X90680710Y5853042D01*
X90680000Y5867500D01*
X90680000Y6162500D01*
X90680710Y6176958D01*
X90682834Y6191276D01*
X90686351Y6205317D01*
X90691228Y6218946D01*
X90697417Y6232031D01*
X90704858Y6244447D01*
X90713481Y6256073D01*
X90723202Y6266798D01*
X90733927Y6276519D01*
X90745553Y6285142D01*
X90757969Y6292583D01*
X90771054Y6298772D01*
X90784683Y6303649D01*
X90798724Y6307166D01*
X90813042Y6309290D01*
X90827500Y6310000D01*
X91172500Y6310000D01*
X91186958Y6309290D01*
G37*
G36*
X91186958Y7279290D02*
G01*
X91201276Y7277166D01*
X91215317Y7273649D01*
X91228946Y7268772D01*
X91242031Y7262583D01*
X91254447Y7255142D01*
X91266073Y7246519D01*
X91276798Y7236798D01*
X91286519Y7226073D01*
X91295142Y7214447D01*
X91302583Y7202031D01*
X91308772Y7188946D01*
X91313649Y7175317D01*
X91317166Y7161276D01*
X91319290Y7146958D01*
X91320000Y7132500D01*
X91320000Y6837500D01*
X91319290Y6823042D01*
X91317166Y6808724D01*
X91313649Y6794683D01*
X91308772Y6781054D01*
X91302583Y6767969D01*
X91295142Y6755553D01*
X91286519Y6743927D01*
X91276798Y6733202D01*
X91266073Y6723481D01*
X91254447Y6714858D01*
X91242031Y6707417D01*
X91228946Y6701228D01*
X91215317Y6696351D01*
X91201276Y6692834D01*
X91186958Y6690710D01*
X91172500Y6690000D01*
X90827500Y6690000D01*
X90813042Y6690710D01*
X90798724Y6692834D01*
X90784683Y6696351D01*
X90771054Y6701228D01*
X90757969Y6707417D01*
X90745553Y6714858D01*
X90733927Y6723481D01*
X90723202Y6733202D01*
X90713481Y6743927D01*
X90704858Y6755553D01*
X90697417Y6767969D01*
X90691228Y6781054D01*
X90686351Y6794683D01*
X90682834Y6808724D01*
X90680710Y6823042D01*
X90680000Y6837500D01*
X90680000Y7132500D01*
X90680710Y7146958D01*
X90682834Y7161276D01*
X90686351Y7175317D01*
X90691228Y7188946D01*
X90697417Y7202031D01*
X90704858Y7214447D01*
X90713481Y7226073D01*
X90723202Y7236798D01*
X90733927Y7246519D01*
X90745553Y7255142D01*
X90757969Y7262583D01*
X90771054Y7268772D01*
X90784683Y7273649D01*
X90798724Y7277166D01*
X90813042Y7279290D01*
X90827500Y7280000D01*
X91172500Y7280000D01*
X91186958Y7279290D01*
G37*
G36*
X86332351Y29649639D02*
G01*
X86339632Y29648559D01*
X86346771Y29646771D01*
X86353701Y29644291D01*
X86360355Y29641144D01*
X86366668Y29637360D01*
X86372579Y29632976D01*
X86378033Y29628033D01*
X86382976Y29622579D01*
X86387360Y29616668D01*
X86391144Y29610355D01*
X86394291Y29603701D01*
X86396771Y29596771D01*
X86398559Y29589632D01*
X86399639Y29582351D01*
X86400000Y29575000D01*
X86400000Y29425000D01*
X86399639Y29417649D01*
X86398559Y29410368D01*
X86396771Y29403229D01*
X86394291Y29396299D01*
X86391144Y29389645D01*
X86387360Y29383332D01*
X86382976Y29377421D01*
X86378033Y29371967D01*
X86372579Y29367024D01*
X86366668Y29362640D01*
X86360355Y29358856D01*
X86353701Y29355709D01*
X86346771Y29353229D01*
X86339632Y29351441D01*
X86332351Y29350361D01*
X86325000Y29350000D01*
X85000000Y29350000D01*
X84992649Y29350361D01*
X84985368Y29351441D01*
X84978229Y29353229D01*
X84971299Y29355709D01*
X84964645Y29358856D01*
X84958332Y29362640D01*
X84952421Y29367024D01*
X84946967Y29371967D01*
X84942024Y29377421D01*
X84937640Y29383332D01*
X84933856Y29389645D01*
X84930709Y29396299D01*
X84928229Y29403229D01*
X84926441Y29410368D01*
X84925361Y29417649D01*
X84925000Y29425000D01*
X84925000Y29575000D01*
X84925361Y29582351D01*
X84926441Y29589632D01*
X84928229Y29596771D01*
X84930709Y29603701D01*
X84933856Y29610355D01*
X84937640Y29616668D01*
X84942024Y29622579D01*
X84946967Y29628033D01*
X84952421Y29632976D01*
X84958332Y29637360D01*
X84964645Y29641144D01*
X84971299Y29644291D01*
X84978229Y29646771D01*
X84985368Y29648559D01*
X84992649Y29649639D01*
X85000000Y29650000D01*
X86325000Y29650000D01*
X86332351Y29649639D01*
G37*
G36*
X86332351Y29149639D02*
G01*
X86339632Y29148559D01*
X86346771Y29146771D01*
X86353701Y29144291D01*
X86360355Y29141144D01*
X86366668Y29137360D01*
X86372579Y29132976D01*
X86378033Y29128033D01*
X86382976Y29122579D01*
X86387360Y29116668D01*
X86391144Y29110355D01*
X86394291Y29103701D01*
X86396771Y29096771D01*
X86398559Y29089632D01*
X86399639Y29082351D01*
X86400000Y29075000D01*
X86400000Y28925000D01*
X86399639Y28917649D01*
X86398559Y28910368D01*
X86396771Y28903229D01*
X86394291Y28896299D01*
X86391144Y28889645D01*
X86387360Y28883332D01*
X86382976Y28877421D01*
X86378033Y28871967D01*
X86372579Y28867024D01*
X86366668Y28862640D01*
X86360355Y28858856D01*
X86353701Y28855709D01*
X86346771Y28853229D01*
X86339632Y28851441D01*
X86332351Y28850361D01*
X86325000Y28850000D01*
X85000000Y28850000D01*
X84992649Y28850361D01*
X84985368Y28851441D01*
X84978229Y28853229D01*
X84971299Y28855709D01*
X84964645Y28858856D01*
X84958332Y28862640D01*
X84952421Y28867024D01*
X84946967Y28871967D01*
X84942024Y28877421D01*
X84937640Y28883332D01*
X84933856Y28889645D01*
X84930709Y28896299D01*
X84928229Y28903229D01*
X84926441Y28910368D01*
X84925361Y28917649D01*
X84925000Y28925000D01*
X84925000Y29075000D01*
X84925361Y29082351D01*
X84926441Y29089632D01*
X84928229Y29096771D01*
X84930709Y29103701D01*
X84933856Y29110355D01*
X84937640Y29116668D01*
X84942024Y29122579D01*
X84946967Y29128033D01*
X84952421Y29132976D01*
X84958332Y29137360D01*
X84964645Y29141144D01*
X84971299Y29144291D01*
X84978229Y29146771D01*
X84985368Y29148559D01*
X84992649Y29149639D01*
X85000000Y29150000D01*
X86325000Y29150000D01*
X86332351Y29149639D01*
G37*
G36*
X86332351Y28649639D02*
G01*
X86339632Y28648559D01*
X86346771Y28646771D01*
X86353701Y28644291D01*
X86360355Y28641144D01*
X86366668Y28637360D01*
X86372579Y28632976D01*
X86378033Y28628033D01*
X86382976Y28622579D01*
X86387360Y28616668D01*
X86391144Y28610355D01*
X86394291Y28603701D01*
X86396771Y28596771D01*
X86398559Y28589632D01*
X86399639Y28582351D01*
X86400000Y28575000D01*
X86400000Y28425000D01*
X86399639Y28417649D01*
X86398559Y28410368D01*
X86396771Y28403229D01*
X86394291Y28396299D01*
X86391144Y28389645D01*
X86387360Y28383332D01*
X86382976Y28377421D01*
X86378033Y28371967D01*
X86372579Y28367024D01*
X86366668Y28362640D01*
X86360355Y28358856D01*
X86353701Y28355709D01*
X86346771Y28353229D01*
X86339632Y28351441D01*
X86332351Y28350361D01*
X86325000Y28350000D01*
X85000000Y28350000D01*
X84992649Y28350361D01*
X84985368Y28351441D01*
X84978229Y28353229D01*
X84971299Y28355709D01*
X84964645Y28358856D01*
X84958332Y28362640D01*
X84952421Y28367024D01*
X84946967Y28371967D01*
X84942024Y28377421D01*
X84937640Y28383332D01*
X84933856Y28389645D01*
X84930709Y28396299D01*
X84928229Y28403229D01*
X84926441Y28410368D01*
X84925361Y28417649D01*
X84925000Y28425000D01*
X84925000Y28575000D01*
X84925361Y28582351D01*
X84926441Y28589632D01*
X84928229Y28596771D01*
X84930709Y28603701D01*
X84933856Y28610355D01*
X84937640Y28616668D01*
X84942024Y28622579D01*
X84946967Y28628033D01*
X84952421Y28632976D01*
X84958332Y28637360D01*
X84964645Y28641144D01*
X84971299Y28644291D01*
X84978229Y28646771D01*
X84985368Y28648559D01*
X84992649Y28649639D01*
X85000000Y28650000D01*
X86325000Y28650000D01*
X86332351Y28649639D01*
G37*
G36*
X86332351Y28149639D02*
G01*
X86339632Y28148559D01*
X86346771Y28146771D01*
X86353701Y28144291D01*
X86360355Y28141144D01*
X86366668Y28137360D01*
X86372579Y28132976D01*
X86378033Y28128033D01*
X86382976Y28122579D01*
X86387360Y28116668D01*
X86391144Y28110355D01*
X86394291Y28103701D01*
X86396771Y28096771D01*
X86398559Y28089632D01*
X86399639Y28082351D01*
X86400000Y28075000D01*
X86400000Y27925000D01*
X86399639Y27917649D01*
X86398559Y27910368D01*
X86396771Y27903229D01*
X86394291Y27896299D01*
X86391144Y27889645D01*
X86387360Y27883332D01*
X86382976Y27877421D01*
X86378033Y27871967D01*
X86372579Y27867024D01*
X86366668Y27862640D01*
X86360355Y27858856D01*
X86353701Y27855709D01*
X86346771Y27853229D01*
X86339632Y27851441D01*
X86332351Y27850361D01*
X86325000Y27850000D01*
X85000000Y27850000D01*
X84992649Y27850361D01*
X84985368Y27851441D01*
X84978229Y27853229D01*
X84971299Y27855709D01*
X84964645Y27858856D01*
X84958332Y27862640D01*
X84952421Y27867024D01*
X84946967Y27871967D01*
X84942024Y27877421D01*
X84937640Y27883332D01*
X84933856Y27889645D01*
X84930709Y27896299D01*
X84928229Y27903229D01*
X84926441Y27910368D01*
X84925361Y27917649D01*
X84925000Y27925000D01*
X84925000Y28075000D01*
X84925361Y28082351D01*
X84926441Y28089632D01*
X84928229Y28096771D01*
X84930709Y28103701D01*
X84933856Y28110355D01*
X84937640Y28116668D01*
X84942024Y28122579D01*
X84946967Y28128033D01*
X84952421Y28132976D01*
X84958332Y28137360D01*
X84964645Y28141144D01*
X84971299Y28144291D01*
X84978229Y28146771D01*
X84985368Y28148559D01*
X84992649Y28149639D01*
X85000000Y28150000D01*
X86325000Y28150000D01*
X86332351Y28149639D01*
G37*
G36*
X86332351Y27649639D02*
G01*
X86339632Y27648559D01*
X86346771Y27646771D01*
X86353701Y27644291D01*
X86360355Y27641144D01*
X86366668Y27637360D01*
X86372579Y27632976D01*
X86378033Y27628033D01*
X86382976Y27622579D01*
X86387360Y27616668D01*
X86391144Y27610355D01*
X86394291Y27603701D01*
X86396771Y27596771D01*
X86398559Y27589632D01*
X86399639Y27582351D01*
X86400000Y27575000D01*
X86400000Y27425000D01*
X86399639Y27417649D01*
X86398559Y27410368D01*
X86396771Y27403229D01*
X86394291Y27396299D01*
X86391144Y27389645D01*
X86387360Y27383332D01*
X86382976Y27377421D01*
X86378033Y27371967D01*
X86372579Y27367024D01*
X86366668Y27362640D01*
X86360355Y27358856D01*
X86353701Y27355709D01*
X86346771Y27353229D01*
X86339632Y27351441D01*
X86332351Y27350361D01*
X86325000Y27350000D01*
X85000000Y27350000D01*
X84992649Y27350361D01*
X84985368Y27351441D01*
X84978229Y27353229D01*
X84971299Y27355709D01*
X84964645Y27358856D01*
X84958332Y27362640D01*
X84952421Y27367024D01*
X84946967Y27371967D01*
X84942024Y27377421D01*
X84937640Y27383332D01*
X84933856Y27389645D01*
X84930709Y27396299D01*
X84928229Y27403229D01*
X84926441Y27410368D01*
X84925361Y27417649D01*
X84925000Y27425000D01*
X84925000Y27575000D01*
X84925361Y27582351D01*
X84926441Y27589632D01*
X84928229Y27596771D01*
X84930709Y27603701D01*
X84933856Y27610355D01*
X84937640Y27616668D01*
X84942024Y27622579D01*
X84946967Y27628033D01*
X84952421Y27632976D01*
X84958332Y27637360D01*
X84964645Y27641144D01*
X84971299Y27644291D01*
X84978229Y27646771D01*
X84985368Y27648559D01*
X84992649Y27649639D01*
X85000000Y27650000D01*
X86325000Y27650000D01*
X86332351Y27649639D01*
G37*
G36*
X86332351Y27149639D02*
G01*
X86339632Y27148559D01*
X86346771Y27146771D01*
X86353701Y27144291D01*
X86360355Y27141144D01*
X86366668Y27137360D01*
X86372579Y27132976D01*
X86378033Y27128033D01*
X86382976Y27122579D01*
X86387360Y27116668D01*
X86391144Y27110355D01*
X86394291Y27103701D01*
X86396771Y27096771D01*
X86398559Y27089632D01*
X86399639Y27082351D01*
X86400000Y27075000D01*
X86400000Y26925000D01*
X86399639Y26917649D01*
X86398559Y26910368D01*
X86396771Y26903229D01*
X86394291Y26896299D01*
X86391144Y26889645D01*
X86387360Y26883332D01*
X86382976Y26877421D01*
X86378033Y26871967D01*
X86372579Y26867024D01*
X86366668Y26862640D01*
X86360355Y26858856D01*
X86353701Y26855709D01*
X86346771Y26853229D01*
X86339632Y26851441D01*
X86332351Y26850361D01*
X86325000Y26850000D01*
X85000000Y26850000D01*
X84992649Y26850361D01*
X84985368Y26851441D01*
X84978229Y26853229D01*
X84971299Y26855709D01*
X84964645Y26858856D01*
X84958332Y26862640D01*
X84952421Y26867024D01*
X84946967Y26871967D01*
X84942024Y26877421D01*
X84937640Y26883332D01*
X84933856Y26889645D01*
X84930709Y26896299D01*
X84928229Y26903229D01*
X84926441Y26910368D01*
X84925361Y26917649D01*
X84925000Y26925000D01*
X84925000Y27075000D01*
X84925361Y27082351D01*
X84926441Y27089632D01*
X84928229Y27096771D01*
X84930709Y27103701D01*
X84933856Y27110355D01*
X84937640Y27116668D01*
X84942024Y27122579D01*
X84946967Y27128033D01*
X84952421Y27132976D01*
X84958332Y27137360D01*
X84964645Y27141144D01*
X84971299Y27144291D01*
X84978229Y27146771D01*
X84985368Y27148559D01*
X84992649Y27149639D01*
X85000000Y27150000D01*
X86325000Y27150000D01*
X86332351Y27149639D01*
G37*
G36*
X86332351Y26649639D02*
G01*
X86339632Y26648559D01*
X86346771Y26646771D01*
X86353701Y26644291D01*
X86360355Y26641144D01*
X86366668Y26637360D01*
X86372579Y26632976D01*
X86378033Y26628033D01*
X86382976Y26622579D01*
X86387360Y26616668D01*
X86391144Y26610355D01*
X86394291Y26603701D01*
X86396771Y26596771D01*
X86398559Y26589632D01*
X86399639Y26582351D01*
X86400000Y26575000D01*
X86400000Y26425000D01*
X86399639Y26417649D01*
X86398559Y26410368D01*
X86396771Y26403229D01*
X86394291Y26396299D01*
X86391144Y26389645D01*
X86387360Y26383332D01*
X86382976Y26377421D01*
X86378033Y26371967D01*
X86372579Y26367024D01*
X86366668Y26362640D01*
X86360355Y26358856D01*
X86353701Y26355709D01*
X86346771Y26353229D01*
X86339632Y26351441D01*
X86332351Y26350361D01*
X86325000Y26350000D01*
X85000000Y26350000D01*
X84992649Y26350361D01*
X84985368Y26351441D01*
X84978229Y26353229D01*
X84971299Y26355709D01*
X84964645Y26358856D01*
X84958332Y26362640D01*
X84952421Y26367024D01*
X84946967Y26371967D01*
X84942024Y26377421D01*
X84937640Y26383332D01*
X84933856Y26389645D01*
X84930709Y26396299D01*
X84928229Y26403229D01*
X84926441Y26410368D01*
X84925361Y26417649D01*
X84925000Y26425000D01*
X84925000Y26575000D01*
X84925361Y26582351D01*
X84926441Y26589632D01*
X84928229Y26596771D01*
X84930709Y26603701D01*
X84933856Y26610355D01*
X84937640Y26616668D01*
X84942024Y26622579D01*
X84946967Y26628033D01*
X84952421Y26632976D01*
X84958332Y26637360D01*
X84964645Y26641144D01*
X84971299Y26644291D01*
X84978229Y26646771D01*
X84985368Y26648559D01*
X84992649Y26649639D01*
X85000000Y26650000D01*
X86325000Y26650000D01*
X86332351Y26649639D01*
G37*
G36*
X86332351Y26149639D02*
G01*
X86339632Y26148559D01*
X86346771Y26146771D01*
X86353701Y26144291D01*
X86360355Y26141144D01*
X86366668Y26137360D01*
X86372579Y26132976D01*
X86378033Y26128033D01*
X86382976Y26122579D01*
X86387360Y26116668D01*
X86391144Y26110355D01*
X86394291Y26103701D01*
X86396771Y26096771D01*
X86398559Y26089632D01*
X86399639Y26082351D01*
X86400000Y26075000D01*
X86400000Y25925000D01*
X86399639Y25917649D01*
X86398559Y25910368D01*
X86396771Y25903229D01*
X86394291Y25896299D01*
X86391144Y25889645D01*
X86387360Y25883332D01*
X86382976Y25877421D01*
X86378033Y25871967D01*
X86372579Y25867024D01*
X86366668Y25862640D01*
X86360355Y25858856D01*
X86353701Y25855709D01*
X86346771Y25853229D01*
X86339632Y25851441D01*
X86332351Y25850361D01*
X86325000Y25850000D01*
X85000000Y25850000D01*
X84992649Y25850361D01*
X84985368Y25851441D01*
X84978229Y25853229D01*
X84971299Y25855709D01*
X84964645Y25858856D01*
X84958332Y25862640D01*
X84952421Y25867024D01*
X84946967Y25871967D01*
X84942024Y25877421D01*
X84937640Y25883332D01*
X84933856Y25889645D01*
X84930709Y25896299D01*
X84928229Y25903229D01*
X84926441Y25910368D01*
X84925361Y25917649D01*
X84925000Y25925000D01*
X84925000Y26075000D01*
X84925361Y26082351D01*
X84926441Y26089632D01*
X84928229Y26096771D01*
X84930709Y26103701D01*
X84933856Y26110355D01*
X84937640Y26116668D01*
X84942024Y26122579D01*
X84946967Y26128033D01*
X84952421Y26132976D01*
X84958332Y26137360D01*
X84964645Y26141144D01*
X84971299Y26144291D01*
X84978229Y26146771D01*
X84985368Y26148559D01*
X84992649Y26149639D01*
X85000000Y26150000D01*
X86325000Y26150000D01*
X86332351Y26149639D01*
G37*
G36*
X86332351Y25649639D02*
G01*
X86339632Y25648559D01*
X86346771Y25646771D01*
X86353701Y25644291D01*
X86360355Y25641144D01*
X86366668Y25637360D01*
X86372579Y25632976D01*
X86378033Y25628033D01*
X86382976Y25622579D01*
X86387360Y25616668D01*
X86391144Y25610355D01*
X86394291Y25603701D01*
X86396771Y25596771D01*
X86398559Y25589632D01*
X86399639Y25582351D01*
X86400000Y25575000D01*
X86400000Y25425000D01*
X86399639Y25417649D01*
X86398559Y25410368D01*
X86396771Y25403229D01*
X86394291Y25396299D01*
X86391144Y25389645D01*
X86387360Y25383332D01*
X86382976Y25377421D01*
X86378033Y25371967D01*
X86372579Y25367024D01*
X86366668Y25362640D01*
X86360355Y25358856D01*
X86353701Y25355709D01*
X86346771Y25353229D01*
X86339632Y25351441D01*
X86332351Y25350361D01*
X86325000Y25350000D01*
X85000000Y25350000D01*
X84992649Y25350361D01*
X84985368Y25351441D01*
X84978229Y25353229D01*
X84971299Y25355709D01*
X84964645Y25358856D01*
X84958332Y25362640D01*
X84952421Y25367024D01*
X84946967Y25371967D01*
X84942024Y25377421D01*
X84937640Y25383332D01*
X84933856Y25389645D01*
X84930709Y25396299D01*
X84928229Y25403229D01*
X84926441Y25410368D01*
X84925361Y25417649D01*
X84925000Y25425000D01*
X84925000Y25575000D01*
X84925361Y25582351D01*
X84926441Y25589632D01*
X84928229Y25596771D01*
X84930709Y25603701D01*
X84933856Y25610355D01*
X84937640Y25616668D01*
X84942024Y25622579D01*
X84946967Y25628033D01*
X84952421Y25632976D01*
X84958332Y25637360D01*
X84964645Y25641144D01*
X84971299Y25644291D01*
X84978229Y25646771D01*
X84985368Y25648559D01*
X84992649Y25649639D01*
X85000000Y25650000D01*
X86325000Y25650000D01*
X86332351Y25649639D01*
G37*
G36*
X86332351Y25149639D02*
G01*
X86339632Y25148559D01*
X86346771Y25146771D01*
X86353701Y25144291D01*
X86360355Y25141144D01*
X86366668Y25137360D01*
X86372579Y25132976D01*
X86378033Y25128033D01*
X86382976Y25122579D01*
X86387360Y25116668D01*
X86391144Y25110355D01*
X86394291Y25103701D01*
X86396771Y25096771D01*
X86398559Y25089632D01*
X86399639Y25082351D01*
X86400000Y25075000D01*
X86400000Y24925000D01*
X86399639Y24917649D01*
X86398559Y24910368D01*
X86396771Y24903229D01*
X86394291Y24896299D01*
X86391144Y24889645D01*
X86387360Y24883332D01*
X86382976Y24877421D01*
X86378033Y24871967D01*
X86372579Y24867024D01*
X86366668Y24862640D01*
X86360355Y24858856D01*
X86353701Y24855709D01*
X86346771Y24853229D01*
X86339632Y24851441D01*
X86332351Y24850361D01*
X86325000Y24850000D01*
X85000000Y24850000D01*
X84992649Y24850361D01*
X84985368Y24851441D01*
X84978229Y24853229D01*
X84971299Y24855709D01*
X84964645Y24858856D01*
X84958332Y24862640D01*
X84952421Y24867024D01*
X84946967Y24871967D01*
X84942024Y24877421D01*
X84937640Y24883332D01*
X84933856Y24889645D01*
X84930709Y24896299D01*
X84928229Y24903229D01*
X84926441Y24910368D01*
X84925361Y24917649D01*
X84925000Y24925000D01*
X84925000Y25075000D01*
X84925361Y25082351D01*
X84926441Y25089632D01*
X84928229Y25096771D01*
X84930709Y25103701D01*
X84933856Y25110355D01*
X84937640Y25116668D01*
X84942024Y25122579D01*
X84946967Y25128033D01*
X84952421Y25132976D01*
X84958332Y25137360D01*
X84964645Y25141144D01*
X84971299Y25144291D01*
X84978229Y25146771D01*
X84985368Y25148559D01*
X84992649Y25149639D01*
X85000000Y25150000D01*
X86325000Y25150000D01*
X86332351Y25149639D01*
G37*
G36*
X86332351Y24649639D02*
G01*
X86339632Y24648559D01*
X86346771Y24646771D01*
X86353701Y24644291D01*
X86360355Y24641144D01*
X86366668Y24637360D01*
X86372579Y24632976D01*
X86378033Y24628033D01*
X86382976Y24622579D01*
X86387360Y24616668D01*
X86391144Y24610355D01*
X86394291Y24603701D01*
X86396771Y24596771D01*
X86398559Y24589632D01*
X86399639Y24582351D01*
X86400000Y24575000D01*
X86400000Y24425000D01*
X86399639Y24417649D01*
X86398559Y24410368D01*
X86396771Y24403229D01*
X86394291Y24396299D01*
X86391144Y24389645D01*
X86387360Y24383332D01*
X86382976Y24377421D01*
X86378033Y24371967D01*
X86372579Y24367024D01*
X86366668Y24362640D01*
X86360355Y24358856D01*
X86353701Y24355709D01*
X86346771Y24353229D01*
X86339632Y24351441D01*
X86332351Y24350361D01*
X86325000Y24350000D01*
X85000000Y24350000D01*
X84992649Y24350361D01*
X84985368Y24351441D01*
X84978229Y24353229D01*
X84971299Y24355709D01*
X84964645Y24358856D01*
X84958332Y24362640D01*
X84952421Y24367024D01*
X84946967Y24371967D01*
X84942024Y24377421D01*
X84937640Y24383332D01*
X84933856Y24389645D01*
X84930709Y24396299D01*
X84928229Y24403229D01*
X84926441Y24410368D01*
X84925361Y24417649D01*
X84925000Y24425000D01*
X84925000Y24575000D01*
X84925361Y24582351D01*
X84926441Y24589632D01*
X84928229Y24596771D01*
X84930709Y24603701D01*
X84933856Y24610355D01*
X84937640Y24616668D01*
X84942024Y24622579D01*
X84946967Y24628033D01*
X84952421Y24632976D01*
X84958332Y24637360D01*
X84964645Y24641144D01*
X84971299Y24644291D01*
X84978229Y24646771D01*
X84985368Y24648559D01*
X84992649Y24649639D01*
X85000000Y24650000D01*
X86325000Y24650000D01*
X86332351Y24649639D01*
G37*
G36*
X86332351Y24149639D02*
G01*
X86339632Y24148559D01*
X86346771Y24146771D01*
X86353701Y24144291D01*
X86360355Y24141144D01*
X86366668Y24137360D01*
X86372579Y24132976D01*
X86378033Y24128033D01*
X86382976Y24122579D01*
X86387360Y24116668D01*
X86391144Y24110355D01*
X86394291Y24103701D01*
X86396771Y24096771D01*
X86398559Y24089632D01*
X86399639Y24082351D01*
X86400000Y24075000D01*
X86400000Y23925000D01*
X86399639Y23917649D01*
X86398559Y23910368D01*
X86396771Y23903229D01*
X86394291Y23896299D01*
X86391144Y23889645D01*
X86387360Y23883332D01*
X86382976Y23877421D01*
X86378033Y23871967D01*
X86372579Y23867024D01*
X86366668Y23862640D01*
X86360355Y23858856D01*
X86353701Y23855709D01*
X86346771Y23853229D01*
X86339632Y23851441D01*
X86332351Y23850361D01*
X86325000Y23850000D01*
X85000000Y23850000D01*
X84992649Y23850361D01*
X84985368Y23851441D01*
X84978229Y23853229D01*
X84971299Y23855709D01*
X84964645Y23858856D01*
X84958332Y23862640D01*
X84952421Y23867024D01*
X84946967Y23871967D01*
X84942024Y23877421D01*
X84937640Y23883332D01*
X84933856Y23889645D01*
X84930709Y23896299D01*
X84928229Y23903229D01*
X84926441Y23910368D01*
X84925361Y23917649D01*
X84925000Y23925000D01*
X84925000Y24075000D01*
X84925361Y24082351D01*
X84926441Y24089632D01*
X84928229Y24096771D01*
X84930709Y24103701D01*
X84933856Y24110355D01*
X84937640Y24116668D01*
X84942024Y24122579D01*
X84946967Y24128033D01*
X84952421Y24132976D01*
X84958332Y24137360D01*
X84964645Y24141144D01*
X84971299Y24144291D01*
X84978229Y24146771D01*
X84985368Y24148559D01*
X84992649Y24149639D01*
X85000000Y24150000D01*
X86325000Y24150000D01*
X86332351Y24149639D01*
G37*
G36*
X84332351Y23324639D02*
G01*
X84339632Y23323559D01*
X84346771Y23321771D01*
X84353701Y23319291D01*
X84360355Y23316144D01*
X84366668Y23312360D01*
X84372579Y23307976D01*
X84378033Y23303033D01*
X84382976Y23297579D01*
X84387360Y23291668D01*
X84391144Y23285355D01*
X84394291Y23278701D01*
X84396771Y23271771D01*
X84398559Y23264632D01*
X84399639Y23257351D01*
X84400000Y23250000D01*
X84400000Y21925000D01*
X84399639Y21917649D01*
X84398559Y21910368D01*
X84396771Y21903229D01*
X84394291Y21896299D01*
X84391144Y21889645D01*
X84387360Y21883332D01*
X84382976Y21877421D01*
X84378033Y21871967D01*
X84372579Y21867024D01*
X84366668Y21862640D01*
X84360355Y21858856D01*
X84353701Y21855709D01*
X84346771Y21853229D01*
X84339632Y21851441D01*
X84332351Y21850361D01*
X84325000Y21850000D01*
X84175000Y21850000D01*
X84167649Y21850361D01*
X84160368Y21851441D01*
X84153229Y21853229D01*
X84146299Y21855709D01*
X84139645Y21858856D01*
X84133332Y21862640D01*
X84127421Y21867024D01*
X84121967Y21871967D01*
X84117024Y21877421D01*
X84112640Y21883332D01*
X84108856Y21889645D01*
X84105709Y21896299D01*
X84103229Y21903229D01*
X84101441Y21910368D01*
X84100361Y21917649D01*
X84100000Y21925000D01*
X84100000Y23250000D01*
X84100361Y23257351D01*
X84101441Y23264632D01*
X84103229Y23271771D01*
X84105709Y23278701D01*
X84108856Y23285355D01*
X84112640Y23291668D01*
X84117024Y23297579D01*
X84121967Y23303033D01*
X84127421Y23307976D01*
X84133332Y23312360D01*
X84139645Y23316144D01*
X84146299Y23319291D01*
X84153229Y23321771D01*
X84160368Y23323559D01*
X84167649Y23324639D01*
X84175000Y23325000D01*
X84325000Y23325000D01*
X84332351Y23324639D01*
G37*
G36*
X83832351Y23324639D02*
G01*
X83839632Y23323559D01*
X83846771Y23321771D01*
X83853701Y23319291D01*
X83860355Y23316144D01*
X83866668Y23312360D01*
X83872579Y23307976D01*
X83878033Y23303033D01*
X83882976Y23297579D01*
X83887360Y23291668D01*
X83891144Y23285355D01*
X83894291Y23278701D01*
X83896771Y23271771D01*
X83898559Y23264632D01*
X83899639Y23257351D01*
X83900000Y23250000D01*
X83900000Y21925000D01*
X83899639Y21917649D01*
X83898559Y21910368D01*
X83896771Y21903229D01*
X83894291Y21896299D01*
X83891144Y21889645D01*
X83887360Y21883332D01*
X83882976Y21877421D01*
X83878033Y21871967D01*
X83872579Y21867024D01*
X83866668Y21862640D01*
X83860355Y21858856D01*
X83853701Y21855709D01*
X83846771Y21853229D01*
X83839632Y21851441D01*
X83832351Y21850361D01*
X83825000Y21850000D01*
X83675000Y21850000D01*
X83667649Y21850361D01*
X83660368Y21851441D01*
X83653229Y21853229D01*
X83646299Y21855709D01*
X83639645Y21858856D01*
X83633332Y21862640D01*
X83627421Y21867024D01*
X83621967Y21871967D01*
X83617024Y21877421D01*
X83612640Y21883332D01*
X83608856Y21889645D01*
X83605709Y21896299D01*
X83603229Y21903229D01*
X83601441Y21910368D01*
X83600361Y21917649D01*
X83600000Y21925000D01*
X83600000Y23250000D01*
X83600361Y23257351D01*
X83601441Y23264632D01*
X83603229Y23271771D01*
X83605709Y23278701D01*
X83608856Y23285355D01*
X83612640Y23291668D01*
X83617024Y23297579D01*
X83621967Y23303033D01*
X83627421Y23307976D01*
X83633332Y23312360D01*
X83639645Y23316144D01*
X83646299Y23319291D01*
X83653229Y23321771D01*
X83660368Y23323559D01*
X83667649Y23324639D01*
X83675000Y23325000D01*
X83825000Y23325000D01*
X83832351Y23324639D01*
G37*
G36*
X83332351Y23324639D02*
G01*
X83339632Y23323559D01*
X83346771Y23321771D01*
X83353701Y23319291D01*
X83360355Y23316144D01*
X83366668Y23312360D01*
X83372579Y23307976D01*
X83378033Y23303033D01*
X83382976Y23297579D01*
X83387360Y23291668D01*
X83391144Y23285355D01*
X83394291Y23278701D01*
X83396771Y23271771D01*
X83398559Y23264632D01*
X83399639Y23257351D01*
X83400000Y23250000D01*
X83400000Y21925000D01*
X83399639Y21917649D01*
X83398559Y21910368D01*
X83396771Y21903229D01*
X83394291Y21896299D01*
X83391144Y21889645D01*
X83387360Y21883332D01*
X83382976Y21877421D01*
X83378033Y21871967D01*
X83372579Y21867024D01*
X83366668Y21862640D01*
X83360355Y21858856D01*
X83353701Y21855709D01*
X83346771Y21853229D01*
X83339632Y21851441D01*
X83332351Y21850361D01*
X83325000Y21850000D01*
X83175000Y21850000D01*
X83167649Y21850361D01*
X83160368Y21851441D01*
X83153229Y21853229D01*
X83146299Y21855709D01*
X83139645Y21858856D01*
X83133332Y21862640D01*
X83127421Y21867024D01*
X83121967Y21871967D01*
X83117024Y21877421D01*
X83112640Y21883332D01*
X83108856Y21889645D01*
X83105709Y21896299D01*
X83103229Y21903229D01*
X83101441Y21910368D01*
X83100361Y21917649D01*
X83100000Y21925000D01*
X83100000Y23250000D01*
X83100361Y23257351D01*
X83101441Y23264632D01*
X83103229Y23271771D01*
X83105709Y23278701D01*
X83108856Y23285355D01*
X83112640Y23291668D01*
X83117024Y23297579D01*
X83121967Y23303033D01*
X83127421Y23307976D01*
X83133332Y23312360D01*
X83139645Y23316144D01*
X83146299Y23319291D01*
X83153229Y23321771D01*
X83160368Y23323559D01*
X83167649Y23324639D01*
X83175000Y23325000D01*
X83325000Y23325000D01*
X83332351Y23324639D01*
G37*
G36*
X82832351Y23324639D02*
G01*
X82839632Y23323559D01*
X82846771Y23321771D01*
X82853701Y23319291D01*
X82860355Y23316144D01*
X82866668Y23312360D01*
X82872579Y23307976D01*
X82878033Y23303033D01*
X82882976Y23297579D01*
X82887360Y23291668D01*
X82891144Y23285355D01*
X82894291Y23278701D01*
X82896771Y23271771D01*
X82898559Y23264632D01*
X82899639Y23257351D01*
X82900000Y23250000D01*
X82900000Y21925000D01*
X82899639Y21917649D01*
X82898559Y21910368D01*
X82896771Y21903229D01*
X82894291Y21896299D01*
X82891144Y21889645D01*
X82887360Y21883332D01*
X82882976Y21877421D01*
X82878033Y21871967D01*
X82872579Y21867024D01*
X82866668Y21862640D01*
X82860355Y21858856D01*
X82853701Y21855709D01*
X82846771Y21853229D01*
X82839632Y21851441D01*
X82832351Y21850361D01*
X82825000Y21850000D01*
X82675000Y21850000D01*
X82667649Y21850361D01*
X82660368Y21851441D01*
X82653229Y21853229D01*
X82646299Y21855709D01*
X82639645Y21858856D01*
X82633332Y21862640D01*
X82627421Y21867024D01*
X82621967Y21871967D01*
X82617024Y21877421D01*
X82612640Y21883332D01*
X82608856Y21889645D01*
X82605709Y21896299D01*
X82603229Y21903229D01*
X82601441Y21910368D01*
X82600361Y21917649D01*
X82600000Y21925000D01*
X82600000Y23250000D01*
X82600361Y23257351D01*
X82601441Y23264632D01*
X82603229Y23271771D01*
X82605709Y23278701D01*
X82608856Y23285355D01*
X82612640Y23291668D01*
X82617024Y23297579D01*
X82621967Y23303033D01*
X82627421Y23307976D01*
X82633332Y23312360D01*
X82639645Y23316144D01*
X82646299Y23319291D01*
X82653229Y23321771D01*
X82660368Y23323559D01*
X82667649Y23324639D01*
X82675000Y23325000D01*
X82825000Y23325000D01*
X82832351Y23324639D01*
G37*
G36*
X82332351Y23324639D02*
G01*
X82339632Y23323559D01*
X82346771Y23321771D01*
X82353701Y23319291D01*
X82360355Y23316144D01*
X82366668Y23312360D01*
X82372579Y23307976D01*
X82378033Y23303033D01*
X82382976Y23297579D01*
X82387360Y23291668D01*
X82391144Y23285355D01*
X82394291Y23278701D01*
X82396771Y23271771D01*
X82398559Y23264632D01*
X82399639Y23257351D01*
X82400000Y23250000D01*
X82400000Y21925000D01*
X82399639Y21917649D01*
X82398559Y21910368D01*
X82396771Y21903229D01*
X82394291Y21896299D01*
X82391144Y21889645D01*
X82387360Y21883332D01*
X82382976Y21877421D01*
X82378033Y21871967D01*
X82372579Y21867024D01*
X82366668Y21862640D01*
X82360355Y21858856D01*
X82353701Y21855709D01*
X82346771Y21853229D01*
X82339632Y21851441D01*
X82332351Y21850361D01*
X82325000Y21850000D01*
X82175000Y21850000D01*
X82167649Y21850361D01*
X82160368Y21851441D01*
X82153229Y21853229D01*
X82146299Y21855709D01*
X82139645Y21858856D01*
X82133332Y21862640D01*
X82127421Y21867024D01*
X82121967Y21871967D01*
X82117024Y21877421D01*
X82112640Y21883332D01*
X82108856Y21889645D01*
X82105709Y21896299D01*
X82103229Y21903229D01*
X82101441Y21910368D01*
X82100361Y21917649D01*
X82100000Y21925000D01*
X82100000Y23250000D01*
X82100361Y23257351D01*
X82101441Y23264632D01*
X82103229Y23271771D01*
X82105709Y23278701D01*
X82108856Y23285355D01*
X82112640Y23291668D01*
X82117024Y23297579D01*
X82121967Y23303033D01*
X82127421Y23307976D01*
X82133332Y23312360D01*
X82139645Y23316144D01*
X82146299Y23319291D01*
X82153229Y23321771D01*
X82160368Y23323559D01*
X82167649Y23324639D01*
X82175000Y23325000D01*
X82325000Y23325000D01*
X82332351Y23324639D01*
G37*
G36*
X81832351Y23324639D02*
G01*
X81839632Y23323559D01*
X81846771Y23321771D01*
X81853701Y23319291D01*
X81860355Y23316144D01*
X81866668Y23312360D01*
X81872579Y23307976D01*
X81878033Y23303033D01*
X81882976Y23297579D01*
X81887360Y23291668D01*
X81891144Y23285355D01*
X81894291Y23278701D01*
X81896771Y23271771D01*
X81898559Y23264632D01*
X81899639Y23257351D01*
X81900000Y23250000D01*
X81900000Y21925000D01*
X81899639Y21917649D01*
X81898559Y21910368D01*
X81896771Y21903229D01*
X81894291Y21896299D01*
X81891144Y21889645D01*
X81887360Y21883332D01*
X81882976Y21877421D01*
X81878033Y21871967D01*
X81872579Y21867024D01*
X81866668Y21862640D01*
X81860355Y21858856D01*
X81853701Y21855709D01*
X81846771Y21853229D01*
X81839632Y21851441D01*
X81832351Y21850361D01*
X81825000Y21850000D01*
X81675000Y21850000D01*
X81667649Y21850361D01*
X81660368Y21851441D01*
X81653229Y21853229D01*
X81646299Y21855709D01*
X81639645Y21858856D01*
X81633332Y21862640D01*
X81627421Y21867024D01*
X81621967Y21871967D01*
X81617024Y21877421D01*
X81612640Y21883332D01*
X81608856Y21889645D01*
X81605709Y21896299D01*
X81603229Y21903229D01*
X81601441Y21910368D01*
X81600361Y21917649D01*
X81600000Y21925000D01*
X81600000Y23250000D01*
X81600361Y23257351D01*
X81601441Y23264632D01*
X81603229Y23271771D01*
X81605709Y23278701D01*
X81608856Y23285355D01*
X81612640Y23291668D01*
X81617024Y23297579D01*
X81621967Y23303033D01*
X81627421Y23307976D01*
X81633332Y23312360D01*
X81639645Y23316144D01*
X81646299Y23319291D01*
X81653229Y23321771D01*
X81660368Y23323559D01*
X81667649Y23324639D01*
X81675000Y23325000D01*
X81825000Y23325000D01*
X81832351Y23324639D01*
G37*
G36*
X81332351Y23324639D02*
G01*
X81339632Y23323559D01*
X81346771Y23321771D01*
X81353701Y23319291D01*
X81360355Y23316144D01*
X81366668Y23312360D01*
X81372579Y23307976D01*
X81378033Y23303033D01*
X81382976Y23297579D01*
X81387360Y23291668D01*
X81391144Y23285355D01*
X81394291Y23278701D01*
X81396771Y23271771D01*
X81398559Y23264632D01*
X81399639Y23257351D01*
X81400000Y23250000D01*
X81400000Y21925000D01*
X81399639Y21917649D01*
X81398559Y21910368D01*
X81396771Y21903229D01*
X81394291Y21896299D01*
X81391144Y21889645D01*
X81387360Y21883332D01*
X81382976Y21877421D01*
X81378033Y21871967D01*
X81372579Y21867024D01*
X81366668Y21862640D01*
X81360355Y21858856D01*
X81353701Y21855709D01*
X81346771Y21853229D01*
X81339632Y21851441D01*
X81332351Y21850361D01*
X81325000Y21850000D01*
X81175000Y21850000D01*
X81167649Y21850361D01*
X81160368Y21851441D01*
X81153229Y21853229D01*
X81146299Y21855709D01*
X81139645Y21858856D01*
X81133332Y21862640D01*
X81127421Y21867024D01*
X81121967Y21871967D01*
X81117024Y21877421D01*
X81112640Y21883332D01*
X81108856Y21889645D01*
X81105709Y21896299D01*
X81103229Y21903229D01*
X81101441Y21910368D01*
X81100361Y21917649D01*
X81100000Y21925000D01*
X81100000Y23250000D01*
X81100361Y23257351D01*
X81101441Y23264632D01*
X81103229Y23271771D01*
X81105709Y23278701D01*
X81108856Y23285355D01*
X81112640Y23291668D01*
X81117024Y23297579D01*
X81121967Y23303033D01*
X81127421Y23307976D01*
X81133332Y23312360D01*
X81139645Y23316144D01*
X81146299Y23319291D01*
X81153229Y23321771D01*
X81160368Y23323559D01*
X81167649Y23324639D01*
X81175000Y23325000D01*
X81325000Y23325000D01*
X81332351Y23324639D01*
G37*
G36*
X80832351Y23324639D02*
G01*
X80839632Y23323559D01*
X80846771Y23321771D01*
X80853701Y23319291D01*
X80860355Y23316144D01*
X80866668Y23312360D01*
X80872579Y23307976D01*
X80878033Y23303033D01*
X80882976Y23297579D01*
X80887360Y23291668D01*
X80891144Y23285355D01*
X80894291Y23278701D01*
X80896771Y23271771D01*
X80898559Y23264632D01*
X80899639Y23257351D01*
X80900000Y23250000D01*
X80900000Y21925000D01*
X80899639Y21917649D01*
X80898559Y21910368D01*
X80896771Y21903229D01*
X80894291Y21896299D01*
X80891144Y21889645D01*
X80887360Y21883332D01*
X80882976Y21877421D01*
X80878033Y21871967D01*
X80872579Y21867024D01*
X80866668Y21862640D01*
X80860355Y21858856D01*
X80853701Y21855709D01*
X80846771Y21853229D01*
X80839632Y21851441D01*
X80832351Y21850361D01*
X80825000Y21850000D01*
X80675000Y21850000D01*
X80667649Y21850361D01*
X80660368Y21851441D01*
X80653229Y21853229D01*
X80646299Y21855709D01*
X80639645Y21858856D01*
X80633332Y21862640D01*
X80627421Y21867024D01*
X80621967Y21871967D01*
X80617024Y21877421D01*
X80612640Y21883332D01*
X80608856Y21889645D01*
X80605709Y21896299D01*
X80603229Y21903229D01*
X80601441Y21910368D01*
X80600361Y21917649D01*
X80600000Y21925000D01*
X80600000Y23250000D01*
X80600361Y23257351D01*
X80601441Y23264632D01*
X80603229Y23271771D01*
X80605709Y23278701D01*
X80608856Y23285355D01*
X80612640Y23291668D01*
X80617024Y23297579D01*
X80621967Y23303033D01*
X80627421Y23307976D01*
X80633332Y23312360D01*
X80639645Y23316144D01*
X80646299Y23319291D01*
X80653229Y23321771D01*
X80660368Y23323559D01*
X80667649Y23324639D01*
X80675000Y23325000D01*
X80825000Y23325000D01*
X80832351Y23324639D01*
G37*
G36*
X80332351Y23324639D02*
G01*
X80339632Y23323559D01*
X80346771Y23321771D01*
X80353701Y23319291D01*
X80360355Y23316144D01*
X80366668Y23312360D01*
X80372579Y23307976D01*
X80378033Y23303033D01*
X80382976Y23297579D01*
X80387360Y23291668D01*
X80391144Y23285355D01*
X80394291Y23278701D01*
X80396771Y23271771D01*
X80398559Y23264632D01*
X80399639Y23257351D01*
X80400000Y23250000D01*
X80400000Y21925000D01*
X80399639Y21917649D01*
X80398559Y21910368D01*
X80396771Y21903229D01*
X80394291Y21896299D01*
X80391144Y21889645D01*
X80387360Y21883332D01*
X80382976Y21877421D01*
X80378033Y21871967D01*
X80372579Y21867024D01*
X80366668Y21862640D01*
X80360355Y21858856D01*
X80353701Y21855709D01*
X80346771Y21853229D01*
X80339632Y21851441D01*
X80332351Y21850361D01*
X80325000Y21850000D01*
X80175000Y21850000D01*
X80167649Y21850361D01*
X80160368Y21851441D01*
X80153229Y21853229D01*
X80146299Y21855709D01*
X80139645Y21858856D01*
X80133332Y21862640D01*
X80127421Y21867024D01*
X80121967Y21871967D01*
X80117024Y21877421D01*
X80112640Y21883332D01*
X80108856Y21889645D01*
X80105709Y21896299D01*
X80103229Y21903229D01*
X80101441Y21910368D01*
X80100361Y21917649D01*
X80100000Y21925000D01*
X80100000Y23250000D01*
X80100361Y23257351D01*
X80101441Y23264632D01*
X80103229Y23271771D01*
X80105709Y23278701D01*
X80108856Y23285355D01*
X80112640Y23291668D01*
X80117024Y23297579D01*
X80121967Y23303033D01*
X80127421Y23307976D01*
X80133332Y23312360D01*
X80139645Y23316144D01*
X80146299Y23319291D01*
X80153229Y23321771D01*
X80160368Y23323559D01*
X80167649Y23324639D01*
X80175000Y23325000D01*
X80325000Y23325000D01*
X80332351Y23324639D01*
G37*
G36*
X79832351Y23324639D02*
G01*
X79839632Y23323559D01*
X79846771Y23321771D01*
X79853701Y23319291D01*
X79860355Y23316144D01*
X79866668Y23312360D01*
X79872579Y23307976D01*
X79878033Y23303033D01*
X79882976Y23297579D01*
X79887360Y23291668D01*
X79891144Y23285355D01*
X79894291Y23278701D01*
X79896771Y23271771D01*
X79898559Y23264632D01*
X79899639Y23257351D01*
X79900000Y23250000D01*
X79900000Y21925000D01*
X79899639Y21917649D01*
X79898559Y21910368D01*
X79896771Y21903229D01*
X79894291Y21896299D01*
X79891144Y21889645D01*
X79887360Y21883332D01*
X79882976Y21877421D01*
X79878033Y21871967D01*
X79872579Y21867024D01*
X79866668Y21862640D01*
X79860355Y21858856D01*
X79853701Y21855709D01*
X79846771Y21853229D01*
X79839632Y21851441D01*
X79832351Y21850361D01*
X79825000Y21850000D01*
X79675000Y21850000D01*
X79667649Y21850361D01*
X79660368Y21851441D01*
X79653229Y21853229D01*
X79646299Y21855709D01*
X79639645Y21858856D01*
X79633332Y21862640D01*
X79627421Y21867024D01*
X79621967Y21871967D01*
X79617024Y21877421D01*
X79612640Y21883332D01*
X79608856Y21889645D01*
X79605709Y21896299D01*
X79603229Y21903229D01*
X79601441Y21910368D01*
X79600361Y21917649D01*
X79600000Y21925000D01*
X79600000Y23250000D01*
X79600361Y23257351D01*
X79601441Y23264632D01*
X79603229Y23271771D01*
X79605709Y23278701D01*
X79608856Y23285355D01*
X79612640Y23291668D01*
X79617024Y23297579D01*
X79621967Y23303033D01*
X79627421Y23307976D01*
X79633332Y23312360D01*
X79639645Y23316144D01*
X79646299Y23319291D01*
X79653229Y23321771D01*
X79660368Y23323559D01*
X79667649Y23324639D01*
X79675000Y23325000D01*
X79825000Y23325000D01*
X79832351Y23324639D01*
G37*
G36*
X79332351Y23324639D02*
G01*
X79339632Y23323559D01*
X79346771Y23321771D01*
X79353701Y23319291D01*
X79360355Y23316144D01*
X79366668Y23312360D01*
X79372579Y23307976D01*
X79378033Y23303033D01*
X79382976Y23297579D01*
X79387360Y23291668D01*
X79391144Y23285355D01*
X79394291Y23278701D01*
X79396771Y23271771D01*
X79398559Y23264632D01*
X79399639Y23257351D01*
X79400000Y23250000D01*
X79400000Y21925000D01*
X79399639Y21917649D01*
X79398559Y21910368D01*
X79396771Y21903229D01*
X79394291Y21896299D01*
X79391144Y21889645D01*
X79387360Y21883332D01*
X79382976Y21877421D01*
X79378033Y21871967D01*
X79372579Y21867024D01*
X79366668Y21862640D01*
X79360355Y21858856D01*
X79353701Y21855709D01*
X79346771Y21853229D01*
X79339632Y21851441D01*
X79332351Y21850361D01*
X79325000Y21850000D01*
X79175000Y21850000D01*
X79167649Y21850361D01*
X79160368Y21851441D01*
X79153229Y21853229D01*
X79146299Y21855709D01*
X79139645Y21858856D01*
X79133332Y21862640D01*
X79127421Y21867024D01*
X79121967Y21871967D01*
X79117024Y21877421D01*
X79112640Y21883332D01*
X79108856Y21889645D01*
X79105709Y21896299D01*
X79103229Y21903229D01*
X79101441Y21910368D01*
X79100361Y21917649D01*
X79100000Y21925000D01*
X79100000Y23250000D01*
X79100361Y23257351D01*
X79101441Y23264632D01*
X79103229Y23271771D01*
X79105709Y23278701D01*
X79108856Y23285355D01*
X79112640Y23291668D01*
X79117024Y23297579D01*
X79121967Y23303033D01*
X79127421Y23307976D01*
X79133332Y23312360D01*
X79139645Y23316144D01*
X79146299Y23319291D01*
X79153229Y23321771D01*
X79160368Y23323559D01*
X79167649Y23324639D01*
X79175000Y23325000D01*
X79325000Y23325000D01*
X79332351Y23324639D01*
G37*
G36*
X78832351Y23324639D02*
G01*
X78839632Y23323559D01*
X78846771Y23321771D01*
X78853701Y23319291D01*
X78860355Y23316144D01*
X78866668Y23312360D01*
X78872579Y23307976D01*
X78878033Y23303033D01*
X78882976Y23297579D01*
X78887360Y23291668D01*
X78891144Y23285355D01*
X78894291Y23278701D01*
X78896771Y23271771D01*
X78898559Y23264632D01*
X78899639Y23257351D01*
X78900000Y23250000D01*
X78900000Y21925000D01*
X78899639Y21917649D01*
X78898559Y21910368D01*
X78896771Y21903229D01*
X78894291Y21896299D01*
X78891144Y21889645D01*
X78887360Y21883332D01*
X78882976Y21877421D01*
X78878033Y21871967D01*
X78872579Y21867024D01*
X78866668Y21862640D01*
X78860355Y21858856D01*
X78853701Y21855709D01*
X78846771Y21853229D01*
X78839632Y21851441D01*
X78832351Y21850361D01*
X78825000Y21850000D01*
X78675000Y21850000D01*
X78667649Y21850361D01*
X78660368Y21851441D01*
X78653229Y21853229D01*
X78646299Y21855709D01*
X78639645Y21858856D01*
X78633332Y21862640D01*
X78627421Y21867024D01*
X78621967Y21871967D01*
X78617024Y21877421D01*
X78612640Y21883332D01*
X78608856Y21889645D01*
X78605709Y21896299D01*
X78603229Y21903229D01*
X78601441Y21910368D01*
X78600361Y21917649D01*
X78600000Y21925000D01*
X78600000Y23250000D01*
X78600361Y23257351D01*
X78601441Y23264632D01*
X78603229Y23271771D01*
X78605709Y23278701D01*
X78608856Y23285355D01*
X78612640Y23291668D01*
X78617024Y23297579D01*
X78621967Y23303033D01*
X78627421Y23307976D01*
X78633332Y23312360D01*
X78639645Y23316144D01*
X78646299Y23319291D01*
X78653229Y23321771D01*
X78660368Y23323559D01*
X78667649Y23324639D01*
X78675000Y23325000D01*
X78825000Y23325000D01*
X78832351Y23324639D01*
G37*
G36*
X78007351Y24149639D02*
G01*
X78014632Y24148559D01*
X78021771Y24146771D01*
X78028701Y24144291D01*
X78035355Y24141144D01*
X78041668Y24137360D01*
X78047579Y24132976D01*
X78053033Y24128033D01*
X78057976Y24122579D01*
X78062360Y24116668D01*
X78066144Y24110355D01*
X78069291Y24103701D01*
X78071771Y24096771D01*
X78073559Y24089632D01*
X78074639Y24082351D01*
X78075000Y24075000D01*
X78075000Y23925000D01*
X78074639Y23917649D01*
X78073559Y23910368D01*
X78071771Y23903229D01*
X78069291Y23896299D01*
X78066144Y23889645D01*
X78062360Y23883332D01*
X78057976Y23877421D01*
X78053033Y23871967D01*
X78047579Y23867024D01*
X78041668Y23862640D01*
X78035355Y23858856D01*
X78028701Y23855709D01*
X78021771Y23853229D01*
X78014632Y23851441D01*
X78007351Y23850361D01*
X78000000Y23850000D01*
X76675000Y23850000D01*
X76667649Y23850361D01*
X76660368Y23851441D01*
X76653229Y23853229D01*
X76646299Y23855709D01*
X76639645Y23858856D01*
X76633332Y23862640D01*
X76627421Y23867024D01*
X76621967Y23871967D01*
X76617024Y23877421D01*
X76612640Y23883332D01*
X76608856Y23889645D01*
X76605709Y23896299D01*
X76603229Y23903229D01*
X76601441Y23910368D01*
X76600361Y23917649D01*
X76600000Y23925000D01*
X76600000Y24075000D01*
X76600361Y24082351D01*
X76601441Y24089632D01*
X76603229Y24096771D01*
X76605709Y24103701D01*
X76608856Y24110355D01*
X76612640Y24116668D01*
X76617024Y24122579D01*
X76621967Y24128033D01*
X76627421Y24132976D01*
X76633332Y24137360D01*
X76639645Y24141144D01*
X76646299Y24144291D01*
X76653229Y24146771D01*
X76660368Y24148559D01*
X76667649Y24149639D01*
X76675000Y24150000D01*
X78000000Y24150000D01*
X78007351Y24149639D01*
G37*
G36*
X78007351Y24649639D02*
G01*
X78014632Y24648559D01*
X78021771Y24646771D01*
X78028701Y24644291D01*
X78035355Y24641144D01*
X78041668Y24637360D01*
X78047579Y24632976D01*
X78053033Y24628033D01*
X78057976Y24622579D01*
X78062360Y24616668D01*
X78066144Y24610355D01*
X78069291Y24603701D01*
X78071771Y24596771D01*
X78073559Y24589632D01*
X78074639Y24582351D01*
X78075000Y24575000D01*
X78075000Y24425000D01*
X78074639Y24417649D01*
X78073559Y24410368D01*
X78071771Y24403229D01*
X78069291Y24396299D01*
X78066144Y24389645D01*
X78062360Y24383332D01*
X78057976Y24377421D01*
X78053033Y24371967D01*
X78047579Y24367024D01*
X78041668Y24362640D01*
X78035355Y24358856D01*
X78028701Y24355709D01*
X78021771Y24353229D01*
X78014632Y24351441D01*
X78007351Y24350361D01*
X78000000Y24350000D01*
X76675000Y24350000D01*
X76667649Y24350361D01*
X76660368Y24351441D01*
X76653229Y24353229D01*
X76646299Y24355709D01*
X76639645Y24358856D01*
X76633332Y24362640D01*
X76627421Y24367024D01*
X76621967Y24371967D01*
X76617024Y24377421D01*
X76612640Y24383332D01*
X76608856Y24389645D01*
X76605709Y24396299D01*
X76603229Y24403229D01*
X76601441Y24410368D01*
X76600361Y24417649D01*
X76600000Y24425000D01*
X76600000Y24575000D01*
X76600361Y24582351D01*
X76601441Y24589632D01*
X76603229Y24596771D01*
X76605709Y24603701D01*
X76608856Y24610355D01*
X76612640Y24616668D01*
X76617024Y24622579D01*
X76621967Y24628033D01*
X76627421Y24632976D01*
X76633332Y24637360D01*
X76639645Y24641144D01*
X76646299Y24644291D01*
X76653229Y24646771D01*
X76660368Y24648559D01*
X76667649Y24649639D01*
X76675000Y24650000D01*
X78000000Y24650000D01*
X78007351Y24649639D01*
G37*
G36*
X78007351Y25149639D02*
G01*
X78014632Y25148559D01*
X78021771Y25146771D01*
X78028701Y25144291D01*
X78035355Y25141144D01*
X78041668Y25137360D01*
X78047579Y25132976D01*
X78053033Y25128033D01*
X78057976Y25122579D01*
X78062360Y25116668D01*
X78066144Y25110355D01*
X78069291Y25103701D01*
X78071771Y25096771D01*
X78073559Y25089632D01*
X78074639Y25082351D01*
X78075000Y25075000D01*
X78075000Y24925000D01*
X78074639Y24917649D01*
X78073559Y24910368D01*
X78071771Y24903229D01*
X78069291Y24896299D01*
X78066144Y24889645D01*
X78062360Y24883332D01*
X78057976Y24877421D01*
X78053033Y24871967D01*
X78047579Y24867024D01*
X78041668Y24862640D01*
X78035355Y24858856D01*
X78028701Y24855709D01*
X78021771Y24853229D01*
X78014632Y24851441D01*
X78007351Y24850361D01*
X78000000Y24850000D01*
X76675000Y24850000D01*
X76667649Y24850361D01*
X76660368Y24851441D01*
X76653229Y24853229D01*
X76646299Y24855709D01*
X76639645Y24858856D01*
X76633332Y24862640D01*
X76627421Y24867024D01*
X76621967Y24871967D01*
X76617024Y24877421D01*
X76612640Y24883332D01*
X76608856Y24889645D01*
X76605709Y24896299D01*
X76603229Y24903229D01*
X76601441Y24910368D01*
X76600361Y24917649D01*
X76600000Y24925000D01*
X76600000Y25075000D01*
X76600361Y25082351D01*
X76601441Y25089632D01*
X76603229Y25096771D01*
X76605709Y25103701D01*
X76608856Y25110355D01*
X76612640Y25116668D01*
X76617024Y25122579D01*
X76621967Y25128033D01*
X76627421Y25132976D01*
X76633332Y25137360D01*
X76639645Y25141144D01*
X76646299Y25144291D01*
X76653229Y25146771D01*
X76660368Y25148559D01*
X76667649Y25149639D01*
X76675000Y25150000D01*
X78000000Y25150000D01*
X78007351Y25149639D01*
G37*
G36*
X78007351Y25649639D02*
G01*
X78014632Y25648559D01*
X78021771Y25646771D01*
X78028701Y25644291D01*
X78035355Y25641144D01*
X78041668Y25637360D01*
X78047579Y25632976D01*
X78053033Y25628033D01*
X78057976Y25622579D01*
X78062360Y25616668D01*
X78066144Y25610355D01*
X78069291Y25603701D01*
X78071771Y25596771D01*
X78073559Y25589632D01*
X78074639Y25582351D01*
X78075000Y25575000D01*
X78075000Y25425000D01*
X78074639Y25417649D01*
X78073559Y25410368D01*
X78071771Y25403229D01*
X78069291Y25396299D01*
X78066144Y25389645D01*
X78062360Y25383332D01*
X78057976Y25377421D01*
X78053033Y25371967D01*
X78047579Y25367024D01*
X78041668Y25362640D01*
X78035355Y25358856D01*
X78028701Y25355709D01*
X78021771Y25353229D01*
X78014632Y25351441D01*
X78007351Y25350361D01*
X78000000Y25350000D01*
X76675000Y25350000D01*
X76667649Y25350361D01*
X76660368Y25351441D01*
X76653229Y25353229D01*
X76646299Y25355709D01*
X76639645Y25358856D01*
X76633332Y25362640D01*
X76627421Y25367024D01*
X76621967Y25371967D01*
X76617024Y25377421D01*
X76612640Y25383332D01*
X76608856Y25389645D01*
X76605709Y25396299D01*
X76603229Y25403229D01*
X76601441Y25410368D01*
X76600361Y25417649D01*
X76600000Y25425000D01*
X76600000Y25575000D01*
X76600361Y25582351D01*
X76601441Y25589632D01*
X76603229Y25596771D01*
X76605709Y25603701D01*
X76608856Y25610355D01*
X76612640Y25616668D01*
X76617024Y25622579D01*
X76621967Y25628033D01*
X76627421Y25632976D01*
X76633332Y25637360D01*
X76639645Y25641144D01*
X76646299Y25644291D01*
X76653229Y25646771D01*
X76660368Y25648559D01*
X76667649Y25649639D01*
X76675000Y25650000D01*
X78000000Y25650000D01*
X78007351Y25649639D01*
G37*
G36*
X78007351Y26149639D02*
G01*
X78014632Y26148559D01*
X78021771Y26146771D01*
X78028701Y26144291D01*
X78035355Y26141144D01*
X78041668Y26137360D01*
X78047579Y26132976D01*
X78053033Y26128033D01*
X78057976Y26122579D01*
X78062360Y26116668D01*
X78066144Y26110355D01*
X78069291Y26103701D01*
X78071771Y26096771D01*
X78073559Y26089632D01*
X78074639Y26082351D01*
X78075000Y26075000D01*
X78075000Y25925000D01*
X78074639Y25917649D01*
X78073559Y25910368D01*
X78071771Y25903229D01*
X78069291Y25896299D01*
X78066144Y25889645D01*
X78062360Y25883332D01*
X78057976Y25877421D01*
X78053033Y25871967D01*
X78047579Y25867024D01*
X78041668Y25862640D01*
X78035355Y25858856D01*
X78028701Y25855709D01*
X78021771Y25853229D01*
X78014632Y25851441D01*
X78007351Y25850361D01*
X78000000Y25850000D01*
X76675000Y25850000D01*
X76667649Y25850361D01*
X76660368Y25851441D01*
X76653229Y25853229D01*
X76646299Y25855709D01*
X76639645Y25858856D01*
X76633332Y25862640D01*
X76627421Y25867024D01*
X76621967Y25871967D01*
X76617024Y25877421D01*
X76612640Y25883332D01*
X76608856Y25889645D01*
X76605709Y25896299D01*
X76603229Y25903229D01*
X76601441Y25910368D01*
X76600361Y25917649D01*
X76600000Y25925000D01*
X76600000Y26075000D01*
X76600361Y26082351D01*
X76601441Y26089632D01*
X76603229Y26096771D01*
X76605709Y26103701D01*
X76608856Y26110355D01*
X76612640Y26116668D01*
X76617024Y26122579D01*
X76621967Y26128033D01*
X76627421Y26132976D01*
X76633332Y26137360D01*
X76639645Y26141144D01*
X76646299Y26144291D01*
X76653229Y26146771D01*
X76660368Y26148559D01*
X76667649Y26149639D01*
X76675000Y26150000D01*
X78000000Y26150000D01*
X78007351Y26149639D01*
G37*
G36*
X78007351Y26649639D02*
G01*
X78014632Y26648559D01*
X78021771Y26646771D01*
X78028701Y26644291D01*
X78035355Y26641144D01*
X78041668Y26637360D01*
X78047579Y26632976D01*
X78053033Y26628033D01*
X78057976Y26622579D01*
X78062360Y26616668D01*
X78066144Y26610355D01*
X78069291Y26603701D01*
X78071771Y26596771D01*
X78073559Y26589632D01*
X78074639Y26582351D01*
X78075000Y26575000D01*
X78075000Y26425000D01*
X78074639Y26417649D01*
X78073559Y26410368D01*
X78071771Y26403229D01*
X78069291Y26396299D01*
X78066144Y26389645D01*
X78062360Y26383332D01*
X78057976Y26377421D01*
X78053033Y26371967D01*
X78047579Y26367024D01*
X78041668Y26362640D01*
X78035355Y26358856D01*
X78028701Y26355709D01*
X78021771Y26353229D01*
X78014632Y26351441D01*
X78007351Y26350361D01*
X78000000Y26350000D01*
X76675000Y26350000D01*
X76667649Y26350361D01*
X76660368Y26351441D01*
X76653229Y26353229D01*
X76646299Y26355709D01*
X76639645Y26358856D01*
X76633332Y26362640D01*
X76627421Y26367024D01*
X76621967Y26371967D01*
X76617024Y26377421D01*
X76612640Y26383332D01*
X76608856Y26389645D01*
X76605709Y26396299D01*
X76603229Y26403229D01*
X76601441Y26410368D01*
X76600361Y26417649D01*
X76600000Y26425000D01*
X76600000Y26575000D01*
X76600361Y26582351D01*
X76601441Y26589632D01*
X76603229Y26596771D01*
X76605709Y26603701D01*
X76608856Y26610355D01*
X76612640Y26616668D01*
X76617024Y26622579D01*
X76621967Y26628033D01*
X76627421Y26632976D01*
X76633332Y26637360D01*
X76639645Y26641144D01*
X76646299Y26644291D01*
X76653229Y26646771D01*
X76660368Y26648559D01*
X76667649Y26649639D01*
X76675000Y26650000D01*
X78000000Y26650000D01*
X78007351Y26649639D01*
G37*
G36*
X78007351Y27149639D02*
G01*
X78014632Y27148559D01*
X78021771Y27146771D01*
X78028701Y27144291D01*
X78035355Y27141144D01*
X78041668Y27137360D01*
X78047579Y27132976D01*
X78053033Y27128033D01*
X78057976Y27122579D01*
X78062360Y27116668D01*
X78066144Y27110355D01*
X78069291Y27103701D01*
X78071771Y27096771D01*
X78073559Y27089632D01*
X78074639Y27082351D01*
X78075000Y27075000D01*
X78075000Y26925000D01*
X78074639Y26917649D01*
X78073559Y26910368D01*
X78071771Y26903229D01*
X78069291Y26896299D01*
X78066144Y26889645D01*
X78062360Y26883332D01*
X78057976Y26877421D01*
X78053033Y26871967D01*
X78047579Y26867024D01*
X78041668Y26862640D01*
X78035355Y26858856D01*
X78028701Y26855709D01*
X78021771Y26853229D01*
X78014632Y26851441D01*
X78007351Y26850361D01*
X78000000Y26850000D01*
X76675000Y26850000D01*
X76667649Y26850361D01*
X76660368Y26851441D01*
X76653229Y26853229D01*
X76646299Y26855709D01*
X76639645Y26858856D01*
X76633332Y26862640D01*
X76627421Y26867024D01*
X76621967Y26871967D01*
X76617024Y26877421D01*
X76612640Y26883332D01*
X76608856Y26889645D01*
X76605709Y26896299D01*
X76603229Y26903229D01*
X76601441Y26910368D01*
X76600361Y26917649D01*
X76600000Y26925000D01*
X76600000Y27075000D01*
X76600361Y27082351D01*
X76601441Y27089632D01*
X76603229Y27096771D01*
X76605709Y27103701D01*
X76608856Y27110355D01*
X76612640Y27116668D01*
X76617024Y27122579D01*
X76621967Y27128033D01*
X76627421Y27132976D01*
X76633332Y27137360D01*
X76639645Y27141144D01*
X76646299Y27144291D01*
X76653229Y27146771D01*
X76660368Y27148559D01*
X76667649Y27149639D01*
X76675000Y27150000D01*
X78000000Y27150000D01*
X78007351Y27149639D01*
G37*
G36*
X78007351Y27649639D02*
G01*
X78014632Y27648559D01*
X78021771Y27646771D01*
X78028701Y27644291D01*
X78035355Y27641144D01*
X78041668Y27637360D01*
X78047579Y27632976D01*
X78053033Y27628033D01*
X78057976Y27622579D01*
X78062360Y27616668D01*
X78066144Y27610355D01*
X78069291Y27603701D01*
X78071771Y27596771D01*
X78073559Y27589632D01*
X78074639Y27582351D01*
X78075000Y27575000D01*
X78075000Y27425000D01*
X78074639Y27417649D01*
X78073559Y27410368D01*
X78071771Y27403229D01*
X78069291Y27396299D01*
X78066144Y27389645D01*
X78062360Y27383332D01*
X78057976Y27377421D01*
X78053033Y27371967D01*
X78047579Y27367024D01*
X78041668Y27362640D01*
X78035355Y27358856D01*
X78028701Y27355709D01*
X78021771Y27353229D01*
X78014632Y27351441D01*
X78007351Y27350361D01*
X78000000Y27350000D01*
X76675000Y27350000D01*
X76667649Y27350361D01*
X76660368Y27351441D01*
X76653229Y27353229D01*
X76646299Y27355709D01*
X76639645Y27358856D01*
X76633332Y27362640D01*
X76627421Y27367024D01*
X76621967Y27371967D01*
X76617024Y27377421D01*
X76612640Y27383332D01*
X76608856Y27389645D01*
X76605709Y27396299D01*
X76603229Y27403229D01*
X76601441Y27410368D01*
X76600361Y27417649D01*
X76600000Y27425000D01*
X76600000Y27575000D01*
X76600361Y27582351D01*
X76601441Y27589632D01*
X76603229Y27596771D01*
X76605709Y27603701D01*
X76608856Y27610355D01*
X76612640Y27616668D01*
X76617024Y27622579D01*
X76621967Y27628033D01*
X76627421Y27632976D01*
X76633332Y27637360D01*
X76639645Y27641144D01*
X76646299Y27644291D01*
X76653229Y27646771D01*
X76660368Y27648559D01*
X76667649Y27649639D01*
X76675000Y27650000D01*
X78000000Y27650000D01*
X78007351Y27649639D01*
G37*
G36*
X78007351Y28149639D02*
G01*
X78014632Y28148559D01*
X78021771Y28146771D01*
X78028701Y28144291D01*
X78035355Y28141144D01*
X78041668Y28137360D01*
X78047579Y28132976D01*
X78053033Y28128033D01*
X78057976Y28122579D01*
X78062360Y28116668D01*
X78066144Y28110355D01*
X78069291Y28103701D01*
X78071771Y28096771D01*
X78073559Y28089632D01*
X78074639Y28082351D01*
X78075000Y28075000D01*
X78075000Y27925000D01*
X78074639Y27917649D01*
X78073559Y27910368D01*
X78071771Y27903229D01*
X78069291Y27896299D01*
X78066144Y27889645D01*
X78062360Y27883332D01*
X78057976Y27877421D01*
X78053033Y27871967D01*
X78047579Y27867024D01*
X78041668Y27862640D01*
X78035355Y27858856D01*
X78028701Y27855709D01*
X78021771Y27853229D01*
X78014632Y27851441D01*
X78007351Y27850361D01*
X78000000Y27850000D01*
X76675000Y27850000D01*
X76667649Y27850361D01*
X76660368Y27851441D01*
X76653229Y27853229D01*
X76646299Y27855709D01*
X76639645Y27858856D01*
X76633332Y27862640D01*
X76627421Y27867024D01*
X76621967Y27871967D01*
X76617024Y27877421D01*
X76612640Y27883332D01*
X76608856Y27889645D01*
X76605709Y27896299D01*
X76603229Y27903229D01*
X76601441Y27910368D01*
X76600361Y27917649D01*
X76600000Y27925000D01*
X76600000Y28075000D01*
X76600361Y28082351D01*
X76601441Y28089632D01*
X76603229Y28096771D01*
X76605709Y28103701D01*
X76608856Y28110355D01*
X76612640Y28116668D01*
X76617024Y28122579D01*
X76621967Y28128033D01*
X76627421Y28132976D01*
X76633332Y28137360D01*
X76639645Y28141144D01*
X76646299Y28144291D01*
X76653229Y28146771D01*
X76660368Y28148559D01*
X76667649Y28149639D01*
X76675000Y28150000D01*
X78000000Y28150000D01*
X78007351Y28149639D01*
G37*
G36*
X78007351Y28649639D02*
G01*
X78014632Y28648559D01*
X78021771Y28646771D01*
X78028701Y28644291D01*
X78035355Y28641144D01*
X78041668Y28637360D01*
X78047579Y28632976D01*
X78053033Y28628033D01*
X78057976Y28622579D01*
X78062360Y28616668D01*
X78066144Y28610355D01*
X78069291Y28603701D01*
X78071771Y28596771D01*
X78073559Y28589632D01*
X78074639Y28582351D01*
X78075000Y28575000D01*
X78075000Y28425000D01*
X78074639Y28417649D01*
X78073559Y28410368D01*
X78071771Y28403229D01*
X78069291Y28396299D01*
X78066144Y28389645D01*
X78062360Y28383332D01*
X78057976Y28377421D01*
X78053033Y28371967D01*
X78047579Y28367024D01*
X78041668Y28362640D01*
X78035355Y28358856D01*
X78028701Y28355709D01*
X78021771Y28353229D01*
X78014632Y28351441D01*
X78007351Y28350361D01*
X78000000Y28350000D01*
X76675000Y28350000D01*
X76667649Y28350361D01*
X76660368Y28351441D01*
X76653229Y28353229D01*
X76646299Y28355709D01*
X76639645Y28358856D01*
X76633332Y28362640D01*
X76627421Y28367024D01*
X76621967Y28371967D01*
X76617024Y28377421D01*
X76612640Y28383332D01*
X76608856Y28389645D01*
X76605709Y28396299D01*
X76603229Y28403229D01*
X76601441Y28410368D01*
X76600361Y28417649D01*
X76600000Y28425000D01*
X76600000Y28575000D01*
X76600361Y28582351D01*
X76601441Y28589632D01*
X76603229Y28596771D01*
X76605709Y28603701D01*
X76608856Y28610355D01*
X76612640Y28616668D01*
X76617024Y28622579D01*
X76621967Y28628033D01*
X76627421Y28632976D01*
X76633332Y28637360D01*
X76639645Y28641144D01*
X76646299Y28644291D01*
X76653229Y28646771D01*
X76660368Y28648559D01*
X76667649Y28649639D01*
X76675000Y28650000D01*
X78000000Y28650000D01*
X78007351Y28649639D01*
G37*
G36*
X78007351Y29149639D02*
G01*
X78014632Y29148559D01*
X78021771Y29146771D01*
X78028701Y29144291D01*
X78035355Y29141144D01*
X78041668Y29137360D01*
X78047579Y29132976D01*
X78053033Y29128033D01*
X78057976Y29122579D01*
X78062360Y29116668D01*
X78066144Y29110355D01*
X78069291Y29103701D01*
X78071771Y29096771D01*
X78073559Y29089632D01*
X78074639Y29082351D01*
X78075000Y29075000D01*
X78075000Y28925000D01*
X78074639Y28917649D01*
X78073559Y28910368D01*
X78071771Y28903229D01*
X78069291Y28896299D01*
X78066144Y28889645D01*
X78062360Y28883332D01*
X78057976Y28877421D01*
X78053033Y28871967D01*
X78047579Y28867024D01*
X78041668Y28862640D01*
X78035355Y28858856D01*
X78028701Y28855709D01*
X78021771Y28853229D01*
X78014632Y28851441D01*
X78007351Y28850361D01*
X78000000Y28850000D01*
X76675000Y28850000D01*
X76667649Y28850361D01*
X76660368Y28851441D01*
X76653229Y28853229D01*
X76646299Y28855709D01*
X76639645Y28858856D01*
X76633332Y28862640D01*
X76627421Y28867024D01*
X76621967Y28871967D01*
X76617024Y28877421D01*
X76612640Y28883332D01*
X76608856Y28889645D01*
X76605709Y28896299D01*
X76603229Y28903229D01*
X76601441Y28910368D01*
X76600361Y28917649D01*
X76600000Y28925000D01*
X76600000Y29075000D01*
X76600361Y29082351D01*
X76601441Y29089632D01*
X76603229Y29096771D01*
X76605709Y29103701D01*
X76608856Y29110355D01*
X76612640Y29116668D01*
X76617024Y29122579D01*
X76621967Y29128033D01*
X76627421Y29132976D01*
X76633332Y29137360D01*
X76639645Y29141144D01*
X76646299Y29144291D01*
X76653229Y29146771D01*
X76660368Y29148559D01*
X76667649Y29149639D01*
X76675000Y29150000D01*
X78000000Y29150000D01*
X78007351Y29149639D01*
G37*
G36*
X78007351Y29649639D02*
G01*
X78014632Y29648559D01*
X78021771Y29646771D01*
X78028701Y29644291D01*
X78035355Y29641144D01*
X78041668Y29637360D01*
X78047579Y29632976D01*
X78053033Y29628033D01*
X78057976Y29622579D01*
X78062360Y29616668D01*
X78066144Y29610355D01*
X78069291Y29603701D01*
X78071771Y29596771D01*
X78073559Y29589632D01*
X78074639Y29582351D01*
X78075000Y29575000D01*
X78075000Y29425000D01*
X78074639Y29417649D01*
X78073559Y29410368D01*
X78071771Y29403229D01*
X78069291Y29396299D01*
X78066144Y29389645D01*
X78062360Y29383332D01*
X78057976Y29377421D01*
X78053033Y29371967D01*
X78047579Y29367024D01*
X78041668Y29362640D01*
X78035355Y29358856D01*
X78028701Y29355709D01*
X78021771Y29353229D01*
X78014632Y29351441D01*
X78007351Y29350361D01*
X78000000Y29350000D01*
X76675000Y29350000D01*
X76667649Y29350361D01*
X76660368Y29351441D01*
X76653229Y29353229D01*
X76646299Y29355709D01*
X76639645Y29358856D01*
X76633332Y29362640D01*
X76627421Y29367024D01*
X76621967Y29371967D01*
X76617024Y29377421D01*
X76612640Y29383332D01*
X76608856Y29389645D01*
X76605709Y29396299D01*
X76603229Y29403229D01*
X76601441Y29410368D01*
X76600361Y29417649D01*
X76600000Y29425000D01*
X76600000Y29575000D01*
X76600361Y29582351D01*
X76601441Y29589632D01*
X76603229Y29596771D01*
X76605709Y29603701D01*
X76608856Y29610355D01*
X76612640Y29616668D01*
X76617024Y29622579D01*
X76621967Y29628033D01*
X76627421Y29632976D01*
X76633332Y29637360D01*
X76639645Y29641144D01*
X76646299Y29644291D01*
X76653229Y29646771D01*
X76660368Y29648559D01*
X76667649Y29649639D01*
X76675000Y29650000D01*
X78000000Y29650000D01*
X78007351Y29649639D01*
G37*
G36*
X78832351Y31649639D02*
G01*
X78839632Y31648559D01*
X78846771Y31646771D01*
X78853701Y31644291D01*
X78860355Y31641144D01*
X78866668Y31637360D01*
X78872579Y31632976D01*
X78878033Y31628033D01*
X78882976Y31622579D01*
X78887360Y31616668D01*
X78891144Y31610355D01*
X78894291Y31603701D01*
X78896771Y31596771D01*
X78898559Y31589632D01*
X78899639Y31582351D01*
X78900000Y31575000D01*
X78900000Y30250000D01*
X78899639Y30242649D01*
X78898559Y30235368D01*
X78896771Y30228229D01*
X78894291Y30221299D01*
X78891144Y30214645D01*
X78887360Y30208332D01*
X78882976Y30202421D01*
X78878033Y30196967D01*
X78872579Y30192024D01*
X78866668Y30187640D01*
X78860355Y30183856D01*
X78853701Y30180709D01*
X78846771Y30178229D01*
X78839632Y30176441D01*
X78832351Y30175361D01*
X78825000Y30175000D01*
X78675000Y30175000D01*
X78667649Y30175361D01*
X78660368Y30176441D01*
X78653229Y30178229D01*
X78646299Y30180709D01*
X78639645Y30183856D01*
X78633332Y30187640D01*
X78627421Y30192024D01*
X78621967Y30196967D01*
X78617024Y30202421D01*
X78612640Y30208332D01*
X78608856Y30214645D01*
X78605709Y30221299D01*
X78603229Y30228229D01*
X78601441Y30235368D01*
X78600361Y30242649D01*
X78600000Y30250000D01*
X78600000Y31575000D01*
X78600361Y31582351D01*
X78601441Y31589632D01*
X78603229Y31596771D01*
X78605709Y31603701D01*
X78608856Y31610355D01*
X78612640Y31616668D01*
X78617024Y31622579D01*
X78621967Y31628033D01*
X78627421Y31632976D01*
X78633332Y31637360D01*
X78639645Y31641144D01*
X78646299Y31644291D01*
X78653229Y31646771D01*
X78660368Y31648559D01*
X78667649Y31649639D01*
X78675000Y31650000D01*
X78825000Y31650000D01*
X78832351Y31649639D01*
G37*
G36*
X79332351Y31649639D02*
G01*
X79339632Y31648559D01*
X79346771Y31646771D01*
X79353701Y31644291D01*
X79360355Y31641144D01*
X79366668Y31637360D01*
X79372579Y31632976D01*
X79378033Y31628033D01*
X79382976Y31622579D01*
X79387360Y31616668D01*
X79391144Y31610355D01*
X79394291Y31603701D01*
X79396771Y31596771D01*
X79398559Y31589632D01*
X79399639Y31582351D01*
X79400000Y31575000D01*
X79400000Y30250000D01*
X79399639Y30242649D01*
X79398559Y30235368D01*
X79396771Y30228229D01*
X79394291Y30221299D01*
X79391144Y30214645D01*
X79387360Y30208332D01*
X79382976Y30202421D01*
X79378033Y30196967D01*
X79372579Y30192024D01*
X79366668Y30187640D01*
X79360355Y30183856D01*
X79353701Y30180709D01*
X79346771Y30178229D01*
X79339632Y30176441D01*
X79332351Y30175361D01*
X79325000Y30175000D01*
X79175000Y30175000D01*
X79167649Y30175361D01*
X79160368Y30176441D01*
X79153229Y30178229D01*
X79146299Y30180709D01*
X79139645Y30183856D01*
X79133332Y30187640D01*
X79127421Y30192024D01*
X79121967Y30196967D01*
X79117024Y30202421D01*
X79112640Y30208332D01*
X79108856Y30214645D01*
X79105709Y30221299D01*
X79103229Y30228229D01*
X79101441Y30235368D01*
X79100361Y30242649D01*
X79100000Y30250000D01*
X79100000Y31575000D01*
X79100361Y31582351D01*
X79101441Y31589632D01*
X79103229Y31596771D01*
X79105709Y31603701D01*
X79108856Y31610355D01*
X79112640Y31616668D01*
X79117024Y31622579D01*
X79121967Y31628033D01*
X79127421Y31632976D01*
X79133332Y31637360D01*
X79139645Y31641144D01*
X79146299Y31644291D01*
X79153229Y31646771D01*
X79160368Y31648559D01*
X79167649Y31649639D01*
X79175000Y31650000D01*
X79325000Y31650000D01*
X79332351Y31649639D01*
G37*
G36*
X79832351Y31649639D02*
G01*
X79839632Y31648559D01*
X79846771Y31646771D01*
X79853701Y31644291D01*
X79860355Y31641144D01*
X79866668Y31637360D01*
X79872579Y31632976D01*
X79878033Y31628033D01*
X79882976Y31622579D01*
X79887360Y31616668D01*
X79891144Y31610355D01*
X79894291Y31603701D01*
X79896771Y31596771D01*
X79898559Y31589632D01*
X79899639Y31582351D01*
X79900000Y31575000D01*
X79900000Y30250000D01*
X79899639Y30242649D01*
X79898559Y30235368D01*
X79896771Y30228229D01*
X79894291Y30221299D01*
X79891144Y30214645D01*
X79887360Y30208332D01*
X79882976Y30202421D01*
X79878033Y30196967D01*
X79872579Y30192024D01*
X79866668Y30187640D01*
X79860355Y30183856D01*
X79853701Y30180709D01*
X79846771Y30178229D01*
X79839632Y30176441D01*
X79832351Y30175361D01*
X79825000Y30175000D01*
X79675000Y30175000D01*
X79667649Y30175361D01*
X79660368Y30176441D01*
X79653229Y30178229D01*
X79646299Y30180709D01*
X79639645Y30183856D01*
X79633332Y30187640D01*
X79627421Y30192024D01*
X79621967Y30196967D01*
X79617024Y30202421D01*
X79612640Y30208332D01*
X79608856Y30214645D01*
X79605709Y30221299D01*
X79603229Y30228229D01*
X79601441Y30235368D01*
X79600361Y30242649D01*
X79600000Y30250000D01*
X79600000Y31575000D01*
X79600361Y31582351D01*
X79601441Y31589632D01*
X79603229Y31596771D01*
X79605709Y31603701D01*
X79608856Y31610355D01*
X79612640Y31616668D01*
X79617024Y31622579D01*
X79621967Y31628033D01*
X79627421Y31632976D01*
X79633332Y31637360D01*
X79639645Y31641144D01*
X79646299Y31644291D01*
X79653229Y31646771D01*
X79660368Y31648559D01*
X79667649Y31649639D01*
X79675000Y31650000D01*
X79825000Y31650000D01*
X79832351Y31649639D01*
G37*
G36*
X80332351Y31649639D02*
G01*
X80339632Y31648559D01*
X80346771Y31646771D01*
X80353701Y31644291D01*
X80360355Y31641144D01*
X80366668Y31637360D01*
X80372579Y31632976D01*
X80378033Y31628033D01*
X80382976Y31622579D01*
X80387360Y31616668D01*
X80391144Y31610355D01*
X80394291Y31603701D01*
X80396771Y31596771D01*
X80398559Y31589632D01*
X80399639Y31582351D01*
X80400000Y31575000D01*
X80400000Y30250000D01*
X80399639Y30242649D01*
X80398559Y30235368D01*
X80396771Y30228229D01*
X80394291Y30221299D01*
X80391144Y30214645D01*
X80387360Y30208332D01*
X80382976Y30202421D01*
X80378033Y30196967D01*
X80372579Y30192024D01*
X80366668Y30187640D01*
X80360355Y30183856D01*
X80353701Y30180709D01*
X80346771Y30178229D01*
X80339632Y30176441D01*
X80332351Y30175361D01*
X80325000Y30175000D01*
X80175000Y30175000D01*
X80167649Y30175361D01*
X80160368Y30176441D01*
X80153229Y30178229D01*
X80146299Y30180709D01*
X80139645Y30183856D01*
X80133332Y30187640D01*
X80127421Y30192024D01*
X80121967Y30196967D01*
X80117024Y30202421D01*
X80112640Y30208332D01*
X80108856Y30214645D01*
X80105709Y30221299D01*
X80103229Y30228229D01*
X80101441Y30235368D01*
X80100361Y30242649D01*
X80100000Y30250000D01*
X80100000Y31575000D01*
X80100361Y31582351D01*
X80101441Y31589632D01*
X80103229Y31596771D01*
X80105709Y31603701D01*
X80108856Y31610355D01*
X80112640Y31616668D01*
X80117024Y31622579D01*
X80121967Y31628033D01*
X80127421Y31632976D01*
X80133332Y31637360D01*
X80139645Y31641144D01*
X80146299Y31644291D01*
X80153229Y31646771D01*
X80160368Y31648559D01*
X80167649Y31649639D01*
X80175000Y31650000D01*
X80325000Y31650000D01*
X80332351Y31649639D01*
G37*
G36*
X80832351Y31649639D02*
G01*
X80839632Y31648559D01*
X80846771Y31646771D01*
X80853701Y31644291D01*
X80860355Y31641144D01*
X80866668Y31637360D01*
X80872579Y31632976D01*
X80878033Y31628033D01*
X80882976Y31622579D01*
X80887360Y31616668D01*
X80891144Y31610355D01*
X80894291Y31603701D01*
X80896771Y31596771D01*
X80898559Y31589632D01*
X80899639Y31582351D01*
X80900000Y31575000D01*
X80900000Y30250000D01*
X80899639Y30242649D01*
X80898559Y30235368D01*
X80896771Y30228229D01*
X80894291Y30221299D01*
X80891144Y30214645D01*
X80887360Y30208332D01*
X80882976Y30202421D01*
X80878033Y30196967D01*
X80872579Y30192024D01*
X80866668Y30187640D01*
X80860355Y30183856D01*
X80853701Y30180709D01*
X80846771Y30178229D01*
X80839632Y30176441D01*
X80832351Y30175361D01*
X80825000Y30175000D01*
X80675000Y30175000D01*
X80667649Y30175361D01*
X80660368Y30176441D01*
X80653229Y30178229D01*
X80646299Y30180709D01*
X80639645Y30183856D01*
X80633332Y30187640D01*
X80627421Y30192024D01*
X80621967Y30196967D01*
X80617024Y30202421D01*
X80612640Y30208332D01*
X80608856Y30214645D01*
X80605709Y30221299D01*
X80603229Y30228229D01*
X80601441Y30235368D01*
X80600361Y30242649D01*
X80600000Y30250000D01*
X80600000Y31575000D01*
X80600361Y31582351D01*
X80601441Y31589632D01*
X80603229Y31596771D01*
X80605709Y31603701D01*
X80608856Y31610355D01*
X80612640Y31616668D01*
X80617024Y31622579D01*
X80621967Y31628033D01*
X80627421Y31632976D01*
X80633332Y31637360D01*
X80639645Y31641144D01*
X80646299Y31644291D01*
X80653229Y31646771D01*
X80660368Y31648559D01*
X80667649Y31649639D01*
X80675000Y31650000D01*
X80825000Y31650000D01*
X80832351Y31649639D01*
G37*
G36*
X81332351Y31649639D02*
G01*
X81339632Y31648559D01*
X81346771Y31646771D01*
X81353701Y31644291D01*
X81360355Y31641144D01*
X81366668Y31637360D01*
X81372579Y31632976D01*
X81378033Y31628033D01*
X81382976Y31622579D01*
X81387360Y31616668D01*
X81391144Y31610355D01*
X81394291Y31603701D01*
X81396771Y31596771D01*
X81398559Y31589632D01*
X81399639Y31582351D01*
X81400000Y31575000D01*
X81400000Y30250000D01*
X81399639Y30242649D01*
X81398559Y30235368D01*
X81396771Y30228229D01*
X81394291Y30221299D01*
X81391144Y30214645D01*
X81387360Y30208332D01*
X81382976Y30202421D01*
X81378033Y30196967D01*
X81372579Y30192024D01*
X81366668Y30187640D01*
X81360355Y30183856D01*
X81353701Y30180709D01*
X81346771Y30178229D01*
X81339632Y30176441D01*
X81332351Y30175361D01*
X81325000Y30175000D01*
X81175000Y30175000D01*
X81167649Y30175361D01*
X81160368Y30176441D01*
X81153229Y30178229D01*
X81146299Y30180709D01*
X81139645Y30183856D01*
X81133332Y30187640D01*
X81127421Y30192024D01*
X81121967Y30196967D01*
X81117024Y30202421D01*
X81112640Y30208332D01*
X81108856Y30214645D01*
X81105709Y30221299D01*
X81103229Y30228229D01*
X81101441Y30235368D01*
X81100361Y30242649D01*
X81100000Y30250000D01*
X81100000Y31575000D01*
X81100361Y31582351D01*
X81101441Y31589632D01*
X81103229Y31596771D01*
X81105709Y31603701D01*
X81108856Y31610355D01*
X81112640Y31616668D01*
X81117024Y31622579D01*
X81121967Y31628033D01*
X81127421Y31632976D01*
X81133332Y31637360D01*
X81139645Y31641144D01*
X81146299Y31644291D01*
X81153229Y31646771D01*
X81160368Y31648559D01*
X81167649Y31649639D01*
X81175000Y31650000D01*
X81325000Y31650000D01*
X81332351Y31649639D01*
G37*
G36*
X81832351Y31649639D02*
G01*
X81839632Y31648559D01*
X81846771Y31646771D01*
X81853701Y31644291D01*
X81860355Y31641144D01*
X81866668Y31637360D01*
X81872579Y31632976D01*
X81878033Y31628033D01*
X81882976Y31622579D01*
X81887360Y31616668D01*
X81891144Y31610355D01*
X81894291Y31603701D01*
X81896771Y31596771D01*
X81898559Y31589632D01*
X81899639Y31582351D01*
X81900000Y31575000D01*
X81900000Y30250000D01*
X81899639Y30242649D01*
X81898559Y30235368D01*
X81896771Y30228229D01*
X81894291Y30221299D01*
X81891144Y30214645D01*
X81887360Y30208332D01*
X81882976Y30202421D01*
X81878033Y30196967D01*
X81872579Y30192024D01*
X81866668Y30187640D01*
X81860355Y30183856D01*
X81853701Y30180709D01*
X81846771Y30178229D01*
X81839632Y30176441D01*
X81832351Y30175361D01*
X81825000Y30175000D01*
X81675000Y30175000D01*
X81667649Y30175361D01*
X81660368Y30176441D01*
X81653229Y30178229D01*
X81646299Y30180709D01*
X81639645Y30183856D01*
X81633332Y30187640D01*
X81627421Y30192024D01*
X81621967Y30196967D01*
X81617024Y30202421D01*
X81612640Y30208332D01*
X81608856Y30214645D01*
X81605709Y30221299D01*
X81603229Y30228229D01*
X81601441Y30235368D01*
X81600361Y30242649D01*
X81600000Y30250000D01*
X81600000Y31575000D01*
X81600361Y31582351D01*
X81601441Y31589632D01*
X81603229Y31596771D01*
X81605709Y31603701D01*
X81608856Y31610355D01*
X81612640Y31616668D01*
X81617024Y31622579D01*
X81621967Y31628033D01*
X81627421Y31632976D01*
X81633332Y31637360D01*
X81639645Y31641144D01*
X81646299Y31644291D01*
X81653229Y31646771D01*
X81660368Y31648559D01*
X81667649Y31649639D01*
X81675000Y31650000D01*
X81825000Y31650000D01*
X81832351Y31649639D01*
G37*
G36*
X82332351Y31649639D02*
G01*
X82339632Y31648559D01*
X82346771Y31646771D01*
X82353701Y31644291D01*
X82360355Y31641144D01*
X82366668Y31637360D01*
X82372579Y31632976D01*
X82378033Y31628033D01*
X82382976Y31622579D01*
X82387360Y31616668D01*
X82391144Y31610355D01*
X82394291Y31603701D01*
X82396771Y31596771D01*
X82398559Y31589632D01*
X82399639Y31582351D01*
X82400000Y31575000D01*
X82400000Y30250000D01*
X82399639Y30242649D01*
X82398559Y30235368D01*
X82396771Y30228229D01*
X82394291Y30221299D01*
X82391144Y30214645D01*
X82387360Y30208332D01*
X82382976Y30202421D01*
X82378033Y30196967D01*
X82372579Y30192024D01*
X82366668Y30187640D01*
X82360355Y30183856D01*
X82353701Y30180709D01*
X82346771Y30178229D01*
X82339632Y30176441D01*
X82332351Y30175361D01*
X82325000Y30175000D01*
X82175000Y30175000D01*
X82167649Y30175361D01*
X82160368Y30176441D01*
X82153229Y30178229D01*
X82146299Y30180709D01*
X82139645Y30183856D01*
X82133332Y30187640D01*
X82127421Y30192024D01*
X82121967Y30196967D01*
X82117024Y30202421D01*
X82112640Y30208332D01*
X82108856Y30214645D01*
X82105709Y30221299D01*
X82103229Y30228229D01*
X82101441Y30235368D01*
X82100361Y30242649D01*
X82100000Y30250000D01*
X82100000Y31575000D01*
X82100361Y31582351D01*
X82101441Y31589632D01*
X82103229Y31596771D01*
X82105709Y31603701D01*
X82108856Y31610355D01*
X82112640Y31616668D01*
X82117024Y31622579D01*
X82121967Y31628033D01*
X82127421Y31632976D01*
X82133332Y31637360D01*
X82139645Y31641144D01*
X82146299Y31644291D01*
X82153229Y31646771D01*
X82160368Y31648559D01*
X82167649Y31649639D01*
X82175000Y31650000D01*
X82325000Y31650000D01*
X82332351Y31649639D01*
G37*
G36*
X82832351Y31649639D02*
G01*
X82839632Y31648559D01*
X82846771Y31646771D01*
X82853701Y31644291D01*
X82860355Y31641144D01*
X82866668Y31637360D01*
X82872579Y31632976D01*
X82878033Y31628033D01*
X82882976Y31622579D01*
X82887360Y31616668D01*
X82891144Y31610355D01*
X82894291Y31603701D01*
X82896771Y31596771D01*
X82898559Y31589632D01*
X82899639Y31582351D01*
X82900000Y31575000D01*
X82900000Y30250000D01*
X82899639Y30242649D01*
X82898559Y30235368D01*
X82896771Y30228229D01*
X82894291Y30221299D01*
X82891144Y30214645D01*
X82887360Y30208332D01*
X82882976Y30202421D01*
X82878033Y30196967D01*
X82872579Y30192024D01*
X82866668Y30187640D01*
X82860355Y30183856D01*
X82853701Y30180709D01*
X82846771Y30178229D01*
X82839632Y30176441D01*
X82832351Y30175361D01*
X82825000Y30175000D01*
X82675000Y30175000D01*
X82667649Y30175361D01*
X82660368Y30176441D01*
X82653229Y30178229D01*
X82646299Y30180709D01*
X82639645Y30183856D01*
X82633332Y30187640D01*
X82627421Y30192024D01*
X82621967Y30196967D01*
X82617024Y30202421D01*
X82612640Y30208332D01*
X82608856Y30214645D01*
X82605709Y30221299D01*
X82603229Y30228229D01*
X82601441Y30235368D01*
X82600361Y30242649D01*
X82600000Y30250000D01*
X82600000Y31575000D01*
X82600361Y31582351D01*
X82601441Y31589632D01*
X82603229Y31596771D01*
X82605709Y31603701D01*
X82608856Y31610355D01*
X82612640Y31616668D01*
X82617024Y31622579D01*
X82621967Y31628033D01*
X82627421Y31632976D01*
X82633332Y31637360D01*
X82639645Y31641144D01*
X82646299Y31644291D01*
X82653229Y31646771D01*
X82660368Y31648559D01*
X82667649Y31649639D01*
X82675000Y31650000D01*
X82825000Y31650000D01*
X82832351Y31649639D01*
G37*
G36*
X83332351Y31649639D02*
G01*
X83339632Y31648559D01*
X83346771Y31646771D01*
X83353701Y31644291D01*
X83360355Y31641144D01*
X83366668Y31637360D01*
X83372579Y31632976D01*
X83378033Y31628033D01*
X83382976Y31622579D01*
X83387360Y31616668D01*
X83391144Y31610355D01*
X83394291Y31603701D01*
X83396771Y31596771D01*
X83398559Y31589632D01*
X83399639Y31582351D01*
X83400000Y31575000D01*
X83400000Y30250000D01*
X83399639Y30242649D01*
X83398559Y30235368D01*
X83396771Y30228229D01*
X83394291Y30221299D01*
X83391144Y30214645D01*
X83387360Y30208332D01*
X83382976Y30202421D01*
X83378033Y30196967D01*
X83372579Y30192024D01*
X83366668Y30187640D01*
X83360355Y30183856D01*
X83353701Y30180709D01*
X83346771Y30178229D01*
X83339632Y30176441D01*
X83332351Y30175361D01*
X83325000Y30175000D01*
X83175000Y30175000D01*
X83167649Y30175361D01*
X83160368Y30176441D01*
X83153229Y30178229D01*
X83146299Y30180709D01*
X83139645Y30183856D01*
X83133332Y30187640D01*
X83127421Y30192024D01*
X83121967Y30196967D01*
X83117024Y30202421D01*
X83112640Y30208332D01*
X83108856Y30214645D01*
X83105709Y30221299D01*
X83103229Y30228229D01*
X83101441Y30235368D01*
X83100361Y30242649D01*
X83100000Y30250000D01*
X83100000Y31575000D01*
X83100361Y31582351D01*
X83101441Y31589632D01*
X83103229Y31596771D01*
X83105709Y31603701D01*
X83108856Y31610355D01*
X83112640Y31616668D01*
X83117024Y31622579D01*
X83121967Y31628033D01*
X83127421Y31632976D01*
X83133332Y31637360D01*
X83139645Y31641144D01*
X83146299Y31644291D01*
X83153229Y31646771D01*
X83160368Y31648559D01*
X83167649Y31649639D01*
X83175000Y31650000D01*
X83325000Y31650000D01*
X83332351Y31649639D01*
G37*
G36*
X83832351Y31649639D02*
G01*
X83839632Y31648559D01*
X83846771Y31646771D01*
X83853701Y31644291D01*
X83860355Y31641144D01*
X83866668Y31637360D01*
X83872579Y31632976D01*
X83878033Y31628033D01*
X83882976Y31622579D01*
X83887360Y31616668D01*
X83891144Y31610355D01*
X83894291Y31603701D01*
X83896771Y31596771D01*
X83898559Y31589632D01*
X83899639Y31582351D01*
X83900000Y31575000D01*
X83900000Y30250000D01*
X83899639Y30242649D01*
X83898559Y30235368D01*
X83896771Y30228229D01*
X83894291Y30221299D01*
X83891144Y30214645D01*
X83887360Y30208332D01*
X83882976Y30202421D01*
X83878033Y30196967D01*
X83872579Y30192024D01*
X83866668Y30187640D01*
X83860355Y30183856D01*
X83853701Y30180709D01*
X83846771Y30178229D01*
X83839632Y30176441D01*
X83832351Y30175361D01*
X83825000Y30175000D01*
X83675000Y30175000D01*
X83667649Y30175361D01*
X83660368Y30176441D01*
X83653229Y30178229D01*
X83646299Y30180709D01*
X83639645Y30183856D01*
X83633332Y30187640D01*
X83627421Y30192024D01*
X83621967Y30196967D01*
X83617024Y30202421D01*
X83612640Y30208332D01*
X83608856Y30214645D01*
X83605709Y30221299D01*
X83603229Y30228229D01*
X83601441Y30235368D01*
X83600361Y30242649D01*
X83600000Y30250000D01*
X83600000Y31575000D01*
X83600361Y31582351D01*
X83601441Y31589632D01*
X83603229Y31596771D01*
X83605709Y31603701D01*
X83608856Y31610355D01*
X83612640Y31616668D01*
X83617024Y31622579D01*
X83621967Y31628033D01*
X83627421Y31632976D01*
X83633332Y31637360D01*
X83639645Y31641144D01*
X83646299Y31644291D01*
X83653229Y31646771D01*
X83660368Y31648559D01*
X83667649Y31649639D01*
X83675000Y31650000D01*
X83825000Y31650000D01*
X83832351Y31649639D01*
G37*
G36*
X84332351Y31649639D02*
G01*
X84339632Y31648559D01*
X84346771Y31646771D01*
X84353701Y31644291D01*
X84360355Y31641144D01*
X84366668Y31637360D01*
X84372579Y31632976D01*
X84378033Y31628033D01*
X84382976Y31622579D01*
X84387360Y31616668D01*
X84391144Y31610355D01*
X84394291Y31603701D01*
X84396771Y31596771D01*
X84398559Y31589632D01*
X84399639Y31582351D01*
X84400000Y31575000D01*
X84400000Y30250000D01*
X84399639Y30242649D01*
X84398559Y30235368D01*
X84396771Y30228229D01*
X84394291Y30221299D01*
X84391144Y30214645D01*
X84387360Y30208332D01*
X84382976Y30202421D01*
X84378033Y30196967D01*
X84372579Y30192024D01*
X84366668Y30187640D01*
X84360355Y30183856D01*
X84353701Y30180709D01*
X84346771Y30178229D01*
X84339632Y30176441D01*
X84332351Y30175361D01*
X84325000Y30175000D01*
X84175000Y30175000D01*
X84167649Y30175361D01*
X84160368Y30176441D01*
X84153229Y30178229D01*
X84146299Y30180709D01*
X84139645Y30183856D01*
X84133332Y30187640D01*
X84127421Y30192024D01*
X84121967Y30196967D01*
X84117024Y30202421D01*
X84112640Y30208332D01*
X84108856Y30214645D01*
X84105709Y30221299D01*
X84103229Y30228229D01*
X84101441Y30235368D01*
X84100361Y30242649D01*
X84100000Y30250000D01*
X84100000Y31575000D01*
X84100361Y31582351D01*
X84101441Y31589632D01*
X84103229Y31596771D01*
X84105709Y31603701D01*
X84108856Y31610355D01*
X84112640Y31616668D01*
X84117024Y31622579D01*
X84121967Y31628033D01*
X84127421Y31632976D01*
X84133332Y31637360D01*
X84139645Y31641144D01*
X84146299Y31644291D01*
X84153229Y31646771D01*
X84160368Y31648559D01*
X84167649Y31649639D01*
X84175000Y31650000D01*
X84325000Y31650000D01*
X84332351Y31649639D01*
G37*
G36*
X89936958Y34559290D02*
G01*
X89951276Y34557166D01*
X89965317Y34553649D01*
X89978946Y34548772D01*
X89992031Y34542583D01*
X90004447Y34535142D01*
X90016073Y34526519D01*
X90026798Y34516798D01*
X90036519Y34506073D01*
X90045142Y34494447D01*
X90052583Y34482031D01*
X90058772Y34468946D01*
X90063649Y34455317D01*
X90067166Y34441276D01*
X90069290Y34426958D01*
X90070000Y34412500D01*
X90070000Y34117500D01*
X90069290Y34103042D01*
X90067166Y34088724D01*
X90063649Y34074683D01*
X90058772Y34061054D01*
X90052583Y34047969D01*
X90045142Y34035553D01*
X90036519Y34023927D01*
X90026798Y34013202D01*
X90016073Y34003481D01*
X90004447Y33994858D01*
X89992031Y33987417D01*
X89978946Y33981228D01*
X89965317Y33976351D01*
X89951276Y33972834D01*
X89936958Y33970710D01*
X89922500Y33970000D01*
X89577500Y33970000D01*
X89563042Y33970710D01*
X89548724Y33972834D01*
X89534683Y33976351D01*
X89521054Y33981228D01*
X89507969Y33987417D01*
X89495553Y33994858D01*
X89483927Y34003481D01*
X89473202Y34013202D01*
X89463481Y34023927D01*
X89454858Y34035553D01*
X89447417Y34047969D01*
X89441228Y34061054D01*
X89436351Y34074683D01*
X89432834Y34088724D01*
X89430710Y34103042D01*
X89430000Y34117500D01*
X89430000Y34412500D01*
X89430710Y34426958D01*
X89432834Y34441276D01*
X89436351Y34455317D01*
X89441228Y34468946D01*
X89447417Y34482031D01*
X89454858Y34494447D01*
X89463481Y34506073D01*
X89473202Y34516798D01*
X89483927Y34526519D01*
X89495553Y34535142D01*
X89507969Y34542583D01*
X89521054Y34548772D01*
X89534683Y34553649D01*
X89548724Y34557166D01*
X89563042Y34559290D01*
X89577500Y34560000D01*
X89922500Y34560000D01*
X89936958Y34559290D01*
G37*
G36*
X89936958Y35529290D02*
G01*
X89951276Y35527166D01*
X89965317Y35523649D01*
X89978946Y35518772D01*
X89992031Y35512583D01*
X90004447Y35505142D01*
X90016073Y35496519D01*
X90026798Y35486798D01*
X90036519Y35476073D01*
X90045142Y35464447D01*
X90052583Y35452031D01*
X90058772Y35438946D01*
X90063649Y35425317D01*
X90067166Y35411276D01*
X90069290Y35396958D01*
X90070000Y35382500D01*
X90070000Y35087500D01*
X90069290Y35073042D01*
X90067166Y35058724D01*
X90063649Y35044683D01*
X90058772Y35031054D01*
X90052583Y35017969D01*
X90045142Y35005553D01*
X90036519Y34993927D01*
X90026798Y34983202D01*
X90016073Y34973481D01*
X90004447Y34964858D01*
X89992031Y34957417D01*
X89978946Y34951228D01*
X89965317Y34946351D01*
X89951276Y34942834D01*
X89936958Y34940710D01*
X89922500Y34940000D01*
X89577500Y34940000D01*
X89563042Y34940710D01*
X89548724Y34942834D01*
X89534683Y34946351D01*
X89521054Y34951228D01*
X89507969Y34957417D01*
X89495553Y34964858D01*
X89483927Y34973481D01*
X89473202Y34983202D01*
X89463481Y34993927D01*
X89454858Y35005553D01*
X89447417Y35017969D01*
X89441228Y35031054D01*
X89436351Y35044683D01*
X89432834Y35058724D01*
X89430710Y35073042D01*
X89430000Y35087500D01*
X89430000Y35382500D01*
X89430710Y35396958D01*
X89432834Y35411276D01*
X89436351Y35425317D01*
X89441228Y35438946D01*
X89447417Y35452031D01*
X89454858Y35464447D01*
X89463481Y35476073D01*
X89473202Y35486798D01*
X89483927Y35496519D01*
X89495553Y35505142D01*
X89507969Y35512583D01*
X89521054Y35518772D01*
X89534683Y35523649D01*
X89548724Y35527166D01*
X89563042Y35529290D01*
X89577500Y35530000D01*
X89922500Y35530000D01*
X89936958Y35529290D01*
G37*
G36*
X89977691Y37148947D02*
G01*
X89998926Y37145797D01*
X90019750Y37140581D01*
X90039962Y37133349D01*
X90059368Y37124170D01*
X90077781Y37113134D01*
X90095024Y37100346D01*
X90110930Y37085930D01*
X90125346Y37070024D01*
X90138134Y37052781D01*
X90149170Y37034368D01*
X90158349Y37014962D01*
X90165581Y36994750D01*
X90170797Y36973926D01*
X90173947Y36952691D01*
X90175000Y36931250D01*
X90175000Y36493750D01*
X90173947Y36472309D01*
X90170797Y36451074D01*
X90165581Y36430250D01*
X90158349Y36410038D01*
X90149170Y36390632D01*
X90138134Y36372219D01*
X90125346Y36354976D01*
X90110930Y36339070D01*
X90095024Y36324654D01*
X90077781Y36311866D01*
X90059368Y36300830D01*
X90039962Y36291651D01*
X90019750Y36284419D01*
X89998926Y36279203D01*
X89977691Y36276053D01*
X89956250Y36275000D01*
X89443750Y36275000D01*
X89422309Y36276053D01*
X89401074Y36279203D01*
X89380250Y36284419D01*
X89360038Y36291651D01*
X89340632Y36300830D01*
X89322219Y36311866D01*
X89304976Y36324654D01*
X89289070Y36339070D01*
X89274654Y36354976D01*
X89261866Y36372219D01*
X89250830Y36390632D01*
X89241651Y36410038D01*
X89234419Y36430250D01*
X89229203Y36451074D01*
X89226053Y36472309D01*
X89225000Y36493750D01*
X89225000Y36931250D01*
X89226053Y36952691D01*
X89229203Y36973926D01*
X89234419Y36994750D01*
X89241651Y37014962D01*
X89250830Y37034368D01*
X89261866Y37052781D01*
X89274654Y37070024D01*
X89289070Y37085930D01*
X89304976Y37100346D01*
X89322219Y37113134D01*
X89340632Y37124170D01*
X89360038Y37133349D01*
X89380250Y37140581D01*
X89401074Y37145797D01*
X89422309Y37148947D01*
X89443750Y37150000D01*
X89956250Y37150000D01*
X89977691Y37148947D01*
G37*
G36*
X89977691Y38723947D02*
G01*
X89998926Y38720797D01*
X90019750Y38715581D01*
X90039962Y38708349D01*
X90059368Y38699170D01*
X90077781Y38688134D01*
X90095024Y38675346D01*
X90110930Y38660930D01*
X90125346Y38645024D01*
X90138134Y38627781D01*
X90149170Y38609368D01*
X90158349Y38589962D01*
X90165581Y38569750D01*
X90170797Y38548926D01*
X90173947Y38527691D01*
X90175000Y38506250D01*
X90175000Y38068750D01*
X90173947Y38047309D01*
X90170797Y38026074D01*
X90165581Y38005250D01*
X90158349Y37985038D01*
X90149170Y37965632D01*
X90138134Y37947219D01*
X90125346Y37929976D01*
X90110930Y37914070D01*
X90095024Y37899654D01*
X90077781Y37886866D01*
X90059368Y37875830D01*
X90039962Y37866651D01*
X90019750Y37859419D01*
X89998926Y37854203D01*
X89977691Y37851053D01*
X89956250Y37850000D01*
X89443750Y37850000D01*
X89422309Y37851053D01*
X89401074Y37854203D01*
X89380250Y37859419D01*
X89360038Y37866651D01*
X89340632Y37875830D01*
X89322219Y37886866D01*
X89304976Y37899654D01*
X89289070Y37914070D01*
X89274654Y37929976D01*
X89261866Y37947219D01*
X89250830Y37965632D01*
X89241651Y37985038D01*
X89234419Y38005250D01*
X89229203Y38026074D01*
X89226053Y38047309D01*
X89225000Y38068750D01*
X89225000Y38506250D01*
X89226053Y38527691D01*
X89229203Y38548926D01*
X89234419Y38569750D01*
X89241651Y38589962D01*
X89250830Y38609368D01*
X89261866Y38627781D01*
X89274654Y38645024D01*
X89289070Y38660930D01*
X89304976Y38675346D01*
X89322219Y38688134D01*
X89340632Y38699170D01*
X89360038Y38708349D01*
X89380250Y38715581D01*
X89401074Y38720797D01*
X89422309Y38723947D01*
X89443750Y38725000D01*
X89956250Y38725000D01*
X89977691Y38723947D01*
G37*
G36*
X6936958Y15029290D02*
G01*
X6951276Y15027166D01*
X6965317Y15023649D01*
X6978946Y15018772D01*
X6992031Y15012583D01*
X7004447Y15005142D01*
X7016073Y14996519D01*
X7026798Y14986798D01*
X7036519Y14976073D01*
X7045142Y14964447D01*
X7052583Y14952031D01*
X7058772Y14938946D01*
X7063649Y14925317D01*
X7067166Y14911276D01*
X7069290Y14896958D01*
X7070000Y14882500D01*
X7070000Y14587500D01*
X7069290Y14573042D01*
X7067166Y14558724D01*
X7063649Y14544683D01*
X7058772Y14531054D01*
X7052583Y14517969D01*
X7045142Y14505553D01*
X7036519Y14493927D01*
X7026798Y14483202D01*
X7016073Y14473481D01*
X7004447Y14464858D01*
X6992031Y14457417D01*
X6978946Y14451228D01*
X6965317Y14446351D01*
X6951276Y14442834D01*
X6936958Y14440710D01*
X6922500Y14440000D01*
X6577500Y14440000D01*
X6563042Y14440710D01*
X6548724Y14442834D01*
X6534683Y14446351D01*
X6521054Y14451228D01*
X6507969Y14457417D01*
X6495553Y14464858D01*
X6483927Y14473481D01*
X6473202Y14483202D01*
X6463481Y14493927D01*
X6454858Y14505553D01*
X6447417Y14517969D01*
X6441228Y14531054D01*
X6436351Y14544683D01*
X6432834Y14558724D01*
X6430710Y14573042D01*
X6430000Y14587500D01*
X6430000Y14882500D01*
X6430710Y14896958D01*
X6432834Y14911276D01*
X6436351Y14925317D01*
X6441228Y14938946D01*
X6447417Y14952031D01*
X6454858Y14964447D01*
X6463481Y14976073D01*
X6473202Y14986798D01*
X6483927Y14996519D01*
X6495553Y15005142D01*
X6507969Y15012583D01*
X6521054Y15018772D01*
X6534683Y15023649D01*
X6548724Y15027166D01*
X6563042Y15029290D01*
X6577500Y15030000D01*
X6922500Y15030000D01*
X6936958Y15029290D01*
G37*
G36*
X6936958Y14059290D02*
G01*
X6951276Y14057166D01*
X6965317Y14053649D01*
X6978946Y14048772D01*
X6992031Y14042583D01*
X7004447Y14035142D01*
X7016073Y14026519D01*
X7026798Y14016798D01*
X7036519Y14006073D01*
X7045142Y13994447D01*
X7052583Y13982031D01*
X7058772Y13968946D01*
X7063649Y13955317D01*
X7067166Y13941276D01*
X7069290Y13926958D01*
X7070000Y13912500D01*
X7070000Y13617500D01*
X7069290Y13603042D01*
X7067166Y13588724D01*
X7063649Y13574683D01*
X7058772Y13561054D01*
X7052583Y13547969D01*
X7045142Y13535553D01*
X7036519Y13523927D01*
X7026798Y13513202D01*
X7016073Y13503481D01*
X7004447Y13494858D01*
X6992031Y13487417D01*
X6978946Y13481228D01*
X6965317Y13476351D01*
X6951276Y13472834D01*
X6936958Y13470710D01*
X6922500Y13470000D01*
X6577500Y13470000D01*
X6563042Y13470710D01*
X6548724Y13472834D01*
X6534683Y13476351D01*
X6521054Y13481228D01*
X6507969Y13487417D01*
X6495553Y13494858D01*
X6483927Y13503481D01*
X6473202Y13513202D01*
X6463481Y13523927D01*
X6454858Y13535553D01*
X6447417Y13547969D01*
X6441228Y13561054D01*
X6436351Y13574683D01*
X6432834Y13588724D01*
X6430710Y13603042D01*
X6430000Y13617500D01*
X6430000Y13912500D01*
X6430710Y13926958D01*
X6432834Y13941276D01*
X6436351Y13955317D01*
X6441228Y13968946D01*
X6447417Y13982031D01*
X6454858Y13994447D01*
X6463481Y14006073D01*
X6473202Y14016798D01*
X6483927Y14026519D01*
X6495553Y14035142D01*
X6507969Y14042583D01*
X6521054Y14048772D01*
X6534683Y14053649D01*
X6548724Y14057166D01*
X6563042Y14059290D01*
X6577500Y14060000D01*
X6922500Y14060000D01*
X6936958Y14059290D01*
G37*
G36*
X87936958Y34559290D02*
G01*
X87951276Y34557166D01*
X87965317Y34553649D01*
X87978946Y34548772D01*
X87992031Y34542583D01*
X88004447Y34535142D01*
X88016073Y34526519D01*
X88026798Y34516798D01*
X88036519Y34506073D01*
X88045142Y34494447D01*
X88052583Y34482031D01*
X88058772Y34468946D01*
X88063649Y34455317D01*
X88067166Y34441276D01*
X88069290Y34426958D01*
X88070000Y34412500D01*
X88070000Y34117500D01*
X88069290Y34103042D01*
X88067166Y34088724D01*
X88063649Y34074683D01*
X88058772Y34061054D01*
X88052583Y34047969D01*
X88045142Y34035553D01*
X88036519Y34023927D01*
X88026798Y34013202D01*
X88016073Y34003481D01*
X88004447Y33994858D01*
X87992031Y33987417D01*
X87978946Y33981228D01*
X87965317Y33976351D01*
X87951276Y33972834D01*
X87936958Y33970710D01*
X87922500Y33970000D01*
X87577500Y33970000D01*
X87563042Y33970710D01*
X87548724Y33972834D01*
X87534683Y33976351D01*
X87521054Y33981228D01*
X87507969Y33987417D01*
X87495553Y33994858D01*
X87483927Y34003481D01*
X87473202Y34013202D01*
X87463481Y34023927D01*
X87454858Y34035553D01*
X87447417Y34047969D01*
X87441228Y34061054D01*
X87436351Y34074683D01*
X87432834Y34088724D01*
X87430710Y34103042D01*
X87430000Y34117500D01*
X87430000Y34412500D01*
X87430710Y34426958D01*
X87432834Y34441276D01*
X87436351Y34455317D01*
X87441228Y34468946D01*
X87447417Y34482031D01*
X87454858Y34494447D01*
X87463481Y34506073D01*
X87473202Y34516798D01*
X87483927Y34526519D01*
X87495553Y34535142D01*
X87507969Y34542583D01*
X87521054Y34548772D01*
X87534683Y34553649D01*
X87548724Y34557166D01*
X87563042Y34559290D01*
X87577500Y34560000D01*
X87922500Y34560000D01*
X87936958Y34559290D01*
G37*
G36*
X87936958Y35529290D02*
G01*
X87951276Y35527166D01*
X87965317Y35523649D01*
X87978946Y35518772D01*
X87992031Y35512583D01*
X88004447Y35505142D01*
X88016073Y35496519D01*
X88026798Y35486798D01*
X88036519Y35476073D01*
X88045142Y35464447D01*
X88052583Y35452031D01*
X88058772Y35438946D01*
X88063649Y35425317D01*
X88067166Y35411276D01*
X88069290Y35396958D01*
X88070000Y35382500D01*
X88070000Y35087500D01*
X88069290Y35073042D01*
X88067166Y35058724D01*
X88063649Y35044683D01*
X88058772Y35031054D01*
X88052583Y35017969D01*
X88045142Y35005553D01*
X88036519Y34993927D01*
X88026798Y34983202D01*
X88016073Y34973481D01*
X88004447Y34964858D01*
X87992031Y34957417D01*
X87978946Y34951228D01*
X87965317Y34946351D01*
X87951276Y34942834D01*
X87936958Y34940710D01*
X87922500Y34940000D01*
X87577500Y34940000D01*
X87563042Y34940710D01*
X87548724Y34942834D01*
X87534683Y34946351D01*
X87521054Y34951228D01*
X87507969Y34957417D01*
X87495553Y34964858D01*
X87483927Y34973481D01*
X87473202Y34983202D01*
X87463481Y34993927D01*
X87454858Y35005553D01*
X87447417Y35017969D01*
X87441228Y35031054D01*
X87436351Y35044683D01*
X87432834Y35058724D01*
X87430710Y35073042D01*
X87430000Y35087500D01*
X87430000Y35382500D01*
X87430710Y35396958D01*
X87432834Y35411276D01*
X87436351Y35425317D01*
X87441228Y35438946D01*
X87447417Y35452031D01*
X87454858Y35464447D01*
X87463481Y35476073D01*
X87473202Y35486798D01*
X87483927Y35496519D01*
X87495553Y35505142D01*
X87507969Y35512583D01*
X87521054Y35518772D01*
X87534683Y35523649D01*
X87548724Y35527166D01*
X87563042Y35529290D01*
X87577500Y35530000D01*
X87922500Y35530000D01*
X87936958Y35529290D01*
G37*
G36*
X90896958Y22569290D02*
G01*
X90911276Y22567166D01*
X90925317Y22563649D01*
X90938946Y22558772D01*
X90952031Y22552583D01*
X90964447Y22545142D01*
X90976073Y22536519D01*
X90986798Y22526798D01*
X90996519Y22516073D01*
X91005142Y22504447D01*
X91012583Y22492031D01*
X91018772Y22478946D01*
X91023649Y22465317D01*
X91027166Y22451276D01*
X91029290Y22436958D01*
X91030000Y22422500D01*
X91030000Y22077500D01*
X91029290Y22063042D01*
X91027166Y22048724D01*
X91023649Y22034683D01*
X91018772Y22021054D01*
X91012583Y22007969D01*
X91005142Y21995553D01*
X90996519Y21983927D01*
X90986798Y21973202D01*
X90976073Y21963481D01*
X90964447Y21954858D01*
X90952031Y21947417D01*
X90938946Y21941228D01*
X90925317Y21936351D01*
X90911276Y21932834D01*
X90896958Y21930710D01*
X90882500Y21930000D01*
X90587500Y21930000D01*
X90573042Y21930710D01*
X90558724Y21932834D01*
X90544683Y21936351D01*
X90531054Y21941228D01*
X90517969Y21947417D01*
X90505553Y21954858D01*
X90493927Y21963481D01*
X90483202Y21973202D01*
X90473481Y21983927D01*
X90464858Y21995553D01*
X90457417Y22007969D01*
X90451228Y22021054D01*
X90446351Y22034683D01*
X90442834Y22048724D01*
X90440710Y22063042D01*
X90440000Y22077500D01*
X90440000Y22422500D01*
X90440710Y22436958D01*
X90442834Y22451276D01*
X90446351Y22465317D01*
X90451228Y22478946D01*
X90457417Y22492031D01*
X90464858Y22504447D01*
X90473481Y22516073D01*
X90483202Y22526798D01*
X90493927Y22536519D01*
X90505553Y22545142D01*
X90517969Y22552583D01*
X90531054Y22558772D01*
X90544683Y22563649D01*
X90558724Y22567166D01*
X90573042Y22569290D01*
X90587500Y22570000D01*
X90882500Y22570000D01*
X90896958Y22569290D01*
G37*
G36*
X89926958Y22569290D02*
G01*
X89941276Y22567166D01*
X89955317Y22563649D01*
X89968946Y22558772D01*
X89982031Y22552583D01*
X89994447Y22545142D01*
X90006073Y22536519D01*
X90016798Y22526798D01*
X90026519Y22516073D01*
X90035142Y22504447D01*
X90042583Y22492031D01*
X90048772Y22478946D01*
X90053649Y22465317D01*
X90057166Y22451276D01*
X90059290Y22436958D01*
X90060000Y22422500D01*
X90060000Y22077500D01*
X90059290Y22063042D01*
X90057166Y22048724D01*
X90053649Y22034683D01*
X90048772Y22021054D01*
X90042583Y22007969D01*
X90035142Y21995553D01*
X90026519Y21983927D01*
X90016798Y21973202D01*
X90006073Y21963481D01*
X89994447Y21954858D01*
X89982031Y21947417D01*
X89968946Y21941228D01*
X89955317Y21936351D01*
X89941276Y21932834D01*
X89926958Y21930710D01*
X89912500Y21930000D01*
X89617500Y21930000D01*
X89603042Y21930710D01*
X89588724Y21932834D01*
X89574683Y21936351D01*
X89561054Y21941228D01*
X89547969Y21947417D01*
X89535553Y21954858D01*
X89523927Y21963481D01*
X89513202Y21973202D01*
X89503481Y21983927D01*
X89494858Y21995553D01*
X89487417Y22007969D01*
X89481228Y22021054D01*
X89476351Y22034683D01*
X89472834Y22048724D01*
X89470710Y22063042D01*
X89470000Y22077500D01*
X89470000Y22422500D01*
X89470710Y22436958D01*
X89472834Y22451276D01*
X89476351Y22465317D01*
X89481228Y22478946D01*
X89487417Y22492031D01*
X89494858Y22504447D01*
X89503481Y22516073D01*
X89513202Y22526798D01*
X89523927Y22536519D01*
X89535553Y22545142D01*
X89547969Y22552583D01*
X89561054Y22558772D01*
X89574683Y22563649D01*
X89588724Y22567166D01*
X89603042Y22569290D01*
X89617500Y22570000D01*
X89912500Y22570000D01*
X89926958Y22569290D01*
G37*
G36*
X88277691Y37148947D02*
G01*
X88298926Y37145797D01*
X88319750Y37140581D01*
X88339962Y37133349D01*
X88359368Y37124170D01*
X88377781Y37113134D01*
X88395024Y37100346D01*
X88410930Y37085930D01*
X88425346Y37070024D01*
X88438134Y37052781D01*
X88449170Y37034368D01*
X88458349Y37014962D01*
X88465581Y36994750D01*
X88470797Y36973926D01*
X88473947Y36952691D01*
X88475000Y36931250D01*
X88475000Y36493750D01*
X88473947Y36472309D01*
X88470797Y36451074D01*
X88465581Y36430250D01*
X88458349Y36410038D01*
X88449170Y36390632D01*
X88438134Y36372219D01*
X88425346Y36354976D01*
X88410930Y36339070D01*
X88395024Y36324654D01*
X88377781Y36311866D01*
X88359368Y36300830D01*
X88339962Y36291651D01*
X88319750Y36284419D01*
X88298926Y36279203D01*
X88277691Y36276053D01*
X88256250Y36275000D01*
X87743750Y36275000D01*
X87722309Y36276053D01*
X87701074Y36279203D01*
X87680250Y36284419D01*
X87660038Y36291651D01*
X87640632Y36300830D01*
X87622219Y36311866D01*
X87604976Y36324654D01*
X87589070Y36339070D01*
X87574654Y36354976D01*
X87561866Y36372219D01*
X87550830Y36390632D01*
X87541651Y36410038D01*
X87534419Y36430250D01*
X87529203Y36451074D01*
X87526053Y36472309D01*
X87525000Y36493750D01*
X87525000Y36931250D01*
X87526053Y36952691D01*
X87529203Y36973926D01*
X87534419Y36994750D01*
X87541651Y37014962D01*
X87550830Y37034368D01*
X87561866Y37052781D01*
X87574654Y37070024D01*
X87589070Y37085930D01*
X87604976Y37100346D01*
X87622219Y37113134D01*
X87640632Y37124170D01*
X87660038Y37133349D01*
X87680250Y37140581D01*
X87701074Y37145797D01*
X87722309Y37148947D01*
X87743750Y37150000D01*
X88256250Y37150000D01*
X88277691Y37148947D01*
G37*
G36*
X88277691Y38723947D02*
G01*
X88298926Y38720797D01*
X88319750Y38715581D01*
X88339962Y38708349D01*
X88359368Y38699170D01*
X88377781Y38688134D01*
X88395024Y38675346D01*
X88410930Y38660930D01*
X88425346Y38645024D01*
X88438134Y38627781D01*
X88449170Y38609368D01*
X88458349Y38589962D01*
X88465581Y38569750D01*
X88470797Y38548926D01*
X88473947Y38527691D01*
X88475000Y38506250D01*
X88475000Y38068750D01*
X88473947Y38047309D01*
X88470797Y38026074D01*
X88465581Y38005250D01*
X88458349Y37985038D01*
X88449170Y37965632D01*
X88438134Y37947219D01*
X88425346Y37929976D01*
X88410930Y37914070D01*
X88395024Y37899654D01*
X88377781Y37886866D01*
X88359368Y37875830D01*
X88339962Y37866651D01*
X88319750Y37859419D01*
X88298926Y37854203D01*
X88277691Y37851053D01*
X88256250Y37850000D01*
X87743750Y37850000D01*
X87722309Y37851053D01*
X87701074Y37854203D01*
X87680250Y37859419D01*
X87660038Y37866651D01*
X87640632Y37875830D01*
X87622219Y37886866D01*
X87604976Y37899654D01*
X87589070Y37914070D01*
X87574654Y37929976D01*
X87561866Y37947219D01*
X87550830Y37965632D01*
X87541651Y37985038D01*
X87534419Y38005250D01*
X87529203Y38026074D01*
X87526053Y38047309D01*
X87525000Y38068750D01*
X87525000Y38506250D01*
X87526053Y38527691D01*
X87529203Y38548926D01*
X87534419Y38569750D01*
X87541651Y38589962D01*
X87550830Y38609368D01*
X87561866Y38627781D01*
X87574654Y38645024D01*
X87589070Y38660930D01*
X87604976Y38675346D01*
X87622219Y38688134D01*
X87640632Y38699170D01*
X87660038Y38708349D01*
X87680250Y38715581D01*
X87701074Y38720797D01*
X87722309Y38723947D01*
X87743750Y38725000D01*
X88256250Y38725000D01*
X88277691Y38723947D01*
G37*
D11*
X64500000Y15150000D03*
X65450000Y15150000D03*
X63550000Y15150000D03*
X63550000Y17350000D03*
X64500000Y17350000D03*
X65450000Y17350000D03*
D10*
G36*
X67186958Y17059290D02*
G01*
X67201276Y17057166D01*
X67215317Y17053649D01*
X67228946Y17048772D01*
X67242031Y17042583D01*
X67254447Y17035142D01*
X67266073Y17026519D01*
X67276798Y17016798D01*
X67286519Y17006073D01*
X67295142Y16994447D01*
X67302583Y16982031D01*
X67308772Y16968946D01*
X67313649Y16955317D01*
X67317166Y16941276D01*
X67319290Y16926958D01*
X67320000Y16912500D01*
X67320000Y16617500D01*
X67319290Y16603042D01*
X67317166Y16588724D01*
X67313649Y16574683D01*
X67308772Y16561054D01*
X67302583Y16547969D01*
X67295142Y16535553D01*
X67286519Y16523927D01*
X67276798Y16513202D01*
X67266073Y16503481D01*
X67254447Y16494858D01*
X67242031Y16487417D01*
X67228946Y16481228D01*
X67215317Y16476351D01*
X67201276Y16472834D01*
X67186958Y16470710D01*
X67172500Y16470000D01*
X66827500Y16470000D01*
X66813042Y16470710D01*
X66798724Y16472834D01*
X66784683Y16476351D01*
X66771054Y16481228D01*
X66757969Y16487417D01*
X66745553Y16494858D01*
X66733927Y16503481D01*
X66723202Y16513202D01*
X66713481Y16523927D01*
X66704858Y16535553D01*
X66697417Y16547969D01*
X66691228Y16561054D01*
X66686351Y16574683D01*
X66682834Y16588724D01*
X66680710Y16603042D01*
X66680000Y16617500D01*
X66680000Y16912500D01*
X66680710Y16926958D01*
X66682834Y16941276D01*
X66686351Y16955317D01*
X66691228Y16968946D01*
X66697417Y16982031D01*
X66704858Y16994447D01*
X66713481Y17006073D01*
X66723202Y17016798D01*
X66733927Y17026519D01*
X66745553Y17035142D01*
X66757969Y17042583D01*
X66771054Y17048772D01*
X66784683Y17053649D01*
X66798724Y17057166D01*
X66813042Y17059290D01*
X66827500Y17060000D01*
X67172500Y17060000D01*
X67186958Y17059290D01*
G37*
G36*
X67186958Y18029290D02*
G01*
X67201276Y18027166D01*
X67215317Y18023649D01*
X67228946Y18018772D01*
X67242031Y18012583D01*
X67254447Y18005142D01*
X67266073Y17996519D01*
X67276798Y17986798D01*
X67286519Y17976073D01*
X67295142Y17964447D01*
X67302583Y17952031D01*
X67308772Y17938946D01*
X67313649Y17925317D01*
X67317166Y17911276D01*
X67319290Y17896958D01*
X67320000Y17882500D01*
X67320000Y17587500D01*
X67319290Y17573042D01*
X67317166Y17558724D01*
X67313649Y17544683D01*
X67308772Y17531054D01*
X67302583Y17517969D01*
X67295142Y17505553D01*
X67286519Y17493927D01*
X67276798Y17483202D01*
X67266073Y17473481D01*
X67254447Y17464858D01*
X67242031Y17457417D01*
X67228946Y17451228D01*
X67215317Y17446351D01*
X67201276Y17442834D01*
X67186958Y17440710D01*
X67172500Y17440000D01*
X66827500Y17440000D01*
X66813042Y17440710D01*
X66798724Y17442834D01*
X66784683Y17446351D01*
X66771054Y17451228D01*
X66757969Y17457417D01*
X66745553Y17464858D01*
X66733927Y17473481D01*
X66723202Y17483202D01*
X66713481Y17493927D01*
X66704858Y17505553D01*
X66697417Y17517969D01*
X66691228Y17531054D01*
X66686351Y17544683D01*
X66682834Y17558724D01*
X66680710Y17573042D01*
X66680000Y17587500D01*
X66680000Y17882500D01*
X66680710Y17896958D01*
X66682834Y17911276D01*
X66686351Y17925317D01*
X66691228Y17938946D01*
X66697417Y17952031D01*
X66704858Y17964447D01*
X66713481Y17976073D01*
X66723202Y17986798D01*
X66733927Y17996519D01*
X66745553Y18005142D01*
X66757969Y18012583D01*
X66771054Y18018772D01*
X66784683Y18023649D01*
X66798724Y18027166D01*
X66813042Y18029290D01*
X66827500Y18030000D01*
X67172500Y18030000D01*
X67186958Y18029290D01*
G37*
G36*
X62186958Y17059290D02*
G01*
X62201276Y17057166D01*
X62215317Y17053649D01*
X62228946Y17048772D01*
X62242031Y17042583D01*
X62254447Y17035142D01*
X62266073Y17026519D01*
X62276798Y17016798D01*
X62286519Y17006073D01*
X62295142Y16994447D01*
X62302583Y16982031D01*
X62308772Y16968946D01*
X62313649Y16955317D01*
X62317166Y16941276D01*
X62319290Y16926958D01*
X62320000Y16912500D01*
X62320000Y16617500D01*
X62319290Y16603042D01*
X62317166Y16588724D01*
X62313649Y16574683D01*
X62308772Y16561054D01*
X62302583Y16547969D01*
X62295142Y16535553D01*
X62286519Y16523927D01*
X62276798Y16513202D01*
X62266073Y16503481D01*
X62254447Y16494858D01*
X62242031Y16487417D01*
X62228946Y16481228D01*
X62215317Y16476351D01*
X62201276Y16472834D01*
X62186958Y16470710D01*
X62172500Y16470000D01*
X61827500Y16470000D01*
X61813042Y16470710D01*
X61798724Y16472834D01*
X61784683Y16476351D01*
X61771054Y16481228D01*
X61757969Y16487417D01*
X61745553Y16494858D01*
X61733927Y16503481D01*
X61723202Y16513202D01*
X61713481Y16523927D01*
X61704858Y16535553D01*
X61697417Y16547969D01*
X61691228Y16561054D01*
X61686351Y16574683D01*
X61682834Y16588724D01*
X61680710Y16603042D01*
X61680000Y16617500D01*
X61680000Y16912500D01*
X61680710Y16926958D01*
X61682834Y16941276D01*
X61686351Y16955317D01*
X61691228Y16968946D01*
X61697417Y16982031D01*
X61704858Y16994447D01*
X61713481Y17006073D01*
X61723202Y17016798D01*
X61733927Y17026519D01*
X61745553Y17035142D01*
X61757969Y17042583D01*
X61771054Y17048772D01*
X61784683Y17053649D01*
X61798724Y17057166D01*
X61813042Y17059290D01*
X61827500Y17060000D01*
X62172500Y17060000D01*
X62186958Y17059290D01*
G37*
G36*
X62186958Y18029290D02*
G01*
X62201276Y18027166D01*
X62215317Y18023649D01*
X62228946Y18018772D01*
X62242031Y18012583D01*
X62254447Y18005142D01*
X62266073Y17996519D01*
X62276798Y17986798D01*
X62286519Y17976073D01*
X62295142Y17964447D01*
X62302583Y17952031D01*
X62308772Y17938946D01*
X62313649Y17925317D01*
X62317166Y17911276D01*
X62319290Y17896958D01*
X62320000Y17882500D01*
X62320000Y17587500D01*
X62319290Y17573042D01*
X62317166Y17558724D01*
X62313649Y17544683D01*
X62308772Y17531054D01*
X62302583Y17517969D01*
X62295142Y17505553D01*
X62286519Y17493927D01*
X62276798Y17483202D01*
X62266073Y17473481D01*
X62254447Y17464858D01*
X62242031Y17457417D01*
X62228946Y17451228D01*
X62215317Y17446351D01*
X62201276Y17442834D01*
X62186958Y17440710D01*
X62172500Y17440000D01*
X61827500Y17440000D01*
X61813042Y17440710D01*
X61798724Y17442834D01*
X61784683Y17446351D01*
X61771054Y17451228D01*
X61757969Y17457417D01*
X61745553Y17464858D01*
X61733927Y17473481D01*
X61723202Y17483202D01*
X61713481Y17493927D01*
X61704858Y17505553D01*
X61697417Y17517969D01*
X61691228Y17531054D01*
X61686351Y17544683D01*
X61682834Y17558724D01*
X61680710Y17573042D01*
X61680000Y17587500D01*
X61680000Y17882500D01*
X61680710Y17896958D01*
X61682834Y17911276D01*
X61686351Y17925317D01*
X61691228Y17938946D01*
X61697417Y17952031D01*
X61704858Y17964447D01*
X61713481Y17976073D01*
X61723202Y17986798D01*
X61733927Y17996519D01*
X61745553Y18005142D01*
X61757969Y18012583D01*
X61771054Y18018772D01*
X61784683Y18023649D01*
X61798724Y18027166D01*
X61813042Y18029290D01*
X61827500Y18030000D01*
X62172500Y18030000D01*
X62186958Y18029290D01*
G37*
D12*
X55080000Y4980000D03*
X55080000Y10020000D03*
X52540000Y4980000D03*
X52540000Y10020000D03*
X50000000Y4980000D03*
X50000000Y10020000D03*
X47460000Y4980000D03*
X47460000Y10020000D03*
X44920000Y4980000D03*
X44920000Y10020000D03*
D13*
X67750000Y3075000D03*
X67750000Y6075000D03*
X67750000Y10075000D03*
X74250000Y11175000D03*
D10*
G36*
X93146958Y12819290D02*
G01*
X93161276Y12817166D01*
X93175317Y12813649D01*
X93188946Y12808772D01*
X93202031Y12802583D01*
X93214447Y12795142D01*
X93226073Y12786519D01*
X93236798Y12776798D01*
X93246519Y12766073D01*
X93255142Y12754447D01*
X93262583Y12742031D01*
X93268772Y12728946D01*
X93273649Y12715317D01*
X93277166Y12701276D01*
X93279290Y12686958D01*
X93280000Y12672500D01*
X93280000Y12327500D01*
X93279290Y12313042D01*
X93277166Y12298724D01*
X93273649Y12284683D01*
X93268772Y12271054D01*
X93262583Y12257969D01*
X93255142Y12245553D01*
X93246519Y12233927D01*
X93236798Y12223202D01*
X93226073Y12213481D01*
X93214447Y12204858D01*
X93202031Y12197417D01*
X93188946Y12191228D01*
X93175317Y12186351D01*
X93161276Y12182834D01*
X93146958Y12180710D01*
X93132500Y12180000D01*
X92837500Y12180000D01*
X92823042Y12180710D01*
X92808724Y12182834D01*
X92794683Y12186351D01*
X92781054Y12191228D01*
X92767969Y12197417D01*
X92755553Y12204858D01*
X92743927Y12213481D01*
X92733202Y12223202D01*
X92723481Y12233927D01*
X92714858Y12245553D01*
X92707417Y12257969D01*
X92701228Y12271054D01*
X92696351Y12284683D01*
X92692834Y12298724D01*
X92690710Y12313042D01*
X92690000Y12327500D01*
X92690000Y12672500D01*
X92690710Y12686958D01*
X92692834Y12701276D01*
X92696351Y12715317D01*
X92701228Y12728946D01*
X92707417Y12742031D01*
X92714858Y12754447D01*
X92723481Y12766073D01*
X92733202Y12776798D01*
X92743927Y12786519D01*
X92755553Y12795142D01*
X92767969Y12802583D01*
X92781054Y12808772D01*
X92794683Y12813649D01*
X92808724Y12817166D01*
X92823042Y12819290D01*
X92837500Y12820000D01*
X93132500Y12820000D01*
X93146958Y12819290D01*
G37*
G36*
X92176958Y12819290D02*
G01*
X92191276Y12817166D01*
X92205317Y12813649D01*
X92218946Y12808772D01*
X92232031Y12802583D01*
X92244447Y12795142D01*
X92256073Y12786519D01*
X92266798Y12776798D01*
X92276519Y12766073D01*
X92285142Y12754447D01*
X92292583Y12742031D01*
X92298772Y12728946D01*
X92303649Y12715317D01*
X92307166Y12701276D01*
X92309290Y12686958D01*
X92310000Y12672500D01*
X92310000Y12327500D01*
X92309290Y12313042D01*
X92307166Y12298724D01*
X92303649Y12284683D01*
X92298772Y12271054D01*
X92292583Y12257969D01*
X92285142Y12245553D01*
X92276519Y12233927D01*
X92266798Y12223202D01*
X92256073Y12213481D01*
X92244447Y12204858D01*
X92232031Y12197417D01*
X92218946Y12191228D01*
X92205317Y12186351D01*
X92191276Y12182834D01*
X92176958Y12180710D01*
X92162500Y12180000D01*
X91867500Y12180000D01*
X91853042Y12180710D01*
X91838724Y12182834D01*
X91824683Y12186351D01*
X91811054Y12191228D01*
X91797969Y12197417D01*
X91785553Y12204858D01*
X91773927Y12213481D01*
X91763202Y12223202D01*
X91753481Y12233927D01*
X91744858Y12245553D01*
X91737417Y12257969D01*
X91731228Y12271054D01*
X91726351Y12284683D01*
X91722834Y12298724D01*
X91720710Y12313042D01*
X91720000Y12327500D01*
X91720000Y12672500D01*
X91720710Y12686958D01*
X91722834Y12701276D01*
X91726351Y12715317D01*
X91731228Y12728946D01*
X91737417Y12742031D01*
X91744858Y12754447D01*
X91753481Y12766073D01*
X91763202Y12776798D01*
X91773927Y12786519D01*
X91785553Y12795142D01*
X91797969Y12802583D01*
X91811054Y12808772D01*
X91824683Y12813649D01*
X91838724Y12817166D01*
X91853042Y12819290D01*
X91867500Y12820000D01*
X92162500Y12820000D01*
X92176958Y12819290D01*
G37*
D14*
X91800000Y33060000D03*
X95700000Y33060000D03*
X91800000Y31790000D03*
X95700000Y31790000D03*
X91800000Y30520000D03*
X95700000Y30520000D03*
X91800000Y29250000D03*
X95700000Y29250000D03*
X91800000Y27980000D03*
X95700000Y27980000D03*
X91800000Y26710000D03*
X95700000Y26710000D03*
X91800000Y25440000D03*
X95700000Y25440000D03*
D11*
X85500000Y17350000D03*
X84550000Y17350000D03*
X86450000Y17350000D03*
X86450000Y15150000D03*
X85500000Y15150000D03*
X84550000Y15150000D03*
X71050000Y17350000D03*
X72950000Y17350000D03*
X72950000Y15150000D03*
X72000000Y15150000D03*
X71050000Y15150000D03*
X78050000Y17350000D03*
X79950000Y17350000D03*
X79950000Y15150000D03*
X79000000Y15150000D03*
X78050000Y15150000D03*
D10*
G36*
X89686958Y6309290D02*
G01*
X89701276Y6307166D01*
X89715317Y6303649D01*
X89728946Y6298772D01*
X89742031Y6292583D01*
X89754447Y6285142D01*
X89766073Y6276519D01*
X89776798Y6266798D01*
X89786519Y6256073D01*
X89795142Y6244447D01*
X89802583Y6232031D01*
X89808772Y6218946D01*
X89813649Y6205317D01*
X89817166Y6191276D01*
X89819290Y6176958D01*
X89820000Y6162500D01*
X89820000Y5867500D01*
X89819290Y5853042D01*
X89817166Y5838724D01*
X89813649Y5824683D01*
X89808772Y5811054D01*
X89802583Y5797969D01*
X89795142Y5785553D01*
X89786519Y5773927D01*
X89776798Y5763202D01*
X89766073Y5753481D01*
X89754447Y5744858D01*
X89742031Y5737417D01*
X89728946Y5731228D01*
X89715317Y5726351D01*
X89701276Y5722834D01*
X89686958Y5720710D01*
X89672500Y5720000D01*
X89327500Y5720000D01*
X89313042Y5720710D01*
X89298724Y5722834D01*
X89284683Y5726351D01*
X89271054Y5731228D01*
X89257969Y5737417D01*
X89245553Y5744858D01*
X89233927Y5753481D01*
X89223202Y5763202D01*
X89213481Y5773927D01*
X89204858Y5785553D01*
X89197417Y5797969D01*
X89191228Y5811054D01*
X89186351Y5824683D01*
X89182834Y5838724D01*
X89180710Y5853042D01*
X89180000Y5867500D01*
X89180000Y6162500D01*
X89180710Y6176958D01*
X89182834Y6191276D01*
X89186351Y6205317D01*
X89191228Y6218946D01*
X89197417Y6232031D01*
X89204858Y6244447D01*
X89213481Y6256073D01*
X89223202Y6266798D01*
X89233927Y6276519D01*
X89245553Y6285142D01*
X89257969Y6292583D01*
X89271054Y6298772D01*
X89284683Y6303649D01*
X89298724Y6307166D01*
X89313042Y6309290D01*
X89327500Y6310000D01*
X89672500Y6310000D01*
X89686958Y6309290D01*
G37*
G36*
X89686958Y7279290D02*
G01*
X89701276Y7277166D01*
X89715317Y7273649D01*
X89728946Y7268772D01*
X89742031Y7262583D01*
X89754447Y7255142D01*
X89766073Y7246519D01*
X89776798Y7236798D01*
X89786519Y7226073D01*
X89795142Y7214447D01*
X89802583Y7202031D01*
X89808772Y7188946D01*
X89813649Y7175317D01*
X89817166Y7161276D01*
X89819290Y7146958D01*
X89820000Y7132500D01*
X89820000Y6837500D01*
X89819290Y6823042D01*
X89817166Y6808724D01*
X89813649Y6794683D01*
X89808772Y6781054D01*
X89802583Y6767969D01*
X89795142Y6755553D01*
X89786519Y6743927D01*
X89776798Y6733202D01*
X89766073Y6723481D01*
X89754447Y6714858D01*
X89742031Y6707417D01*
X89728946Y6701228D01*
X89715317Y6696351D01*
X89701276Y6692834D01*
X89686958Y6690710D01*
X89672500Y6690000D01*
X89327500Y6690000D01*
X89313042Y6690710D01*
X89298724Y6692834D01*
X89284683Y6696351D01*
X89271054Y6701228D01*
X89257969Y6707417D01*
X89245553Y6714858D01*
X89233927Y6723481D01*
X89223202Y6733202D01*
X89213481Y6743927D01*
X89204858Y6755553D01*
X89197417Y6767969D01*
X89191228Y6781054D01*
X89186351Y6794683D01*
X89182834Y6808724D01*
X89180710Y6823042D01*
X89180000Y6837500D01*
X89180000Y7132500D01*
X89180710Y7146958D01*
X89182834Y7161276D01*
X89186351Y7175317D01*
X89191228Y7188946D01*
X89197417Y7202031D01*
X89204858Y7214447D01*
X89213481Y7226073D01*
X89223202Y7236798D01*
X89233927Y7246519D01*
X89245553Y7255142D01*
X89257969Y7262583D01*
X89271054Y7268772D01*
X89284683Y7273649D01*
X89298724Y7277166D01*
X89313042Y7279290D01*
X89327500Y7280000D01*
X89672500Y7280000D01*
X89686958Y7279290D01*
G37*
G36*
X87146958Y31319290D02*
G01*
X87161276Y31317166D01*
X87175317Y31313649D01*
X87188946Y31308772D01*
X87202031Y31302583D01*
X87214447Y31295142D01*
X87226073Y31286519D01*
X87236798Y31276798D01*
X87246519Y31266073D01*
X87255142Y31254447D01*
X87262583Y31242031D01*
X87268772Y31228946D01*
X87273649Y31215317D01*
X87277166Y31201276D01*
X87279290Y31186958D01*
X87280000Y31172500D01*
X87280000Y30827500D01*
X87279290Y30813042D01*
X87277166Y30798724D01*
X87273649Y30784683D01*
X87268772Y30771054D01*
X87262583Y30757969D01*
X87255142Y30745553D01*
X87246519Y30733927D01*
X87236798Y30723202D01*
X87226073Y30713481D01*
X87214447Y30704858D01*
X87202031Y30697417D01*
X87188946Y30691228D01*
X87175317Y30686351D01*
X87161276Y30682834D01*
X87146958Y30680710D01*
X87132500Y30680000D01*
X86837500Y30680000D01*
X86823042Y30680710D01*
X86808724Y30682834D01*
X86794683Y30686351D01*
X86781054Y30691228D01*
X86767969Y30697417D01*
X86755553Y30704858D01*
X86743927Y30713481D01*
X86733202Y30723202D01*
X86723481Y30733927D01*
X86714858Y30745553D01*
X86707417Y30757969D01*
X86701228Y30771054D01*
X86696351Y30784683D01*
X86692834Y30798724D01*
X86690710Y30813042D01*
X86690000Y30827500D01*
X86690000Y31172500D01*
X86690710Y31186958D01*
X86692834Y31201276D01*
X86696351Y31215317D01*
X86701228Y31228946D01*
X86707417Y31242031D01*
X86714858Y31254447D01*
X86723481Y31266073D01*
X86733202Y31276798D01*
X86743927Y31286519D01*
X86755553Y31295142D01*
X86767969Y31302583D01*
X86781054Y31308772D01*
X86794683Y31313649D01*
X86808724Y31317166D01*
X86823042Y31319290D01*
X86837500Y31320000D01*
X87132500Y31320000D01*
X87146958Y31319290D01*
G37*
G36*
X86176958Y31319290D02*
G01*
X86191276Y31317166D01*
X86205317Y31313649D01*
X86218946Y31308772D01*
X86232031Y31302583D01*
X86244447Y31295142D01*
X86256073Y31286519D01*
X86266798Y31276798D01*
X86276519Y31266073D01*
X86285142Y31254447D01*
X86292583Y31242031D01*
X86298772Y31228946D01*
X86303649Y31215317D01*
X86307166Y31201276D01*
X86309290Y31186958D01*
X86310000Y31172500D01*
X86310000Y30827500D01*
X86309290Y30813042D01*
X86307166Y30798724D01*
X86303649Y30784683D01*
X86298772Y30771054D01*
X86292583Y30757969D01*
X86285142Y30745553D01*
X86276519Y30733927D01*
X86266798Y30723202D01*
X86256073Y30713481D01*
X86244447Y30704858D01*
X86232031Y30697417D01*
X86218946Y30691228D01*
X86205317Y30686351D01*
X86191276Y30682834D01*
X86176958Y30680710D01*
X86162500Y30680000D01*
X85867500Y30680000D01*
X85853042Y30680710D01*
X85838724Y30682834D01*
X85824683Y30686351D01*
X85811054Y30691228D01*
X85797969Y30697417D01*
X85785553Y30704858D01*
X85773927Y30713481D01*
X85763202Y30723202D01*
X85753481Y30733927D01*
X85744858Y30745553D01*
X85737417Y30757969D01*
X85731228Y30771054D01*
X85726351Y30784683D01*
X85722834Y30798724D01*
X85720710Y30813042D01*
X85720000Y30827500D01*
X85720000Y31172500D01*
X85720710Y31186958D01*
X85722834Y31201276D01*
X85726351Y31215317D01*
X85731228Y31228946D01*
X85737417Y31242031D01*
X85744858Y31254447D01*
X85753481Y31266073D01*
X85763202Y31276798D01*
X85773927Y31286519D01*
X85785553Y31295142D01*
X85797969Y31302583D01*
X85811054Y31308772D01*
X85824683Y31313649D01*
X85838724Y31317166D01*
X85853042Y31319290D01*
X85867500Y31320000D01*
X86162500Y31320000D01*
X86176958Y31319290D01*
G37*
G36*
X75926958Y23069290D02*
G01*
X75941276Y23067166D01*
X75955317Y23063649D01*
X75968946Y23058772D01*
X75982031Y23052583D01*
X75994447Y23045142D01*
X76006073Y23036519D01*
X76016798Y23026798D01*
X76026519Y23016073D01*
X76035142Y23004447D01*
X76042583Y22992031D01*
X76048772Y22978946D01*
X76053649Y22965317D01*
X76057166Y22951276D01*
X76059290Y22936958D01*
X76060000Y22922500D01*
X76060000Y22577500D01*
X76059290Y22563042D01*
X76057166Y22548724D01*
X76053649Y22534683D01*
X76048772Y22521054D01*
X76042583Y22507969D01*
X76035142Y22495553D01*
X76026519Y22483927D01*
X76016798Y22473202D01*
X76006073Y22463481D01*
X75994447Y22454858D01*
X75982031Y22447417D01*
X75968946Y22441228D01*
X75955317Y22436351D01*
X75941276Y22432834D01*
X75926958Y22430710D01*
X75912500Y22430000D01*
X75617500Y22430000D01*
X75603042Y22430710D01*
X75588724Y22432834D01*
X75574683Y22436351D01*
X75561054Y22441228D01*
X75547969Y22447417D01*
X75535553Y22454858D01*
X75523927Y22463481D01*
X75513202Y22473202D01*
X75503481Y22483927D01*
X75494858Y22495553D01*
X75487417Y22507969D01*
X75481228Y22521054D01*
X75476351Y22534683D01*
X75472834Y22548724D01*
X75470710Y22563042D01*
X75470000Y22577500D01*
X75470000Y22922500D01*
X75470710Y22936958D01*
X75472834Y22951276D01*
X75476351Y22965317D01*
X75481228Y22978946D01*
X75487417Y22992031D01*
X75494858Y23004447D01*
X75503481Y23016073D01*
X75513202Y23026798D01*
X75523927Y23036519D01*
X75535553Y23045142D01*
X75547969Y23052583D01*
X75561054Y23058772D01*
X75574683Y23063649D01*
X75588724Y23067166D01*
X75603042Y23069290D01*
X75617500Y23070000D01*
X75912500Y23070000D01*
X75926958Y23069290D01*
G37*
G36*
X76896958Y23069290D02*
G01*
X76911276Y23067166D01*
X76925317Y23063649D01*
X76938946Y23058772D01*
X76952031Y23052583D01*
X76964447Y23045142D01*
X76976073Y23036519D01*
X76986798Y23026798D01*
X76996519Y23016073D01*
X77005142Y23004447D01*
X77012583Y22992031D01*
X77018772Y22978946D01*
X77023649Y22965317D01*
X77027166Y22951276D01*
X77029290Y22936958D01*
X77030000Y22922500D01*
X77030000Y22577500D01*
X77029290Y22563042D01*
X77027166Y22548724D01*
X77023649Y22534683D01*
X77018772Y22521054D01*
X77012583Y22507969D01*
X77005142Y22495553D01*
X76996519Y22483927D01*
X76986798Y22473202D01*
X76976073Y22463481D01*
X76964447Y22454858D01*
X76952031Y22447417D01*
X76938946Y22441228D01*
X76925317Y22436351D01*
X76911276Y22432834D01*
X76896958Y22430710D01*
X76882500Y22430000D01*
X76587500Y22430000D01*
X76573042Y22430710D01*
X76558724Y22432834D01*
X76544683Y22436351D01*
X76531054Y22441228D01*
X76517969Y22447417D01*
X76505553Y22454858D01*
X76493927Y22463481D01*
X76483202Y22473202D01*
X76473481Y22483927D01*
X76464858Y22495553D01*
X76457417Y22507969D01*
X76451228Y22521054D01*
X76446351Y22534683D01*
X76442834Y22548724D01*
X76440710Y22563042D01*
X76440000Y22577500D01*
X76440000Y22922500D01*
X76440710Y22936958D01*
X76442834Y22951276D01*
X76446351Y22965317D01*
X76451228Y22978946D01*
X76457417Y22992031D01*
X76464858Y23004447D01*
X76473481Y23016073D01*
X76483202Y23026798D01*
X76493927Y23036519D01*
X76505553Y23045142D01*
X76517969Y23052583D01*
X76531054Y23058772D01*
X76544683Y23063649D01*
X76558724Y23067166D01*
X76573042Y23069290D01*
X76587500Y23070000D01*
X76882500Y23070000D01*
X76896958Y23069290D01*
G37*
G36*
X85686958Y21559290D02*
G01*
X85701276Y21557166D01*
X85715317Y21553649D01*
X85728946Y21548772D01*
X85742031Y21542583D01*
X85754447Y21535142D01*
X85766073Y21526519D01*
X85776798Y21516798D01*
X85786519Y21506073D01*
X85795142Y21494447D01*
X85802583Y21482031D01*
X85808772Y21468946D01*
X85813649Y21455317D01*
X85817166Y21441276D01*
X85819290Y21426958D01*
X85820000Y21412500D01*
X85820000Y21117500D01*
X85819290Y21103042D01*
X85817166Y21088724D01*
X85813649Y21074683D01*
X85808772Y21061054D01*
X85802583Y21047969D01*
X85795142Y21035553D01*
X85786519Y21023927D01*
X85776798Y21013202D01*
X85766073Y21003481D01*
X85754447Y20994858D01*
X85742031Y20987417D01*
X85728946Y20981228D01*
X85715317Y20976351D01*
X85701276Y20972834D01*
X85686958Y20970710D01*
X85672500Y20970000D01*
X85327500Y20970000D01*
X85313042Y20970710D01*
X85298724Y20972834D01*
X85284683Y20976351D01*
X85271054Y20981228D01*
X85257969Y20987417D01*
X85245553Y20994858D01*
X85233927Y21003481D01*
X85223202Y21013202D01*
X85213481Y21023927D01*
X85204858Y21035553D01*
X85197417Y21047969D01*
X85191228Y21061054D01*
X85186351Y21074683D01*
X85182834Y21088724D01*
X85180710Y21103042D01*
X85180000Y21117500D01*
X85180000Y21412500D01*
X85180710Y21426958D01*
X85182834Y21441276D01*
X85186351Y21455317D01*
X85191228Y21468946D01*
X85197417Y21482031D01*
X85204858Y21494447D01*
X85213481Y21506073D01*
X85223202Y21516798D01*
X85233927Y21526519D01*
X85245553Y21535142D01*
X85257969Y21542583D01*
X85271054Y21548772D01*
X85284683Y21553649D01*
X85298724Y21557166D01*
X85313042Y21559290D01*
X85327500Y21560000D01*
X85672500Y21560000D01*
X85686958Y21559290D01*
G37*
G36*
X85686958Y22529290D02*
G01*
X85701276Y22527166D01*
X85715317Y22523649D01*
X85728946Y22518772D01*
X85742031Y22512583D01*
X85754447Y22505142D01*
X85766073Y22496519D01*
X85776798Y22486798D01*
X85786519Y22476073D01*
X85795142Y22464447D01*
X85802583Y22452031D01*
X85808772Y22438946D01*
X85813649Y22425317D01*
X85817166Y22411276D01*
X85819290Y22396958D01*
X85820000Y22382500D01*
X85820000Y22087500D01*
X85819290Y22073042D01*
X85817166Y22058724D01*
X85813649Y22044683D01*
X85808772Y22031054D01*
X85802583Y22017969D01*
X85795142Y22005553D01*
X85786519Y21993927D01*
X85776798Y21983202D01*
X85766073Y21973481D01*
X85754447Y21964858D01*
X85742031Y21957417D01*
X85728946Y21951228D01*
X85715317Y21946351D01*
X85701276Y21942834D01*
X85686958Y21940710D01*
X85672500Y21940000D01*
X85327500Y21940000D01*
X85313042Y21940710D01*
X85298724Y21942834D01*
X85284683Y21946351D01*
X85271054Y21951228D01*
X85257969Y21957417D01*
X85245553Y21964858D01*
X85233927Y21973481D01*
X85223202Y21983202D01*
X85213481Y21993927D01*
X85204858Y22005553D01*
X85197417Y22017969D01*
X85191228Y22031054D01*
X85186351Y22044683D01*
X85182834Y22058724D01*
X85180710Y22073042D01*
X85180000Y22087500D01*
X85180000Y22382500D01*
X85180710Y22396958D01*
X85182834Y22411276D01*
X85186351Y22425317D01*
X85191228Y22438946D01*
X85197417Y22452031D01*
X85204858Y22464447D01*
X85213481Y22476073D01*
X85223202Y22486798D01*
X85233927Y22496519D01*
X85245553Y22505142D01*
X85257969Y22512583D01*
X85271054Y22518772D01*
X85284683Y22523649D01*
X85298724Y22527166D01*
X85313042Y22529290D01*
X85327500Y22530000D01*
X85672500Y22530000D01*
X85686958Y22529290D01*
G37*
G36*
X80186958Y34029290D02*
G01*
X80201276Y34027166D01*
X80215317Y34023649D01*
X80228946Y34018772D01*
X80242031Y34012583D01*
X80254447Y34005142D01*
X80266073Y33996519D01*
X80276798Y33986798D01*
X80286519Y33976073D01*
X80295142Y33964447D01*
X80302583Y33952031D01*
X80308772Y33938946D01*
X80313649Y33925317D01*
X80317166Y33911276D01*
X80319290Y33896958D01*
X80320000Y33882500D01*
X80320000Y33587500D01*
X80319290Y33573042D01*
X80317166Y33558724D01*
X80313649Y33544683D01*
X80308772Y33531054D01*
X80302583Y33517969D01*
X80295142Y33505553D01*
X80286519Y33493927D01*
X80276798Y33483202D01*
X80266073Y33473481D01*
X80254447Y33464858D01*
X80242031Y33457417D01*
X80228946Y33451228D01*
X80215317Y33446351D01*
X80201276Y33442834D01*
X80186958Y33440710D01*
X80172500Y33440000D01*
X79827500Y33440000D01*
X79813042Y33440710D01*
X79798724Y33442834D01*
X79784683Y33446351D01*
X79771054Y33451228D01*
X79757969Y33457417D01*
X79745553Y33464858D01*
X79733927Y33473481D01*
X79723202Y33483202D01*
X79713481Y33493927D01*
X79704858Y33505553D01*
X79697417Y33517969D01*
X79691228Y33531054D01*
X79686351Y33544683D01*
X79682834Y33558724D01*
X79680710Y33573042D01*
X79680000Y33587500D01*
X79680000Y33882500D01*
X79680710Y33896958D01*
X79682834Y33911276D01*
X79686351Y33925317D01*
X79691228Y33938946D01*
X79697417Y33952031D01*
X79704858Y33964447D01*
X79713481Y33976073D01*
X79723202Y33986798D01*
X79733927Y33996519D01*
X79745553Y34005142D01*
X79757969Y34012583D01*
X79771054Y34018772D01*
X79784683Y34023649D01*
X79798724Y34027166D01*
X79813042Y34029290D01*
X79827500Y34030000D01*
X80172500Y34030000D01*
X80186958Y34029290D01*
G37*
G36*
X80186958Y33059290D02*
G01*
X80201276Y33057166D01*
X80215317Y33053649D01*
X80228946Y33048772D01*
X80242031Y33042583D01*
X80254447Y33035142D01*
X80266073Y33026519D01*
X80276798Y33016798D01*
X80286519Y33006073D01*
X80295142Y32994447D01*
X80302583Y32982031D01*
X80308772Y32968946D01*
X80313649Y32955317D01*
X80317166Y32941276D01*
X80319290Y32926958D01*
X80320000Y32912500D01*
X80320000Y32617500D01*
X80319290Y32603042D01*
X80317166Y32588724D01*
X80313649Y32574683D01*
X80308772Y32561054D01*
X80302583Y32547969D01*
X80295142Y32535553D01*
X80286519Y32523927D01*
X80276798Y32513202D01*
X80266073Y32503481D01*
X80254447Y32494858D01*
X80242031Y32487417D01*
X80228946Y32481228D01*
X80215317Y32476351D01*
X80201276Y32472834D01*
X80186958Y32470710D01*
X80172500Y32470000D01*
X79827500Y32470000D01*
X79813042Y32470710D01*
X79798724Y32472834D01*
X79784683Y32476351D01*
X79771054Y32481228D01*
X79757969Y32487417D01*
X79745553Y32494858D01*
X79733927Y32503481D01*
X79723202Y32513202D01*
X79713481Y32523927D01*
X79704858Y32535553D01*
X79697417Y32547969D01*
X79691228Y32561054D01*
X79686351Y32574683D01*
X79682834Y32588724D01*
X79680710Y32603042D01*
X79680000Y32617500D01*
X79680000Y32912500D01*
X79680710Y32926958D01*
X79682834Y32941276D01*
X79686351Y32955317D01*
X79691228Y32968946D01*
X79697417Y32982031D01*
X79704858Y32994447D01*
X79713481Y33006073D01*
X79723202Y33016798D01*
X79733927Y33026519D01*
X79745553Y33035142D01*
X79757969Y33042583D01*
X79771054Y33048772D01*
X79784683Y33053649D01*
X79798724Y33057166D01*
X79813042Y33059290D01*
X79827500Y33060000D01*
X80172500Y33060000D01*
X80186958Y33059290D01*
G37*
G36*
X75926958Y21819290D02*
G01*
X75941276Y21817166D01*
X75955317Y21813649D01*
X75968946Y21808772D01*
X75982031Y21802583D01*
X75994447Y21795142D01*
X76006073Y21786519D01*
X76016798Y21776798D01*
X76026519Y21766073D01*
X76035142Y21754447D01*
X76042583Y21742031D01*
X76048772Y21728946D01*
X76053649Y21715317D01*
X76057166Y21701276D01*
X76059290Y21686958D01*
X76060000Y21672500D01*
X76060000Y21327500D01*
X76059290Y21313042D01*
X76057166Y21298724D01*
X76053649Y21284683D01*
X76048772Y21271054D01*
X76042583Y21257969D01*
X76035142Y21245553D01*
X76026519Y21233927D01*
X76016798Y21223202D01*
X76006073Y21213481D01*
X75994447Y21204858D01*
X75982031Y21197417D01*
X75968946Y21191228D01*
X75955317Y21186351D01*
X75941276Y21182834D01*
X75926958Y21180710D01*
X75912500Y21180000D01*
X75617500Y21180000D01*
X75603042Y21180710D01*
X75588724Y21182834D01*
X75574683Y21186351D01*
X75561054Y21191228D01*
X75547969Y21197417D01*
X75535553Y21204858D01*
X75523927Y21213481D01*
X75513202Y21223202D01*
X75503481Y21233927D01*
X75494858Y21245553D01*
X75487417Y21257969D01*
X75481228Y21271054D01*
X75476351Y21284683D01*
X75472834Y21298724D01*
X75470710Y21313042D01*
X75470000Y21327500D01*
X75470000Y21672500D01*
X75470710Y21686958D01*
X75472834Y21701276D01*
X75476351Y21715317D01*
X75481228Y21728946D01*
X75487417Y21742031D01*
X75494858Y21754447D01*
X75503481Y21766073D01*
X75513202Y21776798D01*
X75523927Y21786519D01*
X75535553Y21795142D01*
X75547969Y21802583D01*
X75561054Y21808772D01*
X75574683Y21813649D01*
X75588724Y21817166D01*
X75603042Y21819290D01*
X75617500Y21820000D01*
X75912500Y21820000D01*
X75926958Y21819290D01*
G37*
G36*
X76896958Y21819290D02*
G01*
X76911276Y21817166D01*
X76925317Y21813649D01*
X76938946Y21808772D01*
X76952031Y21802583D01*
X76964447Y21795142D01*
X76976073Y21786519D01*
X76986798Y21776798D01*
X76996519Y21766073D01*
X77005142Y21754447D01*
X77012583Y21742031D01*
X77018772Y21728946D01*
X77023649Y21715317D01*
X77027166Y21701276D01*
X77029290Y21686958D01*
X77030000Y21672500D01*
X77030000Y21327500D01*
X77029290Y21313042D01*
X77027166Y21298724D01*
X77023649Y21284683D01*
X77018772Y21271054D01*
X77012583Y21257969D01*
X77005142Y21245553D01*
X76996519Y21233927D01*
X76986798Y21223202D01*
X76976073Y21213481D01*
X76964447Y21204858D01*
X76952031Y21197417D01*
X76938946Y21191228D01*
X76925317Y21186351D01*
X76911276Y21182834D01*
X76896958Y21180710D01*
X76882500Y21180000D01*
X76587500Y21180000D01*
X76573042Y21180710D01*
X76558724Y21182834D01*
X76544683Y21186351D01*
X76531054Y21191228D01*
X76517969Y21197417D01*
X76505553Y21204858D01*
X76493927Y21213481D01*
X76483202Y21223202D01*
X76473481Y21233927D01*
X76464858Y21245553D01*
X76457417Y21257969D01*
X76451228Y21271054D01*
X76446351Y21284683D01*
X76442834Y21298724D01*
X76440710Y21313042D01*
X76440000Y21327500D01*
X76440000Y21672500D01*
X76440710Y21686958D01*
X76442834Y21701276D01*
X76446351Y21715317D01*
X76451228Y21728946D01*
X76457417Y21742031D01*
X76464858Y21754447D01*
X76473481Y21766073D01*
X76483202Y21776798D01*
X76493927Y21786519D01*
X76505553Y21795142D01*
X76517969Y21802583D01*
X76531054Y21808772D01*
X76544683Y21813649D01*
X76558724Y21817166D01*
X76573042Y21819290D01*
X76587500Y21820000D01*
X76882500Y21820000D01*
X76896958Y21819290D01*
G37*
G36*
X86936958Y21559290D02*
G01*
X86951276Y21557166D01*
X86965317Y21553649D01*
X86978946Y21548772D01*
X86992031Y21542583D01*
X87004447Y21535142D01*
X87016073Y21526519D01*
X87026798Y21516798D01*
X87036519Y21506073D01*
X87045142Y21494447D01*
X87052583Y21482031D01*
X87058772Y21468946D01*
X87063649Y21455317D01*
X87067166Y21441276D01*
X87069290Y21426958D01*
X87070000Y21412500D01*
X87070000Y21117500D01*
X87069290Y21103042D01*
X87067166Y21088724D01*
X87063649Y21074683D01*
X87058772Y21061054D01*
X87052583Y21047969D01*
X87045142Y21035553D01*
X87036519Y21023927D01*
X87026798Y21013202D01*
X87016073Y21003481D01*
X87004447Y20994858D01*
X86992031Y20987417D01*
X86978946Y20981228D01*
X86965317Y20976351D01*
X86951276Y20972834D01*
X86936958Y20970710D01*
X86922500Y20970000D01*
X86577500Y20970000D01*
X86563042Y20970710D01*
X86548724Y20972834D01*
X86534683Y20976351D01*
X86521054Y20981228D01*
X86507969Y20987417D01*
X86495553Y20994858D01*
X86483927Y21003481D01*
X86473202Y21013202D01*
X86463481Y21023927D01*
X86454858Y21035553D01*
X86447417Y21047969D01*
X86441228Y21061054D01*
X86436351Y21074683D01*
X86432834Y21088724D01*
X86430710Y21103042D01*
X86430000Y21117500D01*
X86430000Y21412500D01*
X86430710Y21426958D01*
X86432834Y21441276D01*
X86436351Y21455317D01*
X86441228Y21468946D01*
X86447417Y21482031D01*
X86454858Y21494447D01*
X86463481Y21506073D01*
X86473202Y21516798D01*
X86483927Y21526519D01*
X86495553Y21535142D01*
X86507969Y21542583D01*
X86521054Y21548772D01*
X86534683Y21553649D01*
X86548724Y21557166D01*
X86563042Y21559290D01*
X86577500Y21560000D01*
X86922500Y21560000D01*
X86936958Y21559290D01*
G37*
G36*
X86936958Y22529290D02*
G01*
X86951276Y22527166D01*
X86965317Y22523649D01*
X86978946Y22518772D01*
X86992031Y22512583D01*
X87004447Y22505142D01*
X87016073Y22496519D01*
X87026798Y22486798D01*
X87036519Y22476073D01*
X87045142Y22464447D01*
X87052583Y22452031D01*
X87058772Y22438946D01*
X87063649Y22425317D01*
X87067166Y22411276D01*
X87069290Y22396958D01*
X87070000Y22382500D01*
X87070000Y22087500D01*
X87069290Y22073042D01*
X87067166Y22058724D01*
X87063649Y22044683D01*
X87058772Y22031054D01*
X87052583Y22017969D01*
X87045142Y22005553D01*
X87036519Y21993927D01*
X87026798Y21983202D01*
X87016073Y21973481D01*
X87004447Y21964858D01*
X86992031Y21957417D01*
X86978946Y21951228D01*
X86965317Y21946351D01*
X86951276Y21942834D01*
X86936958Y21940710D01*
X86922500Y21940000D01*
X86577500Y21940000D01*
X86563042Y21940710D01*
X86548724Y21942834D01*
X86534683Y21946351D01*
X86521054Y21951228D01*
X86507969Y21957417D01*
X86495553Y21964858D01*
X86483927Y21973481D01*
X86473202Y21983202D01*
X86463481Y21993927D01*
X86454858Y22005553D01*
X86447417Y22017969D01*
X86441228Y22031054D01*
X86436351Y22044683D01*
X86432834Y22058724D01*
X86430710Y22073042D01*
X86430000Y22087500D01*
X86430000Y22382500D01*
X86430710Y22396958D01*
X86432834Y22411276D01*
X86436351Y22425317D01*
X86441228Y22438946D01*
X86447417Y22452031D01*
X86454858Y22464447D01*
X86463481Y22476073D01*
X86473202Y22486798D01*
X86483927Y22496519D01*
X86495553Y22505142D01*
X86507969Y22512583D01*
X86521054Y22518772D01*
X86534683Y22523649D01*
X86548724Y22527166D01*
X86563042Y22529290D01*
X86577500Y22530000D01*
X86922500Y22530000D01*
X86936958Y22529290D01*
G37*
G36*
X69686958Y17059290D02*
G01*
X69701276Y17057166D01*
X69715317Y17053649D01*
X69728946Y17048772D01*
X69742031Y17042583D01*
X69754447Y17035142D01*
X69766073Y17026519D01*
X69776798Y17016798D01*
X69786519Y17006073D01*
X69795142Y16994447D01*
X69802583Y16982031D01*
X69808772Y16968946D01*
X69813649Y16955317D01*
X69817166Y16941276D01*
X69819290Y16926958D01*
X69820000Y16912500D01*
X69820000Y16617500D01*
X69819290Y16603042D01*
X69817166Y16588724D01*
X69813649Y16574683D01*
X69808772Y16561054D01*
X69802583Y16547969D01*
X69795142Y16535553D01*
X69786519Y16523927D01*
X69776798Y16513202D01*
X69766073Y16503481D01*
X69754447Y16494858D01*
X69742031Y16487417D01*
X69728946Y16481228D01*
X69715317Y16476351D01*
X69701276Y16472834D01*
X69686958Y16470710D01*
X69672500Y16470000D01*
X69327500Y16470000D01*
X69313042Y16470710D01*
X69298724Y16472834D01*
X69284683Y16476351D01*
X69271054Y16481228D01*
X69257969Y16487417D01*
X69245553Y16494858D01*
X69233927Y16503481D01*
X69223202Y16513202D01*
X69213481Y16523927D01*
X69204858Y16535553D01*
X69197417Y16547969D01*
X69191228Y16561054D01*
X69186351Y16574683D01*
X69182834Y16588724D01*
X69180710Y16603042D01*
X69180000Y16617500D01*
X69180000Y16912500D01*
X69180710Y16926958D01*
X69182834Y16941276D01*
X69186351Y16955317D01*
X69191228Y16968946D01*
X69197417Y16982031D01*
X69204858Y16994447D01*
X69213481Y17006073D01*
X69223202Y17016798D01*
X69233927Y17026519D01*
X69245553Y17035142D01*
X69257969Y17042583D01*
X69271054Y17048772D01*
X69284683Y17053649D01*
X69298724Y17057166D01*
X69313042Y17059290D01*
X69327500Y17060000D01*
X69672500Y17060000D01*
X69686958Y17059290D01*
G37*
G36*
X69686958Y18029290D02*
G01*
X69701276Y18027166D01*
X69715317Y18023649D01*
X69728946Y18018772D01*
X69742031Y18012583D01*
X69754447Y18005142D01*
X69766073Y17996519D01*
X69776798Y17986798D01*
X69786519Y17976073D01*
X69795142Y17964447D01*
X69802583Y17952031D01*
X69808772Y17938946D01*
X69813649Y17925317D01*
X69817166Y17911276D01*
X69819290Y17896958D01*
X69820000Y17882500D01*
X69820000Y17587500D01*
X69819290Y17573042D01*
X69817166Y17558724D01*
X69813649Y17544683D01*
X69808772Y17531054D01*
X69802583Y17517969D01*
X69795142Y17505553D01*
X69786519Y17493927D01*
X69776798Y17483202D01*
X69766073Y17473481D01*
X69754447Y17464858D01*
X69742031Y17457417D01*
X69728946Y17451228D01*
X69715317Y17446351D01*
X69701276Y17442834D01*
X69686958Y17440710D01*
X69672500Y17440000D01*
X69327500Y17440000D01*
X69313042Y17440710D01*
X69298724Y17442834D01*
X69284683Y17446351D01*
X69271054Y17451228D01*
X69257969Y17457417D01*
X69245553Y17464858D01*
X69233927Y17473481D01*
X69223202Y17483202D01*
X69213481Y17493927D01*
X69204858Y17505553D01*
X69197417Y17517969D01*
X69191228Y17531054D01*
X69186351Y17544683D01*
X69182834Y17558724D01*
X69180710Y17573042D01*
X69180000Y17587500D01*
X69180000Y17882500D01*
X69180710Y17896958D01*
X69182834Y17911276D01*
X69186351Y17925317D01*
X69191228Y17938946D01*
X69197417Y17952031D01*
X69204858Y17964447D01*
X69213481Y17976073D01*
X69223202Y17986798D01*
X69233927Y17996519D01*
X69245553Y18005142D01*
X69257969Y18012583D01*
X69271054Y18018772D01*
X69284683Y18023649D01*
X69298724Y18027166D01*
X69313042Y18029290D01*
X69327500Y18030000D01*
X69672500Y18030000D01*
X69686958Y18029290D01*
G37*
G36*
X74686958Y18029290D02*
G01*
X74701276Y18027166D01*
X74715317Y18023649D01*
X74728946Y18018772D01*
X74742031Y18012583D01*
X74754447Y18005142D01*
X74766073Y17996519D01*
X74776798Y17986798D01*
X74786519Y17976073D01*
X74795142Y17964447D01*
X74802583Y17952031D01*
X74808772Y17938946D01*
X74813649Y17925317D01*
X74817166Y17911276D01*
X74819290Y17896958D01*
X74820000Y17882500D01*
X74820000Y17587500D01*
X74819290Y17573042D01*
X74817166Y17558724D01*
X74813649Y17544683D01*
X74808772Y17531054D01*
X74802583Y17517969D01*
X74795142Y17505553D01*
X74786519Y17493927D01*
X74776798Y17483202D01*
X74766073Y17473481D01*
X74754447Y17464858D01*
X74742031Y17457417D01*
X74728946Y17451228D01*
X74715317Y17446351D01*
X74701276Y17442834D01*
X74686958Y17440710D01*
X74672500Y17440000D01*
X74327500Y17440000D01*
X74313042Y17440710D01*
X74298724Y17442834D01*
X74284683Y17446351D01*
X74271054Y17451228D01*
X74257969Y17457417D01*
X74245553Y17464858D01*
X74233927Y17473481D01*
X74223202Y17483202D01*
X74213481Y17493927D01*
X74204858Y17505553D01*
X74197417Y17517969D01*
X74191228Y17531054D01*
X74186351Y17544683D01*
X74182834Y17558724D01*
X74180710Y17573042D01*
X74180000Y17587500D01*
X74180000Y17882500D01*
X74180710Y17896958D01*
X74182834Y17911276D01*
X74186351Y17925317D01*
X74191228Y17938946D01*
X74197417Y17952031D01*
X74204858Y17964447D01*
X74213481Y17976073D01*
X74223202Y17986798D01*
X74233927Y17996519D01*
X74245553Y18005142D01*
X74257969Y18012583D01*
X74271054Y18018772D01*
X74284683Y18023649D01*
X74298724Y18027166D01*
X74313042Y18029290D01*
X74327500Y18030000D01*
X74672500Y18030000D01*
X74686958Y18029290D01*
G37*
G36*
X74686958Y17059290D02*
G01*
X74701276Y17057166D01*
X74715317Y17053649D01*
X74728946Y17048772D01*
X74742031Y17042583D01*
X74754447Y17035142D01*
X74766073Y17026519D01*
X74776798Y17016798D01*
X74786519Y17006073D01*
X74795142Y16994447D01*
X74802583Y16982031D01*
X74808772Y16968946D01*
X74813649Y16955317D01*
X74817166Y16941276D01*
X74819290Y16926958D01*
X74820000Y16912500D01*
X74820000Y16617500D01*
X74819290Y16603042D01*
X74817166Y16588724D01*
X74813649Y16574683D01*
X74808772Y16561054D01*
X74802583Y16547969D01*
X74795142Y16535553D01*
X74786519Y16523927D01*
X74776798Y16513202D01*
X74766073Y16503481D01*
X74754447Y16494858D01*
X74742031Y16487417D01*
X74728946Y16481228D01*
X74715317Y16476351D01*
X74701276Y16472834D01*
X74686958Y16470710D01*
X74672500Y16470000D01*
X74327500Y16470000D01*
X74313042Y16470710D01*
X74298724Y16472834D01*
X74284683Y16476351D01*
X74271054Y16481228D01*
X74257969Y16487417D01*
X74245553Y16494858D01*
X74233927Y16503481D01*
X74223202Y16513202D01*
X74213481Y16523927D01*
X74204858Y16535553D01*
X74197417Y16547969D01*
X74191228Y16561054D01*
X74186351Y16574683D01*
X74182834Y16588724D01*
X74180710Y16603042D01*
X74180000Y16617500D01*
X74180000Y16912500D01*
X74180710Y16926958D01*
X74182834Y16941276D01*
X74186351Y16955317D01*
X74191228Y16968946D01*
X74197417Y16982031D01*
X74204858Y16994447D01*
X74213481Y17006073D01*
X74223202Y17016798D01*
X74233927Y17026519D01*
X74245553Y17035142D01*
X74257969Y17042583D01*
X74271054Y17048772D01*
X74284683Y17053649D01*
X74298724Y17057166D01*
X74313042Y17059290D01*
X74327500Y17060000D01*
X74672500Y17060000D01*
X74686958Y17059290D01*
G37*
G36*
X81686958Y18029290D02*
G01*
X81701276Y18027166D01*
X81715317Y18023649D01*
X81728946Y18018772D01*
X81742031Y18012583D01*
X81754447Y18005142D01*
X81766073Y17996519D01*
X81776798Y17986798D01*
X81786519Y17976073D01*
X81795142Y17964447D01*
X81802583Y17952031D01*
X81808772Y17938946D01*
X81813649Y17925317D01*
X81817166Y17911276D01*
X81819290Y17896958D01*
X81820000Y17882500D01*
X81820000Y17587500D01*
X81819290Y17573042D01*
X81817166Y17558724D01*
X81813649Y17544683D01*
X81808772Y17531054D01*
X81802583Y17517969D01*
X81795142Y17505553D01*
X81786519Y17493927D01*
X81776798Y17483202D01*
X81766073Y17473481D01*
X81754447Y17464858D01*
X81742031Y17457417D01*
X81728946Y17451228D01*
X81715317Y17446351D01*
X81701276Y17442834D01*
X81686958Y17440710D01*
X81672500Y17440000D01*
X81327500Y17440000D01*
X81313042Y17440710D01*
X81298724Y17442834D01*
X81284683Y17446351D01*
X81271054Y17451228D01*
X81257969Y17457417D01*
X81245553Y17464858D01*
X81233927Y17473481D01*
X81223202Y17483202D01*
X81213481Y17493927D01*
X81204858Y17505553D01*
X81197417Y17517969D01*
X81191228Y17531054D01*
X81186351Y17544683D01*
X81182834Y17558724D01*
X81180710Y17573042D01*
X81180000Y17587500D01*
X81180000Y17882500D01*
X81180710Y17896958D01*
X81182834Y17911276D01*
X81186351Y17925317D01*
X81191228Y17938946D01*
X81197417Y17952031D01*
X81204858Y17964447D01*
X81213481Y17976073D01*
X81223202Y17986798D01*
X81233927Y17996519D01*
X81245553Y18005142D01*
X81257969Y18012583D01*
X81271054Y18018772D01*
X81284683Y18023649D01*
X81298724Y18027166D01*
X81313042Y18029290D01*
X81327500Y18030000D01*
X81672500Y18030000D01*
X81686958Y18029290D01*
G37*
G36*
X81686958Y17059290D02*
G01*
X81701276Y17057166D01*
X81715317Y17053649D01*
X81728946Y17048772D01*
X81742031Y17042583D01*
X81754447Y17035142D01*
X81766073Y17026519D01*
X81776798Y17016798D01*
X81786519Y17006073D01*
X81795142Y16994447D01*
X81802583Y16982031D01*
X81808772Y16968946D01*
X81813649Y16955317D01*
X81817166Y16941276D01*
X81819290Y16926958D01*
X81820000Y16912500D01*
X81820000Y16617500D01*
X81819290Y16603042D01*
X81817166Y16588724D01*
X81813649Y16574683D01*
X81808772Y16561054D01*
X81802583Y16547969D01*
X81795142Y16535553D01*
X81786519Y16523927D01*
X81776798Y16513202D01*
X81766073Y16503481D01*
X81754447Y16494858D01*
X81742031Y16487417D01*
X81728946Y16481228D01*
X81715317Y16476351D01*
X81701276Y16472834D01*
X81686958Y16470710D01*
X81672500Y16470000D01*
X81327500Y16470000D01*
X81313042Y16470710D01*
X81298724Y16472834D01*
X81284683Y16476351D01*
X81271054Y16481228D01*
X81257969Y16487417D01*
X81245553Y16494858D01*
X81233927Y16503481D01*
X81223202Y16513202D01*
X81213481Y16523927D01*
X81204858Y16535553D01*
X81197417Y16547969D01*
X81191228Y16561054D01*
X81186351Y16574683D01*
X81182834Y16588724D01*
X81180710Y16603042D01*
X81180000Y16617500D01*
X81180000Y16912500D01*
X81180710Y16926958D01*
X81182834Y16941276D01*
X81186351Y16955317D01*
X81191228Y16968946D01*
X81197417Y16982031D01*
X81204858Y16994447D01*
X81213481Y17006073D01*
X81223202Y17016798D01*
X81233927Y17026519D01*
X81245553Y17035142D01*
X81257969Y17042583D01*
X81271054Y17048772D01*
X81284683Y17053649D01*
X81298724Y17057166D01*
X81313042Y17059290D01*
X81327500Y17060000D01*
X81672500Y17060000D01*
X81686958Y17059290D01*
G37*
D15*
X85250000Y7045000D03*
X84450000Y7045000D03*
X79550000Y7045000D03*
X78750000Y7045000D03*
X78750000Y7045000D03*
X79550000Y7045000D03*
X84450000Y7045000D03*
X85250000Y7045000D03*
D16*
X80250000Y7045000D03*
X80750000Y7045000D03*
X81250000Y7045000D03*
X82250000Y7045000D03*
X82750000Y7045000D03*
X83250000Y7045000D03*
X83750000Y7045000D03*
X81750000Y7045000D03*
D17*
X83000000Y36250000D03*
X80500000Y36250000D03*
D10*
G36*
X88186958Y16029290D02*
G01*
X88201276Y16027166D01*
X88215317Y16023649D01*
X88228946Y16018772D01*
X88242031Y16012583D01*
X88254447Y16005142D01*
X88266073Y15996519D01*
X88276798Y15986798D01*
X88286519Y15976073D01*
X88295142Y15964447D01*
X88302583Y15952031D01*
X88308772Y15938946D01*
X88313649Y15925317D01*
X88317166Y15911276D01*
X88319290Y15896958D01*
X88320000Y15882500D01*
X88320000Y15587500D01*
X88319290Y15573042D01*
X88317166Y15558724D01*
X88313649Y15544683D01*
X88308772Y15531054D01*
X88302583Y15517969D01*
X88295142Y15505553D01*
X88286519Y15493927D01*
X88276798Y15483202D01*
X88266073Y15473481D01*
X88254447Y15464858D01*
X88242031Y15457417D01*
X88228946Y15451228D01*
X88215317Y15446351D01*
X88201276Y15442834D01*
X88186958Y15440710D01*
X88172500Y15440000D01*
X87827500Y15440000D01*
X87813042Y15440710D01*
X87798724Y15442834D01*
X87784683Y15446351D01*
X87771054Y15451228D01*
X87757969Y15457417D01*
X87745553Y15464858D01*
X87733927Y15473481D01*
X87723202Y15483202D01*
X87713481Y15493927D01*
X87704858Y15505553D01*
X87697417Y15517969D01*
X87691228Y15531054D01*
X87686351Y15544683D01*
X87682834Y15558724D01*
X87680710Y15573042D01*
X87680000Y15587500D01*
X87680000Y15882500D01*
X87680710Y15896958D01*
X87682834Y15911276D01*
X87686351Y15925317D01*
X87691228Y15938946D01*
X87697417Y15952031D01*
X87704858Y15964447D01*
X87713481Y15976073D01*
X87723202Y15986798D01*
X87733927Y15996519D01*
X87745553Y16005142D01*
X87757969Y16012583D01*
X87771054Y16018772D01*
X87784683Y16023649D01*
X87798724Y16027166D01*
X87813042Y16029290D01*
X87827500Y16030000D01*
X88172500Y16030000D01*
X88186958Y16029290D01*
G37*
G36*
X88186958Y15059290D02*
G01*
X88201276Y15057166D01*
X88215317Y15053649D01*
X88228946Y15048772D01*
X88242031Y15042583D01*
X88254447Y15035142D01*
X88266073Y15026519D01*
X88276798Y15016798D01*
X88286519Y15006073D01*
X88295142Y14994447D01*
X88302583Y14982031D01*
X88308772Y14968946D01*
X88313649Y14955317D01*
X88317166Y14941276D01*
X88319290Y14926958D01*
X88320000Y14912500D01*
X88320000Y14617500D01*
X88319290Y14603042D01*
X88317166Y14588724D01*
X88313649Y14574683D01*
X88308772Y14561054D01*
X88302583Y14547969D01*
X88295142Y14535553D01*
X88286519Y14523927D01*
X88276798Y14513202D01*
X88266073Y14503481D01*
X88254447Y14494858D01*
X88242031Y14487417D01*
X88228946Y14481228D01*
X88215317Y14476351D01*
X88201276Y14472834D01*
X88186958Y14470710D01*
X88172500Y14470000D01*
X87827500Y14470000D01*
X87813042Y14470710D01*
X87798724Y14472834D01*
X87784683Y14476351D01*
X87771054Y14481228D01*
X87757969Y14487417D01*
X87745553Y14494858D01*
X87733927Y14503481D01*
X87723202Y14513202D01*
X87713481Y14523927D01*
X87704858Y14535553D01*
X87697417Y14547969D01*
X87691228Y14561054D01*
X87686351Y14574683D01*
X87682834Y14588724D01*
X87680710Y14603042D01*
X87680000Y14617500D01*
X87680000Y14912500D01*
X87680710Y14926958D01*
X87682834Y14941276D01*
X87686351Y14955317D01*
X87691228Y14968946D01*
X87697417Y14982031D01*
X87704858Y14994447D01*
X87713481Y15006073D01*
X87723202Y15016798D01*
X87733927Y15026519D01*
X87745553Y15035142D01*
X87757969Y15042583D01*
X87771054Y15048772D01*
X87784683Y15053649D01*
X87798724Y15057166D01*
X87813042Y15059290D01*
X87827500Y15060000D01*
X88172500Y15060000D01*
X88186958Y15059290D01*
G37*
G36*
X88186958Y17059290D02*
G01*
X88201276Y17057166D01*
X88215317Y17053649D01*
X88228946Y17048772D01*
X88242031Y17042583D01*
X88254447Y17035142D01*
X88266073Y17026519D01*
X88276798Y17016798D01*
X88286519Y17006073D01*
X88295142Y16994447D01*
X88302583Y16982031D01*
X88308772Y16968946D01*
X88313649Y16955317D01*
X88317166Y16941276D01*
X88319290Y16926958D01*
X88320000Y16912500D01*
X88320000Y16617500D01*
X88319290Y16603042D01*
X88317166Y16588724D01*
X88313649Y16574683D01*
X88308772Y16561054D01*
X88302583Y16547969D01*
X88295142Y16535553D01*
X88286519Y16523927D01*
X88276798Y16513202D01*
X88266073Y16503481D01*
X88254447Y16494858D01*
X88242031Y16487417D01*
X88228946Y16481228D01*
X88215317Y16476351D01*
X88201276Y16472834D01*
X88186958Y16470710D01*
X88172500Y16470000D01*
X87827500Y16470000D01*
X87813042Y16470710D01*
X87798724Y16472834D01*
X87784683Y16476351D01*
X87771054Y16481228D01*
X87757969Y16487417D01*
X87745553Y16494858D01*
X87733927Y16503481D01*
X87723202Y16513202D01*
X87713481Y16523927D01*
X87704858Y16535553D01*
X87697417Y16547969D01*
X87691228Y16561054D01*
X87686351Y16574683D01*
X87682834Y16588724D01*
X87680710Y16603042D01*
X87680000Y16617500D01*
X87680000Y16912500D01*
X87680710Y16926958D01*
X87682834Y16941276D01*
X87686351Y16955317D01*
X87691228Y16968946D01*
X87697417Y16982031D01*
X87704858Y16994447D01*
X87713481Y17006073D01*
X87723202Y17016798D01*
X87733927Y17026519D01*
X87745553Y17035142D01*
X87757969Y17042583D01*
X87771054Y17048772D01*
X87784683Y17053649D01*
X87798724Y17057166D01*
X87813042Y17059290D01*
X87827500Y17060000D01*
X88172500Y17060000D01*
X88186958Y17059290D01*
G37*
G36*
X88186958Y18029290D02*
G01*
X88201276Y18027166D01*
X88215317Y18023649D01*
X88228946Y18018772D01*
X88242031Y18012583D01*
X88254447Y18005142D01*
X88266073Y17996519D01*
X88276798Y17986798D01*
X88286519Y17976073D01*
X88295142Y17964447D01*
X88302583Y17952031D01*
X88308772Y17938946D01*
X88313649Y17925317D01*
X88317166Y17911276D01*
X88319290Y17896958D01*
X88320000Y17882500D01*
X88320000Y17587500D01*
X88319290Y17573042D01*
X88317166Y17558724D01*
X88313649Y17544683D01*
X88308772Y17531054D01*
X88302583Y17517969D01*
X88295142Y17505553D01*
X88286519Y17493927D01*
X88276798Y17483202D01*
X88266073Y17473481D01*
X88254447Y17464858D01*
X88242031Y17457417D01*
X88228946Y17451228D01*
X88215317Y17446351D01*
X88201276Y17442834D01*
X88186958Y17440710D01*
X88172500Y17440000D01*
X87827500Y17440000D01*
X87813042Y17440710D01*
X87798724Y17442834D01*
X87784683Y17446351D01*
X87771054Y17451228D01*
X87757969Y17457417D01*
X87745553Y17464858D01*
X87733927Y17473481D01*
X87723202Y17483202D01*
X87713481Y17493927D01*
X87704858Y17505553D01*
X87697417Y17517969D01*
X87691228Y17531054D01*
X87686351Y17544683D01*
X87682834Y17558724D01*
X87680710Y17573042D01*
X87680000Y17587500D01*
X87680000Y17882500D01*
X87680710Y17896958D01*
X87682834Y17911276D01*
X87686351Y17925317D01*
X87691228Y17938946D01*
X87697417Y17952031D01*
X87704858Y17964447D01*
X87713481Y17976073D01*
X87723202Y17986798D01*
X87733927Y17996519D01*
X87745553Y18005142D01*
X87757969Y18012583D01*
X87771054Y18018772D01*
X87784683Y18023649D01*
X87798724Y18027166D01*
X87813042Y18029290D01*
X87827500Y18030000D01*
X88172500Y18030000D01*
X88186958Y18029290D01*
G37*
G36*
X83186958Y17059290D02*
G01*
X83201276Y17057166D01*
X83215317Y17053649D01*
X83228946Y17048772D01*
X83242031Y17042583D01*
X83254447Y17035142D01*
X83266073Y17026519D01*
X83276798Y17016798D01*
X83286519Y17006073D01*
X83295142Y16994447D01*
X83302583Y16982031D01*
X83308772Y16968946D01*
X83313649Y16955317D01*
X83317166Y16941276D01*
X83319290Y16926958D01*
X83320000Y16912500D01*
X83320000Y16617500D01*
X83319290Y16603042D01*
X83317166Y16588724D01*
X83313649Y16574683D01*
X83308772Y16561054D01*
X83302583Y16547969D01*
X83295142Y16535553D01*
X83286519Y16523927D01*
X83276798Y16513202D01*
X83266073Y16503481D01*
X83254447Y16494858D01*
X83242031Y16487417D01*
X83228946Y16481228D01*
X83215317Y16476351D01*
X83201276Y16472834D01*
X83186958Y16470710D01*
X83172500Y16470000D01*
X82827500Y16470000D01*
X82813042Y16470710D01*
X82798724Y16472834D01*
X82784683Y16476351D01*
X82771054Y16481228D01*
X82757969Y16487417D01*
X82745553Y16494858D01*
X82733927Y16503481D01*
X82723202Y16513202D01*
X82713481Y16523927D01*
X82704858Y16535553D01*
X82697417Y16547969D01*
X82691228Y16561054D01*
X82686351Y16574683D01*
X82682834Y16588724D01*
X82680710Y16603042D01*
X82680000Y16617500D01*
X82680000Y16912500D01*
X82680710Y16926958D01*
X82682834Y16941276D01*
X82686351Y16955317D01*
X82691228Y16968946D01*
X82697417Y16982031D01*
X82704858Y16994447D01*
X82713481Y17006073D01*
X82723202Y17016798D01*
X82733927Y17026519D01*
X82745553Y17035142D01*
X82757969Y17042583D01*
X82771054Y17048772D01*
X82784683Y17053649D01*
X82798724Y17057166D01*
X82813042Y17059290D01*
X82827500Y17060000D01*
X83172500Y17060000D01*
X83186958Y17059290D01*
G37*
G36*
X83186958Y18029290D02*
G01*
X83201276Y18027166D01*
X83215317Y18023649D01*
X83228946Y18018772D01*
X83242031Y18012583D01*
X83254447Y18005142D01*
X83266073Y17996519D01*
X83276798Y17986798D01*
X83286519Y17976073D01*
X83295142Y17964447D01*
X83302583Y17952031D01*
X83308772Y17938946D01*
X83313649Y17925317D01*
X83317166Y17911276D01*
X83319290Y17896958D01*
X83320000Y17882500D01*
X83320000Y17587500D01*
X83319290Y17573042D01*
X83317166Y17558724D01*
X83313649Y17544683D01*
X83308772Y17531054D01*
X83302583Y17517969D01*
X83295142Y17505553D01*
X83286519Y17493927D01*
X83276798Y17483202D01*
X83266073Y17473481D01*
X83254447Y17464858D01*
X83242031Y17457417D01*
X83228946Y17451228D01*
X83215317Y17446351D01*
X83201276Y17442834D01*
X83186958Y17440710D01*
X83172500Y17440000D01*
X82827500Y17440000D01*
X82813042Y17440710D01*
X82798724Y17442834D01*
X82784683Y17446351D01*
X82771054Y17451228D01*
X82757969Y17457417D01*
X82745553Y17464858D01*
X82733927Y17473481D01*
X82723202Y17483202D01*
X82713481Y17493927D01*
X82704858Y17505553D01*
X82697417Y17517969D01*
X82691228Y17531054D01*
X82686351Y17544683D01*
X82682834Y17558724D01*
X82680710Y17573042D01*
X82680000Y17587500D01*
X82680000Y17882500D01*
X82680710Y17896958D01*
X82682834Y17911276D01*
X82686351Y17925317D01*
X82691228Y17938946D01*
X82697417Y17952031D01*
X82704858Y17964447D01*
X82713481Y17976073D01*
X82723202Y17986798D01*
X82733927Y17996519D01*
X82745553Y18005142D01*
X82757969Y18012583D01*
X82771054Y18018772D01*
X82784683Y18023649D01*
X82798724Y18027166D01*
X82813042Y18029290D01*
X82827500Y18030000D01*
X83172500Y18030000D01*
X83186958Y18029290D01*
G37*
G36*
X89436958Y17059290D02*
G01*
X89451276Y17057166D01*
X89465317Y17053649D01*
X89478946Y17048772D01*
X89492031Y17042583D01*
X89504447Y17035142D01*
X89516073Y17026519D01*
X89526798Y17016798D01*
X89536519Y17006073D01*
X89545142Y16994447D01*
X89552583Y16982031D01*
X89558772Y16968946D01*
X89563649Y16955317D01*
X89567166Y16941276D01*
X89569290Y16926958D01*
X89570000Y16912500D01*
X89570000Y16617500D01*
X89569290Y16603042D01*
X89567166Y16588724D01*
X89563649Y16574683D01*
X89558772Y16561054D01*
X89552583Y16547969D01*
X89545142Y16535553D01*
X89536519Y16523927D01*
X89526798Y16513202D01*
X89516073Y16503481D01*
X89504447Y16494858D01*
X89492031Y16487417D01*
X89478946Y16481228D01*
X89465317Y16476351D01*
X89451276Y16472834D01*
X89436958Y16470710D01*
X89422500Y16470000D01*
X89077500Y16470000D01*
X89063042Y16470710D01*
X89048724Y16472834D01*
X89034683Y16476351D01*
X89021054Y16481228D01*
X89007969Y16487417D01*
X88995553Y16494858D01*
X88983927Y16503481D01*
X88973202Y16513202D01*
X88963481Y16523927D01*
X88954858Y16535553D01*
X88947417Y16547969D01*
X88941228Y16561054D01*
X88936351Y16574683D01*
X88932834Y16588724D01*
X88930710Y16603042D01*
X88930000Y16617500D01*
X88930000Y16912500D01*
X88930710Y16926958D01*
X88932834Y16941276D01*
X88936351Y16955317D01*
X88941228Y16968946D01*
X88947417Y16982031D01*
X88954858Y16994447D01*
X88963481Y17006073D01*
X88973202Y17016798D01*
X88983927Y17026519D01*
X88995553Y17035142D01*
X89007969Y17042583D01*
X89021054Y17048772D01*
X89034683Y17053649D01*
X89048724Y17057166D01*
X89063042Y17059290D01*
X89077500Y17060000D01*
X89422500Y17060000D01*
X89436958Y17059290D01*
G37*
G36*
X89436958Y18029290D02*
G01*
X89451276Y18027166D01*
X89465317Y18023649D01*
X89478946Y18018772D01*
X89492031Y18012583D01*
X89504447Y18005142D01*
X89516073Y17996519D01*
X89526798Y17986798D01*
X89536519Y17976073D01*
X89545142Y17964447D01*
X89552583Y17952031D01*
X89558772Y17938946D01*
X89563649Y17925317D01*
X89567166Y17911276D01*
X89569290Y17896958D01*
X89570000Y17882500D01*
X89570000Y17587500D01*
X89569290Y17573042D01*
X89567166Y17558724D01*
X89563649Y17544683D01*
X89558772Y17531054D01*
X89552583Y17517969D01*
X89545142Y17505553D01*
X89536519Y17493927D01*
X89526798Y17483202D01*
X89516073Y17473481D01*
X89504447Y17464858D01*
X89492031Y17457417D01*
X89478946Y17451228D01*
X89465317Y17446351D01*
X89451276Y17442834D01*
X89436958Y17440710D01*
X89422500Y17440000D01*
X89077500Y17440000D01*
X89063042Y17440710D01*
X89048724Y17442834D01*
X89034683Y17446351D01*
X89021054Y17451228D01*
X89007969Y17457417D01*
X88995553Y17464858D01*
X88983927Y17473481D01*
X88973202Y17483202D01*
X88963481Y17493927D01*
X88954858Y17505553D01*
X88947417Y17517969D01*
X88941228Y17531054D01*
X88936351Y17544683D01*
X88932834Y17558724D01*
X88930710Y17573042D01*
X88930000Y17587500D01*
X88930000Y17882500D01*
X88930710Y17896958D01*
X88932834Y17911276D01*
X88936351Y17925317D01*
X88941228Y17938946D01*
X88947417Y17952031D01*
X88954858Y17964447D01*
X88963481Y17976073D01*
X88973202Y17986798D01*
X88983927Y17996519D01*
X88995553Y18005142D01*
X89007969Y18012583D01*
X89021054Y18018772D01*
X89034683Y18023649D01*
X89048724Y18027166D01*
X89063042Y18029290D01*
X89077500Y18030000D01*
X89422500Y18030000D01*
X89436958Y18029290D01*
G37*
G36*
X81686958Y33059290D02*
G01*
X81701276Y33057166D01*
X81715317Y33053649D01*
X81728946Y33048772D01*
X81742031Y33042583D01*
X81754447Y33035142D01*
X81766073Y33026519D01*
X81776798Y33016798D01*
X81786519Y33006073D01*
X81795142Y32994447D01*
X81802583Y32982031D01*
X81808772Y32968946D01*
X81813649Y32955317D01*
X81817166Y32941276D01*
X81819290Y32926958D01*
X81820000Y32912500D01*
X81820000Y32617500D01*
X81819290Y32603042D01*
X81817166Y32588724D01*
X81813649Y32574683D01*
X81808772Y32561054D01*
X81802583Y32547969D01*
X81795142Y32535553D01*
X81786519Y32523927D01*
X81776798Y32513202D01*
X81766073Y32503481D01*
X81754447Y32494858D01*
X81742031Y32487417D01*
X81728946Y32481228D01*
X81715317Y32476351D01*
X81701276Y32472834D01*
X81686958Y32470710D01*
X81672500Y32470000D01*
X81327500Y32470000D01*
X81313042Y32470710D01*
X81298724Y32472834D01*
X81284683Y32476351D01*
X81271054Y32481228D01*
X81257969Y32487417D01*
X81245553Y32494858D01*
X81233927Y32503481D01*
X81223202Y32513202D01*
X81213481Y32523927D01*
X81204858Y32535553D01*
X81197417Y32547969D01*
X81191228Y32561054D01*
X81186351Y32574683D01*
X81182834Y32588724D01*
X81180710Y32603042D01*
X81180000Y32617500D01*
X81180000Y32912500D01*
X81180710Y32926958D01*
X81182834Y32941276D01*
X81186351Y32955317D01*
X81191228Y32968946D01*
X81197417Y32982031D01*
X81204858Y32994447D01*
X81213481Y33006073D01*
X81223202Y33016798D01*
X81233927Y33026519D01*
X81245553Y33035142D01*
X81257969Y33042583D01*
X81271054Y33048772D01*
X81284683Y33053649D01*
X81298724Y33057166D01*
X81313042Y33059290D01*
X81327500Y33060000D01*
X81672500Y33060000D01*
X81686958Y33059290D01*
G37*
G36*
X81686958Y34029290D02*
G01*
X81701276Y34027166D01*
X81715317Y34023649D01*
X81728946Y34018772D01*
X81742031Y34012583D01*
X81754447Y34005142D01*
X81766073Y33996519D01*
X81776798Y33986798D01*
X81786519Y33976073D01*
X81795142Y33964447D01*
X81802583Y33952031D01*
X81808772Y33938946D01*
X81813649Y33925317D01*
X81817166Y33911276D01*
X81819290Y33896958D01*
X81820000Y33882500D01*
X81820000Y33587500D01*
X81819290Y33573042D01*
X81817166Y33558724D01*
X81813649Y33544683D01*
X81808772Y33531054D01*
X81802583Y33517969D01*
X81795142Y33505553D01*
X81786519Y33493927D01*
X81776798Y33483202D01*
X81766073Y33473481D01*
X81754447Y33464858D01*
X81742031Y33457417D01*
X81728946Y33451228D01*
X81715317Y33446351D01*
X81701276Y33442834D01*
X81686958Y33440710D01*
X81672500Y33440000D01*
X81327500Y33440000D01*
X81313042Y33440710D01*
X81298724Y33442834D01*
X81284683Y33446351D01*
X81271054Y33451228D01*
X81257969Y33457417D01*
X81245553Y33464858D01*
X81233927Y33473481D01*
X81223202Y33483202D01*
X81213481Y33493927D01*
X81204858Y33505553D01*
X81197417Y33517969D01*
X81191228Y33531054D01*
X81186351Y33544683D01*
X81182834Y33558724D01*
X81180710Y33573042D01*
X81180000Y33587500D01*
X81180000Y33882500D01*
X81180710Y33896958D01*
X81182834Y33911276D01*
X81186351Y33925317D01*
X81191228Y33938946D01*
X81197417Y33952031D01*
X81204858Y33964447D01*
X81213481Y33976073D01*
X81223202Y33986798D01*
X81233927Y33996519D01*
X81245553Y34005142D01*
X81257969Y34012583D01*
X81271054Y34018772D01*
X81284683Y34023649D01*
X81298724Y34027166D01*
X81313042Y34029290D01*
X81327500Y34030000D01*
X81672500Y34030000D01*
X81686958Y34029290D01*
G37*
G36*
X81381958Y38319290D02*
G01*
X81396276Y38317166D01*
X81410317Y38313649D01*
X81423946Y38308772D01*
X81437031Y38302583D01*
X81449447Y38295142D01*
X81461073Y38286519D01*
X81471798Y38276798D01*
X81481519Y38266073D01*
X81490142Y38254447D01*
X81497583Y38242031D01*
X81503772Y38228946D01*
X81508649Y38215317D01*
X81512166Y38201276D01*
X81514290Y38186958D01*
X81515000Y38172500D01*
X81515000Y37827500D01*
X81514290Y37813042D01*
X81512166Y37798724D01*
X81508649Y37784683D01*
X81503772Y37771054D01*
X81497583Y37757969D01*
X81490142Y37745553D01*
X81481519Y37733927D01*
X81471798Y37723202D01*
X81461073Y37713481D01*
X81449447Y37704858D01*
X81437031Y37697417D01*
X81423946Y37691228D01*
X81410317Y37686351D01*
X81396276Y37682834D01*
X81381958Y37680710D01*
X81367500Y37680000D01*
X81072500Y37680000D01*
X81058042Y37680710D01*
X81043724Y37682834D01*
X81029683Y37686351D01*
X81016054Y37691228D01*
X81002969Y37697417D01*
X80990553Y37704858D01*
X80978927Y37713481D01*
X80968202Y37723202D01*
X80958481Y37733927D01*
X80949858Y37745553D01*
X80942417Y37757969D01*
X80936228Y37771054D01*
X80931351Y37784683D01*
X80927834Y37798724D01*
X80925710Y37813042D01*
X80925000Y37827500D01*
X80925000Y38172500D01*
X80925710Y38186958D01*
X80927834Y38201276D01*
X80931351Y38215317D01*
X80936228Y38228946D01*
X80942417Y38242031D01*
X80949858Y38254447D01*
X80958481Y38266073D01*
X80968202Y38276798D01*
X80978927Y38286519D01*
X80990553Y38295142D01*
X81002969Y38302583D01*
X81016054Y38308772D01*
X81029683Y38313649D01*
X81043724Y38317166D01*
X81058042Y38319290D01*
X81072500Y38320000D01*
X81367500Y38320000D01*
X81381958Y38319290D01*
G37*
G36*
X80411958Y38319290D02*
G01*
X80426276Y38317166D01*
X80440317Y38313649D01*
X80453946Y38308772D01*
X80467031Y38302583D01*
X80479447Y38295142D01*
X80491073Y38286519D01*
X80501798Y38276798D01*
X80511519Y38266073D01*
X80520142Y38254447D01*
X80527583Y38242031D01*
X80533772Y38228946D01*
X80538649Y38215317D01*
X80542166Y38201276D01*
X80544290Y38186958D01*
X80545000Y38172500D01*
X80545000Y37827500D01*
X80544290Y37813042D01*
X80542166Y37798724D01*
X80538649Y37784683D01*
X80533772Y37771054D01*
X80527583Y37757969D01*
X80520142Y37745553D01*
X80511519Y37733927D01*
X80501798Y37723202D01*
X80491073Y37713481D01*
X80479447Y37704858D01*
X80467031Y37697417D01*
X80453946Y37691228D01*
X80440317Y37686351D01*
X80426276Y37682834D01*
X80411958Y37680710D01*
X80397500Y37680000D01*
X80102500Y37680000D01*
X80088042Y37680710D01*
X80073724Y37682834D01*
X80059683Y37686351D01*
X80046054Y37691228D01*
X80032969Y37697417D01*
X80020553Y37704858D01*
X80008927Y37713481D01*
X79998202Y37723202D01*
X79988481Y37733927D01*
X79979858Y37745553D01*
X79972417Y37757969D01*
X79966228Y37771054D01*
X79961351Y37784683D01*
X79957834Y37798724D01*
X79955710Y37813042D01*
X79955000Y37827500D01*
X79955000Y38172500D01*
X79955710Y38186958D01*
X79957834Y38201276D01*
X79961351Y38215317D01*
X79966228Y38228946D01*
X79972417Y38242031D01*
X79979858Y38254447D01*
X79988481Y38266073D01*
X79998202Y38276798D01*
X80008927Y38286519D01*
X80020553Y38295142D01*
X80032969Y38302583D01*
X80046054Y38308772D01*
X80059683Y38313649D01*
X80073724Y38317166D01*
X80088042Y38319290D01*
X80102500Y38320000D01*
X80397500Y38320000D01*
X80411958Y38319290D01*
G37*
G36*
X82426958Y38319290D02*
G01*
X82441276Y38317166D01*
X82455317Y38313649D01*
X82468946Y38308772D01*
X82482031Y38302583D01*
X82494447Y38295142D01*
X82506073Y38286519D01*
X82516798Y38276798D01*
X82526519Y38266073D01*
X82535142Y38254447D01*
X82542583Y38242031D01*
X82548772Y38228946D01*
X82553649Y38215317D01*
X82557166Y38201276D01*
X82559290Y38186958D01*
X82560000Y38172500D01*
X82560000Y37827500D01*
X82559290Y37813042D01*
X82557166Y37798724D01*
X82553649Y37784683D01*
X82548772Y37771054D01*
X82542583Y37757969D01*
X82535142Y37745553D01*
X82526519Y37733927D01*
X82516798Y37723202D01*
X82506073Y37713481D01*
X82494447Y37704858D01*
X82482031Y37697417D01*
X82468946Y37691228D01*
X82455317Y37686351D01*
X82441276Y37682834D01*
X82426958Y37680710D01*
X82412500Y37680000D01*
X82117500Y37680000D01*
X82103042Y37680710D01*
X82088724Y37682834D01*
X82074683Y37686351D01*
X82061054Y37691228D01*
X82047969Y37697417D01*
X82035553Y37704858D01*
X82023927Y37713481D01*
X82013202Y37723202D01*
X82003481Y37733927D01*
X81994858Y37745553D01*
X81987417Y37757969D01*
X81981228Y37771054D01*
X81976351Y37784683D01*
X81972834Y37798724D01*
X81970710Y37813042D01*
X81970000Y37827500D01*
X81970000Y38172500D01*
X81970710Y38186958D01*
X81972834Y38201276D01*
X81976351Y38215317D01*
X81981228Y38228946D01*
X81987417Y38242031D01*
X81994858Y38254447D01*
X82003481Y38266073D01*
X82013202Y38276798D01*
X82023927Y38286519D01*
X82035553Y38295142D01*
X82047969Y38302583D01*
X82061054Y38308772D01*
X82074683Y38313649D01*
X82088724Y38317166D01*
X82103042Y38319290D01*
X82117500Y38320000D01*
X82412500Y38320000D01*
X82426958Y38319290D01*
G37*
G36*
X83396958Y38319290D02*
G01*
X83411276Y38317166D01*
X83425317Y38313649D01*
X83438946Y38308772D01*
X83452031Y38302583D01*
X83464447Y38295142D01*
X83476073Y38286519D01*
X83486798Y38276798D01*
X83496519Y38266073D01*
X83505142Y38254447D01*
X83512583Y38242031D01*
X83518772Y38228946D01*
X83523649Y38215317D01*
X83527166Y38201276D01*
X83529290Y38186958D01*
X83530000Y38172500D01*
X83530000Y37827500D01*
X83529290Y37813042D01*
X83527166Y37798724D01*
X83523649Y37784683D01*
X83518772Y37771054D01*
X83512583Y37757969D01*
X83505142Y37745553D01*
X83496519Y37733927D01*
X83486798Y37723202D01*
X83476073Y37713481D01*
X83464447Y37704858D01*
X83452031Y37697417D01*
X83438946Y37691228D01*
X83425317Y37686351D01*
X83411276Y37682834D01*
X83396958Y37680710D01*
X83382500Y37680000D01*
X83087500Y37680000D01*
X83073042Y37680710D01*
X83058724Y37682834D01*
X83044683Y37686351D01*
X83031054Y37691228D01*
X83017969Y37697417D01*
X83005553Y37704858D01*
X82993927Y37713481D01*
X82983202Y37723202D01*
X82973481Y37733927D01*
X82964858Y37745553D01*
X82957417Y37757969D01*
X82951228Y37771054D01*
X82946351Y37784683D01*
X82942834Y37798724D01*
X82940710Y37813042D01*
X82940000Y37827500D01*
X82940000Y38172500D01*
X82940710Y38186958D01*
X82942834Y38201276D01*
X82946351Y38215317D01*
X82951228Y38228946D01*
X82957417Y38242031D01*
X82964858Y38254447D01*
X82973481Y38266073D01*
X82983202Y38276798D01*
X82993927Y38286519D01*
X83005553Y38295142D01*
X83017969Y38302583D01*
X83031054Y38308772D01*
X83044683Y38313649D01*
X83058724Y38317166D01*
X83073042Y38319290D01*
X83087500Y38320000D01*
X83382500Y38320000D01*
X83396958Y38319290D01*
G37*
G36*
X76686958Y17059290D02*
G01*
X76701276Y17057166D01*
X76715317Y17053649D01*
X76728946Y17048772D01*
X76742031Y17042583D01*
X76754447Y17035142D01*
X76766073Y17026519D01*
X76776798Y17016798D01*
X76786519Y17006073D01*
X76795142Y16994447D01*
X76802583Y16982031D01*
X76808772Y16968946D01*
X76813649Y16955317D01*
X76817166Y16941276D01*
X76819290Y16926958D01*
X76820000Y16912500D01*
X76820000Y16617500D01*
X76819290Y16603042D01*
X76817166Y16588724D01*
X76813649Y16574683D01*
X76808772Y16561054D01*
X76802583Y16547969D01*
X76795142Y16535553D01*
X76786519Y16523927D01*
X76776798Y16513202D01*
X76766073Y16503481D01*
X76754447Y16494858D01*
X76742031Y16487417D01*
X76728946Y16481228D01*
X76715317Y16476351D01*
X76701276Y16472834D01*
X76686958Y16470710D01*
X76672500Y16470000D01*
X76327500Y16470000D01*
X76313042Y16470710D01*
X76298724Y16472834D01*
X76284683Y16476351D01*
X76271054Y16481228D01*
X76257969Y16487417D01*
X76245553Y16494858D01*
X76233927Y16503481D01*
X76223202Y16513202D01*
X76213481Y16523927D01*
X76204858Y16535553D01*
X76197417Y16547969D01*
X76191228Y16561054D01*
X76186351Y16574683D01*
X76182834Y16588724D01*
X76180710Y16603042D01*
X76180000Y16617500D01*
X76180000Y16912500D01*
X76180710Y16926958D01*
X76182834Y16941276D01*
X76186351Y16955317D01*
X76191228Y16968946D01*
X76197417Y16982031D01*
X76204858Y16994447D01*
X76213481Y17006073D01*
X76223202Y17016798D01*
X76233927Y17026519D01*
X76245553Y17035142D01*
X76257969Y17042583D01*
X76271054Y17048772D01*
X76284683Y17053649D01*
X76298724Y17057166D01*
X76313042Y17059290D01*
X76327500Y17060000D01*
X76672500Y17060000D01*
X76686958Y17059290D01*
G37*
G36*
X76686958Y18029290D02*
G01*
X76701276Y18027166D01*
X76715317Y18023649D01*
X76728946Y18018772D01*
X76742031Y18012583D01*
X76754447Y18005142D01*
X76766073Y17996519D01*
X76776798Y17986798D01*
X76786519Y17976073D01*
X76795142Y17964447D01*
X76802583Y17952031D01*
X76808772Y17938946D01*
X76813649Y17925317D01*
X76817166Y17911276D01*
X76819290Y17896958D01*
X76820000Y17882500D01*
X76820000Y17587500D01*
X76819290Y17573042D01*
X76817166Y17558724D01*
X76813649Y17544683D01*
X76808772Y17531054D01*
X76802583Y17517969D01*
X76795142Y17505553D01*
X76786519Y17493927D01*
X76776798Y17483202D01*
X76766073Y17473481D01*
X76754447Y17464858D01*
X76742031Y17457417D01*
X76728946Y17451228D01*
X76715317Y17446351D01*
X76701276Y17442834D01*
X76686958Y17440710D01*
X76672500Y17440000D01*
X76327500Y17440000D01*
X76313042Y17440710D01*
X76298724Y17442834D01*
X76284683Y17446351D01*
X76271054Y17451228D01*
X76257969Y17457417D01*
X76245553Y17464858D01*
X76233927Y17473481D01*
X76223202Y17483202D01*
X76213481Y17493927D01*
X76204858Y17505553D01*
X76197417Y17517969D01*
X76191228Y17531054D01*
X76186351Y17544683D01*
X76182834Y17558724D01*
X76180710Y17573042D01*
X76180000Y17587500D01*
X76180000Y17882500D01*
X76180710Y17896958D01*
X76182834Y17911276D01*
X76186351Y17925317D01*
X76191228Y17938946D01*
X76197417Y17952031D01*
X76204858Y17964447D01*
X76213481Y17976073D01*
X76223202Y17986798D01*
X76233927Y17996519D01*
X76245553Y18005142D01*
X76257969Y18012583D01*
X76271054Y18018772D01*
X76284683Y18023649D01*
X76298724Y18027166D01*
X76313042Y18029290D01*
X76327500Y18030000D01*
X76672500Y18030000D01*
X76686958Y18029290D01*
G37*
G36*
X87146958Y32569290D02*
G01*
X87161276Y32567166D01*
X87175317Y32563649D01*
X87188946Y32558772D01*
X87202031Y32552583D01*
X87214447Y32545142D01*
X87226073Y32536519D01*
X87236798Y32526798D01*
X87246519Y32516073D01*
X87255142Y32504447D01*
X87262583Y32492031D01*
X87268772Y32478946D01*
X87273649Y32465317D01*
X87277166Y32451276D01*
X87279290Y32436958D01*
X87280000Y32422500D01*
X87280000Y32077500D01*
X87279290Y32063042D01*
X87277166Y32048724D01*
X87273649Y32034683D01*
X87268772Y32021054D01*
X87262583Y32007969D01*
X87255142Y31995553D01*
X87246519Y31983927D01*
X87236798Y31973202D01*
X87226073Y31963481D01*
X87214447Y31954858D01*
X87202031Y31947417D01*
X87188946Y31941228D01*
X87175317Y31936351D01*
X87161276Y31932834D01*
X87146958Y31930710D01*
X87132500Y31930000D01*
X86837500Y31930000D01*
X86823042Y31930710D01*
X86808724Y31932834D01*
X86794683Y31936351D01*
X86781054Y31941228D01*
X86767969Y31947417D01*
X86755553Y31954858D01*
X86743927Y31963481D01*
X86733202Y31973202D01*
X86723481Y31983927D01*
X86714858Y31995553D01*
X86707417Y32007969D01*
X86701228Y32021054D01*
X86696351Y32034683D01*
X86692834Y32048724D01*
X86690710Y32063042D01*
X86690000Y32077500D01*
X86690000Y32422500D01*
X86690710Y32436958D01*
X86692834Y32451276D01*
X86696351Y32465317D01*
X86701228Y32478946D01*
X86707417Y32492031D01*
X86714858Y32504447D01*
X86723481Y32516073D01*
X86733202Y32526798D01*
X86743927Y32536519D01*
X86755553Y32545142D01*
X86767969Y32552583D01*
X86781054Y32558772D01*
X86794683Y32563649D01*
X86808724Y32567166D01*
X86823042Y32569290D01*
X86837500Y32570000D01*
X87132500Y32570000D01*
X87146958Y32569290D01*
G37*
G36*
X86176958Y32569290D02*
G01*
X86191276Y32567166D01*
X86205317Y32563649D01*
X86218946Y32558772D01*
X86232031Y32552583D01*
X86244447Y32545142D01*
X86256073Y32536519D01*
X86266798Y32526798D01*
X86276519Y32516073D01*
X86285142Y32504447D01*
X86292583Y32492031D01*
X86298772Y32478946D01*
X86303649Y32465317D01*
X86307166Y32451276D01*
X86309290Y32436958D01*
X86310000Y32422500D01*
X86310000Y32077500D01*
X86309290Y32063042D01*
X86307166Y32048724D01*
X86303649Y32034683D01*
X86298772Y32021054D01*
X86292583Y32007969D01*
X86285142Y31995553D01*
X86276519Y31983927D01*
X86266798Y31973202D01*
X86256073Y31963481D01*
X86244447Y31954858D01*
X86232031Y31947417D01*
X86218946Y31941228D01*
X86205317Y31936351D01*
X86191276Y31932834D01*
X86176958Y31930710D01*
X86162500Y31930000D01*
X85867500Y31930000D01*
X85853042Y31930710D01*
X85838724Y31932834D01*
X85824683Y31936351D01*
X85811054Y31941228D01*
X85797969Y31947417D01*
X85785553Y31954858D01*
X85773927Y31963481D01*
X85763202Y31973202D01*
X85753481Y31983927D01*
X85744858Y31995553D01*
X85737417Y32007969D01*
X85731228Y32021054D01*
X85726351Y32034683D01*
X85722834Y32048724D01*
X85720710Y32063042D01*
X85720000Y32077500D01*
X85720000Y32422500D01*
X85720710Y32436958D01*
X85722834Y32451276D01*
X85726351Y32465317D01*
X85731228Y32478946D01*
X85737417Y32492031D01*
X85744858Y32504447D01*
X85753481Y32516073D01*
X85763202Y32526798D01*
X85773927Y32536519D01*
X85785553Y32545142D01*
X85797969Y32552583D01*
X85811054Y32558772D01*
X85824683Y32563649D01*
X85838724Y32567166D01*
X85853042Y32569290D01*
X85867500Y32570000D01*
X86162500Y32570000D01*
X86176958Y32569290D01*
G37*
G36*
X69686958Y16029290D02*
G01*
X69701276Y16027166D01*
X69715317Y16023649D01*
X69728946Y16018772D01*
X69742031Y16012583D01*
X69754447Y16005142D01*
X69766073Y15996519D01*
X69776798Y15986798D01*
X69786519Y15976073D01*
X69795142Y15964447D01*
X69802583Y15952031D01*
X69808772Y15938946D01*
X69813649Y15925317D01*
X69817166Y15911276D01*
X69819290Y15896958D01*
X69820000Y15882500D01*
X69820000Y15587500D01*
X69819290Y15573042D01*
X69817166Y15558724D01*
X69813649Y15544683D01*
X69808772Y15531054D01*
X69802583Y15517969D01*
X69795142Y15505553D01*
X69786519Y15493927D01*
X69776798Y15483202D01*
X69766073Y15473481D01*
X69754447Y15464858D01*
X69742031Y15457417D01*
X69728946Y15451228D01*
X69715317Y15446351D01*
X69701276Y15442834D01*
X69686958Y15440710D01*
X69672500Y15440000D01*
X69327500Y15440000D01*
X69313042Y15440710D01*
X69298724Y15442834D01*
X69284683Y15446351D01*
X69271054Y15451228D01*
X69257969Y15457417D01*
X69245553Y15464858D01*
X69233927Y15473481D01*
X69223202Y15483202D01*
X69213481Y15493927D01*
X69204858Y15505553D01*
X69197417Y15517969D01*
X69191228Y15531054D01*
X69186351Y15544683D01*
X69182834Y15558724D01*
X69180710Y15573042D01*
X69180000Y15587500D01*
X69180000Y15882500D01*
X69180710Y15896958D01*
X69182834Y15911276D01*
X69186351Y15925317D01*
X69191228Y15938946D01*
X69197417Y15952031D01*
X69204858Y15964447D01*
X69213481Y15976073D01*
X69223202Y15986798D01*
X69233927Y15996519D01*
X69245553Y16005142D01*
X69257969Y16012583D01*
X69271054Y16018772D01*
X69284683Y16023649D01*
X69298724Y16027166D01*
X69313042Y16029290D01*
X69327500Y16030000D01*
X69672500Y16030000D01*
X69686958Y16029290D01*
G37*
G36*
X69686958Y15059290D02*
G01*
X69701276Y15057166D01*
X69715317Y15053649D01*
X69728946Y15048772D01*
X69742031Y15042583D01*
X69754447Y15035142D01*
X69766073Y15026519D01*
X69776798Y15016798D01*
X69786519Y15006073D01*
X69795142Y14994447D01*
X69802583Y14982031D01*
X69808772Y14968946D01*
X69813649Y14955317D01*
X69817166Y14941276D01*
X69819290Y14926958D01*
X69820000Y14912500D01*
X69820000Y14617500D01*
X69819290Y14603042D01*
X69817166Y14588724D01*
X69813649Y14574683D01*
X69808772Y14561054D01*
X69802583Y14547969D01*
X69795142Y14535553D01*
X69786519Y14523927D01*
X69776798Y14513202D01*
X69766073Y14503481D01*
X69754447Y14494858D01*
X69742031Y14487417D01*
X69728946Y14481228D01*
X69715317Y14476351D01*
X69701276Y14472834D01*
X69686958Y14470710D01*
X69672500Y14470000D01*
X69327500Y14470000D01*
X69313042Y14470710D01*
X69298724Y14472834D01*
X69284683Y14476351D01*
X69271054Y14481228D01*
X69257969Y14487417D01*
X69245553Y14494858D01*
X69233927Y14503481D01*
X69223202Y14513202D01*
X69213481Y14523927D01*
X69204858Y14535553D01*
X69197417Y14547969D01*
X69191228Y14561054D01*
X69186351Y14574683D01*
X69182834Y14588724D01*
X69180710Y14603042D01*
X69180000Y14617500D01*
X69180000Y14912500D01*
X69180710Y14926958D01*
X69182834Y14941276D01*
X69186351Y14955317D01*
X69191228Y14968946D01*
X69197417Y14982031D01*
X69204858Y14994447D01*
X69213481Y15006073D01*
X69223202Y15016798D01*
X69233927Y15026519D01*
X69245553Y15035142D01*
X69257969Y15042583D01*
X69271054Y15048772D01*
X69284683Y15053649D01*
X69298724Y15057166D01*
X69313042Y15059290D01*
X69327500Y15060000D01*
X69672500Y15060000D01*
X69686958Y15059290D01*
G37*
G36*
X76686958Y16029290D02*
G01*
X76701276Y16027166D01*
X76715317Y16023649D01*
X76728946Y16018772D01*
X76742031Y16012583D01*
X76754447Y16005142D01*
X76766073Y15996519D01*
X76776798Y15986798D01*
X76786519Y15976073D01*
X76795142Y15964447D01*
X76802583Y15952031D01*
X76808772Y15938946D01*
X76813649Y15925317D01*
X76817166Y15911276D01*
X76819290Y15896958D01*
X76820000Y15882500D01*
X76820000Y15587500D01*
X76819290Y15573042D01*
X76817166Y15558724D01*
X76813649Y15544683D01*
X76808772Y15531054D01*
X76802583Y15517969D01*
X76795142Y15505553D01*
X76786519Y15493927D01*
X76776798Y15483202D01*
X76766073Y15473481D01*
X76754447Y15464858D01*
X76742031Y15457417D01*
X76728946Y15451228D01*
X76715317Y15446351D01*
X76701276Y15442834D01*
X76686958Y15440710D01*
X76672500Y15440000D01*
X76327500Y15440000D01*
X76313042Y15440710D01*
X76298724Y15442834D01*
X76284683Y15446351D01*
X76271054Y15451228D01*
X76257969Y15457417D01*
X76245553Y15464858D01*
X76233927Y15473481D01*
X76223202Y15483202D01*
X76213481Y15493927D01*
X76204858Y15505553D01*
X76197417Y15517969D01*
X76191228Y15531054D01*
X76186351Y15544683D01*
X76182834Y15558724D01*
X76180710Y15573042D01*
X76180000Y15587500D01*
X76180000Y15882500D01*
X76180710Y15896958D01*
X76182834Y15911276D01*
X76186351Y15925317D01*
X76191228Y15938946D01*
X76197417Y15952031D01*
X76204858Y15964447D01*
X76213481Y15976073D01*
X76223202Y15986798D01*
X76233927Y15996519D01*
X76245553Y16005142D01*
X76257969Y16012583D01*
X76271054Y16018772D01*
X76284683Y16023649D01*
X76298724Y16027166D01*
X76313042Y16029290D01*
X76327500Y16030000D01*
X76672500Y16030000D01*
X76686958Y16029290D01*
G37*
G36*
X76686958Y15059290D02*
G01*
X76701276Y15057166D01*
X76715317Y15053649D01*
X76728946Y15048772D01*
X76742031Y15042583D01*
X76754447Y15035142D01*
X76766073Y15026519D01*
X76776798Y15016798D01*
X76786519Y15006073D01*
X76795142Y14994447D01*
X76802583Y14982031D01*
X76808772Y14968946D01*
X76813649Y14955317D01*
X76817166Y14941276D01*
X76819290Y14926958D01*
X76820000Y14912500D01*
X76820000Y14617500D01*
X76819290Y14603042D01*
X76817166Y14588724D01*
X76813649Y14574683D01*
X76808772Y14561054D01*
X76802583Y14547969D01*
X76795142Y14535553D01*
X76786519Y14523927D01*
X76776798Y14513202D01*
X76766073Y14503481D01*
X76754447Y14494858D01*
X76742031Y14487417D01*
X76728946Y14481228D01*
X76715317Y14476351D01*
X76701276Y14472834D01*
X76686958Y14470710D01*
X76672500Y14470000D01*
X76327500Y14470000D01*
X76313042Y14470710D01*
X76298724Y14472834D01*
X76284683Y14476351D01*
X76271054Y14481228D01*
X76257969Y14487417D01*
X76245553Y14494858D01*
X76233927Y14503481D01*
X76223202Y14513202D01*
X76213481Y14523927D01*
X76204858Y14535553D01*
X76197417Y14547969D01*
X76191228Y14561054D01*
X76186351Y14574683D01*
X76182834Y14588724D01*
X76180710Y14603042D01*
X76180000Y14617500D01*
X76180000Y14912500D01*
X76180710Y14926958D01*
X76182834Y14941276D01*
X76186351Y14955317D01*
X76191228Y14968946D01*
X76197417Y14982031D01*
X76204858Y14994447D01*
X76213481Y15006073D01*
X76223202Y15016798D01*
X76233927Y15026519D01*
X76245553Y15035142D01*
X76257969Y15042583D01*
X76271054Y15048772D01*
X76284683Y15053649D01*
X76298724Y15057166D01*
X76313042Y15059290D01*
X76327500Y15060000D01*
X76672500Y15060000D01*
X76686958Y15059290D01*
G37*
D18*
X64650000Y28000000D03*
X35350000Y28000000D03*
M02*
