%
M48
M72
T01C0.0126
T02C0.0394
T03C0.0591
%
T01
X603Y1700
X997Y1306
X603Y2487
X603Y4062
X603Y5637
X800Y6326
X1194Y6818
X2178Y6424
X2178Y5637
X2966Y5637
X2966Y4456
X1785Y1306
X3359Y1306
X4147Y1306
X5328Y1306
X6903Y1306
X7690Y1306
X9265Y1700
X9265Y2487
X9265Y3275
X9265Y5637
X9265Y6424
X8477Y6424
X7690Y6424
X7001Y5834
X6411Y5834
X6017Y5834
X5722Y5243
X5328Y5243
X4934Y5834
X4540Y5834
X4737Y4653
X3753Y4062
X5722Y4062
X6017Y7802
X5722Y7999
X5722Y8786
X6411Y7802
X7001Y7802
X6903Y9968
X5722Y10361
X5722Y11936
X6509Y11936
X6509Y13412
X7296Y13412
X8084Y13412
X8871Y13412
X9265Y13117
X9265Y12723
X9265Y11936
X9265Y11149
X5722Y13412
X4934Y13412
X4147Y13412
X3359Y13412
X2572Y13412
X1785Y13412
X1391Y13412
X997Y13412
X603Y13412
X505Y10164
X505Y8786
X2966Y7999
X3359Y8786
X3359Y10361
X3359Y11936
X4540Y7901
X4934Y7901
T02
X9068Y9074
X9068Y10074
T03
X2572Y1542
X2572Y3668
M30
