G75*
G70*
%OFA0B0*%
%FSLAX24Y24*%
%IPPOS*%
%LPD*%
%AMOC8*
5,1,8,0,0,1.08239X$1,22.5*
%
%ADD10C,0.0000*%
%ADD11C,0.0040*%
%ADD12C,0.0030*%
%ADD13R,0.0118X0.0059*%
%ADD14R,0.0118X0.0118*%
%ADD15R,0.0050X0.0010*%
%ADD16R,0.0040X0.0010*%
%ADD17R,0.0130X0.0010*%
%ADD18R,0.0070X0.0010*%
%ADD19R,0.0180X0.0010*%
%ADD20R,0.0080X0.0010*%
%ADD21R,0.0210X0.0010*%
%ADD22R,0.0090X0.0010*%
%ADD23R,0.0060X0.0010*%
%ADD24R,0.0010X0.0010*%
%ADD25R,0.0030X0.0010*%
%ADD26R,0.0020X0.0010*%
%ADD27R,0.0220X0.0010*%
%ADD28R,0.0100X0.0010*%
%ADD29R,0.0110X0.0010*%
%ADD30R,0.0120X0.0010*%
%ADD31R,0.0140X0.0010*%
%ADD32R,0.0150X0.0010*%
%ADD33R,0.0200X0.0010*%
%ADD34R,0.0170X0.0010*%
%ADD35R,0.0190X0.0010*%
%ADD36R,0.0160X0.0010*%
%ADD37C,0.0060*%
%ADD38C,0.0080*%
%ADD39R,0.0197X0.0984*%
%ADD40C,0.0050*%
%ADD41R,0.0003X0.0003*%
%ADD42R,0.0008X0.0003*%
%ADD43R,0.0005X0.0003*%
%ADD44R,0.0015X0.0003*%
%ADD45R,0.0020X0.0003*%
%ADD46R,0.0010X0.0003*%
%ADD47R,0.0018X0.0003*%
%ADD48R,0.0067X0.0003*%
%ADD49R,0.0013X0.0003*%
%ADD50R,0.0045X0.0003*%
%ADD51R,0.0077X0.0003*%
%ADD52R,0.0030X0.0003*%
%ADD53R,0.0032X0.0003*%
%ADD54R,0.0022X0.0003*%
%ADD55R,0.0127X0.0003*%
%ADD56R,0.0140X0.0003*%
%ADD57R,0.0025X0.0003*%
%ADD58R,0.0043X0.0003*%
%ADD59R,0.0053X0.0003*%
%ADD60R,0.0088X0.0003*%
%ADD61R,0.0035X0.0003*%
%ADD62R,0.0055X0.0003*%
%ADD63R,0.0040X0.0003*%
%ADD64R,0.0080X0.0003*%
%ADD65R,0.0065X0.0003*%
%ADD66R,0.0090X0.0003*%
%ADD67R,0.0143X0.0003*%
%ADD68R,0.0248X0.0003*%
%ADD69R,0.0293X0.0003*%
%ADD70R,0.0257X0.0003*%
%ADD71R,0.0037X0.0003*%
%ADD72R,0.0262X0.0003*%
%ADD73R,0.0027X0.0003*%
%ADD74R,0.0280X0.0003*%
%ADD75R,0.0070X0.0003*%
%ADD76R,0.0440X0.0003*%
%ADD77R,0.0315X0.0003*%
%ADD78R,0.0085X0.0003*%
%ADD79R,0.0330X0.0003*%
%ADD80R,0.0323X0.0003*%
%ADD81R,0.0107X0.0003*%
%ADD82R,0.0057X0.0003*%
%ADD83R,0.0490X0.0003*%
%ADD84R,0.0360X0.0003*%
%ADD85R,0.0512X0.0003*%
%ADD86R,0.0390X0.0003*%
%ADD87R,0.0565X0.0003*%
%ADD88R,0.0325X0.0003*%
%ADD89R,0.0168X0.0003*%
%ADD90R,0.0307X0.0003*%
%ADD91R,0.0152X0.0003*%
%ADD92R,0.0272X0.0003*%
%ADD93R,0.0132X0.0003*%
%ADD94R,0.0147X0.0003*%
%ADD95R,0.0243X0.0003*%
%ADD96R,0.0125X0.0003*%
%ADD97R,0.0240X0.0003*%
%ADD98R,0.0130X0.0003*%
%ADD99R,0.0225X0.0003*%
%ADD100R,0.0083X0.0003*%
%ADD101R,0.0222X0.0003*%
%ADD102R,0.0217X0.0003*%
%ADD103R,0.0120X0.0003*%
%ADD104R,0.0215X0.0003*%
%ADD105R,0.0118X0.0003*%
%ADD106R,0.0205X0.0003*%
%ADD107R,0.0103X0.0003*%
%ADD108R,0.0210X0.0003*%
%ADD109R,0.0097X0.0003*%
%ADD110R,0.0198X0.0003*%
%ADD111R,0.0100X0.0003*%
%ADD112R,0.0190X0.0003*%
%ADD113R,0.0187X0.0003*%
%ADD114R,0.0192X0.0003*%
%ADD115R,0.0170X0.0003*%
%ADD116R,0.0173X0.0003*%
%ADD117R,0.0182X0.0003*%
%ADD118R,0.0180X0.0003*%
%ADD119R,0.0047X0.0003*%
%ADD120R,0.0165X0.0003*%
%ADD121R,0.0163X0.0003*%
%ADD122R,0.0160X0.0003*%
%ADD123R,0.0158X0.0003*%
%ADD124R,0.0155X0.0003*%
%ADD125R,0.0092X0.0003*%
%ADD126R,0.0150X0.0003*%
%ADD127R,0.0105X0.0003*%
%ADD128R,0.0115X0.0003*%
%ADD129R,0.0145X0.0003*%
%ADD130R,0.0138X0.0003*%
%ADD131R,0.0135X0.0003*%
%ADD132R,0.0075X0.0003*%
%ADD133R,0.0063X0.0003*%
%ADD134R,0.0060X0.0003*%
%ADD135R,0.0050X0.0003*%
%ADD136R,0.0123X0.0003*%
%ADD137R,0.0112X0.0003*%
%ADD138R,0.0110X0.0003*%
%ADD139R,0.0073X0.0003*%
%ADD140R,0.0095X0.0003*%
%ADD141R,0.0185X0.0003*%
%ADD142R,0.0208X0.0003*%
%ADD143R,0.0235X0.0003*%
%ADD144R,0.0260X0.0003*%
%ADD145R,0.0267X0.0003*%
%ADD146R,0.0283X0.0003*%
%ADD147R,0.0295X0.0003*%
%ADD148R,0.0302X0.0003*%
%ADD149R,0.0320X0.0003*%
%ADD150R,0.0333X0.0003*%
%ADD151R,0.0338X0.0003*%
%ADD152R,0.0343X0.0003*%
%ADD153R,0.0350X0.0003*%
%ADD154R,0.0355X0.0003*%
%ADD155R,0.0365X0.0003*%
%ADD156R,0.0370X0.0003*%
%ADD157R,0.0375X0.0003*%
%ADD158R,0.0380X0.0003*%
%ADD159R,0.0382X0.0003*%
%ADD160R,0.0393X0.0003*%
%ADD161R,0.0398X0.0003*%
%ADD162R,0.0403X0.0003*%
%ADD163R,0.0405X0.0003*%
%ADD164R,0.0415X0.0003*%
%ADD165R,0.0177X0.0003*%
%ADD166R,0.0175X0.0003*%
%ADD167R,0.0195X0.0003*%
%ADD168R,0.0200X0.0003*%
%ADD169R,0.0203X0.0003*%
%ADD170R,0.0213X0.0003*%
%ADD171R,0.0220X0.0003*%
%ADD172R,0.0227X0.0003*%
%ADD173R,0.0230X0.0003*%
%ADD174R,0.0232X0.0003*%
%ADD175R,0.0238X0.0003*%
%ADD176R,0.0245X0.0003*%
%ADD177R,0.0250X0.0003*%
%ADD178R,0.0253X0.0003*%
%ADD179R,0.0255X0.0003*%
%ADD180R,0.0305X0.0003*%
%ADD181R,0.0318X0.0003*%
%ADD182R,0.0328X0.0003*%
%ADD183R,0.0335X0.0003*%
%ADD184R,0.0340X0.0003*%
%ADD185R,0.0352X0.0003*%
%ADD186R,0.0387X0.0003*%
%ADD187R,0.0410X0.0003*%
%ADD188R,0.0413X0.0003*%
%ADD189R,0.0430X0.0003*%
%ADD190R,0.0432X0.0003*%
%ADD191R,0.0428X0.0003*%
%ADD192R,0.0420X0.0003*%
%ADD193R,0.0435X0.0003*%
%ADD194R,0.0425X0.0003*%
%ADD195R,0.0423X0.0003*%
%ADD196R,0.0418X0.0003*%
%ADD197R,0.0372X0.0003*%
%ADD198R,0.0362X0.0003*%
%ADD199R,0.0348X0.0003*%
%ADD200R,0.0345X0.0003*%
%ADD201R,0.0310X0.0003*%
%ADD202R,0.0300X0.0003*%
%ADD203R,0.0297X0.0003*%
%ADD204R,0.0285X0.0003*%
%ADD205R,0.0278X0.0003*%
%ADD206R,0.0265X0.0003*%
%ADD207C,0.0098*%
D10*
X001725Y000937D02*
X077315Y000937D01*
X076685Y002512D02*
X076687Y002562D01*
X076693Y002612D01*
X076703Y002661D01*
X076717Y002709D01*
X076734Y002756D01*
X076755Y002801D01*
X076780Y002845D01*
X076808Y002886D01*
X076840Y002925D01*
X076874Y002962D01*
X076911Y002996D01*
X076951Y003026D01*
X076993Y003053D01*
X077037Y003077D01*
X077083Y003098D01*
X077130Y003114D01*
X077178Y003127D01*
X077228Y003136D01*
X077277Y003141D01*
X077328Y003142D01*
X077378Y003139D01*
X077427Y003132D01*
X077476Y003121D01*
X077524Y003106D01*
X077570Y003088D01*
X077615Y003066D01*
X077658Y003040D01*
X077699Y003011D01*
X077738Y002979D01*
X077774Y002944D01*
X077806Y002906D01*
X077836Y002866D01*
X077863Y002823D01*
X077886Y002779D01*
X077905Y002733D01*
X077921Y002685D01*
X077933Y002636D01*
X077941Y002587D01*
X077945Y002537D01*
X077945Y002487D01*
X077941Y002437D01*
X077933Y002388D01*
X077921Y002339D01*
X077905Y002291D01*
X077886Y002245D01*
X077863Y002201D01*
X077836Y002158D01*
X077806Y002118D01*
X077774Y002080D01*
X077738Y002045D01*
X077699Y002013D01*
X077658Y001984D01*
X077615Y001958D01*
X077570Y001936D01*
X077524Y001918D01*
X077476Y001903D01*
X077427Y001892D01*
X077378Y001885D01*
X077328Y001882D01*
X077277Y001883D01*
X077228Y001888D01*
X077178Y001897D01*
X077130Y001910D01*
X077083Y001926D01*
X077037Y001947D01*
X076993Y001971D01*
X076951Y001998D01*
X076911Y002028D01*
X076874Y002062D01*
X076840Y002099D01*
X076808Y002138D01*
X076780Y002179D01*
X076755Y002223D01*
X076734Y002268D01*
X076717Y002315D01*
X076703Y002363D01*
X076693Y002412D01*
X076687Y002462D01*
X076685Y002512D01*
X077315Y000937D02*
X077392Y000939D01*
X077469Y000945D01*
X077546Y000954D01*
X077622Y000967D01*
X077698Y000984D01*
X077772Y001005D01*
X077846Y001029D01*
X077918Y001057D01*
X077988Y001088D01*
X078057Y001123D01*
X078125Y001161D01*
X078190Y001202D01*
X078253Y001247D01*
X078314Y001295D01*
X078373Y001345D01*
X078429Y001398D01*
X078482Y001454D01*
X078532Y001513D01*
X078580Y001574D01*
X078625Y001637D01*
X078666Y001702D01*
X078704Y001770D01*
X078739Y001839D01*
X078770Y001909D01*
X078798Y001981D01*
X078822Y002055D01*
X078843Y002129D01*
X078860Y002205D01*
X078873Y002281D01*
X078882Y002358D01*
X078888Y002435D01*
X078890Y002512D01*
X078890Y019048D01*
X076685Y019048D02*
X076687Y019098D01*
X076693Y019148D01*
X076703Y019197D01*
X076717Y019245D01*
X076734Y019292D01*
X076755Y019337D01*
X076780Y019381D01*
X076808Y019422D01*
X076840Y019461D01*
X076874Y019498D01*
X076911Y019532D01*
X076951Y019562D01*
X076993Y019589D01*
X077037Y019613D01*
X077083Y019634D01*
X077130Y019650D01*
X077178Y019663D01*
X077228Y019672D01*
X077277Y019677D01*
X077328Y019678D01*
X077378Y019675D01*
X077427Y019668D01*
X077476Y019657D01*
X077524Y019642D01*
X077570Y019624D01*
X077615Y019602D01*
X077658Y019576D01*
X077699Y019547D01*
X077738Y019515D01*
X077774Y019480D01*
X077806Y019442D01*
X077836Y019402D01*
X077863Y019359D01*
X077886Y019315D01*
X077905Y019269D01*
X077921Y019221D01*
X077933Y019172D01*
X077941Y019123D01*
X077945Y019073D01*
X077945Y019023D01*
X077941Y018973D01*
X077933Y018924D01*
X077921Y018875D01*
X077905Y018827D01*
X077886Y018781D01*
X077863Y018737D01*
X077836Y018694D01*
X077806Y018654D01*
X077774Y018616D01*
X077738Y018581D01*
X077699Y018549D01*
X077658Y018520D01*
X077615Y018494D01*
X077570Y018472D01*
X077524Y018454D01*
X077476Y018439D01*
X077427Y018428D01*
X077378Y018421D01*
X077328Y018418D01*
X077277Y018419D01*
X077228Y018424D01*
X077178Y018433D01*
X077130Y018446D01*
X077083Y018462D01*
X077037Y018483D01*
X076993Y018507D01*
X076951Y018534D01*
X076911Y018564D01*
X076874Y018598D01*
X076840Y018635D01*
X076808Y018674D01*
X076780Y018715D01*
X076755Y018759D01*
X076734Y018804D01*
X076717Y018851D01*
X076703Y018899D01*
X076693Y018948D01*
X076687Y018998D01*
X076685Y019048D01*
X077315Y020623D02*
X077392Y020621D01*
X077469Y020615D01*
X077546Y020606D01*
X077622Y020593D01*
X077698Y020576D01*
X077772Y020555D01*
X077846Y020531D01*
X077918Y020503D01*
X077988Y020472D01*
X078057Y020437D01*
X078125Y020399D01*
X078190Y020358D01*
X078253Y020313D01*
X078314Y020265D01*
X078373Y020215D01*
X078429Y020162D01*
X078482Y020106D01*
X078532Y020047D01*
X078580Y019986D01*
X078625Y019923D01*
X078666Y019858D01*
X078704Y019790D01*
X078739Y019721D01*
X078770Y019651D01*
X078798Y019579D01*
X078822Y019505D01*
X078843Y019431D01*
X078860Y019355D01*
X078873Y019279D01*
X078882Y019202D01*
X078888Y019125D01*
X078890Y019048D01*
X077315Y020622D02*
X001725Y020622D01*
X001095Y019048D02*
X001097Y019098D01*
X001103Y019148D01*
X001113Y019197D01*
X001127Y019245D01*
X001144Y019292D01*
X001165Y019337D01*
X001190Y019381D01*
X001218Y019422D01*
X001250Y019461D01*
X001284Y019498D01*
X001321Y019532D01*
X001361Y019562D01*
X001403Y019589D01*
X001447Y019613D01*
X001493Y019634D01*
X001540Y019650D01*
X001588Y019663D01*
X001638Y019672D01*
X001687Y019677D01*
X001738Y019678D01*
X001788Y019675D01*
X001837Y019668D01*
X001886Y019657D01*
X001934Y019642D01*
X001980Y019624D01*
X002025Y019602D01*
X002068Y019576D01*
X002109Y019547D01*
X002148Y019515D01*
X002184Y019480D01*
X002216Y019442D01*
X002246Y019402D01*
X002273Y019359D01*
X002296Y019315D01*
X002315Y019269D01*
X002331Y019221D01*
X002343Y019172D01*
X002351Y019123D01*
X002355Y019073D01*
X002355Y019023D01*
X002351Y018973D01*
X002343Y018924D01*
X002331Y018875D01*
X002315Y018827D01*
X002296Y018781D01*
X002273Y018737D01*
X002246Y018694D01*
X002216Y018654D01*
X002184Y018616D01*
X002148Y018581D01*
X002109Y018549D01*
X002068Y018520D01*
X002025Y018494D01*
X001980Y018472D01*
X001934Y018454D01*
X001886Y018439D01*
X001837Y018428D01*
X001788Y018421D01*
X001738Y018418D01*
X001687Y018419D01*
X001638Y018424D01*
X001588Y018433D01*
X001540Y018446D01*
X001493Y018462D01*
X001447Y018483D01*
X001403Y018507D01*
X001361Y018534D01*
X001321Y018564D01*
X001284Y018598D01*
X001250Y018635D01*
X001218Y018674D01*
X001190Y018715D01*
X001165Y018759D01*
X001144Y018804D01*
X001127Y018851D01*
X001113Y018899D01*
X001103Y018948D01*
X001097Y018998D01*
X001095Y019048D01*
X000150Y019048D02*
X000152Y019125D01*
X000158Y019202D01*
X000167Y019279D01*
X000180Y019355D01*
X000197Y019431D01*
X000218Y019505D01*
X000242Y019579D01*
X000270Y019651D01*
X000301Y019721D01*
X000336Y019790D01*
X000374Y019858D01*
X000415Y019923D01*
X000460Y019986D01*
X000508Y020047D01*
X000558Y020106D01*
X000611Y020162D01*
X000667Y020215D01*
X000726Y020265D01*
X000787Y020313D01*
X000850Y020358D01*
X000915Y020399D01*
X000983Y020437D01*
X001052Y020472D01*
X001122Y020503D01*
X001194Y020531D01*
X001268Y020555D01*
X001342Y020576D01*
X001418Y020593D01*
X001494Y020606D01*
X001571Y020615D01*
X001648Y020621D01*
X001725Y020623D01*
X000150Y019048D02*
X000150Y002512D01*
X001095Y002512D02*
X001097Y002562D01*
X001103Y002612D01*
X001113Y002661D01*
X001127Y002709D01*
X001144Y002756D01*
X001165Y002801D01*
X001190Y002845D01*
X001218Y002886D01*
X001250Y002925D01*
X001284Y002962D01*
X001321Y002996D01*
X001361Y003026D01*
X001403Y003053D01*
X001447Y003077D01*
X001493Y003098D01*
X001540Y003114D01*
X001588Y003127D01*
X001638Y003136D01*
X001687Y003141D01*
X001738Y003142D01*
X001788Y003139D01*
X001837Y003132D01*
X001886Y003121D01*
X001934Y003106D01*
X001980Y003088D01*
X002025Y003066D01*
X002068Y003040D01*
X002109Y003011D01*
X002148Y002979D01*
X002184Y002944D01*
X002216Y002906D01*
X002246Y002866D01*
X002273Y002823D01*
X002296Y002779D01*
X002315Y002733D01*
X002331Y002685D01*
X002343Y002636D01*
X002351Y002587D01*
X002355Y002537D01*
X002355Y002487D01*
X002351Y002437D01*
X002343Y002388D01*
X002331Y002339D01*
X002315Y002291D01*
X002296Y002245D01*
X002273Y002201D01*
X002246Y002158D01*
X002216Y002118D01*
X002184Y002080D01*
X002148Y002045D01*
X002109Y002013D01*
X002068Y001984D01*
X002025Y001958D01*
X001980Y001936D01*
X001934Y001918D01*
X001886Y001903D01*
X001837Y001892D01*
X001788Y001885D01*
X001738Y001882D01*
X001687Y001883D01*
X001638Y001888D01*
X001588Y001897D01*
X001540Y001910D01*
X001493Y001926D01*
X001447Y001947D01*
X001403Y001971D01*
X001361Y001998D01*
X001321Y002028D01*
X001284Y002062D01*
X001250Y002099D01*
X001218Y002138D01*
X001190Y002179D01*
X001165Y002223D01*
X001144Y002268D01*
X001127Y002315D01*
X001113Y002363D01*
X001103Y002412D01*
X001097Y002462D01*
X001095Y002512D01*
X000150Y002512D02*
X000152Y002435D01*
X000158Y002358D01*
X000167Y002281D01*
X000180Y002205D01*
X000197Y002129D01*
X000218Y002055D01*
X000242Y001981D01*
X000270Y001909D01*
X000301Y001839D01*
X000336Y001770D01*
X000374Y001702D01*
X000415Y001637D01*
X000460Y001574D01*
X000508Y001513D01*
X000558Y001454D01*
X000611Y001398D01*
X000667Y001345D01*
X000726Y001295D01*
X000787Y001247D01*
X000850Y001202D01*
X000915Y001161D01*
X000983Y001123D01*
X001052Y001088D01*
X001122Y001057D01*
X001194Y001029D01*
X001268Y001005D01*
X001342Y000984D01*
X001418Y000967D01*
X001494Y000954D01*
X001571Y000945D01*
X001648Y000939D01*
X001725Y000937D01*
X067178Y001567D02*
X067180Y001601D01*
X067186Y001635D01*
X067196Y001668D01*
X067209Y001699D01*
X067227Y001729D01*
X067247Y001757D01*
X067271Y001782D01*
X067297Y001804D01*
X067325Y001822D01*
X067356Y001838D01*
X067388Y001850D01*
X067422Y001858D01*
X067456Y001862D01*
X067490Y001862D01*
X067524Y001858D01*
X067558Y001850D01*
X067590Y001838D01*
X067620Y001822D01*
X067649Y001804D01*
X067675Y001782D01*
X067699Y001757D01*
X067719Y001729D01*
X067737Y001699D01*
X067750Y001668D01*
X067760Y001635D01*
X067766Y001601D01*
X067768Y001567D01*
X067766Y001533D01*
X067760Y001499D01*
X067750Y001466D01*
X067737Y001435D01*
X067719Y001405D01*
X067699Y001377D01*
X067675Y001352D01*
X067649Y001330D01*
X067621Y001312D01*
X067590Y001296D01*
X067558Y001284D01*
X067524Y001276D01*
X067490Y001272D01*
X067456Y001272D01*
X067422Y001276D01*
X067388Y001284D01*
X067356Y001296D01*
X067325Y001312D01*
X067297Y001330D01*
X067271Y001352D01*
X067247Y001377D01*
X067227Y001405D01*
X067209Y001435D01*
X067196Y001466D01*
X067186Y001499D01*
X067180Y001533D01*
X067178Y001567D01*
X070760Y002807D02*
X070762Y002833D01*
X070768Y002859D01*
X070778Y002884D01*
X070791Y002907D01*
X070807Y002927D01*
X070827Y002945D01*
X070849Y002960D01*
X070872Y002972D01*
X070898Y002980D01*
X070924Y002984D01*
X070950Y002984D01*
X070976Y002980D01*
X071002Y002972D01*
X071026Y002960D01*
X071047Y002945D01*
X071067Y002927D01*
X071083Y002907D01*
X071096Y002884D01*
X071106Y002859D01*
X071112Y002833D01*
X071114Y002807D01*
X071112Y002781D01*
X071106Y002755D01*
X071096Y002730D01*
X071083Y002707D01*
X071067Y002687D01*
X071047Y002669D01*
X071025Y002654D01*
X071002Y002642D01*
X070976Y002634D01*
X070950Y002630D01*
X070924Y002630D01*
X070898Y002634D01*
X070872Y002642D01*
X070848Y002654D01*
X070827Y002669D01*
X070807Y002687D01*
X070791Y002707D01*
X070778Y002730D01*
X070768Y002755D01*
X070762Y002781D01*
X070760Y002807D01*
X072493Y002807D02*
X072495Y002833D01*
X072501Y002859D01*
X072511Y002884D01*
X072524Y002907D01*
X072540Y002927D01*
X072560Y002945D01*
X072582Y002960D01*
X072605Y002972D01*
X072631Y002980D01*
X072657Y002984D01*
X072683Y002984D01*
X072709Y002980D01*
X072735Y002972D01*
X072759Y002960D01*
X072780Y002945D01*
X072800Y002927D01*
X072816Y002907D01*
X072829Y002884D01*
X072839Y002859D01*
X072845Y002833D01*
X072847Y002807D01*
X072845Y002781D01*
X072839Y002755D01*
X072829Y002730D01*
X072816Y002707D01*
X072800Y002687D01*
X072780Y002669D01*
X072758Y002654D01*
X072735Y002642D01*
X072709Y002634D01*
X072683Y002630D01*
X072657Y002630D01*
X072631Y002634D01*
X072605Y002642D01*
X072581Y002654D01*
X072560Y002669D01*
X072540Y002687D01*
X072524Y002707D01*
X072511Y002730D01*
X072501Y002755D01*
X072495Y002781D01*
X072493Y002807D01*
X067178Y004323D02*
X067180Y004357D01*
X067186Y004391D01*
X067196Y004424D01*
X067209Y004455D01*
X067227Y004485D01*
X067247Y004513D01*
X067271Y004538D01*
X067297Y004560D01*
X067325Y004578D01*
X067356Y004594D01*
X067388Y004606D01*
X067422Y004614D01*
X067456Y004618D01*
X067490Y004618D01*
X067524Y004614D01*
X067558Y004606D01*
X067590Y004594D01*
X067620Y004578D01*
X067649Y004560D01*
X067675Y004538D01*
X067699Y004513D01*
X067719Y004485D01*
X067737Y004455D01*
X067750Y004424D01*
X067760Y004391D01*
X067766Y004357D01*
X067768Y004323D01*
X067766Y004289D01*
X067760Y004255D01*
X067750Y004222D01*
X067737Y004191D01*
X067719Y004161D01*
X067699Y004133D01*
X067675Y004108D01*
X067649Y004086D01*
X067621Y004068D01*
X067590Y004052D01*
X067558Y004040D01*
X067524Y004032D01*
X067490Y004028D01*
X067456Y004028D01*
X067422Y004032D01*
X067388Y004040D01*
X067356Y004052D01*
X067325Y004068D01*
X067297Y004086D01*
X067271Y004108D01*
X067247Y004133D01*
X067227Y004161D01*
X067209Y004191D01*
X067196Y004222D01*
X067186Y004255D01*
X067180Y004289D01*
X067178Y004323D01*
D11*
X070618Y004177D02*
X071006Y004177D01*
X071006Y004156D02*
X071006Y003421D01*
X071088Y003216D02*
X072519Y003216D01*
X072535Y003214D01*
X072550Y003210D01*
X072565Y003202D01*
X072577Y003192D01*
X072587Y003180D01*
X072595Y003165D01*
X072599Y003150D01*
X072601Y003134D01*
X072600Y003135D02*
X072598Y003115D01*
X072592Y003096D01*
X072583Y003078D01*
X072570Y003063D01*
X072555Y003050D01*
X072537Y003041D01*
X072518Y003035D01*
X072498Y003033D01*
X072498Y003032D02*
X071109Y003032D01*
X071089Y003034D01*
X071070Y003040D01*
X071052Y003049D01*
X071037Y003062D01*
X071024Y003077D01*
X071015Y003095D01*
X071009Y003114D01*
X071007Y003134D01*
X071006Y003134D02*
X071006Y003134D01*
X071008Y003150D01*
X071012Y003165D01*
X071020Y003180D01*
X071030Y003192D01*
X071042Y003202D01*
X071057Y003210D01*
X071072Y003214D01*
X071088Y003216D01*
X070291Y003094D02*
X070291Y002184D01*
X070639Y002092D02*
X070720Y002092D01*
X070822Y001152D01*
X071027Y001152D01*
X071129Y002092D01*
X071211Y002092D01*
X071109Y001009D01*
X071105Y000990D01*
X071099Y000971D01*
X071089Y000954D01*
X071077Y000938D01*
X071062Y000925D01*
X071045Y000914D01*
X071027Y000907D01*
X070802Y000907D02*
X070784Y000914D01*
X070767Y000925D01*
X070752Y000938D01*
X070740Y000954D01*
X070730Y000971D01*
X070724Y000990D01*
X070720Y001009D01*
X070639Y002092D01*
X071558Y002358D02*
X072049Y002358D01*
X072130Y001009D01*
X072132Y000993D01*
X072136Y000978D01*
X072144Y000963D01*
X072154Y000951D01*
X072166Y000941D01*
X072181Y000933D01*
X072196Y000929D01*
X072212Y000927D01*
X072228Y000929D01*
X072243Y000933D01*
X072258Y000941D01*
X072270Y000951D01*
X072280Y000963D01*
X072288Y000978D01*
X072292Y000993D01*
X072294Y001009D01*
X072212Y002603D01*
X072213Y002603D02*
X072210Y002621D01*
X072203Y002638D01*
X072194Y002653D01*
X072181Y002666D01*
X072166Y002675D01*
X072149Y002682D01*
X072131Y002685D01*
X072130Y002685D02*
X071476Y002685D01*
X071458Y002682D01*
X071441Y002675D01*
X071426Y002666D01*
X071413Y002653D01*
X071404Y002638D01*
X071397Y002621D01*
X071394Y002603D01*
X071395Y002603D02*
X071313Y001009D01*
X071315Y000993D01*
X071319Y000978D01*
X071327Y000963D01*
X071337Y000951D01*
X071349Y000941D01*
X071364Y000933D01*
X071379Y000929D01*
X071395Y000927D01*
X071395Y000927D01*
X071411Y000929D01*
X071426Y000933D01*
X071441Y000941D01*
X071453Y000951D01*
X071463Y000963D01*
X071471Y000978D01*
X071475Y000993D01*
X071477Y001009D01*
X071558Y002358D01*
X072396Y002092D02*
X072478Y002092D01*
X072580Y001152D01*
X072785Y001152D01*
X072887Y002092D01*
X072968Y002092D01*
X072887Y001009D01*
X072883Y000990D01*
X072877Y000971D01*
X072867Y000954D01*
X072855Y000938D01*
X072840Y000925D01*
X072823Y000914D01*
X072805Y000907D01*
X072580Y000907D02*
X072562Y000914D01*
X072545Y000925D01*
X072530Y000938D01*
X072518Y000954D01*
X072508Y000971D01*
X072502Y000990D01*
X072498Y001009D01*
X072396Y002092D01*
X073316Y002184D02*
X073316Y003094D01*
X073318Y003078D01*
X073322Y003063D01*
X073330Y003048D01*
X073340Y003036D01*
X073352Y003026D01*
X073367Y003018D01*
X073382Y003014D01*
X073398Y003012D01*
X073459Y003012D01*
X072601Y003421D02*
X072601Y004156D01*
X072601Y004177D02*
X072989Y004177D01*
X072989Y004156D02*
X072989Y004013D01*
X070618Y004013D02*
X070618Y004156D01*
X070291Y003094D02*
X070289Y003078D01*
X070285Y003063D01*
X070277Y003048D01*
X070267Y003036D01*
X070255Y003026D01*
X070240Y003018D01*
X070225Y003014D01*
X070209Y003012D01*
X070148Y003012D01*
X070802Y000907D02*
X070839Y000898D01*
X070876Y000892D01*
X070914Y000890D01*
X070952Y000892D01*
X070989Y000898D01*
X071026Y000907D01*
X070291Y001069D02*
X070291Y000477D01*
X073316Y000477D01*
X073316Y000477D01*
X073316Y001069D01*
X072805Y000907D02*
X072768Y000898D01*
X072731Y000892D01*
X072693Y000890D01*
X072655Y000892D01*
X072618Y000898D01*
X072581Y000907D01*
X052303Y008495D02*
X052073Y008188D01*
X051843Y008495D01*
X052073Y008648D02*
X052073Y008955D01*
X052073Y009109D02*
X052073Y009416D01*
X052073Y010029D02*
X052073Y010183D01*
X051843Y010029D02*
X051843Y010336D01*
X051843Y010490D02*
X051843Y010566D01*
X052303Y010566D01*
X052303Y010490D02*
X052303Y010643D01*
X052226Y010797D02*
X052150Y010873D01*
X052150Y011104D01*
X052073Y011104D02*
X052303Y011104D01*
X052303Y010873D01*
X052226Y010797D01*
X051996Y010873D02*
X051996Y011027D01*
X052073Y011104D01*
X052073Y011257D02*
X051996Y011334D01*
X051996Y011564D01*
X052073Y011717D02*
X051996Y011794D01*
X051996Y011948D01*
X052073Y012024D01*
X052303Y012024D01*
X052303Y011717D02*
X051843Y011717D01*
X052150Y011487D02*
X052150Y011334D01*
X052073Y011257D01*
X052303Y011257D02*
X052303Y011487D01*
X052226Y011564D01*
X052150Y011487D01*
X052303Y010029D02*
X051843Y010029D01*
D12*
X050558Y008797D02*
X050558Y008506D01*
X050654Y008506D02*
X050461Y008506D01*
X050360Y008506D02*
X050360Y008797D01*
X050461Y008700D02*
X050558Y008797D01*
X050360Y008506D02*
X050263Y008603D01*
X050166Y008506D01*
X050166Y008797D01*
X050065Y008748D02*
X050017Y008797D01*
X049920Y008797D01*
X049872Y008748D01*
X049872Y008700D01*
X049920Y008652D01*
X050017Y008652D01*
X050065Y008603D01*
X050065Y008555D01*
X050017Y008506D01*
X049920Y008506D01*
X049872Y008555D01*
X045481Y008237D02*
X045288Y008237D01*
X045433Y008382D01*
X045433Y008092D01*
X045187Y008092D02*
X044993Y008092D01*
X045090Y008092D02*
X045090Y008382D01*
X044993Y008286D01*
X044892Y008334D02*
X044892Y008237D01*
X044844Y008189D01*
X044698Y008189D01*
X044698Y008092D02*
X044698Y008382D01*
X044844Y008382D01*
X044892Y008334D01*
X044795Y008189D02*
X044892Y008092D01*
X038351Y008034D02*
X038254Y008034D01*
X038302Y008034D02*
X038302Y007744D01*
X038254Y007744D02*
X038351Y007744D01*
X038056Y007889D02*
X037959Y007889D01*
X037959Y007744D02*
X037959Y008034D01*
X038153Y008034D01*
X037860Y008034D02*
X037763Y008034D01*
X037811Y008034D02*
X037811Y007744D01*
X037763Y007744D02*
X037860Y007744D01*
X037662Y007744D02*
X037662Y008034D01*
X037468Y008034D02*
X037468Y007744D01*
X037565Y007840D01*
X037662Y007744D01*
X035121Y007342D02*
X035121Y007246D01*
X035073Y007197D01*
X035121Y007096D02*
X035121Y006903D01*
X034928Y007096D01*
X034879Y007096D01*
X034831Y007048D01*
X034831Y006951D01*
X034879Y006903D01*
X034879Y006801D02*
X034831Y006753D01*
X034831Y006656D01*
X034879Y006608D01*
X035073Y006608D01*
X035121Y006656D01*
X035121Y006753D01*
X035073Y006801D01*
X034879Y007197D02*
X034831Y007246D01*
X034831Y007342D01*
X034879Y007391D01*
X034928Y007391D01*
X034976Y007342D01*
X035024Y007391D01*
X035073Y007391D01*
X035121Y007342D01*
X034976Y007342D02*
X034976Y007294D01*
X034826Y009167D02*
X034536Y009167D01*
X034536Y009312D01*
X034584Y009360D01*
X034681Y009360D01*
X034729Y009312D01*
X034729Y009167D01*
X034729Y009264D02*
X034826Y009360D01*
X034826Y009462D02*
X034826Y009655D01*
X034826Y009558D02*
X034536Y009558D01*
X034632Y009462D01*
X034584Y009756D02*
X034536Y009805D01*
X034536Y009901D01*
X034584Y009950D01*
X034778Y009756D01*
X034826Y009805D01*
X034826Y009901D01*
X034778Y009950D01*
X034584Y009950D01*
X034584Y009756D02*
X034778Y009756D01*
X034826Y010643D02*
X034536Y010643D01*
X034536Y010788D01*
X034584Y010837D01*
X034681Y010837D01*
X034729Y010788D01*
X034729Y010643D01*
X034729Y010740D02*
X034826Y010837D01*
X034778Y010938D02*
X034826Y010986D01*
X034826Y011083D01*
X034778Y011131D01*
X034729Y011131D01*
X034681Y011083D01*
X034681Y010986D01*
X034632Y010938D01*
X034584Y010938D01*
X034536Y010986D01*
X034536Y011083D01*
X034584Y011131D01*
X034632Y011131D01*
X034681Y011083D01*
X034681Y010986D02*
X034729Y010938D01*
X034778Y010938D01*
X031813Y010960D02*
X031619Y010960D01*
X031518Y010911D02*
X031518Y010863D01*
X031470Y010815D01*
X031373Y010815D01*
X031325Y010863D01*
X031373Y010960D02*
X031470Y010960D01*
X031518Y010911D01*
X031619Y010815D02*
X031619Y011105D01*
X031518Y011056D02*
X031470Y011105D01*
X031373Y011105D01*
X031325Y011056D01*
X031325Y011008D01*
X031373Y010960D01*
X031223Y010960D02*
X031030Y010960D01*
X031030Y011008D02*
X031127Y011105D01*
X031223Y011008D01*
X031223Y010815D01*
X031030Y010815D02*
X031030Y011008D01*
X030929Y010815D02*
X030735Y010815D01*
X030735Y011105D01*
X030634Y011105D02*
X030441Y011105D01*
X030441Y010815D01*
X030441Y010960D02*
X030537Y010960D01*
X031813Y011105D02*
X031813Y010815D01*
X034536Y012218D02*
X034536Y012363D01*
X034584Y012412D01*
X034681Y012412D01*
X034729Y012363D01*
X034729Y012218D01*
X034729Y012315D02*
X034826Y012412D01*
X034778Y012513D02*
X034826Y012561D01*
X034826Y012658D01*
X034778Y012706D01*
X034584Y012706D01*
X034536Y012658D01*
X034536Y012561D01*
X034584Y012513D01*
X034632Y012513D01*
X034681Y012561D01*
X034681Y012706D01*
X034826Y012218D02*
X034536Y012218D01*
X043527Y011992D02*
X043527Y011701D01*
X043527Y011798D02*
X043672Y011798D01*
X043721Y011846D01*
X043721Y011943D01*
X043672Y011992D01*
X043527Y011992D01*
X043624Y011798D02*
X043721Y011701D01*
X043822Y011701D02*
X044015Y011701D01*
X043919Y011701D02*
X043919Y011992D01*
X043822Y011895D01*
X044116Y011895D02*
X044213Y011992D01*
X044213Y011701D01*
X044116Y011701D02*
X044310Y011701D01*
X045978Y011532D02*
X045978Y011242D01*
X046171Y011242D01*
X046273Y011242D02*
X046466Y011242D01*
X046567Y011242D02*
X046712Y011242D01*
X046761Y011290D01*
X046761Y011484D01*
X046712Y011532D01*
X046567Y011532D01*
X046567Y011242D01*
X046369Y011387D02*
X046273Y011387D01*
X046273Y011532D02*
X046273Y011242D01*
X046273Y011532D02*
X046466Y011532D01*
X046862Y011484D02*
X046910Y011532D01*
X047007Y011532D01*
X047055Y011484D01*
X047055Y011435D01*
X047007Y011387D01*
X047055Y011339D01*
X047055Y011290D01*
X047007Y011242D01*
X046910Y011242D01*
X046862Y011290D01*
X046959Y011387D02*
X047007Y011387D01*
X047007Y010745D02*
X046862Y010599D01*
X047055Y010599D01*
X047007Y010454D02*
X047007Y010745D01*
X046761Y010696D02*
X046712Y010745D01*
X046567Y010745D01*
X046567Y010454D01*
X046712Y010454D01*
X046761Y010503D01*
X046761Y010696D01*
X046466Y010745D02*
X046273Y010745D01*
X046273Y010454D01*
X046466Y010454D01*
X046369Y010599D02*
X046273Y010599D01*
X046171Y010454D02*
X045978Y010454D01*
X045978Y010745D01*
X044211Y010220D02*
X044211Y010172D01*
X044018Y009978D01*
X044018Y009930D01*
X043917Y009930D02*
X043820Y010026D01*
X043868Y010026D02*
X043723Y010026D01*
X043723Y009930D02*
X043723Y010220D01*
X043868Y010220D01*
X043917Y010172D01*
X043917Y010075D01*
X043868Y010026D01*
X044018Y010220D02*
X044211Y010220D01*
X062149Y007318D02*
X062355Y007113D01*
X062457Y007215D01*
X062457Y007284D01*
X062423Y007318D01*
X062355Y007318D01*
X062252Y007215D01*
X062149Y007318D02*
X062252Y007421D01*
X062321Y007421D01*
X062355Y007386D01*
X062355Y007318D01*
X062358Y007526D02*
X062495Y007663D01*
X062426Y007595D02*
X062631Y007390D01*
X062771Y007529D02*
X062908Y007666D01*
X062840Y007598D02*
X062635Y007803D01*
X062635Y007666D01*
X065967Y008060D02*
X065967Y008350D01*
X066113Y008350D01*
X066161Y008301D01*
X066161Y008205D01*
X066113Y008156D01*
X065967Y008156D01*
X066064Y008156D02*
X066161Y008060D01*
X066262Y008108D02*
X066310Y008060D01*
X066407Y008060D01*
X066456Y008108D01*
X066456Y008156D01*
X066407Y008205D01*
X066359Y008205D01*
X066407Y008205D02*
X066456Y008253D01*
X066456Y008301D01*
X066407Y008350D01*
X066310Y008350D01*
X066262Y008301D01*
X066161Y008650D02*
X066064Y008747D01*
X066113Y008747D02*
X065967Y008747D01*
X065967Y008650D02*
X065967Y008940D01*
X066113Y008940D01*
X066161Y008892D01*
X066161Y008795D01*
X066113Y008747D01*
X066262Y008795D02*
X066456Y008795D01*
X066407Y008650D02*
X066407Y008940D01*
X066262Y008795D01*
X068241Y009300D02*
X068338Y009300D01*
X068289Y009300D02*
X068289Y009590D01*
X068241Y009590D02*
X068338Y009590D01*
X068437Y009542D02*
X068486Y009590D01*
X068582Y009590D01*
X068631Y009542D01*
X068732Y009445D02*
X068925Y009445D01*
X068877Y009300D02*
X068877Y009590D01*
X068732Y009445D01*
X068631Y009348D02*
X068582Y009300D01*
X068486Y009300D01*
X068437Y009348D01*
X068437Y009542D01*
X069118Y009581D02*
X069118Y009387D01*
X069166Y009339D01*
X069263Y009339D01*
X069311Y009387D01*
X069412Y009339D02*
X069606Y009533D01*
X069606Y009581D01*
X069557Y009629D01*
X069461Y009629D01*
X069412Y009581D01*
X069311Y009581D02*
X069263Y009629D01*
X069166Y009629D01*
X069118Y009581D01*
X069707Y009581D02*
X069707Y009387D01*
X069900Y009581D01*
X069900Y009387D01*
X069852Y009339D01*
X069755Y009339D01*
X069707Y009387D01*
X069606Y009339D02*
X069412Y009339D01*
X069753Y009044D02*
X069753Y008850D01*
X069801Y008802D01*
X069898Y008802D01*
X069946Y008850D01*
X070048Y008850D02*
X070096Y008802D01*
X070193Y008802D01*
X070241Y008850D01*
X070241Y008898D01*
X070193Y008947D01*
X070048Y008947D01*
X070048Y008850D01*
X070048Y008947D02*
X070144Y009044D01*
X070241Y009092D01*
X069946Y009044D02*
X069898Y009092D01*
X069801Y009092D01*
X069753Y009044D01*
X071364Y009254D02*
X071460Y009254D01*
X071412Y009254D02*
X071412Y009545D01*
X071364Y009545D02*
X071460Y009545D01*
X071560Y009496D02*
X071560Y009303D01*
X071608Y009254D01*
X071705Y009254D01*
X071753Y009303D01*
X071855Y009254D02*
X072048Y009254D01*
X071951Y009254D02*
X071951Y009545D01*
X071855Y009448D01*
X071753Y009496D02*
X071705Y009545D01*
X071608Y009545D01*
X071560Y009496D01*
X069900Y009581D02*
X069852Y009629D01*
X069755Y009629D01*
X069707Y009581D01*
X069873Y008428D02*
X069825Y008380D01*
X069825Y008283D01*
X069873Y008235D01*
X069873Y008134D02*
X069825Y008085D01*
X069825Y007989D01*
X069873Y007940D01*
X070067Y007940D01*
X070115Y007989D01*
X070115Y008085D01*
X070067Y008134D01*
X070115Y008235D02*
X069922Y008428D01*
X069873Y008428D01*
X070115Y008428D02*
X070115Y008235D01*
X070115Y007840D02*
X070115Y007744D01*
X070115Y007792D02*
X069825Y007792D01*
X069825Y007744D02*
X069825Y007840D01*
X069801Y007222D02*
X069753Y007173D01*
X069753Y006980D01*
X069801Y006932D01*
X069898Y006932D01*
X069946Y006980D01*
X070048Y006980D02*
X070048Y006932D01*
X070048Y006980D02*
X070241Y007173D01*
X070241Y007222D01*
X070048Y007222D01*
X069946Y007173D02*
X069898Y007222D01*
X069801Y007222D01*
X069801Y006631D02*
X069753Y006583D01*
X069753Y006389D01*
X069801Y006341D01*
X069898Y006341D01*
X069946Y006389D01*
X070048Y006389D02*
X070096Y006341D01*
X070193Y006341D01*
X070241Y006389D01*
X070241Y006486D01*
X070193Y006535D01*
X070144Y006535D01*
X070048Y006486D01*
X070048Y006631D01*
X070241Y006631D01*
X069946Y006583D02*
X069898Y006631D01*
X069801Y006631D01*
X069406Y006269D02*
X069406Y006173D01*
X069357Y006124D01*
X069357Y006023D02*
X069406Y005975D01*
X069406Y005878D01*
X069357Y005830D01*
X069164Y005830D01*
X069116Y005878D01*
X069116Y005975D01*
X069164Y006023D01*
X069164Y006124D02*
X069116Y006173D01*
X069116Y006269D01*
X069164Y006318D01*
X069212Y006318D01*
X069261Y006269D01*
X069309Y006318D01*
X069357Y006318D01*
X069406Y006269D01*
X069261Y006269D02*
X069261Y006221D01*
X069458Y006041D02*
X069652Y006041D01*
X069753Y006041D02*
X069898Y006041D01*
X069946Y005992D01*
X069946Y005944D01*
X069898Y005896D01*
X069753Y005896D01*
X069753Y005751D02*
X069753Y006041D01*
X069898Y005896D02*
X069946Y005847D01*
X069946Y005799D01*
X069898Y005751D01*
X069753Y005751D01*
X069555Y005896D02*
X069458Y005896D01*
X069458Y005751D02*
X069458Y006041D01*
X068914Y005975D02*
X068865Y006023D01*
X068914Y005975D02*
X068914Y005878D01*
X068865Y005830D01*
X068672Y005830D01*
X068623Y005878D01*
X068623Y005975D01*
X068672Y006023D01*
X068672Y006124D02*
X068720Y006124D01*
X068769Y006173D01*
X068769Y006269D01*
X068817Y006318D01*
X068865Y006318D01*
X068914Y006269D01*
X068914Y006173D01*
X068865Y006124D01*
X068817Y006124D01*
X068769Y006173D01*
X068769Y006269D02*
X068720Y006318D01*
X068672Y006318D01*
X068623Y006269D01*
X068623Y006173D01*
X068672Y006124D01*
X068111Y006127D02*
X068015Y006078D01*
X067918Y005981D01*
X068063Y005981D01*
X068111Y005933D01*
X068111Y005885D01*
X068063Y005836D01*
X067966Y005836D01*
X067918Y005885D01*
X067918Y005981D01*
X067817Y005885D02*
X067768Y005836D01*
X067672Y005836D01*
X067623Y005885D01*
X067623Y006078D01*
X067672Y006127D01*
X067768Y006127D01*
X067817Y006078D01*
X067524Y006127D02*
X067427Y006127D01*
X067475Y006127D02*
X067475Y005836D01*
X067427Y005836D02*
X067524Y005836D01*
X066420Y006656D02*
X066372Y006608D01*
X066179Y006608D01*
X066130Y006656D01*
X066130Y006753D01*
X066179Y006801D01*
X066227Y006903D02*
X066130Y006999D01*
X066420Y006999D01*
X066420Y006903D02*
X066420Y007096D01*
X066372Y007197D02*
X066420Y007246D01*
X066420Y007342D01*
X066372Y007391D01*
X066179Y007391D01*
X066372Y007197D01*
X066179Y007197D01*
X066130Y007246D01*
X066130Y007342D01*
X066179Y007391D01*
X066372Y006801D02*
X066420Y006753D01*
X066420Y006656D01*
X070048Y005944D02*
X070144Y006041D01*
X070144Y005751D01*
X070048Y005751D02*
X070241Y005751D01*
X070144Y005450D02*
X070144Y005160D01*
X070048Y005160D02*
X070241Y005160D01*
X070048Y005353D02*
X070144Y005450D01*
X069946Y005450D02*
X069753Y005450D01*
X069753Y005160D01*
X069753Y005305D02*
X069850Y005305D01*
X073709Y005178D02*
X073709Y005081D01*
X073757Y005032D01*
X073757Y004931D02*
X073854Y004931D01*
X073902Y004883D01*
X073902Y004738D01*
X073902Y004835D02*
X073999Y004931D01*
X073999Y005032D02*
X073806Y005226D01*
X073757Y005226D01*
X073709Y005178D01*
X073757Y004931D02*
X073709Y004883D01*
X073709Y004738D01*
X073999Y004738D01*
X074103Y004738D02*
X074103Y004883D01*
X074151Y004931D01*
X074248Y004931D01*
X074296Y004883D01*
X074296Y004738D01*
X074296Y004835D02*
X074393Y004931D01*
X074393Y005032D02*
X074393Y005226D01*
X074393Y005129D02*
X074103Y005129D01*
X074199Y005032D01*
X073999Y005032D02*
X073999Y005226D01*
X074496Y005226D02*
X074545Y005129D01*
X074641Y005032D01*
X074641Y005178D01*
X074690Y005226D01*
X074738Y005226D01*
X074787Y005178D01*
X074787Y005081D01*
X074738Y005032D01*
X074641Y005032D01*
X074641Y004931D02*
X074690Y004883D01*
X074690Y004738D01*
X074787Y004738D02*
X074496Y004738D01*
X074496Y004883D01*
X074545Y004931D01*
X074641Y004931D01*
X074690Y004835D02*
X074787Y004931D01*
X074393Y004738D02*
X074103Y004738D01*
X073491Y007700D02*
X073540Y007749D01*
X073540Y007845D01*
X073491Y007894D01*
X073540Y007995D02*
X073346Y008188D01*
X073298Y008188D01*
X073249Y008140D01*
X073249Y008043D01*
X073298Y007995D01*
X073298Y007894D02*
X073249Y007845D01*
X073249Y007749D01*
X073298Y007700D01*
X073491Y007700D01*
X073540Y007995D02*
X073540Y008188D01*
X073540Y008290D02*
X073540Y008483D01*
X073540Y008386D02*
X073249Y008386D01*
X073346Y008290D01*
X073840Y008290D02*
X073840Y008483D01*
X073937Y008435D02*
X073985Y008483D01*
X074082Y008483D01*
X074130Y008435D01*
X074130Y008338D01*
X074082Y008290D01*
X073985Y008290D02*
X073937Y008386D01*
X073937Y008435D01*
X073985Y008290D02*
X073840Y008290D01*
X073888Y008188D02*
X073985Y008188D01*
X074033Y008140D01*
X074033Y007995D01*
X074033Y008092D02*
X074130Y008188D01*
X074130Y007995D02*
X073840Y007995D01*
X073840Y008140D01*
X073888Y008188D01*
X072764Y008065D02*
X072764Y008017D01*
X072716Y007969D01*
X072764Y007920D01*
X072764Y007872D01*
X072716Y007823D01*
X072619Y007823D01*
X072570Y007872D01*
X072469Y007872D02*
X072421Y007823D01*
X072324Y007823D01*
X072276Y007872D01*
X072276Y008065D01*
X072324Y008114D01*
X072421Y008114D01*
X072469Y008065D01*
X072570Y008065D02*
X072619Y008114D01*
X072716Y008114D01*
X072764Y008065D01*
X072716Y007969D02*
X072667Y007969D01*
X072176Y008114D02*
X072079Y008114D01*
X072128Y008114D02*
X072128Y007823D01*
X072176Y007823D02*
X072079Y007823D01*
X074378Y010696D02*
X074378Y010987D01*
X074523Y010987D01*
X074571Y010938D01*
X074571Y010842D01*
X074523Y010793D01*
X074378Y010793D01*
X074474Y010793D02*
X074571Y010696D01*
X074672Y010696D02*
X074866Y010696D01*
X074769Y010696D02*
X074769Y010987D01*
X074672Y010890D01*
X074672Y011090D02*
X074866Y011090D01*
X074769Y011090D02*
X074769Y011380D01*
X074672Y011284D01*
X074571Y011332D02*
X074571Y011235D01*
X074523Y011187D01*
X074378Y011187D01*
X074474Y011187D02*
X074571Y011090D01*
X074378Y011090D02*
X074378Y011380D01*
X074523Y011380D01*
X074571Y011332D01*
X074967Y011332D02*
X075015Y011380D01*
X075112Y011380D01*
X075160Y011332D01*
X075160Y011284D01*
X075112Y011235D01*
X075160Y011187D01*
X075160Y011139D01*
X075112Y011090D01*
X075015Y011090D01*
X074967Y011139D01*
X075064Y011235D02*
X075112Y011235D01*
X075460Y011380D02*
X075460Y011090D01*
X075654Y011090D01*
X075755Y011090D02*
X075948Y011090D01*
X076050Y011090D02*
X076195Y011090D01*
X076243Y011139D01*
X076243Y011332D01*
X076195Y011380D01*
X076050Y011380D01*
X076050Y011090D01*
X076050Y010987D02*
X076195Y010987D01*
X076243Y010938D01*
X076243Y010745D01*
X076195Y010696D01*
X076050Y010696D01*
X076050Y010987D01*
X075948Y010987D02*
X075755Y010987D01*
X075755Y010696D01*
X075948Y010696D01*
X075852Y010842D02*
X075755Y010842D01*
X075654Y010696D02*
X075460Y010696D01*
X075460Y010987D01*
X075160Y010938D02*
X075112Y010987D01*
X075015Y010987D01*
X074967Y010938D01*
X075160Y010938D02*
X075160Y010890D01*
X074967Y010696D01*
X075160Y010696D01*
X076344Y010696D02*
X076538Y010696D01*
X076441Y010696D02*
X076441Y010987D01*
X076344Y010890D01*
X076344Y011090D02*
X076538Y011284D01*
X076538Y011332D01*
X076489Y011380D01*
X076393Y011380D01*
X076344Y011332D01*
X076344Y011090D02*
X076538Y011090D01*
X075948Y011380D02*
X075755Y011380D01*
X075755Y011090D01*
X075755Y011235D02*
X075852Y011235D01*
X075649Y012915D02*
X075698Y012963D01*
X075698Y013157D01*
X075649Y013205D01*
X075553Y013205D01*
X075504Y013157D01*
X075504Y013108D01*
X075553Y013060D01*
X075698Y013060D01*
X075649Y012915D02*
X075553Y012915D01*
X075504Y012963D01*
X075403Y012915D02*
X075210Y012915D01*
X075306Y012915D02*
X075306Y013205D01*
X075210Y013108D01*
X075108Y013157D02*
X075060Y013205D01*
X074963Y013205D01*
X074915Y013157D01*
X074915Y012963D01*
X074963Y012915D01*
X075060Y012915D01*
X075108Y012963D01*
X075060Y013407D02*
X075108Y013455D01*
X075060Y013407D02*
X074963Y013407D01*
X074915Y013455D01*
X074915Y013649D01*
X074963Y013697D01*
X075060Y013697D01*
X075108Y013649D01*
X075210Y013601D02*
X075306Y013697D01*
X075306Y013407D01*
X075210Y013407D02*
X075403Y013407D01*
X075504Y013407D02*
X075698Y013407D01*
X075601Y013407D02*
X075601Y013697D01*
X075504Y013601D01*
X074472Y014141D02*
X074279Y014141D01*
X074472Y014335D01*
X074472Y014383D01*
X074424Y014432D01*
X074327Y014432D01*
X074279Y014383D01*
X074177Y014383D02*
X074177Y014432D01*
X074177Y014383D02*
X074081Y014287D01*
X074081Y014141D01*
X074081Y014287D02*
X073984Y014383D01*
X073984Y014432D01*
X074085Y014689D02*
X074279Y014689D01*
X074327Y014737D01*
X074327Y014834D01*
X074279Y014882D01*
X074327Y014983D02*
X074327Y015177D01*
X074327Y015080D02*
X074037Y015080D01*
X074134Y014983D01*
X074085Y014882D02*
X074037Y014834D01*
X074037Y014737D01*
X074085Y014689D01*
X073343Y014737D02*
X073343Y014834D01*
X073294Y014882D01*
X073343Y014983D02*
X073343Y015177D01*
X073343Y015080D02*
X073053Y015080D01*
X073149Y014983D01*
X073101Y014882D02*
X073053Y014834D01*
X073053Y014737D01*
X073101Y014689D01*
X073294Y014689D01*
X073343Y014737D01*
X073294Y015278D02*
X073343Y015326D01*
X073343Y015423D01*
X073294Y015471D01*
X073246Y015471D01*
X073198Y015423D01*
X073198Y015375D01*
X073198Y015423D02*
X073149Y015471D01*
X073101Y015471D01*
X073053Y015423D01*
X073053Y015326D01*
X073101Y015278D01*
X074037Y015423D02*
X074182Y015278D01*
X074182Y015471D01*
X074327Y015423D02*
X074037Y015423D01*
X071716Y015913D02*
X071523Y015913D01*
X071716Y016107D01*
X071716Y016155D01*
X071668Y016203D01*
X071571Y016203D01*
X071523Y016155D01*
X071421Y016155D02*
X071373Y016203D01*
X071276Y016203D01*
X071228Y016155D01*
X071228Y015961D01*
X071276Y015913D01*
X071373Y015913D01*
X071421Y015961D01*
X070437Y015913D02*
X070243Y015913D01*
X070340Y015913D02*
X070340Y016203D01*
X070243Y016107D01*
X070142Y016155D02*
X070094Y016203D01*
X069997Y016203D01*
X069948Y016155D01*
X069948Y015961D01*
X069997Y015913D01*
X070094Y015913D01*
X070142Y015961D01*
X069865Y013787D02*
X069865Y013497D01*
X069961Y013497D02*
X069768Y013497D01*
X069768Y013690D02*
X069865Y013787D01*
X069667Y013787D02*
X069667Y013738D01*
X069570Y013642D01*
X069570Y013497D01*
X069570Y013642D02*
X069473Y013738D01*
X069473Y013787D01*
X069262Y012681D02*
X069310Y012632D01*
X069310Y012584D01*
X069262Y012535D01*
X069165Y012535D01*
X069116Y012584D01*
X069116Y012632D01*
X069165Y012681D01*
X069262Y012681D01*
X069262Y012535D02*
X069310Y012487D01*
X069310Y012439D01*
X069262Y012390D01*
X069165Y012390D01*
X069116Y012439D01*
X069116Y012487D01*
X069165Y012535D01*
X069015Y012390D02*
X068822Y012390D01*
X068919Y012390D02*
X068919Y012681D01*
X068822Y012584D01*
X068721Y012632D02*
X068672Y012681D01*
X068575Y012681D01*
X068527Y012632D01*
X068527Y012439D01*
X068575Y012390D01*
X068672Y012390D01*
X068721Y012439D01*
X058575Y002719D02*
X058575Y002429D01*
X058720Y002429D01*
X058768Y002477D01*
X058768Y002574D01*
X058720Y002622D01*
X058575Y002622D01*
X058474Y002380D02*
X058280Y002380D01*
X058082Y002429D02*
X058179Y002622D01*
X057986Y002622D02*
X058082Y002429D01*
X057884Y002526D02*
X057691Y002526D01*
X057691Y002574D02*
X057739Y002622D01*
X057836Y002622D01*
X057884Y002574D01*
X057884Y002526D01*
X057836Y002429D02*
X057739Y002429D01*
X057691Y002477D01*
X057691Y002574D01*
X057590Y002622D02*
X057542Y002622D01*
X057445Y002526D01*
X057445Y002622D02*
X057445Y002429D01*
X057344Y002380D02*
X057151Y002380D01*
X057050Y002477D02*
X057001Y002429D01*
X056904Y002429D01*
X056856Y002477D01*
X057050Y002671D01*
X057050Y002477D01*
X057050Y002671D02*
X057001Y002719D01*
X056904Y002719D01*
X056856Y002671D01*
X056856Y002477D01*
X056755Y002477D02*
X056707Y002429D01*
X056610Y002429D01*
X056561Y002477D01*
X056755Y002671D01*
X056755Y002477D01*
X056561Y002477D02*
X056561Y002671D01*
X056610Y002719D01*
X056707Y002719D01*
X056755Y002671D01*
X056460Y002671D02*
X056412Y002719D01*
X056315Y002719D01*
X056267Y002671D01*
X056166Y002622D02*
X056020Y002622D01*
X055972Y002574D01*
X055972Y002477D01*
X056020Y002429D01*
X056166Y002429D01*
X056267Y002429D02*
X056460Y002622D01*
X056460Y002671D01*
X056460Y002429D02*
X056267Y002429D01*
X018391Y002621D02*
X018197Y002621D01*
X018391Y002814D01*
X018391Y002862D01*
X018342Y002911D01*
X018245Y002911D01*
X018197Y002862D01*
X018096Y002862D02*
X018048Y002911D01*
X017951Y002911D01*
X017902Y002862D01*
X017801Y002862D02*
X017753Y002911D01*
X017656Y002911D01*
X017608Y002862D01*
X017608Y002669D01*
X017656Y002621D01*
X017753Y002621D01*
X017801Y002669D01*
X017902Y002621D02*
X018096Y002814D01*
X018096Y002862D01*
X018096Y002621D02*
X017902Y002621D01*
X015024Y002746D02*
X014831Y002746D01*
X014976Y002891D01*
X014976Y002601D01*
X014730Y002649D02*
X014681Y002601D01*
X014585Y002601D01*
X014536Y002649D01*
X014536Y002843D01*
X014585Y002891D01*
X014681Y002891D01*
X014730Y002843D01*
X013056Y002301D02*
X013056Y002252D01*
X012862Y002059D01*
X012862Y002010D01*
X012761Y002010D02*
X012568Y002010D01*
X012665Y002010D02*
X012665Y002301D01*
X012568Y002204D01*
X012467Y002252D02*
X012418Y002301D01*
X012322Y002301D01*
X012273Y002252D01*
X012273Y002059D01*
X012322Y002010D01*
X012418Y002010D01*
X012467Y002059D01*
X011875Y002155D02*
X011681Y002155D01*
X011826Y002301D01*
X011826Y002010D01*
X011580Y002010D02*
X011387Y002010D01*
X011580Y002204D01*
X011580Y002252D01*
X011532Y002301D01*
X011435Y002301D01*
X011387Y002252D01*
X011286Y002252D02*
X011237Y002301D01*
X011140Y002301D01*
X011092Y002252D01*
X011092Y002059D01*
X011140Y002010D01*
X011237Y002010D01*
X011286Y002059D01*
X012862Y002301D02*
X013056Y002301D01*
X016995Y006072D02*
X016995Y006218D01*
X017044Y006266D01*
X017141Y006266D01*
X017189Y006218D01*
X017189Y006072D01*
X017286Y006072D02*
X016995Y006072D01*
X017189Y006169D02*
X017286Y006266D01*
X017286Y006367D02*
X017286Y006561D01*
X017286Y006464D02*
X016995Y006464D01*
X017092Y006367D01*
X017092Y006662D02*
X017141Y006710D01*
X017141Y006855D01*
X017237Y006855D02*
X017044Y006855D01*
X016995Y006807D01*
X016995Y006710D01*
X017044Y006662D01*
X017092Y006662D01*
X017237Y006662D02*
X017286Y006710D01*
X017286Y006807D01*
X017237Y006855D01*
X014040Y006980D02*
X013992Y006932D01*
X013895Y006932D01*
X013847Y006980D01*
X014040Y007173D01*
X014040Y006980D01*
X013847Y006980D02*
X013847Y007173D01*
X013895Y007222D01*
X013992Y007222D01*
X014040Y007173D01*
X013746Y007173D02*
X013697Y007222D01*
X013600Y007222D01*
X013552Y007173D01*
X013451Y007173D02*
X013451Y007077D01*
X013403Y007028D01*
X013257Y007028D01*
X013257Y006932D02*
X013257Y007222D01*
X013403Y007222D01*
X013451Y007173D01*
X013354Y007028D02*
X013451Y006932D01*
X013552Y006932D02*
X013746Y007125D01*
X013746Y007173D01*
X013746Y006932D02*
X013552Y006932D01*
X012169Y006608D02*
X012169Y006559D01*
X012121Y006511D01*
X012169Y006463D01*
X012169Y006414D01*
X012121Y006366D01*
X012024Y006366D01*
X011975Y006414D01*
X011874Y006414D02*
X011874Y006608D01*
X011826Y006656D01*
X011681Y006656D01*
X011681Y006366D01*
X011826Y006366D01*
X011874Y006414D01*
X011975Y006608D02*
X012024Y006656D01*
X012121Y006656D01*
X012169Y006608D01*
X012121Y006511D02*
X012072Y006511D01*
X004038Y008233D02*
X003902Y008096D01*
X003970Y008165D02*
X003765Y008370D01*
X003765Y008233D01*
X003625Y008230D02*
X003488Y008093D01*
X003556Y008162D02*
X003762Y007956D01*
X007153Y009664D02*
X007201Y009616D01*
X007395Y009616D01*
X007443Y009664D01*
X007443Y009761D01*
X007395Y009809D01*
X007443Y009910D02*
X007443Y010104D01*
X007443Y010007D02*
X007153Y010007D01*
X007250Y009910D01*
X007201Y009809D02*
X007153Y009761D01*
X007153Y009664D01*
X007547Y009664D02*
X007595Y009616D01*
X007789Y009616D01*
X007837Y009664D01*
X007837Y009761D01*
X007789Y009809D01*
X007837Y009910D02*
X007837Y010104D01*
X007837Y010007D02*
X007547Y010007D01*
X007643Y009910D01*
X007595Y009809D02*
X007547Y009761D01*
X007547Y009664D01*
X007547Y010205D02*
X007692Y010205D01*
X007643Y010302D01*
X007643Y010350D01*
X007692Y010398D01*
X007789Y010398D01*
X007837Y010350D01*
X007837Y010253D01*
X007789Y010205D01*
X007547Y010205D02*
X007547Y010398D01*
X007443Y010350D02*
X007395Y010398D01*
X007346Y010398D01*
X007298Y010350D01*
X007298Y010205D01*
X007395Y010205D01*
X007443Y010253D01*
X007443Y010350D01*
X007298Y010205D02*
X007201Y010302D01*
X007153Y010398D01*
X006926Y012173D02*
X006926Y012270D01*
X006926Y012221D02*
X006636Y012221D01*
X006636Y012173D02*
X006636Y012270D01*
X006684Y012369D02*
X006878Y012369D01*
X006926Y012418D01*
X006926Y012514D01*
X006878Y012563D01*
X006878Y012664D02*
X006926Y012712D01*
X006926Y012809D01*
X006878Y012857D01*
X006781Y012857D01*
X006733Y012809D01*
X006733Y012761D01*
X006781Y012664D01*
X006636Y012664D01*
X006636Y012857D01*
X006684Y012563D02*
X006636Y012514D01*
X006636Y012418D01*
X006684Y012369D01*
X004367Y012368D02*
X004367Y012271D01*
X004367Y012320D02*
X004077Y012320D01*
X004077Y012368D02*
X004077Y012271D01*
X004125Y012468D02*
X004319Y012468D01*
X004367Y012516D01*
X004367Y012613D01*
X004319Y012661D01*
X004319Y012762D02*
X004367Y012762D01*
X004319Y012762D02*
X004125Y012956D01*
X004077Y012956D01*
X004077Y012762D01*
X004125Y012661D02*
X004077Y012613D01*
X004077Y012516D01*
X004125Y012468D01*
X009687Y012515D02*
X009687Y012370D01*
X009978Y012370D01*
X009978Y012515D01*
X009929Y012563D01*
X009736Y012563D01*
X009687Y012515D01*
X009736Y012664D02*
X009687Y012713D01*
X009687Y012809D01*
X009736Y012858D01*
X009784Y012858D01*
X009978Y012664D01*
X009978Y012858D01*
X005869Y015469D02*
X005821Y015421D01*
X005724Y015421D01*
X005676Y015469D01*
X005574Y015421D02*
X005381Y015421D01*
X005574Y015614D01*
X005574Y015663D01*
X005526Y015711D01*
X005429Y015711D01*
X005381Y015663D01*
X005280Y015663D02*
X005280Y015566D01*
X005231Y015518D01*
X005086Y015518D01*
X005183Y015518D02*
X005280Y015421D01*
X005086Y015421D02*
X005086Y015711D01*
X005231Y015711D01*
X005280Y015663D01*
X005676Y015663D02*
X005724Y015711D01*
X005821Y015711D01*
X005869Y015663D01*
X005869Y015614D01*
X005821Y015566D01*
X005869Y015518D01*
X005869Y015469D01*
X005821Y015566D02*
X005772Y015566D01*
X007030Y015765D02*
X007078Y015716D01*
X007272Y015716D01*
X007320Y015765D01*
X007320Y015861D01*
X007272Y015910D01*
X007272Y016011D02*
X007320Y016059D01*
X007320Y016156D01*
X007272Y016204D01*
X007078Y016204D01*
X007030Y016156D01*
X007030Y016059D01*
X007078Y016011D01*
X007127Y016011D01*
X007175Y016059D01*
X007175Y016204D01*
X007620Y016108D02*
X007911Y016108D01*
X007911Y016204D02*
X007911Y016011D01*
X007911Y015910D02*
X007814Y015813D01*
X007814Y015861D02*
X007814Y015716D01*
X007911Y015716D02*
X007620Y015716D01*
X007620Y015861D01*
X007669Y015910D01*
X007765Y015910D01*
X007814Y015861D01*
X007717Y016011D02*
X007620Y016108D01*
X007669Y016305D02*
X007717Y016305D01*
X007765Y016354D01*
X007765Y016451D01*
X007814Y016499D01*
X007862Y016499D01*
X007911Y016451D01*
X007911Y016354D01*
X007862Y016305D01*
X007814Y016305D01*
X007765Y016354D01*
X007765Y016451D02*
X007717Y016499D01*
X007669Y016499D01*
X007620Y016451D01*
X007620Y016354D01*
X007669Y016305D01*
X008211Y016354D02*
X008211Y016451D01*
X008259Y016499D01*
X008308Y016499D01*
X008501Y016305D01*
X008501Y016499D01*
X008501Y016204D02*
X008501Y016011D01*
X008501Y016108D02*
X008211Y016108D01*
X008308Y016011D01*
X008259Y015910D02*
X008211Y015861D01*
X008211Y015765D01*
X008259Y015716D01*
X008453Y015716D01*
X008501Y015765D01*
X008501Y015861D01*
X008453Y015910D01*
X008259Y016305D02*
X008211Y016354D01*
X007078Y015910D02*
X007030Y015861D01*
X007030Y015765D01*
D13*
X045386Y011518D03*
X045386Y011223D03*
X045386Y010731D03*
X045386Y010435D03*
X075977Y011518D03*
X075977Y011813D03*
X075977Y012109D03*
X075977Y012404D03*
D14*
X075977Y012256D03*
X075977Y011666D03*
X045386Y011370D03*
X045386Y010583D03*
D15*
X056047Y003376D03*
X056047Y003366D03*
X056047Y003356D03*
X056047Y003346D03*
X056047Y003336D03*
X056047Y003326D03*
X056047Y003316D03*
X056047Y003306D03*
X056047Y003296D03*
X056047Y003286D03*
X056047Y003276D03*
X056047Y003266D03*
X056047Y003256D03*
X056047Y003246D03*
X056047Y003236D03*
X056047Y003226D03*
X056047Y003216D03*
X056047Y003206D03*
X056047Y003176D03*
X056047Y003166D03*
X056047Y003156D03*
X056047Y003146D03*
X056047Y003136D03*
X056047Y003126D03*
X056047Y003116D03*
X056047Y003106D03*
X056047Y003096D03*
X056047Y003086D03*
X056047Y003076D03*
X056047Y003066D03*
X056047Y003056D03*
X056047Y003046D03*
X056047Y003036D03*
X056047Y003026D03*
X056047Y003016D03*
X056047Y003006D03*
X056047Y002996D03*
X056047Y002986D03*
X056047Y002976D03*
X056047Y002966D03*
X056047Y002956D03*
X056047Y002946D03*
X056237Y002946D03*
X056237Y002956D03*
X056237Y002966D03*
X056237Y002976D03*
X056237Y002986D03*
X056237Y002996D03*
X056237Y003006D03*
X056237Y003016D03*
X056237Y003026D03*
X056237Y003036D03*
X056237Y003046D03*
X056237Y003056D03*
X056237Y003066D03*
X056237Y003076D03*
X056237Y003086D03*
X056237Y003096D03*
X056237Y003106D03*
X056237Y003116D03*
X056237Y003126D03*
X056237Y003136D03*
X056237Y003146D03*
X056237Y003156D03*
X056237Y003166D03*
X056227Y003186D03*
X056227Y003196D03*
X056387Y003196D03*
X056387Y003186D03*
X056387Y003176D03*
X056387Y003166D03*
X056387Y003156D03*
X056387Y003146D03*
X056387Y003136D03*
X056387Y003126D03*
X056387Y003116D03*
X056387Y003106D03*
X056387Y003096D03*
X056387Y003086D03*
X056387Y003076D03*
X056387Y003066D03*
X056387Y003056D03*
X056387Y003046D03*
X056387Y003036D03*
X056387Y003026D03*
X056387Y003016D03*
X056397Y002986D03*
X056617Y003016D03*
X056617Y003026D03*
X056617Y003036D03*
X056617Y003046D03*
X056617Y003056D03*
X056617Y003066D03*
X056617Y003076D03*
X056617Y003086D03*
X056617Y003096D03*
X056617Y003106D03*
X056617Y003116D03*
X056617Y003126D03*
X056617Y003136D03*
X056617Y003146D03*
X056617Y003156D03*
X056617Y003166D03*
X056617Y003176D03*
X056617Y003186D03*
X056617Y003196D03*
X056627Y002986D03*
X056827Y002976D03*
X056827Y002966D03*
X056827Y002956D03*
X056827Y002946D03*
X056827Y002936D03*
X056827Y002926D03*
X056827Y002916D03*
X056827Y002906D03*
X056827Y002896D03*
X056827Y002886D03*
X056827Y002876D03*
X056827Y002866D03*
X056827Y002856D03*
X056827Y002846D03*
X056827Y003006D03*
X056827Y003016D03*
X056827Y003026D03*
X056827Y003036D03*
X056827Y003046D03*
X056827Y003056D03*
X056827Y003066D03*
X056827Y003076D03*
X056827Y003086D03*
X056827Y003096D03*
X056827Y003106D03*
X056827Y003116D03*
X056827Y003126D03*
X056827Y003136D03*
X056827Y003146D03*
X056827Y003156D03*
X056827Y003166D03*
X056827Y003176D03*
X057007Y003196D03*
X057017Y003186D03*
X057027Y003166D03*
X057027Y003156D03*
X057037Y003116D03*
X057037Y003106D03*
X057037Y003096D03*
X057037Y003086D03*
X057027Y003046D03*
X057027Y003036D03*
X057017Y003016D03*
X057007Y003006D03*
X057147Y003136D03*
X057137Y003156D03*
X057137Y003166D03*
X057157Y003206D03*
X057277Y003056D03*
X057287Y003046D03*
X057287Y003036D03*
X057277Y002996D03*
X057267Y002986D03*
X057417Y002996D03*
X057417Y002956D03*
X057417Y003176D03*
X057417Y003216D03*
X057917Y003156D03*
X057917Y003146D03*
X057937Y003206D03*
X058087Y003196D03*
X058237Y003196D03*
X058237Y003206D03*
X058237Y003216D03*
X058237Y003226D03*
X058237Y003236D03*
X058237Y003186D03*
X058237Y003176D03*
X058237Y003166D03*
X058237Y003156D03*
X058237Y003146D03*
X058237Y003136D03*
X058237Y003126D03*
X058237Y003116D03*
X058237Y003106D03*
X058237Y003096D03*
X058237Y003086D03*
X058237Y003076D03*
X058237Y003066D03*
X058237Y003056D03*
X058237Y003046D03*
X058237Y003036D03*
X058237Y003026D03*
X058237Y003016D03*
X058237Y003006D03*
X058237Y002996D03*
X058237Y002986D03*
X058237Y002976D03*
X058237Y002966D03*
X058237Y002956D03*
X058237Y002946D03*
X058127Y002946D03*
X058127Y002936D03*
X058117Y002956D03*
X058097Y002886D03*
X058007Y002846D03*
X057907Y002896D03*
X057927Y003016D03*
X058237Y003316D03*
X058237Y003356D03*
X058407Y003196D03*
X058407Y003186D03*
X058407Y003176D03*
X058407Y003166D03*
X058407Y003156D03*
X058407Y003146D03*
X058407Y003136D03*
X058407Y003126D03*
X058407Y003116D03*
X058407Y003106D03*
X058407Y003096D03*
X058407Y003086D03*
X058407Y003076D03*
X058407Y003066D03*
X058407Y003056D03*
X058407Y003046D03*
X058407Y003036D03*
X058407Y003026D03*
X058407Y003016D03*
X058417Y002986D03*
X058617Y002986D03*
X058617Y002996D03*
X058617Y003006D03*
X058617Y003016D03*
X058617Y003026D03*
X058617Y003036D03*
X058617Y003046D03*
X058617Y003056D03*
X058617Y003066D03*
X058617Y003076D03*
X058617Y003086D03*
X058617Y003096D03*
X058617Y003106D03*
X058617Y003116D03*
X058617Y003126D03*
X058617Y003136D03*
X058617Y003146D03*
X058617Y003156D03*
X058617Y003166D03*
X058617Y003176D03*
X058617Y003206D03*
X058617Y003216D03*
X058617Y003226D03*
X058617Y003236D03*
X058617Y003246D03*
X058617Y003256D03*
X058617Y003266D03*
X058617Y003276D03*
X058617Y003286D03*
X058617Y003296D03*
X058617Y003306D03*
X058617Y003316D03*
X058617Y003326D03*
X058617Y003336D03*
X058617Y003346D03*
X058617Y003356D03*
X058617Y003366D03*
X058617Y003376D03*
X058797Y003196D03*
X058797Y003186D03*
X058807Y003166D03*
X058807Y003156D03*
X058807Y003146D03*
X058807Y003136D03*
X058807Y003126D03*
X058807Y003116D03*
X058807Y003106D03*
X058807Y003096D03*
X058807Y003086D03*
X058807Y003076D03*
X058807Y003066D03*
X058807Y003056D03*
X058807Y003046D03*
X058807Y003036D03*
X058807Y003026D03*
X058807Y003016D03*
X058807Y003006D03*
X058807Y002996D03*
X058807Y002986D03*
X058807Y002976D03*
X058807Y002966D03*
X058807Y002956D03*
X058807Y002946D03*
X058957Y002996D03*
X058957Y003006D03*
X058947Y003026D03*
X058947Y003036D03*
X058947Y003046D03*
X058947Y003056D03*
X058947Y003066D03*
X058947Y003076D03*
X058947Y003086D03*
X058947Y003096D03*
X058947Y003106D03*
X058947Y003116D03*
X058947Y003126D03*
X058947Y003136D03*
X058947Y003146D03*
X058947Y003156D03*
X058947Y003166D03*
X058947Y003176D03*
X058947Y003186D03*
X058947Y003196D03*
X058947Y003206D03*
X058947Y003216D03*
X058947Y003226D03*
X058947Y003236D03*
X059147Y003236D03*
X059147Y003226D03*
X059147Y003216D03*
X059147Y003206D03*
X059147Y003196D03*
X059147Y003186D03*
X059147Y003176D03*
X059147Y003166D03*
X059147Y003156D03*
X059147Y003146D03*
X059147Y003136D03*
X059147Y003126D03*
X059147Y003116D03*
X059147Y003106D03*
X059147Y003096D03*
X059147Y003086D03*
X059147Y003076D03*
X059147Y003066D03*
X059147Y003056D03*
X059147Y003046D03*
X059147Y003036D03*
X059147Y003026D03*
X059147Y003016D03*
X059287Y003016D03*
X059287Y003026D03*
X059287Y003036D03*
X059287Y003046D03*
X059287Y003056D03*
X059287Y003066D03*
X059287Y003076D03*
X059287Y003086D03*
X059287Y003096D03*
X059287Y003106D03*
X059287Y003116D03*
X059287Y003126D03*
X059287Y003136D03*
X059287Y003146D03*
X059287Y003156D03*
X059287Y003166D03*
X059287Y003176D03*
X059287Y003206D03*
X059287Y003216D03*
X059287Y003226D03*
X059287Y003236D03*
X059287Y003246D03*
X059287Y003256D03*
X059287Y003266D03*
X059287Y003276D03*
X059287Y003286D03*
X059287Y003296D03*
X059287Y003306D03*
X059287Y003316D03*
X059287Y003326D03*
X059287Y003336D03*
X059287Y003346D03*
X059287Y003356D03*
X059287Y003366D03*
X059287Y003376D03*
X059477Y003186D03*
X059487Y003176D03*
X059487Y003166D03*
X059497Y003146D03*
X059497Y003136D03*
X059497Y003126D03*
X059497Y003116D03*
X059497Y003106D03*
X059497Y003096D03*
X059497Y003086D03*
X059497Y003076D03*
X059497Y003066D03*
X059497Y003056D03*
X059487Y003026D03*
X059477Y003006D03*
X059467Y002996D03*
X059607Y002996D03*
X059607Y002956D03*
X059737Y003016D03*
X059727Y003036D03*
X059717Y003086D03*
X059717Y003096D03*
X059717Y003106D03*
X059727Y003156D03*
X059737Y003176D03*
X059747Y003186D03*
X059897Y003206D03*
X060007Y003156D03*
X060007Y003146D03*
X060017Y003176D03*
X060027Y003186D03*
X060037Y003196D03*
X059997Y003106D03*
X059997Y003096D03*
X059997Y003086D03*
X060007Y003046D03*
X060007Y003036D03*
X060017Y003016D03*
X060027Y003006D03*
X060037Y002996D03*
X059897Y002986D03*
X060197Y002996D03*
X060207Y003006D03*
X060217Y003016D03*
X060227Y003036D03*
X060227Y003046D03*
X060237Y003086D03*
X060237Y003096D03*
X060237Y003106D03*
X060227Y003146D03*
X060227Y003156D03*
X060217Y003176D03*
X060207Y003186D03*
X060197Y003196D03*
X060367Y003176D03*
X060367Y003166D03*
X060367Y003156D03*
X060367Y003146D03*
X060367Y003136D03*
X060367Y003126D03*
X060367Y003116D03*
X060367Y003106D03*
X060367Y003096D03*
X060367Y003086D03*
X060367Y003076D03*
X060367Y003066D03*
X060367Y003056D03*
X060367Y003046D03*
X060367Y003036D03*
X060367Y003026D03*
X060367Y003016D03*
X060367Y003006D03*
X060367Y002996D03*
X060367Y002986D03*
X060367Y002976D03*
X060367Y002966D03*
X060367Y002956D03*
X060367Y002946D03*
X060537Y002946D03*
X060537Y002956D03*
X060537Y002966D03*
X060537Y002976D03*
X060537Y002986D03*
X060537Y002996D03*
X060537Y003006D03*
X060537Y003016D03*
X060537Y003026D03*
X060537Y003036D03*
X060537Y003046D03*
X060537Y003056D03*
X060537Y003066D03*
X060537Y003076D03*
X060537Y003086D03*
X060537Y003096D03*
X060537Y003106D03*
X060537Y003116D03*
X060537Y003126D03*
X060537Y003136D03*
X060537Y003146D03*
X060537Y003156D03*
X060537Y003166D03*
X060707Y003186D03*
X060707Y003196D03*
X060717Y003166D03*
X060717Y003156D03*
X060717Y003146D03*
X060717Y003136D03*
X060717Y003126D03*
X060717Y003116D03*
X060717Y003106D03*
X060717Y003096D03*
X060717Y003086D03*
X060717Y003076D03*
X060717Y003066D03*
X060717Y003056D03*
X060717Y003046D03*
X060717Y003036D03*
X060717Y003026D03*
X060717Y003016D03*
X060717Y003006D03*
X060717Y002996D03*
X060717Y002986D03*
X060717Y002976D03*
X060717Y002966D03*
X060717Y002956D03*
X060717Y002946D03*
X061067Y002886D03*
X061077Y002906D03*
X061077Y002916D03*
X061077Y002926D03*
X061077Y002936D03*
X061077Y002946D03*
X061077Y002956D03*
X061077Y002966D03*
X061077Y002976D03*
X061077Y002986D03*
X061077Y002996D03*
X061077Y003006D03*
X061077Y003016D03*
X061077Y003026D03*
X061077Y003036D03*
X061077Y003046D03*
X061077Y003056D03*
X061077Y003066D03*
X061077Y003076D03*
X061077Y003086D03*
X061077Y003096D03*
X061077Y003106D03*
X061077Y003116D03*
X061077Y003126D03*
X061077Y003136D03*
X061077Y003146D03*
X061077Y003156D03*
X061077Y003166D03*
X061077Y003176D03*
X061077Y003186D03*
X061077Y003196D03*
X061077Y003206D03*
X061077Y003216D03*
X061077Y003226D03*
X061077Y003236D03*
X061077Y003316D03*
X061077Y003356D03*
X061227Y003196D03*
X061237Y003066D03*
X061207Y003026D03*
X061207Y003016D03*
X061207Y003006D03*
X061217Y002986D03*
X061327Y002976D03*
X061397Y003016D03*
X061397Y003026D03*
X061397Y003036D03*
X061397Y003046D03*
X061397Y003056D03*
X061397Y003066D03*
X061397Y003076D03*
X061397Y003116D03*
X061397Y003126D03*
X061397Y003136D03*
X061397Y003146D03*
X061387Y003186D03*
X061377Y003196D03*
X061537Y003176D03*
X061537Y003166D03*
X061537Y003156D03*
X061537Y003146D03*
X061537Y003136D03*
X061537Y003126D03*
X061537Y003116D03*
X061537Y003106D03*
X061537Y003096D03*
X061537Y003086D03*
X061537Y003076D03*
X061537Y003066D03*
X061537Y003056D03*
X061537Y003046D03*
X061537Y003036D03*
X061537Y003026D03*
X061537Y003016D03*
X061537Y003006D03*
X061537Y002996D03*
X061537Y002986D03*
X061537Y002976D03*
X061537Y002966D03*
X061537Y002956D03*
X061537Y002946D03*
X061727Y002946D03*
X061727Y002956D03*
X061727Y002966D03*
X061727Y002976D03*
X061727Y002986D03*
X061727Y002996D03*
X061727Y003006D03*
X061727Y003016D03*
X061727Y003026D03*
X061727Y003036D03*
X061727Y003046D03*
X061727Y003056D03*
X061727Y003066D03*
X061727Y003076D03*
X061727Y003086D03*
X061727Y003096D03*
X061727Y003106D03*
X061727Y003116D03*
X061727Y003126D03*
X061727Y003136D03*
X061727Y003146D03*
X061727Y003156D03*
X061727Y003166D03*
X061717Y003186D03*
X061717Y003196D03*
X061887Y003256D03*
X061897Y003266D03*
X061907Y003276D03*
X061997Y003276D03*
X061997Y003286D03*
X061997Y003296D03*
X061997Y003266D03*
X061997Y003256D03*
X061997Y003246D03*
X061997Y003236D03*
X061997Y003226D03*
X061997Y003216D03*
X061997Y003206D03*
X061997Y003196D03*
X061997Y003186D03*
X061997Y003176D03*
X061997Y003166D03*
X061997Y003156D03*
X061997Y003146D03*
X061997Y003136D03*
X061997Y003126D03*
X061997Y003116D03*
X061997Y003106D03*
X061997Y003096D03*
X061997Y003086D03*
X061997Y003076D03*
X061997Y003066D03*
X061997Y003056D03*
X061997Y003046D03*
X061997Y003036D03*
X061997Y003026D03*
X061997Y003016D03*
X061997Y003006D03*
X061997Y002996D03*
X061997Y002986D03*
X062207Y003136D03*
X062197Y003156D03*
X062197Y003166D03*
X062217Y003206D03*
X062337Y003056D03*
X062347Y003046D03*
X062347Y003036D03*
X062337Y002996D03*
X062327Y002986D03*
X061997Y003356D03*
X059287Y003006D03*
X058617Y002976D03*
X058617Y002966D03*
X058617Y002956D03*
X058617Y002946D03*
D16*
X058412Y002996D03*
X058412Y003006D03*
X058412Y003236D03*
X058412Y003246D03*
X058412Y003256D03*
X058412Y003266D03*
X058412Y003276D03*
X058412Y003286D03*
X058412Y003296D03*
X058412Y003306D03*
X058092Y003186D03*
X058092Y003176D03*
X058102Y003156D03*
X058102Y003146D03*
X058092Y003126D03*
X058092Y003116D03*
X058082Y003106D03*
X058072Y003096D03*
X057942Y003096D03*
X057932Y003106D03*
X057922Y003116D03*
X057922Y003126D03*
X057922Y003136D03*
X057922Y003166D03*
X057922Y003176D03*
X057922Y003186D03*
X057932Y003196D03*
X057832Y003256D03*
X057822Y003236D03*
X057812Y003206D03*
X057802Y003186D03*
X057792Y003156D03*
X057772Y003106D03*
X057752Y003056D03*
X057732Y003006D03*
X057712Y002956D03*
X057552Y003006D03*
X057572Y003056D03*
X057592Y003106D03*
X057612Y003156D03*
X057622Y003186D03*
X057632Y003206D03*
X057642Y003236D03*
X057652Y003256D03*
X057662Y003286D03*
X057682Y003336D03*
X057842Y003286D03*
X057862Y003336D03*
X057142Y003196D03*
X057142Y003186D03*
X057142Y003176D03*
X057142Y003146D03*
X057032Y003146D03*
X057032Y003136D03*
X057032Y003126D03*
X057032Y003076D03*
X057032Y003066D03*
X057032Y003056D03*
X057022Y003026D03*
X057132Y002986D03*
X057282Y003006D03*
X057282Y003016D03*
X057282Y003026D03*
X057532Y002956D03*
X057902Y002936D03*
X057902Y002926D03*
X057902Y002916D03*
X057902Y002906D03*
X057912Y002956D03*
X057922Y003026D03*
X058122Y002926D03*
X058122Y002916D03*
X058122Y002906D03*
X058112Y002896D03*
X058952Y003016D03*
X059092Y002986D03*
X059152Y002986D03*
X059152Y002976D03*
X059152Y002966D03*
X059152Y002956D03*
X059282Y002956D03*
X059282Y002966D03*
X059282Y002976D03*
X059482Y003016D03*
X059492Y003036D03*
X059492Y003046D03*
X059492Y003156D03*
X059602Y003006D03*
X059722Y003046D03*
X059722Y003056D03*
X059722Y003066D03*
X059722Y003076D03*
X059722Y003116D03*
X059722Y003126D03*
X059722Y003136D03*
X059722Y003146D03*
X059732Y003166D03*
X059832Y003246D03*
X060012Y003166D03*
X060002Y003136D03*
X060002Y003126D03*
X060002Y003116D03*
X060002Y003076D03*
X060002Y003066D03*
X060002Y003056D03*
X060012Y003026D03*
X060222Y003026D03*
X060232Y003056D03*
X060232Y003066D03*
X060232Y003076D03*
X060232Y003116D03*
X060232Y003126D03*
X060232Y003136D03*
X060222Y003166D03*
X060362Y003206D03*
X060362Y003216D03*
X060362Y003226D03*
X060362Y003236D03*
X060512Y003206D03*
X060522Y003196D03*
X060522Y003186D03*
X060582Y003206D03*
X060712Y003176D03*
X060882Y003106D03*
X060902Y003156D03*
X060912Y003186D03*
X060922Y003206D03*
X060932Y003236D03*
X060942Y003256D03*
X060952Y003286D03*
X060972Y003336D03*
X061392Y003176D03*
X061392Y003166D03*
X061392Y003156D03*
X061532Y003206D03*
X061532Y003216D03*
X061532Y003226D03*
X061532Y003236D03*
X061722Y003176D03*
X062002Y003366D03*
X062202Y003196D03*
X062202Y003186D03*
X062202Y003176D03*
X062202Y003146D03*
X062192Y002986D03*
X062342Y003006D03*
X062342Y003016D03*
X062342Y003026D03*
X061402Y002986D03*
X061402Y002976D03*
X061402Y002966D03*
X061402Y002956D03*
X061212Y002996D03*
X061212Y003036D03*
X061212Y003046D03*
X061222Y003056D03*
X061072Y002896D03*
X061012Y002846D03*
X060822Y002956D03*
X060842Y003006D03*
X060862Y003056D03*
X059742Y003006D03*
X059732Y003026D03*
X058802Y003176D03*
X057022Y003176D03*
X056822Y003206D03*
X056822Y003216D03*
X056822Y003226D03*
X056822Y003236D03*
X056622Y003236D03*
X056622Y003246D03*
X056622Y003256D03*
X056622Y003266D03*
X056622Y003276D03*
X056622Y003286D03*
X056622Y003296D03*
X056622Y003306D03*
X056392Y003306D03*
X056392Y003296D03*
X056392Y003286D03*
X056392Y003276D03*
X056392Y003266D03*
X056392Y003256D03*
X056392Y003246D03*
X056392Y003236D03*
X056232Y003176D03*
X056392Y003006D03*
X056392Y002996D03*
X056622Y002996D03*
X056622Y003006D03*
D17*
X056667Y002976D03*
X056437Y002976D03*
X056937Y002966D03*
X056947Y003226D03*
X057217Y003226D03*
X058007Y003076D03*
X058087Y003216D03*
X058457Y002976D03*
X058007Y002856D03*
X059027Y002966D03*
X059397Y002966D03*
X059407Y003226D03*
X060467Y003216D03*
X061277Y002966D03*
X062277Y003226D03*
D18*
X062317Y003076D03*
X061547Y003196D03*
X061387Y003106D03*
X061387Y002996D03*
X061237Y003206D03*
X061077Y003336D03*
X060377Y003196D03*
X059607Y002976D03*
X058627Y003196D03*
X058237Y003336D03*
X057957Y003216D03*
X058107Y002966D03*
X057417Y002976D03*
X057257Y003076D03*
X057417Y003196D03*
X056837Y003196D03*
X056057Y003196D03*
X061027Y002856D03*
X061987Y003336D03*
D19*
X061332Y003086D03*
X059832Y003216D03*
X058432Y003216D03*
X058432Y003226D03*
X058432Y003206D03*
X058002Y002866D03*
X056642Y003206D03*
X056642Y003216D03*
X056642Y003226D03*
X056412Y003226D03*
X056412Y003216D03*
X056412Y003206D03*
D20*
X056842Y002986D03*
X057152Y002976D03*
X059132Y002996D03*
X059302Y002986D03*
X059302Y003196D03*
X060472Y003236D03*
X061032Y002866D03*
X062212Y002976D03*
X061982Y003326D03*
D21*
X058007Y002876D03*
D22*
X057957Y003006D03*
X058457Y002956D03*
X058737Y003236D03*
X059397Y002956D03*
X061037Y002876D03*
X061267Y003076D03*
X061657Y003236D03*
X062237Y003116D03*
X062297Y003086D03*
X062277Y003236D03*
X057237Y003086D03*
X057177Y003116D03*
X057217Y003236D03*
X056947Y003236D03*
X056667Y002956D03*
X056437Y002956D03*
X056167Y003236D03*
D23*
X056212Y003206D03*
X056052Y003186D03*
X056832Y003186D03*
X057002Y003206D03*
X057162Y003126D03*
X057272Y003066D03*
X057252Y002976D03*
X057422Y002986D03*
X057422Y002966D03*
X057422Y003186D03*
X057422Y003206D03*
X057002Y002996D03*
X056992Y002986D03*
X056832Y002996D03*
X057922Y002886D03*
X058972Y002986D03*
X059142Y003006D03*
X059292Y002996D03*
X059452Y002986D03*
X059602Y002986D03*
X059602Y002966D03*
X059752Y002996D03*
X059762Y002986D03*
X059752Y003196D03*
X059762Y003206D03*
X060042Y003206D03*
X060192Y003206D03*
X060372Y003186D03*
X060542Y003176D03*
X060692Y003206D03*
X061082Y003326D03*
X061082Y003346D03*
X061372Y003206D03*
X061542Y003186D03*
X061702Y003206D03*
X061922Y003286D03*
X061932Y003296D03*
X061992Y003346D03*
X062222Y003126D03*
X062332Y003066D03*
X062312Y002976D03*
X061392Y003006D03*
X061232Y002976D03*
X060192Y002986D03*
X060042Y002986D03*
X059472Y003196D03*
X059462Y003206D03*
X059292Y003186D03*
X058782Y003206D03*
X058622Y003186D03*
X058242Y003326D03*
X058242Y003346D03*
D24*
X058237Y003306D03*
X058007Y003246D03*
X057887Y003376D03*
X057707Y003376D03*
X057417Y003166D03*
X057287Y003196D03*
X057417Y002946D03*
X057507Y002916D03*
X057687Y002916D03*
X059607Y002946D03*
X059907Y003006D03*
X060797Y002916D03*
X061077Y003306D03*
X060997Y003376D03*
X061887Y003236D03*
X062347Y003196D03*
D25*
X062337Y003206D03*
X062277Y003246D03*
X061887Y003246D03*
X061657Y003246D03*
X061587Y003206D03*
X061317Y003246D03*
X061347Y002986D03*
X061407Y002946D03*
X061267Y002946D03*
X060877Y003086D03*
X060877Y003096D03*
X060887Y003116D03*
X060887Y003126D03*
X060897Y003136D03*
X060897Y003146D03*
X060907Y003166D03*
X060907Y003176D03*
X060917Y003196D03*
X060927Y003216D03*
X060927Y003226D03*
X060937Y003246D03*
X060947Y003266D03*
X060947Y003276D03*
X060957Y003296D03*
X060957Y003306D03*
X060967Y003316D03*
X060967Y003326D03*
X060977Y003346D03*
X060977Y003356D03*
X060987Y003366D03*
X061077Y003366D03*
X060647Y003246D03*
X060567Y003196D03*
X060407Y003206D03*
X060117Y003246D03*
X060117Y002946D03*
X059907Y002996D03*
X059827Y002946D03*
X059397Y002946D03*
X059277Y002946D03*
X059157Y002946D03*
X059017Y002946D03*
X058737Y003246D03*
X058667Y003206D03*
X058417Y003316D03*
X058417Y003326D03*
X058417Y003336D03*
X058237Y003366D03*
X058097Y003166D03*
X058097Y003136D03*
X057937Y003056D03*
X057927Y003046D03*
X057927Y003036D03*
X057927Y002966D03*
X057907Y002946D03*
X057747Y003036D03*
X057747Y003046D03*
X057757Y003066D03*
X057757Y003076D03*
X057767Y003086D03*
X057767Y003096D03*
X057777Y003116D03*
X057777Y003126D03*
X057787Y003136D03*
X057787Y003146D03*
X057797Y003166D03*
X057797Y003176D03*
X057807Y003196D03*
X057817Y003216D03*
X057817Y003226D03*
X057827Y003246D03*
X057837Y003266D03*
X057837Y003276D03*
X057847Y003296D03*
X057847Y003306D03*
X057857Y003316D03*
X057857Y003326D03*
X057867Y003346D03*
X057867Y003356D03*
X057877Y003366D03*
X057697Y003366D03*
X057687Y003356D03*
X057687Y003346D03*
X057677Y003326D03*
X057677Y003316D03*
X057667Y003306D03*
X057667Y003296D03*
X057657Y003276D03*
X057657Y003266D03*
X057647Y003246D03*
X057637Y003226D03*
X057637Y003216D03*
X057627Y003196D03*
X057617Y003176D03*
X057617Y003166D03*
X057607Y003146D03*
X057607Y003136D03*
X057597Y003126D03*
X057597Y003116D03*
X057587Y003096D03*
X057587Y003086D03*
X057577Y003076D03*
X057577Y003066D03*
X057567Y003046D03*
X057567Y003036D03*
X057557Y003026D03*
X057557Y003016D03*
X057547Y002996D03*
X057547Y002986D03*
X057537Y002976D03*
X057537Y002966D03*
X057527Y002946D03*
X057527Y002936D03*
X057517Y002926D03*
X057417Y003006D03*
X057417Y003226D03*
X057277Y003206D03*
X057217Y003246D03*
X056947Y003246D03*
X056877Y003206D03*
X056627Y003316D03*
X056627Y003326D03*
X056627Y003336D03*
X056397Y003336D03*
X056397Y003326D03*
X056397Y003316D03*
X056167Y003246D03*
X056097Y003206D03*
X056437Y002946D03*
X056667Y002946D03*
X057697Y002926D03*
X057707Y002936D03*
X057707Y002946D03*
X057717Y002966D03*
X057717Y002976D03*
X057727Y002986D03*
X057727Y002996D03*
X057737Y003016D03*
X057737Y003026D03*
X058457Y002946D03*
X059337Y003206D03*
X060807Y002926D03*
X060817Y002936D03*
X060817Y002946D03*
X060827Y002966D03*
X060827Y002976D03*
X060837Y002986D03*
X060837Y002996D03*
X060847Y003016D03*
X060847Y003026D03*
X060857Y003036D03*
X060857Y003046D03*
X060867Y003066D03*
X060867Y003076D03*
D26*
X061062Y003246D03*
X061222Y003186D03*
X060562Y003186D03*
X060472Y003246D03*
X059902Y003196D03*
X059412Y003246D03*
X058502Y002986D03*
X057202Y002946D03*
X057132Y002996D03*
X056932Y002946D03*
X056712Y002986D03*
X056482Y002986D03*
X062192Y002996D03*
X062262Y002946D03*
D27*
X061992Y002946D03*
X061992Y002956D03*
X061992Y002966D03*
X061992Y002976D03*
X058042Y003226D03*
D28*
X058102Y003206D03*
X057992Y003066D03*
X057202Y003106D03*
X057202Y002956D03*
X056932Y002956D03*
X059022Y002956D03*
X059412Y003236D03*
X060472Y003226D03*
X060642Y003236D03*
X061272Y002956D03*
X061972Y003316D03*
X062262Y003106D03*
X062262Y002956D03*
D29*
X062277Y003096D03*
X061967Y003306D03*
X061307Y003236D03*
X060117Y003236D03*
X060117Y002956D03*
X059827Y002956D03*
X059827Y003236D03*
X058007Y003236D03*
X057217Y003096D03*
D30*
X056672Y002966D03*
X056442Y002966D03*
X056162Y003226D03*
X058462Y002966D03*
X058732Y003226D03*
X060642Y003226D03*
X061652Y003226D03*
D31*
X061652Y003216D03*
X061352Y003096D03*
X060642Y003216D03*
X059832Y003226D03*
X058732Y003216D03*
X057202Y002966D03*
X056162Y003216D03*
X062262Y002966D03*
D32*
X061307Y003226D03*
X060117Y003226D03*
X060117Y002966D03*
X059827Y002966D03*
X059397Y002976D03*
X059407Y003216D03*
X059027Y002976D03*
X058007Y003086D03*
X056947Y003216D03*
X056937Y002976D03*
D33*
X058032Y002976D03*
D34*
X059827Y002976D03*
X061307Y003216D03*
D35*
X060117Y003216D03*
X060117Y002976D03*
X058027Y002986D03*
X058007Y002996D03*
D36*
X057222Y003216D03*
X062282Y003216D03*
D37*
X055628Y003227D02*
X055628Y002967D01*
X055328Y002917D01*
X055286Y002926D02*
X054858Y002926D01*
X054898Y002967D02*
X054898Y003217D01*
X054748Y003467D01*
X054498Y003517D01*
X054198Y003417D01*
X054248Y003417D01*
X054098Y003167D01*
X054198Y002867D01*
X054298Y002767D01*
X054148Y002367D01*
X054048Y002417D01*
X053848Y002267D01*
X053698Y002417D01*
X053848Y002667D01*
X053748Y002917D01*
X053448Y003017D01*
X053448Y002967D01*
X053448Y003217D01*
X053748Y003267D01*
X053848Y003567D01*
X053648Y003767D01*
X053798Y003917D01*
X054098Y003767D01*
X054398Y003917D01*
X054348Y003917D01*
X054398Y004167D01*
X054648Y004167D01*
X054648Y003867D01*
X054948Y003767D01*
X055198Y003917D01*
X055348Y003817D01*
X055198Y003517D01*
X055298Y003267D01*
X055598Y003217D01*
X055598Y002967D01*
X055298Y002967D01*
X055198Y002617D01*
X055348Y002417D01*
X055198Y002267D01*
X054998Y002417D01*
X054898Y002367D01*
X054698Y002767D01*
X054898Y002967D01*
X054898Y002985D02*
X055598Y002985D01*
X055598Y003043D02*
X054898Y003043D01*
X054898Y003102D02*
X055598Y003102D01*
X055598Y003160D02*
X054898Y003160D01*
X054897Y003219D02*
X055586Y003219D01*
X055628Y003227D02*
X055328Y003287D01*
X055294Y003277D02*
X054862Y003277D01*
X054827Y003336D02*
X055270Y003336D01*
X055247Y003394D02*
X054792Y003394D01*
X054756Y003453D02*
X055224Y003453D01*
X055200Y003511D02*
X054526Y003511D01*
X054481Y003511D02*
X053830Y003511D01*
X053808Y003537D02*
X053628Y003797D01*
X053818Y003977D01*
X054078Y003797D01*
X054024Y003804D02*
X053685Y003804D01*
X053670Y003745D02*
X055312Y003745D01*
X055283Y003687D02*
X053728Y003687D01*
X053787Y003628D02*
X055254Y003628D01*
X055225Y003570D02*
X053845Y003570D01*
X053810Y003453D02*
X054306Y003453D01*
X054235Y003394D02*
X053791Y003394D01*
X053771Y003336D02*
X054199Y003336D01*
X054164Y003277D02*
X053752Y003277D01*
X053698Y003287D02*
X053398Y003227D01*
X053398Y002967D01*
X053698Y002917D01*
X053720Y002926D02*
X054178Y002926D01*
X054198Y002868D02*
X053768Y002868D01*
X053791Y002809D02*
X054256Y002809D01*
X054292Y002751D02*
X053814Y002751D01*
X053838Y002692D02*
X054270Y002692D01*
X054248Y002634D02*
X053828Y002634D01*
X053798Y002647D02*
X053638Y002407D01*
X053818Y002217D01*
X054058Y002387D01*
X054158Y002327D01*
X054358Y002777D01*
X054226Y002575D02*
X053793Y002575D01*
X053758Y002517D02*
X054204Y002517D01*
X054182Y002458D02*
X053723Y002458D01*
X053715Y002400D02*
X054025Y002400D01*
X054082Y002400D02*
X054160Y002400D01*
X053947Y002341D02*
X053774Y002341D01*
X053832Y002283D02*
X053869Y002283D01*
X054678Y002777D02*
X054868Y002327D01*
X054968Y002387D01*
X055208Y002217D01*
X055398Y002407D01*
X055228Y002647D01*
X055203Y002634D02*
X054765Y002634D01*
X054794Y002575D02*
X055229Y002575D01*
X055273Y002517D02*
X054823Y002517D01*
X054852Y002458D02*
X055317Y002458D01*
X055331Y002400D02*
X055021Y002400D01*
X054964Y002400D02*
X054882Y002400D01*
X055099Y002341D02*
X055273Y002341D01*
X055214Y002283D02*
X055177Y002283D01*
X055220Y002692D02*
X054735Y002692D01*
X054706Y002751D02*
X055236Y002751D01*
X055253Y002809D02*
X054741Y002809D01*
X054799Y002868D02*
X055270Y002868D01*
X055327Y003287D02*
X055312Y003339D01*
X055293Y003390D01*
X055271Y003440D01*
X055246Y003488D01*
X055217Y003535D01*
X055218Y003537D02*
X055398Y003797D01*
X055208Y003977D01*
X054948Y003797D01*
X055010Y003804D02*
X055342Y003804D01*
X055280Y003862D02*
X055107Y003862D01*
X054837Y003804D02*
X054172Y003804D01*
X054289Y003862D02*
X054662Y003862D01*
X054698Y003897D02*
X054648Y004217D01*
X054378Y004217D01*
X054328Y003897D01*
X054349Y003921D02*
X054648Y003921D01*
X054648Y003979D02*
X054361Y003979D01*
X054372Y004038D02*
X054648Y004038D01*
X054648Y004096D02*
X054384Y004096D01*
X054396Y004155D02*
X054648Y004155D01*
X053907Y003862D02*
X053744Y003862D01*
X053460Y003219D02*
X054129Y003219D01*
X054100Y003160D02*
X053448Y003160D01*
X053448Y003102D02*
X054120Y003102D01*
X054139Y003043D02*
X053448Y003043D01*
X053544Y002985D02*
X054159Y002985D01*
X054081Y003800D02*
X054126Y003825D01*
X054173Y003848D01*
X054221Y003867D01*
X054270Y003884D01*
X054320Y003897D01*
X054358Y002787D02*
X054325Y002805D01*
X054295Y002826D01*
X054266Y002850D01*
X054240Y002877D01*
X054218Y002906D01*
X054198Y002938D01*
X054181Y002971D01*
X054168Y003006D01*
X054159Y003042D01*
X054153Y003079D01*
X054151Y003116D01*
X054153Y003153D01*
X054158Y003190D01*
X054168Y003226D01*
X054180Y003261D01*
X054197Y003295D01*
X054216Y003326D01*
X054239Y003356D01*
X054265Y003383D01*
X054293Y003407D01*
X054324Y003428D01*
X054356Y003446D01*
X054390Y003461D01*
X054426Y003472D01*
X054462Y003480D01*
X054499Y003484D01*
X054537Y003484D01*
X054574Y003480D01*
X054610Y003472D01*
X054646Y003461D01*
X054680Y003446D01*
X054712Y003428D01*
X054743Y003407D01*
X054771Y003383D01*
X054797Y003356D01*
X054820Y003326D01*
X054839Y003295D01*
X054856Y003261D01*
X054868Y003226D01*
X054878Y003190D01*
X054883Y003153D01*
X054885Y003116D01*
X054883Y003079D01*
X054877Y003042D01*
X054868Y003006D01*
X054855Y002971D01*
X054838Y002938D01*
X054818Y002906D01*
X054796Y002877D01*
X054770Y002850D01*
X054741Y002826D01*
X054711Y002805D01*
X054678Y002787D01*
X055228Y002647D02*
X055251Y002688D01*
X055272Y002731D01*
X055290Y002776D01*
X055305Y002821D01*
X055318Y002867D01*
X055328Y002914D01*
X054952Y003798D02*
X054905Y003825D01*
X054856Y003848D01*
X054806Y003868D01*
X054755Y003885D01*
X054703Y003899D01*
X053809Y003532D02*
X053782Y003485D01*
X053758Y003438D01*
X053737Y003389D01*
X053719Y003338D01*
X053705Y003287D01*
X053699Y002916D02*
X053712Y002860D01*
X053729Y002805D01*
X053750Y002752D01*
X053774Y002700D01*
X053802Y002650D01*
X050863Y003140D02*
X050613Y002890D01*
X050113Y002890D01*
X049863Y003140D01*
X049613Y002890D01*
X049113Y002890D01*
X048863Y003140D01*
X048613Y002890D01*
X048113Y002890D01*
X047863Y003140D01*
X047863Y003640D01*
X048113Y003890D01*
X048613Y003890D01*
X048863Y003640D01*
X049113Y003890D01*
X048863Y004140D01*
X048613Y003890D01*
X048863Y003640D02*
X048863Y003140D01*
X049863Y003140D02*
X049863Y003640D01*
X050113Y003890D01*
X050613Y003890D01*
X050863Y003640D01*
X050863Y003140D01*
X049863Y003640D02*
X049613Y003890D01*
X049113Y003890D01*
X048863Y004140D02*
X048863Y004640D01*
X049113Y004890D01*
X049613Y004890D01*
X049863Y004640D01*
X050113Y004890D01*
X050613Y004890D01*
X050863Y004640D01*
X050863Y004140D01*
X050613Y003890D01*
X050113Y003890D02*
X049863Y004140D01*
X049613Y003890D01*
X049863Y004140D02*
X049863Y004640D01*
X048863Y004640D02*
X048613Y004890D01*
X048113Y004890D01*
X047863Y004640D01*
X047863Y004140D01*
X048113Y003890D01*
X039876Y001817D02*
X039876Y001731D01*
X039833Y001687D01*
X039703Y001687D01*
X039703Y001601D02*
X039703Y001861D01*
X039833Y001861D01*
X039876Y001817D01*
X039582Y001817D02*
X039538Y001861D01*
X039451Y001861D01*
X039408Y001817D01*
X039408Y001774D01*
X039451Y001731D01*
X039538Y001731D01*
X039582Y001687D01*
X039582Y001644D01*
X039538Y001601D01*
X039451Y001601D01*
X039408Y001644D01*
X039287Y001601D02*
X039113Y001601D01*
X039113Y001861D01*
X039287Y001861D01*
X039200Y001731D02*
X039113Y001731D01*
X031178Y003140D02*
X030928Y002890D01*
X030428Y002890D01*
X030178Y003140D01*
X029928Y002890D01*
X029428Y002890D01*
X029178Y003140D01*
X028928Y002890D01*
X028428Y002890D01*
X028178Y003140D01*
X028178Y003640D01*
X028428Y003890D01*
X028928Y003890D01*
X029178Y003640D01*
X029428Y003890D01*
X029178Y004140D01*
X028928Y003890D01*
X029178Y003640D02*
X029178Y003140D01*
X030178Y003140D02*
X030178Y003640D01*
X030428Y003890D01*
X030928Y003890D01*
X031178Y003640D01*
X031178Y003140D01*
X030178Y003640D02*
X029928Y003890D01*
X029428Y003890D01*
X029178Y004140D02*
X029178Y004640D01*
X029428Y004890D01*
X029928Y004890D01*
X030178Y004640D01*
X030428Y004890D01*
X030928Y004890D01*
X031178Y004640D01*
X031178Y004140D01*
X030928Y003890D01*
X030428Y003890D02*
X030178Y004140D01*
X029928Y003890D01*
X030178Y004140D02*
X030178Y004640D01*
X029178Y004640D02*
X028928Y004890D01*
X028428Y004890D01*
X028178Y004640D01*
X028178Y004140D01*
X028428Y003890D01*
X010356Y011507D02*
X010356Y011827D01*
X010136Y011827D01*
X009456Y011827D02*
X009236Y011827D01*
X009236Y011507D01*
X067208Y007359D02*
X067208Y006721D01*
X067245Y006721D01*
X067562Y006721D02*
X067600Y006721D01*
X067936Y006721D02*
X067974Y006721D01*
X068291Y006721D02*
X068328Y006721D01*
X068328Y007359D01*
X068291Y007359D01*
X067974Y007359D02*
X067562Y007359D01*
X067245Y007359D02*
X067208Y007359D01*
X068279Y008024D02*
X068966Y008024D01*
X068966Y009205D01*
X068279Y009205D01*
X068279Y008024D01*
X069078Y007990D02*
X069080Y008003D01*
X069085Y008015D01*
X069094Y008025D01*
X069105Y008032D01*
X069117Y008036D01*
X069131Y008036D01*
X069143Y008032D01*
X069154Y008025D01*
X069163Y008015D01*
X069168Y008003D01*
X069170Y007990D01*
X069168Y007977D01*
X069163Y007965D01*
X069154Y007955D01*
X069143Y007948D01*
X069131Y007944D01*
X069117Y007944D01*
X069105Y007948D01*
X069094Y007955D01*
X069085Y007965D01*
X069080Y007977D01*
X069078Y007990D01*
X070697Y007856D02*
X070697Y007818D01*
X070697Y007501D02*
X070697Y007464D01*
X071335Y007464D01*
X071335Y007501D01*
X071335Y007818D02*
X071335Y008230D01*
X070697Y008230D02*
X070697Y008192D01*
X070697Y008547D02*
X070697Y008584D01*
X071335Y008584D01*
X071335Y008547D01*
X071804Y007317D02*
X071804Y006629D01*
X072985Y006629D01*
X072985Y007317D01*
X071804Y007317D01*
X071723Y006471D02*
X071725Y006484D01*
X071730Y006496D01*
X071739Y006506D01*
X071750Y006513D01*
X071762Y006517D01*
X071776Y006517D01*
X071788Y006513D01*
X071799Y006506D01*
X071808Y006496D01*
X071813Y006484D01*
X071815Y006471D01*
X071813Y006458D01*
X071808Y006446D01*
X071799Y006436D01*
X071788Y006429D01*
X071776Y006425D01*
X071762Y006425D01*
X071750Y006429D01*
X071739Y006436D01*
X071730Y006446D01*
X071725Y006458D01*
X071723Y006471D01*
X077880Y008815D02*
X077923Y008772D01*
X077967Y008772D01*
X078010Y008815D01*
X078010Y008902D01*
X078053Y008946D01*
X078097Y008946D01*
X078140Y008902D01*
X078140Y008815D01*
X078097Y008772D01*
X077880Y008815D02*
X077880Y008902D01*
X077923Y008946D01*
X077880Y009067D02*
X078140Y009067D01*
X078053Y009153D01*
X078140Y009240D01*
X077880Y009240D01*
X077880Y009361D02*
X077880Y009491D01*
X077923Y009535D01*
X078097Y009535D01*
X078140Y009491D01*
X078140Y009361D01*
X077880Y009361D01*
D38*
X009283Y010091D02*
X009285Y010136D01*
X009291Y010180D01*
X009300Y010224D01*
X009314Y010266D01*
X009331Y010308D01*
X009352Y010347D01*
X009376Y010385D01*
X009403Y010421D01*
X009433Y010454D01*
X009466Y010484D01*
X009502Y010511D01*
X009539Y010535D01*
X009579Y010556D01*
X009621Y010573D01*
X009663Y010587D01*
X009707Y010596D01*
X009751Y010602D01*
X009796Y010604D01*
X009841Y010602D01*
X009885Y010596D01*
X009929Y010587D01*
X009971Y010573D01*
X010013Y010556D01*
X010052Y010535D01*
X010090Y010511D01*
X010126Y010484D01*
X010159Y010454D01*
X010189Y010421D01*
X010216Y010385D01*
X010240Y010347D01*
X010261Y010308D01*
X010278Y010266D01*
X010292Y010224D01*
X010301Y010180D01*
X010307Y010136D01*
X010309Y010091D01*
X010307Y010046D01*
X010301Y010002D01*
X010292Y009958D01*
X010278Y009916D01*
X010261Y009874D01*
X010240Y009835D01*
X010216Y009797D01*
X010189Y009761D01*
X010159Y009728D01*
X010126Y009698D01*
X010090Y009671D01*
X010053Y009647D01*
X010013Y009626D01*
X009971Y009609D01*
X009929Y009595D01*
X009885Y009586D01*
X009841Y009580D01*
X009796Y009578D01*
X009751Y009580D01*
X009707Y009586D01*
X009663Y009595D01*
X009621Y009609D01*
X009579Y009626D01*
X009539Y009647D01*
X009502Y009671D01*
X009466Y009698D01*
X009433Y009728D01*
X009403Y009761D01*
X009376Y009797D01*
X009352Y009834D01*
X009331Y009874D01*
X009314Y009916D01*
X009300Y009958D01*
X009291Y010002D01*
X009285Y010046D01*
X009283Y010091D01*
X004952Y010386D02*
X004954Y010431D01*
X004960Y010475D01*
X004969Y010519D01*
X004983Y010561D01*
X005000Y010603D01*
X005021Y010642D01*
X005045Y010680D01*
X005072Y010716D01*
X005102Y010749D01*
X005135Y010779D01*
X005171Y010806D01*
X005208Y010830D01*
X005248Y010851D01*
X005290Y010868D01*
X005332Y010882D01*
X005376Y010891D01*
X005420Y010897D01*
X005465Y010899D01*
X005510Y010897D01*
X005554Y010891D01*
X005598Y010882D01*
X005640Y010868D01*
X005682Y010851D01*
X005721Y010830D01*
X005759Y010806D01*
X005795Y010779D01*
X005828Y010749D01*
X005858Y010716D01*
X005885Y010680D01*
X005909Y010642D01*
X005930Y010603D01*
X005947Y010561D01*
X005961Y010519D01*
X005970Y010475D01*
X005976Y010431D01*
X005978Y010386D01*
X005976Y010341D01*
X005970Y010297D01*
X005961Y010253D01*
X005947Y010211D01*
X005930Y010169D01*
X005909Y010130D01*
X005885Y010092D01*
X005858Y010056D01*
X005828Y010023D01*
X005795Y009993D01*
X005759Y009966D01*
X005722Y009942D01*
X005682Y009921D01*
X005640Y009904D01*
X005598Y009890D01*
X005554Y009881D01*
X005510Y009875D01*
X005465Y009873D01*
X005420Y009875D01*
X005376Y009881D01*
X005332Y009890D01*
X005290Y009904D01*
X005248Y009921D01*
X005208Y009942D01*
X005171Y009966D01*
X005135Y009993D01*
X005102Y010023D01*
X005072Y010056D01*
X005045Y010092D01*
X005021Y010129D01*
X005000Y010169D01*
X004983Y010211D01*
X004969Y010253D01*
X004960Y010297D01*
X004954Y010341D01*
X004952Y010386D01*
X002787Y010386D02*
X002789Y010431D01*
X002795Y010475D01*
X002804Y010519D01*
X002818Y010561D01*
X002835Y010603D01*
X002856Y010642D01*
X002880Y010680D01*
X002907Y010716D01*
X002937Y010749D01*
X002970Y010779D01*
X003006Y010806D01*
X003043Y010830D01*
X003083Y010851D01*
X003125Y010868D01*
X003167Y010882D01*
X003211Y010891D01*
X003255Y010897D01*
X003300Y010899D01*
X003345Y010897D01*
X003389Y010891D01*
X003433Y010882D01*
X003475Y010868D01*
X003517Y010851D01*
X003556Y010830D01*
X003594Y010806D01*
X003630Y010779D01*
X003663Y010749D01*
X003693Y010716D01*
X003720Y010680D01*
X003744Y010642D01*
X003765Y010603D01*
X003782Y010561D01*
X003796Y010519D01*
X003805Y010475D01*
X003811Y010431D01*
X003813Y010386D01*
X003811Y010341D01*
X003805Y010297D01*
X003796Y010253D01*
X003782Y010211D01*
X003765Y010169D01*
X003744Y010130D01*
X003720Y010092D01*
X003693Y010056D01*
X003663Y010023D01*
X003630Y009993D01*
X003594Y009966D01*
X003557Y009942D01*
X003517Y009921D01*
X003475Y009904D01*
X003433Y009890D01*
X003389Y009881D01*
X003345Y009875D01*
X003300Y009873D01*
X003255Y009875D01*
X003211Y009881D01*
X003167Y009890D01*
X003125Y009904D01*
X003083Y009921D01*
X003043Y009942D01*
X003006Y009966D01*
X002970Y009993D01*
X002937Y010023D01*
X002907Y010056D01*
X002880Y010092D01*
X002856Y010129D01*
X002835Y010169D01*
X002818Y010211D01*
X002804Y010253D01*
X002795Y010297D01*
X002789Y010341D01*
X002787Y010386D01*
X004520Y013103D02*
X006410Y013103D01*
X007079Y013103D02*
X008969Y013103D01*
X009480Y003693D02*
X009482Y003738D01*
X009488Y003782D01*
X009497Y003826D01*
X009511Y003868D01*
X009528Y003910D01*
X009549Y003949D01*
X009573Y003987D01*
X009600Y004023D01*
X009630Y004056D01*
X009663Y004086D01*
X009699Y004113D01*
X009736Y004137D01*
X009776Y004158D01*
X009818Y004175D01*
X009860Y004189D01*
X009904Y004198D01*
X009948Y004204D01*
X009993Y004206D01*
X010038Y004204D01*
X010082Y004198D01*
X010126Y004189D01*
X010168Y004175D01*
X010210Y004158D01*
X010249Y004137D01*
X010287Y004113D01*
X010323Y004086D01*
X010356Y004056D01*
X010386Y004023D01*
X010413Y003987D01*
X010437Y003949D01*
X010458Y003910D01*
X010475Y003868D01*
X010489Y003826D01*
X010498Y003782D01*
X010504Y003738D01*
X010506Y003693D01*
X010504Y003648D01*
X010498Y003604D01*
X010489Y003560D01*
X010475Y003518D01*
X010458Y003476D01*
X010437Y003437D01*
X010413Y003399D01*
X010386Y003363D01*
X010356Y003330D01*
X010323Y003300D01*
X010287Y003273D01*
X010250Y003249D01*
X010210Y003228D01*
X010168Y003211D01*
X010126Y003197D01*
X010082Y003188D01*
X010038Y003182D01*
X009993Y003180D01*
X009948Y003182D01*
X009904Y003188D01*
X009860Y003197D01*
X009818Y003211D01*
X009776Y003228D01*
X009736Y003249D01*
X009699Y003273D01*
X009663Y003300D01*
X009630Y003330D01*
X009600Y003363D01*
X009573Y003399D01*
X009549Y003436D01*
X009528Y003476D01*
X009511Y003518D01*
X009497Y003560D01*
X009488Y003604D01*
X009482Y003648D01*
X009480Y003693D01*
D39*
X012217Y005465D03*
D40*
X028867Y001680D02*
X028942Y001605D01*
X029017Y001605D01*
X029092Y001680D01*
X029092Y002055D01*
X029017Y002055D02*
X029167Y002055D01*
X029328Y002055D02*
X029553Y002055D01*
X029628Y001980D01*
X029628Y001830D01*
X029553Y001755D01*
X029328Y001755D01*
X029328Y001605D02*
X029328Y002055D01*
X029788Y001905D02*
X029938Y002055D01*
X029938Y001605D01*
X029788Y001605D02*
X030088Y001605D01*
X048552Y001680D02*
X048627Y001605D01*
X048702Y001605D01*
X048777Y001680D01*
X048777Y002055D01*
X048702Y002055D02*
X048852Y002055D01*
X049013Y002055D02*
X049238Y002055D01*
X049313Y001980D01*
X049313Y001830D01*
X049238Y001755D01*
X049013Y001755D01*
X049013Y001605D02*
X049013Y002055D01*
X049473Y001980D02*
X049548Y002055D01*
X049698Y002055D01*
X049773Y001980D01*
X049773Y001905D01*
X049473Y001605D01*
X049773Y001605D01*
X066292Y001882D02*
X066292Y000937D01*
X068654Y000937D01*
X068654Y005032D01*
X068654Y005701D02*
X066292Y005701D01*
X066292Y005268D01*
X066292Y004638D02*
X066292Y003693D01*
X066292Y003024D02*
X066292Y002512D01*
X074461Y005622D02*
X074658Y005426D01*
X075839Y005426D01*
X076036Y005622D01*
X076272Y006016D02*
X076272Y006882D01*
X076036Y007276D02*
X075839Y007473D01*
X074658Y007473D01*
X074461Y007276D01*
X074225Y006882D02*
X074225Y006016D01*
X066646Y012192D02*
X063305Y008851D01*
X061913Y007459D01*
X060800Y008573D01*
X059965Y007737D01*
X059686Y008016D01*
X060104Y008433D01*
X058433Y010104D01*
X058016Y009686D01*
X057737Y009965D01*
X058573Y010800D01*
X057459Y011913D01*
X058851Y013305D01*
X062192Y016646D01*
X063166Y017620D01*
X064001Y017620D01*
X064697Y016924D01*
X065532Y017759D01*
X065811Y017481D01*
X065393Y017063D01*
X067063Y015393D01*
X067481Y015811D01*
X067759Y015532D01*
X066924Y014697D01*
X068038Y013584D01*
X066646Y012192D01*
X070426Y012945D02*
X073181Y012945D01*
X073181Y012863D01*
X073181Y012859D02*
X073181Y010189D01*
X070426Y010189D01*
X070426Y012945D01*
X072836Y012725D02*
X072838Y012747D01*
X072844Y012768D01*
X072853Y012787D01*
X072866Y012805D01*
X072882Y012820D01*
X072900Y012832D01*
X072920Y012840D01*
X072941Y012845D01*
X072962Y012846D01*
X072984Y012843D01*
X073005Y012836D01*
X073024Y012826D01*
X073041Y012812D01*
X073055Y012796D01*
X073066Y012777D01*
X073074Y012757D01*
X073078Y012736D01*
X073078Y012714D01*
X073074Y012693D01*
X073066Y012673D01*
X073055Y012654D01*
X073041Y012638D01*
X073024Y012624D01*
X073005Y012614D01*
X072984Y012607D01*
X072962Y012604D01*
X072941Y012605D01*
X072920Y012610D01*
X072900Y012618D01*
X072882Y012630D01*
X072866Y012645D01*
X072853Y012663D01*
X072844Y012682D01*
X072838Y012703D01*
X072836Y012725D01*
X071863Y013890D02*
X069973Y013890D01*
X066809Y013584D02*
X066811Y013623D01*
X066817Y013662D01*
X066827Y013700D01*
X066840Y013737D01*
X066857Y013772D01*
X066877Y013806D01*
X066901Y013837D01*
X066928Y013866D01*
X066957Y013892D01*
X066989Y013915D01*
X067023Y013935D01*
X067059Y013951D01*
X067096Y013963D01*
X067135Y013972D01*
X067174Y013977D01*
X067213Y013978D01*
X067252Y013975D01*
X067291Y013968D01*
X067328Y013957D01*
X067365Y013943D01*
X067400Y013925D01*
X067433Y013904D01*
X067464Y013879D01*
X067492Y013852D01*
X067517Y013822D01*
X067539Y013789D01*
X067558Y013755D01*
X067573Y013719D01*
X067585Y013681D01*
X067593Y013643D01*
X067597Y013604D01*
X067597Y013564D01*
X067593Y013525D01*
X067585Y013487D01*
X067573Y013449D01*
X067558Y013413D01*
X067539Y013379D01*
X067517Y013346D01*
X067492Y013316D01*
X067464Y013289D01*
X067433Y013264D01*
X067400Y013243D01*
X067365Y013225D01*
X067328Y013211D01*
X067291Y013200D01*
X067252Y013193D01*
X067213Y013190D01*
X067174Y013191D01*
X067135Y013196D01*
X067096Y013205D01*
X067059Y013217D01*
X067023Y013233D01*
X066989Y013253D01*
X066957Y013276D01*
X066928Y013302D01*
X066901Y013331D01*
X066877Y013362D01*
X066857Y013396D01*
X066840Y013431D01*
X066827Y013468D01*
X066817Y013506D01*
X066811Y013545D01*
X066809Y013584D01*
X065254Y013584D02*
X061913Y010243D01*
X060243Y011913D01*
X063584Y015254D01*
X065254Y013584D01*
X063305Y008850D02*
X063118Y008829D01*
X062931Y008817D01*
X062743Y008814D01*
X062555Y008820D01*
X062368Y008835D01*
X062182Y008859D01*
X061997Y008891D01*
X061814Y008933D01*
X061632Y008983D01*
X061454Y009042D01*
X061279Y009109D01*
X061107Y009184D01*
X060938Y009268D01*
X060939Y009269D02*
X060800Y009129D01*
X059129Y010800D01*
X058433Y010104D01*
X059129Y010800D02*
X059269Y010939D01*
X057900Y011913D02*
X057902Y011952D01*
X057908Y011991D01*
X057918Y012029D01*
X057931Y012066D01*
X057948Y012101D01*
X057968Y012135D01*
X057992Y012166D01*
X058019Y012195D01*
X058048Y012221D01*
X058080Y012244D01*
X058114Y012264D01*
X058150Y012280D01*
X058187Y012292D01*
X058226Y012301D01*
X058265Y012306D01*
X058304Y012307D01*
X058343Y012304D01*
X058382Y012297D01*
X058419Y012286D01*
X058456Y012272D01*
X058491Y012254D01*
X058524Y012233D01*
X058555Y012208D01*
X058583Y012181D01*
X058608Y012151D01*
X058630Y012118D01*
X058649Y012084D01*
X058664Y012048D01*
X058676Y012010D01*
X058684Y011972D01*
X058688Y011933D01*
X058688Y011893D01*
X058684Y011854D01*
X058676Y011816D01*
X058664Y011778D01*
X058649Y011742D01*
X058630Y011708D01*
X058608Y011675D01*
X058583Y011645D01*
X058555Y011618D01*
X058524Y011593D01*
X058491Y011572D01*
X058456Y011554D01*
X058419Y011540D01*
X058382Y011529D01*
X058343Y011522D01*
X058304Y011519D01*
X058265Y011520D01*
X058226Y011525D01*
X058187Y011534D01*
X058150Y011546D01*
X058114Y011562D01*
X058080Y011582D01*
X058048Y011605D01*
X058019Y011631D01*
X057992Y011660D01*
X057968Y011691D01*
X057948Y011725D01*
X057931Y011760D01*
X057918Y011797D01*
X057908Y011835D01*
X057902Y011874D01*
X057900Y011913D01*
X066228Y014558D02*
X066311Y014389D01*
X066386Y014217D01*
X066452Y014042D01*
X066511Y013863D01*
X066561Y013682D01*
X066602Y013499D01*
X066635Y013314D01*
X066658Y013128D01*
X066674Y012941D01*
X066680Y012753D01*
X066677Y012565D01*
X066666Y012378D01*
X066646Y012191D01*
X059268Y010938D02*
X059184Y011107D01*
X059109Y011279D01*
X059042Y011454D01*
X058983Y011632D01*
X058933Y011814D01*
X058891Y011997D01*
X058859Y012182D01*
X058835Y012368D01*
X058820Y012555D01*
X058814Y012743D01*
X058817Y012931D01*
X058829Y013118D01*
X058850Y013305D01*
X062191Y016646D02*
X062378Y016668D01*
X062565Y016680D01*
X062753Y016684D01*
X062941Y016678D01*
X063129Y016664D01*
X063315Y016640D01*
X063500Y016608D01*
X063683Y016566D01*
X063864Y016516D01*
X064043Y016456D01*
X064218Y016389D01*
X064390Y016313D01*
X064558Y016228D01*
X064697Y016367D01*
X066367Y014697D01*
X067063Y015393D01*
X066367Y014697D02*
X066228Y014558D01*
X069973Y015150D02*
X071863Y015150D01*
X065393Y017063D02*
X064697Y016367D01*
X060800Y009129D02*
X060104Y008433D01*
X033063Y011922D02*
X033063Y012788D01*
X032827Y013181D02*
X032630Y013378D01*
X031449Y013378D01*
X031252Y013181D01*
X031016Y012788D02*
X031016Y011922D01*
X031252Y011528D02*
X031449Y011331D01*
X032630Y011331D01*
X032827Y011528D01*
D41*
X058228Y006198D03*
X058568Y006103D03*
X058818Y006121D03*
X058843Y006131D03*
X059426Y006276D03*
X059628Y006031D03*
X059996Y006423D03*
X060066Y006441D03*
X060208Y006553D03*
X060381Y006588D03*
X060441Y006596D03*
X060508Y006596D03*
X060343Y006188D03*
X059766Y005728D03*
X058658Y005516D03*
X058178Y005468D03*
X058088Y005478D03*
X057661Y004651D03*
X057656Y004641D03*
X057653Y004636D03*
X057651Y004633D03*
X057651Y004631D03*
X057643Y004631D03*
X057636Y004608D03*
X057636Y004606D03*
X057638Y004603D03*
X057638Y004601D03*
X057628Y004586D03*
X057623Y004586D03*
X057623Y004581D03*
X057616Y004578D03*
X057616Y004571D03*
X057616Y004568D03*
X057611Y004566D03*
X057606Y004561D03*
X057601Y004563D03*
X057601Y004553D03*
X057598Y004551D03*
X057593Y004548D03*
X057601Y004543D03*
X057598Y004538D03*
X057598Y004536D03*
X057606Y004553D03*
X057613Y004558D03*
X057621Y004593D03*
X057561Y004568D03*
X057543Y004576D03*
X057538Y004538D03*
X057563Y004533D03*
X057568Y004533D03*
X057578Y004541D03*
X057583Y004521D03*
X057586Y004518D03*
X057586Y004516D03*
X057578Y004516D03*
X057578Y004508D03*
X057576Y004506D03*
X057581Y004503D03*
X057583Y004506D03*
X057578Y004501D03*
X057581Y004498D03*
X057573Y004493D03*
X057571Y004488D03*
X057561Y004491D03*
X057558Y004488D03*
X057553Y004486D03*
X057553Y004493D03*
X057563Y004496D03*
X057568Y004501D03*
X057566Y004503D03*
X057566Y004511D03*
X057568Y004513D03*
X057561Y004513D03*
X057561Y004511D03*
X057548Y004513D03*
X057546Y004506D03*
X057543Y004481D03*
X057546Y004471D03*
X057551Y004471D03*
X057556Y004471D03*
X057558Y004478D03*
X057546Y004466D03*
X057551Y004458D03*
X057551Y004453D03*
X057551Y004451D03*
X057543Y004453D03*
X057541Y004451D03*
X057543Y004448D03*
X057541Y004443D03*
X057538Y004441D03*
X057533Y004443D03*
X057528Y004441D03*
X057523Y004441D03*
X057531Y004436D03*
X057541Y004433D03*
X057533Y004423D03*
X057526Y004426D03*
X057521Y004423D03*
X057518Y004421D03*
X057518Y004418D03*
X057518Y004413D03*
X057516Y004411D03*
X057518Y004408D03*
X057516Y004406D03*
X057516Y004403D03*
X057521Y004406D03*
X057526Y004406D03*
X057531Y004408D03*
X057523Y004418D03*
X057516Y004423D03*
X057506Y004403D03*
X057501Y004403D03*
X057501Y004406D03*
X057496Y004406D03*
X057493Y004403D03*
X057488Y004403D03*
X057493Y004411D03*
X057498Y004401D03*
X057501Y004396D03*
X057503Y004393D03*
X057501Y004388D03*
X057498Y004383D03*
X057493Y004383D03*
X057491Y004386D03*
X057491Y004378D03*
X057491Y004376D03*
X057483Y004383D03*
X057483Y004388D03*
X057478Y004388D03*
X057473Y004388D03*
X057473Y004391D03*
X057483Y004393D03*
X057478Y004371D03*
X057486Y004366D03*
X057493Y004361D03*
X057493Y004358D03*
X057496Y004353D03*
X057476Y004348D03*
X057471Y004351D03*
X057468Y004348D03*
X057463Y004353D03*
X057458Y004353D03*
X057453Y004353D03*
X057453Y004351D03*
X057448Y004346D03*
X057451Y004341D03*
X057453Y004338D03*
X057451Y004336D03*
X057453Y004333D03*
X057461Y004326D03*
X057446Y004311D03*
X057441Y004313D03*
X057436Y004316D03*
X057431Y004318D03*
X057428Y004323D03*
X057438Y004323D03*
X057433Y004333D03*
X057438Y004338D03*
X057431Y004343D03*
X057426Y004341D03*
X057421Y004341D03*
X057416Y004341D03*
X057423Y004336D03*
X057418Y004321D03*
X057413Y004323D03*
X057408Y004323D03*
X057408Y004318D03*
X057416Y004308D03*
X057413Y004303D03*
X057408Y004303D03*
X057406Y004298D03*
X057406Y004293D03*
X057411Y004293D03*
X057411Y004283D03*
X057416Y004276D03*
X057428Y004281D03*
X057421Y004298D03*
X057421Y004303D03*
X057426Y004306D03*
X057433Y004303D03*
X057401Y004306D03*
X057398Y004303D03*
X057393Y004296D03*
X057391Y004293D03*
X057386Y004291D03*
X057381Y004291D03*
X057381Y004288D03*
X057376Y004278D03*
X057391Y004271D03*
X057398Y004276D03*
X057401Y004281D03*
X057401Y004286D03*
X057408Y004266D03*
X057413Y004261D03*
X057396Y004253D03*
X057388Y004256D03*
X057386Y004251D03*
X057386Y004246D03*
X057388Y004243D03*
X057383Y004243D03*
X057383Y004241D03*
X057386Y004238D03*
X057388Y004231D03*
X057386Y004228D03*
X057393Y004226D03*
X057378Y004226D03*
X057378Y004231D03*
X057371Y004231D03*
X057371Y004233D03*
X057366Y004231D03*
X057366Y004228D03*
X057366Y004236D03*
X057376Y004246D03*
X057376Y004251D03*
X057378Y004256D03*
X057363Y004266D03*
X057358Y004266D03*
X057366Y004293D03*
X057376Y004303D03*
X057401Y004328D03*
X057393Y004336D03*
X057401Y004341D03*
X057408Y004351D03*
X057411Y004358D03*
X057418Y004363D03*
X057418Y004366D03*
X057423Y004366D03*
X057423Y004356D03*
X057436Y004358D03*
X057441Y004358D03*
X057441Y004356D03*
X057438Y004351D03*
X057458Y004361D03*
X057461Y004366D03*
X057466Y004366D03*
X057456Y004368D03*
X057458Y004381D03*
X057451Y004383D03*
X057433Y004381D03*
X057428Y004381D03*
X057423Y004378D03*
X057433Y004391D03*
X057443Y004401D03*
X057446Y004408D03*
X057506Y004378D03*
X057536Y004451D03*
X057493Y004491D03*
X057563Y004626D03*
X057401Y004246D03*
X057396Y004243D03*
X057378Y004221D03*
X057368Y004213D03*
X057368Y004211D03*
X057363Y004213D03*
X057366Y004218D03*
X057356Y004216D03*
X057356Y004206D03*
X057361Y004206D03*
X057361Y004198D03*
X057366Y004196D03*
X057368Y004193D03*
X057368Y004191D03*
X057366Y004183D03*
X057358Y004183D03*
X057356Y004186D03*
X057356Y004191D03*
X057358Y004193D03*
X057356Y004196D03*
X057356Y004198D03*
X057346Y004196D03*
X057351Y004183D03*
X057348Y004176D03*
X057343Y004178D03*
X057331Y004173D03*
X057328Y004166D03*
X057328Y004163D03*
X057328Y004161D03*
X057323Y004158D03*
X057326Y004156D03*
X057331Y004153D03*
X057333Y004158D03*
X057326Y004143D03*
X057323Y004141D03*
X057316Y004146D03*
X057311Y004143D03*
X057306Y004143D03*
X057306Y004141D03*
X057298Y004141D03*
X057293Y004141D03*
X057293Y004146D03*
X057288Y004141D03*
X057288Y004138D03*
X057288Y004133D03*
X057293Y004133D03*
X057296Y004131D03*
X057296Y004128D03*
X057303Y004131D03*
X057306Y004128D03*
X057288Y004118D03*
X057286Y004123D03*
X057281Y004128D03*
X057276Y004133D03*
X057268Y004133D03*
X057268Y004131D03*
X057268Y004136D03*
X057268Y004138D03*
X057266Y004141D03*
X057261Y004141D03*
X057263Y004133D03*
X057258Y004123D03*
X057258Y004116D03*
X057263Y004111D03*
X057271Y004111D03*
X057271Y004113D03*
X057271Y004116D03*
X057268Y004121D03*
X057278Y004111D03*
X057273Y004103D03*
X057268Y004103D03*
X057266Y004096D03*
X057268Y004091D03*
X057278Y004086D03*
X057251Y004093D03*
X057246Y004091D03*
X057238Y004088D03*
X057238Y004083D03*
X057241Y004081D03*
X057236Y004076D03*
X057238Y004073D03*
X057233Y004073D03*
X057233Y004071D03*
X057228Y004073D03*
X057226Y004083D03*
X057233Y004086D03*
X057238Y004096D03*
X057233Y004101D03*
X057226Y004101D03*
X057228Y004118D03*
X057231Y004121D03*
X057231Y004123D03*
X057233Y004118D03*
X057238Y004118D03*
X057243Y004113D03*
X057248Y004113D03*
X057248Y004111D03*
X057246Y004108D03*
X057253Y004101D03*
X057248Y004131D03*
X057253Y004138D03*
X057248Y004146D03*
X057248Y004148D03*
X057253Y004148D03*
X057248Y004153D03*
X057241Y004138D03*
X057233Y004131D03*
X057228Y004131D03*
X057203Y004106D03*
X057206Y004063D03*
X057211Y004063D03*
X057216Y004063D03*
X057208Y004058D03*
X057218Y004048D03*
X057218Y004046D03*
X057221Y004051D03*
X057223Y004043D03*
X057226Y004033D03*
X057216Y004028D03*
X057216Y004026D03*
X057213Y004023D03*
X057213Y004036D03*
X057201Y004041D03*
X057198Y004026D03*
X057193Y004026D03*
X057198Y004021D03*
X057201Y004018D03*
X057196Y004013D03*
X057196Y004008D03*
X057191Y004008D03*
X057188Y004003D03*
X057186Y003998D03*
X057181Y003998D03*
X057176Y004001D03*
X057171Y004008D03*
X057166Y003983D03*
X057161Y003983D03*
X057156Y003971D03*
X057146Y003971D03*
X057141Y003971D03*
X057143Y003966D03*
X057141Y003963D03*
X057131Y003958D03*
X057121Y003963D03*
X057128Y003971D03*
X057106Y003948D03*
X057101Y003948D03*
X057096Y003948D03*
X057096Y003943D03*
X057093Y003941D03*
X057088Y003938D03*
X057088Y003936D03*
X057091Y003931D03*
X057081Y003933D03*
X057076Y003936D03*
X057078Y003941D03*
X057073Y003943D03*
X057076Y003951D03*
X057083Y003951D03*
X057088Y003948D03*
X057091Y003951D03*
X057068Y003956D03*
X057061Y003958D03*
X057041Y003966D03*
X057033Y003966D03*
X057026Y003956D03*
X057021Y003968D03*
X057011Y003966D03*
X057001Y003956D03*
X056996Y003956D03*
X056986Y003951D03*
X056986Y003948D03*
X056981Y003948D03*
X056968Y003943D03*
X056966Y003941D03*
X056953Y003936D03*
X056988Y003931D03*
X056993Y003936D03*
X056996Y003928D03*
X056996Y003921D03*
X057001Y003921D03*
X057006Y003918D03*
X057006Y003916D03*
X057003Y003913D03*
X057001Y003911D03*
X057003Y003906D03*
X057008Y003908D03*
X057008Y003911D03*
X057011Y003913D03*
X057013Y003908D03*
X057011Y003906D03*
X057018Y003908D03*
X057023Y003911D03*
X057011Y003918D03*
X057013Y003923D03*
X057013Y003926D03*
X057013Y003928D03*
X057023Y003931D03*
X057026Y003928D03*
X057031Y003928D03*
X057031Y003933D03*
X057036Y003933D03*
X057041Y003933D03*
X057046Y003926D03*
X057051Y003923D03*
X057048Y003921D03*
X057056Y003923D03*
X057056Y003926D03*
X057056Y003928D03*
X057061Y003921D03*
X057066Y003921D03*
X057066Y003918D03*
X057071Y003916D03*
X057071Y003923D03*
X057071Y003926D03*
X057063Y003933D03*
X057063Y003936D03*
X057051Y003936D03*
X057046Y003906D03*
X057023Y003896D03*
X057013Y003891D03*
X056998Y003896D03*
X056996Y003893D03*
X056991Y003898D03*
X056988Y003906D03*
X056991Y003908D03*
X056996Y003908D03*
X056991Y003921D03*
X056983Y003901D03*
X056981Y003888D03*
X056983Y003886D03*
X056978Y003886D03*
X056976Y003883D03*
X056976Y003881D03*
X056976Y003873D03*
X056966Y003871D03*
X056961Y003871D03*
X056958Y003873D03*
X056956Y003871D03*
X056956Y003868D03*
X056958Y003866D03*
X056953Y003866D03*
X056951Y003863D03*
X056948Y003861D03*
X056943Y003858D03*
X056943Y003856D03*
X056936Y003858D03*
X056931Y003858D03*
X056928Y003856D03*
X056928Y003853D03*
X056933Y003853D03*
X056931Y003846D03*
X056928Y003841D03*
X056921Y003851D03*
X056921Y003861D03*
X056931Y003866D03*
X056933Y003881D03*
X056946Y003871D03*
X056953Y003888D03*
X056956Y003891D03*
X056988Y003886D03*
X057006Y003938D03*
X057053Y003981D03*
X057226Y004061D03*
X057231Y004061D03*
X057231Y004058D03*
X057233Y004053D03*
X057233Y004063D03*
X057238Y004063D03*
X057238Y004066D03*
X057243Y004066D03*
X057276Y004156D03*
X057278Y004173D03*
X057296Y004156D03*
X057306Y004158D03*
X057311Y004161D03*
X057311Y004163D03*
X057316Y004163D03*
X057318Y004168D03*
X057306Y004163D03*
X057326Y004181D03*
X057326Y004188D03*
X057328Y004198D03*
X057356Y004173D03*
X057323Y004238D03*
X056916Y003838D03*
X056911Y003841D03*
X056908Y003838D03*
X056898Y003836D03*
X056896Y003833D03*
X056888Y003836D03*
X056888Y003838D03*
X056888Y003843D03*
X056883Y003843D03*
X056881Y003838D03*
X056878Y003833D03*
X056876Y003836D03*
X056871Y003841D03*
X056876Y003846D03*
X056886Y003833D03*
X056883Y003831D03*
X056876Y003828D03*
X056873Y003826D03*
X056866Y003831D03*
X056858Y003831D03*
X056858Y003838D03*
X056853Y003841D03*
X056846Y003838D03*
X056843Y003836D03*
X056843Y003831D03*
X056848Y003826D03*
X056851Y003828D03*
X056833Y003831D03*
X056826Y003831D03*
X056821Y003833D03*
X056818Y003828D03*
X056818Y003826D03*
X056813Y003821D03*
X056821Y003816D03*
X056816Y003836D03*
X056813Y003838D03*
X056808Y003838D03*
X056806Y003843D03*
X056798Y003831D03*
X056791Y003836D03*
X056788Y003826D03*
X056783Y003826D03*
X056776Y003831D03*
X056768Y003831D03*
X056763Y003836D03*
X056756Y003836D03*
X056756Y003833D03*
X056753Y003826D03*
X056751Y003823D03*
X056743Y003823D03*
X056738Y003823D03*
X056733Y003823D03*
X056738Y003816D03*
X056736Y003811D03*
X056728Y003811D03*
X056723Y003818D03*
X056721Y003823D03*
X056716Y003821D03*
X056711Y003823D03*
X056711Y003826D03*
X056706Y003816D03*
X056706Y003813D03*
X056701Y003813D03*
X056698Y003811D03*
X056698Y003808D03*
X056696Y003801D03*
X056683Y003816D03*
X056681Y003821D03*
X056686Y003821D03*
X056688Y003823D03*
X056693Y003821D03*
X056676Y003823D03*
X056668Y003816D03*
X056666Y003813D03*
X056661Y003811D03*
X056663Y003801D03*
X056656Y003801D03*
X056656Y003798D03*
X056656Y003796D03*
X056648Y003796D03*
X056648Y003793D03*
X056648Y003791D03*
X056648Y003801D03*
X056648Y003806D03*
X056643Y003813D03*
X056638Y003811D03*
X056633Y003806D03*
X056638Y003803D03*
X056626Y003801D03*
X056621Y003803D03*
X056616Y003811D03*
X056611Y003806D03*
X056611Y003803D03*
X056608Y003808D03*
X056603Y003801D03*
X056596Y003803D03*
X056591Y003803D03*
X056588Y003801D03*
X056596Y003796D03*
X056608Y003791D03*
X056578Y003801D03*
X056573Y003803D03*
X056571Y003801D03*
X056568Y003806D03*
X056563Y003803D03*
X056561Y003806D03*
X056558Y003803D03*
X056558Y003796D03*
X056566Y003798D03*
X056548Y003811D03*
X056543Y003811D03*
X056536Y003808D03*
X056528Y003811D03*
X056523Y003811D03*
X056516Y003816D03*
X056516Y003821D03*
X056511Y003816D03*
X056503Y003816D03*
X056498Y003818D03*
X056493Y003821D03*
X056496Y003828D03*
X056481Y003831D03*
X056458Y003833D03*
X056458Y003836D03*
X056451Y003841D03*
X056446Y003848D03*
X056438Y003848D03*
X056438Y003846D03*
X056426Y003861D03*
X056428Y003863D03*
X056426Y003866D03*
X056401Y003863D03*
X056551Y003836D03*
X056543Y003801D03*
X056641Y003818D03*
X056641Y003821D03*
X056646Y003821D03*
X056646Y003818D03*
X056651Y003816D03*
X056651Y003821D03*
X056676Y003806D03*
X056678Y003811D03*
X056726Y003831D03*
X056731Y003833D03*
X056736Y003833D03*
X056748Y003831D03*
X056756Y003846D03*
X056756Y003848D03*
X056771Y003838D03*
X056763Y003818D03*
X056763Y003813D03*
X056761Y003811D03*
X056758Y003813D03*
X056768Y003813D03*
X056768Y003816D03*
X056788Y003813D03*
X056796Y003821D03*
X056793Y003823D03*
X056801Y003811D03*
X056833Y003841D03*
X056836Y003848D03*
X056896Y003846D03*
X056901Y003848D03*
X056783Y003883D03*
X056768Y003881D03*
X056761Y003878D03*
X056726Y003881D03*
X056713Y003881D03*
X056748Y003808D03*
D42*
X056741Y003826D03*
X056743Y003841D03*
X056756Y003841D03*
X056763Y003846D03*
X056756Y003853D03*
X056758Y003828D03*
X056778Y003838D03*
X056788Y003833D03*
X056788Y003831D03*
X056788Y003828D03*
X056801Y003838D03*
X056823Y003851D03*
X056846Y003851D03*
X056861Y003841D03*
X056866Y003838D03*
X056888Y003858D03*
X056903Y003853D03*
X056908Y003848D03*
X056911Y003843D03*
X056901Y003843D03*
X056921Y003858D03*
X056933Y003863D03*
X056933Y003871D03*
X056948Y003873D03*
X056961Y003876D03*
X056981Y003893D03*
X056991Y003903D03*
X056988Y003913D03*
X056983Y003921D03*
X056998Y003938D03*
X057008Y003946D03*
X057013Y003938D03*
X057013Y003933D03*
X057023Y003933D03*
X057023Y003938D03*
X057046Y003941D03*
X057078Y003953D03*
X057088Y003946D03*
X057088Y003943D03*
X057081Y003938D03*
X057116Y003951D03*
X057121Y003958D03*
X057133Y003961D03*
X057176Y003991D03*
X057181Y004003D03*
X057193Y004031D03*
X057216Y004056D03*
X057218Y004053D03*
X057223Y004071D03*
X057233Y004081D03*
X057216Y004083D03*
X057211Y004088D03*
X057218Y004091D03*
X057218Y004096D03*
X057226Y004098D03*
X057206Y004096D03*
X057241Y004131D03*
X057238Y004136D03*
X057256Y004126D03*
X057261Y004136D03*
X057261Y004138D03*
X057261Y004148D03*
X057276Y004138D03*
X057278Y004131D03*
X057291Y004143D03*
X057293Y004151D03*
X057303Y004151D03*
X057306Y004146D03*
X057298Y004138D03*
X057283Y004166D03*
X057286Y004173D03*
X057271Y004171D03*
X057318Y004188D03*
X057336Y004198D03*
X057343Y004193D03*
X057343Y004191D03*
X057343Y004183D03*
X057363Y004223D03*
X057361Y004233D03*
X057388Y004266D03*
X057386Y004268D03*
X057368Y004276D03*
X057361Y004281D03*
X057358Y004278D03*
X057373Y004291D03*
X057373Y004293D03*
X057376Y004296D03*
X057383Y004293D03*
X057386Y004296D03*
X057386Y004298D03*
X057388Y004303D03*
X057393Y004306D03*
X057393Y004313D03*
X057406Y004308D03*
X057413Y004298D03*
X057411Y004296D03*
X057408Y004328D03*
X057403Y004333D03*
X057401Y004336D03*
X057406Y004338D03*
X057418Y004338D03*
X057423Y004343D03*
X057431Y004338D03*
X057438Y004343D03*
X057456Y004363D03*
X057466Y004361D03*
X057466Y004371D03*
X057471Y004376D03*
X057471Y004378D03*
X057468Y004383D03*
X057473Y004386D03*
X057481Y004391D03*
X057468Y004401D03*
X057458Y004383D03*
X057511Y004408D03*
X057508Y004423D03*
X057533Y004453D03*
X057543Y004458D03*
X057546Y004461D03*
X057553Y004473D03*
X057551Y004478D03*
X057553Y004506D03*
X057558Y004508D03*
X057576Y004511D03*
X057576Y004513D03*
X057576Y004521D03*
X057581Y004531D03*
X057586Y004538D03*
X057586Y004541D03*
X057593Y004543D03*
X057593Y004546D03*
X057576Y004538D03*
X057568Y004541D03*
X057558Y004528D03*
X057518Y004533D03*
X057601Y004568D03*
X057608Y004571D03*
X057608Y004573D03*
X057048Y003986D03*
X057013Y003963D03*
X056996Y003951D03*
X057018Y003916D03*
X056761Y003881D03*
X056718Y003836D03*
X056696Y003823D03*
X056688Y003811D03*
X056676Y003816D03*
X056673Y003818D03*
X056671Y003826D03*
X056681Y003826D03*
X056643Y003816D03*
X056636Y003813D03*
X056638Y003808D03*
X056628Y003803D03*
X056626Y003816D03*
X056641Y003836D03*
X056603Y003803D03*
X056596Y003793D03*
X056583Y003803D03*
X056536Y003803D03*
X056533Y003806D03*
X056536Y003811D03*
X056531Y003816D03*
X056471Y003828D03*
X056471Y003831D03*
X056458Y003831D03*
X056696Y005488D03*
X056696Y005491D03*
X056696Y005493D03*
X056701Y005501D03*
X056703Y005508D03*
X058196Y005551D03*
X059781Y005728D03*
X058568Y006101D03*
D43*
X058197Y006201D03*
X059157Y005998D03*
X059669Y006033D03*
X059509Y006298D03*
X059414Y006386D03*
X059622Y006426D03*
X060262Y006566D03*
X060467Y006598D03*
X060389Y006188D03*
X060372Y006191D03*
X060362Y006098D03*
X059797Y005728D03*
X059087Y005583D03*
X059049Y005568D03*
X058692Y005508D03*
X058657Y005518D03*
X056699Y005498D03*
X056697Y005496D03*
X057667Y004668D03*
X057642Y004616D03*
X057632Y004603D03*
X057627Y004593D03*
X057622Y004583D03*
X057619Y004576D03*
X057617Y004573D03*
X057612Y004576D03*
X057609Y004568D03*
X057609Y004556D03*
X057597Y004558D03*
X057594Y004553D03*
X057594Y004541D03*
X057579Y004528D03*
X057574Y004518D03*
X057554Y004511D03*
X057559Y004493D03*
X057549Y004483D03*
X057552Y004481D03*
X057539Y004473D03*
X057534Y004466D03*
X057537Y004463D03*
X057542Y004446D03*
X057532Y004446D03*
X057529Y004431D03*
X057524Y004428D03*
X057512Y004418D03*
X057504Y004411D03*
X057509Y004406D03*
X057504Y004401D03*
X057502Y004398D03*
X057494Y004396D03*
X057494Y004393D03*
X057492Y004391D03*
X057484Y004396D03*
X057474Y004396D03*
X057467Y004388D03*
X057477Y004383D03*
X057479Y004376D03*
X057479Y004373D03*
X057462Y004378D03*
X057459Y004373D03*
X057457Y004371D03*
X057452Y004366D03*
X057449Y004368D03*
X057449Y004356D03*
X057459Y004356D03*
X057447Y004343D03*
X057437Y004353D03*
X057432Y004341D03*
X057419Y004323D03*
X057414Y004318D03*
X057412Y004321D03*
X057407Y004313D03*
X057407Y004306D03*
X057399Y004298D03*
X057392Y004301D03*
X057384Y004313D03*
X057392Y004316D03*
X057392Y004323D03*
X057397Y004326D03*
X057402Y004331D03*
X057407Y004341D03*
X057404Y004348D03*
X057419Y004361D03*
X057424Y004363D03*
X057422Y004371D03*
X057432Y004383D03*
X057494Y004408D03*
X057499Y004501D03*
X057529Y004541D03*
X057529Y004556D03*
X057547Y004536D03*
X057567Y004476D03*
X057612Y004598D03*
X057399Y004288D03*
X057392Y004283D03*
X057377Y004276D03*
X057369Y004273D03*
X057367Y004278D03*
X057367Y004286D03*
X057372Y004266D03*
X057379Y004266D03*
X057387Y004253D03*
X057394Y004256D03*
X057394Y004263D03*
X057399Y004251D03*
X057387Y004236D03*
X057364Y004238D03*
X057362Y004216D03*
X057357Y004211D03*
X057354Y004203D03*
X057344Y004198D03*
X057334Y004191D03*
X057332Y004186D03*
X057332Y004183D03*
X057334Y004181D03*
X057334Y004178D03*
X057334Y004176D03*
X057342Y004176D03*
X057337Y004168D03*
X057327Y004168D03*
X057322Y004166D03*
X057312Y004168D03*
X057312Y004158D03*
X057312Y004153D03*
X057314Y004151D03*
X057314Y004138D03*
X057307Y004136D03*
X057297Y004136D03*
X057287Y004128D03*
X057284Y004146D03*
X057277Y004143D03*
X057262Y004131D03*
X057264Y004126D03*
X057257Y004128D03*
X057247Y004128D03*
X057247Y004136D03*
X057247Y004138D03*
X057242Y004141D03*
X057242Y004146D03*
X057237Y004133D03*
X057224Y004123D03*
X057224Y004121D03*
X057222Y004118D03*
X057209Y004108D03*
X057209Y004091D03*
X057219Y004088D03*
X057227Y004088D03*
X057227Y004086D03*
X057227Y004091D03*
X057229Y004093D03*
X057227Y004096D03*
X057237Y004098D03*
X057242Y004101D03*
X057247Y004106D03*
X057237Y004106D03*
X057237Y004091D03*
X057232Y004083D03*
X057234Y004078D03*
X057247Y004086D03*
X057262Y004106D03*
X057262Y004108D03*
X057269Y004108D03*
X057272Y004118D03*
X057262Y004118D03*
X057252Y004116D03*
X057259Y004163D03*
X057292Y004166D03*
X057319Y004181D03*
X057317Y004186D03*
X057324Y004186D03*
X057324Y004183D03*
X057322Y004196D03*
X057367Y004206D03*
X057374Y004213D03*
X057374Y004216D03*
X057414Y004268D03*
X057197Y004096D03*
X057192Y004093D03*
X057219Y004066D03*
X057224Y004063D03*
X057224Y004056D03*
X057209Y004053D03*
X057214Y004043D03*
X057209Y004041D03*
X057202Y004031D03*
X057192Y004021D03*
X057189Y004023D03*
X057184Y004018D03*
X057187Y004013D03*
X057174Y003993D03*
X057167Y003993D03*
X057154Y003983D03*
X057149Y003976D03*
X057134Y003971D03*
X057134Y003963D03*
X057127Y003963D03*
X057112Y003943D03*
X057087Y003953D03*
X057079Y003948D03*
X057074Y003956D03*
X057069Y003951D03*
X057067Y003953D03*
X057059Y003956D03*
X057057Y003946D03*
X057059Y003943D03*
X057059Y003941D03*
X057057Y003936D03*
X057057Y003933D03*
X057059Y003931D03*
X057049Y003933D03*
X057044Y003951D03*
X057024Y003941D03*
X057014Y003931D03*
X057019Y003923D03*
X057029Y003918D03*
X057032Y003923D03*
X057017Y003911D03*
X057007Y003923D03*
X057004Y003933D03*
X056999Y003946D03*
X056977Y003943D03*
X056982Y003931D03*
X056997Y003913D03*
X056982Y003896D03*
X056982Y003891D03*
X056969Y003886D03*
X056959Y003886D03*
X056947Y003888D03*
X056949Y003876D03*
X056949Y003868D03*
X056939Y003861D03*
X056937Y003848D03*
X056922Y003848D03*
X056917Y003846D03*
X056909Y003846D03*
X056902Y003846D03*
X056902Y003841D03*
X056912Y003853D03*
X056914Y003861D03*
X056907Y003861D03*
X056922Y003856D03*
X056924Y003866D03*
X056964Y003868D03*
X056969Y003866D03*
X056969Y003873D03*
X056972Y003876D03*
X056882Y003841D03*
X056877Y003843D03*
X056874Y003838D03*
X056867Y003833D03*
X056859Y003833D03*
X056857Y003836D03*
X056852Y003838D03*
X056852Y003831D03*
X056857Y003828D03*
X056839Y003833D03*
X056839Y003838D03*
X056834Y003836D03*
X056829Y003838D03*
X056827Y003841D03*
X056822Y003838D03*
X056822Y003836D03*
X056817Y003831D03*
X056812Y003833D03*
X056809Y003826D03*
X056824Y003828D03*
X056829Y003833D03*
X056837Y003851D03*
X056854Y003858D03*
X056809Y003846D03*
X056787Y003838D03*
X056769Y003826D03*
X056752Y003818D03*
X056737Y003818D03*
X056737Y003821D03*
X056732Y003826D03*
X056732Y003831D03*
X056727Y003836D03*
X056719Y003831D03*
X056722Y003826D03*
X056712Y003831D03*
X056717Y003838D03*
X056699Y003821D03*
X056702Y003818D03*
X056694Y003818D03*
X056682Y003823D03*
X056669Y003821D03*
X056657Y003816D03*
X056654Y003813D03*
X056654Y003811D03*
X056657Y003803D03*
X056649Y003823D03*
X056634Y003818D03*
X056634Y003816D03*
X056629Y003811D03*
X056629Y003808D03*
X056622Y003806D03*
X056622Y003811D03*
X056584Y003806D03*
X056577Y003806D03*
X056567Y003816D03*
X056559Y003808D03*
X056554Y003806D03*
X056547Y003803D03*
X056544Y003808D03*
X056542Y003816D03*
X056522Y003816D03*
X056522Y003813D03*
X056509Y003821D03*
X056507Y003826D03*
X056514Y003826D03*
X056499Y003823D03*
X056492Y003823D03*
X056487Y003826D03*
X056489Y003828D03*
X056482Y003828D03*
X056469Y003833D03*
X056464Y003836D03*
X056447Y003851D03*
X056432Y003848D03*
X056367Y003888D03*
X056562Y003801D03*
X056682Y003806D03*
X057067Y003943D03*
X057077Y003963D03*
D44*
X057072Y003958D03*
X057049Y003958D03*
X057037Y003936D03*
X056994Y003941D03*
X056987Y003946D03*
X056977Y003941D03*
X056967Y003936D03*
X056967Y003891D03*
X056842Y003846D03*
X056822Y003846D03*
X056739Y003843D03*
X056739Y003836D03*
X056689Y003813D03*
X056687Y003808D03*
X056657Y003818D03*
X056602Y003811D03*
X056599Y003806D03*
X056554Y003816D03*
X056529Y003818D03*
X056437Y003858D03*
X056337Y003921D03*
X057117Y003968D03*
X057129Y003966D03*
X057214Y004073D03*
X057214Y004078D03*
X057217Y004093D03*
X057249Y004118D03*
X057242Y004126D03*
X057299Y004153D03*
X057299Y004173D03*
X057352Y004213D03*
X057379Y004301D03*
X057434Y004378D03*
X057447Y004381D03*
X057454Y004401D03*
X057504Y004421D03*
X057562Y004518D03*
X057554Y004523D03*
X057564Y004531D03*
X057584Y004533D03*
X057584Y004558D03*
X057594Y004571D03*
X057624Y004598D03*
X056714Y005438D03*
X056714Y005441D03*
X056717Y005446D03*
X056719Y005448D03*
X056709Y005436D03*
X056734Y005468D03*
X059154Y005996D03*
D45*
X056729Y005461D03*
X056697Y005426D03*
X056692Y005418D03*
X056689Y005416D03*
X057547Y004568D03*
X057537Y004553D03*
X057552Y004538D03*
X057577Y004546D03*
X057514Y004431D03*
X057459Y004411D03*
X057437Y004371D03*
X057437Y004366D03*
X057439Y004363D03*
X057422Y004351D03*
X057377Y004281D03*
X057339Y004203D03*
X057304Y004181D03*
X057289Y004186D03*
X057282Y004181D03*
X057277Y004148D03*
X057244Y004123D03*
X057207Y004101D03*
X057194Y004091D03*
X057194Y004088D03*
X057089Y003956D03*
X056999Y003948D03*
X056982Y003938D03*
X056929Y003873D03*
X056904Y003858D03*
X056862Y003846D03*
X056739Y003853D03*
X056727Y003841D03*
X056734Y003828D03*
X056582Y003811D03*
X056582Y003808D03*
X056532Y003821D03*
X056414Y003863D03*
X056412Y003861D03*
D46*
X056429Y003851D03*
X056489Y003831D03*
X056497Y003826D03*
X056534Y003813D03*
X056599Y003808D03*
X056624Y003818D03*
X056659Y003821D03*
X056694Y003816D03*
X056722Y003833D03*
X056727Y003838D03*
X056739Y003838D03*
X056734Y003848D03*
X056722Y003851D03*
X056747Y003848D03*
X056754Y003843D03*
X056764Y003833D03*
X056774Y003836D03*
X056777Y003833D03*
X056747Y003821D03*
X056842Y003841D03*
X056867Y003836D03*
X056884Y003846D03*
X056887Y003848D03*
X056892Y003841D03*
X056897Y003838D03*
X056897Y003861D03*
X056924Y003868D03*
X056929Y003861D03*
X056944Y003886D03*
X056964Y003938D03*
X057004Y003928D03*
X057034Y003941D03*
X057059Y003951D03*
X057064Y003948D03*
X057099Y003946D03*
X057099Y003938D03*
X057099Y003966D03*
X057132Y003968D03*
X057199Y004023D03*
X057217Y004058D03*
X057217Y004061D03*
X057217Y004086D03*
X057202Y004093D03*
X057227Y004126D03*
X057242Y004116D03*
X057252Y004141D03*
X057274Y004141D03*
X057269Y004173D03*
X057307Y004186D03*
X057307Y004188D03*
X057314Y004173D03*
X057322Y004171D03*
X057337Y004188D03*
X057349Y004188D03*
X057349Y004266D03*
X057357Y004271D03*
X057357Y004276D03*
X057369Y004283D03*
X057367Y004288D03*
X057382Y004283D03*
X057384Y004278D03*
X057387Y004276D03*
X057389Y004288D03*
X057382Y004306D03*
X057392Y004318D03*
X057404Y004316D03*
X057414Y004331D03*
X057412Y004336D03*
X057427Y004346D03*
X057432Y004356D03*
X057439Y004346D03*
X057442Y004341D03*
X057432Y004336D03*
X057414Y004356D03*
X057442Y004383D03*
X057452Y004378D03*
X057459Y004376D03*
X057469Y004373D03*
X057477Y004403D03*
X057484Y004401D03*
X057467Y004438D03*
X057522Y004456D03*
X057534Y004456D03*
X057534Y004461D03*
X057539Y004518D03*
X057552Y004516D03*
X057567Y004516D03*
X057569Y004528D03*
X057557Y004536D03*
X057527Y004538D03*
X057522Y004536D03*
X057597Y004573D03*
X057607Y004578D03*
X057027Y003971D03*
X056334Y003923D03*
X059032Y005568D03*
X058539Y006106D03*
D47*
X058266Y006066D03*
X056731Y005466D03*
X056731Y005463D03*
X056721Y005456D03*
X056721Y005453D03*
X056721Y005451D03*
X056716Y005443D03*
X056703Y005428D03*
X057626Y004601D03*
X057586Y004536D03*
X057481Y004411D03*
X057488Y004398D03*
X057423Y004358D03*
X057411Y004346D03*
X057408Y004343D03*
X057418Y004333D03*
X057388Y004308D03*
X057373Y004271D03*
X057366Y004256D03*
X057363Y004251D03*
X057343Y004251D03*
X057348Y004201D03*
X057328Y004201D03*
X057306Y004166D03*
X057308Y004148D03*
X057268Y004166D03*
X057266Y004161D03*
X057251Y004133D03*
X057246Y004103D03*
X057206Y004048D03*
X057053Y003953D03*
X057041Y003943D03*
X057038Y003938D03*
X057013Y003956D03*
X057001Y003931D03*
X056966Y003888D03*
X056878Y003856D03*
X056821Y003848D03*
X056821Y003843D03*
X056768Y003848D03*
X056663Y003823D03*
X056561Y003811D03*
X056561Y003841D03*
X056483Y003833D03*
X056428Y003853D03*
X056418Y003858D03*
X060368Y006188D03*
X060411Y006591D03*
X060503Y006598D03*
D48*
X058538Y006096D03*
X058263Y006083D03*
X058686Y005521D03*
X057561Y004551D03*
X057111Y003976D03*
X056678Y003838D03*
X056576Y003813D03*
X057113Y007343D03*
D49*
X058268Y006063D03*
X058688Y005511D03*
X056723Y005458D03*
X056708Y005433D03*
X056708Y005431D03*
X056703Y005503D03*
X056703Y005506D03*
X057626Y004588D03*
X057558Y004546D03*
X057536Y004536D03*
X057548Y004503D03*
X057543Y004476D03*
X057526Y004448D03*
X057506Y004413D03*
X057481Y004438D03*
X057461Y004386D03*
X057473Y004381D03*
X057466Y004368D03*
X057453Y004358D03*
X057423Y004328D03*
X057398Y004321D03*
X057411Y004301D03*
X057373Y004298D03*
X057381Y004273D03*
X057358Y004273D03*
X057348Y004256D03*
X057351Y004236D03*
X057336Y004196D03*
X057331Y004193D03*
X057323Y004191D03*
X057308Y004183D03*
X057301Y004168D03*
X057306Y004156D03*
X057286Y004156D03*
X057256Y004121D03*
X057241Y004121D03*
X057236Y004128D03*
X057178Y004081D03*
X057208Y004046D03*
X057181Y004008D03*
X057166Y003986D03*
X057113Y003966D03*
X057108Y003958D03*
X057101Y003951D03*
X057093Y003958D03*
X057076Y003946D03*
X057048Y003973D03*
X057043Y003981D03*
X057033Y003973D03*
X057023Y003966D03*
X057021Y003943D03*
X057021Y003936D03*
X057023Y003926D03*
X057011Y003941D03*
X057003Y003936D03*
X057001Y003926D03*
X056983Y003936D03*
X056861Y003856D03*
X056813Y003841D03*
X056806Y003836D03*
X056753Y003838D03*
X056716Y003848D03*
X056698Y003826D03*
X056656Y003826D03*
X056623Y003813D03*
X056751Y003878D03*
X056416Y003866D03*
X056401Y003866D03*
X057346Y004186D03*
X057576Y004523D03*
D50*
X057552Y004558D03*
X057527Y004511D03*
X057492Y004448D03*
X057474Y004413D03*
X057469Y004406D03*
X057359Y004253D03*
X057352Y004241D03*
X057337Y004228D03*
X056929Y003916D03*
X056594Y003816D03*
X056649Y005436D03*
X056677Y005473D03*
X056677Y005476D03*
X056679Y005478D03*
X058194Y006198D03*
X058692Y005516D03*
X057109Y007348D03*
D51*
X058536Y006088D03*
X059151Y005986D03*
X059648Y006021D03*
X059771Y005736D03*
X059033Y005578D03*
X060371Y006181D03*
X057606Y004633D03*
X057606Y004628D03*
X056601Y003833D03*
X056578Y003818D03*
X056508Y003836D03*
D52*
X056562Y003821D03*
X056787Y003846D03*
X056794Y003848D03*
X056867Y003851D03*
X056987Y003918D03*
X057107Y003953D03*
X057112Y003961D03*
X057187Y004078D03*
X057192Y004083D03*
X057194Y004086D03*
X057267Y004153D03*
X057277Y004168D03*
X057292Y004161D03*
X057309Y004203D03*
X057439Y004361D03*
X057492Y004458D03*
X057579Y004568D03*
D53*
X057591Y004566D03*
X057603Y004581D03*
X057461Y004398D03*
X057446Y004388D03*
X057363Y004268D03*
X057343Y004238D03*
X057301Y004196D03*
X057266Y004151D03*
X057203Y004081D03*
X056961Y003931D03*
X056953Y003881D03*
X056788Y003841D03*
X056786Y003843D03*
X056596Y003821D03*
X056406Y003868D03*
X058696Y005513D03*
X059153Y005993D03*
D54*
X059666Y006031D03*
X058266Y006068D03*
X056696Y005423D03*
X056693Y005421D03*
X057591Y004561D03*
X057576Y004543D03*
X057523Y004473D03*
X057526Y004458D03*
X057516Y004446D03*
X057441Y004386D03*
X057418Y004353D03*
X057416Y004326D03*
X057383Y004286D03*
X057331Y004236D03*
X057288Y004188D03*
X057261Y004156D03*
X057223Y004116D03*
X057221Y004106D03*
X057151Y004051D03*
X057181Y004006D03*
X057031Y003963D03*
X056913Y003871D03*
X056871Y003858D03*
X056846Y003853D03*
X056718Y003843D03*
X056626Y003821D03*
X057116Y007351D03*
D55*
X057116Y007333D03*
X057306Y007171D03*
X057308Y007168D03*
X057313Y007163D03*
X057316Y007161D03*
X057318Y007158D03*
X057323Y007153D03*
X057328Y007148D03*
X057331Y007143D03*
X058111Y006098D03*
X058536Y005891D03*
X058536Y005888D03*
X058536Y005886D03*
X058536Y005883D03*
X058536Y005881D03*
X058421Y005636D03*
X058418Y005631D03*
X058416Y005628D03*
X058643Y005573D03*
X058646Y005571D03*
X058648Y005568D03*
X058656Y005558D03*
X058936Y005706D03*
X058933Y005711D03*
X058933Y005713D03*
X058926Y005728D03*
X058926Y005731D03*
X058926Y005733D03*
X059148Y005953D03*
X058851Y006063D03*
X058851Y006066D03*
X058846Y006086D03*
X058846Y006088D03*
X058846Y006091D03*
X058846Y006093D03*
X058846Y006096D03*
X059636Y005881D03*
X059643Y005866D03*
X059646Y005861D03*
X059646Y005858D03*
X059766Y005743D03*
X060573Y005691D03*
X060573Y005688D03*
X060576Y005686D03*
X060576Y005683D03*
X060581Y005633D03*
X060348Y006161D03*
X056291Y004093D03*
X056291Y004091D03*
X056298Y004076D03*
X056301Y004071D03*
X056303Y004066D03*
X056306Y004061D03*
X056306Y004058D03*
X056308Y004056D03*
X056308Y004053D03*
X056581Y003823D03*
X056583Y003826D03*
X056826Y003861D03*
X056851Y003868D03*
D56*
X056904Y003893D03*
X056569Y003828D03*
X056334Y004006D03*
X056332Y004011D03*
X056332Y004013D03*
X058042Y005571D03*
X058357Y005576D03*
X058364Y005578D03*
X058377Y005591D03*
X058954Y005681D03*
X059239Y005706D03*
X059242Y005701D03*
X059252Y005686D03*
X059254Y005683D03*
X059257Y005681D03*
X059149Y005928D03*
X059664Y005833D03*
X059759Y005748D03*
X060559Y005711D03*
X060564Y005618D03*
X060552Y005598D03*
X058534Y005836D03*
X058534Y005838D03*
X058534Y005841D03*
X058534Y005843D03*
X058534Y005846D03*
X058534Y005848D03*
X058534Y005851D03*
X059429Y006298D03*
X057272Y007206D03*
X057269Y007208D03*
X057119Y007328D03*
D57*
X058534Y006103D03*
X057612Y004591D03*
X057539Y004548D03*
X057537Y004546D03*
X057519Y004518D03*
X057497Y004473D03*
X057517Y004443D03*
X057472Y004436D03*
X057457Y004403D03*
X057399Y004311D03*
X057304Y004201D03*
X057287Y004183D03*
X057264Y004146D03*
X057227Y004108D03*
X057222Y004113D03*
X057057Y003963D03*
X057042Y003956D03*
X056994Y003943D03*
X056902Y003856D03*
X056694Y003831D03*
X056659Y003833D03*
X056654Y003828D03*
D58*
X056691Y003828D03*
X056946Y003883D03*
X056956Y003896D03*
X057033Y003948D03*
X057046Y003968D03*
X057293Y004178D03*
X057338Y004231D03*
X057351Y004246D03*
X057351Y004248D03*
X057481Y004431D03*
X057511Y004438D03*
X057518Y004503D03*
X057521Y004506D03*
X057563Y004581D03*
X056648Y005433D03*
X056661Y005448D03*
X056661Y005451D03*
X056661Y005453D03*
X056681Y005481D03*
X060558Y005573D03*
D59*
X059033Y005573D03*
X056673Y005468D03*
X057523Y004491D03*
X057516Y004483D03*
X057331Y004218D03*
X057326Y004211D03*
X057296Y004176D03*
X056943Y003918D03*
X056526Y003831D03*
D60*
X056598Y003831D03*
X056598Y003838D03*
X056773Y003851D03*
X057121Y004006D03*
X057123Y004008D03*
X057143Y004021D03*
X057608Y004638D03*
X057613Y004646D03*
X057618Y004656D03*
X057621Y004661D03*
X057623Y004663D03*
X057623Y004666D03*
X057626Y004671D03*
X057628Y004673D03*
X057638Y004696D03*
X057648Y004721D03*
X057648Y004723D03*
X057651Y004731D03*
X057653Y004733D03*
X057666Y004761D03*
X057666Y004763D03*
X057666Y004766D03*
X057666Y004768D03*
X057668Y004776D03*
X057671Y004781D03*
X057676Y004788D03*
X057681Y004803D03*
X057681Y004806D03*
X057683Y004816D03*
X057691Y004828D03*
X057691Y004831D03*
X057691Y004833D03*
X057691Y004836D03*
X057693Y004841D03*
X057696Y004846D03*
X057698Y004853D03*
X057698Y004856D03*
X057703Y004871D03*
X057703Y004873D03*
X057711Y004886D03*
X057711Y004888D03*
X057711Y004891D03*
X057711Y004893D03*
X057718Y004913D03*
X057718Y004916D03*
X057718Y004918D03*
X057718Y004921D03*
X057718Y004923D03*
X057721Y004928D03*
X057721Y004931D03*
X057726Y004938D03*
X057726Y004941D03*
X057726Y004943D03*
X057726Y004946D03*
X057726Y004948D03*
X057728Y004951D03*
X057731Y004956D03*
X057731Y004958D03*
X057731Y004961D03*
X057731Y004963D03*
X057731Y004966D03*
X057733Y004971D03*
X057733Y004973D03*
X057736Y004976D03*
X057736Y004978D03*
X057736Y004981D03*
X057736Y004983D03*
X057738Y004986D03*
X057743Y005008D03*
X057746Y005013D03*
X057746Y005016D03*
X057746Y005026D03*
X057751Y005038D03*
X057758Y005068D03*
X057758Y005071D03*
X057758Y005073D03*
X057758Y005076D03*
X057758Y005078D03*
X057763Y005096D03*
X057763Y005098D03*
X057763Y005101D03*
X057766Y005103D03*
X057771Y005128D03*
X057768Y005136D03*
X057771Y005138D03*
X057771Y005141D03*
X057771Y005143D03*
X057773Y005151D03*
X057773Y005153D03*
X057773Y005156D03*
X057783Y005201D03*
X057783Y005203D03*
X057783Y005206D03*
X057783Y005208D03*
X057783Y005211D03*
X057783Y005213D03*
X057783Y005216D03*
X057783Y005226D03*
X057786Y005228D03*
X057786Y005231D03*
X057786Y005233D03*
X057788Y005256D03*
X057788Y005258D03*
X057788Y005261D03*
X057788Y005263D03*
X057788Y005266D03*
X057788Y005268D03*
X057788Y005271D03*
X057796Y005311D03*
X057796Y005313D03*
X057796Y005316D03*
X057796Y005318D03*
X057798Y005353D03*
X057798Y005356D03*
X057801Y005373D03*
X057801Y005386D03*
X057801Y005388D03*
X057803Y005408D03*
X057806Y005413D03*
X057806Y005416D03*
X057806Y005418D03*
X057806Y005421D03*
X057806Y005423D03*
X057806Y005426D03*
X057806Y005428D03*
X057806Y005433D03*
X057806Y005436D03*
X057806Y005441D03*
X057806Y005443D03*
X057806Y005446D03*
X057806Y005463D03*
X057806Y005466D03*
X057806Y005468D03*
X057806Y005471D03*
X057808Y005486D03*
X057808Y005488D03*
X057808Y005498D03*
X057808Y005501D03*
X057808Y005503D03*
X057808Y005506D03*
X057808Y005516D03*
X057808Y005518D03*
X057808Y005521D03*
X057808Y005536D03*
X057811Y005561D03*
X057811Y005563D03*
X057811Y005566D03*
X057808Y005571D03*
X057808Y005573D03*
X057808Y005576D03*
X057811Y005581D03*
X057811Y005583D03*
X057811Y005586D03*
X057811Y005588D03*
X057811Y005591D03*
X057811Y005593D03*
X057811Y005596D03*
X057811Y005598D03*
X057811Y005601D03*
X057811Y005603D03*
X057811Y005606D03*
X057811Y005618D03*
X057811Y005621D03*
X057811Y005623D03*
X057811Y005626D03*
X057811Y005628D03*
X057811Y005631D03*
X057811Y005633D03*
X057811Y005651D03*
X057811Y005653D03*
X057811Y005663D03*
X057811Y005666D03*
X057811Y005668D03*
X057806Y005681D03*
X057806Y005683D03*
X057808Y005686D03*
X057808Y005691D03*
X057808Y005693D03*
X057808Y005696D03*
X057808Y005698D03*
X057808Y005701D03*
X057808Y005703D03*
X057808Y005706D03*
X057808Y005708D03*
X057808Y005713D03*
X057808Y005716D03*
X057808Y005718D03*
X057808Y005721D03*
X057808Y005723D03*
X057808Y005726D03*
X057808Y005728D03*
X057808Y005731D03*
X057806Y005743D03*
X057806Y005746D03*
X057806Y005748D03*
X057806Y005763D03*
X057803Y005771D03*
X057806Y005793D03*
X057806Y005796D03*
X057806Y005798D03*
X057806Y005801D03*
X057806Y005803D03*
X057803Y005828D03*
X057801Y005836D03*
X057801Y005846D03*
X057801Y005858D03*
X057801Y005861D03*
X057801Y005863D03*
X057798Y005876D03*
X057798Y005878D03*
X057798Y005881D03*
X057798Y005883D03*
X057798Y005886D03*
X057796Y005891D03*
X057796Y005893D03*
X057796Y005908D03*
X057796Y005911D03*
X057796Y005913D03*
X057796Y005916D03*
X057796Y005918D03*
X057791Y005961D03*
X057791Y005963D03*
X057788Y005968D03*
X057788Y005971D03*
X057788Y005973D03*
X057788Y005986D03*
X057788Y005988D03*
X057781Y006031D03*
X057781Y006033D03*
X057781Y006036D03*
X057778Y006053D03*
X057778Y006056D03*
X057776Y006071D03*
X057776Y006073D03*
X057776Y006076D03*
X057776Y006078D03*
X057776Y006081D03*
X057773Y006086D03*
X057773Y006088D03*
X057773Y006091D03*
X057773Y006093D03*
X057773Y006096D03*
X057771Y006101D03*
X057771Y006103D03*
X057768Y006118D03*
X057768Y006121D03*
X057768Y006123D03*
X057766Y006136D03*
X057763Y006151D03*
X057761Y006158D03*
X057758Y006171D03*
X057758Y006173D03*
X057756Y006188D03*
X057753Y006211D03*
X057751Y006218D03*
X057751Y006221D03*
X057751Y006223D03*
X057748Y006233D03*
X057746Y006241D03*
X057746Y006243D03*
X057746Y006246D03*
X057741Y006263D03*
X057723Y006338D03*
X057716Y006368D03*
X057713Y006376D03*
X057688Y006458D03*
X057686Y006468D03*
X057686Y006471D03*
X057686Y006473D03*
X057678Y006493D03*
X058201Y006191D03*
X058851Y006116D03*
X059646Y006016D03*
X059646Y006013D03*
D61*
X058859Y006128D03*
X058537Y006101D03*
X060482Y006596D03*
X057572Y004548D03*
X057542Y004533D03*
X057484Y004446D03*
X057474Y004421D03*
X057437Y004373D03*
X057297Y004191D03*
X057294Y004171D03*
X057217Y004103D03*
X057099Y003963D03*
X057032Y003946D03*
X056849Y003843D03*
X056724Y003878D03*
X056662Y003831D03*
D62*
X056529Y003833D03*
X056949Y003921D03*
X057177Y004058D03*
X057179Y004061D03*
X057187Y004071D03*
X057322Y004206D03*
X057372Y004258D03*
X057369Y004261D03*
X057479Y004418D03*
X057489Y004441D03*
X057499Y004453D03*
X057504Y004463D03*
X057517Y004486D03*
X056639Y005421D03*
X058269Y006076D03*
X058544Y006098D03*
X058859Y006126D03*
X060454Y006591D03*
D63*
X059034Y005571D03*
X056667Y005466D03*
X056667Y005463D03*
X056664Y005458D03*
X056662Y005456D03*
X056659Y005446D03*
X057542Y004543D03*
X057534Y004531D03*
X057532Y004528D03*
X057524Y004516D03*
X057569Y004553D03*
X057507Y004436D03*
X057469Y004408D03*
X057302Y004193D03*
X057074Y003961D03*
X057054Y003976D03*
X056974Y003916D03*
X056694Y003833D03*
D64*
X056594Y003836D03*
X057592Y004606D03*
X057597Y004611D03*
X057602Y004618D03*
X057622Y004668D03*
X057632Y004686D03*
X057634Y004688D03*
X057737Y004993D03*
X057737Y004996D03*
X057777Y005168D03*
X059392Y005551D03*
X057807Y005648D03*
X057804Y005646D03*
X057804Y005643D03*
X057804Y005641D03*
X058257Y006086D03*
X059414Y006286D03*
D65*
X059409Y006281D03*
X058859Y006121D03*
X058199Y006196D03*
X060374Y006186D03*
X057582Y004593D03*
X057564Y004563D03*
X057567Y004556D03*
X057189Y004068D03*
X057172Y004053D03*
X057162Y004046D03*
X056959Y003923D03*
X056679Y003836D03*
D66*
X056507Y003838D03*
X056504Y003841D03*
X057079Y003971D03*
X057617Y004653D03*
X057619Y004658D03*
X057667Y004771D03*
X057667Y004773D03*
X057669Y004778D03*
X057682Y004808D03*
X057682Y004811D03*
X057682Y004813D03*
X057692Y004838D03*
X057694Y004843D03*
X057697Y004848D03*
X057697Y004851D03*
X057699Y004858D03*
X057699Y004861D03*
X057702Y004868D03*
X057719Y004926D03*
X057722Y004933D03*
X057744Y005011D03*
X057789Y005273D03*
X057789Y005276D03*
X057789Y005278D03*
X057792Y005286D03*
X057792Y005288D03*
X057792Y005291D03*
X057792Y005296D03*
X057792Y005298D03*
X057792Y005301D03*
X057792Y005303D03*
X057794Y005308D03*
X057794Y005333D03*
X057794Y005336D03*
X057794Y005338D03*
X057797Y005346D03*
X057797Y005348D03*
X057797Y005351D03*
X057802Y005391D03*
X057802Y005393D03*
X057802Y005396D03*
X057802Y005398D03*
X057802Y005401D03*
X057802Y005403D03*
X057802Y005406D03*
X057807Y005431D03*
X057804Y005438D03*
X057804Y005448D03*
X057807Y005473D03*
X057807Y005476D03*
X057807Y005478D03*
X057807Y005481D03*
X057807Y005483D03*
X057807Y005508D03*
X057809Y005523D03*
X057807Y005526D03*
X057807Y005528D03*
X057807Y005531D03*
X057809Y005578D03*
X057809Y005608D03*
X057809Y005611D03*
X057809Y005613D03*
X057809Y005616D03*
X057809Y005656D03*
X057809Y005658D03*
X057809Y005661D03*
X057809Y005688D03*
X057809Y005711D03*
X057807Y005733D03*
X057807Y005736D03*
X057807Y005738D03*
X057807Y005741D03*
X057804Y005766D03*
X057804Y005768D03*
X057804Y005806D03*
X057802Y005838D03*
X057802Y005841D03*
X057799Y005848D03*
X057799Y005851D03*
X057799Y005853D03*
X057799Y005856D03*
X057799Y005866D03*
X057799Y005868D03*
X057794Y005906D03*
X057794Y005921D03*
X057794Y005923D03*
X057792Y005938D03*
X057792Y005941D03*
X057792Y005943D03*
X057789Y005948D03*
X057789Y005951D03*
X057789Y005953D03*
X057789Y005958D03*
X057789Y005976D03*
X057789Y005978D03*
X057787Y005981D03*
X057787Y005983D03*
X057784Y006003D03*
X057784Y006006D03*
X057782Y006013D03*
X057782Y006016D03*
X057782Y006018D03*
X057782Y006021D03*
X057782Y006023D03*
X057782Y006026D03*
X057782Y006028D03*
X057779Y006038D03*
X057779Y006041D03*
X057779Y006043D03*
X057779Y006046D03*
X057779Y006048D03*
X057779Y006051D03*
X057777Y006058D03*
X057777Y006061D03*
X057777Y006063D03*
X057777Y006066D03*
X057777Y006068D03*
X057774Y006083D03*
X057772Y006098D03*
X057769Y006106D03*
X057769Y006108D03*
X057769Y006111D03*
X057769Y006113D03*
X057769Y006116D03*
X057767Y006126D03*
X057767Y006128D03*
X057767Y006131D03*
X057767Y006133D03*
X057764Y006138D03*
X057764Y006141D03*
X057764Y006143D03*
X057764Y006146D03*
X057764Y006148D03*
X057762Y006153D03*
X057762Y006156D03*
X057759Y006161D03*
X057759Y006163D03*
X057759Y006166D03*
X057759Y006168D03*
X057757Y006176D03*
X057757Y006178D03*
X057757Y006181D03*
X057757Y006183D03*
X057757Y006186D03*
X057754Y006191D03*
X057754Y006193D03*
X057754Y006196D03*
X057752Y006201D03*
X057752Y006203D03*
X057752Y006206D03*
X057752Y006208D03*
X057749Y006226D03*
X057749Y006228D03*
X057749Y006231D03*
X057747Y006236D03*
X057747Y006238D03*
X057744Y006248D03*
X057744Y006251D03*
X057744Y006253D03*
X057742Y006258D03*
X057742Y006261D03*
X057739Y006266D03*
X057739Y006268D03*
X057737Y006276D03*
X057737Y006278D03*
X057737Y006281D03*
X057737Y006283D03*
X057737Y006286D03*
X057734Y006288D03*
X057734Y006291D03*
X057732Y006293D03*
X057732Y006296D03*
X057732Y006298D03*
X057729Y006313D03*
X057729Y006316D03*
X057729Y006318D03*
X057727Y006321D03*
X057727Y006323D03*
X057724Y006326D03*
X057724Y006328D03*
X057724Y006331D03*
X057724Y006333D03*
X057724Y006336D03*
X057722Y006341D03*
X057719Y006348D03*
X057717Y006361D03*
X057717Y006363D03*
X057717Y006366D03*
X057714Y006371D03*
X057714Y006373D03*
X057712Y006378D03*
X057709Y006386D03*
X057709Y006388D03*
X057707Y006393D03*
X057702Y006411D03*
X057702Y006413D03*
X057702Y006416D03*
X057702Y006418D03*
X057697Y006428D03*
X057697Y006431D03*
X057697Y006433D03*
X057694Y006438D03*
X057692Y006441D03*
X057692Y006443D03*
X057692Y006446D03*
X057689Y006453D03*
X057689Y006456D03*
X057687Y006461D03*
X057687Y006463D03*
X057687Y006466D03*
X057684Y006476D03*
X057679Y006488D03*
X057679Y006491D03*
X057677Y006496D03*
X057677Y006498D03*
X057677Y006501D03*
X057674Y006506D03*
X057657Y006553D03*
X057657Y006556D03*
X057657Y006558D03*
X057654Y006561D03*
X057654Y006563D03*
X058539Y006086D03*
X058849Y006113D03*
X059149Y005981D03*
X060364Y006178D03*
X057109Y007341D03*
D67*
X057266Y007213D03*
X057268Y007211D03*
X059148Y005926D03*
X059148Y005923D03*
X059258Y005678D03*
X059261Y005676D03*
X059263Y005673D03*
X059663Y005836D03*
X058348Y005568D03*
X056338Y004003D03*
X056643Y003841D03*
X056846Y003873D03*
D68*
X056581Y003843D03*
X058176Y005493D03*
X059018Y005661D03*
X058178Y006108D03*
D69*
X060096Y006493D03*
X060151Y006506D03*
X060191Y006516D03*
X056603Y003846D03*
D70*
X056578Y003848D03*
D71*
X056858Y003848D03*
X056878Y003853D03*
X057021Y003951D03*
X057021Y003958D03*
X057088Y003968D03*
X057183Y004073D03*
X057283Y004163D03*
X057306Y004198D03*
X057323Y004213D03*
X057336Y004233D03*
X057458Y004393D03*
X057483Y004443D03*
X057496Y004456D03*
X057523Y004513D03*
X057526Y004523D03*
X057553Y004566D03*
X056666Y005461D03*
D72*
X059016Y005678D03*
X056583Y003851D03*
X056498Y003886D03*
D73*
X056898Y003851D03*
X056951Y003878D03*
X057116Y003956D03*
X057206Y004098D03*
X057223Y004111D03*
X057258Y004143D03*
X057426Y004348D03*
X057431Y004368D03*
X057436Y004376D03*
X057453Y004391D03*
X057453Y004396D03*
X057548Y004541D03*
X056691Y005483D03*
X056693Y005486D03*
X058266Y006071D03*
X059401Y005546D03*
D74*
X059477Y006331D03*
X060219Y006523D03*
X056587Y003853D03*
D75*
X056797Y003853D03*
X057162Y004041D03*
X057494Y004433D03*
X060554Y005578D03*
X059769Y005733D03*
X059652Y006026D03*
X059412Y006283D03*
X058537Y006093D03*
X058199Y006193D03*
D76*
X056632Y003856D03*
D77*
X056604Y003858D03*
X059984Y006463D03*
D78*
X060434Y006588D03*
X059644Y006018D03*
X059149Y005983D03*
X058257Y006091D03*
X057787Y005993D03*
X057787Y005991D03*
X057784Y005996D03*
X057784Y005998D03*
X057784Y006001D03*
X057789Y005966D03*
X057797Y005903D03*
X057797Y005901D03*
X057797Y005898D03*
X057797Y005896D03*
X057797Y005888D03*
X057802Y005833D03*
X057802Y005831D03*
X057802Y005826D03*
X057802Y005823D03*
X057802Y005821D03*
X057802Y005818D03*
X057802Y005816D03*
X057802Y005813D03*
X057802Y005811D03*
X057802Y005808D03*
X057804Y005791D03*
X057804Y005788D03*
X057804Y005786D03*
X057804Y005783D03*
X057804Y005781D03*
X057804Y005778D03*
X057804Y005776D03*
X057804Y005773D03*
X057804Y005761D03*
X057804Y005758D03*
X057807Y005753D03*
X057807Y005751D03*
X057807Y005678D03*
X057807Y005676D03*
X057807Y005673D03*
X057807Y005638D03*
X057809Y005636D03*
X057809Y005568D03*
X057812Y005558D03*
X057812Y005556D03*
X057809Y005551D03*
X057812Y005546D03*
X057809Y005538D03*
X057809Y005496D03*
X057809Y005493D03*
X057809Y005491D03*
X057807Y005461D03*
X057807Y005458D03*
X057807Y005456D03*
X057804Y005411D03*
X057799Y005383D03*
X057799Y005381D03*
X057799Y005378D03*
X057799Y005376D03*
X057799Y005371D03*
X057799Y005368D03*
X057797Y005358D03*
X057794Y005328D03*
X057794Y005326D03*
X057794Y005323D03*
X057794Y005321D03*
X057789Y005253D03*
X057787Y005243D03*
X057787Y005241D03*
X057787Y005238D03*
X057787Y005236D03*
X057782Y005223D03*
X057782Y005221D03*
X057782Y005218D03*
X057782Y005198D03*
X057779Y005191D03*
X057779Y005188D03*
X057779Y005186D03*
X057779Y005183D03*
X057779Y005181D03*
X057774Y005158D03*
X057772Y005148D03*
X057772Y005146D03*
X057769Y005133D03*
X057769Y005131D03*
X057769Y005126D03*
X057769Y005123D03*
X057767Y005111D03*
X057767Y005108D03*
X057767Y005106D03*
X057762Y005093D03*
X057762Y005091D03*
X057762Y005088D03*
X057759Y005086D03*
X057759Y005083D03*
X057759Y005081D03*
X057757Y005066D03*
X057757Y005063D03*
X057757Y005061D03*
X057757Y005058D03*
X057754Y005056D03*
X057754Y005053D03*
X057754Y005051D03*
X057752Y005043D03*
X057752Y005041D03*
X057749Y005036D03*
X057749Y005033D03*
X057749Y005031D03*
X057749Y005028D03*
X057747Y005023D03*
X057747Y005021D03*
X057747Y005018D03*
X057742Y005006D03*
X057742Y005003D03*
X057742Y005001D03*
X057737Y004988D03*
X057732Y004968D03*
X057729Y004953D03*
X057717Y004911D03*
X057717Y004908D03*
X057714Y004901D03*
X057712Y004896D03*
X057709Y004883D03*
X057707Y004881D03*
X057707Y004878D03*
X057704Y004876D03*
X057689Y004826D03*
X057687Y004823D03*
X057684Y004821D03*
X057684Y004818D03*
X057679Y004801D03*
X057677Y004798D03*
X057677Y004796D03*
X057677Y004793D03*
X057677Y004791D03*
X057672Y004783D03*
X057664Y004758D03*
X057662Y004756D03*
X057659Y004753D03*
X057659Y004751D03*
X057659Y004748D03*
X057659Y004746D03*
X057649Y004728D03*
X057649Y004726D03*
X057647Y004718D03*
X057647Y004716D03*
X057644Y004713D03*
X057644Y004711D03*
X057644Y004708D03*
X057642Y004706D03*
X057642Y004703D03*
X057642Y004701D03*
X057639Y004698D03*
X057637Y004693D03*
X057637Y004691D03*
X057634Y004683D03*
X057632Y004678D03*
X057614Y004651D03*
X057612Y004648D03*
X057609Y004641D03*
X057602Y004623D03*
X057602Y004621D03*
X057162Y004036D03*
X057159Y004033D03*
X057137Y004018D03*
X056807Y003858D03*
X057752Y006213D03*
X057752Y006216D03*
D79*
X056594Y003861D03*
D80*
X056593Y003863D03*
D81*
X056811Y003863D03*
X057116Y003996D03*
X057121Y003998D03*
X056243Y004498D03*
X056248Y004531D03*
X056248Y004533D03*
X056248Y004536D03*
X056253Y004591D03*
X056261Y004626D03*
X056261Y004628D03*
X056261Y004631D03*
X056276Y004703D03*
X056281Y004718D03*
X056291Y004746D03*
X056291Y004748D03*
X056291Y004751D03*
X056301Y004778D03*
X056301Y004786D03*
X056301Y004788D03*
X056301Y004791D03*
X056303Y004793D03*
X056311Y004818D03*
X056313Y004826D03*
X056313Y004828D03*
X056338Y004886D03*
X056371Y004963D03*
X056371Y004966D03*
X056373Y004968D03*
X056381Y004988D03*
X056388Y005008D03*
X056391Y005013D03*
X056406Y005038D03*
X056406Y005041D03*
X056413Y005051D03*
X056413Y005053D03*
X056431Y005088D03*
X056433Y005091D03*
X056478Y005178D03*
X056481Y005181D03*
X056516Y005233D03*
X056518Y005238D03*
X056523Y005246D03*
X056533Y005261D03*
X056536Y005263D03*
X056541Y005268D03*
X058008Y005621D03*
X058006Y005636D03*
X058006Y005638D03*
X058006Y005641D03*
X058006Y005643D03*
X058003Y005646D03*
X058003Y005648D03*
X058003Y005651D03*
X058003Y005653D03*
X058001Y005678D03*
X058001Y005721D03*
X058001Y005723D03*
X058031Y005913D03*
X058031Y005916D03*
X058046Y005963D03*
X058051Y005973D03*
X058051Y005976D03*
X058051Y005978D03*
X058051Y005981D03*
X058053Y005986D03*
X058056Y005988D03*
X058056Y005991D03*
X058058Y005996D03*
X058248Y006103D03*
X058578Y005683D03*
X058578Y005681D03*
X058581Y005676D03*
X058581Y005673D03*
X058586Y005658D03*
X058591Y005648D03*
X058591Y005646D03*
X058591Y005643D03*
X058598Y005631D03*
X058598Y005628D03*
X058601Y005626D03*
X058606Y005618D03*
X058608Y005616D03*
X059096Y005691D03*
X059096Y005693D03*
X059098Y005698D03*
X060356Y006168D03*
X060551Y005588D03*
X060551Y005586D03*
X057513Y006871D03*
X057511Y006876D03*
X057508Y006878D03*
X057508Y006881D03*
X057506Y006883D03*
X057503Y006888D03*
X057501Y006893D03*
X057498Y006896D03*
X057498Y006898D03*
X057496Y006901D03*
X057496Y006903D03*
X057486Y006916D03*
X057486Y006918D03*
X057476Y006931D03*
X057473Y006936D03*
X057471Y006943D03*
X057468Y006946D03*
X057466Y006951D03*
X057463Y006953D03*
X057461Y006958D03*
X057458Y006963D03*
X057456Y006966D03*
X057451Y006973D03*
X057448Y006981D03*
D82*
X057116Y007346D03*
X058268Y006078D03*
X059156Y005991D03*
X059656Y006028D03*
X060556Y005576D03*
X057578Y004598D03*
X057571Y004578D03*
X057576Y004576D03*
X057536Y004521D03*
X057528Y004498D03*
X057523Y004496D03*
X057511Y004471D03*
X057511Y004468D03*
X057326Y004208D03*
X057186Y004066D03*
X056961Y003926D03*
X056896Y003863D03*
X056638Y005416D03*
X056638Y005418D03*
D83*
X056674Y003866D03*
D84*
X056604Y003868D03*
X059854Y006433D03*
X059872Y006438D03*
D85*
X056643Y003871D03*
D86*
X056577Y003873D03*
X059547Y006358D03*
D87*
X056662Y003876D03*
D88*
X056542Y003878D03*
X059957Y006456D03*
D89*
X060168Y005998D03*
X060436Y005821D03*
X060451Y005806D03*
X060456Y005803D03*
X060458Y005801D03*
X060491Y005776D03*
X060496Y005773D03*
X060506Y005766D03*
X059691Y005816D03*
X059298Y005641D03*
X059153Y005841D03*
X059153Y005843D03*
X059153Y005846D03*
X059153Y005848D03*
X059156Y005858D03*
X059156Y005861D03*
X058528Y005776D03*
X059031Y005603D03*
X056848Y003878D03*
X056391Y003946D03*
X057123Y007321D03*
D90*
X060021Y006473D03*
X060071Y006486D03*
X058183Y005508D03*
X056526Y003881D03*
D91*
X056363Y003973D03*
X056363Y003976D03*
X056356Y003981D03*
X056348Y003988D03*
X056853Y003881D03*
X058048Y005566D03*
X058338Y005561D03*
X058531Y005806D03*
X059028Y005596D03*
X059281Y005653D03*
X059151Y005898D03*
X059151Y005901D03*
X059151Y005903D03*
X059678Y005823D03*
X059681Y005821D03*
X059758Y005753D03*
X060146Y006018D03*
X060153Y006013D03*
X060341Y006153D03*
X060548Y005728D03*
X057246Y007228D03*
X057243Y007231D03*
X057223Y007246D03*
D92*
X059473Y006328D03*
X056506Y003883D03*
D93*
X056321Y004028D03*
X056321Y004031D03*
X056318Y004033D03*
X056318Y004036D03*
X056313Y004043D03*
X056856Y003883D03*
X056916Y003898D03*
X058036Y005576D03*
X058381Y005593D03*
X058388Y005601D03*
X058391Y005603D03*
X058403Y005613D03*
X058406Y005616D03*
X058408Y005621D03*
X058538Y005861D03*
X058538Y005863D03*
X058538Y005866D03*
X058536Y005871D03*
X058536Y005873D03*
X058848Y006071D03*
X058848Y006073D03*
X058848Y006076D03*
X058848Y006078D03*
X059146Y005948D03*
X058943Y005696D03*
X058943Y005693D03*
X058946Y005691D03*
X059653Y005848D03*
X060571Y005693D03*
X060578Y005631D03*
X060573Y005626D03*
X060551Y005596D03*
X058116Y006103D03*
X057298Y007176D03*
X057296Y007181D03*
X057293Y007183D03*
X057288Y007188D03*
X057286Y007191D03*
D94*
X057256Y007221D03*
X057253Y007223D03*
X060141Y006031D03*
X060141Y006028D03*
X060141Y006026D03*
X060143Y006023D03*
X060143Y006021D03*
X060343Y006156D03*
X059673Y005826D03*
X060556Y005718D03*
X060556Y005716D03*
X060556Y005713D03*
X060558Y005611D03*
X060553Y005606D03*
X060553Y005603D03*
X058533Y005821D03*
X058533Y005823D03*
X058533Y005826D03*
X056346Y003996D03*
X056346Y003993D03*
X056348Y003991D03*
X056343Y003998D03*
X056353Y003983D03*
X056863Y003886D03*
D95*
X056493Y003888D03*
X059018Y005656D03*
X059173Y005726D03*
X058178Y006116D03*
X058178Y006118D03*
D96*
X058107Y006096D03*
X058537Y005921D03*
X058537Y005918D03*
X058537Y005916D03*
X058537Y005913D03*
X058537Y005898D03*
X058537Y005896D03*
X058537Y005893D03*
X058442Y005663D03*
X058429Y005646D03*
X058427Y005643D03*
X058424Y005641D03*
X058422Y005638D03*
X058419Y005633D03*
X058642Y005576D03*
X058652Y005563D03*
X058652Y005561D03*
X058654Y005556D03*
X058929Y005716D03*
X058927Y005726D03*
X058924Y005736D03*
X058914Y005758D03*
X058939Y005701D03*
X058864Y006006D03*
X058864Y006008D03*
X058859Y006028D03*
X058859Y006031D03*
X058859Y006033D03*
X058859Y006036D03*
X058857Y006041D03*
X058857Y006043D03*
X058854Y006046D03*
X058854Y006048D03*
X058854Y006051D03*
X058854Y006053D03*
X058854Y006056D03*
X058854Y006058D03*
X059147Y005956D03*
X059634Y005883D03*
X059637Y005878D03*
X059637Y005876D03*
X059639Y005873D03*
X059639Y005871D03*
X059642Y005868D03*
X060577Y005681D03*
X060582Y005676D03*
X060582Y005673D03*
X060584Y005658D03*
X060584Y005656D03*
X060584Y005653D03*
X060582Y005638D03*
X060582Y005636D03*
X060552Y005593D03*
X059382Y005561D03*
X058032Y005581D03*
X058029Y005583D03*
X057112Y003988D03*
X056877Y003888D03*
X056299Y004073D03*
X056297Y004078D03*
X056294Y004083D03*
X056294Y004086D03*
X056292Y004088D03*
X056287Y004098D03*
X056287Y004101D03*
X056287Y004103D03*
X056277Y004126D03*
X056269Y004148D03*
X057344Y007126D03*
X057339Y007131D03*
X057334Y007138D03*
X057332Y007141D03*
X057329Y007146D03*
X057324Y007151D03*
X057312Y007166D03*
D97*
X058177Y006121D03*
X059019Y005653D03*
X059172Y005728D03*
X059172Y005731D03*
X056482Y003891D03*
D98*
X056312Y004046D03*
X056309Y004048D03*
X056309Y004051D03*
X056304Y004063D03*
X056302Y004068D03*
X056887Y003891D03*
X058034Y005578D03*
X058177Y005476D03*
X058394Y005606D03*
X058394Y005608D03*
X058399Y005611D03*
X058407Y005618D03*
X058409Y005623D03*
X058412Y005626D03*
X058649Y005566D03*
X058934Y005708D03*
X058937Y005703D03*
X058942Y005698D03*
X058947Y005688D03*
X059032Y005588D03*
X059147Y005951D03*
X058852Y006061D03*
X058849Y006068D03*
X058847Y006081D03*
X058847Y006083D03*
X058534Y005878D03*
X058534Y005876D03*
X058537Y005868D03*
X058112Y006101D03*
X059644Y005863D03*
X059647Y005856D03*
X059649Y005853D03*
X059652Y005851D03*
X060574Y005628D03*
X060412Y006583D03*
X057322Y007156D03*
X057302Y007173D03*
D99*
X059457Y006316D03*
X058184Y006138D03*
X058517Y005696D03*
X058517Y005693D03*
X059169Y005748D03*
X056474Y003893D03*
X056469Y003896D03*
D100*
X056891Y003896D03*
X056941Y003913D03*
X057143Y004023D03*
X057148Y004026D03*
X057153Y004028D03*
X057168Y004043D03*
X057591Y004596D03*
X057606Y004636D03*
X057611Y004643D03*
X057628Y004676D03*
X057631Y004681D03*
X057653Y004736D03*
X057656Y004738D03*
X057656Y004741D03*
X057658Y004743D03*
X057673Y004786D03*
X057713Y004898D03*
X057716Y004903D03*
X057716Y004906D03*
X057736Y004991D03*
X057741Y004998D03*
X057753Y005046D03*
X057753Y005048D03*
X057768Y005113D03*
X057768Y005116D03*
X057768Y005118D03*
X057768Y005121D03*
X057776Y005161D03*
X057776Y005163D03*
X057776Y005166D03*
X057778Y005171D03*
X057778Y005173D03*
X057778Y005176D03*
X057778Y005178D03*
X057781Y005193D03*
X057781Y005196D03*
X057788Y005246D03*
X057788Y005248D03*
X057788Y005251D03*
X057798Y005361D03*
X057798Y005363D03*
X057798Y005366D03*
X057811Y005541D03*
X057811Y005543D03*
X057811Y005548D03*
X057811Y005553D03*
X057808Y005671D03*
X057806Y005756D03*
X058176Y005471D03*
X058258Y006088D03*
X058853Y006118D03*
X060548Y005581D03*
D101*
X059168Y005751D03*
X059168Y005753D03*
X059168Y005756D03*
X059168Y005758D03*
X059021Y005638D03*
X058178Y005488D03*
X058186Y006141D03*
X060291Y006546D03*
X056466Y003898D03*
D102*
X056461Y003901D03*
X058518Y005701D03*
X059023Y005633D03*
X059346Y005616D03*
X059348Y005611D03*
X058186Y006143D03*
X057166Y007273D03*
D103*
X057359Y007106D03*
X057367Y007096D03*
X057369Y007091D03*
X057397Y007056D03*
X057399Y007053D03*
X058102Y006086D03*
X058097Y006078D03*
X058097Y006076D03*
X058092Y006068D03*
X058532Y006046D03*
X058532Y006043D03*
X058532Y006041D03*
X058532Y006038D03*
X058534Y006051D03*
X058534Y006053D03*
X058534Y006056D03*
X058534Y006058D03*
X058532Y006021D03*
X058532Y006003D03*
X058534Y006001D03*
X058534Y005998D03*
X058534Y005996D03*
X058534Y005993D03*
X058534Y005991D03*
X058534Y005988D03*
X058534Y005973D03*
X058534Y005971D03*
X058534Y005968D03*
X058534Y005966D03*
X058537Y005953D03*
X058537Y005951D03*
X058537Y005948D03*
X058537Y005936D03*
X058537Y005933D03*
X058537Y005908D03*
X058537Y005906D03*
X058869Y005976D03*
X058872Y005966D03*
X058874Y005961D03*
X058874Y005958D03*
X058874Y005956D03*
X058874Y005953D03*
X058874Y005951D03*
X058874Y005948D03*
X058874Y005946D03*
X058877Y005941D03*
X058877Y005938D03*
X058879Y005936D03*
X058879Y005933D03*
X058879Y005931D03*
X058879Y005928D03*
X058882Y005916D03*
X058867Y005988D03*
X058867Y005991D03*
X058862Y006018D03*
X058862Y006021D03*
X058847Y006098D03*
X059147Y005961D03*
X058904Y005801D03*
X058904Y005798D03*
X058904Y005796D03*
X058904Y005793D03*
X058909Y005773D03*
X058914Y005766D03*
X058914Y005763D03*
X058917Y005756D03*
X058917Y005753D03*
X058917Y005751D03*
X058919Y005748D03*
X058919Y005746D03*
X058919Y005743D03*
X058919Y005741D03*
X059032Y005586D03*
X058657Y005551D03*
X058627Y005588D03*
X059767Y005741D03*
X059632Y005888D03*
X059629Y005896D03*
X059629Y005898D03*
X059629Y005901D03*
X059629Y005913D03*
X059629Y005916D03*
X059629Y005918D03*
X059629Y005921D03*
X059634Y005963D03*
X059634Y005966D03*
X059639Y005978D03*
X059639Y005981D03*
X059639Y005983D03*
X060349Y006163D03*
X060584Y005666D03*
X060584Y005663D03*
X060582Y005646D03*
X056244Y004276D03*
X056244Y004263D03*
X056247Y004261D03*
X056247Y004258D03*
X056249Y004256D03*
X056249Y004253D03*
X056252Y004218D03*
X056254Y004208D03*
X056254Y004206D03*
X056257Y004203D03*
X056262Y004178D03*
X056264Y004173D03*
X056264Y004171D03*
X056264Y004168D03*
X056264Y004166D03*
X056267Y004163D03*
X056269Y004156D03*
X056269Y004153D03*
X056272Y004146D03*
X056272Y004143D03*
X056272Y004141D03*
X056272Y004138D03*
X056282Y004116D03*
X056284Y004111D03*
X056914Y003901D03*
X057094Y003978D03*
D104*
X056454Y003903D03*
X058517Y005703D03*
X059167Y005763D03*
X059167Y005766D03*
X059167Y005768D03*
X059342Y005618D03*
X059347Y005613D03*
X058184Y006146D03*
X057172Y007268D03*
X057167Y007271D03*
X057159Y007278D03*
X057154Y007281D03*
D105*
X057363Y007101D03*
X057376Y007083D03*
X057383Y007076D03*
X057388Y007068D03*
X057391Y007066D03*
X057393Y007063D03*
X057393Y007061D03*
X057396Y007058D03*
X057401Y007051D03*
X058191Y006186D03*
X058101Y006083D03*
X058096Y006073D03*
X058093Y006071D03*
X058091Y006066D03*
X058088Y006063D03*
X058088Y006061D03*
X058081Y006051D03*
X058533Y006048D03*
X058533Y006036D03*
X058533Y006033D03*
X058533Y006031D03*
X058533Y006028D03*
X058533Y006018D03*
X058533Y006016D03*
X058533Y006013D03*
X058533Y006011D03*
X058533Y006008D03*
X058533Y006006D03*
X058533Y005986D03*
X058533Y005983D03*
X058533Y005981D03*
X058533Y005978D03*
X058533Y005976D03*
X058536Y005963D03*
X058536Y005961D03*
X058536Y005958D03*
X058536Y005956D03*
X058536Y005946D03*
X058536Y005943D03*
X058536Y005941D03*
X058536Y005938D03*
X058533Y006061D03*
X058533Y006063D03*
X058533Y006066D03*
X058881Y005926D03*
X058881Y005923D03*
X058881Y005921D03*
X058881Y005918D03*
X058883Y005913D03*
X058883Y005911D03*
X058883Y005908D03*
X058883Y005906D03*
X058883Y005903D03*
X058886Y005901D03*
X058886Y005898D03*
X058886Y005896D03*
X058886Y005893D03*
X058886Y005891D03*
X058886Y005888D03*
X058886Y005886D03*
X058886Y005883D03*
X058888Y005876D03*
X058891Y005863D03*
X058891Y005861D03*
X058891Y005858D03*
X058893Y005853D03*
X058893Y005851D03*
X058896Y005843D03*
X058896Y005841D03*
X058901Y005823D03*
X058901Y005821D03*
X058901Y005818D03*
X058901Y005816D03*
X058901Y005813D03*
X058903Y005806D03*
X058903Y005803D03*
X058906Y005791D03*
X058906Y005788D03*
X058911Y005778D03*
X058911Y005776D03*
X059148Y005963D03*
X059628Y005933D03*
X059628Y005931D03*
X059628Y005928D03*
X059628Y005926D03*
X059628Y005923D03*
X059628Y005911D03*
X059628Y005908D03*
X059628Y005906D03*
X059628Y005903D03*
X059631Y005893D03*
X059631Y005891D03*
X059631Y005938D03*
X059631Y005941D03*
X059631Y005943D03*
X059631Y005946D03*
X059631Y005948D03*
X059631Y005951D03*
X059633Y005953D03*
X059633Y005956D03*
X059633Y005958D03*
X059633Y005961D03*
X059636Y005968D03*
X059636Y005971D03*
X059638Y005976D03*
X059641Y005986D03*
X059641Y005988D03*
X059641Y005991D03*
X059641Y005993D03*
X059386Y005558D03*
X058668Y005541D03*
X058663Y005543D03*
X058661Y005546D03*
X058661Y005548D03*
X058618Y005598D03*
X058616Y005603D03*
X058453Y005678D03*
X056261Y004648D03*
X056261Y004646D03*
X056261Y004643D03*
X056261Y004641D03*
X056238Y004368D03*
X056238Y004366D03*
X056238Y004363D03*
X056241Y004326D03*
X056246Y004283D03*
X056246Y004281D03*
X056246Y004278D03*
X056246Y004273D03*
X056246Y004271D03*
X056246Y004268D03*
X056246Y004266D03*
X056248Y004251D03*
X056248Y004248D03*
X056248Y004246D03*
X056248Y004243D03*
X056251Y004238D03*
X056251Y004236D03*
X056251Y004233D03*
X056251Y004231D03*
X056253Y004226D03*
X056253Y004223D03*
X056253Y004221D03*
X056253Y004216D03*
X056253Y004213D03*
X056253Y004211D03*
X056258Y004201D03*
X056258Y004198D03*
X056261Y004191D03*
X056261Y004188D03*
X056261Y004186D03*
X056261Y004183D03*
X056261Y004181D03*
X056263Y004176D03*
X056283Y004113D03*
X056923Y003903D03*
D106*
X056452Y003906D03*
X059357Y005598D03*
X059164Y005778D03*
X059164Y005781D03*
X059722Y005801D03*
X059724Y005798D03*
X058519Y005713D03*
X058184Y006151D03*
X060264Y006101D03*
X060269Y006106D03*
X060279Y006111D03*
X057139Y007296D03*
D107*
X057516Y006866D03*
X057518Y006861D03*
X057521Y006853D03*
X057523Y006851D03*
X057526Y006848D03*
X057526Y006846D03*
X057528Y006841D03*
X057531Y006838D03*
X057533Y006833D03*
X057533Y006831D03*
X057536Y006828D03*
X057538Y006823D03*
X057541Y006818D03*
X057553Y006793D03*
X057556Y006791D03*
X057558Y006786D03*
X057593Y006711D03*
X058251Y006098D03*
X058041Y005953D03*
X058041Y005951D03*
X058038Y005943D03*
X058038Y005941D03*
X058038Y005938D03*
X058036Y005931D03*
X058036Y005928D03*
X058033Y005923D03*
X058033Y005921D03*
X058028Y005908D03*
X058028Y005906D03*
X058028Y005903D03*
X058028Y005901D03*
X058026Y005896D03*
X058026Y005893D03*
X058023Y005888D03*
X058023Y005886D03*
X058018Y005863D03*
X058018Y005861D03*
X058018Y005858D03*
X058018Y005856D03*
X058016Y005851D03*
X058016Y005848D03*
X058016Y005846D03*
X058016Y005843D03*
X058016Y005841D03*
X058013Y005833D03*
X058013Y005831D03*
X058011Y005821D03*
X058008Y005796D03*
X058008Y005778D03*
X058008Y005776D03*
X058003Y005773D03*
X058003Y005771D03*
X058003Y005768D03*
X058003Y005766D03*
X058003Y005763D03*
X058003Y005751D03*
X058003Y005748D03*
X058001Y005736D03*
X058001Y005733D03*
X058003Y005716D03*
X058003Y005693D03*
X058003Y005691D03*
X058003Y005688D03*
X058003Y005686D03*
X058003Y005683D03*
X058003Y005681D03*
X058003Y005671D03*
X058003Y005668D03*
X058003Y005666D03*
X058003Y005663D03*
X058003Y005661D03*
X058676Y005531D03*
X059101Y005701D03*
X059101Y005703D03*
X059103Y005713D03*
X059103Y005716D03*
X059103Y005718D03*
X059103Y005721D03*
X059643Y006003D03*
X056631Y005388D03*
X056616Y005368D03*
X056596Y005341D03*
X056581Y005321D03*
X056578Y005316D03*
X056573Y005311D03*
X056573Y005308D03*
X056561Y005293D03*
X056558Y005291D03*
X056556Y005288D03*
X056551Y005281D03*
X056548Y005278D03*
X056546Y005276D03*
X056543Y005271D03*
X056521Y005241D03*
X056513Y005228D03*
X056511Y005226D03*
X056506Y005216D03*
X056488Y005188D03*
X056478Y005173D03*
X056461Y005141D03*
X056458Y005138D03*
X056458Y005136D03*
X056456Y005133D03*
X056443Y005108D03*
X056441Y005103D03*
X056441Y005101D03*
X056436Y005096D03*
X056431Y005083D03*
X056418Y005063D03*
X056416Y005058D03*
X056411Y005046D03*
X056403Y005033D03*
X056403Y005031D03*
X056401Y005028D03*
X056401Y005026D03*
X056398Y005023D03*
X056396Y005018D03*
X056396Y005016D03*
X056378Y004983D03*
X056378Y004981D03*
X056376Y004976D03*
X056376Y004973D03*
X056358Y004931D03*
X056336Y004878D03*
X056311Y004811D03*
X056298Y004773D03*
X056298Y004771D03*
X056298Y004768D03*
X056276Y004686D03*
X056273Y004683D03*
X057106Y003986D03*
X057121Y004001D03*
X056926Y003906D03*
D108*
X056447Y003908D03*
X059352Y005606D03*
X059167Y005771D03*
X059167Y005773D03*
X058519Y005711D03*
X058519Y005708D03*
X058184Y006148D03*
X059449Y006313D03*
X060277Y006108D03*
X060294Y006118D03*
X060297Y006121D03*
X060322Y006553D03*
X057177Y007266D03*
X057149Y007288D03*
X057144Y007291D03*
D109*
X057543Y006813D03*
X057546Y006808D03*
X057548Y006803D03*
X057563Y006771D03*
X057566Y006768D03*
X057573Y006753D03*
X057576Y006748D03*
X057578Y006746D03*
X057578Y006743D03*
X057581Y006738D03*
X057581Y006736D03*
X057583Y006733D03*
X057586Y006728D03*
X057586Y006726D03*
X057586Y006723D03*
X057588Y006721D03*
X057591Y006716D03*
X057591Y006713D03*
X057596Y006701D03*
X057601Y006693D03*
X057601Y006691D03*
X057603Y006686D03*
X057608Y006673D03*
X057611Y006668D03*
X057616Y006656D03*
X057618Y006651D03*
X057621Y006648D03*
X057621Y006646D03*
X057623Y006641D03*
X057631Y006628D03*
X057631Y006626D03*
X057636Y006613D03*
X057636Y006611D03*
X057636Y006608D03*
X058538Y006083D03*
X059643Y006008D03*
X059771Y005738D03*
X059388Y005553D03*
X058681Y005528D03*
X058003Y005708D03*
X058003Y005711D03*
X058008Y005788D03*
X058008Y005791D03*
X058011Y005806D03*
X058011Y005808D03*
X058011Y005811D03*
X056641Y005398D03*
X056641Y005396D03*
X056621Y005376D03*
X056618Y005373D03*
X056603Y005351D03*
X056598Y005343D03*
X056591Y005333D03*
X056586Y005328D03*
X056586Y005326D03*
X056496Y005198D03*
X056496Y005196D03*
X056478Y005168D03*
X056471Y005156D03*
X056463Y005143D03*
X056428Y005078D03*
X057141Y004016D03*
X056931Y003908D03*
D110*
X056443Y003911D03*
X058521Y005721D03*
X058521Y005723D03*
X058521Y005726D03*
X059161Y005791D03*
X059161Y005793D03*
X059161Y005796D03*
X060251Y006096D03*
D111*
X059642Y006006D03*
X059154Y005973D03*
X058537Y006078D03*
X058537Y006081D03*
X058034Y005926D03*
X058024Y005883D03*
X058024Y005881D03*
X058024Y005878D03*
X058024Y005876D03*
X058022Y005873D03*
X058022Y005871D03*
X058019Y005868D03*
X058019Y005866D03*
X058014Y005838D03*
X058014Y005836D03*
X058012Y005818D03*
X058012Y005816D03*
X058012Y005813D03*
X058009Y005803D03*
X058009Y005801D03*
X058009Y005798D03*
X058009Y005793D03*
X058007Y005786D03*
X058007Y005783D03*
X058007Y005781D03*
X058004Y005713D03*
X058002Y005706D03*
X058002Y005703D03*
X058002Y005701D03*
X058002Y005698D03*
X058002Y005696D03*
X059027Y005583D03*
X056649Y005411D03*
X056647Y005408D03*
X056647Y005406D03*
X056644Y005403D03*
X056642Y005401D03*
X056629Y005386D03*
X056627Y005383D03*
X056627Y005381D03*
X056624Y005378D03*
X056617Y005371D03*
X056609Y005358D03*
X056607Y005356D03*
X056604Y005353D03*
X056602Y005348D03*
X056599Y005346D03*
X056592Y005338D03*
X056592Y005336D03*
X056587Y005331D03*
X056584Y005323D03*
X056579Y005318D03*
X056554Y005286D03*
X056504Y005213D03*
X056484Y005183D03*
X056479Y005171D03*
X056439Y005098D03*
X056429Y005081D03*
X056427Y005076D03*
X056424Y005073D03*
X056424Y005071D03*
X056424Y005068D03*
X056422Y005066D03*
X056417Y005061D03*
X056357Y004928D03*
X057122Y004003D03*
X056944Y003911D03*
X057599Y006696D03*
X057597Y006698D03*
X057594Y006703D03*
X057594Y006706D03*
X057594Y006708D03*
X057589Y006718D03*
X057584Y006731D03*
X057579Y006741D03*
X057574Y006751D03*
X057572Y006756D03*
X057569Y006758D03*
X057569Y006761D03*
X057569Y006763D03*
X057567Y006766D03*
X057562Y006773D03*
X057562Y006776D03*
X057559Y006778D03*
X057559Y006781D03*
X057559Y006783D03*
X057557Y006788D03*
X057552Y006796D03*
X057552Y006798D03*
X057549Y006801D03*
X057547Y006806D03*
X057544Y006811D03*
X057542Y006816D03*
X057539Y006821D03*
X057537Y006826D03*
X057532Y006836D03*
X057527Y006843D03*
D112*
X058184Y006158D03*
X058522Y005733D03*
X058179Y005483D03*
X059159Y005811D03*
X059369Y005583D03*
X059729Y005786D03*
X059734Y005781D03*
X060202Y006076D03*
X060207Y006078D03*
X060212Y006081D03*
X059444Y006306D03*
X056437Y003913D03*
D113*
X056436Y003916D03*
X058306Y005551D03*
X058523Y005736D03*
X058523Y005738D03*
X058523Y005741D03*
X059028Y005613D03*
X059158Y005813D03*
X059708Y005808D03*
X059741Y005776D03*
X060233Y005951D03*
X060236Y005948D03*
X060241Y005946D03*
X060223Y006086D03*
X060236Y006091D03*
X060321Y006136D03*
X058186Y006161D03*
X057131Y007308D03*
D114*
X057136Y007306D03*
X058183Y006156D03*
X058521Y005731D03*
X058081Y005551D03*
X059028Y005616D03*
X059161Y005806D03*
X059161Y005808D03*
X059321Y005626D03*
X059323Y005623D03*
X059711Y005806D03*
X059736Y005778D03*
X060218Y006083D03*
X060243Y006093D03*
X056431Y003918D03*
D115*
X056432Y003921D03*
X056394Y003943D03*
X056389Y003948D03*
X058324Y005556D03*
X058527Y005771D03*
X058527Y005773D03*
X059154Y005851D03*
X059154Y005853D03*
X059154Y005856D03*
X059294Y005643D03*
X059299Y005638D03*
X059694Y005813D03*
X059752Y005761D03*
X060172Y005996D03*
X060177Y005991D03*
X060154Y006046D03*
X060157Y006048D03*
X060167Y006053D03*
X060329Y006146D03*
X060422Y005828D03*
X060427Y005826D03*
X060429Y005823D03*
X060442Y005813D03*
X060444Y005811D03*
X060467Y005796D03*
X060469Y005793D03*
X060474Y005791D03*
X060474Y005788D03*
X060479Y005786D03*
X058184Y006168D03*
X057207Y007256D03*
D116*
X057203Y007258D03*
X057126Y007318D03*
X060361Y006566D03*
X060163Y006051D03*
X060176Y005993D03*
X060181Y005988D03*
X060441Y005816D03*
X060463Y005798D03*
X059376Y005573D03*
X059303Y005636D03*
X058526Y005766D03*
X058526Y005768D03*
X056428Y003923D03*
X056398Y003938D03*
X056398Y003941D03*
D117*
X056411Y003933D03*
X056418Y003926D03*
X059371Y005581D03*
X059743Y005768D03*
X059743Y005771D03*
X060198Y005976D03*
X060208Y005966D03*
X060216Y005961D03*
X060221Y005958D03*
X060223Y005956D03*
X060246Y005943D03*
X060261Y005933D03*
X060271Y005928D03*
X060276Y005926D03*
X060298Y005911D03*
X060313Y005901D03*
X060331Y005891D03*
X060333Y005888D03*
X060336Y005886D03*
X060338Y005883D03*
X060358Y005871D03*
X060376Y005861D03*
X060326Y006141D03*
X059158Y005821D03*
X058523Y005746D03*
X058186Y006163D03*
D118*
X059157Y005833D03*
X059157Y005831D03*
X059157Y005828D03*
X059157Y005826D03*
X059157Y005823D03*
X059312Y005628D03*
X059027Y005608D03*
X058524Y005748D03*
X058524Y005751D03*
X059744Y005766D03*
X060187Y005983D03*
X060189Y005981D03*
X060199Y005973D03*
X060204Y005971D03*
X060207Y005968D03*
X060257Y005936D03*
X060282Y005921D03*
X060287Y005918D03*
X060292Y005916D03*
X060294Y005913D03*
X060342Y005881D03*
X060352Y005876D03*
X060354Y005873D03*
X060367Y005866D03*
X060369Y005863D03*
X060379Y005858D03*
X060382Y005856D03*
X060189Y006068D03*
X060184Y006066D03*
X057194Y007263D03*
X057127Y007313D03*
X056404Y003936D03*
X056412Y003931D03*
X056414Y003928D03*
D119*
X056963Y003928D03*
X056976Y003933D03*
X057018Y003953D03*
X057028Y003961D03*
X057068Y003966D03*
X057178Y004063D03*
X057188Y004051D03*
X057278Y004158D03*
X057333Y004223D03*
X057336Y004226D03*
X057353Y004243D03*
X057366Y004263D03*
X057478Y004423D03*
X057553Y004561D03*
X057561Y004571D03*
X056646Y005428D03*
X056646Y005431D03*
X056651Y005438D03*
X056651Y005441D03*
X056653Y005443D03*
X058268Y006073D03*
X059416Y006278D03*
X059778Y005731D03*
D120*
X059754Y005758D03*
X059379Y005571D03*
X060449Y005808D03*
X060437Y005818D03*
X060482Y005783D03*
X060487Y005781D03*
X060489Y005778D03*
X060512Y005761D03*
X060514Y005758D03*
X060532Y005743D03*
X060534Y005741D03*
X060332Y006148D03*
X060152Y006043D03*
X060367Y006568D03*
X060369Y006571D03*
X060389Y006576D03*
X059154Y005866D03*
X059154Y005863D03*
X058184Y006171D03*
X058064Y005556D03*
X058332Y005558D03*
X056387Y003951D03*
X056384Y003953D03*
X056377Y003958D03*
D121*
X056381Y003956D03*
X058061Y005558D03*
X058528Y005778D03*
X058528Y005781D03*
X058528Y005783D03*
X058528Y005786D03*
X058528Y005788D03*
X058528Y005791D03*
X059031Y005601D03*
X059153Y005868D03*
X059153Y005871D03*
X059153Y005873D03*
X059686Y005818D03*
X060166Y006001D03*
X060151Y006041D03*
X060501Y005771D03*
X060503Y005768D03*
X060511Y005763D03*
X060516Y005756D03*
X058183Y006173D03*
X057213Y007251D03*
X057211Y007253D03*
D122*
X060147Y006038D03*
X060162Y006003D03*
X060519Y005753D03*
X060522Y005751D03*
X060524Y005748D03*
X060527Y005746D03*
X059757Y005756D03*
X059382Y005568D03*
X059289Y005646D03*
X059029Y005598D03*
X058177Y005478D03*
X059152Y005876D03*
X056374Y003961D03*
D123*
X056373Y003963D03*
X056371Y003966D03*
X056368Y003968D03*
X058056Y005561D03*
X059151Y005878D03*
X059283Y005651D03*
X059286Y005648D03*
X060158Y006008D03*
X060146Y006036D03*
X059438Y006301D03*
X060386Y006573D03*
X058183Y006176D03*
X060538Y005738D03*
X060543Y005733D03*
X057231Y007241D03*
X057228Y007243D03*
X057218Y007248D03*
X057121Y007323D03*
D124*
X057234Y007238D03*
X057237Y007236D03*
X057239Y007233D03*
X060144Y006033D03*
X060157Y006011D03*
X060159Y006006D03*
X060337Y006151D03*
X060539Y005736D03*
X060544Y005731D03*
X059152Y005881D03*
X059152Y005883D03*
X059152Y005886D03*
X059152Y005888D03*
X059152Y005891D03*
X059149Y005893D03*
X059149Y005896D03*
X058532Y005803D03*
X058529Y005801D03*
X058529Y005798D03*
X058529Y005796D03*
X058529Y005793D03*
X058052Y005563D03*
X056367Y003971D03*
D125*
X057103Y003973D03*
X057136Y004013D03*
X057701Y004863D03*
X057701Y004866D03*
X057723Y004936D03*
X057791Y005281D03*
X057791Y005283D03*
X057791Y005293D03*
X057793Y005306D03*
X057796Y005331D03*
X057796Y005341D03*
X057796Y005343D03*
X057806Y005451D03*
X057806Y005453D03*
X057808Y005511D03*
X057808Y005513D03*
X057808Y005533D03*
X057798Y005871D03*
X057798Y005873D03*
X057793Y005926D03*
X057793Y005928D03*
X057793Y005931D03*
X057793Y005933D03*
X057793Y005936D03*
X057791Y005946D03*
X057791Y005956D03*
X057783Y006008D03*
X057783Y006011D03*
X057753Y006198D03*
X057743Y006256D03*
X057738Y006271D03*
X057738Y006273D03*
X057731Y006301D03*
X057731Y006303D03*
X057731Y006306D03*
X057731Y006308D03*
X057731Y006311D03*
X057721Y006343D03*
X057721Y006346D03*
X057718Y006351D03*
X057718Y006353D03*
X057718Y006356D03*
X057718Y006358D03*
X057711Y006381D03*
X057711Y006383D03*
X057708Y006391D03*
X057706Y006396D03*
X057706Y006398D03*
X057706Y006401D03*
X057706Y006403D03*
X057703Y006406D03*
X057703Y006408D03*
X057701Y006421D03*
X057698Y006423D03*
X057698Y006426D03*
X057696Y006436D03*
X057691Y006448D03*
X057691Y006451D03*
X057683Y006478D03*
X057681Y006483D03*
X057681Y006486D03*
X057676Y006503D03*
X057673Y006508D03*
X057668Y006518D03*
X057668Y006521D03*
X057666Y006523D03*
X057666Y006526D03*
X057666Y006528D03*
X057663Y006531D03*
X057663Y006533D03*
X057663Y006536D03*
X057663Y006538D03*
X057663Y006541D03*
X057661Y006543D03*
X057661Y006546D03*
X057658Y006548D03*
X057658Y006551D03*
X057653Y006566D03*
X057651Y006571D03*
X057648Y006576D03*
X057646Y006583D03*
X057641Y006598D03*
X057641Y006601D03*
X057638Y006603D03*
X057638Y006606D03*
X057633Y006616D03*
X058256Y006093D03*
X058851Y006111D03*
X059151Y005978D03*
X060363Y006176D03*
X060551Y005583D03*
X056653Y005413D03*
X056638Y005391D03*
X056503Y005206D03*
X056476Y005163D03*
X056468Y005151D03*
X056468Y005148D03*
X056468Y005146D03*
D126*
X058532Y005808D03*
X058532Y005811D03*
X058532Y005813D03*
X058532Y005816D03*
X058532Y005818D03*
X059149Y005906D03*
X059149Y005908D03*
X059149Y005911D03*
X059279Y005656D03*
X059382Y005566D03*
X060554Y005608D03*
X060559Y005613D03*
X060552Y005721D03*
X060549Y005723D03*
X060549Y005726D03*
X060149Y006016D03*
X057249Y007226D03*
X057119Y007326D03*
X056352Y003986D03*
X056359Y003978D03*
D127*
X057097Y003983D03*
X057109Y003981D03*
X057109Y003993D03*
X057139Y004011D03*
X056277Y004688D03*
X056277Y004691D03*
X056277Y004696D03*
X056277Y004698D03*
X056277Y004701D03*
X056299Y004776D03*
X056312Y004813D03*
X056312Y004816D03*
X056334Y004876D03*
X056337Y004881D03*
X056337Y004883D03*
X056359Y004933D03*
X056359Y004936D03*
X056359Y004938D03*
X056359Y004941D03*
X056359Y004943D03*
X056362Y004946D03*
X056362Y004948D03*
X056364Y004951D03*
X056367Y004953D03*
X056367Y004956D03*
X056367Y004958D03*
X056369Y004961D03*
X056374Y004971D03*
X056377Y004978D03*
X056379Y004986D03*
X056387Y005003D03*
X056387Y005006D03*
X056397Y005021D03*
X056404Y005036D03*
X056409Y005043D03*
X056412Y005048D03*
X056414Y005056D03*
X056429Y005086D03*
X056434Y005093D03*
X056442Y005106D03*
X056447Y005111D03*
X056447Y005113D03*
X056447Y005116D03*
X056454Y005131D03*
X056477Y005176D03*
X056487Y005186D03*
X056489Y005191D03*
X056507Y005218D03*
X056507Y005221D03*
X056507Y005223D03*
X056514Y005231D03*
X056522Y005243D03*
X056544Y005273D03*
X056552Y005283D03*
X056562Y005296D03*
X056562Y005298D03*
X056577Y005313D03*
X056612Y005361D03*
X056612Y005363D03*
X056612Y005366D03*
X058002Y005673D03*
X058002Y005676D03*
X058002Y005718D03*
X057999Y005726D03*
X057999Y005728D03*
X057999Y005731D03*
X058002Y005738D03*
X058002Y005741D03*
X058002Y005743D03*
X058002Y005746D03*
X058004Y005753D03*
X058004Y005756D03*
X058004Y005758D03*
X058004Y005761D03*
X058012Y005823D03*
X058012Y005826D03*
X058012Y005828D03*
X058017Y005853D03*
X058024Y005891D03*
X058027Y005898D03*
X058029Y005911D03*
X058032Y005918D03*
X058034Y005933D03*
X058037Y005936D03*
X058039Y005946D03*
X058039Y005948D03*
X058042Y005956D03*
X058044Y005958D03*
X058044Y005961D03*
X058047Y005966D03*
X058047Y005968D03*
X058047Y005971D03*
X058052Y005983D03*
X058249Y006101D03*
X058534Y006076D03*
X058847Y006108D03*
X059154Y005971D03*
X059102Y005711D03*
X059102Y005708D03*
X059102Y005706D03*
X059097Y005696D03*
X058674Y005533D03*
X058597Y005633D03*
X058594Y005636D03*
X058594Y005638D03*
X058592Y005641D03*
X058587Y005656D03*
X060357Y006171D03*
X060424Y006586D03*
X057519Y006856D03*
X057519Y006858D03*
X057517Y006863D03*
X057514Y006868D03*
X057512Y006873D03*
X057502Y006891D03*
X057494Y006906D03*
X057492Y006908D03*
X057492Y006911D03*
X057487Y006913D03*
X057474Y006933D03*
X057472Y006938D03*
X057472Y006941D03*
X057467Y006948D03*
X057462Y006956D03*
X057459Y006961D03*
X057454Y006968D03*
X057452Y006971D03*
X057112Y007338D03*
D128*
X057374Y007086D03*
X057377Y007081D03*
X057377Y007078D03*
X057384Y007073D03*
X057384Y007071D03*
X057402Y007048D03*
X057404Y007046D03*
X057404Y007043D03*
X057407Y007041D03*
X057409Y007038D03*
X057409Y007036D03*
X057412Y007033D03*
X057414Y007031D03*
X057417Y007026D03*
X057419Y007023D03*
X057422Y007018D03*
X057424Y007016D03*
X057429Y007008D03*
X058099Y006081D03*
X058084Y006058D03*
X058082Y006056D03*
X058082Y006053D03*
X058079Y006048D03*
X058077Y006046D03*
X058077Y006043D03*
X058072Y006031D03*
X058532Y006068D03*
X058532Y006071D03*
X058847Y006101D03*
X058887Y005881D03*
X058887Y005878D03*
X058889Y005873D03*
X058889Y005871D03*
X058889Y005868D03*
X058889Y005866D03*
X058892Y005856D03*
X058894Y005848D03*
X058894Y005846D03*
X058897Y005838D03*
X058899Y005828D03*
X058899Y005826D03*
X058902Y005811D03*
X058902Y005808D03*
X058907Y005786D03*
X058909Y005783D03*
X058909Y005781D03*
X058622Y005596D03*
X058624Y005591D03*
X058617Y005601D03*
X058614Y005606D03*
X058612Y005608D03*
X058457Y005686D03*
X058454Y005683D03*
X058454Y005681D03*
X058452Y005676D03*
X058449Y005673D03*
X058017Y005598D03*
X058014Y005603D03*
X058014Y005606D03*
X056527Y005256D03*
X056347Y004923D03*
X056347Y004921D03*
X056344Y004913D03*
X056344Y004911D03*
X056329Y004873D03*
X056317Y004836D03*
X056264Y004661D03*
X056262Y004653D03*
X056262Y004651D03*
X056259Y004638D03*
X056252Y004583D03*
X056252Y004581D03*
X056252Y004578D03*
X056249Y004568D03*
X056247Y004548D03*
X056242Y004511D03*
X056242Y004508D03*
X056239Y004483D03*
X056239Y004463D03*
X056239Y004461D03*
X056239Y004458D03*
X056237Y004436D03*
X056237Y004426D03*
X056237Y004413D03*
X056237Y004411D03*
X056237Y004408D03*
X056237Y004406D03*
X056237Y004403D03*
X056237Y004401D03*
X056237Y004398D03*
X056237Y004396D03*
X056237Y004393D03*
X056237Y004391D03*
X056239Y004376D03*
X056239Y004373D03*
X056239Y004371D03*
X056239Y004361D03*
X056239Y004358D03*
X056239Y004333D03*
X056239Y004331D03*
X056239Y004328D03*
X056242Y004323D03*
X056242Y004321D03*
X056242Y004318D03*
X056242Y004316D03*
X056242Y004306D03*
X056242Y004303D03*
X056242Y004301D03*
X056242Y004298D03*
X056249Y004241D03*
X056252Y004228D03*
X056259Y004196D03*
X056259Y004193D03*
X057112Y003991D03*
X060549Y005591D03*
X059629Y005936D03*
X059637Y005973D03*
D129*
X059669Y005831D03*
X059672Y005828D03*
X059759Y005751D03*
X059274Y005661D03*
X059274Y005658D03*
X059272Y005663D03*
X059267Y005666D03*
X059267Y005668D03*
X059267Y005671D03*
X059149Y005913D03*
X059149Y005916D03*
X059149Y005918D03*
X059149Y005921D03*
X058534Y005833D03*
X058534Y005831D03*
X058534Y005828D03*
X058187Y006178D03*
X058044Y005568D03*
X058342Y005563D03*
X058347Y005566D03*
X058352Y005571D03*
X058354Y005573D03*
X060344Y006158D03*
X060562Y005616D03*
X060554Y005601D03*
X056342Y004001D03*
X057262Y007216D03*
X057259Y007218D03*
D130*
X057273Y007203D03*
X057276Y007201D03*
X059428Y006296D03*
X060406Y006578D03*
X060408Y006581D03*
X059656Y005846D03*
X059661Y005838D03*
X059761Y005746D03*
X059383Y005563D03*
X059251Y005688D03*
X059246Y005696D03*
X059241Y005703D03*
X059031Y005593D03*
X058951Y005683D03*
X058951Y005686D03*
X059148Y005931D03*
X059148Y005933D03*
X058536Y005858D03*
X058536Y005856D03*
X058536Y005853D03*
X058373Y005588D03*
X058371Y005586D03*
X058366Y005581D03*
X060563Y005708D03*
X060566Y005706D03*
X060568Y005703D03*
X060568Y005701D03*
X060571Y005623D03*
X060571Y005621D03*
X056331Y004016D03*
X056326Y004018D03*
X056326Y004021D03*
X056326Y004023D03*
X056333Y004008D03*
D131*
X056324Y004026D03*
X056314Y004038D03*
X056314Y004041D03*
X058039Y005573D03*
X058367Y005583D03*
X058382Y005596D03*
X058384Y005598D03*
X059029Y005591D03*
X059232Y005713D03*
X059232Y005716D03*
X059232Y005718D03*
X059229Y005721D03*
X059234Y005711D03*
X059237Y005708D03*
X059244Y005698D03*
X059247Y005693D03*
X059249Y005691D03*
X059147Y005936D03*
X059147Y005938D03*
X059147Y005941D03*
X059147Y005943D03*
X059147Y005946D03*
X059657Y005843D03*
X059659Y005841D03*
X060569Y005698D03*
X060569Y005696D03*
X058189Y006181D03*
X057297Y007178D03*
X057292Y007186D03*
X057282Y007193D03*
X057279Y007196D03*
X057279Y007198D03*
X057117Y007331D03*
D132*
X058537Y006091D03*
X059649Y006023D03*
X060369Y006183D03*
X058682Y005523D03*
X057604Y004626D03*
X057599Y004616D03*
X057599Y004613D03*
X057594Y004608D03*
X057589Y004603D03*
X057582Y004586D03*
X057579Y004583D03*
X057162Y004038D03*
X057149Y004031D03*
D133*
X057163Y004048D03*
X057483Y004416D03*
X057488Y004426D03*
X057583Y004601D03*
X059398Y005548D03*
X060463Y006593D03*
D134*
X058859Y006123D03*
X059157Y005988D03*
X058267Y006081D03*
X059034Y005576D03*
X057522Y004488D03*
X057514Y004478D03*
X057502Y004451D03*
X057489Y004428D03*
X057174Y004056D03*
D135*
X057194Y004076D03*
X057327Y004216D03*
X057334Y004221D03*
X057502Y004461D03*
X057504Y004466D03*
X057509Y004476D03*
X057512Y004481D03*
X057519Y004493D03*
X057529Y004501D03*
X057527Y004508D03*
X057564Y004573D03*
X057572Y004591D03*
X056644Y005426D03*
X056642Y005423D03*
X056674Y005471D03*
X058692Y005518D03*
D136*
X058656Y005553D03*
X058638Y005578D03*
X058633Y005581D03*
X058633Y005583D03*
X058631Y005586D03*
X058446Y005671D03*
X058443Y005668D03*
X058443Y005666D03*
X058441Y005661D03*
X058438Y005658D03*
X058436Y005656D03*
X058436Y005653D03*
X058433Y005651D03*
X058431Y005648D03*
X058536Y005901D03*
X058536Y005903D03*
X058538Y005911D03*
X058536Y005923D03*
X058536Y005926D03*
X058536Y005928D03*
X058536Y005931D03*
X058533Y006023D03*
X058533Y006026D03*
X058858Y006038D03*
X058861Y006026D03*
X058861Y006023D03*
X058863Y006016D03*
X058863Y006013D03*
X058863Y006011D03*
X058866Y006003D03*
X058866Y006001D03*
X058866Y005998D03*
X058866Y005996D03*
X058866Y005993D03*
X058868Y005986D03*
X058868Y005983D03*
X058868Y005981D03*
X058868Y005978D03*
X058871Y005973D03*
X058871Y005971D03*
X058871Y005968D03*
X058873Y005963D03*
X058876Y005943D03*
X058913Y005771D03*
X058913Y005768D03*
X058916Y005761D03*
X058923Y005738D03*
X058928Y005723D03*
X058928Y005721D03*
X058928Y005718D03*
X059148Y005958D03*
X059633Y005886D03*
X060578Y005678D03*
X060583Y005671D03*
X060583Y005668D03*
X060586Y005661D03*
X060583Y005651D03*
X060583Y005648D03*
X060581Y005643D03*
X060581Y005641D03*
X059423Y006293D03*
X058191Y006183D03*
X058106Y006093D03*
X058103Y006091D03*
X058103Y006088D03*
X058021Y005596D03*
X058021Y005593D03*
X058023Y005591D03*
X058026Y005588D03*
X058028Y005586D03*
X056268Y004161D03*
X056268Y004158D03*
X056268Y004151D03*
X056273Y004136D03*
X056273Y004133D03*
X056273Y004131D03*
X056276Y004128D03*
X056278Y004123D03*
X056278Y004121D03*
X056278Y004118D03*
X056286Y004108D03*
X056286Y004106D03*
X056288Y004096D03*
X056296Y004081D03*
X057371Y007088D03*
X057368Y007093D03*
X057366Y007098D03*
X057361Y007103D03*
X057358Y007108D03*
X057356Y007111D03*
X057356Y007113D03*
X057353Y007116D03*
X057351Y007118D03*
X057348Y007121D03*
X057346Y007123D03*
X057343Y007128D03*
X057338Y007133D03*
X057336Y007136D03*
D137*
X057416Y007028D03*
X057421Y007021D03*
X057426Y007013D03*
X057428Y007011D03*
X057431Y007006D03*
X057433Y007001D03*
X057436Y006998D03*
X057438Y006996D03*
X057113Y007336D03*
X058076Y006041D03*
X058076Y006038D03*
X058076Y006036D03*
X058073Y006033D03*
X058071Y006028D03*
X058071Y006026D03*
X058068Y006023D03*
X058061Y006001D03*
X058011Y005616D03*
X058013Y005611D03*
X058013Y005608D03*
X058016Y005601D03*
X058181Y005473D03*
X058583Y005663D03*
X058583Y005666D03*
X058583Y005668D03*
X058591Y005651D03*
X058611Y005613D03*
X058611Y005611D03*
X058623Y005593D03*
X058671Y005538D03*
X059093Y005688D03*
X058898Y005831D03*
X058898Y005833D03*
X058898Y005836D03*
X059151Y005966D03*
X059641Y005996D03*
X059641Y005998D03*
X058533Y006073D03*
X056566Y005303D03*
X056526Y005253D03*
X056523Y005248D03*
X056448Y005126D03*
X056448Y005123D03*
X056383Y004998D03*
X056381Y004996D03*
X056381Y004993D03*
X056351Y004926D03*
X056346Y004918D03*
X056346Y004916D03*
X056341Y004908D03*
X056341Y004906D03*
X056341Y004903D03*
X056341Y004901D03*
X056341Y004898D03*
X056338Y004893D03*
X056338Y004891D03*
X056328Y004871D03*
X056326Y004858D03*
X056323Y004856D03*
X056323Y004853D03*
X056318Y004848D03*
X056318Y004846D03*
X056318Y004843D03*
X056318Y004841D03*
X056318Y004838D03*
X056316Y004833D03*
X056306Y004808D03*
X056298Y004783D03*
X056291Y004766D03*
X056291Y004763D03*
X056291Y004761D03*
X056291Y004758D03*
X056288Y004743D03*
X056283Y004728D03*
X056268Y004676D03*
X056266Y004666D03*
X056266Y004663D03*
X056263Y004658D03*
X056263Y004656D03*
X056261Y004636D03*
X056261Y004633D03*
X056258Y004621D03*
X056258Y004618D03*
X056258Y004616D03*
X056258Y004613D03*
X056258Y004611D03*
X056256Y004608D03*
X056253Y004603D03*
X056253Y004601D03*
X056253Y004598D03*
X056253Y004596D03*
X056253Y004593D03*
X056251Y004586D03*
X056251Y004576D03*
X056251Y004573D03*
X056251Y004571D03*
X056251Y004566D03*
X056248Y004556D03*
X056248Y004553D03*
X056248Y004551D03*
X056243Y004521D03*
X056243Y004518D03*
X056243Y004516D03*
X056243Y004513D03*
X056241Y004493D03*
X056241Y004491D03*
X056241Y004488D03*
X056241Y004486D03*
X056241Y004481D03*
X056241Y004478D03*
X056241Y004476D03*
X056238Y004473D03*
X056238Y004471D03*
X056238Y004468D03*
X056238Y004466D03*
X056241Y004456D03*
X056241Y004453D03*
X056241Y004451D03*
X056238Y004433D03*
X056238Y004431D03*
X056238Y004428D03*
X056238Y004423D03*
X056238Y004421D03*
X056238Y004418D03*
X056238Y004416D03*
X056238Y004388D03*
X056238Y004386D03*
X056241Y004378D03*
X056241Y004356D03*
X056241Y004336D03*
X056243Y004313D03*
X056243Y004311D03*
X056243Y004308D03*
X056243Y004296D03*
X056246Y004288D03*
X056246Y004286D03*
D138*
X056244Y004291D03*
X056244Y004293D03*
X056242Y004338D03*
X056242Y004341D03*
X056242Y004343D03*
X056242Y004346D03*
X056242Y004348D03*
X056242Y004351D03*
X056242Y004353D03*
X056239Y004381D03*
X056239Y004383D03*
X056239Y004438D03*
X056239Y004441D03*
X056242Y004443D03*
X056242Y004446D03*
X056242Y004448D03*
X056242Y004496D03*
X056244Y004501D03*
X056244Y004503D03*
X056244Y004506D03*
X056244Y004523D03*
X056244Y004526D03*
X056247Y004528D03*
X056247Y004538D03*
X056247Y004541D03*
X056247Y004543D03*
X056247Y004546D03*
X056249Y004558D03*
X056249Y004561D03*
X056249Y004563D03*
X056252Y004588D03*
X056254Y004606D03*
X056259Y004623D03*
X056267Y004668D03*
X056267Y004671D03*
X056267Y004673D03*
X056269Y004678D03*
X056269Y004681D03*
X056274Y004693D03*
X056277Y004706D03*
X056277Y004708D03*
X056277Y004711D03*
X056277Y004713D03*
X056279Y004716D03*
X056282Y004721D03*
X056282Y004723D03*
X056282Y004726D03*
X056284Y004731D03*
X056284Y004733D03*
X056284Y004736D03*
X056287Y004738D03*
X056287Y004741D03*
X056289Y004753D03*
X056289Y004756D03*
X056299Y004781D03*
X056304Y004796D03*
X056304Y004798D03*
X056304Y004801D03*
X056304Y004803D03*
X056304Y004806D03*
X056312Y004821D03*
X056312Y004823D03*
X056314Y004831D03*
X056322Y004851D03*
X056327Y004861D03*
X056327Y004863D03*
X056327Y004866D03*
X056327Y004868D03*
X056337Y004888D03*
X056339Y004896D03*
X056379Y004991D03*
X056384Y005001D03*
X056389Y005011D03*
X056447Y005118D03*
X056447Y005121D03*
X056449Y005128D03*
X056517Y005236D03*
X056524Y005251D03*
X056529Y005258D03*
X056537Y005266D03*
X056564Y005301D03*
X056567Y005306D03*
X058007Y005623D03*
X058007Y005626D03*
X058007Y005628D03*
X058007Y005631D03*
X058007Y005633D03*
X058009Y005618D03*
X058012Y005613D03*
X058002Y005656D03*
X058002Y005658D03*
X058057Y005993D03*
X058059Y005998D03*
X058062Y006003D03*
X058062Y006006D03*
X058062Y006008D03*
X058062Y006011D03*
X058062Y006013D03*
X058064Y006016D03*
X058067Y006018D03*
X058067Y006021D03*
X058192Y006188D03*
X058847Y006106D03*
X058847Y006103D03*
X059152Y005968D03*
X059092Y005686D03*
X059092Y005683D03*
X059092Y005681D03*
X059387Y005556D03*
X058672Y005536D03*
X058604Y005621D03*
X058602Y005623D03*
X058589Y005653D03*
X058584Y005661D03*
X058582Y005671D03*
X058579Y005678D03*
X058577Y005686D03*
X059642Y006001D03*
X060354Y006166D03*
X059419Y006291D03*
X057504Y006886D03*
X057484Y006921D03*
X057484Y006923D03*
X057482Y006926D03*
X057479Y006928D03*
X057449Y006976D03*
X057449Y006978D03*
X057447Y006983D03*
X057444Y006986D03*
X057444Y006988D03*
X057442Y006991D03*
X057439Y006993D03*
X057432Y007003D03*
D139*
X057603Y004631D03*
X057581Y004588D03*
X057546Y004526D03*
D140*
X056474Y005161D03*
X056472Y005158D03*
X056469Y005153D03*
X056477Y005166D03*
X056494Y005193D03*
X056499Y005201D03*
X056502Y005203D03*
X056504Y005208D03*
X056504Y005211D03*
X056639Y005393D03*
X057804Y005843D03*
X058254Y006096D03*
X059152Y005976D03*
X059644Y006011D03*
X060362Y006173D03*
X059417Y006288D03*
X057682Y006481D03*
X057669Y006511D03*
X057669Y006513D03*
X057669Y006516D03*
X057652Y006568D03*
X057649Y006573D03*
X057647Y006578D03*
X057647Y006581D03*
X057644Y006586D03*
X057644Y006588D03*
X057644Y006591D03*
X057642Y006593D03*
X057642Y006596D03*
X057632Y006618D03*
X057632Y006621D03*
X057632Y006623D03*
X057629Y006631D03*
X057627Y006633D03*
X057624Y006636D03*
X057624Y006638D03*
X057622Y006643D03*
X057617Y006653D03*
X057614Y006658D03*
X057614Y006661D03*
X057614Y006663D03*
X057614Y006666D03*
X057609Y006671D03*
X057607Y006676D03*
X057607Y006678D03*
X057604Y006681D03*
X057604Y006683D03*
X057602Y006688D03*
X058682Y005526D03*
X059029Y005581D03*
D141*
X059027Y005611D03*
X059159Y005816D03*
X059159Y005818D03*
X059742Y005773D03*
X060214Y005963D03*
X060227Y005953D03*
X060249Y005941D03*
X060252Y005938D03*
X060264Y005931D03*
X060277Y005923D03*
X060199Y006073D03*
X060194Y006071D03*
X060229Y006088D03*
X060322Y006138D03*
X058524Y005743D03*
X058177Y005481D03*
X057129Y007311D03*
D142*
X057143Y007293D03*
X060331Y006558D03*
X060308Y006128D03*
X060268Y006103D03*
X059166Y005776D03*
X059023Y005628D03*
X059023Y005626D03*
X059353Y005603D03*
X059353Y005601D03*
X058178Y005486D03*
D143*
X058177Y005491D03*
X059019Y005648D03*
X058179Y006126D03*
D144*
X059017Y005676D03*
X058179Y005496D03*
D145*
X058181Y005498D03*
D146*
X058181Y005501D03*
X060206Y006521D03*
X060226Y006526D03*
X060248Y006531D03*
D147*
X060144Y006503D03*
X058182Y005503D03*
D148*
X058183Y005506D03*
X060008Y006471D03*
X060048Y006481D03*
D149*
X059979Y006461D03*
X058182Y005511D03*
D150*
X058186Y005513D03*
X059936Y006451D03*
D151*
X059941Y006453D03*
X058186Y005516D03*
D152*
X058186Y005518D03*
X059883Y006441D03*
D153*
X058187Y005521D03*
D154*
X058187Y005523D03*
D155*
X058189Y005526D03*
D156*
X058189Y005528D03*
X059529Y006351D03*
X059847Y006431D03*
D157*
X059819Y006426D03*
X058189Y005531D03*
D158*
X058189Y005533D03*
X059537Y006353D03*
D159*
X058191Y005536D03*
D160*
X058188Y005538D03*
D161*
X058188Y005541D03*
D162*
X058191Y005543D03*
X059776Y006418D03*
D163*
X058192Y005546D03*
D164*
X058192Y005548D03*
X059577Y006368D03*
D165*
X060171Y006056D03*
X060181Y006063D03*
X060193Y005978D03*
X060311Y005903D03*
X060318Y005898D03*
X060323Y005896D03*
X060326Y005893D03*
X060348Y005878D03*
X060361Y005868D03*
X060383Y005853D03*
X059746Y005763D03*
X059701Y005811D03*
X059373Y005578D03*
X058526Y005753D03*
X058526Y005756D03*
X058526Y005758D03*
X058526Y005761D03*
X058073Y005553D03*
X059156Y005836D03*
X059156Y005838D03*
X058188Y006166D03*
X057126Y007316D03*
D166*
X057199Y007261D03*
X059439Y006303D03*
X060177Y006058D03*
X060179Y006061D03*
X060184Y005986D03*
X060302Y005908D03*
X060307Y005906D03*
X060387Y005851D03*
X060392Y005848D03*
X060394Y005846D03*
X060397Y005843D03*
X060404Y005841D03*
X060407Y005838D03*
X060409Y005836D03*
X060414Y005833D03*
X060417Y005831D03*
X060327Y006143D03*
X059309Y005631D03*
X059307Y005633D03*
X059374Y005576D03*
X059027Y005606D03*
X058524Y005763D03*
X058317Y005553D03*
D167*
X058519Y005728D03*
X059027Y005618D03*
X059162Y005798D03*
X059162Y005801D03*
X059162Y005803D03*
X059362Y005591D03*
X059364Y005588D03*
X059367Y005586D03*
X059727Y005788D03*
X059727Y005791D03*
X059732Y005783D03*
X060252Y006098D03*
X059447Y006308D03*
X057137Y007301D03*
X057137Y007303D03*
D168*
X060339Y006561D03*
X060347Y006563D03*
X059447Y006311D03*
X060287Y006116D03*
X060314Y006131D03*
X060314Y006133D03*
X059724Y005793D03*
X059717Y005803D03*
X059359Y005593D03*
X059332Y005621D03*
X059162Y005788D03*
X059024Y005621D03*
X058184Y006153D03*
D169*
X058521Y005718D03*
X058521Y005716D03*
X059023Y005623D03*
X059163Y005783D03*
X059163Y005786D03*
X059358Y005596D03*
X059726Y005796D03*
X060283Y006113D03*
X060303Y006123D03*
X060306Y006126D03*
X057138Y007298D03*
D170*
X057151Y007286D03*
X057153Y007283D03*
X060311Y006551D03*
X060328Y006556D03*
X059023Y005631D03*
X059351Y005608D03*
X058518Y005706D03*
D171*
X058517Y005698D03*
X059022Y005636D03*
X059167Y005761D03*
X060287Y006543D03*
X060302Y006548D03*
X057162Y007276D03*
D172*
X058183Y006136D03*
X058516Y005691D03*
X058516Y005688D03*
X059021Y005641D03*
X059171Y005741D03*
X059171Y005743D03*
X059171Y005746D03*
D173*
X059169Y005738D03*
X059169Y005736D03*
X059019Y005643D03*
X058182Y006131D03*
X058182Y006133D03*
X059459Y006318D03*
D174*
X059461Y006321D03*
X060281Y006541D03*
X058181Y006128D03*
X059021Y005646D03*
D175*
X059021Y005651D03*
X059171Y005733D03*
X058178Y006123D03*
D176*
X058177Y006113D03*
X058177Y006111D03*
X059019Y005658D03*
X059174Y005723D03*
X059462Y006323D03*
X060274Y006538D03*
D177*
X059017Y005663D03*
D178*
X059018Y005666D03*
X058176Y006106D03*
X059466Y006326D03*
D179*
X059017Y005673D03*
X059017Y005671D03*
X059017Y005668D03*
D180*
X059489Y006333D03*
X059492Y006336D03*
X059999Y006468D03*
X060042Y006478D03*
X060082Y006488D03*
D181*
X059498Y006338D03*
D182*
X059503Y006341D03*
D183*
X059507Y006343D03*
D184*
X059512Y006346D03*
X059927Y006448D03*
D185*
X059518Y006348D03*
D186*
X059541Y006356D03*
X059791Y006421D03*
D187*
X059557Y006361D03*
D188*
X059561Y006363D03*
X059571Y006366D03*
X059736Y006411D03*
D189*
X059682Y006398D03*
X059662Y006393D03*
X059639Y006388D03*
X059622Y006383D03*
X059609Y006378D03*
X059587Y006371D03*
D190*
X059591Y006373D03*
D191*
X059606Y006376D03*
X059611Y006381D03*
X059701Y006403D03*
D192*
X059749Y006413D03*
X059634Y006386D03*
D193*
X059654Y006391D03*
X059689Y006401D03*
D194*
X059669Y006396D03*
D195*
X059711Y006406D03*
D196*
X059716Y006408D03*
X059761Y006416D03*
D197*
X059801Y006423D03*
X059836Y006428D03*
D198*
X059868Y006436D03*
D199*
X059903Y006443D03*
D200*
X059914Y006446D03*
D201*
X059967Y006458D03*
X059992Y006466D03*
D202*
X060027Y006476D03*
X060054Y006483D03*
X060139Y006501D03*
D203*
X060108Y006496D03*
X060093Y006491D03*
D204*
X060119Y006498D03*
X060164Y006508D03*
X060172Y006511D03*
X060177Y006513D03*
X060197Y006518D03*
D205*
X060236Y006528D03*
X060258Y006533D03*
D206*
X060264Y006536D03*
D207*
X058433Y011774D02*
X058155Y012052D01*
X067063Y013444D02*
X067342Y013723D01*
X067063Y013723D02*
X067342Y013444D01*
M02*
